G04*
G04 #@! TF.GenerationSoftware,Altium Limited,Altium Designer,19.1.7 (138)*
G04*
G04 Layer_Color=8388736*
%FSLAX25Y25*%
%MOIN*%
G70*
G01*
G75*
%ADD15C,0.04737*%
%ADD16C,0.16548*%
%ADD17C,0.15800*%
%ADD18C,0.25200*%
%ADD19C,0.05721*%
%ADD20C,0.04921*%
%ADD21C,0.15748*%
%ADD22C,0.03543*%
%ADD23C,0.06706*%
G36*
X10514Y239325D02*
X10733Y239307D01*
X10842D01*
X10934Y239289D01*
X11134Y239271D01*
X11371Y239234D01*
X11426D01*
X11498Y239216D01*
X11571D01*
X11772Y239179D01*
X12009Y239143D01*
X12063D01*
X12136Y239125D01*
X12209Y239107D01*
X12409Y239070D01*
X12610Y239034D01*
Y237722D01*
X12573D01*
X12501Y237758D01*
X12373Y237776D01*
X12209Y237813D01*
X12027Y237849D01*
X11808Y237904D01*
X11334Y237977D01*
X11316D01*
X11225Y237995D01*
X11116Y238013D01*
X10952Y238032D01*
X10770Y238050D01*
X10551Y238068D01*
X10114Y238086D01*
X9913D01*
X9695Y238068D01*
X9421Y238032D01*
X9112Y237977D01*
X8802Y237904D01*
X8529Y237795D01*
X8273Y237649D01*
X8255Y237631D01*
X8182Y237576D01*
X8091Y237485D01*
X7982Y237357D01*
X7873Y237193D01*
X7782Y236993D01*
X7709Y236774D01*
X7690Y236519D01*
Y236501D01*
Y236446D01*
X7709Y236374D01*
X7727Y236264D01*
X7800Y236027D01*
X7854Y235900D01*
X7927Y235772D01*
X7946Y235754D01*
X7964Y235718D01*
X8018Y235663D01*
X8091Y235590D01*
X8292Y235408D01*
X8547Y235208D01*
X8565Y235189D01*
X8620Y235171D01*
X8692Y235116D01*
X8820Y235062D01*
X8948Y234989D01*
X9093Y234916D01*
X9458Y234770D01*
X9476D01*
X9549Y234734D01*
X9640Y234697D01*
X9786Y234643D01*
X9932Y234588D01*
X10095Y234515D01*
X10478Y234351D01*
X10496D01*
X10569Y234315D01*
X10678Y234278D01*
X10806Y234224D01*
X10970Y234151D01*
X11134Y234078D01*
X11517Y233896D01*
X11535Y233877D01*
X11608Y233859D01*
X11699Y233805D01*
X11826Y233732D01*
X12118Y233531D01*
X12409Y233294D01*
X12428Y233276D01*
X12482Y233240D01*
X12555Y233167D01*
X12646Y233058D01*
X12737Y232948D01*
X12847Y232803D01*
X13047Y232474D01*
X13065Y232456D01*
X13083Y232383D01*
X13120Y232292D01*
X13175Y232165D01*
X13229Y232001D01*
X13266Y231800D01*
X13284Y231600D01*
X13302Y231363D01*
Y231327D01*
Y231236D01*
X13284Y231090D01*
X13266Y230908D01*
X13229Y230707D01*
X13156Y230470D01*
X13083Y230234D01*
X12974Y230015D01*
X12956Y229997D01*
X12920Y229924D01*
X12847Y229814D01*
X12756Y229687D01*
X12628Y229541D01*
X12482Y229377D01*
X12300Y229213D01*
X12100Y229067D01*
X12081Y229049D01*
X12009Y229013D01*
X11881Y228940D01*
X11735Y228849D01*
X11535Y228758D01*
X11316Y228667D01*
X11061Y228575D01*
X10770Y228503D01*
X10733D01*
X10642Y228466D01*
X10478Y228448D01*
X10259Y228412D01*
X10004Y228375D01*
X9713Y228357D01*
X9385Y228320D01*
X8784D01*
X8638Y228339D01*
X8510D01*
X8182Y228357D01*
X8110D01*
X8037Y228375D01*
X7927D01*
X7672Y228412D01*
X7381Y228448D01*
X7308D01*
X7235Y228466D01*
X7144D01*
X6907Y228503D01*
X6652Y228539D01*
X6634D01*
X6597Y228557D01*
X6524Y228575D01*
X6451Y228594D01*
X6251Y228648D01*
X6032Y228703D01*
Y230106D01*
X6069Y230088D01*
X6142Y230069D01*
X6269Y230033D01*
X6433Y229978D01*
X6634Y229906D01*
X6870Y229851D01*
X7126Y229796D01*
X7399Y229742D01*
X7435D01*
X7526Y229723D01*
X7690Y229705D01*
X7909Y229687D01*
X8164Y229650D01*
X8456Y229632D01*
X8784Y229614D01*
X9403D01*
X9567Y229632D01*
X9749D01*
X9950Y229669D01*
X10150Y229687D01*
X10351Y229723D01*
X10369D01*
X10442Y229742D01*
X10514Y229778D01*
X10642Y229796D01*
X10897Y229906D01*
X11152Y230033D01*
X11170Y230051D01*
X11207Y230069D01*
X11261Y230124D01*
X11334Y230179D01*
X11498Y230343D01*
X11626Y230561D01*
Y230580D01*
X11644Y230616D01*
X11681Y230689D01*
X11699Y230780D01*
X11735Y230889D01*
X11754Y231017D01*
X11772Y231290D01*
Y231308D01*
Y231363D01*
X11754Y231436D01*
X11735Y231545D01*
X11662Y231782D01*
X11608Y231891D01*
X11517Y232019D01*
X11498Y232037D01*
X11480Y232074D01*
X11426Y232128D01*
X11353Y232201D01*
X11261Y232292D01*
X11152Y232383D01*
X10879Y232566D01*
X10861Y232584D01*
X10806Y232602D01*
X10733Y232657D01*
X10624Y232711D01*
X10496Y232784D01*
X10351Y232857D01*
X9986Y233021D01*
X9968Y233039D01*
X9895Y233058D01*
X9804Y233094D01*
X9658Y233149D01*
X9512Y233203D01*
X9330Y233276D01*
X8948Y233422D01*
X8929Y233440D01*
X8856Y233458D01*
X8765Y233513D01*
X8638Y233568D01*
X8474Y233641D01*
X8310Y233714D01*
X7927Y233896D01*
X7909Y233914D01*
X7836Y233950D01*
X7745Y233987D01*
X7617Y234060D01*
X7490Y234151D01*
X7326Y234242D01*
X7016Y234479D01*
X6998Y234497D01*
X6962Y234533D01*
X6889Y234606D01*
X6798Y234716D01*
X6707Y234825D01*
X6597Y234971D01*
X6397Y235280D01*
X6379Y235299D01*
X6360Y235371D01*
X6324Y235463D01*
X6288Y235590D01*
X6233Y235754D01*
X6196Y235936D01*
X6178Y236155D01*
X6160Y236374D01*
Y236392D01*
Y236465D01*
X6178Y236574D01*
X6196Y236720D01*
X6215Y236884D01*
X6251Y237066D01*
X6306Y237266D01*
X6379Y237467D01*
X6397Y237485D01*
X6415Y237558D01*
X6488Y237649D01*
X6561Y237776D01*
X6652Y237922D01*
X6779Y238086D01*
X6925Y238250D01*
X7089Y238414D01*
X7107Y238433D01*
X7180Y238487D01*
X7290Y238560D01*
X7435Y238651D01*
X7599Y238760D01*
X7818Y238870D01*
X8055Y238979D01*
X8328Y239088D01*
X8365Y239107D01*
X8474Y239125D01*
X8620Y239161D01*
X8838Y239216D01*
X9112Y239271D01*
X9421Y239307D01*
X9768Y239325D01*
X10150Y239344D01*
X10332D01*
X10514Y239325D01*
D02*
G37*
G36*
X40723Y228466D02*
X39430D01*
X39375Y230015D01*
Y229997D01*
X39357Y229978D01*
X39266Y229869D01*
X39156Y229723D01*
X38992Y229523D01*
X38792Y229323D01*
X38573Y229104D01*
X38337Y228903D01*
X38081Y228721D01*
X38045Y228703D01*
X37954Y228667D01*
X37826Y228594D01*
X37626Y228521D01*
X37407Y228448D01*
X37152Y228375D01*
X36879Y228339D01*
X36569Y228320D01*
X36460D01*
X36314Y228339D01*
X36150Y228357D01*
X35968Y228393D01*
X35749Y228448D01*
X35549Y228521D01*
X35330Y228612D01*
X35312Y228630D01*
X35239Y228667D01*
X35148Y228739D01*
X35020Y228831D01*
X34875Y228940D01*
X34729Y229086D01*
X34583Y229250D01*
X34437Y229432D01*
X34419Y229450D01*
X34383Y229523D01*
X34310Y229650D01*
X34237Y229796D01*
X34146Y229997D01*
X34055Y230215D01*
X33964Y230452D01*
X33891Y230725D01*
Y230762D01*
X33873Y230853D01*
X33836Y231017D01*
X33818Y231217D01*
X33781Y231472D01*
X33745Y231764D01*
X33727Y232074D01*
Y232402D01*
Y232420D01*
Y232456D01*
Y232511D01*
Y232584D01*
X33745Y232766D01*
X33763Y233021D01*
X33800Y233313D01*
X33836Y233622D01*
X33909Y233950D01*
X34000Y234260D01*
Y234278D01*
X34018Y234296D01*
X34055Y234406D01*
X34128Y234552D01*
X34219Y234734D01*
X34328Y234952D01*
X34474Y235189D01*
X34638Y235426D01*
X34820Y235645D01*
X34838Y235663D01*
X34911Y235736D01*
X35020Y235845D01*
X35184Y235973D01*
X35367Y236100D01*
X35585Y236246D01*
X35822Y236374D01*
X36095Y236501D01*
X36132Y236519D01*
X36223Y236556D01*
X36387Y236592D01*
X36587Y236647D01*
X36824Y236702D01*
X37116Y236756D01*
X37426Y236774D01*
X37753Y236793D01*
X37990D01*
X38245Y236774D01*
X38519Y236738D01*
X38537D01*
X38592Y236720D01*
X38664D01*
X38756Y236702D01*
X39011Y236647D01*
X39284Y236574D01*
Y240054D01*
X40723D01*
Y228466D01*
D02*
G37*
G36*
X84469Y236829D02*
X84652D01*
X85071Y236793D01*
X85089D01*
X85180Y236774D01*
X85289D01*
X85453Y236756D01*
X85636Y236720D01*
X85836Y236702D01*
X86073Y236647D01*
X86310Y236611D01*
Y235335D01*
X86273D01*
X86200Y235371D01*
X86073Y235390D01*
X85891Y235426D01*
X85708Y235463D01*
X85490Y235499D01*
X85034Y235572D01*
X85016D01*
X84925Y235590D01*
X84816Y235608D01*
X84670Y235627D01*
X84506D01*
X84342Y235645D01*
X83978Y235663D01*
X83795D01*
X83668Y235645D01*
X83376Y235627D01*
X83085Y235572D01*
X83066D01*
X83030Y235554D01*
X82957Y235536D01*
X82866Y235517D01*
X82684Y235426D01*
X82484Y235335D01*
X82447Y235317D01*
X82356Y235244D01*
X82265Y235135D01*
X82174Y235007D01*
X82156Y234971D01*
X82137Y234880D01*
X82101Y234752D01*
X82083Y234588D01*
Y234570D01*
Y234552D01*
X82101Y234460D01*
X82119Y234333D01*
X82156Y234187D01*
X82174Y234151D01*
X82228Y234078D01*
X82338Y233969D01*
X82484Y233841D01*
X82502D01*
X82520Y233805D01*
X82575Y233786D01*
X82648Y233732D01*
X82757Y233677D01*
X82866Y233622D01*
X82994Y233568D01*
X83139Y233495D01*
X83158D01*
X83212Y233458D01*
X83303Y233440D01*
X83431Y233385D01*
X83595Y233331D01*
X83777Y233276D01*
X83978Y233222D01*
X84214Y233149D01*
X84251Y233131D01*
X84342Y233112D01*
X84469Y233076D01*
X84652Y233003D01*
X84852Y232948D01*
X85053Y232857D01*
X85253Y232784D01*
X85453Y232693D01*
X85472Y232675D01*
X85545Y232657D01*
X85617Y232602D01*
X85745Y232547D01*
X86000Y232365D01*
X86255Y232165D01*
X86273Y232147D01*
X86310Y232110D01*
X86364Y232055D01*
X86437Y231983D01*
X86583Y231782D01*
X86656Y231655D01*
X86711Y231527D01*
Y231509D01*
X86729Y231472D01*
X86765Y231381D01*
X86783Y231290D01*
X86820Y231163D01*
X86838Y231035D01*
X86856Y230707D01*
Y230689D01*
Y230634D01*
Y230543D01*
X86838Y230452D01*
X86783Y230197D01*
X86692Y229924D01*
Y229906D01*
X86674Y229869D01*
X86638Y229796D01*
X86583Y229723D01*
X86456Y229523D01*
X86291Y229304D01*
X86273Y229286D01*
X86255Y229268D01*
X86200Y229213D01*
X86128Y229158D01*
X85927Y229013D01*
X85690Y228849D01*
X85672D01*
X85636Y228812D01*
X85563Y228794D01*
X85472Y228739D01*
X85253Y228648D01*
X84980Y228557D01*
X84961D01*
X84925Y228539D01*
X84834Y228521D01*
X84743Y228503D01*
X84633Y228466D01*
X84488Y228448D01*
X84196Y228393D01*
X84178D01*
X84123Y228375D01*
X84050D01*
X83941Y228357D01*
X83704Y228339D01*
X83413Y228320D01*
X83103D01*
X82903Y228339D01*
X82666D01*
X82411Y228357D01*
X81864Y228393D01*
X81828D01*
X81755Y228412D01*
X81609Y228430D01*
X81445Y228448D01*
X81226Y228484D01*
X81008Y228521D01*
X80516Y228630D01*
Y229942D01*
X80552D01*
X80643Y229906D01*
X80771Y229869D01*
X80953Y229814D01*
X81172Y229760D01*
X81409Y229705D01*
X81937Y229614D01*
X81973D01*
X82064Y229596D01*
X82192Y229578D01*
X82374D01*
X82593Y229559D01*
X82830Y229541D01*
X83358Y229523D01*
X83522D01*
X83704Y229541D01*
X83923Y229559D01*
X84178Y229596D01*
X84433Y229632D01*
X84670Y229705D01*
X84870Y229796D01*
X84888Y229814D01*
X84943Y229851D01*
X85034Y229906D01*
X85125Y229997D01*
X85216Y230106D01*
X85308Y230252D01*
X85362Y230416D01*
X85381Y230598D01*
Y230616D01*
Y230634D01*
X85362Y230725D01*
X85344Y230853D01*
X85289Y230980D01*
X85271Y231017D01*
X85235Y231090D01*
X85144Y231199D01*
X84998Y231327D01*
X84961Y231363D01*
X84907Y231381D01*
X84852Y231436D01*
X84761Y231472D01*
X84652Y231527D01*
X84506Y231600D01*
X84360Y231655D01*
X84342D01*
X84287Y231691D01*
X84196Y231728D01*
X84050Y231782D01*
X83886Y231837D01*
X83686Y231910D01*
X83467Y231983D01*
X83194Y232055D01*
X83176D01*
X83103Y232092D01*
X82994Y232110D01*
X82866Y232165D01*
X82702Y232220D01*
X82538Y232274D01*
X82174Y232420D01*
X82156Y232438D01*
X82101Y232456D01*
X82010Y232511D01*
X81901Y232566D01*
X81627Y232711D01*
X81354Y232912D01*
X81336Y232930D01*
X81299Y232966D01*
X81226Y233021D01*
X81153Y233112D01*
X80971Y233313D01*
X80807Y233586D01*
Y233604D01*
X80771Y233659D01*
X80753Y233732D01*
X80716Y233841D01*
X80680Y233969D01*
X80661Y234133D01*
X80625Y234315D01*
Y234497D01*
Y234515D01*
Y234552D01*
Y234625D01*
X80643Y234716D01*
X80661Y234825D01*
X80680Y234952D01*
X80771Y235244D01*
Y235262D01*
X80807Y235317D01*
X80844Y235390D01*
X80898Y235499D01*
X80971Y235608D01*
X81062Y235736D01*
X81190Y235882D01*
X81317Y236009D01*
X81336Y236027D01*
X81390Y236064D01*
X81481Y236137D01*
X81591Y236228D01*
X81736Y236319D01*
X81919Y236410D01*
X82119Y236519D01*
X82356Y236611D01*
X82392Y236629D01*
X82484Y236647D01*
X82611Y236683D01*
X82811Y236738D01*
X83048Y236774D01*
X83322Y236811D01*
X83650Y236829D01*
X83996Y236847D01*
X84324D01*
X84469Y236829D01*
D02*
G37*
G36*
X-7614Y236829D02*
X-7450Y236811D01*
X-7250Y236774D01*
X-7050Y236720D01*
X-6831Y236647D01*
X-6630Y236538D01*
X-6612Y236519D01*
X-6539Y236483D01*
X-6448Y236410D01*
X-6321Y236319D01*
X-6175Y236210D01*
X-6029Y236064D01*
X-5883Y235900D01*
X-5738Y235700D01*
X-5720Y235681D01*
X-5683Y235608D01*
X-5610Y235499D01*
X-5537Y235335D01*
X-5446Y235153D01*
X-5355Y234934D01*
X-5264Y234679D01*
X-5191Y234406D01*
Y234369D01*
X-5155Y234278D01*
X-5136Y234114D01*
X-5100Y233914D01*
X-5064Y233677D01*
X-5045Y233385D01*
X-5009Y233076D01*
Y232730D01*
Y232711D01*
Y232675D01*
Y232620D01*
Y232547D01*
X-5027Y232329D01*
X-5045Y232074D01*
X-5082Y231764D01*
X-5136Y231454D01*
X-5209Y231126D01*
X-5319Y230798D01*
X-5337Y230762D01*
X-5373Y230671D01*
X-5446Y230525D01*
X-5537Y230325D01*
X-5665Y230124D01*
X-5811Y229887D01*
X-5975Y229669D01*
X-6175Y229450D01*
X-6193Y229432D01*
X-6266Y229359D01*
X-6394Y229268D01*
X-6539Y229140D01*
X-6722Y229013D01*
X-6959Y228867D01*
X-7195Y228739D01*
X-7469Y228630D01*
X-7505Y228612D01*
X-7596Y228594D01*
X-7742Y228557D01*
X-7942Y228503D01*
X-8179Y228448D01*
X-8452Y228412D01*
X-8744Y228393D01*
X-9054Y228375D01*
X-9309D01*
X-9546Y228393D01*
X-9837Y228430D01*
X-9910D01*
X-9983Y228448D01*
X-10074Y228466D01*
X-10202D01*
X-10329Y228484D01*
X-10621Y228539D01*
Y225095D01*
X-12042D01*
Y236702D01*
X-10785D01*
X-10694Y235317D01*
Y235335D01*
X-10657Y235353D01*
X-10584Y235463D01*
X-10457Y235608D01*
X-10293Y235772D01*
X-10092Y235973D01*
X-9874Y236173D01*
X-9637Y236355D01*
X-9382Y236501D01*
X-9345Y236519D01*
X-9254Y236556D01*
X-9127Y236611D01*
X-8926Y236683D01*
X-8708Y236738D01*
X-8452Y236793D01*
X-8161Y236829D01*
X-7869Y236847D01*
X-7742D01*
X-7614Y236829D01*
D02*
G37*
G36*
X57376Y236829D02*
X57467D01*
X57595Y236811D01*
X57886Y236738D01*
X58196Y236647D01*
X58506Y236501D01*
X58816Y236282D01*
X58961Y236155D01*
X59089Y236009D01*
X59126Y235973D01*
X59144Y235918D01*
X59198Y235863D01*
X59235Y235772D01*
X59289Y235663D01*
X59362Y235536D01*
X59417Y235390D01*
X59472Y235226D01*
X59526Y235062D01*
X59581Y234861D01*
X59636Y234643D01*
X59672Y234388D01*
X59690Y234133D01*
X59708Y233859D01*
Y233568D01*
X58269D01*
Y233586D01*
Y233622D01*
Y233677D01*
Y233750D01*
X58251Y233932D01*
X58233Y234151D01*
X58196Y234406D01*
X58142Y234661D01*
X58051Y234916D01*
X57941Y235116D01*
X57923Y235135D01*
X57886Y235189D01*
X57795Y235280D01*
X57686Y235371D01*
X57540Y235444D01*
X57376Y235536D01*
X57176Y235590D01*
X56939Y235608D01*
X56830D01*
X56775Y235590D01*
X56593Y235572D01*
X56374Y235499D01*
X56356D01*
X56320Y235481D01*
X56265Y235463D01*
X56192Y235426D01*
X55992Y235317D01*
X55773Y235171D01*
X55755Y235153D01*
X55718Y235135D01*
X55664Y235080D01*
X55573Y235025D01*
X55372Y234825D01*
X55117Y234588D01*
X55099Y234570D01*
X55062Y234533D01*
X54989Y234460D01*
X54898Y234351D01*
X54789Y234224D01*
X54662Y234096D01*
X54534Y233932D01*
X54388Y233750D01*
Y228466D01*
X52949D01*
Y236702D01*
X54242D01*
X54279Y235171D01*
Y235189D01*
X54315Y235208D01*
X54406Y235317D01*
X54552Y235463D01*
X54734Y235663D01*
X54953Y235863D01*
X55190Y236082D01*
X55445Y236282D01*
X55718Y236446D01*
X55755Y236465D01*
X55846Y236501D01*
X55973Y236574D01*
X56174Y236647D01*
X56374Y236720D01*
X56629Y236793D01*
X56884Y236829D01*
X57158Y236847D01*
X57285D01*
X57376Y236829D01*
D02*
G37*
G36*
X67725D02*
X67816Y236811D01*
X67944Y236774D01*
X68072Y236720D01*
X68217Y236647D01*
X68363Y236556D01*
X68509Y236428D01*
X68655Y236264D01*
X68782Y236064D01*
X68910Y235845D01*
X69001Y235572D01*
X69074Y235244D01*
X69128Y234880D01*
X69147Y234460D01*
Y228466D01*
X67725D01*
Y234369D01*
Y234388D01*
Y234442D01*
Y234497D01*
Y234588D01*
X67707Y234788D01*
X67689Y234989D01*
Y235007D01*
Y235025D01*
X67671Y235135D01*
X67652Y235262D01*
X67598Y235390D01*
X67580Y235408D01*
X67561Y235463D01*
X67507Y235536D01*
X67452Y235590D01*
X67434Y235608D01*
X67397Y235627D01*
X67325Y235645D01*
X67233Y235663D01*
X67215D01*
X67142Y235645D01*
X67051Y235627D01*
X66942Y235554D01*
X66924Y235536D01*
X66869Y235481D01*
X66778Y235371D01*
X66669Y235226D01*
Y235208D01*
X66650Y235189D01*
X66614Y235135D01*
X66577Y235080D01*
X66468Y234880D01*
X66341Y234643D01*
Y234625D01*
X66304Y234570D01*
X66268Y234497D01*
X66213Y234388D01*
X66158Y234260D01*
X66085Y234114D01*
X66013Y233932D01*
X65921Y233750D01*
Y228466D01*
X64500D01*
Y234224D01*
Y234242D01*
Y234296D01*
Y234369D01*
Y234479D01*
X64482Y234716D01*
X64464Y234934D01*
Y234952D01*
Y234989D01*
X64446Y235098D01*
X64428Y235244D01*
X64373Y235371D01*
X64355Y235390D01*
X64336Y235463D01*
X64282Y235536D01*
X64227Y235590D01*
X64209Y235608D01*
X64172Y235627D01*
X64100Y235645D01*
X64008Y235663D01*
X63990D01*
X63917Y235645D01*
X63826Y235627D01*
X63735Y235572D01*
X63717Y235554D01*
X63662Y235499D01*
X63571Y235408D01*
X63462Y235262D01*
X63444Y235226D01*
X63371Y235116D01*
X63261Y234934D01*
X63134Y234697D01*
Y234679D01*
X63097Y234625D01*
X63061Y234552D01*
X63006Y234442D01*
X62952Y234315D01*
X62879Y234151D01*
X62788Y233950D01*
X62697Y233750D01*
Y228466D01*
X61275D01*
Y236702D01*
X62441D01*
X62514Y235135D01*
X62533Y235153D01*
X62551Y235208D01*
X62587Y235299D01*
X62642Y235408D01*
X62788Y235663D01*
X62933Y235918D01*
X62952Y235936D01*
X62970Y235973D01*
X63006Y236027D01*
X63061Y236100D01*
X63188Y236282D01*
X63353Y236446D01*
X63371Y236465D01*
X63389Y236483D01*
X63498Y236556D01*
X63644Y236647D01*
X63808Y236738D01*
X63826D01*
X63844Y236756D01*
X63972Y236793D01*
X64136Y236829D01*
X64336Y236847D01*
X64446D01*
X64573Y236829D01*
X64719Y236793D01*
X64883Y236738D01*
X65047Y236665D01*
X65211Y236556D01*
X65357Y236410D01*
X65375Y236392D01*
X65411Y236337D01*
X65466Y236228D01*
X65539Y236082D01*
X65594Y235882D01*
X65648Y235663D01*
X65685Y235390D01*
X65703Y235062D01*
X65721Y235080D01*
X65739Y235135D01*
X65776Y235208D01*
X65830Y235317D01*
X65958Y235554D01*
X66085Y235809D01*
Y235827D01*
X66122Y235863D01*
X66158Y235936D01*
X66213Y236009D01*
X66341Y236191D01*
X66486Y236374D01*
X66505Y236392D01*
X66523Y236410D01*
X66632Y236501D01*
X66778Y236611D01*
X66960Y236720D01*
X66978D01*
X67015Y236738D01*
X67069Y236756D01*
X67142Y236793D01*
X67343Y236829D01*
X67580Y236847D01*
X67652D01*
X67725Y236829D01*
D02*
G37*
G36*
X91175Y232930D02*
X94873Y236702D01*
X96768D01*
X92905Y232894D01*
X96987Y228466D01*
X95019D01*
X91175Y232875D01*
Y228466D01*
X89753D01*
Y240054D01*
X91175D01*
Y232930D01*
D02*
G37*
G36*
X74904Y236829D02*
X75104Y236811D01*
X75341Y236774D01*
X75797Y236683D01*
X75815D01*
X75906Y236647D01*
X76015Y236611D01*
X76143Y236556D01*
X76307Y236483D01*
X76471Y236392D01*
X76635Y236301D01*
X76799Y236173D01*
X76817Y236155D01*
X76872Y236119D01*
X76945Y236046D01*
X77036Y235955D01*
X77145Y235827D01*
X77254Y235681D01*
X77346Y235517D01*
X77437Y235335D01*
X77455Y235317D01*
X77473Y235244D01*
X77509Y235135D01*
X77564Y234989D01*
X77601Y234825D01*
X77637Y234606D01*
X77655Y234388D01*
X77673Y234133D01*
Y228466D01*
X76380D01*
X76343Y229559D01*
X76307Y229523D01*
X76234Y229450D01*
X76088Y229341D01*
X75924Y229195D01*
X75706Y229049D01*
X75487Y228885D01*
X75232Y228739D01*
X74977Y228612D01*
X74940Y228594D01*
X74849Y228575D01*
X74722Y228521D01*
X74540Y228466D01*
X74321Y228412D01*
X74066Y228375D01*
X73811Y228339D01*
X73519Y228320D01*
X73410D01*
X73282Y228339D01*
X73118D01*
X72918Y228357D01*
X72718Y228393D01*
X72317Y228484D01*
X72299D01*
X72244Y228521D01*
X72153Y228557D01*
X72025Y228612D01*
X71770Y228776D01*
X71497Y228976D01*
X71479Y228994D01*
X71442Y229031D01*
X71387Y229104D01*
X71315Y229195D01*
X71242Y229304D01*
X71151Y229432D01*
X71023Y229723D01*
Y229742D01*
X71005Y229796D01*
X70987Y229887D01*
X70950Y229997D01*
X70932Y230142D01*
X70896Y230306D01*
X70877Y230652D01*
Y230671D01*
Y230707D01*
Y230780D01*
X70896Y230853D01*
X70914Y230962D01*
X70932Y231090D01*
X70987Y231363D01*
X71096Y231673D01*
X71260Y232001D01*
X71369Y232165D01*
X71497Y232311D01*
X71624Y232456D01*
X71788Y232602D01*
X71807D01*
X71825Y232639D01*
X71880Y232675D01*
X71971Y232711D01*
X72062Y232766D01*
X72171Y232821D01*
X72317Y232894D01*
X72481Y232966D01*
X72663Y233021D01*
X72863Y233094D01*
X73082Y233149D01*
X73337Y233203D01*
X73592Y233240D01*
X73884Y233276D01*
X74193Y233313D01*
X76234D01*
Y234023D01*
Y234060D01*
Y234151D01*
X76216Y234278D01*
X76179Y234442D01*
X76125Y234625D01*
X76034Y234825D01*
X75924Y235007D01*
X75760Y235189D01*
X75742Y235208D01*
X75669Y235262D01*
X75560Y235335D01*
X75414Y235408D01*
X75214Y235481D01*
X74959Y235554D01*
X74667Y235608D01*
X74339Y235627D01*
X74084D01*
X73902Y235608D01*
X73683Y235590D01*
X73465Y235554D01*
X72954Y235463D01*
X72918D01*
X72845Y235426D01*
X72699Y235390D01*
X72535Y235353D01*
X72317Y235280D01*
X72080Y235208D01*
X71825Y235116D01*
X71570Y235025D01*
Y236319D01*
X71588D01*
X71624Y236337D01*
X71661Y236355D01*
X71734Y236374D01*
X71916Y236428D01*
X72153Y236501D01*
X72171D01*
X72207Y236519D01*
X72280Y236538D01*
X72371Y236556D01*
X72608Y236611D01*
X72863Y236665D01*
X72882D01*
X72936Y236683D01*
X73009Y236702D01*
X73100Y236720D01*
X73210Y236738D01*
X73337Y236756D01*
X73629Y236793D01*
X73647D01*
X73702Y236811D01*
X73774D01*
X73884Y236829D01*
X74011D01*
X74139Y236847D01*
X74722D01*
X74904Y236829D01*
D02*
G37*
G36*
X29135Y229650D02*
X31595D01*
Y228466D01*
X24999D01*
Y229650D01*
X27696D01*
Y238888D01*
X25273D01*
Y240054D01*
X29135D01*
Y229650D01*
D02*
G37*
G36*
X-23302Y237941D02*
X-26472D01*
Y228466D01*
X-27948D01*
Y237941D01*
X-31118D01*
Y239179D01*
X-23302D01*
Y237941D01*
D02*
G37*
G36*
X47082Y236829D02*
X47282Y236811D01*
X47519Y236774D01*
X47774Y236738D01*
X48030Y236665D01*
X48285Y236574D01*
X48321Y236556D01*
X48394Y236519D01*
X48521Y236465D01*
X48685Y236374D01*
X48849Y236264D01*
X49050Y236137D01*
X49232Y235973D01*
X49414Y235791D01*
X49432Y235772D01*
X49487Y235700D01*
X49578Y235590D01*
X49669Y235463D01*
X49779Y235280D01*
X49906Y235080D01*
X50015Y234843D01*
X50107Y234588D01*
X50125Y234552D01*
X50143Y234460D01*
X50179Y234315D01*
X50234Y234133D01*
X50270Y233896D01*
X50307Y233641D01*
X50325Y233349D01*
X50343Y233021D01*
Y233003D01*
Y232966D01*
Y232912D01*
Y232839D01*
Y232675D01*
X50325Y232493D01*
Y232456D01*
Y232365D01*
Y232256D01*
X50307Y232128D01*
X44531D01*
Y232110D01*
Y232074D01*
Y232001D01*
X44550Y231928D01*
Y231819D01*
X44568Y231691D01*
X44622Y231399D01*
X44695Y231090D01*
X44823Y230762D01*
X44987Y230452D01*
X45224Y230179D01*
X45260Y230142D01*
X45351Y230069D01*
X45515Y229960D01*
X45752Y229851D01*
X46044Y229723D01*
X46390Y229614D01*
X46791Y229541D01*
X47264Y229505D01*
X47720D01*
X47975Y229523D01*
X48030D01*
X48102Y229541D01*
X48193D01*
X48430Y229578D01*
X48667Y229596D01*
X48685D01*
X48722Y229614D01*
X48795D01*
X48886Y229632D01*
X49086Y229669D01*
X49323Y229705D01*
X49341D01*
X49378Y229723D01*
X49432Y229742D01*
X49505Y229760D01*
X49706Y229796D01*
X49906Y229851D01*
Y228685D01*
X49888D01*
X49797Y228667D01*
X49687Y228630D01*
X49523Y228594D01*
X49323Y228557D01*
X49104Y228503D01*
X48849Y228466D01*
X48576Y228430D01*
X48540D01*
X48449Y228412D01*
X48303Y228393D01*
X48121Y228375D01*
X47884Y228357D01*
X47629Y228339D01*
X47355Y228320D01*
X46882D01*
X46681Y228339D01*
X46444Y228357D01*
X46153Y228393D01*
X45843Y228430D01*
X45533Y228503D01*
X45242Y228594D01*
X45205Y228612D01*
X45114Y228648D01*
X44969Y228721D01*
X44805Y228812D01*
X44604Y228922D01*
X44385Y229067D01*
X44185Y229231D01*
X43985Y229432D01*
X43966Y229450D01*
X43912Y229523D01*
X43821Y229650D01*
X43711Y229796D01*
X43584Y229997D01*
X43475Y230215D01*
X43347Y230488D01*
X43256Y230762D01*
Y230780D01*
Y230798D01*
X43219Y230908D01*
X43183Y231072D01*
X43146Y231290D01*
X43110Y231563D01*
X43074Y231855D01*
X43055Y232201D01*
X43037Y232566D01*
Y232584D01*
Y232602D01*
Y232711D01*
X43055Y232875D01*
X43074Y233094D01*
X43092Y233331D01*
X43146Y233604D01*
X43201Y233896D01*
X43274Y234187D01*
Y234205D01*
X43292Y234224D01*
X43329Y234315D01*
X43383Y234460D01*
X43456Y234661D01*
X43566Y234861D01*
X43693Y235098D01*
X43839Y235335D01*
X44003Y235554D01*
X44021Y235572D01*
X44094Y235645D01*
X44203Y235754D01*
X44331Y235900D01*
X44513Y236046D01*
X44714Y236210D01*
X44932Y236355D01*
X45187Y236501D01*
X45224Y236519D01*
X45315Y236556D01*
X45461Y236611D01*
X45643Y236683D01*
X45880Y236738D01*
X46153Y236793D01*
X46444Y236829D01*
X46772Y236847D01*
X46918D01*
X47082Y236829D01*
D02*
G37*
G36*
X19369D02*
X19570Y236811D01*
X19825Y236774D01*
X20080Y236720D01*
X20353Y236647D01*
X20627Y236556D01*
X20663Y236538D01*
X20754Y236501D01*
X20882Y236446D01*
X21046Y236355D01*
X21228Y236246D01*
X21428Y236100D01*
X21629Y235936D01*
X21811Y235754D01*
X21829Y235736D01*
X21884Y235663D01*
X21975Y235554D01*
X22084Y235390D01*
X22212Y235208D01*
X22339Y234971D01*
X22449Y234716D01*
X22558Y234442D01*
X22576Y234406D01*
X22594Y234296D01*
X22649Y234133D01*
X22704Y233932D01*
X22740Y233659D01*
X22795Y233349D01*
X22813Y233003D01*
X22831Y232639D01*
Y232620D01*
Y232602D01*
Y232547D01*
Y232474D01*
X22813Y232292D01*
X22795Y232055D01*
X22758Y231782D01*
X22722Y231491D01*
X22649Y231181D01*
X22558Y230871D01*
X22540Y230835D01*
X22503Y230744D01*
X22449Y230598D01*
X22357Y230416D01*
X22248Y230197D01*
X22121Y229960D01*
X21957Y229723D01*
X21775Y229505D01*
X21756Y229486D01*
X21683Y229414D01*
X21574Y229304D01*
X21428Y229177D01*
X21246Y229049D01*
X21046Y228903D01*
X20791Y228758D01*
X20536Y228630D01*
X20499Y228612D01*
X20408Y228575D01*
X20262Y228539D01*
X20062Y228484D01*
X19807Y228412D01*
X19533Y228375D01*
X19224Y228339D01*
X18878Y228320D01*
X18732D01*
X18550Y228339D01*
X18349Y228357D01*
X18094Y228393D01*
X17821Y228430D01*
X17547Y228503D01*
X17274Y228594D01*
X17238Y228612D01*
X17165Y228648D01*
X17037Y228703D01*
X16873Y228794D01*
X16673Y228903D01*
X16491Y229049D01*
X16290Y229213D01*
X16090Y229395D01*
X16072Y229414D01*
X16017Y229486D01*
X15926Y229596D01*
X15816Y229760D01*
X15707Y229942D01*
X15580Y230179D01*
X15470Y230434D01*
X15361Y230707D01*
Y230725D01*
X15343Y230744D01*
X15325Y230853D01*
X15288Y231017D01*
X15234Y231236D01*
X15179Y231509D01*
X15142Y231819D01*
X15124Y232165D01*
X15106Y232529D01*
Y232547D01*
Y232566D01*
Y232620D01*
Y232693D01*
X15124Y232875D01*
X15142Y233094D01*
X15161Y233367D01*
X15215Y233659D01*
X15270Y233969D01*
X15361Y234260D01*
Y234278D01*
X15379Y234296D01*
X15416Y234388D01*
X15470Y234552D01*
X15561Y234734D01*
X15671Y234952D01*
X15816Y235171D01*
X15962Y235408D01*
X16145Y235627D01*
X16163Y235645D01*
X16236Y235718D01*
X16345Y235827D01*
X16491Y235955D01*
X16673Y236100D01*
X16892Y236246D01*
X17128Y236392D01*
X17383Y236519D01*
X17420Y236538D01*
X17511Y236574D01*
X17657Y236629D01*
X17857Y236683D01*
X18112Y236738D01*
X18386Y236793D01*
X18695Y236829D01*
X19041Y236847D01*
X19187D01*
X19369Y236829D01*
D02*
G37*
G36*
X-17581Y236829D02*
X-17380Y236811D01*
X-17125Y236774D01*
X-16870Y236720D01*
X-16597Y236647D01*
X-16324Y236556D01*
X-16287Y236538D01*
X-16196Y236501D01*
X-16069Y236446D01*
X-15904Y236355D01*
X-15722Y236246D01*
X-15522Y236100D01*
X-15321Y235936D01*
X-15139Y235754D01*
X-15121Y235736D01*
X-15066Y235663D01*
X-14975Y235554D01*
X-14866Y235390D01*
X-14738Y235208D01*
X-14611Y234971D01*
X-14502Y234716D01*
X-14392Y234442D01*
X-14374Y234406D01*
X-14356Y234296D01*
X-14301Y234133D01*
X-14246Y233932D01*
X-14210Y233659D01*
X-14155Y233349D01*
X-14137Y233003D01*
X-14119Y232639D01*
Y232620D01*
Y232602D01*
Y232547D01*
Y232474D01*
X-14137Y232292D01*
X-14155Y232055D01*
X-14192Y231782D01*
X-14228Y231491D01*
X-14301Y231181D01*
X-14392Y230871D01*
X-14411Y230835D01*
X-14447Y230744D01*
X-14502Y230598D01*
X-14593Y230416D01*
X-14702Y230197D01*
X-14830Y229960D01*
X-14994Y229723D01*
X-15176Y229505D01*
X-15194Y229486D01*
X-15267Y229414D01*
X-15376Y229304D01*
X-15522Y229177D01*
X-15704Y229049D01*
X-15904Y228903D01*
X-16160Y228758D01*
X-16415Y228630D01*
X-16451Y228612D01*
X-16542Y228575D01*
X-16688Y228539D01*
X-16888Y228484D01*
X-17143Y228412D01*
X-17417Y228375D01*
X-17727Y228339D01*
X-18073Y228320D01*
X-18218D01*
X-18401Y228339D01*
X-18601Y228357D01*
X-18856Y228393D01*
X-19129Y228430D01*
X-19403Y228503D01*
X-19676Y228594D01*
X-19713Y228612D01*
X-19785Y228648D01*
X-19913Y228703D01*
X-20077Y228794D01*
X-20277Y228903D01*
X-20459Y229049D01*
X-20660Y229213D01*
X-20860Y229395D01*
X-20879Y229414D01*
X-20933Y229486D01*
X-21024Y229596D01*
X-21134Y229760D01*
X-21243Y229942D01*
X-21371Y230179D01*
X-21480Y230434D01*
X-21589Y230707D01*
Y230725D01*
X-21607Y230744D01*
X-21626Y230853D01*
X-21662Y231017D01*
X-21717Y231236D01*
X-21771Y231509D01*
X-21808Y231819D01*
X-21826Y232165D01*
X-21844Y232529D01*
Y232547D01*
Y232566D01*
Y232620D01*
Y232693D01*
X-21826Y232875D01*
X-21808Y233094D01*
X-21790Y233367D01*
X-21735Y233659D01*
X-21680Y233969D01*
X-21589Y234260D01*
Y234278D01*
X-21571Y234296D01*
X-21534Y234388D01*
X-21480Y234552D01*
X-21389Y234734D01*
X-21279Y234952D01*
X-21134Y235171D01*
X-20988Y235408D01*
X-20806Y235627D01*
X-20787Y235645D01*
X-20715Y235718D01*
X-20605Y235827D01*
X-20459Y235954D01*
X-20277Y236100D01*
X-20059Y236246D01*
X-19822Y236392D01*
X-19567Y236519D01*
X-19530Y236538D01*
X-19439Y236574D01*
X-19293Y236629D01*
X-19093Y236683D01*
X-18838Y236738D01*
X-18565Y236793D01*
X-18255Y236829D01*
X-17909Y236847D01*
X-17763D01*
X-17581Y236829D01*
D02*
G37*
%LPC*%
G36*
X37644Y235608D02*
X37535D01*
X37444Y235590D01*
X37243Y235572D01*
X36988Y235517D01*
X36678Y235426D01*
X36387Y235280D01*
X36095Y235098D01*
X35822Y234843D01*
X35804Y234807D01*
X35731Y234697D01*
X35676Y234625D01*
X35622Y234515D01*
X35567Y234406D01*
X35512Y234278D01*
X35440Y234114D01*
X35385Y233950D01*
X35330Y233750D01*
X35294Y233531D01*
X35239Y233313D01*
X35221Y233058D01*
X35184Y232784D01*
Y232493D01*
Y232474D01*
Y232420D01*
Y232347D01*
Y232256D01*
X35203Y232128D01*
Y231983D01*
X35239Y231655D01*
X35294Y231290D01*
X35367Y230926D01*
X35476Y230580D01*
X35622Y230270D01*
X35640Y230234D01*
X35695Y230161D01*
X35804Y230033D01*
X35950Y229906D01*
X36114Y229778D01*
X36332Y229650D01*
X36569Y229578D01*
X36861Y229541D01*
X36952D01*
X37061Y229559D01*
X37207Y229596D01*
X37389Y229650D01*
X37571Y229742D01*
X37790Y229851D01*
X38008Y230015D01*
X38045Y230033D01*
X38118Y230106D01*
X38227Y230215D01*
X38391Y230379D01*
X38592Y230580D01*
X38792Y230835D01*
X39029Y231126D01*
X39284Y231454D01*
Y235262D01*
X39266D01*
X39229Y235299D01*
X39138Y235317D01*
X39047Y235353D01*
X38938Y235390D01*
X38792Y235444D01*
X38482Y235517D01*
X38464D01*
X38409Y235536D01*
X38337Y235554D01*
X38227Y235572D01*
X38100D01*
X37954Y235590D01*
X37644Y235608D01*
D02*
G37*
G36*
X-7997Y235608D02*
X-8270D01*
X-8325Y235590D01*
X-8507Y235572D01*
X-8708Y235517D01*
X-8726D01*
X-8762Y235499D01*
X-8817Y235481D01*
X-8890Y235444D01*
X-9072Y235353D01*
X-9291Y235226D01*
X-9309D01*
X-9345Y235189D01*
X-9400Y235153D01*
X-9473Y235080D01*
X-9673Y234916D01*
X-9928Y234679D01*
X-9947Y234661D01*
X-9983Y234625D01*
X-10056Y234552D01*
X-10129Y234460D01*
X-10238Y234333D01*
X-10366Y234187D01*
X-10493Y234041D01*
X-10621Y233859D01*
Y229869D01*
X-10603D01*
X-10548Y229851D01*
X-10475Y229814D01*
X-10366Y229778D01*
X-10256Y229742D01*
X-10110Y229687D01*
X-9801Y229614D01*
X-9783D01*
X-9728Y229596D01*
X-9637Y229577D01*
X-9527D01*
X-9400Y229559D01*
X-9254Y229541D01*
X-8945Y229523D01*
X-8835D01*
X-8762Y229541D01*
X-8544Y229559D01*
X-8288Y229614D01*
X-7997Y229723D01*
X-7705Y229851D01*
X-7414Y230051D01*
X-7268Y230161D01*
X-7141Y230306D01*
Y230325D01*
X-7104Y230343D01*
X-7086Y230397D01*
X-7031Y230452D01*
X-6977Y230543D01*
X-6922Y230634D01*
X-6867Y230762D01*
X-6795Y230889D01*
X-6740Y231053D01*
X-6685Y231217D01*
X-6630Y231418D01*
X-6576Y231636D01*
X-6521Y231855D01*
X-6503Y232110D01*
X-6466Y232365D01*
Y232657D01*
Y232693D01*
Y232766D01*
Y232894D01*
X-6485Y233058D01*
Y233240D01*
X-6503Y233440D01*
X-6576Y233841D01*
Y233859D01*
X-6594Y233932D01*
X-6612Y234041D01*
X-6649Y234169D01*
X-6740Y234460D01*
X-6867Y234770D01*
Y234788D01*
X-6904Y234843D01*
X-6940Y234916D01*
X-7013Y235007D01*
X-7177Y235208D01*
X-7396Y235390D01*
X-7414Y235408D01*
X-7450Y235426D01*
X-7523Y235463D01*
X-7614Y235499D01*
X-7724Y235536D01*
X-7851Y235572D01*
X-7997Y235608D01*
D02*
G37*
G36*
X76234Y232220D02*
X74230D01*
X74102Y232201D01*
X73811Y232183D01*
X73501Y232110D01*
X73483D01*
X73446Y232092D01*
X73374Y232074D01*
X73282Y232037D01*
X73064Y231928D01*
X72863Y231800D01*
X72845D01*
X72827Y231764D01*
X72736Y231673D01*
X72608Y231509D01*
X72499Y231327D01*
Y231309D01*
X72481Y231272D01*
X72462Y231217D01*
X72444Y231144D01*
X72408Y230944D01*
X72390Y230707D01*
Y230689D01*
Y230671D01*
X72408Y230561D01*
X72426Y230416D01*
X72462Y230252D01*
Y230234D01*
X72481Y230215D01*
X72517Y230124D01*
X72590Y229997D01*
X72699Y229851D01*
X72736Y229833D01*
X72809Y229760D01*
X72954Y229669D01*
X73118Y229596D01*
X73137D01*
X73173Y229578D01*
X73228Y229559D01*
X73301D01*
X73501Y229523D01*
X73756Y229505D01*
X73847D01*
X73938Y229523D01*
X74084Y229541D01*
X74248Y229578D01*
X74449Y229632D01*
X74649Y229705D01*
X74886Y229796D01*
X74922Y229814D01*
X74995Y229851D01*
X75123Y229924D01*
X75287Y230033D01*
X75487Y230161D01*
X75724Y230325D01*
X75979Y230507D01*
X76234Y230744D01*
Y232220D01*
D02*
G37*
G36*
X46900Y235700D02*
X46535D01*
X46426Y235681D01*
X46299Y235663D01*
X46153Y235627D01*
X45843Y235517D01*
X45825D01*
X45788Y235481D01*
X45716Y235444D01*
X45625Y235390D01*
X45406Y235226D01*
X45187Y235007D01*
X45169Y234989D01*
X45151Y234952D01*
X45096Y234880D01*
X45023Y234788D01*
X44950Y234679D01*
X44877Y234533D01*
X44732Y234224D01*
Y234205D01*
X44714Y234151D01*
X44677Y234060D01*
X44641Y233932D01*
X44604Y233786D01*
X44586Y233604D01*
X44531Y233222D01*
X48868D01*
Y233240D01*
Y233313D01*
Y233422D01*
Y233549D01*
X48849Y233695D01*
X48831Y233859D01*
X48740Y234205D01*
Y234224D01*
X48722Y234278D01*
X48685Y234369D01*
X48649Y234479D01*
X48521Y234734D01*
X48339Y234989D01*
X48321Y235007D01*
X48285Y235044D01*
X48230Y235098D01*
X48157Y235171D01*
X48048Y235262D01*
X47938Y235335D01*
X47647Y235499D01*
X47629Y235517D01*
X47574Y235536D01*
X47483Y235572D01*
X47374Y235608D01*
X47246Y235645D01*
X47082Y235663D01*
X46900Y235700D01*
D02*
G37*
G36*
X19169Y235627D02*
X18859D01*
X18732Y235608D01*
X18586Y235590D01*
X18404Y235572D01*
X18222Y235517D01*
X18039Y235463D01*
X17857Y235371D01*
X17839Y235353D01*
X17784Y235317D01*
X17693Y235262D01*
X17602Y235189D01*
X17474Y235098D01*
X17347Y234989D01*
X17110Y234697D01*
X17092Y234679D01*
X17055Y234625D01*
X17019Y234533D01*
X16946Y234424D01*
X16873Y234278D01*
X16819Y234114D01*
X16746Y233932D01*
X16691Y233732D01*
Y233714D01*
X16673Y233641D01*
X16655Y233531D01*
X16636Y233385D01*
X16600Y233203D01*
X16582Y233003D01*
X16564Y232566D01*
Y232529D01*
Y232438D01*
X16582Y232292D01*
Y232110D01*
X16600Y231910D01*
X16636Y231673D01*
X16727Y231217D01*
Y231199D01*
X16764Y231126D01*
X16800Y231017D01*
X16855Y230889D01*
X17001Y230580D01*
X17201Y230270D01*
X17220Y230252D01*
X17256Y230215D01*
X17329Y230142D01*
X17420Y230069D01*
X17529Y229978D01*
X17657Y229887D01*
X17948Y229705D01*
X17966D01*
X18021Y229669D01*
X18131Y229650D01*
X18240Y229614D01*
X18404Y229578D01*
X18568Y229559D01*
X18768Y229523D01*
X19078D01*
X19187Y229541D01*
X19351Y229559D01*
X19515Y229578D01*
X19697Y229632D01*
X19880Y229687D01*
X20062Y229760D01*
X20080Y229778D01*
X20135Y229814D01*
X20226Y229869D01*
X20335Y229942D01*
X20444Y230033D01*
X20572Y230161D01*
X20809Y230434D01*
X20827Y230452D01*
X20864Y230507D01*
X20900Y230598D01*
X20973Y230707D01*
X21046Y230853D01*
X21100Y231017D01*
X21173Y231199D01*
X21228Y231399D01*
Y231418D01*
X21246Y231491D01*
X21283Y231618D01*
X21301Y231764D01*
X21337Y231928D01*
X21355Y232128D01*
X21374Y232566D01*
Y232602D01*
Y232693D01*
Y232839D01*
X21355Y233021D01*
X21337Y233222D01*
X21301Y233458D01*
X21246Y233677D01*
X21191Y233896D01*
Y233914D01*
X21155Y233987D01*
X21118Y234096D01*
X21064Y234242D01*
X20918Y234533D01*
X20827Y234697D01*
X20718Y234843D01*
X20699Y234861D01*
X20663Y234898D01*
X20590Y234971D01*
X20499Y235062D01*
X20390Y235153D01*
X20262Y235244D01*
X19952Y235426D01*
X19934Y235444D01*
X19880Y235463D01*
X19789Y235499D01*
X19661Y235536D01*
X19515Y235572D01*
X19351Y235590D01*
X19169Y235627D01*
D02*
G37*
G36*
X-17781Y235627D02*
X-18091D01*
X-18218Y235608D01*
X-18364Y235590D01*
X-18546Y235572D01*
X-18729Y235517D01*
X-18911Y235463D01*
X-19093Y235371D01*
X-19111Y235353D01*
X-19166Y235317D01*
X-19257Y235262D01*
X-19348Y235189D01*
X-19476Y235098D01*
X-19603Y234989D01*
X-19840Y234697D01*
X-19858Y234679D01*
X-19895Y234625D01*
X-19931Y234533D01*
X-20004Y234424D01*
X-20077Y234278D01*
X-20132Y234114D01*
X-20204Y233932D01*
X-20259Y233732D01*
Y233714D01*
X-20277Y233641D01*
X-20295Y233531D01*
X-20314Y233385D01*
X-20350Y233203D01*
X-20368Y233003D01*
X-20387Y232566D01*
Y232529D01*
Y232438D01*
X-20368Y232292D01*
Y232110D01*
X-20350Y231910D01*
X-20314Y231673D01*
X-20223Y231217D01*
Y231199D01*
X-20186Y231126D01*
X-20150Y231017D01*
X-20095Y230889D01*
X-19949Y230580D01*
X-19749Y230270D01*
X-19731Y230252D01*
X-19694Y230215D01*
X-19621Y230142D01*
X-19530Y230069D01*
X-19421Y229978D01*
X-19293Y229887D01*
X-19002Y229705D01*
X-18984D01*
X-18929Y229669D01*
X-18820Y229650D01*
X-18710Y229614D01*
X-18546Y229577D01*
X-18382Y229559D01*
X-18182Y229523D01*
X-17872D01*
X-17763Y229541D01*
X-17599Y229559D01*
X-17435Y229577D01*
X-17253Y229632D01*
X-17071Y229687D01*
X-16888Y229760D01*
X-16870Y229778D01*
X-16815Y229814D01*
X-16724Y229869D01*
X-16615Y229942D01*
X-16506Y230033D01*
X-16378Y230161D01*
X-16141Y230434D01*
X-16123Y230452D01*
X-16087Y230507D01*
X-16050Y230598D01*
X-15977Y230707D01*
X-15904Y230853D01*
X-15850Y231017D01*
X-15777Y231199D01*
X-15722Y231399D01*
Y231418D01*
X-15704Y231491D01*
X-15668Y231618D01*
X-15649Y231764D01*
X-15613Y231928D01*
X-15595Y232128D01*
X-15576Y232566D01*
Y232602D01*
Y232693D01*
Y232839D01*
X-15595Y233021D01*
X-15613Y233222D01*
X-15649Y233458D01*
X-15704Y233677D01*
X-15759Y233896D01*
Y233914D01*
X-15795Y233987D01*
X-15832Y234096D01*
X-15886Y234242D01*
X-16032Y234533D01*
X-16123Y234697D01*
X-16232Y234843D01*
X-16251Y234861D01*
X-16287Y234898D01*
X-16360Y234971D01*
X-16451Y235062D01*
X-16560Y235153D01*
X-16688Y235244D01*
X-16998Y235426D01*
X-17016Y235444D01*
X-17071Y235463D01*
X-17162Y235499D01*
X-17289Y235536D01*
X-17435Y235572D01*
X-17599Y235590D01*
X-17781Y235627D01*
D02*
G37*
%LPD*%
D15*
X-98357Y-40354D02*
D03*
X-105246D02*
D03*
X-91467D02*
D03*
X-125916D02*
D03*
X-112136D02*
D03*
X-119026D02*
D03*
Y157480D02*
D03*
X-112136D02*
D03*
X-125916D02*
D03*
D16*
X202011Y-121305D02*
D03*
D17*
X-135464Y183677D02*
D03*
X202036Y168670D02*
D03*
X-135464Y-131330D02*
D03*
D18*
X-114189Y-4180D02*
D03*
Y130820D02*
D03*
X140811D02*
D03*
Y-4180D02*
D03*
X-63439Y72835D02*
D03*
Y27559D02*
D03*
D19*
X172411Y138720D02*
D03*
Y148720D02*
D03*
X182411D02*
D03*
Y138720D02*
D03*
X172411Y118720D02*
D03*
Y128720D02*
D03*
X182411D02*
D03*
Y-81280D02*
D03*
Y-91280D02*
D03*
Y-101280D02*
D03*
X172411D02*
D03*
Y-91280D02*
D03*
Y-81280D02*
D03*
X182411Y28720D02*
D03*
Y48720D02*
D03*
Y38720D02*
D03*
Y58720D02*
D03*
Y68720D02*
D03*
Y78720D02*
D03*
Y88720D02*
D03*
Y98720D02*
D03*
Y108720D02*
D03*
Y118720D02*
D03*
X172411Y18720D02*
D03*
Y28720D02*
D03*
Y48720D02*
D03*
Y38720D02*
D03*
Y58720D02*
D03*
Y68720D02*
D03*
Y78720D02*
D03*
Y88720D02*
D03*
Y98720D02*
D03*
Y108720D02*
D03*
Y8720D02*
D03*
Y-11280D02*
D03*
Y-1280D02*
D03*
Y-21280D02*
D03*
Y-31280D02*
D03*
Y-41280D02*
D03*
Y-51280D02*
D03*
Y-61280D02*
D03*
Y-71280D02*
D03*
X182411D02*
D03*
Y-61280D02*
D03*
Y-51280D02*
D03*
Y-41280D02*
D03*
Y-31280D02*
D03*
Y-21280D02*
D03*
Y-1280D02*
D03*
Y-11280D02*
D03*
Y8720D02*
D03*
Y18720D02*
D03*
X192411Y138720D02*
D03*
Y148720D02*
D03*
X202411D02*
D03*
Y138720D02*
D03*
X192411Y118720D02*
D03*
Y128720D02*
D03*
X202411D02*
D03*
Y-81280D02*
D03*
Y-91280D02*
D03*
Y-101280D02*
D03*
X192411D02*
D03*
Y-91280D02*
D03*
Y-81280D02*
D03*
X202411Y28720D02*
D03*
Y48720D02*
D03*
Y38720D02*
D03*
Y58720D02*
D03*
Y68720D02*
D03*
Y78720D02*
D03*
Y88720D02*
D03*
Y98720D02*
D03*
Y108720D02*
D03*
Y118720D02*
D03*
X192411Y18720D02*
D03*
Y28720D02*
D03*
Y48720D02*
D03*
Y38720D02*
D03*
Y58720D02*
D03*
Y68720D02*
D03*
Y78720D02*
D03*
Y88720D02*
D03*
Y98720D02*
D03*
Y108720D02*
D03*
Y8720D02*
D03*
Y-11280D02*
D03*
Y-1280D02*
D03*
Y-21280D02*
D03*
Y-31280D02*
D03*
Y-41280D02*
D03*
Y-51280D02*
D03*
Y-61280D02*
D03*
Y-71280D02*
D03*
X202411D02*
D03*
Y-61280D02*
D03*
Y-51280D02*
D03*
Y-41280D02*
D03*
Y-31280D02*
D03*
Y-21280D02*
D03*
Y-1280D02*
D03*
Y-11280D02*
D03*
Y8720D02*
D03*
Y18720D02*
D03*
D20*
X47313Y53150D02*
D03*
Y61024D02*
D03*
X39439Y53150D02*
D03*
Y61024D02*
D03*
X31565Y53150D02*
D03*
Y61024D02*
D03*
X23690Y53150D02*
D03*
Y61024D02*
D03*
X15816Y53150D02*
D03*
Y61024D02*
D03*
X7942Y53150D02*
D03*
Y61024D02*
D03*
X68Y53150D02*
D03*
X68Y61024D02*
D03*
X0Y0D02*
D03*
Y-7874D02*
D03*
X7874Y0D02*
D03*
Y-7874D02*
D03*
X15748Y0D02*
D03*
Y-7874D02*
D03*
X23622Y0D02*
D03*
Y-7874D02*
D03*
X31496Y0D02*
D03*
Y-7874D02*
D03*
X39370Y0D02*
D03*
Y-7874D02*
D03*
X47244Y0D02*
D03*
X47244Y-7874D02*
D03*
D21*
X61092Y56693D02*
D03*
X-13711Y56693D02*
D03*
X-13780Y-3543D02*
D03*
X61024Y-3543D02*
D03*
D22*
X-53849Y134173D02*
D03*
X-30660D02*
D03*
D23*
X-85562Y133858D02*
D03*
X-65876D02*
D03*
X121131Y-29528D02*
D03*
X105383D02*
D03*
M02*
