G04 Layer_Color=128*
%FSLAX25Y25*%
%MOIN*%
G70*
G01*
G75*
%ADD20R,0.06299X0.08661*%
%ADD21R,0.02756X0.07087*%
G36*
X-572Y257802D02*
X3145D01*
Y256599D01*
X-572D01*
Y252408D01*
Y252390D01*
Y252372D01*
Y252263D01*
X-554Y252117D01*
X-518Y251917D01*
X-463Y251698D01*
X-372Y251479D01*
X-262Y251279D01*
X-98Y251097D01*
X-80Y251078D01*
X-7Y251024D01*
X102Y250951D01*
X248Y250878D01*
X448Y250805D01*
X685Y250732D01*
X958Y250677D01*
X1286Y250659D01*
X1541D01*
X1669Y250677D01*
X1833D01*
X2161Y250714D01*
X2179D01*
X2252Y250732D01*
X2343D01*
X2471Y250769D01*
X2616Y250787D01*
X2780Y250823D01*
X3145Y250914D01*
Y249675D01*
X3127D01*
X3054Y249657D01*
X2963Y249639D01*
X2835Y249621D01*
X2671Y249584D01*
X2507Y249566D01*
X2124Y249512D01*
X2033D01*
X1942Y249493D01*
X1797D01*
X1651Y249475D01*
X1469D01*
X1086Y249457D01*
X940D01*
X831Y249475D01*
X703D01*
X557Y249493D01*
X211Y249548D01*
X-153Y249621D01*
X-536Y249748D01*
X-900Y249912D01*
X-1082Y250022D01*
X-1228Y250149D01*
X-1264Y250186D01*
X-1356Y250277D01*
X-1465Y250441D01*
X-1611Y250677D01*
X-1756Y250987D01*
X-1866Y251352D01*
X-1957Y251789D01*
X-1993Y252299D01*
Y256599D01*
X-4289D01*
Y257802D01*
X-1993D01*
Y260061D01*
X-572Y260443D01*
Y257802D01*
D02*
G37*
G36*
X128753D02*
X132470D01*
Y256599D01*
X128753D01*
Y252408D01*
Y252390D01*
Y252372D01*
Y252263D01*
X128772Y252117D01*
X128808Y251917D01*
X128863Y251698D01*
X128954Y251479D01*
X129063Y251279D01*
X129227Y251097D01*
X129245Y251078D01*
X129318Y251024D01*
X129428Y250951D01*
X129573Y250878D01*
X129774Y250805D01*
X130011Y250732D01*
X130284Y250677D01*
X130612Y250659D01*
X130867D01*
X130994Y250677D01*
X131158D01*
X131486Y250714D01*
X131505D01*
X131578Y250732D01*
X131669D01*
X131796Y250769D01*
X131942Y250787D01*
X132106Y250823D01*
X132470Y250914D01*
Y249675D01*
X132452D01*
X132379Y249657D01*
X132288Y249639D01*
X132160Y249621D01*
X131997Y249584D01*
X131833Y249566D01*
X131450Y249512D01*
X131359D01*
X131268Y249493D01*
X131122D01*
X130976Y249475D01*
X130794D01*
X130411Y249457D01*
X130266D01*
X130156Y249475D01*
X130029D01*
X129883Y249493D01*
X129537Y249548D01*
X129173Y249621D01*
X128790Y249748D01*
X128426Y249912D01*
X128243Y250022D01*
X128097Y250149D01*
X128061Y250186D01*
X127970Y250277D01*
X127861Y250441D01*
X127715Y250677D01*
X127569Y250987D01*
X127460Y251352D01*
X127369Y251789D01*
X127332Y252299D01*
Y256599D01*
X125037D01*
Y257802D01*
X127332D01*
Y260061D01*
X128753Y260443D01*
Y257802D01*
D02*
G37*
G36*
X138774Y257929D02*
X138975Y257911D01*
X139212Y257874D01*
X139467Y257838D01*
X139722Y257765D01*
X139977Y257674D01*
X140013Y257656D01*
X140086Y257619D01*
X140214Y257565D01*
X140378Y257474D01*
X140542Y257364D01*
X140742Y257237D01*
X140924Y257073D01*
X141107Y256891D01*
X141125Y256872D01*
X141179Y256800D01*
X141271Y256690D01*
X141362Y256563D01*
X141471Y256380D01*
X141598Y256180D01*
X141708Y255943D01*
X141799Y255688D01*
X141817Y255652D01*
X141835Y255560D01*
X141872Y255415D01*
X141927Y255233D01*
X141963Y254996D01*
X141999Y254741D01*
X142018Y254449D01*
X142036Y254121D01*
Y254103D01*
Y254066D01*
Y254012D01*
Y253939D01*
Y253775D01*
X142018Y253593D01*
Y253556D01*
Y253465D01*
Y253356D01*
X141999Y253228D01*
X136224D01*
Y253210D01*
Y253174D01*
Y253101D01*
X136242Y253028D01*
Y252919D01*
X136260Y252791D01*
X136315Y252500D01*
X136388Y252190D01*
X136515Y251862D01*
X136679Y251552D01*
X136916Y251279D01*
X136952Y251242D01*
X137043Y251169D01*
X137207Y251060D01*
X137444Y250951D01*
X137736Y250823D01*
X138082Y250714D01*
X138483Y250641D01*
X138957Y250605D01*
X139412D01*
X139667Y250623D01*
X139722D01*
X139795Y250641D01*
X139886D01*
X140123Y250677D01*
X140359Y250696D01*
X140378D01*
X140414Y250714D01*
X140487D01*
X140578Y250732D01*
X140779Y250769D01*
X141016Y250805D01*
X141034D01*
X141070Y250823D01*
X141125Y250841D01*
X141198Y250860D01*
X141398Y250896D01*
X141598Y250951D01*
Y249785D01*
X141580D01*
X141489Y249766D01*
X141380Y249730D01*
X141216Y249694D01*
X141016Y249657D01*
X140797Y249603D01*
X140542Y249566D01*
X140269Y249530D01*
X140232D01*
X140141Y249512D01*
X139995Y249493D01*
X139813Y249475D01*
X139576Y249457D01*
X139321Y249439D01*
X139048Y249420D01*
X138574D01*
X138374Y249439D01*
X138137Y249457D01*
X137845Y249493D01*
X137535Y249530D01*
X137226Y249603D01*
X136934Y249694D01*
X136898Y249712D01*
X136807Y249748D01*
X136661Y249821D01*
X136497Y249912D01*
X136296Y250022D01*
X136078Y250167D01*
X135877Y250331D01*
X135677Y250532D01*
X135659Y250550D01*
X135604Y250623D01*
X135513Y250750D01*
X135404Y250896D01*
X135276Y251097D01*
X135167Y251315D01*
X135039Y251589D01*
X134948Y251862D01*
Y251880D01*
Y251898D01*
X134912Y252008D01*
X134875Y252172D01*
X134839Y252390D01*
X134802Y252663D01*
X134766Y252955D01*
X134748Y253301D01*
X134730Y253666D01*
Y253684D01*
Y253702D01*
Y253811D01*
X134748Y253975D01*
X134766Y254194D01*
X134784Y254431D01*
X134839Y254704D01*
X134894Y254996D01*
X134966Y255287D01*
Y255305D01*
X134985Y255324D01*
X135021Y255415D01*
X135076Y255560D01*
X135149Y255761D01*
X135258Y255961D01*
X135386Y256198D01*
X135531Y256435D01*
X135695Y256654D01*
X135713Y256672D01*
X135786Y256745D01*
X135896Y256854D01*
X136023Y257000D01*
X136205Y257146D01*
X136406Y257310D01*
X136625Y257455D01*
X136880Y257601D01*
X136916Y257619D01*
X137007Y257656D01*
X137153Y257711D01*
X137335Y257783D01*
X137572Y257838D01*
X137845Y257893D01*
X138137Y257929D01*
X138465Y257947D01*
X138610D01*
X138774Y257929D01*
D02*
G37*
G36*
X-9810Y257802D02*
X-6093D01*
Y256599D01*
X-9810D01*
Y252408D01*
Y252390D01*
Y252372D01*
Y252263D01*
X-9792Y252117D01*
X-9755Y251917D01*
X-9700Y251698D01*
X-9609Y251479D01*
X-9500Y251279D01*
X-9336Y251097D01*
X-9318Y251078D01*
X-9245Y251024D01*
X-9136Y250951D01*
X-8990Y250878D01*
X-8789Y250805D01*
X-8552Y250732D01*
X-8279Y250677D01*
X-7951Y250659D01*
X-7696D01*
X-7569Y250677D01*
X-7405D01*
X-7077Y250714D01*
X-7058D01*
X-6986Y250732D01*
X-6894D01*
X-6767Y250769D01*
X-6621Y250787D01*
X-6457Y250823D01*
X-6093Y250914D01*
Y249675D01*
X-6111D01*
X-6184Y249657D01*
X-6275Y249639D01*
X-6402Y249621D01*
X-6566Y249584D01*
X-6730Y249566D01*
X-7113Y249512D01*
X-7204D01*
X-7295Y249493D01*
X-7441D01*
X-7587Y249475D01*
X-7769D01*
X-8152Y249457D01*
X-8297D01*
X-8407Y249475D01*
X-8534D01*
X-8680Y249493D01*
X-9026Y249548D01*
X-9391Y249621D01*
X-9773Y249748D01*
X-10138Y249912D01*
X-10320Y250022D01*
X-10466Y250149D01*
X-10502Y250186D01*
X-10593Y250277D01*
X-10702Y250441D01*
X-10848Y250677D01*
X-10994Y250987D01*
X-11103Y251352D01*
X-11194Y251789D01*
X-11231Y252299D01*
Y256599D01*
X-13527D01*
Y257802D01*
X-11231D01*
Y260061D01*
X-9810Y260443D01*
Y257802D01*
D02*
G37*
G36*
X111171Y257929D02*
X111372Y257911D01*
X111608Y257874D01*
X112064Y257783D01*
X112082D01*
X112173Y257747D01*
X112283Y257711D01*
X112410Y257656D01*
X112574Y257583D01*
X112738Y257492D01*
X112902Y257401D01*
X113066Y257273D01*
X113084Y257255D01*
X113139Y257219D01*
X113212Y257146D01*
X113303Y257054D01*
X113412Y256927D01*
X113522Y256781D01*
X113613Y256617D01*
X113704Y256435D01*
X113722Y256417D01*
X113740Y256344D01*
X113777Y256235D01*
X113831Y256089D01*
X113868Y255925D01*
X113904Y255706D01*
X113922Y255488D01*
X113941Y255233D01*
Y249566D01*
X112647D01*
X112610Y250659D01*
X112574Y250623D01*
X112501Y250550D01*
X112355Y250441D01*
X112191Y250295D01*
X111973Y250149D01*
X111754Y249985D01*
X111499Y249839D01*
X111244Y249712D01*
X111207Y249694D01*
X111117Y249675D01*
X110989Y249621D01*
X110807Y249566D01*
X110588Y249512D01*
X110333Y249475D01*
X110078Y249439D01*
X109786Y249420D01*
X109677D01*
X109549Y249439D01*
X109386D01*
X109185Y249457D01*
X108985Y249493D01*
X108584Y249584D01*
X108566D01*
X108511Y249621D01*
X108420Y249657D01*
X108292Y249712D01*
X108037Y249876D01*
X107764Y250076D01*
X107746Y250095D01*
X107709Y250131D01*
X107655Y250204D01*
X107582Y250295D01*
X107509Y250404D01*
X107418Y250532D01*
X107290Y250823D01*
Y250841D01*
X107272Y250896D01*
X107254Y250987D01*
X107217Y251097D01*
X107199Y251242D01*
X107163Y251406D01*
X107144Y251752D01*
Y251771D01*
Y251807D01*
Y251880D01*
X107163Y251953D01*
X107181Y252062D01*
X107199Y252190D01*
X107254Y252463D01*
X107363Y252773D01*
X107527Y253101D01*
X107636Y253265D01*
X107764Y253411D01*
X107891Y253556D01*
X108055Y253702D01*
X108074D01*
X108092Y253738D01*
X108147Y253775D01*
X108238Y253811D01*
X108329Y253866D01*
X108438Y253921D01*
X108584Y253994D01*
X108748Y254066D01*
X108930Y254121D01*
X109131Y254194D01*
X109349Y254249D01*
X109604Y254303D01*
X109859Y254340D01*
X110151Y254376D01*
X110460Y254413D01*
X112501D01*
Y255123D01*
Y255160D01*
Y255251D01*
X112483Y255378D01*
X112446Y255542D01*
X112392Y255725D01*
X112301Y255925D01*
X112191Y256107D01*
X112027Y256289D01*
X112009Y256308D01*
X111936Y256362D01*
X111827Y256435D01*
X111681Y256508D01*
X111481Y256581D01*
X111226Y256654D01*
X110934Y256708D01*
X110606Y256727D01*
X110351D01*
X110169Y256708D01*
X109950Y256690D01*
X109732Y256654D01*
X109222Y256563D01*
X109185D01*
X109112Y256526D01*
X108967Y256490D01*
X108802Y256453D01*
X108584Y256380D01*
X108347Y256308D01*
X108092Y256216D01*
X107837Y256125D01*
Y257419D01*
X107855D01*
X107891Y257437D01*
X107928Y257455D01*
X108001Y257474D01*
X108183Y257528D01*
X108420Y257601D01*
X108438D01*
X108475Y257619D01*
X108547Y257638D01*
X108639Y257656D01*
X108875Y257711D01*
X109131Y257765D01*
X109149D01*
X109203Y257783D01*
X109276Y257802D01*
X109367Y257820D01*
X109477Y257838D01*
X109604Y257856D01*
X109896Y257893D01*
X109914D01*
X109969Y257911D01*
X110041D01*
X110151Y257929D01*
X110278D01*
X110406Y257947D01*
X110989D01*
X111171Y257929D01*
D02*
G37*
G36*
X101606Y260261D02*
X101842Y260243D01*
X102098Y260207D01*
X102644Y260097D01*
X102681D01*
X102772Y260061D01*
X102899Y260024D01*
X103081Y259951D01*
X103282Y259879D01*
X103482Y259769D01*
X103701Y259660D01*
X103920Y259514D01*
X103938Y259496D01*
X104011Y259441D01*
X104120Y259368D01*
X104247Y259241D01*
X104393Y259095D01*
X104539Y258931D01*
X104685Y258731D01*
X104812Y258512D01*
X104831Y258476D01*
X104867Y258403D01*
X104922Y258275D01*
X104976Y258093D01*
X105031Y257874D01*
X105086Y257619D01*
X105122Y257328D01*
X105140Y257000D01*
Y256963D01*
Y256891D01*
X105122Y256763D01*
X105104Y256599D01*
X105086Y256399D01*
X105031Y256162D01*
X104976Y255925D01*
X104885Y255688D01*
X104867Y255652D01*
X104849Y255579D01*
X104776Y255451D01*
X104703Y255305D01*
X104594Y255123D01*
X104466Y254941D01*
X104302Y254741D01*
X104120Y254540D01*
X104102Y254522D01*
X104029Y254449D01*
X103920Y254358D01*
X103774Y254249D01*
X103573Y254121D01*
X103355Y253975D01*
X103100Y253848D01*
X102808Y253720D01*
X102772Y253702D01*
X102662Y253666D01*
X102498Y253629D01*
X102261Y253574D01*
X101988Y253502D01*
X101660Y253465D01*
X101278Y253429D01*
X100877Y253411D01*
X99565D01*
Y249566D01*
X98107D01*
Y260279D01*
X101405D01*
X101606Y260261D01*
D02*
G37*
G36*
X-27866D02*
X-27647Y260243D01*
X-27374Y260207D01*
X-27082Y260134D01*
X-26754Y260061D01*
X-26426Y259951D01*
X-26098Y259824D01*
X-25770Y259642D01*
X-25479Y259441D01*
X-25206Y259186D01*
X-24987Y258876D01*
X-24805Y258530D01*
X-24695Y258130D01*
X-24677Y257911D01*
X-24659Y257674D01*
Y257656D01*
Y257638D01*
Y257528D01*
X-24677Y257364D01*
X-24714Y257164D01*
X-24768Y256927D01*
X-24841Y256672D01*
X-24932Y256417D01*
X-25078Y256180D01*
X-25096Y256162D01*
X-25151Y256071D01*
X-25260Y255961D01*
X-25388Y255834D01*
X-25570Y255688D01*
X-25807Y255524D01*
X-26080Y255378D01*
X-26408Y255251D01*
X-26390D01*
X-26335Y255233D01*
X-26244Y255214D01*
X-26135Y255196D01*
X-25880Y255105D01*
X-25588Y254977D01*
X-25570D01*
X-25515Y254941D01*
X-25442Y254905D01*
X-25351Y254832D01*
X-25133Y254686D01*
X-24914Y254467D01*
X-24896Y254449D01*
X-24859Y254413D01*
X-24805Y254340D01*
X-24750Y254267D01*
X-24677Y254158D01*
X-24604Y254030D01*
X-24459Y253720D01*
Y253702D01*
X-24422Y253647D01*
X-24404Y253556D01*
X-24367Y253447D01*
X-24331Y253301D01*
X-24313Y253137D01*
X-24276Y252773D01*
Y252736D01*
Y252645D01*
X-24295Y252500D01*
X-24313Y252299D01*
X-24349Y252099D01*
X-24404Y251862D01*
X-24477Y251625D01*
X-24586Y251388D01*
X-24604Y251370D01*
X-24641Y251297D01*
X-24714Y251188D01*
X-24805Y251042D01*
X-24914Y250896D01*
X-25060Y250714D01*
X-25224Y250550D01*
X-25424Y250386D01*
X-25442Y250368D01*
X-25515Y250313D01*
X-25643Y250240D01*
X-25789Y250167D01*
X-25989Y250058D01*
X-26208Y249949D01*
X-26463Y249858D01*
X-26754Y249766D01*
X-26791D01*
X-26882Y249730D01*
X-27046Y249712D01*
X-27246Y249675D01*
X-27501Y249639D01*
X-27793Y249603D01*
X-28121Y249584D01*
X-28467Y249566D01*
X-31218D01*
Y260279D01*
X-28048D01*
X-27866Y260261D01*
D02*
G37*
G36*
X56165Y250750D02*
X58625D01*
Y249566D01*
X52029D01*
Y250750D01*
X54725D01*
Y259988D01*
X52302D01*
Y261154D01*
X56165D01*
Y250750D01*
D02*
G37*
G36*
X74112Y257929D02*
X74312Y257911D01*
X74549Y257874D01*
X74804Y257838D01*
X75059Y257765D01*
X75314Y257674D01*
X75351Y257656D01*
X75424Y257619D01*
X75551Y257565D01*
X75715Y257474D01*
X75879Y257364D01*
X76079Y257237D01*
X76262Y257073D01*
X76444Y256891D01*
X76462Y256872D01*
X76517Y256800D01*
X76608Y256690D01*
X76699Y256563D01*
X76808Y256380D01*
X76936Y256180D01*
X77045Y255943D01*
X77136Y255688D01*
X77154Y255652D01*
X77173Y255560D01*
X77209Y255415D01*
X77264Y255233D01*
X77300Y254996D01*
X77337Y254741D01*
X77355Y254449D01*
X77373Y254121D01*
Y254103D01*
Y254066D01*
Y254012D01*
Y253939D01*
Y253775D01*
X77355Y253593D01*
Y253556D01*
Y253465D01*
Y253356D01*
X77337Y253228D01*
X71561D01*
Y253210D01*
Y253174D01*
Y253101D01*
X71579Y253028D01*
Y252919D01*
X71597Y252791D01*
X71652Y252500D01*
X71725Y252190D01*
X71852Y251862D01*
X72016Y251552D01*
X72253Y251279D01*
X72290Y251242D01*
X72381Y251169D01*
X72545Y251060D01*
X72782Y250951D01*
X73073Y250823D01*
X73419Y250714D01*
X73820Y250641D01*
X74294Y250605D01*
X74749D01*
X75004Y250623D01*
X75059D01*
X75132Y250641D01*
X75223D01*
X75460Y250677D01*
X75697Y250696D01*
X75715D01*
X75751Y250714D01*
X75824D01*
X75915Y250732D01*
X76116Y250769D01*
X76353Y250805D01*
X76371D01*
X76407Y250823D01*
X76462Y250841D01*
X76535Y250860D01*
X76735Y250896D01*
X76936Y250951D01*
Y249785D01*
X76917D01*
X76826Y249766D01*
X76717Y249730D01*
X76553Y249694D01*
X76353Y249657D01*
X76134Y249603D01*
X75879Y249566D01*
X75606Y249530D01*
X75569D01*
X75478Y249512D01*
X75332Y249493D01*
X75150Y249475D01*
X74913Y249457D01*
X74658Y249439D01*
X74385Y249420D01*
X73911D01*
X73711Y249439D01*
X73474Y249457D01*
X73182Y249493D01*
X72873Y249530D01*
X72563Y249603D01*
X72271Y249694D01*
X72235Y249712D01*
X72144Y249748D01*
X71998Y249821D01*
X71834Y249912D01*
X71634Y250022D01*
X71415Y250167D01*
X71215Y250331D01*
X71014Y250532D01*
X70996Y250550D01*
X70941Y250623D01*
X70850Y250750D01*
X70741Y250896D01*
X70613Y251097D01*
X70504Y251315D01*
X70376Y251589D01*
X70285Y251862D01*
Y251880D01*
Y251898D01*
X70249Y252008D01*
X70213Y252172D01*
X70176Y252390D01*
X70140Y252663D01*
X70103Y252955D01*
X70085Y253301D01*
X70067Y253666D01*
Y253684D01*
Y253702D01*
Y253811D01*
X70085Y253975D01*
X70103Y254194D01*
X70122Y254431D01*
X70176Y254704D01*
X70231Y254996D01*
X70304Y255287D01*
Y255305D01*
X70322Y255324D01*
X70358Y255415D01*
X70413Y255560D01*
X70486Y255761D01*
X70595Y255961D01*
X70723Y256198D01*
X70868Y256435D01*
X71032Y256654D01*
X71051Y256672D01*
X71124Y256745D01*
X71233Y256854D01*
X71360Y257000D01*
X71543Y257146D01*
X71743Y257310D01*
X71962Y257455D01*
X72217Y257601D01*
X72253Y257619D01*
X72344Y257656D01*
X72490Y257711D01*
X72672Y257783D01*
X72909Y257838D01*
X73182Y257893D01*
X73474Y257929D01*
X73802Y257947D01*
X73948D01*
X74112Y257929D01*
D02*
G37*
G36*
X120737D02*
X120919D01*
X121338Y257893D01*
X121356D01*
X121447Y257874D01*
X121556D01*
X121721Y257856D01*
X121903Y257820D01*
X122103Y257802D01*
X122340Y257747D01*
X122577Y257711D01*
Y256435D01*
X122540D01*
X122468Y256471D01*
X122340Y256490D01*
X122158Y256526D01*
X121976Y256563D01*
X121757Y256599D01*
X121301Y256672D01*
X121283D01*
X121192Y256690D01*
X121083Y256708D01*
X120937Y256727D01*
X120773D01*
X120609Y256745D01*
X120245Y256763D01*
X120062D01*
X119935Y256745D01*
X119643Y256727D01*
X119352Y256672D01*
X119334D01*
X119297Y256654D01*
X119224Y256635D01*
X119133Y256617D01*
X118951Y256526D01*
X118751Y256435D01*
X118714Y256417D01*
X118623Y256344D01*
X118532Y256235D01*
X118441Y256107D01*
X118423Y256071D01*
X118404Y255980D01*
X118368Y255852D01*
X118350Y255688D01*
Y255670D01*
Y255652D01*
X118368Y255560D01*
X118386Y255433D01*
X118423Y255287D01*
X118441Y255251D01*
X118496Y255178D01*
X118605Y255069D01*
X118751Y254941D01*
X118769D01*
X118787Y254905D01*
X118842Y254886D01*
X118915Y254832D01*
X119024Y254777D01*
X119133Y254722D01*
X119261Y254668D01*
X119406Y254595D01*
X119425D01*
X119479Y254558D01*
X119571Y254540D01*
X119698Y254486D01*
X119862Y254431D01*
X120044Y254376D01*
X120245Y254322D01*
X120482Y254249D01*
X120518Y254230D01*
X120609Y254212D01*
X120737Y254176D01*
X120919Y254103D01*
X121119Y254048D01*
X121320Y253957D01*
X121520Y253884D01*
X121721Y253793D01*
X121739Y253775D01*
X121812Y253757D01*
X121885Y253702D01*
X122012Y253647D01*
X122267Y253465D01*
X122522Y253265D01*
X122540Y253247D01*
X122577Y253210D01*
X122632Y253155D01*
X122704Y253083D01*
X122850Y252882D01*
X122923Y252755D01*
X122978Y252627D01*
Y252609D01*
X122996Y252572D01*
X123032Y252481D01*
X123050Y252390D01*
X123087Y252263D01*
X123105Y252135D01*
X123123Y251807D01*
Y251789D01*
Y251734D01*
Y251643D01*
X123105Y251552D01*
X123050Y251297D01*
X122959Y251024D01*
Y251006D01*
X122941Y250969D01*
X122905Y250896D01*
X122850Y250823D01*
X122723Y250623D01*
X122559Y250404D01*
X122540Y250386D01*
X122522Y250368D01*
X122468Y250313D01*
X122395Y250258D01*
X122194Y250113D01*
X121957Y249949D01*
X121939D01*
X121903Y249912D01*
X121830Y249894D01*
X121739Y249839D01*
X121520Y249748D01*
X121247Y249657D01*
X121229D01*
X121192Y249639D01*
X121101Y249621D01*
X121010Y249603D01*
X120901Y249566D01*
X120755Y249548D01*
X120463Y249493D01*
X120445D01*
X120390Y249475D01*
X120318D01*
X120208Y249457D01*
X119971Y249439D01*
X119680Y249420D01*
X119370D01*
X119170Y249439D01*
X118933D01*
X118678Y249457D01*
X118131Y249493D01*
X118095D01*
X118022Y249512D01*
X117876Y249530D01*
X117712Y249548D01*
X117493Y249584D01*
X117275Y249621D01*
X116783Y249730D01*
Y251042D01*
X116819D01*
X116910Y251006D01*
X117038Y250969D01*
X117220Y250914D01*
X117439Y250860D01*
X117676Y250805D01*
X118204Y250714D01*
X118240D01*
X118332Y250696D01*
X118459Y250677D01*
X118641D01*
X118860Y250659D01*
X119097Y250641D01*
X119625Y250623D01*
X119789D01*
X119971Y250641D01*
X120190Y250659D01*
X120445Y250696D01*
X120700Y250732D01*
X120937Y250805D01*
X121137Y250896D01*
X121156Y250914D01*
X121210Y250951D01*
X121301Y251006D01*
X121393Y251097D01*
X121484Y251206D01*
X121575Y251352D01*
X121629Y251516D01*
X121648Y251698D01*
Y251716D01*
Y251734D01*
X121629Y251825D01*
X121611Y251953D01*
X121556Y252080D01*
X121538Y252117D01*
X121502Y252190D01*
X121411Y252299D01*
X121265Y252427D01*
X121229Y252463D01*
X121174Y252481D01*
X121119Y252536D01*
X121028Y252572D01*
X120919Y252627D01*
X120773Y252700D01*
X120627Y252755D01*
X120609D01*
X120554Y252791D01*
X120463Y252828D01*
X120318Y252882D01*
X120154Y252937D01*
X119953Y253010D01*
X119735Y253083D01*
X119461Y253155D01*
X119443D01*
X119370Y253192D01*
X119261Y253210D01*
X119133Y253265D01*
X118969Y253319D01*
X118805Y253374D01*
X118441Y253520D01*
X118423Y253538D01*
X118368Y253556D01*
X118277Y253611D01*
X118168Y253666D01*
X117894Y253811D01*
X117621Y254012D01*
X117603Y254030D01*
X117566Y254066D01*
X117493Y254121D01*
X117421Y254212D01*
X117238Y254413D01*
X117074Y254686D01*
Y254704D01*
X117038Y254759D01*
X117020Y254832D01*
X116983Y254941D01*
X116947Y255069D01*
X116929Y255233D01*
X116892Y255415D01*
Y255597D01*
Y255615D01*
Y255652D01*
Y255725D01*
X116910Y255816D01*
X116929Y255925D01*
X116947Y256052D01*
X117038Y256344D01*
Y256362D01*
X117074Y256417D01*
X117111Y256490D01*
X117166Y256599D01*
X117238Y256708D01*
X117330Y256836D01*
X117457Y256982D01*
X117585Y257109D01*
X117603Y257127D01*
X117657Y257164D01*
X117748Y257237D01*
X117858Y257328D01*
X118004Y257419D01*
X118186Y257510D01*
X118386Y257619D01*
X118623Y257711D01*
X118659Y257729D01*
X118751Y257747D01*
X118878Y257783D01*
X119079Y257838D01*
X119316Y257874D01*
X119589Y257911D01*
X119917Y257929D01*
X120263Y257947D01*
X120591D01*
X120737Y257929D01*
D02*
G37*
G36*
X84406D02*
X84497D01*
X84625Y257911D01*
X84916Y257838D01*
X85226Y257747D01*
X85536Y257601D01*
X85845Y257382D01*
X85991Y257255D01*
X86119Y257109D01*
X86155Y257073D01*
X86173Y257018D01*
X86228Y256963D01*
X86264Y256872D01*
X86319Y256763D01*
X86392Y256635D01*
X86447Y256490D01*
X86501Y256326D01*
X86556Y256162D01*
X86611Y255961D01*
X86665Y255743D01*
X86702Y255488D01*
X86720Y255233D01*
X86738Y254959D01*
Y254668D01*
X85299D01*
Y254686D01*
Y254722D01*
Y254777D01*
Y254850D01*
X85281Y255032D01*
X85262Y255251D01*
X85226Y255506D01*
X85171Y255761D01*
X85080Y256016D01*
X84971Y256216D01*
X84952Y256235D01*
X84916Y256289D01*
X84825Y256380D01*
X84716Y256471D01*
X84570Y256544D01*
X84406Y256635D01*
X84206Y256690D01*
X83969Y256708D01*
X83859D01*
X83805Y256690D01*
X83622Y256672D01*
X83404Y256599D01*
X83386D01*
X83349Y256581D01*
X83294Y256563D01*
X83222Y256526D01*
X83021Y256417D01*
X82803Y256271D01*
X82784Y256253D01*
X82748Y256235D01*
X82693Y256180D01*
X82602Y256125D01*
X82402Y255925D01*
X82147Y255688D01*
X82128Y255670D01*
X82092Y255633D01*
X82019Y255560D01*
X81928Y255451D01*
X81819Y255324D01*
X81691Y255196D01*
X81564Y255032D01*
X81418Y254850D01*
Y249566D01*
X79979D01*
Y257802D01*
X81272D01*
X81309Y256271D01*
Y256289D01*
X81345Y256308D01*
X81436Y256417D01*
X81582Y256563D01*
X81764Y256763D01*
X81983Y256963D01*
X82219Y257182D01*
X82475Y257382D01*
X82748Y257546D01*
X82784Y257565D01*
X82876Y257601D01*
X83003Y257674D01*
X83203Y257747D01*
X83404Y257820D01*
X83659Y257893D01*
X83914Y257929D01*
X84187Y257947D01*
X84315D01*
X84406Y257929D01*
D02*
G37*
G36*
X37544Y260425D02*
X37763Y260407D01*
X37872D01*
X37963Y260389D01*
X38164Y260371D01*
X38400Y260334D01*
X38455D01*
X38528Y260316D01*
X38601D01*
X38801Y260279D01*
X39038Y260243D01*
X39093D01*
X39166Y260225D01*
X39239Y260207D01*
X39439Y260170D01*
X39639Y260134D01*
Y258822D01*
X39603D01*
X39530Y258858D01*
X39402Y258876D01*
X39239Y258913D01*
X39056Y258949D01*
X38838Y259004D01*
X38364Y259077D01*
X38346D01*
X38255Y259095D01*
X38145Y259113D01*
X37981Y259132D01*
X37799Y259150D01*
X37580Y259168D01*
X37143Y259186D01*
X36943D01*
X36724Y259168D01*
X36451Y259132D01*
X36141Y259077D01*
X35831Y259004D01*
X35558Y258895D01*
X35303Y258749D01*
X35285Y258731D01*
X35212Y258676D01*
X35121Y258585D01*
X35012Y258457D01*
X34902Y258294D01*
X34811Y258093D01*
X34738Y257874D01*
X34720Y257619D01*
Y257601D01*
Y257546D01*
X34738Y257474D01*
X34756Y257364D01*
X34829Y257127D01*
X34884Y257000D01*
X34957Y256872D01*
X34975Y256854D01*
X34993Y256818D01*
X35048Y256763D01*
X35121Y256690D01*
X35321Y256508D01*
X35576Y256308D01*
X35594Y256289D01*
X35649Y256271D01*
X35722Y256216D01*
X35850Y256162D01*
X35977Y256089D01*
X36123Y256016D01*
X36487Y255870D01*
X36505D01*
X36578Y255834D01*
X36669Y255797D01*
X36815Y255743D01*
X36961Y255688D01*
X37125Y255615D01*
X37508Y255451D01*
X37526D01*
X37599Y255415D01*
X37708Y255378D01*
X37836Y255324D01*
X38000Y255251D01*
X38164Y255178D01*
X38546Y254996D01*
X38564Y254977D01*
X38637Y254959D01*
X38728Y254905D01*
X38856Y254832D01*
X39147Y254631D01*
X39439Y254394D01*
X39457Y254376D01*
X39512Y254340D01*
X39585Y254267D01*
X39676Y254158D01*
X39767Y254048D01*
X39876Y253903D01*
X40077Y253574D01*
X40095Y253556D01*
X40113Y253483D01*
X40150Y253392D01*
X40204Y253265D01*
X40259Y253101D01*
X40295Y252900D01*
X40314Y252700D01*
X40332Y252463D01*
Y252427D01*
Y252336D01*
X40314Y252190D01*
X40295Y252008D01*
X40259Y251807D01*
X40186Y251570D01*
X40113Y251333D01*
X40004Y251115D01*
X39986Y251097D01*
X39949Y251024D01*
X39876Y250914D01*
X39785Y250787D01*
X39658Y250641D01*
X39512Y250477D01*
X39330Y250313D01*
X39129Y250167D01*
X39111Y250149D01*
X39038Y250113D01*
X38911Y250040D01*
X38765Y249949D01*
X38564Y249858D01*
X38346Y249766D01*
X38091Y249675D01*
X37799Y249603D01*
X37763D01*
X37672Y249566D01*
X37508Y249548D01*
X37289Y249512D01*
X37034Y249475D01*
X36742Y249457D01*
X36414Y249420D01*
X35813D01*
X35667Y249439D01*
X35540D01*
X35212Y249457D01*
X35139D01*
X35066Y249475D01*
X34957D01*
X34702Y249512D01*
X34410Y249548D01*
X34337D01*
X34264Y249566D01*
X34173D01*
X33937Y249603D01*
X33681Y249639D01*
X33663D01*
X33627Y249657D01*
X33554Y249675D01*
X33481Y249694D01*
X33281Y249748D01*
X33062Y249803D01*
Y251206D01*
X33098Y251188D01*
X33171Y251169D01*
X33299Y251133D01*
X33463Y251078D01*
X33663Y251006D01*
X33900Y250951D01*
X34155Y250896D01*
X34429Y250841D01*
X34465D01*
X34556Y250823D01*
X34720Y250805D01*
X34939Y250787D01*
X35194Y250750D01*
X35485Y250732D01*
X35813Y250714D01*
X36433D01*
X36597Y250732D01*
X36779D01*
X36979Y250769D01*
X37180Y250787D01*
X37380Y250823D01*
X37398D01*
X37471Y250841D01*
X37544Y250878D01*
X37672Y250896D01*
X37927Y251006D01*
X38182Y251133D01*
X38200Y251151D01*
X38236Y251169D01*
X38291Y251224D01*
X38364Y251279D01*
X38528Y251443D01*
X38655Y251661D01*
Y251680D01*
X38674Y251716D01*
X38710Y251789D01*
X38728Y251880D01*
X38765Y251989D01*
X38783Y252117D01*
X38801Y252390D01*
Y252408D01*
Y252463D01*
X38783Y252536D01*
X38765Y252645D01*
X38692Y252882D01*
X38637Y252992D01*
X38546Y253119D01*
X38528Y253137D01*
X38510Y253174D01*
X38455Y253228D01*
X38382Y253301D01*
X38291Y253392D01*
X38182Y253483D01*
X37909Y253666D01*
X37890Y253684D01*
X37836Y253702D01*
X37763Y253757D01*
X37653Y253811D01*
X37526Y253884D01*
X37380Y253957D01*
X37016Y254121D01*
X36998Y254139D01*
X36925Y254158D01*
X36834Y254194D01*
X36688Y254249D01*
X36542Y254303D01*
X36360Y254376D01*
X35977Y254522D01*
X35959Y254540D01*
X35886Y254558D01*
X35795Y254613D01*
X35667Y254668D01*
X35503Y254741D01*
X35339Y254814D01*
X34957Y254996D01*
X34939Y255014D01*
X34866Y255050D01*
X34775Y255087D01*
X34647Y255160D01*
X34520Y255251D01*
X34356Y255342D01*
X34046Y255579D01*
X34028Y255597D01*
X33991Y255633D01*
X33918Y255706D01*
X33827Y255816D01*
X33736Y255925D01*
X33627Y256071D01*
X33426Y256380D01*
X33408Y256399D01*
X33390Y256471D01*
X33353Y256563D01*
X33317Y256690D01*
X33262Y256854D01*
X33226Y257036D01*
X33208Y257255D01*
X33189Y257474D01*
Y257492D01*
Y257565D01*
X33208Y257674D01*
X33226Y257820D01*
X33244Y257984D01*
X33281Y258166D01*
X33335Y258366D01*
X33408Y258567D01*
X33426Y258585D01*
X33445Y258658D01*
X33518Y258749D01*
X33590Y258876D01*
X33681Y259022D01*
X33809Y259186D01*
X33955Y259350D01*
X34119Y259514D01*
X34137Y259532D01*
X34210Y259587D01*
X34319Y259660D01*
X34465Y259751D01*
X34629Y259860D01*
X34848Y259970D01*
X35084Y260079D01*
X35358Y260188D01*
X35394Y260207D01*
X35503Y260225D01*
X35649Y260261D01*
X35868Y260316D01*
X36141Y260371D01*
X36451Y260407D01*
X36797Y260425D01*
X37180Y260443D01*
X37362D01*
X37544Y260425D01*
D02*
G37*
G36*
X67753Y249566D02*
X66459D01*
X66405Y251115D01*
Y251097D01*
X66386Y251078D01*
X66295Y250969D01*
X66186Y250823D01*
X66022Y250623D01*
X65821Y250423D01*
X65603Y250204D01*
X65366Y250003D01*
X65111Y249821D01*
X65074Y249803D01*
X64983Y249766D01*
X64856Y249694D01*
X64655Y249621D01*
X64437Y249548D01*
X64182Y249475D01*
X63908Y249439D01*
X63599Y249420D01*
X63489D01*
X63344Y249439D01*
X63180Y249457D01*
X62997Y249493D01*
X62779Y249548D01*
X62578Y249621D01*
X62360Y249712D01*
X62341Y249730D01*
X62269Y249766D01*
X62177Y249839D01*
X62050Y249931D01*
X61904Y250040D01*
X61759Y250186D01*
X61613Y250350D01*
X61467Y250532D01*
X61449Y250550D01*
X61412Y250623D01*
X61339Y250750D01*
X61266Y250896D01*
X61175Y251097D01*
X61084Y251315D01*
X60993Y251552D01*
X60920Y251825D01*
Y251862D01*
X60902Y251953D01*
X60866Y252117D01*
X60848Y252317D01*
X60811Y252572D01*
X60775Y252864D01*
X60756Y253174D01*
Y253502D01*
Y253520D01*
Y253556D01*
Y253611D01*
Y253684D01*
X60775Y253866D01*
X60793Y254121D01*
X60829Y254413D01*
X60866Y254722D01*
X60939Y255050D01*
X61030Y255360D01*
Y255378D01*
X61048Y255397D01*
X61084Y255506D01*
X61157Y255652D01*
X61248Y255834D01*
X61358Y256052D01*
X61503Y256289D01*
X61667Y256526D01*
X61850Y256745D01*
X61868Y256763D01*
X61941Y256836D01*
X62050Y256945D01*
X62214Y257073D01*
X62396Y257200D01*
X62615Y257346D01*
X62852Y257474D01*
X63125Y257601D01*
X63161Y257619D01*
X63253Y257656D01*
X63416Y257692D01*
X63617Y257747D01*
X63854Y257802D01*
X64145Y257856D01*
X64455Y257874D01*
X64783Y257893D01*
X65020D01*
X65275Y257874D01*
X65548Y257838D01*
X65566D01*
X65621Y257820D01*
X65694D01*
X65785Y257802D01*
X66040Y257747D01*
X66313Y257674D01*
Y261154D01*
X67753D01*
Y249566D01*
D02*
G37*
G36*
X9449Y257929D02*
X9649Y257911D01*
X9904Y257874D01*
X10159Y257820D01*
X10433Y257747D01*
X10706Y257656D01*
X10742Y257638D01*
X10834Y257601D01*
X10961Y257546D01*
X11125Y257455D01*
X11307Y257346D01*
X11508Y257200D01*
X11708Y257036D01*
X11890Y256854D01*
X11908Y256836D01*
X11963Y256763D01*
X12054Y256654D01*
X12164Y256490D01*
X12291Y256308D01*
X12419Y256071D01*
X12528Y255816D01*
X12637Y255542D01*
X12656Y255506D01*
X12674Y255397D01*
X12728Y255233D01*
X12783Y255032D01*
X12820Y254759D01*
X12874Y254449D01*
X12892Y254103D01*
X12911Y253738D01*
Y253720D01*
Y253702D01*
Y253647D01*
Y253574D01*
X12892Y253392D01*
X12874Y253155D01*
X12838Y252882D01*
X12801Y252591D01*
X12728Y252281D01*
X12637Y251971D01*
X12619Y251935D01*
X12583Y251844D01*
X12528Y251698D01*
X12437Y251516D01*
X12328Y251297D01*
X12200Y251060D01*
X12036Y250823D01*
X11854Y250605D01*
X11836Y250586D01*
X11763Y250514D01*
X11654Y250404D01*
X11508Y250277D01*
X11326Y250149D01*
X11125Y250003D01*
X10870Y249858D01*
X10615Y249730D01*
X10578Y249712D01*
X10487Y249675D01*
X10342Y249639D01*
X10141Y249584D01*
X9886Y249512D01*
X9613Y249475D01*
X9303Y249439D01*
X8957Y249420D01*
X8811D01*
X8629Y249439D01*
X8428Y249457D01*
X8173Y249493D01*
X7900Y249530D01*
X7627Y249603D01*
X7354Y249694D01*
X7317Y249712D01*
X7244Y249748D01*
X7117Y249803D01*
X6953Y249894D01*
X6752Y250003D01*
X6570Y250149D01*
X6370Y250313D01*
X6169Y250495D01*
X6151Y250514D01*
X6096Y250586D01*
X6005Y250696D01*
X5896Y250860D01*
X5787Y251042D01*
X5659Y251279D01*
X5550Y251534D01*
X5440Y251807D01*
Y251825D01*
X5422Y251844D01*
X5404Y251953D01*
X5368Y252117D01*
X5313Y252336D01*
X5258Y252609D01*
X5222Y252919D01*
X5204Y253265D01*
X5185Y253629D01*
Y253647D01*
Y253666D01*
Y253720D01*
Y253793D01*
X5204Y253975D01*
X5222Y254194D01*
X5240Y254467D01*
X5295Y254759D01*
X5349Y255069D01*
X5440Y255360D01*
Y255378D01*
X5459Y255397D01*
X5495Y255488D01*
X5550Y255652D01*
X5641Y255834D01*
X5750Y256052D01*
X5896Y256271D01*
X6042Y256508D01*
X6224Y256727D01*
X6242Y256745D01*
X6315Y256818D01*
X6424Y256927D01*
X6570Y257054D01*
X6752Y257200D01*
X6971Y257346D01*
X7208Y257492D01*
X7463Y257619D01*
X7499Y257638D01*
X7590Y257674D01*
X7736Y257729D01*
X7937Y257783D01*
X8192Y257838D01*
X8465Y257893D01*
X8775Y257929D01*
X9121Y257947D01*
X9267D01*
X9449Y257929D01*
D02*
G37*
G36*
X46399D02*
X46599Y257911D01*
X46854Y257874D01*
X47110Y257820D01*
X47383Y257747D01*
X47656Y257656D01*
X47693Y257638D01*
X47784Y257601D01*
X47911Y257546D01*
X48075Y257455D01*
X48257Y257346D01*
X48458Y257200D01*
X48658Y257036D01*
X48840Y256854D01*
X48859Y256836D01*
X48913Y256763D01*
X49005Y256654D01*
X49114Y256490D01*
X49241Y256308D01*
X49369Y256071D01*
X49478Y255816D01*
X49588Y255542D01*
X49606Y255506D01*
X49624Y255397D01*
X49679Y255233D01*
X49733Y255032D01*
X49770Y254759D01*
X49824Y254449D01*
X49843Y254103D01*
X49861Y253738D01*
Y253720D01*
Y253702D01*
Y253647D01*
Y253574D01*
X49843Y253392D01*
X49824Y253155D01*
X49788Y252882D01*
X49751Y252591D01*
X49679Y252281D01*
X49588Y251971D01*
X49569Y251935D01*
X49533Y251844D01*
X49478Y251698D01*
X49387Y251516D01*
X49278Y251297D01*
X49150Y251060D01*
X48986Y250823D01*
X48804Y250605D01*
X48786Y250586D01*
X48713Y250514D01*
X48604Y250404D01*
X48458Y250277D01*
X48276Y250149D01*
X48075Y250003D01*
X47820Y249858D01*
X47565Y249730D01*
X47529Y249712D01*
X47438Y249675D01*
X47292Y249639D01*
X47091Y249584D01*
X46836Y249512D01*
X46563Y249475D01*
X46253Y249439D01*
X45907Y249420D01*
X45761D01*
X45579Y249439D01*
X45379Y249457D01*
X45124Y249493D01*
X44850Y249530D01*
X44577Y249603D01*
X44304Y249694D01*
X44267Y249712D01*
X44194Y249748D01*
X44067Y249803D01*
X43903Y249894D01*
X43702Y250003D01*
X43520Y250149D01*
X43320Y250313D01*
X43119Y250495D01*
X43101Y250514D01*
X43047Y250586D01*
X42955Y250696D01*
X42846Y250860D01*
X42737Y251042D01*
X42609Y251279D01*
X42500Y251534D01*
X42391Y251807D01*
Y251825D01*
X42372Y251844D01*
X42354Y251953D01*
X42318Y252117D01*
X42263Y252336D01*
X42208Y252609D01*
X42172Y252919D01*
X42154Y253265D01*
X42136Y253629D01*
Y253647D01*
Y253666D01*
Y253720D01*
Y253793D01*
X42154Y253975D01*
X42172Y254194D01*
X42190Y254467D01*
X42245Y254759D01*
X42300Y255069D01*
X42391Y255360D01*
Y255378D01*
X42409Y255397D01*
X42445Y255488D01*
X42500Y255652D01*
X42591Y255834D01*
X42700Y256052D01*
X42846Y256271D01*
X42992Y256508D01*
X43174Y256727D01*
X43192Y256745D01*
X43265Y256818D01*
X43374Y256927D01*
X43520Y257054D01*
X43702Y257200D01*
X43921Y257346D01*
X44158Y257492D01*
X44413Y257619D01*
X44449Y257638D01*
X44541Y257674D01*
X44686Y257729D01*
X44887Y257783D01*
X45142Y257838D01*
X45415Y257893D01*
X45725Y257929D01*
X46071Y257947D01*
X46217D01*
X46399Y257929D01*
D02*
G37*
G36*
X20855D02*
X20946Y257911D01*
X21073Y257874D01*
X21201Y257820D01*
X21347Y257747D01*
X21492Y257656D01*
X21638Y257528D01*
X21784Y257364D01*
X21911Y257164D01*
X22039Y256945D01*
X22130Y256672D01*
X22203Y256344D01*
X22257Y255980D01*
X22276Y255560D01*
Y249566D01*
X20855D01*
Y255469D01*
Y255488D01*
Y255542D01*
Y255597D01*
Y255688D01*
X20836Y255889D01*
X20818Y256089D01*
Y256107D01*
Y256125D01*
X20800Y256235D01*
X20782Y256362D01*
X20727Y256490D01*
X20709Y256508D01*
X20691Y256563D01*
X20636Y256635D01*
X20581Y256690D01*
X20563Y256708D01*
X20527Y256727D01*
X20454Y256745D01*
X20363Y256763D01*
X20344D01*
X20271Y256745D01*
X20180Y256727D01*
X20071Y256654D01*
X20053Y256635D01*
X19998Y256581D01*
X19907Y256471D01*
X19798Y256326D01*
Y256308D01*
X19780Y256289D01*
X19743Y256235D01*
X19707Y256180D01*
X19597Y255980D01*
X19470Y255743D01*
Y255725D01*
X19433Y255670D01*
X19397Y255597D01*
X19342Y255488D01*
X19288Y255360D01*
X19215Y255214D01*
X19142Y255032D01*
X19051Y254850D01*
Y249566D01*
X17630D01*
Y255324D01*
Y255342D01*
Y255397D01*
Y255469D01*
Y255579D01*
X17611Y255816D01*
X17593Y256034D01*
Y256052D01*
Y256089D01*
X17575Y256198D01*
X17557Y256344D01*
X17502Y256471D01*
X17484Y256490D01*
X17466Y256563D01*
X17411Y256635D01*
X17356Y256690D01*
X17338Y256708D01*
X17302Y256727D01*
X17229Y256745D01*
X17138Y256763D01*
X17120D01*
X17047Y256745D01*
X16955Y256727D01*
X16864Y256672D01*
X16846Y256654D01*
X16792Y256599D01*
X16700Y256508D01*
X16591Y256362D01*
X16573Y256326D01*
X16500Y256216D01*
X16391Y256034D01*
X16263Y255797D01*
Y255779D01*
X16227Y255725D01*
X16190Y255652D01*
X16136Y255542D01*
X16081Y255415D01*
X16008Y255251D01*
X15917Y255050D01*
X15826Y254850D01*
Y249566D01*
X14405D01*
Y257802D01*
X15571D01*
X15644Y256235D01*
X15662Y256253D01*
X15680Y256308D01*
X15717Y256399D01*
X15771Y256508D01*
X15917Y256763D01*
X16063Y257018D01*
X16081Y257036D01*
X16099Y257073D01*
X16136Y257127D01*
X16190Y257200D01*
X16318Y257382D01*
X16482Y257546D01*
X16500Y257565D01*
X16518Y257583D01*
X16627Y257656D01*
X16773Y257747D01*
X16937Y257838D01*
X16955D01*
X16974Y257856D01*
X17101Y257893D01*
X17265Y257929D01*
X17466Y257947D01*
X17575D01*
X17703Y257929D01*
X17848Y257893D01*
X18012Y257838D01*
X18176Y257765D01*
X18340Y257656D01*
X18486Y257510D01*
X18504Y257492D01*
X18541Y257437D01*
X18595Y257328D01*
X18668Y257182D01*
X18723Y256982D01*
X18778Y256763D01*
X18814Y256490D01*
X18832Y256162D01*
X18850Y256180D01*
X18869Y256235D01*
X18905Y256308D01*
X18960Y256417D01*
X19087Y256654D01*
X19215Y256909D01*
Y256927D01*
X19251Y256963D01*
X19288Y257036D01*
X19342Y257109D01*
X19470Y257291D01*
X19616Y257474D01*
X19634Y257492D01*
X19652Y257510D01*
X19761Y257601D01*
X19907Y257711D01*
X20089Y257820D01*
X20108D01*
X20144Y257838D01*
X20199Y257856D01*
X20271Y257893D01*
X20472Y257929D01*
X20709Y257947D01*
X20782D01*
X20855Y257929D01*
D02*
G37*
G36*
X-18264D02*
X-18063Y257911D01*
X-17808Y257874D01*
X-17553Y257820D01*
X-17280Y257747D01*
X-17007Y257656D01*
X-16970Y257638D01*
X-16879Y257601D01*
X-16751Y257546D01*
X-16588Y257455D01*
X-16405Y257346D01*
X-16205Y257200D01*
X-16004Y257036D01*
X-15822Y256854D01*
X-15804Y256836D01*
X-15749Y256763D01*
X-15658Y256654D01*
X-15549Y256490D01*
X-15421Y256308D01*
X-15294Y256071D01*
X-15185Y255816D01*
X-15075Y255542D01*
X-15057Y255506D01*
X-15039Y255397D01*
X-14984Y255233D01*
X-14930Y255032D01*
X-14893Y254759D01*
X-14838Y254449D01*
X-14820Y254103D01*
X-14802Y253738D01*
Y253720D01*
Y253702D01*
Y253647D01*
Y253574D01*
X-14820Y253392D01*
X-14838Y253155D01*
X-14875Y252882D01*
X-14911Y252591D01*
X-14984Y252281D01*
X-15075Y251971D01*
X-15093Y251935D01*
X-15130Y251844D01*
X-15185Y251698D01*
X-15276Y251516D01*
X-15385Y251297D01*
X-15513Y251060D01*
X-15676Y250823D01*
X-15859Y250605D01*
X-15877Y250586D01*
X-15950Y250514D01*
X-16059Y250404D01*
X-16205Y250277D01*
X-16387Y250149D01*
X-16588Y250003D01*
X-16843Y249858D01*
X-17098Y249730D01*
X-17134Y249712D01*
X-17225Y249675D01*
X-17371Y249639D01*
X-17571Y249584D01*
X-17827Y249512D01*
X-18100Y249475D01*
X-18409Y249439D01*
X-18756Y249420D01*
X-18902D01*
X-19084Y249439D01*
X-19284Y249457D01*
X-19539Y249493D01*
X-19813Y249530D01*
X-20086Y249603D01*
X-20359Y249694D01*
X-20395Y249712D01*
X-20468Y249748D01*
X-20596Y249803D01*
X-20760Y249894D01*
X-20960Y250003D01*
X-21143Y250149D01*
X-21343Y250313D01*
X-21543Y250495D01*
X-21562Y250514D01*
X-21616Y250586D01*
X-21707Y250696D01*
X-21817Y250860D01*
X-21926Y251042D01*
X-22053Y251279D01*
X-22163Y251534D01*
X-22272Y251807D01*
Y251825D01*
X-22290Y251844D01*
X-22309Y251953D01*
X-22345Y252117D01*
X-22400Y252336D01*
X-22454Y252609D01*
X-22491Y252919D01*
X-22509Y253265D01*
X-22527Y253629D01*
Y253647D01*
Y253666D01*
Y253720D01*
Y253793D01*
X-22509Y253975D01*
X-22491Y254194D01*
X-22473Y254467D01*
X-22418Y254759D01*
X-22363Y255069D01*
X-22272Y255360D01*
Y255378D01*
X-22254Y255397D01*
X-22218Y255488D01*
X-22163Y255652D01*
X-22072Y255834D01*
X-21962Y256052D01*
X-21817Y256271D01*
X-21671Y256508D01*
X-21489Y256727D01*
X-21471Y256745D01*
X-21398Y256818D01*
X-21288Y256927D01*
X-21143Y257054D01*
X-20960Y257200D01*
X-20742Y257346D01*
X-20505Y257492D01*
X-20250Y257619D01*
X-20213Y257638D01*
X-20122Y257674D01*
X-19976Y257729D01*
X-19776Y257783D01*
X-19521Y257838D01*
X-19248Y257893D01*
X-18938Y257929D01*
X-18592Y257947D01*
X-18446D01*
X-18264Y257929D01*
D02*
G37*
%LPC*%
G36*
X138592Y256800D02*
X138228D01*
X138119Y256781D01*
X137991Y256763D01*
X137845Y256727D01*
X137535Y256617D01*
X137517D01*
X137481Y256581D01*
X137408Y256544D01*
X137317Y256490D01*
X137098Y256326D01*
X136880Y256107D01*
X136861Y256089D01*
X136843Y256052D01*
X136788Y255980D01*
X136716Y255889D01*
X136643Y255779D01*
X136570Y255633D01*
X136424Y255324D01*
Y255305D01*
X136406Y255251D01*
X136369Y255160D01*
X136333Y255032D01*
X136296Y254886D01*
X136278Y254704D01*
X136224Y254322D01*
X140560D01*
Y254340D01*
Y254413D01*
Y254522D01*
Y254649D01*
X140542Y254795D01*
X140524Y254959D01*
X140432Y255305D01*
Y255324D01*
X140414Y255378D01*
X140378Y255469D01*
X140341Y255579D01*
X140214Y255834D01*
X140032Y256089D01*
X140013Y256107D01*
X139977Y256143D01*
X139922Y256198D01*
X139849Y256271D01*
X139740Y256362D01*
X139631Y256435D01*
X139339Y256599D01*
X139321Y256617D01*
X139266Y256635D01*
X139175Y256672D01*
X139066Y256708D01*
X138938Y256745D01*
X138774Y256763D01*
X138592Y256800D01*
D02*
G37*
G36*
X112501Y253319D02*
X110497D01*
X110369Y253301D01*
X110078Y253283D01*
X109768Y253210D01*
X109750D01*
X109713Y253192D01*
X109641Y253174D01*
X109549Y253137D01*
X109331Y253028D01*
X109131Y252900D01*
X109112D01*
X109094Y252864D01*
X109003Y252773D01*
X108875Y252609D01*
X108766Y252427D01*
Y252408D01*
X108748Y252372D01*
X108730Y252317D01*
X108711Y252244D01*
X108675Y252044D01*
X108657Y251807D01*
Y251789D01*
Y251771D01*
X108675Y251661D01*
X108693Y251516D01*
X108730Y251352D01*
Y251333D01*
X108748Y251315D01*
X108784Y251224D01*
X108857Y251097D01*
X108967Y250951D01*
X109003Y250933D01*
X109076Y250860D01*
X109222Y250769D01*
X109386Y250696D01*
X109404D01*
X109440Y250677D01*
X109495Y250659D01*
X109568D01*
X109768Y250623D01*
X110023Y250605D01*
X110114D01*
X110205Y250623D01*
X110351Y250641D01*
X110515Y250677D01*
X110716Y250732D01*
X110916Y250805D01*
X111153Y250896D01*
X111189Y250914D01*
X111262Y250951D01*
X111390Y251024D01*
X111554Y251133D01*
X111754Y251261D01*
X111991Y251425D01*
X112246Y251607D01*
X112501Y251844D01*
Y253319D01*
D02*
G37*
G36*
X101041Y259059D02*
X99565D01*
Y254649D01*
X101041D01*
X101132Y254668D01*
X101241D01*
X101369Y254686D01*
X101642Y254722D01*
X101970Y254795D01*
X102298Y254886D01*
X102626Y255032D01*
X102918Y255214D01*
X102954Y255233D01*
X103027Y255324D01*
X103136Y255451D01*
X103282Y255633D01*
X103409Y255889D01*
X103519Y256180D01*
X103592Y256526D01*
X103628Y256927D01*
Y256945D01*
Y256963D01*
Y257018D01*
X103610Y257091D01*
X103592Y257273D01*
X103537Y257510D01*
X103464Y257765D01*
X103337Y258020D01*
X103173Y258275D01*
X102936Y258494D01*
X102899Y258512D01*
X102808Y258585D01*
X102662Y258676D01*
X102444Y258785D01*
X102170Y258876D01*
X101861Y258968D01*
X101478Y259040D01*
X101041Y259059D01*
D02*
G37*
G36*
X-28066Y254486D02*
X-29761D01*
Y250805D01*
X-28030D01*
X-27920Y250823D01*
X-27793D01*
X-27520Y250860D01*
X-27210Y250914D01*
X-26900Y251006D01*
X-26608Y251115D01*
X-26353Y251261D01*
X-26335Y251279D01*
X-26262Y251352D01*
X-26153Y251461D01*
X-26044Y251625D01*
X-25934Y251825D01*
X-25825Y252080D01*
X-25752Y252372D01*
X-25734Y252718D01*
Y252736D01*
Y252791D01*
Y252864D01*
X-25752Y252955D01*
X-25807Y253192D01*
X-25916Y253447D01*
Y253465D01*
X-25953Y253502D01*
X-25989Y253556D01*
X-26044Y253647D01*
X-26190Y253811D01*
X-26408Y253994D01*
X-26426Y254012D01*
X-26463Y254030D01*
X-26536Y254085D01*
X-26627Y254121D01*
X-26754Y254194D01*
X-26882Y254249D01*
X-27210Y254358D01*
X-27228D01*
X-27301Y254376D01*
X-27392Y254394D01*
X-27520Y254431D01*
X-27683Y254449D01*
X-27866Y254467D01*
X-28066Y254486D01*
D02*
G37*
G36*
X-28048Y259040D02*
X-29761D01*
Y255706D01*
X-28139D01*
X-28030Y255725D01*
X-27884D01*
X-27738Y255743D01*
X-27428Y255797D01*
X-27410D01*
X-27356Y255816D01*
X-27283Y255852D01*
X-27192Y255889D01*
X-26973Y255980D01*
X-26736Y256125D01*
X-26718Y256143D01*
X-26681Y256162D01*
X-26572Y256271D01*
X-26426Y256453D01*
X-26281Y256672D01*
Y256690D01*
X-26262Y256727D01*
X-26226Y256800D01*
X-26190Y256909D01*
X-26171Y257018D01*
X-26135Y257164D01*
X-26117Y257474D01*
Y257492D01*
Y257528D01*
Y257583D01*
X-26135Y257674D01*
X-26153Y257856D01*
X-26226Y258075D01*
Y258093D01*
X-26244Y258130D01*
X-26262Y258184D01*
X-26299Y258239D01*
X-26408Y258403D01*
X-26572Y258567D01*
X-26590Y258585D01*
X-26608Y258603D01*
X-26663Y258640D01*
X-26736Y258694D01*
X-26827Y258749D01*
X-26955Y258804D01*
X-27082Y258858D01*
X-27228Y258913D01*
X-27246D01*
X-27301Y258931D01*
X-27392Y258949D01*
X-27520Y258986D01*
X-27665Y259004D01*
X-27847Y259022D01*
X-28048Y259040D01*
D02*
G37*
G36*
X73929Y256800D02*
X73565D01*
X73456Y256781D01*
X73328Y256763D01*
X73182Y256727D01*
X72873Y256617D01*
X72854D01*
X72818Y256581D01*
X72745Y256544D01*
X72654Y256490D01*
X72435Y256326D01*
X72217Y256107D01*
X72198Y256089D01*
X72180Y256052D01*
X72126Y255980D01*
X72053Y255889D01*
X71980Y255779D01*
X71907Y255633D01*
X71761Y255324D01*
Y255305D01*
X71743Y255251D01*
X71707Y255160D01*
X71670Y255032D01*
X71634Y254886D01*
X71615Y254704D01*
X71561Y254322D01*
X75897D01*
Y254340D01*
Y254413D01*
Y254522D01*
Y254649D01*
X75879Y254795D01*
X75861Y254959D01*
X75770Y255305D01*
Y255324D01*
X75751Y255378D01*
X75715Y255469D01*
X75678Y255579D01*
X75551Y255834D01*
X75369Y256089D01*
X75351Y256107D01*
X75314Y256143D01*
X75260Y256198D01*
X75187Y256271D01*
X75077Y256362D01*
X74968Y256435D01*
X74676Y256599D01*
X74658Y256617D01*
X74604Y256635D01*
X74512Y256672D01*
X74403Y256708D01*
X74276Y256745D01*
X74112Y256763D01*
X73929Y256800D01*
D02*
G37*
G36*
X64674Y256708D02*
X64564D01*
X64473Y256690D01*
X64273Y256672D01*
X64018Y256617D01*
X63708Y256526D01*
X63416Y256380D01*
X63125Y256198D01*
X62852Y255943D01*
X62833Y255907D01*
X62761Y255797D01*
X62706Y255725D01*
X62651Y255615D01*
X62597Y255506D01*
X62542Y255378D01*
X62469Y255214D01*
X62414Y255050D01*
X62360Y254850D01*
X62323Y254631D01*
X62269Y254413D01*
X62250Y254158D01*
X62214Y253884D01*
Y253593D01*
Y253574D01*
Y253520D01*
Y253447D01*
Y253356D01*
X62232Y253228D01*
Y253083D01*
X62269Y252755D01*
X62323Y252390D01*
X62396Y252026D01*
X62506Y251680D01*
X62651Y251370D01*
X62669Y251333D01*
X62724Y251261D01*
X62833Y251133D01*
X62979Y251006D01*
X63143Y250878D01*
X63362Y250750D01*
X63599Y250677D01*
X63890Y250641D01*
X63981D01*
X64091Y250659D01*
X64236Y250696D01*
X64419Y250750D01*
X64601Y250841D01*
X64819Y250951D01*
X65038Y251115D01*
X65074Y251133D01*
X65147Y251206D01*
X65257Y251315D01*
X65421Y251479D01*
X65621Y251680D01*
X65821Y251935D01*
X66058Y252226D01*
X66313Y252554D01*
Y256362D01*
X66295D01*
X66259Y256399D01*
X66168Y256417D01*
X66077Y256453D01*
X65967Y256490D01*
X65821Y256544D01*
X65512Y256617D01*
X65494D01*
X65439Y256635D01*
X65366Y256654D01*
X65257Y256672D01*
X65129D01*
X64983Y256690D01*
X64674Y256708D01*
D02*
G37*
G36*
X9248Y256727D02*
X8939D01*
X8811Y256708D01*
X8665Y256690D01*
X8483Y256672D01*
X8301Y256617D01*
X8119Y256563D01*
X7937Y256471D01*
X7918Y256453D01*
X7864Y256417D01*
X7773Y256362D01*
X7682Y256289D01*
X7554Y256198D01*
X7426Y256089D01*
X7190Y255797D01*
X7171Y255779D01*
X7135Y255725D01*
X7098Y255633D01*
X7026Y255524D01*
X6953Y255378D01*
X6898Y255214D01*
X6825Y255032D01*
X6770Y254832D01*
Y254814D01*
X6752Y254741D01*
X6734Y254631D01*
X6716Y254486D01*
X6679Y254303D01*
X6661Y254103D01*
X6643Y253666D01*
Y253629D01*
Y253538D01*
X6661Y253392D01*
Y253210D01*
X6679Y253010D01*
X6716Y252773D01*
X6807Y252317D01*
Y252299D01*
X6843Y252226D01*
X6880Y252117D01*
X6934Y251989D01*
X7080Y251680D01*
X7281Y251370D01*
X7299Y251352D01*
X7335Y251315D01*
X7408Y251242D01*
X7499Y251169D01*
X7609Y251078D01*
X7736Y250987D01*
X8028Y250805D01*
X8046D01*
X8101Y250769D01*
X8210Y250750D01*
X8319Y250714D01*
X8483Y250677D01*
X8647Y250659D01*
X8848Y250623D01*
X9157D01*
X9267Y250641D01*
X9431Y250659D01*
X9595Y250677D01*
X9777Y250732D01*
X9959Y250787D01*
X10141Y250860D01*
X10159Y250878D01*
X10214Y250914D01*
X10305Y250969D01*
X10414Y251042D01*
X10524Y251133D01*
X10651Y251261D01*
X10888Y251534D01*
X10906Y251552D01*
X10943Y251607D01*
X10979Y251698D01*
X11052Y251807D01*
X11125Y251953D01*
X11180Y252117D01*
X11253Y252299D01*
X11307Y252500D01*
Y252518D01*
X11326Y252591D01*
X11362Y252718D01*
X11380Y252864D01*
X11417Y253028D01*
X11435Y253228D01*
X11453Y253666D01*
Y253702D01*
Y253793D01*
Y253939D01*
X11435Y254121D01*
X11417Y254322D01*
X11380Y254558D01*
X11326Y254777D01*
X11271Y254996D01*
Y255014D01*
X11234Y255087D01*
X11198Y255196D01*
X11143Y255342D01*
X10998Y255633D01*
X10906Y255797D01*
X10797Y255943D01*
X10779Y255961D01*
X10742Y255998D01*
X10670Y256071D01*
X10578Y256162D01*
X10469Y256253D01*
X10342Y256344D01*
X10032Y256526D01*
X10014Y256544D01*
X9959Y256563D01*
X9868Y256599D01*
X9740Y256635D01*
X9595Y256672D01*
X9431Y256690D01*
X9248Y256727D01*
D02*
G37*
G36*
X46199D02*
X45889D01*
X45761Y256708D01*
X45616Y256690D01*
X45433Y256672D01*
X45251Y256617D01*
X45069Y256563D01*
X44887Y256471D01*
X44868Y256453D01*
X44814Y256417D01*
X44723Y256362D01*
X44632Y256289D01*
X44504Y256198D01*
X44377Y256089D01*
X44140Y255797D01*
X44122Y255779D01*
X44085Y255725D01*
X44049Y255633D01*
X43976Y255524D01*
X43903Y255378D01*
X43848Y255214D01*
X43775Y255032D01*
X43721Y254832D01*
Y254814D01*
X43702Y254741D01*
X43684Y254631D01*
X43666Y254486D01*
X43630Y254303D01*
X43611Y254103D01*
X43593Y253666D01*
Y253629D01*
Y253538D01*
X43611Y253392D01*
Y253210D01*
X43630Y253010D01*
X43666Y252773D01*
X43757Y252317D01*
Y252299D01*
X43793Y252226D01*
X43830Y252117D01*
X43885Y251989D01*
X44030Y251680D01*
X44231Y251370D01*
X44249Y251352D01*
X44286Y251315D01*
X44358Y251242D01*
X44449Y251169D01*
X44559Y251078D01*
X44686Y250987D01*
X44978Y250805D01*
X44996D01*
X45051Y250769D01*
X45160Y250750D01*
X45269Y250714D01*
X45433Y250677D01*
X45597Y250659D01*
X45798Y250623D01*
X46108D01*
X46217Y250641D01*
X46381Y250659D01*
X46545Y250677D01*
X46727Y250732D01*
X46909Y250787D01*
X47091Y250860D01*
X47110Y250878D01*
X47164Y250914D01*
X47255Y250969D01*
X47365Y251042D01*
X47474Y251133D01*
X47602Y251261D01*
X47838Y251534D01*
X47857Y251552D01*
X47893Y251607D01*
X47929Y251698D01*
X48002Y251807D01*
X48075Y251953D01*
X48130Y252117D01*
X48203Y252299D01*
X48257Y252500D01*
Y252518D01*
X48276Y252591D01*
X48312Y252718D01*
X48330Y252864D01*
X48367Y253028D01*
X48385Y253228D01*
X48403Y253666D01*
Y253702D01*
Y253793D01*
Y253939D01*
X48385Y254121D01*
X48367Y254322D01*
X48330Y254558D01*
X48276Y254777D01*
X48221Y254996D01*
Y255014D01*
X48185Y255087D01*
X48148Y255196D01*
X48094Y255342D01*
X47948Y255633D01*
X47857Y255797D01*
X47747Y255943D01*
X47729Y255961D01*
X47693Y255998D01*
X47620Y256071D01*
X47529Y256162D01*
X47419Y256253D01*
X47292Y256344D01*
X46982Y256526D01*
X46964Y256544D01*
X46909Y256563D01*
X46818Y256599D01*
X46690Y256635D01*
X46545Y256672D01*
X46381Y256690D01*
X46199Y256727D01*
D02*
G37*
G36*
X-18464D02*
X-18774D01*
X-18902Y256708D01*
X-19047Y256690D01*
X-19229Y256672D01*
X-19412Y256617D01*
X-19594Y256563D01*
X-19776Y256471D01*
X-19794Y256453D01*
X-19849Y256417D01*
X-19940Y256362D01*
X-20031Y256289D01*
X-20159Y256198D01*
X-20286Y256089D01*
X-20523Y255797D01*
X-20541Y255779D01*
X-20578Y255725D01*
X-20614Y255633D01*
X-20687Y255524D01*
X-20760Y255378D01*
X-20815Y255214D01*
X-20888Y255032D01*
X-20942Y254832D01*
Y254814D01*
X-20960Y254741D01*
X-20979Y254631D01*
X-20997Y254486D01*
X-21033Y254303D01*
X-21051Y254103D01*
X-21070Y253666D01*
Y253629D01*
Y253538D01*
X-21051Y253392D01*
Y253210D01*
X-21033Y253010D01*
X-20997Y252773D01*
X-20906Y252317D01*
Y252299D01*
X-20869Y252226D01*
X-20833Y252117D01*
X-20778Y251989D01*
X-20632Y251680D01*
X-20432Y251370D01*
X-20414Y251352D01*
X-20377Y251315D01*
X-20304Y251242D01*
X-20213Y251169D01*
X-20104Y251078D01*
X-19976Y250987D01*
X-19685Y250805D01*
X-19667D01*
X-19612Y250769D01*
X-19503Y250750D01*
X-19393Y250714D01*
X-19229Y250677D01*
X-19065Y250659D01*
X-18865Y250623D01*
X-18555D01*
X-18446Y250641D01*
X-18282Y250659D01*
X-18118Y250677D01*
X-17936Y250732D01*
X-17754Y250787D01*
X-17571Y250860D01*
X-17553Y250878D01*
X-17499Y250914D01*
X-17407Y250969D01*
X-17298Y251042D01*
X-17189Y251133D01*
X-17061Y251261D01*
X-16824Y251534D01*
X-16806Y251552D01*
X-16770Y251607D01*
X-16733Y251698D01*
X-16660Y251807D01*
X-16588Y251953D01*
X-16533Y252117D01*
X-16460Y252299D01*
X-16405Y252500D01*
Y252518D01*
X-16387Y252591D01*
X-16351Y252718D01*
X-16332Y252864D01*
X-16296Y253028D01*
X-16278Y253228D01*
X-16260Y253666D01*
Y253702D01*
Y253793D01*
Y253939D01*
X-16278Y254121D01*
X-16296Y254322D01*
X-16332Y254558D01*
X-16387Y254777D01*
X-16442Y254996D01*
Y255014D01*
X-16478Y255087D01*
X-16515Y255196D01*
X-16569Y255342D01*
X-16715Y255633D01*
X-16806Y255797D01*
X-16916Y255943D01*
X-16934Y255961D01*
X-16970Y255998D01*
X-17043Y256071D01*
X-17134Y256162D01*
X-17244Y256253D01*
X-17371Y256344D01*
X-17681Y256526D01*
X-17699Y256544D01*
X-17754Y256563D01*
X-17845Y256599D01*
X-17972Y256635D01*
X-18118Y256672D01*
X-18282Y256690D01*
X-18464Y256727D01*
D02*
G37*
%LPD*%
D20*
X-58888Y141732D02*
D03*
X-25620D02*
D03*
D21*
X-49636Y128740D02*
D03*
X-44715D02*
D03*
X-34872D02*
D03*
X-39794D02*
D03*
M02*
