G04 Layer_Color=32896*
%FSLAX25Y25*%
%MOIN*%
G70*
G01*
G75*
%ADD10C,0.01000*%
%ADD25C,0.00787*%
%ADD35C,0.00394*%
%ADD36C,0.00630*%
G36*
X182541Y259383D02*
X182796Y259347D01*
X183051Y259274D01*
X183252Y259201D01*
X183452Y259128D01*
X183580Y259055D01*
X183671Y259019D01*
X183707Y259001D01*
X183981Y258837D01*
X184236Y258636D01*
X184473Y258418D01*
X184691Y258217D01*
X184873Y258017D01*
X185019Y257871D01*
X185110Y257762D01*
X185147Y257744D01*
Y257725D01*
X185183Y259256D01*
X186477D01*
Y251020D01*
X185037D01*
Y256304D01*
X184892Y256486D01*
X184764Y256650D01*
X184636Y256778D01*
X184527Y256906D01*
X184436Y257015D01*
X184363Y257088D01*
X184327Y257124D01*
X184309Y257142D01*
X184054Y257379D01*
X183853Y257580D01*
X183762Y257634D01*
X183707Y257689D01*
X183671Y257707D01*
X183653Y257725D01*
X183434Y257871D01*
X183234Y257980D01*
X183161Y258017D01*
X183106Y258035D01*
X183070Y258053D01*
X183051D01*
X182833Y258126D01*
X182650Y258144D01*
X182596Y258163D01*
X182487D01*
X182250Y258144D01*
X182049Y258090D01*
X181885Y257999D01*
X181740Y257926D01*
X181630Y257835D01*
X181539Y257744D01*
X181503Y257689D01*
X181484Y257671D01*
X181375Y257470D01*
X181284Y257215D01*
X181229Y256960D01*
X181193Y256705D01*
X181175Y256486D01*
X181157Y256304D01*
Y256231D01*
Y256177D01*
Y256140D01*
Y256122D01*
X179717D01*
Y256414D01*
X179735Y256687D01*
X179754Y256942D01*
X179790Y257197D01*
X179845Y257416D01*
X179899Y257616D01*
X179954Y257780D01*
X180009Y257944D01*
X180063Y258090D01*
X180136Y258217D01*
X180191Y258327D01*
X180227Y258418D01*
X180282Y258472D01*
X180300Y258527D01*
X180337Y258563D01*
X180464Y258709D01*
X180610Y258837D01*
X180920Y259055D01*
X181229Y259201D01*
X181539Y259292D01*
X181831Y259365D01*
X181958Y259383D01*
X182049D01*
X182140Y259402D01*
X182268D01*
X182541Y259383D01*
D02*
G37*
G36*
X174506D02*
X174798Y259347D01*
X175071Y259292D01*
X175308Y259238D01*
X175490Y259165D01*
X175636Y259110D01*
X175727Y259074D01*
X175763Y259055D01*
X176019Y258910D01*
X176237Y258764D01*
X176437Y258600D01*
X176620Y258454D01*
X176747Y258308D01*
X176857Y258199D01*
X176929Y258126D01*
X176948Y258108D01*
X177112Y257889D01*
X177257Y257652D01*
X177385Y257416D01*
X177494Y257215D01*
X177567Y257015D01*
X177622Y256869D01*
X177658Y256778D01*
X177676Y256760D01*
Y256741D01*
X177749Y256450D01*
X177804Y256158D01*
X177859Y255885D01*
X177877Y255648D01*
X177895Y255430D01*
X177913Y255266D01*
Y255156D01*
Y255138D01*
Y255120D01*
X177895Y254755D01*
X177877Y254409D01*
X177840Y254118D01*
X177804Y253844D01*
X177768Y253626D01*
X177731Y253462D01*
X177695Y253353D01*
Y253334D01*
Y253316D01*
X177604Y253043D01*
X177476Y252770D01*
X177367Y252551D01*
X177239Y252350D01*
X177130Y252205D01*
X177039Y252077D01*
X176984Y252004D01*
X176966Y251986D01*
X176766Y251786D01*
X176565Y251622D01*
X176346Y251476D01*
X176146Y251367D01*
X175982Y251275D01*
X175836Y251203D01*
X175745Y251166D01*
X175709Y251148D01*
X175417Y251057D01*
X175108Y250984D01*
X174798Y250948D01*
X174506Y250911D01*
X174269Y250893D01*
X174069Y250875D01*
X173595D01*
X173322Y250893D01*
X173067Y250911D01*
X172830Y250929D01*
X172648Y250948D01*
X172502Y250966D01*
X172411Y250984D01*
X172374D01*
X172101Y251020D01*
X171846Y251057D01*
X171627Y251112D01*
X171427Y251148D01*
X171263Y251184D01*
X171154Y251221D01*
X171063Y251239D01*
X171044D01*
Y252405D01*
X171245Y252350D01*
X171445Y252314D01*
X171518Y252296D01*
X171573Y252278D01*
X171609Y252259D01*
X171627D01*
X171864Y252223D01*
X172065Y252186D01*
X172156Y252168D01*
X172229D01*
X172265Y252150D01*
X172283D01*
X172520Y252132D01*
X172757Y252095D01*
X172848D01*
X172921Y252077D01*
X172976D01*
X173231Y252059D01*
X173686D01*
X174160Y252095D01*
X174561Y252168D01*
X174907Y252278D01*
X175199Y252405D01*
X175435Y252515D01*
X175599Y252624D01*
X175690Y252697D01*
X175727Y252733D01*
X175964Y253006D01*
X176128Y253316D01*
X176255Y253644D01*
X176328Y253954D01*
X176383Y254245D01*
X176401Y254373D01*
Y254482D01*
X176419Y254555D01*
Y254628D01*
Y254664D01*
Y254683D01*
X170644D01*
X170625Y254810D01*
Y254920D01*
Y255011D01*
Y255047D01*
X170607Y255229D01*
Y255393D01*
Y255466D01*
Y255521D01*
Y255557D01*
Y255575D01*
X170625Y255903D01*
X170644Y256195D01*
X170680Y256450D01*
X170717Y256687D01*
X170771Y256869D01*
X170808Y257015D01*
X170826Y257106D01*
X170844Y257142D01*
X170935Y257397D01*
X171044Y257634D01*
X171172Y257835D01*
X171281Y258017D01*
X171372Y258144D01*
X171464Y258254D01*
X171518Y258327D01*
X171536Y258345D01*
X171719Y258527D01*
X171901Y258691D01*
X172101Y258819D01*
X172265Y258928D01*
X172429Y259019D01*
X172557Y259074D01*
X172629Y259110D01*
X172666Y259128D01*
X172921Y259219D01*
X173176Y259292D01*
X173431Y259329D01*
X173668Y259365D01*
X173869Y259383D01*
X174032Y259402D01*
X174178D01*
X174506Y259383D01*
D02*
G37*
G36*
X277686Y261515D02*
Y259256D01*
X279982D01*
Y258053D01*
X277686D01*
Y253753D01*
X277650Y253243D01*
X277558Y252806D01*
X277449Y252442D01*
X277304Y252132D01*
X277158Y251895D01*
X277048Y251731D01*
X276957Y251640D01*
X276921Y251604D01*
X276775Y251476D01*
X276593Y251367D01*
X276228Y251203D01*
X275846Y251075D01*
X275481Y251002D01*
X275135Y250948D01*
X274990Y250929D01*
X274862D01*
X274753Y250911D01*
X274607D01*
X274224Y250929D01*
X274042D01*
X273896Y250948D01*
X273751D01*
X273659Y250966D01*
X273568D01*
X273186Y251020D01*
X273022Y251039D01*
X272858Y251075D01*
X272730Y251093D01*
X272639Y251112D01*
X272566Y251130D01*
X272548D01*
Y252369D01*
X272912Y252278D01*
X273076Y252241D01*
X273222Y252223D01*
X273350Y252186D01*
X273441D01*
X273514Y252168D01*
X273532D01*
X273860Y252132D01*
X274024D01*
X274151Y252114D01*
X274407D01*
X274734Y252132D01*
X275008Y252186D01*
X275245Y252259D01*
X275445Y252332D01*
X275591Y252405D01*
X275700Y252478D01*
X275773Y252533D01*
X275791Y252551D01*
X275955Y252733D01*
X276064Y252934D01*
X276156Y253152D01*
X276210Y253371D01*
X276247Y253571D01*
X276265Y253717D01*
Y253826D01*
Y253844D01*
Y253863D01*
Y258053D01*
X272548D01*
Y259256D01*
X276265D01*
Y261898D01*
X277686Y261515D01*
D02*
G37*
G36*
X155321Y259383D02*
X155557Y259365D01*
X155649Y259347D01*
X155721D01*
X155758Y259329D01*
X155776D01*
X156013Y259256D01*
X156231Y259183D01*
X156304Y259128D01*
X156377Y259110D01*
X156414Y259074D01*
X156432D01*
X156669Y258928D01*
X156869Y258782D01*
X156960Y258728D01*
X157033Y258673D01*
X157070Y258636D01*
X157088Y258618D01*
X157325Y258400D01*
X157562Y258163D01*
X157653Y258072D01*
X157726Y257999D01*
X157762Y257944D01*
X157780Y257926D01*
X157835Y259256D01*
X159092D01*
Y251020D01*
X157671D01*
Y256468D01*
X157525Y256650D01*
X157398Y256796D01*
X157288Y256942D01*
X157179Y257069D01*
X157088Y257161D01*
X157033Y257234D01*
X156997Y257270D01*
X156979Y257288D01*
X156742Y257507D01*
X156560Y257671D01*
X156487Y257725D01*
X156432Y257762D01*
X156395Y257798D01*
X156377D01*
X156177Y257926D01*
X156013Y258017D01*
X155904Y258053D01*
X155885Y258072D01*
X155867D01*
X155685Y258126D01*
X155503Y258144D01*
X155430Y258163D01*
X155339D01*
X155084Y258144D01*
X154865Y258090D01*
X154683Y258017D01*
X154537Y257926D01*
X154410Y257835D01*
X154337Y257762D01*
X154282Y257707D01*
X154264Y257689D01*
X154136Y257507D01*
X154045Y257270D01*
X153990Y257033D01*
X153936Y256814D01*
X153918Y256596D01*
X153899Y256432D01*
Y256359D01*
Y256304D01*
Y256286D01*
Y256268D01*
Y251020D01*
X152478D01*
Y256377D01*
X152515Y256906D01*
X152588Y257361D01*
X152679Y257762D01*
X152806Y258072D01*
X152934Y258327D01*
X153025Y258491D01*
X153098Y258600D01*
X153134Y258636D01*
X153407Y258892D01*
X153717Y259074D01*
X154027Y259219D01*
X154337Y259311D01*
X154628Y259365D01*
X154756Y259383D01*
X154847D01*
X154938Y259402D01*
X155066D01*
X155321Y259383D01*
D02*
G37*
G36*
X232628Y258072D02*
X230205D01*
Y252205D01*
X232901D01*
Y251020D01*
X226306D01*
Y252205D01*
X228765D01*
Y259256D01*
X232628D01*
Y258072D01*
D02*
G37*
G36*
X223391Y261442D02*
X220967D01*
Y252205D01*
X223664D01*
Y251020D01*
X217068D01*
Y252205D01*
X219528D01*
Y262608D01*
X223391D01*
Y261442D01*
D02*
G37*
G36*
X165269Y259383D02*
X165560Y259347D01*
X165833Y259292D01*
X166070Y259238D01*
X166253Y259165D01*
X166398Y259110D01*
X166489Y259074D01*
X166526Y259055D01*
X166781Y258910D01*
X167000Y258764D01*
X167200Y258600D01*
X167382Y258454D01*
X167510Y258308D01*
X167619Y258199D01*
X167692Y258126D01*
X167710Y258108D01*
X167874Y257889D01*
X168020Y257652D01*
X168147Y257416D01*
X168257Y257215D01*
X168330Y257015D01*
X168384Y256869D01*
X168421Y256778D01*
X168439Y256760D01*
Y256741D01*
X168512Y256450D01*
X168567Y256158D01*
X168621Y255885D01*
X168639Y255648D01*
X168658Y255430D01*
X168676Y255266D01*
Y255156D01*
Y255138D01*
Y255120D01*
X168658Y254755D01*
X168639Y254409D01*
X168603Y254118D01*
X168567Y253844D01*
X168530Y253626D01*
X168494Y253462D01*
X168457Y253353D01*
Y253334D01*
Y253316D01*
X168366Y253043D01*
X168238Y252770D01*
X168129Y252551D01*
X168002Y252350D01*
X167892Y252205D01*
X167801Y252077D01*
X167747Y252004D01*
X167728Y251986D01*
X167528Y251786D01*
X167327Y251622D01*
X167109Y251476D01*
X166909Y251367D01*
X166744Y251275D01*
X166599Y251203D01*
X166508Y251166D01*
X166471Y251148D01*
X166180Y251057D01*
X165870Y250984D01*
X165560Y250948D01*
X165269Y250911D01*
X165032Y250893D01*
X164831Y250875D01*
X164358D01*
X164084Y250893D01*
X163829Y250911D01*
X163592Y250929D01*
X163410Y250948D01*
X163265Y250966D01*
X163173Y250984D01*
X163137D01*
X162864Y251020D01*
X162609Y251057D01*
X162390Y251112D01*
X162189Y251148D01*
X162025Y251184D01*
X161916Y251221D01*
X161825Y251239D01*
X161807D01*
Y252405D01*
X162007Y252350D01*
X162208Y252314D01*
X162281Y252296D01*
X162335Y252278D01*
X162372Y252259D01*
X162390D01*
X162627Y252223D01*
X162827Y252186D01*
X162918Y252168D01*
X162991D01*
X163028Y252150D01*
X163046D01*
X163283Y252132D01*
X163520Y252095D01*
X163611D01*
X163683Y252077D01*
X163738D01*
X163993Y252059D01*
X164449D01*
X164922Y252095D01*
X165323Y252168D01*
X165670Y252278D01*
X165961Y252405D01*
X166198Y252515D01*
X166362Y252624D01*
X166453Y252697D01*
X166489Y252733D01*
X166726Y253006D01*
X166890Y253316D01*
X167018Y253644D01*
X167091Y253954D01*
X167145Y254245D01*
X167164Y254373D01*
Y254482D01*
X167182Y254555D01*
Y254628D01*
Y254664D01*
Y254683D01*
X161406D01*
X161388Y254810D01*
Y254920D01*
Y255011D01*
Y255047D01*
X161370Y255229D01*
Y255393D01*
Y255466D01*
Y255521D01*
Y255557D01*
Y255575D01*
X161388Y255903D01*
X161406Y256195D01*
X161442Y256450D01*
X161479Y256687D01*
X161534Y256869D01*
X161570Y257015D01*
X161588Y257106D01*
X161606Y257142D01*
X161698Y257397D01*
X161807Y257634D01*
X161934Y257835D01*
X162044Y258017D01*
X162135Y258144D01*
X162226Y258254D01*
X162281Y258327D01*
X162299Y258345D01*
X162481Y258527D01*
X162663Y258691D01*
X162864Y258819D01*
X163028Y258928D01*
X163192Y259019D01*
X163319Y259074D01*
X163392Y259110D01*
X163428Y259128D01*
X163683Y259219D01*
X163939Y259292D01*
X164194Y259329D01*
X164430Y259365D01*
X164631Y259383D01*
X164795Y259402D01*
X164941D01*
X165269Y259383D01*
D02*
G37*
G36*
X306911Y251020D02*
X304160D01*
X303814Y251039D01*
X303486Y251057D01*
X303194Y251093D01*
X302939Y251130D01*
X302739Y251166D01*
X302575Y251184D01*
X302484Y251221D01*
X302447D01*
X302155Y251312D01*
X301901Y251403D01*
X301682Y251512D01*
X301481Y251622D01*
X301336Y251695D01*
X301208Y251767D01*
X301135Y251822D01*
X301117Y251840D01*
X300917Y252004D01*
X300753Y252168D01*
X300607Y252350D01*
X300498Y252496D01*
X300406Y252642D01*
X300333Y252751D01*
X300297Y252824D01*
X300279Y252842D01*
X300169Y253079D01*
X300097Y253316D01*
X300042Y253553D01*
X300006Y253753D01*
X299987Y253954D01*
X299969Y254100D01*
Y254191D01*
Y254227D01*
X300006Y254592D01*
X300024Y254755D01*
X300060Y254901D01*
X300097Y255011D01*
X300115Y255102D01*
X300151Y255156D01*
Y255175D01*
X300297Y255484D01*
X300370Y255612D01*
X300443Y255721D01*
X300498Y255794D01*
X300552Y255867D01*
X300589Y255903D01*
X300607Y255922D01*
X300826Y256140D01*
X301044Y256286D01*
X301135Y256359D01*
X301208Y256395D01*
X301263Y256432D01*
X301281D01*
X301572Y256559D01*
X301828Y256650D01*
X301937Y256669D01*
X302028Y256687D01*
X302083Y256705D01*
X302101D01*
X301773Y256833D01*
X301500Y256978D01*
X301263Y257142D01*
X301080Y257288D01*
X300953Y257416D01*
X300844Y257525D01*
X300789Y257616D01*
X300771Y257634D01*
X300625Y257871D01*
X300534Y258126D01*
X300461Y258381D01*
X300406Y258618D01*
X300370Y258819D01*
X300352Y258983D01*
Y259092D01*
Y259110D01*
Y259128D01*
X300370Y259365D01*
X300388Y259584D01*
X300498Y259985D01*
X300680Y260331D01*
X300898Y260641D01*
X301172Y260896D01*
X301463Y261096D01*
X301791Y261278D01*
X302119Y261406D01*
X302447Y261515D01*
X302775Y261588D01*
X303066Y261661D01*
X303340Y261697D01*
X303558Y261716D01*
X303741Y261734D01*
X306911D01*
Y251020D01*
D02*
G37*
G36*
X286924Y261515D02*
Y259256D01*
X289219D01*
Y258053D01*
X286924D01*
Y253753D01*
X286887Y253243D01*
X286796Y252806D01*
X286687Y252442D01*
X286541Y252132D01*
X286395Y251895D01*
X286286Y251731D01*
X286195Y251640D01*
X286158Y251604D01*
X286013Y251476D01*
X285830Y251367D01*
X285466Y251203D01*
X285083Y251075D01*
X284719Y251002D01*
X284373Y250948D01*
X284227Y250929D01*
X284100D01*
X283990Y250911D01*
X283844D01*
X283462Y250929D01*
X283280D01*
X283134Y250948D01*
X282988D01*
X282897Y250966D01*
X282806D01*
X282423Y251020D01*
X282259Y251039D01*
X282095Y251075D01*
X281968Y251093D01*
X281877Y251112D01*
X281804Y251130D01*
X281786D01*
Y252369D01*
X282150Y252278D01*
X282314Y252241D01*
X282460Y252223D01*
X282587Y252186D01*
X282678D01*
X282751Y252168D01*
X282769D01*
X283097Y252132D01*
X283261D01*
X283389Y252114D01*
X283644D01*
X283972Y252132D01*
X284245Y252186D01*
X284482Y252259D01*
X284682Y252332D01*
X284828Y252405D01*
X284938Y252478D01*
X285011Y252533D01*
X285029Y252551D01*
X285193Y252733D01*
X285302Y252934D01*
X285393Y253152D01*
X285448Y253371D01*
X285484Y253571D01*
X285502Y253717D01*
Y253826D01*
Y253844D01*
Y253863D01*
Y258053D01*
X281786D01*
Y259256D01*
X285502D01*
Y261898D01*
X286924Y261515D01*
D02*
G37*
G36*
X201964Y259383D02*
X202292Y259365D01*
X202565Y259329D01*
X202802Y259292D01*
X203002Y259238D01*
X203130Y259201D01*
X203221Y259183D01*
X203257Y259165D01*
X203494Y259074D01*
X203695Y258964D01*
X203877Y258873D01*
X204023Y258782D01*
X204132Y258691D01*
X204223Y258618D01*
X204278Y258582D01*
X204296Y258563D01*
X204423Y258436D01*
X204551Y258290D01*
X204642Y258163D01*
X204715Y258053D01*
X204770Y257944D01*
X204806Y257871D01*
X204842Y257817D01*
Y257798D01*
X204934Y257507D01*
X204952Y257379D01*
X204970Y257270D01*
X204988Y257179D01*
Y257106D01*
Y257069D01*
Y257051D01*
Y256869D01*
X204952Y256687D01*
X204934Y256523D01*
X204897Y256395D01*
X204861Y256286D01*
X204842Y256213D01*
X204806Y256158D01*
Y256140D01*
X204642Y255867D01*
X204460Y255666D01*
X204387Y255575D01*
X204314Y255521D01*
X204278Y255484D01*
X204259Y255466D01*
X203986Y255266D01*
X203713Y255120D01*
X203604Y255065D01*
X203512Y255011D01*
X203458Y254992D01*
X203440Y254974D01*
X203075Y254828D01*
X202911Y254774D01*
X202747Y254719D01*
X202620Y254664D01*
X202510Y254646D01*
X202437Y254610D01*
X202419D01*
X202146Y254537D01*
X201927Y254464D01*
X201727Y254391D01*
X201563Y254337D01*
X201417Y254282D01*
X201326Y254245D01*
X201271Y254209D01*
X201253D01*
X201107Y254154D01*
X200962Y254081D01*
X200852Y254027D01*
X200761Y253990D01*
X200707Y253936D01*
X200652Y253917D01*
X200616Y253881D01*
X200470Y253753D01*
X200379Y253644D01*
X200342Y253571D01*
X200324Y253535D01*
X200269Y253407D01*
X200251Y253280D01*
X200233Y253189D01*
Y253170D01*
Y253152D01*
X200251Y252970D01*
X200306Y252806D01*
X200397Y252660D01*
X200488Y252551D01*
X200579Y252460D01*
X200670Y252405D01*
X200725Y252369D01*
X200743Y252350D01*
X200943Y252259D01*
X201180Y252186D01*
X201435Y252150D01*
X201691Y252114D01*
X201909Y252095D01*
X202091Y252077D01*
X202255D01*
X202784Y252095D01*
X203021Y252114D01*
X203239Y252132D01*
X203421D01*
X203549Y252150D01*
X203640Y252168D01*
X203676D01*
X204205Y252259D01*
X204442Y252314D01*
X204660Y252369D01*
X204842Y252423D01*
X204970Y252460D01*
X205061Y252496D01*
X205098D01*
Y251184D01*
X204606Y251075D01*
X204387Y251039D01*
X204168Y251002D01*
X204004Y250984D01*
X203859Y250966D01*
X203786Y250948D01*
X203749D01*
X203203Y250911D01*
X202948Y250893D01*
X202711D01*
X202510Y250875D01*
X202201D01*
X201909Y250893D01*
X201672Y250911D01*
X201563Y250929D01*
X201490D01*
X201435Y250948D01*
X201417D01*
X201126Y251002D01*
X200980Y251020D01*
X200871Y251057D01*
X200779Y251075D01*
X200688Y251093D01*
X200652Y251112D01*
X200634D01*
X200360Y251203D01*
X200142Y251294D01*
X200051Y251348D01*
X199978Y251367D01*
X199941Y251403D01*
X199923D01*
X199686Y251567D01*
X199486Y251713D01*
X199413Y251767D01*
X199358Y251822D01*
X199340Y251840D01*
X199322Y251859D01*
X199158Y252077D01*
X199030Y252278D01*
X198976Y252350D01*
X198939Y252423D01*
X198921Y252460D01*
Y252478D01*
X198830Y252751D01*
X198775Y253006D01*
X198757Y253098D01*
Y253189D01*
Y253243D01*
Y253261D01*
X198775Y253590D01*
X198793Y253717D01*
X198830Y253844D01*
X198848Y253936D01*
X198885Y254027D01*
X198903Y254063D01*
Y254081D01*
X198957Y254209D01*
X199030Y254337D01*
X199176Y254537D01*
X199249Y254610D01*
X199304Y254664D01*
X199340Y254701D01*
X199358Y254719D01*
X199613Y254920D01*
X199869Y255102D01*
X199996Y255156D01*
X200069Y255211D01*
X200142Y255229D01*
X200160Y255247D01*
X200360Y255339D01*
X200561Y255412D01*
X200761Y255503D01*
X200962Y255557D01*
X201144Y255630D01*
X201271Y255666D01*
X201362Y255685D01*
X201399Y255703D01*
X201636Y255776D01*
X201836Y255831D01*
X202018Y255885D01*
X202182Y255940D01*
X202310Y255995D01*
X202401Y256013D01*
X202456Y256049D01*
X202474D01*
X202620Y256122D01*
X202747Y256177D01*
X202856Y256231D01*
X202966Y256286D01*
X203039Y256341D01*
X203093Y256359D01*
X203112Y256395D01*
X203130D01*
X203276Y256523D01*
X203385Y256632D01*
X203440Y256705D01*
X203458Y256741D01*
X203494Y256887D01*
X203512Y257015D01*
X203531Y257106D01*
Y257124D01*
Y257142D01*
X203512Y257306D01*
X203476Y257434D01*
X203458Y257525D01*
X203440Y257561D01*
X203348Y257689D01*
X203257Y257798D01*
X203166Y257871D01*
X203130Y257889D01*
X202929Y257980D01*
X202747Y258072D01*
X202656Y258090D01*
X202583Y258108D01*
X202547Y258126D01*
X202529D01*
X202237Y258181D01*
X201945Y258199D01*
X201818Y258217D01*
X201636D01*
X201271Y258199D01*
X201107Y258181D01*
X200943D01*
X200798Y258163D01*
X200688Y258144D01*
X200597Y258126D01*
X200579D01*
X200124Y258053D01*
X199905Y258017D01*
X199723Y257980D01*
X199540Y257944D01*
X199413Y257926D01*
X199340Y257889D01*
X199304D01*
Y259165D01*
X199540Y259201D01*
X199777Y259256D01*
X199978Y259274D01*
X200160Y259311D01*
X200324Y259329D01*
X200433D01*
X200524Y259347D01*
X200543D01*
X200962Y259383D01*
X201144D01*
X201290Y259402D01*
X201618D01*
X201964Y259383D01*
D02*
G37*
G36*
X238896Y261880D02*
X239242Y261861D01*
X239552Y261825D01*
X239825Y261770D01*
X240044Y261716D01*
X240189Y261679D01*
X240299Y261661D01*
X240335Y261643D01*
X240608Y261533D01*
X240845Y261424D01*
X241064Y261315D01*
X241228Y261205D01*
X241374Y261114D01*
X241483Y261041D01*
X241556Y260987D01*
X241574Y260969D01*
X241738Y260805D01*
X241884Y260641D01*
X242011Y260477D01*
X242102Y260331D01*
X242175Y260203D01*
X242248Y260112D01*
X242266Y260039D01*
X242285Y260021D01*
X242357Y259821D01*
X242412Y259620D01*
X242449Y259438D01*
X242467Y259274D01*
X242485Y259128D01*
X242503Y259019D01*
Y258946D01*
Y258928D01*
X242485Y258709D01*
X242467Y258491D01*
X242430Y258308D01*
X242376Y258144D01*
X242339Y258017D01*
X242303Y257926D01*
X242285Y257853D01*
X242266Y257835D01*
X242066Y257525D01*
X241957Y257379D01*
X241865Y257270D01*
X241774Y257161D01*
X241702Y257088D01*
X241665Y257051D01*
X241647Y257033D01*
X241337Y256796D01*
X241173Y256705D01*
X241046Y256614D01*
X240918Y256541D01*
X240827Y256505D01*
X240754Y256468D01*
X240736Y256450D01*
X240353Y256268D01*
X240189Y256195D01*
X240025Y256122D01*
X239898Y256067D01*
X239807Y256013D01*
X239734Y255995D01*
X239716Y255976D01*
X239333Y255831D01*
X239151Y255758D01*
X239005Y255703D01*
X238859Y255648D01*
X238768Y255612D01*
X238695Y255594D01*
X238677Y255575D01*
X238313Y255412D01*
X238167Y255339D01*
X238039Y255266D01*
X237930Y255211D01*
X237857Y255156D01*
X237803Y255138D01*
X237784Y255120D01*
X237511Y254938D01*
X237402Y254847D01*
X237311Y254755D01*
X237238Y254683D01*
X237183Y254628D01*
X237165Y254592D01*
X237147Y254573D01*
X237055Y254446D01*
X237001Y254337D01*
X236928Y254100D01*
X236910Y253990D01*
X236892Y253917D01*
Y253863D01*
Y253844D01*
X236910Y253571D01*
X236928Y253444D01*
X236964Y253334D01*
X236983Y253243D01*
X237019Y253170D01*
X237037Y253134D01*
Y253116D01*
X237165Y252897D01*
X237329Y252733D01*
X237402Y252678D01*
X237456Y252624D01*
X237493Y252606D01*
X237511Y252587D01*
X237766Y252460D01*
X238021Y252350D01*
X238149Y252332D01*
X238222Y252296D01*
X238294Y252278D01*
X238313D01*
X238513Y252241D01*
X238714Y252223D01*
X238914Y252186D01*
X239096D01*
X239260Y252168D01*
X239880D01*
X240208Y252186D01*
X240499Y252205D01*
X240754Y252241D01*
X240973Y252259D01*
X241137Y252278D01*
X241228Y252296D01*
X241264D01*
X241538Y252350D01*
X241793Y252405D01*
X242030Y252460D01*
X242230Y252533D01*
X242394Y252587D01*
X242522Y252624D01*
X242594Y252642D01*
X242631Y252660D01*
Y251257D01*
X242412Y251203D01*
X242212Y251148D01*
X242139Y251130D01*
X242066Y251112D01*
X242030Y251093D01*
X242011D01*
X241756Y251057D01*
X241519Y251020D01*
X241428D01*
X241355Y251002D01*
X241283D01*
X240991Y250966D01*
X240736Y250929D01*
X240627D01*
X240554Y250911D01*
X240481D01*
X240153Y250893D01*
X240025D01*
X239880Y250875D01*
X239278D01*
X238950Y250911D01*
X238659Y250929D01*
X238404Y250966D01*
X238185Y251002D01*
X238021Y251020D01*
X237930Y251057D01*
X237894D01*
X237602Y251130D01*
X237347Y251221D01*
X237128Y251312D01*
X236928Y251403D01*
X236782Y251494D01*
X236655Y251567D01*
X236582Y251604D01*
X236563Y251622D01*
X236363Y251767D01*
X236181Y251931D01*
X236035Y252095D01*
X235908Y252241D01*
X235817Y252369D01*
X235744Y252478D01*
X235707Y252551D01*
X235689Y252569D01*
X235580Y252788D01*
X235507Y253025D01*
X235434Y253261D01*
X235397Y253462D01*
X235379Y253644D01*
X235361Y253790D01*
Y253881D01*
Y253917D01*
X235379Y254154D01*
X235397Y254355D01*
X235434Y254555D01*
X235489Y254719D01*
X235543Y254847D01*
X235580Y254938D01*
X235598Y255011D01*
X235616Y255029D01*
X235817Y255357D01*
X235926Y255503D01*
X236017Y255612D01*
X236108Y255721D01*
X236181Y255794D01*
X236236Y255831D01*
X236254Y255849D01*
X236545Y256086D01*
X236837Y256286D01*
X236964Y256359D01*
X237055Y256414D01*
X237128Y256432D01*
X237147Y256450D01*
X237529Y256632D01*
X237693Y256705D01*
X237857Y256778D01*
X237985Y256833D01*
X238094Y256869D01*
X238167Y256906D01*
X238185D01*
X238568Y257069D01*
X238732Y257142D01*
X238878Y257197D01*
X239023Y257252D01*
X239114Y257288D01*
X239187Y257325D01*
X239205D01*
X239570Y257470D01*
X239716Y257543D01*
X239843Y257616D01*
X239971Y257671D01*
X240044Y257725D01*
X240098Y257744D01*
X240116Y257762D01*
X240371Y257962D01*
X240572Y258144D01*
X240645Y258217D01*
X240700Y258272D01*
X240718Y258308D01*
X240736Y258327D01*
X240809Y258454D01*
X240863Y258582D01*
X240936Y258819D01*
X240955Y258928D01*
X240973Y259001D01*
Y259055D01*
Y259074D01*
X240955Y259329D01*
X240882Y259547D01*
X240791Y259748D01*
X240681Y259912D01*
X240572Y260039D01*
X240481Y260130D01*
X240408Y260185D01*
X240390Y260203D01*
X240135Y260349D01*
X239861Y260458D01*
X239552Y260531D01*
X239242Y260586D01*
X238969Y260622D01*
X238750Y260641D01*
X238549D01*
X238112Y260622D01*
X237894Y260604D01*
X237711Y260586D01*
X237547Y260568D01*
X237438Y260549D01*
X237347Y260531D01*
X237329D01*
X236855Y260458D01*
X236636Y260404D01*
X236454Y260367D01*
X236290Y260331D01*
X236163Y260313D01*
X236090Y260276D01*
X236053D01*
Y261588D01*
X236254Y261625D01*
X236454Y261661D01*
X236527Y261679D01*
X236600Y261697D01*
X236655D01*
X236892Y261734D01*
X237092Y261770D01*
X237165D01*
X237238Y261789D01*
X237292D01*
X237529Y261825D01*
X237730Y261843D01*
X237821Y261861D01*
X237930D01*
X238149Y261880D01*
X238331Y261898D01*
X238513D01*
X238896Y261880D01*
D02*
G37*
G36*
X229877Y262681D02*
X230023Y262663D01*
X230114Y262627D01*
X230132Y262608D01*
X230150D01*
X230296Y262536D01*
X230405Y262444D01*
X230478Y262390D01*
X230515Y262353D01*
X230606Y262244D01*
X230679Y262135D01*
X230733Y262043D01*
X230751Y262025D01*
Y262007D01*
X230788Y261861D01*
X230806Y261716D01*
X230824Y261606D01*
Y261588D01*
Y261570D01*
X230806Y261406D01*
X230788Y261260D01*
X230770Y261169D01*
X230751Y261151D01*
Y261133D01*
X230679Y260987D01*
X230606Y260877D01*
X230533Y260805D01*
X230515Y260768D01*
X230387Y260677D01*
X230278Y260604D01*
X230187Y260549D01*
X230150Y260531D01*
X230004Y260495D01*
X229859Y260477D01*
X229749Y260458D01*
X229713D01*
X229549Y260477D01*
X229403Y260495D01*
X229312Y260513D01*
X229275Y260531D01*
X229130Y260604D01*
X229020Y260677D01*
X228948Y260750D01*
X228929Y260768D01*
X228820Y260896D01*
X228747Y261005D01*
X228693Y261096D01*
X228674Y261133D01*
X228620Y261278D01*
X228601Y261424D01*
X228583Y261533D01*
Y261552D01*
Y261570D01*
X228601Y261734D01*
X228620Y261880D01*
X228656Y261971D01*
X228674Y262007D01*
X228747Y262153D01*
X228838Y262262D01*
X228893Y262335D01*
X228929Y262353D01*
X229039Y262463D01*
X229148Y262536D01*
X229239Y262590D01*
X229257Y262608D01*
X229275D01*
X229421Y262663D01*
X229567Y262681D01*
X229676Y262700D01*
X229713D01*
X229877Y262681D01*
D02*
G37*
G36*
X258428Y259383D02*
X258592Y259347D01*
X258719Y259311D01*
X258737Y259292D01*
X258755D01*
X258920Y259201D01*
X259065Y259110D01*
X259174Y259037D01*
X259193Y259019D01*
X259211Y259001D01*
X259375Y258837D01*
X259503Y258655D01*
X259557Y258582D01*
X259594Y258527D01*
X259612Y258491D01*
X259630Y258472D01*
X259776Y258217D01*
X259922Y257962D01*
X259976Y257853D01*
X260013Y257762D01*
X260031Y257707D01*
X260049Y257689D01*
X260122Y259256D01*
X261288D01*
Y251020D01*
X259867D01*
Y256304D01*
X259776Y256505D01*
X259685Y256705D01*
X259612Y256869D01*
X259557Y256997D01*
X259503Y257106D01*
X259466Y257179D01*
X259430Y257234D01*
Y257252D01*
X259302Y257488D01*
X259193Y257671D01*
X259120Y257780D01*
X259102Y257817D01*
X258992Y257962D01*
X258901Y258053D01*
X258847Y258108D01*
X258828Y258126D01*
X258737Y258181D01*
X258646Y258199D01*
X258573Y258217D01*
X258555D01*
X258464Y258199D01*
X258391Y258181D01*
X258355Y258163D01*
X258336Y258144D01*
X258282Y258090D01*
X258227Y258017D01*
X258209Y257944D01*
X258191Y257926D01*
X258136Y257798D01*
X258118Y257652D01*
X258100Y257543D01*
Y257507D01*
Y257488D01*
X258081Y257270D01*
X258063Y257033D01*
Y256924D01*
Y256851D01*
Y256796D01*
Y256778D01*
Y251020D01*
X256642D01*
Y256304D01*
X256551Y256486D01*
X256478Y256669D01*
X256405Y256814D01*
X256350Y256942D01*
X256296Y257051D01*
X256259Y257124D01*
X256223Y257179D01*
Y257197D01*
X256095Y257434D01*
X255986Y257634D01*
X255950Y257689D01*
X255913Y257744D01*
X255895Y257762D01*
Y257780D01*
X255786Y257926D01*
X255695Y258035D01*
X255640Y258090D01*
X255622Y258108D01*
X255512Y258181D01*
X255421Y258199D01*
X255348Y258217D01*
X255330D01*
X255239Y258199D01*
X255166Y258181D01*
X255130Y258163D01*
X255112Y258144D01*
X255057Y258090D01*
X255002Y258017D01*
X254984Y257962D01*
X254966Y257944D01*
X254911Y257817D01*
X254893Y257689D01*
X254875Y257580D01*
Y257561D01*
Y257543D01*
X254856Y257343D01*
X254838Y257142D01*
Y257051D01*
Y256997D01*
Y256942D01*
Y256924D01*
Y251020D01*
X253417D01*
Y257015D01*
X253435Y257434D01*
X253490Y257798D01*
X253563Y258126D01*
X253654Y258400D01*
X253781Y258618D01*
X253909Y258819D01*
X254055Y258983D01*
X254201Y259110D01*
X254346Y259201D01*
X254492Y259274D01*
X254620Y259329D01*
X254747Y259365D01*
X254838Y259383D01*
X254911Y259402D01*
X254984D01*
X255221Y259383D01*
X255421Y259347D01*
X255494Y259311D01*
X255549Y259292D01*
X255585Y259274D01*
X255603D01*
X255786Y259165D01*
X255931Y259055D01*
X256041Y258964D01*
X256059Y258946D01*
X256077Y258928D01*
X256223Y258746D01*
X256350Y258563D01*
X256405Y258491D01*
X256442Y258418D01*
X256478Y258381D01*
Y258363D01*
X256606Y258108D01*
X256733Y257871D01*
X256788Y257762D01*
X256824Y257689D01*
X256842Y257634D01*
X256861Y257616D01*
X256879Y257944D01*
X256915Y258217D01*
X256970Y258436D01*
X257025Y258636D01*
X257098Y258782D01*
X257152Y258892D01*
X257189Y258946D01*
X257207Y258964D01*
X257353Y259110D01*
X257517Y259219D01*
X257681Y259292D01*
X257844Y259347D01*
X257990Y259383D01*
X258118Y259402D01*
X258227D01*
X258428Y259383D01*
D02*
G37*
G36*
X294631D02*
X294940Y259347D01*
X295214Y259292D01*
X295469Y259238D01*
X295669Y259183D01*
X295815Y259128D01*
X295906Y259092D01*
X295942Y259074D01*
X296198Y258946D01*
X296434Y258800D01*
X296653Y258655D01*
X296835Y258509D01*
X296981Y258381D01*
X297090Y258272D01*
X297163Y258199D01*
X297182Y258181D01*
X297364Y257962D01*
X297509Y257725D01*
X297655Y257507D01*
X297764Y257288D01*
X297856Y257106D01*
X297910Y256942D01*
X297947Y256851D01*
X297965Y256833D01*
Y256814D01*
X298056Y256523D01*
X298111Y256213D01*
X298165Y255922D01*
X298184Y255648D01*
X298202Y255430D01*
X298220Y255247D01*
Y255175D01*
Y255120D01*
Y255102D01*
Y255083D01*
X298202Y254719D01*
X298184Y254373D01*
X298147Y254063D01*
X298093Y253790D01*
X298038Y253571D01*
X298001Y253407D01*
X297983Y253298D01*
X297965Y253280D01*
Y253261D01*
X297856Y252988D01*
X297746Y252733D01*
X297619Y252496D01*
X297509Y252314D01*
X297400Y252150D01*
X297309Y252041D01*
X297254Y251968D01*
X297236Y251950D01*
X297036Y251767D01*
X296835Y251604D01*
X296653Y251458D01*
X296453Y251348D01*
X296289Y251257D01*
X296161Y251203D01*
X296088Y251166D01*
X296052Y251148D01*
X295778Y251057D01*
X295505Y250984D01*
X295232Y250948D01*
X294977Y250911D01*
X294776Y250893D01*
X294594Y250875D01*
X294448D01*
X294102Y250893D01*
X293793Y250929D01*
X293519Y250966D01*
X293264Y251039D01*
X293064Y251093D01*
X292918Y251130D01*
X292827Y251166D01*
X292791Y251184D01*
X292535Y251312D01*
X292280Y251458D01*
X292080Y251604D01*
X291898Y251731D01*
X291752Y251859D01*
X291643Y251968D01*
X291570Y252041D01*
X291551Y252059D01*
X291369Y252278D01*
X291205Y252515D01*
X291078Y252751D01*
X290968Y252970D01*
X290877Y253152D01*
X290823Y253298D01*
X290786Y253389D01*
X290768Y253426D01*
X290677Y253735D01*
X290604Y254045D01*
X290568Y254337D01*
X290531Y254610D01*
X290513Y254847D01*
X290495Y255029D01*
Y255102D01*
Y255156D01*
Y255175D01*
Y255193D01*
X290513Y255557D01*
X290531Y255903D01*
X290586Y256213D01*
X290622Y256486D01*
X290677Y256687D01*
X290732Y256851D01*
X290750Y256960D01*
X290768Y256997D01*
X290877Y257270D01*
X290987Y257525D01*
X291114Y257762D01*
X291242Y257944D01*
X291351Y258108D01*
X291442Y258217D01*
X291497Y258290D01*
X291515Y258308D01*
X291697Y258491D01*
X291898Y258655D01*
X292098Y258800D01*
X292280Y258910D01*
X292444Y259001D01*
X292572Y259055D01*
X292663Y259092D01*
X292699Y259110D01*
X292973Y259201D01*
X293246Y259274D01*
X293501Y259329D01*
X293756Y259365D01*
X293956Y259383D01*
X294139Y259402D01*
X294285D01*
X294631Y259383D01*
D02*
G37*
G36*
X192253Y259347D02*
X192562Y259311D01*
X192854Y259274D01*
X193109Y259219D01*
X193309Y259147D01*
X193473Y259110D01*
X193564Y259074D01*
X193601Y259055D01*
X193874Y258928D01*
X194129Y258782D01*
X194348Y258636D01*
X194548Y258509D01*
X194694Y258381D01*
X194822Y258272D01*
X194894Y258199D01*
X194913Y258181D01*
X195113Y257962D01*
X195277Y257725D01*
X195423Y257507D01*
X195550Y257288D01*
X195641Y257106D01*
X195714Y256942D01*
X195751Y256851D01*
X195769Y256833D01*
Y256814D01*
X195860Y256523D01*
X195933Y256213D01*
X195988Y255903D01*
X196024Y255630D01*
X196042Y255393D01*
X196061Y255211D01*
Y255138D01*
Y255083D01*
Y255065D01*
Y255047D01*
X196042Y254683D01*
X196024Y254337D01*
X195969Y254009D01*
X195896Y253717D01*
X195824Y253444D01*
X195732Y253189D01*
X195641Y252952D01*
X195532Y252751D01*
X195441Y252569D01*
X195350Y252405D01*
X195259Y252278D01*
X195186Y252168D01*
X195113Y252077D01*
X195058Y252023D01*
X195040Y251986D01*
X195022Y251968D01*
X194822Y251786D01*
X194585Y251622D01*
X194348Y251476D01*
X194111Y251367D01*
X193856Y251257D01*
X193601Y251166D01*
X193127Y251039D01*
X192890Y251002D01*
X192690Y250966D01*
X192508Y250948D01*
X192344Y250929D01*
X192198Y250911D01*
X192016D01*
X191560Y250929D01*
X191341Y250948D01*
X191159Y250966D01*
X191014Y250984D01*
X190904Y251002D01*
X190813Y251020D01*
X190795D01*
X190376Y251112D01*
X190175Y251166D01*
X189993Y251203D01*
X189848Y251257D01*
X189738Y251294D01*
X189665Y251330D01*
X189647D01*
Y252660D01*
X190030Y252478D01*
X190212Y252405D01*
X190358Y252350D01*
X190503Y252314D01*
X190613Y252278D01*
X190686Y252259D01*
X190704D01*
X191105Y252186D01*
X191305Y252168D01*
X191469Y252150D01*
X191615Y252132D01*
X191833D01*
X192289Y252168D01*
X192690Y252241D01*
X193036Y252369D01*
X193327Y252496D01*
X193564Y252624D01*
X193728Y252751D01*
X193819Y252824D01*
X193856Y252861D01*
X194093Y253170D01*
X194275Y253517D01*
X194384Y253899D01*
X194475Y254245D01*
X194530Y254573D01*
X194548Y254719D01*
Y254847D01*
X194566Y254938D01*
Y255011D01*
Y255065D01*
Y255083D01*
X194548Y255357D01*
X194530Y255594D01*
X194494Y255812D01*
X194457Y256013D01*
X194421Y256158D01*
X194402Y256286D01*
X194366Y256359D01*
Y256377D01*
X194275Y256577D01*
X194184Y256760D01*
X194093Y256924D01*
X193983Y257069D01*
X193911Y257179D01*
X193838Y257252D01*
X193801Y257306D01*
X193783Y257325D01*
X193637Y257470D01*
X193491Y257580D01*
X193346Y257689D01*
X193218Y257780D01*
X193109Y257835D01*
X192999Y257889D01*
X192945Y257926D01*
X192927D01*
X192744Y257999D01*
X192562Y258053D01*
X192380Y258090D01*
X192216Y258126D01*
X192088D01*
X191979Y258144D01*
X191888D01*
X191451Y258126D01*
X191269Y258108D01*
X191086Y258090D01*
X190941Y258053D01*
X190831Y258035D01*
X190758Y258017D01*
X190740D01*
X190339Y257908D01*
X190157Y257835D01*
X189993Y257762D01*
X189848Y257707D01*
X189738Y257652D01*
X189665Y257634D01*
X189647Y257616D01*
Y258983D01*
X190030Y259110D01*
X190212Y259165D01*
X190376Y259201D01*
X190522Y259238D01*
X190631Y259256D01*
X190704Y259274D01*
X190722D01*
X191141Y259329D01*
X191341Y259347D01*
X191542D01*
X191688Y259365D01*
X191925D01*
X192253Y259347D01*
D02*
G37*
G36*
X266918Y259383D02*
X267228Y259347D01*
X267501Y259292D01*
X267756Y259238D01*
X267957Y259183D01*
X268102Y259128D01*
X268193Y259092D01*
X268230Y259074D01*
X268485Y258946D01*
X268722Y258800D01*
X268940Y258655D01*
X269123Y258509D01*
X269268Y258381D01*
X269378Y258272D01*
X269451Y258199D01*
X269469Y258181D01*
X269651Y257962D01*
X269797Y257725D01*
X269943Y257507D01*
X270052Y257288D01*
X270143Y257106D01*
X270198Y256942D01*
X270234Y256851D01*
X270252Y256833D01*
Y256814D01*
X270343Y256523D01*
X270398Y256213D01*
X270453Y255922D01*
X270471Y255648D01*
X270489Y255430D01*
X270507Y255247D01*
Y255175D01*
Y255120D01*
Y255102D01*
Y255083D01*
X270489Y254719D01*
X270471Y254373D01*
X270434Y254063D01*
X270380Y253790D01*
X270325Y253571D01*
X270289Y253407D01*
X270270Y253298D01*
X270252Y253280D01*
Y253261D01*
X270143Y252988D01*
X270034Y252733D01*
X269906Y252496D01*
X269797Y252314D01*
X269688Y252150D01*
X269596Y252041D01*
X269542Y251968D01*
X269524Y251950D01*
X269323Y251767D01*
X269123Y251604D01*
X268940Y251458D01*
X268740Y251348D01*
X268576Y251257D01*
X268448Y251203D01*
X268376Y251166D01*
X268339Y251148D01*
X268066Y251057D01*
X267793Y250984D01*
X267519Y250948D01*
X267264Y250911D01*
X267064Y250893D01*
X266882Y250875D01*
X266736D01*
X266390Y250893D01*
X266080Y250929D01*
X265807Y250966D01*
X265551Y251039D01*
X265351Y251093D01*
X265205Y251130D01*
X265114Y251166D01*
X265078Y251184D01*
X264823Y251312D01*
X264568Y251458D01*
X264367Y251604D01*
X264185Y251731D01*
X264039Y251859D01*
X263930Y251968D01*
X263857Y252041D01*
X263839Y252059D01*
X263657Y252278D01*
X263493Y252515D01*
X263365Y252751D01*
X263256Y252970D01*
X263165Y253152D01*
X263110Y253298D01*
X263074Y253389D01*
X263055Y253426D01*
X262964Y253735D01*
X262891Y254045D01*
X262855Y254337D01*
X262819Y254610D01*
X262800Y254847D01*
X262782Y255029D01*
Y255102D01*
Y255156D01*
Y255175D01*
Y255193D01*
X262800Y255557D01*
X262819Y255903D01*
X262873Y256213D01*
X262910Y256486D01*
X262964Y256687D01*
X263019Y256851D01*
X263037Y256960D01*
X263055Y256997D01*
X263165Y257270D01*
X263274Y257525D01*
X263402Y257762D01*
X263529Y257944D01*
X263638Y258108D01*
X263730Y258217D01*
X263784Y258290D01*
X263802Y258308D01*
X263985Y258491D01*
X264185Y258655D01*
X264386Y258800D01*
X264568Y258910D01*
X264732Y259001D01*
X264859Y259055D01*
X264950Y259092D01*
X264987Y259110D01*
X265260Y259201D01*
X265533Y259274D01*
X265788Y259329D01*
X266043Y259365D01*
X266244Y259383D01*
X266426Y259402D01*
X266572D01*
X266918Y259383D01*
D02*
G37*
G36*
X214335Y251020D02*
X212914D01*
Y255430D01*
X209069Y251020D01*
X207102D01*
X211183Y255448D01*
X207320Y259256D01*
X209215D01*
X212914Y255484D01*
Y262608D01*
X214335D01*
Y251020D01*
D02*
G37*
%LPC*%
G36*
X174415Y258254D02*
X174051D01*
X173869Y258217D01*
X173705Y258199D01*
X173577Y258163D01*
X173468Y258126D01*
X173377Y258090D01*
X173322Y258072D01*
X173304Y258053D01*
X173012Y257889D01*
X172903Y257817D01*
X172793Y257725D01*
X172721Y257652D01*
X172666Y257598D01*
X172629Y257561D01*
X172611Y257543D01*
X172429Y257288D01*
X172302Y257033D01*
X172265Y256924D01*
X172229Y256833D01*
X172211Y256778D01*
Y256760D01*
X172119Y256414D01*
X172101Y256250D01*
X172083Y256104D01*
Y255976D01*
Y255867D01*
Y255794D01*
Y255776D01*
X176419D01*
X176365Y256158D01*
X176346Y256341D01*
X176310Y256486D01*
X176274Y256614D01*
X176237Y256705D01*
X176219Y256760D01*
Y256778D01*
X176073Y257088D01*
X176000Y257234D01*
X175927Y257343D01*
X175855Y257434D01*
X175800Y257507D01*
X175782Y257543D01*
X175763Y257561D01*
X175545Y257780D01*
X175326Y257944D01*
X175235Y257999D01*
X175162Y258035D01*
X175126Y258072D01*
X175108D01*
X174798Y258181D01*
X174652Y258217D01*
X174524Y258236D01*
X174415Y258254D01*
D02*
G37*
G36*
X165178D02*
X164813D01*
X164631Y258217D01*
X164467Y258199D01*
X164339Y258163D01*
X164230Y258126D01*
X164139Y258090D01*
X164084Y258072D01*
X164066Y258053D01*
X163775Y257889D01*
X163665Y257817D01*
X163556Y257725D01*
X163483Y257652D01*
X163428Y257598D01*
X163392Y257561D01*
X163374Y257543D01*
X163192Y257288D01*
X163064Y257033D01*
X163028Y256924D01*
X162991Y256833D01*
X162973Y256778D01*
Y256760D01*
X162882Y256414D01*
X162864Y256250D01*
X162845Y256104D01*
Y255976D01*
Y255867D01*
Y255794D01*
Y255776D01*
X167182D01*
X167127Y256158D01*
X167109Y256341D01*
X167072Y256486D01*
X167036Y256614D01*
X167000Y256705D01*
X166981Y256760D01*
Y256778D01*
X166836Y257088D01*
X166763Y257234D01*
X166690Y257343D01*
X166617Y257434D01*
X166562Y257507D01*
X166544Y257543D01*
X166526Y257561D01*
X166307Y257780D01*
X166089Y257944D01*
X165998Y257999D01*
X165925Y258035D01*
X165888Y258072D01*
X165870D01*
X165560Y258181D01*
X165414Y258217D01*
X165287Y258236D01*
X165178Y258254D01*
D02*
G37*
G36*
X305453Y260495D02*
X303741D01*
X303540Y260477D01*
X303358Y260458D01*
X303212Y260440D01*
X303085Y260404D01*
X302994Y260385D01*
X302939Y260367D01*
X302921D01*
X302775Y260313D01*
X302647Y260258D01*
X302520Y260203D01*
X302429Y260149D01*
X302356Y260094D01*
X302301Y260058D01*
X302283Y260039D01*
X302265Y260021D01*
X302101Y259857D01*
X301992Y259693D01*
X301955Y259639D01*
X301937Y259584D01*
X301919Y259547D01*
Y259529D01*
X301846Y259311D01*
X301828Y259128D01*
X301809Y259037D01*
Y258983D01*
Y258946D01*
Y258928D01*
X301828Y258618D01*
X301864Y258472D01*
X301882Y258363D01*
X301919Y258254D01*
X301955Y258181D01*
X301973Y258144D01*
Y258126D01*
X302119Y257908D01*
X302265Y257725D01*
X302374Y257616D01*
X302411Y257598D01*
X302429Y257580D01*
X302666Y257434D01*
X302884Y257343D01*
X302975Y257306D01*
X303048Y257270D01*
X303103Y257252D01*
X303121D01*
X303431Y257197D01*
X303577Y257179D01*
X303722D01*
X303832Y257161D01*
X305453D01*
Y260495D01*
D02*
G37*
G36*
Y255940D02*
X303759D01*
X303558Y255922D01*
X303376Y255903D01*
X303212Y255885D01*
X303085Y255849D01*
X302994Y255831D01*
X302921Y255812D01*
X302903D01*
X302575Y255703D01*
X302447Y255648D01*
X302320Y255575D01*
X302228Y255539D01*
X302155Y255484D01*
X302119Y255466D01*
X302101Y255448D01*
X301882Y255266D01*
X301736Y255102D01*
X301682Y255011D01*
X301645Y254956D01*
X301609Y254920D01*
Y254901D01*
X301500Y254646D01*
X301445Y254409D01*
X301427Y254318D01*
Y254245D01*
Y254191D01*
Y254172D01*
X301445Y253826D01*
X301518Y253535D01*
X301627Y253280D01*
X301736Y253079D01*
X301846Y252915D01*
X301955Y252806D01*
X302028Y252733D01*
X302046Y252715D01*
X302301Y252569D01*
X302593Y252460D01*
X302903Y252369D01*
X303212Y252314D01*
X303486Y252278D01*
X303613D01*
X303722Y252259D01*
X305453D01*
Y255940D01*
D02*
G37*
G36*
X294467Y258181D02*
X294157D01*
X293975Y258144D01*
X293811Y258126D01*
X293665Y258090D01*
X293537Y258053D01*
X293446Y258017D01*
X293392Y257999D01*
X293373Y257980D01*
X293064Y257798D01*
X292936Y257707D01*
X292827Y257616D01*
X292736Y257525D01*
X292663Y257452D01*
X292627Y257416D01*
X292608Y257397D01*
X292499Y257252D01*
X292408Y257088D01*
X292262Y256796D01*
X292207Y256650D01*
X292171Y256541D01*
X292134Y256468D01*
Y256450D01*
X292080Y256231D01*
X292025Y256013D01*
X291989Y255776D01*
X291971Y255575D01*
X291952Y255393D01*
Y255247D01*
Y255156D01*
Y255120D01*
X291971Y254683D01*
X291989Y254482D01*
X292025Y254318D01*
X292043Y254172D01*
X292080Y254045D01*
X292098Y253972D01*
Y253954D01*
X292153Y253753D01*
X292226Y253571D01*
X292280Y253407D01*
X292353Y253261D01*
X292426Y253152D01*
X292462Y253061D01*
X292499Y253006D01*
X292517Y252988D01*
X292754Y252715D01*
X292882Y252587D01*
X292991Y252496D01*
X293100Y252423D01*
X293191Y252369D01*
X293246Y252332D01*
X293264Y252314D01*
X293446Y252241D01*
X293629Y252186D01*
X293811Y252132D01*
X293975Y252114D01*
X294139Y252095D01*
X294248Y252077D01*
X294558D01*
X294758Y252114D01*
X294922Y252132D01*
X295086Y252168D01*
X295196Y252205D01*
X295305Y252223D01*
X295359Y252259D01*
X295378D01*
X295669Y252442D01*
X295797Y252533D01*
X295906Y252624D01*
X295997Y252697D01*
X296070Y252770D01*
X296107Y252806D01*
X296125Y252824D01*
X296325Y253134D01*
X296471Y253444D01*
X296526Y253571D01*
X296562Y253681D01*
X296598Y253753D01*
Y253772D01*
X296690Y254227D01*
X296726Y254464D01*
X296744Y254664D01*
Y254847D01*
X296762Y254992D01*
Y255083D01*
Y255120D01*
X296744Y255557D01*
X296726Y255758D01*
X296690Y255940D01*
X296671Y256086D01*
X296653Y256195D01*
X296635Y256268D01*
Y256286D01*
X296580Y256486D01*
X296507Y256669D01*
X296453Y256833D01*
X296380Y256978D01*
X296307Y257088D01*
X296270Y257179D01*
X296234Y257234D01*
X296216Y257252D01*
X295979Y257543D01*
X295851Y257652D01*
X295724Y257744D01*
X295633Y257817D01*
X295542Y257871D01*
X295487Y257908D01*
X295469Y257926D01*
X295287Y258017D01*
X295104Y258072D01*
X294922Y258126D01*
X294740Y258144D01*
X294594Y258163D01*
X294467Y258181D01*
D02*
G37*
G36*
X266754D02*
X266444D01*
X266262Y258144D01*
X266098Y258126D01*
X265952Y258090D01*
X265825Y258053D01*
X265734Y258017D01*
X265679Y257999D01*
X265661Y257980D01*
X265351Y257798D01*
X265224Y257707D01*
X265114Y257616D01*
X265023Y257525D01*
X264950Y257452D01*
X264914Y257416D01*
X264896Y257397D01*
X264786Y257252D01*
X264695Y257088D01*
X264549Y256796D01*
X264495Y256650D01*
X264458Y256541D01*
X264422Y256468D01*
Y256450D01*
X264367Y256231D01*
X264313Y256013D01*
X264276Y255776D01*
X264258Y255575D01*
X264240Y255393D01*
Y255247D01*
Y255156D01*
Y255120D01*
X264258Y254683D01*
X264276Y254482D01*
X264313Y254318D01*
X264331Y254172D01*
X264367Y254045D01*
X264386Y253972D01*
Y253954D01*
X264440Y253753D01*
X264513Y253571D01*
X264568Y253407D01*
X264640Y253261D01*
X264713Y253152D01*
X264750Y253061D01*
X264786Y253006D01*
X264805Y252988D01*
X265041Y252715D01*
X265169Y252587D01*
X265278Y252496D01*
X265388Y252423D01*
X265479Y252369D01*
X265533Y252332D01*
X265551Y252314D01*
X265734Y252241D01*
X265916Y252186D01*
X266098Y252132D01*
X266262Y252114D01*
X266426Y252095D01*
X266535Y252077D01*
X266845D01*
X267046Y252114D01*
X267210Y252132D01*
X267373Y252168D01*
X267483Y252205D01*
X267592Y252223D01*
X267647Y252259D01*
X267665D01*
X267957Y252442D01*
X268084Y252533D01*
X268193Y252624D01*
X268285Y252697D01*
X268357Y252770D01*
X268394Y252806D01*
X268412Y252824D01*
X268613Y253134D01*
X268758Y253444D01*
X268813Y253571D01*
X268849Y253681D01*
X268886Y253753D01*
Y253772D01*
X268977Y254227D01*
X269013Y254464D01*
X269032Y254664D01*
Y254847D01*
X269050Y254992D01*
Y255083D01*
Y255120D01*
X269032Y255557D01*
X269013Y255758D01*
X268977Y255940D01*
X268959Y256086D01*
X268940Y256195D01*
X268922Y256268D01*
Y256286D01*
X268868Y256486D01*
X268795Y256669D01*
X268740Y256833D01*
X268667Y256978D01*
X268594Y257088D01*
X268558Y257179D01*
X268521Y257234D01*
X268503Y257252D01*
X268266Y257543D01*
X268139Y257652D01*
X268011Y257744D01*
X267920Y257817D01*
X267829Y257871D01*
X267774Y257908D01*
X267756Y257926D01*
X267574Y258017D01*
X267392Y258072D01*
X267210Y258126D01*
X267027Y258144D01*
X266882Y258163D01*
X266754Y258181D01*
D02*
G37*
%LPD*%
D10*
X-30731Y125984D02*
G03*
X-30731Y125984I-500J0D01*
G01*
X31565Y35433D02*
Y47244D01*
X68Y35433D02*
X31565D01*
X68Y47244D02*
Y49213D01*
X7942Y41339D02*
Y49213D01*
X-25522Y35433D02*
X68D01*
X-25522Y41339D02*
X7942D01*
X-25522Y47244D02*
X68D01*
X-25522Y78740D02*
X31565D01*
Y66929D02*
Y78740D01*
X-25522Y72835D02*
X7942D01*
Y64961D02*
Y72835D01*
X-25522Y66929D02*
X68D01*
Y64961D02*
Y66929D01*
X15816Y47244D02*
Y49213D01*
Y47244D02*
X47313D01*
Y49213D01*
X15816Y64961D02*
Y66929D01*
X47313D01*
Y64961D02*
Y66929D01*
X47244Y-25591D02*
Y-11811D01*
X31496Y-25591D02*
X47244D01*
X39370Y-19685D02*
Y-11811D01*
X7874Y-19685D02*
X39370D01*
X31496Y-13780D02*
Y-11811D01*
X0Y-13780D02*
X31496D01*
Y3937D02*
Y5906D01*
X0D02*
X31496D01*
X47244Y3937D02*
Y17717D01*
X31496D02*
X47244D01*
X39370Y3937D02*
Y11811D01*
X7874D02*
X39370D01*
X0Y-25591D02*
X31496D01*
X0Y-13780D02*
Y-11811D01*
X-25591Y-25591D02*
X0D01*
X-25591Y-19685D02*
X7874D01*
X-25591Y-13780D02*
X0D01*
X-25591Y17717D02*
X31496D01*
X-25591Y11811D02*
X7874D01*
X-25591Y5906D02*
X0D01*
Y3937D02*
Y5906D01*
X-56034Y147835D02*
Y152756D01*
X-28475Y147835D02*
Y152756D01*
X-56034D02*
X-28475D01*
X106608Y16831D02*
X104609Y14831D01*
Y12832D01*
X106608Y10832D01*
X113606Y11832D02*
X112606Y10832D01*
X110607D01*
X109607Y11832D01*
Y15831D01*
X110607Y16831D01*
X112606D01*
X113606Y15831D01*
X115605Y16831D02*
X117604Y14831D01*
Y12832D01*
X115605Y10832D01*
X130600Y16831D02*
X126602D01*
X130600Y12832D01*
Y11832D01*
X129601Y10832D01*
X127601D01*
X126602Y11832D01*
X132600D02*
X133599Y10832D01*
X135599D01*
X136598Y11832D01*
Y15831D01*
X135599Y16831D01*
X133599D01*
X132600Y15831D01*
Y11832D01*
X138598Y16831D02*
X140597D01*
X139597D01*
Y10832D01*
X138598Y11832D01*
X143596D02*
X144596Y10832D01*
X146595D01*
X147595Y11832D01*
Y12832D01*
X146595Y13832D01*
X147595Y14831D01*
Y15831D01*
X146595Y16831D01*
X144596D01*
X143596Y15831D01*
Y14831D01*
X144596Y13832D01*
X143596Y12832D01*
Y11832D01*
X144596Y13832D02*
X146595D01*
X93612Y26428D02*
Y20430D01*
X96611D01*
X97611Y21430D01*
Y23429D01*
X96611Y24429D01*
X93612D01*
X99610Y20430D02*
Y25429D01*
X100610Y26428D01*
X102609D01*
X103609Y25429D01*
Y20430D01*
X105608Y26428D02*
Y20430D01*
X107608Y22430D01*
X109607Y20430D01*
Y26428D01*
X111606D02*
Y20430D01*
X114605D01*
X115605Y21430D01*
Y23429D01*
X114605Y24429D01*
X111606D01*
X117604Y20430D02*
Y26428D01*
Y24429D01*
X121603Y20430D01*
X118604Y23429D01*
X121603Y26428D01*
X123602Y20430D02*
X125602D01*
X124602D01*
Y26428D01*
X123602D01*
X125602D01*
X128601D02*
Y20430D01*
X132600Y26428D01*
Y20430D01*
X135599Y27428D02*
X136598Y26428D01*
Y25429D01*
X135599D01*
Y26428D01*
X136598D01*
X135599Y27428D01*
X134599Y28428D01*
X146595Y20430D02*
X148594D01*
X147595D01*
Y26428D01*
X146595D01*
X148594D01*
X151593D02*
Y22430D01*
X154593D01*
X155592Y23429D01*
Y26428D01*
X161590Y22430D02*
X158591D01*
X157591Y23429D01*
Y25429D01*
X158591Y26428D01*
X161590D01*
X163590D02*
Y25429D01*
X164589D01*
Y26428D01*
X163590D01*
D25*
X-31428Y37400D02*
Y34776D01*
X-32739Y33465D01*
X-34051Y34776D01*
Y37400D01*
X-35363Y35432D02*
X-37987D01*
X-36675Y36744D02*
Y34121D01*
X-33395Y43306D02*
X-32084D01*
X-31428Y42650D01*
Y40026D01*
X-32084Y39370D01*
X-33395D01*
X-34051Y40026D01*
Y42650D01*
X-33395Y43306D01*
X-37987D02*
X-35363D01*
Y41338D01*
X-36675D01*
X-35363D01*
Y39370D01*
X-41923Y43306D02*
X-39299D01*
Y41338D01*
X-40611D01*
X-39299D01*
Y39370D01*
X-43235Y38714D02*
X-45859D01*
X-47171Y43306D02*
Y40682D01*
X-48482Y39370D01*
X-49794Y40682D01*
Y43306D01*
X-53730Y42650D02*
X-53074Y43306D01*
X-51762D01*
X-51106Y42650D01*
Y40026D01*
X-51762Y39370D01*
X-53074D01*
X-53730Y40026D01*
X-57666Y42650D02*
X-57010Y43306D01*
X-55698D01*
X-55042Y42650D01*
Y40026D01*
X-55698Y39370D01*
X-57010D01*
X-57666Y40026D01*
X-34051Y48555D02*
X-33395Y49211D01*
X-32084D01*
X-31428Y48555D01*
Y47899D01*
X-32084Y47243D01*
X-33395D01*
X-34051Y46587D01*
Y45932D01*
X-33395Y45276D01*
X-32084D01*
X-31428Y45932D01*
X-35363Y49211D02*
Y45276D01*
X-37331D01*
X-37987Y45932D01*
Y48555D01*
X-37331Y49211D01*
X-35363D01*
X-39299Y45276D02*
Y47899D01*
X-40611Y49211D01*
X-41923Y47899D01*
Y45276D01*
Y47243D01*
X-39299D01*
X-31428Y80707D02*
Y78083D01*
X-32739Y76772D01*
X-34051Y78083D01*
Y80707D01*
X-35363Y78740D02*
X-37987D01*
X-27491Y72834D02*
X-30114D01*
X-31426Y70866D02*
Y74802D01*
X-33394D01*
X-34050Y74146D01*
Y72834D01*
X-33394Y72178D01*
X-31426D01*
X-32738D02*
X-34050Y70866D01*
X-37986Y74802D02*
X-35362D01*
Y70866D01*
X-37986D01*
X-35362Y72834D02*
X-36674D01*
X-41922Y74146D02*
X-41266Y74802D01*
X-39954D01*
X-39298Y74146D01*
Y73490D01*
X-39954Y72834D01*
X-41266D01*
X-41922Y72178D01*
Y71522D01*
X-41266Y70866D01*
X-39954D01*
X-39298Y71522D01*
X-45857Y74802D02*
X-43234D01*
Y70866D01*
X-45857D01*
X-43234Y72834D02*
X-44546D01*
X-47169Y74802D02*
X-49793D01*
X-48481D01*
Y70866D01*
X-34051Y68240D02*
X-33395Y68896D01*
X-32084D01*
X-31428Y68240D01*
Y67584D01*
X-32084Y66928D01*
X-33395D01*
X-34051Y66272D01*
Y65617D01*
X-33395Y64961D01*
X-32084D01*
X-31428Y65617D01*
X-37987Y68240D02*
X-37331Y68896D01*
X-36019D01*
X-35363Y68240D01*
Y65617D01*
X-36019Y64961D01*
X-37331D01*
X-37987Y65617D01*
X-39299Y68896D02*
Y64961D01*
X-41923D01*
X-34120Y-24279D02*
X-33464Y-23623D01*
X-32152D01*
X-31496Y-24279D01*
Y-24935D01*
X-32152Y-25591D01*
X-33464D01*
X-34120Y-26247D01*
Y-26903D01*
X-33464Y-27559D01*
X-32152D01*
X-31496Y-26903D01*
X-38056Y-24279D02*
X-37400Y-23623D01*
X-36088D01*
X-35432Y-24279D01*
Y-26903D01*
X-36088Y-27559D01*
X-37400D01*
X-38056Y-26903D01*
X-39367Y-23623D02*
Y-27559D01*
X-41991D01*
X-27559Y-19686D02*
X-30183D01*
X-31495Y-21654D02*
Y-17718D01*
X-33463D01*
X-34119Y-18374D01*
Y-19686D01*
X-33463Y-20342D01*
X-31495D01*
X-32807D02*
X-34119Y-21654D01*
X-38054Y-17718D02*
X-35430D01*
Y-21654D01*
X-38054D01*
X-35430Y-19686D02*
X-36742D01*
X-41990Y-18374D02*
X-41334Y-17718D01*
X-40022D01*
X-39366Y-18374D01*
Y-19030D01*
X-40022Y-19686D01*
X-41334D01*
X-41990Y-20342D01*
Y-20998D01*
X-41334Y-21654D01*
X-40022D01*
X-39366Y-20998D01*
X-45926Y-17718D02*
X-43302D01*
Y-21654D01*
X-45926D01*
X-43302Y-19686D02*
X-44614D01*
X-47238Y-17718D02*
X-49862D01*
X-48550D01*
Y-21654D01*
X-31496Y-11812D02*
Y-14436D01*
X-32808Y-15748D01*
X-34120Y-14436D01*
Y-11812D01*
X-35432Y-13780D02*
X-38056D01*
X-34120Y19028D02*
X-33464Y19684D01*
X-32152D01*
X-31496Y19028D01*
Y18372D01*
X-32152Y17716D01*
X-33464D01*
X-34120Y17060D01*
Y16404D01*
X-33464Y15748D01*
X-32152D01*
X-31496Y16404D01*
X-35432Y19684D02*
Y15748D01*
X-37400D01*
X-38056Y16404D01*
Y19028D01*
X-37400Y19684D01*
X-35432D01*
X-39367Y15748D02*
Y18372D01*
X-40679Y19684D01*
X-41991Y18372D01*
Y15748D01*
Y17716D01*
X-39367D01*
X-33464Y13778D02*
X-32152D01*
X-31496Y13122D01*
Y10498D01*
X-32152Y9843D01*
X-33464D01*
X-34120Y10498D01*
Y13122D01*
X-33464Y13778D01*
X-38056D02*
X-35432D01*
Y11810D01*
X-36744D01*
X-35432D01*
Y9843D01*
X-41991Y13778D02*
X-39367D01*
Y11810D01*
X-40679D01*
X-39367D01*
Y9843D01*
X-43303Y9187D02*
X-45927D01*
X-47239Y13778D02*
Y11154D01*
X-48551Y9843D01*
X-49863Y11154D01*
Y13778D01*
X-53799Y13122D02*
X-53143Y13778D01*
X-51831D01*
X-51175Y13122D01*
Y10498D01*
X-51831Y9843D01*
X-53143D01*
X-53799Y10498D01*
X-57734Y13122D02*
X-57078Y13778D01*
X-55766D01*
X-55111Y13122D01*
Y10498D01*
X-55766Y9843D01*
X-57078D01*
X-57734Y10498D01*
X-31496Y7873D02*
Y5249D01*
X-32808Y3937D01*
X-34120Y5249D01*
Y7873D01*
X-35432Y5905D02*
X-38056D01*
X-36744Y7217D02*
Y4593D01*
X74735Y80885D02*
X73423D01*
X74079D01*
Y84165D01*
X73423Y84820D01*
X72767D01*
X72111Y84165D01*
X76047Y84820D02*
X77359D01*
X76703D01*
Y80885D01*
X76047Y81541D01*
X81950Y80885D02*
X80638Y81541D01*
X79326Y82853D01*
Y84165D01*
X79982Y84820D01*
X81294D01*
X81950Y84165D01*
Y83508D01*
X81294Y82853D01*
X79326D01*
X85230Y84820D02*
Y80885D01*
X83262Y82853D01*
X85886D01*
X83376Y-27564D02*
X84688D01*
X84032D01*
Y-30844D01*
X84688Y-31500D01*
X85344D01*
X86000Y-30844D01*
X82064Y-31500D02*
X80752D01*
X81408D01*
Y-27564D01*
X82064Y-28220D01*
X76161Y-27564D02*
X77473Y-28220D01*
X78785Y-29532D01*
Y-30844D01*
X78128Y-31500D01*
X76817D01*
X76161Y-30844D01*
Y-30188D01*
X76817Y-29532D01*
X78785D01*
X72225Y-27564D02*
X74849D01*
Y-29532D01*
X73537Y-28876D01*
X72881D01*
X72225Y-29532D01*
Y-30844D01*
X72881Y-31500D01*
X74193D01*
X74849Y-30844D01*
X-23883Y147639D02*
X-25194D01*
X-24539D01*
Y150919D01*
X-25194Y151575D01*
X-25850D01*
X-26506Y150919D01*
X-22571Y151575D02*
X-21259D01*
X-21915D01*
Y147639D01*
X-22571Y148295D01*
X-16667Y147639D02*
X-17979Y148295D01*
X-19291Y149607D01*
Y150919D01*
X-18635Y151575D01*
X-17323D01*
X-16667Y150919D01*
Y150263D01*
X-17323Y149607D01*
X-19291D01*
X-15355Y147639D02*
X-12731D01*
Y148295D01*
X-15355Y150919D01*
Y151575D01*
X-120601Y-21654D02*
Y-24277D01*
X-119945D01*
X-119289Y-23621D01*
Y-21654D01*
Y-23621D01*
X-118633Y-24277D01*
X-117977Y-23621D01*
Y-21654D01*
X-116009Y-24277D02*
X-114697D01*
X-114041Y-23621D01*
Y-21654D01*
X-116009D01*
X-116665Y-22309D01*
X-116009Y-22965D01*
X-114041D01*
X-110106Y-25589D02*
Y-21654D01*
X-112073D01*
X-112729Y-22309D01*
Y-23621D01*
X-112073Y-24277D01*
X-110106D01*
X-106826Y-21654D02*
X-108138D01*
X-108794Y-22309D01*
Y-23621D01*
X-108138Y-24277D01*
X-106826D01*
X-106170Y-23621D01*
Y-22965D01*
X-108794D01*
X-100922Y-21654D02*
X-99610D01*
X-100266D01*
Y-24277D01*
X-100922D01*
X-97642Y-21654D02*
Y-24277D01*
X-95675D01*
X-95019Y-23621D01*
Y-21654D01*
X-89771Y-25589D02*
Y-22309D01*
X-89115Y-21654D01*
X-87803D01*
X-87147Y-22309D01*
Y-25589D01*
X-85835Y-21654D02*
Y-22309D01*
X-85179D01*
Y-21654D01*
X-85835D01*
X-79932Y-24933D02*
X-80588Y-25589D01*
X-81899D01*
X-82555Y-24933D01*
Y-24277D01*
X-81899Y-23621D01*
X-80588D01*
X-79932Y-22965D01*
Y-22309D01*
X-80588Y-21654D01*
X-81899D01*
X-82555Y-22309D01*
X-78620Y-21654D02*
Y-22309D01*
X-77964D01*
Y-21654D01*
X-78620D01*
X-75340D02*
Y-24277D01*
X-74028Y-25589D01*
X-72716Y-24277D01*
Y-21654D01*
Y-23621D01*
X-75340D01*
X-71404Y-21654D02*
Y-22309D01*
X-70748D01*
Y-21654D01*
X-71404D01*
X-112465Y-32807D02*
X-113121Y-33463D01*
X-114433D01*
X-115089Y-32807D01*
Y-30184D01*
X-114433Y-29528D01*
X-113121D01*
X-112465Y-30184D01*
X-111153Y-29528D02*
Y-32151D01*
X-109841Y-33463D01*
X-108529Y-32151D01*
Y-29528D01*
Y-31495D01*
X-111153D01*
X-104594Y-32807D02*
X-105250Y-33463D01*
X-106562D01*
X-107218Y-32807D01*
Y-30184D01*
X-106562Y-29528D01*
X-105250D01*
X-104594Y-30184D01*
Y-31495D01*
X-105906D01*
X-100658Y-33463D02*
X-103282D01*
Y-29528D01*
X-100658D01*
X-103282Y-31495D02*
X-101970D01*
X-93442Y-29528D02*
Y-33463D01*
X-95410Y-31495D01*
X-92787D01*
X-91475Y-33463D02*
Y-29528D01*
X-88851D01*
X-84915Y-33463D02*
X-87539D01*
Y-29528D01*
X-84915D01*
X-87539Y-31495D02*
X-86227D01*
X-80979Y-33463D02*
X-82291D01*
X-81635D01*
Y-30184D01*
X-82291Y-29528D01*
X-82947D01*
X-83603Y-30184D01*
X-79667Y-32807D02*
X-79011Y-33463D01*
X-77700D01*
X-77044Y-32807D01*
Y-32151D01*
X-77700Y-31495D01*
X-77044Y-30839D01*
Y-30184D01*
X-77700Y-29528D01*
X-79011D01*
X-79667Y-30184D01*
Y-30839D01*
X-79011Y-31495D01*
X-79667Y-32151D01*
Y-32807D01*
X-79011Y-31495D02*
X-77700D01*
D35*
X-23588Y63349D02*
X-6991D01*
Y50050D02*
Y63349D01*
X-7695Y50050D02*
X-6991D01*
X-20391D02*
X-7695D01*
X-20391D02*
Y63349D01*
X54413Y50050D02*
Y63350D01*
X-23588Y85040D02*
X70900D01*
X-23588Y63349D02*
Y85040D01*
X66751Y63350D02*
X70900D01*
X55313D02*
X66751D01*
X70900D02*
Y85040D01*
X54413Y63350D02*
X55313D01*
X54413Y50050D02*
X67108D01*
X67813D01*
Y63350D01*
X54303Y-10200D02*
X70900D01*
X54303D02*
Y3100D01*
X55007D01*
X67703D01*
Y-10200D02*
Y3100D01*
X-7100Y-10200D02*
Y3100D01*
X-23588Y-31891D02*
X70900D01*
Y-10200D01*
X-23588Y-10200D02*
X-19438D01*
X-8000D01*
X-23588Y-31891D02*
Y-10200D01*
X-8000D02*
X-7100D01*
X-19796Y3100D02*
X-7100D01*
X-20500D02*
X-19796D01*
X-20500Y-10200D02*
Y3100D01*
D36*
X-113791Y11023D02*
X-112741Y9973D01*
X-111692D01*
X-110642Y11023D01*
X-113791Y14696D02*
Y12597D01*
X-111692Y14696D01*
X-111167D01*
X-110642Y14171D01*
Y13122D01*
X-111167Y12597D01*
X-113791Y15746D02*
X-112741Y16795D01*
X-111692D01*
X-110642Y15746D01*
Y21518D02*
Y22568D01*
Y22043D01*
X-113791D01*
Y21518D01*
Y22568D01*
X-111167Y24667D02*
X-111692D01*
Y24142D01*
Y25191D01*
Y24667D01*
X-113266D01*
X-113791Y25191D01*
Y29914D02*
X-111692D01*
Y30439D01*
X-112216Y30964D01*
X-113791D01*
X-112216D01*
X-111692Y31489D01*
X-112216Y32013D01*
X-113791D01*
X-111692Y33063D02*
X-113266D01*
X-113791Y33588D01*
Y35162D01*
X-111692D01*
X-113791Y36211D02*
Y37786D01*
X-113266Y38311D01*
X-112741Y37786D01*
Y36736D01*
X-112216Y36211D01*
X-111692Y36736D01*
Y38311D01*
X-111167Y39885D02*
X-111692D01*
Y39360D01*
Y40410D01*
Y39885D01*
X-113266D01*
X-113791Y40410D01*
X-111692Y45657D02*
Y46707D01*
X-112216Y47232D01*
X-113791D01*
Y45657D01*
X-113266Y45132D01*
X-112741Y45657D01*
Y47232D01*
X-111692Y50380D02*
Y48806D01*
X-112216Y48281D01*
X-113266D01*
X-113791Y48806D01*
Y50380D01*
X-111692Y53529D02*
Y51954D01*
X-112216Y51430D01*
X-113266D01*
X-113791Y51954D01*
Y53529D01*
Y56152D02*
Y55103D01*
X-113266Y54578D01*
X-112216D01*
X-111692Y55103D01*
Y56152D01*
X-112216Y56677D01*
X-112741D01*
Y54578D01*
X-114840Y57727D02*
X-111692D01*
Y59301D01*
X-112216Y59826D01*
X-113266D01*
X-113791Y59301D01*
Y57727D01*
X-111167Y61400D02*
X-111692D01*
Y60875D01*
Y61925D01*
Y61400D01*
X-113266D01*
X-113791Y61925D01*
X-111692Y67173D02*
Y68222D01*
X-112216Y68747D01*
X-113791D01*
Y67173D01*
X-113266Y66648D01*
X-112741Y67173D01*
Y68747D01*
X-113791Y69796D02*
X-111692D01*
Y71371D01*
X-112216Y71895D01*
X-113791D01*
X-111692Y72945D02*
X-113266D01*
X-113791Y73470D01*
Y75044D01*
X-114315D01*
X-114840Y74519D01*
Y73995D01*
X-113791Y75044D02*
X-111692D01*
X-113791Y79242D02*
Y80292D01*
Y79767D01*
X-111692D01*
Y79242D01*
X-113791Y81866D02*
X-111692D01*
Y83440D01*
X-112216Y83965D01*
X-113791D01*
X-111167Y85539D02*
X-111692D01*
Y85015D01*
Y86064D01*
Y85539D01*
X-113266D01*
X-113791Y86064D01*
Y89213D02*
Y88163D01*
X-113266Y87638D01*
X-112216D01*
X-111692Y88163D01*
Y89213D01*
X-112216Y89737D01*
X-112741D01*
Y87638D01*
X-111692Y90787D02*
X-113791D01*
X-112741D01*
X-112216Y91312D01*
X-111692Y91837D01*
Y92361D01*
X-113791Y94460D02*
X-111167D01*
X-112216D01*
Y93936D01*
Y94985D01*
Y94460D01*
X-111167D01*
X-110642Y94985D01*
X-113791Y98134D02*
Y97084D01*
X-113266Y96560D01*
X-112216D01*
X-111692Y97084D01*
Y98134D01*
X-112216Y98659D01*
X-112741D01*
Y96560D01*
X-111692Y99708D02*
X-113791D01*
X-112741D01*
X-112216Y100233D01*
X-111692Y100758D01*
Y101282D01*
Y103381D02*
Y104431D01*
X-112216Y104956D01*
X-113791D01*
Y103381D01*
X-113266Y102857D01*
X-112741Y103381D01*
Y104956D01*
X-113791Y106005D02*
X-111692D01*
Y107580D01*
X-112216Y108104D01*
X-113791D01*
X-111692Y111253D02*
Y109679D01*
X-112216Y109154D01*
X-113266D01*
X-113791Y109679D01*
Y111253D01*
Y113877D02*
Y112827D01*
X-113266Y112302D01*
X-112216D01*
X-111692Y112827D01*
Y113877D01*
X-112216Y114401D01*
X-112741D01*
Y112302D01*
X-118031Y22568D02*
X-120130D01*
X-119081D01*
X-118556Y23092D01*
X-118031Y23617D01*
Y24142D01*
X-120130Y27290D02*
Y26241D01*
X-119606Y25716D01*
X-118556D01*
X-118031Y26241D01*
Y27290D01*
X-118556Y27815D01*
X-119081D01*
Y25716D01*
X-118031Y30964D02*
Y29390D01*
X-118556Y28865D01*
X-119606D01*
X-120130Y29390D01*
Y30964D01*
Y32013D02*
Y33063D01*
Y32538D01*
X-118031D01*
Y32013D01*
X-120130Y36211D02*
Y35162D01*
X-119606Y34637D01*
X-118556D01*
X-118031Y35162D01*
Y36211D01*
X-118556Y36736D01*
X-119081D01*
Y34637D01*
X-118031Y37786D02*
X-120130Y38835D01*
X-118031Y39885D01*
X-120130Y42509D02*
Y41459D01*
X-119606Y40934D01*
X-118556D01*
X-118031Y41459D01*
Y42509D01*
X-118556Y43033D01*
X-119081D01*
Y40934D01*
X-116982Y46182D02*
X-120130D01*
Y44608D01*
X-119606Y44083D01*
X-118556D01*
X-118031Y44608D01*
Y46182D01*
X-120130Y50380D02*
Y51430D01*
Y50905D01*
X-118031D01*
Y50380D01*
X-120130Y53004D02*
X-118031D01*
Y54578D01*
X-118556Y55103D01*
X-120130D01*
X-118031Y58252D02*
Y56677D01*
X-118556Y56152D01*
X-119606D01*
X-120130Y56677D01*
Y58252D01*
Y59301D02*
Y60351D01*
Y59826D01*
X-116982D01*
Y59301D01*
X-118031Y61925D02*
X-119606D01*
X-120130Y62450D01*
Y64024D01*
X-118031D01*
X-116982Y67173D02*
X-120130D01*
Y65598D01*
X-119606Y65074D01*
X-118556D01*
X-118031Y65598D01*
Y67173D01*
X-120130Y68222D02*
Y69272D01*
Y68747D01*
X-118031D01*
Y68222D01*
X-120130Y70846D02*
X-118031D01*
Y72420D01*
X-118556Y72945D01*
X-120130D01*
X-121180Y75044D02*
Y75569D01*
X-120655Y76094D01*
X-118031D01*
Y74519D01*
X-118556Y73994D01*
X-119606D01*
X-120130Y74519D01*
Y76094D01*
Y80292D02*
Y81341D01*
Y80817D01*
X-118031D01*
Y80292D01*
X-120130Y82916D02*
X-118031D01*
Y84490D01*
X-118556Y85015D01*
X-120130D01*
X-117507Y86589D02*
X-118031D01*
Y86064D01*
Y87114D01*
Y86589D01*
X-119606D01*
X-120130Y87114D01*
Y90262D02*
Y89213D01*
X-119606Y88688D01*
X-118556D01*
X-118031Y89213D01*
Y90262D01*
X-118556Y90787D01*
X-119081D01*
Y88688D01*
X-118031Y91837D02*
X-120130D01*
X-119081D01*
X-118556Y92361D01*
X-118031Y92886D01*
Y93411D01*
X-120130Y95510D02*
X-117507D01*
X-118556D01*
Y94985D01*
Y96035D01*
Y95510D01*
X-117507D01*
X-116982Y96035D01*
X-120130Y99183D02*
Y98134D01*
X-119606Y97609D01*
X-118556D01*
X-118031Y98134D01*
Y99183D01*
X-118556Y99708D01*
X-119081D01*
Y97609D01*
X-118031Y100758D02*
X-120130D01*
X-119081D01*
X-118556Y101282D01*
X-118031Y101807D01*
Y102332D01*
Y104431D02*
Y105481D01*
X-118556Y106005D01*
X-120130D01*
Y104431D01*
X-119606Y103906D01*
X-119081Y104431D01*
Y106005D01*
X-120130Y107055D02*
X-118031D01*
Y108629D01*
X-118556Y109154D01*
X-120130D01*
X-118031Y112302D02*
Y110728D01*
X-118556Y110203D01*
X-119606D01*
X-120130Y110728D01*
Y112302D01*
Y114926D02*
Y113877D01*
X-119606Y113352D01*
X-118556D01*
X-118031Y113877D01*
Y114926D01*
X-118556Y115451D01*
X-119081D01*
Y113352D01*
X-123846Y23092D02*
X-124371D01*
Y22568D01*
Y23617D01*
Y23092D01*
X-125945D01*
X-126470Y23617D01*
X-123321Y25191D02*
X-126470D01*
X-124896D01*
X-124371Y25716D01*
Y26766D01*
X-124896Y27290D01*
X-126470D01*
X-124371Y28865D02*
Y29914D01*
X-124896Y30439D01*
X-126470D01*
Y28865D01*
X-125945Y28340D01*
X-125420Y28865D01*
Y30439D01*
X-123846Y32013D02*
X-124371D01*
Y31489D01*
Y32538D01*
Y32013D01*
X-125945D01*
X-126470Y32538D01*
Y37261D02*
X-124371D01*
Y37786D01*
X-124896Y38311D01*
X-126470D01*
X-124896D01*
X-124371Y38835D01*
X-124896Y39360D01*
X-126470D01*
X-124371Y40934D02*
Y41984D01*
X-124896Y42509D01*
X-126470D01*
Y40934D01*
X-125945Y40410D01*
X-125420Y40934D01*
Y42509D01*
X-124371Y43558D02*
X-125945D01*
X-126470Y44083D01*
Y45657D01*
X-126995D01*
X-127520Y45132D01*
Y44608D01*
X-126470Y45657D02*
X-124371D01*
Y51954D02*
Y50380D01*
X-124896Y49855D01*
X-125945D01*
X-126470Y50380D01*
Y51954D01*
X-124371Y53529D02*
Y54578D01*
X-124896Y55103D01*
X-126470D01*
Y53529D01*
X-125945Y53004D01*
X-125420Y53529D01*
Y55103D01*
X-124371Y56152D02*
X-125945D01*
X-126470Y56677D01*
Y58252D01*
X-124371D01*
X-126470Y59301D02*
Y60875D01*
X-125945Y61400D01*
X-125420Y60875D01*
Y59826D01*
X-124896Y59301D01*
X-124371Y59826D01*
Y61400D01*
X-126470Y64024D02*
Y62975D01*
X-125945Y62450D01*
X-124896D01*
X-124371Y62975D01*
Y64024D01*
X-124896Y64549D01*
X-125420D01*
Y62450D01*
X-124371Y68747D02*
X-125945D01*
X-126470Y69272D01*
Y70846D01*
X-124371D01*
X-126470Y71895D02*
X-124371D01*
Y73470D01*
X-124896Y73994D01*
X-126470D01*
X-123321Y77143D02*
X-126470D01*
Y75569D01*
X-125945Y75044D01*
X-124896D01*
X-124371Y75569D01*
Y77143D01*
X-126470Y79767D02*
Y78717D01*
X-125945Y78193D01*
X-124896D01*
X-124371Y78717D01*
Y79767D01*
X-124896Y80292D01*
X-125420D01*
Y78193D01*
X-126470Y81341D02*
Y82916D01*
X-125945Y83440D01*
X-125420Y82916D01*
Y81866D01*
X-124896Y81341D01*
X-124371Y81866D01*
Y83440D01*
X-126470Y84490D02*
Y85539D01*
Y85015D01*
X-124371D01*
Y84490D01*
Y87114D02*
X-126470D01*
X-125420D01*
X-124896Y87638D01*
X-124371Y88163D01*
Y88688D01*
X-126470Y91837D02*
Y90787D01*
X-125945Y90262D01*
X-124896D01*
X-124371Y90787D01*
Y91837D01*
X-124896Y92361D01*
X-125420D01*
Y90262D01*
X-123321Y95510D02*
X-126470D01*
Y93936D01*
X-125945Y93411D01*
X-124896D01*
X-124371Y93936D01*
Y95510D01*
X-132810Y23092D02*
Y24142D01*
X-132285Y24667D01*
X-131235D01*
X-130710Y24142D01*
Y23092D01*
X-131235Y22568D01*
X-132285D01*
X-132810Y23092D01*
X-133859Y25716D02*
X-130710D01*
Y27290D01*
X-131235Y27815D01*
X-132285D01*
X-132810Y27290D01*
Y25716D01*
Y30439D02*
Y29390D01*
X-132285Y28865D01*
X-131235D01*
X-130710Y29390D01*
Y30439D01*
X-131235Y30964D01*
X-131760D01*
Y28865D01*
X-130710Y32013D02*
X-132810D01*
X-131760D01*
X-131235Y32538D01*
X-130710Y33063D01*
Y33588D01*
Y35687D02*
Y36736D01*
X-131235Y37261D01*
X-132810D01*
Y35687D01*
X-132285Y35162D01*
X-131760Y35687D01*
Y37261D01*
X-130186Y38835D02*
X-130710D01*
Y38311D01*
Y39360D01*
Y38835D01*
X-132285D01*
X-132810Y39360D01*
Y40934D02*
Y41984D01*
Y41459D01*
X-130710D01*
Y40934D01*
X-132810Y44083D02*
Y45132D01*
X-132285Y45657D01*
X-131235D01*
X-130710Y45132D01*
Y44083D01*
X-131235Y43558D01*
X-132285D01*
X-132810Y44083D01*
Y46707D02*
X-130710D01*
Y48281D01*
X-131235Y48806D01*
X-132810D01*
Y49855D02*
Y51430D01*
X-132285Y51954D01*
X-131760Y51430D01*
Y50380D01*
X-131235Y49855D01*
X-130710Y50380D01*
Y51954D01*
X-132810Y53004D02*
X-132285D01*
Y53529D01*
X-132810D01*
Y53004D01*
X-100810Y11416D02*
X-99761Y10367D01*
X-98711D01*
X-97662Y11416D01*
X-100810Y12991D02*
Y14040D01*
Y13516D01*
X-97662D01*
X-98186Y12991D01*
X-100810Y15615D02*
X-99761Y16664D01*
X-98711D01*
X-97662Y15615D01*
Y21387D02*
Y23486D01*
Y22436D01*
X-100810D01*
X-97662Y24536D02*
X-100810D01*
X-99236D01*
X-98711Y25060D01*
Y26110D01*
X-99236Y26635D01*
X-100810D01*
Y27684D02*
Y28734D01*
Y28209D01*
X-98711D01*
Y27684D01*
X-100810Y30308D02*
Y31882D01*
X-100285Y32407D01*
X-99761Y31882D01*
Y30833D01*
X-99236Y30308D01*
X-98711Y30833D01*
Y32407D01*
X-97662Y38704D02*
X-100810D01*
Y37130D01*
X-100285Y36605D01*
X-99236D01*
X-98711Y37130D01*
Y38704D01*
X-100810Y41328D02*
Y40279D01*
X-100285Y39754D01*
X-99236D01*
X-98711Y40279D01*
Y41328D01*
X-99236Y41853D01*
X-99761D01*
Y39754D01*
X-98711Y42902D02*
X-100810Y43952D01*
X-98711Y45001D01*
X-100810Y46051D02*
Y47100D01*
Y46576D01*
X-98711D01*
Y46051D01*
Y50774D02*
Y49200D01*
X-99236Y48675D01*
X-100285D01*
X-100810Y49200D01*
Y50774D01*
Y53398D02*
Y52348D01*
X-100285Y51823D01*
X-99236D01*
X-98711Y52348D01*
Y53398D01*
X-99236Y53922D01*
X-99761D01*
Y51823D01*
X-100810Y58121D02*
X-98711D01*
Y58645D01*
X-99236Y59170D01*
X-100810D01*
X-99236D01*
X-98711Y59695D01*
X-99236Y60220D01*
X-100810D01*
X-98711Y61794D02*
Y62843D01*
X-99236Y63368D01*
X-100810D01*
Y61794D01*
X-100285Y61269D01*
X-99761Y61794D01*
Y63368D01*
X-98711Y64418D02*
X-100285D01*
X-100810Y64943D01*
Y66517D01*
X-101335D01*
X-101860Y65992D01*
Y65467D01*
X-100810Y66517D02*
X-98711D01*
X-100810Y70715D02*
X-98711D01*
Y72289D01*
X-99236Y72814D01*
X-100810D01*
Y74388D02*
Y75438D01*
X-100285Y75963D01*
X-99236D01*
X-98711Y75438D01*
Y74388D01*
X-99236Y73864D01*
X-100285D01*
X-100810Y74388D01*
X-98186Y77537D02*
X-98711D01*
Y77012D01*
Y78062D01*
Y77537D01*
X-100285D01*
X-100810Y78062D01*
X-98711Y84884D02*
Y83309D01*
X-99236Y82784D01*
X-100285D01*
X-100810Y83309D01*
Y84884D01*
X-98711Y86458D02*
Y87507D01*
X-99236Y88032D01*
X-100810D01*
Y86458D01*
X-100285Y85933D01*
X-99761Y86458D01*
Y88032D01*
X-98711Y89082D02*
X-100285D01*
X-100810Y89606D01*
Y91181D01*
X-98711D01*
X-100810Y92230D02*
Y93805D01*
X-100285Y94329D01*
X-99761Y93805D01*
Y92755D01*
X-99236Y92230D01*
X-98711Y92755D01*
Y94329D01*
X-100810Y96953D02*
Y95904D01*
X-100285Y95379D01*
X-99236D01*
X-98711Y95904D01*
Y96953D01*
X-99236Y97478D01*
X-99761D01*
Y95379D01*
X-104001Y22961D02*
X-107150D01*
X-105575D01*
X-105051Y23486D01*
Y24536D01*
X-105575Y25060D01*
X-107150D01*
X-105051Y26635D02*
Y27684D01*
X-105575Y28209D01*
X-107150D01*
Y26635D01*
X-106625Y26110D01*
X-106100Y26635D01*
Y28209D01*
X-105051Y29258D02*
X-107150D01*
X-106100D01*
X-105575Y29783D01*
X-105051Y30308D01*
Y30833D01*
X-107150Y32407D02*
X-105051D01*
Y32932D01*
X-105575Y33457D01*
X-107150D01*
X-105575D01*
X-105051Y33981D01*
X-105575Y34506D01*
X-107150D01*
Y36080D02*
X-104526D01*
X-105575D01*
Y35556D01*
Y36605D01*
Y36080D01*
X-104526D01*
X-104001Y36605D01*
X-105051Y38179D02*
X-106625D01*
X-107150Y38704D01*
Y40279D01*
X-105051D01*
X-107150Y41328D02*
Y42378D01*
Y41853D01*
X-104001D01*
Y41328D01*
X-107150Y47100D02*
Y48150D01*
Y47625D01*
X-105051D01*
Y47100D01*
X-107150Y49724D02*
X-105051D01*
Y51299D01*
X-105575Y51823D01*
X-107150D01*
X-104526Y53398D02*
X-105051D01*
Y52873D01*
Y53922D01*
Y53398D01*
X-106625D01*
X-107150Y53922D01*
Y57071D02*
Y56021D01*
X-106625Y55497D01*
X-105575D01*
X-105051Y56021D01*
Y57071D01*
X-105575Y57596D01*
X-106100D01*
Y55497D01*
X-105051Y58645D02*
X-107150D01*
X-106100D01*
X-105575Y59170D01*
X-105051Y59695D01*
Y60220D01*
X-107150Y62319D02*
X-104526D01*
X-105575D01*
Y61794D01*
Y62843D01*
Y62319D01*
X-104526D01*
X-104001Y62843D01*
X-107150Y65992D02*
Y64943D01*
X-106625Y64418D01*
X-105575D01*
X-105051Y64943D01*
Y65992D01*
X-105575Y66517D01*
X-106100D01*
Y64418D01*
X-105051Y67566D02*
X-107150D01*
X-106100D01*
X-105575Y68091D01*
X-105051Y68616D01*
Y69141D01*
Y71240D02*
Y72289D01*
X-105575Y72814D01*
X-107150D01*
Y71240D01*
X-106625Y70715D01*
X-106100Y71240D01*
Y72814D01*
X-107150Y73864D02*
X-105051D01*
Y75438D01*
X-105575Y75963D01*
X-107150D01*
X-105051Y79111D02*
Y77537D01*
X-105575Y77012D01*
X-106625D01*
X-107150Y77537D01*
Y79111D01*
Y81735D02*
Y80685D01*
X-106625Y80161D01*
X-105575D01*
X-105051Y80685D01*
Y81735D01*
X-105575Y82260D01*
X-106100D01*
Y80161D01*
X-107150Y83309D02*
X-106625D01*
Y83834D01*
X-107150D01*
Y83309D01*
X-76731Y10367D02*
Y12466D01*
Y11416D01*
X-79879D01*
X-76731Y13516D02*
X-79879D01*
X-78305D01*
X-77780Y14040D01*
Y15090D01*
X-78305Y15615D01*
X-79879D01*
Y16664D02*
Y17714D01*
Y17189D01*
X-77780D01*
Y16664D01*
X-79879Y19288D02*
Y20862D01*
X-79355Y21387D01*
X-78830Y20862D01*
Y19813D01*
X-78305Y19288D01*
X-77780Y19813D01*
Y21387D01*
X-76731Y27684D02*
X-79879D01*
Y26110D01*
X-79355Y25585D01*
X-78305D01*
X-77780Y26110D01*
Y27684D01*
X-79879Y30308D02*
Y29258D01*
X-79355Y28734D01*
X-78305D01*
X-77780Y29258D01*
Y30308D01*
X-78305Y30833D01*
X-78830D01*
Y28734D01*
X-77780Y31882D02*
X-79879Y32932D01*
X-77780Y33981D01*
X-79879Y35031D02*
Y36080D01*
Y35556D01*
X-77780D01*
Y35031D01*
Y39754D02*
Y38179D01*
X-78305Y37655D01*
X-79355D01*
X-79879Y38179D01*
Y39754D01*
Y42378D02*
Y41328D01*
X-79355Y40803D01*
X-78305D01*
X-77780Y41328D01*
Y42378D01*
X-78305Y42902D01*
X-78830D01*
Y40803D01*
X-77780Y49200D02*
Y47625D01*
X-78305Y47100D01*
X-79355D01*
X-79879Y47625D01*
Y49200D01*
Y50774D02*
Y51823D01*
X-79355Y52348D01*
X-78305D01*
X-77780Y51823D01*
Y50774D01*
X-78305Y50249D01*
X-79355D01*
X-79879Y50774D01*
Y53398D02*
X-77780D01*
Y53922D01*
X-78305Y54447D01*
X-79879D01*
X-78305D01*
X-77780Y54972D01*
X-78305Y55497D01*
X-79879D01*
X-80929Y56546D02*
X-77780D01*
Y58121D01*
X-78305Y58645D01*
X-79355D01*
X-79879Y58121D01*
Y56546D01*
Y59695D02*
Y60744D01*
Y60220D01*
X-76731D01*
Y59695D01*
X-79879Y62319D02*
Y63368D01*
Y62843D01*
X-77780D01*
Y62319D01*
X-79879Y66517D02*
Y65467D01*
X-79355Y64943D01*
X-78305D01*
X-77780Y65467D01*
Y66517D01*
X-78305Y67041D01*
X-78830D01*
Y64943D01*
X-79879Y68091D02*
Y69665D01*
X-79355Y70190D01*
X-78830Y69665D01*
Y68616D01*
X-78305Y68091D01*
X-77780Y68616D01*
Y70190D01*
Y74388D02*
X-79355D01*
X-79879Y74913D01*
X-79355Y75438D01*
X-79879Y75963D01*
X-79355Y76487D01*
X-77780D01*
X-79879Y77537D02*
Y78586D01*
Y78062D01*
X-77780D01*
Y77537D01*
X-77256Y80685D02*
X-77780D01*
Y80161D01*
Y81210D01*
Y80685D01*
X-79355D01*
X-79879Y81210D01*
X-76731Y82784D02*
X-79879D01*
X-78305D01*
X-77780Y83309D01*
Y84359D01*
X-78305Y84884D01*
X-79879D01*
X-80929Y89082D02*
X-77780D01*
Y90656D01*
X-78305Y91181D01*
X-79355D01*
X-79879Y90656D01*
Y89082D01*
X-77780Y92755D02*
Y93805D01*
X-78305Y94329D01*
X-79879D01*
Y92755D01*
X-79355Y92230D01*
X-78830Y92755D01*
Y94329D01*
X-77780Y95379D02*
X-79879D01*
X-78830D01*
X-78305Y95904D01*
X-77780Y96428D01*
Y96953D01*
X-77256Y99052D02*
X-77780D01*
Y98527D01*
Y99577D01*
Y99052D01*
X-79355D01*
X-79879Y99577D01*
Y104300D02*
Y105349D01*
Y104825D01*
X-76731D01*
X-77256Y104300D01*
X-76731Y109023D02*
Y106924D01*
X-78305D01*
X-77780Y107973D01*
Y108498D01*
X-78305Y109023D01*
X-79355D01*
X-79879Y108498D01*
Y107448D01*
X-79355Y106924D01*
X-79879Y113746D02*
Y114795D01*
X-79355Y115320D01*
X-78305D01*
X-77780Y114795D01*
Y113746D01*
X-78305Y113221D01*
X-79355D01*
X-79879Y113746D01*
Y116894D02*
X-77256D01*
X-78305D01*
Y116369D01*
Y117419D01*
Y116894D01*
X-77256D01*
X-76731Y117419D01*
X-83595Y10892D02*
X-84120D01*
Y10367D01*
Y11416D01*
Y10892D01*
X-85694D01*
X-86219Y11416D01*
X-83071Y12991D02*
X-86219D01*
X-84645D01*
X-84120Y13516D01*
Y14565D01*
X-84645Y15090D01*
X-86219D01*
Y17714D02*
Y16664D01*
X-85694Y16139D01*
X-84645D01*
X-84120Y16664D01*
Y17714D01*
X-84645Y18238D01*
X-85170D01*
Y16139D01*
X-83071Y24536D02*
Y22436D01*
X-84645D01*
Y23486D01*
Y22436D01*
X-86219D01*
X-83595Y27684D02*
X-83071Y27159D01*
Y26110D01*
X-83595Y25585D01*
X-85694D01*
X-86219Y26110D01*
Y27159D01*
X-85694Y27684D01*
X-83595Y30833D02*
X-83071Y30308D01*
Y29258D01*
X-83595Y28734D01*
X-85694D01*
X-86219Y29258D01*
Y30308D01*
X-85694Y30833D01*
X-84120Y35031D02*
X-86219D01*
X-85170D01*
X-84645Y35556D01*
X-84120Y36080D01*
Y36605D01*
Y38179D02*
X-85694D01*
X-86219Y38704D01*
Y40279D01*
X-84120D01*
X-86219Y41328D02*
Y42378D01*
Y41853D01*
X-83071D01*
Y41328D01*
X-86219Y45526D02*
Y44477D01*
X-85694Y43952D01*
X-84645D01*
X-84120Y44477D01*
Y45526D01*
X-84645Y46051D01*
X-85170D01*
Y43952D01*
X-86219Y47100D02*
Y48675D01*
X-85694Y49200D01*
X-85170Y48675D01*
Y47625D01*
X-84645Y47100D01*
X-84120Y47625D01*
Y49200D01*
X-86219Y50249D02*
X-85694D01*
Y50774D01*
X-86219D01*
Y50249D01*
X-83071Y57596D02*
Y56546D01*
X-83595Y56021D01*
X-85694D01*
X-86219Y56546D01*
Y57596D01*
X-85694Y58121D01*
X-83595D01*
X-83071Y57596D01*
X-87269Y59170D02*
X-84120D01*
Y60744D01*
X-84645Y61269D01*
X-85694D01*
X-86219Y60744D01*
Y59170D01*
Y63893D02*
Y62843D01*
X-85694Y62319D01*
X-84645D01*
X-84120Y62843D01*
Y63893D01*
X-84645Y64418D01*
X-85170D01*
Y62319D01*
X-84120Y65467D02*
X-86219D01*
X-85170D01*
X-84645Y65992D01*
X-84120Y66517D01*
Y67041D01*
Y69141D02*
Y70190D01*
X-84645Y70715D01*
X-86219D01*
Y69141D01*
X-85694Y68616D01*
X-85170Y69141D01*
Y70715D01*
X-83595Y72289D02*
X-84120D01*
Y71764D01*
Y72814D01*
Y72289D01*
X-85694D01*
X-86219Y72814D01*
Y74388D02*
Y75438D01*
Y74913D01*
X-84120D01*
Y74388D01*
X-86219Y77537D02*
Y78586D01*
X-85694Y79111D01*
X-84645D01*
X-84120Y78586D01*
Y77537D01*
X-84645Y77012D01*
X-85694D01*
X-86219Y77537D01*
Y80161D02*
X-84120D01*
Y81735D01*
X-84645Y82260D01*
X-86219D01*
Y86458D02*
Y87507D01*
Y86983D01*
X-84120D01*
Y86458D01*
X-86219Y89082D02*
Y90656D01*
X-85694Y91181D01*
X-85170Y90656D01*
Y89606D01*
X-84645Y89082D01*
X-84120Y89606D01*
Y91181D01*
X-86219Y95379D02*
Y96953D01*
X-85694Y97478D01*
X-85170Y96953D01*
Y95904D01*
X-84645Y95379D01*
X-84120Y95904D01*
Y97478D01*
Y98527D02*
X-85694D01*
X-86219Y99052D01*
Y100627D01*
X-84120D01*
X-83071Y101676D02*
X-86219D01*
Y103250D01*
X-85694Y103775D01*
X-85170D01*
X-84645D01*
X-84120Y103250D01*
Y101676D01*
X-87269Y104825D02*
Y105349D01*
X-86744Y105874D01*
X-84120D01*
X-86219Y109547D02*
Y108498D01*
X-85694Y107973D01*
X-84645D01*
X-84120Y108498D01*
Y109547D01*
X-84645Y110072D01*
X-85170D01*
Y107973D01*
X-84120Y113221D02*
Y111647D01*
X-84645Y111122D01*
X-85694D01*
X-86219Y111647D01*
Y113221D01*
X-83595Y114795D02*
X-84120D01*
Y114270D01*
Y115320D01*
Y114795D01*
X-85694D01*
X-86219Y115320D01*
X-89935Y10892D02*
X-90460D01*
Y10367D01*
Y11416D01*
Y10892D01*
X-92034D01*
X-92559Y11416D01*
Y13516D02*
Y14565D01*
X-92034Y15090D01*
X-90984D01*
X-90460Y14565D01*
Y13516D01*
X-90984Y12991D01*
X-92034D01*
X-92559Y13516D01*
X-89935Y19813D02*
X-90460D01*
Y19288D01*
Y20337D01*
Y19813D01*
X-92034D01*
X-92559Y20337D01*
X-89410Y21912D02*
X-92559D01*
X-90984D01*
X-90460Y22436D01*
Y23486D01*
X-90984Y24011D01*
X-92559D01*
Y26635D02*
Y25585D01*
X-92034Y25060D01*
X-90984D01*
X-90460Y25585D01*
Y26635D01*
X-90984Y27159D01*
X-91509D01*
Y25060D01*
X-92559Y31882D02*
X-89935D01*
X-90984D01*
Y31357D01*
Y32407D01*
Y31882D01*
X-89935D01*
X-89410Y32407D01*
X-92559Y34506D02*
Y35556D01*
X-92034Y36080D01*
X-90984D01*
X-90460Y35556D01*
Y34506D01*
X-90984Y33981D01*
X-92034D01*
X-92559Y34506D01*
Y37130D02*
Y38179D01*
Y37655D01*
X-89410D01*
Y37130D01*
X-92559Y39754D02*
Y40803D01*
Y40279D01*
X-89410D01*
Y39754D01*
X-92559Y42902D02*
Y43952D01*
X-92034Y44477D01*
X-90984D01*
X-90460Y43952D01*
Y42902D01*
X-90984Y42378D01*
X-92034D01*
X-92559Y42902D01*
X-90460Y45526D02*
X-92034D01*
X-92559Y46051D01*
X-92034Y46576D01*
X-92559Y47100D01*
X-92034Y47625D01*
X-90460D01*
X-92559Y48675D02*
Y49724D01*
Y49200D01*
X-90460D01*
Y48675D01*
X-92559Y51299D02*
X-90460D01*
Y52873D01*
X-90984Y53398D01*
X-92559D01*
X-93608Y55497D02*
Y56021D01*
X-93084Y56546D01*
X-90460D01*
Y54972D01*
X-90984Y54447D01*
X-92034D01*
X-92559Y54972D01*
Y56546D01*
X-90460Y62843D02*
Y61269D01*
X-90984Y60744D01*
X-92034D01*
X-92559Y61269D01*
Y62843D01*
Y64418D02*
Y65467D01*
X-92034Y65992D01*
X-90984D01*
X-90460Y65467D01*
Y64418D01*
X-90984Y63893D01*
X-92034D01*
X-92559Y64418D01*
Y67041D02*
X-90460D01*
Y68616D01*
X-90984Y69141D01*
X-92559D01*
X-89410Y72289D02*
X-92559D01*
Y70715D01*
X-92034Y70190D01*
X-90984D01*
X-90460Y70715D01*
Y72289D01*
X-92559Y73339D02*
Y74388D01*
Y73864D01*
X-90460D01*
Y73339D01*
X-89935Y76487D02*
X-90460D01*
Y75963D01*
Y77012D01*
Y76487D01*
X-92034D01*
X-92559Y77012D01*
Y78586D02*
Y79636D01*
Y79111D01*
X-90460D01*
Y78586D01*
X-92559Y81735D02*
Y82784D01*
X-92034Y83309D01*
X-90984D01*
X-90460Y82784D01*
Y81735D01*
X-90984Y81210D01*
X-92034D01*
X-92559Y81735D01*
Y84359D02*
X-90460D01*
Y85933D01*
X-90984Y86458D01*
X-92559D01*
Y87507D02*
Y89082D01*
X-92034Y89606D01*
X-91509Y89082D01*
Y88032D01*
X-90984Y87507D01*
X-90460Y88032D01*
Y89606D01*
X-92559Y90656D02*
X-92034D01*
Y91181D01*
X-92559D01*
Y90656D01*
M02*
