G04 Layer_Color=8421504*
%FSLAX25Y25*%
%MOIN*%
G70*
G01*
G75*
G36*
X103924Y258002D02*
X107641D01*
Y256799D01*
X103924D01*
Y252608D01*
Y252590D01*
Y252572D01*
Y252463D01*
X103942Y252317D01*
X103979Y252116D01*
X104033Y251898D01*
X104124Y251679D01*
X104234Y251479D01*
X104398Y251297D01*
X104416Y251278D01*
X104489Y251224D01*
X104598Y251151D01*
X104744Y251078D01*
X104944Y251005D01*
X105181Y250932D01*
X105454Y250877D01*
X105782Y250859D01*
X106037D01*
X106165Y250877D01*
X106329D01*
X106657Y250914D01*
X106675D01*
X106748Y250932D01*
X106839D01*
X106967Y250969D01*
X107112Y250987D01*
X107276Y251023D01*
X107641Y251114D01*
Y249875D01*
X107623D01*
X107550Y249857D01*
X107458Y249839D01*
X107331Y249821D01*
X107167Y249784D01*
X107003Y249766D01*
X106620Y249711D01*
X106529D01*
X106438Y249693D01*
X106292D01*
X106147Y249675D01*
X105965D01*
X105582Y249657D01*
X105436D01*
X105327Y249675D01*
X105199D01*
X105053Y249693D01*
X104707Y249748D01*
X104343Y249821D01*
X103960Y249948D01*
X103596Y250112D01*
X103414Y250222D01*
X103268Y250349D01*
X103232Y250386D01*
X103140Y250477D01*
X103031Y250641D01*
X102885Y250877D01*
X102740Y251187D01*
X102630Y251552D01*
X102539Y251989D01*
X102503Y252499D01*
Y256799D01*
X100207D01*
Y258002D01*
X102503D01*
Y260261D01*
X103924Y260644D01*
Y258002D01*
D02*
G37*
G36*
X113945Y258129D02*
X114145Y258111D01*
X114382Y258074D01*
X114637Y258038D01*
X114892Y257965D01*
X115147Y257874D01*
X115184Y257856D01*
X115257Y257819D01*
X115384Y257765D01*
X115548Y257674D01*
X115712Y257564D01*
X115913Y257437D01*
X116095Y257273D01*
X116277Y257091D01*
X116295Y257072D01*
X116350Y256999D01*
X116441Y256890D01*
X116532Y256763D01*
X116641Y256580D01*
X116769Y256380D01*
X116878Y256143D01*
X116969Y255888D01*
X116988Y255852D01*
X117006Y255761D01*
X117042Y255615D01*
X117097Y255433D01*
X117133Y255196D01*
X117170Y254941D01*
X117188Y254649D01*
X117206Y254321D01*
Y254303D01*
Y254267D01*
Y254212D01*
Y254139D01*
Y253975D01*
X117188Y253793D01*
Y253756D01*
Y253665D01*
Y253556D01*
X117170Y253428D01*
X111394D01*
Y253410D01*
Y253374D01*
Y253301D01*
X111412Y253228D01*
Y253119D01*
X111431Y252991D01*
X111485Y252699D01*
X111558Y252390D01*
X111686Y252062D01*
X111849Y251752D01*
X112086Y251479D01*
X112123Y251442D01*
X112214Y251370D01*
X112378Y251260D01*
X112615Y251151D01*
X112906Y251023D01*
X113252Y250914D01*
X113653Y250841D01*
X114127Y250805D01*
X114583D01*
X114838Y250823D01*
X114892D01*
X114965Y250841D01*
X115056D01*
X115293Y250877D01*
X115530Y250896D01*
X115548D01*
X115585Y250914D01*
X115657D01*
X115749Y250932D01*
X115949Y250969D01*
X116186Y251005D01*
X116204D01*
X116241Y251023D01*
X116295Y251042D01*
X116368Y251060D01*
X116569Y251096D01*
X116769Y251151D01*
Y249985D01*
X116751D01*
X116660Y249967D01*
X116550Y249930D01*
X116386Y249894D01*
X116186Y249857D01*
X115967Y249803D01*
X115712Y249766D01*
X115439Y249730D01*
X115402D01*
X115311Y249711D01*
X115166Y249693D01*
X114983Y249675D01*
X114746Y249657D01*
X114491Y249639D01*
X114218Y249620D01*
X113744D01*
X113544Y249639D01*
X113307Y249657D01*
X113016Y249693D01*
X112706Y249730D01*
X112396Y249803D01*
X112105Y249894D01*
X112068Y249912D01*
X111977Y249948D01*
X111831Y250021D01*
X111667Y250112D01*
X111467Y250222D01*
X111248Y250367D01*
X111048Y250531D01*
X110847Y250732D01*
X110829Y250750D01*
X110775Y250823D01*
X110683Y250950D01*
X110574Y251096D01*
X110447Y251297D01*
X110337Y251515D01*
X110210Y251788D01*
X110119Y252062D01*
Y252080D01*
Y252098D01*
X110082Y252208D01*
X110046Y252372D01*
X110009Y252590D01*
X109973Y252864D01*
X109936Y253155D01*
X109918Y253501D01*
X109900Y253866D01*
Y253884D01*
Y253902D01*
Y254011D01*
X109918Y254175D01*
X109936Y254394D01*
X109955Y254631D01*
X110009Y254904D01*
X110064Y255196D01*
X110137Y255487D01*
Y255505D01*
X110155Y255524D01*
X110192Y255615D01*
X110246Y255761D01*
X110319Y255961D01*
X110428Y256161D01*
X110556Y256398D01*
X110702Y256635D01*
X110866Y256854D01*
X110884Y256872D01*
X110957Y256945D01*
X111066Y257054D01*
X111194Y257200D01*
X111376Y257346D01*
X111576Y257510D01*
X111795Y257655D01*
X112050Y257801D01*
X112086Y257819D01*
X112178Y257856D01*
X112323Y257910D01*
X112505Y257983D01*
X112742Y258038D01*
X113016Y258093D01*
X113307Y258129D01*
X113635Y258147D01*
X113781D01*
X113945Y258129D01*
D02*
G37*
G36*
X49282D02*
X49483Y258111D01*
X49719Y258074D01*
X49974Y258038D01*
X50230Y257965D01*
X50485Y257874D01*
X50521Y257856D01*
X50594Y257819D01*
X50721Y257765D01*
X50885Y257674D01*
X51049Y257564D01*
X51250Y257437D01*
X51432Y257273D01*
X51614Y257091D01*
X51632Y257072D01*
X51687Y256999D01*
X51778Y256890D01*
X51869Y256763D01*
X51979Y256580D01*
X52106Y256380D01*
X52215Y256143D01*
X52307Y255888D01*
X52325Y255852D01*
X52343Y255761D01*
X52379Y255615D01*
X52434Y255433D01*
X52471Y255196D01*
X52507Y254941D01*
X52525Y254649D01*
X52543Y254321D01*
Y254303D01*
Y254267D01*
Y254212D01*
Y254139D01*
Y253975D01*
X52525Y253793D01*
Y253756D01*
Y253665D01*
Y253556D01*
X52507Y253428D01*
X46731D01*
Y253410D01*
Y253374D01*
Y253301D01*
X46749Y253228D01*
Y253119D01*
X46768Y252991D01*
X46822Y252699D01*
X46895Y252390D01*
X47023Y252062D01*
X47187Y251752D01*
X47424Y251479D01*
X47460Y251442D01*
X47551Y251370D01*
X47715Y251260D01*
X47952Y251151D01*
X48243Y251023D01*
X48590Y250914D01*
X48990Y250841D01*
X49464Y250805D01*
X49920D01*
X50175Y250823D01*
X50230D01*
X50302Y250841D01*
X50393D01*
X50630Y250877D01*
X50867Y250896D01*
X50885D01*
X50922Y250914D01*
X50995D01*
X51086Y250932D01*
X51286Y250969D01*
X51523Y251005D01*
X51541D01*
X51578Y251023D01*
X51632Y251042D01*
X51705Y251060D01*
X51906Y251096D01*
X52106Y251151D01*
Y249985D01*
X52088D01*
X51997Y249967D01*
X51888Y249930D01*
X51723Y249894D01*
X51523Y249857D01*
X51305Y249803D01*
X51049Y249766D01*
X50776Y249730D01*
X50740D01*
X50649Y249711D01*
X50503Y249693D01*
X50321Y249675D01*
X50084Y249657D01*
X49829Y249639D01*
X49555Y249620D01*
X49082D01*
X48881Y249639D01*
X48644Y249657D01*
X48353Y249693D01*
X48043Y249730D01*
X47733Y249803D01*
X47442Y249894D01*
X47405Y249912D01*
X47314Y249948D01*
X47168Y250021D01*
X47005Y250112D01*
X46804Y250222D01*
X46586Y250367D01*
X46385Y250531D01*
X46185Y250732D01*
X46166Y250750D01*
X46112Y250823D01*
X46021Y250950D01*
X45911Y251096D01*
X45784Y251297D01*
X45674Y251515D01*
X45547Y251788D01*
X45456Y252062D01*
Y252080D01*
Y252098D01*
X45419Y252208D01*
X45383Y252372D01*
X45347Y252590D01*
X45310Y252864D01*
X45274Y253155D01*
X45255Y253501D01*
X45237Y253866D01*
Y253884D01*
Y253902D01*
Y254011D01*
X45255Y254175D01*
X45274Y254394D01*
X45292Y254631D01*
X45347Y254904D01*
X45401Y255196D01*
X45474Y255487D01*
Y255505D01*
X45492Y255524D01*
X45529Y255615D01*
X45583Y255761D01*
X45656Y255961D01*
X45766Y256161D01*
X45893Y256398D01*
X46039Y256635D01*
X46203Y256854D01*
X46221Y256872D01*
X46294Y256945D01*
X46403Y257054D01*
X46531Y257200D01*
X46713Y257346D01*
X46913Y257510D01*
X47132Y257655D01*
X47387Y257801D01*
X47424Y257819D01*
X47515Y257856D01*
X47660Y257910D01*
X47843Y257983D01*
X48079Y258038D01*
X48353Y258093D01*
X48644Y258129D01*
X48972Y258147D01*
X49118D01*
X49282Y258129D01*
D02*
G37*
G36*
X-21102Y259241D02*
X-24272D01*
Y249766D01*
X-25748D01*
Y259241D01*
X-28918D01*
Y260479D01*
X-21102D01*
Y259241D01*
D02*
G37*
G36*
X86342Y258129D02*
X86542Y258111D01*
X86779Y258074D01*
X87234Y257983D01*
X87252D01*
X87344Y257947D01*
X87453Y257910D01*
X87581Y257856D01*
X87744Y257783D01*
X87909Y257692D01*
X88072Y257601D01*
X88236Y257473D01*
X88255Y257455D01*
X88309Y257418D01*
X88382Y257346D01*
X88473Y257255D01*
X88583Y257127D01*
X88692Y256981D01*
X88783Y256817D01*
X88874Y256635D01*
X88892Y256617D01*
X88911Y256544D01*
X88947Y256435D01*
X89002Y256289D01*
X89038Y256125D01*
X89074Y255906D01*
X89093Y255688D01*
X89111Y255433D01*
Y249766D01*
X87817D01*
X87781Y250859D01*
X87744Y250823D01*
X87672Y250750D01*
X87526Y250641D01*
X87362Y250495D01*
X87143Y250349D01*
X86925Y250185D01*
X86669Y250039D01*
X86414Y249912D01*
X86378Y249894D01*
X86287Y249875D01*
X86159Y249821D01*
X85977Y249766D01*
X85759Y249711D01*
X85503Y249675D01*
X85248Y249639D01*
X84957Y249620D01*
X84847D01*
X84720Y249639D01*
X84556D01*
X84356Y249657D01*
X84155Y249693D01*
X83754Y249784D01*
X83736D01*
X83681Y249821D01*
X83590Y249857D01*
X83463Y249912D01*
X83208Y250076D01*
X82934Y250276D01*
X82916Y250294D01*
X82880Y250331D01*
X82825Y250404D01*
X82752Y250495D01*
X82679Y250604D01*
X82588Y250732D01*
X82461Y251023D01*
Y251042D01*
X82442Y251096D01*
X82424Y251187D01*
X82388Y251297D01*
X82370Y251442D01*
X82333Y251606D01*
X82315Y251953D01*
Y251971D01*
Y252007D01*
Y252080D01*
X82333Y252153D01*
X82351Y252262D01*
X82370Y252390D01*
X82424Y252663D01*
X82534Y252973D01*
X82697Y253301D01*
X82807Y253465D01*
X82934Y253610D01*
X83062Y253756D01*
X83226Y253902D01*
X83244D01*
X83262Y253939D01*
X83317Y253975D01*
X83408Y254011D01*
X83499Y254066D01*
X83609Y254121D01*
X83754Y254194D01*
X83918Y254267D01*
X84101Y254321D01*
X84301Y254394D01*
X84519Y254449D01*
X84775Y254503D01*
X85030Y254540D01*
X85321Y254576D01*
X85631Y254613D01*
X87672D01*
Y255323D01*
Y255360D01*
Y255451D01*
X87653Y255578D01*
X87617Y255742D01*
X87562Y255925D01*
X87471Y256125D01*
X87362Y256307D01*
X87198Y256489D01*
X87180Y256507D01*
X87107Y256562D01*
X86997Y256635D01*
X86852Y256708D01*
X86651Y256781D01*
X86396Y256854D01*
X86105Y256908D01*
X85777Y256927D01*
X85522D01*
X85339Y256908D01*
X85121Y256890D01*
X84902Y256854D01*
X84392Y256763D01*
X84356D01*
X84283Y256726D01*
X84137Y256690D01*
X83973Y256653D01*
X83754Y256580D01*
X83517Y256507D01*
X83262Y256416D01*
X83007Y256325D01*
Y257619D01*
X83025D01*
X83062Y257637D01*
X83098Y257655D01*
X83171Y257674D01*
X83353Y257728D01*
X83590Y257801D01*
X83609D01*
X83645Y257819D01*
X83718Y257838D01*
X83809Y257856D01*
X84046Y257910D01*
X84301Y257965D01*
X84319D01*
X84374Y257983D01*
X84447Y258002D01*
X84538Y258020D01*
X84647Y258038D01*
X84775Y258056D01*
X85066Y258093D01*
X85084D01*
X85139Y258111D01*
X85212D01*
X85321Y258129D01*
X85449D01*
X85576Y258147D01*
X86159D01*
X86342Y258129D01*
D02*
G37*
G36*
X76776Y260461D02*
X77013Y260443D01*
X77268Y260407D01*
X77815Y260297D01*
X77851D01*
X77942Y260261D01*
X78070Y260224D01*
X78252Y260152D01*
X78452Y260079D01*
X78653Y259969D01*
X78871Y259860D01*
X79090Y259714D01*
X79108Y259696D01*
X79181Y259641D01*
X79290Y259569D01*
X79418Y259441D01*
X79564Y259295D01*
X79710Y259131D01*
X79855Y258931D01*
X79983Y258712D01*
X80001Y258676D01*
X80037Y258603D01*
X80092Y258475D01*
X80147Y258293D01*
X80201Y258074D01*
X80256Y257819D01*
X80292Y257528D01*
X80311Y257200D01*
Y257163D01*
Y257091D01*
X80292Y256963D01*
X80274Y256799D01*
X80256Y256599D01*
X80201Y256362D01*
X80147Y256125D01*
X80056Y255888D01*
X80037Y255852D01*
X80019Y255779D01*
X79946Y255651D01*
X79873Y255505D01*
X79764Y255323D01*
X79637Y255141D01*
X79473Y254941D01*
X79290Y254740D01*
X79272Y254722D01*
X79199Y254649D01*
X79090Y254558D01*
X78944Y254449D01*
X78744Y254321D01*
X78525Y254175D01*
X78270Y254048D01*
X77978Y253920D01*
X77942Y253902D01*
X77833Y253866D01*
X77669Y253829D01*
X77432Y253774D01*
X77159Y253702D01*
X76831Y253665D01*
X76448Y253629D01*
X76047Y253610D01*
X74735D01*
Y249766D01*
X73278D01*
Y260479D01*
X76576D01*
X76776Y260461D01*
D02*
G37*
G36*
X31335Y250950D02*
X33795D01*
Y249766D01*
X27199D01*
Y250950D01*
X29896D01*
Y260188D01*
X27473D01*
Y261354D01*
X31335D01*
Y250950D01*
D02*
G37*
G36*
X95907Y258129D02*
X96089D01*
X96508Y258093D01*
X96526D01*
X96618Y258074D01*
X96727D01*
X96891Y258056D01*
X97073Y258020D01*
X97273Y258002D01*
X97510Y257947D01*
X97747Y257910D01*
Y256635D01*
X97711D01*
X97638Y256672D01*
X97510Y256690D01*
X97328Y256726D01*
X97146Y256763D01*
X96927Y256799D01*
X96472Y256872D01*
X96454D01*
X96363Y256890D01*
X96253Y256908D01*
X96107Y256927D01*
X95943D01*
X95780Y256945D01*
X95415Y256963D01*
X95233D01*
X95105Y256945D01*
X94814Y256927D01*
X94522Y256872D01*
X94504D01*
X94468Y256854D01*
X94395Y256836D01*
X94304Y256817D01*
X94121Y256726D01*
X93921Y256635D01*
X93885Y256617D01*
X93793Y256544D01*
X93702Y256435D01*
X93611Y256307D01*
X93593Y256271D01*
X93575Y256180D01*
X93538Y256052D01*
X93520Y255888D01*
Y255870D01*
Y255852D01*
X93538Y255761D01*
X93557Y255633D01*
X93593Y255487D01*
X93611Y255451D01*
X93666Y255378D01*
X93775Y255269D01*
X93921Y255141D01*
X93939D01*
X93958Y255105D01*
X94012Y255086D01*
X94085Y255032D01*
X94194Y254977D01*
X94304Y254922D01*
X94431Y254868D01*
X94577Y254795D01*
X94595D01*
X94650Y254758D01*
X94741Y254740D01*
X94868Y254685D01*
X95033Y254631D01*
X95215Y254576D01*
X95415Y254521D01*
X95652Y254449D01*
X95688Y254430D01*
X95780Y254412D01*
X95907Y254376D01*
X96089Y254303D01*
X96290Y254248D01*
X96490Y254157D01*
X96690Y254084D01*
X96891Y253993D01*
X96909Y253975D01*
X96982Y253957D01*
X97055Y253902D01*
X97182Y253847D01*
X97438Y253665D01*
X97693Y253465D01*
X97711Y253447D01*
X97747Y253410D01*
X97802Y253356D01*
X97875Y253283D01*
X98021Y253082D01*
X98093Y252955D01*
X98148Y252827D01*
Y252809D01*
X98166Y252772D01*
X98203Y252681D01*
X98221Y252590D01*
X98257Y252463D01*
X98276Y252335D01*
X98294Y252007D01*
Y251989D01*
Y251934D01*
Y251843D01*
X98276Y251752D01*
X98221Y251497D01*
X98130Y251224D01*
Y251205D01*
X98112Y251169D01*
X98075Y251096D01*
X98021Y251023D01*
X97893Y250823D01*
X97729Y250604D01*
X97711Y250586D01*
X97693Y250568D01*
X97638Y250513D01*
X97565Y250459D01*
X97365Y250313D01*
X97128Y250149D01*
X97110D01*
X97073Y250112D01*
X97000Y250094D01*
X96909Y250039D01*
X96690Y249948D01*
X96417Y249857D01*
X96399D01*
X96363Y249839D01*
X96271Y249821D01*
X96180Y249803D01*
X96071Y249766D01*
X95925Y249748D01*
X95634Y249693D01*
X95616D01*
X95561Y249675D01*
X95488D01*
X95379Y249657D01*
X95142Y249639D01*
X94850Y249620D01*
X94541D01*
X94340Y249639D01*
X94103D01*
X93848Y249657D01*
X93302Y249693D01*
X93265D01*
X93192Y249711D01*
X93046Y249730D01*
X92883Y249748D01*
X92664Y249784D01*
X92445Y249821D01*
X91953Y249930D01*
Y251242D01*
X91990D01*
X92081Y251205D01*
X92208Y251169D01*
X92391Y251114D01*
X92609Y251060D01*
X92846Y251005D01*
X93375Y250914D01*
X93411D01*
X93502Y250896D01*
X93629Y250877D01*
X93812D01*
X94030Y250859D01*
X94267Y250841D01*
X94796Y250823D01*
X94960D01*
X95142Y250841D01*
X95360Y250859D01*
X95616Y250896D01*
X95871Y250932D01*
X96107Y251005D01*
X96308Y251096D01*
X96326Y251114D01*
X96381Y251151D01*
X96472Y251205D01*
X96563Y251297D01*
X96654Y251406D01*
X96745Y251552D01*
X96800Y251716D01*
X96818Y251898D01*
Y251916D01*
Y251934D01*
X96800Y252025D01*
X96782Y252153D01*
X96727Y252280D01*
X96709Y252317D01*
X96672Y252390D01*
X96581Y252499D01*
X96435Y252627D01*
X96399Y252663D01*
X96344Y252681D01*
X96290Y252736D01*
X96199Y252772D01*
X96089Y252827D01*
X95943Y252900D01*
X95798Y252955D01*
X95780D01*
X95725Y252991D01*
X95634Y253028D01*
X95488Y253082D01*
X95324Y253137D01*
X95124Y253210D01*
X94905Y253283D01*
X94632Y253356D01*
X94613D01*
X94541Y253392D01*
X94431Y253410D01*
X94304Y253465D01*
X94140Y253519D01*
X93976Y253574D01*
X93611Y253720D01*
X93593Y253738D01*
X93538Y253756D01*
X93447Y253811D01*
X93338Y253866D01*
X93065Y254011D01*
X92791Y254212D01*
X92773Y254230D01*
X92737Y254267D01*
X92664Y254321D01*
X92591Y254412D01*
X92409Y254613D01*
X92245Y254886D01*
Y254904D01*
X92208Y254959D01*
X92190Y255032D01*
X92154Y255141D01*
X92117Y255269D01*
X92099Y255433D01*
X92063Y255615D01*
Y255797D01*
Y255815D01*
Y255852D01*
Y255925D01*
X92081Y256016D01*
X92099Y256125D01*
X92117Y256252D01*
X92208Y256544D01*
Y256562D01*
X92245Y256617D01*
X92281Y256690D01*
X92336Y256799D01*
X92409Y256908D01*
X92500Y257036D01*
X92627Y257182D01*
X92755Y257309D01*
X92773Y257327D01*
X92828Y257364D01*
X92919Y257437D01*
X93028Y257528D01*
X93174Y257619D01*
X93356Y257710D01*
X93557Y257819D01*
X93793Y257910D01*
X93830Y257929D01*
X93921Y257947D01*
X94049Y257983D01*
X94249Y258038D01*
X94486Y258074D01*
X94759Y258111D01*
X95087Y258129D01*
X95433Y258147D01*
X95761D01*
X95907Y258129D01*
D02*
G37*
G36*
X42923Y249766D02*
X41630D01*
X41575Y251315D01*
Y251297D01*
X41557Y251278D01*
X41466Y251169D01*
X41356Y251023D01*
X41192Y250823D01*
X40992Y250623D01*
X40773Y250404D01*
X40536Y250203D01*
X40281Y250021D01*
X40245Y250003D01*
X40154Y249967D01*
X40026Y249894D01*
X39826Y249821D01*
X39607Y249748D01*
X39352Y249675D01*
X39079Y249639D01*
X38769Y249620D01*
X38660D01*
X38514Y249639D01*
X38350Y249657D01*
X38168Y249693D01*
X37949Y249748D01*
X37749Y249821D01*
X37530Y249912D01*
X37512Y249930D01*
X37439Y249967D01*
X37348Y250039D01*
X37220Y250131D01*
X37075Y250240D01*
X36929Y250386D01*
X36783Y250550D01*
X36637Y250732D01*
X36619Y250750D01*
X36583Y250823D01*
X36510Y250950D01*
X36437Y251096D01*
X36346Y251297D01*
X36255Y251515D01*
X36164Y251752D01*
X36091Y252025D01*
Y252062D01*
X36073Y252153D01*
X36036Y252317D01*
X36018Y252517D01*
X35982Y252772D01*
X35945Y253064D01*
X35927Y253374D01*
Y253702D01*
Y253720D01*
Y253756D01*
Y253811D01*
Y253884D01*
X35945Y254066D01*
X35963Y254321D01*
X36000Y254613D01*
X36036Y254922D01*
X36109Y255250D01*
X36200Y255560D01*
Y255578D01*
X36218Y255596D01*
X36255Y255706D01*
X36328Y255852D01*
X36419Y256034D01*
X36528Y256252D01*
X36674Y256489D01*
X36838Y256726D01*
X37020Y256945D01*
X37038Y256963D01*
X37111Y257036D01*
X37220Y257145D01*
X37384Y257273D01*
X37567Y257400D01*
X37785Y257546D01*
X38022Y257674D01*
X38295Y257801D01*
X38332Y257819D01*
X38423Y257856D01*
X38587Y257892D01*
X38787Y257947D01*
X39024Y258002D01*
X39316Y258056D01*
X39625Y258074D01*
X39953Y258093D01*
X40190D01*
X40445Y258074D01*
X40719Y258038D01*
X40737D01*
X40791Y258020D01*
X40864D01*
X40955Y258002D01*
X41211Y257947D01*
X41484Y257874D01*
Y261354D01*
X42923D01*
Y249766D01*
D02*
G37*
G36*
X12715Y260625D02*
X12933Y260607D01*
X13043D01*
X13134Y260589D01*
X13334Y260571D01*
X13571Y260534D01*
X13625D01*
X13698Y260516D01*
X13771D01*
X13972Y260479D01*
X14209Y260443D01*
X14263D01*
X14336Y260425D01*
X14409Y260407D01*
X14609Y260370D01*
X14810Y260334D01*
Y259022D01*
X14773D01*
X14701Y259058D01*
X14573Y259076D01*
X14409Y259113D01*
X14227Y259149D01*
X14008Y259204D01*
X13534Y259277D01*
X13516D01*
X13425Y259295D01*
X13316Y259313D01*
X13152Y259332D01*
X12970Y259350D01*
X12751Y259368D01*
X12314Y259386D01*
X12113D01*
X11895Y259368D01*
X11621Y259332D01*
X11312Y259277D01*
X11002Y259204D01*
X10729Y259095D01*
X10473Y258949D01*
X10455Y258931D01*
X10382Y258876D01*
X10291Y258785D01*
X10182Y258658D01*
X10073Y258493D01*
X9982Y258293D01*
X9909Y258074D01*
X9890Y257819D01*
Y257801D01*
Y257747D01*
X9909Y257674D01*
X9927Y257564D01*
X10000Y257327D01*
X10054Y257200D01*
X10127Y257072D01*
X10146Y257054D01*
X10164Y257018D01*
X10218Y256963D01*
X10291Y256890D01*
X10492Y256708D01*
X10747Y256507D01*
X10765Y256489D01*
X10820Y256471D01*
X10892Y256416D01*
X11020Y256362D01*
X11148Y256289D01*
X11293Y256216D01*
X11658Y256070D01*
X11676D01*
X11749Y256034D01*
X11840Y255997D01*
X11986Y255943D01*
X12132Y255888D01*
X12295Y255815D01*
X12678Y255651D01*
X12696D01*
X12769Y255615D01*
X12878Y255578D01*
X13006Y255524D01*
X13170Y255451D01*
X13334Y255378D01*
X13717Y255196D01*
X13735Y255177D01*
X13808Y255159D01*
X13899Y255105D01*
X14026Y255032D01*
X14318Y254831D01*
X14609Y254594D01*
X14628Y254576D01*
X14682Y254540D01*
X14755Y254467D01*
X14846Y254358D01*
X14937Y254248D01*
X15047Y254102D01*
X15247Y253774D01*
X15265Y253756D01*
X15283Y253683D01*
X15320Y253592D01*
X15375Y253465D01*
X15429Y253301D01*
X15466Y253100D01*
X15484Y252900D01*
X15502Y252663D01*
Y252627D01*
Y252536D01*
X15484Y252390D01*
X15466Y252208D01*
X15429Y252007D01*
X15356Y251770D01*
X15283Y251534D01*
X15174Y251315D01*
X15156Y251297D01*
X15120Y251224D01*
X15047Y251114D01*
X14956Y250987D01*
X14828Y250841D01*
X14682Y250677D01*
X14500Y250513D01*
X14300Y250367D01*
X14281Y250349D01*
X14209Y250313D01*
X14081Y250240D01*
X13935Y250149D01*
X13735Y250058D01*
X13516Y249967D01*
X13261Y249875D01*
X12970Y249803D01*
X12933D01*
X12842Y249766D01*
X12678Y249748D01*
X12459Y249711D01*
X12204Y249675D01*
X11913Y249657D01*
X11585Y249620D01*
X10984D01*
X10838Y249639D01*
X10710D01*
X10382Y249657D01*
X10310D01*
X10237Y249675D01*
X10127D01*
X9872Y249711D01*
X9581Y249748D01*
X9508D01*
X9435Y249766D01*
X9344D01*
X9107Y249803D01*
X8852Y249839D01*
X8834D01*
X8797Y249857D01*
X8724Y249875D01*
X8651Y249894D01*
X8451Y249948D01*
X8232Y250003D01*
Y251406D01*
X8269Y251388D01*
X8342Y251370D01*
X8469Y251333D01*
X8633Y251278D01*
X8834Y251205D01*
X9070Y251151D01*
X9326Y251096D01*
X9599Y251042D01*
X9635D01*
X9726Y251023D01*
X9890Y251005D01*
X10109Y250987D01*
X10364Y250950D01*
X10656Y250932D01*
X10984Y250914D01*
X11603D01*
X11767Y250932D01*
X11949D01*
X12150Y250969D01*
X12350Y250987D01*
X12551Y251023D01*
X12569D01*
X12642Y251042D01*
X12715Y251078D01*
X12842Y251096D01*
X13097Y251205D01*
X13352Y251333D01*
X13370Y251351D01*
X13407Y251370D01*
X13462Y251424D01*
X13534Y251479D01*
X13698Y251643D01*
X13826Y251861D01*
Y251880D01*
X13844Y251916D01*
X13881Y251989D01*
X13899Y252080D01*
X13935Y252189D01*
X13953Y252317D01*
X13972Y252590D01*
Y252608D01*
Y252663D01*
X13953Y252736D01*
X13935Y252845D01*
X13862Y253082D01*
X13808Y253191D01*
X13717Y253319D01*
X13698Y253337D01*
X13680Y253374D01*
X13625Y253428D01*
X13553Y253501D01*
X13462Y253592D01*
X13352Y253683D01*
X13079Y253866D01*
X13061Y253884D01*
X13006Y253902D01*
X12933Y253957D01*
X12824Y254011D01*
X12696Y254084D01*
X12551Y254157D01*
X12186Y254321D01*
X12168Y254339D01*
X12095Y254358D01*
X12004Y254394D01*
X11858Y254449D01*
X11712Y254503D01*
X11530Y254576D01*
X11148Y254722D01*
X11129Y254740D01*
X11056Y254758D01*
X10965Y254813D01*
X10838Y254868D01*
X10674Y254941D01*
X10510Y255013D01*
X10127Y255196D01*
X10109Y255214D01*
X10036Y255250D01*
X9945Y255287D01*
X9817Y255360D01*
X9690Y255451D01*
X9526Y255542D01*
X9216Y255779D01*
X9198Y255797D01*
X9162Y255833D01*
X9089Y255906D01*
X8998Y256016D01*
X8907Y256125D01*
X8797Y256271D01*
X8597Y256580D01*
X8579Y256599D01*
X8560Y256672D01*
X8524Y256763D01*
X8488Y256890D01*
X8433Y257054D01*
X8396Y257236D01*
X8378Y257455D01*
X8360Y257674D01*
Y257692D01*
Y257765D01*
X8378Y257874D01*
X8396Y258020D01*
X8415Y258184D01*
X8451Y258366D01*
X8506Y258566D01*
X8579Y258767D01*
X8597Y258785D01*
X8615Y258858D01*
X8688Y258949D01*
X8761Y259076D01*
X8852Y259222D01*
X8979Y259386D01*
X9125Y259550D01*
X9289Y259714D01*
X9307Y259733D01*
X9380Y259787D01*
X9490Y259860D01*
X9635Y259951D01*
X9799Y260060D01*
X10018Y260170D01*
X10255Y260279D01*
X10528Y260388D01*
X10565Y260407D01*
X10674Y260425D01*
X10820Y260461D01*
X11038Y260516D01*
X11312Y260571D01*
X11621Y260607D01*
X11968Y260625D01*
X12350Y260644D01*
X12532D01*
X12715Y260625D01*
D02*
G37*
G36*
X-5414Y258129D02*
X-5250Y258111D01*
X-5050Y258074D01*
X-4850Y258020D01*
X-4631Y257947D01*
X-4431Y257838D01*
X-4412Y257819D01*
X-4339Y257783D01*
X-4248Y257710D01*
X-4121Y257619D01*
X-3975Y257510D01*
X-3829Y257364D01*
X-3683Y257200D01*
X-3538Y256999D01*
X-3520Y256981D01*
X-3483Y256908D01*
X-3410Y256799D01*
X-3337Y256635D01*
X-3246Y256453D01*
X-3155Y256234D01*
X-3064Y255979D01*
X-2991Y255706D01*
Y255669D01*
X-2955Y255578D01*
X-2936Y255414D01*
X-2900Y255214D01*
X-2864Y254977D01*
X-2845Y254685D01*
X-2809Y254376D01*
Y254030D01*
Y254011D01*
Y253975D01*
Y253920D01*
Y253847D01*
X-2827Y253629D01*
X-2845Y253374D01*
X-2882Y253064D01*
X-2936Y252754D01*
X-3009Y252426D01*
X-3119Y252098D01*
X-3137Y252062D01*
X-3173Y251971D01*
X-3246Y251825D01*
X-3337Y251625D01*
X-3465Y251424D01*
X-3611Y251187D01*
X-3775Y250969D01*
X-3975Y250750D01*
X-3993Y250732D01*
X-4066Y250659D01*
X-4194Y250568D01*
X-4339Y250440D01*
X-4522Y250313D01*
X-4758Y250167D01*
X-4995Y250039D01*
X-5269Y249930D01*
X-5305Y249912D01*
X-5396Y249894D01*
X-5542Y249857D01*
X-5742Y249803D01*
X-5979Y249748D01*
X-6252Y249711D01*
X-6544Y249693D01*
X-6854Y249675D01*
X-7109D01*
X-7346Y249693D01*
X-7637Y249730D01*
X-7710D01*
X-7783Y249748D01*
X-7874Y249766D01*
X-8002D01*
X-8129Y249784D01*
X-8421Y249839D01*
Y246395D01*
X-9842D01*
Y258002D01*
X-8585D01*
X-8494Y256617D01*
Y256635D01*
X-8457Y256653D01*
X-8384Y256763D01*
X-8257Y256908D01*
X-8093Y257072D01*
X-7892Y257273D01*
X-7674Y257473D01*
X-7437Y257655D01*
X-7182Y257801D01*
X-7145Y257819D01*
X-7054Y257856D01*
X-6927Y257910D01*
X-6726Y257983D01*
X-6508Y258038D01*
X-6252Y258093D01*
X-5961Y258129D01*
X-5669Y258147D01*
X-5542D01*
X-5414Y258129D01*
D02*
G37*
G36*
X21569D02*
X21770Y258111D01*
X22025Y258074D01*
X22280Y258020D01*
X22553Y257947D01*
X22827Y257856D01*
X22863Y257838D01*
X22954Y257801D01*
X23082Y257747D01*
X23246Y257655D01*
X23428Y257546D01*
X23628Y257400D01*
X23829Y257236D01*
X24011Y257054D01*
X24029Y257036D01*
X24084Y256963D01*
X24175Y256854D01*
X24284Y256690D01*
X24412Y256507D01*
X24539Y256271D01*
X24649Y256016D01*
X24758Y255742D01*
X24776Y255706D01*
X24794Y255596D01*
X24849Y255433D01*
X24904Y255232D01*
X24940Y254959D01*
X24995Y254649D01*
X25013Y254303D01*
X25031Y253939D01*
Y253920D01*
Y253902D01*
Y253847D01*
Y253774D01*
X25013Y253592D01*
X24995Y253356D01*
X24958Y253082D01*
X24922Y252791D01*
X24849Y252481D01*
X24758Y252171D01*
X24740Y252135D01*
X24703Y252044D01*
X24649Y251898D01*
X24557Y251716D01*
X24448Y251497D01*
X24321Y251260D01*
X24157Y251023D01*
X23975Y250805D01*
X23956Y250786D01*
X23883Y250714D01*
X23774Y250604D01*
X23628Y250477D01*
X23446Y250349D01*
X23246Y250203D01*
X22991Y250058D01*
X22736Y249930D01*
X22699Y249912D01*
X22608Y249875D01*
X22462Y249839D01*
X22262Y249784D01*
X22007Y249711D01*
X21733Y249675D01*
X21424Y249639D01*
X21078Y249620D01*
X20932D01*
X20750Y249639D01*
X20549Y249657D01*
X20294Y249693D01*
X20021Y249730D01*
X19747Y249803D01*
X19474Y249894D01*
X19438Y249912D01*
X19365Y249948D01*
X19237Y250003D01*
X19073Y250094D01*
X18873Y250203D01*
X18691Y250349D01*
X18490Y250513D01*
X18290Y250695D01*
X18272Y250714D01*
X18217Y250786D01*
X18126Y250896D01*
X18016Y251060D01*
X17907Y251242D01*
X17780Y251479D01*
X17670Y251734D01*
X17561Y252007D01*
Y252025D01*
X17543Y252044D01*
X17525Y252153D01*
X17488Y252317D01*
X17434Y252536D01*
X17379Y252809D01*
X17342Y253119D01*
X17324Y253465D01*
X17306Y253829D01*
Y253847D01*
Y253866D01*
Y253920D01*
Y253993D01*
X17324Y254175D01*
X17342Y254394D01*
X17361Y254667D01*
X17415Y254959D01*
X17470Y255269D01*
X17561Y255560D01*
Y255578D01*
X17579Y255596D01*
X17616Y255688D01*
X17670Y255852D01*
X17761Y256034D01*
X17871Y256252D01*
X18016Y256471D01*
X18162Y256708D01*
X18345Y256927D01*
X18363Y256945D01*
X18436Y257018D01*
X18545Y257127D01*
X18691Y257255D01*
X18873Y257400D01*
X19092Y257546D01*
X19328Y257692D01*
X19583Y257819D01*
X19620Y257838D01*
X19711Y257874D01*
X19857Y257929D01*
X20057Y257983D01*
X20312Y258038D01*
X20586Y258093D01*
X20895Y258129D01*
X21241Y258147D01*
X21387D01*
X21569Y258129D01*
D02*
G37*
G36*
X-15381D02*
X-15180Y258111D01*
X-14925Y258074D01*
X-14670Y258020D01*
X-14397Y257947D01*
X-14124Y257856D01*
X-14087Y257838D01*
X-13996Y257801D01*
X-13869Y257747D01*
X-13704Y257655D01*
X-13522Y257546D01*
X-13322Y257400D01*
X-13121Y257236D01*
X-12939Y257054D01*
X-12921Y257036D01*
X-12866Y256963D01*
X-12775Y256854D01*
X-12666Y256690D01*
X-12538Y256507D01*
X-12411Y256271D01*
X-12302Y256016D01*
X-12192Y255742D01*
X-12174Y255706D01*
X-12156Y255596D01*
X-12101Y255433D01*
X-12047Y255232D01*
X-12010Y254959D01*
X-11955Y254649D01*
X-11937Y254303D01*
X-11919Y253939D01*
Y253920D01*
Y253902D01*
Y253847D01*
Y253774D01*
X-11937Y253592D01*
X-11955Y253356D01*
X-11992Y253082D01*
X-12028Y252791D01*
X-12101Y252481D01*
X-12192Y252171D01*
X-12211Y252135D01*
X-12247Y252044D01*
X-12302Y251898D01*
X-12393Y251716D01*
X-12502Y251497D01*
X-12630Y251260D01*
X-12794Y251023D01*
X-12976Y250805D01*
X-12994Y250786D01*
X-13067Y250714D01*
X-13176Y250604D01*
X-13322Y250477D01*
X-13504Y250349D01*
X-13704Y250203D01*
X-13960Y250058D01*
X-14215Y249930D01*
X-14251Y249912D01*
X-14342Y249875D01*
X-14488Y249839D01*
X-14688Y249784D01*
X-14943Y249711D01*
X-15217Y249675D01*
X-15527Y249639D01*
X-15873Y249620D01*
X-16018D01*
X-16201Y249639D01*
X-16401Y249657D01*
X-16656Y249693D01*
X-16929Y249730D01*
X-17203Y249803D01*
X-17476Y249894D01*
X-17513Y249912D01*
X-17585Y249948D01*
X-17713Y250003D01*
X-17877Y250094D01*
X-18077Y250203D01*
X-18259Y250349D01*
X-18460Y250513D01*
X-18660Y250695D01*
X-18679Y250714D01*
X-18733Y250786D01*
X-18824Y250896D01*
X-18934Y251060D01*
X-19043Y251242D01*
X-19171Y251479D01*
X-19280Y251734D01*
X-19389Y252007D01*
Y252025D01*
X-19407Y252044D01*
X-19426Y252153D01*
X-19462Y252317D01*
X-19517Y252536D01*
X-19571Y252809D01*
X-19608Y253119D01*
X-19626Y253465D01*
X-19644Y253829D01*
Y253847D01*
Y253866D01*
Y253920D01*
Y253993D01*
X-19626Y254175D01*
X-19608Y254394D01*
X-19590Y254667D01*
X-19535Y254959D01*
X-19480Y255269D01*
X-19389Y255560D01*
Y255578D01*
X-19371Y255596D01*
X-19334Y255688D01*
X-19280Y255852D01*
X-19189Y256034D01*
X-19079Y256252D01*
X-18934Y256471D01*
X-18788Y256708D01*
X-18606Y256927D01*
X-18587Y256945D01*
X-18515Y257018D01*
X-18405Y257127D01*
X-18259Y257255D01*
X-18077Y257400D01*
X-17859Y257546D01*
X-17622Y257692D01*
X-17367Y257819D01*
X-17330Y257838D01*
X-17239Y257874D01*
X-17093Y257929D01*
X-16893Y257983D01*
X-16638Y258038D01*
X-16365Y258093D01*
X-16055Y258129D01*
X-15709Y258147D01*
X-15563D01*
X-15381Y258129D01*
D02*
G37*
G36*
X59576D02*
X59667D01*
X59795Y258111D01*
X60087Y258038D01*
X60396Y257947D01*
X60706Y257801D01*
X61016Y257582D01*
X61162Y257455D01*
X61289Y257309D01*
X61326Y257273D01*
X61344Y257218D01*
X61398Y257163D01*
X61435Y257072D01*
X61489Y256963D01*
X61562Y256836D01*
X61617Y256690D01*
X61672Y256526D01*
X61726Y256362D01*
X61781Y256161D01*
X61836Y255943D01*
X61872Y255688D01*
X61890Y255433D01*
X61909Y255159D01*
Y254868D01*
X60469D01*
Y254886D01*
Y254922D01*
Y254977D01*
Y255050D01*
X60451Y255232D01*
X60433Y255451D01*
X60396Y255706D01*
X60342Y255961D01*
X60251Y256216D01*
X60141Y256416D01*
X60123Y256435D01*
X60087Y256489D01*
X59995Y256580D01*
X59886Y256672D01*
X59740Y256744D01*
X59576Y256836D01*
X59376Y256890D01*
X59139Y256908D01*
X59030D01*
X58975Y256890D01*
X58793Y256872D01*
X58574Y256799D01*
X58556D01*
X58520Y256781D01*
X58465Y256763D01*
X58392Y256726D01*
X58192Y256617D01*
X57973Y256471D01*
X57955Y256453D01*
X57918Y256435D01*
X57864Y256380D01*
X57773Y256325D01*
X57572Y256125D01*
X57317Y255888D01*
X57299Y255870D01*
X57262Y255833D01*
X57190Y255761D01*
X57098Y255651D01*
X56989Y255524D01*
X56862Y255396D01*
X56734Y255232D01*
X56588Y255050D01*
Y249766D01*
X55149D01*
Y258002D01*
X56442D01*
X56479Y256471D01*
Y256489D01*
X56515Y256507D01*
X56607Y256617D01*
X56752Y256763D01*
X56934Y256963D01*
X57153Y257163D01*
X57390Y257382D01*
X57645Y257582D01*
X57918Y257747D01*
X57955Y257765D01*
X58046Y257801D01*
X58173Y257874D01*
X58374Y257947D01*
X58574Y258020D01*
X58829Y258093D01*
X59084Y258129D01*
X59358Y258147D01*
X59485D01*
X59576Y258129D01*
D02*
G37*
%LPC*%
G36*
X113763Y256999D02*
X113398D01*
X113289Y256981D01*
X113161Y256963D01*
X113016Y256927D01*
X112706Y256817D01*
X112688D01*
X112651Y256781D01*
X112578Y256744D01*
X112487Y256690D01*
X112269Y256526D01*
X112050Y256307D01*
X112032Y256289D01*
X112013Y256252D01*
X111959Y256180D01*
X111886Y256088D01*
X111813Y255979D01*
X111740Y255833D01*
X111594Y255524D01*
Y255505D01*
X111576Y255451D01*
X111540Y255360D01*
X111503Y255232D01*
X111467Y255086D01*
X111449Y254904D01*
X111394Y254521D01*
X115730D01*
Y254540D01*
Y254613D01*
Y254722D01*
Y254850D01*
X115712Y254995D01*
X115694Y255159D01*
X115603Y255505D01*
Y255524D01*
X115585Y255578D01*
X115548Y255669D01*
X115512Y255779D01*
X115384Y256034D01*
X115202Y256289D01*
X115184Y256307D01*
X115147Y256344D01*
X115093Y256398D01*
X115020Y256471D01*
X114910Y256562D01*
X114801Y256635D01*
X114510Y256799D01*
X114491Y256817D01*
X114437Y256836D01*
X114346Y256872D01*
X114236Y256908D01*
X114109Y256945D01*
X113945Y256963D01*
X113763Y256999D01*
D02*
G37*
G36*
X49100D02*
X48735D01*
X48626Y256981D01*
X48499Y256963D01*
X48353Y256927D01*
X48043Y256817D01*
X48025D01*
X47988Y256781D01*
X47916Y256744D01*
X47824Y256690D01*
X47606Y256526D01*
X47387Y256307D01*
X47369Y256289D01*
X47351Y256252D01*
X47296Y256180D01*
X47223Y256088D01*
X47150Y255979D01*
X47077Y255833D01*
X46932Y255524D01*
Y255505D01*
X46913Y255451D01*
X46877Y255360D01*
X46841Y255232D01*
X46804Y255086D01*
X46786Y254904D01*
X46731Y254521D01*
X51068D01*
Y254540D01*
Y254613D01*
Y254722D01*
Y254850D01*
X51049Y254995D01*
X51031Y255159D01*
X50940Y255505D01*
Y255524D01*
X50922Y255578D01*
X50885Y255669D01*
X50849Y255779D01*
X50721Y256034D01*
X50539Y256289D01*
X50521Y256307D01*
X50485Y256344D01*
X50430Y256398D01*
X50357Y256471D01*
X50248Y256562D01*
X50138Y256635D01*
X49847Y256799D01*
X49829Y256817D01*
X49774Y256836D01*
X49683Y256872D01*
X49574Y256908D01*
X49446Y256945D01*
X49282Y256963D01*
X49100Y256999D01*
D02*
G37*
G36*
X87672Y253519D02*
X85667D01*
X85540Y253501D01*
X85248Y253483D01*
X84939Y253410D01*
X84920D01*
X84884Y253392D01*
X84811Y253374D01*
X84720Y253337D01*
X84501Y253228D01*
X84301Y253100D01*
X84283D01*
X84264Y253064D01*
X84173Y252973D01*
X84046Y252809D01*
X83937Y252627D01*
Y252608D01*
X83918Y252572D01*
X83900Y252517D01*
X83882Y252445D01*
X83845Y252244D01*
X83827Y252007D01*
Y251989D01*
Y251971D01*
X83845Y251861D01*
X83864Y251716D01*
X83900Y251552D01*
Y251534D01*
X83918Y251515D01*
X83955Y251424D01*
X84028Y251297D01*
X84137Y251151D01*
X84173Y251133D01*
X84246Y251060D01*
X84392Y250969D01*
X84556Y250896D01*
X84574D01*
X84611Y250877D01*
X84665Y250859D01*
X84738D01*
X84939Y250823D01*
X85194Y250805D01*
X85285D01*
X85376Y250823D01*
X85522Y250841D01*
X85686Y250877D01*
X85886Y250932D01*
X86086Y251005D01*
X86323Y251096D01*
X86360Y251114D01*
X86433Y251151D01*
X86560Y251224D01*
X86724Y251333D01*
X86925Y251461D01*
X87161Y251625D01*
X87416Y251807D01*
X87672Y252044D01*
Y253519D01*
D02*
G37*
G36*
X76211Y259259D02*
X74735D01*
Y254850D01*
X76211D01*
X76302Y254868D01*
X76412D01*
X76539Y254886D01*
X76812Y254922D01*
X77140Y254995D01*
X77468Y255086D01*
X77796Y255232D01*
X78088Y255414D01*
X78124Y255433D01*
X78197Y255524D01*
X78307Y255651D01*
X78452Y255833D01*
X78580Y256088D01*
X78689Y256380D01*
X78762Y256726D01*
X78799Y257127D01*
Y257145D01*
Y257163D01*
Y257218D01*
X78780Y257291D01*
X78762Y257473D01*
X78707Y257710D01*
X78635Y257965D01*
X78507Y258220D01*
X78343Y258475D01*
X78106Y258694D01*
X78070Y258712D01*
X77978Y258785D01*
X77833Y258876D01*
X77614Y258985D01*
X77341Y259076D01*
X77031Y259168D01*
X76648Y259241D01*
X76211Y259259D01*
D02*
G37*
G36*
X39844Y256908D02*
X39735D01*
X39644Y256890D01*
X39443Y256872D01*
X39188Y256817D01*
X38878Y256726D01*
X38587Y256580D01*
X38295Y256398D01*
X38022Y256143D01*
X38004Y256107D01*
X37931Y255997D01*
X37876Y255925D01*
X37822Y255815D01*
X37767Y255706D01*
X37712Y255578D01*
X37639Y255414D01*
X37585Y255250D01*
X37530Y255050D01*
X37494Y254831D01*
X37439Y254613D01*
X37421Y254358D01*
X37384Y254084D01*
Y253793D01*
Y253774D01*
Y253720D01*
Y253647D01*
Y253556D01*
X37403Y253428D01*
Y253283D01*
X37439Y252955D01*
X37494Y252590D01*
X37567Y252226D01*
X37676Y251880D01*
X37822Y251570D01*
X37840Y251534D01*
X37894Y251461D01*
X38004Y251333D01*
X38150Y251205D01*
X38314Y251078D01*
X38532Y250950D01*
X38769Y250877D01*
X39061Y250841D01*
X39152D01*
X39261Y250859D01*
X39407Y250896D01*
X39589Y250950D01*
X39771Y251042D01*
X39990Y251151D01*
X40209Y251315D01*
X40245Y251333D01*
X40318Y251406D01*
X40427Y251515D01*
X40591Y251679D01*
X40791Y251880D01*
X40992Y252135D01*
X41229Y252426D01*
X41484Y252754D01*
Y256562D01*
X41466D01*
X41429Y256599D01*
X41338Y256617D01*
X41247Y256653D01*
X41138Y256690D01*
X40992Y256744D01*
X40682Y256817D01*
X40664D01*
X40609Y256836D01*
X40536Y256854D01*
X40427Y256872D01*
X40300D01*
X40154Y256890D01*
X39844Y256908D01*
D02*
G37*
G36*
X-5797D02*
X-6070D01*
X-6125Y256890D01*
X-6307Y256872D01*
X-6508Y256817D01*
X-6526D01*
X-6562Y256799D01*
X-6617Y256781D01*
X-6690Y256744D01*
X-6872Y256653D01*
X-7091Y256526D01*
X-7109D01*
X-7145Y256489D01*
X-7200Y256453D01*
X-7273Y256380D01*
X-7473Y256216D01*
X-7728Y255979D01*
X-7747Y255961D01*
X-7783Y255925D01*
X-7856Y255852D01*
X-7929Y255761D01*
X-8038Y255633D01*
X-8166Y255487D01*
X-8293Y255341D01*
X-8421Y255159D01*
Y251169D01*
X-8403D01*
X-8348Y251151D01*
X-8275Y251114D01*
X-8166Y251078D01*
X-8056Y251042D01*
X-7910Y250987D01*
X-7601Y250914D01*
X-7583D01*
X-7528Y250896D01*
X-7437Y250877D01*
X-7327D01*
X-7200Y250859D01*
X-7054Y250841D01*
X-6745Y250823D01*
X-6635D01*
X-6562Y250841D01*
X-6344Y250859D01*
X-6089Y250914D01*
X-5797Y251023D01*
X-5505Y251151D01*
X-5214Y251351D01*
X-5068Y251461D01*
X-4941Y251606D01*
Y251625D01*
X-4904Y251643D01*
X-4886Y251697D01*
X-4831Y251752D01*
X-4777Y251843D01*
X-4722Y251934D01*
X-4667Y252062D01*
X-4594Y252189D01*
X-4540Y252353D01*
X-4485Y252517D01*
X-4431Y252718D01*
X-4376Y252936D01*
X-4321Y253155D01*
X-4303Y253410D01*
X-4267Y253665D01*
Y253957D01*
Y253993D01*
Y254066D01*
Y254194D01*
X-4285Y254358D01*
Y254540D01*
X-4303Y254740D01*
X-4376Y255141D01*
Y255159D01*
X-4394Y255232D01*
X-4412Y255341D01*
X-4449Y255469D01*
X-4540Y255761D01*
X-4667Y256070D01*
Y256088D01*
X-4704Y256143D01*
X-4740Y256216D01*
X-4813Y256307D01*
X-4977Y256507D01*
X-5196Y256690D01*
X-5214Y256708D01*
X-5250Y256726D01*
X-5323Y256763D01*
X-5414Y256799D01*
X-5524Y256836D01*
X-5651Y256872D01*
X-5797Y256908D01*
D02*
G37*
G36*
X21369Y256927D02*
X21059D01*
X20932Y256908D01*
X20786Y256890D01*
X20604Y256872D01*
X20422Y256817D01*
X20239Y256763D01*
X20057Y256672D01*
X20039Y256653D01*
X19984Y256617D01*
X19893Y256562D01*
X19802Y256489D01*
X19674Y256398D01*
X19547Y256289D01*
X19310Y255997D01*
X19292Y255979D01*
X19255Y255925D01*
X19219Y255833D01*
X19146Y255724D01*
X19073Y255578D01*
X19019Y255414D01*
X18946Y255232D01*
X18891Y255032D01*
Y255013D01*
X18873Y254941D01*
X18855Y254831D01*
X18836Y254685D01*
X18800Y254503D01*
X18782Y254303D01*
X18764Y253866D01*
Y253829D01*
Y253738D01*
X18782Y253592D01*
Y253410D01*
X18800Y253210D01*
X18836Y252973D01*
X18927Y252517D01*
Y252499D01*
X18964Y252426D01*
X19000Y252317D01*
X19055Y252189D01*
X19201Y251880D01*
X19401Y251570D01*
X19420Y251552D01*
X19456Y251515D01*
X19529Y251442D01*
X19620Y251370D01*
X19729Y251278D01*
X19857Y251187D01*
X20148Y251005D01*
X20166D01*
X20221Y250969D01*
X20331Y250950D01*
X20440Y250914D01*
X20604Y250877D01*
X20768Y250859D01*
X20968Y250823D01*
X21278D01*
X21387Y250841D01*
X21551Y250859D01*
X21715Y250877D01*
X21897Y250932D01*
X22080Y250987D01*
X22262Y251060D01*
X22280Y251078D01*
X22335Y251114D01*
X22426Y251169D01*
X22535Y251242D01*
X22644Y251333D01*
X22772Y251461D01*
X23009Y251734D01*
X23027Y251752D01*
X23064Y251807D01*
X23100Y251898D01*
X23173Y252007D01*
X23246Y252153D01*
X23300Y252317D01*
X23373Y252499D01*
X23428Y252699D01*
Y252718D01*
X23446Y252791D01*
X23483Y252918D01*
X23501Y253064D01*
X23537Y253228D01*
X23555Y253428D01*
X23574Y253866D01*
Y253902D01*
Y253993D01*
Y254139D01*
X23555Y254321D01*
X23537Y254521D01*
X23501Y254758D01*
X23446Y254977D01*
X23391Y255196D01*
Y255214D01*
X23355Y255287D01*
X23318Y255396D01*
X23264Y255542D01*
X23118Y255833D01*
X23027Y255997D01*
X22918Y256143D01*
X22899Y256161D01*
X22863Y256198D01*
X22790Y256271D01*
X22699Y256362D01*
X22590Y256453D01*
X22462Y256544D01*
X22152Y256726D01*
X22134Y256744D01*
X22080Y256763D01*
X21989Y256799D01*
X21861Y256836D01*
X21715Y256872D01*
X21551Y256890D01*
X21369Y256927D01*
D02*
G37*
G36*
X-15581D02*
X-15891D01*
X-16018Y256908D01*
X-16164Y256890D01*
X-16346Y256872D01*
X-16529Y256817D01*
X-16711Y256763D01*
X-16893Y256672D01*
X-16911Y256653D01*
X-16966Y256617D01*
X-17057Y256562D01*
X-17148Y256489D01*
X-17276Y256398D01*
X-17403Y256289D01*
X-17640Y255997D01*
X-17658Y255979D01*
X-17695Y255925D01*
X-17731Y255833D01*
X-17804Y255724D01*
X-17877Y255578D01*
X-17932Y255414D01*
X-18004Y255232D01*
X-18059Y255032D01*
Y255013D01*
X-18077Y254941D01*
X-18095Y254831D01*
X-18114Y254685D01*
X-18150Y254503D01*
X-18168Y254303D01*
X-18187Y253866D01*
Y253829D01*
Y253738D01*
X-18168Y253592D01*
Y253410D01*
X-18150Y253210D01*
X-18114Y252973D01*
X-18023Y252517D01*
Y252499D01*
X-17986Y252426D01*
X-17950Y252317D01*
X-17895Y252189D01*
X-17749Y251880D01*
X-17549Y251570D01*
X-17531Y251552D01*
X-17494Y251515D01*
X-17421Y251442D01*
X-17330Y251370D01*
X-17221Y251278D01*
X-17093Y251187D01*
X-16802Y251005D01*
X-16784D01*
X-16729Y250969D01*
X-16620Y250950D01*
X-16510Y250914D01*
X-16346Y250877D01*
X-16182Y250859D01*
X-15982Y250823D01*
X-15672D01*
X-15563Y250841D01*
X-15399Y250859D01*
X-15235Y250877D01*
X-15053Y250932D01*
X-14871Y250987D01*
X-14688Y251060D01*
X-14670Y251078D01*
X-14615Y251114D01*
X-14524Y251169D01*
X-14415Y251242D01*
X-14306Y251333D01*
X-14178Y251461D01*
X-13941Y251734D01*
X-13923Y251752D01*
X-13887Y251807D01*
X-13850Y251898D01*
X-13777Y252007D01*
X-13704Y252153D01*
X-13650Y252317D01*
X-13577Y252499D01*
X-13522Y252699D01*
Y252718D01*
X-13504Y252791D01*
X-13468Y252918D01*
X-13449Y253064D01*
X-13413Y253228D01*
X-13395Y253428D01*
X-13376Y253866D01*
Y253902D01*
Y253993D01*
Y254139D01*
X-13395Y254321D01*
X-13413Y254521D01*
X-13449Y254758D01*
X-13504Y254977D01*
X-13559Y255196D01*
Y255214D01*
X-13595Y255287D01*
X-13632Y255396D01*
X-13686Y255542D01*
X-13832Y255833D01*
X-13923Y255997D01*
X-14032Y256143D01*
X-14051Y256161D01*
X-14087Y256198D01*
X-14160Y256271D01*
X-14251Y256362D01*
X-14360Y256453D01*
X-14488Y256544D01*
X-14798Y256726D01*
X-14816Y256744D01*
X-14871Y256763D01*
X-14962Y256799D01*
X-15089Y256836D01*
X-15235Y256872D01*
X-15399Y256890D01*
X-15581Y256927D01*
D02*
G37*
%LPD*%
M02*
