G04*
G04 #@! TF.GenerationSoftware,Altium Limited,Altium Designer,19.1.7 (138)*
G04*
G04 Layer_Physical_Order=1*
G04 Layer_Color=255*
%FSLAX25Y25*%
%MOIN*%
G70*
G01*
G75*
%ADD11C,0.01000*%
%ADD20C,0.04921*%
%ADD21C,0.15748*%
%ADD22C,0.03543*%
%ADD24C,0.05000*%
%ADD25C,0.03937*%
%ADD26C,0.15000*%
%ADD27C,0.24400*%
%ADD28C,0.05906*%
%ADD29C,0.01968*%
G36*
X129811Y154696D02*
X192982D01*
Y154688D01*
X193044Y154696D01*
X203352D01*
X203415Y154688D01*
Y154688D01*
X203882Y154608D01*
X204199Y154545D01*
X204865Y154101D01*
X205309Y153436D01*
X205462Y152664D01*
X205460Y152651D01*
Y150760D01*
X204960Y150591D01*
X204665Y150975D01*
X204005Y151481D01*
X203236Y151800D01*
X202411Y151908D01*
X201586Y151800D01*
X200817Y151481D01*
X200157Y150975D01*
X199650Y150314D01*
X199332Y149546D01*
X199223Y148720D01*
X199332Y147895D01*
X199650Y147126D01*
X200157Y146466D01*
X200817Y145960D01*
X201586Y145641D01*
X202411Y145533D01*
X203236Y145641D01*
X204005Y145960D01*
X204665Y146466D01*
X204960Y146850D01*
X205460Y146681D01*
Y140760D01*
X204960Y140591D01*
X204665Y140975D01*
X204005Y141481D01*
X203236Y141800D01*
X202411Y141908D01*
X201586Y141800D01*
X200817Y141481D01*
X200157Y140975D01*
X199650Y140314D01*
X199332Y139546D01*
X199223Y138720D01*
X199332Y137895D01*
X199650Y137127D01*
X200157Y136466D01*
X200817Y135960D01*
X201586Y135641D01*
X202411Y135532D01*
X203236Y135641D01*
X204005Y135960D01*
X204665Y136466D01*
X204960Y136850D01*
X205460Y136681D01*
Y130760D01*
X204960Y130591D01*
X204665Y130975D01*
X204005Y131481D01*
X203236Y131800D01*
X202411Y131908D01*
X201586Y131800D01*
X200817Y131481D01*
X200157Y130975D01*
X199650Y130314D01*
X199332Y129545D01*
X199223Y128720D01*
X199332Y127895D01*
X199650Y127127D01*
X200157Y126466D01*
X200817Y125960D01*
X201586Y125641D01*
X202411Y125532D01*
X203236Y125641D01*
X204005Y125960D01*
X204665Y126466D01*
X204960Y126850D01*
X205460Y126681D01*
Y120760D01*
X204960Y120591D01*
X204665Y120975D01*
X204005Y121481D01*
X203236Y121800D01*
X202411Y121908D01*
X201586Y121800D01*
X200817Y121481D01*
X200157Y120975D01*
X199650Y120314D01*
X199332Y119545D01*
X199223Y118720D01*
X199332Y117895D01*
X199650Y117127D01*
X200157Y116466D01*
X200817Y115960D01*
X201586Y115641D01*
X202411Y115533D01*
X203236Y115641D01*
X204005Y115960D01*
X204665Y116466D01*
X204960Y116850D01*
X205460Y116681D01*
Y110760D01*
X204960Y110591D01*
X204665Y110975D01*
X204005Y111481D01*
X203236Y111800D01*
X202411Y111908D01*
X201586Y111800D01*
X200817Y111481D01*
X200157Y110975D01*
X199650Y110314D01*
X199332Y109546D01*
X199223Y108720D01*
X199332Y107895D01*
X199650Y107126D01*
X200157Y106466D01*
X200817Y105960D01*
X201586Y105641D01*
X202411Y105533D01*
X203236Y105641D01*
X204005Y105960D01*
X204665Y106466D01*
X204960Y106850D01*
X205460Y106681D01*
Y100760D01*
X204960Y100591D01*
X204665Y100975D01*
X204005Y101481D01*
X203236Y101800D01*
X202411Y101908D01*
X201586Y101800D01*
X200817Y101481D01*
X200157Y100975D01*
X199650Y100314D01*
X199332Y99546D01*
X199223Y98720D01*
X199332Y97895D01*
X199650Y97127D01*
X200157Y96466D01*
X200817Y95960D01*
X201586Y95641D01*
X202411Y95533D01*
X203236Y95641D01*
X204005Y95960D01*
X204665Y96466D01*
X204960Y96850D01*
X205460Y96681D01*
Y90760D01*
X204960Y90591D01*
X204665Y90975D01*
X204005Y91481D01*
X203236Y91800D01*
X202411Y91908D01*
X201586Y91800D01*
X200817Y91481D01*
X200157Y90975D01*
X199650Y90314D01*
X199332Y89546D01*
X199223Y88720D01*
X199332Y87895D01*
X199650Y87126D01*
X200157Y86466D01*
X200817Y85960D01*
X201586Y85641D01*
X202411Y85532D01*
X203236Y85641D01*
X204005Y85960D01*
X204665Y86466D01*
X204960Y86850D01*
X205460Y86681D01*
Y80760D01*
X204960Y80591D01*
X204665Y80975D01*
X204005Y81481D01*
X203236Y81800D01*
X202411Y81908D01*
X201586Y81800D01*
X200817Y81481D01*
X200157Y80975D01*
X199650Y80314D01*
X199332Y79545D01*
X199223Y78720D01*
X199332Y77895D01*
X199650Y77126D01*
X200157Y76466D01*
X200817Y75960D01*
X201586Y75641D01*
X202411Y75533D01*
X203236Y75641D01*
X204005Y75960D01*
X204665Y76466D01*
X204960Y76850D01*
X205460Y76681D01*
Y70760D01*
X204960Y70591D01*
X204665Y70975D01*
X204005Y71481D01*
X203236Y71800D01*
X202411Y71908D01*
X201586Y71800D01*
X200817Y71481D01*
X200157Y70975D01*
X199650Y70314D01*
X199332Y69546D01*
X199223Y68720D01*
X199332Y67895D01*
X199650Y67127D01*
X200157Y66466D01*
X200817Y65960D01*
X201586Y65641D01*
X202411Y65532D01*
X203236Y65641D01*
X204005Y65960D01*
X204665Y66466D01*
X204960Y66850D01*
X205460Y66681D01*
Y60760D01*
X204960Y60591D01*
X204665Y60975D01*
X204005Y61481D01*
X203236Y61800D01*
X202411Y61908D01*
X201586Y61800D01*
X200817Y61481D01*
X200157Y60975D01*
X199650Y60314D01*
X199332Y59545D01*
X199223Y58720D01*
X199332Y57895D01*
X199650Y57126D01*
X200157Y56466D01*
X200817Y55960D01*
X201586Y55641D01*
X202411Y55532D01*
X203236Y55641D01*
X204005Y55960D01*
X204665Y56466D01*
X204960Y56850D01*
X205460Y56681D01*
Y50760D01*
X204960Y50591D01*
X204665Y50975D01*
X204005Y51481D01*
X203236Y51800D01*
X202411Y51908D01*
X201586Y51800D01*
X200817Y51481D01*
X200157Y50975D01*
X199650Y50314D01*
X199332Y49545D01*
X199223Y48720D01*
X199332Y47895D01*
X199650Y47126D01*
X200157Y46466D01*
X200817Y45960D01*
X201586Y45641D01*
X202411Y45533D01*
X203236Y45641D01*
X204005Y45960D01*
X204665Y46466D01*
X204960Y46850D01*
X205460Y46681D01*
Y40760D01*
X204960Y40591D01*
X204665Y40975D01*
X204005Y41481D01*
X203236Y41800D01*
X202411Y41908D01*
X201586Y41800D01*
X200817Y41481D01*
X200157Y40975D01*
X199650Y40314D01*
X199332Y39546D01*
X199223Y38720D01*
X199332Y37895D01*
X199650Y37126D01*
X200157Y36466D01*
X200817Y35960D01*
X201586Y35641D01*
X202411Y35533D01*
X203236Y35641D01*
X204005Y35960D01*
X204665Y36466D01*
X204960Y36850D01*
X205460Y36681D01*
Y30760D01*
X204960Y30591D01*
X204665Y30975D01*
X204005Y31481D01*
X203236Y31800D01*
X202411Y31908D01*
X201586Y31800D01*
X200817Y31481D01*
X200157Y30975D01*
X199650Y30314D01*
X199332Y29546D01*
X199223Y28720D01*
X199332Y27895D01*
X199650Y27127D01*
X200157Y26466D01*
X200817Y25960D01*
X201586Y25641D01*
X202411Y25532D01*
X203236Y25641D01*
X204005Y25960D01*
X204665Y26466D01*
X204960Y26850D01*
X205460Y26681D01*
Y20760D01*
X204960Y20591D01*
X204665Y20975D01*
X204005Y21481D01*
X203236Y21800D01*
X202411Y21908D01*
X201586Y21800D01*
X200817Y21481D01*
X200157Y20975D01*
X199650Y20314D01*
X199332Y19545D01*
X199223Y18720D01*
X199332Y17895D01*
X199650Y17127D01*
X200157Y16466D01*
X200817Y15960D01*
X201586Y15641D01*
X202411Y15532D01*
X203236Y15641D01*
X204005Y15960D01*
X204665Y16466D01*
X204960Y16850D01*
X205460Y16681D01*
Y-8747D01*
X204960Y-8917D01*
X204879Y-8811D01*
X204156Y-8257D01*
X203314Y-7908D01*
X202411Y-7789D01*
X201507Y-7908D01*
X200666Y-8257D01*
X199943Y-8811D01*
X199388Y-9534D01*
X199039Y-10376D01*
X198921Y-11280D01*
X199039Y-12183D01*
X199388Y-13025D01*
X199943Y-13748D01*
X200666Y-14302D01*
X201507Y-14651D01*
X202411Y-14770D01*
X203314Y-14651D01*
X204156Y-14302D01*
X204879Y-13748D01*
X204960Y-13643D01*
X205460Y-13812D01*
Y-19240D01*
X204960Y-19409D01*
X204665Y-19025D01*
X204005Y-18519D01*
X203236Y-18200D01*
X202411Y-18092D01*
X201586Y-18200D01*
X200817Y-18519D01*
X200157Y-19025D01*
X199650Y-19686D01*
X199332Y-20455D01*
X199223Y-21280D01*
X199332Y-22105D01*
X199650Y-22873D01*
X200157Y-23534D01*
X200817Y-24040D01*
X201586Y-24359D01*
X202411Y-24467D01*
X203236Y-24359D01*
X204005Y-24040D01*
X204665Y-23534D01*
X204960Y-23150D01*
X205460Y-23319D01*
Y-29240D01*
X204960Y-29409D01*
X204665Y-29025D01*
X204005Y-28519D01*
X203236Y-28200D01*
X202411Y-28092D01*
X201586Y-28200D01*
X200817Y-28519D01*
X200157Y-29025D01*
X199650Y-29686D01*
X199332Y-30454D01*
X199223Y-31280D01*
X199332Y-32105D01*
X199650Y-32873D01*
X200157Y-33534D01*
X200817Y-34040D01*
X201586Y-34359D01*
X202411Y-34468D01*
X203236Y-34359D01*
X204005Y-34040D01*
X204665Y-33534D01*
X204960Y-33150D01*
X205460Y-33319D01*
Y-39240D01*
X204960Y-39409D01*
X204665Y-39025D01*
X204005Y-38519D01*
X203236Y-38200D01*
X202411Y-38092D01*
X201586Y-38200D01*
X200817Y-38519D01*
X200157Y-39025D01*
X199650Y-39686D01*
X199332Y-40455D01*
X199223Y-41280D01*
X199332Y-42105D01*
X199650Y-42873D01*
X200157Y-43534D01*
X200817Y-44040D01*
X201586Y-44359D01*
X202411Y-44467D01*
X203236Y-44359D01*
X204005Y-44040D01*
X204665Y-43534D01*
X204960Y-43150D01*
X205460Y-43319D01*
Y-49240D01*
X204960Y-49409D01*
X204665Y-49025D01*
X204005Y-48519D01*
X203236Y-48200D01*
X202411Y-48092D01*
X201586Y-48200D01*
X200817Y-48519D01*
X200157Y-49025D01*
X199650Y-49686D01*
X199332Y-50454D01*
X199223Y-51280D01*
X199332Y-52105D01*
X199650Y-52873D01*
X200157Y-53534D01*
X200817Y-54040D01*
X201586Y-54359D01*
X202411Y-54467D01*
X203236Y-54359D01*
X204005Y-54040D01*
X204665Y-53534D01*
X204960Y-53150D01*
X205460Y-53319D01*
Y-59240D01*
X204960Y-59409D01*
X204665Y-59025D01*
X204005Y-58519D01*
X203236Y-58200D01*
X202411Y-58092D01*
X201586Y-58200D01*
X200817Y-58519D01*
X200157Y-59025D01*
X199650Y-59686D01*
X199332Y-60454D01*
X199223Y-61280D01*
X199332Y-62105D01*
X199650Y-62874D01*
X200157Y-63534D01*
X200817Y-64040D01*
X201586Y-64359D01*
X202411Y-64468D01*
X203236Y-64359D01*
X204005Y-64040D01*
X204665Y-63534D01*
X204960Y-63150D01*
X205460Y-63319D01*
Y-69240D01*
X204960Y-69409D01*
X204665Y-69025D01*
X204005Y-68519D01*
X203236Y-68200D01*
X202411Y-68092D01*
X201586Y-68200D01*
X200817Y-68519D01*
X200157Y-69025D01*
X199650Y-69686D01*
X199332Y-70455D01*
X199223Y-71280D01*
X199332Y-72105D01*
X199650Y-72874D01*
X200157Y-73534D01*
X200817Y-74040D01*
X201586Y-74359D01*
X202411Y-74467D01*
X203236Y-74359D01*
X204005Y-74040D01*
X204665Y-73534D01*
X204960Y-73150D01*
X205460Y-73319D01*
Y-79240D01*
X204960Y-79409D01*
X204665Y-79025D01*
X204005Y-78519D01*
X203236Y-78200D01*
X202411Y-78092D01*
X201586Y-78200D01*
X200817Y-78519D01*
X200157Y-79025D01*
X199650Y-79686D01*
X199332Y-80454D01*
X199223Y-81280D01*
X199332Y-82105D01*
X199650Y-82873D01*
X200157Y-83534D01*
X200817Y-84040D01*
X201586Y-84359D01*
X202411Y-84468D01*
X203236Y-84359D01*
X204005Y-84040D01*
X204665Y-83534D01*
X204960Y-83150D01*
X205460Y-83319D01*
Y-89240D01*
X204960Y-89409D01*
X204665Y-89025D01*
X204005Y-88519D01*
X203236Y-88200D01*
X202411Y-88092D01*
X201586Y-88200D01*
X200817Y-88519D01*
X200157Y-89025D01*
X199650Y-89686D01*
X199332Y-90455D01*
X199223Y-91280D01*
X199332Y-92105D01*
X199650Y-92874D01*
X200157Y-93534D01*
X200817Y-94040D01*
X201586Y-94359D01*
X202411Y-94468D01*
X203236Y-94359D01*
X204005Y-94040D01*
X204665Y-93534D01*
X204960Y-93150D01*
X205460Y-93319D01*
Y-99240D01*
X204960Y-99409D01*
X204665Y-99025D01*
X204005Y-98519D01*
X203236Y-98200D01*
X202411Y-98092D01*
X201586Y-98200D01*
X200817Y-98519D01*
X200157Y-99025D01*
X199650Y-99686D01*
X199332Y-100454D01*
X199223Y-101280D01*
X199332Y-102105D01*
X199650Y-102874D01*
X200157Y-103534D01*
X200817Y-104040D01*
X201586Y-104359D01*
X202411Y-104467D01*
X203236Y-104359D01*
X204005Y-104040D01*
X204665Y-103534D01*
X204960Y-103150D01*
X205460Y-103319D01*
Y-105407D01*
X205462Y-105420D01*
X205309Y-106192D01*
X204865Y-106857D01*
X204199Y-107301D01*
X203882Y-107364D01*
X203415Y-107444D01*
X202918Y-107452D01*
X193044D01*
X192982Y-107444D01*
Y-107452D01*
X168376D01*
Y-107444D01*
X167569Y-107338D01*
X166818Y-107027D01*
X166173Y-106532D01*
X165678Y-105887D01*
X165367Y-105136D01*
X165261Y-104330D01*
X165253D01*
Y-42324D01*
X165278D01*
X165118Y-41109D01*
X165150Y-41071D01*
X165565Y-40849D01*
X166168Y-41452D01*
Y-56260D01*
X166261Y-56728D01*
X166526Y-57125D01*
X169485Y-60084D01*
X169332Y-60454D01*
X169223Y-61280D01*
X169332Y-62105D01*
X169650Y-62874D01*
X170157Y-63534D01*
X170817Y-64040D01*
X171586Y-64359D01*
X172411Y-64468D01*
X173236Y-64359D01*
X174005Y-64040D01*
X174665Y-63534D01*
X175172Y-62874D01*
X175490Y-62105D01*
X175599Y-61280D01*
X175490Y-60454D01*
X175172Y-59686D01*
X174665Y-59025D01*
X174005Y-58519D01*
X173236Y-58200D01*
X172411Y-58092D01*
X171586Y-58200D01*
X171215Y-58354D01*
X168615Y-55753D01*
Y-40945D01*
X168522Y-40477D01*
X168256Y-40080D01*
X163949Y-35772D01*
X163552Y-35507D01*
X163084Y-35414D01*
X130911D01*
X130719Y-34952D01*
X156014Y-9657D01*
X156051Y-9656D01*
X156534Y-9845D01*
X156626Y-10551D01*
X156979Y-11402D01*
X157540Y-12133D01*
X162466Y-17059D01*
X163197Y-17620D01*
X164049Y-17973D01*
X164962Y-18093D01*
X165876Y-17973D01*
X166727Y-17620D01*
X167458Y-17059D01*
X168019Y-16328D01*
X168372Y-15477D01*
X168492Y-14563D01*
X168372Y-13649D01*
X168019Y-12798D01*
X167458Y-12067D01*
X162533Y-7141D01*
X162533Y-7141D01*
X161801Y-6580D01*
X160950Y-6227D01*
X160244Y-6134D01*
X160045Y-5627D01*
X171393Y5721D01*
X171586Y5641D01*
X172411Y5533D01*
X173236Y5641D01*
X174005Y5960D01*
X174665Y6466D01*
X175172Y7126D01*
X175490Y7895D01*
X175599Y8720D01*
X175490Y9545D01*
X175172Y10314D01*
X174665Y10975D01*
X174005Y11481D01*
X173236Y11800D01*
X172411Y11908D01*
X171586Y11800D01*
X170817Y11481D01*
X170157Y10975D01*
X169650Y10314D01*
X169332Y9545D01*
X169223Y8720D01*
X169332Y7895D01*
X169559Y7348D01*
X153377Y-8834D01*
X152961Y-8556D01*
X153118Y-8178D01*
X153592Y-6204D01*
X153751Y-4180D01*
X153592Y-2155D01*
X153118Y-181D01*
X152340Y1695D01*
X151279Y3426D01*
X149961Y4970D01*
X148417Y6289D01*
X146686Y7350D01*
X144810Y8127D01*
X142835Y8601D01*
X140811Y8760D01*
X138787Y8601D01*
X136812Y8127D01*
X134936Y7350D01*
X133205Y6289D01*
X131661Y4970D01*
X130342Y3426D01*
X129281Y1695D01*
X128504Y-181D01*
X128030Y-2155D01*
X127871Y-4180D01*
X128030Y-6204D01*
X128504Y-8178D01*
X129281Y-10054D01*
X130342Y-11785D01*
X131661Y-13329D01*
X133205Y-14648D01*
X134936Y-15709D01*
X136812Y-16486D01*
X138787Y-16960D01*
X140811Y-17120D01*
X142835Y-16960D01*
X144810Y-16486D01*
X145188Y-16330D01*
X145465Y-16745D01*
X128788Y-33422D01*
X126756D01*
X124434Y-31100D01*
X124690Y-30481D01*
X124816Y-29528D01*
X124690Y-28574D01*
X124322Y-27685D01*
X123737Y-26922D01*
X122974Y-26337D01*
X122085Y-25969D01*
X121131Y-25843D01*
X120178Y-25969D01*
X119289Y-26337D01*
X118526Y-26922D01*
X117941Y-27685D01*
X117573Y-28574D01*
X117447Y-29528D01*
X117573Y-30481D01*
X117941Y-31370D01*
X118526Y-32133D01*
X119289Y-32718D01*
X119782Y-32922D01*
X119682Y-33422D01*
X106833D01*
X106733Y-32922D01*
X107226Y-32718D01*
X107989Y-32133D01*
X108574Y-31370D01*
X108942Y-30481D01*
X109068Y-29528D01*
X108942Y-28574D01*
X108574Y-27685D01*
X107989Y-26922D01*
X107226Y-26337D01*
X106337Y-25969D01*
X105383Y-25843D01*
X104430Y-25969D01*
X103541Y-26337D01*
X102778Y-26922D01*
X102193Y-27685D01*
X101825Y-28574D01*
X101699Y-29528D01*
X101825Y-30481D01*
X102193Y-31370D01*
X102778Y-32133D01*
X103541Y-32718D01*
X104034Y-32922D01*
X103934Y-33422D01*
X77642D01*
X53173Y-8953D01*
Y-6606D01*
X53080Y-6137D01*
X52815Y-5740D01*
X50146Y-3072D01*
X49749Y-2807D01*
X49630Y-2783D01*
X49498Y-2254D01*
X50005Y-1594D01*
X50323Y-825D01*
X50432Y0D01*
X50323Y825D01*
X50005Y1594D01*
X49498Y2254D01*
X48838Y2761D01*
X48069Y3079D01*
X47244Y3188D01*
X46419Y3079D01*
X45650Y2761D01*
X44990Y2254D01*
X44483Y1594D01*
X44165Y825D01*
X44056Y0D01*
X44165Y-825D01*
X44483Y-1594D01*
X44959Y-2214D01*
X44899Y-2523D01*
X44834Y-2713D01*
X43307D01*
X42839Y-2807D01*
X42442Y-3072D01*
X40566Y-4948D01*
X40195Y-4795D01*
X39370Y-4686D01*
X38545Y-4795D01*
X37776Y-5113D01*
X37116Y-5620D01*
X36609Y-6280D01*
X36291Y-7049D01*
X36182Y-7874D01*
X36291Y-8699D01*
X36609Y-9468D01*
X37116Y-10128D01*
X37776Y-10635D01*
X38147Y-10788D01*
Y-32436D01*
X37160Y-33422D01*
X-32693D01*
X-41031Y-25084D01*
Y30202D01*
X-29149Y42083D01*
X-1900D01*
X-1432Y42177D01*
X-1035Y42442D01*
X4871Y48347D01*
X5136Y48744D01*
X5229Y49213D01*
Y50740D01*
X5419Y50804D01*
X5729Y50864D01*
X6348Y50389D01*
X7117Y50070D01*
X7942Y49962D01*
X8767Y50070D01*
X9536Y50389D01*
X10197Y50895D01*
X10703Y51556D01*
X11022Y52324D01*
X11130Y53150D01*
X11022Y53975D01*
X10703Y54743D01*
X10197Y55404D01*
X9536Y55910D01*
X8767Y56229D01*
X7942Y56337D01*
X7117Y56229D01*
X6348Y55910D01*
X5729Y55435D01*
X5419Y55495D01*
X5229Y55560D01*
Y56580D01*
X6747Y58098D01*
X7117Y57944D01*
X7942Y57836D01*
X8767Y57944D01*
X9536Y58263D01*
X10197Y58769D01*
X10703Y59430D01*
X11022Y60198D01*
X11130Y61024D01*
X11022Y61849D01*
X10703Y62617D01*
X10197Y63278D01*
X9536Y63784D01*
X8767Y64103D01*
X7942Y64211D01*
X7117Y64103D01*
X6348Y63784D01*
X5688Y63278D01*
X5182Y62617D01*
X4863Y61849D01*
X4755Y61024D01*
X4863Y60198D01*
X5017Y59828D01*
X3140Y57952D01*
X2875Y57555D01*
X2782Y57087D01*
Y55560D01*
X2592Y55495D01*
X2282Y55435D01*
X1662Y55910D01*
X893Y56229D01*
X68Y56337D01*
X-757Y56229D01*
X-1526Y55910D01*
X-2186Y55404D01*
X-2614Y54846D01*
X-3056Y54944D01*
X-3114Y54976D01*
Y56111D01*
X-1127Y58098D01*
X-757Y57944D01*
X68Y57836D01*
X893Y57944D01*
X1662Y58263D01*
X2323Y58769D01*
X2829Y59430D01*
X3148Y60198D01*
X3256Y61024D01*
X3148Y61849D01*
X2829Y62617D01*
X2323Y63278D01*
X1662Y63784D01*
X893Y64103D01*
X68Y64211D01*
X-757Y64103D01*
X-1526Y63784D01*
X-2186Y63278D01*
X-2692Y62617D01*
X-3011Y61849D01*
X-3119Y61024D01*
X-3011Y60198D01*
X-2857Y59828D01*
X-5202Y57483D01*
X-5468Y57086D01*
X-5561Y56618D01*
Y49251D01*
X-8312Y46499D01*
X-30837D01*
X-31305Y46406D01*
X-31702Y46141D01*
X-44430Y33413D01*
X-44941Y33311D01*
X-45499Y32939D01*
X-45871Y32382D01*
X-46002Y31724D01*
X-45871Y31067D01*
X-45499Y30510D01*
X-45478Y30496D01*
Y-25995D01*
X-45385Y-26463D01*
X-45120Y-26860D01*
X-34909Y-37070D01*
X-35116Y-37570D01*
X-84577D01*
Y-37562D01*
X-84640Y-37570D01*
X-133727D01*
X-133790Y-37562D01*
Y-37570D01*
X-133795Y-37571D01*
X-134773D01*
Y-37564D01*
X-135579Y-37457D01*
X-136330Y-37146D01*
X-136976Y-36651D01*
X-137470Y-36006D01*
X-137782Y-35255D01*
X-137888Y-34449D01*
X-137895D01*
Y151574D01*
X-137889D01*
X-137783Y152380D01*
X-137471Y153131D01*
X-136977Y153776D01*
X-136331Y154271D01*
X-135580Y154582D01*
X-134774Y154688D01*
Y154696D01*
X-133790D01*
Y154688D01*
X-133727Y154696D01*
X-104325D01*
X-104262Y154688D01*
Y154696D01*
X6551D01*
X6562Y154698D01*
X7696Y154549D01*
X8763Y154107D01*
X9679Y153404D01*
X10383Y152488D01*
X10824Y151421D01*
X10974Y150286D01*
X10972Y150276D01*
Y103505D01*
X10954D01*
X11085Y102178D01*
X11473Y100901D01*
X12101Y99725D01*
X12948Y98693D01*
X13979Y97847D01*
X15155Y97218D01*
X16432Y96831D01*
X17759Y96700D01*
Y96717D01*
X85111D01*
X85139Y96723D01*
X86431Y96553D01*
X87660Y96044D01*
X88717Y95233D01*
X89527Y94177D01*
X90036Y92947D01*
X90206Y91656D01*
X90201Y91628D01*
X90230Y91482D01*
Y53960D01*
X90197D01*
X90390Y51023D01*
X90964Y48136D01*
X91910Y45349D01*
X93212Y42709D01*
X94847Y40262D01*
X96788Y38049D01*
X99001Y36108D01*
X101448Y34473D01*
X104088Y33171D01*
X106875Y32225D01*
X109762Y31651D01*
X112699Y31458D01*
X115636Y31651D01*
X118523Y32225D01*
X121310Y33171D01*
X123950Y34473D01*
X126397Y36108D01*
X128610Y38049D01*
X130551Y40262D01*
X132186Y42709D01*
X132158Y42725D01*
X132158Y42725D01*
X155022Y82326D01*
X155066Y82338D01*
X155066D01*
X156368Y84978D01*
X157314Y87765D01*
X157888Y90652D01*
X158081Y93589D01*
X157888Y96526D01*
X157314Y99413D01*
X156368Y102200D01*
X155066Y104840D01*
X153431Y107287D01*
X151490Y109500D01*
X149277Y111441D01*
X146830Y113076D01*
X144190Y114378D01*
X141403Y115324D01*
X138516Y115898D01*
X135579Y116091D01*
Y116091D01*
X135084Y116104D01*
X134048Y116206D01*
X132575Y116652D01*
X131218Y117378D01*
X130029Y118354D01*
X129052Y119543D01*
X128327Y120900D01*
X127881Y122373D01*
X127775Y123442D01*
X127733Y123924D01*
X127733Y123925D01*
X127733Y124422D01*
Y127892D01*
X128233Y127951D01*
X128504Y126822D01*
X129281Y124946D01*
X130342Y123215D01*
X131661Y121671D01*
X133205Y120352D01*
X134936Y119291D01*
X136812Y118514D01*
X138787Y118040D01*
X140811Y117880D01*
X142835Y118040D01*
X144810Y118514D01*
X146686Y119291D01*
X148417Y120352D01*
X149961Y121671D01*
X151279Y123215D01*
X152340Y124946D01*
X153118Y126822D01*
X153592Y128796D01*
X153751Y130820D01*
X153592Y132845D01*
X153118Y134819D01*
X152340Y136695D01*
X151279Y138426D01*
X149961Y139970D01*
X148417Y141289D01*
X146686Y142350D01*
X144810Y143127D01*
X142835Y143601D01*
X140811Y143760D01*
X138787Y143601D01*
X136812Y143127D01*
X134936Y142350D01*
X133205Y141289D01*
X131661Y139970D01*
X130342Y138426D01*
X129281Y136695D01*
X128504Y134819D01*
X128233Y133690D01*
X127733Y133749D01*
Y152486D01*
X127766Y152651D01*
X127763Y152664D01*
X127917Y153436D01*
X128361Y154101D01*
X129026Y154545D01*
X129798Y154699D01*
X129811Y154696D01*
D02*
G37*
G36*
X44898Y-5350D02*
X44959Y-5661D01*
X44483Y-6280D01*
X44165Y-7049D01*
X44056Y-7874D01*
X44165Y-8699D01*
X44483Y-9468D01*
X44990Y-10128D01*
X45650Y-10635D01*
X46419Y-10953D01*
X47244Y-11062D01*
X48069Y-10953D01*
X48455Y-10793D01*
X72613Y-34952D01*
X72422Y-35414D01*
X39283D01*
X39091Y-34952D01*
X40235Y-33808D01*
X40501Y-33411D01*
X40594Y-32943D01*
Y-10788D01*
X40964Y-10635D01*
X41624Y-10128D01*
X42131Y-9468D01*
X42449Y-8699D01*
X42558Y-7874D01*
X42449Y-7049D01*
X42296Y-6679D01*
X43814Y-5161D01*
X44834D01*
X44898Y-5350D01*
D02*
G37*
G36*
X11286Y258129D02*
X11377D01*
X11505Y258111D01*
X11796Y258038D01*
X12106Y257947D01*
X12416Y257801D01*
X12725Y257582D01*
X12871Y257455D01*
X12999Y257309D01*
X13035Y257273D01*
X13054Y257218D01*
X13108Y257164D01*
X13145Y257072D01*
X13199Y256963D01*
X13272Y256836D01*
X13327Y256690D01*
X13381Y256526D01*
X13436Y256362D01*
X13491Y256161D01*
X13545Y255943D01*
X13582Y255688D01*
X13600Y255433D01*
X13618Y255159D01*
Y254868D01*
X12179D01*
Y254886D01*
Y254922D01*
Y254977D01*
Y255050D01*
X12161Y255232D01*
X12143Y255451D01*
X12106Y255706D01*
X12051Y255961D01*
X11960Y256216D01*
X11851Y256416D01*
X11833Y256435D01*
X11796Y256489D01*
X11705Y256580D01*
X11596Y256672D01*
X11450Y256744D01*
X11286Y256836D01*
X11086Y256890D01*
X10849Y256908D01*
X10740D01*
X10685Y256890D01*
X10503Y256872D01*
X10284Y256799D01*
X10266D01*
X10229Y256781D01*
X10175Y256763D01*
X10102Y256726D01*
X9901Y256617D01*
X9683Y256471D01*
X9664Y256453D01*
X9628Y256435D01*
X9573Y256380D01*
X9482Y256325D01*
X9282Y256125D01*
X9027Y255888D01*
X9009Y255870D01*
X8972Y255833D01*
X8899Y255761D01*
X8808Y255651D01*
X8699Y255524D01*
X8571Y255396D01*
X8444Y255232D01*
X8298Y255050D01*
Y249766D01*
X6859D01*
Y258002D01*
X8152D01*
X8189Y256471D01*
Y256489D01*
X8225Y256507D01*
X8316Y256617D01*
X8462Y256763D01*
X8644Y256963D01*
X8863Y257164D01*
X9100Y257382D01*
X9355Y257582D01*
X9628Y257747D01*
X9664Y257765D01*
X9756Y257801D01*
X9883Y257874D01*
X10084Y257947D01*
X10284Y258020D01*
X10539Y258093D01*
X10794Y258129D01*
X11067Y258147D01*
X11195D01*
X11286Y258129D01*
D02*
G37*
G36*
X-7426Y250641D02*
Y250623D01*
X-7444Y250586D01*
X-7462Y250531D01*
X-7499Y250459D01*
X-7590Y250240D01*
X-7699Y249985D01*
X-7845Y249693D01*
X-7991Y249365D01*
X-8155Y249037D01*
X-8337Y248728D01*
X-8355Y248691D01*
X-8410Y248600D01*
X-8501Y248436D01*
X-8628Y248254D01*
X-8774Y248035D01*
X-8956Y247817D01*
X-9138Y247598D01*
X-9339Y247379D01*
X-9357Y247361D01*
X-9430Y247288D01*
X-9539Y247197D01*
X-9685Y247088D01*
X-9867Y246960D01*
X-10068Y246833D01*
X-10305Y246723D01*
X-10541Y246614D01*
X-10578Y246596D01*
X-10651Y246578D01*
X-10796Y246541D01*
X-10979Y246486D01*
X-11197Y246432D01*
X-11434Y246395D01*
X-11726Y246377D01*
X-12017Y246359D01*
X-12272D01*
X-12418Y246377D01*
X-12637D01*
X-12783Y246395D01*
Y247689D01*
X-12746D01*
X-12673Y247671D01*
X-12546D01*
X-12400Y247653D01*
X-12363D01*
X-12254Y247634D01*
X-12108Y247616D01*
X-11799D01*
X-11708Y247634D01*
X-11452Y247671D01*
X-11197Y247744D01*
X-11179D01*
X-11143Y247762D01*
X-11070Y247798D01*
X-10979Y247835D01*
X-10778Y247944D01*
X-10560Y248108D01*
X-10541Y248126D01*
X-10505Y248163D01*
X-10450Y248217D01*
X-10378Y248290D01*
X-10286Y248381D01*
X-10177Y248509D01*
X-9977Y248782D01*
X-9958Y248800D01*
X-9922Y248855D01*
X-9867Y248946D01*
X-9794Y249056D01*
X-9721Y249201D01*
X-9630Y249383D01*
X-9521Y249566D01*
X-9430Y249766D01*
X-12710Y258002D01*
X-11088D01*
X-9011Y252536D01*
X-8592Y251260D01*
X-8118Y252572D01*
X-6187Y258002D01*
X-4620D01*
X-7426Y250641D01*
D02*
G37*
G36*
X74673Y260461D02*
X74910Y260443D01*
X75165Y260407D01*
X75712Y260297D01*
X75748D01*
X75840Y260261D01*
X75967Y260224D01*
X76149Y260152D01*
X76350Y260079D01*
X76550Y259969D01*
X76769Y259860D01*
X76987Y259714D01*
X77006Y259696D01*
X77078Y259641D01*
X77188Y259569D01*
X77315Y259441D01*
X77461Y259295D01*
X77607Y259131D01*
X77753Y258931D01*
X77880Y258712D01*
X77899Y258676D01*
X77935Y258603D01*
X77990Y258475D01*
X78044Y258293D01*
X78099Y258074D01*
X78154Y257819D01*
X78190Y257528D01*
X78208Y257200D01*
Y257164D01*
Y257091D01*
X78190Y256963D01*
X78172Y256799D01*
X78154Y256599D01*
X78099Y256362D01*
X78044Y256125D01*
X77953Y255888D01*
X77935Y255852D01*
X77917Y255779D01*
X77844Y255651D01*
X77771Y255505D01*
X77662Y255323D01*
X77534Y255141D01*
X77370Y254941D01*
X77188Y254740D01*
X77170Y254722D01*
X77097Y254649D01*
X76987Y254558D01*
X76842Y254449D01*
X76641Y254321D01*
X76423Y254175D01*
X76168Y254048D01*
X75876Y253920D01*
X75840Y253902D01*
X75730Y253866D01*
X75566Y253829D01*
X75329Y253774D01*
X75056Y253702D01*
X74728Y253665D01*
X74346Y253629D01*
X73945Y253611D01*
X72633D01*
Y249766D01*
X71175D01*
Y260479D01*
X74473D01*
X74673Y260461D01*
D02*
G37*
G36*
X59934Y259241D02*
X56763D01*
Y249766D01*
X55287Y249766D01*
Y259241D01*
X52117D01*
Y260479D01*
X59934Y260479D01*
Y259241D01*
D02*
G37*
G36*
X29488Y251096D02*
X31875D01*
Y249766D01*
X25152D01*
Y251096D01*
X27903D01*
Y258913D01*
X25334Y257528D01*
X24824Y258749D01*
X28212Y260534D01*
X29488D01*
Y251096D01*
D02*
G37*
G36*
X-17374Y258129D02*
X-17174Y258111D01*
X-16937Y258074D01*
X-16481Y257983D01*
X-16463D01*
X-16372Y257947D01*
X-16262Y257910D01*
X-16135Y257856D01*
X-15971Y257783D01*
X-15807Y257692D01*
X-15643Y257601D01*
X-15479Y257473D01*
X-15461Y257455D01*
X-15406Y257418D01*
X-15333Y257346D01*
X-15242Y257255D01*
X-15133Y257127D01*
X-15024Y256981D01*
X-14932Y256817D01*
X-14841Y256635D01*
X-14823Y256617D01*
X-14805Y256544D01*
X-14769Y256435D01*
X-14714Y256289D01*
X-14677Y256125D01*
X-14641Y255906D01*
X-14623Y255688D01*
X-14604Y255433D01*
Y249766D01*
X-15898D01*
X-15935Y250859D01*
X-15971Y250823D01*
X-16044Y250750D01*
X-16190Y250641D01*
X-16354Y250495D01*
X-16572Y250349D01*
X-16791Y250185D01*
X-17046Y250039D01*
X-17301Y249912D01*
X-17337Y249894D01*
X-17429Y249875D01*
X-17556Y249821D01*
X-17738Y249766D01*
X-17957Y249711D01*
X-18212Y249675D01*
X-18467Y249639D01*
X-18759Y249620D01*
X-18868D01*
X-18995Y249639D01*
X-19160D01*
X-19360Y249657D01*
X-19560Y249693D01*
X-19961Y249784D01*
X-19979D01*
X-20034Y249821D01*
X-20125Y249857D01*
X-20253Y249912D01*
X-20508Y250076D01*
X-20781Y250276D01*
X-20799Y250294D01*
X-20836Y250331D01*
X-20890Y250404D01*
X-20963Y250495D01*
X-21036Y250604D01*
X-21127Y250732D01*
X-21255Y251023D01*
Y251042D01*
X-21273Y251096D01*
X-21291Y251187D01*
X-21328Y251297D01*
X-21346Y251442D01*
X-21382Y251606D01*
X-21401Y251953D01*
Y251971D01*
Y252007D01*
Y252080D01*
X-21382Y252153D01*
X-21364Y252262D01*
X-21346Y252390D01*
X-21291Y252663D01*
X-21182Y252973D01*
X-21018Y253301D01*
X-20909Y253465D01*
X-20781Y253610D01*
X-20653Y253756D01*
X-20490Y253902D01*
X-20471D01*
X-20453Y253939D01*
X-20398Y253975D01*
X-20307Y254011D01*
X-20216Y254066D01*
X-20107Y254121D01*
X-19961Y254194D01*
X-19797Y254267D01*
X-19615Y254321D01*
X-19415Y254394D01*
X-19196Y254449D01*
X-18941Y254503D01*
X-18686Y254540D01*
X-18394Y254576D01*
X-18085Y254613D01*
X-16044D01*
Y255323D01*
Y255360D01*
Y255451D01*
X-16062Y255578D01*
X-16098Y255742D01*
X-16153Y255925D01*
X-16244Y256125D01*
X-16354Y256307D01*
X-16518Y256489D01*
X-16536Y256507D01*
X-16609Y256562D01*
X-16718Y256635D01*
X-16864Y256708D01*
X-17064Y256781D01*
X-17319Y256854D01*
X-17611Y256908D01*
X-17939Y256927D01*
X-18194D01*
X-18376Y256908D01*
X-18595Y256890D01*
X-18813Y256854D01*
X-19323Y256763D01*
X-19360D01*
X-19433Y256726D01*
X-19579Y256690D01*
X-19742Y256653D01*
X-19961Y256580D01*
X-20198Y256507D01*
X-20453Y256416D01*
X-20708Y256325D01*
Y257619D01*
X-20690D01*
X-20653Y257637D01*
X-20617Y257655D01*
X-20544Y257674D01*
X-20362Y257728D01*
X-20125Y257801D01*
X-20107D01*
X-20071Y257819D01*
X-19998Y257838D01*
X-19906Y257856D01*
X-19670Y257910D01*
X-19415Y257965D01*
X-19396D01*
X-19342Y257983D01*
X-19269Y258002D01*
X-19178Y258020D01*
X-19068Y258038D01*
X-18941Y258056D01*
X-18649Y258093D01*
X-18631D01*
X-18576Y258111D01*
X-18504D01*
X-18394Y258129D01*
X-18267D01*
X-18139Y258147D01*
X-17556D01*
X-17374Y258129D01*
D02*
G37*
G36*
X-28342Y251005D02*
X-23642D01*
Y249766D01*
X-29818D01*
Y260479D01*
X-28342D01*
Y251005D01*
D02*
G37*
G36*
X65709Y260625D02*
X65946Y260589D01*
X66238Y260552D01*
X66529Y260479D01*
X66839Y260388D01*
X67130Y260261D01*
X67167Y260243D01*
X67258Y260188D01*
X67404Y260097D01*
X67586Y259988D01*
X67786Y259824D01*
X67987Y259641D01*
X68205Y259423D01*
X68406Y259168D01*
X68424Y259131D01*
X68497Y259040D01*
X68588Y258894D01*
X68697Y258694D01*
X68825Y258439D01*
X68952Y258147D01*
X69062Y257819D01*
X69171Y257455D01*
Y257437D01*
X69189Y257418D01*
Y257364D01*
X69208Y257273D01*
X69226Y257182D01*
X69244Y257072D01*
X69299Y256799D01*
X69353Y256471D01*
X69390Y256088D01*
X69408Y255651D01*
X69426Y255196D01*
Y255177D01*
Y255141D01*
Y255050D01*
Y254959D01*
X69408Y254831D01*
Y254685D01*
X69390Y254339D01*
X69335Y253957D01*
X69280Y253538D01*
X69189Y253119D01*
X69080Y252700D01*
Y252681D01*
X69062Y252645D01*
X69043Y252590D01*
X69025Y252517D01*
X68934Y252335D01*
X68843Y252080D01*
X68697Y251807D01*
X68552Y251515D01*
X68351Y251224D01*
X68151Y250950D01*
X68133Y250914D01*
X68060Y250841D01*
X67932Y250714D01*
X67768Y250568D01*
X67568Y250404D01*
X67349Y250240D01*
X67094Y250094D01*
X66803Y249948D01*
X66766Y249930D01*
X66675Y249894D01*
X66511Y249839D01*
X66311Y249784D01*
X66074Y249730D01*
X65800Y249675D01*
X65491Y249639D01*
X65181Y249620D01*
X64999D01*
X64816Y249639D01*
X64561Y249675D01*
X64288Y249711D01*
X63978Y249766D01*
X63669Y249857D01*
X63377Y249985D01*
X63341Y250003D01*
X63250Y250058D01*
X63104Y250149D01*
X62940Y250258D01*
X62721Y250422D01*
X62521Y250604D01*
X62302Y250823D01*
X62102Y251060D01*
X62084Y251096D01*
X62011Y251187D01*
X61919Y251333D01*
X61810Y251534D01*
X61701Y251789D01*
X61573Y252080D01*
X61464Y252408D01*
X61355Y252772D01*
Y252791D01*
X61336Y252827D01*
Y252882D01*
X61318Y252955D01*
X61300Y253046D01*
X61282Y253155D01*
X61245Y253447D01*
X61191Y253774D01*
X61154Y254175D01*
X61136Y254613D01*
X61118Y255068D01*
Y255086D01*
Y255123D01*
Y255214D01*
Y255305D01*
X61136Y255433D01*
Y255578D01*
X61154Y255906D01*
X61191Y256307D01*
X61264Y256708D01*
X61336Y257145D01*
X61446Y257546D01*
Y257564D01*
X61464Y257601D01*
X61482Y257655D01*
X61501Y257728D01*
X61573Y257910D01*
X61683Y258166D01*
X61810Y258439D01*
X61974Y258730D01*
X62156Y259004D01*
X62357Y259277D01*
X62375Y259313D01*
X62466Y259386D01*
X62575Y259514D01*
X62739Y259660D01*
X62940Y259824D01*
X63177Y260006D01*
X63432Y260152D01*
X63705Y260297D01*
X63741Y260315D01*
X63833Y260352D01*
X63997Y260407D01*
X64197Y260479D01*
X64434Y260534D01*
X64725Y260589D01*
X65017Y260625D01*
X65345Y260644D01*
X65509D01*
X65709Y260625D01*
D02*
G37*
G36*
X992Y258129D02*
X1192Y258111D01*
X1429Y258074D01*
X1684Y258038D01*
X1939Y257965D01*
X2194Y257874D01*
X2231Y257856D01*
X2304Y257819D01*
X2431Y257765D01*
X2595Y257674D01*
X2759Y257564D01*
X2960Y257437D01*
X3142Y257273D01*
X3324Y257091D01*
X3342Y257072D01*
X3397Y256999D01*
X3488Y256890D01*
X3579Y256763D01*
X3688Y256580D01*
X3816Y256380D01*
X3925Y256143D01*
X4016Y255888D01*
X4035Y255852D01*
X4053Y255761D01*
X4089Y255615D01*
X4144Y255433D01*
X4180Y255196D01*
X4217Y254941D01*
X4235Y254649D01*
X4253Y254321D01*
Y254303D01*
Y254267D01*
Y254212D01*
Y254139D01*
Y253975D01*
X4235Y253793D01*
Y253756D01*
Y253665D01*
Y253556D01*
X4217Y253428D01*
X-1559Y253428D01*
Y253410D01*
Y253374D01*
Y253301D01*
X-1541Y253228D01*
Y253119D01*
X-1522Y252991D01*
X-1468Y252699D01*
X-1395Y252390D01*
X-1268Y252062D01*
X-1103Y251752D01*
X-867Y251479D01*
X-830Y251442D01*
X-739Y251370D01*
X-575Y251260D01*
X-338Y251151D01*
X-47Y251023D01*
X299Y250914D01*
X700Y250841D01*
X1174Y250805D01*
X1630D01*
X1885Y250823D01*
X1939D01*
X2012Y250841D01*
X2103D01*
X2340Y250878D01*
X2577Y250896D01*
X2595D01*
X2632Y250914D01*
X2705D01*
X2796Y250932D01*
X2996Y250969D01*
X3233Y251005D01*
X3251D01*
X3288Y251023D01*
X3342Y251042D01*
X3415Y251060D01*
X3616Y251096D01*
X3816Y251151D01*
Y249985D01*
X3798D01*
X3707Y249967D01*
X3597Y249930D01*
X3433Y249894D01*
X3233Y249857D01*
X3014Y249803D01*
X2759Y249766D01*
X2486Y249730D01*
X2449D01*
X2358Y249711D01*
X2213Y249693D01*
X2030Y249675D01*
X1794Y249657D01*
X1538Y249639D01*
X1265Y249620D01*
X791D01*
X591Y249639D01*
X354Y249657D01*
X63Y249693D01*
X-247Y249730D01*
X-557Y249803D01*
X-848Y249894D01*
X-885Y249912D01*
X-976Y249948D01*
X-1122Y250021D01*
X-1286Y250112D01*
X-1486Y250222D01*
X-1705Y250367D01*
X-1905Y250531D01*
X-2106Y250732D01*
X-2124Y250750D01*
X-2179Y250823D01*
X-2269Y250950D01*
X-2379Y251096D01*
X-2506Y251297D01*
X-2616Y251515D01*
X-2743Y251788D01*
X-2834Y252062D01*
Y252080D01*
Y252098D01*
X-2871Y252208D01*
X-2907Y252372D01*
X-2944Y252590D01*
X-2980Y252864D01*
X-3017Y253155D01*
X-3035Y253501D01*
X-3053Y253866D01*
Y253884D01*
Y253902D01*
Y254011D01*
X-3035Y254175D01*
X-3017Y254394D01*
X-2998Y254631D01*
X-2944Y254904D01*
X-2889Y255196D01*
X-2816Y255487D01*
Y255505D01*
X-2798Y255524D01*
X-2761Y255615D01*
X-2707Y255761D01*
X-2634Y255961D01*
X-2525Y256161D01*
X-2397Y256398D01*
X-2251Y256635D01*
X-2087Y256854D01*
X-2069Y256872D01*
X-1996Y256945D01*
X-1887Y257054D01*
X-1759Y257200D01*
X-1577Y257346D01*
X-1377Y257510D01*
X-1158Y257655D01*
X-903Y257801D01*
X-867Y257819D01*
X-776Y257856D01*
X-630Y257910D01*
X-448Y257983D01*
X-211Y258038D01*
X63Y258093D01*
X354Y258129D01*
X682Y258147D01*
X828D01*
X992Y258129D01*
D02*
G37*
G36*
X82126Y261955D02*
X82144Y261937D01*
X82198Y261882D01*
X82271Y261810D01*
X82362Y261719D01*
X82453Y261627D01*
X82709Y261354D01*
X82982Y261026D01*
X83310Y260644D01*
X83656Y260188D01*
X84002Y259678D01*
X84348Y259131D01*
X84694Y258530D01*
X85022Y257874D01*
X85314Y257200D01*
X85551Y256489D01*
X85733Y255742D01*
X85806Y255360D01*
X85861Y254977D01*
X85879Y254576D01*
X85897Y254175D01*
Y254157D01*
Y254139D01*
Y254084D01*
Y254030D01*
Y253847D01*
X85879Y253611D01*
X85861Y253337D01*
X85824Y253028D01*
X85769Y252681D01*
X85715Y252335D01*
Y252317D01*
Y252299D01*
X85697Y252244D01*
X85678Y252171D01*
X85642Y251989D01*
X85569Y251734D01*
X85478Y251442D01*
X85369Y251114D01*
X85241Y250768D01*
X85095Y250404D01*
Y250386D01*
X85077Y250367D01*
X85059Y250313D01*
X85022Y250240D01*
X84913Y250039D01*
X84786Y249784D01*
X84622Y249475D01*
X84403Y249147D01*
X84184Y248782D01*
X83911Y248400D01*
Y248381D01*
X83875Y248345D01*
X83838Y248290D01*
X83784Y248217D01*
X83711Y248126D01*
X83619Y248017D01*
X83401Y247744D01*
X83146Y247434D01*
X82836Y247088D01*
X82472Y246705D01*
X82071Y246323D01*
X81251Y247179D01*
X81269Y247197D01*
X81324Y247252D01*
X81397Y247343D01*
X81506Y247452D01*
X81652Y247598D01*
X81797Y247780D01*
X81962Y247962D01*
X82144Y248181D01*
X82326Y248418D01*
X82526Y248673D01*
X82927Y249238D01*
X83292Y249839D01*
X83456Y250167D01*
X83619Y250477D01*
X83638Y250495D01*
X83656Y250550D01*
X83692Y250641D01*
X83747Y250768D01*
X83802Y250932D01*
X83875Y251114D01*
X83947Y251333D01*
X84020Y251570D01*
X84093Y251825D01*
X84166Y252098D01*
X84294Y252718D01*
X84385Y253374D01*
X84421Y253720D01*
Y254066D01*
Y254084D01*
Y254102D01*
Y254157D01*
Y254248D01*
X84403Y254339D01*
Y254449D01*
X84367Y254722D01*
X84330Y255068D01*
X84257Y255469D01*
X84148Y255906D01*
X84020Y256398D01*
X83856Y256927D01*
X83656Y257491D01*
X83383Y258074D01*
X83091Y258676D01*
X82727Y259277D01*
X82289Y259878D01*
X81816Y260498D01*
X81542Y260789D01*
X81251Y261081D01*
X82107Y261974D01*
X82126Y261955D01*
D02*
G37*
G36*
X49275Y261117D02*
X49238Y261081D01*
X49147Y260971D01*
X48983Y260807D01*
X48783Y260571D01*
X48528Y260279D01*
X48273Y259933D01*
X47981Y259514D01*
X47690Y259076D01*
X47380Y258585D01*
X47088Y258038D01*
X46833Y257473D01*
X46578Y256854D01*
X46378Y256216D01*
X46232Y255560D01*
X46123Y254868D01*
X46105Y254521D01*
X46086Y254157D01*
Y254139D01*
Y254066D01*
Y253975D01*
X46105Y253829D01*
Y253665D01*
X46123Y253465D01*
X46159Y253246D01*
X46196Y252991D01*
X46232Y252718D01*
X46287Y252445D01*
X46433Y251825D01*
X46633Y251169D01*
X46742Y250841D01*
X46888Y250513D01*
X46906Y250495D01*
X46924Y250440D01*
X46979Y250349D01*
X47034Y250222D01*
X47125Y250058D01*
X47234Y249875D01*
X47344Y249675D01*
X47489Y249438D01*
X47653Y249201D01*
X47817Y248946D01*
X48018Y248673D01*
X48236Y248381D01*
X48473Y248090D01*
X48710Y247798D01*
X48983Y247507D01*
X49275Y247215D01*
X48400Y246323D01*
X48382Y246341D01*
X48364Y246359D01*
X48309Y246414D01*
X48236Y246486D01*
X48145Y246578D01*
X48054Y246669D01*
X47817Y246942D01*
X47526Y247270D01*
X47216Y247653D01*
X46870Y248108D01*
X46524Y248600D01*
X46159Y249147D01*
X45831Y249748D01*
X45503Y250386D01*
X45212Y251060D01*
X44975Y251770D01*
X44793Y252499D01*
X44720Y252882D01*
X44665Y253264D01*
X44647Y253647D01*
X44629Y254048D01*
Y254066D01*
Y254102D01*
Y254139D01*
Y254212D01*
X44647Y254412D01*
Y254667D01*
X44683Y254977D01*
X44720Y255305D01*
X44756Y255669D01*
X44829Y256034D01*
Y256052D01*
X44847Y256070D01*
Y256125D01*
X44866Y256198D01*
X44920Y256398D01*
X44993Y256653D01*
X45066Y256945D01*
X45175Y257273D01*
X45321Y257637D01*
X45467Y258002D01*
Y258020D01*
X45485Y258056D01*
X45522Y258093D01*
X45558Y258166D01*
X45649Y258366D01*
X45795Y258621D01*
X45959Y258931D01*
X46159Y259259D01*
X46396Y259623D01*
X46651Y259988D01*
Y260006D01*
X46688Y260042D01*
X46724Y260079D01*
X46779Y260152D01*
X46943Y260352D01*
X47143Y260607D01*
X47416Y260917D01*
X47708Y261245D01*
X48054Y261609D01*
X48437Y261974D01*
X49275Y261117D01*
D02*
G37*
%LPC*%
G36*
X192411Y151908D02*
X191586Y151800D01*
X190817Y151481D01*
X190157Y150975D01*
X189650Y150314D01*
X189332Y149546D01*
X189223Y148720D01*
X189332Y147895D01*
X189650Y147126D01*
X190157Y146466D01*
X190817Y145960D01*
X191586Y145641D01*
X192411Y145533D01*
X193236Y145641D01*
X194005Y145960D01*
X194665Y146466D01*
X195172Y147126D01*
X195490Y147895D01*
X195599Y148720D01*
X195490Y149546D01*
X195172Y150314D01*
X194665Y150975D01*
X194005Y151481D01*
X193236Y151800D01*
X192411Y151908D01*
D02*
G37*
G36*
X182411D02*
X181586Y151800D01*
X180817Y151481D01*
X180157Y150975D01*
X179650Y150314D01*
X179332Y149546D01*
X179223Y148720D01*
X179332Y147895D01*
X179650Y147126D01*
X180157Y146466D01*
X180817Y145960D01*
X181586Y145641D01*
X182411Y145533D01*
X183236Y145641D01*
X184005Y145960D01*
X184665Y146466D01*
X185172Y147126D01*
X185490Y147895D01*
X185599Y148720D01*
X185490Y149546D01*
X185172Y150314D01*
X184665Y150975D01*
X184005Y151481D01*
X183236Y151800D01*
X182411Y151908D01*
D02*
G37*
G36*
X172411D02*
X171586Y151800D01*
X170817Y151481D01*
X170157Y150975D01*
X169650Y150314D01*
X169332Y149546D01*
X169223Y148720D01*
X169332Y147895D01*
X169650Y147126D01*
X170157Y146466D01*
X170817Y145960D01*
X171586Y145641D01*
X172411Y145533D01*
X173236Y145641D01*
X174005Y145960D01*
X174665Y146466D01*
X175172Y147126D01*
X175490Y147895D01*
X175599Y148720D01*
X175490Y149546D01*
X175172Y150314D01*
X174665Y150975D01*
X174005Y151481D01*
X173236Y151800D01*
X172411Y151908D01*
D02*
G37*
G36*
X192411Y141908D02*
X191586Y141800D01*
X190817Y141481D01*
X190157Y140975D01*
X189650Y140314D01*
X189332Y139546D01*
X189223Y138720D01*
X189332Y137895D01*
X189650Y137127D01*
X190157Y136466D01*
X190817Y135960D01*
X191586Y135641D01*
X192411Y135532D01*
X193236Y135641D01*
X194005Y135960D01*
X194665Y136466D01*
X195172Y137127D01*
X195490Y137895D01*
X195599Y138720D01*
X195490Y139546D01*
X195172Y140314D01*
X194665Y140975D01*
X194005Y141481D01*
X193236Y141800D01*
X192411Y141908D01*
D02*
G37*
G36*
X182411D02*
X181586Y141800D01*
X180817Y141481D01*
X180157Y140975D01*
X179650Y140314D01*
X179332Y139546D01*
X179223Y138720D01*
X179332Y137895D01*
X179650Y137127D01*
X180157Y136466D01*
X180817Y135960D01*
X181586Y135641D01*
X182411Y135532D01*
X183236Y135641D01*
X184005Y135960D01*
X184665Y136466D01*
X185172Y137127D01*
X185490Y137895D01*
X185599Y138720D01*
X185490Y139546D01*
X185172Y140314D01*
X184665Y140975D01*
X184005Y141481D01*
X183236Y141800D01*
X182411Y141908D01*
D02*
G37*
G36*
X172411D02*
X171586Y141800D01*
X170817Y141481D01*
X170157Y140975D01*
X169650Y140314D01*
X169332Y139546D01*
X169223Y138720D01*
X169332Y137895D01*
X169650Y137127D01*
X170157Y136466D01*
X170817Y135960D01*
X171586Y135641D01*
X172411Y135532D01*
X173236Y135641D01*
X174005Y135960D01*
X174665Y136466D01*
X175172Y137127D01*
X175490Y137895D01*
X175599Y138720D01*
X175490Y139546D01*
X175172Y140314D01*
X174665Y140975D01*
X174005Y141481D01*
X173236Y141800D01*
X172411Y141908D01*
D02*
G37*
G36*
X-30660Y136693D02*
X-31624Y136501D01*
X-32442Y135955D01*
X-32988Y135138D01*
X-33180Y134173D01*
X-32988Y133209D01*
X-32442Y132391D01*
X-31624Y131845D01*
X-30660Y131653D01*
X-29695Y131845D01*
X-28878Y132391D01*
X-28332Y133209D01*
X-28140Y134173D01*
X-28332Y135138D01*
X-28878Y135955D01*
X-29695Y136501D01*
X-30660Y136693D01*
D02*
G37*
G36*
X-53849D02*
X-54813Y136501D01*
X-55631Y135955D01*
X-56177Y135138D01*
X-56369Y134173D01*
X-56177Y133209D01*
X-55631Y132391D01*
X-54813Y131845D01*
X-53849Y131653D01*
X-52885Y131845D01*
X-52067Y132391D01*
X-51521Y133209D01*
X-51329Y134173D01*
X-51521Y135138D01*
X-52067Y135955D01*
X-52885Y136501D01*
X-53849Y136693D01*
D02*
G37*
G36*
X-65876Y137845D02*
X-66908Y137709D01*
X-67870Y137311D01*
X-68696Y136677D01*
X-69329Y135852D01*
X-69727Y134890D01*
X-69863Y133858D01*
X-69727Y132826D01*
X-69329Y131865D01*
X-68696Y131039D01*
X-67870Y130405D01*
X-66908Y130007D01*
X-65876Y129871D01*
X-64845Y130007D01*
X-63883Y130405D01*
X-63057Y131039D01*
X-62424Y131865D01*
X-62025Y132826D01*
X-61890Y133858D01*
X-62025Y134890D01*
X-62424Y135852D01*
X-63057Y136677D01*
X-63883Y137311D01*
X-64845Y137709D01*
X-65876Y137845D01*
D02*
G37*
G36*
X192411Y131908D02*
X191586Y131800D01*
X190817Y131481D01*
X190157Y130975D01*
X189650Y130314D01*
X189332Y129545D01*
X189223Y128720D01*
X189332Y127895D01*
X189650Y127127D01*
X190157Y126466D01*
X190817Y125960D01*
X191586Y125641D01*
X192411Y125532D01*
X193236Y125641D01*
X194005Y125960D01*
X194665Y126466D01*
X195172Y127127D01*
X195490Y127895D01*
X195599Y128720D01*
X195490Y129545D01*
X195172Y130314D01*
X194665Y130975D01*
X194005Y131481D01*
X193236Y131800D01*
X192411Y131908D01*
D02*
G37*
G36*
X182411D02*
X181586Y131800D01*
X180817Y131481D01*
X180157Y130975D01*
X179650Y130314D01*
X179332Y129545D01*
X179223Y128720D01*
X179332Y127895D01*
X179650Y127127D01*
X180157Y126466D01*
X180817Y125960D01*
X181586Y125641D01*
X182411Y125532D01*
X183236Y125641D01*
X184005Y125960D01*
X184665Y126466D01*
X185172Y127127D01*
X185490Y127895D01*
X185599Y128720D01*
X185490Y129545D01*
X185172Y130314D01*
X184665Y130975D01*
X184005Y131481D01*
X183236Y131800D01*
X182411Y131908D01*
D02*
G37*
G36*
X172411D02*
X171586Y131800D01*
X170817Y131481D01*
X170157Y130975D01*
X169650Y130314D01*
X169332Y129545D01*
X169223Y128720D01*
X169332Y127895D01*
X169650Y127127D01*
X170157Y126466D01*
X170817Y125960D01*
X171586Y125641D01*
X172411Y125532D01*
X173236Y125641D01*
X174005Y125960D01*
X174665Y126466D01*
X175172Y127127D01*
X175490Y127895D01*
X175599Y128720D01*
X175490Y129545D01*
X175172Y130314D01*
X174665Y130975D01*
X174005Y131481D01*
X173236Y131800D01*
X172411Y131908D01*
D02*
G37*
G36*
X-114189Y143760D02*
X-116213Y143601D01*
X-118188Y143127D01*
X-120064Y142350D01*
X-121795Y141289D01*
X-123339Y139970D01*
X-124658Y138426D01*
X-125719Y136695D01*
X-126496Y134819D01*
X-126970Y132845D01*
X-127129Y130820D01*
X-126970Y128796D01*
X-126496Y126822D01*
X-125719Y124946D01*
X-124658Y123215D01*
X-123339Y121671D01*
X-121795Y120352D01*
X-120064Y119291D01*
X-118188Y118514D01*
X-116213Y118040D01*
X-114189Y117880D01*
X-112165Y118040D01*
X-110190Y118514D01*
X-108315Y119291D01*
X-106583Y120352D01*
X-105039Y121671D01*
X-103720Y123215D01*
X-102659Y124946D01*
X-101883Y126822D01*
X-101409Y128796D01*
X-101249Y130820D01*
X-101409Y132845D01*
X-101883Y134819D01*
X-102659Y136695D01*
X-103720Y138426D01*
X-105039Y139970D01*
X-106583Y141289D01*
X-108315Y142350D01*
X-110190Y143127D01*
X-112165Y143601D01*
X-114189Y143760D01*
D02*
G37*
G36*
X192411Y121908D02*
X191586Y121800D01*
X190817Y121481D01*
X190157Y120975D01*
X189650Y120314D01*
X189332Y119545D01*
X189223Y118720D01*
X189332Y117895D01*
X189650Y117127D01*
X190157Y116466D01*
X190817Y115960D01*
X191586Y115641D01*
X192411Y115533D01*
X193236Y115641D01*
X194005Y115960D01*
X194665Y116466D01*
X195172Y117127D01*
X195490Y117895D01*
X195599Y118720D01*
X195490Y119545D01*
X195172Y120314D01*
X194665Y120975D01*
X194005Y121481D01*
X193236Y121800D01*
X192411Y121908D01*
D02*
G37*
G36*
X182411D02*
X181586Y121800D01*
X180817Y121481D01*
X180157Y120975D01*
X179650Y120314D01*
X179332Y119545D01*
X179223Y118720D01*
X179332Y117895D01*
X179650Y117127D01*
X180157Y116466D01*
X180817Y115960D01*
X181586Y115641D01*
X182411Y115533D01*
X183236Y115641D01*
X184005Y115960D01*
X184665Y116466D01*
X185172Y117127D01*
X185490Y117895D01*
X185599Y118720D01*
X185490Y119545D01*
X185172Y120314D01*
X184665Y120975D01*
X184005Y121481D01*
X183236Y121800D01*
X182411Y121908D01*
D02*
G37*
G36*
X172411D02*
X171586Y121800D01*
X170817Y121481D01*
X170157Y120975D01*
X169650Y120314D01*
X169332Y119545D01*
X169223Y118720D01*
X169332Y117895D01*
X169650Y117127D01*
X170157Y116466D01*
X170817Y115960D01*
X171586Y115641D01*
X172411Y115533D01*
X173236Y115641D01*
X174005Y115960D01*
X174665Y116466D01*
X175172Y117127D01*
X175490Y117895D01*
X175599Y118720D01*
X175490Y119545D01*
X175172Y120314D01*
X174665Y120975D01*
X174005Y121481D01*
X173236Y121800D01*
X172411Y121908D01*
D02*
G37*
G36*
X192411Y111908D02*
X191586Y111800D01*
X190817Y111481D01*
X190157Y110975D01*
X189650Y110314D01*
X189332Y109546D01*
X189223Y108720D01*
X189332Y107895D01*
X189650Y107126D01*
X190157Y106466D01*
X190817Y105960D01*
X191586Y105641D01*
X192411Y105533D01*
X193236Y105641D01*
X194005Y105960D01*
X194665Y106466D01*
X195172Y107126D01*
X195490Y107895D01*
X195599Y108720D01*
X195490Y109546D01*
X195172Y110314D01*
X194665Y110975D01*
X194005Y111481D01*
X193236Y111800D01*
X192411Y111908D01*
D02*
G37*
G36*
X182411D02*
X181586Y111800D01*
X180817Y111481D01*
X180157Y110975D01*
X179650Y110314D01*
X179332Y109546D01*
X179223Y108720D01*
X179332Y107895D01*
X179650Y107126D01*
X180157Y106466D01*
X180817Y105960D01*
X181586Y105641D01*
X182411Y105533D01*
X183236Y105641D01*
X184005Y105960D01*
X184665Y106466D01*
X185172Y107126D01*
X185490Y107895D01*
X185599Y108720D01*
X185490Y109546D01*
X185172Y110314D01*
X184665Y110975D01*
X184005Y111481D01*
X183236Y111800D01*
X182411Y111908D01*
D02*
G37*
G36*
X172411D02*
X171586Y111800D01*
X170817Y111481D01*
X170157Y110975D01*
X169650Y110314D01*
X169332Y109546D01*
X169223Y108720D01*
X169332Y107895D01*
X169650Y107126D01*
X170157Y106466D01*
X170817Y105960D01*
X171586Y105641D01*
X172411Y105533D01*
X173236Y105641D01*
X174005Y105960D01*
X174665Y106466D01*
X175172Y107126D01*
X175490Y107895D01*
X175599Y108720D01*
X175490Y109546D01*
X175172Y110314D01*
X174665Y110975D01*
X174005Y111481D01*
X173236Y111800D01*
X172411Y111908D01*
D02*
G37*
G36*
X192411Y101908D02*
X191586Y101800D01*
X190817Y101481D01*
X190157Y100975D01*
X189650Y100314D01*
X189332Y99546D01*
X189223Y98720D01*
X189332Y97895D01*
X189650Y97127D01*
X190157Y96466D01*
X190817Y95960D01*
X191586Y95641D01*
X192411Y95533D01*
X193236Y95641D01*
X194005Y95960D01*
X194665Y96466D01*
X195172Y97127D01*
X195490Y97895D01*
X195599Y98720D01*
X195490Y99546D01*
X195172Y100314D01*
X194665Y100975D01*
X194005Y101481D01*
X193236Y101800D01*
X192411Y101908D01*
D02*
G37*
G36*
X182411D02*
X181586Y101800D01*
X180817Y101481D01*
X180157Y100975D01*
X179650Y100314D01*
X179332Y99546D01*
X179223Y98720D01*
X179332Y97895D01*
X179650Y97127D01*
X180157Y96466D01*
X180817Y95960D01*
X181586Y95641D01*
X182411Y95533D01*
X183236Y95641D01*
X184005Y95960D01*
X184665Y96466D01*
X185172Y97127D01*
X185490Y97895D01*
X185599Y98720D01*
X185490Y99546D01*
X185172Y100314D01*
X184665Y100975D01*
X184005Y101481D01*
X183236Y101800D01*
X182411Y101908D01*
D02*
G37*
G36*
X172411D02*
X171586Y101800D01*
X170817Y101481D01*
X170157Y100975D01*
X169650Y100314D01*
X169332Y99546D01*
X169223Y98720D01*
X169332Y97895D01*
X169650Y97127D01*
X170157Y96466D01*
X170817Y95960D01*
X171586Y95641D01*
X172411Y95533D01*
X173236Y95641D01*
X174005Y95960D01*
X174665Y96466D01*
X175172Y97127D01*
X175490Y97895D01*
X175599Y98720D01*
X175490Y99546D01*
X175172Y100314D01*
X174665Y100975D01*
X174005Y101481D01*
X173236Y101800D01*
X172411Y101908D01*
D02*
G37*
G36*
X192411Y91908D02*
X191586Y91800D01*
X190817Y91481D01*
X190157Y90975D01*
X189650Y90314D01*
X189332Y89546D01*
X189223Y88720D01*
X189332Y87895D01*
X189650Y87126D01*
X190157Y86466D01*
X190817Y85960D01*
X191586Y85641D01*
X192411Y85532D01*
X193236Y85641D01*
X194005Y85960D01*
X194665Y86466D01*
X195172Y87126D01*
X195490Y87895D01*
X195599Y88720D01*
X195490Y89546D01*
X195172Y90314D01*
X194665Y90975D01*
X194005Y91481D01*
X193236Y91800D01*
X192411Y91908D01*
D02*
G37*
G36*
X182411D02*
X181586Y91800D01*
X180817Y91481D01*
X180157Y90975D01*
X179650Y90314D01*
X179332Y89546D01*
X179223Y88720D01*
X179332Y87895D01*
X179650Y87126D01*
X180157Y86466D01*
X180817Y85960D01*
X181586Y85641D01*
X182411Y85532D01*
X183236Y85641D01*
X184005Y85960D01*
X184665Y86466D01*
X185172Y87126D01*
X185490Y87895D01*
X185599Y88720D01*
X185490Y89546D01*
X185172Y90314D01*
X184665Y90975D01*
X184005Y91481D01*
X183236Y91800D01*
X182411Y91908D01*
D02*
G37*
G36*
X172411D02*
X171586Y91800D01*
X170817Y91481D01*
X170157Y90975D01*
X169650Y90314D01*
X169332Y89546D01*
X169223Y88720D01*
X169332Y87895D01*
X169650Y87126D01*
X170157Y86466D01*
X170817Y85960D01*
X171586Y85641D01*
X172411Y85532D01*
X173236Y85641D01*
X174005Y85960D01*
X174665Y86466D01*
X175172Y87126D01*
X175490Y87895D01*
X175599Y88720D01*
X175490Y89546D01*
X175172Y90314D01*
X174665Y90975D01*
X174005Y91481D01*
X173236Y91800D01*
X172411Y91908D01*
D02*
G37*
G36*
X192411Y81908D02*
X191586Y81800D01*
X190817Y81481D01*
X190157Y80975D01*
X189650Y80314D01*
X189332Y79545D01*
X189223Y78720D01*
X189332Y77895D01*
X189650Y77126D01*
X190157Y76466D01*
X190817Y75960D01*
X191586Y75641D01*
X192411Y75533D01*
X193236Y75641D01*
X194005Y75960D01*
X194665Y76466D01*
X195172Y77126D01*
X195490Y77895D01*
X195599Y78720D01*
X195490Y79545D01*
X195172Y80314D01*
X194665Y80975D01*
X194005Y81481D01*
X193236Y81800D01*
X192411Y81908D01*
D02*
G37*
G36*
X182411D02*
X181586Y81800D01*
X180817Y81481D01*
X180157Y80975D01*
X179650Y80314D01*
X179332Y79545D01*
X179223Y78720D01*
X179332Y77895D01*
X179650Y77126D01*
X180157Y76466D01*
X180817Y75960D01*
X181586Y75641D01*
X182411Y75533D01*
X183236Y75641D01*
X184005Y75960D01*
X184665Y76466D01*
X185172Y77126D01*
X185490Y77895D01*
X185599Y78720D01*
X185490Y79545D01*
X185172Y80314D01*
X184665Y80975D01*
X184005Y81481D01*
X183236Y81800D01*
X182411Y81908D01*
D02*
G37*
G36*
X172411D02*
X171586Y81800D01*
X170817Y81481D01*
X170157Y80975D01*
X169650Y80314D01*
X169332Y79545D01*
X169223Y78720D01*
X169332Y77895D01*
X169650Y77126D01*
X170157Y76466D01*
X170817Y75960D01*
X171586Y75641D01*
X172411Y75533D01*
X173236Y75641D01*
X174005Y75960D01*
X174665Y76466D01*
X175172Y77126D01*
X175490Y77895D01*
X175599Y78720D01*
X175490Y79545D01*
X175172Y80314D01*
X174665Y80975D01*
X174005Y81481D01*
X173236Y81800D01*
X172411Y81908D01*
D02*
G37*
G36*
X192411Y71908D02*
X191586Y71800D01*
X190817Y71481D01*
X190157Y70975D01*
X189650Y70314D01*
X189332Y69546D01*
X189223Y68720D01*
X189332Y67895D01*
X189650Y67127D01*
X190157Y66466D01*
X190817Y65960D01*
X191586Y65641D01*
X192411Y65532D01*
X193236Y65641D01*
X194005Y65960D01*
X194665Y66466D01*
X195172Y67127D01*
X195490Y67895D01*
X195599Y68720D01*
X195490Y69546D01*
X195172Y70314D01*
X194665Y70975D01*
X194005Y71481D01*
X193236Y71800D01*
X192411Y71908D01*
D02*
G37*
G36*
X182411D02*
X181586Y71800D01*
X180817Y71481D01*
X180157Y70975D01*
X179650Y70314D01*
X179332Y69546D01*
X179223Y68720D01*
X179332Y67895D01*
X179650Y67127D01*
X180157Y66466D01*
X180817Y65960D01*
X181586Y65641D01*
X182411Y65532D01*
X183236Y65641D01*
X184005Y65960D01*
X184665Y66466D01*
X185172Y67127D01*
X185490Y67895D01*
X185599Y68720D01*
X185490Y69546D01*
X185172Y70314D01*
X184665Y70975D01*
X184005Y71481D01*
X183236Y71800D01*
X182411Y71908D01*
D02*
G37*
G36*
X172411D02*
X171586Y71800D01*
X170817Y71481D01*
X170157Y70975D01*
X169650Y70314D01*
X169332Y69546D01*
X169223Y68720D01*
X169332Y67895D01*
X169650Y67127D01*
X170157Y66466D01*
X170817Y65960D01*
X171586Y65641D01*
X172411Y65532D01*
X173236Y65641D01*
X174005Y65960D01*
X174665Y66466D01*
X175172Y67127D01*
X175490Y67895D01*
X175599Y68720D01*
X175490Y69546D01*
X175172Y70314D01*
X174665Y70975D01*
X174005Y71481D01*
X173236Y71800D01*
X172411Y71908D01*
D02*
G37*
G36*
X192411Y61908D02*
X191586Y61800D01*
X190817Y61481D01*
X190157Y60975D01*
X189650Y60314D01*
X189332Y59545D01*
X189223Y58720D01*
X189332Y57895D01*
X189650Y57126D01*
X190157Y56466D01*
X190817Y55960D01*
X191586Y55641D01*
X192411Y55532D01*
X193236Y55641D01*
X194005Y55960D01*
X194665Y56466D01*
X195172Y57126D01*
X195490Y57895D01*
X195599Y58720D01*
X195490Y59545D01*
X195172Y60314D01*
X194665Y60975D01*
X194005Y61481D01*
X193236Y61800D01*
X192411Y61908D01*
D02*
G37*
G36*
X182411D02*
X181586Y61800D01*
X180817Y61481D01*
X180157Y60975D01*
X179650Y60314D01*
X179332Y59545D01*
X179223Y58720D01*
X179332Y57895D01*
X179650Y57126D01*
X180157Y56466D01*
X180817Y55960D01*
X181586Y55641D01*
X182411Y55532D01*
X183236Y55641D01*
X184005Y55960D01*
X184665Y56466D01*
X185172Y57126D01*
X185490Y57895D01*
X185599Y58720D01*
X185490Y59545D01*
X185172Y60314D01*
X184665Y60975D01*
X184005Y61481D01*
X183236Y61800D01*
X182411Y61908D01*
D02*
G37*
G36*
X172411D02*
X171586Y61800D01*
X170817Y61481D01*
X170157Y60975D01*
X169650Y60314D01*
X169332Y59545D01*
X169223Y58720D01*
X169332Y57895D01*
X169650Y57126D01*
X170157Y56466D01*
X170817Y55960D01*
X171586Y55641D01*
X172411Y55532D01*
X173236Y55641D01*
X174005Y55960D01*
X174665Y56466D01*
X175172Y57126D01*
X175490Y57895D01*
X175599Y58720D01*
X175490Y59545D01*
X175172Y60314D01*
X174665Y60975D01*
X174005Y61481D01*
X173236Y61800D01*
X172411Y61908D01*
D02*
G37*
G36*
X47313Y56640D02*
X46409Y56521D01*
X45567Y56172D01*
X44844Y55618D01*
X44290Y54895D01*
X43941Y54053D01*
X43822Y53150D01*
X43941Y52246D01*
X44290Y51404D01*
X44844Y50681D01*
X45567Y50127D01*
X46409Y49778D01*
X47313Y49659D01*
X48216Y49778D01*
X49058Y50127D01*
X49781Y50681D01*
X50335Y51404D01*
X50684Y52246D01*
X50803Y53150D01*
X50684Y54053D01*
X50335Y54895D01*
X49781Y55618D01*
X49058Y56172D01*
X48216Y56521D01*
X47313Y56640D01*
D02*
G37*
G36*
X39439D02*
X38535Y56521D01*
X37693Y56172D01*
X36970Y55618D01*
X36416Y54895D01*
X36067Y54053D01*
X35948Y53150D01*
X36067Y52246D01*
X36416Y51404D01*
X36970Y50681D01*
X37693Y50127D01*
X38535Y49778D01*
X39439Y49659D01*
X40342Y49778D01*
X41184Y50127D01*
X41907Y50681D01*
X42461Y51404D01*
X42810Y52246D01*
X42929Y53150D01*
X42810Y54053D01*
X42461Y54895D01*
X41907Y55618D01*
X41184Y56172D01*
X40342Y56521D01*
X39439Y56640D01*
D02*
G37*
G36*
X31565D02*
X30661Y56521D01*
X29819Y56172D01*
X29096Y55618D01*
X28542Y54895D01*
X28193Y54053D01*
X28074Y53150D01*
X28193Y52246D01*
X28542Y51404D01*
X29096Y50681D01*
X29819Y50127D01*
X30661Y49778D01*
X31565Y49659D01*
X32468Y49778D01*
X33310Y50127D01*
X34033Y50681D01*
X34587Y51404D01*
X34936Y52246D01*
X35055Y53150D01*
X34936Y54053D01*
X34587Y54895D01*
X34033Y55618D01*
X33310Y56172D01*
X32468Y56521D01*
X31565Y56640D01*
D02*
G37*
G36*
X23690D02*
X22787Y56521D01*
X21945Y56172D01*
X21222Y55618D01*
X20668Y54895D01*
X20319Y54053D01*
X20200Y53150D01*
X20319Y52246D01*
X20668Y51404D01*
X21222Y50681D01*
X21945Y50127D01*
X22787Y49778D01*
X23690Y49659D01*
X24594Y49778D01*
X25436Y50127D01*
X26159Y50681D01*
X26713Y51404D01*
X27062Y52246D01*
X27181Y53150D01*
X27062Y54053D01*
X26713Y54895D01*
X26159Y55618D01*
X25436Y56172D01*
X24594Y56521D01*
X23690Y56640D01*
D02*
G37*
G36*
X15816D02*
X14913Y56521D01*
X14071Y56172D01*
X13348Y55618D01*
X12794Y54895D01*
X12445Y54053D01*
X12326Y53150D01*
X12445Y52246D01*
X12794Y51404D01*
X13348Y50681D01*
X14071Y50127D01*
X14913Y49778D01*
X15816Y49659D01*
X16720Y49778D01*
X17562Y50127D01*
X18285Y50681D01*
X18839Y51404D01*
X19188Y52246D01*
X19307Y53150D01*
X19188Y54053D01*
X18839Y54895D01*
X18285Y55618D01*
X17562Y56172D01*
X16720Y56521D01*
X15816Y56640D01*
D02*
G37*
G36*
X192411Y51908D02*
X191586Y51800D01*
X190817Y51481D01*
X190157Y50975D01*
X189650Y50314D01*
X189332Y49545D01*
X189223Y48720D01*
X189332Y47895D01*
X189650Y47126D01*
X190157Y46466D01*
X190817Y45960D01*
X191586Y45641D01*
X192411Y45533D01*
X193236Y45641D01*
X194005Y45960D01*
X194665Y46466D01*
X195172Y47126D01*
X195490Y47895D01*
X195599Y48720D01*
X195490Y49545D01*
X195172Y50314D01*
X194665Y50975D01*
X194005Y51481D01*
X193236Y51800D01*
X192411Y51908D01*
D02*
G37*
G36*
X182411D02*
X181586Y51800D01*
X180817Y51481D01*
X180157Y50975D01*
X179650Y50314D01*
X179332Y49545D01*
X179223Y48720D01*
X179332Y47895D01*
X179650Y47126D01*
X180157Y46466D01*
X180817Y45960D01*
X181586Y45641D01*
X182411Y45533D01*
X183236Y45641D01*
X184005Y45960D01*
X184665Y46466D01*
X185172Y47126D01*
X185490Y47895D01*
X185599Y48720D01*
X185490Y49545D01*
X185172Y50314D01*
X184665Y50975D01*
X184005Y51481D01*
X183236Y51800D01*
X182411Y51908D01*
D02*
G37*
G36*
X172411D02*
X171586Y51800D01*
X170817Y51481D01*
X170157Y50975D01*
X169650Y50314D01*
X169332Y49545D01*
X169223Y48720D01*
X169332Y47895D01*
X169650Y47126D01*
X170157Y46466D01*
X170817Y45960D01*
X171586Y45641D01*
X172411Y45533D01*
X173236Y45641D01*
X174005Y45960D01*
X174665Y46466D01*
X175172Y47126D01*
X175490Y47895D01*
X175599Y48720D01*
X175490Y49545D01*
X175172Y50314D01*
X174665Y50975D01*
X174005Y51481D01*
X173236Y51800D01*
X172411Y51908D01*
D02*
G37*
G36*
X192411Y41908D02*
X191586Y41800D01*
X190817Y41481D01*
X190157Y40975D01*
X189650Y40314D01*
X189332Y39546D01*
X189223Y38720D01*
X189332Y37895D01*
X189650Y37126D01*
X190157Y36466D01*
X190817Y35960D01*
X191586Y35641D01*
X192411Y35533D01*
X193236Y35641D01*
X194005Y35960D01*
X194665Y36466D01*
X195172Y37126D01*
X195490Y37895D01*
X195599Y38720D01*
X195490Y39546D01*
X195172Y40314D01*
X194665Y40975D01*
X194005Y41481D01*
X193236Y41800D01*
X192411Y41908D01*
D02*
G37*
G36*
X182411D02*
X181586Y41800D01*
X180817Y41481D01*
X180157Y40975D01*
X179650Y40314D01*
X179332Y39546D01*
X179223Y38720D01*
X179332Y37895D01*
X179650Y37126D01*
X180157Y36466D01*
X180817Y35960D01*
X181586Y35641D01*
X182411Y35533D01*
X183236Y35641D01*
X184005Y35960D01*
X184665Y36466D01*
X185172Y37126D01*
X185490Y37895D01*
X185599Y38720D01*
X185490Y39546D01*
X185172Y40314D01*
X184665Y40975D01*
X184005Y41481D01*
X183236Y41800D01*
X182411Y41908D01*
D02*
G37*
G36*
X172411D02*
X171586Y41800D01*
X170817Y41481D01*
X170157Y40975D01*
X169650Y40314D01*
X169332Y39546D01*
X169223Y38720D01*
X169332Y37895D01*
X169650Y37126D01*
X170157Y36466D01*
X170817Y35960D01*
X171586Y35641D01*
X172411Y35533D01*
X173236Y35641D01*
X174005Y35960D01*
X174665Y36466D01*
X175172Y37126D01*
X175490Y37895D01*
X175599Y38720D01*
X175490Y39546D01*
X175172Y40314D01*
X174665Y40975D01*
X174005Y41481D01*
X173236Y41800D01*
X172411Y41908D01*
D02*
G37*
G36*
X192411Y31908D02*
X191586Y31800D01*
X190817Y31481D01*
X190157Y30975D01*
X189650Y30314D01*
X189332Y29546D01*
X189223Y28720D01*
X189332Y27895D01*
X189650Y27127D01*
X190157Y26466D01*
X190817Y25960D01*
X191586Y25641D01*
X192411Y25532D01*
X193236Y25641D01*
X194005Y25960D01*
X194665Y26466D01*
X195172Y27127D01*
X195490Y27895D01*
X195599Y28720D01*
X195490Y29546D01*
X195172Y30314D01*
X194665Y30975D01*
X194005Y31481D01*
X193236Y31800D01*
X192411Y31908D01*
D02*
G37*
G36*
X182411D02*
X181586Y31800D01*
X180817Y31481D01*
X180157Y30975D01*
X179650Y30314D01*
X179332Y29546D01*
X179223Y28720D01*
X179332Y27895D01*
X179650Y27127D01*
X180157Y26466D01*
X180817Y25960D01*
X181586Y25641D01*
X182411Y25532D01*
X183236Y25641D01*
X184005Y25960D01*
X184665Y26466D01*
X185172Y27127D01*
X185490Y27895D01*
X185599Y28720D01*
X185490Y29546D01*
X185172Y30314D01*
X184665Y30975D01*
X184005Y31481D01*
X183236Y31800D01*
X182411Y31908D01*
D02*
G37*
G36*
X172411D02*
X171586Y31800D01*
X170817Y31481D01*
X170157Y30975D01*
X169650Y30314D01*
X169332Y29546D01*
X169223Y28720D01*
X169332Y27895D01*
X169650Y27127D01*
X170157Y26466D01*
X170817Y25960D01*
X171586Y25641D01*
X172411Y25532D01*
X173236Y25641D01*
X174005Y25960D01*
X174665Y26466D01*
X175172Y27127D01*
X175490Y27895D01*
X175599Y28720D01*
X175490Y29546D01*
X175172Y30314D01*
X174665Y30975D01*
X174005Y31481D01*
X173236Y31800D01*
X172411Y31908D01*
D02*
G37*
G36*
X192411Y21908D02*
X191586Y21800D01*
X190817Y21481D01*
X190157Y20975D01*
X189650Y20314D01*
X189332Y19545D01*
X189223Y18720D01*
X189332Y17895D01*
X189650Y17127D01*
X190157Y16466D01*
X190817Y15960D01*
X191586Y15641D01*
X192411Y15532D01*
X193236Y15641D01*
X194005Y15960D01*
X194665Y16466D01*
X195172Y17127D01*
X195490Y17895D01*
X195599Y18720D01*
X195490Y19545D01*
X195172Y20314D01*
X194665Y20975D01*
X194005Y21481D01*
X193236Y21800D01*
X192411Y21908D01*
D02*
G37*
G36*
X182411D02*
X181586Y21800D01*
X180817Y21481D01*
X180157Y20975D01*
X179650Y20314D01*
X179332Y19545D01*
X179223Y18720D01*
X179332Y17895D01*
X179650Y17127D01*
X180157Y16466D01*
X180817Y15960D01*
X181586Y15641D01*
X182411Y15532D01*
X183236Y15641D01*
X184005Y15960D01*
X184665Y16466D01*
X185172Y17127D01*
X185490Y17895D01*
X185599Y18720D01*
X185490Y19545D01*
X185172Y20314D01*
X184665Y20975D01*
X184005Y21481D01*
X183236Y21800D01*
X182411Y21908D01*
D02*
G37*
G36*
X172411D02*
X171586Y21800D01*
X170817Y21481D01*
X170157Y20975D01*
X169650Y20314D01*
X169332Y19545D01*
X169223Y18720D01*
X169332Y17895D01*
X169650Y17127D01*
X170157Y16466D01*
X170817Y15960D01*
X171586Y15641D01*
X172411Y15532D01*
X173236Y15641D01*
X174005Y15960D01*
X174665Y16466D01*
X175172Y17127D01*
X175490Y17895D01*
X175599Y18720D01*
X175490Y19545D01*
X175172Y20314D01*
X174665Y20975D01*
X174005Y21481D01*
X173236Y21800D01*
X172411Y21908D01*
D02*
G37*
G36*
X182411Y11908D02*
X181586Y11800D01*
X180817Y11481D01*
X180157Y10975D01*
X179650Y10314D01*
X179332Y9545D01*
X179223Y8720D01*
X179332Y7895D01*
X179650Y7126D01*
X180157Y6466D01*
X180817Y5960D01*
X181586Y5641D01*
X182411Y5533D01*
X183236Y5641D01*
X184005Y5960D01*
X184665Y6466D01*
X185172Y7126D01*
X185490Y7895D01*
X185599Y8720D01*
X185490Y9545D01*
X185172Y10314D01*
X184665Y10975D01*
X184005Y11481D01*
X183236Y11800D01*
X182411Y11908D01*
D02*
G37*
G36*
X39370Y3188D02*
X38545Y3079D01*
X37776Y2761D01*
X37116Y2254D01*
X36609Y1594D01*
X36291Y825D01*
X36182Y0D01*
X36291Y-825D01*
X36609Y-1594D01*
X37116Y-2254D01*
X37776Y-2761D01*
X38545Y-3079D01*
X39370Y-3188D01*
X40195Y-3079D01*
X40964Y-2761D01*
X41624Y-2254D01*
X42131Y-1594D01*
X42449Y-825D01*
X42558Y0D01*
X42449Y825D01*
X42131Y1594D01*
X41624Y2254D01*
X40964Y2761D01*
X40195Y3079D01*
X39370Y3188D01*
D02*
G37*
G36*
X31496Y3491D02*
X30593Y3371D01*
X29751Y3023D01*
X29028Y2468D01*
X28473Y1745D01*
X28124Y903D01*
X28006Y0D01*
X28124Y-903D01*
X28473Y-1745D01*
X29028Y-2468D01*
X29751Y-3023D01*
X30593Y-3371D01*
X31496Y-3491D01*
X32399Y-3371D01*
X33241Y-3023D01*
X33964Y-2468D01*
X34519Y-1745D01*
X34868Y-903D01*
X34986Y0D01*
X34868Y903D01*
X34519Y1745D01*
X33964Y2468D01*
X33241Y3023D01*
X32399Y3371D01*
X31496Y3491D01*
D02*
G37*
G36*
X23622D02*
X22719Y3371D01*
X21877Y3023D01*
X21154Y2468D01*
X20599Y1745D01*
X20251Y903D01*
X20132Y0D01*
X20251Y-903D01*
X20599Y-1745D01*
X21154Y-2468D01*
X21877Y-3023D01*
X22719Y-3371D01*
X23622Y-3491D01*
X24525Y-3371D01*
X25367Y-3023D01*
X26090Y-2468D01*
X26645Y-1745D01*
X26994Y-903D01*
X27112Y0D01*
X26994Y903D01*
X26645Y1745D01*
X26090Y2468D01*
X25367Y3023D01*
X24525Y3371D01*
X23622Y3491D01*
D02*
G37*
G36*
X15748D02*
X14845Y3371D01*
X14003Y3023D01*
X13280Y2468D01*
X12725Y1745D01*
X12376Y903D01*
X12257Y0D01*
X12376Y-903D01*
X12725Y-1745D01*
X13280Y-2468D01*
X14003Y-3023D01*
X14845Y-3371D01*
X15748Y-3491D01*
X16651Y-3371D01*
X17493Y-3023D01*
X18216Y-2468D01*
X18771Y-1745D01*
X19120Y-903D01*
X19239Y0D01*
X19120Y903D01*
X18771Y1745D01*
X18216Y2468D01*
X17493Y3023D01*
X16651Y3371D01*
X15748Y3491D01*
D02*
G37*
G36*
X7874D02*
X6971Y3371D01*
X6129Y3023D01*
X5406Y2468D01*
X4851Y1745D01*
X4502Y903D01*
X4383Y0D01*
X4502Y-903D01*
X4851Y-1745D01*
X5406Y-2468D01*
X6129Y-3023D01*
X6971Y-3371D01*
X7874Y-3491D01*
X8777Y-3371D01*
X9619Y-3023D01*
X10342Y-2468D01*
X10897Y-1745D01*
X11246Y-903D01*
X11365Y0D01*
X11246Y903D01*
X10897Y1745D01*
X10342Y2468D01*
X9619Y3023D01*
X8777Y3371D01*
X7874Y3491D01*
D02*
G37*
G36*
X0D02*
X-903Y3371D01*
X-1745Y3023D01*
X-2468Y2468D01*
X-3023Y1745D01*
X-3371Y903D01*
X-3491Y0D01*
X-3371Y-903D01*
X-3023Y-1745D01*
X-2468Y-2468D01*
X-1745Y-3023D01*
X-903Y-3371D01*
X0Y-3491D01*
X903Y-3371D01*
X1745Y-3023D01*
X2468Y-2468D01*
X3023Y-1745D01*
X3371Y-903D01*
X3491Y0D01*
X3371Y903D01*
X3023Y1745D01*
X2468Y2468D01*
X1745Y3023D01*
X903Y3371D01*
X0Y3491D01*
D02*
G37*
G36*
X192411Y1908D02*
X191586Y1800D01*
X190817Y1481D01*
X190157Y975D01*
X189650Y314D01*
X189332Y-454D01*
X189223Y-1280D01*
X189332Y-2105D01*
X189650Y-2874D01*
X190157Y-3534D01*
X190817Y-4040D01*
X191586Y-4359D01*
X192411Y-4468D01*
X193236Y-4359D01*
X194005Y-4040D01*
X194665Y-3534D01*
X195172Y-2874D01*
X195490Y-2105D01*
X195599Y-1280D01*
X195490Y-454D01*
X195172Y314D01*
X194665Y975D01*
X194005Y1481D01*
X193236Y1800D01*
X192411Y1908D01*
D02*
G37*
G36*
X182411D02*
X181586Y1800D01*
X180817Y1481D01*
X180157Y975D01*
X179650Y314D01*
X179332Y-454D01*
X179223Y-1280D01*
X179332Y-2105D01*
X179650Y-2874D01*
X180157Y-3534D01*
X180817Y-4040D01*
X181586Y-4359D01*
X182411Y-4468D01*
X183236Y-4359D01*
X184005Y-4040D01*
X184665Y-3534D01*
X185172Y-2874D01*
X185490Y-2105D01*
X185599Y-1280D01*
X185490Y-454D01*
X185172Y314D01*
X184665Y975D01*
X184005Y1481D01*
X183236Y1800D01*
X182411Y1908D01*
D02*
G37*
G36*
X172411D02*
X171586Y1800D01*
X170817Y1481D01*
X170157Y975D01*
X169650Y314D01*
X169332Y-454D01*
X169223Y-1280D01*
X169332Y-2105D01*
X169650Y-2874D01*
X170157Y-3534D01*
X170817Y-4040D01*
X171586Y-4359D01*
X172411Y-4468D01*
X173236Y-4359D01*
X174005Y-4040D01*
X174665Y-3534D01*
X175172Y-2874D01*
X175490Y-2105D01*
X175599Y-1280D01*
X175490Y-454D01*
X175172Y314D01*
X174665Y975D01*
X174005Y1481D01*
X173236Y1800D01*
X172411Y1908D01*
D02*
G37*
G36*
X182411Y-8092D02*
X181586Y-8200D01*
X180817Y-8519D01*
X180157Y-9025D01*
X179650Y-9686D01*
X179332Y-10454D01*
X179223Y-11280D01*
X179332Y-12105D01*
X179650Y-12874D01*
X180157Y-13534D01*
X180817Y-14040D01*
X181586Y-14359D01*
X182411Y-14468D01*
X183236Y-14359D01*
X184005Y-14040D01*
X184665Y-13534D01*
X185172Y-12874D01*
X185490Y-12105D01*
X185599Y-11280D01*
X185490Y-10454D01*
X185172Y-9686D01*
X184665Y-9025D01*
X184005Y-8519D01*
X183236Y-8200D01*
X182411Y-8092D01*
D02*
G37*
G36*
X172411D02*
X171586Y-8200D01*
X170817Y-8519D01*
X170157Y-9025D01*
X169650Y-9686D01*
X169332Y-10454D01*
X169223Y-11280D01*
X169332Y-12105D01*
X169650Y-12874D01*
X170157Y-13534D01*
X170817Y-14040D01*
X171586Y-14359D01*
X172411Y-14468D01*
X173236Y-14359D01*
X174005Y-14040D01*
X174665Y-13534D01*
X175172Y-12874D01*
X175490Y-12105D01*
X175599Y-11280D01*
X175490Y-10454D01*
X175172Y-9686D01*
X174665Y-9025D01*
X174005Y-8519D01*
X173236Y-8200D01*
X172411Y-8092D01*
D02*
G37*
G36*
X192411Y-7789D02*
X191507Y-7908D01*
X190666Y-8257D01*
X189943Y-8811D01*
X189388Y-9534D01*
X189039Y-10376D01*
X188920Y-11280D01*
X189039Y-12183D01*
X189388Y-13025D01*
X189943Y-13748D01*
X190666Y-14302D01*
X191507Y-14651D01*
X192411Y-14770D01*
X193314Y-14651D01*
X194156Y-14302D01*
X194879Y-13748D01*
X195434Y-13025D01*
X195782Y-12183D01*
X195901Y-11280D01*
X195782Y-10376D01*
X195434Y-9534D01*
X194879Y-8811D01*
X194156Y-8257D01*
X193314Y-7908D01*
X192411Y-7789D01*
D02*
G37*
G36*
X-114189Y8760D02*
X-116213Y8601D01*
X-118188Y8127D01*
X-120064Y7350D01*
X-121795Y6289D01*
X-123339Y4970D01*
X-124658Y3426D01*
X-125719Y1695D01*
X-126496Y-181D01*
X-126970Y-2155D01*
X-127129Y-4180D01*
X-126970Y-6204D01*
X-126496Y-8178D01*
X-125719Y-10054D01*
X-124658Y-11785D01*
X-123339Y-13329D01*
X-121795Y-14648D01*
X-120064Y-15709D01*
X-118188Y-16486D01*
X-116213Y-16960D01*
X-114189Y-17120D01*
X-112165Y-16960D01*
X-110190Y-16486D01*
X-108315Y-15709D01*
X-106583Y-14648D01*
X-105039Y-13329D01*
X-103720Y-11785D01*
X-102659Y-10054D01*
X-101883Y-8178D01*
X-101409Y-6204D01*
X-101249Y-4180D01*
X-101409Y-2155D01*
X-101883Y-181D01*
X-102659Y1695D01*
X-103720Y3426D01*
X-105039Y4970D01*
X-106583Y6289D01*
X-108315Y7350D01*
X-110190Y8127D01*
X-112165Y8601D01*
X-114189Y8760D01*
D02*
G37*
G36*
X192411Y-18092D02*
X191586Y-18200D01*
X190817Y-18519D01*
X190157Y-19025D01*
X189650Y-19686D01*
X189332Y-20455D01*
X189223Y-21280D01*
X189332Y-22105D01*
X189650Y-22873D01*
X190157Y-23534D01*
X190817Y-24040D01*
X191586Y-24359D01*
X192411Y-24467D01*
X193236Y-24359D01*
X194005Y-24040D01*
X194665Y-23534D01*
X195172Y-22873D01*
X195490Y-22105D01*
X195599Y-21280D01*
X195490Y-20455D01*
X195172Y-19686D01*
X194665Y-19025D01*
X194005Y-18519D01*
X193236Y-18200D01*
X192411Y-18092D01*
D02*
G37*
G36*
X182411D02*
X181586Y-18200D01*
X180817Y-18519D01*
X180157Y-19025D01*
X179650Y-19686D01*
X179332Y-20455D01*
X179223Y-21280D01*
X179332Y-22105D01*
X179650Y-22873D01*
X180157Y-23534D01*
X180817Y-24040D01*
X181586Y-24359D01*
X182411Y-24467D01*
X183236Y-24359D01*
X184005Y-24040D01*
X184665Y-23534D01*
X185172Y-22873D01*
X185490Y-22105D01*
X185599Y-21280D01*
X185490Y-20455D01*
X185172Y-19686D01*
X184665Y-19025D01*
X184005Y-18519D01*
X183236Y-18200D01*
X182411Y-18092D01*
D02*
G37*
G36*
X172411D02*
X171586Y-18200D01*
X170817Y-18519D01*
X170157Y-19025D01*
X169650Y-19686D01*
X169332Y-20455D01*
X169223Y-21280D01*
X169332Y-22105D01*
X169650Y-22873D01*
X170157Y-23534D01*
X170817Y-24040D01*
X171586Y-24359D01*
X172411Y-24467D01*
X173236Y-24359D01*
X174005Y-24040D01*
X174665Y-23534D01*
X175172Y-22873D01*
X175490Y-22105D01*
X175599Y-21280D01*
X175490Y-20455D01*
X175172Y-19686D01*
X174665Y-19025D01*
X174005Y-18519D01*
X173236Y-18200D01*
X172411Y-18092D01*
D02*
G37*
G36*
X192411Y-28092D02*
X191586Y-28200D01*
X190817Y-28519D01*
X190157Y-29025D01*
X189650Y-29686D01*
X189332Y-30454D01*
X189223Y-31280D01*
X189332Y-32105D01*
X189650Y-32873D01*
X190157Y-33534D01*
X190817Y-34040D01*
X191586Y-34359D01*
X192411Y-34468D01*
X193236Y-34359D01*
X194005Y-34040D01*
X194665Y-33534D01*
X195172Y-32873D01*
X195490Y-32105D01*
X195599Y-31280D01*
X195490Y-30454D01*
X195172Y-29686D01*
X194665Y-29025D01*
X194005Y-28519D01*
X193236Y-28200D01*
X192411Y-28092D01*
D02*
G37*
G36*
X182411D02*
X181586Y-28200D01*
X180817Y-28519D01*
X180157Y-29025D01*
X179650Y-29686D01*
X179332Y-30454D01*
X179223Y-31280D01*
X179332Y-32105D01*
X179650Y-32873D01*
X180157Y-33534D01*
X180817Y-34040D01*
X181586Y-34359D01*
X182411Y-34468D01*
X183236Y-34359D01*
X184005Y-34040D01*
X184665Y-33534D01*
X185172Y-32873D01*
X185490Y-32105D01*
X185599Y-31280D01*
X185490Y-30454D01*
X185172Y-29686D01*
X184665Y-29025D01*
X184005Y-28519D01*
X183236Y-28200D01*
X182411Y-28092D01*
D02*
G37*
G36*
X172411D02*
X171586Y-28200D01*
X170817Y-28519D01*
X170157Y-29025D01*
X169650Y-29686D01*
X169332Y-30454D01*
X169223Y-31280D01*
X169332Y-32105D01*
X169650Y-32873D01*
X170157Y-33534D01*
X170817Y-34040D01*
X171586Y-34359D01*
X172411Y-34468D01*
X173236Y-34359D01*
X174005Y-34040D01*
X174665Y-33534D01*
X175172Y-32873D01*
X175490Y-32105D01*
X175599Y-31280D01*
X175490Y-30454D01*
X175172Y-29686D01*
X174665Y-29025D01*
X174005Y-28519D01*
X173236Y-28200D01*
X172411Y-28092D01*
D02*
G37*
G36*
X192411Y-38092D02*
X191586Y-38200D01*
X190817Y-38519D01*
X190157Y-39025D01*
X189650Y-39686D01*
X189332Y-40455D01*
X189223Y-41280D01*
X189332Y-42105D01*
X189650Y-42873D01*
X190157Y-43534D01*
X190817Y-44040D01*
X191586Y-44359D01*
X192411Y-44467D01*
X193236Y-44359D01*
X194005Y-44040D01*
X194665Y-43534D01*
X195172Y-42873D01*
X195490Y-42105D01*
X195599Y-41280D01*
X195490Y-40455D01*
X195172Y-39686D01*
X194665Y-39025D01*
X194005Y-38519D01*
X193236Y-38200D01*
X192411Y-38092D01*
D02*
G37*
G36*
X182411D02*
X181586Y-38200D01*
X180817Y-38519D01*
X180157Y-39025D01*
X179650Y-39686D01*
X179332Y-40455D01*
X179223Y-41280D01*
X179332Y-42105D01*
X179650Y-42873D01*
X180157Y-43534D01*
X180817Y-44040D01*
X181586Y-44359D01*
X182411Y-44467D01*
X183236Y-44359D01*
X184005Y-44040D01*
X184665Y-43534D01*
X185172Y-42873D01*
X185490Y-42105D01*
X185599Y-41280D01*
X185490Y-40455D01*
X185172Y-39686D01*
X184665Y-39025D01*
X184005Y-38519D01*
X183236Y-38200D01*
X182411Y-38092D01*
D02*
G37*
G36*
X172411D02*
X171586Y-38200D01*
X170817Y-38519D01*
X170157Y-39025D01*
X169650Y-39686D01*
X169332Y-40455D01*
X169223Y-41280D01*
X169332Y-42105D01*
X169650Y-42873D01*
X170157Y-43534D01*
X170817Y-44040D01*
X171586Y-44359D01*
X172411Y-44467D01*
X173236Y-44359D01*
X174005Y-44040D01*
X174665Y-43534D01*
X175172Y-42873D01*
X175490Y-42105D01*
X175599Y-41280D01*
X175490Y-40455D01*
X175172Y-39686D01*
X174665Y-39025D01*
X174005Y-38519D01*
X173236Y-38200D01*
X172411Y-38092D01*
D02*
G37*
G36*
X192411Y-48092D02*
X191586Y-48200D01*
X190817Y-48519D01*
X190157Y-49025D01*
X189650Y-49686D01*
X189332Y-50454D01*
X189223Y-51280D01*
X189332Y-52105D01*
X189650Y-52873D01*
X190157Y-53534D01*
X190817Y-54040D01*
X191586Y-54359D01*
X192411Y-54467D01*
X193236Y-54359D01*
X194005Y-54040D01*
X194665Y-53534D01*
X195172Y-52873D01*
X195490Y-52105D01*
X195599Y-51280D01*
X195490Y-50454D01*
X195172Y-49686D01*
X194665Y-49025D01*
X194005Y-48519D01*
X193236Y-48200D01*
X192411Y-48092D01*
D02*
G37*
G36*
X182411D02*
X181586Y-48200D01*
X180817Y-48519D01*
X180157Y-49025D01*
X179650Y-49686D01*
X179332Y-50454D01*
X179223Y-51280D01*
X179332Y-52105D01*
X179650Y-52873D01*
X180157Y-53534D01*
X180817Y-54040D01*
X181586Y-54359D01*
X182411Y-54467D01*
X183236Y-54359D01*
X184005Y-54040D01*
X184665Y-53534D01*
X185172Y-52873D01*
X185490Y-52105D01*
X185599Y-51280D01*
X185490Y-50454D01*
X185172Y-49686D01*
X184665Y-49025D01*
X184005Y-48519D01*
X183236Y-48200D01*
X182411Y-48092D01*
D02*
G37*
G36*
X172411D02*
X171586Y-48200D01*
X170817Y-48519D01*
X170157Y-49025D01*
X169650Y-49686D01*
X169332Y-50454D01*
X169223Y-51280D01*
X169332Y-52105D01*
X169650Y-52873D01*
X170157Y-53534D01*
X170817Y-54040D01*
X171586Y-54359D01*
X172411Y-54467D01*
X173236Y-54359D01*
X174005Y-54040D01*
X174665Y-53534D01*
X175172Y-52873D01*
X175490Y-52105D01*
X175599Y-51280D01*
X175490Y-50454D01*
X175172Y-49686D01*
X174665Y-49025D01*
X174005Y-48519D01*
X173236Y-48200D01*
X172411Y-48092D01*
D02*
G37*
G36*
X192411Y-58092D02*
X191586Y-58200D01*
X190817Y-58519D01*
X190157Y-59025D01*
X189650Y-59686D01*
X189332Y-60454D01*
X189223Y-61280D01*
X189332Y-62105D01*
X189650Y-62874D01*
X190157Y-63534D01*
X190817Y-64040D01*
X191586Y-64359D01*
X192411Y-64468D01*
X193236Y-64359D01*
X194005Y-64040D01*
X194665Y-63534D01*
X195172Y-62874D01*
X195490Y-62105D01*
X195599Y-61280D01*
X195490Y-60454D01*
X195172Y-59686D01*
X194665Y-59025D01*
X194005Y-58519D01*
X193236Y-58200D01*
X192411Y-58092D01*
D02*
G37*
G36*
X182411D02*
X181586Y-58200D01*
X180817Y-58519D01*
X180157Y-59025D01*
X179650Y-59686D01*
X179332Y-60454D01*
X179223Y-61280D01*
X179332Y-62105D01*
X179650Y-62874D01*
X180157Y-63534D01*
X180817Y-64040D01*
X181586Y-64359D01*
X182411Y-64468D01*
X183236Y-64359D01*
X184005Y-64040D01*
X184665Y-63534D01*
X185172Y-62874D01*
X185490Y-62105D01*
X185599Y-61280D01*
X185490Y-60454D01*
X185172Y-59686D01*
X184665Y-59025D01*
X184005Y-58519D01*
X183236Y-58200D01*
X182411Y-58092D01*
D02*
G37*
G36*
X192411Y-68092D02*
X191586Y-68200D01*
X190817Y-68519D01*
X190157Y-69025D01*
X189650Y-69686D01*
X189332Y-70455D01*
X189223Y-71280D01*
X189332Y-72105D01*
X189650Y-72874D01*
X190157Y-73534D01*
X190817Y-74040D01*
X191586Y-74359D01*
X192411Y-74467D01*
X193236Y-74359D01*
X194005Y-74040D01*
X194665Y-73534D01*
X195172Y-72874D01*
X195490Y-72105D01*
X195599Y-71280D01*
X195490Y-70455D01*
X195172Y-69686D01*
X194665Y-69025D01*
X194005Y-68519D01*
X193236Y-68200D01*
X192411Y-68092D01*
D02*
G37*
G36*
X182411D02*
X181586Y-68200D01*
X180817Y-68519D01*
X180157Y-69025D01*
X179650Y-69686D01*
X179332Y-70455D01*
X179223Y-71280D01*
X179332Y-72105D01*
X179650Y-72874D01*
X180157Y-73534D01*
X180817Y-74040D01*
X181586Y-74359D01*
X182411Y-74467D01*
X183236Y-74359D01*
X184005Y-74040D01*
X184665Y-73534D01*
X185172Y-72874D01*
X185490Y-72105D01*
X185599Y-71280D01*
X185490Y-70455D01*
X185172Y-69686D01*
X184665Y-69025D01*
X184005Y-68519D01*
X183236Y-68200D01*
X182411Y-68092D01*
D02*
G37*
G36*
X172411D02*
X171586Y-68200D01*
X170817Y-68519D01*
X170157Y-69025D01*
X169650Y-69686D01*
X169332Y-70455D01*
X169223Y-71280D01*
X169332Y-72105D01*
X169650Y-72874D01*
X170157Y-73534D01*
X170817Y-74040D01*
X171586Y-74359D01*
X172411Y-74467D01*
X173236Y-74359D01*
X174005Y-74040D01*
X174665Y-73534D01*
X175172Y-72874D01*
X175490Y-72105D01*
X175599Y-71280D01*
X175490Y-70455D01*
X175172Y-69686D01*
X174665Y-69025D01*
X174005Y-68519D01*
X173236Y-68200D01*
X172411Y-68092D01*
D02*
G37*
G36*
X192411Y-78092D02*
X191586Y-78200D01*
X190817Y-78519D01*
X190157Y-79025D01*
X189650Y-79686D01*
X189332Y-80454D01*
X189223Y-81280D01*
X189332Y-82105D01*
X189650Y-82873D01*
X190157Y-83534D01*
X190817Y-84040D01*
X191586Y-84359D01*
X192411Y-84468D01*
X193236Y-84359D01*
X194005Y-84040D01*
X194665Y-83534D01*
X195172Y-82873D01*
X195490Y-82105D01*
X195599Y-81280D01*
X195490Y-80454D01*
X195172Y-79686D01*
X194665Y-79025D01*
X194005Y-78519D01*
X193236Y-78200D01*
X192411Y-78092D01*
D02*
G37*
G36*
X182411D02*
X181586Y-78200D01*
X180817Y-78519D01*
X180157Y-79025D01*
X179650Y-79686D01*
X179332Y-80454D01*
X179223Y-81280D01*
X179332Y-82105D01*
X179650Y-82873D01*
X180157Y-83534D01*
X180817Y-84040D01*
X181586Y-84359D01*
X182411Y-84468D01*
X183236Y-84359D01*
X184005Y-84040D01*
X184665Y-83534D01*
X185172Y-82873D01*
X185490Y-82105D01*
X185599Y-81280D01*
X185490Y-80454D01*
X185172Y-79686D01*
X184665Y-79025D01*
X184005Y-78519D01*
X183236Y-78200D01*
X182411Y-78092D01*
D02*
G37*
G36*
X172411D02*
X171586Y-78200D01*
X170817Y-78519D01*
X170157Y-79025D01*
X169650Y-79686D01*
X169332Y-80454D01*
X169223Y-81280D01*
X169332Y-82105D01*
X169650Y-82873D01*
X170157Y-83534D01*
X170817Y-84040D01*
X171586Y-84359D01*
X172411Y-84468D01*
X173236Y-84359D01*
X174005Y-84040D01*
X174665Y-83534D01*
X175172Y-82873D01*
X175490Y-82105D01*
X175599Y-81280D01*
X175490Y-80454D01*
X175172Y-79686D01*
X174665Y-79025D01*
X174005Y-78519D01*
X173236Y-78200D01*
X172411Y-78092D01*
D02*
G37*
G36*
X192411Y-88092D02*
X191586Y-88200D01*
X190817Y-88519D01*
X190157Y-89025D01*
X189650Y-89686D01*
X189332Y-90455D01*
X189223Y-91280D01*
X189332Y-92105D01*
X189650Y-92874D01*
X190157Y-93534D01*
X190817Y-94040D01*
X191586Y-94359D01*
X192411Y-94468D01*
X193236Y-94359D01*
X194005Y-94040D01*
X194665Y-93534D01*
X195172Y-92874D01*
X195490Y-92105D01*
X195599Y-91280D01*
X195490Y-90455D01*
X195172Y-89686D01*
X194665Y-89025D01*
X194005Y-88519D01*
X193236Y-88200D01*
X192411Y-88092D01*
D02*
G37*
G36*
X182411D02*
X181586Y-88200D01*
X180817Y-88519D01*
X180157Y-89025D01*
X179650Y-89686D01*
X179332Y-90455D01*
X179223Y-91280D01*
X179332Y-92105D01*
X179650Y-92874D01*
X180157Y-93534D01*
X180817Y-94040D01*
X181586Y-94359D01*
X182411Y-94468D01*
X183236Y-94359D01*
X184005Y-94040D01*
X184665Y-93534D01*
X185172Y-92874D01*
X185490Y-92105D01*
X185599Y-91280D01*
X185490Y-90455D01*
X185172Y-89686D01*
X184665Y-89025D01*
X184005Y-88519D01*
X183236Y-88200D01*
X182411Y-88092D01*
D02*
G37*
G36*
X172411D02*
X171586Y-88200D01*
X170817Y-88519D01*
X170157Y-89025D01*
X169650Y-89686D01*
X169332Y-90455D01*
X169223Y-91280D01*
X169332Y-92105D01*
X169650Y-92874D01*
X170157Y-93534D01*
X170817Y-94040D01*
X171586Y-94359D01*
X172411Y-94468D01*
X173236Y-94359D01*
X174005Y-94040D01*
X174665Y-93534D01*
X175172Y-92874D01*
X175490Y-92105D01*
X175599Y-91280D01*
X175490Y-90455D01*
X175172Y-89686D01*
X174665Y-89025D01*
X174005Y-88519D01*
X173236Y-88200D01*
X172411Y-88092D01*
D02*
G37*
G36*
X192411Y-98092D02*
X191586Y-98200D01*
X190817Y-98519D01*
X190157Y-99025D01*
X189650Y-99686D01*
X189332Y-100454D01*
X189223Y-101280D01*
X189332Y-102105D01*
X189650Y-102874D01*
X190157Y-103534D01*
X190817Y-104040D01*
X191586Y-104359D01*
X192411Y-104467D01*
X193236Y-104359D01*
X194005Y-104040D01*
X194665Y-103534D01*
X195172Y-102874D01*
X195490Y-102105D01*
X195599Y-101280D01*
X195490Y-100454D01*
X195172Y-99686D01*
X194665Y-99025D01*
X194005Y-98519D01*
X193236Y-98200D01*
X192411Y-98092D01*
D02*
G37*
G36*
X182411D02*
X181586Y-98200D01*
X180817Y-98519D01*
X180157Y-99025D01*
X179650Y-99686D01*
X179332Y-100454D01*
X179223Y-101280D01*
X179332Y-102105D01*
X179650Y-102874D01*
X180157Y-103534D01*
X180817Y-104040D01*
X181586Y-104359D01*
X182411Y-104467D01*
X183236Y-104359D01*
X184005Y-104040D01*
X184665Y-103534D01*
X185172Y-102874D01*
X185490Y-102105D01*
X185599Y-101280D01*
X185490Y-100454D01*
X185172Y-99686D01*
X184665Y-99025D01*
X184005Y-98519D01*
X183236Y-98200D01*
X182411Y-98092D01*
D02*
G37*
G36*
X172411D02*
X171586Y-98200D01*
X170817Y-98519D01*
X170157Y-99025D01*
X169650Y-99686D01*
X169332Y-100454D01*
X169223Y-101280D01*
X169332Y-102105D01*
X169650Y-102874D01*
X170157Y-103534D01*
X170817Y-104040D01*
X171586Y-104359D01*
X172411Y-104467D01*
X173236Y-104359D01*
X174005Y-104040D01*
X174665Y-103534D01*
X175172Y-102874D01*
X175490Y-102105D01*
X175599Y-101280D01*
X175490Y-100454D01*
X175172Y-99686D01*
X174665Y-99025D01*
X174005Y-98519D01*
X173236Y-98200D01*
X172411Y-98092D01*
D02*
G37*
G36*
X74109Y259259D02*
X72633D01*
Y254850D01*
X74109D01*
X74200Y254868D01*
X74309D01*
X74437Y254886D01*
X74710Y254922D01*
X75038Y254995D01*
X75366Y255086D01*
X75694Y255232D01*
X75985Y255414D01*
X76022Y255433D01*
X76095Y255524D01*
X76204Y255651D01*
X76350Y255833D01*
X76477Y256088D01*
X76587Y256380D01*
X76660Y256726D01*
X76696Y257127D01*
Y257145D01*
Y257164D01*
Y257218D01*
X76678Y257291D01*
X76660Y257473D01*
X76605Y257710D01*
X76532Y257965D01*
X76404Y258220D01*
X76240Y258475D01*
X76004Y258694D01*
X75967Y258712D01*
X75876Y258785D01*
X75730Y258876D01*
X75512Y258985D01*
X75238Y259077D01*
X74929Y259168D01*
X74546Y259241D01*
X74109Y259259D01*
D02*
G37*
G36*
X-16044Y253519D02*
X-18048D01*
X-18176Y253501D01*
X-18467Y253483D01*
X-18777Y253410D01*
X-18795D01*
X-18832Y253392D01*
X-18904Y253374D01*
X-18995Y253337D01*
X-19214Y253228D01*
X-19415Y253100D01*
X-19433D01*
X-19451Y253064D01*
X-19542Y252973D01*
X-19670Y252809D01*
X-19779Y252627D01*
Y252608D01*
X-19797Y252572D01*
X-19815Y252517D01*
X-19834Y252445D01*
X-19870Y252244D01*
X-19888Y252007D01*
Y251989D01*
Y251971D01*
X-19870Y251861D01*
X-19852Y251716D01*
X-19815Y251552D01*
Y251534D01*
X-19797Y251515D01*
X-19761Y251424D01*
X-19688Y251297D01*
X-19579Y251151D01*
X-19542Y251133D01*
X-19469Y251060D01*
X-19323Y250969D01*
X-19160Y250896D01*
X-19141D01*
X-19105Y250877D01*
X-19050Y250859D01*
X-18977D01*
X-18777Y250823D01*
X-18522Y250805D01*
X-18431D01*
X-18340Y250823D01*
X-18194Y250841D01*
X-18030Y250877D01*
X-17829Y250932D01*
X-17629Y251005D01*
X-17392Y251096D01*
X-17356Y251114D01*
X-17283Y251151D01*
X-17155Y251224D01*
X-16991Y251333D01*
X-16791Y251461D01*
X-16554Y251625D01*
X-16299Y251807D01*
X-16044Y252044D01*
Y253519D01*
D02*
G37*
G36*
X65254Y259368D02*
X65144D01*
X64999Y259350D01*
X64835Y259332D01*
X64653Y259277D01*
X64434Y259222D01*
X64233Y259131D01*
X64033Y259022D01*
X64015Y259004D01*
X63960Y258967D01*
X63869Y258894D01*
X63741Y258785D01*
X63614Y258658D01*
X63486Y258493D01*
X63341Y258311D01*
X63213Y258111D01*
X63195Y258093D01*
X63159Y258020D01*
X63104Y257892D01*
X63031Y257728D01*
X62958Y257546D01*
X62867Y257309D01*
X62794Y257054D01*
X62721Y256781D01*
Y256744D01*
X62703Y256653D01*
X62685Y256489D01*
X62648Y256289D01*
X62630Y256052D01*
X62594Y255779D01*
X62575Y255469D01*
Y255159D01*
Y255141D01*
Y255123D01*
Y255068D01*
Y254995D01*
Y254813D01*
X62594Y254594D01*
X62612Y254321D01*
X62630Y254030D01*
X62721Y253410D01*
Y253374D01*
X62758Y253283D01*
X62776Y253137D01*
X62831Y252955D01*
X62903Y252736D01*
X62976Y252517D01*
X63067Y252280D01*
X63177Y252062D01*
X63195Y252044D01*
X63231Y251971D01*
X63304Y251880D01*
X63414Y251752D01*
X63523Y251606D01*
X63669Y251479D01*
X63833Y251333D01*
X64015Y251205D01*
X64033Y251187D01*
X64106Y251151D01*
X64215Y251114D01*
X64361Y251060D01*
X64543Y250987D01*
X64762Y250950D01*
X64999Y250914D01*
X65254Y250896D01*
X65381D01*
X65509Y250914D01*
X65673Y250932D01*
X65873Y250969D01*
X66074Y251042D01*
X66274Y251114D01*
X66474Y251224D01*
X66493Y251242D01*
X66566Y251278D01*
X66657Y251351D01*
X66766Y251461D01*
X66912Y251588D01*
X67039Y251734D01*
X67185Y251916D01*
X67313Y252116D01*
X67331Y252135D01*
X67367Y252226D01*
X67422Y252335D01*
X67495Y252499D01*
X67586Y252700D01*
X67659Y252918D01*
X67732Y253173D01*
X67805Y253447D01*
Y253483D01*
X67823Y253574D01*
X67859Y253738D01*
X67896Y253939D01*
X67914Y254175D01*
X67950Y254467D01*
X67969Y254758D01*
Y255086D01*
Y255105D01*
Y255123D01*
Y255177D01*
Y255250D01*
Y255433D01*
X67950Y255651D01*
X67932Y255925D01*
X67896Y256216D01*
X67805Y256817D01*
Y256836D01*
Y256854D01*
X67786Y256945D01*
X67750Y257091D01*
X67695Y257273D01*
X67622Y257491D01*
X67550Y257710D01*
X67440Y257947D01*
X67331Y258166D01*
X67313Y258184D01*
X67276Y258257D01*
X67203Y258366D01*
X67112Y258493D01*
X66985Y258621D01*
X66839Y258767D01*
X66675Y258913D01*
X66493Y259040D01*
X66474Y259058D01*
X66402Y259095D01*
X66292Y259149D01*
X66147Y259204D01*
X65964Y259259D01*
X65764Y259313D01*
X65509Y259350D01*
X65254Y259368D01*
D02*
G37*
G36*
X810Y256999D02*
X445D01*
X336Y256981D01*
X208Y256963D01*
X63Y256927D01*
X-247Y256817D01*
X-265D01*
X-302Y256781D01*
X-375Y256744D01*
X-466Y256690D01*
X-684Y256526D01*
X-903Y256307D01*
X-921Y256289D01*
X-939Y256252D01*
X-994Y256180D01*
X-1067Y256088D01*
X-1140Y255979D01*
X-1213Y255833D01*
X-1359Y255524D01*
Y255505D01*
X-1377Y255451D01*
X-1413Y255360D01*
X-1450Y255232D01*
X-1486Y255086D01*
X-1504Y254904D01*
X-1559Y254521D01*
X2777Y254521D01*
Y254540D01*
Y254613D01*
Y254722D01*
Y254850D01*
X2759Y254995D01*
X2741Y255159D01*
X2650Y255505D01*
Y255524D01*
X2632Y255578D01*
X2595Y255669D01*
X2559Y255779D01*
X2431Y256034D01*
X2249Y256289D01*
X2231Y256307D01*
X2194Y256344D01*
X2140Y256398D01*
X2067Y256471D01*
X1957Y256562D01*
X1848Y256635D01*
X1557Y256799D01*
X1538Y256817D01*
X1484Y256836D01*
X1393Y256872D01*
X1283Y256908D01*
X1156Y256945D01*
X992Y256963D01*
X810Y256999D01*
D02*
G37*
%LPD*%
D11*
X129295Y-34646D02*
X172411Y8470D01*
X167391Y-56260D02*
Y-40945D01*
X-29656Y43307D02*
X-1900D01*
X-42254Y30709D02*
X-29656Y43307D01*
X172411Y8470D02*
Y8720D01*
X49281Y-3937D02*
X51950Y-6606D01*
X43307Y-3937D02*
X49281D01*
X39370Y-7874D02*
X43307Y-3937D01*
X4005Y49213D02*
Y57087D01*
X7942Y61024D01*
X-4337Y56618D02*
X68Y61024D01*
X167391Y-56260D02*
X172411Y-61280D01*
X-44254Y31858D02*
X-30837Y45276D01*
X-4337Y48744D02*
Y56618D01*
X-30837Y45276D02*
X-7806D01*
X-4337Y48744D01*
X-1900Y43307D02*
X4005Y49213D01*
X39370Y-32943D02*
Y-7874D01*
X-42254Y-25591D02*
Y30709D01*
X163084Y-36637D02*
X167391Y-40945D01*
X-44254Y-25995D02*
X-33612Y-36637D01*
X37667Y-34646D02*
X39370Y-32943D01*
X-33199Y-34646D02*
X37667D01*
X-42254Y-25591D02*
X-33199Y-34646D01*
X51950Y-9460D02*
Y-6606D01*
Y-9460D02*
X77135Y-34646D01*
X47244Y-7874D02*
X47266D01*
X76029Y-36637D01*
X-33612D02*
X76029D01*
X163084D01*
X-44254Y-25995D02*
Y31858D01*
X121131Y-29528D02*
X126250Y-34646D01*
X129295D01*
X77135D02*
X126250D01*
D20*
X172411Y138720D02*
D03*
Y148720D02*
D03*
X182411D02*
D03*
Y138720D02*
D03*
X172411Y118720D02*
D03*
Y128720D02*
D03*
X182411D02*
D03*
Y-81280D02*
D03*
Y-91280D02*
D03*
Y-101280D02*
D03*
X172411D02*
D03*
Y-91280D02*
D03*
Y-81280D02*
D03*
X182411Y28720D02*
D03*
Y48720D02*
D03*
Y38720D02*
D03*
Y58720D02*
D03*
Y68720D02*
D03*
Y78720D02*
D03*
Y88720D02*
D03*
Y98720D02*
D03*
Y108720D02*
D03*
Y118720D02*
D03*
X172411Y18720D02*
D03*
Y28720D02*
D03*
Y48720D02*
D03*
Y38720D02*
D03*
Y58720D02*
D03*
Y68720D02*
D03*
Y78720D02*
D03*
Y88720D02*
D03*
Y98720D02*
D03*
Y108720D02*
D03*
Y8720D02*
D03*
Y-11280D02*
D03*
Y-1280D02*
D03*
Y-21280D02*
D03*
Y-31280D02*
D03*
Y-41280D02*
D03*
Y-51280D02*
D03*
Y-61280D02*
D03*
Y-71280D02*
D03*
X182411D02*
D03*
Y-61280D02*
D03*
Y-51280D02*
D03*
Y-41280D02*
D03*
Y-31280D02*
D03*
Y-21280D02*
D03*
Y-1280D02*
D03*
Y-11280D02*
D03*
Y8720D02*
D03*
Y18720D02*
D03*
X192411Y138720D02*
D03*
Y148720D02*
D03*
X202411D02*
D03*
Y138720D02*
D03*
X192411Y118720D02*
D03*
Y128720D02*
D03*
X202411D02*
D03*
Y-81280D02*
D03*
Y-91280D02*
D03*
Y-101280D02*
D03*
X192411D02*
D03*
Y-91280D02*
D03*
Y-81280D02*
D03*
X202411Y28720D02*
D03*
Y48720D02*
D03*
Y38720D02*
D03*
Y58720D02*
D03*
Y68720D02*
D03*
Y78720D02*
D03*
Y88720D02*
D03*
Y98720D02*
D03*
Y108720D02*
D03*
Y118720D02*
D03*
X192411Y18720D02*
D03*
Y28720D02*
D03*
Y48720D02*
D03*
Y38720D02*
D03*
Y58720D02*
D03*
Y68720D02*
D03*
Y78720D02*
D03*
Y88720D02*
D03*
Y98720D02*
D03*
Y108720D02*
D03*
Y8720D02*
D03*
Y-11280D02*
D03*
Y-1280D02*
D03*
Y-21280D02*
D03*
Y-31280D02*
D03*
Y-41280D02*
D03*
Y-51280D02*
D03*
Y-61280D02*
D03*
Y-71280D02*
D03*
X202411D02*
D03*
Y-61280D02*
D03*
Y-51280D02*
D03*
Y-41280D02*
D03*
Y-31280D02*
D03*
Y-21280D02*
D03*
Y-1280D02*
D03*
Y-11280D02*
D03*
Y8720D02*
D03*
Y18720D02*
D03*
X47313Y53150D02*
D03*
Y61024D02*
D03*
X39439Y53150D02*
D03*
Y61024D02*
D03*
X31565Y53150D02*
D03*
Y61024D02*
D03*
X23690Y53150D02*
D03*
Y61024D02*
D03*
X15816Y53150D02*
D03*
Y61024D02*
D03*
X7942Y53150D02*
D03*
Y61024D02*
D03*
X68Y53150D02*
D03*
X68Y61024D02*
D03*
X0Y0D02*
D03*
Y-7874D02*
D03*
X7874Y0D02*
D03*
Y-7874D02*
D03*
X15748Y0D02*
D03*
Y-7874D02*
D03*
X23622Y0D02*
D03*
Y-7874D02*
D03*
X31496Y0D02*
D03*
Y-7874D02*
D03*
X39370Y0D02*
D03*
Y-7874D02*
D03*
X47244Y0D02*
D03*
X47244Y-7874D02*
D03*
D21*
X202011Y-121305D02*
D03*
X61092Y56693D02*
D03*
X-13711Y56693D02*
D03*
X-13780Y-3543D02*
D03*
X61024Y-3543D02*
D03*
D22*
X-53849Y134173D02*
D03*
X-30660D02*
D03*
D24*
X160036Y-9637D02*
Y-9637D01*
Y-9637D02*
X164962Y-14563D01*
D25*
X-98357Y-40354D02*
D03*
X-105246D02*
D03*
X-91467D02*
D03*
X-125916D02*
D03*
X-112136D02*
D03*
X-119026D02*
D03*
Y157480D02*
D03*
X-112136D02*
D03*
X-125916D02*
D03*
X137902Y-30694D02*
D03*
X56564Y-21654D02*
D03*
X62660Y-15623D02*
D03*
X42785Y-30118D02*
D03*
Y-23622D02*
D03*
X35895Y-30118D02*
D03*
X36092Y-23622D02*
D03*
X159916Y-9452D02*
D03*
X164962Y-14563D02*
D03*
X127734Y-30694D02*
D03*
X-34872Y141634D02*
D03*
X66991Y-19954D02*
D03*
X60895Y-25984D02*
D03*
D26*
X-135464Y183677D02*
D03*
X202036Y168670D02*
D03*
X-135464Y-131330D02*
D03*
D27*
X-114189Y-4180D02*
D03*
Y130820D02*
D03*
X140811D02*
D03*
Y-4180D02*
D03*
X-63439Y72835D02*
D03*
Y27559D02*
D03*
D28*
X-85562Y133858D02*
D03*
X-65876D02*
D03*
X121131Y-29528D02*
D03*
X105383D02*
D03*
D29*
X-44284Y31724D02*
D03*
M02*
