G04 Layer_Physical_Order=2*
G04 Layer_Color=16711680*
%FSLAX25Y25*%
%MOIN*%
G70*
G01*
G75*
%ADD10C,0.01000*%
%ADD11C,0.05000*%
%ADD12C,0.03937*%
%ADD13C,0.15748*%
%ADD14C,0.15000*%
%ADD15C,0.24400*%
%ADD16C,0.04921*%
%ADD17C,0.03543*%
%ADD18C,0.05906*%
%ADD19C,0.01969*%
%ADD20R,0.06299X0.08661*%
%ADD21R,0.02756X0.07087*%
%ADD22C,0.02000*%
%ADD23R,0.12598X0.12598*%
G36*
X78409Y260541D02*
X75238D01*
Y251066D01*
X73763D01*
Y260541D01*
X70592D01*
Y261779D01*
X78409D01*
Y260541D01*
D02*
G37*
G36*
X56053Y261761D02*
X56271Y261743D01*
X56545Y261707D01*
X56836Y261634D01*
X57164Y261561D01*
X57492Y261452D01*
X57820Y261324D01*
X58148Y261142D01*
X58439Y260941D01*
X58713Y260686D01*
X58931Y260377D01*
X59114Y260030D01*
X59223Y259630D01*
X59241Y259411D01*
X59259Y259174D01*
Y259156D01*
Y259138D01*
Y259028D01*
X59241Y258864D01*
X59205Y258664D01*
X59150Y258427D01*
X59077Y258172D01*
X58986Y257917D01*
X58840Y257680D01*
X58822Y257662D01*
X58767Y257571D01*
X58658Y257461D01*
X58531Y257334D01*
X58348Y257188D01*
X58112Y257024D01*
X57838Y256878D01*
X57510Y256751D01*
X57529D01*
X57583Y256733D01*
X57674Y256714D01*
X57784Y256696D01*
X58039Y256605D01*
X58330Y256477D01*
X58348D01*
X58403Y256441D01*
X58476Y256405D01*
X58567Y256332D01*
X58786Y256186D01*
X59004Y255967D01*
X59022Y255949D01*
X59059Y255913D01*
X59114Y255840D01*
X59168Y255767D01*
X59241Y255658D01*
X59314Y255530D01*
X59460Y255220D01*
Y255202D01*
X59496Y255147D01*
X59514Y255056D01*
X59551Y254947D01*
X59587Y254801D01*
X59606Y254637D01*
X59642Y254273D01*
Y254236D01*
Y254145D01*
X59624Y253999D01*
X59606Y253799D01*
X59569Y253599D01*
X59514Y253362D01*
X59442Y253125D01*
X59332Y252888D01*
X59314Y252870D01*
X59278Y252797D01*
X59205Y252688D01*
X59114Y252542D01*
X59004Y252396D01*
X58859Y252214D01*
X58695Y252050D01*
X58494Y251886D01*
X58476Y251868D01*
X58403Y251813D01*
X58276Y251740D01*
X58130Y251667D01*
X57929Y251558D01*
X57711Y251449D01*
X57456Y251358D01*
X57164Y251267D01*
X57128D01*
X57037Y251230D01*
X56873Y251212D01*
X56672Y251175D01*
X56417Y251139D01*
X56125Y251103D01*
X55798Y251084D01*
X55451Y251066D01*
X52700D01*
Y261779D01*
X55870D01*
X56053Y261761D01*
D02*
G37*
G36*
X28413Y261925D02*
X28595D01*
X28795Y261889D01*
X29014Y261852D01*
X29251Y261798D01*
X29470Y261725D01*
X29488Y261707D01*
X29561Y261688D01*
X29670Y261634D01*
X29816Y261561D01*
X29980Y261470D01*
X30144Y261379D01*
X30472Y261105D01*
X30490Y261087D01*
X30545Y261033D01*
X30617Y260941D01*
X30727Y260832D01*
X30836Y260686D01*
X30946Y260522D01*
X31055Y260340D01*
X31146Y260121D01*
X31164Y260103D01*
X31182Y260012D01*
X31219Y259903D01*
X31273Y259739D01*
X31310Y259538D01*
X31346Y259320D01*
X31365Y259083D01*
X31383Y258810D01*
Y258791D01*
Y258700D01*
Y258591D01*
X31365Y258427D01*
X31346Y258263D01*
X31310Y258063D01*
X31219Y257662D01*
Y257644D01*
X31182Y257571D01*
X31146Y257461D01*
X31091Y257334D01*
X31018Y257170D01*
X30927Y256988D01*
X30709Y256605D01*
X30690Y256587D01*
X30654Y256514D01*
X30581Y256423D01*
X30490Y256277D01*
X30362Y256113D01*
X30217Y255931D01*
X30053Y255730D01*
X29871Y255530D01*
X29852Y255512D01*
X29779Y255439D01*
X29670Y255330D01*
X29543Y255184D01*
X29360Y255002D01*
X29160Y254801D01*
X28941Y254564D01*
X28686Y254328D01*
X26755Y252433D01*
X31966D01*
Y251066D01*
X24896D01*
Y252342D01*
X27648Y255093D01*
X27684Y255129D01*
X27757Y255202D01*
X27885Y255330D01*
X28049Y255494D01*
X28231Y255676D01*
X28413Y255876D01*
X28595Y256077D01*
X28759Y256259D01*
X28777Y256277D01*
X28832Y256350D01*
X28905Y256441D01*
X28996Y256550D01*
X29105Y256696D01*
X29215Y256842D01*
X29415Y257152D01*
X29433Y257170D01*
X29452Y257224D01*
X29506Y257297D01*
X29561Y257407D01*
X29670Y257644D01*
X29743Y257917D01*
Y257935D01*
X29761Y257990D01*
X29779Y258063D01*
X29798Y258154D01*
Y258263D01*
X29816Y258409D01*
X29834Y258700D01*
Y258718D01*
Y258773D01*
Y258846D01*
X29816Y258937D01*
X29798Y259192D01*
X29725Y259447D01*
Y259466D01*
X29706Y259502D01*
X29688Y259575D01*
X29652Y259666D01*
X29543Y259866D01*
X29397Y260085D01*
X29379Y260103D01*
X29360Y260140D01*
X29306Y260176D01*
X29251Y260249D01*
X29051Y260377D01*
X28814Y260522D01*
X28795D01*
X28759Y260541D01*
X28686Y260577D01*
X28577Y260613D01*
X28449Y260632D01*
X28322Y260668D01*
X28158Y260686D01*
X27866D01*
X27739Y260668D01*
X27575Y260650D01*
X27374Y260613D01*
X27174Y260559D01*
X26955Y260486D01*
X26737Y260377D01*
X26719Y260358D01*
X26646Y260322D01*
X26536Y260249D01*
X26390Y260158D01*
X26245Y260049D01*
X26063Y259921D01*
X25899Y259757D01*
X25716Y259593D01*
X24933Y260522D01*
X24969Y260559D01*
X25042Y260632D01*
X25170Y260741D01*
X25334Y260887D01*
X25534Y261051D01*
X25771Y261215D01*
X26026Y261397D01*
X26318Y261543D01*
X26336D01*
X26354Y261561D01*
X26463Y261597D01*
X26627Y261670D01*
X26846Y261743D01*
X27119Y261816D01*
X27429Y261889D01*
X27775Y261925D01*
X28158Y261944D01*
X28285D01*
X28413Y261925D01*
D02*
G37*
G36*
X87646Y260541D02*
X84476D01*
Y251066D01*
X83000D01*
Y260541D01*
X79830D01*
Y261779D01*
X87646D01*
Y260541D01*
D02*
G37*
G36*
X106431Y251066D02*
X105010D01*
X104791Y257753D01*
X104700Y260304D01*
X104190Y258828D01*
X102605Y254564D01*
X101603D01*
X100090Y258664D01*
X99598Y260304D01*
X99562Y257644D01*
X99380Y251066D01*
X97995D01*
X98523Y261779D01*
X100254D01*
X101694Y257735D01*
X102167Y256368D01*
X102605Y257735D01*
X104135Y261779D01*
X105921D01*
X106431Y251066D01*
D02*
G37*
G36*
X11286Y259429D02*
X11377D01*
X11505Y259411D01*
X11796Y259338D01*
X12106Y259247D01*
X12416Y259101D01*
X12725Y258882D01*
X12871Y258755D01*
X12999Y258609D01*
X13035Y258573D01*
X13054Y258518D01*
X13108Y258463D01*
X13145Y258372D01*
X13199Y258263D01*
X13272Y258136D01*
X13327Y257990D01*
X13381Y257826D01*
X13436Y257662D01*
X13491Y257461D01*
X13545Y257243D01*
X13582Y256988D01*
X13600Y256733D01*
X13618Y256459D01*
Y256168D01*
X12179D01*
Y256186D01*
Y256222D01*
Y256277D01*
Y256350D01*
X12161Y256532D01*
X12143Y256751D01*
X12106Y257006D01*
X12051Y257261D01*
X11960Y257516D01*
X11851Y257716D01*
X11833Y257735D01*
X11796Y257789D01*
X11705Y257880D01*
X11596Y257972D01*
X11450Y258044D01*
X11286Y258136D01*
X11086Y258190D01*
X10849Y258208D01*
X10740D01*
X10685Y258190D01*
X10503Y258172D01*
X10284Y258099D01*
X10266D01*
X10229Y258081D01*
X10175Y258063D01*
X10102Y258026D01*
X9901Y257917D01*
X9683Y257771D01*
X9664Y257753D01*
X9628Y257735D01*
X9573Y257680D01*
X9482Y257625D01*
X9282Y257425D01*
X9027Y257188D01*
X9009Y257170D01*
X8972Y257133D01*
X8899Y257061D01*
X8808Y256951D01*
X8699Y256824D01*
X8571Y256696D01*
X8444Y256532D01*
X8298Y256350D01*
Y251066D01*
X6859D01*
Y259302D01*
X8152D01*
X8189Y257771D01*
Y257789D01*
X8225Y257807D01*
X8316Y257917D01*
X8462Y258063D01*
X8644Y258263D01*
X8863Y258463D01*
X9100Y258682D01*
X9355Y258882D01*
X9628Y259047D01*
X9664Y259065D01*
X9756Y259101D01*
X9883Y259174D01*
X10084Y259247D01*
X10284Y259320D01*
X10539Y259393D01*
X10794Y259429D01*
X11067Y259447D01*
X11195D01*
X11286Y259429D01*
D02*
G37*
G36*
X-7426Y251941D02*
Y251922D01*
X-7444Y251886D01*
X-7462Y251831D01*
X-7499Y251759D01*
X-7590Y251540D01*
X-7699Y251285D01*
X-7845Y250993D01*
X-7991Y250665D01*
X-8155Y250337D01*
X-8337Y250028D01*
X-8355Y249991D01*
X-8410Y249900D01*
X-8501Y249736D01*
X-8628Y249554D01*
X-8774Y249335D01*
X-8956Y249117D01*
X-9138Y248898D01*
X-9339Y248679D01*
X-9357Y248661D01*
X-9430Y248588D01*
X-9539Y248497D01*
X-9685Y248388D01*
X-9867Y248260D01*
X-10068Y248133D01*
X-10305Y248023D01*
X-10541Y247914D01*
X-10578Y247896D01*
X-10651Y247878D01*
X-10796Y247841D01*
X-10979Y247786D01*
X-11197Y247732D01*
X-11434Y247695D01*
X-11726Y247677D01*
X-12017Y247659D01*
X-12272D01*
X-12418Y247677D01*
X-12637D01*
X-12783Y247695D01*
Y248989D01*
X-12746D01*
X-12673Y248971D01*
X-12546D01*
X-12400Y248953D01*
X-12363D01*
X-12254Y248934D01*
X-12108Y248916D01*
X-11799D01*
X-11708Y248934D01*
X-11452Y248971D01*
X-11197Y249044D01*
X-11179D01*
X-11143Y249062D01*
X-11070Y249098D01*
X-10979Y249135D01*
X-10778Y249244D01*
X-10560Y249408D01*
X-10541Y249426D01*
X-10505Y249463D01*
X-10450Y249517D01*
X-10378Y249590D01*
X-10286Y249681D01*
X-10177Y249809D01*
X-9977Y250082D01*
X-9958Y250100D01*
X-9922Y250155D01*
X-9867Y250246D01*
X-9794Y250356D01*
X-9721Y250501D01*
X-9630Y250683D01*
X-9521Y250866D01*
X-9430Y251066D01*
X-12710Y259302D01*
X-11088D01*
X-9011Y253836D01*
X-8592Y252560D01*
X-8118Y253872D01*
X-6187Y259302D01*
X-4620D01*
X-7426Y251941D01*
D02*
G37*
G36*
X-17374Y259429D02*
X-17174Y259411D01*
X-16937Y259374D01*
X-16481Y259283D01*
X-16463D01*
X-16372Y259247D01*
X-16262Y259210D01*
X-16135Y259156D01*
X-15971Y259083D01*
X-15807Y258992D01*
X-15643Y258901D01*
X-15479Y258773D01*
X-15461Y258755D01*
X-15406Y258718D01*
X-15333Y258646D01*
X-15242Y258555D01*
X-15133Y258427D01*
X-15024Y258281D01*
X-14932Y258117D01*
X-14841Y257935D01*
X-14823Y257917D01*
X-14805Y257844D01*
X-14769Y257735D01*
X-14714Y257589D01*
X-14677Y257425D01*
X-14641Y257206D01*
X-14623Y256988D01*
X-14604Y256733D01*
Y251066D01*
X-15898D01*
X-15935Y252159D01*
X-15971Y252123D01*
X-16044Y252050D01*
X-16190Y251941D01*
X-16354Y251795D01*
X-16572Y251649D01*
X-16791Y251485D01*
X-17046Y251339D01*
X-17301Y251212D01*
X-17337Y251194D01*
X-17429Y251175D01*
X-17556Y251121D01*
X-17738Y251066D01*
X-17957Y251011D01*
X-18212Y250975D01*
X-18467Y250939D01*
X-18759Y250920D01*
X-18868D01*
X-18995Y250939D01*
X-19160D01*
X-19360Y250957D01*
X-19560Y250993D01*
X-19961Y251084D01*
X-19979D01*
X-20034Y251121D01*
X-20125Y251157D01*
X-20253Y251212D01*
X-20508Y251376D01*
X-20781Y251576D01*
X-20799Y251594D01*
X-20836Y251631D01*
X-20890Y251704D01*
X-20963Y251795D01*
X-21036Y251904D01*
X-21127Y252032D01*
X-21255Y252323D01*
Y252342D01*
X-21273Y252396D01*
X-21291Y252487D01*
X-21328Y252597D01*
X-21346Y252742D01*
X-21382Y252906D01*
X-21401Y253253D01*
Y253271D01*
Y253307D01*
Y253380D01*
X-21382Y253453D01*
X-21364Y253562D01*
X-21346Y253690D01*
X-21291Y253963D01*
X-21182Y254273D01*
X-21018Y254601D01*
X-20909Y254765D01*
X-20781Y254910D01*
X-20653Y255056D01*
X-20490Y255202D01*
X-20471D01*
X-20453Y255239D01*
X-20398Y255275D01*
X-20307Y255311D01*
X-20216Y255366D01*
X-20107Y255421D01*
X-19961Y255494D01*
X-19797Y255567D01*
X-19615Y255621D01*
X-19415Y255694D01*
X-19196Y255749D01*
X-18941Y255803D01*
X-18686Y255840D01*
X-18394Y255876D01*
X-18085Y255913D01*
X-16044D01*
Y256623D01*
Y256660D01*
Y256751D01*
X-16062Y256878D01*
X-16098Y257042D01*
X-16153Y257224D01*
X-16244Y257425D01*
X-16354Y257607D01*
X-16518Y257789D01*
X-16536Y257807D01*
X-16609Y257862D01*
X-16718Y257935D01*
X-16864Y258008D01*
X-17064Y258081D01*
X-17319Y258154D01*
X-17611Y258208D01*
X-17939Y258227D01*
X-18194D01*
X-18376Y258208D01*
X-18595Y258190D01*
X-18813Y258154D01*
X-19323Y258063D01*
X-19360D01*
X-19433Y258026D01*
X-19579Y257990D01*
X-19742Y257953D01*
X-19961Y257880D01*
X-20198Y257807D01*
X-20453Y257716D01*
X-20708Y257625D01*
Y258919D01*
X-20690D01*
X-20653Y258937D01*
X-20617Y258955D01*
X-20544Y258974D01*
X-20362Y259028D01*
X-20125Y259101D01*
X-20107D01*
X-20071Y259119D01*
X-19998Y259138D01*
X-19906Y259156D01*
X-19670Y259210D01*
X-19415Y259265D01*
X-19396D01*
X-19342Y259283D01*
X-19269Y259302D01*
X-19178Y259320D01*
X-19068Y259338D01*
X-18941Y259356D01*
X-18649Y259393D01*
X-18631D01*
X-18576Y259411D01*
X-18504D01*
X-18394Y259429D01*
X-18267D01*
X-18139Y259447D01*
X-17556D01*
X-17374Y259429D01*
D02*
G37*
G36*
X7857Y138182D02*
Y100282D01*
X8012Y99502D01*
X8454Y98840D01*
X13095Y94200D01*
X13756Y93758D01*
X14536Y93603D01*
X80145D01*
X86772Y86976D01*
Y44577D01*
X86927Y43797D01*
X87369Y43135D01*
X101512Y28992D01*
X102174Y28550D01*
X102954Y28395D01*
X120815D01*
X121596Y28550D01*
X122257Y28992D01*
X124107Y30842D01*
X169111D01*
X169337Y30342D01*
X169039Y29624D01*
X168921Y28720D01*
X169039Y27817D01*
X169388Y26975D01*
X169943Y26252D01*
X170666Y25698D01*
X171508Y25349D01*
X172411Y25230D01*
X173314Y25349D01*
X174156Y25698D01*
X174879Y26252D01*
X175434Y26975D01*
X175783Y27817D01*
X175901Y28720D01*
X175783Y29624D01*
X175485Y30342D01*
X175711Y30842D01*
X179111D01*
X179337Y30342D01*
X179039Y29624D01*
X178920Y28720D01*
X179039Y27817D01*
X179388Y26975D01*
X179943Y26252D01*
X180666Y25698D01*
X181508Y25349D01*
X182411Y25230D01*
X183314Y25349D01*
X184156Y25698D01*
X184879Y26252D01*
X184972Y26373D01*
X185472Y26203D01*
Y23620D01*
X185627Y22840D01*
X186069Y22178D01*
X188991Y19256D01*
X188920Y18720D01*
X189039Y17817D01*
X189388Y16975D01*
X189943Y16252D01*
X190666Y15698D01*
X191507Y15349D01*
X192411Y15230D01*
X193314Y15349D01*
X194156Y15698D01*
X194879Y16252D01*
X195208Y16681D01*
X199614D01*
X199943Y16252D01*
X200666Y15698D01*
X201507Y15349D01*
X202411Y15230D01*
X203314Y15349D01*
X204156Y15698D01*
X204654Y16080D01*
X205154Y15833D01*
Y11608D01*
X204654Y11361D01*
X204156Y11743D01*
X203314Y12092D01*
X202411Y12211D01*
X201507Y12092D01*
X200666Y11743D01*
X199943Y11189D01*
X199388Y10466D01*
X199039Y9624D01*
X198921Y8720D01*
X199039Y7817D01*
X199388Y6975D01*
X199943Y6252D01*
X200666Y5698D01*
X201507Y5349D01*
X202411Y5230D01*
X203314Y5349D01*
X204156Y5698D01*
X204654Y6080D01*
X205154Y5833D01*
Y1608D01*
X204654Y1361D01*
X204156Y1743D01*
X203314Y2092D01*
X202411Y2211D01*
X201507Y2092D01*
X200666Y1743D01*
X199943Y1189D01*
X199388Y466D01*
X199039Y-376D01*
X198921Y-1280D01*
X199039Y-2183D01*
X199388Y-3025D01*
X199943Y-3748D01*
X200666Y-4302D01*
X201507Y-4651D01*
X202411Y-4770D01*
X203314Y-4651D01*
X204156Y-4302D01*
X204654Y-3920D01*
X205154Y-4167D01*
Y-18392D01*
X204654Y-18639D01*
X204156Y-18257D01*
X203314Y-17908D01*
X202411Y-17789D01*
X201507Y-17908D01*
X200666Y-18257D01*
X199943Y-18811D01*
X199388Y-19534D01*
X199039Y-20376D01*
X198921Y-21280D01*
X199039Y-22183D01*
X199388Y-23025D01*
X199943Y-23748D01*
X200666Y-24302D01*
X201507Y-24651D01*
X202411Y-24770D01*
X203314Y-24651D01*
X204156Y-24302D01*
X204654Y-23921D01*
X205154Y-24167D01*
Y-28392D01*
X204654Y-28639D01*
X204156Y-28257D01*
X203314Y-27908D01*
X202411Y-27789D01*
X201507Y-27908D01*
X200666Y-28257D01*
X199943Y-28811D01*
X199388Y-29534D01*
X199039Y-30376D01*
X198921Y-31280D01*
X199039Y-32183D01*
X199388Y-33025D01*
X199943Y-33748D01*
X200666Y-34302D01*
X201507Y-34651D01*
X202411Y-34770D01*
X203314Y-34651D01*
X204156Y-34302D01*
X204654Y-33920D01*
X205154Y-34167D01*
Y-38392D01*
X204654Y-38639D01*
X204156Y-38257D01*
X203314Y-37908D01*
X202411Y-37789D01*
X201507Y-37908D01*
X200666Y-38257D01*
X199943Y-38811D01*
X199388Y-39534D01*
X199039Y-40376D01*
X198921Y-41280D01*
X199039Y-42183D01*
X199388Y-43025D01*
X199943Y-43748D01*
X200666Y-44302D01*
X201507Y-44651D01*
X202411Y-44770D01*
X203314Y-44651D01*
X204156Y-44302D01*
X204654Y-43920D01*
X205154Y-44167D01*
Y-48392D01*
X204654Y-48639D01*
X204156Y-48257D01*
X203314Y-47908D01*
X202411Y-47789D01*
X201507Y-47908D01*
X200666Y-48257D01*
X199943Y-48811D01*
X199388Y-49534D01*
X199039Y-50376D01*
X198921Y-51280D01*
X199039Y-52183D01*
X199388Y-53025D01*
X199943Y-53748D01*
X200666Y-54302D01*
X201507Y-54651D01*
X202411Y-54770D01*
X203314Y-54651D01*
X204156Y-54302D01*
X204654Y-53921D01*
X205154Y-54167D01*
Y-58392D01*
X204654Y-58639D01*
X204156Y-58257D01*
X203314Y-57908D01*
X202411Y-57789D01*
X201507Y-57908D01*
X200666Y-58257D01*
X199943Y-58811D01*
X199388Y-59534D01*
X199039Y-60376D01*
X198921Y-61280D01*
X199039Y-62183D01*
X199388Y-63025D01*
X199943Y-63748D01*
X200666Y-64302D01*
X201507Y-64651D01*
X202411Y-64770D01*
X203314Y-64651D01*
X204156Y-64302D01*
X204654Y-63920D01*
X205154Y-64167D01*
Y-68392D01*
X204654Y-68639D01*
X204156Y-68257D01*
X203314Y-67908D01*
X202411Y-67789D01*
X201507Y-67908D01*
X200666Y-68257D01*
X199943Y-68811D01*
X199388Y-69534D01*
X199039Y-70376D01*
X198921Y-71280D01*
X199039Y-72183D01*
X199388Y-73025D01*
X199943Y-73748D01*
X200666Y-74302D01*
X201507Y-74651D01*
X202411Y-74770D01*
X203314Y-74651D01*
X204156Y-74302D01*
X204654Y-73921D01*
X205154Y-74167D01*
Y-78392D01*
X204654Y-78639D01*
X204156Y-78257D01*
X203314Y-77908D01*
X202411Y-77789D01*
X201507Y-77908D01*
X200666Y-78257D01*
X199943Y-78811D01*
X199388Y-79534D01*
X199039Y-80376D01*
X198921Y-81280D01*
X199039Y-82183D01*
X199388Y-83025D01*
X199943Y-83748D01*
X200666Y-84302D01*
X201507Y-84651D01*
X202411Y-84770D01*
X203314Y-84651D01*
X204156Y-84302D01*
X204654Y-83921D01*
X205154Y-84167D01*
Y-88392D01*
X204654Y-88639D01*
X204156Y-88257D01*
X203314Y-87908D01*
X202411Y-87789D01*
X201507Y-87908D01*
X200666Y-88257D01*
X199943Y-88811D01*
X199388Y-89534D01*
X199039Y-90376D01*
X198921Y-91280D01*
X199039Y-92183D01*
X199388Y-93025D01*
X199943Y-93748D01*
X200666Y-94302D01*
X201507Y-94651D01*
X202411Y-94770D01*
X203314Y-94651D01*
X204156Y-94302D01*
X204654Y-93920D01*
X205154Y-94167D01*
Y-98392D01*
X204654Y-98639D01*
X204156Y-98257D01*
X203314Y-97908D01*
X202411Y-97789D01*
X201507Y-97908D01*
X200666Y-98257D01*
X199943Y-98811D01*
X199388Y-99534D01*
X199039Y-100376D01*
X198921Y-101280D01*
X199039Y-102183D01*
X199388Y-103025D01*
X199943Y-103748D01*
X200666Y-104302D01*
X201507Y-104651D01*
X202411Y-104770D01*
X203314Y-104651D01*
X204156Y-104302D01*
X204654Y-103920D01*
X205154Y-104167D01*
Y-105407D01*
X205156Y-105420D01*
X205026Y-106075D01*
X204648Y-106640D01*
X204082Y-107018D01*
X203881Y-107059D01*
X203415Y-107141D01*
X202917Y-107146D01*
X193019D01*
X192982Y-107141D01*
Y-107146D01*
X168376D01*
Y-107142D01*
X167648Y-107046D01*
X166969Y-106765D01*
X166387Y-106318D01*
X165940Y-105736D01*
X165659Y-105058D01*
X165563Y-104330D01*
X165559D01*
Y-47105D01*
X166059Y-46966D01*
X166310Y-47341D01*
X169129Y-50160D01*
X169039Y-50376D01*
X168921Y-51280D01*
X169039Y-52183D01*
X169388Y-53025D01*
X169943Y-53748D01*
X170666Y-54302D01*
X171508Y-54651D01*
X172411Y-54770D01*
X173314Y-54651D01*
X174156Y-54302D01*
X174879Y-53748D01*
X175434Y-53025D01*
X175783Y-52183D01*
X175901Y-51280D01*
X175783Y-50376D01*
X175434Y-49534D01*
X174879Y-48811D01*
X174156Y-48257D01*
X173314Y-47908D01*
X172411Y-47789D01*
X171508Y-47908D01*
X171292Y-47997D01*
X168921Y-45626D01*
Y-43412D01*
X169015Y-43339D01*
X169694Y-43423D01*
X169943Y-43748D01*
X170666Y-44302D01*
X171508Y-44651D01*
X172411Y-44770D01*
X173314Y-44651D01*
X174156Y-44302D01*
X174879Y-43748D01*
X175434Y-43025D01*
X175783Y-42183D01*
X175901Y-41280D01*
X175783Y-40376D01*
X175434Y-39534D01*
X174879Y-38811D01*
X174156Y-38257D01*
X173314Y-37908D01*
X172411Y-37789D01*
X171508Y-37908D01*
X170666Y-38257D01*
X169943Y-38811D01*
X169388Y-39534D01*
X169184Y-40028D01*
X168620Y-40083D01*
X168473Y-39863D01*
X164165Y-35556D01*
X163669Y-35224D01*
X163084Y-35108D01*
X141981D01*
X141790Y-34646D01*
X171752Y-4683D01*
X172411Y-4770D01*
X173314Y-4651D01*
X174156Y-4302D01*
X174879Y-3748D01*
X175434Y-3025D01*
X175783Y-2183D01*
X175901Y-1280D01*
X175783Y-376D01*
X175434Y466D01*
X174879Y1189D01*
X174156Y1743D01*
X173314Y2092D01*
X172411Y2211D01*
X171508Y2092D01*
X170666Y1743D01*
X169943Y1189D01*
X169388Y466D01*
X169039Y-376D01*
X168921Y-1280D01*
X169039Y-2183D01*
X169299Y-2811D01*
X141699Y-30411D01*
X141171Y-30232D01*
X141112Y-29780D01*
X140759Y-28929D01*
X140198Y-28197D01*
X139467Y-27636D01*
X138615Y-27284D01*
X137702Y-27163D01*
X127734D01*
X126820Y-27284D01*
X125969Y-27636D01*
X125361Y-28103D01*
X124927Y-28056D01*
X124771Y-27984D01*
X124584Y-27534D01*
X123951Y-26708D01*
X123125Y-26075D01*
X122163Y-25677D01*
X121131Y-25541D01*
X120099Y-25677D01*
X119138Y-26075D01*
X118312Y-26708D01*
X117679Y-27534D01*
X117280Y-28496D01*
X117145Y-29528D01*
X117280Y-30560D01*
X117679Y-31521D01*
X118312Y-32347D01*
X118664Y-32616D01*
X118494Y-33116D01*
X111135D01*
X109042Y-31023D01*
X109234Y-30560D01*
X109370Y-29528D01*
X109234Y-28496D01*
X108836Y-27534D01*
X108203Y-26708D01*
X107377Y-26075D01*
X106415Y-25677D01*
X105383Y-25541D01*
X104351Y-25677D01*
X103390Y-26075D01*
X102564Y-26708D01*
X101931Y-27534D01*
X101532Y-28496D01*
X101397Y-29528D01*
X101532Y-30560D01*
X101931Y-31521D01*
X102564Y-32347D01*
X102916Y-32616D01*
X102746Y-33116D01*
X63891D01*
X60727Y-29952D01*
X60983Y-29501D01*
X61791Y-29399D01*
X62644Y-29051D01*
X63378Y-28494D01*
X69473Y-22463D01*
X70038Y-21735D01*
X70395Y-20885D01*
X70521Y-19972D01*
X70405Y-19058D01*
X70057Y-18205D01*
X69500Y-17471D01*
X68772Y-16906D01*
X67922Y-16549D01*
X67009Y-16423D01*
X66545Y-16482D01*
X66099Y-16034D01*
X66158Y-15591D01*
X66037Y-14677D01*
X65685Y-13826D01*
X65124Y-13094D01*
X64393Y-12533D01*
X63541Y-12181D01*
X62628Y-12060D01*
X61714Y-12181D01*
X60862Y-12533D01*
X60131Y-13094D01*
X54068Y-19157D01*
X53507Y-19888D01*
X53279Y-20440D01*
X52779Y-20340D01*
Y1171D01*
X52662Y1757D01*
X52331Y2253D01*
X49565Y5018D01*
X49069Y5350D01*
X48484Y5466D01*
X43307D01*
X42722Y5350D01*
X42226Y5018D01*
X40489Y3282D01*
X40273Y3371D01*
X39370Y3491D01*
X38467Y3371D01*
X37625Y3023D01*
X36902Y2468D01*
X36347Y1745D01*
X35998Y903D01*
X35880Y0D01*
X35998Y-903D01*
X36088Y-1119D01*
X34420Y-2787D01*
X34089Y-3283D01*
X33972Y-3869D01*
Y-4782D01*
X33472Y-5028D01*
X33241Y-4851D01*
X32399Y-4502D01*
X31496Y-4383D01*
X30593Y-4502D01*
X29751Y-4851D01*
X29028Y-5406D01*
X28473Y-6129D01*
X28124Y-6971D01*
X28006Y-7874D01*
X28124Y-8777D01*
X28473Y-9619D01*
X29028Y-10342D01*
X29751Y-10897D01*
X30593Y-11246D01*
X31496Y-11365D01*
X32184Y-11274D01*
X32418Y-11747D01*
X30227Y-13939D01*
X-15129D01*
X-17763Y-11304D01*
X-17572Y-10843D01*
X-6480D01*
Y3756D01*
X-21079D01*
Y-7336D01*
X-21541Y-7527D01*
X-22024Y-7044D01*
Y26335D01*
X-676Y47683D01*
X4005D01*
X4591Y47800D01*
X5087Y48131D01*
X6823Y49867D01*
X7039Y49778D01*
X7942Y49659D01*
X8846Y49778D01*
X9688Y50127D01*
X10411Y50681D01*
X10965Y51404D01*
X11314Y52246D01*
X11433Y53150D01*
X11314Y54053D01*
X10965Y54895D01*
X10411Y55618D01*
X9688Y56172D01*
X8846Y56521D01*
X7942Y56640D01*
X7039Y56521D01*
X6197Y56172D01*
X5474Y55618D01*
X4920Y54895D01*
X4571Y54053D01*
X4452Y53150D01*
X4571Y52246D01*
X4660Y52030D01*
X3596Y50965D01*
X3405Y50991D01*
X3286Y51148D01*
X3144Y51531D01*
X3440Y52246D01*
X3559Y53150D01*
X3440Y54053D01*
X3091Y54895D01*
X2537Y55618D01*
X1814Y56172D01*
X972Y56521D01*
X68Y56640D01*
X-835Y56521D01*
X-1677Y56172D01*
X-2400Y55618D01*
X-2954Y54895D01*
X-3303Y54053D01*
X-3422Y53150D01*
X-3303Y52246D01*
X-3214Y52030D01*
X-5955Y49289D01*
X-6412Y49539D01*
X-6412Y49833D01*
Y63992D01*
X-21010D01*
Y49394D01*
X-6887D01*
X-6558Y49394D01*
X-6307Y48937D01*
X-25522Y29722D01*
X-38264Y42464D01*
Y124197D01*
X-37416D01*
Y124197D01*
X-37250D01*
Y124197D01*
X-32495D01*
Y131536D01*
X-31995Y131726D01*
X-31383Y131473D01*
X-30660Y131378D01*
X-29936Y131473D01*
X-29262Y131752D01*
X-28683Y132196D01*
X-28239Y132775D01*
X-27960Y133450D01*
X-27864Y134173D01*
X-27960Y134897D01*
X-28239Y135571D01*
X-28493Y135901D01*
X-28246Y136401D01*
X-21471D01*
Y147063D01*
X-29770D01*
Y143771D01*
X-32782D01*
X-33375Y144227D01*
X-34098Y144526D01*
X-34872Y144628D01*
X-35647Y144526D01*
X-36370Y144227D01*
X-36963Y143771D01*
X-54739D01*
Y147063D01*
X-63038D01*
Y136401D01*
X-56263D01*
X-56016Y135901D01*
X-56270Y135571D01*
X-56549Y134897D01*
X-56644Y134173D01*
X-56549Y133450D01*
X-56270Y132775D01*
X-55826Y132196D01*
X-55247Y131752D01*
X-54572Y131473D01*
X-53849Y131378D01*
X-53125Y131473D01*
X-52514Y131726D01*
X-52014Y131536D01*
Y130779D01*
X-68181D01*
X-70924Y133522D01*
Y140494D01*
X-62670Y148748D01*
X-2709D01*
X7857Y138182D01*
D02*
G37*
G36*
X49275Y262417D02*
X49238Y262381D01*
X49147Y262271D01*
X48983Y262107D01*
X48783Y261871D01*
X48528Y261579D01*
X48273Y261233D01*
X47981Y260814D01*
X47690Y260377D01*
X47380Y259885D01*
X47088Y259338D01*
X46833Y258773D01*
X46578Y258154D01*
X46378Y257516D01*
X46232Y256860D01*
X46123Y256168D01*
X46105Y255821D01*
X46086Y255457D01*
Y255439D01*
Y255366D01*
Y255275D01*
X46105Y255129D01*
Y254965D01*
X46123Y254765D01*
X46159Y254546D01*
X46196Y254291D01*
X46232Y254018D01*
X46287Y253745D01*
X46433Y253125D01*
X46633Y252469D01*
X46742Y252141D01*
X46888Y251813D01*
X46906Y251795D01*
X46924Y251740D01*
X46979Y251649D01*
X47034Y251522D01*
X47125Y251358D01*
X47234Y251175D01*
X47344Y250975D01*
X47489Y250738D01*
X47653Y250501D01*
X47817Y250246D01*
X48018Y249973D01*
X48236Y249681D01*
X48473Y249390D01*
X48710Y249098D01*
X48983Y248807D01*
X49275Y248515D01*
X48400Y247622D01*
X48382Y247641D01*
X48364Y247659D01*
X48309Y247714D01*
X48236Y247786D01*
X48145Y247878D01*
X48054Y247969D01*
X47817Y248242D01*
X47526Y248570D01*
X47216Y248953D01*
X46870Y249408D01*
X46524Y249900D01*
X46159Y250447D01*
X45831Y251048D01*
X45503Y251686D01*
X45212Y252360D01*
X44975Y253070D01*
X44793Y253799D01*
X44720Y254182D01*
X44665Y254564D01*
X44647Y254947D01*
X44629Y255348D01*
Y255366D01*
Y255402D01*
Y255439D01*
Y255512D01*
X44647Y255712D01*
Y255967D01*
X44683Y256277D01*
X44720Y256605D01*
X44756Y256969D01*
X44829Y257334D01*
Y257352D01*
X44847Y257370D01*
Y257425D01*
X44866Y257498D01*
X44920Y257698D01*
X44993Y257953D01*
X45066Y258245D01*
X45175Y258573D01*
X45321Y258937D01*
X45467Y259302D01*
Y259320D01*
X45485Y259356D01*
X45522Y259393D01*
X45558Y259466D01*
X45649Y259666D01*
X45795Y259921D01*
X45959Y260231D01*
X46159Y260559D01*
X46396Y260923D01*
X46651Y261287D01*
Y261306D01*
X46688Y261342D01*
X46724Y261379D01*
X46779Y261452D01*
X46943Y261652D01*
X47143Y261907D01*
X47416Y262217D01*
X47708Y262545D01*
X48054Y262909D01*
X48437Y263274D01*
X49275Y262417D01*
D02*
G37*
G36*
X109838Y263255D02*
X109856Y263237D01*
X109911Y263182D01*
X109984Y263109D01*
X110075Y263018D01*
X110166Y262927D01*
X110421Y262654D01*
X110695Y262326D01*
X111022Y261944D01*
X111369Y261488D01*
X111715Y260978D01*
X112061Y260431D01*
X112407Y259830D01*
X112735Y259174D01*
X113027Y258500D01*
X113263Y257789D01*
X113446Y257042D01*
X113519Y256660D01*
X113573Y256277D01*
X113591Y255876D01*
X113610Y255475D01*
Y255457D01*
Y255439D01*
Y255384D01*
Y255330D01*
Y255147D01*
X113591Y254910D01*
X113573Y254637D01*
X113537Y254328D01*
X113482Y253981D01*
X113427Y253635D01*
Y253617D01*
Y253599D01*
X113409Y253544D01*
X113391Y253471D01*
X113355Y253289D01*
X113282Y253034D01*
X113191Y252742D01*
X113081Y252414D01*
X112954Y252068D01*
X112808Y251704D01*
Y251686D01*
X112790Y251667D01*
X112771Y251613D01*
X112735Y251540D01*
X112626Y251339D01*
X112498Y251084D01*
X112334Y250775D01*
X112116Y250447D01*
X111897Y250082D01*
X111624Y249700D01*
Y249681D01*
X111587Y249645D01*
X111551Y249590D01*
X111496Y249517D01*
X111423Y249426D01*
X111332Y249317D01*
X111114Y249044D01*
X110858Y248734D01*
X110549Y248388D01*
X110184Y248005D01*
X109783Y247622D01*
X108964Y248479D01*
X108982Y248497D01*
X109036Y248552D01*
X109109Y248643D01*
X109219Y248752D01*
X109364Y248898D01*
X109510Y249080D01*
X109674Y249262D01*
X109856Y249481D01*
X110038Y249718D01*
X110239Y249973D01*
X110640Y250538D01*
X111004Y251139D01*
X111168Y251467D01*
X111332Y251777D01*
X111350Y251795D01*
X111369Y251850D01*
X111405Y251941D01*
X111460Y252068D01*
X111514Y252232D01*
X111587Y252414D01*
X111660Y252633D01*
X111733Y252870D01*
X111806Y253125D01*
X111879Y253398D01*
X112006Y254018D01*
X112097Y254674D01*
X112134Y255020D01*
Y255366D01*
Y255384D01*
Y255402D01*
Y255457D01*
Y255548D01*
X112116Y255639D01*
Y255749D01*
X112079Y256022D01*
X112043Y256368D01*
X111970Y256769D01*
X111861Y257206D01*
X111733Y257698D01*
X111569Y258227D01*
X111369Y258791D01*
X111095Y259374D01*
X110804Y259976D01*
X110439Y260577D01*
X110002Y261178D01*
X109528Y261798D01*
X109255Y262089D01*
X108964Y262381D01*
X109820Y263274D01*
X109838Y263255D01*
D02*
G37*
G36*
X992Y259429D02*
X1192Y259411D01*
X1429Y259374D01*
X1684Y259338D01*
X1939Y259265D01*
X2194Y259174D01*
X2231Y259156D01*
X2304Y259119D01*
X2431Y259065D01*
X2595Y258974D01*
X2759Y258864D01*
X2960Y258737D01*
X3142Y258573D01*
X3324Y258391D01*
X3342Y258372D01*
X3397Y258299D01*
X3488Y258190D01*
X3579Y258063D01*
X3688Y257880D01*
X3816Y257680D01*
X3925Y257443D01*
X4016Y257188D01*
X4035Y257152D01*
X4053Y257061D01*
X4089Y256915D01*
X4144Y256733D01*
X4180Y256496D01*
X4217Y256241D01*
X4235Y255949D01*
X4253Y255621D01*
Y255603D01*
Y255567D01*
Y255512D01*
Y255439D01*
Y255275D01*
X4235Y255093D01*
Y255056D01*
Y254965D01*
Y254856D01*
X4217Y254728D01*
X-1559D01*
Y254710D01*
Y254674D01*
Y254601D01*
X-1541Y254528D01*
Y254419D01*
X-1522Y254291D01*
X-1468Y253999D01*
X-1395Y253690D01*
X-1268Y253362D01*
X-1103Y253052D01*
X-867Y252779D01*
X-830Y252742D01*
X-739Y252670D01*
X-575Y252560D01*
X-338Y252451D01*
X-47Y252323D01*
X299Y252214D01*
X700Y252141D01*
X1174Y252105D01*
X1630D01*
X1885Y252123D01*
X1939D01*
X2012Y252141D01*
X2103D01*
X2340Y252178D01*
X2577Y252196D01*
X2595D01*
X2632Y252214D01*
X2705D01*
X2796Y252232D01*
X2996Y252269D01*
X3233Y252305D01*
X3251D01*
X3288Y252323D01*
X3342Y252342D01*
X3415Y252360D01*
X3616Y252396D01*
X3816Y252451D01*
Y251285D01*
X3798D01*
X3707Y251267D01*
X3597Y251230D01*
X3433Y251194D01*
X3233Y251157D01*
X3014Y251103D01*
X2759Y251066D01*
X2486Y251030D01*
X2449D01*
X2358Y251011D01*
X2213Y250993D01*
X2030Y250975D01*
X1794Y250957D01*
X1538Y250939D01*
X1265Y250920D01*
X791D01*
X591Y250939D01*
X354Y250957D01*
X63Y250993D01*
X-247Y251030D01*
X-557Y251103D01*
X-848Y251194D01*
X-885Y251212D01*
X-976Y251248D01*
X-1122Y251321D01*
X-1286Y251412D01*
X-1486Y251522D01*
X-1705Y251667D01*
X-1905Y251831D01*
X-2106Y252032D01*
X-2124Y252050D01*
X-2179Y252123D01*
X-2269Y252250D01*
X-2379Y252396D01*
X-2506Y252597D01*
X-2616Y252815D01*
X-2743Y253088D01*
X-2834Y253362D01*
Y253380D01*
Y253398D01*
X-2871Y253508D01*
X-2907Y253672D01*
X-2944Y253890D01*
X-2980Y254164D01*
X-3017Y254455D01*
X-3035Y254801D01*
X-3053Y255166D01*
Y255184D01*
Y255202D01*
Y255311D01*
X-3035Y255475D01*
X-3017Y255694D01*
X-2998Y255931D01*
X-2944Y256204D01*
X-2889Y256496D01*
X-2816Y256787D01*
Y256805D01*
X-2798Y256824D01*
X-2761Y256915D01*
X-2707Y257061D01*
X-2634Y257261D01*
X-2525Y257461D01*
X-2397Y257698D01*
X-2251Y257935D01*
X-2087Y258154D01*
X-2069Y258172D01*
X-1996Y258245D01*
X-1887Y258354D01*
X-1759Y258500D01*
X-1577Y258646D01*
X-1377Y258810D01*
X-1158Y258955D01*
X-903Y259101D01*
X-867Y259119D01*
X-776Y259156D01*
X-630Y259210D01*
X-448Y259283D01*
X-211Y259338D01*
X63Y259393D01*
X354Y259429D01*
X682Y259447D01*
X828D01*
X992Y259429D01*
D02*
G37*
G36*
X-28342Y252305D02*
X-23642D01*
Y251066D01*
X-29818D01*
Y261779D01*
X-28342D01*
Y252305D01*
D02*
G37*
G36*
X93422Y261925D02*
X93659Y261889D01*
X93950Y261852D01*
X94242Y261779D01*
X94551Y261688D01*
X94843Y261561D01*
X94880Y261543D01*
X94971Y261488D01*
X95116Y261397D01*
X95299Y261287D01*
X95499Y261124D01*
X95699Y260941D01*
X95918Y260723D01*
X96118Y260468D01*
X96137Y260431D01*
X96210Y260340D01*
X96301Y260194D01*
X96410Y259994D01*
X96538Y259739D01*
X96665Y259447D01*
X96774Y259119D01*
X96884Y258755D01*
Y258737D01*
X96902Y258718D01*
Y258664D01*
X96920Y258573D01*
X96938Y258482D01*
X96957Y258372D01*
X97011Y258099D01*
X97066Y257771D01*
X97102Y257388D01*
X97121Y256951D01*
X97139Y256496D01*
Y256477D01*
Y256441D01*
Y256350D01*
Y256259D01*
X97121Y256131D01*
Y255985D01*
X97102Y255639D01*
X97048Y255257D01*
X96993Y254838D01*
X96902Y254419D01*
X96793Y253999D01*
Y253981D01*
X96774Y253945D01*
X96756Y253890D01*
X96738Y253817D01*
X96647Y253635D01*
X96556Y253380D01*
X96410Y253107D01*
X96264Y252815D01*
X96064Y252524D01*
X95863Y252250D01*
X95845Y252214D01*
X95772Y252141D01*
X95645Y252014D01*
X95481Y251868D01*
X95280Y251704D01*
X95062Y251540D01*
X94807Y251394D01*
X94515Y251248D01*
X94479Y251230D01*
X94388Y251194D01*
X94224Y251139D01*
X94023Y251084D01*
X93786Y251030D01*
X93513Y250975D01*
X93203Y250939D01*
X92893Y250920D01*
X92711D01*
X92529Y250939D01*
X92274Y250975D01*
X92001Y251011D01*
X91691Y251066D01*
X91381Y251157D01*
X91090Y251285D01*
X91053Y251303D01*
X90962Y251358D01*
X90816Y251449D01*
X90652Y251558D01*
X90434Y251722D01*
X90233Y251904D01*
X90015Y252123D01*
X89814Y252360D01*
X89796Y252396D01*
X89723Y252487D01*
X89632Y252633D01*
X89523Y252834D01*
X89413Y253088D01*
X89286Y253380D01*
X89177Y253708D01*
X89067Y254072D01*
Y254091D01*
X89049Y254127D01*
Y254182D01*
X89031Y254255D01*
X89013Y254346D01*
X88994Y254455D01*
X88958Y254747D01*
X88903Y255075D01*
X88867Y255475D01*
X88849Y255913D01*
X88830Y256368D01*
Y256386D01*
Y256423D01*
Y256514D01*
Y256605D01*
X88849Y256733D01*
Y256878D01*
X88867Y257206D01*
X88903Y257607D01*
X88976Y258008D01*
X89049Y258445D01*
X89158Y258846D01*
Y258864D01*
X89177Y258901D01*
X89195Y258955D01*
X89213Y259028D01*
X89286Y259210D01*
X89395Y259466D01*
X89523Y259739D01*
X89687Y260030D01*
X89869Y260304D01*
X90069Y260577D01*
X90088Y260613D01*
X90179Y260686D01*
X90288Y260814D01*
X90452Y260960D01*
X90652Y261124D01*
X90889Y261306D01*
X91144Y261452D01*
X91418Y261597D01*
X91454Y261615D01*
X91545Y261652D01*
X91709Y261707D01*
X91910Y261779D01*
X92146Y261834D01*
X92438Y261889D01*
X92730Y261925D01*
X93058Y261944D01*
X93221D01*
X93422Y261925D01*
D02*
G37*
G36*
X65709D02*
X65946Y261889D01*
X66238Y261852D01*
X66529Y261779D01*
X66839Y261688D01*
X67130Y261561D01*
X67167Y261543D01*
X67258Y261488D01*
X67404Y261397D01*
X67586Y261287D01*
X67786Y261124D01*
X67987Y260941D01*
X68205Y260723D01*
X68406Y260468D01*
X68424Y260431D01*
X68497Y260340D01*
X68588Y260194D01*
X68697Y259994D01*
X68825Y259739D01*
X68952Y259447D01*
X69062Y259119D01*
X69171Y258755D01*
Y258737D01*
X69189Y258718D01*
Y258664D01*
X69208Y258573D01*
X69226Y258482D01*
X69244Y258372D01*
X69299Y258099D01*
X69353Y257771D01*
X69390Y257388D01*
X69408Y256951D01*
X69426Y256496D01*
Y256477D01*
Y256441D01*
Y256350D01*
Y256259D01*
X69408Y256131D01*
Y255985D01*
X69390Y255639D01*
X69335Y255257D01*
X69280Y254838D01*
X69189Y254419D01*
X69080Y253999D01*
Y253981D01*
X69062Y253945D01*
X69043Y253890D01*
X69025Y253817D01*
X68934Y253635D01*
X68843Y253380D01*
X68697Y253107D01*
X68552Y252815D01*
X68351Y252524D01*
X68151Y252250D01*
X68133Y252214D01*
X68060Y252141D01*
X67932Y252014D01*
X67768Y251868D01*
X67568Y251704D01*
X67349Y251540D01*
X67094Y251394D01*
X66803Y251248D01*
X66766Y251230D01*
X66675Y251194D01*
X66511Y251139D01*
X66311Y251084D01*
X66074Y251030D01*
X65800Y250975D01*
X65491Y250939D01*
X65181Y250920D01*
X64999D01*
X64816Y250939D01*
X64561Y250975D01*
X64288Y251011D01*
X63978Y251066D01*
X63669Y251157D01*
X63377Y251285D01*
X63341Y251303D01*
X63250Y251358D01*
X63104Y251449D01*
X62940Y251558D01*
X62721Y251722D01*
X62521Y251904D01*
X62302Y252123D01*
X62102Y252360D01*
X62084Y252396D01*
X62011Y252487D01*
X61919Y252633D01*
X61810Y252834D01*
X61701Y253088D01*
X61573Y253380D01*
X61464Y253708D01*
X61355Y254072D01*
Y254091D01*
X61336Y254127D01*
Y254182D01*
X61318Y254255D01*
X61300Y254346D01*
X61282Y254455D01*
X61245Y254747D01*
X61191Y255075D01*
X61154Y255475D01*
X61136Y255913D01*
X61118Y256368D01*
Y256386D01*
Y256423D01*
Y256514D01*
Y256605D01*
X61136Y256733D01*
Y256878D01*
X61154Y257206D01*
X61191Y257607D01*
X61264Y258008D01*
X61336Y258445D01*
X61446Y258846D01*
Y258864D01*
X61464Y258901D01*
X61482Y258955D01*
X61501Y259028D01*
X61573Y259210D01*
X61683Y259466D01*
X61810Y259739D01*
X61974Y260030D01*
X62156Y260304D01*
X62357Y260577D01*
X62375Y260613D01*
X62466Y260686D01*
X62575Y260814D01*
X62739Y260960D01*
X62940Y261124D01*
X63177Y261306D01*
X63432Y261452D01*
X63705Y261597D01*
X63741Y261615D01*
X63833Y261652D01*
X63997Y261707D01*
X64197Y261779D01*
X64434Y261834D01*
X64725Y261889D01*
X65017Y261925D01*
X65345Y261944D01*
X65509D01*
X65709Y261925D01*
D02*
G37*
%LPC*%
G36*
X55852Y255985D02*
X54158D01*
Y252305D01*
X55889D01*
X55998Y252323D01*
X56125D01*
X56399Y252360D01*
X56709Y252414D01*
X57018Y252505D01*
X57310Y252615D01*
X57565Y252761D01*
X57583Y252779D01*
X57656Y252852D01*
X57765Y252961D01*
X57875Y253125D01*
X57984Y253325D01*
X58093Y253580D01*
X58166Y253872D01*
X58184Y254218D01*
Y254236D01*
Y254291D01*
Y254364D01*
X58166Y254455D01*
X58112Y254692D01*
X58002Y254947D01*
Y254965D01*
X57966Y255002D01*
X57929Y255056D01*
X57875Y255147D01*
X57729Y255311D01*
X57510Y255494D01*
X57492Y255512D01*
X57456Y255530D01*
X57383Y255585D01*
X57292Y255621D01*
X57164Y255694D01*
X57037Y255749D01*
X56709Y255858D01*
X56690D01*
X56617Y255876D01*
X56526Y255894D01*
X56399Y255931D01*
X56235Y255949D01*
X56053Y255967D01*
X55852Y255985D01*
D02*
G37*
G36*
X55870Y260541D02*
X54158D01*
Y257206D01*
X55779D01*
X55889Y257224D01*
X56034D01*
X56180Y257243D01*
X56490Y257297D01*
X56508D01*
X56563Y257316D01*
X56636Y257352D01*
X56727Y257388D01*
X56946Y257480D01*
X57182Y257625D01*
X57200Y257644D01*
X57237Y257662D01*
X57346Y257771D01*
X57492Y257953D01*
X57638Y258172D01*
Y258190D01*
X57656Y258227D01*
X57692Y258299D01*
X57729Y258409D01*
X57747Y258518D01*
X57784Y258664D01*
X57802Y258974D01*
Y258992D01*
Y259028D01*
Y259083D01*
X57784Y259174D01*
X57765Y259356D01*
X57692Y259575D01*
Y259593D01*
X57674Y259630D01*
X57656Y259684D01*
X57620Y259739D01*
X57510Y259903D01*
X57346Y260067D01*
X57328Y260085D01*
X57310Y260103D01*
X57255Y260140D01*
X57182Y260194D01*
X57091Y260249D01*
X56964Y260304D01*
X56836Y260358D01*
X56690Y260413D01*
X56672D01*
X56617Y260431D01*
X56526Y260449D01*
X56399Y260486D01*
X56253Y260504D01*
X56071Y260522D01*
X55870Y260541D01*
D02*
G37*
G36*
X-16044Y254819D02*
X-18048D01*
X-18176Y254801D01*
X-18467Y254783D01*
X-18777Y254710D01*
X-18795D01*
X-18832Y254692D01*
X-18904Y254674D01*
X-18995Y254637D01*
X-19214Y254528D01*
X-19415Y254400D01*
X-19433D01*
X-19451Y254364D01*
X-19542Y254273D01*
X-19670Y254109D01*
X-19779Y253927D01*
Y253908D01*
X-19797Y253872D01*
X-19815Y253817D01*
X-19834Y253745D01*
X-19870Y253544D01*
X-19888Y253307D01*
Y253289D01*
Y253271D01*
X-19870Y253161D01*
X-19852Y253016D01*
X-19815Y252852D01*
Y252834D01*
X-19797Y252815D01*
X-19761Y252724D01*
X-19688Y252597D01*
X-19579Y252451D01*
X-19542Y252433D01*
X-19469Y252360D01*
X-19323Y252269D01*
X-19160Y252196D01*
X-19141D01*
X-19105Y252178D01*
X-19050Y252159D01*
X-18977D01*
X-18777Y252123D01*
X-18522Y252105D01*
X-18431D01*
X-18340Y252123D01*
X-18194Y252141D01*
X-18030Y252178D01*
X-17829Y252232D01*
X-17629Y252305D01*
X-17392Y252396D01*
X-17356Y252414D01*
X-17283Y252451D01*
X-17155Y252524D01*
X-16991Y252633D01*
X-16791Y252761D01*
X-16554Y252925D01*
X-16299Y253107D01*
X-16044Y253344D01*
Y254819D01*
D02*
G37*
G36*
X182411Y-77789D02*
X181508Y-77908D01*
X180666Y-78257D01*
X179943Y-78811D01*
X179388Y-79534D01*
X179039Y-80376D01*
X178920Y-81280D01*
X179039Y-82183D01*
X179388Y-83025D01*
X179943Y-83748D01*
X180666Y-84302D01*
X181508Y-84651D01*
X182411Y-84770D01*
X183314Y-84651D01*
X184156Y-84302D01*
X184879Y-83748D01*
X185434Y-83025D01*
X185783Y-82183D01*
X185901Y-81280D01*
X185783Y-80376D01*
X185434Y-79534D01*
X184879Y-78811D01*
X184156Y-78257D01*
X183314Y-77908D01*
X182411Y-77789D01*
D02*
G37*
G36*
Y-87789D02*
X181508Y-87908D01*
X180666Y-88257D01*
X179943Y-88811D01*
X179388Y-89534D01*
X179039Y-90376D01*
X178920Y-91280D01*
X179039Y-92183D01*
X179388Y-93025D01*
X179943Y-93748D01*
X180666Y-94302D01*
X181508Y-94651D01*
X182411Y-94770D01*
X183314Y-94651D01*
X184156Y-94302D01*
X184879Y-93748D01*
X185434Y-93025D01*
X185783Y-92183D01*
X185901Y-91280D01*
X185783Y-90376D01*
X185434Y-89534D01*
X184879Y-88811D01*
X184156Y-88257D01*
X183314Y-87908D01*
X182411Y-87789D01*
D02*
G37*
G36*
X192411D02*
X191507Y-87908D01*
X190666Y-88257D01*
X189943Y-88811D01*
X189388Y-89534D01*
X189039Y-90376D01*
X188920Y-91280D01*
X189039Y-92183D01*
X189388Y-93025D01*
X189943Y-93748D01*
X190666Y-94302D01*
X191507Y-94651D01*
X192411Y-94770D01*
X193314Y-94651D01*
X194156Y-94302D01*
X194879Y-93748D01*
X195434Y-93025D01*
X195782Y-92183D01*
X195901Y-91280D01*
X195782Y-90376D01*
X195434Y-89534D01*
X194879Y-88811D01*
X194156Y-88257D01*
X193314Y-87908D01*
X192411Y-87789D01*
D02*
G37*
G36*
X172411Y-77789D02*
X171508Y-77908D01*
X170666Y-78257D01*
X169943Y-78811D01*
X169388Y-79534D01*
X169039Y-80376D01*
X168921Y-81280D01*
X169039Y-82183D01*
X169388Y-83025D01*
X169943Y-83748D01*
X170666Y-84302D01*
X171508Y-84651D01*
X172411Y-84770D01*
X173314Y-84651D01*
X174156Y-84302D01*
X174879Y-83748D01*
X175434Y-83025D01*
X175783Y-82183D01*
X175901Y-81280D01*
X175783Y-80376D01*
X175434Y-79534D01*
X174879Y-78811D01*
X174156Y-78257D01*
X173314Y-77908D01*
X172411Y-77789D01*
D02*
G37*
G36*
X192411D02*
X191507Y-77908D01*
X190666Y-78257D01*
X189943Y-78811D01*
X189388Y-79534D01*
X189039Y-80376D01*
X188920Y-81280D01*
X189039Y-82183D01*
X189388Y-83025D01*
X189943Y-83748D01*
X190666Y-84302D01*
X191507Y-84651D01*
X192411Y-84770D01*
X193314Y-84651D01*
X194156Y-84302D01*
X194879Y-83748D01*
X195434Y-83025D01*
X195782Y-82183D01*
X195901Y-81280D01*
X195782Y-80376D01*
X195434Y-79534D01*
X194879Y-78811D01*
X194156Y-78257D01*
X193314Y-77908D01*
X192411Y-77789D01*
D02*
G37*
G36*
X172411Y-57789D02*
X171508Y-57908D01*
X170666Y-58257D01*
X169943Y-58811D01*
X169388Y-59534D01*
X169039Y-60376D01*
X168921Y-61280D01*
X169039Y-62183D01*
X169388Y-63025D01*
X169943Y-63748D01*
X170666Y-64302D01*
X171508Y-64651D01*
X172411Y-64770D01*
X173314Y-64651D01*
X174156Y-64302D01*
X174879Y-63748D01*
X175434Y-63025D01*
X175783Y-62183D01*
X175901Y-61280D01*
X175783Y-60376D01*
X175434Y-59534D01*
X174879Y-58811D01*
X174156Y-58257D01*
X173314Y-57908D01*
X172411Y-57789D01*
D02*
G37*
G36*
X182411D02*
X181508Y-57908D01*
X180666Y-58257D01*
X179943Y-58811D01*
X179388Y-59534D01*
X179039Y-60376D01*
X178920Y-61280D01*
X179039Y-62183D01*
X179388Y-63025D01*
X179943Y-63748D01*
X180666Y-64302D01*
X181508Y-64651D01*
X182411Y-64770D01*
X183314Y-64651D01*
X184156Y-64302D01*
X184879Y-63748D01*
X185434Y-63025D01*
X185783Y-62183D01*
X185901Y-61280D01*
X185783Y-60376D01*
X185434Y-59534D01*
X184879Y-58811D01*
X184156Y-58257D01*
X183314Y-57908D01*
X182411Y-57789D01*
D02*
G37*
G36*
X192411Y-67789D02*
X191507Y-67908D01*
X190666Y-68257D01*
X189943Y-68811D01*
X189388Y-69534D01*
X189039Y-70376D01*
X188920Y-71280D01*
X189039Y-72183D01*
X189388Y-73025D01*
X189943Y-73748D01*
X190666Y-74302D01*
X191507Y-74651D01*
X192411Y-74770D01*
X193314Y-74651D01*
X194156Y-74302D01*
X194879Y-73748D01*
X195434Y-73025D01*
X195782Y-72183D01*
X195901Y-71280D01*
X195782Y-70376D01*
X195434Y-69534D01*
X194879Y-68811D01*
X194156Y-68257D01*
X193314Y-67908D01*
X192411Y-67789D01*
D02*
G37*
G36*
X172411D02*
X171508Y-67908D01*
X170666Y-68257D01*
X169943Y-68811D01*
X169388Y-69534D01*
X169039Y-70376D01*
X168921Y-71280D01*
X169039Y-72183D01*
X169388Y-73025D01*
X169943Y-73748D01*
X170666Y-74302D01*
X171508Y-74651D01*
X172411Y-74770D01*
X173314Y-74651D01*
X174156Y-74302D01*
X174879Y-73748D01*
X175434Y-73025D01*
X175783Y-72183D01*
X175901Y-71280D01*
X175783Y-70376D01*
X175434Y-69534D01*
X174879Y-68811D01*
X174156Y-68257D01*
X173314Y-67908D01*
X172411Y-67789D01*
D02*
G37*
G36*
X182411D02*
X181508Y-67908D01*
X180666Y-68257D01*
X179943Y-68811D01*
X179388Y-69534D01*
X179039Y-70376D01*
X178920Y-71280D01*
X179039Y-72183D01*
X179388Y-73025D01*
X179943Y-73748D01*
X180666Y-74302D01*
X181508Y-74651D01*
X182411Y-74770D01*
X183314Y-74651D01*
X184156Y-74302D01*
X184879Y-73748D01*
X185434Y-73025D01*
X185783Y-72183D01*
X185901Y-71280D01*
X185783Y-70376D01*
X185434Y-69534D01*
X184879Y-68811D01*
X184156Y-68257D01*
X183314Y-67908D01*
X182411Y-67789D01*
D02*
G37*
G36*
X192411Y-97789D02*
X191507Y-97908D01*
X190666Y-98257D01*
X189943Y-98811D01*
X189388Y-99534D01*
X189039Y-100376D01*
X188920Y-101280D01*
X189039Y-102183D01*
X189388Y-103025D01*
X189943Y-103748D01*
X190666Y-104302D01*
X191507Y-104651D01*
X192411Y-104770D01*
X193314Y-104651D01*
X194156Y-104302D01*
X194879Y-103748D01*
X195434Y-103025D01*
X195782Y-102183D01*
X195901Y-101280D01*
X195782Y-100376D01*
X195434Y-99534D01*
X194879Y-98811D01*
X194156Y-98257D01*
X193314Y-97908D01*
X192411Y-97789D01*
D02*
G37*
G36*
X172411Y-87789D02*
X171508Y-87908D01*
X170666Y-88257D01*
X169943Y-88811D01*
X169388Y-89534D01*
X169039Y-90376D01*
X168921Y-91280D01*
X169039Y-92183D01*
X169388Y-93025D01*
X169943Y-93748D01*
X170666Y-94302D01*
X171508Y-94651D01*
X172411Y-94770D01*
X173314Y-94651D01*
X174156Y-94302D01*
X174879Y-93748D01*
X175434Y-93025D01*
X175783Y-92183D01*
X175901Y-91280D01*
X175783Y-90376D01*
X175434Y-89534D01*
X174879Y-88811D01*
X174156Y-88257D01*
X173314Y-87908D01*
X172411Y-87789D01*
D02*
G37*
G36*
X182411Y-97789D02*
X181508Y-97908D01*
X180666Y-98257D01*
X179943Y-98811D01*
X179388Y-99534D01*
X179039Y-100376D01*
X178920Y-101280D01*
X179039Y-102183D01*
X179388Y-103025D01*
X179943Y-103748D01*
X180666Y-104302D01*
X181508Y-104651D01*
X182411Y-104770D01*
X183314Y-104651D01*
X184156Y-104302D01*
X184879Y-103748D01*
X185434Y-103025D01*
X185783Y-102183D01*
X185901Y-101280D01*
X185783Y-100376D01*
X185434Y-99534D01*
X184879Y-98811D01*
X184156Y-98257D01*
X183314Y-97908D01*
X182411Y-97789D01*
D02*
G37*
G36*
X172411D02*
X171508Y-97908D01*
X170666Y-98257D01*
X169943Y-98811D01*
X169388Y-99534D01*
X169039Y-100376D01*
X168921Y-101280D01*
X169039Y-102183D01*
X169388Y-103025D01*
X169943Y-103748D01*
X170666Y-104302D01*
X171508Y-104651D01*
X172411Y-104770D01*
X173314Y-104651D01*
X174156Y-104302D01*
X174879Y-103748D01*
X175434Y-103025D01*
X175783Y-102183D01*
X175901Y-101280D01*
X175783Y-100376D01*
X175434Y-99534D01*
X174879Y-98811D01*
X174156Y-98257D01*
X173314Y-97908D01*
X172411Y-97789D01*
D02*
G37*
G36*
X182411Y12211D02*
X181508Y12092D01*
X180666Y11743D01*
X179943Y11189D01*
X179388Y10466D01*
X179039Y9624D01*
X178920Y8720D01*
X179039Y7817D01*
X179388Y6975D01*
X179943Y6252D01*
X180666Y5698D01*
X181508Y5349D01*
X182411Y5230D01*
X183314Y5349D01*
X184156Y5698D01*
X184879Y6252D01*
X185434Y6975D01*
X185783Y7817D01*
X185901Y8720D01*
X185783Y9624D01*
X185434Y10466D01*
X184879Y11189D01*
X184156Y11743D01*
X183314Y12092D01*
X182411Y12211D01*
D02*
G37*
G36*
X172411D02*
X171508Y12092D01*
X170666Y11743D01*
X169943Y11189D01*
X169388Y10466D01*
X169039Y9624D01*
X168921Y8720D01*
X169039Y7817D01*
X169388Y6975D01*
X169943Y6252D01*
X170666Y5698D01*
X171508Y5349D01*
X172411Y5230D01*
X173314Y5349D01*
X174156Y5698D01*
X174879Y6252D01*
X175434Y6975D01*
X175783Y7817D01*
X175901Y8720D01*
X175783Y9624D01*
X175434Y10466D01*
X174879Y11189D01*
X174156Y11743D01*
X173314Y12092D01*
X172411Y12211D01*
D02*
G37*
G36*
Y22211D02*
X171508Y22092D01*
X170666Y21743D01*
X169943Y21189D01*
X169388Y20466D01*
X169039Y19624D01*
X168921Y18720D01*
X169039Y17817D01*
X169388Y16975D01*
X169943Y16252D01*
X170666Y15698D01*
X171508Y15349D01*
X172411Y15230D01*
X173314Y15349D01*
X174156Y15698D01*
X174879Y16252D01*
X175434Y16975D01*
X175783Y17817D01*
X175901Y18720D01*
X175783Y19624D01*
X175434Y20466D01*
X174879Y21189D01*
X174156Y21743D01*
X173314Y22092D01*
X172411Y22211D01*
D02*
G37*
G36*
X192411Y12211D02*
X191507Y12092D01*
X190666Y11743D01*
X189943Y11189D01*
X189388Y10466D01*
X189039Y9624D01*
X188920Y8720D01*
X189039Y7817D01*
X189388Y6975D01*
X189943Y6252D01*
X190666Y5698D01*
X191507Y5349D01*
X192411Y5230D01*
X193314Y5349D01*
X194156Y5698D01*
X194879Y6252D01*
X195434Y6975D01*
X195782Y7817D01*
X195901Y8720D01*
X195782Y9624D01*
X195434Y10466D01*
X194879Y11189D01*
X194156Y11743D01*
X193314Y12092D01*
X192411Y12211D01*
D02*
G37*
G36*
X68323Y3756D02*
X53724D01*
Y-10842D01*
X68323D01*
Y3756D01*
D02*
G37*
G36*
X23622Y-4383D02*
X22719Y-4502D01*
X21877Y-4851D01*
X21154Y-5406D01*
X20599Y-6129D01*
X20251Y-6971D01*
X20132Y-7874D01*
X20251Y-8777D01*
X20599Y-9619D01*
X21154Y-10342D01*
X21877Y-10897D01*
X22719Y-11246D01*
X23622Y-11365D01*
X24525Y-11246D01*
X25367Y-10897D01*
X26090Y-10342D01*
X26645Y-9619D01*
X26994Y-8777D01*
X27112Y-7874D01*
X26994Y-6971D01*
X26645Y-6129D01*
X26090Y-5406D01*
X25367Y-4851D01*
X24525Y-4502D01*
X23622Y-4383D01*
D02*
G37*
G36*
X192411Y2211D02*
X191507Y2092D01*
X190666Y1743D01*
X189943Y1189D01*
X189388Y466D01*
X189039Y-376D01*
X188920Y-1280D01*
X189039Y-2183D01*
X189388Y-3025D01*
X189943Y-3748D01*
X190666Y-4302D01*
X191507Y-4651D01*
X192411Y-4770D01*
X193314Y-4651D01*
X194156Y-4302D01*
X194879Y-3748D01*
X195434Y-3025D01*
X195782Y-2183D01*
X195901Y-1280D01*
X195782Y-376D01*
X195434Y466D01*
X194879Y1189D01*
X194156Y1743D01*
X193314Y2092D01*
X192411Y2211D01*
D02*
G37*
G36*
X182411D02*
X181508Y2092D01*
X180666Y1743D01*
X179943Y1189D01*
X179388Y466D01*
X179039Y-376D01*
X178920Y-1280D01*
X179039Y-2183D01*
X179388Y-3025D01*
X179943Y-3748D01*
X180666Y-4302D01*
X181508Y-4651D01*
X182411Y-4770D01*
X183314Y-4651D01*
X184156Y-4302D01*
X184879Y-3748D01*
X185434Y-3025D01*
X185783Y-2183D01*
X185901Y-1280D01*
X185783Y-376D01*
X185434Y466D01*
X184879Y1189D01*
X184156Y1743D01*
X183314Y2092D01*
X182411Y2211D01*
D02*
G37*
G36*
Y22211D02*
X181508Y22092D01*
X180666Y21743D01*
X179943Y21189D01*
X179388Y20466D01*
X179039Y19624D01*
X178920Y18720D01*
X179039Y17817D01*
X179388Y16975D01*
X179943Y16252D01*
X180666Y15698D01*
X181508Y15349D01*
X182411Y15230D01*
X183314Y15349D01*
X184156Y15698D01*
X184879Y16252D01*
X185434Y16975D01*
X185783Y17817D01*
X185901Y18720D01*
X185783Y19624D01*
X185434Y20466D01*
X184879Y21189D01*
X184156Y21743D01*
X183314Y22092D01*
X182411Y22211D01*
D02*
G37*
G36*
X31565Y64514D02*
X30661Y64395D01*
X29819Y64046D01*
X29096Y63492D01*
X28542Y62769D01*
X28193Y61927D01*
X28074Y61024D01*
X28193Y60120D01*
X28542Y59278D01*
X29096Y58555D01*
X29819Y58001D01*
X30661Y57652D01*
X31565Y57533D01*
X32468Y57652D01*
X33310Y58001D01*
X34033Y58555D01*
X34587Y59278D01*
X34936Y60120D01*
X35055Y61024D01*
X34936Y61927D01*
X34587Y62769D01*
X34033Y63492D01*
X33310Y64046D01*
X32468Y64395D01*
X31565Y64514D01*
D02*
G37*
G36*
X23690D02*
X22787Y64395D01*
X21945Y64046D01*
X21222Y63492D01*
X20668Y62769D01*
X20319Y61927D01*
X20200Y61024D01*
X20319Y60120D01*
X20668Y59278D01*
X21222Y58555D01*
X21945Y58001D01*
X22787Y57652D01*
X23690Y57533D01*
X24594Y57652D01*
X25436Y58001D01*
X26159Y58555D01*
X26713Y59278D01*
X27062Y60120D01*
X27181Y61024D01*
X27062Y61927D01*
X26713Y62769D01*
X26159Y63492D01*
X25436Y64046D01*
X24594Y64395D01*
X23690Y64514D01*
D02*
G37*
G36*
X47313D02*
X46409Y64395D01*
X45567Y64046D01*
X44844Y63492D01*
X44290Y62769D01*
X43941Y61927D01*
X43822Y61024D01*
X43941Y60120D01*
X44290Y59278D01*
X44844Y58555D01*
X45567Y58001D01*
X46409Y57652D01*
X47313Y57533D01*
X48216Y57652D01*
X49058Y58001D01*
X49781Y58555D01*
X50335Y59278D01*
X50684Y60120D01*
X50803Y61024D01*
X50684Y61927D01*
X50335Y62769D01*
X49781Y63492D01*
X49058Y64046D01*
X48216Y64395D01*
X47313Y64514D01*
D02*
G37*
G36*
X39439D02*
X38535Y64395D01*
X37693Y64046D01*
X36970Y63492D01*
X36416Y62769D01*
X36067Y61927D01*
X35948Y61024D01*
X36067Y60120D01*
X36416Y59278D01*
X36970Y58555D01*
X37693Y58001D01*
X38535Y57652D01*
X39439Y57533D01*
X40342Y57652D01*
X41184Y58001D01*
X41907Y58555D01*
X42461Y59278D01*
X42810Y60120D01*
X42929Y61024D01*
X42810Y61927D01*
X42461Y62769D01*
X41907Y63492D01*
X41184Y64046D01*
X40342Y64395D01*
X39439Y64514D01*
D02*
G37*
G36*
X68D02*
X-835Y64395D01*
X-1677Y64046D01*
X-2400Y63492D01*
X-2954Y62769D01*
X-3303Y61927D01*
X-3422Y61024D01*
X-3303Y60120D01*
X-2954Y59278D01*
X-2400Y58555D01*
X-1677Y58001D01*
X-835Y57652D01*
X68Y57533D01*
X972Y57652D01*
X1814Y58001D01*
X2537Y58555D01*
X3091Y59278D01*
X3440Y60120D01*
X3559Y61024D01*
X3440Y61927D01*
X3091Y62769D01*
X2537Y63492D01*
X1814Y64046D01*
X972Y64395D01*
X68Y64514D01*
D02*
G37*
G36*
X68391Y63992D02*
X53793D01*
Y49394D01*
X68391D01*
Y63992D01*
D02*
G37*
G36*
X15816Y64514D02*
X14913Y64395D01*
X14071Y64046D01*
X13348Y63492D01*
X12794Y62769D01*
X12445Y61927D01*
X12326Y61024D01*
X12445Y60120D01*
X12794Y59278D01*
X13348Y58555D01*
X14071Y58001D01*
X14913Y57652D01*
X15816Y57533D01*
X16720Y57652D01*
X17562Y58001D01*
X18285Y58555D01*
X18839Y59278D01*
X19188Y60120D01*
X19307Y61024D01*
X19188Y61927D01*
X18839Y62769D01*
X18285Y63492D01*
X17562Y64046D01*
X16720Y64395D01*
X15816Y64514D01*
D02*
G37*
G36*
X7942D02*
X7039Y64395D01*
X6197Y64046D01*
X5474Y63492D01*
X4920Y62769D01*
X4571Y61927D01*
X4452Y61024D01*
X4571Y60120D01*
X4920Y59278D01*
X5474Y58555D01*
X6197Y58001D01*
X7039Y57652D01*
X7942Y57533D01*
X8846Y57652D01*
X9688Y58001D01*
X10411Y58555D01*
X10965Y59278D01*
X11314Y60120D01*
X11433Y61024D01*
X11314Y61927D01*
X10965Y62769D01*
X10411Y63492D01*
X9688Y64046D01*
X8846Y64395D01*
X7942Y64514D01*
D02*
G37*
G36*
X172411Y-27789D02*
X171508Y-27908D01*
X170666Y-28257D01*
X169943Y-28811D01*
X169388Y-29534D01*
X169039Y-30376D01*
X168921Y-31280D01*
X169039Y-32183D01*
X169388Y-33025D01*
X169943Y-33748D01*
X170666Y-34302D01*
X171508Y-34651D01*
X172411Y-34770D01*
X173314Y-34651D01*
X174156Y-34302D01*
X174879Y-33748D01*
X175434Y-33025D01*
X175783Y-32183D01*
X175901Y-31280D01*
X175783Y-30376D01*
X175434Y-29534D01*
X174879Y-28811D01*
X174156Y-28257D01*
X173314Y-27908D01*
X172411Y-27789D01*
D02*
G37*
G36*
X192411Y-37789D02*
X191507Y-37908D01*
X190666Y-38257D01*
X189943Y-38811D01*
X189388Y-39534D01*
X189039Y-40376D01*
X188920Y-41280D01*
X189039Y-42183D01*
X189388Y-43025D01*
X189943Y-43748D01*
X190666Y-44302D01*
X191507Y-44651D01*
X192411Y-44770D01*
X193314Y-44651D01*
X194156Y-44302D01*
X194879Y-43748D01*
X195434Y-43025D01*
X195782Y-42183D01*
X195901Y-41280D01*
X195782Y-40376D01*
X195434Y-39534D01*
X194879Y-38811D01*
X194156Y-38257D01*
X193314Y-37908D01*
X192411Y-37789D01*
D02*
G37*
G36*
Y-27789D02*
X191507Y-27908D01*
X190666Y-28257D01*
X189943Y-28811D01*
X189388Y-29534D01*
X189039Y-30376D01*
X188920Y-31280D01*
X189039Y-32183D01*
X189388Y-33025D01*
X189943Y-33748D01*
X190666Y-34302D01*
X191507Y-34651D01*
X192411Y-34770D01*
X193314Y-34651D01*
X194156Y-34302D01*
X194879Y-33748D01*
X195434Y-33025D01*
X195782Y-32183D01*
X195901Y-31280D01*
X195782Y-30376D01*
X195434Y-29534D01*
X194879Y-28811D01*
X194156Y-28257D01*
X193314Y-27908D01*
X192411Y-27789D01*
D02*
G37*
G36*
X182411D02*
X181508Y-27908D01*
X180666Y-28257D01*
X179943Y-28811D01*
X179388Y-29534D01*
X179039Y-30376D01*
X178920Y-31280D01*
X179039Y-32183D01*
X179388Y-33025D01*
X179943Y-33748D01*
X180666Y-34302D01*
X181508Y-34651D01*
X182411Y-34770D01*
X183314Y-34651D01*
X184156Y-34302D01*
X184879Y-33748D01*
X185434Y-33025D01*
X185783Y-32183D01*
X185901Y-31280D01*
X185783Y-30376D01*
X185434Y-29534D01*
X184879Y-28811D01*
X184156Y-28257D01*
X183314Y-27908D01*
X182411Y-27789D01*
D02*
G37*
G36*
Y-47789D02*
X181508Y-47908D01*
X180666Y-48257D01*
X179943Y-48811D01*
X179388Y-49534D01*
X179039Y-50376D01*
X178920Y-51280D01*
X179039Y-52183D01*
X179388Y-53025D01*
X179943Y-53748D01*
X180666Y-54302D01*
X181508Y-54651D01*
X182411Y-54770D01*
X183314Y-54651D01*
X184156Y-54302D01*
X184879Y-53748D01*
X185434Y-53025D01*
X185783Y-52183D01*
X185901Y-51280D01*
X185783Y-50376D01*
X185434Y-49534D01*
X184879Y-48811D01*
X184156Y-48257D01*
X183314Y-47908D01*
X182411Y-47789D01*
D02*
G37*
G36*
X192411Y-57789D02*
X191507Y-57908D01*
X190666Y-58257D01*
X189943Y-58811D01*
X189388Y-59534D01*
X189039Y-60376D01*
X188920Y-61280D01*
X189039Y-62183D01*
X189388Y-63025D01*
X189943Y-63748D01*
X190666Y-64302D01*
X191507Y-64651D01*
X192411Y-64770D01*
X193314Y-64651D01*
X194156Y-64302D01*
X194879Y-63748D01*
X195434Y-63025D01*
X195782Y-62183D01*
X195901Y-61280D01*
X195782Y-60376D01*
X195434Y-59534D01*
X194879Y-58811D01*
X194156Y-58257D01*
X193314Y-57908D01*
X192411Y-57789D01*
D02*
G37*
G36*
X182411Y-37789D02*
X181508Y-37908D01*
X180666Y-38257D01*
X179943Y-38811D01*
X179388Y-39534D01*
X179039Y-40376D01*
X178920Y-41280D01*
X179039Y-42183D01*
X179388Y-43025D01*
X179943Y-43748D01*
X180666Y-44302D01*
X181508Y-44651D01*
X182411Y-44770D01*
X183314Y-44651D01*
X184156Y-44302D01*
X184879Y-43748D01*
X185434Y-43025D01*
X185783Y-42183D01*
X185901Y-41280D01*
X185783Y-40376D01*
X185434Y-39534D01*
X184879Y-38811D01*
X184156Y-38257D01*
X183314Y-37908D01*
X182411Y-37789D01*
D02*
G37*
G36*
X192411Y-47789D02*
X191507Y-47908D01*
X190666Y-48257D01*
X189943Y-48811D01*
X189388Y-49534D01*
X189039Y-50376D01*
X188920Y-51280D01*
X189039Y-52183D01*
X189388Y-53025D01*
X189943Y-53748D01*
X190666Y-54302D01*
X191507Y-54651D01*
X192411Y-54770D01*
X193314Y-54651D01*
X194156Y-54302D01*
X194879Y-53748D01*
X195434Y-53025D01*
X195782Y-52183D01*
X195901Y-51280D01*
X195782Y-50376D01*
X195434Y-49534D01*
X194879Y-48811D01*
X194156Y-48257D01*
X193314Y-47908D01*
X192411Y-47789D01*
D02*
G37*
G36*
X172411Y-17789D02*
X171508Y-17908D01*
X170666Y-18257D01*
X169943Y-18811D01*
X169388Y-19534D01*
X169039Y-20376D01*
X168921Y-21280D01*
X169039Y-22183D01*
X169388Y-23025D01*
X169943Y-23748D01*
X170666Y-24302D01*
X171508Y-24651D01*
X172411Y-24770D01*
X173314Y-24651D01*
X174156Y-24302D01*
X174879Y-23748D01*
X175434Y-23025D01*
X175783Y-22183D01*
X175901Y-21280D01*
X175783Y-20376D01*
X175434Y-19534D01*
X174879Y-18811D01*
X174156Y-18257D01*
X173314Y-17908D01*
X172411Y-17789D01*
D02*
G37*
G36*
X0Y-4383D02*
X-903Y-4502D01*
X-1745Y-4851D01*
X-2468Y-5406D01*
X-3023Y-6129D01*
X-3371Y-6971D01*
X-3491Y-7874D01*
X-3371Y-8777D01*
X-3023Y-9619D01*
X-2468Y-10342D01*
X-1745Y-10897D01*
X-903Y-11246D01*
X0Y-11365D01*
X903Y-11246D01*
X1745Y-10897D01*
X2468Y-10342D01*
X3023Y-9619D01*
X3371Y-8777D01*
X3491Y-7874D01*
X3371Y-6971D01*
X3023Y-6129D01*
X2468Y-5406D01*
X1745Y-4851D01*
X903Y-4502D01*
X0Y-4383D01*
D02*
G37*
G36*
X182411Y-7789D02*
X181508Y-7908D01*
X180666Y-8257D01*
X179943Y-8811D01*
X179388Y-9534D01*
X179039Y-10376D01*
X178920Y-11280D01*
X179039Y-12183D01*
X179388Y-13025D01*
X179943Y-13748D01*
X180666Y-14302D01*
X181508Y-14651D01*
X182411Y-14770D01*
X183314Y-14651D01*
X184156Y-14302D01*
X184879Y-13748D01*
X185434Y-13025D01*
X185783Y-12183D01*
X185901Y-11280D01*
X185783Y-10376D01*
X185434Y-9534D01*
X184879Y-8811D01*
X184156Y-8257D01*
X183314Y-7908D01*
X182411Y-7789D01*
D02*
G37*
G36*
X15748Y-4383D02*
X14845Y-4502D01*
X14003Y-4851D01*
X13280Y-5406D01*
X12725Y-6129D01*
X12376Y-6971D01*
X12257Y-7874D01*
X12376Y-8777D01*
X12725Y-9619D01*
X13280Y-10342D01*
X14003Y-10897D01*
X14845Y-11246D01*
X15748Y-11365D01*
X16651Y-11246D01*
X17493Y-10897D01*
X18216Y-10342D01*
X18771Y-9619D01*
X19120Y-8777D01*
X19239Y-7874D01*
X19120Y-6971D01*
X18771Y-6129D01*
X18216Y-5406D01*
X17493Y-4851D01*
X16651Y-4502D01*
X15748Y-4383D01*
D02*
G37*
G36*
X7874D02*
X6971Y-4502D01*
X6129Y-4851D01*
X5406Y-5406D01*
X4851Y-6129D01*
X4502Y-6971D01*
X4383Y-7874D01*
X4502Y-8777D01*
X4851Y-9619D01*
X5406Y-10342D01*
X6129Y-10897D01*
X6971Y-11246D01*
X7874Y-11365D01*
X8777Y-11246D01*
X9619Y-10897D01*
X10342Y-10342D01*
X10897Y-9619D01*
X11246Y-8777D01*
X11365Y-7874D01*
X11246Y-6971D01*
X10897Y-6129D01*
X10342Y-5406D01*
X9619Y-4851D01*
X8777Y-4502D01*
X7874Y-4383D01*
D02*
G37*
G36*
X192411Y-17789D02*
X191507Y-17908D01*
X190666Y-18257D01*
X189943Y-18811D01*
X189388Y-19534D01*
X189039Y-20376D01*
X188920Y-21280D01*
X189039Y-22183D01*
X189388Y-23025D01*
X189943Y-23748D01*
X190666Y-24302D01*
X191507Y-24651D01*
X192411Y-24770D01*
X193314Y-24651D01*
X194156Y-24302D01*
X194879Y-23748D01*
X195434Y-23025D01*
X195782Y-22183D01*
X195901Y-21280D01*
X195782Y-20376D01*
X195434Y-19534D01*
X194879Y-18811D01*
X194156Y-18257D01*
X193314Y-17908D01*
X192411Y-17789D01*
D02*
G37*
G36*
X182411D02*
X181508Y-17908D01*
X180666Y-18257D01*
X179943Y-18811D01*
X179388Y-19534D01*
X179039Y-20376D01*
X178920Y-21280D01*
X179039Y-22183D01*
X179388Y-23025D01*
X179943Y-23748D01*
X180666Y-24302D01*
X181508Y-24651D01*
X182411Y-24770D01*
X183314Y-24651D01*
X184156Y-24302D01*
X184879Y-23748D01*
X185434Y-23025D01*
X185783Y-22183D01*
X185901Y-21280D01*
X185783Y-20376D01*
X185434Y-19534D01*
X184879Y-18811D01*
X184156Y-18257D01*
X183314Y-17908D01*
X182411Y-17789D01*
D02*
G37*
G36*
X172411Y-7789D02*
X171508Y-7908D01*
X170666Y-8257D01*
X169943Y-8811D01*
X169388Y-9534D01*
X169039Y-10376D01*
X168921Y-11280D01*
X169039Y-12183D01*
X169388Y-13025D01*
X169943Y-13748D01*
X170666Y-14302D01*
X171508Y-14651D01*
X172411Y-14770D01*
X173314Y-14651D01*
X174156Y-14302D01*
X174879Y-13748D01*
X175434Y-13025D01*
X175783Y-12183D01*
X175901Y-11280D01*
X175783Y-10376D01*
X175434Y-9534D01*
X174879Y-8811D01*
X174156Y-8257D01*
X173314Y-7908D01*
X172411Y-7789D01*
D02*
G37*
G36*
X140811Y9061D02*
X138740Y8898D01*
X136719Y8413D01*
X134800Y7618D01*
X133028Y6532D01*
X131448Y5183D01*
X130099Y3603D01*
X129013Y1832D01*
X128218Y-88D01*
X127733Y-2108D01*
X127570Y-4180D01*
X127733Y-6251D01*
X128218Y-8271D01*
X129013Y-10191D01*
X130099Y-11962D01*
X131448Y-13542D01*
X133028Y-14892D01*
X134800Y-15977D01*
X136719Y-16772D01*
X138740Y-17257D01*
X140811Y-17420D01*
X142882Y-17257D01*
X144903Y-16772D01*
X146822Y-15977D01*
X148594Y-14892D01*
X150174Y-13542D01*
X151523Y-11962D01*
X152609Y-10191D01*
X153404Y-8271D01*
X153889Y-6251D01*
X154052Y-4180D01*
X153889Y-2108D01*
X153404Y-88D01*
X152609Y1832D01*
X151523Y3603D01*
X150174Y5183D01*
X148594Y6532D01*
X146822Y7618D01*
X144903Y8413D01*
X142882Y8898D01*
X140811Y9061D01*
D02*
G37*
G36*
X810Y258299D02*
X445D01*
X336Y258281D01*
X208Y258263D01*
X63Y258227D01*
X-247Y258117D01*
X-265D01*
X-302Y258081D01*
X-375Y258044D01*
X-466Y257990D01*
X-684Y257826D01*
X-903Y257607D01*
X-921Y257589D01*
X-939Y257552D01*
X-994Y257480D01*
X-1067Y257388D01*
X-1140Y257279D01*
X-1213Y257133D01*
X-1359Y256824D01*
Y256805D01*
X-1377Y256751D01*
X-1413Y256660D01*
X-1450Y256532D01*
X-1486Y256386D01*
X-1504Y256204D01*
X-1559Y255821D01*
X2777D01*
Y255840D01*
Y255913D01*
Y256022D01*
Y256150D01*
X2759Y256295D01*
X2741Y256459D01*
X2650Y256805D01*
Y256824D01*
X2632Y256878D01*
X2595Y256969D01*
X2559Y257079D01*
X2431Y257334D01*
X2249Y257589D01*
X2231Y257607D01*
X2194Y257644D01*
X2140Y257698D01*
X2067Y257771D01*
X1957Y257862D01*
X1848Y257935D01*
X1557Y258099D01*
X1538Y258117D01*
X1484Y258136D01*
X1393Y258172D01*
X1283Y258208D01*
X1156Y258245D01*
X992Y258263D01*
X810Y258299D01*
D02*
G37*
G36*
X92966Y260668D02*
X92857D01*
X92711Y260650D01*
X92547Y260632D01*
X92365Y260577D01*
X92146Y260522D01*
X91946Y260431D01*
X91746Y260322D01*
X91727Y260304D01*
X91673Y260267D01*
X91582Y260194D01*
X91454Y260085D01*
X91327Y259958D01*
X91199Y259793D01*
X91053Y259611D01*
X90926Y259411D01*
X90908Y259393D01*
X90871Y259320D01*
X90816Y259192D01*
X90744Y259028D01*
X90671Y258846D01*
X90580Y258609D01*
X90507Y258354D01*
X90434Y258081D01*
Y258044D01*
X90416Y257953D01*
X90397Y257789D01*
X90361Y257589D01*
X90343Y257352D01*
X90306Y257079D01*
X90288Y256769D01*
Y256459D01*
Y256441D01*
Y256423D01*
Y256368D01*
Y256295D01*
Y256113D01*
X90306Y255894D01*
X90324Y255621D01*
X90343Y255330D01*
X90434Y254710D01*
Y254674D01*
X90470Y254583D01*
X90488Y254437D01*
X90543Y254255D01*
X90616Y254036D01*
X90689Y253817D01*
X90780Y253580D01*
X90889Y253362D01*
X90908Y253344D01*
X90944Y253271D01*
X91017Y253180D01*
X91126Y253052D01*
X91236Y252906D01*
X91381Y252779D01*
X91545Y252633D01*
X91727Y252505D01*
X91746Y252487D01*
X91818Y252451D01*
X91928Y252414D01*
X92074Y252360D01*
X92256Y252287D01*
X92475Y252250D01*
X92711Y252214D01*
X92966Y252196D01*
X93094D01*
X93221Y252214D01*
X93385Y252232D01*
X93586Y252269D01*
X93786Y252342D01*
X93987Y252414D01*
X94187Y252524D01*
X94205Y252542D01*
X94278Y252578D01*
X94369Y252651D01*
X94479Y252761D01*
X94624Y252888D01*
X94752Y253034D01*
X94898Y253216D01*
X95025Y253416D01*
X95043Y253435D01*
X95080Y253526D01*
X95135Y253635D01*
X95207Y253799D01*
X95299Y253999D01*
X95371Y254218D01*
X95444Y254473D01*
X95517Y254747D01*
Y254783D01*
X95535Y254874D01*
X95572Y255038D01*
X95608Y255239D01*
X95626Y255475D01*
X95663Y255767D01*
X95681Y256058D01*
Y256386D01*
Y256405D01*
Y256423D01*
Y256477D01*
Y256550D01*
Y256733D01*
X95663Y256951D01*
X95645Y257224D01*
X95608Y257516D01*
X95517Y258117D01*
Y258136D01*
Y258154D01*
X95499Y258245D01*
X95463Y258391D01*
X95408Y258573D01*
X95335Y258791D01*
X95262Y259010D01*
X95153Y259247D01*
X95043Y259466D01*
X95025Y259484D01*
X94989Y259557D01*
X94916Y259666D01*
X94825Y259793D01*
X94697Y259921D01*
X94551Y260067D01*
X94388Y260213D01*
X94205Y260340D01*
X94187Y260358D01*
X94114Y260395D01*
X94005Y260449D01*
X93859Y260504D01*
X93677Y260559D01*
X93476Y260613D01*
X93221Y260650D01*
X92966Y260668D01*
D02*
G37*
G36*
X65254D02*
X65144D01*
X64999Y260650D01*
X64835Y260632D01*
X64653Y260577D01*
X64434Y260522D01*
X64233Y260431D01*
X64033Y260322D01*
X64015Y260304D01*
X63960Y260267D01*
X63869Y260194D01*
X63741Y260085D01*
X63614Y259958D01*
X63486Y259793D01*
X63341Y259611D01*
X63213Y259411D01*
X63195Y259393D01*
X63159Y259320D01*
X63104Y259192D01*
X63031Y259028D01*
X62958Y258846D01*
X62867Y258609D01*
X62794Y258354D01*
X62721Y258081D01*
Y258044D01*
X62703Y257953D01*
X62685Y257789D01*
X62648Y257589D01*
X62630Y257352D01*
X62594Y257079D01*
X62575Y256769D01*
Y256459D01*
Y256441D01*
Y256423D01*
Y256368D01*
Y256295D01*
Y256113D01*
X62594Y255894D01*
X62612Y255621D01*
X62630Y255330D01*
X62721Y254710D01*
Y254674D01*
X62758Y254583D01*
X62776Y254437D01*
X62831Y254255D01*
X62903Y254036D01*
X62976Y253817D01*
X63067Y253580D01*
X63177Y253362D01*
X63195Y253344D01*
X63231Y253271D01*
X63304Y253180D01*
X63414Y253052D01*
X63523Y252906D01*
X63669Y252779D01*
X63833Y252633D01*
X64015Y252505D01*
X64033Y252487D01*
X64106Y252451D01*
X64215Y252414D01*
X64361Y252360D01*
X64543Y252287D01*
X64762Y252250D01*
X64999Y252214D01*
X65254Y252196D01*
X65381D01*
X65509Y252214D01*
X65673Y252232D01*
X65873Y252269D01*
X66074Y252342D01*
X66274Y252414D01*
X66474Y252524D01*
X66493Y252542D01*
X66566Y252578D01*
X66657Y252651D01*
X66766Y252761D01*
X66912Y252888D01*
X67039Y253034D01*
X67185Y253216D01*
X67313Y253416D01*
X67331Y253435D01*
X67367Y253526D01*
X67422Y253635D01*
X67495Y253799D01*
X67586Y253999D01*
X67659Y254218D01*
X67732Y254473D01*
X67805Y254747D01*
Y254783D01*
X67823Y254874D01*
X67859Y255038D01*
X67896Y255239D01*
X67914Y255475D01*
X67950Y255767D01*
X67969Y256058D01*
Y256386D01*
Y256405D01*
Y256423D01*
Y256477D01*
Y256550D01*
Y256733D01*
X67950Y256951D01*
X67932Y257224D01*
X67896Y257516D01*
X67805Y258117D01*
Y258136D01*
Y258154D01*
X67786Y258245D01*
X67750Y258391D01*
X67695Y258573D01*
X67622Y258791D01*
X67550Y259010D01*
X67440Y259247D01*
X67331Y259466D01*
X67313Y259484D01*
X67276Y259557D01*
X67203Y259666D01*
X67112Y259793D01*
X66985Y259921D01*
X66839Y260067D01*
X66675Y260213D01*
X66493Y260340D01*
X66474Y260358D01*
X66402Y260395D01*
X66292Y260449D01*
X66147Y260504D01*
X65964Y260559D01*
X65764Y260613D01*
X65509Y260650D01*
X65254Y260668D01*
D02*
G37*
%LPD*%
D10*
X43307Y3937D02*
X48484D01*
X51249Y1171D01*
X43376Y-3869D02*
X47244Y0D01*
X-25522Y27559D02*
X68Y53150D01*
X167391Y-46260D02*
Y-40945D01*
Y-46260D02*
X172411Y-51280D01*
X-39794Y41831D02*
Y128740D01*
Y41831D02*
X-25522Y27559D01*
X-44715Y32155D02*
Y128740D01*
Y32155D02*
X-44284Y31724D01*
X-23554Y26969D02*
X-1309Y49213D01*
X4005D01*
X7942Y53150D01*
X51249Y-22638D02*
Y1171D01*
X43376Y-17168D02*
Y-3869D01*
X-25522Y-8113D02*
X-16467Y-17168D01*
X43376D01*
X-15763Y-15468D02*
X30860D01*
X35502Y-10827D01*
Y-3869D01*
X-23554Y-7677D02*
X-15763Y-15468D01*
X163084Y-36637D02*
X167391Y-40945D01*
X62845Y-36637D02*
X163084D01*
X51249Y-22638D02*
X63257Y-34646D01*
X43376Y-17168D02*
X62845Y-36637D01*
X-23554Y-7677D02*
Y26969D01*
X139627Y-34646D02*
X172411Y-1862D01*
Y-1280D01*
X-25522Y-8113D02*
Y27559D01*
Y27657D01*
X35502Y-3869D02*
X39370Y0D01*
X43307Y3937D01*
X110502Y-34646D02*
X139627D01*
X104399Y-28543D02*
X105383Y-29528D01*
X110502Y-34646D01*
X63257D02*
X110502D01*
D11*
X56564Y-21654D02*
X62628Y-15591D01*
X127734Y-30694D02*
X137702D01*
X35895Y-30118D02*
X42785D01*
X36092Y-23622D02*
X42785D01*
X60895Y-25984D02*
X66991Y-19954D01*
D12*
X-98357Y-40354D02*
D03*
X-105246D02*
D03*
X-91467D02*
D03*
X-125916D02*
D03*
X-112136D02*
D03*
X-119026D02*
D03*
Y157480D02*
D03*
X-112136D02*
D03*
X-125916D02*
D03*
X137902Y-30694D02*
D03*
X56564Y-21654D02*
D03*
X62660Y-15623D02*
D03*
X42785Y-30118D02*
D03*
Y-23622D02*
D03*
X35895Y-30118D02*
D03*
X36092Y-23622D02*
D03*
X159916Y-9452D02*
D03*
X164962Y-14563D02*
D03*
X127734Y-30694D02*
D03*
X-34872Y141634D02*
D03*
X66991Y-19954D02*
D03*
X60895Y-25984D02*
D03*
D13*
X202011Y-121305D02*
D03*
D14*
X-135464Y183677D02*
D03*
X202036Y168670D02*
D03*
X-135464Y-131330D02*
D03*
D15*
X-114189Y-4180D02*
D03*
Y130820D02*
D03*
X140811D02*
D03*
Y-4180D02*
D03*
X-63439Y72835D02*
D03*
Y27559D02*
D03*
D16*
X172411Y138720D02*
D03*
Y148720D02*
D03*
X182411D02*
D03*
Y138720D02*
D03*
X172411Y118720D02*
D03*
Y128720D02*
D03*
X182411D02*
D03*
Y-81280D02*
D03*
Y-91280D02*
D03*
Y-101280D02*
D03*
X172411D02*
D03*
Y-91280D02*
D03*
Y-81280D02*
D03*
X182411Y28720D02*
D03*
Y48720D02*
D03*
Y38720D02*
D03*
Y58720D02*
D03*
Y68720D02*
D03*
Y78720D02*
D03*
Y88720D02*
D03*
Y98720D02*
D03*
Y108720D02*
D03*
Y118720D02*
D03*
X172411Y18720D02*
D03*
Y28720D02*
D03*
Y48720D02*
D03*
Y38720D02*
D03*
Y58720D02*
D03*
Y68720D02*
D03*
Y78720D02*
D03*
Y88720D02*
D03*
Y98720D02*
D03*
Y108720D02*
D03*
Y8720D02*
D03*
Y-11280D02*
D03*
Y-1280D02*
D03*
Y-21280D02*
D03*
Y-31280D02*
D03*
Y-41280D02*
D03*
Y-51280D02*
D03*
Y-61280D02*
D03*
Y-71280D02*
D03*
X182411D02*
D03*
Y-61280D02*
D03*
Y-51280D02*
D03*
Y-41280D02*
D03*
Y-31280D02*
D03*
Y-21280D02*
D03*
Y-1280D02*
D03*
Y-11280D02*
D03*
Y8720D02*
D03*
Y18720D02*
D03*
X192411Y138720D02*
D03*
Y148720D02*
D03*
X202411D02*
D03*
Y138720D02*
D03*
X192411Y118720D02*
D03*
Y128720D02*
D03*
X202411D02*
D03*
Y-81280D02*
D03*
Y-91280D02*
D03*
Y-101280D02*
D03*
X192411D02*
D03*
Y-91280D02*
D03*
Y-81280D02*
D03*
X202411Y28720D02*
D03*
Y48720D02*
D03*
Y38720D02*
D03*
Y58720D02*
D03*
Y68720D02*
D03*
Y78720D02*
D03*
Y88720D02*
D03*
Y98720D02*
D03*
Y108720D02*
D03*
Y118720D02*
D03*
X192411Y18720D02*
D03*
Y28720D02*
D03*
Y48720D02*
D03*
Y38720D02*
D03*
Y58720D02*
D03*
Y68720D02*
D03*
Y78720D02*
D03*
Y88720D02*
D03*
Y98720D02*
D03*
Y108720D02*
D03*
Y8720D02*
D03*
Y-11280D02*
D03*
Y-1280D02*
D03*
Y-21280D02*
D03*
Y-31280D02*
D03*
Y-41280D02*
D03*
Y-51280D02*
D03*
Y-61280D02*
D03*
Y-71280D02*
D03*
X202411D02*
D03*
Y-61280D02*
D03*
Y-51280D02*
D03*
Y-41280D02*
D03*
Y-31280D02*
D03*
Y-21280D02*
D03*
Y-1280D02*
D03*
Y-11280D02*
D03*
Y8720D02*
D03*
Y18720D02*
D03*
X47313Y53150D02*
D03*
Y61024D02*
D03*
X39439Y53150D02*
D03*
Y61024D02*
D03*
X31565Y53150D02*
D03*
Y61024D02*
D03*
X23690Y53150D02*
D03*
Y61024D02*
D03*
X15816Y53150D02*
D03*
Y61024D02*
D03*
X7942Y53150D02*
D03*
Y61024D02*
D03*
X68Y53150D02*
D03*
X68Y61024D02*
D03*
X0Y0D02*
D03*
Y-7874D02*
D03*
X7874Y0D02*
D03*
Y-7874D02*
D03*
X15748Y0D02*
D03*
Y-7874D02*
D03*
X23622Y0D02*
D03*
Y-7874D02*
D03*
X31496Y0D02*
D03*
Y-7874D02*
D03*
X39370Y0D02*
D03*
Y-7874D02*
D03*
X47244Y0D02*
D03*
X47244Y-7874D02*
D03*
D17*
X-53849Y134173D02*
D03*
X-30660D02*
D03*
D18*
X-85562Y133858D02*
D03*
X-65876D02*
D03*
X121131Y-29528D02*
D03*
X105383D02*
D03*
D19*
X-44284Y31724D02*
D03*
D20*
X-58888Y141732D02*
D03*
X-25620D02*
D03*
D21*
X-49636Y128740D02*
D03*
X-44715D02*
D03*
X-34872D02*
D03*
X-39794D02*
D03*
D22*
X-58888Y141732D02*
X-25620D01*
X-34872Y128740D02*
Y141634D01*
X-72963Y141339D02*
X-63514Y150787D01*
X-72963Y132677D02*
Y141339D01*
Y132677D02*
X-69026Y128740D01*
X-49636D01*
X202411Y18720D02*
Y18917D01*
X192411Y18720D02*
X202411D01*
X187511Y23620D02*
X192411Y18720D01*
X187511Y23620D02*
Y31920D01*
X186550Y32881D02*
X187511Y31920D01*
X-1865Y150787D02*
X9896Y139027D01*
X-63514Y150787D02*
X-1865D01*
X123263Y32881D02*
X186550D01*
X120815Y30434D02*
X123263Y32881D01*
X88811Y44577D02*
X102954Y30434D01*
X120815D01*
X80990Y95642D02*
X88811Y87820D01*
Y44577D02*
Y87820D01*
X9896Y100282D02*
X14536Y95642D01*
X9896Y100282D02*
Y139027D01*
X14536Y95642D02*
X80990D01*
D23*
X61092Y56693D02*
D03*
X-13711Y56693D02*
D03*
X-13780Y-3543D02*
D03*
X61024Y-3543D02*
D03*
M02*
