G04 Layer_Color=16711935*
%FSLAX25Y25*%
%MOIN*%
G70*
G01*
G75*
%ADD16C,0.04921*%
%ADD17C,0.03543*%
%ADD23R,0.12598X0.12598*%
%ADD27C,0.04737*%
%ADD28C,0.16548*%
%ADD29C,0.15800*%
%ADD30C,0.25200*%
%ADD31C,0.05721*%
%ADD32C,0.06706*%
%ADD33R,0.07099X0.09461*%
%ADD34R,0.03556X0.07887*%
G36*
X179052Y236983D02*
X179180D01*
X179289Y236965D01*
X179362D01*
X179416Y236947D01*
X179435D01*
X179726Y236911D01*
X179854Y236892D01*
X179963Y236874D01*
X180054Y236856D01*
X180127Y236838D01*
X180182Y236819D01*
X180200D01*
X180455Y236765D01*
X180692Y236710D01*
X180783Y236692D01*
X180856Y236674D01*
X180892Y236655D01*
X180910D01*
X181147Y236583D01*
X181330Y236528D01*
X181402Y236510D01*
X181439Y236491D01*
X181475Y236473D01*
X181493D01*
Y235180D01*
X181238Y235271D01*
X180983Y235362D01*
X180746Y235435D01*
X180528Y235508D01*
X180364Y235544D01*
X180218Y235580D01*
X180145Y235617D01*
X180109D01*
X179599Y235708D01*
X179380Y235745D01*
X179161Y235763D01*
X178979Y235781D01*
X178724D01*
X178396Y235763D01*
X178104Y235708D01*
X177849Y235635D01*
X177649Y235562D01*
X177503Y235489D01*
X177394Y235417D01*
X177321Y235362D01*
X177303Y235344D01*
X177139Y235161D01*
X177030Y234979D01*
X176938Y234779D01*
X176884Y234597D01*
X176847Y234433D01*
X176829Y234305D01*
Y234214D01*
Y234177D01*
Y233467D01*
X178870D01*
X179180Y233431D01*
X179471Y233394D01*
X179726Y233358D01*
X179981Y233303D01*
X180200Y233248D01*
X180400Y233175D01*
X180582Y233121D01*
X180746Y233048D01*
X180892Y232975D01*
X181001Y232920D01*
X181093Y232866D01*
X181184Y232829D01*
X181238Y232793D01*
X181257Y232756D01*
X181275D01*
X181439Y232611D01*
X181566Y232465D01*
X181694Y232319D01*
X181803Y232155D01*
X181967Y231827D01*
X182077Y231517D01*
X182131Y231244D01*
X182149Y231117D01*
X182168Y231007D01*
X182186Y230934D01*
Y230861D01*
Y230825D01*
Y230807D01*
X182168Y230461D01*
X182131Y230297D01*
X182113Y230151D01*
X182077Y230042D01*
X182058Y229950D01*
X182040Y229896D01*
Y229878D01*
X181913Y229586D01*
X181821Y229459D01*
X181748Y229349D01*
X181676Y229258D01*
X181621Y229185D01*
X181585Y229149D01*
X181566Y229131D01*
X181293Y228930D01*
X181038Y228766D01*
X180910Y228712D01*
X180819Y228675D01*
X180765Y228639D01*
X180746D01*
X180346Y228548D01*
X180145Y228511D01*
X179945Y228493D01*
X179781D01*
X179653Y228475D01*
X179544D01*
X179252Y228493D01*
X178997Y228529D01*
X178742Y228566D01*
X178524Y228620D01*
X178341Y228675D01*
X178214Y228730D01*
X178123Y228748D01*
X178086Y228766D01*
X177831Y228894D01*
X177576Y229040D01*
X177357Y229204D01*
X177139Y229349D01*
X176975Y229495D01*
X176829Y229604D01*
X176756Y229677D01*
X176720Y229714D01*
X176683Y228620D01*
X175390D01*
Y234287D01*
X175408Y234542D01*
X175426Y234761D01*
X175463Y234979D01*
X175499Y235143D01*
X175554Y235289D01*
X175590Y235398D01*
X175608Y235471D01*
X175627Y235489D01*
X175718Y235672D01*
X175809Y235836D01*
X175918Y235981D01*
X176027Y236109D01*
X176119Y236200D01*
X176191Y236273D01*
X176246Y236309D01*
X176264Y236328D01*
X176428Y236455D01*
X176592Y236546D01*
X176756Y236637D01*
X176920Y236710D01*
X177048Y236765D01*
X177157Y236801D01*
X177248Y236838D01*
X177266D01*
X177722Y236929D01*
X177959Y236965D01*
X178159Y236983D01*
X178341Y237002D01*
X178924D01*
X179052Y236983D01*
D02*
G37*
G36*
X188927D02*
X189091Y236947D01*
X189219Y236911D01*
X189237Y236892D01*
X189255D01*
X189419Y236801D01*
X189565Y236710D01*
X189674Y236637D01*
X189692Y236619D01*
X189711Y236601D01*
X189875Y236437D01*
X190002Y236255D01*
X190057Y236182D01*
X190093Y236127D01*
X190111Y236091D01*
X190130Y236072D01*
X190276Y235817D01*
X190421Y235562D01*
X190476Y235453D01*
X190512Y235362D01*
X190531Y235307D01*
X190549Y235289D01*
X190622Y236856D01*
X191788D01*
Y228620D01*
X190367D01*
Y233904D01*
X190276Y234105D01*
X190184Y234305D01*
X190111Y234469D01*
X190057Y234597D01*
X190002Y234706D01*
X189966Y234779D01*
X189929Y234834D01*
Y234852D01*
X189802Y235088D01*
X189692Y235271D01*
X189620Y235380D01*
X189601Y235417D01*
X189492Y235562D01*
X189401Y235653D01*
X189346Y235708D01*
X189328Y235726D01*
X189237Y235781D01*
X189146Y235799D01*
X189073Y235817D01*
X189055D01*
X188964Y235799D01*
X188891Y235781D01*
X188854Y235763D01*
X188836Y235745D01*
X188781Y235690D01*
X188727Y235617D01*
X188709Y235544D01*
X188690Y235526D01*
X188636Y235398D01*
X188618Y235252D01*
X188599Y235143D01*
Y235107D01*
Y235088D01*
X188581Y234870D01*
X188563Y234633D01*
Y234524D01*
Y234451D01*
Y234396D01*
Y234378D01*
Y228620D01*
X187142D01*
Y233904D01*
X187050Y234086D01*
X186978Y234269D01*
X186905Y234414D01*
X186850Y234542D01*
X186795Y234651D01*
X186759Y234724D01*
X186723Y234779D01*
Y234797D01*
X186595Y235034D01*
X186486Y235234D01*
X186449Y235289D01*
X186413Y235344D01*
X186395Y235362D01*
Y235380D01*
X186285Y235526D01*
X186194Y235635D01*
X186140Y235690D01*
X186121Y235708D01*
X186012Y235781D01*
X185921Y235799D01*
X185848Y235817D01*
X185830D01*
X185739Y235799D01*
X185666Y235781D01*
X185629Y235763D01*
X185611Y235745D01*
X185556Y235690D01*
X185502Y235617D01*
X185484Y235562D01*
X185465Y235544D01*
X185411Y235417D01*
X185392Y235289D01*
X185374Y235180D01*
Y235161D01*
Y235143D01*
X185356Y234943D01*
X185338Y234742D01*
Y234651D01*
Y234597D01*
Y234542D01*
Y234524D01*
Y228620D01*
X183917D01*
Y234615D01*
X183935Y235034D01*
X183990Y235398D01*
X184063Y235726D01*
X184154Y235999D01*
X184281Y236218D01*
X184409Y236419D01*
X184554Y236583D01*
X184700Y236710D01*
X184846Y236801D01*
X184992Y236874D01*
X185119Y236929D01*
X185247Y236965D01*
X185338Y236983D01*
X185411Y237002D01*
X185484D01*
X185721Y236983D01*
X185921Y236947D01*
X185994Y236911D01*
X186048Y236892D01*
X186085Y236874D01*
X186103D01*
X186285Y236765D01*
X186431Y236655D01*
X186540Y236564D01*
X186559Y236546D01*
X186577Y236528D01*
X186723Y236346D01*
X186850Y236163D01*
X186905Y236091D01*
X186941Y236018D01*
X186978Y235981D01*
Y235963D01*
X187105Y235708D01*
X187233Y235471D01*
X187287Y235362D01*
X187324Y235289D01*
X187342Y235234D01*
X187360Y235216D01*
X187379Y235544D01*
X187415Y235817D01*
X187470Y236036D01*
X187524Y236236D01*
X187597Y236382D01*
X187652Y236491D01*
X187688Y236546D01*
X187706Y236564D01*
X187852Y236710D01*
X188016Y236819D01*
X188180Y236892D01*
X188344Y236947D01*
X188490Y236983D01*
X188618Y237002D01*
X188727D01*
X188927Y236983D01*
D02*
G37*
G36*
X163310Y228620D02*
X161889D01*
Y233030D01*
X158044Y228620D01*
X156077D01*
X160158Y233048D01*
X156295Y236856D01*
X158190D01*
X161889Y233084D01*
Y240208D01*
X163310D01*
Y228620D01*
D02*
G37*
G36*
X282086Y239115D02*
Y236856D01*
X284382D01*
Y235653D01*
X282086D01*
Y231353D01*
X282050Y230843D01*
X281959Y230406D01*
X281849Y230042D01*
X281703Y229732D01*
X281558Y229495D01*
X281448Y229331D01*
X281357Y229240D01*
X281321Y229204D01*
X281175Y229076D01*
X280993Y228967D01*
X280628Y228803D01*
X280246Y228675D01*
X279881Y228602D01*
X279535Y228548D01*
X279390Y228529D01*
X279262D01*
X279153Y228511D01*
X279007D01*
X278624Y228529D01*
X278442D01*
X278296Y228548D01*
X278151D01*
X278060Y228566D01*
X277968D01*
X277586Y228620D01*
X277422Y228639D01*
X277258Y228675D01*
X277130Y228693D01*
X277039Y228712D01*
X276966Y228730D01*
X276948D01*
Y229969D01*
X277312Y229878D01*
X277476Y229841D01*
X277622Y229823D01*
X277750Y229786D01*
X277841D01*
X277914Y229768D01*
X277932D01*
X278260Y229732D01*
X278424D01*
X278551Y229714D01*
X278806D01*
X279134Y229732D01*
X279408Y229786D01*
X279645Y229859D01*
X279845Y229932D01*
X279991Y230005D01*
X280100Y230078D01*
X280173Y230133D01*
X280191Y230151D01*
X280355Y230333D01*
X280465Y230534D01*
X280556Y230752D01*
X280610Y230971D01*
X280647Y231171D01*
X280665Y231317D01*
Y231426D01*
Y231445D01*
Y231463D01*
Y235653D01*
X276948D01*
Y236856D01*
X280665D01*
Y239498D01*
X282086Y239115D01*
D02*
G37*
G36*
X291324D02*
Y236856D01*
X293619D01*
Y235653D01*
X291324D01*
Y231353D01*
X291287Y230843D01*
X291196Y230406D01*
X291087Y230042D01*
X290941Y229732D01*
X290795Y229495D01*
X290686Y229331D01*
X290595Y229240D01*
X290558Y229204D01*
X290413Y229076D01*
X290230Y228967D01*
X289866Y228803D01*
X289483Y228675D01*
X289119Y228602D01*
X288773Y228548D01*
X288627Y228529D01*
X288499D01*
X288390Y228511D01*
X288244D01*
X287862Y228529D01*
X287680D01*
X287534Y228548D01*
X287388D01*
X287297Y228566D01*
X287206D01*
X286823Y228620D01*
X286659Y228639D01*
X286495Y228675D01*
X286368Y228693D01*
X286277Y228712D01*
X286204Y228730D01*
X286186D01*
Y229969D01*
X286550Y229878D01*
X286714Y229841D01*
X286860Y229823D01*
X286987Y229786D01*
X287078D01*
X287151Y229768D01*
X287170D01*
X287497Y229732D01*
X287661D01*
X287789Y229714D01*
X288044D01*
X288372Y229732D01*
X288645Y229786D01*
X288882Y229859D01*
X289083Y229932D01*
X289228Y230005D01*
X289338Y230078D01*
X289410Y230133D01*
X289429Y230151D01*
X289593Y230333D01*
X289702Y230534D01*
X289793Y230752D01*
X289848Y230971D01*
X289884Y231171D01*
X289902Y231317D01*
Y231426D01*
Y231445D01*
Y231463D01*
Y235653D01*
X286186D01*
Y236856D01*
X289902D01*
Y239498D01*
X291324Y239115D01*
D02*
G37*
G36*
X45899Y237029D02*
X46099Y237011D01*
X46354Y236974D01*
X46610Y236920D01*
X46883Y236847D01*
X47156Y236756D01*
X47193Y236738D01*
X47284Y236701D01*
X47411Y236647D01*
X47575Y236555D01*
X47758Y236446D01*
X47958Y236300D01*
X48158Y236136D01*
X48340Y235954D01*
X48359Y235936D01*
X48413Y235863D01*
X48504Y235754D01*
X48614Y235590D01*
X48741Y235407D01*
X48869Y235171D01*
X48978Y234916D01*
X49088Y234642D01*
X49106Y234606D01*
X49124Y234496D01*
X49179Y234332D01*
X49233Y234132D01*
X49270Y233859D01*
X49324Y233549D01*
X49343Y233203D01*
X49361Y232839D01*
Y232820D01*
Y232802D01*
Y232747D01*
Y232675D01*
X49343Y232492D01*
X49324Y232256D01*
X49288Y231982D01*
X49251Y231691D01*
X49179Y231381D01*
X49088Y231071D01*
X49069Y231035D01*
X49033Y230944D01*
X48978Y230798D01*
X48887Y230616D01*
X48778Y230397D01*
X48650Y230160D01*
X48486Y229923D01*
X48304Y229705D01*
X48286Y229686D01*
X48213Y229614D01*
X48104Y229504D01*
X47958Y229377D01*
X47776Y229249D01*
X47575Y229103D01*
X47320Y228958D01*
X47065Y228830D01*
X47029Y228812D01*
X46938Y228775D01*
X46792Y228739D01*
X46591Y228684D01*
X46336Y228611D01*
X46063Y228575D01*
X45753Y228539D01*
X45407Y228520D01*
X45261D01*
X45079Y228539D01*
X44879Y228557D01*
X44624Y228593D01*
X44350Y228630D01*
X44077Y228703D01*
X43804Y228794D01*
X43767Y228812D01*
X43694Y228848D01*
X43567Y228903D01*
X43403Y228994D01*
X43202Y229103D01*
X43020Y229249D01*
X42820Y229413D01*
X42619Y229595D01*
X42601Y229614D01*
X42546Y229686D01*
X42455Y229796D01*
X42346Y229960D01*
X42237Y230142D01*
X42109Y230379D01*
X42000Y230634D01*
X41891Y230907D01*
Y230925D01*
X41872Y230944D01*
X41854Y231053D01*
X41818Y231217D01*
X41763Y231436D01*
X41708Y231709D01*
X41672Y232019D01*
X41654Y232365D01*
X41636Y232729D01*
Y232747D01*
Y232766D01*
Y232820D01*
Y232893D01*
X41654Y233075D01*
X41672Y233294D01*
X41690Y233567D01*
X41745Y233859D01*
X41800Y234169D01*
X41891Y234460D01*
Y234478D01*
X41909Y234496D01*
X41945Y234588D01*
X42000Y234752D01*
X42091Y234934D01*
X42200Y235152D01*
X42346Y235371D01*
X42492Y235608D01*
X42674Y235827D01*
X42692Y235845D01*
X42765Y235918D01*
X42875Y236027D01*
X43020Y236155D01*
X43202Y236300D01*
X43421Y236446D01*
X43658Y236592D01*
X43913Y236719D01*
X43949Y236738D01*
X44041Y236774D01*
X44186Y236829D01*
X44387Y236883D01*
X44642Y236938D01*
X44915Y236993D01*
X45225Y237029D01*
X45571Y237047D01*
X45717D01*
X45899Y237029D01*
D02*
G37*
G36*
X73612D02*
X73812Y237011D01*
X74049Y236974D01*
X74304Y236938D01*
X74559Y236865D01*
X74814Y236774D01*
X74851Y236756D01*
X74923Y236719D01*
X75051Y236665D01*
X75215Y236574D01*
X75379Y236464D01*
X75579Y236337D01*
X75762Y236173D01*
X75944Y235991D01*
X75962Y235972D01*
X76017Y235899D01*
X76108Y235790D01*
X76199Y235663D01*
X76308Y235480D01*
X76436Y235280D01*
X76545Y235043D01*
X76636Y234788D01*
X76654Y234752D01*
X76673Y234661D01*
X76709Y234515D01*
X76764Y234332D01*
X76800Y234096D01*
X76837Y233841D01*
X76855Y233549D01*
X76873Y233221D01*
Y233203D01*
Y233167D01*
Y233112D01*
Y233039D01*
Y232875D01*
X76855Y232693D01*
Y232656D01*
Y232565D01*
Y232456D01*
X76837Y232328D01*
X71061D01*
Y232310D01*
Y232274D01*
Y232201D01*
X71079Y232128D01*
Y232019D01*
X71097Y231891D01*
X71152Y231599D01*
X71225Y231290D01*
X71352Y230962D01*
X71516Y230652D01*
X71753Y230379D01*
X71790Y230342D01*
X71881Y230270D01*
X72045Y230160D01*
X72282Y230051D01*
X72573Y229923D01*
X72919Y229814D01*
X73320Y229741D01*
X73794Y229705D01*
X74249D01*
X74504Y229723D01*
X74559D01*
X74632Y229741D01*
X74723D01*
X74960Y229778D01*
X75197Y229796D01*
X75215D01*
X75251Y229814D01*
X75324D01*
X75415Y229832D01*
X75616Y229869D01*
X75853Y229905D01*
X75871D01*
X75907Y229923D01*
X75962Y229942D01*
X76035Y229960D01*
X76235Y229996D01*
X76436Y230051D01*
Y228885D01*
X76417D01*
X76326Y228867D01*
X76217Y228830D01*
X76053Y228794D01*
X75853Y228757D01*
X75634Y228703D01*
X75379Y228666D01*
X75106Y228630D01*
X75069D01*
X74978Y228611D01*
X74832Y228593D01*
X74650Y228575D01*
X74413Y228557D01*
X74158Y228539D01*
X73885Y228520D01*
X73411D01*
X73211Y228539D01*
X72974Y228557D01*
X72682Y228593D01*
X72373Y228630D01*
X72063Y228703D01*
X71771Y228794D01*
X71735Y228812D01*
X71644Y228848D01*
X71498Y228921D01*
X71334Y229012D01*
X71134Y229122D01*
X70915Y229267D01*
X70715Y229431D01*
X70514Y229632D01*
X70496Y229650D01*
X70441Y229723D01*
X70350Y229850D01*
X70241Y229996D01*
X70113Y230197D01*
X70004Y230415D01*
X69876Y230689D01*
X69785Y230962D01*
Y230980D01*
Y230998D01*
X69749Y231108D01*
X69713Y231272D01*
X69676Y231490D01*
X69640Y231764D01*
X69603Y232055D01*
X69585Y232401D01*
X69567Y232766D01*
Y232784D01*
Y232802D01*
Y232911D01*
X69585Y233075D01*
X69603Y233294D01*
X69621Y233531D01*
X69676Y233804D01*
X69731Y234096D01*
X69804Y234387D01*
Y234405D01*
X69822Y234424D01*
X69858Y234515D01*
X69913Y234661D01*
X69986Y234861D01*
X70095Y235061D01*
X70223Y235298D01*
X70368Y235535D01*
X70532Y235754D01*
X70551Y235772D01*
X70624Y235845D01*
X70733Y235954D01*
X70860Y236100D01*
X71043Y236246D01*
X71243Y236410D01*
X71462Y236555D01*
X71717Y236701D01*
X71753Y236719D01*
X71844Y236756D01*
X71990Y236810D01*
X72172Y236883D01*
X72409Y236938D01*
X72682Y236993D01*
X72974Y237029D01*
X73302Y237047D01*
X73448D01*
X73612Y237029D01*
D02*
G37*
G36*
X8949D02*
X9149Y237011D01*
X9404Y236974D01*
X9659Y236920D01*
X9933Y236847D01*
X10206Y236756D01*
X10243Y236738D01*
X10334Y236701D01*
X10461Y236647D01*
X10625Y236555D01*
X10807Y236446D01*
X11008Y236300D01*
X11208Y236136D01*
X11390Y235954D01*
X11408Y235936D01*
X11463Y235863D01*
X11554Y235754D01*
X11664Y235590D01*
X11791Y235407D01*
X11919Y235171D01*
X12028Y234916D01*
X12137Y234642D01*
X12156Y234606D01*
X12174Y234496D01*
X12228Y234332D01*
X12283Y234132D01*
X12319Y233859D01*
X12374Y233549D01*
X12392Y233203D01*
X12411Y232839D01*
Y232820D01*
Y232802D01*
Y232747D01*
Y232675D01*
X12392Y232492D01*
X12374Y232256D01*
X12338Y231982D01*
X12301Y231691D01*
X12228Y231381D01*
X12137Y231071D01*
X12119Y231035D01*
X12083Y230944D01*
X12028Y230798D01*
X11937Y230616D01*
X11828Y230397D01*
X11700Y230160D01*
X11536Y229923D01*
X11354Y229705D01*
X11336Y229686D01*
X11263Y229614D01*
X11153Y229504D01*
X11008Y229377D01*
X10825Y229249D01*
X10625Y229103D01*
X10370Y228958D01*
X10115Y228830D01*
X10079Y228812D01*
X9987Y228775D01*
X9842Y228739D01*
X9641Y228684D01*
X9386Y228611D01*
X9113Y228575D01*
X8803Y228539D01*
X8457Y228520D01*
X8311D01*
X8129Y228539D01*
X7929Y228557D01*
X7673Y228593D01*
X7400Y228630D01*
X7127Y228703D01*
X6854Y228794D01*
X6817Y228812D01*
X6744Y228848D01*
X6617Y228903D01*
X6453Y228994D01*
X6252Y229103D01*
X6070Y229249D01*
X5870Y229413D01*
X5669Y229595D01*
X5651Y229614D01*
X5596Y229686D01*
X5505Y229796D01*
X5396Y229960D01*
X5287Y230142D01*
X5159Y230379D01*
X5050Y230634D01*
X4940Y230907D01*
Y230925D01*
X4922Y230944D01*
X4904Y231053D01*
X4868Y231217D01*
X4813Y231436D01*
X4758Y231709D01*
X4722Y232019D01*
X4704Y232365D01*
X4685Y232729D01*
Y232747D01*
Y232766D01*
Y232820D01*
Y232893D01*
X4704Y233075D01*
X4722Y233294D01*
X4740Y233567D01*
X4795Y233859D01*
X4849Y234169D01*
X4940Y234460D01*
Y234478D01*
X4959Y234496D01*
X4995Y234588D01*
X5050Y234752D01*
X5141Y234934D01*
X5250Y235152D01*
X5396Y235371D01*
X5542Y235608D01*
X5724Y235827D01*
X5742Y235845D01*
X5815Y235918D01*
X5924Y236027D01*
X6070Y236155D01*
X6252Y236300D01*
X6471Y236446D01*
X6708Y236592D01*
X6963Y236719D01*
X6999Y236738D01*
X7090Y236774D01*
X7236Y236829D01*
X7437Y236883D01*
X7692Y236938D01*
X7965Y236993D01*
X8275Y237029D01*
X8621Y237047D01*
X8767D01*
X8949Y237029D01*
D02*
G37*
G36*
X262827Y236983D02*
X262991Y236947D01*
X263119Y236911D01*
X263137Y236892D01*
X263156D01*
X263319Y236801D01*
X263465Y236710D01*
X263575Y236637D01*
X263593Y236619D01*
X263611Y236601D01*
X263775Y236437D01*
X263902Y236255D01*
X263957Y236182D01*
X263994Y236127D01*
X264012Y236091D01*
X264030Y236072D01*
X264176Y235817D01*
X264322Y235562D01*
X264376Y235453D01*
X264413Y235362D01*
X264431Y235307D01*
X264449Y235289D01*
X264522Y236856D01*
X265688D01*
Y228620D01*
X264267D01*
Y233904D01*
X264176Y234105D01*
X264085Y234305D01*
X264012Y234469D01*
X263957Y234597D01*
X263902Y234706D01*
X263866Y234779D01*
X263830Y234834D01*
Y234852D01*
X263702Y235088D01*
X263593Y235271D01*
X263520Y235380D01*
X263502Y235417D01*
X263392Y235562D01*
X263301Y235653D01*
X263247Y235708D01*
X263228Y235726D01*
X263137Y235781D01*
X263046Y235799D01*
X262973Y235817D01*
X262955D01*
X262864Y235799D01*
X262791Y235781D01*
X262755Y235763D01*
X262736Y235745D01*
X262682Y235690D01*
X262627Y235617D01*
X262609Y235544D01*
X262591Y235526D01*
X262536Y235398D01*
X262518Y235252D01*
X262500Y235143D01*
Y235107D01*
Y235088D01*
X262481Y234870D01*
X262463Y234633D01*
Y234524D01*
Y234451D01*
Y234396D01*
Y234378D01*
Y228620D01*
X261042D01*
Y233904D01*
X260951Y234086D01*
X260878Y234269D01*
X260805Y234414D01*
X260751Y234542D01*
X260696Y234651D01*
X260659Y234724D01*
X260623Y234779D01*
Y234797D01*
X260495Y235034D01*
X260386Y235234D01*
X260350Y235289D01*
X260313Y235344D01*
X260295Y235362D01*
Y235380D01*
X260186Y235526D01*
X260094Y235635D01*
X260040Y235690D01*
X260022Y235708D01*
X259912Y235781D01*
X259821Y235799D01*
X259748Y235817D01*
X259730D01*
X259639Y235799D01*
X259566Y235781D01*
X259530Y235763D01*
X259511Y235745D01*
X259457Y235690D01*
X259402Y235617D01*
X259384Y235562D01*
X259366Y235544D01*
X259311Y235417D01*
X259293Y235289D01*
X259275Y235180D01*
Y235161D01*
Y235143D01*
X259256Y234943D01*
X259238Y234742D01*
Y234651D01*
Y234597D01*
Y234542D01*
Y234524D01*
Y228620D01*
X257817D01*
Y234615D01*
X257835Y235034D01*
X257890Y235398D01*
X257963Y235726D01*
X258054Y235999D01*
X258181Y236218D01*
X258309Y236419D01*
X258455Y236583D01*
X258600Y236710D01*
X258746Y236801D01*
X258892Y236874D01*
X259019Y236929D01*
X259147Y236965D01*
X259238Y236983D01*
X259311Y237002D01*
X259384D01*
X259621Y236983D01*
X259821Y236947D01*
X259894Y236911D01*
X259949Y236892D01*
X259985Y236874D01*
X260003D01*
X260186Y236765D01*
X260331Y236655D01*
X260441Y236564D01*
X260459Y236546D01*
X260477Y236528D01*
X260623Y236346D01*
X260751Y236163D01*
X260805Y236091D01*
X260842Y236018D01*
X260878Y235981D01*
Y235963D01*
X261005Y235708D01*
X261133Y235471D01*
X261188Y235362D01*
X261224Y235289D01*
X261242Y235234D01*
X261261Y235216D01*
X261279Y235544D01*
X261315Y235817D01*
X261370Y236036D01*
X261425Y236236D01*
X261497Y236382D01*
X261552Y236491D01*
X261589Y236546D01*
X261607Y236564D01*
X261753Y236710D01*
X261916Y236819D01*
X262081Y236892D01*
X262245Y236947D01*
X262390Y236983D01*
X262518Y237002D01*
X262627D01*
X262827Y236983D01*
D02*
G37*
G36*
X-18764Y237029D02*
X-18563Y237011D01*
X-18308Y236974D01*
X-18053Y236920D01*
X-17780Y236847D01*
X-17507Y236756D01*
X-17470Y236738D01*
X-17379Y236701D01*
X-17252Y236647D01*
X-17087Y236555D01*
X-16905Y236446D01*
X-16705Y236300D01*
X-16504Y236136D01*
X-16322Y235954D01*
X-16304Y235936D01*
X-16249Y235863D01*
X-16158Y235754D01*
X-16049Y235590D01*
X-15921Y235407D01*
X-15794Y235171D01*
X-15685Y234916D01*
X-15575Y234642D01*
X-15557Y234606D01*
X-15539Y234496D01*
X-15484Y234332D01*
X-15429Y234132D01*
X-15393Y233859D01*
X-15338Y233549D01*
X-15320Y233203D01*
X-15302Y232839D01*
Y232820D01*
Y232802D01*
Y232747D01*
Y232675D01*
X-15320Y232492D01*
X-15338Y232256D01*
X-15375Y231982D01*
X-15411Y231691D01*
X-15484Y231381D01*
X-15575Y231071D01*
X-15594Y231035D01*
X-15630Y230944D01*
X-15685Y230798D01*
X-15776Y230616D01*
X-15885Y230397D01*
X-16013Y230160D01*
X-16176Y229923D01*
X-16359Y229705D01*
X-16377Y229686D01*
X-16450Y229614D01*
X-16559Y229504D01*
X-16705Y229377D01*
X-16887Y229249D01*
X-17087Y229103D01*
X-17343Y228958D01*
X-17598Y228830D01*
X-17634Y228812D01*
X-17725Y228775D01*
X-17871Y228739D01*
X-18071Y228684D01*
X-18327Y228611D01*
X-18600Y228575D01*
X-18910Y228539D01*
X-19256Y228520D01*
X-19401D01*
X-19584Y228539D01*
X-19784Y228557D01*
X-20039Y228593D01*
X-20312Y228630D01*
X-20586Y228703D01*
X-20859Y228794D01*
X-20896Y228812D01*
X-20968Y228848D01*
X-21096Y228903D01*
X-21260Y228994D01*
X-21460Y229103D01*
X-21643Y229249D01*
X-21843Y229413D01*
X-22043Y229595D01*
X-22062Y229614D01*
X-22116Y229686D01*
X-22207Y229796D01*
X-22317Y229960D01*
X-22426Y230142D01*
X-22554Y230379D01*
X-22663Y230634D01*
X-22772Y230907D01*
Y230925D01*
X-22790Y230944D01*
X-22809Y231053D01*
X-22845Y231217D01*
X-22900Y231436D01*
X-22954Y231709D01*
X-22991Y232019D01*
X-23009Y232365D01*
X-23027Y232729D01*
Y232747D01*
Y232766D01*
Y232820D01*
Y232893D01*
X-23009Y233075D01*
X-22991Y233294D01*
X-22973Y233567D01*
X-22918Y233859D01*
X-22863Y234169D01*
X-22772Y234460D01*
Y234478D01*
X-22754Y234496D01*
X-22717Y234588D01*
X-22663Y234752D01*
X-22572Y234934D01*
X-22462Y235152D01*
X-22317Y235371D01*
X-22171Y235608D01*
X-21989Y235827D01*
X-21971Y235845D01*
X-21898Y235918D01*
X-21788Y236027D01*
X-21643Y236155D01*
X-21460Y236300D01*
X-21242Y236446D01*
X-21005Y236592D01*
X-20750Y236719D01*
X-20713Y236738D01*
X-20622Y236774D01*
X-20476Y236829D01*
X-20276Y236883D01*
X-20021Y236938D01*
X-19748Y236993D01*
X-19438Y237029D01*
X-19092Y237047D01*
X-18946D01*
X-18764Y237029D01*
D02*
G37*
G36*
X243296Y239480D02*
X243642Y239461D01*
X243952Y239425D01*
X244225Y239370D01*
X244444Y239316D01*
X244589Y239279D01*
X244699Y239261D01*
X244735Y239243D01*
X245008Y239133D01*
X245245Y239024D01*
X245464Y238915D01*
X245628Y238805D01*
X245774Y238714D01*
X245883Y238641D01*
X245956Y238587D01*
X245974Y238569D01*
X246138Y238405D01*
X246284Y238241D01*
X246411Y238077D01*
X246502Y237931D01*
X246575Y237803D01*
X246648Y237712D01*
X246666Y237639D01*
X246685Y237621D01*
X246758Y237421D01*
X246812Y237220D01*
X246849Y237038D01*
X246867Y236874D01*
X246885Y236728D01*
X246903Y236619D01*
Y236546D01*
Y236528D01*
X246885Y236309D01*
X246867Y236091D01*
X246830Y235908D01*
X246776Y235745D01*
X246739Y235617D01*
X246703Y235526D01*
X246685Y235453D01*
X246666Y235435D01*
X246466Y235125D01*
X246357Y234979D01*
X246266Y234870D01*
X246174Y234761D01*
X246102Y234688D01*
X246065Y234651D01*
X246047Y234633D01*
X245737Y234396D01*
X245573Y234305D01*
X245446Y234214D01*
X245318Y234141D01*
X245227Y234105D01*
X245154Y234068D01*
X245136Y234050D01*
X244753Y233868D01*
X244589Y233795D01*
X244425Y233722D01*
X244298Y233667D01*
X244207Y233613D01*
X244134Y233594D01*
X244116Y233576D01*
X243733Y233431D01*
X243551Y233358D01*
X243405Y233303D01*
X243259Y233248D01*
X243168Y233212D01*
X243095Y233194D01*
X243077Y233175D01*
X242713Y233012D01*
X242567Y232939D01*
X242439Y232866D01*
X242330Y232811D01*
X242257Y232756D01*
X242202Y232738D01*
X242184Y232720D01*
X241911Y232538D01*
X241802Y232447D01*
X241711Y232355D01*
X241638Y232283D01*
X241583Y232228D01*
X241565Y232192D01*
X241547Y232173D01*
X241456Y232046D01*
X241401Y231937D01*
X241328Y231700D01*
X241310Y231590D01*
X241291Y231517D01*
Y231463D01*
Y231445D01*
X241310Y231171D01*
X241328Y231044D01*
X241364Y230934D01*
X241383Y230843D01*
X241419Y230770D01*
X241437Y230734D01*
Y230716D01*
X241565Y230497D01*
X241729Y230333D01*
X241802Y230278D01*
X241856Y230224D01*
X241893Y230206D01*
X241911Y230187D01*
X242166Y230060D01*
X242421Y229950D01*
X242549Y229932D01*
X242621Y229896D01*
X242694Y229878D01*
X242713D01*
X242913Y229841D01*
X243113Y229823D01*
X243314Y229786D01*
X243496D01*
X243660Y229768D01*
X244280D01*
X244607Y229786D01*
X244899Y229805D01*
X245154Y229841D01*
X245373Y229859D01*
X245537Y229878D01*
X245628Y229896D01*
X245664D01*
X245938Y229950D01*
X246193Y230005D01*
X246429Y230060D01*
X246630Y230133D01*
X246794Y230187D01*
X246921Y230224D01*
X246994Y230242D01*
X247031Y230260D01*
Y228857D01*
X246812Y228803D01*
X246612Y228748D01*
X246539Y228730D01*
X246466Y228712D01*
X246429Y228693D01*
X246411D01*
X246156Y228657D01*
X245919Y228620D01*
X245828D01*
X245755Y228602D01*
X245683D01*
X245391Y228566D01*
X245136Y228529D01*
X245027D01*
X244954Y228511D01*
X244881D01*
X244553Y228493D01*
X244425D01*
X244280Y228475D01*
X243678D01*
X243350Y228511D01*
X243059Y228529D01*
X242804Y228566D01*
X242585Y228602D01*
X242421Y228620D01*
X242330Y228657D01*
X242294D01*
X242002Y228730D01*
X241747Y228821D01*
X241528Y228912D01*
X241328Y229003D01*
X241182Y229094D01*
X241055Y229167D01*
X240982Y229204D01*
X240964Y229222D01*
X240763Y229367D01*
X240581Y229531D01*
X240435Y229695D01*
X240308Y229841D01*
X240216Y229969D01*
X240144Y230078D01*
X240107Y230151D01*
X240089Y230169D01*
X239980Y230388D01*
X239907Y230625D01*
X239834Y230861D01*
X239797Y231062D01*
X239779Y231244D01*
X239761Y231390D01*
Y231481D01*
Y231517D01*
X239779Y231754D01*
X239797Y231955D01*
X239834Y232155D01*
X239889Y232319D01*
X239943Y232447D01*
X239980Y232538D01*
X239998Y232611D01*
X240016Y232629D01*
X240216Y232957D01*
X240326Y233103D01*
X240417Y233212D01*
X240508Y233321D01*
X240581Y233394D01*
X240636Y233431D01*
X240654Y233449D01*
X240945Y233686D01*
X241237Y233886D01*
X241364Y233959D01*
X241456Y234014D01*
X241528Y234032D01*
X241547Y234050D01*
X241929Y234232D01*
X242093Y234305D01*
X242257Y234378D01*
X242385Y234433D01*
X242494Y234469D01*
X242567Y234506D01*
X242585D01*
X242968Y234669D01*
X243132Y234742D01*
X243278Y234797D01*
X243423Y234852D01*
X243514Y234888D01*
X243587Y234925D01*
X243605D01*
X243970Y235070D01*
X244116Y235143D01*
X244243Y235216D01*
X244371Y235271D01*
X244444Y235325D01*
X244498Y235344D01*
X244516Y235362D01*
X244772Y235562D01*
X244972Y235745D01*
X245045Y235817D01*
X245099Y235872D01*
X245118Y235908D01*
X245136Y235927D01*
X245209Y236054D01*
X245264Y236182D01*
X245336Y236419D01*
X245355Y236528D01*
X245373Y236601D01*
Y236655D01*
Y236674D01*
X245355Y236929D01*
X245282Y237147D01*
X245191Y237348D01*
X245081Y237512D01*
X244972Y237639D01*
X244881Y237730D01*
X244808Y237785D01*
X244790Y237803D01*
X244535Y237949D01*
X244261Y238058D01*
X243952Y238131D01*
X243642Y238186D01*
X243369Y238222D01*
X243150Y238241D01*
X242950D01*
X242512Y238222D01*
X242294Y238204D01*
X242111Y238186D01*
X241947Y238168D01*
X241838Y238149D01*
X241747Y238131D01*
X241729D01*
X241255Y238058D01*
X241036Y238004D01*
X240854Y237967D01*
X240690Y237931D01*
X240563Y237913D01*
X240490Y237876D01*
X240453D01*
Y239188D01*
X240654Y239225D01*
X240854Y239261D01*
X240927Y239279D01*
X241000Y239297D01*
X241055D01*
X241291Y239334D01*
X241492Y239370D01*
X241565D01*
X241638Y239388D01*
X241692D01*
X241929Y239425D01*
X242130Y239443D01*
X242221Y239461D01*
X242330D01*
X242549Y239480D01*
X242731Y239498D01*
X242913D01*
X243296Y239480D01*
D02*
G37*
G36*
X271318Y236983D02*
X271628Y236947D01*
X271901Y236892D01*
X272156Y236838D01*
X272357Y236783D01*
X272502Y236728D01*
X272593Y236692D01*
X272630Y236674D01*
X272885Y236546D01*
X273122Y236400D01*
X273341Y236255D01*
X273523Y236109D01*
X273668Y235981D01*
X273778Y235872D01*
X273851Y235799D01*
X273869Y235781D01*
X274051Y235562D01*
X274197Y235325D01*
X274343Y235107D01*
X274452Y234888D01*
X274543Y234706D01*
X274598Y234542D01*
X274634Y234451D01*
X274652Y234433D01*
Y234414D01*
X274743Y234123D01*
X274798Y233813D01*
X274853Y233522D01*
X274871Y233248D01*
X274889Y233030D01*
X274907Y232847D01*
Y232775D01*
Y232720D01*
Y232702D01*
Y232683D01*
X274889Y232319D01*
X274871Y231973D01*
X274834Y231663D01*
X274780Y231390D01*
X274725Y231171D01*
X274689Y231007D01*
X274671Y230898D01*
X274652Y230880D01*
Y230861D01*
X274543Y230588D01*
X274434Y230333D01*
X274306Y230096D01*
X274197Y229914D01*
X274088Y229750D01*
X273996Y229641D01*
X273942Y229568D01*
X273923Y229550D01*
X273723Y229367D01*
X273523Y229204D01*
X273341Y229058D01*
X273140Y228948D01*
X272976Y228857D01*
X272849Y228803D01*
X272776Y228766D01*
X272739Y228748D01*
X272466Y228657D01*
X272193Y228584D01*
X271919Y228548D01*
X271664Y228511D01*
X271464Y228493D01*
X271282Y228475D01*
X271136D01*
X270790Y228493D01*
X270480Y228529D01*
X270207Y228566D01*
X269952Y228639D01*
X269751Y228693D01*
X269605Y228730D01*
X269514Y228766D01*
X269478Y228784D01*
X269223Y228912D01*
X268968Y229058D01*
X268767Y229204D01*
X268585Y229331D01*
X268439Y229459D01*
X268330Y229568D01*
X268257Y229641D01*
X268239Y229659D01*
X268057Y229878D01*
X267893Y230115D01*
X267765Y230351D01*
X267656Y230570D01*
X267565Y230752D01*
X267510Y230898D01*
X267474Y230989D01*
X267455Y231026D01*
X267364Y231335D01*
X267291Y231645D01*
X267255Y231937D01*
X267219Y232210D01*
X267200Y232447D01*
X267182Y232629D01*
Y232702D01*
Y232756D01*
Y232775D01*
Y232793D01*
X267200Y233157D01*
X267219Y233503D01*
X267273Y233813D01*
X267310Y234086D01*
X267364Y234287D01*
X267419Y234451D01*
X267437Y234560D01*
X267455Y234597D01*
X267565Y234870D01*
X267674Y235125D01*
X267802Y235362D01*
X267929Y235544D01*
X268039Y235708D01*
X268130Y235817D01*
X268184Y235890D01*
X268202Y235908D01*
X268385Y236091D01*
X268585Y236255D01*
X268786Y236400D01*
X268968Y236510D01*
X269132Y236601D01*
X269259Y236655D01*
X269350Y236692D01*
X269387Y236710D01*
X269660Y236801D01*
X269933Y236874D01*
X270188Y236929D01*
X270444Y236965D01*
X270644Y236983D01*
X270826Y237002D01*
X270972D01*
X271318Y236983D01*
D02*
G37*
G36*
X234368D02*
X234678Y236947D01*
X234951Y236892D01*
X235206Y236838D01*
X235406Y236783D01*
X235552Y236728D01*
X235643Y236692D01*
X235680Y236674D01*
X235935Y236546D01*
X236172Y236400D01*
X236390Y236255D01*
X236573Y236109D01*
X236718Y235981D01*
X236828Y235872D01*
X236900Y235799D01*
X236919Y235781D01*
X237101Y235562D01*
X237247Y235325D01*
X237392Y235107D01*
X237502Y234888D01*
X237593Y234706D01*
X237648Y234542D01*
X237684Y234451D01*
X237702Y234433D01*
Y234414D01*
X237793Y234123D01*
X237848Y233813D01*
X237903Y233522D01*
X237921Y233248D01*
X237939Y233030D01*
X237957Y232847D01*
Y232775D01*
Y232720D01*
Y232702D01*
Y232683D01*
X237939Y232319D01*
X237921Y231973D01*
X237884Y231663D01*
X237830Y231390D01*
X237775Y231171D01*
X237739Y231007D01*
X237720Y230898D01*
X237702Y230880D01*
Y230861D01*
X237593Y230588D01*
X237484Y230333D01*
X237356Y230096D01*
X237247Y229914D01*
X237137Y229750D01*
X237046Y229641D01*
X236992Y229568D01*
X236973Y229550D01*
X236773Y229367D01*
X236573Y229204D01*
X236390Y229058D01*
X236190Y228948D01*
X236026Y228857D01*
X235898Y228803D01*
X235825Y228766D01*
X235789Y228748D01*
X235516Y228657D01*
X235243Y228584D01*
X234969Y228548D01*
X234714Y228511D01*
X234514Y228493D01*
X234331Y228475D01*
X234186D01*
X233840Y228493D01*
X233530Y228529D01*
X233257Y228566D01*
X233001Y228639D01*
X232801Y228693D01*
X232655Y228730D01*
X232564Y228766D01*
X232528Y228784D01*
X232273Y228912D01*
X232017Y229058D01*
X231817Y229204D01*
X231635Y229331D01*
X231489Y229459D01*
X231380Y229568D01*
X231307Y229641D01*
X231289Y229659D01*
X231106Y229878D01*
X230943Y230115D01*
X230815Y230351D01*
X230706Y230570D01*
X230615Y230752D01*
X230560Y230898D01*
X230523Y230989D01*
X230505Y231026D01*
X230414Y231335D01*
X230341Y231645D01*
X230305Y231937D01*
X230268Y232210D01*
X230250Y232447D01*
X230232Y232629D01*
Y232702D01*
Y232756D01*
Y232775D01*
Y232793D01*
X230250Y233157D01*
X230268Y233503D01*
X230323Y233813D01*
X230360Y234086D01*
X230414Y234287D01*
X230469Y234451D01*
X230487Y234560D01*
X230505Y234597D01*
X230615Y234870D01*
X230724Y235125D01*
X230851Y235362D01*
X230979Y235544D01*
X231088Y235708D01*
X231179Y235817D01*
X231234Y235890D01*
X231252Y235908D01*
X231434Y236091D01*
X231635Y236255D01*
X231835Y236400D01*
X232017Y236510D01*
X232182Y236601D01*
X232309Y236655D01*
X232400Y236692D01*
X232437Y236710D01*
X232710Y236801D01*
X232983Y236874D01*
X233238Y236929D01*
X233493Y236965D01*
X233694Y236983D01*
X233876Y237002D01*
X234022D01*
X234368Y236983D01*
D02*
G37*
G36*
X169414D02*
X169742Y236965D01*
X170015Y236929D01*
X170252Y236892D01*
X170452Y236838D01*
X170580Y236801D01*
X170671Y236783D01*
X170707Y236765D01*
X170944Y236674D01*
X171144Y236564D01*
X171327Y236473D01*
X171473Y236382D01*
X171582Y236291D01*
X171673Y236218D01*
X171728Y236182D01*
X171746Y236163D01*
X171873Y236036D01*
X172001Y235890D01*
X172092Y235763D01*
X172165Y235653D01*
X172220Y235544D01*
X172256Y235471D01*
X172292Y235417D01*
Y235398D01*
X172383Y235107D01*
X172402Y234979D01*
X172420Y234870D01*
X172438Y234779D01*
Y234706D01*
Y234669D01*
Y234651D01*
Y234469D01*
X172402Y234287D01*
X172383Y234123D01*
X172347Y233995D01*
X172311Y233886D01*
X172292Y233813D01*
X172256Y233758D01*
Y233740D01*
X172092Y233467D01*
X171910Y233266D01*
X171837Y233175D01*
X171764Y233121D01*
X171728Y233084D01*
X171709Y233066D01*
X171436Y232866D01*
X171163Y232720D01*
X171053Y232665D01*
X170962Y232611D01*
X170908Y232592D01*
X170889Y232574D01*
X170525Y232428D01*
X170361Y232374D01*
X170197Y232319D01*
X170070Y232264D01*
X169960Y232246D01*
X169887Y232210D01*
X169869D01*
X169596Y232137D01*
X169377Y232064D01*
X169177Y231991D01*
X169013Y231937D01*
X168867Y231882D01*
X168776Y231845D01*
X168721Y231809D01*
X168703D01*
X168557Y231754D01*
X168412Y231681D01*
X168302Y231627D01*
X168211Y231590D01*
X168156Y231536D01*
X168102Y231517D01*
X168065Y231481D01*
X167920Y231353D01*
X167828Y231244D01*
X167792Y231171D01*
X167774Y231135D01*
X167719Y231007D01*
X167701Y230880D01*
X167683Y230789D01*
Y230770D01*
Y230752D01*
X167701Y230570D01*
X167756Y230406D01*
X167847Y230260D01*
X167938Y230151D01*
X168029Y230060D01*
X168120Y230005D01*
X168175Y229969D01*
X168193Y229950D01*
X168393Y229859D01*
X168630Y229786D01*
X168885Y229750D01*
X169140Y229714D01*
X169359Y229695D01*
X169541Y229677D01*
X169705D01*
X170234Y229695D01*
X170470Y229714D01*
X170689Y229732D01*
X170871D01*
X170999Y229750D01*
X171090Y229768D01*
X171126D01*
X171655Y229859D01*
X171891Y229914D01*
X172110Y229969D01*
X172292Y230023D01*
X172420Y230060D01*
X172511Y230096D01*
X172547D01*
Y228784D01*
X172055Y228675D01*
X171837Y228639D01*
X171618Y228602D01*
X171454Y228584D01*
X171309Y228566D01*
X171236Y228548D01*
X171199D01*
X170652Y228511D01*
X170397Y228493D01*
X170161D01*
X169960Y228475D01*
X169650D01*
X169359Y228493D01*
X169122Y228511D01*
X169013Y228529D01*
X168940D01*
X168885Y228548D01*
X168867D01*
X168576Y228602D01*
X168430Y228620D01*
X168320Y228657D01*
X168229Y228675D01*
X168138Y228693D01*
X168102Y228712D01*
X168084D01*
X167810Y228803D01*
X167592Y228894D01*
X167500Y228948D01*
X167428Y228967D01*
X167391Y229003D01*
X167373D01*
X167136Y229167D01*
X166936Y229313D01*
X166863Y229367D01*
X166808Y229422D01*
X166790Y229440D01*
X166772Y229459D01*
X166608Y229677D01*
X166480Y229878D01*
X166426Y229950D01*
X166389Y230023D01*
X166371Y230060D01*
Y230078D01*
X166280Y230351D01*
X166225Y230606D01*
X166207Y230697D01*
Y230789D01*
Y230843D01*
Y230861D01*
X166225Y231189D01*
X166243Y231317D01*
X166280Y231445D01*
X166298Y231536D01*
X166334Y231627D01*
X166353Y231663D01*
Y231681D01*
X166407Y231809D01*
X166480Y231937D01*
X166626Y232137D01*
X166699Y232210D01*
X166753Y232264D01*
X166790Y232301D01*
X166808Y232319D01*
X167063Y232520D01*
X167318Y232702D01*
X167446Y232756D01*
X167519Y232811D01*
X167592Y232829D01*
X167610Y232847D01*
X167810Y232939D01*
X168011Y233012D01*
X168211Y233103D01*
X168412Y233157D01*
X168594Y233230D01*
X168721Y233266D01*
X168812Y233285D01*
X168849Y233303D01*
X169086Y233376D01*
X169286Y233431D01*
X169468Y233485D01*
X169632Y233540D01*
X169760Y233594D01*
X169851Y233613D01*
X169905Y233649D01*
X169924D01*
X170070Y233722D01*
X170197Y233777D01*
X170306Y233831D01*
X170416Y233886D01*
X170489Y233941D01*
X170543Y233959D01*
X170561Y233995D01*
X170580D01*
X170725Y234123D01*
X170835Y234232D01*
X170889Y234305D01*
X170908Y234342D01*
X170944Y234487D01*
X170962Y234615D01*
X170981Y234706D01*
Y234724D01*
Y234742D01*
X170962Y234906D01*
X170926Y235034D01*
X170908Y235125D01*
X170889Y235161D01*
X170798Y235289D01*
X170707Y235398D01*
X170616Y235471D01*
X170580Y235489D01*
X170379Y235580D01*
X170197Y235672D01*
X170106Y235690D01*
X170033Y235708D01*
X169997Y235726D01*
X169978D01*
X169687Y235781D01*
X169395Y235799D01*
X169268Y235817D01*
X169086D01*
X168721Y235799D01*
X168557Y235781D01*
X168393D01*
X168247Y235763D01*
X168138Y235745D01*
X168047Y235726D01*
X168029D01*
X167573Y235653D01*
X167355Y235617D01*
X167173Y235580D01*
X166990Y235544D01*
X166863Y235526D01*
X166790Y235489D01*
X166753D01*
Y236765D01*
X166990Y236801D01*
X167227Y236856D01*
X167428Y236874D01*
X167610Y236911D01*
X167774Y236929D01*
X167883D01*
X167974Y236947D01*
X167992D01*
X168412Y236983D01*
X168594D01*
X168739Y237002D01*
X169067D01*
X169414Y236983D01*
D02*
G37*
G36*
X213779Y236728D02*
X214053Y236801D01*
X214308Y236856D01*
X214399Y236874D01*
X214472D01*
X214526Y236892D01*
X214545D01*
X214818Y236929D01*
X215073Y236947D01*
X215310D01*
X215638Y236929D01*
X215948Y236911D01*
X216239Y236856D01*
X216476Y236801D01*
X216676Y236747D01*
X216840Y236710D01*
X216931Y236674D01*
X216968Y236655D01*
X217241Y236528D01*
X217478Y236400D01*
X217697Y236255D01*
X217879Y236127D01*
X218043Y235999D01*
X218152Y235890D01*
X218225Y235817D01*
X218243Y235799D01*
X218425Y235580D01*
X218589Y235344D01*
X218735Y235107D01*
X218845Y234888D01*
X218936Y234706D01*
X219008Y234560D01*
X219045Y234451D01*
X219063Y234433D01*
Y234414D01*
X219154Y234105D01*
X219227Y233777D01*
X219264Y233467D01*
X219300Y233175D01*
X219318Y232920D01*
X219336Y232738D01*
Y232665D01*
Y232611D01*
Y232574D01*
Y232556D01*
Y232228D01*
X219318Y231918D01*
X219282Y231627D01*
X219245Y231372D01*
X219227Y231171D01*
X219191Y231007D01*
X219172Y230916D01*
Y230880D01*
X219099Y230606D01*
X219008Y230370D01*
X218917Y230151D01*
X218826Y229950D01*
X218753Y229805D01*
X218681Y229677D01*
X218644Y229604D01*
X218626Y229586D01*
X218480Y229404D01*
X218334Y229240D01*
X218189Y229094D01*
X218043Y228985D01*
X217915Y228894D01*
X217824Y228821D01*
X217751Y228784D01*
X217733Y228766D01*
X217514Y228675D01*
X217314Y228602D01*
X217095Y228548D01*
X216913Y228511D01*
X216749Y228493D01*
X216603Y228475D01*
X216494D01*
X216184Y228493D01*
X215911Y228529D01*
X215656Y228602D01*
X215437Y228675D01*
X215237Y228748D01*
X215109Y228821D01*
X215018Y228857D01*
X214982Y228875D01*
X214727Y229058D01*
X214490Y229258D01*
X214271Y229477D01*
X214071Y229677D01*
X213907Y229878D01*
X213797Y230023D01*
X213706Y230133D01*
X213688Y230151D01*
Y230169D01*
X213633Y228620D01*
X212340D01*
Y240208D01*
X213779D01*
Y236728D01*
D02*
G37*
G36*
X311311Y228620D02*
X308560D01*
X308213Y228639D01*
X307886Y228657D01*
X307594Y228693D01*
X307339Y228730D01*
X307139Y228766D01*
X306975Y228784D01*
X306884Y228821D01*
X306847D01*
X306556Y228912D01*
X306300Y229003D01*
X306082Y229112D01*
X305881Y229222D01*
X305736Y229295D01*
X305608Y229367D01*
X305535Y229422D01*
X305517Y229440D01*
X305317Y229604D01*
X305153Y229768D01*
X305007Y229950D01*
X304897Y230096D01*
X304806Y230242D01*
X304733Y230351D01*
X304697Y230424D01*
X304679Y230442D01*
X304570Y230679D01*
X304497Y230916D01*
X304442Y231153D01*
X304406Y231353D01*
X304387Y231554D01*
X304369Y231700D01*
Y231791D01*
Y231827D01*
X304406Y232192D01*
X304424Y232355D01*
X304460Y232501D01*
X304497Y232611D01*
X304515Y232702D01*
X304551Y232756D01*
Y232775D01*
X304697Y233084D01*
X304770Y233212D01*
X304843Y233321D01*
X304897Y233394D01*
X304952Y233467D01*
X304989Y233503D01*
X305007Y233522D01*
X305225Y233740D01*
X305444Y233886D01*
X305535Y233959D01*
X305608Y233995D01*
X305663Y234032D01*
X305681D01*
X305973Y234159D01*
X306228Y234250D01*
X306337Y234269D01*
X306428Y234287D01*
X306483Y234305D01*
X306501D01*
X306173Y234433D01*
X305900Y234578D01*
X305663Y234742D01*
X305481Y234888D01*
X305353Y235016D01*
X305244Y235125D01*
X305189Y235216D01*
X305171Y235234D01*
X305025Y235471D01*
X304934Y235726D01*
X304861Y235981D01*
X304806Y236218D01*
X304770Y236419D01*
X304752Y236583D01*
Y236692D01*
Y236710D01*
Y236728D01*
X304770Y236965D01*
X304788Y237184D01*
X304897Y237585D01*
X305080Y237931D01*
X305298Y238241D01*
X305572Y238496D01*
X305863Y238696D01*
X306191Y238878D01*
X306519Y239006D01*
X306847Y239115D01*
X307175Y239188D01*
X307467Y239261D01*
X307740Y239297D01*
X307959Y239316D01*
X308141Y239334D01*
X311311D01*
Y228620D01*
D02*
G37*
G36*
X206619Y236983D02*
X206910Y236947D01*
X207184Y236892D01*
X207420Y236838D01*
X207603Y236765D01*
X207749Y236710D01*
X207840Y236674D01*
X207876Y236655D01*
X208131Y236510D01*
X208350Y236364D01*
X208550Y236200D01*
X208732Y236054D01*
X208860Y235908D01*
X208969Y235799D01*
X209042Y235726D01*
X209060Y235708D01*
X209224Y235489D01*
X209370Y235252D01*
X209498Y235016D01*
X209607Y234815D01*
X209680Y234615D01*
X209735Y234469D01*
X209771Y234378D01*
X209789Y234360D01*
Y234342D01*
X209862Y234050D01*
X209917Y233758D01*
X209971Y233485D01*
X209990Y233248D01*
X210008Y233030D01*
X210026Y232866D01*
Y232756D01*
Y232738D01*
Y232720D01*
X210008Y232355D01*
X209990Y232009D01*
X209953Y231718D01*
X209917Y231445D01*
X209880Y231226D01*
X209844Y231062D01*
X209807Y230953D01*
Y230934D01*
Y230916D01*
X209716Y230643D01*
X209589Y230370D01*
X209479Y230151D01*
X209352Y229950D01*
X209243Y229805D01*
X209151Y229677D01*
X209097Y229604D01*
X209079Y229586D01*
X208878Y229386D01*
X208678Y229222D01*
X208459Y229076D01*
X208259Y228967D01*
X208095Y228875D01*
X207949Y228803D01*
X207858Y228766D01*
X207821Y228748D01*
X207530Y228657D01*
X207220Y228584D01*
X206910Y228548D01*
X206619Y228511D01*
X206382Y228493D01*
X206182Y228475D01*
X205708D01*
X205434Y228493D01*
X205179Y228511D01*
X204943Y228529D01*
X204760Y228548D01*
X204615Y228566D01*
X204523Y228584D01*
X204487D01*
X204214Y228620D01*
X203959Y228657D01*
X203740Y228712D01*
X203540Y228748D01*
X203376Y228784D01*
X203266Y228821D01*
X203175Y228839D01*
X203157D01*
Y230005D01*
X203357Y229950D01*
X203558Y229914D01*
X203631Y229896D01*
X203685Y229878D01*
X203722Y229859D01*
X203740D01*
X203977Y229823D01*
X204177Y229786D01*
X204269Y229768D01*
X204341D01*
X204378Y229750D01*
X204396D01*
X204633Y229732D01*
X204870Y229695D01*
X204961D01*
X205034Y229677D01*
X205088D01*
X205343Y229659D01*
X205799D01*
X206273Y229695D01*
X206674Y229768D01*
X207020Y229878D01*
X207311Y230005D01*
X207548Y230115D01*
X207712Y230224D01*
X207803Y230297D01*
X207840Y230333D01*
X208076Y230606D01*
X208240Y230916D01*
X208368Y231244D01*
X208441Y231554D01*
X208495Y231845D01*
X208514Y231973D01*
Y232082D01*
X208532Y232155D01*
Y232228D01*
Y232264D01*
Y232283D01*
X202756D01*
X202738Y232410D01*
Y232520D01*
Y232611D01*
Y232647D01*
X202720Y232829D01*
Y232993D01*
Y233066D01*
Y233121D01*
Y233157D01*
Y233175D01*
X202738Y233503D01*
X202756Y233795D01*
X202793Y234050D01*
X202829Y234287D01*
X202884Y234469D01*
X202920Y234615D01*
X202938Y234706D01*
X202957Y234742D01*
X203048Y234997D01*
X203157Y235234D01*
X203285Y235435D01*
X203394Y235617D01*
X203485Y235745D01*
X203576Y235854D01*
X203631Y235927D01*
X203649Y235945D01*
X203831Y236127D01*
X204013Y236291D01*
X204214Y236419D01*
X204378Y236528D01*
X204542Y236619D01*
X204669Y236674D01*
X204742Y236710D01*
X204779Y236728D01*
X205034Y236819D01*
X205289Y236892D01*
X205544Y236929D01*
X205781Y236965D01*
X205981Y236983D01*
X206145Y237002D01*
X206291D01*
X206619Y236983D01*
D02*
G37*
G36*
X227790Y239042D02*
X225367D01*
Y229805D01*
X228064D01*
Y228620D01*
X221468D01*
Y229805D01*
X223928D01*
Y240208D01*
X227790D01*
Y239042D01*
D02*
G37*
G36*
X299031Y236983D02*
X299340Y236947D01*
X299614Y236892D01*
X299869Y236838D01*
X300069Y236783D01*
X300215Y236728D01*
X300306Y236692D01*
X300342Y236674D01*
X300598Y236546D01*
X300834Y236400D01*
X301053Y236255D01*
X301235Y236109D01*
X301381Y235981D01*
X301490Y235872D01*
X301563Y235799D01*
X301582Y235781D01*
X301764Y235562D01*
X301909Y235325D01*
X302055Y235107D01*
X302165Y234888D01*
X302256Y234706D01*
X302310Y234542D01*
X302347Y234451D01*
X302365Y234433D01*
Y234414D01*
X302456Y234123D01*
X302511Y233813D01*
X302565Y233522D01*
X302584Y233248D01*
X302602Y233030D01*
X302620Y232847D01*
Y232775D01*
Y232720D01*
Y232702D01*
Y232683D01*
X302602Y232319D01*
X302584Y231973D01*
X302547Y231663D01*
X302492Y231390D01*
X302438Y231171D01*
X302401Y231007D01*
X302383Y230898D01*
X302365Y230880D01*
Y230861D01*
X302256Y230588D01*
X302146Y230333D01*
X302019Y230096D01*
X301909Y229914D01*
X301800Y229750D01*
X301709Y229641D01*
X301654Y229568D01*
X301636Y229550D01*
X301436Y229367D01*
X301235Y229204D01*
X301053Y229058D01*
X300853Y228948D01*
X300689Y228857D01*
X300561Y228803D01*
X300488Y228766D01*
X300452Y228748D01*
X300179Y228657D01*
X299905Y228584D01*
X299632Y228548D01*
X299377Y228511D01*
X299176Y228493D01*
X298994Y228475D01*
X298849D01*
X298502Y228493D01*
X298193Y228529D01*
X297919Y228566D01*
X297664Y228639D01*
X297464Y228693D01*
X297318Y228730D01*
X297227Y228766D01*
X297190Y228784D01*
X296935Y228912D01*
X296680Y229058D01*
X296480Y229204D01*
X296298Y229331D01*
X296152Y229459D01*
X296043Y229568D01*
X295970Y229641D01*
X295952Y229659D01*
X295769Y229878D01*
X295605Y230115D01*
X295478Y230351D01*
X295368Y230570D01*
X295277Y230752D01*
X295223Y230898D01*
X295186Y230989D01*
X295168Y231026D01*
X295077Y231335D01*
X295004Y231645D01*
X294968Y231937D01*
X294931Y232210D01*
X294913Y232447D01*
X294895Y232629D01*
Y232702D01*
Y232756D01*
Y232775D01*
Y232793D01*
X294913Y233157D01*
X294931Y233503D01*
X294986Y233813D01*
X295022Y234086D01*
X295077Y234287D01*
X295132Y234451D01*
X295150Y234560D01*
X295168Y234597D01*
X295277Y234870D01*
X295387Y235125D01*
X295514Y235362D01*
X295642Y235544D01*
X295751Y235708D01*
X295842Y235817D01*
X295897Y235890D01*
X295915Y235908D01*
X296097Y236091D01*
X296298Y236255D01*
X296498Y236400D01*
X296680Y236510D01*
X296844Y236601D01*
X296972Y236655D01*
X297063Y236692D01*
X297099Y236710D01*
X297373Y236801D01*
X297646Y236874D01*
X297901Y236929D01*
X298156Y236965D01*
X298357Y236983D01*
X298539Y237002D01*
X298685D01*
X299031Y236983D01*
D02*
G37*
G36*
X196179D02*
X196434Y236947D01*
X196689Y236874D01*
X196889Y236801D01*
X197090Y236728D01*
X197217Y236655D01*
X197308Y236619D01*
X197345Y236601D01*
X197618Y236437D01*
X197873Y236236D01*
X198110Y236018D01*
X198329Y235817D01*
X198511Y235617D01*
X198657Y235471D01*
X198748Y235362D01*
X198784Y235344D01*
Y235325D01*
X198821Y236856D01*
X200114D01*
Y228620D01*
X198675D01*
Y233904D01*
X198529Y234086D01*
X198402Y234250D01*
X198274Y234378D01*
X198165Y234506D01*
X198074Y234615D01*
X198001Y234688D01*
X197964Y234724D01*
X197946Y234742D01*
X197691Y234979D01*
X197491Y235180D01*
X197399Y235234D01*
X197345Y235289D01*
X197308Y235307D01*
X197290Y235325D01*
X197072Y235471D01*
X196871Y235580D01*
X196798Y235617D01*
X196744Y235635D01*
X196707Y235653D01*
X196689D01*
X196470Y235726D01*
X196288Y235745D01*
X196233Y235763D01*
X196124D01*
X195887Y235745D01*
X195687Y235690D01*
X195523Y235599D01*
X195377Y235526D01*
X195268Y235435D01*
X195177Y235344D01*
X195140Y235289D01*
X195122Y235271D01*
X195013Y235070D01*
X194922Y234815D01*
X194867Y234560D01*
X194831Y234305D01*
X194812Y234086D01*
X194794Y233904D01*
Y233831D01*
Y233777D01*
Y233740D01*
Y233722D01*
X193355D01*
Y234014D01*
X193373Y234287D01*
X193391Y234542D01*
X193428Y234797D01*
X193482Y235016D01*
X193537Y235216D01*
X193591Y235380D01*
X193646Y235544D01*
X193701Y235690D01*
X193774Y235817D01*
X193828Y235927D01*
X193865Y236018D01*
X193920Y236072D01*
X193938Y236127D01*
X193974Y236163D01*
X194102Y236309D01*
X194247Y236437D01*
X194557Y236655D01*
X194867Y236801D01*
X195177Y236892D01*
X195468Y236965D01*
X195596Y236983D01*
X195687D01*
X195778Y237002D01*
X195905D01*
X196179Y236983D01*
D02*
G37*
G36*
X110999Y237029D02*
X111181D01*
X111600Y236993D01*
X111619D01*
X111710Y236974D01*
X111819D01*
X111983Y236956D01*
X112165Y236920D01*
X112366Y236902D01*
X112602Y236847D01*
X112839Y236810D01*
Y235535D01*
X112803D01*
X112730Y235572D01*
X112602Y235590D01*
X112420Y235626D01*
X112238Y235663D01*
X112019Y235699D01*
X111564Y235772D01*
X111546D01*
X111455Y235790D01*
X111345Y235808D01*
X111199Y235827D01*
X111036D01*
X110872Y235845D01*
X110507Y235863D01*
X110325D01*
X110197Y235845D01*
X109906Y235827D01*
X109614Y235772D01*
X109596D01*
X109560Y235754D01*
X109487Y235736D01*
X109396Y235717D01*
X109213Y235626D01*
X109013Y235535D01*
X108977Y235517D01*
X108886Y235444D01*
X108794Y235335D01*
X108703Y235207D01*
X108685Y235171D01*
X108667Y235080D01*
X108631Y234952D01*
X108612Y234788D01*
Y234770D01*
Y234752D01*
X108631Y234661D01*
X108649Y234533D01*
X108685Y234387D01*
X108703Y234351D01*
X108758Y234278D01*
X108867Y234169D01*
X109013Y234041D01*
X109031D01*
X109049Y234005D01*
X109104Y233986D01*
X109177Y233932D01*
X109286Y233877D01*
X109396Y233822D01*
X109523Y233768D01*
X109669Y233695D01*
X109687D01*
X109742Y233658D01*
X109833Y233640D01*
X109960Y233586D01*
X110125Y233531D01*
X110307Y233476D01*
X110507Y233421D01*
X110744Y233349D01*
X110780Y233330D01*
X110872Y233312D01*
X110999Y233276D01*
X111181Y233203D01*
X111382Y233148D01*
X111582Y233057D01*
X111783Y232984D01*
X111983Y232893D01*
X112001Y232875D01*
X112074Y232857D01*
X112147Y232802D01*
X112275Y232747D01*
X112530Y232565D01*
X112785Y232365D01*
X112803Y232347D01*
X112839Y232310D01*
X112894Y232256D01*
X112967Y232183D01*
X113113Y231982D01*
X113186Y231855D01*
X113240Y231727D01*
Y231709D01*
X113258Y231672D01*
X113295Y231581D01*
X113313Y231490D01*
X113349Y231363D01*
X113368Y231235D01*
X113386Y230907D01*
Y230889D01*
Y230834D01*
Y230743D01*
X113368Y230652D01*
X113313Y230397D01*
X113222Y230124D01*
Y230105D01*
X113204Y230069D01*
X113167Y229996D01*
X113113Y229923D01*
X112985Y229723D01*
X112821Y229504D01*
X112803Y229486D01*
X112785Y229468D01*
X112730Y229413D01*
X112657Y229359D01*
X112457Y229213D01*
X112220Y229049D01*
X112202D01*
X112165Y229012D01*
X112092Y228994D01*
X112001Y228939D01*
X111783Y228848D01*
X111509Y228757D01*
X111491D01*
X111455Y228739D01*
X111363Y228721D01*
X111272Y228703D01*
X111163Y228666D01*
X111017Y228648D01*
X110726Y228593D01*
X110707D01*
X110653Y228575D01*
X110580D01*
X110471Y228557D01*
X110234Y228539D01*
X109942Y228520D01*
X109633D01*
X109432Y228539D01*
X109195D01*
X108940Y228557D01*
X108394Y228593D01*
X108357D01*
X108284Y228611D01*
X108139Y228630D01*
X107975Y228648D01*
X107756Y228684D01*
X107537Y228721D01*
X107045Y228830D01*
Y230142D01*
X107082D01*
X107173Y230105D01*
X107300Y230069D01*
X107483Y230014D01*
X107701Y229960D01*
X107938Y229905D01*
X108466Y229814D01*
X108503D01*
X108594Y229796D01*
X108722Y229778D01*
X108904D01*
X109122Y229759D01*
X109359Y229741D01*
X109888Y229723D01*
X110052D01*
X110234Y229741D01*
X110452Y229759D01*
X110707Y229796D01*
X110963Y229832D01*
X111199Y229905D01*
X111400Y229996D01*
X111418Y230014D01*
X111473Y230051D01*
X111564Y230105D01*
X111655Y230197D01*
X111746Y230306D01*
X111837Y230452D01*
X111892Y230616D01*
X111910Y230798D01*
Y230816D01*
Y230834D01*
X111892Y230925D01*
X111874Y231053D01*
X111819Y231181D01*
X111801Y231217D01*
X111764Y231290D01*
X111673Y231399D01*
X111527Y231527D01*
X111491Y231563D01*
X111436Y231581D01*
X111382Y231636D01*
X111291Y231672D01*
X111181Y231727D01*
X111036Y231800D01*
X110890Y231855D01*
X110872D01*
X110817Y231891D01*
X110726Y231927D01*
X110580Y231982D01*
X110416Y232037D01*
X110216Y232110D01*
X109997Y232183D01*
X109724Y232256D01*
X109705D01*
X109633Y232292D01*
X109523Y232310D01*
X109396Y232365D01*
X109232Y232419D01*
X109068Y232474D01*
X108703Y232620D01*
X108685Y232638D01*
X108631Y232656D01*
X108539Y232711D01*
X108430Y232766D01*
X108157Y232911D01*
X107883Y233112D01*
X107865Y233130D01*
X107829Y233167D01*
X107756Y233221D01*
X107683Y233312D01*
X107501Y233513D01*
X107337Y233786D01*
Y233804D01*
X107300Y233859D01*
X107282Y233932D01*
X107246Y234041D01*
X107209Y234169D01*
X107191Y234332D01*
X107155Y234515D01*
Y234697D01*
Y234715D01*
Y234752D01*
Y234824D01*
X107173Y234916D01*
X107191Y235025D01*
X107209Y235152D01*
X107300Y235444D01*
Y235462D01*
X107337Y235517D01*
X107373Y235590D01*
X107428Y235699D01*
X107501Y235808D01*
X107592Y235936D01*
X107720Y236082D01*
X107847Y236209D01*
X107865Y236227D01*
X107920Y236264D01*
X108011Y236337D01*
X108120Y236428D01*
X108266Y236519D01*
X108448Y236610D01*
X108649Y236719D01*
X108886Y236810D01*
X108922Y236829D01*
X109013Y236847D01*
X109141Y236883D01*
X109341Y236938D01*
X109578Y236974D01*
X109851Y237011D01*
X110179Y237029D01*
X110525Y237047D01*
X110853D01*
X110999Y237029D01*
D02*
G37*
G36*
X67253Y228666D02*
X65959D01*
X65905Y230215D01*
Y230197D01*
X65886Y230178D01*
X65795Y230069D01*
X65686Y229923D01*
X65522Y229723D01*
X65321Y229522D01*
X65103Y229304D01*
X64866Y229103D01*
X64611Y228921D01*
X64574Y228903D01*
X64483Y228867D01*
X64356Y228794D01*
X64155Y228721D01*
X63937Y228648D01*
X63682Y228575D01*
X63408Y228539D01*
X63099Y228520D01*
X62989D01*
X62844Y228539D01*
X62680Y228557D01*
X62497Y228593D01*
X62279Y228648D01*
X62078Y228721D01*
X61860Y228812D01*
X61841Y228830D01*
X61769Y228867D01*
X61677Y228939D01*
X61550Y229030D01*
X61404Y229140D01*
X61259Y229286D01*
X61113Y229450D01*
X60967Y229632D01*
X60949Y229650D01*
X60912Y229723D01*
X60839Y229850D01*
X60767Y229996D01*
X60675Y230197D01*
X60584Y230415D01*
X60493Y230652D01*
X60420Y230925D01*
Y230962D01*
X60402Y231053D01*
X60366Y231217D01*
X60347Y231417D01*
X60311Y231672D01*
X60275Y231964D01*
X60256Y232274D01*
Y232602D01*
Y232620D01*
Y232656D01*
Y232711D01*
Y232784D01*
X60275Y232966D01*
X60293Y233221D01*
X60329Y233513D01*
X60366Y233822D01*
X60439Y234150D01*
X60530Y234460D01*
Y234478D01*
X60548Y234496D01*
X60584Y234606D01*
X60657Y234752D01*
X60748Y234934D01*
X60858Y235152D01*
X61003Y235389D01*
X61167Y235626D01*
X61350Y235845D01*
X61368Y235863D01*
X61441Y235936D01*
X61550Y236045D01*
X61714Y236173D01*
X61896Y236300D01*
X62115Y236446D01*
X62352Y236574D01*
X62625Y236701D01*
X62661Y236719D01*
X62752Y236756D01*
X62916Y236792D01*
X63117Y236847D01*
X63354Y236902D01*
X63645Y236956D01*
X63955Y236974D01*
X64283Y236993D01*
X64520D01*
X64775Y236974D01*
X65048Y236938D01*
X65066D01*
X65121Y236920D01*
X65194D01*
X65285Y236902D01*
X65540Y236847D01*
X65813Y236774D01*
Y240254D01*
X67253D01*
Y228666D01*
D02*
G37*
G36*
X37044Y239525D02*
X37263Y239507D01*
X37372D01*
X37463Y239489D01*
X37664Y239471D01*
X37900Y239434D01*
X37955D01*
X38028Y239416D01*
X38101D01*
X38301Y239380D01*
X38538Y239343D01*
X38593D01*
X38666Y239325D01*
X38739Y239307D01*
X38939Y239270D01*
X39139Y239234D01*
Y237922D01*
X39103D01*
X39030Y237958D01*
X38903Y237977D01*
X38739Y238013D01*
X38556Y238049D01*
X38338Y238104D01*
X37864Y238177D01*
X37846D01*
X37755Y238195D01*
X37645Y238213D01*
X37481Y238232D01*
X37299Y238250D01*
X37080Y238268D01*
X36643Y238286D01*
X36443D01*
X36224Y238268D01*
X35951Y238232D01*
X35641Y238177D01*
X35331Y238104D01*
X35058Y237995D01*
X34803Y237849D01*
X34785Y237831D01*
X34712Y237776D01*
X34621Y237685D01*
X34512Y237558D01*
X34402Y237393D01*
X34311Y237193D01*
X34238Y236974D01*
X34220Y236719D01*
Y236701D01*
Y236647D01*
X34238Y236574D01*
X34256Y236464D01*
X34329Y236227D01*
X34384Y236100D01*
X34457Y235972D01*
X34475Y235954D01*
X34493Y235918D01*
X34548Y235863D01*
X34621Y235790D01*
X34821Y235608D01*
X35076Y235407D01*
X35094Y235389D01*
X35149Y235371D01*
X35222Y235316D01*
X35350Y235262D01*
X35477Y235189D01*
X35623Y235116D01*
X35987Y234970D01*
X36005D01*
X36078Y234934D01*
X36169Y234897D01*
X36315Y234843D01*
X36461Y234788D01*
X36625Y234715D01*
X37008Y234551D01*
X37026D01*
X37099Y234515D01*
X37208Y234478D01*
X37336Y234424D01*
X37500Y234351D01*
X37664Y234278D01*
X38046Y234096D01*
X38064Y234078D01*
X38137Y234059D01*
X38228Y234005D01*
X38356Y233932D01*
X38647Y233731D01*
X38939Y233494D01*
X38957Y233476D01*
X39012Y233440D01*
X39085Y233367D01*
X39176Y233258D01*
X39267Y233148D01*
X39376Y233002D01*
X39577Y232675D01*
X39595Y232656D01*
X39613Y232583D01*
X39650Y232492D01*
X39704Y232365D01*
X39759Y232201D01*
X39795Y232000D01*
X39814Y231800D01*
X39832Y231563D01*
Y231527D01*
Y231436D01*
X39814Y231290D01*
X39795Y231108D01*
X39759Y230907D01*
X39686Y230670D01*
X39613Y230434D01*
X39504Y230215D01*
X39486Y230197D01*
X39449Y230124D01*
X39376Y230014D01*
X39285Y229887D01*
X39158Y229741D01*
X39012Y229577D01*
X38830Y229413D01*
X38629Y229267D01*
X38611Y229249D01*
X38538Y229213D01*
X38411Y229140D01*
X38265Y229049D01*
X38064Y228958D01*
X37846Y228867D01*
X37591Y228775D01*
X37299Y228703D01*
X37263D01*
X37172Y228666D01*
X37008Y228648D01*
X36789Y228611D01*
X36534Y228575D01*
X36242Y228557D01*
X35914Y228520D01*
X35313D01*
X35167Y228539D01*
X35040D01*
X34712Y228557D01*
X34639D01*
X34566Y228575D01*
X34457D01*
X34202Y228611D01*
X33910Y228648D01*
X33837D01*
X33764Y228666D01*
X33673D01*
X33437Y228703D01*
X33182Y228739D01*
X33163D01*
X33127Y228757D01*
X33054Y228775D01*
X32981Y228794D01*
X32781Y228848D01*
X32562Y228903D01*
Y230306D01*
X32598Y230288D01*
X32671Y230270D01*
X32799Y230233D01*
X32963Y230178D01*
X33163Y230105D01*
X33400Y230051D01*
X33655Y229996D01*
X33928Y229942D01*
X33965D01*
X34056Y229923D01*
X34220Y229905D01*
X34439Y229887D01*
X34694Y229850D01*
X34985Y229832D01*
X35313Y229814D01*
X35933D01*
X36097Y229832D01*
X36279D01*
X36479Y229869D01*
X36680Y229887D01*
X36880Y229923D01*
X36898D01*
X36971Y229942D01*
X37044Y229978D01*
X37172Y229996D01*
X37427Y230105D01*
X37682Y230233D01*
X37700Y230251D01*
X37736Y230270D01*
X37791Y230324D01*
X37864Y230379D01*
X38028Y230543D01*
X38155Y230761D01*
Y230780D01*
X38174Y230816D01*
X38210Y230889D01*
X38228Y230980D01*
X38265Y231089D01*
X38283Y231217D01*
X38301Y231490D01*
Y231508D01*
Y231563D01*
X38283Y231636D01*
X38265Y231745D01*
X38192Y231982D01*
X38137Y232091D01*
X38046Y232219D01*
X38028Y232237D01*
X38010Y232274D01*
X37955Y232328D01*
X37882Y232401D01*
X37791Y232492D01*
X37682Y232583D01*
X37409Y232766D01*
X37390Y232784D01*
X37336Y232802D01*
X37263Y232857D01*
X37153Y232911D01*
X37026Y232984D01*
X36880Y233057D01*
X36516Y233221D01*
X36498Y233239D01*
X36425Y233258D01*
X36334Y233294D01*
X36188Y233349D01*
X36042Y233403D01*
X35860Y233476D01*
X35477Y233622D01*
X35459Y233640D01*
X35386Y233658D01*
X35295Y233713D01*
X35167Y233768D01*
X35003Y233841D01*
X34839Y233913D01*
X34457Y234096D01*
X34439Y234114D01*
X34366Y234150D01*
X34275Y234187D01*
X34147Y234260D01*
X34020Y234351D01*
X33856Y234442D01*
X33546Y234679D01*
X33528Y234697D01*
X33491Y234733D01*
X33418Y234806D01*
X33327Y234916D01*
X33236Y235025D01*
X33127Y235171D01*
X32926Y235480D01*
X32908Y235499D01*
X32890Y235572D01*
X32853Y235663D01*
X32817Y235790D01*
X32762Y235954D01*
X32726Y236136D01*
X32708Y236355D01*
X32689Y236574D01*
Y236592D01*
Y236665D01*
X32708Y236774D01*
X32726Y236920D01*
X32744Y237084D01*
X32781Y237266D01*
X32835Y237466D01*
X32908Y237667D01*
X32926Y237685D01*
X32945Y237758D01*
X33018Y237849D01*
X33090Y237977D01*
X33182Y238122D01*
X33309Y238286D01*
X33455Y238450D01*
X33619Y238614D01*
X33637Y238632D01*
X33710Y238687D01*
X33819Y238760D01*
X33965Y238851D01*
X34129Y238960D01*
X34348Y239070D01*
X34584Y239179D01*
X34858Y239288D01*
X34894Y239307D01*
X35003Y239325D01*
X35149Y239361D01*
X35368Y239416D01*
X35641Y239471D01*
X35951Y239507D01*
X36297Y239525D01*
X36680Y239544D01*
X36862D01*
X37044Y239525D01*
D02*
G37*
G36*
X20355Y237029D02*
X20446Y237011D01*
X20573Y236974D01*
X20701Y236920D01*
X20846Y236847D01*
X20992Y236756D01*
X21138Y236628D01*
X21284Y236464D01*
X21411Y236264D01*
X21539Y236045D01*
X21630Y235772D01*
X21703Y235444D01*
X21757Y235080D01*
X21776Y234661D01*
Y228666D01*
X20355D01*
Y234569D01*
Y234588D01*
Y234642D01*
Y234697D01*
Y234788D01*
X20336Y234988D01*
X20318Y235189D01*
Y235207D01*
Y235225D01*
X20300Y235335D01*
X20282Y235462D01*
X20227Y235590D01*
X20209Y235608D01*
X20191Y235663D01*
X20136Y235736D01*
X20081Y235790D01*
X20063Y235808D01*
X20027Y235827D01*
X19954Y235845D01*
X19863Y235863D01*
X19844D01*
X19771Y235845D01*
X19680Y235827D01*
X19571Y235754D01*
X19553Y235736D01*
X19498Y235681D01*
X19407Y235572D01*
X19298Y235426D01*
Y235407D01*
X19280Y235389D01*
X19243Y235335D01*
X19207Y235280D01*
X19097Y235080D01*
X18970Y234843D01*
Y234824D01*
X18933Y234770D01*
X18897Y234697D01*
X18842Y234588D01*
X18788Y234460D01*
X18715Y234314D01*
X18642Y234132D01*
X18551Y233950D01*
Y228666D01*
X17130D01*
Y234424D01*
Y234442D01*
Y234496D01*
Y234569D01*
Y234679D01*
X17111Y234916D01*
X17093Y235134D01*
Y235152D01*
Y235189D01*
X17075Y235298D01*
X17057Y235444D01*
X17002Y235572D01*
X16984Y235590D01*
X16966Y235663D01*
X16911Y235736D01*
X16856Y235790D01*
X16838Y235808D01*
X16802Y235827D01*
X16729Y235845D01*
X16638Y235863D01*
X16620D01*
X16547Y235845D01*
X16455Y235827D01*
X16364Y235772D01*
X16346Y235754D01*
X16292Y235699D01*
X16200Y235608D01*
X16091Y235462D01*
X16073Y235426D01*
X16000Y235316D01*
X15891Y235134D01*
X15763Y234897D01*
Y234879D01*
X15727Y234824D01*
X15690Y234752D01*
X15636Y234642D01*
X15581Y234515D01*
X15508Y234351D01*
X15417Y234150D01*
X15326Y233950D01*
Y228666D01*
X13905D01*
Y236902D01*
X15071D01*
X15144Y235335D01*
X15162Y235353D01*
X15180Y235407D01*
X15216Y235499D01*
X15271Y235608D01*
X15417Y235863D01*
X15563Y236118D01*
X15581Y236136D01*
X15599Y236173D01*
X15636Y236227D01*
X15690Y236300D01*
X15818Y236483D01*
X15982Y236647D01*
X16000Y236665D01*
X16018Y236683D01*
X16127Y236756D01*
X16273Y236847D01*
X16437Y236938D01*
X16455D01*
X16474Y236956D01*
X16601Y236993D01*
X16765Y237029D01*
X16966Y237047D01*
X17075D01*
X17202Y237029D01*
X17348Y236993D01*
X17512Y236938D01*
X17676Y236865D01*
X17840Y236756D01*
X17986Y236610D01*
X18004Y236592D01*
X18041Y236537D01*
X18095Y236428D01*
X18168Y236282D01*
X18223Y236082D01*
X18278Y235863D01*
X18314Y235590D01*
X18332Y235262D01*
X18350Y235280D01*
X18369Y235335D01*
X18405Y235407D01*
X18460Y235517D01*
X18587Y235754D01*
X18715Y236009D01*
Y236027D01*
X18751Y236063D01*
X18788Y236136D01*
X18842Y236209D01*
X18970Y236391D01*
X19116Y236574D01*
X19134Y236592D01*
X19152Y236610D01*
X19261Y236701D01*
X19407Y236810D01*
X19589Y236920D01*
X19608D01*
X19644Y236938D01*
X19699Y236956D01*
X19771Y236993D01*
X19972Y237029D01*
X20209Y237047D01*
X20282D01*
X20355Y237029D01*
D02*
G37*
G36*
X94255D02*
X94346Y237011D01*
X94473Y236974D01*
X94601Y236920D01*
X94747Y236847D01*
X94893Y236756D01*
X95038Y236628D01*
X95184Y236464D01*
X95312Y236264D01*
X95439Y236045D01*
X95530Y235772D01*
X95603Y235444D01*
X95658Y235080D01*
X95676Y234661D01*
Y228666D01*
X94255D01*
Y234569D01*
Y234588D01*
Y234642D01*
Y234697D01*
Y234788D01*
X94237Y234988D01*
X94218Y235189D01*
Y235207D01*
Y235225D01*
X94200Y235335D01*
X94182Y235462D01*
X94127Y235590D01*
X94109Y235608D01*
X94091Y235663D01*
X94036Y235736D01*
X93982Y235790D01*
X93963Y235808D01*
X93927Y235827D01*
X93854Y235845D01*
X93763Y235863D01*
X93745D01*
X93672Y235845D01*
X93581Y235827D01*
X93471Y235754D01*
X93453Y235736D01*
X93399Y235681D01*
X93307Y235572D01*
X93198Y235426D01*
Y235407D01*
X93180Y235389D01*
X93143Y235335D01*
X93107Y235280D01*
X92998Y235080D01*
X92870Y234843D01*
Y234824D01*
X92834Y234770D01*
X92797Y234697D01*
X92743Y234588D01*
X92688Y234460D01*
X92615Y234314D01*
X92542Y234132D01*
X92451Y233950D01*
Y228666D01*
X91030D01*
Y234424D01*
Y234442D01*
Y234496D01*
Y234569D01*
Y234679D01*
X91012Y234916D01*
X90993Y235134D01*
Y235152D01*
Y235189D01*
X90975Y235298D01*
X90957Y235444D01*
X90902Y235572D01*
X90884Y235590D01*
X90866Y235663D01*
X90811Y235736D01*
X90757Y235790D01*
X90738Y235808D01*
X90702Y235827D01*
X90629Y235845D01*
X90538Y235863D01*
X90520D01*
X90447Y235845D01*
X90356Y235827D01*
X90265Y235772D01*
X90246Y235754D01*
X90192Y235699D01*
X90101Y235608D01*
X89991Y235462D01*
X89973Y235426D01*
X89900Y235316D01*
X89791Y235134D01*
X89663Y234897D01*
Y234879D01*
X89627Y234824D01*
X89591Y234752D01*
X89536Y234642D01*
X89481Y234515D01*
X89408Y234351D01*
X89317Y234150D01*
X89226Y233950D01*
Y228666D01*
X87805D01*
Y236902D01*
X88971D01*
X89044Y235335D01*
X89062Y235353D01*
X89080Y235407D01*
X89117Y235499D01*
X89171Y235608D01*
X89317Y235863D01*
X89463Y236118D01*
X89481Y236136D01*
X89499Y236173D01*
X89536Y236227D01*
X89591Y236300D01*
X89718Y236483D01*
X89882Y236647D01*
X89900Y236665D01*
X89919Y236683D01*
X90028Y236756D01*
X90174Y236847D01*
X90338Y236938D01*
X90356D01*
X90374Y236956D01*
X90502Y236993D01*
X90666Y237029D01*
X90866Y237047D01*
X90975D01*
X91103Y237029D01*
X91249Y236993D01*
X91413Y236938D01*
X91576Y236865D01*
X91741Y236756D01*
X91886Y236610D01*
X91904Y236592D01*
X91941Y236537D01*
X91996Y236428D01*
X92068Y236282D01*
X92123Y236082D01*
X92178Y235863D01*
X92214Y235590D01*
X92233Y235262D01*
X92251Y235280D01*
X92269Y235335D01*
X92305Y235407D01*
X92360Y235517D01*
X92488Y235754D01*
X92615Y236009D01*
Y236027D01*
X92651Y236063D01*
X92688Y236136D01*
X92743Y236209D01*
X92870Y236391D01*
X93016Y236574D01*
X93034Y236592D01*
X93052Y236610D01*
X93162Y236701D01*
X93307Y236810D01*
X93490Y236920D01*
X93508D01*
X93544Y236938D01*
X93599Y236956D01*
X93672Y236993D01*
X93872Y237029D01*
X94109Y237047D01*
X94182D01*
X94255Y237029D01*
D02*
G37*
G36*
X83906D02*
X83997D01*
X84125Y237011D01*
X84416Y236938D01*
X84726Y236847D01*
X85036Y236701D01*
X85345Y236483D01*
X85491Y236355D01*
X85619Y236209D01*
X85655Y236173D01*
X85673Y236118D01*
X85728Y236063D01*
X85764Y235972D01*
X85819Y235863D01*
X85892Y235736D01*
X85947Y235590D01*
X86001Y235426D01*
X86056Y235262D01*
X86111Y235061D01*
X86165Y234843D01*
X86202Y234588D01*
X86220Y234332D01*
X86238Y234059D01*
Y233768D01*
X84799D01*
Y233786D01*
Y233822D01*
Y233877D01*
Y233950D01*
X84781Y234132D01*
X84762Y234351D01*
X84726Y234606D01*
X84671Y234861D01*
X84580Y235116D01*
X84471Y235316D01*
X84452Y235335D01*
X84416Y235389D01*
X84325Y235480D01*
X84216Y235572D01*
X84070Y235644D01*
X83906Y235736D01*
X83706Y235790D01*
X83469Y235808D01*
X83359D01*
X83305Y235790D01*
X83122Y235772D01*
X82904Y235699D01*
X82886D01*
X82849Y235681D01*
X82794Y235663D01*
X82722Y235626D01*
X82521Y235517D01*
X82303Y235371D01*
X82284Y235353D01*
X82248Y235335D01*
X82193Y235280D01*
X82102Y235225D01*
X81902Y235025D01*
X81647Y234788D01*
X81628Y234770D01*
X81592Y234733D01*
X81519Y234661D01*
X81428Y234551D01*
X81319Y234424D01*
X81191Y234296D01*
X81064Y234132D01*
X80918Y233950D01*
Y228666D01*
X79479D01*
Y236902D01*
X80772D01*
X80809Y235371D01*
Y235389D01*
X80845Y235407D01*
X80936Y235517D01*
X81082Y235663D01*
X81264Y235863D01*
X81483Y236063D01*
X81719Y236282D01*
X81975Y236483D01*
X82248Y236647D01*
X82284Y236665D01*
X82376Y236701D01*
X82503Y236774D01*
X82703Y236847D01*
X82904Y236920D01*
X83159Y236993D01*
X83414Y237029D01*
X83687Y237047D01*
X83815D01*
X83906Y237029D01*
D02*
G37*
G36*
X-28366Y239361D02*
X-28147Y239343D01*
X-27874Y239307D01*
X-27582Y239234D01*
X-27254Y239161D01*
X-26926Y239052D01*
X-26598Y238924D01*
X-26270Y238742D01*
X-25979Y238541D01*
X-25706Y238286D01*
X-25487Y237977D01*
X-25305Y237630D01*
X-25195Y237229D01*
X-25177Y237011D01*
X-25159Y236774D01*
Y236756D01*
Y236738D01*
Y236628D01*
X-25177Y236464D01*
X-25214Y236264D01*
X-25268Y236027D01*
X-25341Y235772D01*
X-25432Y235517D01*
X-25578Y235280D01*
X-25596Y235262D01*
X-25651Y235171D01*
X-25760Y235061D01*
X-25888Y234934D01*
X-26070Y234788D01*
X-26307Y234624D01*
X-26580Y234478D01*
X-26908Y234351D01*
X-26890D01*
X-26835Y234332D01*
X-26744Y234314D01*
X-26635Y234296D01*
X-26380Y234205D01*
X-26088Y234078D01*
X-26070D01*
X-26015Y234041D01*
X-25943Y234005D01*
X-25851Y233932D01*
X-25633Y233786D01*
X-25414Y233567D01*
X-25396Y233549D01*
X-25359Y233513D01*
X-25305Y233440D01*
X-25250Y233367D01*
X-25177Y233258D01*
X-25104Y233130D01*
X-24959Y232820D01*
Y232802D01*
X-24922Y232747D01*
X-24904Y232656D01*
X-24868Y232547D01*
X-24831Y232401D01*
X-24813Y232237D01*
X-24776Y231873D01*
Y231836D01*
Y231745D01*
X-24795Y231599D01*
X-24813Y231399D01*
X-24849Y231199D01*
X-24904Y230962D01*
X-24977Y230725D01*
X-25086Y230488D01*
X-25104Y230470D01*
X-25141Y230397D01*
X-25214Y230288D01*
X-25305Y230142D01*
X-25414Y229996D01*
X-25560Y229814D01*
X-25724Y229650D01*
X-25924Y229486D01*
X-25943Y229468D01*
X-26015Y229413D01*
X-26143Y229340D01*
X-26289Y229267D01*
X-26489Y229158D01*
X-26708Y229049D01*
X-26963Y228958D01*
X-27254Y228867D01*
X-27291D01*
X-27382Y228830D01*
X-27546Y228812D01*
X-27746Y228775D01*
X-28001Y228739D01*
X-28293Y228703D01*
X-28621Y228684D01*
X-28967Y228666D01*
X-31718D01*
Y239380D01*
X-28548D01*
X-28366Y239361D01*
D02*
G37*
G36*
X-1072Y236902D02*
X2645D01*
Y235699D01*
X-1072D01*
Y231508D01*
Y231490D01*
Y231472D01*
Y231363D01*
X-1054Y231217D01*
X-1017Y231016D01*
X-963Y230798D01*
X-872Y230579D01*
X-762Y230379D01*
X-598Y230197D01*
X-580Y230178D01*
X-507Y230124D01*
X-398Y230051D01*
X-252Y229978D01*
X-52Y229905D01*
X185Y229832D01*
X458Y229778D01*
X786Y229759D01*
X1041D01*
X1169Y229778D01*
X1333D01*
X1661Y229814D01*
X1679D01*
X1752Y229832D01*
X1843D01*
X1971Y229869D01*
X2116Y229887D01*
X2280Y229923D01*
X2645Y230014D01*
Y228775D01*
X2627D01*
X2554Y228757D01*
X2462Y228739D01*
X2335Y228721D01*
X2171Y228684D01*
X2007Y228666D01*
X1624Y228611D01*
X1533D01*
X1442Y228593D01*
X1296D01*
X1151Y228575D01*
X969D01*
X586Y228557D01*
X440D01*
X331Y228575D01*
X203D01*
X58Y228593D01*
X-289Y228648D01*
X-653Y228721D01*
X-1036Y228848D01*
X-1400Y229012D01*
X-1582Y229122D01*
X-1728Y229249D01*
X-1764Y229286D01*
X-1856Y229377D01*
X-1965Y229541D01*
X-2111Y229778D01*
X-2256Y230087D01*
X-2366Y230452D01*
X-2457Y230889D01*
X-2493Y231399D01*
Y235699D01*
X-4789D01*
Y236902D01*
X-2493D01*
Y239161D01*
X-1072Y239544D01*
Y236902D01*
D02*
G37*
G36*
X-10310D02*
X-6593D01*
Y235699D01*
X-10310D01*
Y231508D01*
Y231490D01*
Y231472D01*
Y231363D01*
X-10291Y231217D01*
X-10255Y231016D01*
X-10200Y230798D01*
X-10109Y230579D01*
X-10000Y230379D01*
X-9836Y230197D01*
X-9818Y230178D01*
X-9745Y230124D01*
X-9636Y230051D01*
X-9490Y229978D01*
X-9289Y229905D01*
X-9053Y229832D01*
X-8779Y229778D01*
X-8451Y229759D01*
X-8196D01*
X-8069Y229778D01*
X-7905D01*
X-7577Y229814D01*
X-7559D01*
X-7486Y229832D01*
X-7395D01*
X-7267Y229869D01*
X-7121Y229887D01*
X-6957Y229923D01*
X-6593Y230014D01*
Y228775D01*
X-6611D01*
X-6684Y228757D01*
X-6775Y228739D01*
X-6903Y228721D01*
X-7067Y228684D01*
X-7231Y228666D01*
X-7613Y228611D01*
X-7704D01*
X-7795Y228593D01*
X-7941D01*
X-8087Y228575D01*
X-8269D01*
X-8652Y228557D01*
X-8797D01*
X-8907Y228575D01*
X-9034D01*
X-9180Y228593D01*
X-9526Y228648D01*
X-9891Y228721D01*
X-10273Y228848D01*
X-10638Y229012D01*
X-10820Y229122D01*
X-10966Y229249D01*
X-11002Y229286D01*
X-11093Y229377D01*
X-11203Y229541D01*
X-11348Y229778D01*
X-11494Y230087D01*
X-11603Y230452D01*
X-11694Y230889D01*
X-11731Y231399D01*
Y235699D01*
X-14027D01*
Y236902D01*
X-11731D01*
Y239161D01*
X-10310Y239544D01*
Y236902D01*
D02*
G37*
G36*
X117704Y233130D02*
X121403Y236902D01*
X123298D01*
X119435Y233094D01*
X123516Y228666D01*
X121548D01*
X117704Y233075D01*
Y228666D01*
X116283D01*
Y240254D01*
X117704D01*
Y233130D01*
D02*
G37*
G36*
X101434Y237029D02*
X101634Y237011D01*
X101871Y236974D01*
X102326Y236883D01*
X102345D01*
X102436Y236847D01*
X102545Y236810D01*
X102673Y236756D01*
X102837Y236683D01*
X103000Y236592D01*
X103165Y236501D01*
X103328Y236373D01*
X103347Y236355D01*
X103401Y236318D01*
X103474Y236246D01*
X103565Y236155D01*
X103675Y236027D01*
X103784Y235881D01*
X103875Y235717D01*
X103966Y235535D01*
X103984Y235517D01*
X104003Y235444D01*
X104039Y235335D01*
X104094Y235189D01*
X104130Y235025D01*
X104167Y234806D01*
X104185Y234588D01*
X104203Y234332D01*
Y228666D01*
X102909D01*
X102873Y229759D01*
X102837Y229723D01*
X102764Y229650D01*
X102618Y229541D01*
X102454Y229395D01*
X102235Y229249D01*
X102017Y229085D01*
X101761Y228939D01*
X101506Y228812D01*
X101470Y228794D01*
X101379Y228775D01*
X101251Y228721D01*
X101069Y228666D01*
X100850Y228611D01*
X100595Y228575D01*
X100340Y228539D01*
X100049Y228520D01*
X99940D01*
X99812Y228539D01*
X99648D01*
X99448Y228557D01*
X99247Y228593D01*
X98846Y228684D01*
X98828D01*
X98773Y228721D01*
X98682Y228757D01*
X98555Y228812D01*
X98300Y228976D01*
X98026Y229176D01*
X98008Y229194D01*
X97972Y229231D01*
X97917Y229304D01*
X97844Y229395D01*
X97771Y229504D01*
X97680Y229632D01*
X97553Y229923D01*
Y229942D01*
X97535Y229996D01*
X97516Y230087D01*
X97480Y230197D01*
X97462Y230342D01*
X97425Y230506D01*
X97407Y230853D01*
Y230871D01*
Y230907D01*
Y230980D01*
X97425Y231053D01*
X97443Y231162D01*
X97462Y231290D01*
X97516Y231563D01*
X97626Y231873D01*
X97790Y232201D01*
X97899Y232365D01*
X98026Y232510D01*
X98154Y232656D01*
X98318Y232802D01*
X98336D01*
X98354Y232839D01*
X98409Y232875D01*
X98500Y232911D01*
X98591Y232966D01*
X98701Y233021D01*
X98846Y233094D01*
X99010Y233167D01*
X99193Y233221D01*
X99393Y233294D01*
X99612Y233349D01*
X99867Y233403D01*
X100122Y233440D01*
X100413Y233476D01*
X100723Y233513D01*
X102764D01*
Y234223D01*
Y234260D01*
Y234351D01*
X102745Y234478D01*
X102709Y234642D01*
X102654Y234824D01*
X102563Y235025D01*
X102454Y235207D01*
X102290Y235389D01*
X102272Y235407D01*
X102199Y235462D01*
X102090Y235535D01*
X101944Y235608D01*
X101743Y235681D01*
X101488Y235754D01*
X101197Y235808D01*
X100869Y235827D01*
X100614D01*
X100432Y235808D01*
X100213Y235790D01*
X99994Y235754D01*
X99484Y235663D01*
X99448D01*
X99375Y235626D01*
X99229Y235590D01*
X99065Y235553D01*
X98846Y235480D01*
X98610Y235407D01*
X98354Y235316D01*
X98099Y235225D01*
Y236519D01*
X98118D01*
X98154Y236537D01*
X98190Y236555D01*
X98263Y236574D01*
X98445Y236628D01*
X98682Y236701D01*
X98701D01*
X98737Y236719D01*
X98810Y236738D01*
X98901Y236756D01*
X99138Y236810D01*
X99393Y236865D01*
X99411D01*
X99466Y236883D01*
X99539Y236902D01*
X99630Y236920D01*
X99739Y236938D01*
X99867Y236956D01*
X100158Y236993D01*
X100176D01*
X100231Y237011D01*
X100304D01*
X100413Y237029D01*
X100541D01*
X100668Y237047D01*
X101251D01*
X101434Y237029D01*
D02*
G37*
G36*
X55665Y229850D02*
X58125D01*
Y228666D01*
X51529D01*
Y229850D01*
X54225D01*
Y239088D01*
X51802D01*
Y240254D01*
X55665D01*
Y229850D01*
D02*
G37*
%LPC*%
G36*
X178833Y232374D02*
X176829D01*
Y230898D01*
X177084Y230661D01*
X177339Y230479D01*
X177576Y230315D01*
X177777Y230187D01*
X177941Y230078D01*
X178068Y230005D01*
X178141Y229969D01*
X178177Y229950D01*
X178414Y229859D01*
X178615Y229786D01*
X178815Y229732D01*
X178979Y229695D01*
X179125Y229677D01*
X179216Y229659D01*
X179307D01*
X179562Y229677D01*
X179763Y229714D01*
X179835D01*
X179890Y229732D01*
X179927Y229750D01*
X179945D01*
X180109Y229823D01*
X180254Y229914D01*
X180327Y229987D01*
X180364Y230005D01*
X180473Y230151D01*
X180546Y230278D01*
X180582Y230370D01*
X180601Y230388D01*
Y230406D01*
X180637Y230570D01*
X180655Y230716D01*
X180674Y230825D01*
Y230843D01*
Y230861D01*
X180655Y231098D01*
X180619Y231299D01*
X180601Y231372D01*
X180582Y231426D01*
X180564Y231463D01*
Y231481D01*
X180455Y231663D01*
X180327Y231827D01*
X180236Y231918D01*
X180218Y231955D01*
X180200D01*
X179999Y232082D01*
X179781Y232192D01*
X179690Y232228D01*
X179617Y232246D01*
X179580Y232264D01*
X179562D01*
X179252Y232337D01*
X178961Y232355D01*
X178833Y232374D01*
D02*
G37*
G36*
X45699Y235827D02*
X45389D01*
X45261Y235808D01*
X45116Y235790D01*
X44933Y235772D01*
X44751Y235717D01*
X44569Y235663D01*
X44387Y235572D01*
X44368Y235553D01*
X44314Y235517D01*
X44223Y235462D01*
X44132Y235389D01*
X44004Y235298D01*
X43877Y235189D01*
X43640Y234897D01*
X43622Y234879D01*
X43585Y234824D01*
X43549Y234733D01*
X43476Y234624D01*
X43403Y234478D01*
X43348Y234314D01*
X43275Y234132D01*
X43221Y233932D01*
Y233913D01*
X43202Y233841D01*
X43184Y233731D01*
X43166Y233586D01*
X43130Y233403D01*
X43111Y233203D01*
X43093Y232766D01*
Y232729D01*
Y232638D01*
X43111Y232492D01*
Y232310D01*
X43130Y232110D01*
X43166Y231873D01*
X43257Y231417D01*
Y231399D01*
X43293Y231326D01*
X43330Y231217D01*
X43385Y231089D01*
X43530Y230780D01*
X43731Y230470D01*
X43749Y230452D01*
X43786Y230415D01*
X43858Y230342D01*
X43949Y230270D01*
X44059Y230178D01*
X44186Y230087D01*
X44478Y229905D01*
X44496D01*
X44551Y229869D01*
X44660Y229850D01*
X44769Y229814D01*
X44933Y229778D01*
X45097Y229759D01*
X45298Y229723D01*
X45608D01*
X45717Y229741D01*
X45881Y229759D01*
X46045Y229778D01*
X46227Y229832D01*
X46409Y229887D01*
X46591Y229960D01*
X46610Y229978D01*
X46664Y230014D01*
X46755Y230069D01*
X46865Y230142D01*
X46974Y230233D01*
X47102Y230361D01*
X47338Y230634D01*
X47357Y230652D01*
X47393Y230707D01*
X47429Y230798D01*
X47502Y230907D01*
X47575Y231053D01*
X47630Y231217D01*
X47703Y231399D01*
X47758Y231599D01*
Y231618D01*
X47776Y231691D01*
X47812Y231818D01*
X47830Y231964D01*
X47867Y232128D01*
X47885Y232328D01*
X47903Y232766D01*
Y232802D01*
Y232893D01*
Y233039D01*
X47885Y233221D01*
X47867Y233421D01*
X47830Y233658D01*
X47776Y233877D01*
X47721Y234096D01*
Y234114D01*
X47685Y234187D01*
X47648Y234296D01*
X47594Y234442D01*
X47448Y234733D01*
X47357Y234897D01*
X47247Y235043D01*
X47229Y235061D01*
X47193Y235098D01*
X47120Y235171D01*
X47029Y235262D01*
X46919Y235353D01*
X46792Y235444D01*
X46482Y235626D01*
X46464Y235644D01*
X46409Y235663D01*
X46318Y235699D01*
X46191Y235736D01*
X46045Y235772D01*
X45881Y235790D01*
X45699Y235827D01*
D02*
G37*
G36*
X73429Y235899D02*
X73065D01*
X72956Y235881D01*
X72828Y235863D01*
X72682Y235827D01*
X72373Y235717D01*
X72354D01*
X72318Y235681D01*
X72245Y235644D01*
X72154Y235590D01*
X71935Y235426D01*
X71717Y235207D01*
X71698Y235189D01*
X71680Y235152D01*
X71626Y235080D01*
X71553Y234988D01*
X71480Y234879D01*
X71407Y234733D01*
X71261Y234424D01*
Y234405D01*
X71243Y234351D01*
X71207Y234260D01*
X71170Y234132D01*
X71134Y233986D01*
X71115Y233804D01*
X71061Y233421D01*
X75397D01*
Y233440D01*
Y233513D01*
Y233622D01*
Y233750D01*
X75379Y233895D01*
X75361Y234059D01*
X75270Y234405D01*
Y234424D01*
X75251Y234478D01*
X75215Y234569D01*
X75178Y234679D01*
X75051Y234934D01*
X74869Y235189D01*
X74851Y235207D01*
X74814Y235244D01*
X74760Y235298D01*
X74687Y235371D01*
X74577Y235462D01*
X74468Y235535D01*
X74176Y235699D01*
X74158Y235717D01*
X74104Y235736D01*
X74013Y235772D01*
X73903Y235808D01*
X73776Y235845D01*
X73612Y235863D01*
X73429Y235899D01*
D02*
G37*
G36*
X8748Y235827D02*
X8439D01*
X8311Y235808D01*
X8165Y235790D01*
X7983Y235772D01*
X7801Y235717D01*
X7619Y235663D01*
X7437Y235572D01*
X7418Y235553D01*
X7364Y235517D01*
X7273Y235462D01*
X7181Y235389D01*
X7054Y235298D01*
X6926Y235189D01*
X6690Y234897D01*
X6671Y234879D01*
X6635Y234824D01*
X6599Y234733D01*
X6526Y234624D01*
X6453Y234478D01*
X6398Y234314D01*
X6325Y234132D01*
X6271Y233932D01*
Y233913D01*
X6252Y233841D01*
X6234Y233731D01*
X6216Y233586D01*
X6179Y233403D01*
X6161Y233203D01*
X6143Y232766D01*
Y232729D01*
Y232638D01*
X6161Y232492D01*
Y232310D01*
X6179Y232110D01*
X6216Y231873D01*
X6307Y231417D01*
Y231399D01*
X6343Y231326D01*
X6380Y231217D01*
X6435Y231089D01*
X6580Y230780D01*
X6781Y230470D01*
X6799Y230452D01*
X6835Y230415D01*
X6908Y230342D01*
X6999Y230270D01*
X7109Y230178D01*
X7236Y230087D01*
X7528Y229905D01*
X7546D01*
X7601Y229869D01*
X7710Y229850D01*
X7819Y229814D01*
X7983Y229778D01*
X8147Y229759D01*
X8348Y229723D01*
X8657D01*
X8767Y229741D01*
X8931Y229759D01*
X9095Y229778D01*
X9277Y229832D01*
X9459Y229887D01*
X9641Y229960D01*
X9659Y229978D01*
X9714Y230014D01*
X9805Y230069D01*
X9915Y230142D01*
X10024Y230233D01*
X10151Y230361D01*
X10388Y230634D01*
X10406Y230652D01*
X10443Y230707D01*
X10479Y230798D01*
X10552Y230907D01*
X10625Y231053D01*
X10680Y231217D01*
X10753Y231399D01*
X10807Y231599D01*
Y231618D01*
X10825Y231691D01*
X10862Y231818D01*
X10880Y231964D01*
X10917Y232128D01*
X10935Y232328D01*
X10953Y232766D01*
Y232802D01*
Y232893D01*
Y233039D01*
X10935Y233221D01*
X10917Y233421D01*
X10880Y233658D01*
X10825Y233877D01*
X10771Y234096D01*
Y234114D01*
X10734Y234187D01*
X10698Y234296D01*
X10643Y234442D01*
X10498Y234733D01*
X10406Y234897D01*
X10297Y235043D01*
X10279Y235061D01*
X10243Y235098D01*
X10170Y235171D01*
X10079Y235262D01*
X9969Y235353D01*
X9842Y235444D01*
X9532Y235626D01*
X9514Y235644D01*
X9459Y235663D01*
X9368Y235699D01*
X9240Y235736D01*
X9095Y235772D01*
X8931Y235790D01*
X8748Y235827D01*
D02*
G37*
G36*
X-18964D02*
X-19274D01*
X-19401Y235808D01*
X-19547Y235790D01*
X-19729Y235772D01*
X-19912Y235717D01*
X-20094Y235663D01*
X-20276Y235572D01*
X-20294Y235553D01*
X-20349Y235517D01*
X-20440Y235462D01*
X-20531Y235389D01*
X-20659Y235298D01*
X-20786Y235189D01*
X-21023Y234897D01*
X-21041Y234879D01*
X-21078Y234824D01*
X-21114Y234733D01*
X-21187Y234624D01*
X-21260Y234478D01*
X-21315Y234314D01*
X-21387Y234132D01*
X-21442Y233932D01*
Y233913D01*
X-21460Y233841D01*
X-21479Y233731D01*
X-21497Y233586D01*
X-21533Y233403D01*
X-21551Y233203D01*
X-21570Y232766D01*
Y232729D01*
Y232638D01*
X-21551Y232492D01*
Y232310D01*
X-21533Y232110D01*
X-21497Y231873D01*
X-21406Y231417D01*
Y231399D01*
X-21369Y231326D01*
X-21333Y231217D01*
X-21278Y231089D01*
X-21132Y230780D01*
X-20932Y230470D01*
X-20914Y230452D01*
X-20877Y230415D01*
X-20804Y230342D01*
X-20713Y230270D01*
X-20604Y230178D01*
X-20476Y230087D01*
X-20185Y229905D01*
X-20167D01*
X-20112Y229869D01*
X-20003Y229850D01*
X-19893Y229814D01*
X-19729Y229778D01*
X-19566Y229759D01*
X-19365Y229723D01*
X-19055D01*
X-18946Y229741D01*
X-18782Y229759D01*
X-18618Y229778D01*
X-18436Y229832D01*
X-18254Y229887D01*
X-18071Y229960D01*
X-18053Y229978D01*
X-17999Y230014D01*
X-17907Y230069D01*
X-17798Y230142D01*
X-17689Y230233D01*
X-17561Y230361D01*
X-17324Y230634D01*
X-17306Y230652D01*
X-17270Y230707D01*
X-17233Y230798D01*
X-17160Y230907D01*
X-17087Y231053D01*
X-17033Y231217D01*
X-16960Y231399D01*
X-16905Y231599D01*
Y231618D01*
X-16887Y231691D01*
X-16851Y231818D01*
X-16833Y231964D01*
X-16796Y232128D01*
X-16778Y232328D01*
X-16760Y232766D01*
Y232802D01*
Y232893D01*
Y233039D01*
X-16778Y233221D01*
X-16796Y233421D01*
X-16833Y233658D01*
X-16887Y233877D01*
X-16942Y234096D01*
Y234114D01*
X-16978Y234187D01*
X-17015Y234296D01*
X-17069Y234442D01*
X-17215Y234733D01*
X-17306Y234897D01*
X-17415Y235043D01*
X-17434Y235061D01*
X-17470Y235098D01*
X-17543Y235171D01*
X-17634Y235262D01*
X-17743Y235353D01*
X-17871Y235444D01*
X-18181Y235626D01*
X-18199Y235644D01*
X-18254Y235663D01*
X-18345Y235699D01*
X-18472Y235736D01*
X-18618Y235772D01*
X-18782Y235790D01*
X-18964Y235827D01*
D02*
G37*
G36*
X271154Y235781D02*
X270844D01*
X270662Y235745D01*
X270498Y235726D01*
X270352Y235690D01*
X270225Y235653D01*
X270134Y235617D01*
X270079Y235599D01*
X270061Y235580D01*
X269751Y235398D01*
X269624Y235307D01*
X269514Y235216D01*
X269423Y235125D01*
X269350Y235052D01*
X269314Y235016D01*
X269296Y234997D01*
X269186Y234852D01*
X269095Y234688D01*
X268949Y234396D01*
X268895Y234250D01*
X268858Y234141D01*
X268822Y234068D01*
Y234050D01*
X268767Y233831D01*
X268713Y233613D01*
X268676Y233376D01*
X268658Y233175D01*
X268640Y232993D01*
Y232847D01*
Y232756D01*
Y232720D01*
X268658Y232283D01*
X268676Y232082D01*
X268713Y231918D01*
X268731Y231772D01*
X268767Y231645D01*
X268786Y231572D01*
Y231554D01*
X268840Y231353D01*
X268913Y231171D01*
X268968Y231007D01*
X269040Y230861D01*
X269113Y230752D01*
X269150Y230661D01*
X269186Y230606D01*
X269204Y230588D01*
X269441Y230315D01*
X269569Y230187D01*
X269678Y230096D01*
X269788Y230023D01*
X269879Y229969D01*
X269933Y229932D01*
X269952Y229914D01*
X270134Y229841D01*
X270316Y229786D01*
X270498Y229732D01*
X270662Y229714D01*
X270826Y229695D01*
X270935Y229677D01*
X271245D01*
X271446Y229714D01*
X271610Y229732D01*
X271774Y229768D01*
X271883Y229805D01*
X271992Y229823D01*
X272047Y229859D01*
X272065D01*
X272357Y230042D01*
X272484Y230133D01*
X272593Y230224D01*
X272685Y230297D01*
X272757Y230370D01*
X272794Y230406D01*
X272812Y230424D01*
X273012Y230734D01*
X273158Y231044D01*
X273213Y231171D01*
X273249Y231281D01*
X273286Y231353D01*
Y231372D01*
X273377Y231827D01*
X273413Y232064D01*
X273432Y232264D01*
Y232447D01*
X273450Y232592D01*
Y232683D01*
Y232720D01*
X273432Y233157D01*
X273413Y233358D01*
X273377Y233540D01*
X273359Y233686D01*
X273341Y233795D01*
X273322Y233868D01*
Y233886D01*
X273268Y234086D01*
X273195Y234269D01*
X273140Y234433D01*
X273067Y234578D01*
X272994Y234688D01*
X272958Y234779D01*
X272921Y234834D01*
X272903Y234852D01*
X272666Y235143D01*
X272539Y235252D01*
X272411Y235344D01*
X272320Y235417D01*
X272229Y235471D01*
X272174Y235508D01*
X272156Y235526D01*
X271974Y235617D01*
X271792Y235672D01*
X271610Y235726D01*
X271427Y235745D01*
X271282Y235763D01*
X271154Y235781D01*
D02*
G37*
G36*
X234204D02*
X233894D01*
X233712Y235745D01*
X233548Y235726D01*
X233402Y235690D01*
X233275Y235653D01*
X233184Y235617D01*
X233129Y235599D01*
X233111Y235580D01*
X232801Y235398D01*
X232673Y235307D01*
X232564Y235216D01*
X232473Y235125D01*
X232400Y235052D01*
X232364Y235016D01*
X232346Y234997D01*
X232236Y234852D01*
X232145Y234688D01*
X231999Y234396D01*
X231945Y234250D01*
X231908Y234141D01*
X231872Y234068D01*
Y234050D01*
X231817Y233831D01*
X231762Y233613D01*
X231726Y233376D01*
X231708Y233175D01*
X231690Y232993D01*
Y232847D01*
Y232756D01*
Y232720D01*
X231708Y232283D01*
X231726Y232082D01*
X231762Y231918D01*
X231781Y231772D01*
X231817Y231645D01*
X231835Y231572D01*
Y231554D01*
X231890Y231353D01*
X231963Y231171D01*
X232017Y231007D01*
X232090Y230861D01*
X232163Y230752D01*
X232200Y230661D01*
X232236Y230606D01*
X232254Y230588D01*
X232491Y230315D01*
X232619Y230187D01*
X232728Y230096D01*
X232837Y230023D01*
X232928Y229969D01*
X232983Y229932D01*
X233001Y229914D01*
X233184Y229841D01*
X233366Y229786D01*
X233548Y229732D01*
X233712Y229714D01*
X233876Y229695D01*
X233985Y229677D01*
X234295D01*
X234495Y229714D01*
X234659Y229732D01*
X234823Y229768D01*
X234933Y229805D01*
X235042Y229823D01*
X235097Y229859D01*
X235115D01*
X235406Y230042D01*
X235534Y230133D01*
X235643Y230224D01*
X235734Y230297D01*
X235807Y230370D01*
X235844Y230406D01*
X235862Y230424D01*
X236062Y230734D01*
X236208Y231044D01*
X236263Y231171D01*
X236299Y231281D01*
X236336Y231353D01*
Y231372D01*
X236427Y231827D01*
X236463Y232064D01*
X236481Y232264D01*
Y232447D01*
X236500Y232592D01*
Y232683D01*
Y232720D01*
X236481Y233157D01*
X236463Y233358D01*
X236427Y233540D01*
X236408Y233686D01*
X236390Y233795D01*
X236372Y233868D01*
Y233886D01*
X236317Y234086D01*
X236245Y234269D01*
X236190Y234433D01*
X236117Y234578D01*
X236044Y234688D01*
X236008Y234779D01*
X235971Y234834D01*
X235953Y234852D01*
X235716Y235143D01*
X235589Y235252D01*
X235461Y235344D01*
X235370Y235417D01*
X235279Y235471D01*
X235224Y235508D01*
X235206Y235526D01*
X235024Y235617D01*
X234842Y235672D01*
X234659Y235726D01*
X234477Y235745D01*
X234331Y235763D01*
X234204Y235781D01*
D02*
G37*
G36*
X215528Y235763D02*
X215419D01*
X215109Y235745D01*
X214964Y235726D01*
X214836D01*
X214727Y235708D01*
X214654Y235690D01*
X214599Y235672D01*
X214581D01*
X214271Y235599D01*
X214125Y235544D01*
X214016Y235508D01*
X213925Y235471D01*
X213834Y235453D01*
X213797Y235417D01*
X213779D01*
Y231609D01*
X214034Y231281D01*
X214271Y230989D01*
X214472Y230734D01*
X214672Y230534D01*
X214836Y230370D01*
X214945Y230260D01*
X215018Y230187D01*
X215055Y230169D01*
X215273Y230005D01*
X215492Y229896D01*
X215674Y229805D01*
X215856Y229750D01*
X216002Y229714D01*
X216111Y229695D01*
X216203D01*
X216494Y229732D01*
X216731Y229805D01*
X216950Y229932D01*
X217113Y230060D01*
X217259Y230187D01*
X217369Y230315D01*
X217423Y230388D01*
X217442Y230424D01*
X217587Y230734D01*
X217697Y231080D01*
X217770Y231445D01*
X217824Y231809D01*
X217861Y232137D01*
Y232283D01*
X217879Y232410D01*
Y232501D01*
Y232574D01*
Y232629D01*
Y232647D01*
Y232939D01*
X217842Y233212D01*
X217824Y233467D01*
X217770Y233686D01*
X217733Y233904D01*
X217678Y234105D01*
X217624Y234269D01*
X217551Y234433D01*
X217496Y234560D01*
X217442Y234669D01*
X217387Y234779D01*
X217332Y234852D01*
X217259Y234961D01*
X217241Y234997D01*
X216968Y235252D01*
X216676Y235435D01*
X216385Y235580D01*
X216075Y235672D01*
X215820Y235726D01*
X215619Y235745D01*
X215528Y235763D01*
D02*
G37*
G36*
X309853Y233540D02*
X308159D01*
X307959Y233522D01*
X307776Y233503D01*
X307612Y233485D01*
X307485Y233449D01*
X307394Y233431D01*
X307321Y233412D01*
X307303D01*
X306975Y233303D01*
X306847Y233248D01*
X306719Y233175D01*
X306628Y233139D01*
X306556Y233084D01*
X306519Y233066D01*
X306501Y233048D01*
X306282Y232866D01*
X306136Y232702D01*
X306082Y232611D01*
X306045Y232556D01*
X306009Y232520D01*
Y232501D01*
X305900Y232246D01*
X305845Y232009D01*
X305827Y231918D01*
Y231845D01*
Y231791D01*
Y231772D01*
X305845Y231426D01*
X305918Y231135D01*
X306027Y230880D01*
X306136Y230679D01*
X306246Y230515D01*
X306355Y230406D01*
X306428Y230333D01*
X306446Y230315D01*
X306701Y230169D01*
X306993Y230060D01*
X307303Y229969D01*
X307612Y229914D01*
X307886Y229878D01*
X308013D01*
X308122Y229859D01*
X309853D01*
Y233540D01*
D02*
G37*
G36*
Y238095D02*
X308141D01*
X307940Y238077D01*
X307758Y238058D01*
X307612Y238040D01*
X307485Y238004D01*
X307394Y237985D01*
X307339Y237967D01*
X307321D01*
X307175Y237913D01*
X307048Y237858D01*
X306920Y237803D01*
X306829Y237749D01*
X306756Y237694D01*
X306701Y237658D01*
X306683Y237639D01*
X306665Y237621D01*
X306501Y237457D01*
X306392Y237293D01*
X306355Y237239D01*
X306337Y237184D01*
X306319Y237147D01*
Y237129D01*
X306246Y236911D01*
X306228Y236728D01*
X306209Y236637D01*
Y236583D01*
Y236546D01*
Y236528D01*
X306228Y236218D01*
X306264Y236072D01*
X306282Y235963D01*
X306319Y235854D01*
X306355Y235781D01*
X306373Y235745D01*
Y235726D01*
X306519Y235508D01*
X306665Y235325D01*
X306774Y235216D01*
X306811Y235198D01*
X306829Y235180D01*
X307066Y235034D01*
X307284Y234943D01*
X307375Y234906D01*
X307448Y234870D01*
X307503Y234852D01*
X307521D01*
X307831Y234797D01*
X307977Y234779D01*
X308122D01*
X308232Y234761D01*
X309853D01*
Y238095D01*
D02*
G37*
G36*
X206528Y235854D02*
X206163D01*
X205981Y235817D01*
X205817Y235799D01*
X205690Y235763D01*
X205580Y235726D01*
X205489Y235690D01*
X205434Y235672D01*
X205416Y235653D01*
X205125Y235489D01*
X205015Y235417D01*
X204906Y235325D01*
X204833Y235252D01*
X204779Y235198D01*
X204742Y235161D01*
X204724Y235143D01*
X204542Y234888D01*
X204414Y234633D01*
X204378Y234524D01*
X204341Y234433D01*
X204323Y234378D01*
Y234360D01*
X204232Y234014D01*
X204214Y233850D01*
X204196Y233704D01*
Y233576D01*
Y233467D01*
Y233394D01*
Y233376D01*
X208532D01*
X208477Y233758D01*
X208459Y233941D01*
X208423Y234086D01*
X208386Y234214D01*
X208350Y234305D01*
X208331Y234360D01*
Y234378D01*
X208186Y234688D01*
X208113Y234834D01*
X208040Y234943D01*
X207967Y235034D01*
X207912Y235107D01*
X207894Y235143D01*
X207876Y235161D01*
X207657Y235380D01*
X207439Y235544D01*
X207348Y235599D01*
X207275Y235635D01*
X207238Y235672D01*
X207220D01*
X206910Y235781D01*
X206765Y235817D01*
X206637Y235836D01*
X206528Y235854D01*
D02*
G37*
G36*
X298867Y235781D02*
X298557D01*
X298375Y235745D01*
X298211Y235726D01*
X298065Y235690D01*
X297937Y235653D01*
X297846Y235617D01*
X297792Y235599D01*
X297774Y235580D01*
X297464Y235398D01*
X297336Y235307D01*
X297227Y235216D01*
X297136Y235125D01*
X297063Y235052D01*
X297026Y235016D01*
X297008Y234997D01*
X296899Y234852D01*
X296808Y234688D01*
X296662Y234396D01*
X296607Y234250D01*
X296571Y234141D01*
X296534Y234068D01*
Y234050D01*
X296480Y233831D01*
X296425Y233613D01*
X296389Y233376D01*
X296371Y233175D01*
X296352Y232993D01*
Y232847D01*
Y232756D01*
Y232720D01*
X296371Y232283D01*
X296389Y232082D01*
X296425Y231918D01*
X296443Y231772D01*
X296480Y231645D01*
X296498Y231572D01*
Y231554D01*
X296553Y231353D01*
X296626Y231171D01*
X296680Y231007D01*
X296753Y230861D01*
X296826Y230752D01*
X296863Y230661D01*
X296899Y230606D01*
X296917Y230588D01*
X297154Y230315D01*
X297282Y230187D01*
X297391Y230096D01*
X297500Y230023D01*
X297591Y229969D01*
X297646Y229932D01*
X297664Y229914D01*
X297846Y229841D01*
X298029Y229786D01*
X298211Y229732D01*
X298375Y229714D01*
X298539Y229695D01*
X298648Y229677D01*
X298958D01*
X299158Y229714D01*
X299322Y229732D01*
X299486Y229768D01*
X299595Y229805D01*
X299705Y229823D01*
X299760Y229859D01*
X299778D01*
X300069Y230042D01*
X300197Y230133D01*
X300306Y230224D01*
X300397Y230297D01*
X300470Y230370D01*
X300506Y230406D01*
X300525Y230424D01*
X300725Y230734D01*
X300871Y231044D01*
X300926Y231171D01*
X300962Y231281D01*
X300998Y231353D01*
Y231372D01*
X301090Y231827D01*
X301126Y232064D01*
X301144Y232264D01*
Y232447D01*
X301162Y232592D01*
Y232683D01*
Y232720D01*
X301144Y233157D01*
X301126Y233358D01*
X301090Y233540D01*
X301071Y233686D01*
X301053Y233795D01*
X301035Y233868D01*
Y233886D01*
X300980Y234086D01*
X300907Y234269D01*
X300853Y234433D01*
X300780Y234578D01*
X300707Y234688D01*
X300671Y234779D01*
X300634Y234834D01*
X300616Y234852D01*
X300379Y235143D01*
X300251Y235252D01*
X300124Y235344D01*
X300033Y235417D01*
X299942Y235471D01*
X299887Y235508D01*
X299869Y235526D01*
X299687Y235617D01*
X299504Y235672D01*
X299322Y235726D01*
X299140Y235745D01*
X298994Y235763D01*
X298867Y235781D01*
D02*
G37*
G36*
X64174Y235808D02*
X64064D01*
X63973Y235790D01*
X63773Y235772D01*
X63518Y235717D01*
X63208Y235626D01*
X62916Y235480D01*
X62625Y235298D01*
X62352Y235043D01*
X62334Y235007D01*
X62261Y234897D01*
X62206Y234824D01*
X62151Y234715D01*
X62097Y234606D01*
X62042Y234478D01*
X61969Y234314D01*
X61914Y234150D01*
X61860Y233950D01*
X61823Y233731D01*
X61769Y233513D01*
X61750Y233258D01*
X61714Y232984D01*
Y232693D01*
Y232675D01*
Y232620D01*
Y232547D01*
Y232456D01*
X61732Y232328D01*
Y232183D01*
X61769Y231855D01*
X61823Y231490D01*
X61896Y231126D01*
X62006Y230780D01*
X62151Y230470D01*
X62169Y230434D01*
X62224Y230361D01*
X62334Y230233D01*
X62479Y230105D01*
X62643Y229978D01*
X62862Y229850D01*
X63099Y229778D01*
X63390Y229741D01*
X63481D01*
X63591Y229759D01*
X63736Y229796D01*
X63919Y229850D01*
X64101Y229942D01*
X64319Y230051D01*
X64538Y230215D01*
X64574Y230233D01*
X64647Y230306D01*
X64757Y230415D01*
X64921Y230579D01*
X65121Y230780D01*
X65321Y231035D01*
X65558Y231326D01*
X65813Y231654D01*
Y235462D01*
X65795D01*
X65759Y235499D01*
X65668Y235517D01*
X65577Y235553D01*
X65467Y235590D01*
X65321Y235644D01*
X65012Y235717D01*
X64994D01*
X64939Y235736D01*
X64866Y235754D01*
X64757Y235772D01*
X64629D01*
X64483Y235790D01*
X64174Y235808D01*
D02*
G37*
G36*
X-28566Y233586D02*
X-30261D01*
Y229905D01*
X-28530D01*
X-28420Y229923D01*
X-28293D01*
X-28019Y229960D01*
X-27710Y230014D01*
X-27400Y230105D01*
X-27108Y230215D01*
X-26853Y230361D01*
X-26835Y230379D01*
X-26762Y230452D01*
X-26653Y230561D01*
X-26544Y230725D01*
X-26434Y230925D01*
X-26325Y231181D01*
X-26252Y231472D01*
X-26234Y231818D01*
Y231836D01*
Y231891D01*
Y231964D01*
X-26252Y232055D01*
X-26307Y232292D01*
X-26416Y232547D01*
Y232565D01*
X-26453Y232602D01*
X-26489Y232656D01*
X-26544Y232747D01*
X-26689Y232911D01*
X-26908Y233094D01*
X-26926Y233112D01*
X-26963Y233130D01*
X-27036Y233185D01*
X-27127Y233221D01*
X-27254Y233294D01*
X-27382Y233349D01*
X-27710Y233458D01*
X-27728D01*
X-27801Y233476D01*
X-27892Y233494D01*
X-28019Y233531D01*
X-28183Y233549D01*
X-28366Y233567D01*
X-28566Y233586D01*
D02*
G37*
G36*
X-28548Y238141D02*
X-30261D01*
Y234806D01*
X-28639D01*
X-28530Y234824D01*
X-28384D01*
X-28238Y234843D01*
X-27928Y234897D01*
X-27910D01*
X-27856Y234916D01*
X-27783Y234952D01*
X-27692Y234988D01*
X-27473Y235080D01*
X-27236Y235225D01*
X-27218Y235244D01*
X-27181Y235262D01*
X-27072Y235371D01*
X-26926Y235553D01*
X-26781Y235772D01*
Y235790D01*
X-26762Y235827D01*
X-26726Y235899D01*
X-26689Y236009D01*
X-26671Y236118D01*
X-26635Y236264D01*
X-26617Y236574D01*
Y236592D01*
Y236628D01*
Y236683D01*
X-26635Y236774D01*
X-26653Y236956D01*
X-26726Y237175D01*
Y237193D01*
X-26744Y237229D01*
X-26762Y237284D01*
X-26799Y237339D01*
X-26908Y237503D01*
X-27072Y237667D01*
X-27090Y237685D01*
X-27108Y237703D01*
X-27163Y237740D01*
X-27236Y237794D01*
X-27327Y237849D01*
X-27455Y237904D01*
X-27582Y237958D01*
X-27728Y238013D01*
X-27746D01*
X-27801Y238031D01*
X-27892Y238049D01*
X-28019Y238086D01*
X-28165Y238104D01*
X-28348Y238122D01*
X-28548Y238141D01*
D02*
G37*
G36*
X102764Y232419D02*
X100759D01*
X100632Y232401D01*
X100340Y232383D01*
X100031Y232310D01*
X100012D01*
X99976Y232292D01*
X99903Y232274D01*
X99812Y232237D01*
X99593Y232128D01*
X99393Y232000D01*
X99375D01*
X99357Y231964D01*
X99265Y231873D01*
X99138Y231709D01*
X99028Y231527D01*
Y231508D01*
X99010Y231472D01*
X98992Y231417D01*
X98974Y231345D01*
X98937Y231144D01*
X98919Y230907D01*
Y230889D01*
Y230871D01*
X98937Y230761D01*
X98956Y230616D01*
X98992Y230452D01*
Y230434D01*
X99010Y230415D01*
X99047Y230324D01*
X99120Y230197D01*
X99229Y230051D01*
X99265Y230033D01*
X99338Y229960D01*
X99484Y229869D01*
X99648Y229796D01*
X99666D01*
X99703Y229778D01*
X99757Y229759D01*
X99830D01*
X100031Y229723D01*
X100286Y229705D01*
X100377D01*
X100468Y229723D01*
X100614Y229741D01*
X100778Y229778D01*
X100978Y229832D01*
X101179Y229905D01*
X101415Y229996D01*
X101452Y230014D01*
X101525Y230051D01*
X101652Y230124D01*
X101816Y230233D01*
X102017Y230361D01*
X102253Y230525D01*
X102508Y230707D01*
X102764Y230944D01*
Y232419D01*
D02*
G37*
%LPD*%
D16*
X47313Y53150D02*
D03*
Y61024D02*
D03*
X39439Y53150D02*
D03*
Y61024D02*
D03*
X31565Y53150D02*
D03*
Y61024D02*
D03*
X23690Y53150D02*
D03*
Y61024D02*
D03*
X15816Y53150D02*
D03*
Y61024D02*
D03*
X7942Y53150D02*
D03*
Y61024D02*
D03*
X68Y53150D02*
D03*
X68Y61024D02*
D03*
X0Y0D02*
D03*
Y-7874D02*
D03*
X7874Y0D02*
D03*
Y-7874D02*
D03*
X15748Y0D02*
D03*
Y-7874D02*
D03*
X23622Y0D02*
D03*
Y-7874D02*
D03*
X31496Y0D02*
D03*
Y-7874D02*
D03*
X39370Y0D02*
D03*
Y-7874D02*
D03*
X47244Y0D02*
D03*
X47244Y-7874D02*
D03*
D17*
X-53849Y134173D02*
D03*
X-30660D02*
D03*
D23*
X61092Y56693D02*
D03*
X-13711Y56693D02*
D03*
X-13780Y-3543D02*
D03*
X61024Y-3543D02*
D03*
D27*
X-98357Y-40354D02*
D03*
X-105246D02*
D03*
X-91467D02*
D03*
X-125916D02*
D03*
X-112136D02*
D03*
X-119026D02*
D03*
Y157480D02*
D03*
X-112136D02*
D03*
X-125916D02*
D03*
D28*
X202011Y-121305D02*
D03*
D29*
X-135464Y183677D02*
D03*
X202036Y168670D02*
D03*
D30*
X-114189Y-4180D02*
D03*
Y130820D02*
D03*
X140811D02*
D03*
Y-4180D02*
D03*
X-63439Y72835D02*
D03*
Y27559D02*
D03*
D31*
X172411Y138720D02*
D03*
Y148720D02*
D03*
X182411D02*
D03*
Y138720D02*
D03*
X172411Y118720D02*
D03*
Y128720D02*
D03*
X182411D02*
D03*
Y-81280D02*
D03*
Y-91280D02*
D03*
Y-101280D02*
D03*
X172411D02*
D03*
Y-91280D02*
D03*
Y-81280D02*
D03*
X182411Y28720D02*
D03*
Y48720D02*
D03*
Y38720D02*
D03*
Y58720D02*
D03*
Y68720D02*
D03*
Y78720D02*
D03*
Y88720D02*
D03*
Y98720D02*
D03*
Y108720D02*
D03*
Y118720D02*
D03*
X172411Y18720D02*
D03*
Y28720D02*
D03*
Y48720D02*
D03*
Y38720D02*
D03*
Y58720D02*
D03*
Y68720D02*
D03*
Y78720D02*
D03*
Y88720D02*
D03*
Y98720D02*
D03*
Y108720D02*
D03*
Y8720D02*
D03*
Y-11280D02*
D03*
Y-1280D02*
D03*
Y-21280D02*
D03*
Y-31280D02*
D03*
Y-41280D02*
D03*
Y-51280D02*
D03*
Y-61280D02*
D03*
Y-71280D02*
D03*
X182411D02*
D03*
Y-61280D02*
D03*
Y-51280D02*
D03*
Y-41280D02*
D03*
Y-31280D02*
D03*
Y-21280D02*
D03*
Y-1280D02*
D03*
Y-11280D02*
D03*
Y8720D02*
D03*
Y18720D02*
D03*
X192411Y138720D02*
D03*
Y148720D02*
D03*
X202411D02*
D03*
Y138720D02*
D03*
X192411Y118720D02*
D03*
Y128720D02*
D03*
X202411D02*
D03*
Y-81280D02*
D03*
Y-91280D02*
D03*
Y-101280D02*
D03*
X192411D02*
D03*
Y-91280D02*
D03*
Y-81280D02*
D03*
X202411Y28720D02*
D03*
Y48720D02*
D03*
Y38720D02*
D03*
Y58720D02*
D03*
Y68720D02*
D03*
Y78720D02*
D03*
Y88720D02*
D03*
Y98720D02*
D03*
Y108720D02*
D03*
Y118720D02*
D03*
X192411Y18720D02*
D03*
Y28720D02*
D03*
Y48720D02*
D03*
Y38720D02*
D03*
Y58720D02*
D03*
Y68720D02*
D03*
Y78720D02*
D03*
Y88720D02*
D03*
Y98720D02*
D03*
Y108720D02*
D03*
Y8720D02*
D03*
Y-11280D02*
D03*
Y-1280D02*
D03*
Y-21280D02*
D03*
Y-31280D02*
D03*
Y-41280D02*
D03*
Y-51280D02*
D03*
Y-61280D02*
D03*
Y-71280D02*
D03*
X202411D02*
D03*
Y-61280D02*
D03*
Y-51280D02*
D03*
Y-41280D02*
D03*
Y-31280D02*
D03*
Y-21280D02*
D03*
Y-1280D02*
D03*
Y-11280D02*
D03*
Y8720D02*
D03*
Y18720D02*
D03*
D32*
X-85562Y133858D02*
D03*
X-65876D02*
D03*
X121131Y-29528D02*
D03*
X105383D02*
D03*
D33*
X-58888Y141732D02*
D03*
X-25620D02*
D03*
D34*
X-49636Y128740D02*
D03*
X-44715D02*
D03*
X-34872D02*
D03*
X-39794D02*
D03*
M02*
