G04*
G04 #@! TF.GenerationSoftware,Altium Limited,Altium Designer,19.1.7 (138)*
G04*
G04 Layer_Color=65535*
%FSLAX25Y25*%
%MOIN*%
G70*
G01*
G75*
%ADD10C,0.02000*%
%ADD11C,0.01000*%
%ADD12C,0.00800*%
%ADD13C,0.00787*%
%ADD14C,0.00600*%
G36*
X20796Y261927D02*
X20942Y261909D01*
X21088Y261854D01*
X21106D01*
X21124Y261836D01*
X21215Y261781D01*
X21325Y261708D01*
X21434Y261599D01*
X21470Y261581D01*
X21525Y261508D01*
X21616Y261399D01*
X21689Y261253D01*
X21707Y261216D01*
X21744Y261125D01*
X21762Y260980D01*
X21780Y260816D01*
Y260797D01*
Y260779D01*
X21762Y260670D01*
X21744Y260524D01*
X21689Y260378D01*
X21671Y260342D01*
X21616Y260251D01*
X21543Y260141D01*
X21434Y260014D01*
X21416Y259996D01*
X21343Y259923D01*
X21233Y259850D01*
X21088Y259777D01*
X21051Y259759D01*
X20960Y259740D01*
X20814Y259722D01*
X20650Y259704D01*
X20614D01*
X20505Y259722D01*
X20359Y259740D01*
X20213Y259777D01*
X20177Y259795D01*
X20086Y259850D01*
X19976Y259923D01*
X19849Y260014D01*
X19830Y260050D01*
X19758Y260123D01*
X19685Y260232D01*
X19612Y260378D01*
Y260397D01*
X19594Y260415D01*
X19575Y260506D01*
X19557Y260651D01*
X19539Y260816D01*
Y260834D01*
Y260852D01*
X19557Y260961D01*
X19575Y261107D01*
X19612Y261253D01*
Y261271D01*
X19630Y261289D01*
X19685Y261380D01*
X19758Y261490D01*
X19849Y261599D01*
X19885Y261635D01*
X19958Y261690D01*
X20067Y261781D01*
X20213Y261854D01*
X20231D01*
X20249Y261872D01*
X20341Y261909D01*
X20486Y261927D01*
X20650Y261945D01*
X20687D01*
X20796Y261927D01*
D02*
G37*
G36*
X12214Y261125D02*
X12433Y261107D01*
X12542D01*
X12634Y261089D01*
X12834Y261071D01*
X13071Y261034D01*
X13126D01*
X13198Y261016D01*
X13271D01*
X13472Y260980D01*
X13709Y260943D01*
X13763D01*
X13836Y260925D01*
X13909Y260907D01*
X14109Y260870D01*
X14310Y260834D01*
Y259522D01*
X14273D01*
X14200Y259558D01*
X14073Y259577D01*
X13909Y259613D01*
X13727Y259649D01*
X13508Y259704D01*
X13034Y259777D01*
X13016D01*
X12925Y259795D01*
X12816Y259813D01*
X12652Y259832D01*
X12470Y259850D01*
X12251Y259868D01*
X11814Y259886D01*
X11613D01*
X11395Y259868D01*
X11121Y259832D01*
X10812Y259777D01*
X10502Y259704D01*
X10228Y259595D01*
X9973Y259449D01*
X9955Y259431D01*
X9882Y259376D01*
X9791Y259285D01*
X9682Y259157D01*
X9573Y258994D01*
X9482Y258793D01*
X9409Y258574D01*
X9390Y258319D01*
Y258301D01*
Y258246D01*
X9409Y258174D01*
X9427Y258064D01*
X9500Y257827D01*
X9554Y257700D01*
X9627Y257572D01*
X9646Y257554D01*
X9664Y257518D01*
X9718Y257463D01*
X9791Y257390D01*
X9992Y257208D01*
X10247Y257008D01*
X10265Y256989D01*
X10320Y256971D01*
X10392Y256916D01*
X10520Y256862D01*
X10648Y256789D01*
X10793Y256716D01*
X11158Y256570D01*
X11176D01*
X11249Y256534D01*
X11340Y256497D01*
X11486Y256443D01*
X11631Y256388D01*
X11795Y256315D01*
X12178Y256151D01*
X12196D01*
X12269Y256115D01*
X12378Y256078D01*
X12506Y256024D01*
X12670Y255951D01*
X12834Y255878D01*
X13217Y255696D01*
X13235Y255678D01*
X13308Y255659D01*
X13399Y255605D01*
X13526Y255532D01*
X13818Y255331D01*
X14109Y255094D01*
X14128Y255076D01*
X14182Y255040D01*
X14255Y254967D01*
X14346Y254858D01*
X14437Y254748D01*
X14547Y254603D01*
X14747Y254275D01*
X14765Y254256D01*
X14784Y254183D01*
X14820Y254092D01*
X14875Y253965D01*
X14929Y253801D01*
X14966Y253600D01*
X14984Y253400D01*
X15002Y253163D01*
Y253127D01*
Y253036D01*
X14984Y252890D01*
X14966Y252708D01*
X14929Y252507D01*
X14856Y252270D01*
X14784Y252033D01*
X14674Y251815D01*
X14656Y251797D01*
X14620Y251724D01*
X14547Y251614D01*
X14456Y251487D01*
X14328Y251341D01*
X14182Y251177D01*
X14000Y251013D01*
X13800Y250867D01*
X13781Y250849D01*
X13709Y250813D01*
X13581Y250740D01*
X13435Y250649D01*
X13235Y250558D01*
X13016Y250467D01*
X12761Y250376D01*
X12470Y250303D01*
X12433D01*
X12342Y250266D01*
X12178Y250248D01*
X11959Y250212D01*
X11704Y250175D01*
X11413Y250157D01*
X11085Y250120D01*
X10484D01*
X10338Y250139D01*
X10210D01*
X9882Y250157D01*
X9809D01*
X9737Y250175D01*
X9627D01*
X9372Y250212D01*
X9081Y250248D01*
X9008D01*
X8935Y250266D01*
X8844D01*
X8607Y250303D01*
X8352Y250339D01*
X8334D01*
X8297Y250357D01*
X8224Y250376D01*
X8151Y250394D01*
X7951Y250448D01*
X7732Y250503D01*
Y251906D01*
X7769Y251888D01*
X7842Y251870D01*
X7969Y251833D01*
X8133Y251778D01*
X8334Y251706D01*
X8570Y251651D01*
X8826Y251596D01*
X9099Y251541D01*
X9135D01*
X9226Y251523D01*
X9390Y251505D01*
X9609Y251487D01*
X9864Y251450D01*
X10156Y251432D01*
X10484Y251414D01*
X11103D01*
X11267Y251432D01*
X11449D01*
X11650Y251469D01*
X11850Y251487D01*
X12050Y251523D01*
X12069D01*
X12142Y251541D01*
X12214Y251578D01*
X12342Y251596D01*
X12597Y251706D01*
X12852Y251833D01*
X12870Y251851D01*
X12907Y251870D01*
X12961Y251924D01*
X13034Y251979D01*
X13198Y252143D01*
X13326Y252361D01*
Y252380D01*
X13344Y252416D01*
X13381Y252489D01*
X13399Y252580D01*
X13435Y252689D01*
X13453Y252817D01*
X13472Y253090D01*
Y253108D01*
Y253163D01*
X13453Y253236D01*
X13435Y253345D01*
X13362Y253582D01*
X13308Y253692D01*
X13217Y253819D01*
X13198Y253837D01*
X13180Y253874D01*
X13126Y253928D01*
X13053Y254001D01*
X12961Y254092D01*
X12852Y254183D01*
X12579Y254366D01*
X12561Y254384D01*
X12506Y254402D01*
X12433Y254457D01*
X12324Y254511D01*
X12196Y254584D01*
X12050Y254657D01*
X11686Y254821D01*
X11668Y254839D01*
X11595Y254858D01*
X11504Y254894D01*
X11358Y254949D01*
X11212Y255003D01*
X11030Y255076D01*
X10648Y255222D01*
X10629Y255240D01*
X10556Y255258D01*
X10465Y255313D01*
X10338Y255368D01*
X10174Y255441D01*
X10010Y255514D01*
X9627Y255696D01*
X9609Y255714D01*
X9536Y255750D01*
X9445Y255787D01*
X9318Y255860D01*
X9190Y255951D01*
X9026Y256042D01*
X8716Y256279D01*
X8698Y256297D01*
X8662Y256333D01*
X8589Y256406D01*
X8498Y256516D01*
X8406Y256625D01*
X8297Y256771D01*
X8097Y257080D01*
X8079Y257099D01*
X8060Y257172D01*
X8024Y257263D01*
X7987Y257390D01*
X7933Y257554D01*
X7896Y257736D01*
X7878Y257955D01*
X7860Y258174D01*
Y258192D01*
Y258265D01*
X7878Y258374D01*
X7896Y258520D01*
X7915Y258684D01*
X7951Y258866D01*
X8006Y259066D01*
X8079Y259267D01*
X8097Y259285D01*
X8115Y259358D01*
X8188Y259449D01*
X8261Y259577D01*
X8352Y259722D01*
X8479Y259886D01*
X8625Y260050D01*
X8789Y260214D01*
X8807Y260232D01*
X8880Y260287D01*
X8990Y260360D01*
X9135Y260451D01*
X9299Y260560D01*
X9518Y260670D01*
X9755Y260779D01*
X10028Y260888D01*
X10064Y260907D01*
X10174Y260925D01*
X10320Y260961D01*
X10538Y261016D01*
X10812Y261071D01*
X11121Y261107D01*
X11468Y261125D01*
X11850Y261143D01*
X12032D01*
X12214Y261125D01*
D02*
G37*
G36*
X95516Y258629D02*
X95607D01*
X95735Y258611D01*
X96026Y258556D01*
X96336Y258465D01*
X96646Y258319D01*
X96956Y258137D01*
X97229Y257882D01*
X97265Y257846D01*
X97338Y257736D01*
X97429Y257572D01*
X97557Y257317D01*
X97685Y257008D01*
X97776Y256607D01*
X97848Y256151D01*
X97885Y255623D01*
Y250266D01*
X96464D01*
Y255514D01*
Y255532D01*
Y255550D01*
Y255605D01*
Y255678D01*
X96446Y255841D01*
X96427Y256060D01*
X96373Y256279D01*
X96318Y256516D01*
X96227Y256752D01*
X96099Y256935D01*
X96081Y256953D01*
X96026Y257008D01*
X95954Y257080D01*
X95826Y257172D01*
X95680Y257263D01*
X95498Y257335D01*
X95280Y257390D01*
X95024Y257408D01*
X94933D01*
X94860Y257390D01*
X94678Y257372D01*
X94496Y257317D01*
X94478D01*
X94460Y257299D01*
X94350Y257263D01*
X94186Y257172D01*
X93986Y257044D01*
X93968D01*
X93931Y257008D01*
X93876Y256971D01*
X93804Y256916D01*
X93621Y256752D01*
X93385Y256534D01*
X93366Y256516D01*
X93330Y256479D01*
X93275Y256406D01*
X93184Y256315D01*
X93075Y256188D01*
X92966Y256042D01*
X92838Y255896D01*
X92692Y255714D01*
Y250266D01*
X91271D01*
Y258502D01*
X92528D01*
X92583Y257172D01*
X92601Y257190D01*
X92638Y257244D01*
X92711Y257317D01*
X92802Y257408D01*
X93038Y257645D01*
X93275Y257864D01*
X93293Y257882D01*
X93330Y257919D01*
X93403Y257973D01*
X93494Y258028D01*
X93694Y258174D01*
X93931Y258319D01*
X93949D01*
X93986Y258356D01*
X94059Y258374D01*
X94132Y258429D01*
X94350Y258502D01*
X94587Y258575D01*
X94605D01*
X94642Y258593D01*
X94715D01*
X94806Y258611D01*
X95043Y258629D01*
X95298Y258647D01*
X95425D01*
X95516Y258629D01*
D02*
G37*
G36*
X49219Y258629D02*
X49402D01*
X49821Y258593D01*
X49839D01*
X49930Y258574D01*
X50039D01*
X50203Y258556D01*
X50385Y258520D01*
X50586Y258502D01*
X50823Y258447D01*
X51060Y258411D01*
Y257135D01*
X51023D01*
X50950Y257172D01*
X50823Y257190D01*
X50640Y257226D01*
X50458Y257263D01*
X50240Y257299D01*
X49784Y257372D01*
X49766D01*
X49675Y257390D01*
X49566Y257408D01*
X49420Y257427D01*
X49256D01*
X49092Y257445D01*
X48727Y257463D01*
X48545D01*
X48418Y257445D01*
X48126Y257427D01*
X47835Y257372D01*
X47816D01*
X47780Y257354D01*
X47707Y257335D01*
X47616Y257317D01*
X47434Y257226D01*
X47233Y257135D01*
X47197Y257117D01*
X47106Y257044D01*
X47015Y256935D01*
X46924Y256807D01*
X46905Y256771D01*
X46887Y256680D01*
X46851Y256552D01*
X46832Y256388D01*
Y256370D01*
Y256352D01*
X46851Y256260D01*
X46869Y256133D01*
X46905Y255987D01*
X46924Y255951D01*
X46978Y255878D01*
X47088Y255769D01*
X47233Y255641D01*
X47252D01*
X47270Y255605D01*
X47324Y255586D01*
X47397Y255532D01*
X47507Y255477D01*
X47616Y255422D01*
X47743Y255368D01*
X47889Y255295D01*
X47908D01*
X47962Y255258D01*
X48053Y255240D01*
X48181Y255186D01*
X48345Y255131D01*
X48527Y255076D01*
X48727Y255022D01*
X48964Y254949D01*
X49001Y254930D01*
X49092Y254912D01*
X49219Y254876D01*
X49402Y254803D01*
X49602Y254748D01*
X49802Y254657D01*
X50003Y254584D01*
X50203Y254493D01*
X50221Y254475D01*
X50294Y254457D01*
X50367Y254402D01*
X50495Y254347D01*
X50750Y254165D01*
X51005Y253965D01*
X51023Y253947D01*
X51060Y253910D01*
X51114Y253855D01*
X51187Y253783D01*
X51333Y253582D01*
X51406Y253455D01*
X51460Y253327D01*
Y253309D01*
X51479Y253272D01*
X51515Y253181D01*
X51533Y253090D01*
X51570Y252963D01*
X51588Y252835D01*
X51606Y252507D01*
Y252489D01*
Y252434D01*
Y252343D01*
X51588Y252252D01*
X51533Y251997D01*
X51442Y251724D01*
Y251706D01*
X51424Y251669D01*
X51388Y251596D01*
X51333Y251523D01*
X51205Y251323D01*
X51041Y251104D01*
X51023Y251086D01*
X51005Y251068D01*
X50950Y251013D01*
X50877Y250958D01*
X50677Y250813D01*
X50440Y250649D01*
X50422D01*
X50385Y250612D01*
X50313Y250594D01*
X50221Y250539D01*
X50003Y250448D01*
X49729Y250357D01*
X49711D01*
X49675Y250339D01*
X49584Y250321D01*
X49493Y250303D01*
X49383Y250266D01*
X49237Y250248D01*
X48946Y250193D01*
X48928D01*
X48873Y250175D01*
X48800D01*
X48691Y250157D01*
X48454Y250139D01*
X48163Y250120D01*
X47853D01*
X47652Y250139D01*
X47416D01*
X47161Y250157D01*
X46614Y250193D01*
X46577D01*
X46505Y250212D01*
X46359Y250230D01*
X46195Y250248D01*
X45976Y250284D01*
X45757Y250321D01*
X45266Y250430D01*
Y251742D01*
X45302D01*
X45393Y251706D01*
X45521Y251669D01*
X45703Y251614D01*
X45921Y251560D01*
X46158Y251505D01*
X46687Y251414D01*
X46723D01*
X46814Y251396D01*
X46942Y251378D01*
X47124D01*
X47343Y251359D01*
X47580Y251341D01*
X48108Y251323D01*
X48272D01*
X48454Y251341D01*
X48673Y251359D01*
X48928Y251396D01*
X49183Y251432D01*
X49420Y251505D01*
X49620Y251596D01*
X49638Y251614D01*
X49693Y251651D01*
X49784Y251706D01*
X49875Y251797D01*
X49966Y251906D01*
X50058Y252052D01*
X50112Y252216D01*
X50130Y252398D01*
Y252416D01*
Y252434D01*
X50112Y252525D01*
X50094Y252653D01*
X50039Y252781D01*
X50021Y252817D01*
X49985Y252890D01*
X49894Y252999D01*
X49748Y253127D01*
X49711Y253163D01*
X49657Y253181D01*
X49602Y253236D01*
X49511Y253272D01*
X49402Y253327D01*
X49256Y253400D01*
X49110Y253455D01*
X49092D01*
X49037Y253491D01*
X48946Y253527D01*
X48800Y253582D01*
X48636Y253637D01*
X48436Y253710D01*
X48217Y253783D01*
X47944Y253855D01*
X47926D01*
X47853Y253892D01*
X47743Y253910D01*
X47616Y253965D01*
X47452Y254019D01*
X47288Y254074D01*
X46924Y254220D01*
X46905Y254238D01*
X46851Y254256D01*
X46760Y254311D01*
X46650Y254366D01*
X46377Y254511D01*
X46104Y254712D01*
X46086Y254730D01*
X46049Y254767D01*
X45976Y254821D01*
X45903Y254912D01*
X45721Y255113D01*
X45557Y255386D01*
Y255404D01*
X45521Y255459D01*
X45502Y255532D01*
X45466Y255641D01*
X45430Y255769D01*
X45411Y255932D01*
X45375Y256115D01*
Y256297D01*
Y256315D01*
Y256352D01*
Y256424D01*
X45393Y256516D01*
X45411Y256625D01*
X45430Y256752D01*
X45521Y257044D01*
Y257062D01*
X45557Y257117D01*
X45594Y257190D01*
X45648Y257299D01*
X45721Y257408D01*
X45812Y257536D01*
X45940Y257682D01*
X46067Y257809D01*
X46086Y257827D01*
X46140Y257864D01*
X46231Y257937D01*
X46341Y258028D01*
X46486Y258119D01*
X46668Y258210D01*
X46869Y258319D01*
X47106Y258411D01*
X47142Y258429D01*
X47233Y258447D01*
X47361Y258483D01*
X47561Y258538D01*
X47798Y258574D01*
X48072Y258611D01*
X48399Y258629D01*
X48746Y258647D01*
X49074D01*
X49219Y258629D01*
D02*
G37*
G36*
X-5914Y258629D02*
X-5750Y258611D01*
X-5550Y258574D01*
X-5350Y258520D01*
X-5131Y258447D01*
X-4930Y258338D01*
X-4912Y258319D01*
X-4839Y258283D01*
X-4748Y258210D01*
X-4621Y258119D01*
X-4475Y258010D01*
X-4329Y257864D01*
X-4183Y257700D01*
X-4038Y257500D01*
X-4019Y257481D01*
X-3983Y257408D01*
X-3910Y257299D01*
X-3837Y257135D01*
X-3746Y256953D01*
X-3655Y256734D01*
X-3564Y256479D01*
X-3491Y256206D01*
Y256169D01*
X-3455Y256078D01*
X-3436Y255914D01*
X-3400Y255714D01*
X-3364Y255477D01*
X-3345Y255186D01*
X-3309Y254876D01*
Y254530D01*
Y254511D01*
Y254475D01*
Y254420D01*
Y254347D01*
X-3327Y254129D01*
X-3345Y253874D01*
X-3382Y253564D01*
X-3436Y253254D01*
X-3509Y252926D01*
X-3619Y252598D01*
X-3637Y252562D01*
X-3673Y252471D01*
X-3746Y252325D01*
X-3837Y252125D01*
X-3965Y251924D01*
X-4111Y251687D01*
X-4275Y251469D01*
X-4475Y251250D01*
X-4493Y251232D01*
X-4566Y251159D01*
X-4694Y251068D01*
X-4839Y250940D01*
X-5022Y250813D01*
X-5258Y250667D01*
X-5495Y250539D01*
X-5769Y250430D01*
X-5805Y250412D01*
X-5896Y250394D01*
X-6042Y250357D01*
X-6242Y250303D01*
X-6479Y250248D01*
X-6752Y250212D01*
X-7044Y250193D01*
X-7354Y250175D01*
X-7609D01*
X-7846Y250193D01*
X-8137Y250230D01*
X-8210D01*
X-8283Y250248D01*
X-8374Y250266D01*
X-8502D01*
X-8629Y250284D01*
X-8921Y250339D01*
Y246895D01*
X-10342D01*
Y258502D01*
X-9085D01*
X-8994Y257117D01*
Y257135D01*
X-8957Y257153D01*
X-8884Y257263D01*
X-8757Y257408D01*
X-8593Y257572D01*
X-8392Y257773D01*
X-8174Y257973D01*
X-7937Y258155D01*
X-7682Y258301D01*
X-7645Y258319D01*
X-7554Y258356D01*
X-7427Y258411D01*
X-7226Y258483D01*
X-7008Y258538D01*
X-6752Y258593D01*
X-6461Y258629D01*
X-6169Y258647D01*
X-6042D01*
X-5914Y258629D01*
D02*
G37*
G36*
X68314Y258629D02*
X68405D01*
X68533Y258611D01*
X68824Y258538D01*
X69134Y258447D01*
X69444Y258301D01*
X69753Y258083D01*
X69899Y257955D01*
X70027Y257809D01*
X70063Y257773D01*
X70081Y257718D01*
X70136Y257663D01*
X70172Y257572D01*
X70227Y257463D01*
X70300Y257335D01*
X70354Y257190D01*
X70409Y257026D01*
X70464Y256862D01*
X70518Y256661D01*
X70573Y256443D01*
X70610Y256188D01*
X70628Y255933D01*
X70646Y255659D01*
Y255368D01*
X69207D01*
Y255386D01*
Y255422D01*
Y255477D01*
Y255550D01*
X69188Y255732D01*
X69170Y255951D01*
X69134Y256206D01*
X69079Y256461D01*
X68988Y256716D01*
X68879Y256916D01*
X68861Y256935D01*
X68824Y256989D01*
X68733Y257080D01*
X68624Y257172D01*
X68478Y257244D01*
X68314Y257335D01*
X68113Y257390D01*
X67877Y257408D01*
X67767D01*
X67713Y257390D01*
X67530Y257372D01*
X67312Y257299D01*
X67294D01*
X67257Y257281D01*
X67203Y257263D01*
X67130Y257226D01*
X66929Y257117D01*
X66711Y256971D01*
X66692Y256953D01*
X66656Y256935D01*
X66601Y256880D01*
X66510Y256825D01*
X66310Y256625D01*
X66055Y256388D01*
X66036Y256370D01*
X66000Y256333D01*
X65927Y256260D01*
X65836Y256151D01*
X65727Y256024D01*
X65599Y255896D01*
X65472Y255732D01*
X65326Y255550D01*
Y250266D01*
X63886D01*
Y258502D01*
X65180D01*
X65216Y256971D01*
Y256989D01*
X65253Y257008D01*
X65344Y257117D01*
X65490Y257263D01*
X65672Y257463D01*
X65891Y257663D01*
X66128Y257882D01*
X66383Y258083D01*
X66656Y258246D01*
X66692Y258265D01*
X66783Y258301D01*
X66911Y258374D01*
X67111Y258447D01*
X67312Y258520D01*
X67567Y258593D01*
X67822Y258629D01*
X68095Y258647D01*
X68223D01*
X68314Y258629D01*
D02*
G37*
G36*
X58821Y258593D02*
X59022D01*
X59222Y258575D01*
X59641Y258520D01*
X59659D01*
X59732Y258502D01*
X59842Y258483D01*
X59987Y258447D01*
X60151Y258411D01*
X60334Y258356D01*
X60716Y258228D01*
Y256862D01*
X60698Y256880D01*
X60625Y256898D01*
X60516Y256953D01*
X60370Y257008D01*
X60206Y257080D01*
X60024Y257153D01*
X59623Y257263D01*
X59605D01*
X59532Y257281D01*
X59422Y257299D01*
X59277Y257335D01*
X59095Y257354D01*
X58912Y257372D01*
X58475Y257390D01*
X58384D01*
X58275Y257372D01*
X58147D01*
X57983Y257335D01*
X57801Y257299D01*
X57619Y257244D01*
X57437Y257172D01*
X57418D01*
X57364Y257135D01*
X57254Y257080D01*
X57145Y257026D01*
X57017Y256935D01*
X56872Y256825D01*
X56726Y256716D01*
X56580Y256570D01*
X56562Y256552D01*
X56525Y256497D01*
X56453Y256424D01*
X56380Y256315D01*
X56270Y256169D01*
X56179Y256005D01*
X56088Y255823D01*
X55997Y255623D01*
Y255605D01*
X55961Y255532D01*
X55942Y255404D01*
X55906Y255258D01*
X55870Y255058D01*
X55833Y254839D01*
X55815Y254603D01*
X55797Y254329D01*
Y254311D01*
Y254256D01*
Y254183D01*
X55815Y254092D01*
Y253965D01*
X55833Y253819D01*
X55888Y253491D01*
X55979Y253145D01*
X56088Y252762D01*
X56270Y252416D01*
X56507Y252106D01*
X56544Y252070D01*
X56635Y251997D01*
X56799Y251870D01*
X57036Y251742D01*
X57327Y251614D01*
X57673Y251487D01*
X58074Y251414D01*
X58530Y251378D01*
X58748D01*
X58894Y251396D01*
X59058Y251414D01*
X59259Y251432D01*
X59659Y251505D01*
X59678D01*
X59750Y251523D01*
X59860Y251560D01*
X60006Y251596D01*
X60151Y251651D01*
X60334Y251724D01*
X60716Y251906D01*
Y250576D01*
X60698D01*
X60625Y250539D01*
X60516Y250503D01*
X60370Y250448D01*
X60188Y250412D01*
X59987Y250357D01*
X59568Y250266D01*
X59550D01*
X59459Y250248D01*
X59350Y250230D01*
X59204Y250212D01*
X59022Y250193D01*
X58803Y250175D01*
X58348Y250157D01*
X58165D01*
X58020Y250175D01*
X57856Y250193D01*
X57673Y250212D01*
X57473Y250248D01*
X57236Y250284D01*
X56762Y250412D01*
X56507Y250503D01*
X56252Y250612D01*
X56015Y250722D01*
X55778Y250867D01*
X55542Y251031D01*
X55341Y251214D01*
X55323Y251232D01*
X55305Y251268D01*
X55250Y251323D01*
X55177Y251414D01*
X55104Y251523D01*
X55013Y251651D01*
X54922Y251815D01*
X54831Y251997D01*
X54722Y252197D01*
X54631Y252434D01*
X54540Y252689D01*
X54467Y252963D01*
X54394Y253254D01*
X54339Y253582D01*
X54321Y253928D01*
X54303Y254293D01*
Y254311D01*
Y254329D01*
Y254384D01*
Y254457D01*
X54321Y254639D01*
X54339Y254876D01*
X54376Y255149D01*
X54430Y255459D01*
X54503Y255769D01*
X54594Y256060D01*
Y256078D01*
X54612Y256097D01*
X54649Y256188D01*
X54722Y256352D01*
X54813Y256534D01*
X54940Y256752D01*
X55086Y256971D01*
X55250Y257208D01*
X55451Y257427D01*
X55469Y257445D01*
X55542Y257518D01*
X55669Y257627D01*
X55815Y257755D01*
X56015Y257882D01*
X56234Y258028D01*
X56489Y258174D01*
X56762Y258301D01*
X56799Y258319D01*
X56890Y258356D01*
X57054Y258392D01*
X57254Y258465D01*
X57509Y258520D01*
X57801Y258556D01*
X58111Y258593D01*
X58439Y258611D01*
X58675D01*
X58821Y258593D01*
D02*
G37*
G36*
X37449Y254730D02*
X41148Y258502D01*
X43043D01*
X39180Y254694D01*
X43261Y250266D01*
X41294D01*
X37449Y254675D01*
Y250266D01*
X36028D01*
Y261854D01*
X37449D01*
Y254730D01*
D02*
G37*
G36*
X30835Y251450D02*
X33295D01*
Y250266D01*
X26699D01*
Y251450D01*
X29396D01*
Y260688D01*
X26973D01*
Y261854D01*
X30835D01*
Y251450D01*
D02*
G37*
G36*
X21598D02*
X24058D01*
Y250266D01*
X17462D01*
Y251450D01*
X20158D01*
Y257317D01*
X17735D01*
Y258502D01*
X21598D01*
Y251450D01*
D02*
G37*
G36*
X-21602Y259740D02*
X-24772D01*
Y250266D01*
X-26248D01*
Y259740D01*
X-29418D01*
Y260980D01*
X-21602D01*
Y259740D01*
D02*
G37*
G36*
X85732Y258629D02*
X85933Y258611D01*
X86169Y258575D01*
X86425Y258538D01*
X86680Y258465D01*
X86935Y258374D01*
X86971Y258356D01*
X87044Y258319D01*
X87172Y258265D01*
X87336Y258174D01*
X87499Y258064D01*
X87700Y257937D01*
X87882Y257773D01*
X88064Y257591D01*
X88083Y257572D01*
X88137Y257500D01*
X88228Y257390D01*
X88319Y257263D01*
X88429Y257080D01*
X88556Y256880D01*
X88666Y256643D01*
X88757Y256388D01*
X88775Y256352D01*
X88793Y256260D01*
X88830Y256115D01*
X88884Y255933D01*
X88921Y255696D01*
X88957Y255441D01*
X88975Y255149D01*
X88994Y254821D01*
Y254803D01*
Y254767D01*
Y254712D01*
Y254639D01*
Y254475D01*
X88975Y254293D01*
Y254256D01*
Y254165D01*
Y254056D01*
X88957Y253928D01*
X83181D01*
Y253910D01*
Y253874D01*
Y253801D01*
X83200Y253728D01*
Y253619D01*
X83218Y253491D01*
X83272Y253200D01*
X83345Y252890D01*
X83473Y252562D01*
X83637Y252252D01*
X83874Y251979D01*
X83910Y251942D01*
X84001Y251870D01*
X84165Y251760D01*
X84402Y251651D01*
X84694Y251523D01*
X85040Y251414D01*
X85441Y251341D01*
X85914Y251305D01*
X86370D01*
X86625Y251323D01*
X86680D01*
X86752Y251341D01*
X86844D01*
X87081Y251378D01*
X87317Y251396D01*
X87336D01*
X87372Y251414D01*
X87445D01*
X87536Y251432D01*
X87736Y251469D01*
X87973Y251505D01*
X87991D01*
X88028Y251523D01*
X88083Y251541D01*
X88156Y251560D01*
X88356Y251596D01*
X88556Y251651D01*
Y250485D01*
X88538D01*
X88447Y250467D01*
X88338Y250430D01*
X88174Y250394D01*
X87973Y250357D01*
X87755Y250303D01*
X87499Y250266D01*
X87226Y250230D01*
X87190D01*
X87099Y250212D01*
X86953Y250193D01*
X86771Y250175D01*
X86534Y250157D01*
X86279Y250139D01*
X86006Y250120D01*
X85532D01*
X85331Y250139D01*
X85094Y250157D01*
X84803Y250193D01*
X84493Y250230D01*
X84184Y250303D01*
X83892Y250394D01*
X83856Y250412D01*
X83764Y250448D01*
X83619Y250521D01*
X83455Y250612D01*
X83254Y250722D01*
X83036Y250867D01*
X82835Y251031D01*
X82635Y251232D01*
X82617Y251250D01*
X82562Y251323D01*
X82471Y251450D01*
X82362Y251596D01*
X82234Y251797D01*
X82125Y252015D01*
X81997Y252289D01*
X81906Y252562D01*
Y252580D01*
Y252598D01*
X81870Y252708D01*
X81833Y252872D01*
X81797Y253090D01*
X81760Y253363D01*
X81724Y253655D01*
X81706Y254001D01*
X81687Y254366D01*
Y254384D01*
Y254402D01*
Y254511D01*
X81706Y254675D01*
X81724Y254894D01*
X81742Y255131D01*
X81797Y255404D01*
X81851Y255696D01*
X81924Y255987D01*
Y256005D01*
X81942Y256024D01*
X81979Y256115D01*
X82034Y256260D01*
X82106Y256461D01*
X82216Y256661D01*
X82343Y256898D01*
X82489Y257135D01*
X82653Y257354D01*
X82671Y257372D01*
X82744Y257445D01*
X82853Y257554D01*
X82981Y257700D01*
X83163Y257846D01*
X83364Y258010D01*
X83582Y258155D01*
X83837Y258301D01*
X83874Y258319D01*
X83965Y258356D01*
X84111Y258411D01*
X84293Y258483D01*
X84530Y258538D01*
X84803Y258593D01*
X85094Y258629D01*
X85422Y258647D01*
X85568D01*
X85732Y258629D01*
D02*
G37*
G36*
X76495D02*
X76695Y258611D01*
X76932Y258575D01*
X77187Y258538D01*
X77442Y258465D01*
X77697Y258374D01*
X77734Y258356D01*
X77807Y258319D01*
X77934Y258265D01*
X78098Y258174D01*
X78262Y258064D01*
X78462Y257937D01*
X78645Y257773D01*
X78827Y257591D01*
X78845Y257572D01*
X78900Y257500D01*
X78991Y257390D01*
X79082Y257263D01*
X79191Y257080D01*
X79319Y256880D01*
X79428Y256643D01*
X79519Y256388D01*
X79537Y256352D01*
X79556Y256260D01*
X79592Y256115D01*
X79647Y255933D01*
X79683Y255696D01*
X79720Y255441D01*
X79738Y255149D01*
X79756Y254821D01*
Y254803D01*
Y254767D01*
Y254712D01*
Y254639D01*
Y254475D01*
X79738Y254293D01*
Y254256D01*
Y254165D01*
Y254056D01*
X79720Y253928D01*
X73944D01*
Y253910D01*
Y253874D01*
Y253801D01*
X73962Y253728D01*
Y253619D01*
X73980Y253491D01*
X74035Y253200D01*
X74108Y252890D01*
X74235Y252562D01*
X74399Y252252D01*
X74636Y251979D01*
X74673Y251942D01*
X74764Y251870D01*
X74928Y251760D01*
X75165Y251651D01*
X75456Y251523D01*
X75802Y251414D01*
X76203Y251341D01*
X76677Y251305D01*
X77132D01*
X77387Y251323D01*
X77442D01*
X77515Y251341D01*
X77606D01*
X77843Y251378D01*
X78080Y251396D01*
X78098D01*
X78135Y251414D01*
X78207D01*
X78298Y251432D01*
X78499Y251469D01*
X78736Y251505D01*
X78754D01*
X78790Y251523D01*
X78845Y251541D01*
X78918Y251560D01*
X79118Y251596D01*
X79319Y251651D01*
Y250485D01*
X79300D01*
X79210Y250467D01*
X79100Y250430D01*
X78936Y250394D01*
X78736Y250357D01*
X78517Y250303D01*
X78262Y250266D01*
X77989Y250230D01*
X77952D01*
X77861Y250212D01*
X77715Y250193D01*
X77533Y250175D01*
X77296Y250157D01*
X77041Y250139D01*
X76768Y250120D01*
X76294D01*
X76094Y250139D01*
X75857Y250157D01*
X75565Y250193D01*
X75256Y250230D01*
X74946Y250303D01*
X74654Y250394D01*
X74618Y250412D01*
X74527Y250448D01*
X74381Y250521D01*
X74217Y250612D01*
X74017Y250722D01*
X73798Y250867D01*
X73598Y251031D01*
X73397Y251232D01*
X73379Y251250D01*
X73324Y251323D01*
X73233Y251450D01*
X73124Y251596D01*
X72996Y251797D01*
X72887Y252015D01*
X72760Y252289D01*
X72668Y252562D01*
Y252580D01*
Y252598D01*
X72632Y252708D01*
X72596Y252872D01*
X72559Y253090D01*
X72523Y253363D01*
X72486Y253655D01*
X72468Y254001D01*
X72450Y254366D01*
Y254384D01*
Y254402D01*
Y254511D01*
X72468Y254675D01*
X72486Y254894D01*
X72505Y255131D01*
X72559Y255404D01*
X72614Y255696D01*
X72687Y255987D01*
Y256005D01*
X72705Y256024D01*
X72741Y256115D01*
X72796Y256260D01*
X72869Y256461D01*
X72978Y256661D01*
X73106Y256898D01*
X73251Y257135D01*
X73415Y257354D01*
X73434Y257372D01*
X73507Y257445D01*
X73616Y257554D01*
X73743Y257700D01*
X73926Y257846D01*
X74126Y258010D01*
X74345Y258155D01*
X74600Y258301D01*
X74636Y258319D01*
X74727Y258356D01*
X74873Y258411D01*
X75055Y258483D01*
X75292Y258538D01*
X75565Y258593D01*
X75857Y258629D01*
X76185Y258647D01*
X76331D01*
X76495Y258629D01*
D02*
G37*
G36*
X-15881Y258629D02*
X-15680Y258611D01*
X-15425Y258574D01*
X-15170Y258520D01*
X-14897Y258447D01*
X-14624Y258356D01*
X-14587Y258338D01*
X-14496Y258301D01*
X-14368Y258246D01*
X-14205Y258155D01*
X-14022Y258046D01*
X-13822Y257900D01*
X-13621Y257736D01*
X-13439Y257554D01*
X-13421Y257536D01*
X-13366Y257463D01*
X-13275Y257354D01*
X-13166Y257190D01*
X-13038Y257008D01*
X-12911Y256771D01*
X-12802Y256516D01*
X-12692Y256242D01*
X-12674Y256206D01*
X-12656Y256097D01*
X-12601Y255932D01*
X-12547Y255732D01*
X-12510Y255459D01*
X-12455Y255149D01*
X-12437Y254803D01*
X-12419Y254438D01*
Y254420D01*
Y254402D01*
Y254347D01*
Y254275D01*
X-12437Y254092D01*
X-12455Y253855D01*
X-12492Y253582D01*
X-12528Y253291D01*
X-12601Y252981D01*
X-12692Y252671D01*
X-12710Y252635D01*
X-12747Y252544D01*
X-12802Y252398D01*
X-12893Y252216D01*
X-13002Y251997D01*
X-13129Y251760D01*
X-13294Y251523D01*
X-13476Y251305D01*
X-13494Y251286D01*
X-13567Y251214D01*
X-13676Y251104D01*
X-13822Y250977D01*
X-14004Y250849D01*
X-14205Y250703D01*
X-14460Y250558D01*
X-14715Y250430D01*
X-14751Y250412D01*
X-14842Y250375D01*
X-14988Y250339D01*
X-15188Y250284D01*
X-15443Y250212D01*
X-15717Y250175D01*
X-16026Y250139D01*
X-16373Y250120D01*
X-16518D01*
X-16701Y250139D01*
X-16901Y250157D01*
X-17156Y250193D01*
X-17429Y250230D01*
X-17703Y250303D01*
X-17976Y250394D01*
X-18012Y250412D01*
X-18085Y250448D01*
X-18213Y250503D01*
X-18377Y250594D01*
X-18577Y250703D01*
X-18759Y250849D01*
X-18960Y251013D01*
X-19160Y251195D01*
X-19179Y251214D01*
X-19233Y251286D01*
X-19324Y251396D01*
X-19434Y251560D01*
X-19543Y251742D01*
X-19670Y251979D01*
X-19780Y252234D01*
X-19889Y252507D01*
Y252525D01*
X-19907Y252544D01*
X-19926Y252653D01*
X-19962Y252817D01*
X-20017Y253036D01*
X-20071Y253309D01*
X-20108Y253619D01*
X-20126Y253965D01*
X-20144Y254329D01*
Y254347D01*
Y254366D01*
Y254420D01*
Y254493D01*
X-20126Y254675D01*
X-20108Y254894D01*
X-20089Y255167D01*
X-20035Y255459D01*
X-19980Y255769D01*
X-19889Y256060D01*
Y256078D01*
X-19871Y256097D01*
X-19835Y256188D01*
X-19780Y256352D01*
X-19689Y256534D01*
X-19579Y256752D01*
X-19434Y256971D01*
X-19288Y257208D01*
X-19106Y257427D01*
X-19087Y257445D01*
X-19015Y257518D01*
X-18905Y257627D01*
X-18759Y257754D01*
X-18577Y257900D01*
X-18359Y258046D01*
X-18122Y258192D01*
X-17867Y258319D01*
X-17830Y258338D01*
X-17739Y258374D01*
X-17593Y258429D01*
X-17393Y258483D01*
X-17138Y258538D01*
X-16865Y258593D01*
X-16555Y258629D01*
X-16209Y258647D01*
X-16063D01*
X-15881Y258629D01*
D02*
G37*
G36*
X-93792Y104535D02*
X-93774Y104500D01*
Y104483D01*
X-93757Y104447D01*
X-93739Y104377D01*
Y103691D01*
X-93757Y103603D01*
Y103146D01*
X-93774Y103040D01*
Y102900D01*
X-93792Y102759D01*
Y102143D01*
X-93774Y102038D01*
Y101879D01*
X-93757Y101686D01*
Y101228D01*
X-93739Y101123D01*
Y100261D01*
X-93757Y100050D01*
X-93774Y99821D01*
X-93809Y99575D01*
X-93844Y99346D01*
X-93897Y99118D01*
Y99100D01*
X-93915Y99030D01*
X-93950Y98924D01*
X-93985Y98783D01*
X-94091Y98502D01*
X-94161Y98344D01*
X-94231Y98221D01*
Y98203D01*
X-94249Y98185D01*
X-94302Y98097D01*
X-94390Y97992D01*
X-94478Y97886D01*
X-94495Y97869D01*
X-94530Y97799D01*
X-94583Y97746D01*
X-94636Y97675D01*
Y97658D01*
X-94671Y97640D01*
X-94742Y97587D01*
Y97570D01*
X-94759Y97552D01*
X-94847Y97482D01*
X-94865Y97464D01*
X-94900Y97447D01*
X-94953Y97412D01*
X-95041Y97359D01*
X-95146Y97288D01*
X-95269Y97218D01*
X-95410Y97148D01*
X-95568Y97077D01*
X-95586Y97060D01*
X-95639Y97042D01*
X-95727Y97007D01*
X-95850Y96972D01*
X-95973Y96937D01*
X-96131Y96919D01*
X-96307Y96884D01*
X-96501D01*
X-96518D01*
X-96571D01*
X-96659D01*
X-96782Y96901D01*
X-96923Y96919D01*
X-97081Y96937D01*
X-97257Y96972D01*
X-97450Y97025D01*
X-97890Y97148D01*
X-98101Y97236D01*
X-98330Y97341D01*
X-98559Y97464D01*
X-98770Y97623D01*
X-98998Y97781D01*
X-99192Y97974D01*
X-99209Y97992D01*
X-99227Y98027D01*
X-99280Y98080D01*
X-99350Y98168D01*
X-99420Y98273D01*
X-99509Y98414D01*
X-99614Y98555D01*
X-99702Y98731D01*
X-99790Y98924D01*
X-99895Y99135D01*
X-99983Y99346D01*
X-100054Y99593D01*
X-100124Y99857D01*
X-100159Y100138D01*
X-100195Y100437D01*
X-100212Y100736D01*
Y101088D01*
X-100195Y101123D01*
X-100177Y101193D01*
X-100159Y101211D01*
X-100089Y101228D01*
X-100071D01*
X-100036Y101211D01*
X-100001Y101193D01*
X-99983Y101140D01*
Y101123D01*
X-99966Y101070D01*
X-99948Y100965D01*
Y100701D01*
X-99931Y100613D01*
Y100525D01*
X-99913Y100402D01*
X-99860Y100138D01*
X-99772Y99839D01*
X-99649Y99522D01*
X-99473Y99188D01*
X-99227Y98889D01*
X-99209Y98871D01*
X-99192Y98854D01*
X-99086Y98766D01*
X-98928Y98643D01*
X-98717Y98484D01*
X-98453Y98344D01*
X-98136Y98221D01*
X-97785Y98133D01*
X-97591Y98097D01*
X-97398D01*
X-97380D01*
X-97345D01*
X-97292D01*
X-97204D01*
X-97099Y98115D01*
X-96975Y98133D01*
X-96835Y98150D01*
X-96676Y98168D01*
X-96659D01*
X-96588Y98185D01*
X-96501Y98203D01*
X-96377Y98221D01*
X-96237Y98256D01*
X-96078Y98309D01*
X-95903Y98379D01*
X-95727Y98467D01*
X-95691Y98484D01*
X-95621Y98520D01*
X-95498Y98590D01*
X-95357Y98678D01*
X-95340D01*
X-95322Y98695D01*
X-95234Y98766D01*
X-95129Y98854D01*
X-95005Y98977D01*
X-94988Y98995D01*
X-94935Y99047D01*
X-94865Y99118D01*
X-94794Y99206D01*
X-94777Y99223D01*
X-94742Y99276D01*
X-94689Y99346D01*
X-94636Y99417D01*
X-94618Y99434D01*
X-94583Y99505D01*
X-94530Y99593D01*
X-94460Y99716D01*
X-94390Y99857D01*
X-94337Y100015D01*
X-94284Y100173D01*
X-94267Y100349D01*
Y100367D01*
X-94249Y100419D01*
Y100507D01*
X-94231Y100595D01*
X-94214Y100824D01*
Y101246D01*
X-94231Y101352D01*
X-94249Y101492D01*
Y101528D01*
X-94267Y101598D01*
X-94284Y101686D01*
X-94302Y101791D01*
X-94319Y101827D01*
X-94355Y101844D01*
X-94407Y101879D01*
X-94425D01*
X-94460Y101897D01*
X-94513Y101915D01*
X-94601D01*
X-101021D01*
X-101039D01*
X-101074D01*
X-101127D01*
X-101215D01*
X-101303D01*
X-101426D01*
X-101690D01*
X-102006D01*
X-102340D01*
X-102692D01*
X-103044D01*
X-103062D01*
X-103079D01*
X-103185D01*
X-103343Y101897D01*
X-103537D01*
X-103765Y101879D01*
X-103994Y101862D01*
X-104223Y101844D01*
X-104416Y101827D01*
X-104434D01*
X-104469D01*
X-104539Y101809D01*
X-104627D01*
X-104803Y101756D01*
X-104997Y101686D01*
X-105014D01*
X-105032Y101668D01*
X-105120Y101580D01*
X-105172Y101528D01*
X-105208Y101440D01*
X-105243Y101352D01*
X-105278Y101228D01*
Y101211D01*
X-105296Y101176D01*
X-105313Y101088D01*
Y100929D01*
X-105331Y100877D01*
Y100789D01*
X-105348Y100701D01*
Y100472D01*
X-105366Y100437D01*
X-105384Y100419D01*
X-105401Y100402D01*
X-105436D01*
X-105472D01*
X-105489Y100437D01*
X-105507Y100472D01*
Y100507D01*
X-105524Y100560D01*
Y101281D01*
X-105507Y101457D01*
Y101950D01*
X-105489Y102055D01*
Y102988D01*
X-105507Y103163D01*
Y103550D01*
X-105524Y103656D01*
Y104201D01*
X-105507Y104254D01*
X-105489Y104272D01*
X-105472Y104289D01*
X-105436Y104307D01*
X-105419D01*
X-105384Y104289D01*
X-105366Y104254D01*
X-105348Y104184D01*
Y104078D01*
X-105331Y104043D01*
Y103937D01*
X-105313Y103920D01*
Y103814D01*
X-105296Y103797D01*
X-105278Y103726D01*
Y103709D01*
X-105260Y103691D01*
X-105225Y103586D01*
X-105137Y103480D01*
X-104997Y103410D01*
X-104979D01*
X-104961Y103392D01*
X-104909Y103375D01*
X-104838Y103357D01*
X-104662Y103304D01*
X-104416Y103269D01*
X-104399D01*
X-104328Y103251D01*
X-104205D01*
X-104064Y103234D01*
X-103871Y103216D01*
X-103624D01*
X-103361Y103199D01*
X-103044D01*
X-103026D01*
X-103009D01*
X-102956D01*
X-102886D01*
X-102692D01*
X-102446Y103181D01*
X-102147D01*
X-101813D01*
X-101426D01*
X-101021D01*
X-98260D01*
X-98242D01*
X-98189D01*
X-98101D01*
X-97978D01*
X-97837D01*
X-97679D01*
X-97310D01*
X-96923D01*
X-96536D01*
X-96360D01*
X-96184D01*
X-96043D01*
X-95920D01*
X-95885D01*
X-95815D01*
X-95709D01*
X-95568D01*
X-95252Y103199D01*
X-95093D01*
X-94953Y103216D01*
X-94935D01*
X-94918D01*
X-94900D01*
X-94882D01*
X-94829D01*
X-94759Y103234D01*
X-94671D01*
X-94478Y103287D01*
X-94390Y103322D01*
X-94302Y103375D01*
X-94284D01*
X-94267Y103392D01*
X-94231Y103427D01*
X-94179Y103480D01*
X-94143Y103550D01*
X-94091Y103638D01*
X-94056Y103744D01*
X-94020Y103885D01*
Y103902D01*
X-94003Y103920D01*
Y104043D01*
X-93985Y104060D01*
Y104184D01*
X-93968Y104201D01*
Y104447D01*
X-93950Y104518D01*
X-93932Y104535D01*
X-93880Y104553D01*
X-93862D01*
X-93827D01*
X-93792Y104535D01*
D02*
G37*
G36*
Y95424D02*
X-93774Y95389D01*
Y95371D01*
X-93757Y95336D01*
X-93739Y95266D01*
Y94562D01*
X-93757Y94474D01*
Y94017D01*
X-93774Y93911D01*
Y93770D01*
X-93792Y93630D01*
Y93137D01*
X-93774Y93049D01*
Y92908D01*
X-93757Y92733D01*
Y92117D01*
X-93739Y92046D01*
Y91783D01*
X-93757Y91712D01*
X-93774Y91659D01*
Y91642D01*
X-93792Y91624D01*
X-93827Y91607D01*
X-93880Y91589D01*
X-93897D01*
X-93915Y91607D01*
X-93950Y91642D01*
Y91659D01*
X-93968Y91730D01*
Y91818D01*
X-93985Y91923D01*
Y91941D01*
X-94003Y91976D01*
Y92029D01*
X-94020Y92117D01*
Y92170D01*
X-94073Y92275D01*
X-94143Y92416D01*
X-94214Y92486D01*
X-94284Y92539D01*
X-94302D01*
X-94319Y92557D01*
X-94372Y92574D01*
X-94442Y92609D01*
X-94530Y92627D01*
X-94636Y92662D01*
X-94759Y92680D01*
X-94900Y92697D01*
X-94918D01*
X-94935D01*
X-94953D01*
X-94970D01*
X-95023D01*
X-95093D01*
X-95199D01*
X-95340Y92715D01*
X-95516D01*
X-95709D01*
X-95920D01*
X-95955D01*
X-96043D01*
X-96114D01*
X-96201D01*
X-96307D01*
X-96430D01*
X-96588D01*
X-96764D01*
X-96958D01*
X-97169D01*
X-97398D01*
X-97662D01*
X-97961D01*
X-98277D01*
X-100458D01*
X-100476D01*
X-100529D01*
X-100617D01*
X-100740D01*
X-100881Y92697D01*
X-101039D01*
X-101408Y92680D01*
X-101813Y92627D01*
X-102235Y92574D01*
X-102639Y92486D01*
X-102815Y92434D01*
X-102991Y92381D01*
X-103009D01*
X-103026Y92363D01*
X-103132Y92328D01*
X-103290Y92240D01*
X-103466Y92152D01*
X-103695Y92029D01*
X-103906Y91888D01*
X-104135Y91730D01*
X-104328Y91554D01*
X-104346Y91536D01*
X-104416Y91466D01*
X-104486Y91378D01*
X-104574Y91273D01*
X-104592Y91255D01*
X-104645Y91185D01*
X-104698Y91097D01*
X-104768Y90991D01*
X-104785Y90974D01*
X-104803Y90921D01*
X-104856Y90833D01*
X-104909Y90727D01*
X-104961Y90587D01*
X-105014Y90446D01*
X-105102Y90129D01*
Y90112D01*
X-105120Y90059D01*
X-105137Y89971D01*
Y89848D01*
X-105155Y89707D01*
X-105172Y89549D01*
X-105190Y89197D01*
Y89074D01*
X-105172Y88933D01*
X-105155Y88757D01*
X-105120Y88546D01*
X-105049Y88317D01*
X-104979Y88071D01*
X-104873Y87825D01*
X-104856Y87790D01*
X-104821Y87719D01*
X-104750Y87596D01*
X-104645Y87438D01*
X-104539Y87262D01*
X-104399Y87086D01*
X-104240Y86910D01*
X-104064Y86734D01*
X-104029Y86717D01*
X-103941Y86646D01*
X-103800Y86558D01*
X-103607Y86435D01*
X-103361Y86312D01*
X-103079Y86207D01*
X-102763Y86101D01*
X-102411Y86013D01*
X-102393D01*
X-102358Y85996D01*
X-102305D01*
X-102235Y85978D01*
X-102147Y85960D01*
X-102041Y85943D01*
X-101760Y85908D01*
X-101443Y85872D01*
X-101074Y85855D01*
X-100669Y85820D01*
X-100230D01*
X-98260D01*
X-98242D01*
X-98189D01*
X-98101D01*
X-97978D01*
X-97837D01*
X-97679D01*
X-97310D01*
X-96923D01*
X-96536D01*
X-96360D01*
X-96184D01*
X-96043D01*
X-95920D01*
X-95885D01*
X-95815D01*
X-95709D01*
X-95568D01*
X-95252Y85837D01*
X-95093D01*
X-94953Y85855D01*
X-94935D01*
X-94918D01*
X-94900D01*
X-94882D01*
X-94829D01*
X-94759Y85872D01*
X-94671D01*
X-94478Y85925D01*
X-94390Y85960D01*
X-94302Y86013D01*
X-94284D01*
X-94267Y86031D01*
X-94231Y86066D01*
X-94179Y86119D01*
X-94143Y86189D01*
X-94091Y86277D01*
X-94056Y86383D01*
X-94020Y86523D01*
Y86541D01*
X-94003Y86558D01*
Y86682D01*
X-93985Y86699D01*
Y86822D01*
X-93968Y86840D01*
Y87086D01*
X-93950Y87156D01*
X-93932Y87174D01*
X-93880Y87192D01*
X-93862D01*
X-93827D01*
X-93792Y87174D01*
X-93774Y87139D01*
Y87121D01*
X-93757Y87086D01*
X-93739Y87016D01*
Y86330D01*
X-93757Y86207D01*
Y85837D01*
X-93774Y85732D01*
Y85609D01*
X-93792Y85486D01*
Y85081D01*
X-93774Y85010D01*
Y84905D01*
X-93757Y84764D01*
Y84430D01*
X-93739Y84360D01*
Y83902D01*
X-93757Y83850D01*
X-93774Y83797D01*
Y83779D01*
X-93792Y83762D01*
X-93827Y83744D01*
X-93880Y83726D01*
X-93897D01*
X-93950Y83762D01*
Y83779D01*
X-93968Y83850D01*
Y83938D01*
X-93985Y84043D01*
Y84096D01*
X-94003Y84149D01*
X-94020Y84237D01*
Y84254D01*
X-94038Y84289D01*
X-94056Y84342D01*
X-94073Y84412D01*
X-94161Y84553D01*
X-94214Y84623D01*
X-94284Y84676D01*
X-94302D01*
X-94319Y84694D01*
X-94372Y84711D01*
X-94442Y84729D01*
X-94530Y84764D01*
X-94636Y84782D01*
X-94759Y84799D01*
X-94900Y84817D01*
X-94918D01*
X-94935D01*
X-94953D01*
X-94970D01*
X-95023D01*
X-95093Y84835D01*
X-95199D01*
X-95340D01*
X-95516Y84852D01*
X-95709D01*
X-95920D01*
X-95955D01*
X-96043D01*
X-96114D01*
X-96201D01*
X-96307D01*
X-96430D01*
X-96588D01*
X-96764D01*
X-96958D01*
X-97169D01*
X-97398D01*
X-97662D01*
X-97961D01*
X-98277D01*
X-99931D01*
X-99948D01*
X-99983D01*
X-100036D01*
X-100089D01*
X-100265D01*
X-100458Y84870D01*
X-100476D01*
X-100494D01*
X-100546D01*
X-100617D01*
X-100775D01*
X-100968D01*
X-100986D01*
X-101021D01*
X-101074D01*
X-101144Y84887D01*
X-101232D01*
X-101338Y84905D01*
X-101602Y84940D01*
X-101901Y84993D01*
X-102252Y85063D01*
X-102604Y85134D01*
X-102974Y85239D01*
X-102991D01*
X-103009Y85257D01*
X-103062Y85274D01*
X-103132Y85292D01*
X-103308Y85380D01*
X-103537Y85486D01*
X-103800Y85626D01*
X-104082Y85802D01*
X-104363Y86013D01*
X-104627Y86277D01*
X-104645Y86295D01*
X-104698Y86365D01*
X-104768Y86453D01*
X-104856Y86558D01*
X-104873Y86576D01*
X-104909Y86629D01*
X-104961Y86717D01*
X-105032Y86822D01*
X-105049Y86857D01*
X-105102Y86945D01*
X-105190Y87086D01*
X-105278Y87262D01*
X-105366Y87473D01*
X-105472Y87719D01*
X-105559Y87966D01*
X-105612Y88230D01*
Y88265D01*
X-105630Y88353D01*
X-105647Y88476D01*
X-105683Y88652D01*
X-105700Y88845D01*
X-105735Y89056D01*
X-105753Y89496D01*
Y89619D01*
X-105735Y89707D01*
Y89830D01*
X-105718Y89988D01*
X-105700Y90164D01*
X-105683Y90376D01*
Y90393D01*
X-105665Y90481D01*
X-105647Y90587D01*
X-105612Y90745D01*
X-105577Y90921D01*
X-105524Y91132D01*
X-105384Y91589D01*
Y91607D01*
X-105366Y91642D01*
X-105331Y91695D01*
X-105296Y91783D01*
X-105208Y91959D01*
X-105102Y92187D01*
Y92205D01*
X-105067Y92240D01*
X-105032Y92293D01*
X-104979Y92363D01*
X-104838Y92522D01*
X-104662Y92715D01*
X-104645Y92733D01*
X-104557Y92803D01*
X-104434Y92926D01*
X-104275Y93049D01*
X-104064Y93208D01*
X-103818Y93366D01*
X-103519Y93524D01*
X-103202Y93682D01*
X-103185D01*
X-103167Y93700D01*
X-103097Y93718D01*
X-103026Y93735D01*
X-102938Y93770D01*
X-102815Y93805D01*
X-102675Y93841D01*
X-102516Y93876D01*
X-102340Y93911D01*
X-102147Y93946D01*
X-101936Y93981D01*
X-101690Y94017D01*
X-101443Y94034D01*
X-101162Y94052D01*
X-100881Y94069D01*
X-100564D01*
X-100546D01*
X-98260D01*
X-98242D01*
X-98189D01*
X-98101D01*
X-97978D01*
X-97837D01*
X-97679D01*
X-97310D01*
X-96923D01*
X-96536D01*
X-96360D01*
X-96184D01*
X-96043D01*
X-95920D01*
X-95885D01*
X-95815D01*
X-95709D01*
X-95568D01*
X-95252Y94087D01*
X-95093D01*
X-94953Y94104D01*
X-94935D01*
X-94918D01*
X-94900D01*
X-94882D01*
X-94829D01*
X-94759Y94122D01*
X-94671D01*
X-94478Y94175D01*
X-94390Y94210D01*
X-94302Y94263D01*
X-94284D01*
X-94267Y94280D01*
X-94231Y94316D01*
X-94179Y94368D01*
X-94143Y94439D01*
X-94091Y94527D01*
X-94056Y94632D01*
X-94020Y94773D01*
Y94791D01*
X-94003Y94808D01*
Y94931D01*
X-93985Y94949D01*
Y95072D01*
X-93968Y95090D01*
Y95336D01*
X-93950Y95406D01*
X-93932Y95424D01*
X-93880Y95441D01*
X-93862D01*
X-93827D01*
X-93792Y95424D01*
D02*
G37*
G36*
X-105366Y82161D02*
Y82143D01*
X-105348Y82126D01*
Y81809D01*
X-105331Y81756D01*
X-105313Y81686D01*
X-105296Y81581D01*
Y81563D01*
X-105278Y81528D01*
X-105260Y81457D01*
X-105208Y81387D01*
X-105155Y81299D01*
X-105085Y81229D01*
X-104979Y81158D01*
X-104856Y81106D01*
X-104838D01*
X-104785Y81088D01*
X-104715Y81070D01*
X-104610Y81053D01*
X-104504Y81018D01*
X-104363Y81000D01*
X-104064Y80947D01*
X-104047D01*
X-104029D01*
X-104011D01*
X-103994D01*
X-93809Y79839D01*
X-93792D01*
X-93739Y79821D01*
X-93633Y79769D01*
X-93616Y79751D01*
X-93581Y79734D01*
X-93563Y79698D01*
X-93545Y79663D01*
Y79628D01*
X-93581Y79575D01*
X-93598Y79558D01*
X-93651Y79505D01*
X-93669Y79487D01*
X-93704Y79470D01*
X-93721Y79452D01*
X-93774Y79417D01*
X-103589Y74650D01*
X-93774Y70059D01*
X-93757Y70041D01*
X-93721Y70024D01*
X-93616Y69954D01*
X-93598Y69936D01*
X-93581Y69918D01*
X-93563Y69866D01*
X-93545Y69813D01*
Y69795D01*
X-93563Y69778D01*
X-93581Y69742D01*
X-93651Y69707D01*
X-93669Y69690D01*
X-93721Y69672D01*
X-93827Y69654D01*
X-93968Y69637D01*
X-93950D01*
X-103537Y68581D01*
X-103572D01*
X-103642Y68564D01*
X-103730D01*
X-103853Y68546D01*
X-103871D01*
X-103941Y68529D01*
X-104047Y68511D01*
X-104152Y68493D01*
X-104170D01*
X-104205Y68476D01*
X-104275Y68458D01*
X-104363Y68441D01*
X-104574Y68370D01*
X-104803Y68265D01*
X-104821Y68247D01*
X-104856Y68230D01*
X-104961Y68124D01*
X-105085Y67966D01*
X-105208Y67737D01*
Y67720D01*
X-105225Y67684D01*
X-105243Y67614D01*
X-105260Y67526D01*
X-105296Y67333D01*
X-105331Y67121D01*
Y66963D01*
X-105348Y66840D01*
Y66664D01*
X-105366Y66647D01*
Y66629D01*
X-105384Y66611D01*
X-105419D01*
X-105436D01*
X-105454Y66629D01*
X-105489Y66647D01*
X-105507Y66699D01*
Y66752D01*
X-105524Y66840D01*
Y67209D01*
X-105507Y67333D01*
Y67983D01*
X-105489Y68300D01*
Y69373D01*
X-105472Y69531D01*
Y69567D01*
X-105454Y69672D01*
X-105419Y69795D01*
X-105401Y69883D01*
Y69901D01*
X-105384Y69918D01*
X-105348Y69954D01*
X-105313Y69971D01*
X-105296D01*
X-105278D01*
X-105243Y69954D01*
X-105225Y69936D01*
Y69901D01*
X-105208Y69866D01*
X-105190Y69848D01*
X-105155Y69830D01*
X-105102Y69813D01*
X-105085D01*
X-105049Y69795D01*
X-104979D01*
X-104891D01*
X-104873D01*
X-104856D01*
X-104768D01*
X-104750D01*
X-104733D01*
X-104645D01*
X-96571Y70552D01*
Y70604D01*
X-104680Y74421D01*
X-104698D01*
X-104750Y74457D01*
X-104821Y74492D01*
X-104909Y74527D01*
X-105102Y74615D01*
X-105190Y74668D01*
X-105260Y74703D01*
X-105296Y74720D01*
X-105348Y74756D01*
X-105436Y74791D01*
X-105489Y74844D01*
Y75002D01*
X-105472Y75037D01*
X-105436Y75090D01*
X-105348Y75160D01*
X-105313Y75178D01*
X-105278Y75195D01*
X-105225Y75230D01*
X-105137Y75266D01*
X-105049Y75301D01*
X-104944Y75354D01*
X-104803Y75424D01*
X-104785D01*
X-104750Y75442D01*
X-104698Y75477D01*
X-104627Y75512D01*
X-104522Y75565D01*
X-104399Y75635D01*
X-104258Y75705D01*
X-104099Y75793D01*
X-104082Y75811D01*
X-104011Y75828D01*
X-103923Y75881D01*
X-103800Y75934D01*
X-103660Y76022D01*
X-103501Y76092D01*
X-103132Y76286D01*
X-103097Y76303D01*
X-103009Y76339D01*
X-102886Y76409D01*
X-102710Y76497D01*
X-102516Y76603D01*
X-102305Y76708D01*
X-101848Y76937D01*
X-101830Y76954D01*
X-101760Y76972D01*
X-101654Y77025D01*
X-101549Y77077D01*
X-101426Y77130D01*
X-101320Y77183D01*
X-101232Y77236D01*
X-101197Y77253D01*
X-101162Y77271D01*
X-101127Y77289D01*
X-101056Y77324D01*
X-100951Y77359D01*
X-100810Y77429D01*
X-100634Y77517D01*
X-100423Y77623D01*
X-100388Y77640D01*
X-100300Y77675D01*
X-100177Y77728D01*
X-100001Y77816D01*
X-99790Y77922D01*
X-99544Y78027D01*
X-99280Y78150D01*
X-98998Y78291D01*
X-98981D01*
X-98963Y78309D01*
X-98875Y78344D01*
X-98717Y78414D01*
X-98523Y78502D01*
X-98312Y78608D01*
X-98066Y78713D01*
X-97574Y78960D01*
X-97538Y78977D01*
X-97468Y79012D01*
X-97345Y79065D01*
X-97222Y79118D01*
X-97081Y79171D01*
X-96940Y79241D01*
X-96835Y79276D01*
X-96747Y79311D01*
X-96729Y79382D01*
X-103976Y79997D01*
X-103994D01*
X-104064D01*
X-104152D01*
X-104258Y80015D01*
X-104275D01*
X-104328D01*
X-104416D01*
X-104522D01*
X-104557D01*
X-104645D01*
X-104662D01*
X-104680D01*
X-104785D01*
X-104803D01*
X-104873Y79997D01*
X-104979Y79962D01*
X-105085Y79909D01*
X-105102Y79892D01*
X-105155Y79821D01*
X-105225Y79734D01*
X-105260Y79610D01*
Y79575D01*
X-105296Y79487D01*
X-105313Y79382D01*
X-105331Y79259D01*
Y79171D01*
X-105348Y79083D01*
Y78995D01*
X-105366Y78942D01*
Y78924D01*
X-105384Y78907D01*
X-105401Y78889D01*
X-105419D01*
X-105436D01*
X-105454D01*
X-105489Y78924D01*
X-105507Y78960D01*
Y79012D01*
X-105524Y79083D01*
Y79593D01*
X-105507Y79646D01*
Y80103D01*
X-105489Y80191D01*
Y81035D01*
X-105507Y81176D01*
Y81510D01*
X-105524Y81598D01*
Y82073D01*
X-105507Y82126D01*
Y82143D01*
X-105489Y82161D01*
X-105454Y82178D01*
X-105419Y82196D01*
X-105401D01*
X-105366Y82161D01*
D02*
G37*
G36*
X-93792Y65151D02*
X-93774Y65116D01*
Y65099D01*
X-93757Y65064D01*
X-93739Y64993D01*
Y64307D01*
X-93757Y64219D01*
Y63762D01*
X-93774Y63656D01*
Y63516D01*
X-93792Y63375D01*
Y62759D01*
X-93774Y62654D01*
Y62495D01*
X-93757Y62302D01*
Y61844D01*
X-93739Y61739D01*
Y60877D01*
X-93757Y60666D01*
X-93774Y60437D01*
X-93809Y60191D01*
X-93844Y59962D01*
X-93897Y59734D01*
Y59716D01*
X-93915Y59646D01*
X-93950Y59540D01*
X-93985Y59399D01*
X-94091Y59118D01*
X-94161Y58960D01*
X-94231Y58837D01*
Y58819D01*
X-94249Y58801D01*
X-94302Y58714D01*
X-94390Y58608D01*
X-94478Y58502D01*
X-94495Y58485D01*
X-94530Y58414D01*
X-94583Y58362D01*
X-94636Y58291D01*
Y58274D01*
X-94671Y58256D01*
X-94742Y58203D01*
Y58186D01*
X-94759Y58168D01*
X-94847Y58098D01*
X-94865Y58080D01*
X-94900Y58063D01*
X-94953Y58027D01*
X-95041Y57975D01*
X-95146Y57904D01*
X-95269Y57834D01*
X-95410Y57764D01*
X-95568Y57693D01*
X-95586Y57676D01*
X-95639Y57658D01*
X-95727Y57623D01*
X-95850Y57588D01*
X-95973Y57552D01*
X-96131Y57535D01*
X-96307Y57500D01*
X-96501D01*
X-96518D01*
X-96571D01*
X-96659D01*
X-96782Y57517D01*
X-96923Y57535D01*
X-97081Y57552D01*
X-97257Y57588D01*
X-97450Y57640D01*
X-97890Y57764D01*
X-98101Y57852D01*
X-98330Y57957D01*
X-98559Y58080D01*
X-98770Y58239D01*
X-98998Y58397D01*
X-99192Y58590D01*
X-99209Y58608D01*
X-99227Y58643D01*
X-99280Y58696D01*
X-99350Y58784D01*
X-99420Y58889D01*
X-99509Y59030D01*
X-99614Y59171D01*
X-99702Y59347D01*
X-99790Y59540D01*
X-99895Y59751D01*
X-99983Y59962D01*
X-100054Y60209D01*
X-100124Y60473D01*
X-100159Y60754D01*
X-100195Y61053D01*
X-100212Y61352D01*
Y61704D01*
X-100195Y61739D01*
X-100177Y61809D01*
X-100159Y61827D01*
X-100089Y61844D01*
X-100071D01*
X-100036Y61827D01*
X-100001Y61809D01*
X-99983Y61756D01*
Y61739D01*
X-99966Y61686D01*
X-99948Y61581D01*
Y61317D01*
X-99931Y61229D01*
Y61141D01*
X-99913Y61018D01*
X-99860Y60754D01*
X-99772Y60455D01*
X-99649Y60138D01*
X-99473Y59804D01*
X-99227Y59505D01*
X-99209Y59487D01*
X-99192Y59470D01*
X-99086Y59382D01*
X-98928Y59259D01*
X-98717Y59101D01*
X-98453Y58960D01*
X-98136Y58837D01*
X-97785Y58749D01*
X-97591Y58714D01*
X-97398D01*
X-97380D01*
X-97345D01*
X-97292D01*
X-97204D01*
X-97099Y58731D01*
X-96975Y58749D01*
X-96835Y58766D01*
X-96676Y58784D01*
X-96659D01*
X-96588Y58801D01*
X-96501Y58819D01*
X-96377Y58837D01*
X-96237Y58872D01*
X-96078Y58925D01*
X-95903Y58995D01*
X-95727Y59083D01*
X-95691Y59101D01*
X-95621Y59136D01*
X-95498Y59206D01*
X-95357Y59294D01*
X-95340D01*
X-95322Y59311D01*
X-95234Y59382D01*
X-95129Y59470D01*
X-95005Y59593D01*
X-94988Y59611D01*
X-94935Y59663D01*
X-94865Y59734D01*
X-94794Y59822D01*
X-94777Y59839D01*
X-94742Y59892D01*
X-94689Y59962D01*
X-94636Y60033D01*
X-94618Y60050D01*
X-94583Y60121D01*
X-94530Y60209D01*
X-94460Y60332D01*
X-94390Y60473D01*
X-94337Y60631D01*
X-94284Y60789D01*
X-94267Y60965D01*
Y60983D01*
X-94249Y61035D01*
Y61123D01*
X-94231Y61211D01*
X-94214Y61440D01*
Y61862D01*
X-94231Y61968D01*
X-94249Y62108D01*
Y62143D01*
X-94267Y62214D01*
X-94284Y62302D01*
X-94302Y62407D01*
X-94319Y62443D01*
X-94355Y62460D01*
X-94407Y62495D01*
X-94425D01*
X-94460Y62513D01*
X-94513Y62530D01*
X-94601D01*
X-101021D01*
X-101039D01*
X-101074D01*
X-101127D01*
X-101215D01*
X-101303D01*
X-101426D01*
X-101690D01*
X-102006D01*
X-102340D01*
X-102692D01*
X-103044D01*
X-103062D01*
X-103079D01*
X-103185D01*
X-103343Y62513D01*
X-103537D01*
X-103765Y62495D01*
X-103994Y62478D01*
X-104223Y62460D01*
X-104416Y62443D01*
X-104434D01*
X-104469D01*
X-104539Y62425D01*
X-104627D01*
X-104803Y62372D01*
X-104997Y62302D01*
X-105014D01*
X-105032Y62284D01*
X-105120Y62196D01*
X-105172Y62143D01*
X-105208Y62056D01*
X-105243Y61968D01*
X-105278Y61844D01*
Y61827D01*
X-105296Y61792D01*
X-105313Y61704D01*
Y61545D01*
X-105331Y61493D01*
Y61405D01*
X-105348Y61317D01*
Y61088D01*
X-105366Y61053D01*
X-105384Y61035D01*
X-105401Y61018D01*
X-105436D01*
X-105472D01*
X-105489Y61053D01*
X-105507Y61088D01*
Y61123D01*
X-105524Y61176D01*
Y61897D01*
X-105507Y62073D01*
Y62566D01*
X-105489Y62671D01*
Y63604D01*
X-105507Y63779D01*
Y64166D01*
X-105524Y64272D01*
Y64817D01*
X-105507Y64870D01*
X-105489Y64888D01*
X-105472Y64905D01*
X-105436Y64923D01*
X-105419D01*
X-105384Y64905D01*
X-105366Y64870D01*
X-105348Y64800D01*
Y64694D01*
X-105331Y64659D01*
Y64553D01*
X-105313Y64536D01*
Y64430D01*
X-105296Y64413D01*
X-105278Y64342D01*
Y64325D01*
X-105260Y64307D01*
X-105225Y64201D01*
X-105137Y64096D01*
X-104997Y64026D01*
X-104979D01*
X-104961Y64008D01*
X-104909Y63990D01*
X-104838Y63973D01*
X-104662Y63920D01*
X-104416Y63885D01*
X-104399D01*
X-104328Y63867D01*
X-104205D01*
X-104064Y63850D01*
X-103871Y63832D01*
X-103624D01*
X-103361Y63815D01*
X-103044D01*
X-103026D01*
X-103009D01*
X-102956D01*
X-102886D01*
X-102692D01*
X-102446Y63797D01*
X-102147D01*
X-101813D01*
X-101426D01*
X-101021D01*
X-98260D01*
X-98242D01*
X-98189D01*
X-98101D01*
X-97978D01*
X-97837D01*
X-97679D01*
X-97310D01*
X-96923D01*
X-96536D01*
X-96360D01*
X-96184D01*
X-96043D01*
X-95920D01*
X-95885D01*
X-95815D01*
X-95709D01*
X-95568D01*
X-95252Y63815D01*
X-95093D01*
X-94953Y63832D01*
X-94935D01*
X-94918D01*
X-94900D01*
X-94882D01*
X-94829D01*
X-94759Y63850D01*
X-94671D01*
X-94478Y63902D01*
X-94390Y63938D01*
X-94302Y63990D01*
X-94284D01*
X-94267Y64008D01*
X-94231Y64043D01*
X-94179Y64096D01*
X-94143Y64166D01*
X-94091Y64254D01*
X-94056Y64360D01*
X-94020Y64501D01*
Y64518D01*
X-94003Y64536D01*
Y64659D01*
X-93985Y64676D01*
Y64800D01*
X-93968Y64817D01*
Y65064D01*
X-93950Y65134D01*
X-93932Y65151D01*
X-93880Y65169D01*
X-93862D01*
X-93827D01*
X-93792Y65151D01*
D02*
G37*
G36*
Y55125D02*
X-93774Y55090D01*
Y55072D01*
X-93757Y55037D01*
X-93739Y54967D01*
Y54334D01*
X-93757Y54228D01*
Y53753D01*
X-93774Y53648D01*
Y53524D01*
X-93792Y53384D01*
Y52909D01*
X-93774Y52821D01*
Y52698D01*
X-93757Y52539D01*
Y51924D01*
X-93739Y51853D01*
Y51590D01*
X-93757Y51537D01*
X-93774Y51484D01*
Y51466D01*
X-93792Y51449D01*
X-93827Y51431D01*
X-93880Y51414D01*
X-93897D01*
X-93950Y51449D01*
Y51466D01*
X-93968Y51537D01*
Y51625D01*
X-93985Y51730D01*
Y51748D01*
X-94003Y51783D01*
Y51836D01*
X-94020Y51924D01*
Y51941D01*
X-94038Y51977D01*
X-94056Y52029D01*
X-94073Y52100D01*
X-94161Y52240D01*
X-94214Y52311D01*
X-94284Y52364D01*
X-94302D01*
X-94319Y52381D01*
X-94372Y52399D01*
X-94442Y52416D01*
X-94530Y52451D01*
X-94636Y52469D01*
X-94759Y52487D01*
X-94900Y52504D01*
X-94918D01*
X-94935D01*
X-94953D01*
X-94970D01*
X-95023D01*
X-95093Y52522D01*
X-95199D01*
X-95340D01*
X-95516Y52539D01*
X-95709D01*
X-95920D01*
X-95955D01*
X-96043D01*
X-96114D01*
X-96201D01*
X-96307D01*
X-96430D01*
X-96588D01*
X-96764D01*
X-96958D01*
X-97169D01*
X-97398D01*
X-97662D01*
X-97961D01*
X-98277D01*
X-99209D01*
Y52469D01*
X-99174Y52451D01*
X-99139Y52399D01*
X-99069Y52346D01*
X-98981Y52258D01*
X-98875Y52152D01*
X-98717Y51994D01*
X-98523Y51818D01*
X-98506Y51801D01*
X-98418Y51713D01*
X-98312Y51607D01*
X-98154Y51449D01*
X-97978Y51273D01*
X-97767Y51062D01*
X-97538Y50851D01*
X-97292Y50604D01*
X-97257Y50587D01*
X-97187Y50516D01*
X-97081Y50393D01*
X-96923Y50253D01*
X-96764Y50094D01*
X-96571Y49918D01*
X-96184Y49531D01*
X-96166Y49514D01*
X-96096Y49444D01*
X-96008Y49356D01*
X-95885Y49250D01*
X-95639Y49004D01*
X-95533Y48898D01*
X-95428Y48810D01*
X-95410Y48793D01*
X-95375Y48757D01*
X-95304Y48705D01*
X-95217Y48617D01*
X-95023Y48441D01*
X-94812Y48247D01*
X-94794Y48230D01*
X-94759Y48212D01*
X-94706Y48160D01*
X-94636Y48107D01*
X-94478Y48019D01*
X-94390Y48001D01*
X-94302Y47984D01*
X-94284D01*
X-94214D01*
X-94161Y48001D01*
X-94091Y48036D01*
X-94073Y48054D01*
X-94056Y48072D01*
X-93985Y48177D01*
Y48195D01*
X-93968Y48212D01*
X-93932Y48283D01*
X-93915Y48300D01*
X-93862Y48318D01*
X-93844D01*
X-93827D01*
X-93792Y48300D01*
X-93774Y48265D01*
Y48247D01*
X-93757Y48230D01*
X-93739Y48124D01*
Y47966D01*
X-93757Y47860D01*
Y47544D01*
X-93774Y47509D01*
Y47280D01*
X-93792Y47192D01*
Y46717D01*
X-93774Y46629D01*
Y46506D01*
X-93757Y46330D01*
Y45732D01*
X-93739Y45662D01*
Y45398D01*
X-93757Y45345D01*
X-93774Y45292D01*
Y45275D01*
X-93792Y45257D01*
X-93809Y45239D01*
X-93862Y45222D01*
X-93897D01*
X-93950Y45257D01*
Y45292D01*
X-93968Y45327D01*
Y45486D01*
X-93985Y45591D01*
X-94003Y45732D01*
Y45767D01*
X-94038Y45838D01*
X-94073Y45961D01*
X-94126Y46119D01*
X-94143Y46154D01*
X-94161Y46207D01*
Y46225D01*
X-94179Y46260D01*
Y46277D01*
X-94196Y46295D01*
X-94249Y46383D01*
X-94319Y46524D01*
X-94407Y46664D01*
X-94425Y46700D01*
X-94478Y46770D01*
X-94548Y46893D01*
X-94654Y47016D01*
X-94689Y47051D01*
X-94759Y47139D01*
X-94882Y47280D01*
X-95041Y47438D01*
X-95058Y47456D01*
X-95076Y47473D01*
X-95181Y47579D01*
X-95340Y47755D01*
X-95533Y47948D01*
X-95568Y47984D01*
X-95604Y48019D01*
X-95656Y48089D01*
X-95744Y48177D01*
X-95867Y48283D01*
X-95990Y48423D01*
X-96166Y48599D01*
X-96184Y48617D01*
X-96254Y48687D01*
X-96342Y48793D01*
X-96465Y48916D01*
X-96624Y49074D01*
X-96800Y49250D01*
X-97204Y49655D01*
X-97222Y49672D01*
X-97310Y49760D01*
X-97415Y49866D01*
X-97556Y50006D01*
X-97732Y50182D01*
X-97908Y50358D01*
X-98295Y50745D01*
X-98312Y50763D01*
X-98383Y50833D01*
X-98471Y50921D01*
X-98559Y51009D01*
X-98787Y51220D01*
X-98875Y51308D01*
X-98946Y51378D01*
X-98981Y51343D01*
X-99033Y51291D01*
X-99121Y51220D01*
X-99227Y51115D01*
X-99368Y50974D01*
X-99561Y50798D01*
X-99790Y50587D01*
X-99825Y50552D01*
X-99913Y50481D01*
X-100036Y50341D01*
X-100212Y50165D01*
X-100441Y49954D01*
X-100687Y49725D01*
X-100951Y49461D01*
X-101232Y49197D01*
X-101267Y49162D01*
X-101355Y49074D01*
X-101479Y48951D01*
X-101654Y48793D01*
X-101848Y48599D01*
X-102077Y48388D01*
X-102534Y47931D01*
X-102551Y47896D01*
X-102622Y47825D01*
X-102727Y47720D01*
X-102868Y47597D01*
X-103132Y47315D01*
X-103255Y47192D01*
X-103361Y47087D01*
X-103396Y47051D01*
X-103466Y46981D01*
X-103572Y46858D01*
X-103712Y46700D01*
X-104029Y46365D01*
X-104170Y46207D01*
X-104311Y46049D01*
X-104328Y46031D01*
X-104363Y45978D01*
X-104434Y45908D01*
X-104504Y45820D01*
X-104662Y45609D01*
X-104821Y45363D01*
X-104838Y45345D01*
X-104873Y45292D01*
X-104926Y45222D01*
X-104979Y45152D01*
Y45134D01*
X-105014Y45064D01*
X-105049Y44993D01*
X-105085Y44888D01*
Y44870D01*
X-105102Y44835D01*
X-105120Y44817D01*
X-105137Y44765D01*
X-105155Y44747D01*
X-105172Y44694D01*
X-105190Y44677D01*
X-105208Y44624D01*
Y44606D01*
X-105225Y44571D01*
Y44518D01*
X-105243Y44448D01*
X-105278Y44290D01*
X-105313Y44114D01*
Y44079D01*
X-105331Y43973D01*
X-105348Y43867D01*
Y43744D01*
X-105366Y43656D01*
Y43639D01*
X-105384Y43621D01*
X-105401Y43604D01*
X-105436Y43586D01*
X-105472D01*
X-105489Y43621D01*
X-105507Y43656D01*
Y43709D01*
X-105524Y43797D01*
Y45415D01*
X-105507Y45556D01*
Y45591D01*
X-105489Y45697D01*
Y45943D01*
X-105472Y46031D01*
X-105436Y46242D01*
X-105384Y46471D01*
Y46488D01*
X-105366Y46524D01*
X-105348Y46576D01*
X-105313Y46629D01*
X-105225Y46805D01*
X-105102Y46999D01*
X-105085Y47034D01*
X-105032Y47104D01*
X-104961Y47210D01*
X-104873Y47333D01*
X-104856Y47368D01*
X-104785Y47438D01*
X-104680Y47561D01*
X-104574Y47702D01*
X-104557Y47720D01*
X-104522Y47755D01*
X-104469Y47825D01*
X-104381Y47913D01*
X-104258Y48054D01*
X-104099Y48212D01*
X-103906Y48406D01*
X-103660Y48652D01*
X-103624Y48687D01*
X-103537Y48775D01*
X-103396Y48898D01*
X-103202Y49074D01*
X-102974Y49285D01*
X-102727Y49531D01*
X-102446Y49795D01*
X-102147Y50077D01*
X-102129D01*
X-102112Y50112D01*
X-102059Y50165D01*
X-102041D01*
X-102024Y50182D01*
X-101971Y50235D01*
X-101953D01*
X-101936Y50270D01*
X-101830Y50358D01*
X-101690Y50499D01*
X-101496Y50675D01*
X-101267Y50886D01*
X-101021Y51097D01*
X-100511Y51572D01*
X-100476Y51607D01*
X-100406Y51678D01*
X-100282Y51783D01*
X-100124Y51906D01*
X-99790Y52205D01*
X-99632Y52346D01*
X-99491Y52451D01*
Y52539D01*
X-101021D01*
X-101039D01*
X-101074D01*
X-101127D01*
X-101215D01*
X-101320D01*
X-101426D01*
X-101707D01*
X-102024D01*
X-102358D01*
X-102710D01*
X-103044D01*
X-103062D01*
X-103079D01*
X-103185D01*
X-103343Y52522D01*
X-103537D01*
X-103765Y52504D01*
X-103994Y52487D01*
X-104223Y52469D01*
X-104416Y52451D01*
X-104434D01*
X-104469D01*
X-104539Y52434D01*
X-104627Y52416D01*
X-104803Y52381D01*
X-104997Y52311D01*
X-105014D01*
X-105032Y52293D01*
X-105120Y52205D01*
X-105172Y52152D01*
X-105208Y52064D01*
X-105243Y51977D01*
X-105278Y51853D01*
Y51836D01*
X-105296Y51783D01*
Y51678D01*
X-105313Y51625D01*
Y51537D01*
X-105331Y51449D01*
Y51361D01*
X-105348Y51308D01*
Y51185D01*
X-105366Y51150D01*
X-105384Y51132D01*
X-105401Y51115D01*
X-105436D01*
X-105472D01*
X-105489Y51150D01*
X-105507Y51185D01*
Y51220D01*
X-105524Y51273D01*
Y51977D01*
X-105507Y52135D01*
Y52364D01*
X-105489Y52504D01*
Y53612D01*
X-105507Y53771D01*
Y54457D01*
X-105524Y54562D01*
Y54791D01*
X-105507Y54844D01*
X-105489Y54861D01*
X-105472Y54879D01*
X-105436Y54896D01*
X-105419D01*
X-105384Y54879D01*
X-105366Y54844D01*
X-105348Y54773D01*
Y54668D01*
X-105331Y54633D01*
Y54527D01*
X-105313Y54510D01*
Y54404D01*
X-105296Y54386D01*
X-105278Y54316D01*
Y54298D01*
X-105260Y54281D01*
X-105225Y54175D01*
X-105137Y54070D01*
X-104997Y53999D01*
X-104979D01*
X-104961Y53982D01*
X-104909Y53964D01*
X-104838Y53947D01*
X-104662Y53894D01*
X-104416Y53859D01*
X-104399D01*
X-104328Y53841D01*
X-104205D01*
X-104064Y53824D01*
X-103871Y53806D01*
X-103624D01*
X-103361Y53788D01*
X-103044D01*
X-103026D01*
X-103009D01*
X-102956D01*
X-102886D01*
X-102692D01*
X-102446Y53771D01*
X-102147D01*
X-101813D01*
X-101426D01*
X-101021D01*
X-98260D01*
X-98242D01*
X-98189D01*
X-98101D01*
X-97978D01*
X-97837D01*
X-97679D01*
X-97310D01*
X-96923D01*
X-96536D01*
X-96360D01*
X-96184D01*
X-96043D01*
X-95920D01*
X-95885D01*
X-95815D01*
X-95709D01*
X-95568D01*
X-95252Y53788D01*
X-95093D01*
X-94953Y53806D01*
X-94935D01*
X-94918D01*
X-94900D01*
X-94882D01*
X-94829D01*
X-94759Y53824D01*
X-94671D01*
X-94478Y53876D01*
X-94390Y53911D01*
X-94302Y53964D01*
X-94284D01*
X-94267Y53982D01*
X-94231Y54017D01*
X-94179Y54070D01*
X-94143Y54140D01*
X-94091Y54228D01*
X-94056Y54334D01*
X-94020Y54474D01*
Y54492D01*
X-94003Y54510D01*
Y54633D01*
X-93985Y54650D01*
Y54773D01*
X-93968Y54791D01*
Y55037D01*
X-93950Y55107D01*
X-93932Y55125D01*
X-93880Y55143D01*
X-93862D01*
X-93827D01*
X-93792Y55125D01*
D02*
G37*
G36*
Y43199D02*
X-93774Y43164D01*
Y43146D01*
X-93757Y43111D01*
X-93739Y43058D01*
Y42443D01*
X-93757Y42320D01*
Y41985D01*
X-93774Y41880D01*
Y41739D01*
X-93792Y41598D01*
Y41141D01*
X-93774Y41053D01*
Y40930D01*
X-93757Y40772D01*
Y40121D01*
X-93739Y40051D01*
Y39787D01*
X-93757Y39734D01*
X-93774Y39681D01*
Y39663D01*
X-93792Y39646D01*
X-93827Y39628D01*
X-93880Y39611D01*
X-93897D01*
X-93915Y39628D01*
X-93950Y39663D01*
Y39681D01*
X-93968Y39734D01*
Y39822D01*
X-93985Y39927D01*
Y39945D01*
X-94003Y39980D01*
Y40033D01*
X-94020Y40121D01*
Y40138D01*
X-94038Y40174D01*
X-94056Y40226D01*
X-94073Y40297D01*
X-94161Y40437D01*
X-94214Y40508D01*
X-94284Y40561D01*
X-94302D01*
X-94319Y40578D01*
X-94372Y40596D01*
X-94442Y40613D01*
X-94530Y40648D01*
X-94636Y40666D01*
X-94759Y40684D01*
X-94900Y40701D01*
X-94918D01*
X-94935D01*
X-94953D01*
X-94970D01*
X-95023D01*
X-95093Y40719D01*
X-95199D01*
X-95340D01*
X-95516Y40736D01*
X-95709D01*
X-95920D01*
X-95955D01*
X-96043D01*
X-96114D01*
X-96201D01*
X-96307D01*
X-96430D01*
X-96588D01*
X-96764D01*
X-96958D01*
X-97169D01*
X-97398D01*
X-97662D01*
X-97961D01*
X-98277D01*
X-101021D01*
X-101039D01*
X-101074D01*
X-101127D01*
X-101215D01*
X-101303D01*
X-101426D01*
X-101690D01*
X-102006D01*
X-102340D01*
X-102692D01*
X-103044D01*
X-103062D01*
X-103079D01*
X-103185D01*
X-103343Y40719D01*
X-103537D01*
X-103765D01*
X-103994Y40701D01*
X-104223Y40684D01*
X-104416Y40666D01*
X-104434D01*
X-104469D01*
X-104539Y40648D01*
X-104627Y40631D01*
X-104803Y40578D01*
X-104997Y40508D01*
X-105014D01*
X-105032Y40490D01*
X-105120Y40402D01*
X-105172Y40350D01*
X-105208Y40262D01*
X-105243Y40174D01*
X-105278Y40051D01*
Y40033D01*
X-105296Y39998D01*
X-105313Y39910D01*
Y39751D01*
X-105331Y39699D01*
Y39628D01*
X-105348Y39540D01*
Y39312D01*
X-105366Y39276D01*
X-105384Y39259D01*
X-105401Y39241D01*
X-105436Y39224D01*
X-105472D01*
X-105489Y39259D01*
X-105507Y39294D01*
Y39329D01*
X-105524Y39382D01*
Y40103D01*
X-105507Y40279D01*
Y40772D01*
X-105489Y40877D01*
Y41845D01*
X-105507Y42021D01*
Y42724D01*
X-105524Y42830D01*
Y43058D01*
X-105507Y43111D01*
X-105489Y43129D01*
X-105472Y43146D01*
X-105436Y43164D01*
X-105419D01*
X-105384Y43146D01*
X-105366Y43111D01*
X-105348Y43041D01*
Y42935D01*
X-105331Y42900D01*
Y42794D01*
X-105313Y42777D01*
Y42671D01*
X-105296Y42654D01*
X-105278Y42583D01*
Y42566D01*
X-105260Y42548D01*
X-105225Y42443D01*
X-105137Y42337D01*
X-104997Y42267D01*
X-104979D01*
X-104961Y42249D01*
X-104909Y42232D01*
X-104838Y42214D01*
X-104662Y42161D01*
X-104416Y42126D01*
X-104399D01*
X-104328Y42109D01*
X-104205D01*
X-104064Y42091D01*
X-103871Y42073D01*
X-103624D01*
X-103361Y42056D01*
X-103044D01*
X-103026D01*
X-103009D01*
X-102956D01*
X-102886D01*
X-102692D01*
X-102446Y42038D01*
X-102147D01*
X-101813D01*
X-101426D01*
X-101021D01*
X-98260D01*
X-98242D01*
X-98189D01*
X-98101D01*
X-97978D01*
X-97837D01*
X-97679D01*
X-97310D01*
X-96923D01*
X-96536D01*
X-96360D01*
X-96184D01*
X-96043D01*
X-95920D01*
X-95885D01*
X-95815D01*
X-95709D01*
X-95568D01*
X-95252Y42056D01*
X-95093D01*
X-94953Y42073D01*
X-94935D01*
X-94918D01*
X-94900D01*
X-94882D01*
X-94829D01*
X-94759Y42091D01*
X-94671D01*
X-94478Y42144D01*
X-94390Y42179D01*
X-94302Y42214D01*
X-94284D01*
X-94267Y42232D01*
X-94179Y42302D01*
X-94091Y42425D01*
X-94020Y42601D01*
Y42671D01*
X-94003Y42689D01*
Y42759D01*
X-93985Y42812D01*
Y42953D01*
X-93968Y42988D01*
Y43129D01*
X-93950Y43181D01*
X-93932Y43199D01*
X-93880Y43217D01*
X-93862D01*
X-93827D01*
X-93792Y43199D01*
D02*
G37*
G36*
X-105366Y36902D02*
X-105348Y36884D01*
Y36585D01*
X-105331Y36515D01*
X-105313Y36445D01*
X-105296Y36339D01*
X-105278Y36321D01*
Y36251D01*
X-105260Y36233D01*
X-105243Y36163D01*
Y36145D01*
X-105225Y36110D01*
X-105190Y36075D01*
X-105155Y36005D01*
X-105085Y35952D01*
X-104997Y35882D01*
X-104891Y35829D01*
X-104750Y35794D01*
X-104733D01*
X-104662Y35776D01*
X-104557Y35759D01*
X-104399Y35741D01*
X-104205D01*
X-103941Y35723D01*
X-103624Y35706D01*
X-103255D01*
X-94302Y35688D01*
X-94284D01*
X-94231D01*
X-94161D01*
X-94056D01*
X-93862Y35671D01*
X-93774D01*
X-93704Y35653D01*
X-93669D01*
X-93616Y35618D01*
X-93563Y35583D01*
X-93528Y35512D01*
Y35477D01*
X-93563Y35442D01*
X-93598Y35389D01*
X-93616Y35372D01*
X-93651Y35336D01*
X-93757Y35213D01*
X-93774Y35196D01*
X-93792D01*
Y35178D01*
X-93809D01*
X-93827Y35160D01*
X-93844Y35143D01*
X-93932Y35072D01*
Y35055D01*
X-93968Y35037D01*
X-94020Y34967D01*
X-94038Y34949D01*
X-94073Y34914D01*
X-94179Y34826D01*
X-94249Y34773D01*
X-94319Y34686D01*
X-94425Y34598D01*
X-94566Y34475D01*
X-94706Y34351D01*
X-94882Y34193D01*
X-95076Y33999D01*
X-95304Y33788D01*
X-95568Y33560D01*
X-95850Y33296D01*
X-95867Y33278D01*
X-95920Y33226D01*
X-96008Y33138D01*
X-96131Y33032D01*
X-96272Y32891D01*
X-96465Y32733D01*
X-96659Y32540D01*
X-96887Y32329D01*
X-97151Y32082D01*
X-97415Y31836D01*
X-97714Y31572D01*
X-98013Y31273D01*
X-98682Y30657D01*
X-99385Y30007D01*
X-99403Y29989D01*
X-99473Y29919D01*
X-99579Y29831D01*
X-99684Y29743D01*
X-99702Y29725D01*
X-99772Y29655D01*
X-99860Y29567D01*
X-99966Y29479D01*
Y29461D01*
X-99983Y29444D01*
X-100054Y29391D01*
Y29373D01*
X-100089Y29356D01*
X-100142Y29285D01*
X-100159Y29268D01*
X-100195Y29233D01*
X-100247Y29180D01*
X-100318Y29109D01*
X-100423Y29022D01*
X-100529Y28934D01*
X-100793Y28687D01*
X-101109Y28406D01*
X-101461Y28089D01*
X-101813Y27773D01*
X-102182Y27439D01*
X-102200Y27421D01*
X-102217Y27403D01*
X-102270Y27351D01*
X-102340Y27298D01*
X-102499Y27157D01*
X-102692Y26963D01*
X-102903Y26770D01*
X-103114Y26577D01*
X-103308Y26401D01*
X-103449Y26260D01*
X-95516Y26436D01*
X-95498D01*
X-95480D01*
X-95392D01*
X-95252Y26453D01*
X-95093D01*
X-94759Y26506D01*
X-94583Y26541D01*
X-94460Y26577D01*
X-94442D01*
X-94407Y26594D01*
X-94284Y26682D01*
X-94214Y26735D01*
X-94143Y26823D01*
X-94091Y26928D01*
X-94038Y27051D01*
X-94020Y27069D01*
Y27298D01*
X-94003Y27368D01*
X-93985Y27474D01*
Y27614D01*
X-93968Y27667D01*
Y27843D01*
X-93932Y27913D01*
X-93915D01*
X-93862Y27931D01*
X-93844D01*
X-93809Y27913D01*
X-93774Y27896D01*
X-93757Y27843D01*
Y27825D01*
X-93739Y27773D01*
Y27175D01*
X-93757Y27016D01*
Y26577D01*
X-93774Y26471D01*
Y26348D01*
X-93792Y26225D01*
Y25803D01*
X-93774Y25732D01*
Y25627D01*
X-93757Y25521D01*
Y25099D01*
X-93739Y24993D01*
Y24536D01*
X-93757Y24483D01*
Y24466D01*
X-93774Y24431D01*
X-93809Y24413D01*
X-93862Y24395D01*
X-93880D01*
X-93897Y24413D01*
X-93932Y24448D01*
X-93950Y24483D01*
X-93968Y24519D01*
Y24607D01*
X-93985Y24712D01*
Y24765D01*
X-94003Y24853D01*
X-94020Y24941D01*
Y24958D01*
X-94038Y24993D01*
X-94056Y25064D01*
X-94091Y25152D01*
X-94143Y25222D01*
X-94214Y25310D01*
X-94302Y25380D01*
X-94407Y25433D01*
X-94425D01*
X-94460Y25451D01*
X-94530Y25468D01*
X-94636D01*
X-94777Y25486D01*
X-94953Y25504D01*
X-95164Y25521D01*
X-95410D01*
X-104539Y25539D01*
X-104574D01*
X-104662D01*
X-104803D01*
X-104961D01*
X-105120D01*
X-105278Y25556D01*
X-105401D01*
X-105489Y25574D01*
X-105507D01*
X-105559Y25591D01*
X-105612Y25627D01*
X-105630Y25679D01*
Y25697D01*
X-105612Y25750D01*
X-105559Y25855D01*
X-105472Y25996D01*
X-105454Y26014D01*
X-105436Y26031D01*
X-105384Y26102D01*
X-105296Y26172D01*
X-105190Y26295D01*
X-105049Y26436D01*
X-104873Y26612D01*
X-104662Y26823D01*
X-104627Y26858D01*
X-104592Y26893D01*
X-104504Y26981D01*
X-104381Y27104D01*
X-104205Y27280D01*
X-103976Y27509D01*
X-103836Y27650D01*
X-103677Y27808D01*
X-103660Y27825D01*
X-103642Y27843D01*
X-103589Y27896D01*
X-103519Y27966D01*
X-103325Y28142D01*
X-103079Y28388D01*
X-102780Y28670D01*
X-102446Y29004D01*
X-102077Y29356D01*
X-101672Y29743D01*
X-101654Y29760D01*
X-101602Y29813D01*
X-101584D01*
X-101567Y29831D01*
X-101514Y29884D01*
X-101496Y29901D01*
X-101461Y29936D01*
X-101408Y29989D01*
X-101338Y30042D01*
X-101162Y30218D01*
X-100968Y30411D01*
X-100951Y30429D01*
X-100916Y30446D01*
X-100863Y30499D01*
X-100810Y30569D01*
X-100634Y30728D01*
X-100441Y30904D01*
X-100423Y30921D01*
X-100406Y30939D01*
X-100388D01*
Y30957D01*
X-100370Y30974D01*
X-100318Y31009D01*
X-100247Y31097D01*
X-100142Y31185D01*
X-100019Y31308D01*
X-99860Y31449D01*
X-99684Y31607D01*
X-99491Y31783D01*
X-99086Y32153D01*
X-98629Y32575D01*
X-98136Y33015D01*
X-97662Y33454D01*
X-97644Y33472D01*
X-97609Y33507D01*
X-97538Y33560D01*
X-97450Y33630D01*
X-97239Y33841D01*
X-96975Y34070D01*
X-96676Y34334D01*
X-96413Y34580D01*
X-96166Y34791D01*
X-96061Y34897D01*
X-95973Y34966D01*
X-103431Y34773D01*
X-103449D01*
X-103466D01*
X-103519D01*
X-103589D01*
X-103765Y34756D01*
X-103959Y34738D01*
X-104187Y34721D01*
X-104416Y34686D01*
X-104610Y34650D01*
X-104785Y34615D01*
X-104803D01*
X-104838Y34580D01*
X-104909Y34545D01*
X-104979Y34510D01*
X-105137Y34369D01*
X-105190Y34263D01*
X-105243Y34158D01*
Y34140D01*
X-105260Y34123D01*
X-105278Y34070D01*
Y33947D01*
X-105313Y33876D01*
X-105331Y33753D01*
X-105348Y33630D01*
Y33314D01*
X-105366Y33296D01*
X-105384Y33278D01*
X-105436Y33261D01*
X-105472D01*
X-105489Y33296D01*
X-105507Y33331D01*
Y33384D01*
X-105524Y33454D01*
Y33929D01*
X-105507Y34140D01*
Y34686D01*
X-105489Y34773D01*
Y35583D01*
X-105507Y35723D01*
Y36339D01*
X-105524Y36497D01*
Y36744D01*
X-105507Y36867D01*
Y36884D01*
X-105489Y36902D01*
X-105472Y36920D01*
X-105436Y36937D01*
X-105419D01*
X-105401D01*
X-105366Y36902D01*
D02*
G37*
G36*
X-114505Y55701D02*
X-114510Y55697D01*
X-114515Y55678D01*
X-114528Y55651D01*
X-114547Y55614D01*
X-114565Y55568D01*
X-114588Y55512D01*
X-114607Y55447D01*
X-114630Y55378D01*
Y55369D01*
X-114639Y55346D01*
X-114648Y55304D01*
X-114658Y55253D01*
X-114667Y55189D01*
X-114676Y55119D01*
X-114681Y55045D01*
X-114685Y54967D01*
Y54930D01*
X-114681Y54888D01*
X-114676Y54838D01*
X-114667Y54782D01*
X-114648Y54722D01*
X-114630Y54667D01*
X-114602Y54620D01*
X-114598Y54616D01*
X-114588Y54602D01*
X-114565Y54583D01*
X-114542Y54560D01*
X-114505Y54537D01*
X-114468Y54519D01*
X-114422Y54505D01*
X-114371Y54500D01*
X-114367D01*
X-114348D01*
X-114321Y54505D01*
X-114293Y54514D01*
X-114256Y54528D01*
X-114219Y54551D01*
X-114182Y54579D01*
X-114145Y54616D01*
X-114140Y54620D01*
X-114131Y54639D01*
X-114113Y54667D01*
X-114085Y54708D01*
X-114057Y54759D01*
X-114029Y54824D01*
X-113993Y54902D01*
X-113960Y54995D01*
Y54999D01*
X-113955Y55008D01*
X-113946Y55032D01*
X-113937Y55055D01*
X-113923Y55087D01*
X-113909Y55119D01*
X-113868Y55203D01*
X-113821Y55300D01*
X-113761Y55396D01*
X-113697Y55493D01*
X-113623Y55581D01*
X-113618Y55586D01*
X-113614Y55591D01*
X-113586Y55614D01*
X-113540Y55651D01*
X-113480Y55692D01*
X-113401Y55734D01*
X-113309Y55766D01*
X-113207Y55794D01*
X-113152Y55799D01*
X-113092Y55803D01*
X-113082D01*
X-113059D01*
X-113022Y55799D01*
X-112981Y55794D01*
X-112925Y55785D01*
X-112865Y55771D01*
X-112805Y55752D01*
X-112745Y55729D01*
X-112736Y55725D01*
X-112717Y55715D01*
X-112690Y55697D01*
X-112648Y55674D01*
X-112607Y55641D01*
X-112560Y55604D01*
X-112514Y55563D01*
X-112468Y55512D01*
X-112463Y55507D01*
X-112449Y55484D01*
X-112426Y55457D01*
X-112403Y55410D01*
X-112371Y55360D01*
X-112343Y55300D01*
X-112311Y55235D01*
X-112283Y55161D01*
Y55156D01*
X-112278Y55152D01*
X-112274Y55124D01*
X-112260Y55082D01*
X-112246Y55022D01*
X-112237Y54958D01*
X-112223Y54874D01*
X-112218Y54787D01*
X-112214Y54694D01*
Y54606D01*
X-112218Y54546D01*
X-112223Y54482D01*
X-112232Y54408D01*
X-112246Y54334D01*
X-112260Y54265D01*
Y54255D01*
X-112269Y54232D01*
X-112278Y54200D01*
X-112288Y54154D01*
X-112302Y54107D01*
X-112320Y54052D01*
X-112338Y53997D01*
X-112362Y53946D01*
X-112898Y54094D01*
Y54098D01*
X-112888Y54107D01*
X-112879Y54131D01*
X-112870Y54158D01*
X-112856Y54191D01*
X-112838Y54232D01*
X-112824Y54283D01*
X-112805Y54339D01*
X-112801Y54343D01*
X-112796Y54366D01*
X-112787Y54399D01*
X-112777Y54440D01*
X-112768Y54496D01*
X-112764Y54556D01*
X-112754Y54625D01*
Y54741D01*
X-112759Y54777D01*
X-112764Y54824D01*
X-112777Y54879D01*
X-112791Y54930D01*
X-112814Y54981D01*
X-112842Y55027D01*
X-112847Y55032D01*
X-112856Y55041D01*
X-112874Y55059D01*
X-112898Y55078D01*
X-112925Y55096D01*
X-112962Y55115D01*
X-112999Y55124D01*
X-113041Y55129D01*
X-113045D01*
X-113050D01*
X-113082Y55124D01*
X-113124Y55115D01*
X-113165Y55101D01*
X-113175Y55096D01*
X-113198Y55078D01*
X-113225Y55045D01*
X-113262Y55004D01*
Y54999D01*
X-113272Y54990D01*
X-113281Y54976D01*
X-113290Y54958D01*
X-113304Y54930D01*
X-113323Y54902D01*
X-113355Y54833D01*
Y54828D01*
X-113364Y54814D01*
X-113373Y54791D01*
X-113383Y54764D01*
X-113397Y54727D01*
X-113415Y54685D01*
X-113433Y54639D01*
X-113452Y54588D01*
Y54583D01*
X-113456Y54570D01*
X-113466Y54551D01*
X-113480Y54523D01*
X-113494Y54491D01*
X-113507Y54454D01*
X-113549Y54366D01*
X-113600Y54274D01*
X-113660Y54177D01*
X-113729Y54089D01*
X-113766Y54048D01*
X-113803Y54010D01*
X-113812Y54001D01*
X-113840Y53983D01*
X-113886Y53951D01*
X-113946Y53918D01*
X-114020Y53886D01*
X-114113Y53853D01*
X-114214Y53835D01*
X-114325Y53826D01*
X-114334D01*
X-114357D01*
X-114390Y53830D01*
X-114436Y53835D01*
X-114487Y53844D01*
X-114547Y53858D01*
X-114607Y53877D01*
X-114672Y53900D01*
X-114681Y53904D01*
X-114699Y53913D01*
X-114732Y53932D01*
X-114769Y53955D01*
X-114815Y53987D01*
X-114866Y54024D01*
X-114917Y54071D01*
X-114963Y54121D01*
X-114967Y54126D01*
X-114981Y54149D01*
X-115004Y54177D01*
X-115032Y54218D01*
X-115064Y54274D01*
X-115097Y54334D01*
X-115134Y54408D01*
X-115161Y54486D01*
Y54491D01*
X-115166Y54496D01*
Y54510D01*
X-115171Y54523D01*
X-115184Y54574D01*
X-115194Y54634D01*
X-115208Y54713D01*
X-115221Y54800D01*
X-115226Y54898D01*
X-115231Y55008D01*
Y55050D01*
X-115226Y55101D01*
X-115221Y55161D01*
X-115217Y55235D01*
X-115208Y55313D01*
X-115194Y55396D01*
X-115175Y55484D01*
Y55489D01*
X-115171Y55493D01*
X-115166Y55521D01*
X-115152Y55563D01*
X-115138Y55614D01*
X-115120Y55669D01*
X-115101Y55729D01*
X-115074Y55789D01*
X-115050Y55840D01*
X-114505Y55701D01*
D02*
G37*
G36*
X-112297Y53364D02*
X-112292Y53345D01*
X-112288Y53313D01*
X-112278Y53271D01*
X-112274Y53216D01*
X-112265Y53156D01*
X-112260Y53082D01*
X-112251Y53003D01*
Y52980D01*
X-112246Y52962D01*
Y52916D01*
X-112241Y52855D01*
X-112237Y52777D01*
Y52689D01*
X-112232Y52588D01*
Y52417D01*
X-112237Y52380D01*
X-112241Y52329D01*
X-112246Y52269D01*
X-112251Y52204D01*
X-112260Y52139D01*
X-112292Y51992D01*
X-112334Y51844D01*
X-112362Y51770D01*
X-112394Y51701D01*
X-112431Y51640D01*
X-112472Y51580D01*
X-112477Y51576D01*
X-112491Y51557D01*
X-112519Y51530D01*
X-112551Y51497D01*
X-112593Y51460D01*
X-112639Y51423D01*
X-112694Y51386D01*
X-112759Y51354D01*
X-112768Y51349D01*
X-112787Y51340D01*
X-112824Y51326D01*
X-112870Y51308D01*
X-112930Y51294D01*
X-112995Y51280D01*
X-113073Y51271D01*
X-113152Y51266D01*
X-113156D01*
X-113161D01*
X-113189D01*
X-113230Y51271D01*
X-113286Y51275D01*
X-113346Y51285D01*
X-113410Y51294D01*
X-113480Y51312D01*
X-113549Y51336D01*
X-113558Y51340D01*
X-113577Y51349D01*
X-113609Y51363D01*
X-113651Y51386D01*
X-113701Y51414D01*
X-113748Y51451D01*
X-113798Y51493D01*
X-113849Y51539D01*
X-113854Y51548D01*
X-113872Y51566D01*
X-113900Y51604D01*
X-113937Y51654D01*
X-113974Y51714D01*
X-114011Y51784D01*
X-114048Y51862D01*
X-114080Y51950D01*
Y51955D01*
X-114085Y51959D01*
Y51973D01*
X-114090Y51992D01*
X-114103Y52042D01*
X-114117Y52107D01*
X-114131Y52190D01*
X-114140Y52283D01*
X-114149Y52384D01*
X-114154Y52491D01*
Y52620D01*
X-114149Y52643D01*
X-114145Y52675D01*
X-114140Y52712D01*
X-115189D01*
Y53373D01*
X-112297D01*
Y53364D01*
D02*
G37*
G36*
X-112255Y50162D02*
Y49298D01*
X-115189Y48383D01*
Y49099D01*
X-114436Y49326D01*
Y50167D01*
X-115189Y50375D01*
Y51058D01*
X-112255Y50162D01*
D02*
G37*
G36*
X-113664Y48120D02*
X-113628D01*
X-113586Y48115D01*
X-113540Y48111D01*
X-113438Y48092D01*
X-113327Y48074D01*
X-113212Y48041D01*
X-113101Y48000D01*
X-113096D01*
X-113087Y47995D01*
X-113073Y47986D01*
X-113050Y47977D01*
X-112999Y47949D01*
X-112930Y47912D01*
X-112856Y47861D01*
X-112773Y47801D01*
X-112694Y47737D01*
X-112616Y47658D01*
X-112611Y47653D01*
X-112607Y47649D01*
X-112597Y47635D01*
X-112583Y47621D01*
X-112551Y47575D01*
X-112505Y47515D01*
X-112459Y47436D01*
X-112408Y47353D01*
X-112362Y47256D01*
X-112320Y47150D01*
Y47145D01*
X-112315Y47136D01*
X-112311Y47122D01*
X-112302Y47099D01*
X-112297Y47071D01*
X-112288Y47039D01*
X-112278Y47002D01*
X-112265Y46960D01*
X-112246Y46868D01*
X-112232Y46762D01*
X-112218Y46646D01*
X-112214Y46526D01*
Y46434D01*
X-112218Y46369D01*
X-112223Y46300D01*
X-112232Y46226D01*
X-112241Y46152D01*
X-112255Y46078D01*
Y46069D01*
X-112265Y46046D01*
X-112269Y46013D01*
X-112283Y45972D01*
X-112306Y45879D01*
X-112325Y45838D01*
X-112338Y45801D01*
X-112870Y45939D01*
Y45944D01*
X-112861Y45958D01*
X-112856Y45981D01*
X-112847Y46009D01*
X-112833Y46041D01*
X-112819Y46083D01*
X-112810Y46129D01*
X-112796Y46180D01*
Y46184D01*
X-112791Y46203D01*
X-112782Y46230D01*
X-112777Y46267D01*
X-112768Y46318D01*
X-112764Y46369D01*
X-112759Y46434D01*
Y46531D01*
X-112764Y46568D01*
X-112768Y46619D01*
X-112773Y46674D01*
X-112787Y46734D01*
X-112801Y46799D01*
X-112824Y46863D01*
X-112828Y46873D01*
X-112833Y46891D01*
X-112847Y46923D01*
X-112870Y46965D01*
X-112893Y47011D01*
X-112925Y47062D01*
X-112962Y47108D01*
X-113004Y47159D01*
X-113008Y47164D01*
X-113022Y47177D01*
X-113050Y47201D01*
X-113082Y47228D01*
X-113128Y47261D01*
X-113179Y47293D01*
X-113239Y47330D01*
X-113304Y47358D01*
X-113313Y47362D01*
X-113336Y47367D01*
X-113373Y47381D01*
X-113424Y47390D01*
X-113489Y47404D01*
X-113558Y47418D01*
X-113641Y47422D01*
X-113729Y47427D01*
X-113734D01*
X-113748D01*
X-113771D01*
X-113803Y47422D01*
X-113840Y47418D01*
X-113882Y47413D01*
X-113928Y47409D01*
X-113979Y47395D01*
X-114090Y47367D01*
X-114205Y47325D01*
X-114265Y47298D01*
X-114321Y47261D01*
X-114371Y47224D01*
X-114422Y47182D01*
X-114427Y47177D01*
X-114431Y47173D01*
X-114445Y47154D01*
X-114464Y47136D01*
X-114482Y47113D01*
X-114501Y47080D01*
X-114524Y47044D01*
X-114547Y47002D01*
X-114575Y46956D01*
X-114598Y46905D01*
X-114616Y46850D01*
X-114635Y46790D01*
X-114653Y46720D01*
X-114667Y46651D01*
X-114672Y46572D01*
X-114676Y46494D01*
Y46438D01*
X-114672Y46397D01*
Y46351D01*
X-114667Y46300D01*
X-114653Y46189D01*
Y46184D01*
X-114648Y46161D01*
X-114644Y46133D01*
X-114635Y46101D01*
X-114625Y46060D01*
X-114612Y46018D01*
X-114598Y45976D01*
X-114584Y45935D01*
X-115106Y45842D01*
Y45847D01*
X-115115Y45856D01*
X-115124Y45879D01*
X-115134Y45907D01*
X-115147Y45949D01*
X-115161Y45995D01*
X-115175Y46055D01*
X-115189Y46124D01*
Y46133D01*
X-115194Y46161D01*
X-115203Y46203D01*
X-115208Y46258D01*
X-115217Y46327D01*
X-115226Y46406D01*
X-115231Y46494D01*
Y46655D01*
X-115226Y46688D01*
Y46725D01*
X-115221Y46771D01*
X-115217Y46817D01*
X-115203Y46919D01*
X-115184Y47034D01*
X-115157Y47150D01*
X-115120Y47261D01*
Y47265D01*
X-115115Y47275D01*
X-115106Y47288D01*
X-115101Y47307D01*
X-115074Y47362D01*
X-115041Y47427D01*
X-114995Y47506D01*
X-114944Y47584D01*
X-114884Y47663D01*
X-114815Y47741D01*
X-114810D01*
X-114806Y47750D01*
X-114778Y47774D01*
X-114736Y47806D01*
X-114681Y47847D01*
X-114612Y47894D01*
X-114533Y47940D01*
X-114445Y47986D01*
X-114348Y48028D01*
X-114344D01*
X-114334Y48032D01*
X-114321Y48037D01*
X-114302Y48041D01*
X-114274Y48051D01*
X-114247Y48060D01*
X-114173Y48074D01*
X-114085Y48092D01*
X-113983Y48111D01*
X-113877Y48120D01*
X-113761Y48125D01*
X-113757D01*
X-113743D01*
X-113725D01*
X-113697D01*
X-113664Y48120D01*
D02*
G37*
G36*
X-112255Y43597D02*
X-112801D01*
Y44738D01*
X-113410D01*
Y43662D01*
X-113951D01*
Y44738D01*
X-114644D01*
Y43537D01*
X-115189D01*
Y45399D01*
X-112255D01*
Y43597D01*
D02*
G37*
G36*
X-114505Y42179D02*
X-114510Y42174D01*
X-114515Y42156D01*
X-114528Y42128D01*
X-114547Y42091D01*
X-114565Y42045D01*
X-114588Y41989D01*
X-114607Y41925D01*
X-114630Y41855D01*
Y41846D01*
X-114639Y41823D01*
X-114648Y41781D01*
X-114658Y41731D01*
X-114667Y41666D01*
X-114676Y41597D01*
X-114681Y41523D01*
X-114685Y41444D01*
Y41407D01*
X-114681Y41366D01*
X-114676Y41315D01*
X-114667Y41259D01*
X-114648Y41199D01*
X-114630Y41144D01*
X-114602Y41098D01*
X-114598Y41093D01*
X-114588Y41079D01*
X-114565Y41061D01*
X-114542Y41038D01*
X-114505Y41015D01*
X-114468Y40996D01*
X-114422Y40982D01*
X-114371Y40977D01*
X-114367D01*
X-114348D01*
X-114321Y40982D01*
X-114293Y40991D01*
X-114256Y41005D01*
X-114219Y41028D01*
X-114182Y41056D01*
X-114145Y41093D01*
X-114140Y41098D01*
X-114131Y41116D01*
X-114113Y41144D01*
X-114085Y41185D01*
X-114057Y41236D01*
X-114029Y41301D01*
X-113993Y41379D01*
X-113960Y41472D01*
Y41477D01*
X-113955Y41486D01*
X-113946Y41509D01*
X-113937Y41532D01*
X-113923Y41564D01*
X-113909Y41597D01*
X-113868Y41680D01*
X-113821Y41777D01*
X-113761Y41874D01*
X-113697Y41971D01*
X-113623Y42059D01*
X-113618Y42063D01*
X-113614Y42068D01*
X-113586Y42091D01*
X-113540Y42128D01*
X-113480Y42169D01*
X-113401Y42211D01*
X-113309Y42243D01*
X-113207Y42271D01*
X-113152Y42276D01*
X-113092Y42280D01*
X-113082D01*
X-113059D01*
X-113022Y42276D01*
X-112981Y42271D01*
X-112925Y42262D01*
X-112865Y42248D01*
X-112805Y42230D01*
X-112745Y42206D01*
X-112736Y42202D01*
X-112717Y42193D01*
X-112690Y42174D01*
X-112648Y42151D01*
X-112607Y42119D01*
X-112560Y42082D01*
X-112514Y42040D01*
X-112468Y41989D01*
X-112463Y41985D01*
X-112449Y41962D01*
X-112426Y41934D01*
X-112403Y41888D01*
X-112371Y41837D01*
X-112343Y41777D01*
X-112311Y41712D01*
X-112283Y41638D01*
Y41633D01*
X-112278Y41629D01*
X-112274Y41601D01*
X-112260Y41560D01*
X-112246Y41500D01*
X-112237Y41435D01*
X-112223Y41352D01*
X-112218Y41264D01*
X-112214Y41172D01*
Y41084D01*
X-112218Y41024D01*
X-112223Y40959D01*
X-112232Y40885D01*
X-112246Y40811D01*
X-112260Y40742D01*
Y40733D01*
X-112269Y40709D01*
X-112278Y40677D01*
X-112288Y40631D01*
X-112302Y40585D01*
X-112320Y40529D01*
X-112338Y40474D01*
X-112362Y40423D01*
X-112898Y40571D01*
Y40576D01*
X-112888Y40585D01*
X-112879Y40608D01*
X-112870Y40636D01*
X-112856Y40668D01*
X-112838Y40709D01*
X-112824Y40760D01*
X-112805Y40816D01*
X-112801Y40820D01*
X-112796Y40843D01*
X-112787Y40876D01*
X-112777Y40917D01*
X-112768Y40973D01*
X-112764Y41033D01*
X-112754Y41102D01*
Y41218D01*
X-112759Y41255D01*
X-112764Y41301D01*
X-112777Y41356D01*
X-112791Y41407D01*
X-112814Y41458D01*
X-112842Y41504D01*
X-112847Y41509D01*
X-112856Y41518D01*
X-112874Y41537D01*
X-112898Y41555D01*
X-112925Y41574D01*
X-112962Y41592D01*
X-112999Y41601D01*
X-113041Y41606D01*
X-113045D01*
X-113050D01*
X-113082Y41601D01*
X-113124Y41592D01*
X-113165Y41578D01*
X-113175Y41574D01*
X-113198Y41555D01*
X-113225Y41523D01*
X-113262Y41481D01*
Y41477D01*
X-113272Y41467D01*
X-113281Y41453D01*
X-113290Y41435D01*
X-113304Y41407D01*
X-113323Y41379D01*
X-113355Y41310D01*
Y41306D01*
X-113364Y41292D01*
X-113373Y41269D01*
X-113383Y41241D01*
X-113397Y41204D01*
X-113415Y41162D01*
X-113433Y41116D01*
X-113452Y41065D01*
Y41061D01*
X-113456Y41047D01*
X-113466Y41028D01*
X-113480Y41001D01*
X-113494Y40968D01*
X-113507Y40931D01*
X-113549Y40843D01*
X-113600Y40751D01*
X-113660Y40654D01*
X-113729Y40566D01*
X-113766Y40525D01*
X-113803Y40488D01*
X-113812Y40479D01*
X-113840Y40460D01*
X-113886Y40428D01*
X-113946Y40395D01*
X-114020Y40363D01*
X-114113Y40331D01*
X-114214Y40312D01*
X-114325Y40303D01*
X-114334D01*
X-114357D01*
X-114390Y40308D01*
X-114436Y40312D01*
X-114487Y40321D01*
X-114547Y40335D01*
X-114607Y40354D01*
X-114672Y40377D01*
X-114681Y40382D01*
X-114699Y40391D01*
X-114732Y40409D01*
X-114769Y40432D01*
X-114815Y40465D01*
X-114866Y40502D01*
X-114917Y40548D01*
X-114963Y40599D01*
X-114967Y40603D01*
X-114981Y40626D01*
X-115004Y40654D01*
X-115032Y40696D01*
X-115064Y40751D01*
X-115097Y40811D01*
X-115134Y40885D01*
X-115161Y40964D01*
Y40968D01*
X-115166Y40973D01*
Y40987D01*
X-115171Y41001D01*
X-115184Y41051D01*
X-115194Y41111D01*
X-115208Y41190D01*
X-115221Y41278D01*
X-115226Y41375D01*
X-115231Y41486D01*
Y41527D01*
X-115226Y41578D01*
X-115221Y41638D01*
X-115217Y41712D01*
X-115208Y41791D01*
X-115194Y41874D01*
X-115175Y41962D01*
Y41966D01*
X-115171Y41971D01*
X-115166Y41998D01*
X-115152Y42040D01*
X-115138Y42091D01*
X-115120Y42146D01*
X-115101Y42206D01*
X-115074Y42266D01*
X-115050Y42317D01*
X-114505Y42179D01*
D02*
G37*
G36*
X-112255Y39337D02*
X-112962Y39042D01*
X-112971Y39037D01*
X-112990Y39028D01*
X-113022Y39019D01*
X-113059Y39000D01*
X-113105Y38982D01*
X-113152Y38963D01*
X-113253Y38922D01*
X-113258Y38917D01*
X-113276Y38912D01*
X-113300Y38903D01*
X-113336Y38889D01*
X-113378Y38875D01*
X-113424Y38857D01*
X-113526Y38815D01*
Y38806D01*
X-113521D01*
X-113503Y38797D01*
X-113475Y38788D01*
X-113438Y38778D01*
X-113397Y38760D01*
X-113350Y38746D01*
X-113253Y38709D01*
X-113249Y38704D01*
X-113230Y38700D01*
X-113202Y38686D01*
X-113165Y38672D01*
X-113124Y38654D01*
X-113073Y38635D01*
X-113018Y38607D01*
X-112962Y38584D01*
X-112255Y38289D01*
Y37545D01*
X-113969Y38510D01*
X-115189D01*
Y39171D01*
X-113988D01*
X-112255Y40100D01*
Y39337D01*
D02*
G37*
G36*
X-114505Y37203D02*
X-114510Y37198D01*
X-114515Y37180D01*
X-114528Y37152D01*
X-114547Y37115D01*
X-114565Y37069D01*
X-114588Y37014D01*
X-114607Y36949D01*
X-114630Y36880D01*
Y36870D01*
X-114639Y36847D01*
X-114648Y36806D01*
X-114658Y36755D01*
X-114667Y36690D01*
X-114676Y36621D01*
X-114681Y36547D01*
X-114685Y36468D01*
Y36431D01*
X-114681Y36390D01*
X-114676Y36339D01*
X-114667Y36284D01*
X-114648Y36224D01*
X-114630Y36168D01*
X-114602Y36122D01*
X-114598Y36117D01*
X-114588Y36103D01*
X-114565Y36085D01*
X-114542Y36062D01*
X-114505Y36039D01*
X-114468Y36020D01*
X-114422Y36006D01*
X-114371Y36002D01*
X-114367D01*
X-114348D01*
X-114321Y36006D01*
X-114293Y36016D01*
X-114256Y36029D01*
X-114219Y36053D01*
X-114182Y36080D01*
X-114145Y36117D01*
X-114140Y36122D01*
X-114131Y36140D01*
X-114113Y36168D01*
X-114085Y36210D01*
X-114057Y36261D01*
X-114029Y36325D01*
X-113993Y36404D01*
X-113960Y36496D01*
Y36501D01*
X-113955Y36510D01*
X-113946Y36533D01*
X-113937Y36556D01*
X-113923Y36588D01*
X-113909Y36621D01*
X-113868Y36704D01*
X-113821Y36801D01*
X-113761Y36898D01*
X-113697Y36995D01*
X-113623Y37083D01*
X-113618Y37088D01*
X-113614Y37092D01*
X-113586Y37115D01*
X-113540Y37152D01*
X-113480Y37194D01*
X-113401Y37235D01*
X-113309Y37268D01*
X-113207Y37295D01*
X-113152Y37300D01*
X-113092Y37305D01*
X-113082D01*
X-113059D01*
X-113022Y37300D01*
X-112981Y37295D01*
X-112925Y37286D01*
X-112865Y37272D01*
X-112805Y37254D01*
X-112745Y37231D01*
X-112736Y37226D01*
X-112717Y37217D01*
X-112690Y37198D01*
X-112648Y37175D01*
X-112607Y37143D01*
X-112560Y37106D01*
X-112514Y37064D01*
X-112468Y37014D01*
X-112463Y37009D01*
X-112449Y36986D01*
X-112426Y36958D01*
X-112403Y36912D01*
X-112371Y36861D01*
X-112343Y36801D01*
X-112311Y36736D01*
X-112283Y36662D01*
Y36658D01*
X-112278Y36653D01*
X-112274Y36625D01*
X-112260Y36584D01*
X-112246Y36524D01*
X-112237Y36459D01*
X-112223Y36376D01*
X-112218Y36288D01*
X-112214Y36196D01*
Y36108D01*
X-112218Y36048D01*
X-112223Y35983D01*
X-112232Y35909D01*
X-112246Y35835D01*
X-112260Y35766D01*
Y35757D01*
X-112269Y35734D01*
X-112278Y35702D01*
X-112288Y35655D01*
X-112302Y35609D01*
X-112320Y35554D01*
X-112338Y35498D01*
X-112362Y35447D01*
X-112898Y35595D01*
Y35600D01*
X-112888Y35609D01*
X-112879Y35632D01*
X-112870Y35660D01*
X-112856Y35692D01*
X-112838Y35734D01*
X-112824Y35785D01*
X-112805Y35840D01*
X-112801Y35845D01*
X-112796Y35868D01*
X-112787Y35900D01*
X-112777Y35942D01*
X-112768Y35997D01*
X-112764Y36057D01*
X-112754Y36127D01*
Y36242D01*
X-112759Y36279D01*
X-112764Y36325D01*
X-112777Y36381D01*
X-112791Y36431D01*
X-112814Y36482D01*
X-112842Y36528D01*
X-112847Y36533D01*
X-112856Y36542D01*
X-112874Y36561D01*
X-112898Y36579D01*
X-112925Y36598D01*
X-112962Y36616D01*
X-112999Y36625D01*
X-113041Y36630D01*
X-113045D01*
X-113050D01*
X-113082Y36625D01*
X-113124Y36616D01*
X-113165Y36602D01*
X-113175Y36598D01*
X-113198Y36579D01*
X-113225Y36547D01*
X-113262Y36505D01*
Y36501D01*
X-113272Y36492D01*
X-113281Y36478D01*
X-113290Y36459D01*
X-113304Y36431D01*
X-113323Y36404D01*
X-113355Y36334D01*
Y36330D01*
X-113364Y36316D01*
X-113373Y36293D01*
X-113383Y36265D01*
X-113397Y36228D01*
X-113415Y36187D01*
X-113433Y36140D01*
X-113452Y36090D01*
Y36085D01*
X-113456Y36071D01*
X-113466Y36053D01*
X-113480Y36025D01*
X-113494Y35993D01*
X-113507Y35956D01*
X-113549Y35868D01*
X-113600Y35775D01*
X-113660Y35678D01*
X-113729Y35591D01*
X-113766Y35549D01*
X-113803Y35512D01*
X-113812Y35503D01*
X-113840Y35484D01*
X-113886Y35452D01*
X-113946Y35420D01*
X-114020Y35387D01*
X-114113Y35355D01*
X-114214Y35337D01*
X-114325Y35327D01*
X-114334D01*
X-114357D01*
X-114390Y35332D01*
X-114436Y35337D01*
X-114487Y35346D01*
X-114547Y35360D01*
X-114607Y35378D01*
X-114672Y35401D01*
X-114681Y35406D01*
X-114699Y35415D01*
X-114732Y35434D01*
X-114769Y35457D01*
X-114815Y35489D01*
X-114866Y35526D01*
X-114917Y35572D01*
X-114963Y35623D01*
X-114967Y35627D01*
X-114981Y35651D01*
X-115004Y35678D01*
X-115032Y35720D01*
X-115064Y35775D01*
X-115097Y35835D01*
X-115134Y35909D01*
X-115161Y35988D01*
Y35993D01*
X-115166Y35997D01*
Y36011D01*
X-115171Y36025D01*
X-115184Y36076D01*
X-115194Y36136D01*
X-115208Y36214D01*
X-115221Y36302D01*
X-115226Y36399D01*
X-115231Y36510D01*
Y36551D01*
X-115226Y36602D01*
X-115221Y36662D01*
X-115217Y36736D01*
X-115208Y36815D01*
X-115194Y36898D01*
X-115175Y36986D01*
Y36990D01*
X-115171Y36995D01*
X-115166Y37023D01*
X-115152Y37064D01*
X-115138Y37115D01*
X-115120Y37171D01*
X-115101Y37231D01*
X-115074Y37291D01*
X-115050Y37342D01*
X-114505Y37203D01*
D02*
G37*
G36*
X-112255Y32842D02*
X-112814D01*
Y33641D01*
X-115189D01*
Y34302D01*
X-112814D01*
Y35096D01*
X-112255D01*
Y32842D01*
D02*
G37*
G36*
Y30684D02*
X-112801D01*
Y31825D01*
X-113410D01*
Y30749D01*
X-113951D01*
Y31825D01*
X-114644D01*
Y30624D01*
X-115189D01*
Y32486D01*
X-112255D01*
Y30684D01*
D02*
G37*
G36*
Y30047D02*
Y29164D01*
X-113235Y28878D01*
X-113239D01*
X-113244Y28873D01*
X-113262Y28868D01*
X-113281Y28864D01*
X-113332Y28850D01*
X-113397Y28831D01*
X-113475Y28813D01*
X-113567Y28790D01*
X-113660Y28762D01*
X-113761Y28739D01*
X-113766D01*
X-113775Y28734D01*
X-113789D01*
X-113808Y28730D01*
X-113831Y28721D01*
X-113858Y28716D01*
X-113928Y28702D01*
X-114006Y28684D01*
X-114094Y28665D01*
X-114191Y28647D01*
X-114288Y28628D01*
Y28610D01*
X-114284D01*
X-114274Y28605D01*
X-114260D01*
X-114242Y28600D01*
X-114219Y28591D01*
X-114191Y28587D01*
X-114126Y28573D01*
X-114043Y28550D01*
X-113955Y28531D01*
X-113858Y28504D01*
X-113757Y28480D01*
X-113752D01*
X-113743Y28476D01*
X-113729Y28471D01*
X-113711Y28466D01*
X-113683Y28462D01*
X-113655Y28453D01*
X-113586Y28434D01*
X-113507Y28411D01*
X-113420Y28388D01*
X-113235Y28333D01*
X-112255Y28023D01*
Y27154D01*
X-115189Y26997D01*
Y27640D01*
X-114066Y27686D01*
X-114062D01*
X-114052D01*
X-114039D01*
X-114020D01*
X-113997D01*
X-113965Y27690D01*
X-113895D01*
X-113812Y27695D01*
X-113715D01*
X-113609Y27700D01*
X-113498Y27704D01*
X-113494D01*
X-113484D01*
X-113466D01*
X-113443D01*
X-113415D01*
X-113383Y27709D01*
X-113346D01*
X-113304D01*
X-113207D01*
X-113096Y27714D01*
X-112981D01*
X-112861D01*
Y27723D01*
X-112865D01*
X-112874Y27727D01*
X-112888Y27732D01*
X-112911Y27737D01*
X-112935Y27741D01*
X-112967Y27750D01*
X-113041Y27769D01*
X-113128Y27797D01*
X-113225Y27820D01*
X-113332Y27852D01*
X-113443Y27884D01*
X-113447D01*
X-113456Y27889D01*
X-113470Y27894D01*
X-113494Y27898D01*
X-113521Y27907D01*
X-113549Y27917D01*
X-113623Y27935D01*
X-113706Y27963D01*
X-113803Y27991D01*
X-113997Y28055D01*
X-115143Y28411D01*
Y28929D01*
X-114006Y29243D01*
X-114002D01*
X-113993Y29247D01*
X-113979Y29252D01*
X-113960Y29257D01*
X-113937Y29261D01*
X-113909Y29270D01*
X-113840Y29289D01*
X-113757Y29312D01*
X-113664Y29335D01*
X-113558Y29358D01*
X-113452Y29386D01*
X-113447D01*
X-113438Y29390D01*
X-113424D01*
X-113401Y29395D01*
X-113373Y29404D01*
X-113341Y29409D01*
X-113267Y29423D01*
X-113179Y29441D01*
X-113078Y29465D01*
X-112971Y29483D01*
X-112861Y29506D01*
Y29515D01*
X-112865D01*
X-112874D01*
X-112888D01*
X-112911D01*
X-112939Y29520D01*
X-112971D01*
X-113050D01*
X-113142Y29524D01*
X-113249Y29529D01*
X-113364Y29534D01*
X-113484Y29538D01*
X-113489D01*
X-113498D01*
X-113517D01*
X-113540D01*
X-113567Y29543D01*
X-113600D01*
X-113678Y29548D01*
X-113771Y29552D01*
X-113868D01*
X-114076Y29561D01*
X-115189Y29621D01*
Y30231D01*
X-112255Y30047D01*
D02*
G37*
G36*
X-114505Y26461D02*
X-114510Y26457D01*
X-114515Y26438D01*
X-114528Y26411D01*
X-114547Y26374D01*
X-114565Y26327D01*
X-114588Y26272D01*
X-114607Y26207D01*
X-114630Y26138D01*
Y26129D01*
X-114639Y26106D01*
X-114648Y26064D01*
X-114658Y26013D01*
X-114667Y25949D01*
X-114676Y25879D01*
X-114681Y25805D01*
X-114685Y25727D01*
Y25690D01*
X-114681Y25648D01*
X-114676Y25598D01*
X-114667Y25542D01*
X-114648Y25482D01*
X-114630Y25427D01*
X-114602Y25380D01*
X-114598Y25376D01*
X-114588Y25362D01*
X-114565Y25343D01*
X-114542Y25320D01*
X-114505Y25297D01*
X-114468Y25279D01*
X-114422Y25265D01*
X-114371Y25260D01*
X-114367D01*
X-114348D01*
X-114321Y25265D01*
X-114293Y25274D01*
X-114256Y25288D01*
X-114219Y25311D01*
X-114182Y25339D01*
X-114145Y25376D01*
X-114140Y25380D01*
X-114131Y25399D01*
X-114113Y25427D01*
X-114085Y25468D01*
X-114057Y25519D01*
X-114029Y25584D01*
X-113993Y25662D01*
X-113960Y25755D01*
Y25759D01*
X-113955Y25769D01*
X-113946Y25792D01*
X-113937Y25815D01*
X-113923Y25847D01*
X-113909Y25879D01*
X-113868Y25962D01*
X-113821Y26059D01*
X-113761Y26156D01*
X-113697Y26254D01*
X-113623Y26341D01*
X-113618Y26346D01*
X-113614Y26351D01*
X-113586Y26374D01*
X-113540Y26411D01*
X-113480Y26452D01*
X-113401Y26494D01*
X-113309Y26526D01*
X-113207Y26554D01*
X-113152Y26559D01*
X-113092Y26563D01*
X-113082D01*
X-113059D01*
X-113022Y26559D01*
X-112981Y26554D01*
X-112925Y26545D01*
X-112865Y26531D01*
X-112805Y26512D01*
X-112745Y26489D01*
X-112736Y26485D01*
X-112717Y26475D01*
X-112690Y26457D01*
X-112648Y26434D01*
X-112607Y26401D01*
X-112560Y26364D01*
X-112514Y26323D01*
X-112468Y26272D01*
X-112463Y26267D01*
X-112449Y26244D01*
X-112426Y26217D01*
X-112403Y26170D01*
X-112371Y26120D01*
X-112343Y26059D01*
X-112311Y25995D01*
X-112283Y25921D01*
Y25916D01*
X-112278Y25912D01*
X-112274Y25884D01*
X-112260Y25842D01*
X-112246Y25782D01*
X-112237Y25718D01*
X-112223Y25635D01*
X-112218Y25547D01*
X-112214Y25454D01*
Y25367D01*
X-112218Y25306D01*
X-112223Y25242D01*
X-112232Y25168D01*
X-112246Y25094D01*
X-112260Y25025D01*
Y25015D01*
X-112269Y24992D01*
X-112278Y24960D01*
X-112288Y24914D01*
X-112302Y24868D01*
X-112320Y24812D01*
X-112338Y24757D01*
X-112362Y24706D01*
X-112898Y24854D01*
Y24858D01*
X-112888Y24868D01*
X-112879Y24891D01*
X-112870Y24918D01*
X-112856Y24951D01*
X-112838Y24992D01*
X-112824Y25043D01*
X-112805Y25099D01*
X-112801Y25103D01*
X-112796Y25126D01*
X-112787Y25159D01*
X-112777Y25200D01*
X-112768Y25256D01*
X-112764Y25316D01*
X-112754Y25385D01*
Y25501D01*
X-112759Y25537D01*
X-112764Y25584D01*
X-112777Y25639D01*
X-112791Y25690D01*
X-112814Y25741D01*
X-112842Y25787D01*
X-112847Y25792D01*
X-112856Y25801D01*
X-112874Y25819D01*
X-112898Y25838D01*
X-112925Y25856D01*
X-112962Y25875D01*
X-112999Y25884D01*
X-113041Y25889D01*
X-113045D01*
X-113050D01*
X-113082Y25884D01*
X-113124Y25875D01*
X-113165Y25861D01*
X-113175Y25856D01*
X-113198Y25838D01*
X-113225Y25805D01*
X-113262Y25764D01*
Y25759D01*
X-113272Y25750D01*
X-113281Y25736D01*
X-113290Y25718D01*
X-113304Y25690D01*
X-113323Y25662D01*
X-113355Y25593D01*
Y25588D01*
X-113364Y25574D01*
X-113373Y25551D01*
X-113383Y25524D01*
X-113397Y25487D01*
X-113415Y25445D01*
X-113433Y25399D01*
X-113452Y25348D01*
Y25343D01*
X-113456Y25330D01*
X-113466Y25311D01*
X-113480Y25283D01*
X-113494Y25251D01*
X-113507Y25214D01*
X-113549Y25126D01*
X-113600Y25034D01*
X-113660Y24937D01*
X-113729Y24849D01*
X-113766Y24807D01*
X-113803Y24770D01*
X-113812Y24761D01*
X-113840Y24743D01*
X-113886Y24711D01*
X-113946Y24678D01*
X-114020Y24646D01*
X-114113Y24613D01*
X-114214Y24595D01*
X-114325Y24586D01*
X-114334D01*
X-114357D01*
X-114390Y24590D01*
X-114436Y24595D01*
X-114487Y24604D01*
X-114547Y24618D01*
X-114607Y24637D01*
X-114672Y24660D01*
X-114681Y24664D01*
X-114699Y24674D01*
X-114732Y24692D01*
X-114769Y24715D01*
X-114815Y24747D01*
X-114866Y24784D01*
X-114917Y24831D01*
X-114963Y24881D01*
X-114967Y24886D01*
X-114981Y24909D01*
X-115004Y24937D01*
X-115032Y24978D01*
X-115064Y25034D01*
X-115097Y25094D01*
X-115134Y25168D01*
X-115161Y25246D01*
Y25251D01*
X-115166Y25256D01*
Y25269D01*
X-115171Y25283D01*
X-115184Y25334D01*
X-115194Y25394D01*
X-115208Y25473D01*
X-115221Y25561D01*
X-115226Y25658D01*
X-115231Y25769D01*
Y25810D01*
X-115226Y25861D01*
X-115221Y25921D01*
X-115217Y25995D01*
X-115208Y26073D01*
X-115194Y26156D01*
X-115175Y26244D01*
Y26249D01*
X-115171Y26254D01*
X-115166Y26281D01*
X-115152Y26323D01*
X-115138Y26374D01*
X-115120Y26429D01*
X-115101Y26489D01*
X-115074Y26549D01*
X-115050Y26600D01*
X-114505Y26461D01*
D02*
G37*
G36*
X-89121Y17280D02*
X-89383D01*
Y17996D01*
X-91178D01*
Y18291D01*
X-89383D01*
Y18997D01*
X-89121D01*
Y17280D01*
D02*
G37*
G36*
Y16726D02*
X-89966Y16045D01*
X-89121Y15368D01*
Y15089D01*
X-91178D01*
Y15384D01*
X-89578D01*
X-90371Y16019D01*
Y16074D01*
X-89578Y16713D01*
X-91178D01*
Y17007D01*
X-89121D01*
Y16726D01*
D02*
G37*
%LPC*%
G36*
X-6297Y257408D02*
X-6570D01*
X-6625Y257390D01*
X-6807Y257372D01*
X-7008Y257317D01*
X-7026D01*
X-7062Y257299D01*
X-7117Y257281D01*
X-7190Y257244D01*
X-7372Y257153D01*
X-7591Y257026D01*
X-7609D01*
X-7645Y256989D01*
X-7700Y256953D01*
X-7773Y256880D01*
X-7973Y256716D01*
X-8228Y256479D01*
X-8247Y256461D01*
X-8283Y256424D01*
X-8356Y256352D01*
X-8429Y256260D01*
X-8538Y256133D01*
X-8666Y255987D01*
X-8793Y255841D01*
X-8921Y255659D01*
Y251669D01*
X-8902D01*
X-8848Y251651D01*
X-8775Y251614D01*
X-8666Y251578D01*
X-8556Y251541D01*
X-8410Y251487D01*
X-8101Y251414D01*
X-8083D01*
X-8028Y251396D01*
X-7937Y251378D01*
X-7828D01*
X-7700Y251359D01*
X-7554Y251341D01*
X-7244Y251323D01*
X-7135D01*
X-7062Y251341D01*
X-6844Y251359D01*
X-6588Y251414D01*
X-6297Y251523D01*
X-6005Y251651D01*
X-5714Y251851D01*
X-5568Y251961D01*
X-5441Y252106D01*
Y252125D01*
X-5404Y252143D01*
X-5386Y252197D01*
X-5331Y252252D01*
X-5277Y252343D01*
X-5222Y252434D01*
X-5167Y252562D01*
X-5094Y252689D01*
X-5040Y252853D01*
X-4985Y253017D01*
X-4930Y253218D01*
X-4876Y253436D01*
X-4821Y253655D01*
X-4803Y253910D01*
X-4766Y254165D01*
Y254457D01*
Y254493D01*
Y254566D01*
Y254694D01*
X-4785Y254858D01*
Y255040D01*
X-4803Y255240D01*
X-4876Y255641D01*
Y255659D01*
X-4894Y255732D01*
X-4912Y255841D01*
X-4949Y255969D01*
X-5040Y256260D01*
X-5167Y256570D01*
Y256589D01*
X-5204Y256643D01*
X-5240Y256716D01*
X-5313Y256807D01*
X-5477Y257008D01*
X-5696Y257190D01*
X-5714Y257208D01*
X-5750Y257226D01*
X-5823Y257263D01*
X-5914Y257299D01*
X-6024Y257335D01*
X-6151Y257372D01*
X-6297Y257408D01*
D02*
G37*
G36*
X85550Y257500D02*
X85186D01*
X85076Y257481D01*
X84949Y257463D01*
X84803Y257427D01*
X84493Y257317D01*
X84475D01*
X84439Y257281D01*
X84366Y257244D01*
X84275Y257190D01*
X84056Y257026D01*
X83837Y256807D01*
X83819Y256789D01*
X83801Y256752D01*
X83746Y256680D01*
X83673Y256589D01*
X83600Y256479D01*
X83528Y256333D01*
X83382Y256024D01*
Y256005D01*
X83364Y255951D01*
X83327Y255860D01*
X83291Y255732D01*
X83254Y255586D01*
X83236Y255404D01*
X83181Y255022D01*
X87518D01*
Y255040D01*
Y255113D01*
Y255222D01*
Y255349D01*
X87499Y255495D01*
X87481Y255659D01*
X87390Y256005D01*
Y256024D01*
X87372Y256078D01*
X87336Y256169D01*
X87299Y256279D01*
X87172Y256534D01*
X86989Y256789D01*
X86971Y256807D01*
X86935Y256844D01*
X86880Y256898D01*
X86807Y256971D01*
X86698Y257062D01*
X86589Y257135D01*
X86297Y257299D01*
X86279Y257317D01*
X86224Y257335D01*
X86133Y257372D01*
X86024Y257408D01*
X85896Y257445D01*
X85732Y257463D01*
X85550Y257500D01*
D02*
G37*
G36*
X76313D02*
X75948D01*
X75839Y257481D01*
X75711Y257463D01*
X75565Y257427D01*
X75256Y257317D01*
X75238D01*
X75201Y257281D01*
X75128Y257244D01*
X75037Y257190D01*
X74818Y257026D01*
X74600Y256807D01*
X74582Y256789D01*
X74563Y256752D01*
X74509Y256680D01*
X74436Y256589D01*
X74363Y256479D01*
X74290Y256333D01*
X74144Y256024D01*
Y256005D01*
X74126Y255951D01*
X74090Y255860D01*
X74053Y255732D01*
X74017Y255586D01*
X73998Y255404D01*
X73944Y255022D01*
X78280D01*
Y255040D01*
Y255113D01*
Y255222D01*
Y255349D01*
X78262Y255495D01*
X78244Y255659D01*
X78153Y256005D01*
Y256024D01*
X78135Y256078D01*
X78098Y256169D01*
X78062Y256279D01*
X77934Y256534D01*
X77752Y256789D01*
X77734Y256807D01*
X77697Y256844D01*
X77643Y256898D01*
X77570Y256971D01*
X77460Y257062D01*
X77351Y257135D01*
X77060Y257299D01*
X77041Y257317D01*
X76987Y257335D01*
X76895Y257372D01*
X76786Y257408D01*
X76659Y257445D01*
X76495Y257463D01*
X76313Y257500D01*
D02*
G37*
G36*
X-16081Y257427D02*
X-16391D01*
X-16518Y257408D01*
X-16664Y257390D01*
X-16846Y257372D01*
X-17029Y257317D01*
X-17211Y257263D01*
X-17393Y257172D01*
X-17411Y257153D01*
X-17466Y257117D01*
X-17557Y257062D01*
X-17648Y256989D01*
X-17776Y256898D01*
X-17903Y256789D01*
X-18140Y256497D01*
X-18158Y256479D01*
X-18195Y256424D01*
X-18231Y256333D01*
X-18304Y256224D01*
X-18377Y256078D01*
X-18431Y255914D01*
X-18504Y255732D01*
X-18559Y255532D01*
Y255514D01*
X-18577Y255441D01*
X-18596Y255331D01*
X-18614Y255186D01*
X-18650Y255003D01*
X-18668Y254803D01*
X-18687Y254366D01*
Y254329D01*
Y254238D01*
X-18668Y254092D01*
Y253910D01*
X-18650Y253710D01*
X-18614Y253473D01*
X-18523Y253017D01*
Y252999D01*
X-18486Y252926D01*
X-18450Y252817D01*
X-18395Y252689D01*
X-18249Y252380D01*
X-18049Y252070D01*
X-18031Y252052D01*
X-17994Y252015D01*
X-17921Y251942D01*
X-17830Y251870D01*
X-17721Y251778D01*
X-17593Y251687D01*
X-17302Y251505D01*
X-17284D01*
X-17229Y251469D01*
X-17120Y251450D01*
X-17010Y251414D01*
X-16846Y251378D01*
X-16682Y251359D01*
X-16482Y251323D01*
X-16172D01*
X-16063Y251341D01*
X-15899Y251359D01*
X-15735Y251378D01*
X-15553Y251432D01*
X-15371Y251487D01*
X-15188Y251560D01*
X-15170Y251578D01*
X-15115Y251614D01*
X-15024Y251669D01*
X-14915Y251742D01*
X-14806Y251833D01*
X-14678Y251961D01*
X-14441Y252234D01*
X-14423Y252252D01*
X-14387Y252307D01*
X-14350Y252398D01*
X-14277Y252507D01*
X-14205Y252653D01*
X-14150Y252817D01*
X-14077Y252999D01*
X-14022Y253200D01*
Y253218D01*
X-14004Y253291D01*
X-13968Y253418D01*
X-13949Y253564D01*
X-13913Y253728D01*
X-13895Y253928D01*
X-13877Y254366D01*
Y254402D01*
Y254493D01*
Y254639D01*
X-13895Y254821D01*
X-13913Y255022D01*
X-13949Y255258D01*
X-14004Y255477D01*
X-14059Y255696D01*
Y255714D01*
X-14095Y255787D01*
X-14132Y255896D01*
X-14186Y256042D01*
X-14332Y256333D01*
X-14423Y256497D01*
X-14533Y256643D01*
X-14551Y256661D01*
X-14587Y256698D01*
X-14660Y256771D01*
X-14751Y256862D01*
X-14860Y256953D01*
X-14988Y257044D01*
X-15298Y257226D01*
X-15316Y257244D01*
X-15371Y257263D01*
X-15462Y257299D01*
X-15589Y257335D01*
X-15735Y257372D01*
X-15899Y257390D01*
X-16081Y257427D01*
D02*
G37*
G36*
X-95955Y34967D02*
X-95973D01*
X-95973Y34966D01*
X-95955Y34967D01*
D02*
G37*
G36*
X-112759Y52712D02*
X-113632D01*
Y52698D01*
X-113637Y52685D01*
Y52657D01*
X-113641Y52629D01*
Y52592D01*
X-113646Y52546D01*
Y52454D01*
X-113641Y52403D01*
X-113632Y52343D01*
X-113614Y52278D01*
X-113595Y52209D01*
X-113563Y52139D01*
X-113521Y52079D01*
X-113517Y52075D01*
X-113498Y52056D01*
X-113470Y52033D01*
X-113429Y52001D01*
X-113383Y51973D01*
X-113323Y51950D01*
X-113249Y51932D01*
X-113170Y51927D01*
X-113165D01*
X-113161D01*
X-113138D01*
X-113101Y51932D01*
X-113055Y51945D01*
X-113004Y51959D01*
X-112948Y51982D01*
X-112898Y52015D01*
X-112851Y52061D01*
X-112847Y52065D01*
X-112833Y52084D01*
X-112814Y52116D01*
X-112791Y52158D01*
X-112773Y52213D01*
X-112754Y52283D01*
X-112741Y52361D01*
X-112736Y52449D01*
Y52514D01*
X-112741Y52551D01*
X-112745Y52638D01*
X-112750Y52680D01*
X-112759Y52712D01*
D02*
G37*
G36*
X-113942Y50074D02*
Y49423D01*
X-113323Y49608D01*
X-113318D01*
X-113300Y49612D01*
X-113272Y49621D01*
X-113235Y49626D01*
X-113193Y49640D01*
X-113147Y49649D01*
X-113036Y49677D01*
X-113027D01*
X-113008Y49682D01*
X-112981Y49691D01*
X-112944Y49700D01*
X-112898Y49709D01*
X-112851Y49723D01*
X-112754Y49751D01*
Y49765D01*
X-112759D01*
X-112777Y49769D01*
X-112805Y49774D01*
X-112838Y49783D01*
X-112879Y49793D01*
X-112930Y49802D01*
X-112985Y49811D01*
X-113041Y49825D01*
X-113045D01*
X-113068Y49829D01*
X-113096Y49839D01*
X-113133Y49843D01*
X-113175Y49857D01*
X-113225Y49866D01*
X-113323Y49894D01*
X-113942Y50074D01*
D02*
G37*
%LPD*%
D10*
X173687Y158366D02*
G03*
X173687Y158366I-1000J0D01*
G01*
X193686D02*
G03*
X193686Y158366I-1000J0D01*
G01*
D11*
X31565Y66929D02*
Y78740D01*
X68D02*
X31565D01*
X68Y64961D02*
Y66929D01*
X7942Y64961D02*
Y72835D01*
X-25522Y78740D02*
X68D01*
X-25522Y72835D02*
X7942D01*
X-25522Y66929D02*
X68D01*
X-25522Y35433D02*
X31565D01*
Y47244D01*
X-25522Y41339D02*
X7942D01*
Y49213D01*
X-25522Y47244D02*
X68D01*
Y49213D01*
X15816Y64961D02*
Y66929D01*
X47313D01*
Y64961D02*
Y66929D01*
X15816Y47244D02*
Y49213D01*
Y47244D02*
X47313D01*
Y49213D01*
X-81561Y129858D02*
Y137858D01*
X-89561D02*
X-81561D01*
X-89561Y129858D02*
Y137858D01*
Y129858D02*
X-81561D01*
X-85562Y127858D02*
Y129858D01*
X-88561Y127858D02*
X-82561D01*
X-87562Y125858D02*
X-83561D01*
X-86562Y123858D02*
X-84562D01*
X0Y3937D02*
Y5906D01*
X31496D01*
Y3937D02*
Y5906D01*
X0Y-13780D02*
Y-11811D01*
Y-13780D02*
X31496D01*
Y-11811D01*
X47244Y3937D02*
Y5906D01*
X72835D01*
X39370Y3937D02*
Y11811D01*
X72835D01*
X15748Y5906D02*
Y17717D01*
X72835D01*
X47244Y-13780D02*
X72835D01*
X39370Y-19685D02*
X72835D01*
X47244Y-25591D02*
X72835D01*
X39370Y-19685D02*
Y-11811D01*
X47244Y-13780D02*
Y-11811D01*
X15748Y-25591D02*
X47244D01*
X15748D02*
Y-13780D01*
X78025Y84692D02*
Y90690D01*
X75026D01*
X74026Y89691D01*
Y88691D01*
X75026Y87691D01*
X78025D01*
X75026D01*
X74026Y86692D01*
Y85692D01*
X75026Y84692D01*
X78025D01*
X71027Y86692D02*
X69028D01*
X68028Y87691D01*
Y90690D01*
X71027D01*
X72027Y89691D01*
X71027Y88691D01*
X68028D01*
X65029Y85692D02*
Y86692D01*
X66029D01*
X64029D01*
X65029D01*
Y89691D01*
X64029Y90690D01*
X60031Y85692D02*
Y86692D01*
X61030D01*
X59031D01*
X60031D01*
Y89691D01*
X59031Y90690D01*
X53033D02*
X55032D01*
X56032Y89691D01*
Y87691D01*
X55032Y86692D01*
X53033D01*
X52033Y87691D01*
Y88691D01*
X56032D01*
X50034Y86692D02*
Y90690D01*
Y88691D01*
X49034Y87691D01*
X48035Y86692D01*
X47035D01*
X44036D02*
Y89691D01*
X43036Y90690D01*
X40037D01*
Y91690D01*
X41037Y92690D01*
X42036D01*
X40037Y90690D02*
Y86692D01*
X32040Y84692D02*
Y90690D01*
X29041D01*
X28041Y89691D01*
Y88691D01*
X29041Y87691D01*
X32040D01*
X29041D01*
X28041Y86692D01*
Y85692D01*
X29041Y84692D01*
X32040D01*
X26042Y86692D02*
Y89691D01*
X25042Y90690D01*
X22043D01*
Y86692D01*
X20043Y90690D02*
X17044D01*
X16045Y89691D01*
X17044Y88691D01*
X19044D01*
X20043Y87691D01*
X19044Y86692D01*
X16045D01*
X8047Y84692D02*
X6048D01*
X7048D01*
Y90690D01*
X8047D01*
X6048D01*
X3049D02*
Y86692D01*
X50D01*
X-950Y87691D01*
Y90690D01*
X-3949Y85692D02*
Y86692D01*
X-2949D01*
X-4948D01*
X-3949D01*
Y89691D01*
X-4948Y90690D01*
X-10946D02*
X-8947D01*
X-7947Y89691D01*
Y87691D01*
X-8947Y86692D01*
X-10946D01*
X-11946Y87691D01*
Y88691D01*
X-7947D01*
X-13946Y86692D02*
Y90690D01*
Y88691D01*
X-14945Y87691D01*
X-15945Y86692D01*
X-16944D01*
X-20943Y90690D02*
Y85692D01*
Y87691D01*
X-19943D01*
X-21943D01*
X-20943D01*
Y85692D01*
X-21943Y84692D01*
X-25942Y86692D02*
X-27941D01*
X-28941Y87691D01*
Y90690D01*
X-25942D01*
X-24942Y89691D01*
X-25942Y88691D01*
X-28941D01*
X-34939Y86692D02*
X-31940D01*
X-30940Y87691D01*
Y89691D01*
X-31940Y90690D01*
X-34939D01*
X-39937D02*
X-37938D01*
X-36938Y89691D01*
Y87691D01*
X-37938Y86692D01*
X-39937D01*
X-40937Y87691D01*
Y88691D01*
X-36938D01*
D12*
X-89289Y19835D02*
Y108835D01*
X-110389Y19835D02*
Y108835D01*
X-109589Y19835D02*
Y108835D01*
X-116789Y19835D02*
Y108835D01*
Y19835D02*
X-89289D01*
X-116789Y108835D02*
X-89289D01*
D13*
X167568Y148130D02*
Y155217D01*
X174911D01*
X180167Y155217D02*
X187253D01*
Y147874D02*
Y155217D01*
X167568Y-107776D02*
X174655D01*
X167568D02*
Y-100433D01*
X179911Y-107776D02*
X187253D01*
Y-100689D01*
Y17421D02*
Y30027D01*
X167568Y17421D02*
Y30027D01*
X187568Y148130D02*
Y155217D01*
X194911D01*
X200167Y155217D02*
X207254D01*
Y147874D02*
Y155217D01*
X187568Y-107776D02*
X194655D01*
X187568D02*
Y-100433D01*
X199911Y-107776D02*
X207254D01*
Y-100689D01*
Y17421D02*
Y30027D01*
X187568Y17421D02*
Y30027D01*
X183Y106774D02*
Y102838D01*
X-1785D01*
X-2441Y103494D01*
Y104806D01*
X-1785Y105462D01*
X183D01*
X-6377Y103494D02*
X-5721Y102838D01*
X-4409D01*
X-3753Y103494D01*
Y106118D01*
X-4409Y106774D01*
X-5721D01*
X-6377Y106118D01*
X-7689Y102838D02*
Y106774D01*
X-9657D01*
X-10313Y106118D01*
Y105462D01*
X-9657Y104806D01*
X-7689D01*
X-9657D01*
X-10313Y104150D01*
Y103494D01*
X-9657Y102838D01*
X-7689D01*
X-11625Y104150D02*
X-12281D01*
Y104806D01*
X-11625D01*
Y104150D01*
Y106118D02*
X-12281D01*
Y106774D01*
X-11625D01*
Y106118D01*
X-18840Y102838D02*
X-21464D01*
Y103494D01*
X-18840Y106118D01*
Y106774D01*
X-22776Y103494D02*
X-23432Y102838D01*
X-24744D01*
X-25400Y103494D01*
Y106118D01*
X-24744Y106774D01*
X-23432D01*
X-22776Y106118D01*
Y103494D01*
X-29335Y102838D02*
X-26712D01*
Y104806D01*
X-28024Y104150D01*
X-28680D01*
X-29335Y104806D01*
Y106118D01*
X-28680Y106774D01*
X-27368D01*
X-26712Y106118D01*
X-30647Y104806D02*
X-33271D01*
X-34583Y103494D02*
X-35239Y102838D01*
X-36551D01*
X-37207Y103494D01*
Y106118D01*
X-36551Y106774D01*
X-35239D01*
X-34583Y106118D01*
Y103494D01*
X-38519Y106774D02*
X-39831D01*
X-39175D01*
Y102838D01*
X-38519Y103494D01*
X-44423Y102838D02*
X-41799D01*
Y104806D01*
X-43111Y104150D01*
X-43767D01*
X-44423Y104806D01*
Y106118D01*
X-43767Y106774D01*
X-42455D01*
X-41799Y106118D01*
X-45734Y102838D02*
X-48358D01*
Y103494D01*
X-45734Y106118D01*
Y106774D01*
X-49670Y103494D02*
X-50326Y102838D01*
X-51638D01*
X-52294Y103494D01*
Y104150D01*
X-51638Y104806D01*
X-50982D01*
X-51638D01*
X-52294Y105462D01*
Y106118D01*
X-51638Y106774D01*
X-50326D01*
X-49670Y106118D01*
X-57542Y106774D02*
Y102838D01*
X-59509D01*
X-60166Y103494D01*
Y104806D01*
X-59509Y105462D01*
X-57542D01*
X-58854D02*
X-60166Y106774D01*
X-64101Y102838D02*
X-61477D01*
Y106774D01*
X-64101D01*
X-61477Y104806D02*
X-62789D01*
X-65413Y102838D02*
Y105462D01*
X-66725Y106774D01*
X-68037Y105462D01*
Y102838D01*
X-73285D02*
Y106774D01*
X-75252D01*
X-75908Y106118D01*
Y105462D01*
X-75252Y104806D01*
X-73285D01*
X-75252D01*
X-75908Y104150D01*
Y103494D01*
X-75252Y102838D01*
X-73285D01*
X3462Y113386D02*
Y110763D01*
X2150Y109451D01*
X838Y110763D01*
Y113386D01*
Y111419D01*
X3462D01*
X-3097Y110107D02*
X-2441Y109451D01*
X-1129D01*
X-473Y110107D01*
Y110763D01*
X-1129Y111419D01*
X-2441D01*
X-3097Y112075D01*
Y112731D01*
X-2441Y113386D01*
X-1129D01*
X-473Y112731D01*
X-7033Y110107D02*
X-6377Y109451D01*
X-5065D01*
X-4409Y110107D01*
Y110763D01*
X-5065Y111419D01*
X-6377D01*
X-7033Y112075D01*
Y112731D01*
X-6377Y113386D01*
X-5065D01*
X-4409Y112731D01*
X-8345Y109451D02*
Y110107D01*
X-9657Y111419D01*
X-10969Y110107D01*
Y109451D01*
X-9657Y111419D02*
Y113386D01*
X-12281Y110763D02*
X-12937D01*
Y111419D01*
X-12281D01*
Y110763D01*
Y112731D02*
X-12937D01*
Y113386D01*
X-12281D01*
Y112731D01*
X-19496Y109451D02*
X-22120D01*
Y110107D01*
X-19496Y112731D01*
Y113386D01*
X-23432D02*
X-24744D01*
X-24088D01*
Y109451D01*
X-23432Y110107D01*
X-26712D02*
X-27368Y109451D01*
X-28680D01*
X-29335Y110107D01*
Y112731D01*
X-28680Y113386D01*
X-27368D01*
X-26712Y112731D01*
Y110107D01*
X-30647Y111419D02*
X-33271D01*
X-34583Y110107D02*
X-35239Y109451D01*
X-36551D01*
X-37207Y110107D01*
Y112731D01*
X-36551Y113386D01*
X-35239D01*
X-34583Y112731D01*
Y110107D01*
X-38519Y113386D02*
X-39831D01*
X-39175D01*
Y109451D01*
X-38519Y110107D01*
X-41799Y112731D02*
X-42455Y113386D01*
X-43767D01*
X-44423Y112731D01*
Y110107D01*
X-43767Y109451D01*
X-42455D01*
X-41799Y110107D01*
Y110763D01*
X-42455Y111419D01*
X-44423D01*
X-48358Y113386D02*
X-45734D01*
X-48358Y110763D01*
Y110107D01*
X-47702Y109451D01*
X-46390D01*
X-45734Y110107D01*
X-49670D02*
X-50326Y109451D01*
X-51638D01*
X-52294Y110107D01*
Y112731D01*
X-51638Y113386D01*
X-50326D01*
X-49670Y112731D01*
Y110107D01*
X-57542Y113386D02*
Y109451D01*
X-59509D01*
X-60166Y110107D01*
Y111419D01*
X-59509Y112075D01*
X-57542D01*
X-58854D02*
X-60166Y113386D01*
X-64101Y109451D02*
X-61477D01*
Y113386D01*
X-64101D01*
X-61477Y111419D02*
X-62789D01*
X-65413Y109451D02*
Y112075D01*
X-66725Y113386D01*
X-68037Y112075D01*
Y109451D01*
X-73285D02*
Y113386D01*
X-75252D01*
X-75908Y112731D01*
Y112075D01*
X-75252Y111419D01*
X-73285D01*
X-75252D01*
X-75908Y110763D01*
Y110107D01*
X-75252Y109451D01*
X-73285D01*
X-31428Y76773D02*
Y79397D01*
X-32739Y80709D01*
X-34051Y79397D01*
Y76773D01*
X-35363Y78741D02*
X-37987D01*
X-27491Y72835D02*
X-30114D01*
X-31426Y74803D02*
Y70867D01*
X-33394D01*
X-34050Y71523D01*
Y72835D01*
X-33394Y73491D01*
X-31426D01*
X-32738D02*
X-34050Y74803D01*
X-37986Y70867D02*
X-35362D01*
Y74803D01*
X-37986D01*
X-35362Y72835D02*
X-36674D01*
X-41922Y71523D02*
X-41266Y70867D01*
X-39954D01*
X-39298Y71523D01*
Y72179D01*
X-39954Y72835D01*
X-41266D01*
X-41922Y73491D01*
Y74147D01*
X-41266Y74803D01*
X-39954D01*
X-39298Y74147D01*
X-45857Y70867D02*
X-43234D01*
Y74803D01*
X-45857D01*
X-43234Y72835D02*
X-44546D01*
X-47169Y70867D02*
X-49793D01*
X-48481D01*
Y74803D01*
X-34051Y65618D02*
X-33395Y64962D01*
X-32084D01*
X-31428Y65618D01*
Y66274D01*
X-32084Y66930D01*
X-33395D01*
X-34051Y67586D01*
Y68242D01*
X-33395Y68898D01*
X-32084D01*
X-31428Y68242D01*
X-37987Y65618D02*
X-37331Y64962D01*
X-36019D01*
X-35363Y65618D01*
Y68242D01*
X-36019Y68898D01*
X-37331D01*
X-37987Y68242D01*
X-39299Y64962D02*
Y68898D01*
X-41923D01*
X-31428Y33466D02*
Y36090D01*
X-32739Y37402D01*
X-34051Y36090D01*
Y33466D01*
X-35363Y35434D02*
X-37987D01*
X-36675Y34122D02*
Y36746D01*
X-33395Y39371D02*
X-32084D01*
X-31428Y40027D01*
Y42651D01*
X-32084Y43307D01*
X-33395D01*
X-34051Y42651D01*
Y40027D01*
X-33395Y39371D01*
X-37987D02*
X-35363D01*
Y41339D01*
X-36675D01*
X-35363D01*
Y43307D01*
X-41923Y39371D02*
X-39299D01*
Y41339D01*
X-40611D01*
X-39299D01*
Y43307D01*
X-43235Y43963D02*
X-45859D01*
X-47171Y39371D02*
Y41995D01*
X-48482Y43307D01*
X-49794Y41995D01*
Y39371D01*
X-53730Y40027D02*
X-53074Y39371D01*
X-51762D01*
X-51106Y40027D01*
Y42651D01*
X-51762Y43307D01*
X-53074D01*
X-53730Y42651D01*
X-57666Y40027D02*
X-57010Y39371D01*
X-55698D01*
X-55042Y40027D01*
Y42651D01*
X-55698Y43307D01*
X-57010D01*
X-57666Y42651D01*
X-34051Y45933D02*
X-33395Y45277D01*
X-32084D01*
X-31428Y45933D01*
Y46589D01*
X-32084Y47245D01*
X-33395D01*
X-34051Y47901D01*
Y48557D01*
X-33395Y49213D01*
X-32084D01*
X-31428Y48557D01*
X-35363Y45277D02*
Y49213D01*
X-37331D01*
X-37987Y48557D01*
Y45933D01*
X-37331Y45277D01*
X-35363D01*
X-39299Y49213D02*
Y46589D01*
X-40611Y45277D01*
X-41923Y46589D01*
Y49213D01*
Y47245D01*
X-39299D01*
X-120995Y145670D02*
Y149606D01*
X-122962D01*
X-123618Y148950D01*
Y146326D01*
X-122962Y145670D01*
X-120995D01*
X-127554D02*
X-126242D01*
X-126898D01*
Y148950D01*
X-126242Y149606D01*
X-125586D01*
X-124930Y148950D01*
X-128866Y145670D02*
Y149606D01*
X-130178Y148294D01*
X-131490Y149606D01*
Y145670D01*
X81364Y7217D02*
X80708Y7873D01*
X79396D01*
X78740Y7217D01*
Y6561D01*
X79396Y5905D01*
X80708D01*
X81364Y5249D01*
Y4593D01*
X80708Y3937D01*
X79396D01*
X78740Y4593D01*
X82676Y7873D02*
Y3937D01*
X84644D01*
X85300Y4593D01*
Y7217D01*
X84644Y7873D01*
X82676D01*
X86612Y3937D02*
Y6561D01*
X87924Y7873D01*
X89236Y6561D01*
Y3937D01*
Y5905D01*
X86612D01*
X80708Y13778D02*
X79396D01*
X78740Y13122D01*
Y10498D01*
X79396Y9843D01*
X80708D01*
X81364Y10498D01*
Y13122D01*
X80708Y13778D01*
X85300D02*
X82676D01*
Y11810D01*
X83988D01*
X82676D01*
Y9843D01*
X89236Y13778D02*
X86612D01*
Y11810D01*
X87924D01*
X86612D01*
Y9843D01*
X90547Y9187D02*
X93171D01*
X94483Y13778D02*
Y11154D01*
X95795Y9843D01*
X97107Y11154D01*
Y13778D01*
X101043Y13122D02*
X100387Y13778D01*
X99075D01*
X98419Y13122D01*
Y10498D01*
X99075Y9843D01*
X100387D01*
X101043Y10498D01*
X104978Y13122D02*
X104323Y13778D01*
X103010D01*
X102355Y13122D01*
Y10498D01*
X103010Y9843D01*
X104323D01*
X104978Y10498D01*
X78740Y19684D02*
Y17060D01*
X80052Y15748D01*
X81364Y17060D01*
Y19684D01*
X82676Y17716D02*
X85300D01*
X83988Y19028D02*
Y16404D01*
X81364Y-12468D02*
X80708Y-11812D01*
X79396D01*
X78740Y-12468D01*
Y-13124D01*
X79396Y-13780D01*
X80708D01*
X81364Y-14436D01*
Y-15092D01*
X80708Y-15748D01*
X79396D01*
X78740Y-15092D01*
X85300Y-12468D02*
X84644Y-11812D01*
X83332D01*
X82676Y-12468D01*
Y-15092D01*
X83332Y-15748D01*
X84644D01*
X85300Y-15092D01*
X86612Y-11812D02*
Y-15748D01*
X89236D01*
X74803Y-19686D02*
X77427D01*
X78739Y-21654D02*
Y-17718D01*
X80707D01*
X81363Y-18374D01*
Y-19686D01*
X80707Y-20342D01*
X78739D01*
X80051D02*
X81363Y-21654D01*
X85299Y-17718D02*
X82675D01*
Y-21654D01*
X85299D01*
X82675Y-19686D02*
X83987D01*
X89234Y-18374D02*
X88578Y-17718D01*
X87266D01*
X86610Y-18374D01*
Y-19030D01*
X87266Y-19686D01*
X88578D01*
X89234Y-20342D01*
Y-20998D01*
X88578Y-21654D01*
X87266D01*
X86610Y-20998D01*
X93170Y-17718D02*
X90546D01*
Y-21654D01*
X93170D01*
X90546Y-19686D02*
X91858D01*
X94482Y-17718D02*
X97106D01*
X95794D01*
Y-21654D01*
X78740Y-23623D02*
Y-26247D01*
X80052Y-27559D01*
X81364Y-26247D01*
Y-23623D01*
X82676Y-25591D02*
X85300D01*
X98297Y-21655D02*
X100921D01*
X99609D01*
Y-25591D01*
X102233D02*
Y-21655D01*
X104200D01*
X104856Y-22311D01*
Y-23623D01*
X104200Y-24279D01*
X102233D01*
X108792Y-21655D02*
X106168D01*
Y-23623D01*
X107480Y-22967D01*
X108136D01*
X108792Y-23623D01*
Y-24935D01*
X108136Y-25591D01*
X106824D01*
X106168Y-24935D01*
X112728Y-25591D02*
X110104D01*
X112728Y-22967D01*
Y-22311D01*
X112072Y-21655D01*
X110760D01*
X110104Y-22311D01*
X125500Y-27564D02*
X128124D01*
X126812D01*
Y-31500D01*
X129436D02*
Y-27564D01*
X131404D01*
X132060Y-28220D01*
Y-29532D01*
X131404Y-30188D01*
X129436D01*
X135995Y-27564D02*
X133371D01*
Y-29532D01*
X134683Y-28876D01*
X135339D01*
X135995Y-29532D01*
Y-30844D01*
X135339Y-31500D01*
X134027D01*
X133371Y-30844D01*
X137307Y-31500D02*
X138619D01*
X137963D01*
Y-27564D01*
X137307Y-28220D01*
X-70995Y142125D02*
X-68371D01*
X-69683D01*
Y138189D01*
X-67059D02*
Y142125D01*
X-65091D01*
X-64435Y141469D01*
Y140157D01*
X-65091Y139501D01*
X-67059D01*
X-63123Y138189D02*
X-61811D01*
X-62467D01*
Y142125D01*
X-63123Y141469D01*
D14*
X-120490Y59335D02*
X-122489Y58764D01*
X-120490Y58193D02*
X-122489Y58764D01*
X-120490Y58193D02*
X-122489Y57622D01*
X-120490Y57050D02*
X-122489Y57622D01*
X-120490Y56350D02*
X-122489Y55779D01*
X-120490Y55208D02*
X-122489Y55779D01*
X-120490Y55208D02*
X-122489Y54636D01*
X-120490Y54065D02*
X-122489Y54636D01*
X-120490Y53365D02*
X-122489Y52794D01*
X-120490Y52223D02*
X-122489Y52794D01*
X-120490Y52223D02*
X-122489Y51651D01*
X-120490Y51080D02*
X-122489Y51651D01*
X-122203Y50237D02*
X-122346Y50380D01*
X-122489Y50237D01*
X-122346Y50095D01*
X-122203Y50237D01*
X-120918Y47724D02*
X-120632Y48009D01*
X-120490Y48295D01*
Y48723D01*
X-120632Y49009D01*
X-120918Y49295D01*
X-121346Y49437D01*
X-121632D01*
X-122061Y49295D01*
X-122346Y49009D01*
X-122489Y48723D01*
Y48295D01*
X-122346Y48009D01*
X-122061Y47724D01*
X-120490Y47081D02*
X-121918D01*
X-122346Y46938D01*
X-122489Y46652D01*
Y46224D01*
X-122346Y45938D01*
X-121918Y45510D01*
X-120490D02*
X-122489D01*
X-119490Y44724D02*
X-122489D01*
X-120918D02*
X-120632Y44439D01*
X-120490Y44153D01*
Y43725D01*
X-120632Y43439D01*
X-120918Y43153D01*
X-121346Y43010D01*
X-121632D01*
X-122061Y43153D01*
X-122346Y43439D01*
X-122489Y43725D01*
Y44153D01*
X-122346Y44439D01*
X-122061Y44724D01*
X-121346Y42368D02*
Y40654D01*
X-121061D01*
X-120775Y40797D01*
X-120632Y40939D01*
X-120490Y41225D01*
Y41653D01*
X-120632Y41939D01*
X-120918Y42225D01*
X-121346Y42368D01*
X-121632D01*
X-122061Y42225D01*
X-122346Y41939D01*
X-122489Y41653D01*
Y41225D01*
X-122346Y40939D01*
X-122061Y40654D01*
X-120918Y38440D02*
X-120632Y38583D01*
X-120490Y39011D01*
Y39440D01*
X-120632Y39868D01*
X-120918Y40011D01*
X-121204Y39868D01*
X-121346Y39582D01*
X-121489Y38868D01*
X-121632Y38583D01*
X-121918Y38440D01*
X-122061D01*
X-122346Y38583D01*
X-122489Y39011D01*
Y39440D01*
X-122346Y39868D01*
X-122061Y40011D01*
X-120490Y36097D02*
X-122489D01*
X-120918D02*
X-120632Y36383D01*
X-120490Y36669D01*
Y37097D01*
X-120632Y37383D01*
X-120918Y37669D01*
X-121346Y37811D01*
X-121632D01*
X-122061Y37669D01*
X-122346Y37383D01*
X-122489Y37097D01*
Y36669D01*
X-122346Y36383D01*
X-122061Y36097D01*
X-119490Y34869D02*
X-121918D01*
X-122346Y34726D01*
X-122489Y34441D01*
Y34155D01*
X-120490Y35298D02*
Y34298D01*
X-119490Y33727D02*
X-122489D01*
X-120490Y32298D02*
X-121918Y33727D01*
X-121346Y33155D02*
X-122489Y32155D01*
X-119490Y31399D02*
X-119632Y31256D01*
X-119490Y31113D01*
X-119347Y31256D01*
X-119490Y31399D01*
X-120490Y31256D02*
X-122489D01*
X-119490Y30156D02*
X-121918D01*
X-122346Y30013D01*
X-122489Y29728D01*
Y29442D01*
X-120490Y30584D02*
Y29585D01*
X-122203Y28870D02*
X-122346Y29013D01*
X-122489Y28870D01*
X-122346Y28728D01*
X-122203Y28870D01*
X-120918Y26357D02*
X-120632Y26642D01*
X-120490Y26928D01*
Y27357D01*
X-120632Y27642D01*
X-120918Y27928D01*
X-121346Y28071D01*
X-121632D01*
X-122061Y27928D01*
X-122346Y27642D01*
X-122489Y27357D01*
Y26928D01*
X-122346Y26642D01*
X-122061Y26357D01*
X-120490Y25000D02*
X-120632Y25286D01*
X-120918Y25571D01*
X-121346Y25714D01*
X-121632D01*
X-122061Y25571D01*
X-122346Y25286D01*
X-122489Y25000D01*
Y24571D01*
X-122346Y24286D01*
X-122061Y24000D01*
X-121632Y23857D01*
X-121346D01*
X-120918Y24000D01*
X-120632Y24286D01*
X-120490Y24571D01*
Y25000D01*
Y23200D02*
X-122489D01*
X-121061D02*
X-120632Y22772D01*
X-120490Y22486D01*
Y22058D01*
X-120632Y21772D01*
X-121061Y21629D01*
X-122489D01*
X-121061D02*
X-120632Y21201D01*
X-120490Y20915D01*
Y20487D01*
X-120632Y20201D01*
X-121061Y20058D01*
X-122489D01*
X-120490Y108735D02*
X-122489Y108164D01*
X-120490Y107593D02*
X-122489Y108164D01*
X-120490Y107593D02*
X-122489Y107021D01*
X-120490Y106450D02*
X-122489Y107021D01*
X-120490Y105750D02*
X-122489Y105179D01*
X-120490Y104608D02*
X-122489Y105179D01*
X-120490Y104608D02*
X-122489Y104036D01*
X-120490Y103465D02*
X-122489Y104036D01*
X-120490Y102765D02*
X-122489Y102194D01*
X-120490Y101623D02*
X-122489Y102194D01*
X-120490Y101623D02*
X-122489Y101051D01*
X-120490Y100480D02*
X-122489Y101051D01*
X-122203Y99637D02*
X-122346Y99780D01*
X-122489Y99637D01*
X-122346Y99495D01*
X-122203Y99637D01*
X-120490Y98838D02*
X-123489D01*
X-120918D02*
X-120632Y98552D01*
X-120490Y98266D01*
Y97838D01*
X-120632Y97552D01*
X-120918Y97267D01*
X-121346Y97124D01*
X-121632D01*
X-122061Y97267D01*
X-122346Y97552D01*
X-122489Y97838D01*
Y98266D01*
X-122346Y98552D01*
X-122061Y98838D01*
X-120490Y96481D02*
X-121918D01*
X-122346Y96338D01*
X-122489Y96052D01*
Y95624D01*
X-122346Y95338D01*
X-121918Y94910D01*
X-120490D02*
X-122489D01*
X-120490Y94124D02*
X-122489D01*
X-121061D02*
X-120632Y93696D01*
X-120490Y93410D01*
Y92982D01*
X-120632Y92696D01*
X-121061Y92553D01*
X-122489D01*
X-121061D02*
X-120632Y92125D01*
X-120490Y91839D01*
Y91411D01*
X-120632Y91125D01*
X-121061Y90982D01*
X-122489D01*
X-120490Y90039D02*
X-123489D01*
X-120918D02*
X-120632Y89754D01*
X-120490Y89468D01*
Y89040D01*
X-120632Y88754D01*
X-120918Y88468D01*
X-121346Y88326D01*
X-121632D01*
X-122061Y88468D01*
X-122346Y88754D01*
X-122489Y89040D01*
Y89468D01*
X-122346Y89754D01*
X-122061Y90039D01*
X-119490Y87683D02*
X-122489D01*
X-120490Y86255D02*
X-121918Y87683D01*
X-121346Y87112D02*
X-122489Y86112D01*
X-119490Y85355D02*
X-119632Y85212D01*
X-119490Y85069D01*
X-119347Y85212D01*
X-119490Y85355D01*
X-120490Y85212D02*
X-122489D01*
X-120490Y84541D02*
X-122489D01*
X-121061D02*
X-120632Y84112D01*
X-120490Y83827D01*
Y83398D01*
X-120632Y83112D01*
X-121061Y82969D01*
X-122489D01*
X-119490Y81898D02*
X-119632Y81756D01*
X-119490Y81613D01*
X-119347Y81756D01*
X-119490Y81898D01*
X-120490Y81756D02*
X-122489D01*
X-120490Y81084D02*
X-122489D01*
X-121061D02*
X-120632Y80656D01*
X-120490Y80370D01*
Y79942D01*
X-120632Y79656D01*
X-121061Y79513D01*
X-122489D01*
X-120918Y77014D02*
X-120632Y77299D01*
X-120490Y77585D01*
Y78013D01*
X-120632Y78299D01*
X-120918Y78585D01*
X-121346Y78728D01*
X-121632D01*
X-122061Y78585D01*
X-122346Y78299D01*
X-122489Y78013D01*
Y77585D01*
X-122346Y77299D01*
X-122061Y77014D01*
X-122203Y76228D02*
X-122346Y76371D01*
X-122489Y76228D01*
X-122346Y76085D01*
X-122203Y76228D01*
X-120918Y73714D02*
X-120632Y74000D01*
X-120490Y74286D01*
Y74714D01*
X-120632Y75000D01*
X-120918Y75285D01*
X-121346Y75428D01*
X-121632D01*
X-122061Y75285D01*
X-122346Y75000D01*
X-122489Y74714D01*
Y74286D01*
X-122346Y74000D01*
X-122061Y73714D01*
X-120490Y72357D02*
X-120632Y72643D01*
X-120918Y72929D01*
X-121346Y73072D01*
X-121632D01*
X-122061Y72929D01*
X-122346Y72643D01*
X-122489Y72357D01*
Y71929D01*
X-122346Y71643D01*
X-122061Y71358D01*
X-121632Y71215D01*
X-121346D01*
X-120918Y71358D01*
X-120632Y71643D01*
X-120490Y71929D01*
Y72357D01*
Y70558D02*
X-122489D01*
X-121061D02*
X-120632Y70129D01*
X-120490Y69844D01*
Y69415D01*
X-120632Y69130D01*
X-121061Y68987D01*
X-122489D01*
X-121061D02*
X-120632Y68558D01*
X-120490Y68273D01*
Y67844D01*
X-120632Y67558D01*
X-121061Y67416D01*
X-122489D01*
M02*
