M48
;Layer_Color=9474304
;FILE_FORMAT=2:5
INCH,LZ
;TYPE=PLATED
T1F00S00C0.01181
T2F00S00C0.01968
T3F00S00C0.02559
T4F00S00C0.03700
T5F00S00C0.04016
T6F00S00C0.08661
T7F00S00C0.12500
T8F00S00C0.12598
;TYPE=NON_PLATED
T9F00S00C0.03543
T10F00S00C0.03937
%
T01
X-0044284Y0031724
T02
X0127734Y-0030694
X0137902
X0164962Y-0014563
X0159916Y-0009452
X0066991Y-0019954
X006266Y-0015623
X0060895Y-0025984
X0056564Y-0021654
X0042785Y-0023622
Y-0030118
X0035895
X0036092Y-0023622
X-0034872Y0141634
T03
X0Y-0007874
Y0
X0007874
Y-0007874
X0015748
Y0
X0023622
Y-0007874
X0031496
Y0
X003937
Y-0007874
X0047244
X0047244Y0
X0047313Y005315
Y0061024
X0039439
Y005315
X0031565
Y0061024
X002369
Y005315
X0015816
Y0061024
X0007942
Y005315
X0000068
X0000068Y0061024
T04
X0105383Y-0029528
X0121131
X-0065876Y0133858
X-0085562
T05
X0172411Y-010128
X0182411
Y-009128
Y-008128
X0172411
Y-009128
Y-007128
Y-006128
Y-005128
Y-004128
Y-003128
Y-002128
Y-001128
Y-000128
Y000872
Y001872
Y002872
X0182411
Y003872
X0172411
X0192411
X0202411
Y002872
X0192411
Y001872
X0182411
Y000872
Y-000128
Y-001128
Y-002128
Y-003128
Y-004128
Y-005128
Y-006128
Y-007128
X0192411
Y-008128
X0202411
Y-009128
Y-010128
X0192411
Y-009128
Y-006128
Y-005128
Y-004128
Y-003128
Y-002128
Y-001128
Y-000128
Y000872
X0202411
Y-000128
Y-001128
Y-002128
Y-003128
Y-004128
Y-005128
Y-006128
Y-007128
Y001872
Y004872
Y005872
Y006872
Y007872
Y008872
Y009872
Y010872
Y011872
X0192411
X0182411
X0172411
Y012872
Y013872
Y014872
X0182411
Y013872
Y012872
X0192411
Y013872
Y014872
X0202411
Y013872
Y012872
X0192411Y010872
X0182411
Y009872
Y008872
Y007872
Y006872
Y005872
Y004872
X0172411
Y005872
Y006872
Y007872
Y008872
Y009872
Y010872
X0192411Y009872
Y008872
Y007872
Y006872
Y005872
Y004872
T06
X-001378Y-0003543
X0061024Y-0003543
X0061092Y0056693
X-0013711Y0056693
T07
X-0135464Y-013133
X0202011Y-0121305
X-0135464Y0183677
X0202036Y016867
T08
X0140811Y-000418
X-0063439Y0027559
X-0114189Y-000418
X-0063439Y0072835
X-0114189Y013082
X0140811
T09
X-0053849Y0134173
X-003066
T10
X-0125916Y-0040354
X-0119026
X-0112136
X-0105246
X-0098357
X-0091467
X-0112136Y015748
X-0119026
X-0125916
M30
