G04*
G04 #@! TF.GenerationSoftware,Altium Limited,Altium Designer,21.2.2 (38)*
G04*
G04 Layer_Color=128*
%FSLAX25Y25*%
%MOIN*%
G70*
G04*
G04 #@! TF.SameCoordinates,DAC03B0E-16BA-4501-B517-EA695224B78F*
G04*
G04*
G04 #@! TF.FilePolarity,Positive*
G04*
G01*
G75*
%ADD42R,0.13780X0.06693*%
G36*
X726192Y-224101D02*
X726411Y-224120D01*
X726520D01*
X726611Y-224138D01*
X726812Y-224156D01*
X727049Y-224193D01*
X727103D01*
X727176Y-224211D01*
X727249D01*
X727449Y-224247D01*
X727686Y-224284D01*
X727741D01*
X727814Y-224302D01*
X727887Y-224320D01*
X728087Y-224357D01*
X728288Y-224393D01*
Y-225705D01*
X728251D01*
X728178Y-225668D01*
X728051Y-225650D01*
X727887Y-225614D01*
X727704Y-225577D01*
X727486Y-225523D01*
X727012Y-225450D01*
X726994D01*
X726903Y-225432D01*
X726793Y-225413D01*
X726629Y-225395D01*
X726447Y-225377D01*
X726229Y-225359D01*
X725791Y-225341D01*
X725591D01*
X725372Y-225359D01*
X725099Y-225395D01*
X724789Y-225450D01*
X724480Y-225523D01*
X724206Y-225632D01*
X723951Y-225778D01*
X723933Y-225796D01*
X723860Y-225851D01*
X723769Y-225942D01*
X723660Y-226069D01*
X723550Y-226233D01*
X723459Y-226434D01*
X723386Y-226652D01*
X723368Y-226907D01*
Y-226926D01*
Y-226980D01*
X723386Y-227053D01*
X723405Y-227163D01*
X723478Y-227399D01*
X723532Y-227527D01*
X723605Y-227654D01*
X723623Y-227673D01*
X723641Y-227709D01*
X723696Y-227764D01*
X723769Y-227837D01*
X723969Y-228019D01*
X724225Y-228219D01*
X724243Y-228237D01*
X724297Y-228256D01*
X724370Y-228310D01*
X724498Y-228365D01*
X724625Y-228438D01*
X724771Y-228511D01*
X725136Y-228657D01*
X725154D01*
X725227Y-228693D01*
X725318Y-228729D01*
X725463Y-228784D01*
X725609Y-228839D01*
X725773Y-228912D01*
X726156Y-229076D01*
X726174D01*
X726247Y-229112D01*
X726356Y-229148D01*
X726484Y-229203D01*
X726648Y-229276D01*
X726812Y-229349D01*
X727194Y-229531D01*
X727213Y-229549D01*
X727285Y-229568D01*
X727377Y-229622D01*
X727504Y-229695D01*
X727796Y-229895D01*
X728087Y-230132D01*
X728105Y-230151D01*
X728160Y-230187D01*
X728233Y-230260D01*
X728324Y-230369D01*
X728415Y-230479D01*
X728524Y-230624D01*
X728725Y-230952D01*
X728743Y-230970D01*
X728761Y-231043D01*
X728798Y-231134D01*
X728852Y-231262D01*
X728907Y-231426D01*
X728943Y-231626D01*
X728962Y-231827D01*
X728980Y-232064D01*
Y-232100D01*
Y-232191D01*
X728962Y-232337D01*
X728943Y-232519D01*
X728907Y-232720D01*
X728834Y-232956D01*
X728761Y-233193D01*
X728652Y-233412D01*
X728634Y-233430D01*
X728597Y-233503D01*
X728524Y-233612D01*
X728433Y-233740D01*
X728306Y-233886D01*
X728160Y-234050D01*
X727978Y-234214D01*
X727777Y-234359D01*
X727759Y-234378D01*
X727686Y-234414D01*
X727559Y-234487D01*
X727413Y-234578D01*
X727213Y-234669D01*
X726994Y-234760D01*
X726739Y-234851D01*
X726447Y-234924D01*
X726411D01*
X726320Y-234961D01*
X726156Y-234979D01*
X725937Y-235015D01*
X725682Y-235052D01*
X725391Y-235070D01*
X725063Y-235106D01*
X724461D01*
X724316Y-235088D01*
X724188D01*
X723860Y-235070D01*
X723787D01*
X723714Y-235052D01*
X723605D01*
X723350Y-235015D01*
X723058Y-234979D01*
X722986D01*
X722913Y-234961D01*
X722822D01*
X722585Y-234924D01*
X722330Y-234888D01*
X722311D01*
X722275Y-234870D01*
X722202Y-234851D01*
X722129Y-234833D01*
X721929Y-234778D01*
X721710Y-234724D01*
Y-233321D01*
X721747Y-233339D01*
X721819Y-233357D01*
X721947Y-233394D01*
X722111Y-233448D01*
X722311Y-233521D01*
X722548Y-233576D01*
X722803Y-233631D01*
X723077Y-233685D01*
X723113D01*
X723204Y-233703D01*
X723368Y-233722D01*
X723587Y-233740D01*
X723842Y-233776D01*
X724133Y-233794D01*
X724461Y-233813D01*
X725081D01*
X725245Y-233794D01*
X725427D01*
X725627Y-233758D01*
X725828Y-233740D01*
X726028Y-233703D01*
X726047D01*
X726119Y-233685D01*
X726192Y-233649D01*
X726320Y-233631D01*
X726575Y-233521D01*
X726830Y-233394D01*
X726848Y-233376D01*
X726885Y-233357D01*
X726939Y-233303D01*
X727012Y-233248D01*
X727176Y-233084D01*
X727304Y-232865D01*
Y-232847D01*
X727322Y-232811D01*
X727358Y-232738D01*
X727377Y-232647D01*
X727413Y-232537D01*
X727431Y-232410D01*
X727449Y-232137D01*
Y-232118D01*
Y-232064D01*
X727431Y-231991D01*
X727413Y-231881D01*
X727340Y-231645D01*
X727285Y-231535D01*
X727194Y-231408D01*
X727176Y-231389D01*
X727158Y-231353D01*
X727103Y-231298D01*
X727030Y-231225D01*
X726939Y-231134D01*
X726830Y-231043D01*
X726557Y-230861D01*
X726538Y-230843D01*
X726484Y-230825D01*
X726411Y-230770D01*
X726302Y-230715D01*
X726174Y-230643D01*
X726028Y-230570D01*
X725664Y-230406D01*
X725646Y-230387D01*
X725573Y-230369D01*
X725482Y-230333D01*
X725336Y-230278D01*
X725190Y-230223D01*
X725008Y-230151D01*
X724625Y-230005D01*
X724607Y-229987D01*
X724534Y-229968D01*
X724443Y-229914D01*
X724316Y-229859D01*
X724152Y-229786D01*
X723988Y-229713D01*
X723605Y-229531D01*
X723587Y-229513D01*
X723514Y-229476D01*
X723423Y-229440D01*
X723295Y-229367D01*
X723168Y-229276D01*
X723004Y-229185D01*
X722694Y-228948D01*
X722676Y-228930D01*
X722639Y-228893D01*
X722567Y-228820D01*
X722475Y-228711D01*
X722384Y-228602D01*
X722275Y-228456D01*
X722075Y-228146D01*
X722056Y-228128D01*
X722038Y-228055D01*
X722002Y-227964D01*
X721965Y-227837D01*
X721910Y-227673D01*
X721874Y-227490D01*
X721856Y-227272D01*
X721838Y-227053D01*
Y-227035D01*
Y-226962D01*
X721856Y-226853D01*
X721874Y-226707D01*
X721892Y-226543D01*
X721929Y-226361D01*
X721983Y-226160D01*
X722056Y-225960D01*
X722075Y-225942D01*
X722093Y-225869D01*
X722166Y-225778D01*
X722238Y-225650D01*
X722330Y-225504D01*
X722457Y-225341D01*
X722603Y-225177D01*
X722767Y-225012D01*
X722785Y-224994D01*
X722858Y-224940D01*
X722967Y-224867D01*
X723113Y-224776D01*
X723277Y-224666D01*
X723496Y-224557D01*
X723733Y-224448D01*
X724006Y-224338D01*
X724042Y-224320D01*
X724152Y-224302D01*
X724297Y-224266D01*
X724516Y-224211D01*
X724789Y-224156D01*
X725099Y-224120D01*
X725445Y-224101D01*
X725828Y-224083D01*
X726010D01*
X726192Y-224101D01*
D02*
G37*
G36*
X756401Y-234961D02*
X755107D01*
X755053Y-233412D01*
Y-233430D01*
X755034Y-233448D01*
X754943Y-233558D01*
X754834Y-233703D01*
X754670Y-233904D01*
X754470Y-234104D01*
X754251Y-234323D01*
X754014Y-234523D01*
X753759Y-234705D01*
X753723Y-234724D01*
X753632Y-234760D01*
X753504Y-234833D01*
X753304Y-234906D01*
X753085Y-234979D01*
X752830Y-235052D01*
X752557Y-235088D01*
X752247Y-235106D01*
X752138D01*
X751992Y-235088D01*
X751828Y-235070D01*
X751646Y-235033D01*
X751427Y-234979D01*
X751227Y-234906D01*
X751008Y-234815D01*
X750990Y-234797D01*
X750917Y-234760D01*
X750826Y-234687D01*
X750698Y-234596D01*
X750552Y-234487D01*
X750407Y-234341D01*
X750261Y-234177D01*
X750115Y-233995D01*
X750097Y-233977D01*
X750061Y-233904D01*
X749988Y-233776D01*
X749915Y-233630D01*
X749824Y-233430D01*
X749732Y-233211D01*
X749641Y-232975D01*
X749569Y-232701D01*
Y-232665D01*
X749550Y-232574D01*
X749514Y-232410D01*
X749496Y-232209D01*
X749459Y-231954D01*
X749423Y-231663D01*
X749404Y-231353D01*
Y-231025D01*
Y-231007D01*
Y-230970D01*
Y-230916D01*
Y-230843D01*
X749423Y-230661D01*
X749441Y-230406D01*
X749477Y-230114D01*
X749514Y-229804D01*
X749587Y-229476D01*
X749678Y-229167D01*
Y-229148D01*
X749696Y-229130D01*
X749732Y-229021D01*
X749805Y-228875D01*
X749896Y-228693D01*
X750006Y-228474D01*
X750152Y-228237D01*
X750316Y-228001D01*
X750498Y-227782D01*
X750516Y-227764D01*
X750589Y-227691D01*
X750698Y-227582D01*
X750862Y-227454D01*
X751044Y-227326D01*
X751263Y-227181D01*
X751500Y-227053D01*
X751773Y-226926D01*
X751810Y-226907D01*
X751901Y-226871D01*
X752065Y-226835D01*
X752265Y-226780D01*
X752502Y-226725D01*
X752794Y-226671D01*
X753103Y-226652D01*
X753431Y-226634D01*
X753668D01*
X753923Y-226652D01*
X754196Y-226689D01*
X754215D01*
X754269Y-226707D01*
X754342D01*
X754433Y-226725D01*
X754688Y-226780D01*
X754962Y-226853D01*
Y-223373D01*
X756401D01*
Y-234961D01*
D02*
G37*
G36*
X809385Y-226598D02*
X809567D01*
X809986Y-226634D01*
X810004D01*
X810095Y-226652D01*
X810205D01*
X810369Y-226671D01*
X810551Y-226707D01*
X810751Y-226725D01*
X810988Y-226780D01*
X811225Y-226816D01*
Y-228092D01*
X811189D01*
X811116Y-228055D01*
X810988Y-228037D01*
X810806Y-228001D01*
X810624Y-227964D01*
X810405Y-227928D01*
X809950Y-227855D01*
X809931D01*
X809840Y-227837D01*
X809731Y-227818D01*
X809585Y-227800D01*
X809421D01*
X809257Y-227782D01*
X808893Y-227764D01*
X808711D01*
X808583Y-227782D01*
X808292Y-227800D01*
X808000Y-227855D01*
X807982D01*
X807945Y-227873D01*
X807872Y-227891D01*
X807781Y-227909D01*
X807599Y-228001D01*
X807399Y-228092D01*
X807362Y-228110D01*
X807271Y-228183D01*
X807180Y-228292D01*
X807089Y-228420D01*
X807071Y-228456D01*
X807053Y-228547D01*
X807016Y-228675D01*
X806998Y-228839D01*
Y-228857D01*
Y-228875D01*
X807016Y-228966D01*
X807034Y-229094D01*
X807071Y-229240D01*
X807089Y-229276D01*
X807144Y-229349D01*
X807253Y-229458D01*
X807399Y-229586D01*
X807417D01*
X807435Y-229622D01*
X807490Y-229640D01*
X807563Y-229695D01*
X807672Y-229750D01*
X807781Y-229804D01*
X807909Y-229859D01*
X808055Y-229932D01*
X808073D01*
X808128Y-229968D01*
X808219Y-229987D01*
X808346Y-230041D01*
X808510Y-230096D01*
X808692Y-230151D01*
X808893Y-230205D01*
X809130Y-230278D01*
X809166Y-230296D01*
X809257Y-230314D01*
X809385Y-230351D01*
X809567Y-230424D01*
X809767Y-230479D01*
X809968Y-230570D01*
X810168Y-230643D01*
X810369Y-230734D01*
X810387Y-230752D01*
X810460Y-230770D01*
X810533Y-230825D01*
X810660Y-230879D01*
X810915Y-231062D01*
X811170Y-231262D01*
X811189Y-231280D01*
X811225Y-231317D01*
X811280Y-231371D01*
X811353Y-231444D01*
X811498Y-231645D01*
X811571Y-231772D01*
X811626Y-231900D01*
Y-231918D01*
X811644Y-231954D01*
X811681Y-232045D01*
X811699Y-232137D01*
X811735Y-232264D01*
X811753Y-232392D01*
X811772Y-232719D01*
Y-232738D01*
Y-232792D01*
Y-232884D01*
X811753Y-232975D01*
X811699Y-233230D01*
X811608Y-233503D01*
Y-233521D01*
X811589Y-233558D01*
X811553Y-233630D01*
X811498Y-233703D01*
X811371Y-233904D01*
X811207Y-234122D01*
X811189Y-234141D01*
X811170Y-234159D01*
X811116Y-234214D01*
X811043Y-234268D01*
X810842Y-234414D01*
X810606Y-234578D01*
X810587D01*
X810551Y-234614D01*
X810478Y-234633D01*
X810387Y-234687D01*
X810168Y-234778D01*
X809895Y-234870D01*
X809877D01*
X809840Y-234888D01*
X809749Y-234906D01*
X809658Y-234924D01*
X809549Y-234961D01*
X809403Y-234979D01*
X809111Y-235033D01*
X809093D01*
X809039Y-235052D01*
X808966D01*
X808856Y-235070D01*
X808619Y-235088D01*
X808328Y-235106D01*
X808018D01*
X807818Y-235088D01*
X807581D01*
X807326Y-235070D01*
X806779Y-235033D01*
X806743D01*
X806670Y-235015D01*
X806524Y-234997D01*
X806360Y-234979D01*
X806142Y-234942D01*
X805923Y-234906D01*
X805431Y-234797D01*
Y-233485D01*
X805468D01*
X805559Y-233521D01*
X805686Y-233558D01*
X805868Y-233612D01*
X806087Y-233667D01*
X806324Y-233722D01*
X806852Y-233813D01*
X806889D01*
X806980Y-233831D01*
X807107Y-233849D01*
X807290D01*
X807508Y-233867D01*
X807745Y-233886D01*
X808273Y-233904D01*
X808437D01*
X808619Y-233886D01*
X808838Y-233867D01*
X809093Y-233831D01*
X809348Y-233794D01*
X809585Y-233722D01*
X809786Y-233630D01*
X809804Y-233612D01*
X809859Y-233576D01*
X809950Y-233521D01*
X810041Y-233430D01*
X810132Y-233321D01*
X810223Y-233175D01*
X810277Y-233011D01*
X810296Y-232829D01*
Y-232811D01*
Y-232792D01*
X810277Y-232701D01*
X810259Y-232574D01*
X810205Y-232446D01*
X810186Y-232410D01*
X810150Y-232337D01*
X810059Y-232228D01*
X809913Y-232100D01*
X809877Y-232064D01*
X809822Y-232045D01*
X809767Y-231991D01*
X809676Y-231954D01*
X809567Y-231900D01*
X809421Y-231827D01*
X809276Y-231772D01*
X809257D01*
X809203Y-231736D01*
X809111Y-231699D01*
X808966Y-231645D01*
X808802Y-231590D01*
X808601Y-231517D01*
X808383Y-231444D01*
X808109Y-231371D01*
X808091D01*
X808018Y-231335D01*
X807909Y-231317D01*
X807781Y-231262D01*
X807617Y-231207D01*
X807453Y-231153D01*
X807089Y-231007D01*
X807071Y-230989D01*
X807016Y-230970D01*
X806925Y-230916D01*
X806816Y-230861D01*
X806542Y-230715D01*
X806269Y-230515D01*
X806251Y-230497D01*
X806215Y-230460D01*
X806142Y-230406D01*
X806069Y-230314D01*
X805886Y-230114D01*
X805723Y-229841D01*
Y-229823D01*
X805686Y-229768D01*
X805668Y-229695D01*
X805632Y-229586D01*
X805595Y-229458D01*
X805577Y-229294D01*
X805540Y-229112D01*
Y-228930D01*
Y-228912D01*
Y-228875D01*
Y-228802D01*
X805559Y-228711D01*
X805577Y-228602D01*
X805595Y-228474D01*
X805686Y-228183D01*
Y-228165D01*
X805723Y-228110D01*
X805759Y-228037D01*
X805814Y-227928D01*
X805886Y-227818D01*
X805978Y-227691D01*
X806105Y-227545D01*
X806233Y-227417D01*
X806251Y-227399D01*
X806306Y-227363D01*
X806397Y-227290D01*
X806506Y-227199D01*
X806652Y-227108D01*
X806834Y-227017D01*
X807034Y-226907D01*
X807271Y-226816D01*
X807308Y-226798D01*
X807399Y-226780D01*
X807526Y-226743D01*
X807727Y-226689D01*
X807964Y-226652D01*
X808237Y-226616D01*
X808565Y-226598D01*
X808911Y-226579D01*
X809239D01*
X809385Y-226598D01*
D02*
G37*
G36*
X773054Y-226598D02*
X773145D01*
X773273Y-226616D01*
X773564Y-226689D01*
X773874Y-226780D01*
X774184Y-226926D01*
X774494Y-227144D01*
X774639Y-227272D01*
X774767Y-227417D01*
X774803Y-227454D01*
X774821Y-227509D01*
X774876Y-227563D01*
X774913Y-227654D01*
X774967Y-227764D01*
X775040Y-227891D01*
X775095Y-228037D01*
X775149Y-228201D01*
X775204Y-228365D01*
X775259Y-228565D01*
X775313Y-228784D01*
X775350Y-229039D01*
X775368Y-229294D01*
X775386Y-229568D01*
Y-229859D01*
X773947D01*
Y-229841D01*
Y-229804D01*
Y-229750D01*
Y-229677D01*
X773929Y-229495D01*
X773910Y-229276D01*
X773874Y-229021D01*
X773819Y-228766D01*
X773728Y-228511D01*
X773619Y-228310D01*
X773601Y-228292D01*
X773564Y-228237D01*
X773473Y-228146D01*
X773364Y-228055D01*
X773218Y-227982D01*
X773054Y-227891D01*
X772854Y-227837D01*
X772617Y-227818D01*
X772507D01*
X772453Y-227837D01*
X772271Y-227855D01*
X772052Y-227928D01*
X772034D01*
X771997Y-227946D01*
X771943Y-227964D01*
X771870Y-228001D01*
X771669Y-228110D01*
X771451Y-228256D01*
X771432Y-228274D01*
X771396Y-228292D01*
X771341Y-228347D01*
X771250Y-228401D01*
X771050Y-228602D01*
X770795Y-228839D01*
X770777Y-228857D01*
X770740Y-228893D01*
X770667Y-228966D01*
X770576Y-229076D01*
X770467Y-229203D01*
X770339Y-229331D01*
X770212Y-229495D01*
X770066Y-229677D01*
Y-234961D01*
X768627D01*
Y-226725D01*
X769920D01*
X769957Y-228256D01*
Y-228237D01*
X769993Y-228219D01*
X770084Y-228110D01*
X770230Y-227964D01*
X770412Y-227764D01*
X770631Y-227563D01*
X770868Y-227345D01*
X771123Y-227144D01*
X771396Y-226980D01*
X771432Y-226962D01*
X771524Y-226926D01*
X771651Y-226853D01*
X771852Y-226780D01*
X772052Y-226707D01*
X772307Y-226634D01*
X772562Y-226598D01*
X772835Y-226579D01*
X772963D01*
X773054Y-226598D01*
D02*
G37*
G36*
X709503Y-226598D02*
X709594Y-226616D01*
X709721Y-226652D01*
X709849Y-226707D01*
X709995Y-226780D01*
X710140Y-226871D01*
X710286Y-226998D01*
X710432Y-227163D01*
X710560Y-227363D01*
X710687Y-227582D01*
X710778Y-227855D01*
X710851Y-228183D01*
X710906Y-228547D01*
X710924Y-228966D01*
Y-234961D01*
X709503D01*
Y-229057D01*
Y-229039D01*
Y-228984D01*
Y-228930D01*
Y-228839D01*
X709484Y-228638D01*
X709466Y-228438D01*
Y-228420D01*
Y-228401D01*
X709448Y-228292D01*
X709430Y-228165D01*
X709375Y-228037D01*
X709357Y-228019D01*
X709339Y-227964D01*
X709284Y-227891D01*
X709229Y-227837D01*
X709211Y-227818D01*
X709175Y-227800D01*
X709102Y-227782D01*
X709011Y-227764D01*
X708993D01*
X708920Y-227782D01*
X708829Y-227800D01*
X708719Y-227873D01*
X708701Y-227891D01*
X708646Y-227946D01*
X708555Y-228055D01*
X708446Y-228201D01*
Y-228219D01*
X708428Y-228237D01*
X708391Y-228292D01*
X708355Y-228347D01*
X708246Y-228547D01*
X708118Y-228784D01*
Y-228802D01*
X708082Y-228857D01*
X708045Y-228930D01*
X707991Y-229039D01*
X707936Y-229167D01*
X707863Y-229312D01*
X707790Y-229495D01*
X707699Y-229677D01*
Y-234961D01*
X706278D01*
Y-229203D01*
Y-229185D01*
Y-229130D01*
Y-229057D01*
Y-228948D01*
X706260Y-228711D01*
X706241Y-228492D01*
Y-228474D01*
Y-228438D01*
X706223Y-228328D01*
X706205Y-228183D01*
X706150Y-228055D01*
X706132Y-228037D01*
X706114Y-227964D01*
X706059Y-227891D01*
X706004Y-227837D01*
X705986Y-227818D01*
X705950Y-227800D01*
X705877Y-227782D01*
X705786Y-227764D01*
X705768D01*
X705695Y-227782D01*
X705604Y-227800D01*
X705513Y-227855D01*
X705494Y-227873D01*
X705440Y-227928D01*
X705349Y-228019D01*
X705239Y-228165D01*
X705221Y-228201D01*
X705148Y-228310D01*
X705039Y-228492D01*
X704911Y-228729D01*
Y-228748D01*
X704875Y-228802D01*
X704838Y-228875D01*
X704784Y-228984D01*
X704729Y-229112D01*
X704656Y-229276D01*
X704565Y-229476D01*
X704474Y-229677D01*
Y-234961D01*
X703053D01*
Y-226725D01*
X704219D01*
X704292Y-228292D01*
X704310Y-228274D01*
X704328Y-228219D01*
X704365Y-228128D01*
X704419Y-228019D01*
X704565Y-227764D01*
X704711Y-227509D01*
X704729Y-227490D01*
X704747Y-227454D01*
X704784Y-227399D01*
X704838Y-227326D01*
X704966Y-227144D01*
X705130Y-226980D01*
X705148Y-226962D01*
X705166Y-226944D01*
X705276Y-226871D01*
X705421Y-226780D01*
X705585Y-226689D01*
X705604D01*
X705622Y-226671D01*
X705749Y-226634D01*
X705913Y-226598D01*
X706114Y-226579D01*
X706223D01*
X706351Y-226598D01*
X706496Y-226634D01*
X706660Y-226689D01*
X706824Y-226762D01*
X706988Y-226871D01*
X707134Y-227017D01*
X707152Y-227035D01*
X707189Y-227090D01*
X707243Y-227199D01*
X707316Y-227345D01*
X707371Y-227545D01*
X707426Y-227764D01*
X707462Y-228037D01*
X707480Y-228365D01*
X707499Y-228347D01*
X707517Y-228292D01*
X707553Y-228219D01*
X707608Y-228110D01*
X707735Y-227873D01*
X707863Y-227618D01*
Y-227600D01*
X707899Y-227563D01*
X707936Y-227490D01*
X707991Y-227417D01*
X708118Y-227235D01*
X708264Y-227053D01*
X708282Y-227035D01*
X708300Y-227017D01*
X708410Y-226926D01*
X708555Y-226816D01*
X708738Y-226707D01*
X708756D01*
X708792Y-226689D01*
X708847Y-226671D01*
X708920Y-226634D01*
X709120Y-226598D01*
X709357Y-226579D01*
X709430D01*
X709503Y-226598D01*
D02*
G37*
G36*
X799819Y-226598D02*
X800020Y-226616D01*
X800257Y-226652D01*
X800712Y-226743D01*
X800730D01*
X800821Y-226780D01*
X800931Y-226816D01*
X801058Y-226871D01*
X801222Y-226944D01*
X801386Y-227035D01*
X801550Y-227126D01*
X801714Y-227254D01*
X801732Y-227272D01*
X801787Y-227308D01*
X801860Y-227381D01*
X801951Y-227472D01*
X802060Y-227600D01*
X802170Y-227746D01*
X802261Y-227909D01*
X802352Y-228092D01*
X802370Y-228110D01*
X802388Y-228183D01*
X802425Y-228292D01*
X802479Y-228438D01*
X802516Y-228602D01*
X802552Y-228820D01*
X802571Y-229039D01*
X802589Y-229294D01*
Y-234961D01*
X801295D01*
X801259Y-233867D01*
X801222Y-233904D01*
X801149Y-233977D01*
X801004Y-234086D01*
X800840Y-234232D01*
X800621Y-234378D01*
X800402Y-234542D01*
X800147Y-234687D01*
X799892Y-234815D01*
X799856Y-234833D01*
X799765Y-234851D01*
X799637Y-234906D01*
X799455Y-234961D01*
X799236Y-235015D01*
X798981Y-235052D01*
X798726Y-235088D01*
X798435Y-235106D01*
X798325D01*
X798198Y-235088D01*
X798034D01*
X797833Y-235070D01*
X797633Y-235033D01*
X797232Y-234942D01*
X797214D01*
X797159Y-234906D01*
X797068Y-234870D01*
X796941Y-234815D01*
X796685Y-234651D01*
X796412Y-234451D01*
X796394Y-234432D01*
X796357Y-234396D01*
X796303Y-234323D01*
X796230Y-234232D01*
X796157Y-234122D01*
X796066Y-233995D01*
X795938Y-233703D01*
Y-233685D01*
X795920Y-233630D01*
X795902Y-233539D01*
X795865Y-233430D01*
X795847Y-233284D01*
X795811Y-233120D01*
X795793Y-232774D01*
Y-232756D01*
Y-232719D01*
Y-232647D01*
X795811Y-232574D01*
X795829Y-232465D01*
X795847Y-232337D01*
X795902Y-232064D01*
X796011Y-231754D01*
X796175Y-231426D01*
X796285Y-231262D01*
X796412Y-231116D01*
X796540Y-230970D01*
X796704Y-230825D01*
X796722D01*
X796740Y-230788D01*
X796795Y-230752D01*
X796886Y-230715D01*
X796977Y-230661D01*
X797086Y-230606D01*
X797232Y-230533D01*
X797396Y-230460D01*
X797578Y-230406D01*
X797779Y-230333D01*
X797997Y-230278D01*
X798252Y-230223D01*
X798507Y-230187D01*
X798799Y-230151D01*
X799109Y-230114D01*
X801149Y-230114D01*
Y-229403D01*
Y-229367D01*
Y-229276D01*
X801131Y-229148D01*
X801095Y-228984D01*
X801040Y-228802D01*
X800949Y-228602D01*
X800840Y-228420D01*
X800676Y-228237D01*
X800657Y-228219D01*
X800585Y-228165D01*
X800475Y-228092D01*
X800329Y-228019D01*
X800129Y-227946D01*
X799874Y-227873D01*
X799582Y-227818D01*
X799254Y-227800D01*
X798999D01*
X798817Y-227818D01*
X798598Y-227837D01*
X798380Y-227873D01*
X797870Y-227964D01*
X797833D01*
X797760Y-228001D01*
X797615Y-228037D01*
X797451Y-228074D01*
X797232Y-228146D01*
X796995Y-228219D01*
X796740Y-228310D01*
X796485Y-228401D01*
Y-227108D01*
X796503D01*
X796540Y-227090D01*
X796576Y-227071D01*
X796649Y-227053D01*
X796831Y-226998D01*
X797068Y-226926D01*
X797086D01*
X797123Y-226907D01*
X797196Y-226889D01*
X797287Y-226871D01*
X797523Y-226816D01*
X797779Y-226762D01*
X797797D01*
X797852Y-226743D01*
X797924Y-226725D01*
X798015Y-226707D01*
X798125Y-226689D01*
X798252Y-226671D01*
X798544Y-226634D01*
X798562D01*
X798617Y-226616D01*
X798690D01*
X798799Y-226598D01*
X798926D01*
X799054Y-226579D01*
X799637D01*
X799819Y-226598D01*
D02*
G37*
G36*
X790254Y-224266D02*
X790491Y-224284D01*
X790746Y-224320D01*
X791292Y-224429D01*
X791329D01*
X791420Y-224466D01*
X791547Y-224502D01*
X791730Y-224575D01*
X791930Y-224648D01*
X792130Y-224757D01*
X792349Y-224867D01*
X792568Y-225012D01*
X792586Y-225031D01*
X792659Y-225085D01*
X792768Y-225158D01*
X792896Y-225286D01*
X793041Y-225432D01*
X793187Y-225595D01*
X793333Y-225796D01*
X793461Y-226015D01*
X793479Y-226051D01*
X793515Y-226124D01*
X793570Y-226252D01*
X793624Y-226434D01*
X793679Y-226652D01*
X793734Y-226907D01*
X793770Y-227199D01*
X793788Y-227527D01*
Y-227563D01*
Y-227636D01*
X793770Y-227764D01*
X793752Y-227928D01*
X793734Y-228128D01*
X793679Y-228365D01*
X793624Y-228602D01*
X793533Y-228839D01*
X793515Y-228875D01*
X793497Y-228948D01*
X793424Y-229076D01*
X793351Y-229221D01*
X793242Y-229403D01*
X793114Y-229586D01*
X792950Y-229786D01*
X792768Y-229987D01*
X792750Y-230005D01*
X792677Y-230078D01*
X792568Y-230169D01*
X792422Y-230278D01*
X792221Y-230406D01*
X792003Y-230551D01*
X791748Y-230679D01*
X791456Y-230806D01*
X791420Y-230825D01*
X791311Y-230861D01*
X791147Y-230898D01*
X790910Y-230952D01*
X790636Y-231025D01*
X790308Y-231062D01*
X789926Y-231098D01*
X789525Y-231116D01*
X788213D01*
Y-234961D01*
X786756D01*
Y-224247D01*
X790053D01*
X790254Y-224266D01*
D02*
G37*
G36*
X744813Y-233776D02*
X747273D01*
Y-234961D01*
X740677Y-234961D01*
Y-233776D01*
X743374Y-233776D01*
Y-224539D01*
X740950Y-224539D01*
Y-223373D01*
X744813Y-223373D01*
Y-233776D01*
D02*
G37*
G36*
X660782Y-224266D02*
X661001Y-224284D01*
X661274Y-224320D01*
X661566Y-224393D01*
X661894Y-224466D01*
X662222Y-224575D01*
X662550Y-224703D01*
X662878Y-224885D01*
X663169Y-225085D01*
X663443Y-225341D01*
X663661Y-225650D01*
X663843Y-225996D01*
X663953Y-226397D01*
X663971Y-226616D01*
X663989Y-226853D01*
Y-226871D01*
Y-226889D01*
Y-226998D01*
X663971Y-227163D01*
X663935Y-227363D01*
X663880Y-227600D01*
X663807Y-227855D01*
X663716Y-228110D01*
X663570Y-228347D01*
X663552Y-228365D01*
X663497Y-228456D01*
X663388Y-228565D01*
X663260Y-228693D01*
X663078Y-228839D01*
X662841Y-229003D01*
X662568Y-229149D01*
X662240Y-229276D01*
X662258D01*
X662313Y-229294D01*
X662404Y-229312D01*
X662513Y-229331D01*
X662768Y-229422D01*
X663060Y-229549D01*
X663078D01*
X663133Y-229586D01*
X663206Y-229622D01*
X663297Y-229695D01*
X663515Y-229841D01*
X663734Y-230060D01*
X663752Y-230078D01*
X663789Y-230114D01*
X663843Y-230187D01*
X663898Y-230260D01*
X663971Y-230369D01*
X664044Y-230497D01*
X664190Y-230806D01*
Y-230825D01*
X664226Y-230879D01*
X664244Y-230970D01*
X664281Y-231080D01*
X664317Y-231225D01*
X664335Y-231389D01*
X664372Y-231754D01*
Y-231790D01*
Y-231881D01*
X664354Y-232027D01*
X664335Y-232228D01*
X664299Y-232428D01*
X664244Y-232665D01*
X664171Y-232902D01*
X664062Y-233139D01*
X664044Y-233157D01*
X664007Y-233230D01*
X663935Y-233339D01*
X663843Y-233485D01*
X663734Y-233631D01*
X663588Y-233813D01*
X663424Y-233977D01*
X663224Y-234141D01*
X663206Y-234159D01*
X663133Y-234214D01*
X663005Y-234286D01*
X662859Y-234359D01*
X662659Y-234469D01*
X662440Y-234578D01*
X662185Y-234669D01*
X661894Y-234760D01*
X661857D01*
X661766Y-234797D01*
X661602Y-234815D01*
X661402Y-234851D01*
X661147Y-234888D01*
X660855Y-234924D01*
X660527Y-234942D01*
X660181Y-234961D01*
X657430D01*
Y-224247D01*
X660600D01*
X660782Y-224266D01*
D02*
G37*
G36*
X817402Y-226725D02*
X821118D01*
Y-227928D01*
X817402D01*
Y-232118D01*
Y-232137D01*
Y-232155D01*
Y-232264D01*
X817420Y-232410D01*
X817456Y-232610D01*
X817511Y-232829D01*
X817602Y-233048D01*
X817711Y-233248D01*
X817875Y-233430D01*
X817894Y-233448D01*
X817966Y-233503D01*
X818076Y-233576D01*
X818221Y-233649D01*
X818422Y-233722D01*
X818659Y-233794D01*
X818932Y-233849D01*
X819260Y-233867D01*
X819515D01*
X819643Y-233849D01*
X819807D01*
X820135Y-233813D01*
X820153D01*
X820226Y-233794D01*
X820317D01*
X820444Y-233758D01*
X820590Y-233740D01*
X820754Y-233703D01*
X821118Y-233612D01*
Y-234851D01*
X821100D01*
X821027Y-234870D01*
X820936Y-234888D01*
X820809Y-234906D01*
X820645Y-234942D01*
X820481Y-234961D01*
X820098Y-235015D01*
X820007D01*
X819916Y-235033D01*
X819770D01*
X819624Y-235052D01*
X819442D01*
X819060Y-235070D01*
X818914D01*
X818804Y-235052D01*
X818677D01*
X818531Y-235033D01*
X818185Y-234979D01*
X817821Y-234906D01*
X817438Y-234778D01*
X817074Y-234614D01*
X816891Y-234505D01*
X816746Y-234378D01*
X816709Y-234341D01*
X816618Y-234250D01*
X816509Y-234086D01*
X816363Y-233849D01*
X816217Y-233539D01*
X816108Y-233175D01*
X816017Y-232738D01*
X815980Y-232228D01*
Y-227928D01*
X813685D01*
Y-226725D01*
X815980D01*
Y-224466D01*
X817402Y-224083D01*
Y-226725D01*
D02*
G37*
G36*
X688076Y-226725D02*
X691793D01*
Y-227928D01*
X688076D01*
Y-232118D01*
Y-232137D01*
Y-232155D01*
Y-232264D01*
X688094Y-232410D01*
X688131Y-232610D01*
X688185Y-232829D01*
X688276Y-233048D01*
X688386Y-233248D01*
X688550Y-233430D01*
X688568Y-233448D01*
X688641Y-233503D01*
X688750Y-233576D01*
X688896Y-233649D01*
X689096Y-233722D01*
X689333Y-233794D01*
X689607Y-233849D01*
X689934Y-233867D01*
X690190D01*
X690317Y-233849D01*
X690481D01*
X690809Y-233813D01*
X690827D01*
X690900Y-233794D01*
X690991D01*
X691119Y-233758D01*
X691264Y-233740D01*
X691429Y-233703D01*
X691793Y-233612D01*
Y-234851D01*
X691775D01*
X691702Y-234870D01*
X691611Y-234888D01*
X691483Y-234906D01*
X691319Y-234942D01*
X691155Y-234961D01*
X690773Y-235015D01*
X690682D01*
X690590Y-235033D01*
X690445D01*
X690299Y-235052D01*
X690117D01*
X689734Y-235070D01*
X689588D01*
X689479Y-235052D01*
X689351D01*
X689206Y-235033D01*
X688860Y-234979D01*
X688495Y-234906D01*
X688112Y-234778D01*
X687748Y-234614D01*
X687566Y-234505D01*
X687420Y-234378D01*
X687384Y-234341D01*
X687293Y-234250D01*
X687183Y-234086D01*
X687038Y-233849D01*
X686892Y-233540D01*
X686782Y-233175D01*
X686691Y-232738D01*
X686655Y-232228D01*
Y-227928D01*
X684359Y-227928D01*
Y-226725D01*
X686655Y-226725D01*
Y-224466D01*
X688076Y-224083D01*
Y-226725D01*
D02*
G37*
G36*
X678838Y-226725D02*
X682555D01*
Y-227928D01*
X678838D01*
Y-232118D01*
Y-232137D01*
Y-232155D01*
Y-232264D01*
X678857Y-232410D01*
X678893Y-232610D01*
X678948Y-232829D01*
X679039Y-233048D01*
X679148Y-233248D01*
X679312Y-233430D01*
X679330Y-233448D01*
X679403Y-233503D01*
X679513Y-233576D01*
X679658Y-233649D01*
X679859Y-233722D01*
X680096Y-233794D01*
X680369Y-233849D01*
X680697Y-233867D01*
X680952D01*
X681079Y-233849D01*
X681244D01*
X681571Y-233813D01*
X681590D01*
X681663Y-233794D01*
X681754D01*
X681881Y-233758D01*
X682027Y-233740D01*
X682191Y-233703D01*
X682555Y-233612D01*
Y-234851D01*
X682537D01*
X682464Y-234870D01*
X682373Y-234888D01*
X682246Y-234906D01*
X682082Y-234942D01*
X681918Y-234961D01*
X681535Y-235015D01*
X681444D01*
X681353Y-235033D01*
X681207D01*
X681061Y-235052D01*
X680879D01*
X680497Y-235070D01*
X680351D01*
X680241Y-235052D01*
X680114D01*
X679968Y-235033D01*
X679622Y-234979D01*
X679257Y-234906D01*
X678875Y-234778D01*
X678511Y-234614D01*
X678328Y-234505D01*
X678183Y-234378D01*
X678146Y-234341D01*
X678055Y-234250D01*
X677946Y-234086D01*
X677800Y-233849D01*
X677654Y-233540D01*
X677545Y-233175D01*
X677454Y-232738D01*
X677417Y-232228D01*
Y-227928D01*
X675122D01*
Y-226725D01*
X677417D01*
Y-224466D01*
X678838Y-224083D01*
Y-226725D01*
D02*
G37*
G36*
X827423Y-226598D02*
X827623Y-226616D01*
X827860Y-226652D01*
X828115Y-226689D01*
X828370Y-226762D01*
X828625Y-226853D01*
X828662Y-226871D01*
X828734Y-226907D01*
X828862Y-226962D01*
X829026Y-227053D01*
X829190Y-227162D01*
X829390Y-227290D01*
X829572Y-227454D01*
X829755Y-227636D01*
X829773Y-227654D01*
X829828Y-227727D01*
X829919Y-227837D01*
X830010Y-227964D01*
X830119Y-228146D01*
X830247Y-228347D01*
X830356Y-228584D01*
X830447Y-228839D01*
X830465Y-228875D01*
X830484Y-228966D01*
X830520Y-229112D01*
X830575Y-229294D01*
X830611Y-229531D01*
X830647Y-229786D01*
X830666Y-230078D01*
X830684Y-230406D01*
Y-230424D01*
Y-230460D01*
Y-230515D01*
Y-230588D01*
Y-230752D01*
X830666Y-230934D01*
Y-230970D01*
Y-231062D01*
Y-231171D01*
X830647Y-231298D01*
X824872D01*
Y-231317D01*
Y-231353D01*
Y-231426D01*
X824890Y-231499D01*
Y-231608D01*
X824908Y-231736D01*
X824963Y-232027D01*
X825036Y-232337D01*
X825163Y-232665D01*
X825327Y-232975D01*
X825564Y-233248D01*
X825601Y-233284D01*
X825692Y-233357D01*
X825856Y-233467D01*
X826093Y-233576D01*
X826384Y-233703D01*
X826730Y-233813D01*
X827131Y-233886D01*
X827605Y-233922D01*
X828060D01*
X828315Y-233904D01*
X828370D01*
X828443Y-233886D01*
X828534D01*
X828771Y-233849D01*
X829008Y-233831D01*
X829026D01*
X829062Y-233813D01*
X829135D01*
X829226Y-233794D01*
X829427Y-233758D01*
X829664Y-233722D01*
X829682D01*
X829718Y-233703D01*
X829773Y-233685D01*
X829846Y-233667D01*
X830046Y-233630D01*
X830247Y-233576D01*
Y-234742D01*
X830228D01*
X830137Y-234760D01*
X830028Y-234797D01*
X829864Y-234833D01*
X829664Y-234870D01*
X829445Y-234924D01*
X829190Y-234961D01*
X828917Y-234997D01*
X828880D01*
X828789Y-235015D01*
X828643Y-235033D01*
X828461Y-235052D01*
X828224Y-235070D01*
X827969Y-235088D01*
X827696Y-235106D01*
X827222D01*
X827022Y-235088D01*
X826785Y-235070D01*
X826493Y-235033D01*
X826184Y-234997D01*
X825874Y-234924D01*
X825582Y-234833D01*
X825546Y-234815D01*
X825455Y-234778D01*
X825309Y-234705D01*
X825145Y-234614D01*
X824945Y-234505D01*
X824726Y-234359D01*
X824526Y-234195D01*
X824325Y-233995D01*
X824307Y-233977D01*
X824252Y-233904D01*
X824161Y-233776D01*
X824052Y-233630D01*
X823924Y-233430D01*
X823815Y-233211D01*
X823687Y-232938D01*
X823596Y-232665D01*
Y-232647D01*
Y-232628D01*
X823560Y-232519D01*
X823524Y-232355D01*
X823487Y-232137D01*
X823451Y-231863D01*
X823414Y-231572D01*
X823396Y-231225D01*
X823378Y-230861D01*
Y-230843D01*
Y-230825D01*
Y-230715D01*
X823396Y-230551D01*
X823414Y-230333D01*
X823432Y-230096D01*
X823487Y-229823D01*
X823542Y-229531D01*
X823615Y-229240D01*
Y-229221D01*
X823633Y-229203D01*
X823669Y-229112D01*
X823724Y-228966D01*
X823797Y-228766D01*
X823906Y-228565D01*
X824034Y-228328D01*
X824179Y-228092D01*
X824343Y-227873D01*
X824362Y-227855D01*
X824434Y-227782D01*
X824544Y-227673D01*
X824671Y-227527D01*
X824854Y-227381D01*
X825054Y-227217D01*
X825273Y-227071D01*
X825528Y-226926D01*
X825564Y-226907D01*
X825655Y-226871D01*
X825801Y-226816D01*
X825983Y-226743D01*
X826220Y-226689D01*
X826493Y-226634D01*
X826785Y-226598D01*
X827113Y-226579D01*
X827259D01*
X827423Y-226598D01*
D02*
G37*
G36*
X762760Y-226598D02*
X762960Y-226616D01*
X763197Y-226652D01*
X763452Y-226689D01*
X763707Y-226762D01*
X763962Y-226853D01*
X763999Y-226871D01*
X764072Y-226907D01*
X764199Y-226962D01*
X764363Y-227053D01*
X764527Y-227162D01*
X764727Y-227290D01*
X764910Y-227454D01*
X765092Y-227636D01*
X765110Y-227654D01*
X765165Y-227727D01*
X765256Y-227837D01*
X765347Y-227964D01*
X765456Y-228146D01*
X765584Y-228347D01*
X765693Y-228584D01*
X765784Y-228839D01*
X765802Y-228875D01*
X765821Y-228966D01*
X765857Y-229112D01*
X765912Y-229294D01*
X765948Y-229531D01*
X765985Y-229786D01*
X766003Y-230078D01*
X766021Y-230406D01*
Y-230424D01*
Y-230460D01*
Y-230515D01*
Y-230588D01*
Y-230752D01*
X766003Y-230934D01*
Y-230970D01*
Y-231062D01*
Y-231171D01*
X765985Y-231298D01*
X760209D01*
Y-231317D01*
Y-231353D01*
Y-231426D01*
X760227Y-231499D01*
Y-231608D01*
X760245Y-231736D01*
X760300Y-232027D01*
X760373Y-232337D01*
X760500Y-232665D01*
X760665Y-232975D01*
X760901Y-233248D01*
X760938Y-233284D01*
X761029Y-233357D01*
X761193Y-233467D01*
X761430Y-233576D01*
X761721Y-233703D01*
X762067Y-233813D01*
X762468Y-233886D01*
X762942Y-233922D01*
X763398D01*
X763653Y-233904D01*
X763707D01*
X763780Y-233886D01*
X763871D01*
X764108Y-233849D01*
X764345Y-233831D01*
X764363D01*
X764400Y-233813D01*
X764472D01*
X764564Y-233794D01*
X764764Y-233758D01*
X765001Y-233722D01*
X765019D01*
X765056Y-233703D01*
X765110Y-233685D01*
X765183Y-233667D01*
X765383Y-233630D01*
X765584Y-233576D01*
Y-234742D01*
X765566D01*
X765475Y-234760D01*
X765365Y-234797D01*
X765201Y-234833D01*
X765001Y-234870D01*
X764782Y-234924D01*
X764527Y-234961D01*
X764254Y-234997D01*
X764217D01*
X764126Y-235015D01*
X763980Y-235033D01*
X763798Y-235052D01*
X763561Y-235070D01*
X763306Y-235088D01*
X763033Y-235106D01*
X762559D01*
X762359Y-235088D01*
X762122Y-235070D01*
X761831Y-235033D01*
X761521Y-234997D01*
X761211Y-234924D01*
X760920Y-234833D01*
X760883Y-234815D01*
X760792Y-234778D01*
X760646Y-234705D01*
X760482Y-234614D01*
X760282Y-234505D01*
X760063Y-234359D01*
X759863Y-234195D01*
X759662Y-233995D01*
X759644Y-233977D01*
X759589Y-233904D01*
X759498Y-233776D01*
X759389Y-233630D01*
X759262Y-233430D01*
X759152Y-233211D01*
X759025Y-232938D01*
X758934Y-232665D01*
Y-232647D01*
Y-232628D01*
X758897Y-232519D01*
X758861Y-232355D01*
X758824Y-232137D01*
X758788Y-231863D01*
X758751Y-231572D01*
X758733Y-231225D01*
X758715Y-230861D01*
Y-230843D01*
Y-230825D01*
Y-230715D01*
X758733Y-230551D01*
X758751Y-230333D01*
X758770Y-230096D01*
X758824Y-229823D01*
X758879Y-229531D01*
X758952Y-229240D01*
Y-229221D01*
X758970Y-229203D01*
X759007Y-229112D01*
X759061Y-228966D01*
X759134Y-228766D01*
X759243Y-228565D01*
X759371Y-228328D01*
X759517Y-228092D01*
X759681Y-227873D01*
X759699Y-227855D01*
X759772Y-227782D01*
X759881Y-227673D01*
X760009Y-227527D01*
X760191Y-227381D01*
X760391Y-227217D01*
X760610Y-227071D01*
X760865Y-226926D01*
X760901Y-226907D01*
X760992Y-226871D01*
X761138Y-226816D01*
X761320Y-226743D01*
X761557Y-226689D01*
X761831Y-226634D01*
X762122Y-226598D01*
X762450Y-226579D01*
X762596D01*
X762760Y-226598D01*
D02*
G37*
G36*
X735047Y-226598D02*
X735248Y-226616D01*
X735503Y-226652D01*
X735758Y-226707D01*
X736031Y-226780D01*
X736304Y-226871D01*
X736341Y-226889D01*
X736432Y-226926D01*
X736559Y-226980D01*
X736723Y-227071D01*
X736906Y-227181D01*
X737106Y-227326D01*
X737306Y-227490D01*
X737489Y-227673D01*
X737507Y-227691D01*
X737562Y-227764D01*
X737653Y-227873D01*
X737762Y-228037D01*
X737889Y-228219D01*
X738017Y-228456D01*
X738126Y-228711D01*
X738236Y-228984D01*
X738254Y-229021D01*
X738272Y-229130D01*
X738327Y-229294D01*
X738381Y-229495D01*
X738418Y-229768D01*
X738473Y-230078D01*
X738491Y-230424D01*
X738509Y-230788D01*
Y-230806D01*
Y-230825D01*
Y-230879D01*
Y-230952D01*
X738491Y-231134D01*
X738473Y-231371D01*
X738436Y-231645D01*
X738400Y-231936D01*
X738327Y-232246D01*
X738236Y-232556D01*
X738217Y-232592D01*
X738181Y-232683D01*
X738126Y-232829D01*
X738035Y-233011D01*
X737926Y-233230D01*
X737798Y-233467D01*
X737634Y-233703D01*
X737452Y-233922D01*
X737434Y-233940D01*
X737361Y-234013D01*
X737252Y-234122D01*
X737106Y-234250D01*
X736924Y-234378D01*
X736723Y-234523D01*
X736468Y-234669D01*
X736213Y-234797D01*
X736177Y-234815D01*
X736086Y-234851D01*
X735940Y-234888D01*
X735740Y-234942D01*
X735485Y-235015D01*
X735211Y-235052D01*
X734901Y-235088D01*
X734555Y-235106D01*
X734410D01*
X734227Y-235088D01*
X734027Y-235070D01*
X733772Y-235033D01*
X733498Y-234997D01*
X733225Y-234924D01*
X732952Y-234833D01*
X732915Y-234815D01*
X732843Y-234778D01*
X732715Y-234724D01*
X732551Y-234633D01*
X732351Y-234523D01*
X732168Y-234378D01*
X731968Y-234214D01*
X731768Y-234031D01*
X731749Y-234013D01*
X731695Y-233940D01*
X731604Y-233831D01*
X731494Y-233667D01*
X731385Y-233485D01*
X731257Y-233248D01*
X731148Y-232993D01*
X731039Y-232720D01*
Y-232701D01*
X731021Y-232683D01*
X731002Y-232574D01*
X730966Y-232410D01*
X730911Y-232191D01*
X730857Y-231918D01*
X730820Y-231608D01*
X730802Y-231262D01*
X730784Y-230898D01*
Y-230879D01*
Y-230861D01*
Y-230806D01*
Y-230734D01*
X730802Y-230551D01*
X730820Y-230333D01*
X730838Y-230059D01*
X730893Y-229768D01*
X730948Y-229458D01*
X731039Y-229167D01*
Y-229148D01*
X731057Y-229130D01*
X731093Y-229039D01*
X731148Y-228875D01*
X731239Y-228693D01*
X731349Y-228474D01*
X731494Y-228256D01*
X731640Y-228019D01*
X731822Y-227800D01*
X731840Y-227782D01*
X731913Y-227709D01*
X732023Y-227600D01*
X732168Y-227472D01*
X732351Y-227326D01*
X732569Y-227181D01*
X732806Y-227035D01*
X733061Y-226907D01*
X733098Y-226889D01*
X733189Y-226853D01*
X733334Y-226798D01*
X733535Y-226743D01*
X733790Y-226689D01*
X734063Y-226634D01*
X734373Y-226598D01*
X734719Y-226579D01*
X734865D01*
X735047Y-226598D01*
D02*
G37*
G36*
X698097D02*
X698297Y-226616D01*
X698553Y-226652D01*
X698808Y-226707D01*
X699081Y-226780D01*
X699354Y-226871D01*
X699391Y-226889D01*
X699482Y-226926D01*
X699609Y-226980D01*
X699773Y-227071D01*
X699956Y-227181D01*
X700156Y-227326D01*
X700356Y-227490D01*
X700538Y-227673D01*
X700557Y-227691D01*
X700611Y-227764D01*
X700702Y-227873D01*
X700812Y-228037D01*
X700939Y-228219D01*
X701067Y-228456D01*
X701176Y-228711D01*
X701286Y-228984D01*
X701304Y-229021D01*
X701322Y-229130D01*
X701377Y-229294D01*
X701431Y-229495D01*
X701468Y-229768D01*
X701522Y-230078D01*
X701541Y-230424D01*
X701559Y-230788D01*
Y-230806D01*
Y-230825D01*
Y-230879D01*
Y-230952D01*
X701541Y-231134D01*
X701522Y-231371D01*
X701486Y-231645D01*
X701449Y-231936D01*
X701377Y-232246D01*
X701286Y-232556D01*
X701267Y-232592D01*
X701231Y-232683D01*
X701176Y-232829D01*
X701085Y-233011D01*
X700976Y-233230D01*
X700848Y-233467D01*
X700684Y-233703D01*
X700502Y-233922D01*
X700484Y-233940D01*
X700411Y-234013D01*
X700302Y-234122D01*
X700156Y-234250D01*
X699974Y-234378D01*
X699773Y-234523D01*
X699518Y-234669D01*
X699263Y-234797D01*
X699227Y-234815D01*
X699135Y-234851D01*
X698990Y-234888D01*
X698789Y-234942D01*
X698534Y-235015D01*
X698261Y-235052D01*
X697951Y-235088D01*
X697605Y-235106D01*
X697459D01*
X697277Y-235088D01*
X697077Y-235070D01*
X696822Y-235033D01*
X696548Y-234997D01*
X696275Y-234924D01*
X696002Y-234833D01*
X695965Y-234815D01*
X695892Y-234778D01*
X695765Y-234724D01*
X695601Y-234633D01*
X695400Y-234523D01*
X695218Y-234378D01*
X695018Y-234214D01*
X694817Y-234031D01*
X694799Y-234013D01*
X694744Y-233940D01*
X694653Y-233831D01*
X694544Y-233667D01*
X694435Y-233485D01*
X694307Y-233248D01*
X694198Y-232993D01*
X694089Y-232720D01*
Y-232701D01*
X694070Y-232683D01*
X694052Y-232574D01*
X694016Y-232410D01*
X693961Y-232191D01*
X693906Y-231918D01*
X693870Y-231608D01*
X693852Y-231262D01*
X693833Y-230898D01*
Y-230879D01*
Y-230861D01*
Y-230806D01*
Y-230734D01*
X693852Y-230551D01*
X693870Y-230333D01*
X693888Y-230059D01*
X693943Y-229768D01*
X693997Y-229458D01*
X694089Y-229167D01*
Y-229148D01*
X694107Y-229130D01*
X694143Y-229039D01*
X694198Y-228875D01*
X694289Y-228693D01*
X694398Y-228474D01*
X694544Y-228256D01*
X694690Y-228019D01*
X694872Y-227800D01*
X694890Y-227782D01*
X694963Y-227709D01*
X695073Y-227600D01*
X695218Y-227472D01*
X695400Y-227326D01*
X695619Y-227181D01*
X695856Y-227035D01*
X696111Y-226907D01*
X696147Y-226889D01*
X696239Y-226853D01*
X696384Y-226798D01*
X696585Y-226743D01*
X696840Y-226689D01*
X697113Y-226634D01*
X697423Y-226598D01*
X697769Y-226579D01*
X697915D01*
X698097Y-226598D01*
D02*
G37*
G36*
X670384Y-226598D02*
X670585Y-226616D01*
X670840Y-226652D01*
X671095Y-226707D01*
X671368Y-226780D01*
X671642Y-226871D01*
X671678Y-226889D01*
X671769Y-226926D01*
X671897Y-226980D01*
X672061Y-227071D01*
X672243Y-227181D01*
X672443Y-227326D01*
X672644Y-227490D01*
X672826Y-227673D01*
X672844Y-227691D01*
X672899Y-227764D01*
X672990Y-227873D01*
X673099Y-228037D01*
X673227Y-228219D01*
X673354Y-228456D01*
X673464Y-228711D01*
X673573Y-228984D01*
X673591Y-229021D01*
X673609Y-229130D01*
X673664Y-229294D01*
X673719Y-229495D01*
X673755Y-229768D01*
X673810Y-230078D01*
X673828Y-230424D01*
X673846Y-230788D01*
Y-230806D01*
Y-230825D01*
Y-230879D01*
Y-230952D01*
X673828Y-231134D01*
X673810Y-231371D01*
X673773Y-231645D01*
X673737Y-231936D01*
X673664Y-232246D01*
X673573Y-232556D01*
X673555Y-232592D01*
X673518Y-232683D01*
X673464Y-232829D01*
X673373Y-233011D01*
X673263Y-233230D01*
X673136Y-233467D01*
X672972Y-233703D01*
X672789Y-233922D01*
X672771Y-233940D01*
X672698Y-234013D01*
X672589Y-234122D01*
X672443Y-234250D01*
X672261Y-234378D01*
X672061Y-234523D01*
X671806Y-234669D01*
X671551Y-234797D01*
X671514Y-234815D01*
X671423Y-234851D01*
X671277Y-234888D01*
X671077Y-234942D01*
X670822Y-235015D01*
X670548Y-235052D01*
X670239Y-235088D01*
X669893Y-235106D01*
X669747D01*
X669564Y-235088D01*
X669364Y-235070D01*
X669109Y-235033D01*
X668836Y-234997D01*
X668562Y-234924D01*
X668289Y-234833D01*
X668253Y-234815D01*
X668180Y-234778D01*
X668052Y-234724D01*
X667888Y-234633D01*
X667688Y-234523D01*
X667506Y-234378D01*
X667305Y-234214D01*
X667105Y-234031D01*
X667087Y-234013D01*
X667032Y-233940D01*
X666941Y-233831D01*
X666831Y-233667D01*
X666722Y-233485D01*
X666595Y-233248D01*
X666485Y-232993D01*
X666376Y-232720D01*
Y-232701D01*
X666358Y-232683D01*
X666339Y-232574D01*
X666303Y-232410D01*
X666248Y-232191D01*
X666194Y-231918D01*
X666157Y-231608D01*
X666139Y-231262D01*
X666121Y-230898D01*
Y-230879D01*
Y-230861D01*
Y-230806D01*
Y-230734D01*
X666139Y-230551D01*
X666157Y-230333D01*
X666176Y-230060D01*
X666230Y-229768D01*
X666285Y-229458D01*
X666376Y-229167D01*
Y-229149D01*
X666394Y-229130D01*
X666431Y-229039D01*
X666485Y-228875D01*
X666576Y-228693D01*
X666686Y-228474D01*
X666831Y-228256D01*
X666977Y-228019D01*
X667160Y-227800D01*
X667178Y-227782D01*
X667251Y-227709D01*
X667360Y-227600D01*
X667506Y-227472D01*
X667688Y-227326D01*
X667907Y-227181D01*
X668143Y-227035D01*
X668398Y-226907D01*
X668435Y-226889D01*
X668526Y-226853D01*
X668672Y-226798D01*
X668872Y-226743D01*
X669127Y-226689D01*
X669401Y-226634D01*
X669710Y-226598D01*
X670056Y-226579D01*
X670202D01*
X670384Y-226598D01*
D02*
G37*
%LPC*%
G36*
X753322Y-227818D02*
X753212D01*
X753121Y-227837D01*
X752921Y-227855D01*
X752666Y-227909D01*
X752356Y-228001D01*
X752065Y-228146D01*
X751773Y-228328D01*
X751500Y-228584D01*
X751482Y-228620D01*
X751409Y-228729D01*
X751354Y-228802D01*
X751299Y-228912D01*
X751245Y-229021D01*
X751190Y-229148D01*
X751117Y-229312D01*
X751063Y-229476D01*
X751008Y-229677D01*
X750972Y-229895D01*
X750917Y-230114D01*
X750899Y-230369D01*
X750862Y-230643D01*
Y-230934D01*
Y-230952D01*
Y-231007D01*
Y-231080D01*
Y-231171D01*
X750880Y-231298D01*
Y-231444D01*
X750917Y-231772D01*
X750972Y-232137D01*
X751044Y-232501D01*
X751154Y-232847D01*
X751299Y-233157D01*
X751318Y-233193D01*
X751372Y-233266D01*
X751482Y-233394D01*
X751627Y-233521D01*
X751791Y-233649D01*
X752010Y-233776D01*
X752247Y-233849D01*
X752538Y-233886D01*
X752630D01*
X752739Y-233867D01*
X752885Y-233831D01*
X753067Y-233776D01*
X753249Y-233685D01*
X753468Y-233576D01*
X753686Y-233412D01*
X753723Y-233394D01*
X753796Y-233321D01*
X753905Y-233211D01*
X754069Y-233048D01*
X754269Y-232847D01*
X754470Y-232592D01*
X754706Y-232300D01*
X754962Y-231973D01*
Y-228165D01*
X754943D01*
X754907Y-228128D01*
X754816Y-228110D01*
X754725Y-228074D01*
X754615Y-228037D01*
X754470Y-227982D01*
X754160Y-227909D01*
X754142D01*
X754087Y-227891D01*
X754014Y-227873D01*
X753905Y-227855D01*
X753777D01*
X753632Y-227837D01*
X753322Y-227818D01*
D02*
G37*
G36*
X801149Y-231207D02*
X799145Y-231207D01*
X799018Y-231225D01*
X798726Y-231244D01*
X798416Y-231317D01*
X798398D01*
X798362Y-231335D01*
X798289Y-231353D01*
X798198Y-231389D01*
X797979Y-231499D01*
X797779Y-231626D01*
X797760D01*
X797742Y-231663D01*
X797651Y-231754D01*
X797523Y-231918D01*
X797414Y-232100D01*
Y-232118D01*
X797396Y-232155D01*
X797378Y-232209D01*
X797360Y-232282D01*
X797323Y-232483D01*
X797305Y-232719D01*
Y-232738D01*
Y-232756D01*
X797323Y-232865D01*
X797341Y-233011D01*
X797378Y-233175D01*
Y-233193D01*
X797396Y-233211D01*
X797432Y-233303D01*
X797505Y-233430D01*
X797615Y-233576D01*
X797651Y-233594D01*
X797724Y-233667D01*
X797870Y-233758D01*
X798034Y-233831D01*
X798052D01*
X798088Y-233849D01*
X798143Y-233867D01*
X798216D01*
X798416Y-233904D01*
X798671Y-233922D01*
X798763D01*
X798854Y-233904D01*
X798999Y-233886D01*
X799163Y-233849D01*
X799364Y-233794D01*
X799564Y-233722D01*
X799801Y-233630D01*
X799837Y-233612D01*
X799910Y-233576D01*
X800038Y-233503D01*
X800202Y-233394D01*
X800402Y-233266D01*
X800639Y-233102D01*
X800894Y-232920D01*
X801149Y-232683D01*
Y-231207D01*
D02*
G37*
G36*
X789689Y-225468D02*
X788213D01*
Y-229877D01*
X789689D01*
X789780Y-229859D01*
X789889D01*
X790017Y-229841D01*
X790290Y-229804D01*
X790618Y-229731D01*
X790946Y-229640D01*
X791274Y-229495D01*
X791566Y-229312D01*
X791602Y-229294D01*
X791675Y-229203D01*
X791784Y-229076D01*
X791930Y-228893D01*
X792058Y-228638D01*
X792167Y-228347D01*
X792240Y-228001D01*
X792276Y-227600D01*
Y-227582D01*
Y-227563D01*
Y-227509D01*
X792258Y-227436D01*
X792240Y-227254D01*
X792185Y-227017D01*
X792112Y-226762D01*
X791985Y-226506D01*
X791821Y-226252D01*
X791584Y-226033D01*
X791547Y-226015D01*
X791456Y-225942D01*
X791311Y-225851D01*
X791092Y-225741D01*
X790819Y-225650D01*
X790509Y-225559D01*
X790126Y-225486D01*
X789689Y-225468D01*
D02*
G37*
G36*
X660600Y-225486D02*
X658888D01*
Y-228820D01*
X660509D01*
X660618Y-228802D01*
X660764D01*
X660910Y-228784D01*
X661220Y-228729D01*
X661238D01*
X661293Y-228711D01*
X661366Y-228675D01*
X661457Y-228638D01*
X661675Y-228547D01*
X661912Y-228401D01*
X661930Y-228383D01*
X661967Y-228365D01*
X662076Y-228256D01*
X662222Y-228074D01*
X662368Y-227855D01*
Y-227837D01*
X662386Y-227800D01*
X662422Y-227727D01*
X662459Y-227618D01*
X662477Y-227509D01*
X662513Y-227363D01*
X662532Y-227053D01*
Y-227035D01*
Y-226998D01*
Y-226944D01*
X662513Y-226853D01*
X662495Y-226671D01*
X662422Y-226452D01*
Y-226434D01*
X662404Y-226397D01*
X662386Y-226343D01*
X662349Y-226288D01*
X662240Y-226124D01*
X662076Y-225960D01*
X662058Y-225942D01*
X662040Y-225923D01*
X661985Y-225887D01*
X661912Y-225832D01*
X661821Y-225778D01*
X661693Y-225723D01*
X661566Y-225668D01*
X661420Y-225614D01*
X661402D01*
X661347Y-225596D01*
X661256Y-225577D01*
X661129Y-225541D01*
X660983Y-225523D01*
X660801Y-225504D01*
X660600Y-225486D01*
D02*
G37*
G36*
X660582Y-230041D02*
X658888D01*
Y-233722D01*
X660618D01*
X660728Y-233703D01*
X660855D01*
X661129Y-233667D01*
X661438Y-233612D01*
X661748Y-233521D01*
X662040Y-233412D01*
X662295Y-233266D01*
X662313Y-233248D01*
X662386Y-233175D01*
X662495Y-233066D01*
X662604Y-232902D01*
X662714Y-232701D01*
X662823Y-232446D01*
X662896Y-232155D01*
X662914Y-231809D01*
Y-231790D01*
Y-231736D01*
Y-231663D01*
X662896Y-231572D01*
X662841Y-231335D01*
X662732Y-231080D01*
Y-231062D01*
X662696Y-231025D01*
X662659Y-230970D01*
X662604Y-230879D01*
X662459Y-230715D01*
X662240Y-230533D01*
X662222Y-230515D01*
X662185Y-230497D01*
X662113Y-230442D01*
X662021Y-230406D01*
X661894Y-230333D01*
X661766Y-230278D01*
X661438Y-230169D01*
X661420D01*
X661347Y-230151D01*
X661256Y-230132D01*
X661129Y-230096D01*
X660965Y-230078D01*
X660782Y-230060D01*
X660582Y-230041D01*
D02*
G37*
G36*
X827240Y-227727D02*
X826876D01*
X826767Y-227746D01*
X826639Y-227764D01*
X826493Y-227800D01*
X826184Y-227909D01*
X826165D01*
X826129Y-227946D01*
X826056Y-227982D01*
X825965Y-228037D01*
X825746Y-228201D01*
X825528Y-228420D01*
X825509Y-228438D01*
X825491Y-228474D01*
X825437Y-228547D01*
X825364Y-228638D01*
X825291Y-228748D01*
X825218Y-228893D01*
X825072Y-229203D01*
Y-229221D01*
X825054Y-229276D01*
X825018Y-229367D01*
X824981Y-229495D01*
X824945Y-229640D01*
X824926Y-229823D01*
X824872Y-230205D01*
X829208D01*
Y-230187D01*
Y-230114D01*
Y-230005D01*
Y-229877D01*
X829190Y-229731D01*
X829172Y-229568D01*
X829081Y-229221D01*
Y-229203D01*
X829062Y-229148D01*
X829026Y-229057D01*
X828990Y-228948D01*
X828862Y-228693D01*
X828680Y-228438D01*
X828662Y-228420D01*
X828625Y-228383D01*
X828570Y-228328D01*
X828498Y-228256D01*
X828388Y-228165D01*
X828279Y-228092D01*
X827987Y-227928D01*
X827969Y-227909D01*
X827915Y-227891D01*
X827823Y-227855D01*
X827714Y-227818D01*
X827586Y-227782D01*
X827423Y-227764D01*
X827240Y-227727D01*
D02*
G37*
G36*
X762578Y-227727D02*
X762213D01*
X762104Y-227746D01*
X761976Y-227764D01*
X761831Y-227800D01*
X761521Y-227909D01*
X761503D01*
X761466Y-227946D01*
X761393Y-227982D01*
X761302Y-228037D01*
X761084Y-228201D01*
X760865Y-228420D01*
X760847Y-228438D01*
X760828Y-228474D01*
X760774Y-228547D01*
X760701Y-228638D01*
X760628Y-228748D01*
X760555Y-228893D01*
X760409Y-229203D01*
Y-229221D01*
X760391Y-229276D01*
X760355Y-229367D01*
X760318Y-229495D01*
X760282Y-229640D01*
X760264Y-229823D01*
X760209Y-230205D01*
X764545D01*
Y-230187D01*
Y-230114D01*
Y-230005D01*
Y-229877D01*
X764527Y-229731D01*
X764509Y-229568D01*
X764418Y-229221D01*
Y-229203D01*
X764400Y-229148D01*
X764363Y-229057D01*
X764327Y-228948D01*
X764199Y-228693D01*
X764017Y-228438D01*
X763999Y-228420D01*
X763962Y-228383D01*
X763908Y-228328D01*
X763835Y-228256D01*
X763726Y-228165D01*
X763616Y-228092D01*
X763325Y-227928D01*
X763306Y-227909D01*
X763252Y-227891D01*
X763161Y-227855D01*
X763051Y-227818D01*
X762924Y-227782D01*
X762760Y-227764D01*
X762578Y-227727D01*
D02*
G37*
G36*
X734847Y-227800D02*
X734537D01*
X734410Y-227818D01*
X734264Y-227837D01*
X734082Y-227855D01*
X733899Y-227909D01*
X733717Y-227964D01*
X733535Y-228055D01*
X733517Y-228074D01*
X733462Y-228110D01*
X733371Y-228165D01*
X733280Y-228237D01*
X733152Y-228328D01*
X733025Y-228438D01*
X732788Y-228729D01*
X732770Y-228748D01*
X732733Y-228802D01*
X732697Y-228893D01*
X732624Y-229003D01*
X732551Y-229148D01*
X732496Y-229312D01*
X732423Y-229495D01*
X732369Y-229695D01*
Y-229713D01*
X732351Y-229786D01*
X732332Y-229895D01*
X732314Y-230041D01*
X732278Y-230223D01*
X732260Y-230424D01*
X732241Y-230861D01*
Y-230898D01*
Y-230989D01*
X732260Y-231134D01*
Y-231317D01*
X732278Y-231517D01*
X732314Y-231754D01*
X732405Y-232209D01*
Y-232228D01*
X732442Y-232300D01*
X732478Y-232410D01*
X732533Y-232537D01*
X732679Y-232847D01*
X732879Y-233157D01*
X732897Y-233175D01*
X732934Y-233211D01*
X733006Y-233284D01*
X733098Y-233357D01*
X733207Y-233448D01*
X733334Y-233540D01*
X733626Y-233722D01*
X733644D01*
X733699Y-233758D01*
X733808Y-233776D01*
X733918Y-233813D01*
X734082Y-233849D01*
X734245Y-233867D01*
X734446Y-233904D01*
X734756D01*
X734865Y-233886D01*
X735029Y-233867D01*
X735193Y-233849D01*
X735375Y-233794D01*
X735557Y-233740D01*
X735740Y-233667D01*
X735758Y-233649D01*
X735812Y-233612D01*
X735904Y-233558D01*
X736013Y-233485D01*
X736122Y-233394D01*
X736250Y-233266D01*
X736486Y-232993D01*
X736505Y-232975D01*
X736541Y-232920D01*
X736578Y-232829D01*
X736651Y-232720D01*
X736723Y-232574D01*
X736778Y-232410D01*
X736851Y-232228D01*
X736906Y-232027D01*
Y-232009D01*
X736924Y-231936D01*
X736960Y-231809D01*
X736978Y-231663D01*
X737015Y-231499D01*
X737033Y-231298D01*
X737051Y-230861D01*
Y-230825D01*
Y-230734D01*
Y-230588D01*
X737033Y-230406D01*
X737015Y-230205D01*
X736978Y-229968D01*
X736924Y-229750D01*
X736869Y-229531D01*
Y-229513D01*
X736833Y-229440D01*
X736796Y-229331D01*
X736742Y-229185D01*
X736596Y-228893D01*
X736505Y-228729D01*
X736395Y-228584D01*
X736377Y-228565D01*
X736341Y-228529D01*
X736268Y-228456D01*
X736177Y-228365D01*
X736067Y-228274D01*
X735940Y-228183D01*
X735630Y-228001D01*
X735612Y-227982D01*
X735557Y-227964D01*
X735466Y-227928D01*
X735339Y-227891D01*
X735193Y-227855D01*
X735029Y-227837D01*
X734847Y-227800D01*
D02*
G37*
G36*
X697897D02*
X697587D01*
X697459Y-227818D01*
X697314Y-227837D01*
X697131Y-227855D01*
X696949Y-227909D01*
X696767Y-227964D01*
X696585Y-228055D01*
X696566Y-228074D01*
X696512Y-228110D01*
X696421Y-228165D01*
X696330Y-228237D01*
X696202Y-228328D01*
X696075Y-228438D01*
X695838Y-228729D01*
X695820Y-228748D01*
X695783Y-228802D01*
X695747Y-228893D01*
X695674Y-229003D01*
X695601Y-229148D01*
X695546Y-229312D01*
X695473Y-229495D01*
X695419Y-229695D01*
Y-229713D01*
X695400Y-229786D01*
X695382Y-229895D01*
X695364Y-230041D01*
X695328Y-230223D01*
X695309Y-230424D01*
X695291Y-230861D01*
Y-230898D01*
Y-230989D01*
X695309Y-231134D01*
Y-231317D01*
X695328Y-231517D01*
X695364Y-231754D01*
X695455Y-232209D01*
Y-232228D01*
X695492Y-232300D01*
X695528Y-232410D01*
X695583Y-232537D01*
X695728Y-232847D01*
X695929Y-233157D01*
X695947Y-233175D01*
X695984Y-233211D01*
X696056Y-233284D01*
X696147Y-233357D01*
X696257Y-233448D01*
X696384Y-233540D01*
X696676Y-233722D01*
X696694D01*
X696749Y-233758D01*
X696858Y-233776D01*
X696967Y-233813D01*
X697131Y-233849D01*
X697295Y-233867D01*
X697496Y-233904D01*
X697806D01*
X697915Y-233886D01*
X698079Y-233867D01*
X698243Y-233849D01*
X698425Y-233794D01*
X698607Y-233740D01*
X698789Y-233667D01*
X698808Y-233649D01*
X698862Y-233612D01*
X698953Y-233558D01*
X699063Y-233485D01*
X699172Y-233394D01*
X699299Y-233266D01*
X699536Y-232993D01*
X699555Y-232975D01*
X699591Y-232920D01*
X699627Y-232829D01*
X699700Y-232720D01*
X699773Y-232574D01*
X699828Y-232410D01*
X699901Y-232228D01*
X699956Y-232027D01*
Y-232009D01*
X699974Y-231936D01*
X700010Y-231809D01*
X700028Y-231663D01*
X700065Y-231499D01*
X700083Y-231298D01*
X700101Y-230861D01*
Y-230825D01*
Y-230734D01*
Y-230588D01*
X700083Y-230406D01*
X700065Y-230205D01*
X700028Y-229968D01*
X699974Y-229750D01*
X699919Y-229531D01*
Y-229513D01*
X699883Y-229440D01*
X699846Y-229331D01*
X699791Y-229185D01*
X699646Y-228893D01*
X699555Y-228729D01*
X699445Y-228584D01*
X699427Y-228565D01*
X699391Y-228529D01*
X699318Y-228456D01*
X699227Y-228365D01*
X699117Y-228274D01*
X698990Y-228183D01*
X698680Y-228001D01*
X698662Y-227982D01*
X698607Y-227964D01*
X698516Y-227928D01*
X698388Y-227891D01*
X698243Y-227855D01*
X698079Y-227837D01*
X697897Y-227800D01*
D02*
G37*
G36*
X670184Y-227800D02*
X669874D01*
X669747Y-227818D01*
X669601Y-227837D01*
X669419Y-227855D01*
X669237Y-227909D01*
X669054Y-227964D01*
X668872Y-228055D01*
X668854Y-228074D01*
X668799Y-228110D01*
X668708Y-228165D01*
X668617Y-228237D01*
X668490Y-228328D01*
X668362Y-228438D01*
X668125Y-228729D01*
X668107Y-228748D01*
X668070Y-228802D01*
X668034Y-228893D01*
X667961Y-229003D01*
X667888Y-229149D01*
X667834Y-229312D01*
X667761Y-229495D01*
X667706Y-229695D01*
Y-229713D01*
X667688Y-229786D01*
X667670Y-229895D01*
X667651Y-230041D01*
X667615Y-230223D01*
X667597Y-230424D01*
X667579Y-230861D01*
Y-230898D01*
Y-230989D01*
X667597Y-231134D01*
Y-231317D01*
X667615Y-231517D01*
X667651Y-231754D01*
X667742Y-232209D01*
Y-232228D01*
X667779Y-232300D01*
X667815Y-232410D01*
X667870Y-232537D01*
X668016Y-232847D01*
X668216Y-233157D01*
X668234Y-233175D01*
X668271Y-233211D01*
X668344Y-233284D01*
X668435Y-233357D01*
X668544Y-233448D01*
X668672Y-233540D01*
X668963Y-233722D01*
X668982D01*
X669036Y-233758D01*
X669145Y-233776D01*
X669255Y-233813D01*
X669419Y-233849D01*
X669583Y-233867D01*
X669783Y-233904D01*
X670093D01*
X670202Y-233886D01*
X670366Y-233867D01*
X670530Y-233849D01*
X670712Y-233794D01*
X670894Y-233740D01*
X671077Y-233667D01*
X671095Y-233649D01*
X671150Y-233612D01*
X671241Y-233558D01*
X671350Y-233485D01*
X671459Y-233394D01*
X671587Y-233266D01*
X671824Y-232993D01*
X671842Y-232975D01*
X671878Y-232920D01*
X671915Y-232829D01*
X671988Y-232720D01*
X672061Y-232574D01*
X672115Y-232410D01*
X672188Y-232228D01*
X672243Y-232027D01*
Y-232009D01*
X672261Y-231936D01*
X672297Y-231809D01*
X672316Y-231663D01*
X672352Y-231499D01*
X672370Y-231298D01*
X672389Y-230861D01*
Y-230825D01*
Y-230734D01*
Y-230588D01*
X672370Y-230406D01*
X672352Y-230205D01*
X672316Y-229968D01*
X672261Y-229750D01*
X672206Y-229531D01*
Y-229513D01*
X672170Y-229440D01*
X672133Y-229331D01*
X672079Y-229185D01*
X671933Y-228893D01*
X671842Y-228729D01*
X671733Y-228584D01*
X671714Y-228565D01*
X671678Y-228529D01*
X671605Y-228456D01*
X671514Y-228365D01*
X671405Y-228274D01*
X671277Y-228183D01*
X670967Y-228001D01*
X670949Y-227982D01*
X670894Y-227964D01*
X670803Y-227928D01*
X670676Y-227891D01*
X670530Y-227855D01*
X670366Y-227837D01*
X670184Y-227800D01*
D02*
G37*
%LPD*%
D42*
X387008Y86614D02*
D03*
Y43307D02*
D03*
Y0D02*
D03*
Y-43307D02*
D03*
Y-86614D02*
D03*
M02*
