G04 Layer_Physical_Order=1*
G04 Layer_Color=255*
%FSLAX25Y25*%
%MOIN*%
G70*
G01*
G75*
%ADD10R,0.04134X0.05315*%
%ADD11R,0.13386X0.10827*%
%ADD12R,0.10827X0.13386*%
%ADD13C,0.10000*%
%ADD14C,0.02500*%
%ADD15C,0.30000*%
%ADD16C,0.03937*%
%ADD17C,0.07000*%
%ADD18C,0.04724*%
%ADD19R,0.04724X0.04724*%
%ADD20R,0.05905X0.05905*%
%ADD21C,0.05905*%
%ADD22C,0.05000*%
G36*
X698802Y-226440D02*
X698893D01*
X699021Y-226459D01*
X699312Y-226532D01*
X699622Y-226623D01*
X699932Y-226768D01*
X700242Y-226987D01*
X700387Y-227115D01*
X700515Y-227260D01*
X700551Y-227297D01*
X700570Y-227351D01*
X700624Y-227406D01*
X700661Y-227497D01*
X700715Y-227606D01*
X700788Y-227734D01*
X700843Y-227880D01*
X700898Y-228044D01*
X700952Y-228208D01*
X701007Y-228408D01*
X701061Y-228627D01*
X701098Y-228882D01*
X701116Y-229137D01*
X701134Y-229410D01*
Y-229702D01*
X699695D01*
Y-229683D01*
Y-229647D01*
Y-229592D01*
Y-229520D01*
X699677Y-229337D01*
X699659Y-229119D01*
X699622Y-228864D01*
X699568Y-228608D01*
X699476Y-228354D01*
X699367Y-228153D01*
X699349Y-228135D01*
X699312Y-228080D01*
X699221Y-227989D01*
X699112Y-227898D01*
X698966Y-227825D01*
X698802Y-227734D01*
X698602Y-227679D01*
X698365Y-227661D01*
X698256D01*
X698201Y-227679D01*
X698019Y-227697D01*
X697800Y-227770D01*
X697782D01*
X697746Y-227789D01*
X697691Y-227807D01*
X697618Y-227843D01*
X697418Y-227953D01*
X697199Y-228098D01*
X697181Y-228117D01*
X697144Y-228135D01*
X697090Y-228189D01*
X696999Y-228244D01*
X696798Y-228445D01*
X696543Y-228681D01*
X696525Y-228700D01*
X696488Y-228736D01*
X696415Y-228809D01*
X696324Y-228918D01*
X696215Y-229046D01*
X696088Y-229173D01*
X695960Y-229337D01*
X695814Y-229520D01*
Y-234803D01*
X694375D01*
Y-226568D01*
X695668D01*
X695705Y-228098D01*
Y-228080D01*
X695741Y-228062D01*
X695832Y-227953D01*
X695978Y-227807D01*
X696160Y-227606D01*
X696379Y-227406D01*
X696616Y-227187D01*
X696871Y-226987D01*
X697144Y-226823D01*
X697181Y-226805D01*
X697272Y-226768D01*
X697399Y-226695D01*
X697600Y-226623D01*
X697800Y-226550D01*
X698055Y-226477D01*
X698310Y-226440D01*
X698584Y-226422D01*
X698711D01*
X698802Y-226440D01*
D02*
G37*
G36*
X311024Y-141338D02*
X310656Y-141678D01*
X310070Y-141631D01*
X307591Y-141827D01*
X305172Y-142407D01*
X302875Y-143359D01*
X300754Y-144658D01*
X298863Y-146274D01*
X297248Y-148165D01*
X295949Y-150285D01*
X294997Y-152583D01*
X294416Y-155001D01*
X294221Y-157480D01*
X294416Y-159960D01*
X294997Y-162378D01*
X295949Y-164675D01*
X297248Y-166796D01*
X298863Y-168687D01*
X300754Y-170302D01*
X301532Y-170779D01*
X301396Y-171260D01*
X256610D01*
Y-164427D01*
X256654Y-164344D01*
X257088Y-162911D01*
X257235Y-161421D01*
X257088Y-159931D01*
X256654Y-158499D01*
X256610Y-158416D01*
Y-78748D01*
X257154Y-77730D01*
X257589Y-76297D01*
X257735Y-74807D01*
X257589Y-73317D01*
X257154Y-71885D01*
X256610Y-70866D01*
Y-1969D01*
X311024D01*
Y-141338D01*
D02*
G37*
G36*
X762190Y-224108D02*
X762427Y-224126D01*
X762682Y-224163D01*
X763228Y-224272D01*
X763265D01*
X763356Y-224309D01*
X763483Y-224345D01*
X763665Y-224418D01*
X763866Y-224491D01*
X764066Y-224600D01*
X764285Y-224710D01*
X764504Y-224855D01*
X764522Y-224873D01*
X764595Y-224928D01*
X764704Y-225001D01*
X764831Y-225129D01*
X764977Y-225274D01*
X765123Y-225438D01*
X765269Y-225639D01*
X765396Y-225857D01*
X765415Y-225894D01*
X765451Y-225967D01*
X765506Y-226094D01*
X765560Y-226276D01*
X765615Y-226495D01*
X765670Y-226750D01*
X765706Y-227042D01*
X765724Y-227370D01*
Y-227406D01*
Y-227479D01*
X765706Y-227606D01*
X765688Y-227770D01*
X765670Y-227971D01*
X765615Y-228208D01*
X765560Y-228445D01*
X765469Y-228681D01*
X765451Y-228718D01*
X765433Y-228791D01*
X765360Y-228918D01*
X765287Y-229064D01*
X765178Y-229246D01*
X765050Y-229428D01*
X764886Y-229629D01*
X764704Y-229829D01*
X764686Y-229848D01*
X764613Y-229920D01*
X764504Y-230012D01*
X764358Y-230121D01*
X764157Y-230248D01*
X763939Y-230394D01*
X763684Y-230522D01*
X763392Y-230649D01*
X763356Y-230667D01*
X763246Y-230704D01*
X763082Y-230740D01*
X762846Y-230795D01*
X762572Y-230868D01*
X762244Y-230904D01*
X761862Y-230941D01*
X761461Y-230959D01*
X760149D01*
Y-234803D01*
X758691D01*
Y-224090D01*
X761989D01*
X762190Y-224108D01*
D02*
G37*
G36*
X680090Y-233929D02*
Y-233947D01*
X680072Y-233983D01*
X680054Y-234038D01*
X680018Y-234111D01*
X679926Y-234330D01*
X679817Y-234585D01*
X679671Y-234876D01*
X679526Y-235204D01*
X679361Y-235532D01*
X679179Y-235842D01*
X679161Y-235878D01*
X679107Y-235969D01*
X679015Y-236133D01*
X678888Y-236316D01*
X678742Y-236534D01*
X678560Y-236753D01*
X678378Y-236971D01*
X678177Y-237190D01*
X678159Y-237208D01*
X678086Y-237281D01*
X677977Y-237372D01*
X677831Y-237482D01*
X677649Y-237609D01*
X677448Y-237737D01*
X677212Y-237846D01*
X676975Y-237955D01*
X676938Y-237974D01*
X676865Y-237992D01*
X676720Y-238028D01*
X676537Y-238083D01*
X676319Y-238138D01*
X676082Y-238174D01*
X675790Y-238192D01*
X675499Y-238211D01*
X675244D01*
X675098Y-238192D01*
X674879D01*
X674734Y-238174D01*
Y-236880D01*
X674770D01*
X674843Y-236899D01*
X674970D01*
X675116Y-236917D01*
X675153D01*
X675262Y-236935D01*
X675408Y-236953D01*
X675717D01*
X675809Y-236935D01*
X676064Y-236899D01*
X676319Y-236826D01*
X676337D01*
X676373Y-236807D01*
X676446Y-236771D01*
X676537Y-236735D01*
X676738Y-236625D01*
X676957Y-236461D01*
X676975Y-236443D01*
X677011Y-236407D01*
X677066Y-236352D01*
X677139Y-236279D01*
X677230Y-236188D01*
X677339Y-236061D01*
X677539Y-235787D01*
X677558Y-235769D01*
X677594Y-235714D01*
X677649Y-235623D01*
X677722Y-235514D01*
X677795Y-235368D01*
X677886Y-235186D01*
X677995Y-235004D01*
X678086Y-234803D01*
X674806Y-226568D01*
X676428D01*
X678505Y-232034D01*
X678924Y-233309D01*
X679398Y-231997D01*
X681329Y-226568D01*
X682896D01*
X680090Y-233929D01*
D02*
G37*
G36*
X39370Y-7364D02*
X38870Y-7469D01*
X37998Y-6407D01*
X36841Y-5457D01*
X35521Y-4752D01*
X34088Y-4317D01*
X32598Y-4170D01*
X31109Y-4317D01*
X29676Y-4752D01*
X28356Y-5457D01*
X27198Y-6407D01*
X26249Y-7564D01*
X25543Y-8885D01*
X25108Y-10317D01*
X24962Y-11807D01*
X25108Y-13297D01*
X25543Y-14730D01*
X26249Y-16050D01*
X27198Y-17207D01*
X28356Y-18157D01*
X29676Y-18862D01*
X31109Y-19297D01*
X32598Y-19444D01*
X34088Y-19297D01*
X35521Y-18862D01*
X36841Y-18157D01*
X37998Y-17207D01*
X38870Y-16145D01*
X39370Y-16250D01*
Y-84646D01*
X-9162D01*
X-9457Y-84261D01*
X-9721Y-84058D01*
Y-30115D01*
X-9457Y-29913D01*
X-8929Y-29223D01*
X-8596Y-28420D01*
X-8483Y-27559D01*
X-8596Y-26698D01*
X-8929Y-25895D01*
X-9457Y-25205D01*
X-9721Y-25003D01*
Y-1969D01*
X39370D01*
Y-7364D01*
D02*
G37*
G36*
X-30696Y7480D02*
X-30630Y7008D01*
X-30630Y6980D01*
Y4437D01*
X-24488D01*
Y6980D01*
X-24422Y7480D01*
X-20129D01*
X-20096Y6980D01*
X-20487Y6929D01*
X-21234Y6619D01*
X-21875Y6127D01*
X-22367Y5486D01*
X-22677Y4739D01*
X-22717Y4437D01*
X-16654D01*
X-16693Y4739D01*
X-17003Y5486D01*
X-17495Y6127D01*
X-18136Y6619D01*
X-18883Y6929D01*
X-19274Y6980D01*
X-19242Y7480D01*
X-13901D01*
Y-25003D01*
X-14165Y-25205D01*
X-14694Y-25895D01*
X-15026Y-26698D01*
X-15139Y-27559D01*
X-15026Y-28420D01*
X-14694Y-29223D01*
X-14165Y-29913D01*
X-13901Y-30115D01*
Y-84058D01*
X-14165Y-84261D01*
X-14694Y-84950D01*
X-15026Y-85753D01*
X-15139Y-86614D01*
X-15026Y-87476D01*
X-14694Y-88278D01*
X-14165Y-88968D01*
X-13475Y-89497D01*
X-12673Y-89829D01*
X-11811Y-89943D01*
X-10950Y-89829D01*
X-10147Y-89497D01*
X-9457Y-88968D01*
X-9162Y-88583D01*
X39370Y-88583D01*
Y-94843D01*
X38870Y-94968D01*
X38448Y-94178D01*
X37498Y-93021D01*
X36341Y-92071D01*
X35021Y-91366D01*
X33588Y-90931D01*
X32098Y-90785D01*
X30609Y-90931D01*
X29176Y-91366D01*
X27856Y-92071D01*
X26698Y-93021D01*
X25749Y-94178D01*
X25043Y-95499D01*
X24608Y-96931D01*
X24462Y-98421D01*
X24608Y-99911D01*
X25043Y-101344D01*
X25749Y-102664D01*
X26698Y-103821D01*
X27856Y-104771D01*
X29176Y-105477D01*
X30609Y-105911D01*
X32098Y-106058D01*
X33588Y-105911D01*
X35021Y-105477D01*
X36341Y-104771D01*
X37498Y-103821D01*
X38448Y-102664D01*
X38870Y-101875D01*
X39370Y-102000D01*
Y-171260D01*
X-19196Y-171260D01*
X-19332Y-170779D01*
X-18554Y-170302D01*
X-16663Y-168687D01*
X-15048Y-166796D01*
X-13749Y-164675D01*
X-12797Y-162378D01*
X-12216Y-159960D01*
X-12021Y-157480D01*
X-12216Y-155001D01*
X-12797Y-152583D01*
X-13749Y-150285D01*
X-15048Y-148165D01*
X-16663Y-146274D01*
X-18554Y-144658D01*
X-20675Y-143359D01*
X-22973Y-142407D01*
X-25391Y-141827D01*
X-27870Y-141631D01*
X-30349Y-141827D01*
X-32768Y-142407D01*
X-35065Y-143359D01*
X-37186Y-144658D01*
X-39077Y-146274D01*
X-40692Y-148165D01*
X-40857Y-148434D01*
X-41339Y-148299D01*
X-41339Y7480D01*
X-30696D01*
D02*
G37*
G36*
X301532Y170779D02*
X300754Y170302D01*
X298863Y168687D01*
X297248Y166796D01*
X295949Y164675D01*
X294997Y162378D01*
X294416Y159960D01*
X294221Y157480D01*
X294416Y155001D01*
X294997Y152583D01*
X295949Y150285D01*
X297248Y148165D01*
X298863Y146274D01*
X300754Y144658D01*
X302875Y143359D01*
X305172Y142407D01*
X307591Y141827D01*
X310070Y141631D01*
X310656Y141678D01*
X311024Y141338D01*
Y1969D01*
X143701D01*
Y108571D01*
X144086Y108867D01*
X144615Y109556D01*
X144947Y110359D01*
X145061Y111221D01*
X144947Y112082D01*
X144615Y112885D01*
X144086Y113574D01*
X143822Y113776D01*
Y126464D01*
X144599D01*
Y133379D01*
X143701D01*
Y171260D01*
X301396D01*
X301532Y170779D01*
D02*
G37*
G36*
X139764Y1969D02*
X-9721D01*
Y84646D01*
X139764D01*
Y1969D01*
D02*
G37*
G36*
X747450Y-225329D02*
X744279D01*
Y-234803D01*
X742804D01*
Y-225329D01*
X739633D01*
Y-224090D01*
X747450D01*
Y-225329D01*
D02*
G37*
G36*
X753225Y-223944D02*
X753462Y-223981D01*
X753754Y-224017D01*
X754045Y-224090D01*
X754355Y-224181D01*
X754647Y-224309D01*
X754683Y-224327D01*
X754774Y-224381D01*
X754920Y-224473D01*
X755102Y-224582D01*
X755302Y-224746D01*
X755503Y-224928D01*
X755722Y-225147D01*
X755922Y-225402D01*
X755940Y-225438D01*
X756013Y-225529D01*
X756104Y-225675D01*
X756214Y-225875D01*
X756341Y-226131D01*
X756469Y-226422D01*
X756578Y-226750D01*
X756687Y-227115D01*
Y-227133D01*
X756705Y-227151D01*
Y-227206D01*
X756724Y-227297D01*
X756742Y-227388D01*
X756760Y-227497D01*
X756815Y-227770D01*
X756869Y-228098D01*
X756906Y-228481D01*
X756924Y-228918D01*
X756942Y-229374D01*
Y-229392D01*
Y-229428D01*
Y-229520D01*
Y-229611D01*
X756924Y-229738D01*
Y-229884D01*
X756906Y-230230D01*
X756851Y-230613D01*
X756797Y-231032D01*
X756705Y-231451D01*
X756596Y-231870D01*
Y-231888D01*
X756578Y-231925D01*
X756560Y-231979D01*
X756541Y-232052D01*
X756450Y-232234D01*
X756359Y-232489D01*
X756214Y-232763D01*
X756068Y-233054D01*
X755867Y-233346D01*
X755667Y-233619D01*
X755649Y-233656D01*
X755576Y-233728D01*
X755448Y-233856D01*
X755284Y-234002D01*
X755084Y-234166D01*
X754865Y-234330D01*
X754610Y-234475D01*
X754319Y-234621D01*
X754282Y-234639D01*
X754191Y-234676D01*
X754027Y-234731D01*
X753827Y-234785D01*
X753590Y-234840D01*
X753316Y-234894D01*
X753007Y-234931D01*
X752697Y-234949D01*
X752515D01*
X752333Y-234931D01*
X752077Y-234894D01*
X751804Y-234858D01*
X751495Y-234803D01*
X751185Y-234712D01*
X750893Y-234585D01*
X750857Y-234566D01*
X750766Y-234512D01*
X750620Y-234421D01*
X750456Y-234311D01*
X750237Y-234147D01*
X750037Y-233965D01*
X749818Y-233747D01*
X749618Y-233510D01*
X749600Y-233473D01*
X749527Y-233382D01*
X749436Y-233236D01*
X749326Y-233036D01*
X749217Y-232781D01*
X749089Y-232489D01*
X748980Y-232161D01*
X748871Y-231797D01*
Y-231779D01*
X748853Y-231742D01*
Y-231688D01*
X748834Y-231615D01*
X748816Y-231524D01*
X748798Y-231414D01*
X748762Y-231123D01*
X748707Y-230795D01*
X748670Y-230394D01*
X748652Y-229957D01*
X748634Y-229501D01*
Y-229483D01*
Y-229447D01*
Y-229356D01*
Y-229264D01*
X748652Y-229137D01*
Y-228991D01*
X748670Y-228663D01*
X748707Y-228262D01*
X748780Y-227861D01*
X748853Y-227424D01*
X748962Y-227023D01*
Y-227005D01*
X748980Y-226969D01*
X748998Y-226914D01*
X749017Y-226841D01*
X749089Y-226659D01*
X749199Y-226404D01*
X749326Y-226131D01*
X749490Y-225839D01*
X749673Y-225566D01*
X749873Y-225292D01*
X749891Y-225256D01*
X749982Y-225183D01*
X750092Y-225056D01*
X750256Y-224910D01*
X750456Y-224746D01*
X750693Y-224564D01*
X750948Y-224418D01*
X751221Y-224272D01*
X751258Y-224254D01*
X751349Y-224218D01*
X751513Y-224163D01*
X751713Y-224090D01*
X751950Y-224035D01*
X752242Y-223981D01*
X752533Y-223944D01*
X752861Y-223926D01*
X753025D01*
X753225Y-223944D01*
D02*
G37*
G36*
X659174Y-233564D02*
X663874D01*
Y-234803D01*
X657698D01*
Y-224090D01*
X659174D01*
Y-233564D01*
D02*
G37*
G36*
X688508Y-226440D02*
X688708Y-226459D01*
X688945Y-226495D01*
X689200Y-226532D01*
X689455Y-226604D01*
X689711Y-226695D01*
X689747Y-226714D01*
X689820Y-226750D01*
X689947Y-226805D01*
X690111Y-226896D01*
X690275Y-227005D01*
X690476Y-227133D01*
X690658Y-227297D01*
X690840Y-227479D01*
X690858Y-227497D01*
X690913Y-227570D01*
X691004Y-227679D01*
X691095Y-227807D01*
X691205Y-227989D01*
X691332Y-228189D01*
X691441Y-228426D01*
X691533Y-228681D01*
X691551Y-228718D01*
X691569Y-228809D01*
X691605Y-228955D01*
X691660Y-229137D01*
X691697Y-229374D01*
X691733Y-229629D01*
X691751Y-229920D01*
X691769Y-230248D01*
Y-230267D01*
Y-230303D01*
Y-230358D01*
Y-230431D01*
Y-230594D01*
X691751Y-230777D01*
Y-230813D01*
Y-230904D01*
Y-231014D01*
X691733Y-231141D01*
X685957D01*
Y-231159D01*
Y-231196D01*
Y-231269D01*
X685975Y-231342D01*
Y-231451D01*
X685994Y-231578D01*
X686048Y-231870D01*
X686121Y-232180D01*
X686249Y-232508D01*
X686413Y-232817D01*
X686650Y-233091D01*
X686686Y-233127D01*
X686777Y-233200D01*
X686941Y-233309D01*
X687178Y-233419D01*
X687469Y-233546D01*
X687816Y-233656D01*
X688216Y-233728D01*
X688690Y-233765D01*
X689146D01*
X689401Y-233747D01*
X689455D01*
X689528Y-233728D01*
X689619D01*
X689856Y-233692D01*
X690093Y-233674D01*
X690111D01*
X690148Y-233656D01*
X690221D01*
X690312Y-233637D01*
X690512Y-233601D01*
X690749Y-233564D01*
X690767D01*
X690804Y-233546D01*
X690858Y-233528D01*
X690931Y-233510D01*
X691132Y-233473D01*
X691332Y-233419D01*
Y-234585D01*
X691314D01*
X691223Y-234603D01*
X691113Y-234639D01*
X690949Y-234676D01*
X690749Y-234712D01*
X690530Y-234767D01*
X690275Y-234803D01*
X690002Y-234840D01*
X689966D01*
X689875Y-234858D01*
X689729Y-234876D01*
X689546Y-234894D01*
X689310Y-234913D01*
X689055Y-234931D01*
X688781Y-234949D01*
X688308D01*
X688107Y-234931D01*
X687870Y-234913D01*
X687579Y-234876D01*
X687269Y-234840D01*
X686959Y-234767D01*
X686668Y-234676D01*
X686631Y-234658D01*
X686540Y-234621D01*
X686394Y-234548D01*
X686231Y-234457D01*
X686030Y-234348D01*
X685811Y-234202D01*
X685611Y-234038D01*
X685411Y-233838D01*
X685392Y-233820D01*
X685338Y-233747D01*
X685247Y-233619D01*
X685137Y-233473D01*
X685010Y-233273D01*
X684900Y-233054D01*
X684773Y-232781D01*
X684682Y-232508D01*
Y-232489D01*
Y-232471D01*
X684645Y-232362D01*
X684609Y-232198D01*
X684573Y-231979D01*
X684536Y-231706D01*
X684500Y-231414D01*
X684481Y-231068D01*
X684463Y-230704D01*
Y-230686D01*
Y-230667D01*
Y-230558D01*
X684481Y-230394D01*
X684500Y-230175D01*
X684518Y-229939D01*
X684573Y-229665D01*
X684627Y-229374D01*
X684700Y-229082D01*
Y-229064D01*
X684718Y-229046D01*
X684755Y-228955D01*
X684809Y-228809D01*
X684882Y-228608D01*
X684992Y-228408D01*
X685119Y-228171D01*
X685265Y-227934D01*
X685429Y-227716D01*
X685447Y-227697D01*
X685520Y-227625D01*
X685629Y-227515D01*
X685757Y-227370D01*
X685939Y-227224D01*
X686139Y-227060D01*
X686358Y-226914D01*
X686613Y-226768D01*
X686650Y-226750D01*
X686741Y-226714D01*
X686886Y-226659D01*
X687069Y-226586D01*
X687305Y-226532D01*
X687579Y-226477D01*
X687870Y-226440D01*
X688198Y-226422D01*
X688344D01*
X688508Y-226440D01*
D02*
G37*
G36*
X43307Y171260D02*
Y88583D01*
X-9418Y88583D01*
X-9587Y89083D01*
X-9457Y89182D01*
X-8929Y89871D01*
X-8596Y90674D01*
X-8483Y91535D01*
X-8596Y92397D01*
X-8929Y93200D01*
X-9457Y93889D01*
X-10147Y94418D01*
X-10950Y94750D01*
X-11811Y94864D01*
X-12673Y94750D01*
X-13475Y94418D01*
X-14165Y93889D01*
X-14694Y93200D01*
X-15026Y92397D01*
X-15139Y91535D01*
X-15026Y90674D01*
X-14694Y89871D01*
X-14165Y89182D01*
X-13901Y88980D01*
Y8296D01*
X-19027D01*
X-19060Y8796D01*
X-18883Y8819D01*
X-18136Y9129D01*
X-17495Y9621D01*
X-17003Y10262D01*
X-16693Y11009D01*
X-16654Y11311D01*
X-22717D01*
X-22677Y11009D01*
X-22367Y10262D01*
X-21875Y9621D01*
X-21234Y9129D01*
X-20487Y8819D01*
X-20310Y8796D01*
X-20343Y8296D01*
X-24422D01*
X-24526Y8275D01*
X-24632Y8269D01*
X-24680Y8245D01*
X-24718Y8237D01*
X-27349D01*
X-27382Y8737D01*
X-27254Y8754D01*
X-26757Y8819D01*
X-26010Y9129D01*
X-25369Y9621D01*
X-24877Y10262D01*
X-24567Y11009D01*
X-24528Y11311D01*
X-30591D01*
X-30551Y11009D01*
X-30241Y10262D01*
X-29749Y9621D01*
X-29108Y9129D01*
X-28361Y8819D01*
X-27864Y8754D01*
X-27736Y8737D01*
X-27769Y8237D01*
X-30400D01*
X-30441Y8245D01*
X-30492Y8270D01*
X-30595Y8276D01*
X-30696Y8296D01*
X-41339D01*
Y148299D01*
X-40857Y148434D01*
X-40692Y148165D01*
X-39077Y146274D01*
X-37186Y144658D01*
X-35065Y143359D01*
X-32768Y142407D01*
X-30349Y141827D01*
X-27870Y141631D01*
X-25391Y141827D01*
X-22973Y142407D01*
X-20675Y143359D01*
X-18554Y144658D01*
X-16663Y146274D01*
X-15048Y148165D01*
X-13749Y150285D01*
X-12797Y152583D01*
X-12216Y155001D01*
X-12021Y157480D01*
X-12216Y159960D01*
X-12797Y162378D01*
X-13749Y164675D01*
X-15048Y166796D01*
X-16663Y168687D01*
X-18554Y170302D01*
X-19332Y170779D01*
X-19196Y171260D01*
X43307Y171260D01*
D02*
G37*
G36*
X769642Y-222614D02*
X769660Y-222632D01*
X769714Y-222687D01*
X769787Y-222760D01*
X769878Y-222851D01*
X769970Y-222942D01*
X770225Y-223215D01*
X770498Y-223543D01*
X770826Y-223926D01*
X771172Y-224381D01*
X771518Y-224892D01*
X771865Y-225438D01*
X772211Y-226040D01*
X772539Y-226695D01*
X772830Y-227370D01*
X773067Y-228080D01*
X773249Y-228827D01*
X773322Y-229210D01*
X773377Y-229592D01*
X773395Y-229993D01*
X773413Y-230394D01*
Y-230412D01*
Y-230431D01*
Y-230485D01*
Y-230540D01*
Y-230722D01*
X773395Y-230959D01*
X773377Y-231232D01*
X773340Y-231542D01*
X773286Y-231888D01*
X773231Y-232234D01*
Y-232253D01*
Y-232271D01*
X773213Y-232325D01*
X773195Y-232398D01*
X773158Y-232580D01*
X773085Y-232836D01*
X772994Y-233127D01*
X772885Y-233455D01*
X772757Y-233801D01*
X772612Y-234166D01*
Y-234184D01*
X772593Y-234202D01*
X772575Y-234257D01*
X772539Y-234330D01*
X772429Y-234530D01*
X772302Y-234785D01*
X772138Y-235095D01*
X771919Y-235423D01*
X771700Y-235787D01*
X771427Y-236170D01*
Y-236188D01*
X771391Y-236225D01*
X771354Y-236279D01*
X771300Y-236352D01*
X771227Y-236443D01*
X771136Y-236553D01*
X770917Y-236826D01*
X770662Y-237136D01*
X770352Y-237482D01*
X769988Y-237864D01*
X769587Y-238247D01*
X768767Y-237391D01*
X768785Y-237372D01*
X768840Y-237318D01*
X768913Y-237227D01*
X769022Y-237117D01*
X769168Y-236971D01*
X769314Y-236789D01*
X769478Y-236607D01*
X769660Y-236388D01*
X769842Y-236152D01*
X770043Y-235896D01*
X770443Y-235332D01*
X770808Y-234731D01*
X770972Y-234402D01*
X771136Y-234093D01*
X771154Y-234074D01*
X771172Y-234020D01*
X771209Y-233929D01*
X771263Y-233801D01*
X771318Y-233637D01*
X771391Y-233455D01*
X771464Y-233236D01*
X771536Y-233000D01*
X771609Y-232745D01*
X771682Y-232471D01*
X771810Y-231852D01*
X771901Y-231196D01*
X771937Y-230850D01*
Y-230503D01*
Y-230485D01*
Y-230467D01*
Y-230412D01*
Y-230321D01*
X771919Y-230230D01*
Y-230121D01*
X771883Y-229848D01*
X771846Y-229501D01*
X771773Y-229100D01*
X771664Y-228663D01*
X771536Y-228171D01*
X771373Y-227643D01*
X771172Y-227078D01*
X770899Y-226495D01*
X770607Y-225894D01*
X770243Y-225292D01*
X769806Y-224691D01*
X769332Y-224072D01*
X769059Y-223780D01*
X768767Y-223489D01*
X769623Y-222596D01*
X769642Y-222614D01*
D02*
G37*
G36*
X717004Y-233473D02*
X719391D01*
Y-234803D01*
X712668D01*
Y-233473D01*
X715419D01*
Y-225657D01*
X712850Y-227042D01*
X712340Y-225821D01*
X715729Y-224035D01*
X717004D01*
Y-233473D01*
D02*
G37*
G36*
X736791Y-223452D02*
X736755Y-223489D01*
X736663Y-223598D01*
X736499Y-223762D01*
X736299Y-223999D01*
X736044Y-224290D01*
X735789Y-224637D01*
X735497Y-225056D01*
X735206Y-225493D01*
X734896Y-225985D01*
X734605Y-226532D01*
X734349Y-227096D01*
X734094Y-227716D01*
X733894Y-228354D01*
X733748Y-229009D01*
X733639Y-229702D01*
X733621Y-230048D01*
X733603Y-230412D01*
Y-230431D01*
Y-230503D01*
Y-230594D01*
X733621Y-230740D01*
Y-230904D01*
X733639Y-231105D01*
X733675Y-231323D01*
X733712Y-231578D01*
X733748Y-231852D01*
X733803Y-232125D01*
X733949Y-232745D01*
X734149Y-233400D01*
X734258Y-233728D01*
X734404Y-234056D01*
X734422Y-234074D01*
X734441Y-234129D01*
X734495Y-234220D01*
X734550Y-234348D01*
X734641Y-234512D01*
X734750Y-234694D01*
X734860Y-234894D01*
X735005Y-235131D01*
X735169Y-235368D01*
X735333Y-235623D01*
X735534Y-235896D01*
X735752Y-236188D01*
X735989Y-236480D01*
X736226Y-236771D01*
X736499Y-237063D01*
X736791Y-237354D01*
X735916Y-238247D01*
X735898Y-238229D01*
X735880Y-238211D01*
X735825Y-238156D01*
X735752Y-238083D01*
X735661Y-237992D01*
X735570Y-237901D01*
X735333Y-237627D01*
X735042Y-237299D01*
X734732Y-236917D01*
X734386Y-236461D01*
X734040Y-235969D01*
X733675Y-235423D01*
X733347Y-234822D01*
X733019Y-234184D01*
X732728Y-233510D01*
X732491Y-232799D01*
X732309Y-232070D01*
X732236Y-231688D01*
X732181Y-231305D01*
X732163Y-230923D01*
X732145Y-230522D01*
Y-230503D01*
Y-230467D01*
Y-230431D01*
Y-230358D01*
X732163Y-230157D01*
Y-229902D01*
X732199Y-229592D01*
X732236Y-229264D01*
X732272Y-228900D01*
X732345Y-228536D01*
Y-228517D01*
X732364Y-228499D01*
Y-228445D01*
X732382Y-228372D01*
X732436Y-228171D01*
X732509Y-227916D01*
X732582Y-227625D01*
X732691Y-227297D01*
X732837Y-226932D01*
X732983Y-226568D01*
Y-226550D01*
X733001Y-226513D01*
X733038Y-226477D01*
X733074Y-226404D01*
X733165Y-226203D01*
X733311Y-225948D01*
X733475Y-225639D01*
X733675Y-225311D01*
X733912Y-224946D01*
X734167Y-224582D01*
Y-224564D01*
X734204Y-224527D01*
X734240Y-224491D01*
X734295Y-224418D01*
X734459Y-224218D01*
X734659Y-223962D01*
X734933Y-223653D01*
X735224Y-223325D01*
X735570Y-222960D01*
X735953Y-222596D01*
X736791Y-223452D01*
D02*
G37*
G36*
X670142Y-226440D02*
X670343Y-226459D01*
X670579Y-226495D01*
X671035Y-226586D01*
X671053D01*
X671144Y-226623D01*
X671254Y-226659D01*
X671381Y-226714D01*
X671545Y-226786D01*
X671709Y-226878D01*
X671873Y-226969D01*
X672037Y-227096D01*
X672055Y-227115D01*
X672110Y-227151D01*
X672183Y-227224D01*
X672274Y-227315D01*
X672383Y-227443D01*
X672493Y-227588D01*
X672584Y-227752D01*
X672675Y-227934D01*
X672693Y-227953D01*
X672711Y-228026D01*
X672748Y-228135D01*
X672802Y-228281D01*
X672839Y-228445D01*
X672875Y-228663D01*
X672893Y-228882D01*
X672912Y-229137D01*
Y-234803D01*
X671618D01*
X671582Y-233710D01*
X671545Y-233747D01*
X671472Y-233820D01*
X671326Y-233929D01*
X671163Y-234074D01*
X670944Y-234220D01*
X670725Y-234384D01*
X670470Y-234530D01*
X670215Y-234658D01*
X670179Y-234676D01*
X670088Y-234694D01*
X669960Y-234749D01*
X669778Y-234803D01*
X669559Y-234858D01*
X669304Y-234894D01*
X669049Y-234931D01*
X668757Y-234949D01*
X668648D01*
X668521Y-234931D01*
X668357D01*
X668156Y-234913D01*
X667956Y-234876D01*
X667555Y-234785D01*
X667537D01*
X667482Y-234749D01*
X667391Y-234712D01*
X667264Y-234658D01*
X667008Y-234494D01*
X666735Y-234293D01*
X666717Y-234275D01*
X666680Y-234239D01*
X666626Y-234166D01*
X666553Y-234074D01*
X666480Y-233965D01*
X666389Y-233838D01*
X666261Y-233546D01*
Y-233528D01*
X666243Y-233473D01*
X666225Y-233382D01*
X666188Y-233273D01*
X666170Y-233127D01*
X666134Y-232963D01*
X666116Y-232617D01*
Y-232599D01*
Y-232562D01*
Y-232489D01*
X666134Y-232417D01*
X666152Y-232307D01*
X666170Y-232180D01*
X666225Y-231906D01*
X666334Y-231597D01*
X666498Y-231269D01*
X666608Y-231105D01*
X666735Y-230959D01*
X666863Y-230813D01*
X667027Y-230667D01*
X667045D01*
X667063Y-230631D01*
X667118Y-230594D01*
X667209Y-230558D01*
X667300Y-230503D01*
X667409Y-230449D01*
X667555Y-230376D01*
X667719Y-230303D01*
X667901Y-230248D01*
X668102Y-230175D01*
X668320Y-230121D01*
X668575Y-230066D01*
X668830Y-230030D01*
X669122Y-229993D01*
X669432Y-229957D01*
X671472D01*
Y-229246D01*
Y-229210D01*
Y-229119D01*
X671454Y-228991D01*
X671418Y-228827D01*
X671363Y-228645D01*
X671272Y-228445D01*
X671163Y-228262D01*
X670998Y-228080D01*
X670980Y-228062D01*
X670907Y-228007D01*
X670798Y-227934D01*
X670652Y-227861D01*
X670452Y-227789D01*
X670197Y-227716D01*
X669905Y-227661D01*
X669577Y-227643D01*
X669322D01*
X669140Y-227661D01*
X668922Y-227679D01*
X668703Y-227716D01*
X668193Y-227807D01*
X668156D01*
X668083Y-227843D01*
X667938Y-227880D01*
X667774Y-227916D01*
X667555Y-227989D01*
X667318Y-228062D01*
X667063Y-228153D01*
X666808Y-228244D01*
Y-226951D01*
X666826D01*
X666863Y-226932D01*
X666899Y-226914D01*
X666972Y-226896D01*
X667154Y-226841D01*
X667391Y-226768D01*
X667409D01*
X667446Y-226750D01*
X667519Y-226732D01*
X667610Y-226714D01*
X667846Y-226659D01*
X668102Y-226604D01*
X668120D01*
X668174Y-226586D01*
X668247Y-226568D01*
X668338Y-226550D01*
X668448Y-226532D01*
X668575Y-226513D01*
X668867Y-226477D01*
X668885D01*
X668940Y-226459D01*
X669013D01*
X669122Y-226440D01*
X669249D01*
X669377Y-226422D01*
X669960D01*
X670142Y-226440D01*
D02*
G37*
%LPC*%
G36*
X282198Y-6260D02*
X280763Y-6449D01*
X279425Y-7003D01*
X278276Y-7884D01*
X277394Y-9033D01*
X276840Y-10371D01*
X276651Y-11807D01*
X276840Y-13243D01*
X277394Y-14581D01*
X278276Y-15730D01*
X279425Y-16611D01*
X280763Y-17165D01*
X282198Y-17355D01*
X283634Y-17165D01*
X284972Y-16611D01*
X286121Y-15730D01*
X287003Y-14581D01*
X287557Y-13243D01*
X287746Y-11807D01*
X287557Y-10371D01*
X287003Y-9033D01*
X286121Y-7884D01*
X284972Y-7003D01*
X283634Y-6449D01*
X282198Y-6260D01*
D02*
G37*
G36*
X273853Y-9260D02*
X266952D01*
Y-14882D01*
X273853D01*
Y-9260D01*
D02*
G37*
G36*
X265952D02*
X259050D01*
Y-14882D01*
X265952D01*
Y-9260D01*
D02*
G37*
G36*
X273853Y-2638D02*
X266952D01*
Y-8260D01*
X273853D01*
Y-2638D01*
D02*
G37*
G36*
X265952D02*
X259050D01*
Y-8260D01*
X265952D01*
Y-2638D01*
D02*
G37*
G36*
X282698Y-39128D02*
Y-42807D01*
X286378D01*
X286299Y-42208D01*
X285875Y-41185D01*
X285200Y-40305D01*
X284321Y-39631D01*
X283297Y-39207D01*
X282698Y-39128D01*
D02*
G37*
G36*
Y-125742D02*
Y-129421D01*
X286378D01*
X286299Y-128823D01*
X285875Y-127799D01*
X285200Y-126920D01*
X284321Y-126245D01*
X283297Y-125821D01*
X282698Y-125742D01*
D02*
G37*
G36*
X281698Y-125742D02*
X281100Y-125821D01*
X280076Y-126245D01*
X279197Y-126920D01*
X278522Y-127799D01*
X278098Y-128823D01*
X278019Y-129421D01*
X281698D01*
Y-125742D01*
D02*
G37*
G36*
X286378Y-130421D02*
X282698D01*
Y-134100D01*
X283297Y-134022D01*
X284321Y-133598D01*
X285200Y-132923D01*
X285875Y-132044D01*
X286299Y-131020D01*
X286378Y-130421D01*
D02*
G37*
G36*
X281698D02*
X278019D01*
X278098Y-131020D01*
X278522Y-132044D01*
X279197Y-132923D01*
X280076Y-133598D01*
X281100Y-134022D01*
X281698Y-134100D01*
Y-130421D01*
D02*
G37*
G36*
X282198Y-92874D02*
X280763Y-93063D01*
X279425Y-93617D01*
X278276Y-94499D01*
X277394Y-95648D01*
X276840Y-96986D01*
X276651Y-98421D01*
X276840Y-99857D01*
X277394Y-101195D01*
X278276Y-102344D01*
X279425Y-103226D01*
X280763Y-103780D01*
X282198Y-103969D01*
X283634Y-103780D01*
X284972Y-103226D01*
X286121Y-102344D01*
X287003Y-101195D01*
X287557Y-99857D01*
X287746Y-98421D01*
X287557Y-96986D01*
X287003Y-95648D01*
X286121Y-94499D01*
X284972Y-93617D01*
X283634Y-93063D01*
X282198Y-92874D01*
D02*
G37*
G36*
X281698Y-43807D02*
X278019D01*
X278098Y-44406D01*
X278522Y-45430D01*
X279197Y-46309D01*
X280076Y-46983D01*
X281100Y-47407D01*
X281698Y-47486D01*
Y-43807D01*
D02*
G37*
G36*
X286378D02*
X282698D01*
Y-47486D01*
X283297Y-47407D01*
X284321Y-46983D01*
X285200Y-46309D01*
X285875Y-45430D01*
X286299Y-44406D01*
X286378Y-43807D01*
D02*
G37*
G36*
X281698Y-39128D02*
X281100Y-39207D01*
X280076Y-39631D01*
X279197Y-40305D01*
X278522Y-41185D01*
X278098Y-42208D01*
X278019Y-42807D01*
X281698D01*
Y-39128D01*
D02*
G37*
G36*
X761625Y-225311D02*
X760149D01*
Y-229720D01*
X761625D01*
X761716Y-229702D01*
X761825D01*
X761953Y-229683D01*
X762226Y-229647D01*
X762554Y-229574D01*
X762882Y-229483D01*
X763210Y-229337D01*
X763502Y-229155D01*
X763538Y-229137D01*
X763611Y-229046D01*
X763720Y-228918D01*
X763866Y-228736D01*
X763993Y-228481D01*
X764103Y-228189D01*
X764176Y-227843D01*
X764212Y-227443D01*
Y-227424D01*
Y-227406D01*
Y-227351D01*
X764194Y-227278D01*
X764176Y-227096D01*
X764121Y-226859D01*
X764048Y-226604D01*
X763921Y-226349D01*
X763757Y-226094D01*
X763520Y-225875D01*
X763483Y-225857D01*
X763392Y-225784D01*
X763246Y-225693D01*
X763028Y-225584D01*
X762754Y-225493D01*
X762445Y-225402D01*
X762062Y-225329D01*
X761625Y-225311D01*
D02*
G37*
G36*
X15248Y-9260D02*
X8347D01*
Y-14882D01*
X15248D01*
Y-9260D01*
D02*
G37*
G36*
X23150D02*
X16248D01*
Y-14882D01*
X23150D01*
Y-9260D01*
D02*
G37*
G36*
X-502Y-39128D02*
X-1100Y-39207D01*
X-2124Y-39631D01*
X-3003Y-40305D01*
X-3678Y-41185D01*
X-4102Y-42208D01*
X-4181Y-42807D01*
X-502D01*
Y-39128D01*
D02*
G37*
G36*
X498D02*
Y-42807D01*
X4178D01*
X4099Y-42208D01*
X3675Y-41185D01*
X3000Y-40305D01*
X2121Y-39631D01*
X1097Y-39207D01*
X498Y-39128D01*
D02*
G37*
G36*
X23150Y-2638D02*
X16248D01*
Y-8260D01*
X23150D01*
Y-2638D01*
D02*
G37*
G36*
X15248D02*
X8347D01*
Y-8260D01*
X15248D01*
Y-2638D01*
D02*
G37*
G36*
X23150Y-71732D02*
X16248D01*
Y-77354D01*
X23150D01*
Y-71732D01*
D02*
G37*
G36*
X-502Y-43807D02*
X-4181D01*
X-4102Y-44406D01*
X-3678Y-45430D01*
X-3003Y-46309D01*
X-2124Y-46983D01*
X-1100Y-47407D01*
X-502Y-47486D01*
Y-43807D01*
D02*
G37*
G36*
X4178D02*
X498D01*
Y-47486D01*
X1097Y-47407D01*
X2121Y-46983D01*
X3000Y-46309D01*
X3675Y-45430D01*
X4099Y-44406D01*
X4178Y-43807D01*
D02*
G37*
G36*
X15248Y-71732D02*
X8347D01*
Y-77354D01*
X15248D01*
Y-71732D01*
D02*
G37*
G36*
X23150Y-78354D02*
X16248D01*
Y-83976D01*
X23150D01*
Y-78354D01*
D02*
G37*
G36*
X-2Y-69260D02*
X-1437Y-69449D01*
X-2775Y-70003D01*
X-3924Y-70884D01*
X-4806Y-72033D01*
X-5360Y-73371D01*
X-5549Y-74807D01*
X-5360Y-76243D01*
X-4806Y-77581D01*
X-3924Y-78730D01*
X-2775Y-79611D01*
X-1437Y-80165D01*
X-2Y-80354D01*
X1434Y-80165D01*
X2772Y-79611D01*
X3921Y-78730D01*
X4803Y-77581D01*
X5357Y-76243D01*
X5546Y-74807D01*
X5357Y-73371D01*
X4803Y-72033D01*
X3921Y-70884D01*
X2772Y-70003D01*
X1434Y-69449D01*
X-2Y-69260D01*
D02*
G37*
G36*
X15248Y-78354D02*
X8347D01*
Y-83976D01*
X15248D01*
Y-78354D01*
D02*
G37*
G36*
X-24488Y-16614D02*
X-27059D01*
Y-19185D01*
X-24488D01*
Y-16614D01*
D02*
G37*
G36*
X-28059Y-12311D02*
X-30591D01*
X-30551Y-12613D01*
X-30241Y-13360D01*
X-29749Y-14001D01*
X-29108Y-14493D01*
X-28361Y-14803D01*
X-28059Y-14843D01*
Y-12311D01*
D02*
G37*
G36*
X-27559Y-24370D02*
X-28385Y-24478D01*
X-29154Y-24797D01*
X-29814Y-25304D01*
X-30321Y-25964D01*
X-30640Y-26734D01*
X-30749Y-27559D01*
X-30640Y-28385D01*
X-30321Y-29154D01*
X-29814Y-29814D01*
X-29154Y-30321D01*
X-28385Y-30640D01*
X-27559Y-30749D01*
X-26734Y-30640D01*
X-25964Y-30321D01*
X-25304Y-29814D01*
X-24797Y-29154D01*
X-24478Y-28385D01*
X-24370Y-27559D01*
X-24478Y-26734D01*
X-24797Y-25964D01*
X-25304Y-25304D01*
X-25964Y-24797D01*
X-26734Y-24478D01*
X-27559Y-24370D01*
D02*
G37*
G36*
X-19685D02*
X-20511Y-24478D01*
X-21280Y-24797D01*
X-21940Y-25304D01*
X-22447Y-25964D01*
X-22766Y-26734D01*
X-22874Y-27559D01*
X-22766Y-28385D01*
X-22447Y-29154D01*
X-21940Y-29814D01*
X-21280Y-30321D01*
X-20511Y-30640D01*
X-19685Y-30749D01*
X-18859Y-30640D01*
X-18090Y-30321D01*
X-17430Y-29814D01*
X-16923Y-29154D01*
X-16604Y-28385D01*
X-16496Y-27559D01*
X-16604Y-26734D01*
X-16923Y-25964D01*
X-17430Y-25304D01*
X-18090Y-24797D01*
X-18859Y-24478D01*
X-19685Y-24370D01*
D02*
G37*
G36*
X-24488Y-20185D02*
X-27059D01*
Y-22756D01*
X-24488D01*
Y-20185D01*
D02*
G37*
G36*
X-28059Y-16614D02*
X-30630D01*
Y-19185D01*
X-28059D01*
Y-16614D01*
D02*
G37*
G36*
X-19685Y-16496D02*
X-20511Y-16604D01*
X-21280Y-16923D01*
X-21940Y-17430D01*
X-22447Y-18090D01*
X-22766Y-18859D01*
X-22874Y-19685D01*
X-22766Y-20511D01*
X-22447Y-21280D01*
X-21940Y-21940D01*
X-21280Y-22447D01*
X-20511Y-22766D01*
X-19685Y-22874D01*
X-18859Y-22766D01*
X-18090Y-22447D01*
X-17430Y-21940D01*
X-16923Y-21280D01*
X-16604Y-20511D01*
X-16496Y-19685D01*
X-16604Y-18859D01*
X-16923Y-18090D01*
X-17430Y-17430D01*
X-18090Y-16923D01*
X-18859Y-16604D01*
X-19685Y-16496D01*
D02*
G37*
G36*
X-28059Y-20185D02*
X-30630D01*
Y-22756D01*
X-28059D01*
Y-20185D01*
D02*
G37*
G36*
X-24528Y-12311D02*
X-27059D01*
Y-14843D01*
X-26757Y-14803D01*
X-26010Y-14493D01*
X-25369Y-14001D01*
X-24877Y-13360D01*
X-24567Y-12613D01*
X-24528Y-12311D01*
D02*
G37*
G36*
X-28059Y-4437D02*
X-30591D01*
X-30551Y-4739D01*
X-30241Y-5486D01*
X-29749Y-6127D01*
X-29108Y-6619D01*
X-28361Y-6929D01*
X-28059Y-6968D01*
Y-4437D01*
D02*
G37*
G36*
X-24528D02*
X-27059D01*
Y-6968D01*
X-26757Y-6929D01*
X-26010Y-6619D01*
X-25369Y-6127D01*
X-24877Y-5486D01*
X-24567Y-4739D01*
X-24528Y-4437D01*
D02*
G37*
G36*
X-28059Y-905D02*
X-28361Y-945D01*
X-29108Y-1255D01*
X-29749Y-1747D01*
X-30241Y-2388D01*
X-30551Y-3135D01*
X-30591Y-3437D01*
X-28059D01*
Y-905D01*
D02*
G37*
G36*
X-27059D02*
Y-3437D01*
X-24528D01*
X-24567Y-3135D01*
X-24877Y-2388D01*
X-25369Y-1747D01*
X-26010Y-1255D01*
X-26757Y-945D01*
X-27059Y-905D01*
D02*
G37*
G36*
X-20185Y-4437D02*
X-22717D01*
X-22677Y-4739D01*
X-22367Y-5486D01*
X-21875Y-6127D01*
X-21234Y-6619D01*
X-20487Y-6929D01*
X-20185Y-6968D01*
Y-4437D01*
D02*
G37*
G36*
X-16654D02*
X-19185D01*
Y-6968D01*
X-18883Y-6929D01*
X-18136Y-6619D01*
X-17495Y-6127D01*
X-17003Y-5486D01*
X-16693Y-4739D01*
X-16654Y-4437D01*
D02*
G37*
G36*
X-28059Y-8779D02*
X-28361Y-8819D01*
X-29108Y-9129D01*
X-29749Y-9621D01*
X-30241Y-10262D01*
X-30551Y-11009D01*
X-30591Y-11311D01*
X-28059D01*
Y-8779D01*
D02*
G37*
G36*
X-27059D02*
Y-11311D01*
X-24528D01*
X-24567Y-11009D01*
X-24877Y-10262D01*
X-25369Y-9621D01*
X-26010Y-9129D01*
X-26757Y-8819D01*
X-27059Y-8779D01*
D02*
G37*
G36*
X-20185Y-12311D02*
X-22717D01*
X-22677Y-12613D01*
X-22367Y-13360D01*
X-21875Y-14001D01*
X-21234Y-14493D01*
X-20487Y-14803D01*
X-20185Y-14843D01*
Y-12311D01*
D02*
G37*
G36*
X-16654D02*
X-19185D01*
Y-14843D01*
X-18883Y-14803D01*
X-18136Y-14493D01*
X-17495Y-14001D01*
X-17003Y-13360D01*
X-16693Y-12613D01*
X-16654Y-12311D01*
D02*
G37*
G36*
X-20185Y-8779D02*
X-20487Y-8819D01*
X-21234Y-9129D01*
X-21875Y-9621D01*
X-22367Y-10262D01*
X-22677Y-11009D01*
X-22717Y-11311D01*
X-20185D01*
Y-8779D01*
D02*
G37*
G36*
X-19185D02*
Y-11311D01*
X-16654D01*
X-16693Y-11009D01*
X-17003Y-10262D01*
X-17495Y-9621D01*
X-18136Y-9129D01*
X-18883Y-8819D01*
X-19185Y-8779D01*
D02*
G37*
G36*
X-24122Y-122547D02*
X-27249D01*
X-27189Y-123003D01*
X-26820Y-123894D01*
X-26233Y-124659D01*
X-25469Y-125245D01*
X-24578Y-125614D01*
X-24122Y-125674D01*
Y-122547D01*
D02*
G37*
G36*
X498Y-125742D02*
Y-129421D01*
X4178D01*
X4099Y-128823D01*
X3675Y-127799D01*
X3000Y-126920D01*
X2121Y-126245D01*
X1097Y-125821D01*
X498Y-125742D01*
D02*
G37*
G36*
X-23122Y-118420D02*
Y-121547D01*
X-19995D01*
X-20055Y-121091D01*
X-20424Y-120201D01*
X-21011Y-119436D01*
X-21776Y-118849D01*
X-22666Y-118480D01*
X-23122Y-118420D01*
D02*
G37*
G36*
X-23622Y-100546D02*
X-24602Y-100674D01*
X-25515Y-101053D01*
X-26298Y-101654D01*
X-26900Y-102438D01*
X-27278Y-103351D01*
X-27407Y-104331D01*
X-27278Y-105310D01*
X-26900Y-106223D01*
X-26298Y-107007D01*
X-25515Y-107609D01*
X-24602Y-107987D01*
X-23622Y-108116D01*
X-22642Y-107987D01*
X-21730Y-107609D01*
X-20946Y-107007D01*
X-20344Y-106223D01*
X-19966Y-105310D01*
X-19837Y-104331D01*
X-19966Y-103351D01*
X-20344Y-102438D01*
X-20946Y-101654D01*
X-21730Y-101053D01*
X-22642Y-100674D01*
X-23622Y-100546D01*
D02*
G37*
G36*
X-19995Y-122547D02*
X-23122D01*
Y-125674D01*
X-22666Y-125614D01*
X-21776Y-125245D01*
X-21011Y-124659D01*
X-20424Y-123894D01*
X-20055Y-123003D01*
X-19995Y-122547D01*
D02*
G37*
G36*
X-24122Y-118420D02*
X-24578Y-118480D01*
X-25469Y-118849D01*
X-26233Y-119436D01*
X-26820Y-120201D01*
X-27189Y-121091D01*
X-27249Y-121547D01*
X-24122D01*
Y-118420D01*
D02*
G37*
G36*
X-502Y-125742D02*
X-1100Y-125821D01*
X-2124Y-126245D01*
X-3003Y-126920D01*
X-3678Y-127799D01*
X-4102Y-128823D01*
X-4181Y-129421D01*
X-502D01*
Y-125742D01*
D02*
G37*
G36*
X4178Y-130421D02*
X498D01*
Y-134100D01*
X1097Y-134022D01*
X2121Y-133598D01*
X3000Y-132923D01*
X3675Y-132044D01*
X4099Y-131020D01*
X4178Y-130421D01*
D02*
G37*
G36*
X-502D02*
X-4181D01*
X-4102Y-131020D01*
X-3678Y-132044D01*
X-3003Y-132923D01*
X-2124Y-133598D01*
X-1100Y-134022D01*
X-502Y-134100D01*
Y-130421D01*
D02*
G37*
G36*
X-23622Y-47396D02*
X-24602Y-47525D01*
X-25515Y-47903D01*
X-26298Y-48505D01*
X-26900Y-49288D01*
X-27278Y-50201D01*
X-27407Y-51181D01*
X-27278Y-52161D01*
X-26900Y-53074D01*
X-26298Y-53858D01*
X-25515Y-54459D01*
X-24602Y-54837D01*
X-23622Y-54966D01*
X-22642Y-54837D01*
X-21730Y-54459D01*
X-20946Y-53858D01*
X-20344Y-53074D01*
X-19966Y-52161D01*
X-19837Y-51181D01*
X-19966Y-50201D01*
X-20344Y-49288D01*
X-20946Y-48505D01*
X-21730Y-47903D01*
X-22642Y-47525D01*
X-23622Y-47396D01*
D02*
G37*
G36*
Y-65113D02*
X-24602Y-65241D01*
X-25515Y-65620D01*
X-26298Y-66221D01*
X-26900Y-67005D01*
X-27278Y-67918D01*
X-27407Y-68898D01*
X-27278Y-69877D01*
X-26900Y-70790D01*
X-26298Y-71574D01*
X-25515Y-72176D01*
X-24602Y-72554D01*
X-23622Y-72683D01*
X-22642Y-72554D01*
X-21730Y-72176D01*
X-20946Y-71574D01*
X-20344Y-70790D01*
X-19966Y-69877D01*
X-19837Y-68898D01*
X-19966Y-67918D01*
X-20344Y-67005D01*
X-20946Y-66221D01*
X-21730Y-65620D01*
X-22642Y-65241D01*
X-23622Y-65113D01*
D02*
G37*
G36*
X15248Y-89252D02*
X8347D01*
Y-94874D01*
X15248D01*
Y-89252D01*
D02*
G37*
G36*
X23150D02*
X16248D01*
Y-94874D01*
X23150D01*
Y-89252D01*
D02*
G37*
G36*
X15248Y-95874D02*
X8347D01*
Y-101496D01*
X15248D01*
Y-95874D01*
D02*
G37*
G36*
X23150D02*
X16248D01*
Y-101496D01*
X23150D01*
Y-95874D01*
D02*
G37*
G36*
X-23622Y-82829D02*
X-24602Y-82958D01*
X-25515Y-83336D01*
X-26298Y-83938D01*
X-26900Y-84722D01*
X-27278Y-85634D01*
X-27407Y-86614D01*
X-27278Y-87594D01*
X-26900Y-88507D01*
X-26298Y-89291D01*
X-25515Y-89892D01*
X-24602Y-90270D01*
X-23622Y-90399D01*
X-22642Y-90270D01*
X-21730Y-89892D01*
X-20946Y-89291D01*
X-20344Y-88507D01*
X-19966Y-87594D01*
X-19837Y-86614D01*
X-19966Y-85634D01*
X-20344Y-84722D01*
X-20946Y-83938D01*
X-21730Y-83336D01*
X-22642Y-82958D01*
X-23622Y-82829D01*
D02*
G37*
G36*
X-20185Y-905D02*
X-20487Y-945D01*
X-21234Y-1255D01*
X-21875Y-1747D01*
X-22367Y-2388D01*
X-22677Y-3135D01*
X-22717Y-3437D01*
X-20185D01*
Y-905D01*
D02*
G37*
G36*
Y3437D02*
X-22717D01*
X-22677Y3135D01*
X-22367Y2388D01*
X-21875Y1747D01*
X-21234Y1255D01*
X-20487Y945D01*
X-20185Y905D01*
Y3437D01*
D02*
G37*
G36*
X-16654D02*
X-19185D01*
Y905D01*
X-18883Y945D01*
X-18136Y1255D01*
X-17495Y1747D01*
X-17003Y2388D01*
X-16693Y3135D01*
X-16654Y3437D01*
D02*
G37*
G36*
X-24488D02*
X-27059D01*
Y866D01*
X-24488D01*
Y3437D01*
D02*
G37*
G36*
X-19185Y-905D02*
Y-3437D01*
X-16654D01*
X-16693Y-3135D01*
X-17003Y-2388D01*
X-17495Y-1747D01*
X-18136Y-1255D01*
X-18883Y-945D01*
X-19185Y-905D01*
D02*
G37*
G36*
X-28059Y3437D02*
X-30630D01*
Y866D01*
X-28059D01*
Y3437D01*
D02*
G37*
G36*
X282198Y80354D02*
X280763Y80165D01*
X279425Y79611D01*
X278276Y78730D01*
X277394Y77581D01*
X276840Y76243D01*
X276651Y74807D01*
X276840Y73371D01*
X277394Y72033D01*
X278276Y70884D01*
X279425Y70003D01*
X280763Y69449D01*
X282198Y69260D01*
X283634Y69449D01*
X284972Y70003D01*
X286121Y70884D01*
X287003Y72033D01*
X287557Y73371D01*
X287746Y74807D01*
X287557Y76243D01*
X287003Y77581D01*
X286121Y78730D01*
X284972Y79611D01*
X283634Y80165D01*
X282198Y80354D01*
D02*
G37*
G36*
X286378Y42807D02*
X282698D01*
Y39128D01*
X283297Y39207D01*
X284321Y39631D01*
X285200Y40305D01*
X285875Y41185D01*
X286299Y42208D01*
X286378Y42807D01*
D02*
G37*
G36*
X281698Y47486D02*
X281100Y47407D01*
X280076Y46983D01*
X279197Y46309D01*
X278522Y45430D01*
X278098Y44406D01*
X278019Y43807D01*
X281698D01*
Y47486D01*
D02*
G37*
G36*
X282698Y47486D02*
Y43807D01*
X286378D01*
X286299Y44406D01*
X285875Y45430D01*
X285200Y46309D01*
X284321Y46983D01*
X283297Y47407D01*
X282698Y47486D01*
D02*
G37*
G36*
X156614Y50709D02*
X150992D01*
Y43807D01*
X156614D01*
Y50709D01*
D02*
G37*
G36*
X149992D02*
X144370D01*
Y43807D01*
X149992D01*
Y50709D01*
D02*
G37*
G36*
X281700Y134100D02*
X281101Y134022D01*
X280078Y133598D01*
X279198Y132923D01*
X278524Y132044D01*
X278100Y131020D01*
X278021Y130421D01*
X281700D01*
Y134100D01*
D02*
G37*
G36*
X282700D02*
Y130421D01*
X286379D01*
X286300Y131020D01*
X285876Y132044D01*
X285202Y132923D01*
X284323Y133598D01*
X283299Y134022D01*
X282700Y134100D01*
D02*
G37*
G36*
X152579Y129421D02*
X150303D01*
Y126555D01*
X152579D01*
Y129421D01*
D02*
G37*
G36*
X149303D02*
X147028D01*
Y126555D01*
X149303D01*
Y129421D01*
D02*
G37*
G36*
X152579Y133287D02*
X150303D01*
Y130421D01*
X152579D01*
Y133287D01*
D02*
G37*
G36*
X149303D02*
X147028D01*
Y130421D01*
X149303D01*
Y133287D01*
D02*
G37*
G36*
X250100Y106058D02*
X248610Y105911D01*
X247178Y105477D01*
X245857Y104771D01*
X244700Y103821D01*
X243750Y102664D01*
X243044Y101344D01*
X242610Y99911D01*
X242463Y98421D01*
X242610Y96931D01*
X243044Y95499D01*
X243750Y94178D01*
X244700Y93021D01*
X245857Y92071D01*
X247178Y91366D01*
X248610Y90931D01*
X250100Y90785D01*
X251590Y90931D01*
X253023Y91366D01*
X254343Y92071D01*
X255500Y93021D01*
X256450Y94178D01*
X257155Y95499D01*
X257590Y96931D01*
X257737Y98421D01*
X257590Y99911D01*
X257155Y101344D01*
X256450Y102664D01*
X255500Y103821D01*
X254343Y104771D01*
X253023Y105477D01*
X251590Y105911D01*
X250100Y106058D01*
D02*
G37*
G36*
X281700Y129421D02*
X278021D01*
X278100Y128823D01*
X278524Y127799D01*
X279198Y126920D01*
X280078Y126245D01*
X281101Y125821D01*
X281700Y125742D01*
Y129421D01*
D02*
G37*
G36*
X286379D02*
X282700D01*
Y125742D01*
X283299Y125821D01*
X284323Y126245D01*
X285202Y126920D01*
X285876Y127799D01*
X286300Y128823D01*
X286379Y129421D01*
D02*
G37*
G36*
X273853Y14882D02*
X266952D01*
Y9260D01*
X273853D01*
Y14882D01*
D02*
G37*
G36*
X265952D02*
X259050D01*
Y9260D01*
X265952D01*
Y14882D01*
D02*
G37*
G36*
X273853Y8260D02*
X266952D01*
Y2638D01*
X273853D01*
Y8260D01*
D02*
G37*
G36*
X249598Y19444D02*
X248109Y19297D01*
X246676Y18862D01*
X245356Y18157D01*
X244198Y17207D01*
X243249Y16050D01*
X242543Y14730D01*
X242108Y13297D01*
X241962Y11807D01*
X242108Y10317D01*
X242543Y8885D01*
X243249Y7564D01*
X244198Y6407D01*
X245356Y5457D01*
X246676Y4752D01*
X248109Y4317D01*
X249598Y4170D01*
X251088Y4317D01*
X252521Y4752D01*
X253841Y5457D01*
X254998Y6407D01*
X255948Y7564D01*
X256654Y8885D01*
X257088Y10317D01*
X257235Y11807D01*
X257088Y13297D01*
X256654Y14730D01*
X255948Y16050D01*
X254998Y17207D01*
X253841Y18157D01*
X252521Y18862D01*
X251088Y19297D01*
X249598Y19444D01*
D02*
G37*
G36*
X265952Y8260D02*
X259050D01*
Y2638D01*
X265952D01*
Y8260D01*
D02*
G37*
G36*
X281698Y42807D02*
X278019D01*
X278098Y42208D01*
X278522Y41185D01*
X279197Y40305D01*
X280076Y39631D01*
X281100Y39207D01*
X281698Y39128D01*
Y42807D01*
D02*
G37*
G36*
X156614Y42807D02*
X150992D01*
Y35906D01*
X156614D01*
Y42807D01*
D02*
G37*
G36*
X149992D02*
X144370D01*
Y35906D01*
X149992D01*
Y42807D01*
D02*
G37*
G36*
X15248Y77354D02*
X8347D01*
Y71732D01*
X15248D01*
Y77354D01*
D02*
G37*
G36*
X32098Y82444D02*
X30609Y82297D01*
X29176Y81862D01*
X27856Y81157D01*
X26698Y80207D01*
X25749Y79050D01*
X25043Y77729D01*
X24608Y76297D01*
X24462Y74807D01*
X24608Y73317D01*
X25043Y71885D01*
X25749Y70564D01*
X26698Y69407D01*
X27856Y68457D01*
X29176Y67752D01*
X30609Y67317D01*
X32098Y67170D01*
X33588Y67317D01*
X35021Y67752D01*
X36341Y68457D01*
X37498Y69407D01*
X38448Y70564D01*
X39154Y71885D01*
X39588Y73317D01*
X39735Y74807D01*
X39588Y76297D01*
X39154Y77729D01*
X38448Y79050D01*
X37498Y80207D01*
X36341Y81157D01*
X35021Y81862D01*
X33588Y82297D01*
X32098Y82444D01*
D02*
G37*
G36*
X23150Y83976D02*
X16248D01*
Y78354D01*
X23150D01*
Y83976D01*
D02*
G37*
G36*
X15248D02*
X8347D01*
Y78354D01*
X15248D01*
Y83976D01*
D02*
G37*
G36*
X23150Y77354D02*
X16248D01*
Y71732D01*
X23150D01*
Y77354D01*
D02*
G37*
G36*
X-502Y47486D02*
X-1100Y47407D01*
X-2124Y46983D01*
X-3003Y46309D01*
X-3678Y45430D01*
X-4102Y44406D01*
X-4181Y43807D01*
X-502D01*
Y47486D01*
D02*
G37*
G36*
X139094Y50709D02*
X133472D01*
Y43807D01*
X139094D01*
Y50709D01*
D02*
G37*
G36*
X132472D02*
X126850D01*
Y43807D01*
X132472D01*
Y50709D01*
D02*
G37*
G36*
X-502Y42807D02*
X-4181D01*
X-4102Y42208D01*
X-3678Y41185D01*
X-3003Y40305D01*
X-2124Y39631D01*
X-1100Y39207D01*
X-502Y39128D01*
Y42807D01*
D02*
G37*
G36*
X498Y47486D02*
Y43807D01*
X4178D01*
X4099Y44406D01*
X3675Y45430D01*
X3000Y46309D01*
X2121Y46983D01*
X1097Y47407D01*
X498Y47486D01*
D02*
G37*
G36*
X23150Y14882D02*
X16248D01*
Y9260D01*
X23150D01*
Y14882D01*
D02*
G37*
G36*
X15248D02*
X8347D01*
Y9260D01*
X15248D01*
Y14882D01*
D02*
G37*
G36*
X-2Y17355D02*
X-1437Y17165D01*
X-2775Y16611D01*
X-3924Y15730D01*
X-4806Y14581D01*
X-5360Y13243D01*
X-5549Y11807D01*
X-5360Y10371D01*
X-4806Y9033D01*
X-3924Y7884D01*
X-2775Y7003D01*
X-1437Y6449D01*
X-2Y6260D01*
X1434Y6449D01*
X2772Y7003D01*
X3921Y7884D01*
X4803Y9033D01*
X5357Y10371D01*
X5546Y11807D01*
X5357Y13243D01*
X4803Y14581D01*
X3921Y15730D01*
X2772Y16611D01*
X1434Y17165D01*
X-2Y17355D01*
D02*
G37*
G36*
X15248Y8260D02*
X8347D01*
Y2638D01*
X15248D01*
Y8260D01*
D02*
G37*
G36*
X23150D02*
X16248D01*
Y2638D01*
X23150D01*
Y8260D01*
D02*
G37*
G36*
X132472Y42807D02*
X126850D01*
Y35906D01*
X132472D01*
Y42807D01*
D02*
G37*
G36*
X4178D02*
X498D01*
Y39128D01*
X1097Y39207D01*
X2121Y39631D01*
X3000Y40305D01*
X3675Y41185D01*
X4099Y42208D01*
X4178Y42807D01*
D02*
G37*
G36*
X139094D02*
X133472D01*
Y35906D01*
X139094D01*
Y42807D01*
D02*
G37*
G36*
X752770Y-225201D02*
X752661D01*
X752515Y-225220D01*
X752351Y-225238D01*
X752169Y-225292D01*
X751950Y-225347D01*
X751750Y-225438D01*
X751549Y-225548D01*
X751531Y-225566D01*
X751476Y-225602D01*
X751385Y-225675D01*
X751258Y-225784D01*
X751130Y-225912D01*
X751003Y-226076D01*
X750857Y-226258D01*
X750729Y-226459D01*
X750711Y-226477D01*
X750675Y-226550D01*
X750620Y-226677D01*
X750547Y-226841D01*
X750474Y-227023D01*
X750383Y-227260D01*
X750310Y-227515D01*
X750237Y-227789D01*
Y-227825D01*
X750219Y-227916D01*
X750201Y-228080D01*
X750165Y-228281D01*
X750146Y-228517D01*
X750110Y-228791D01*
X750092Y-229100D01*
Y-229410D01*
Y-229428D01*
Y-229447D01*
Y-229501D01*
Y-229574D01*
Y-229756D01*
X750110Y-229975D01*
X750128Y-230248D01*
X750146Y-230540D01*
X750237Y-231159D01*
Y-231196D01*
X750274Y-231287D01*
X750292Y-231433D01*
X750347Y-231615D01*
X750420Y-231834D01*
X750492Y-232052D01*
X750584Y-232289D01*
X750693Y-232508D01*
X750711Y-232526D01*
X750747Y-232599D01*
X750820Y-232690D01*
X750930Y-232817D01*
X751039Y-232963D01*
X751185Y-233091D01*
X751349Y-233236D01*
X751531Y-233364D01*
X751549Y-233382D01*
X751622Y-233419D01*
X751731Y-233455D01*
X751877Y-233510D01*
X752059Y-233583D01*
X752278Y-233619D01*
X752515Y-233656D01*
X752770Y-233674D01*
X752898D01*
X753025Y-233656D01*
X753189Y-233637D01*
X753389Y-233601D01*
X753590Y-233528D01*
X753790Y-233455D01*
X753991Y-233346D01*
X754009Y-233328D01*
X754082Y-233291D01*
X754173Y-233218D01*
X754282Y-233109D01*
X754428Y-232981D01*
X754556Y-232836D01*
X754701Y-232653D01*
X754829Y-232453D01*
X754847Y-232435D01*
X754883Y-232344D01*
X754938Y-232234D01*
X755011Y-232070D01*
X755102Y-231870D01*
X755175Y-231651D01*
X755248Y-231396D01*
X755321Y-231123D01*
Y-231086D01*
X755339Y-230995D01*
X755375Y-230831D01*
X755412Y-230631D01*
X755430Y-230394D01*
X755467Y-230103D01*
X755485Y-229811D01*
Y-229483D01*
Y-229465D01*
Y-229447D01*
Y-229392D01*
Y-229319D01*
Y-229137D01*
X755467Y-228918D01*
X755448Y-228645D01*
X755412Y-228354D01*
X755321Y-227752D01*
Y-227734D01*
Y-227716D01*
X755302Y-227625D01*
X755266Y-227479D01*
X755211Y-227297D01*
X755138Y-227078D01*
X755066Y-226859D01*
X754956Y-226623D01*
X754847Y-226404D01*
X754829Y-226386D01*
X754792Y-226313D01*
X754719Y-226203D01*
X754628Y-226076D01*
X754501Y-225948D01*
X754355Y-225803D01*
X754191Y-225657D01*
X754009Y-225529D01*
X753991Y-225511D01*
X753918Y-225475D01*
X753808Y-225420D01*
X753663Y-225365D01*
X753480Y-225311D01*
X753280Y-225256D01*
X753025Y-225220D01*
X752770Y-225201D01*
D02*
G37*
G36*
X688326Y-227570D02*
X687961D01*
X687852Y-227588D01*
X687724Y-227606D01*
X687579Y-227643D01*
X687269Y-227752D01*
X687251D01*
X687214Y-227789D01*
X687142Y-227825D01*
X687050Y-227880D01*
X686832Y-228044D01*
X686613Y-228262D01*
X686595Y-228281D01*
X686577Y-228317D01*
X686522Y-228390D01*
X686449Y-228481D01*
X686376Y-228590D01*
X686303Y-228736D01*
X686158Y-229046D01*
Y-229064D01*
X686139Y-229119D01*
X686103Y-229210D01*
X686066Y-229337D01*
X686030Y-229483D01*
X686012Y-229665D01*
X685957Y-230048D01*
X690294D01*
Y-230030D01*
Y-229957D01*
Y-229848D01*
Y-229720D01*
X690275Y-229574D01*
X690257Y-229410D01*
X690166Y-229064D01*
Y-229046D01*
X690148Y-228991D01*
X690111Y-228900D01*
X690075Y-228791D01*
X689947Y-228536D01*
X689765Y-228281D01*
X689747Y-228262D01*
X689711Y-228226D01*
X689656Y-228171D01*
X689583Y-228098D01*
X689474Y-228007D01*
X689364Y-227934D01*
X689073Y-227770D01*
X689055Y-227752D01*
X689000Y-227734D01*
X688909Y-227697D01*
X688799Y-227661D01*
X688672Y-227625D01*
X688508Y-227606D01*
X688326Y-227570D01*
D02*
G37*
G36*
X-19869Y55918D02*
X-27375D01*
Y48413D01*
X-19869D01*
Y55918D01*
D02*
G37*
G36*
X-23622Y65951D02*
X-24602Y65821D01*
X-25515Y65443D01*
X-26298Y64842D01*
X-26900Y64058D01*
X-27278Y63145D01*
X-27407Y62165D01*
X-27278Y61186D01*
X-26900Y60273D01*
X-26298Y59489D01*
X-25515Y58887D01*
X-24602Y58509D01*
X-23622Y58380D01*
X-22642Y58509D01*
X-21730Y58887D01*
X-20946Y59489D01*
X-20344Y60273D01*
X-19966Y61186D01*
X-19837Y62165D01*
X-19966Y63145D01*
X-20344Y64058D01*
X-20946Y64842D01*
X-21730Y65443D01*
X-22642Y65821D01*
X-23622Y65951D01*
D02*
G37*
G36*
Y95321D02*
X-24602Y95192D01*
X-25515Y94814D01*
X-26298Y94212D01*
X-26900Y93428D01*
X-27278Y92515D01*
X-27407Y91535D01*
X-27278Y90556D01*
X-26900Y89643D01*
X-26298Y88859D01*
X-25515Y88257D01*
X-24602Y87879D01*
X-23622Y87750D01*
X-22642Y87879D01*
X-21730Y88257D01*
X-20946Y88859D01*
X-20344Y89643D01*
X-19966Y90556D01*
X-19837Y91535D01*
X-19966Y92515D01*
X-20344Y93428D01*
X-20946Y94212D01*
X-21730Y94814D01*
X-22642Y95192D01*
X-23622Y95321D01*
D02*
G37*
G36*
X-19869Y85288D02*
X-27375D01*
Y77783D01*
X-19869D01*
Y85288D01*
D02*
G37*
G36*
X15248Y94874D02*
X8347D01*
Y89252D01*
X15248D01*
Y94874D01*
D02*
G37*
G36*
X-500Y129421D02*
X-4179D01*
X-4100Y128823D01*
X-3676Y127799D01*
X-3002Y126920D01*
X-2122Y126245D01*
X-1099Y125821D01*
X-500Y125742D01*
Y129421D01*
D02*
G37*
G36*
X500Y134100D02*
Y130421D01*
X4179D01*
X4100Y131020D01*
X3676Y132044D01*
X3002Y132923D01*
X2122Y133598D01*
X1099Y134022D01*
X500Y134100D01*
D02*
G37*
G36*
X32600Y169058D02*
X31110Y168911D01*
X29678Y168477D01*
X28357Y167771D01*
X27200Y166821D01*
X26250Y165664D01*
X25545Y164344D01*
X25110Y162911D01*
X24963Y161421D01*
X25110Y159931D01*
X25545Y158499D01*
X26250Y157178D01*
X27200Y156021D01*
X28357Y155071D01*
X29678Y154366D01*
X31110Y153931D01*
X32600Y153785D01*
X34090Y153931D01*
X35522Y154366D01*
X36843Y155071D01*
X38000Y156021D01*
X38950Y157178D01*
X39656Y158499D01*
X40090Y159931D01*
X40237Y161421D01*
X40090Y162911D01*
X39656Y164344D01*
X38950Y165664D01*
X38000Y166821D01*
X36843Y167771D01*
X35522Y168477D01*
X34090Y168911D01*
X32600Y169058D01*
D02*
G37*
G36*
X-500Y134100D02*
X-1099Y134022D01*
X-2122Y133598D01*
X-3002Y132923D01*
X-3676Y132044D01*
X-4100Y131020D01*
X-4179Y130421D01*
X-500D01*
Y134100D01*
D02*
G37*
G36*
X15248Y101496D02*
X8347D01*
Y95874D01*
X15248D01*
Y101496D01*
D02*
G37*
G36*
X23150D02*
X16248D01*
Y95874D01*
X23150D01*
Y101496D01*
D02*
G37*
G36*
X0Y103969D02*
X-1436Y103780D01*
X-2774Y103226D01*
X-3923Y102344D01*
X-4804Y101195D01*
X-5358Y99857D01*
X-5548Y98421D01*
X-5358Y96986D01*
X-4804Y95648D01*
X-3923Y94499D01*
X-2774Y93617D01*
X-1436Y93063D01*
X0Y92874D01*
X1436Y93063D01*
X2774Y93617D01*
X3923Y94499D01*
X4804Y95648D01*
X5358Y96986D01*
X5548Y98421D01*
X5358Y99857D01*
X4804Y101195D01*
X3923Y102344D01*
X2774Y103226D01*
X1436Y103780D01*
X0Y103969D01*
D02*
G37*
G36*
X23150Y94874D02*
X16248D01*
Y89252D01*
X23150D01*
Y94874D01*
D02*
G37*
G36*
X4179Y129421D02*
X500D01*
Y125742D01*
X1099Y125821D01*
X2122Y126245D01*
X3002Y126920D01*
X3676Y127799D01*
X4100Y128823D01*
X4179Y129421D01*
D02*
G37*
G36*
X-19869Y114973D02*
X-27375D01*
Y107468D01*
X-19869D01*
Y114973D01*
D02*
G37*
G36*
X-23622Y125006D02*
X-24602Y124877D01*
X-25515Y124498D01*
X-26298Y123897D01*
X-26900Y123113D01*
X-27278Y122200D01*
X-27407Y121221D01*
X-27278Y120241D01*
X-26900Y119328D01*
X-26298Y118544D01*
X-25515Y117943D01*
X-24602Y117564D01*
X-23622Y117435D01*
X-22642Y117564D01*
X-21730Y117943D01*
X-20946Y118544D01*
X-20344Y119328D01*
X-19966Y120241D01*
X-19837Y121221D01*
X-19966Y122200D01*
X-20344Y123113D01*
X-20946Y123897D01*
X-21730Y124498D01*
X-22642Y124877D01*
X-23622Y125006D01*
D02*
G37*
G36*
X-19185Y14842D02*
Y12311D01*
X-16654D01*
X-16693Y12613D01*
X-17003Y13360D01*
X-17495Y14001D01*
X-18136Y14493D01*
X-18883Y14803D01*
X-19185Y14842D01*
D02*
G37*
G36*
X-28059Y19185D02*
X-30591D01*
X-30551Y18883D01*
X-30241Y18136D01*
X-29749Y17495D01*
X-29108Y17003D01*
X-28361Y16693D01*
X-28059Y16654D01*
Y19185D01*
D02*
G37*
G36*
X-20185Y14842D02*
X-20487Y14803D01*
X-21234Y14493D01*
X-21875Y14001D01*
X-22367Y13360D01*
X-22677Y12613D01*
X-22717Y12311D01*
X-20185D01*
Y14842D01*
D02*
G37*
G36*
X-28059D02*
X-28361Y14803D01*
X-29108Y14493D01*
X-29749Y14001D01*
X-30241Y13360D01*
X-30551Y12613D01*
X-30591Y12311D01*
X-28059D01*
Y14842D01*
D02*
G37*
G36*
X-27059D02*
Y12311D01*
X-24528D01*
X-24567Y12613D01*
X-24877Y13360D01*
X-25369Y14001D01*
X-26010Y14493D01*
X-26757Y14803D01*
X-27059Y14842D01*
D02*
G37*
G36*
X-24528Y19185D02*
X-27059D01*
Y16654D01*
X-26757Y16693D01*
X-26010Y17003D01*
X-25369Y17495D01*
X-24877Y18136D01*
X-24567Y18883D01*
X-24528Y19185D01*
D02*
G37*
G36*
X-19185Y30591D02*
Y28059D01*
X-16654D01*
X-16693Y28361D01*
X-17003Y29108D01*
X-17495Y29749D01*
X-18136Y30241D01*
X-18883Y30551D01*
X-19185Y30591D01*
D02*
G37*
G36*
X-20185D02*
X-20487Y30551D01*
X-21234Y30241D01*
X-21875Y29749D01*
X-22367Y29108D01*
X-22677Y28361D01*
X-22717Y28059D01*
X-20185D01*
Y30591D01*
D02*
G37*
G36*
X-28059Y30630D02*
X-30630D01*
Y28059D01*
X-28059D01*
Y30630D01*
D02*
G37*
G36*
X-24488D02*
X-27059D01*
Y28059D01*
X-24488D01*
Y30630D01*
D02*
G37*
G36*
X-27059Y22717D02*
Y20185D01*
X-24528D01*
X-24567Y20487D01*
X-24877Y21234D01*
X-25369Y21875D01*
X-26010Y22367D01*
X-26757Y22677D01*
X-27059Y22717D01*
D02*
G37*
G36*
X-20185D02*
X-20487Y22677D01*
X-21234Y22367D01*
X-21875Y21875D01*
X-22367Y21234D01*
X-22677Y20487D01*
X-22717Y20185D01*
X-20185D01*
Y22717D01*
D02*
G37*
G36*
X-28059D02*
X-28361Y22677D01*
X-29108Y22367D01*
X-29749Y21875D01*
X-30241Y21234D01*
X-30551Y20487D01*
X-30591Y20185D01*
X-28059D01*
Y22717D01*
D02*
G37*
G36*
X-20185Y19185D02*
X-22717D01*
X-22677Y18883D01*
X-22367Y18136D01*
X-21875Y17495D01*
X-21234Y17003D01*
X-20487Y16693D01*
X-20185Y16654D01*
Y19185D01*
D02*
G37*
G36*
X-16654D02*
X-19185D01*
Y16654D01*
X-18883Y16693D01*
X-18136Y17003D01*
X-17495Y17495D01*
X-17003Y18136D01*
X-16693Y18883D01*
X-16654Y19185D01*
D02*
G37*
G36*
X-20185Y27059D02*
X-22717D01*
X-22677Y26757D01*
X-22367Y26010D01*
X-21875Y25369D01*
X-21234Y24877D01*
X-20487Y24567D01*
X-20185Y24528D01*
Y27059D01*
D02*
G37*
G36*
X-16654D02*
X-19185D01*
Y24528D01*
X-18883Y24567D01*
X-18136Y24877D01*
X-17495Y25369D01*
X-17003Y26010D01*
X-16693Y26757D01*
X-16654Y27059D01*
D02*
G37*
G36*
X-24488D02*
X-27059D01*
Y24488D01*
X-24488D01*
Y27059D01*
D02*
G37*
G36*
X-19185Y22717D02*
Y20185D01*
X-16654D01*
X-16693Y20487D01*
X-17003Y21234D01*
X-17495Y21875D01*
X-18136Y22367D01*
X-18883Y22677D01*
X-19185Y22717D01*
D02*
G37*
G36*
X-28059Y27059D02*
X-30630D01*
Y24488D01*
X-28059D01*
Y27059D01*
D02*
G37*
G36*
X671472Y-231050D02*
X669468D01*
X669341Y-231068D01*
X669049Y-231086D01*
X668739Y-231159D01*
X668721D01*
X668685Y-231178D01*
X668612Y-231196D01*
X668521Y-231232D01*
X668302Y-231342D01*
X668102Y-231469D01*
X668083D01*
X668065Y-231505D01*
X667974Y-231597D01*
X667846Y-231761D01*
X667737Y-231943D01*
Y-231961D01*
X667719Y-231997D01*
X667701Y-232052D01*
X667683Y-232125D01*
X667646Y-232325D01*
X667628Y-232562D01*
Y-232580D01*
Y-232599D01*
X667646Y-232708D01*
X667664Y-232854D01*
X667701Y-233018D01*
Y-233036D01*
X667719Y-233054D01*
X667755Y-233145D01*
X667828Y-233273D01*
X667938Y-233419D01*
X667974Y-233437D01*
X668047Y-233510D01*
X668193Y-233601D01*
X668357Y-233674D01*
X668375D01*
X668411Y-233692D01*
X668466Y-233710D01*
X668539D01*
X668739Y-233747D01*
X668994Y-233765D01*
X669086D01*
X669177Y-233747D01*
X669322Y-233728D01*
X669486Y-233692D01*
X669687Y-233637D01*
X669887Y-233564D01*
X670124Y-233473D01*
X670160Y-233455D01*
X670233Y-233419D01*
X670361Y-233346D01*
X670525Y-233236D01*
X670725Y-233109D01*
X670962Y-232945D01*
X671217Y-232763D01*
X671472Y-232526D01*
Y-231050D01*
D02*
G37*
%LPD*%
D10*
X141732Y129921D02*
D03*
X149803D02*
D03*
X133661D02*
D03*
D11*
X15748Y77854D02*
D03*
Y95374D02*
D03*
Y-77854D02*
D03*
Y-95374D02*
D03*
Y8760D02*
D03*
Y-8760D02*
D03*
X266452Y8760D02*
D03*
Y-8760D02*
D03*
D12*
X132972Y43307D02*
D03*
X150492D02*
D03*
D13*
X16248Y129921D02*
X133661D01*
X15748Y130421D02*
X16248Y129921D01*
D14*
X141732Y111221D02*
Y129921D01*
X-11811Y-86614D02*
Y-27559D01*
Y91535D01*
D15*
X-27870Y-157480D02*
D03*
Y157480D02*
D03*
X310070D02*
D03*
Y-157480D02*
D03*
D16*
X282198Y-98421D02*
D03*
X249598Y-161421D02*
D03*
X32098Y-98421D02*
D03*
X282198Y-11807D02*
D03*
X250098Y-74807D02*
D03*
X32598Y-11807D02*
D03*
X-2Y-74807D02*
D03*
Y11807D02*
D03*
X32098Y74807D02*
D03*
X249598Y11807D02*
D03*
X282198Y74807D02*
D03*
X0Y98421D02*
D03*
X32600Y161421D02*
D03*
X250100Y98421D02*
D03*
D17*
X282198Y-129921D02*
D03*
X-2D02*
D03*
X282198Y-43307D02*
D03*
X-2D02*
D03*
Y43307D02*
D03*
X282198D02*
D03*
X0Y129921D02*
D03*
X282200D02*
D03*
D18*
X-19685Y11811D02*
D03*
X-27559D02*
D03*
X-19685Y19685D02*
D03*
X-27559D02*
D03*
X-19685Y27559D02*
D03*
Y-11811D02*
D03*
X-27559D02*
D03*
X-19685Y-3937D02*
D03*
X-27559D02*
D03*
X-19685Y3937D02*
D03*
Y-27559D02*
D03*
X-27559D02*
D03*
X-19685Y-19685D02*
D03*
D19*
X-27559Y27559D02*
D03*
Y3937D02*
D03*
Y-19685D02*
D03*
D20*
X-23622Y111221D02*
D03*
Y81535D02*
D03*
Y52165D02*
D03*
D21*
Y121221D02*
D03*
Y91535D02*
D03*
Y62165D02*
D03*
Y-68898D02*
D03*
Y-86614D02*
D03*
Y-104331D02*
D03*
Y-51181D02*
D03*
Y-122047D02*
D03*
D22*
X-11811Y-86614D02*
D03*
Y91535D02*
D03*
X141732Y111221D02*
D03*
X-19685Y43307D02*
D03*
X-11811Y-27559D02*
D03*
M02*
