G04*
G04 #@! TF.GenerationSoftware,Altium Limited,Altium Designer,21.2.2 (38)*
G04*
G04 Layer_Color=16711935*
%FSLAX25Y25*%
%MOIN*%
G70*
G04*
G04 #@! TF.SameCoordinates,DAC03B0E-16BA-4501-B517-EA695224B78F*
G04*
G04*
G04 #@! TF.FilePolarity,Positive*
G04*
G01*
G75*
G36*
X780629Y-223575D02*
X780775Y-223594D01*
X780921Y-223648D01*
X780939D01*
X780957Y-223667D01*
X781048Y-223721D01*
X781158Y-223794D01*
X781267Y-223903D01*
X781303Y-223922D01*
X781358Y-223994D01*
X781449Y-224104D01*
X781522Y-224250D01*
X781540Y-224286D01*
X781577Y-224377D01*
X781595Y-224523D01*
X781613Y-224687D01*
Y-224705D01*
Y-224723D01*
X781595Y-224833D01*
X781577Y-224978D01*
X781522Y-225124D01*
X781504Y-225161D01*
X781449Y-225252D01*
X781376Y-225361D01*
X781267Y-225488D01*
X781249Y-225507D01*
X781176Y-225580D01*
X781067Y-225653D01*
X780921Y-225725D01*
X780884Y-225744D01*
X780793Y-225762D01*
X780648Y-225780D01*
X780483Y-225798D01*
X780447D01*
X780338Y-225780D01*
X780192Y-225762D01*
X780046Y-225725D01*
X780010Y-225707D01*
X779919Y-225653D01*
X779809Y-225580D01*
X779682Y-225488D01*
X779664Y-225452D01*
X779591Y-225379D01*
X779518Y-225270D01*
X779445Y-225124D01*
Y-225106D01*
X779427Y-225088D01*
X779409Y-224997D01*
X779390Y-224851D01*
X779372Y-224687D01*
Y-224669D01*
Y-224650D01*
X779390Y-224541D01*
X779409Y-224395D01*
X779445Y-224250D01*
Y-224231D01*
X779463Y-224213D01*
X779518Y-224122D01*
X779591Y-224013D01*
X779682Y-223903D01*
X779718Y-223867D01*
X779791Y-223812D01*
X779901Y-223721D01*
X780046Y-223648D01*
X780064D01*
X780083Y-223630D01*
X780174Y-223594D01*
X780319Y-223575D01*
X780483Y-223557D01*
X780520D01*
X780629Y-223575D01*
D02*
G37*
G36*
X717224Y-224395D02*
X717442Y-224413D01*
X717661Y-224432D01*
X718153Y-224505D01*
X718189D01*
X718262Y-224523D01*
X718390Y-224559D01*
X718554Y-224596D01*
X718736Y-224650D01*
X718936Y-224723D01*
X719392Y-224887D01*
Y-226327D01*
X719374Y-226308D01*
X719282Y-226272D01*
X719173Y-226217D01*
X719009Y-226144D01*
X718827Y-226072D01*
X718627Y-225999D01*
X718171Y-225853D01*
X718135D01*
X718062Y-225816D01*
X717934Y-225798D01*
X717770Y-225762D01*
X717570Y-225725D01*
X717333Y-225707D01*
X717078Y-225671D01*
X716677D01*
X716531Y-225689D01*
X716349Y-225707D01*
X716149Y-225744D01*
X715912Y-225798D01*
X715675Y-225871D01*
X715438Y-225962D01*
X715420Y-225980D01*
X715347Y-226017D01*
X715219Y-226090D01*
X715092Y-226181D01*
X714928Y-226290D01*
X714746Y-226436D01*
X714564Y-226600D01*
X714400Y-226800D01*
X714381Y-226819D01*
X714327Y-226891D01*
X714254Y-227001D01*
X714163Y-227165D01*
X714053Y-227347D01*
X713944Y-227584D01*
X713835Y-227839D01*
X713744Y-228112D01*
Y-228149D01*
X713707Y-228240D01*
X713671Y-228404D01*
X713634Y-228622D01*
X713598Y-228877D01*
X713561Y-229169D01*
X713543Y-229497D01*
X713525Y-229861D01*
Y-229879D01*
Y-229952D01*
Y-230062D01*
X713543Y-230207D01*
Y-230371D01*
X713561Y-230572D01*
X713598Y-230790D01*
X713634Y-231027D01*
X713726Y-231538D01*
X713871Y-232066D01*
X714090Y-232558D01*
X714217Y-232776D01*
X714363Y-232995D01*
X714381Y-233013D01*
X714400Y-233032D01*
X714454Y-233086D01*
X714527Y-233159D01*
X714600Y-233232D01*
X714709Y-233323D01*
X714837Y-233432D01*
X714983Y-233524D01*
X715147Y-233615D01*
X715329Y-233724D01*
X715548Y-233815D01*
X715766Y-233888D01*
X716003Y-233961D01*
X716258Y-233997D01*
X716549Y-234034D01*
X716841Y-234052D01*
X717096D01*
X717260Y-234034D01*
X717460Y-234015D01*
X717679Y-233997D01*
X718153Y-233906D01*
X718189D01*
X718262Y-233870D01*
X718390Y-233833D01*
X718554Y-233779D01*
X718736Y-233724D01*
X718936Y-233651D01*
X719392Y-233451D01*
Y-234835D01*
X719374D01*
X719337Y-234854D01*
X719264Y-234890D01*
X719173Y-234908D01*
X719046Y-234963D01*
X718900Y-234999D01*
X718754Y-235054D01*
X718572Y-235090D01*
X718153Y-235200D01*
X717697Y-235273D01*
X717205Y-235346D01*
X716677Y-235364D01*
X716586D01*
X716458Y-235346D01*
X716294D01*
X716112Y-235327D01*
X715894Y-235291D01*
X715657Y-235254D01*
X715383Y-235200D01*
X715110Y-235127D01*
X714819Y-235036D01*
X714527Y-234927D01*
X714236Y-234799D01*
X713962Y-234635D01*
X713689Y-234453D01*
X713416Y-234252D01*
X713179Y-234015D01*
X713161Y-233997D01*
X713124Y-233943D01*
X713069Y-233870D01*
X712997Y-233760D01*
X712906Y-233615D01*
X712796Y-233451D01*
X712687Y-233232D01*
X712578Y-232995D01*
X712468Y-232740D01*
X712359Y-232430D01*
X712250Y-232102D01*
X712158Y-231756D01*
X712086Y-231355D01*
X712031Y-230936D01*
X711995Y-230481D01*
X711976Y-230007D01*
Y-229989D01*
Y-229952D01*
Y-229879D01*
Y-229788D01*
X711995Y-229679D01*
Y-229533D01*
X712013Y-229224D01*
X712049Y-228877D01*
X712122Y-228477D01*
X712195Y-228076D01*
X712304Y-227675D01*
Y-227657D01*
X712323Y-227620D01*
X712341Y-227566D01*
X712359Y-227493D01*
X712450Y-227310D01*
X712541Y-227055D01*
X712687Y-226782D01*
X712851Y-226491D01*
X713033Y-226181D01*
X713252Y-225908D01*
X713288Y-225871D01*
X713361Y-225780D01*
X713507Y-225653D01*
X713689Y-225488D01*
X713908Y-225306D01*
X714163Y-225124D01*
X714454Y-224942D01*
X714764Y-224778D01*
X714782D01*
X714800Y-224760D01*
X714855Y-224742D01*
X714928Y-224723D01*
X715110Y-224650D01*
X715347Y-224577D01*
X715639Y-224505D01*
X715985Y-224432D01*
X716367Y-224395D01*
X716768Y-224377D01*
X717041D01*
X717224Y-224395D01*
D02*
G37*
G36*
X790687Y-226873D02*
X790778D01*
X790905Y-226891D01*
X791197Y-226946D01*
X791507Y-227037D01*
X791816Y-227183D01*
X792126Y-227365D01*
X792399Y-227620D01*
X792436Y-227657D01*
X792509Y-227766D01*
X792600Y-227930D01*
X792727Y-228185D01*
X792855Y-228495D01*
X792946Y-228896D01*
X793019Y-229351D01*
X793055Y-229879D01*
Y-235236D01*
X791634D01*
Y-229989D01*
Y-229971D01*
Y-229952D01*
Y-229898D01*
Y-229825D01*
X791616Y-229661D01*
X791598Y-229442D01*
X791543Y-229224D01*
X791488Y-228987D01*
X791397Y-228750D01*
X791270Y-228568D01*
X791252Y-228550D01*
X791197Y-228495D01*
X791124Y-228422D01*
X790997Y-228331D01*
X790851Y-228240D01*
X790668Y-228167D01*
X790450Y-228112D01*
X790195Y-228094D01*
X790104D01*
X790031Y-228112D01*
X789849Y-228130D01*
X789666Y-228185D01*
X789648D01*
X789630Y-228203D01*
X789521Y-228240D01*
X789357Y-228331D01*
X789156Y-228458D01*
X789138D01*
X789102Y-228495D01*
X789047Y-228531D01*
X788974Y-228586D01*
X788792Y-228750D01*
X788555Y-228969D01*
X788537Y-228987D01*
X788500Y-229023D01*
X788446Y-229096D01*
X788355Y-229187D01*
X788245Y-229315D01*
X788136Y-229461D01*
X788008Y-229606D01*
X787863Y-229788D01*
Y-235236D01*
X786442D01*
Y-227001D01*
X787699D01*
X787753Y-228331D01*
X787772Y-228313D01*
X787808Y-228258D01*
X787881Y-228185D01*
X787972Y-228094D01*
X788209Y-227857D01*
X788446Y-227639D01*
X788464Y-227620D01*
X788500Y-227584D01*
X788573Y-227529D01*
X788664Y-227474D01*
X788865Y-227329D01*
X789102Y-227183D01*
X789120D01*
X789156Y-227147D01*
X789229Y-227128D01*
X789302Y-227074D01*
X789521Y-227001D01*
X789757Y-226928D01*
X789776D01*
X789812Y-226910D01*
X789885D01*
X789976Y-226891D01*
X790213Y-226873D01*
X790468Y-226855D01*
X790596D01*
X790687Y-226873D01*
D02*
G37*
G36*
X689019Y-231137D02*
X692262Y-235236D01*
X690367D01*
X688126Y-232102D01*
X685940Y-235236D01*
X684100D01*
X687288Y-231100D01*
X684245Y-227001D01*
X686067D01*
X688217Y-230171D01*
X690349Y-227001D01*
X692116D01*
X689019Y-231137D01*
D02*
G37*
G36*
X756105Y-235236D02*
X754830D01*
X754775Y-233924D01*
X754757Y-233943D01*
X754720Y-233997D01*
X754648Y-234070D01*
X754557Y-234161D01*
X754320Y-234398D01*
X754065Y-234635D01*
X754046Y-234653D01*
X754010Y-234671D01*
X753937Y-234726D01*
X753864Y-234799D01*
X753646Y-234927D01*
X753409Y-235072D01*
X753390D01*
X753354Y-235090D01*
X753281Y-235127D01*
X753208Y-235163D01*
X752989Y-235236D01*
X752753Y-235309D01*
X752735D01*
X752698Y-235327D01*
X752625D01*
X752534Y-235346D01*
X752315Y-235364D01*
X752042Y-235382D01*
X751915D01*
X751842Y-235364D01*
X751732D01*
X751605Y-235346D01*
X751332Y-235291D01*
X751022Y-235200D01*
X750712Y-235072D01*
X750402Y-234890D01*
X750129Y-234653D01*
X750111Y-234617D01*
X750038Y-234507D01*
X749929Y-234343D01*
X749819Y-234088D01*
X749692Y-233779D01*
X749601Y-233378D01*
X749528Y-232922D01*
X749491Y-232394D01*
Y-227001D01*
X750913D01*
Y-232285D01*
Y-232303D01*
Y-232357D01*
X750931Y-232449D01*
Y-232576D01*
X750949Y-232722D01*
X750985Y-232886D01*
X751095Y-233214D01*
X751168Y-233396D01*
X751259Y-233560D01*
X751368Y-233724D01*
X751514Y-233870D01*
X751678Y-233979D01*
X751860Y-234088D01*
X752078Y-234143D01*
X752334Y-234161D01*
X752370D01*
X752498Y-234143D01*
X752662Y-234125D01*
X752844Y-234088D01*
X752862D01*
X752880Y-234070D01*
X752935Y-234052D01*
X753008Y-234034D01*
X753172Y-233943D01*
X753372Y-233833D01*
X753390Y-233815D01*
X753427Y-233797D01*
X753481Y-233760D01*
X753554Y-233687D01*
X753737Y-233524D01*
X753955Y-233305D01*
X753973Y-233287D01*
X754010Y-233250D01*
X754083Y-233177D01*
X754174Y-233068D01*
X754283Y-232959D01*
X754411Y-232813D01*
X754538Y-232649D01*
X754684Y-232467D01*
Y-227001D01*
X756105D01*
Y-235236D01*
D02*
G37*
G36*
X781431Y-234052D02*
X783891D01*
Y-235236D01*
X777295D01*
Y-234052D01*
X779992D01*
Y-228185D01*
X777568D01*
Y-227001D01*
X781431D01*
Y-234052D01*
D02*
G37*
G36*
X772193D02*
X774653D01*
Y-235236D01*
X768057D01*
Y-234052D01*
X770754D01*
Y-224814D01*
X768331D01*
Y-223648D01*
X772193D01*
Y-234052D01*
D02*
G37*
G36*
X725113Y-224541D02*
X725332Y-224559D01*
X725605Y-224596D01*
X725896Y-224669D01*
X726224Y-224742D01*
X726552Y-224851D01*
X726880Y-224978D01*
X727208Y-225161D01*
X727500Y-225361D01*
X727773Y-225616D01*
X727992Y-225926D01*
X728174Y-226272D01*
X728283Y-226673D01*
X728301Y-226891D01*
X728320Y-227128D01*
Y-227147D01*
Y-227165D01*
Y-227274D01*
X728301Y-227438D01*
X728265Y-227639D01*
X728210Y-227875D01*
X728137Y-228130D01*
X728046Y-228385D01*
X727901Y-228622D01*
X727882Y-228641D01*
X727828Y-228732D01*
X727718Y-228841D01*
X727591Y-228969D01*
X727409Y-229114D01*
X727172Y-229278D01*
X726898Y-229424D01*
X726571Y-229552D01*
X726589D01*
X726643Y-229570D01*
X726734Y-229588D01*
X726844Y-229606D01*
X727099Y-229697D01*
X727390Y-229825D01*
X727409D01*
X727463Y-229861D01*
X727536Y-229898D01*
X727627Y-229971D01*
X727846Y-230116D01*
X728065Y-230335D01*
X728083Y-230353D01*
X728119Y-230390D01*
X728174Y-230463D01*
X728229Y-230535D01*
X728301Y-230645D01*
X728374Y-230772D01*
X728520Y-231082D01*
Y-231100D01*
X728556Y-231155D01*
X728575Y-231246D01*
X728611Y-231355D01*
X728648Y-231501D01*
X728666Y-231665D01*
X728702Y-232030D01*
Y-232066D01*
Y-232157D01*
X728684Y-232303D01*
X728666Y-232503D01*
X728629Y-232704D01*
X728575Y-232941D01*
X728502Y-233177D01*
X728393Y-233414D01*
X728374Y-233432D01*
X728338Y-233505D01*
X728265Y-233615D01*
X728174Y-233760D01*
X728065Y-233906D01*
X727919Y-234088D01*
X727755Y-234252D01*
X727554Y-234416D01*
X727536Y-234435D01*
X727463Y-234489D01*
X727336Y-234562D01*
X727190Y-234635D01*
X726990Y-234744D01*
X726771Y-234854D01*
X726516Y-234945D01*
X726224Y-235036D01*
X726188D01*
X726097Y-235072D01*
X725933Y-235090D01*
X725732Y-235127D01*
X725477Y-235163D01*
X725186Y-235200D01*
X724858Y-235218D01*
X724512Y-235236D01*
X721761D01*
Y-224523D01*
X724931D01*
X725113Y-224541D01*
D02*
G37*
G36*
X706784D02*
X707021Y-224559D01*
X707276Y-224596D01*
X707822Y-224705D01*
X707859D01*
X707950Y-224742D01*
X708077Y-224778D01*
X708259Y-224851D01*
X708460Y-224924D01*
X708660Y-225033D01*
X708879Y-225142D01*
X709098Y-225288D01*
X709116Y-225306D01*
X709189Y-225361D01*
X709298Y-225434D01*
X709425Y-225561D01*
X709571Y-225707D01*
X709717Y-225871D01*
X709863Y-226072D01*
X709990Y-226290D01*
X710009Y-226327D01*
X710045Y-226399D01*
X710100Y-226527D01*
X710154Y-226709D01*
X710209Y-226928D01*
X710264Y-227183D01*
X710300Y-227474D01*
X710318Y-227802D01*
Y-227839D01*
Y-227912D01*
X710300Y-228039D01*
X710282Y-228203D01*
X710264Y-228404D01*
X710209Y-228641D01*
X710154Y-228877D01*
X710063Y-229114D01*
X710045Y-229151D01*
X710027Y-229224D01*
X709954Y-229351D01*
X709881Y-229497D01*
X709772Y-229679D01*
X709644Y-229861D01*
X709480Y-230062D01*
X709298Y-230262D01*
X709280Y-230280D01*
X709207Y-230353D01*
X709098Y-230444D01*
X708952Y-230554D01*
X708751Y-230681D01*
X708533Y-230827D01*
X708278Y-230955D01*
X707986Y-231082D01*
X707950Y-231100D01*
X707840Y-231137D01*
X707676Y-231173D01*
X707440Y-231228D01*
X707166Y-231301D01*
X706838Y-231337D01*
X706456Y-231374D01*
X706055Y-231392D01*
X704743D01*
Y-235236D01*
X703285D01*
Y-224523D01*
X706583D01*
X706784Y-224541D01*
D02*
G37*
G36*
X670580Y-234052D02*
X673040D01*
Y-235236D01*
X666444D01*
Y-234052D01*
X669141D01*
Y-224814D01*
X666718D01*
Y-223648D01*
X670580D01*
Y-234052D01*
D02*
G37*
G36*
X663529Y-225762D02*
X658974D01*
Y-229242D01*
X663274D01*
Y-230463D01*
X658974D01*
Y-235236D01*
X657480D01*
Y-224523D01*
X663529D01*
Y-225762D01*
D02*
G37*
G36*
X761644Y-227001D02*
X765361D01*
Y-228203D01*
X761644D01*
Y-232394D01*
Y-232412D01*
Y-232430D01*
Y-232540D01*
X761662Y-232685D01*
X761699Y-232886D01*
X761753Y-233104D01*
X761844Y-233323D01*
X761954Y-233524D01*
X762118Y-233706D01*
X762136Y-233724D01*
X762209Y-233779D01*
X762318Y-233852D01*
X762464Y-233924D01*
X762664Y-233997D01*
X762901Y-234070D01*
X763174Y-234125D01*
X763503Y-234143D01*
X763758D01*
X763885Y-234125D01*
X764049D01*
X764377Y-234088D01*
X764395D01*
X764468Y-234070D01*
X764559D01*
X764687Y-234034D01*
X764832Y-234015D01*
X764996Y-233979D01*
X765361Y-233888D01*
Y-235127D01*
X765343D01*
X765270Y-235145D01*
X765179Y-235163D01*
X765051Y-235181D01*
X764887Y-235218D01*
X764723Y-235236D01*
X764341Y-235291D01*
X764250D01*
X764158Y-235309D01*
X764013D01*
X763867Y-235327D01*
X763685D01*
X763302Y-235346D01*
X763156D01*
X763047Y-235327D01*
X762919D01*
X762774Y-235309D01*
X762428Y-235254D01*
X762063Y-235181D01*
X761681Y-235054D01*
X761316Y-234890D01*
X761134Y-234781D01*
X760988Y-234653D01*
X760952Y-234617D01*
X760861Y-234526D01*
X760751Y-234362D01*
X760605Y-234125D01*
X760460Y-233815D01*
X760350Y-233451D01*
X760259Y-233013D01*
X760223Y-232503D01*
Y-228203D01*
X757927D01*
Y-227001D01*
X760223D01*
Y-224742D01*
X761644Y-224359D01*
Y-227001D01*
D02*
G37*
G36*
X799378Y-226873D02*
X799578Y-226891D01*
X799815Y-226928D01*
X800070Y-226964D01*
X800325Y-227037D01*
X800580Y-227128D01*
X800617Y-227147D01*
X800690Y-227183D01*
X800817Y-227238D01*
X800981Y-227329D01*
X801145Y-227438D01*
X801345Y-227566D01*
X801528Y-227730D01*
X801710Y-227912D01*
X801728Y-227930D01*
X801783Y-228003D01*
X801874Y-228112D01*
X801965Y-228240D01*
X802074Y-228422D01*
X802202Y-228622D01*
X802311Y-228859D01*
X802402Y-229114D01*
X802420Y-229151D01*
X802439Y-229242D01*
X802475Y-229388D01*
X802530Y-229570D01*
X802566Y-229807D01*
X802603Y-230062D01*
X802621Y-230353D01*
X802639Y-230681D01*
Y-230699D01*
Y-230736D01*
Y-230790D01*
Y-230863D01*
Y-231027D01*
X802621Y-231210D01*
Y-231246D01*
Y-231337D01*
Y-231446D01*
X802603Y-231574D01*
X796827Y-231574D01*
Y-231592D01*
Y-231629D01*
Y-231701D01*
X796845Y-231774D01*
Y-231884D01*
X796863Y-232011D01*
X796918Y-232303D01*
X796991Y-232612D01*
X797118Y-232941D01*
X797282Y-233250D01*
X797519Y-233524D01*
X797556Y-233560D01*
X797647Y-233633D01*
X797811Y-233742D01*
X798048Y-233852D01*
X798339Y-233979D01*
X798685Y-234088D01*
X799086Y-234161D01*
X799560Y-234198D01*
X800015D01*
X800270Y-234179D01*
X800325D01*
X800398Y-234161D01*
X800489Y-234161D01*
X800726Y-234125D01*
X800963Y-234107D01*
X800981D01*
X801017Y-234088D01*
X801090D01*
X801182Y-234070D01*
X801382Y-234034D01*
X801619Y-233997D01*
X801637D01*
X801673Y-233979D01*
X801728Y-233961D01*
X801801Y-233943D01*
X802001Y-233906D01*
X802202Y-233852D01*
Y-235017D01*
X802184D01*
X802092Y-235036D01*
X801983Y-235072D01*
X801819Y-235109D01*
X801619Y-235145D01*
X801400Y-235200D01*
X801145Y-235236D01*
X800872Y-235273D01*
X800835D01*
X800744Y-235291D01*
X800598Y-235309D01*
X800416Y-235327D01*
X800179Y-235346D01*
X799924Y-235364D01*
X799651Y-235382D01*
X799177D01*
X798977Y-235364D01*
X798740Y-235346D01*
X798448Y-235309D01*
X798139Y-235273D01*
X797829Y-235200D01*
X797537Y-235109D01*
X797501Y-235090D01*
X797410Y-235054D01*
X797264Y-234981D01*
X797100Y-234890D01*
X796900Y-234781D01*
X796681Y-234635D01*
X796481Y-234471D01*
X796280Y-234271D01*
X796262Y-234252D01*
X796207Y-234179D01*
X796116Y-234052D01*
X796007Y-233906D01*
X795879Y-233706D01*
X795770Y-233487D01*
X795643Y-233214D01*
X795551Y-232941D01*
Y-232922D01*
Y-232904D01*
X795515Y-232795D01*
X795479Y-232631D01*
X795442Y-232412D01*
X795406Y-232139D01*
X795369Y-231847D01*
X795351Y-231501D01*
X795333Y-231137D01*
Y-231118D01*
Y-231100D01*
Y-230991D01*
X795351Y-230827D01*
X795369Y-230608D01*
X795388Y-230371D01*
X795442Y-230098D01*
X795497Y-229807D01*
X795570Y-229515D01*
Y-229497D01*
X795588Y-229479D01*
X795624Y-229388D01*
X795679Y-229242D01*
X795752Y-229041D01*
X795861Y-228841D01*
X795989Y-228604D01*
X796135Y-228367D01*
X796299Y-228149D01*
X796317Y-228130D01*
X796390Y-228058D01*
X796499Y-227948D01*
X796627Y-227802D01*
X796809Y-227657D01*
X797009Y-227493D01*
X797228Y-227347D01*
X797483Y-227201D01*
X797519Y-227183D01*
X797610Y-227147D01*
X797756Y-227092D01*
X797938Y-227019D01*
X798175Y-226964D01*
X798448Y-226910D01*
X798740Y-226873D01*
X799068Y-226855D01*
X799214D01*
X799378Y-226873D01*
D02*
G37*
G36*
X744007Y-224377D02*
X744244Y-224413D01*
X744535Y-224450D01*
X744827Y-224523D01*
X745137Y-224614D01*
X745428Y-224742D01*
X745465Y-224760D01*
X745556Y-224814D01*
X745702Y-224905D01*
X745884Y-225015D01*
X746084Y-225179D01*
X746285Y-225361D01*
X746503Y-225580D01*
X746704Y-225835D01*
X746722Y-225871D01*
X746795Y-225962D01*
X746886Y-226108D01*
X746995Y-226308D01*
X747123Y-226564D01*
X747250Y-226855D01*
X747360Y-227183D01*
X747469Y-227547D01*
Y-227566D01*
X747487Y-227584D01*
Y-227639D01*
X747505Y-227730D01*
X747523Y-227821D01*
X747542Y-227930D01*
X747596Y-228203D01*
X747651Y-228531D01*
X747687Y-228914D01*
X747706Y-229351D01*
X747724Y-229807D01*
Y-229825D01*
Y-229861D01*
Y-229952D01*
Y-230044D01*
X747706Y-230171D01*
Y-230317D01*
X747687Y-230663D01*
X747633Y-231046D01*
X747578Y-231465D01*
X747487Y-231884D01*
X747378Y-232303D01*
Y-232321D01*
X747360Y-232357D01*
X747341Y-232412D01*
X747323Y-232485D01*
X747232Y-232667D01*
X747141Y-232922D01*
X746995Y-233196D01*
X746849Y-233487D01*
X746649Y-233779D01*
X746449Y-234052D01*
X746430Y-234088D01*
X746357Y-234161D01*
X746230Y-234289D01*
X746066Y-234435D01*
X745865Y-234598D01*
X745647Y-234763D01*
X745392Y-234908D01*
X745100Y-235054D01*
X745064Y-235072D01*
X744973Y-235109D01*
X744809Y-235163D01*
X744608Y-235218D01*
X744372Y-235273D01*
X744098Y-235327D01*
X743788Y-235364D01*
X743479Y-235382D01*
X743296D01*
X743114Y-235364D01*
X742859Y-235327D01*
X742586Y-235291D01*
X742276Y-235236D01*
X741966Y-235145D01*
X741675Y-235018D01*
X741639Y-234999D01*
X741547Y-234945D01*
X741402Y-234854D01*
X741238Y-234744D01*
X741019Y-234580D01*
X740819Y-234398D01*
X740600Y-234179D01*
X740400Y-233943D01*
X740381Y-233906D01*
X740308Y-233815D01*
X740217Y-233669D01*
X740108Y-233469D01*
X739999Y-233214D01*
X739871Y-232922D01*
X739762Y-232594D01*
X739652Y-232230D01*
Y-232212D01*
X739634Y-232175D01*
Y-232121D01*
X739616Y-232048D01*
X739598Y-231957D01*
X739580Y-231847D01*
X739543Y-231556D01*
X739489Y-231228D01*
X739452Y-230827D01*
X739434Y-230390D01*
X739416Y-229934D01*
Y-229916D01*
Y-229879D01*
Y-229788D01*
Y-229697D01*
X739434Y-229570D01*
Y-229424D01*
X739452Y-229096D01*
X739489Y-228695D01*
X739561Y-228294D01*
X739634Y-227857D01*
X739744Y-227456D01*
Y-227438D01*
X739762Y-227402D01*
X739780Y-227347D01*
X739798Y-227274D01*
X739871Y-227092D01*
X739981Y-226837D01*
X740108Y-226564D01*
X740272Y-226272D01*
X740454Y-225999D01*
X740655Y-225725D01*
X740673Y-225689D01*
X740764Y-225616D01*
X740873Y-225488D01*
X741037Y-225343D01*
X741238Y-225179D01*
X741474Y-224997D01*
X741730Y-224851D01*
X742003Y-224705D01*
X742039Y-224687D01*
X742130Y-224650D01*
X742294Y-224596D01*
X742495Y-224523D01*
X742732Y-224468D01*
X743023Y-224413D01*
X743315Y-224377D01*
X743643Y-224359D01*
X743807D01*
X744007Y-224377D01*
D02*
G37*
G36*
X679290Y-226873D02*
X679490Y-226891D01*
X679727Y-226928D01*
X679982Y-226964D01*
X680237Y-227037D01*
X680492Y-227128D01*
X680529Y-227147D01*
X680602Y-227183D01*
X680729Y-227238D01*
X680893Y-227329D01*
X681057Y-227438D01*
X681257Y-227566D01*
X681440Y-227730D01*
X681622Y-227912D01*
X681640Y-227930D01*
X681695Y-228003D01*
X681786Y-228112D01*
X681877Y-228240D01*
X681986Y-228422D01*
X682114Y-228622D01*
X682223Y-228859D01*
X682314Y-229114D01*
X682332Y-229151D01*
X682351Y-229242D01*
X682387Y-229388D01*
X682442Y-229570D01*
X682478Y-229807D01*
X682515Y-230062D01*
X682533Y-230353D01*
X682551Y-230681D01*
Y-230699D01*
Y-230736D01*
Y-230790D01*
Y-230863D01*
Y-231027D01*
X682533Y-231210D01*
Y-231246D01*
Y-231337D01*
Y-231447D01*
X682515Y-231574D01*
X676739D01*
Y-231592D01*
Y-231629D01*
Y-231701D01*
X676757Y-231774D01*
Y-231884D01*
X676775Y-232011D01*
X676830Y-232303D01*
X676903Y-232612D01*
X677030Y-232941D01*
X677194Y-233250D01*
X677431Y-233524D01*
X677468Y-233560D01*
X677559Y-233633D01*
X677723Y-233742D01*
X677960Y-233852D01*
X678251Y-233979D01*
X678597Y-234088D01*
X678998Y-234161D01*
X679472Y-234198D01*
X679927D01*
X680182Y-234179D01*
X680237D01*
X680310Y-234161D01*
X680401D01*
X680638Y-234125D01*
X680875Y-234107D01*
X680893D01*
X680929Y-234088D01*
X681002D01*
X681093Y-234070D01*
X681294Y-234034D01*
X681531Y-233997D01*
X681549D01*
X681585Y-233979D01*
X681640Y-233961D01*
X681713Y-233943D01*
X681913Y-233906D01*
X682114Y-233852D01*
Y-235018D01*
X682095D01*
X682004Y-235036D01*
X681895Y-235072D01*
X681731Y-235109D01*
X681531Y-235145D01*
X681312Y-235200D01*
X681057Y-235236D01*
X680784Y-235273D01*
X680747D01*
X680656Y-235291D01*
X680510Y-235309D01*
X680328Y-235327D01*
X680091Y-235346D01*
X679836Y-235364D01*
X679563Y-235382D01*
X679089D01*
X678889Y-235364D01*
X678652Y-235346D01*
X678360Y-235309D01*
X678051Y-235273D01*
X677741Y-235200D01*
X677449Y-235109D01*
X677413Y-235090D01*
X677322Y-235054D01*
X677176Y-234981D01*
X677012Y-234890D01*
X676812Y-234781D01*
X676593Y-234635D01*
X676393Y-234471D01*
X676192Y-234271D01*
X676174Y-234252D01*
X676119Y-234179D01*
X676028Y-234052D01*
X675919Y-233906D01*
X675791Y-233706D01*
X675682Y-233487D01*
X675555Y-233214D01*
X675463Y-232941D01*
Y-232922D01*
Y-232904D01*
X675427Y-232795D01*
X675391Y-232631D01*
X675354Y-232412D01*
X675318Y-232139D01*
X675281Y-231847D01*
X675263Y-231501D01*
X675245Y-231137D01*
Y-231118D01*
Y-231100D01*
Y-230991D01*
X675263Y-230827D01*
X675281Y-230608D01*
X675300Y-230371D01*
X675354Y-230098D01*
X675409Y-229807D01*
X675482Y-229515D01*
Y-229497D01*
X675500Y-229479D01*
X675536Y-229388D01*
X675591Y-229242D01*
X675664Y-229041D01*
X675773Y-228841D01*
X675901Y-228604D01*
X676047Y-228367D01*
X676210Y-228149D01*
X676229Y-228130D01*
X676302Y-228058D01*
X676411Y-227948D01*
X676538Y-227802D01*
X676721Y-227657D01*
X676921Y-227493D01*
X677140Y-227347D01*
X677395Y-227201D01*
X677431Y-227183D01*
X677522Y-227147D01*
X677668Y-227092D01*
X677850Y-227019D01*
X678087Y-226964D01*
X678360Y-226910D01*
X678652Y-226873D01*
X678980Y-226855D01*
X679126D01*
X679290Y-226873D01*
D02*
G37*
%LPC*%
G36*
X724931Y-225762D02*
X723218D01*
Y-229096D01*
X724840D01*
X724949Y-229078D01*
X725095D01*
X725241Y-229060D01*
X725550Y-229005D01*
X725568D01*
X725623Y-228987D01*
X725696Y-228950D01*
X725787Y-228914D01*
X726006Y-228823D01*
X726243Y-228677D01*
X726261Y-228659D01*
X726297Y-228641D01*
X726407Y-228531D01*
X726552Y-228349D01*
X726698Y-228130D01*
Y-228112D01*
X726716Y-228076D01*
X726753Y-228003D01*
X726789Y-227894D01*
X726807Y-227784D01*
X726844Y-227639D01*
X726862Y-227329D01*
Y-227310D01*
Y-227274D01*
Y-227219D01*
X726844Y-227128D01*
X726826Y-226946D01*
X726753Y-226728D01*
Y-226709D01*
X726734Y-226673D01*
X726716Y-226618D01*
X726680Y-226564D01*
X726571Y-226399D01*
X726407Y-226236D01*
X726388Y-226217D01*
X726370Y-226199D01*
X726315Y-226163D01*
X726243Y-226108D01*
X726152Y-226053D01*
X726024Y-225999D01*
X725896Y-225944D01*
X725751Y-225889D01*
X725732D01*
X725678Y-225871D01*
X725587Y-225853D01*
X725459Y-225816D01*
X725313Y-225798D01*
X725131Y-225780D01*
X724931Y-225762D01*
D02*
G37*
G36*
X724913Y-230317D02*
X723218D01*
Y-233997D01*
X724949D01*
X725058Y-233979D01*
X725186D01*
X725459Y-233943D01*
X725769Y-233888D01*
X726079Y-233797D01*
X726370Y-233687D01*
X726625Y-233542D01*
X726643Y-233524D01*
X726716Y-233451D01*
X726826Y-233341D01*
X726935Y-233177D01*
X727044Y-232977D01*
X727154Y-232722D01*
X727226Y-232430D01*
X727245Y-232084D01*
Y-232066D01*
Y-232011D01*
Y-231938D01*
X727226Y-231847D01*
X727172Y-231610D01*
X727063Y-231355D01*
Y-231337D01*
X727026Y-231301D01*
X726990Y-231246D01*
X726935Y-231155D01*
X726789Y-230991D01*
X726571Y-230809D01*
X726552Y-230790D01*
X726516Y-230772D01*
X726443Y-230718D01*
X726352Y-230681D01*
X726224Y-230608D01*
X726097Y-230554D01*
X725769Y-230444D01*
X725751D01*
X725678Y-230426D01*
X725587Y-230408D01*
X725459Y-230371D01*
X725295Y-230353D01*
X725113Y-230335D01*
X724913Y-230317D01*
D02*
G37*
G36*
X706219Y-225744D02*
X704743D01*
Y-230153D01*
X706219D01*
X706310Y-230135D01*
X706419D01*
X706547Y-230116D01*
X706820Y-230080D01*
X707148Y-230007D01*
X707476Y-229916D01*
X707804Y-229770D01*
X708096Y-229588D01*
X708132Y-229570D01*
X708205Y-229479D01*
X708314Y-229351D01*
X708460Y-229169D01*
X708587Y-228914D01*
X708697Y-228622D01*
X708770Y-228276D01*
X708806Y-227875D01*
Y-227857D01*
Y-227839D01*
Y-227784D01*
X708788Y-227711D01*
X708770Y-227529D01*
X708715Y-227292D01*
X708642Y-227037D01*
X708514Y-226782D01*
X708351Y-226527D01*
X708114Y-226308D01*
X708077Y-226290D01*
X707986Y-226217D01*
X707840Y-226126D01*
X707622Y-226017D01*
X707348Y-225926D01*
X707039Y-225835D01*
X706656Y-225762D01*
X706219Y-225744D01*
D02*
G37*
G36*
X799195Y-228003D02*
X798831D01*
X798722Y-228021D01*
X798594Y-228039D01*
X798448Y-228076D01*
X798139Y-228185D01*
X798120D01*
X798084Y-228222D01*
X798011Y-228258D01*
X797920Y-228313D01*
X797701Y-228477D01*
X797483Y-228695D01*
X797465Y-228713D01*
X797446Y-228750D01*
X797392Y-228823D01*
X797319Y-228914D01*
X797246Y-229023D01*
X797173Y-229169D01*
X797027Y-229479D01*
Y-229497D01*
X797009Y-229552D01*
X796973Y-229643D01*
X796936Y-229770D01*
X796900Y-229916D01*
X796881Y-230098D01*
X796827Y-230481D01*
X801163Y-230481D01*
Y-230463D01*
Y-230390D01*
Y-230280D01*
Y-230153D01*
X801145Y-230007D01*
X801127Y-229843D01*
X801036Y-229497D01*
Y-229479D01*
X801017Y-229424D01*
X800981Y-229333D01*
X800945Y-229224D01*
X800817Y-228969D01*
X800635Y-228713D01*
X800617Y-228695D01*
X800580Y-228659D01*
X800525Y-228604D01*
X800453Y-228531D01*
X800343Y-228440D01*
X800234Y-228367D01*
X799942Y-228203D01*
X799924Y-228185D01*
X799870Y-228167D01*
X799779Y-228130D01*
X799669Y-228094D01*
X799542Y-228058D01*
X799378Y-228039D01*
X799195Y-228003D01*
D02*
G37*
G36*
X743552Y-225634D02*
X743442D01*
X743296Y-225653D01*
X743132Y-225671D01*
X742950Y-225725D01*
X742732Y-225780D01*
X742531Y-225871D01*
X742331Y-225980D01*
X742313Y-225999D01*
X742258Y-226035D01*
X742167Y-226108D01*
X742039Y-226217D01*
X741912Y-226345D01*
X741784Y-226509D01*
X741639Y-226691D01*
X741511Y-226891D01*
X741493Y-226910D01*
X741456Y-226982D01*
X741402Y-227110D01*
X741329Y-227274D01*
X741256Y-227456D01*
X741165Y-227693D01*
X741092Y-227948D01*
X741019Y-228222D01*
Y-228258D01*
X741001Y-228349D01*
X740983Y-228513D01*
X740946Y-228713D01*
X740928Y-228950D01*
X740892Y-229224D01*
X740873Y-229533D01*
Y-229843D01*
Y-229861D01*
Y-229879D01*
Y-229934D01*
Y-230007D01*
Y-230189D01*
X740892Y-230408D01*
X740910Y-230681D01*
X740928Y-230973D01*
X741019Y-231592D01*
Y-231629D01*
X741055Y-231720D01*
X741074Y-231866D01*
X741128Y-232048D01*
X741201Y-232266D01*
X741274Y-232485D01*
X741365Y-232722D01*
X741474Y-232941D01*
X741493Y-232959D01*
X741529Y-233032D01*
X741602Y-233123D01*
X741711Y-233250D01*
X741821Y-233396D01*
X741966Y-233524D01*
X742130Y-233669D01*
X742313Y-233797D01*
X742331Y-233815D01*
X742404Y-233852D01*
X742513Y-233888D01*
X742659Y-233943D01*
X742841Y-234015D01*
X743060Y-234052D01*
X743296Y-234088D01*
X743552Y-234107D01*
X743679D01*
X743807Y-234088D01*
X743971Y-234070D01*
X744171Y-234034D01*
X744372Y-233961D01*
X744572Y-233888D01*
X744772Y-233779D01*
X744791Y-233760D01*
X744863Y-233724D01*
X744954Y-233651D01*
X745064Y-233542D01*
X745210Y-233414D01*
X745337Y-233268D01*
X745483Y-233086D01*
X745611Y-232886D01*
X745629Y-232868D01*
X745665Y-232776D01*
X745720Y-232667D01*
X745793Y-232503D01*
X745884Y-232303D01*
X745957Y-232084D01*
X746030Y-231829D01*
X746102Y-231556D01*
Y-231519D01*
X746121Y-231428D01*
X746157Y-231264D01*
X746194Y-231064D01*
X746212Y-230827D01*
X746248Y-230535D01*
X746266Y-230244D01*
Y-229916D01*
Y-229898D01*
Y-229879D01*
Y-229825D01*
Y-229752D01*
Y-229570D01*
X746248Y-229351D01*
X746230Y-229078D01*
X746194Y-228786D01*
X746102Y-228185D01*
Y-228167D01*
Y-228149D01*
X746084Y-228058D01*
X746048Y-227912D01*
X745993Y-227730D01*
X745920Y-227511D01*
X745847Y-227292D01*
X745738Y-227055D01*
X745629Y-226837D01*
X745611Y-226819D01*
X745574Y-226746D01*
X745501Y-226636D01*
X745410Y-226509D01*
X745283Y-226381D01*
X745137Y-226236D01*
X744973Y-226090D01*
X744791Y-225962D01*
X744772Y-225944D01*
X744699Y-225908D01*
X744590Y-225853D01*
X744444Y-225798D01*
X744262Y-225744D01*
X744062Y-225689D01*
X743807Y-225653D01*
X743552Y-225634D01*
D02*
G37*
G36*
X679107Y-228003D02*
X678743D01*
X678634Y-228021D01*
X678506Y-228039D01*
X678360Y-228076D01*
X678051Y-228185D01*
X678032D01*
X677996Y-228222D01*
X677923Y-228258D01*
X677832Y-228313D01*
X677613Y-228477D01*
X677395Y-228695D01*
X677377Y-228713D01*
X677358Y-228750D01*
X677304Y-228823D01*
X677231Y-228914D01*
X677158Y-229023D01*
X677085Y-229169D01*
X676939Y-229479D01*
Y-229497D01*
X676921Y-229552D01*
X676885Y-229643D01*
X676848Y-229770D01*
X676812Y-229916D01*
X676793Y-230098D01*
X676739Y-230481D01*
X681075D01*
Y-230463D01*
Y-230390D01*
Y-230280D01*
Y-230153D01*
X681057Y-230007D01*
X681039Y-229843D01*
X680948Y-229497D01*
Y-229479D01*
X680929Y-229424D01*
X680893Y-229333D01*
X680857Y-229224D01*
X680729Y-228969D01*
X680547Y-228713D01*
X680529Y-228695D01*
X680492Y-228659D01*
X680438Y-228604D01*
X680365Y-228531D01*
X680255Y-228440D01*
X680146Y-228367D01*
X679854Y-228203D01*
X679836Y-228185D01*
X679782Y-228167D01*
X679691Y-228130D01*
X679581Y-228094D01*
X679454Y-228058D01*
X679290Y-228039D01*
X679107Y-228003D01*
D02*
G37*
%LPD*%
M02*
