G04*
G04 #@! TF.GenerationSoftware,Altium Limited,Altium Designer,21.2.2 (38)*
G04*
G04 Layer_Color=32896*
%FSLAX25Y25*%
%MOIN*%
G70*
G04*
G04 #@! TF.SameCoordinates,DAC03B0E-16BA-4501-B517-EA695224B78F*
G04*
G04*
G04 #@! TF.FilePolarity,Positive*
G04*
G01*
G75*
G36*
X790090Y-223300D02*
X790236Y-223318D01*
X790381Y-223373D01*
X790400D01*
X790418Y-223391D01*
X790509Y-223446D01*
X790618Y-223518D01*
X790728Y-223628D01*
X790764Y-223646D01*
X790819Y-223719D01*
X790910Y-223828D01*
X790983Y-223974D01*
X791001Y-224010D01*
X791037Y-224101D01*
X791055Y-224247D01*
X791074Y-224411D01*
Y-224429D01*
Y-224448D01*
X791055Y-224557D01*
X791037Y-224703D01*
X790983Y-224849D01*
X790964Y-224885D01*
X790910Y-224976D01*
X790837Y-225085D01*
X790728Y-225213D01*
X790709Y-225231D01*
X790636Y-225304D01*
X790527Y-225377D01*
X790381Y-225450D01*
X790345Y-225468D01*
X790254Y-225486D01*
X790108Y-225504D01*
X789944Y-225523D01*
X789908D01*
X789798Y-225504D01*
X789652Y-225486D01*
X789507Y-225450D01*
X789470Y-225432D01*
X789379Y-225377D01*
X789270Y-225304D01*
X789142Y-225213D01*
X789124Y-225177D01*
X789051Y-225104D01*
X788978Y-224994D01*
X788905Y-224849D01*
Y-224830D01*
X788887Y-224812D01*
X788869Y-224721D01*
X788851Y-224575D01*
X788833Y-224411D01*
Y-224393D01*
Y-224375D01*
X788851Y-224266D01*
X788869Y-224120D01*
X788905Y-223974D01*
Y-223956D01*
X788924Y-223938D01*
X788978Y-223846D01*
X789051Y-223737D01*
X789142Y-223628D01*
X789179Y-223591D01*
X789252Y-223537D01*
X789361Y-223446D01*
X789507Y-223373D01*
X789525D01*
X789543Y-223355D01*
X789634Y-223318D01*
X789780Y-223300D01*
X789944Y-223282D01*
X789981D01*
X790090Y-223300D01*
D02*
G37*
G36*
X688477Y-223300D02*
X688623Y-223318D01*
X688768Y-223373D01*
X688787D01*
X688805Y-223391D01*
X688896Y-223446D01*
X689005Y-223518D01*
X689115Y-223628D01*
X689151Y-223646D01*
X689206Y-223719D01*
X689297Y-223828D01*
X689370Y-223974D01*
X689388Y-224010D01*
X689424Y-224101D01*
X689442Y-224247D01*
X689461Y-224411D01*
Y-224429D01*
Y-224448D01*
X689442Y-224557D01*
X689424Y-224703D01*
X689370Y-224849D01*
X689351Y-224885D01*
X689297Y-224976D01*
X689224Y-225085D01*
X689115Y-225213D01*
X689096Y-225231D01*
X689023Y-225304D01*
X688914Y-225377D01*
X688768Y-225450D01*
X688732Y-225468D01*
X688641Y-225486D01*
X688495Y-225504D01*
X688331Y-225523D01*
X688295D01*
X688185Y-225504D01*
X688040Y-225486D01*
X687894Y-225450D01*
X687857Y-225432D01*
X687766Y-225377D01*
X687657Y-225304D01*
X687529Y-225213D01*
X687511Y-225177D01*
X687438Y-225104D01*
X687365Y-224994D01*
X687293Y-224849D01*
Y-224830D01*
X687274Y-224812D01*
X687256Y-224721D01*
X687238Y-224575D01*
X687220Y-224411D01*
Y-224393D01*
Y-224375D01*
X687238Y-224266D01*
X687256Y-224120D01*
X687293Y-223974D01*
Y-223956D01*
X687311Y-223938D01*
X687365Y-223846D01*
X687438Y-223737D01*
X687529Y-223628D01*
X687566Y-223591D01*
X687639Y-223537D01*
X687748Y-223446D01*
X687894Y-223373D01*
X687912D01*
X687930Y-223355D01*
X688021Y-223318D01*
X688167Y-223300D01*
X688331Y-223282D01*
X688368D01*
X688477Y-223300D01*
D02*
G37*
G36*
X670002Y-223300D02*
X670148Y-223318D01*
X670293Y-223373D01*
X670311D01*
X670330Y-223391D01*
X670421Y-223446D01*
X670530Y-223518D01*
X670640Y-223628D01*
X670676Y-223646D01*
X670731Y-223719D01*
X670822Y-223828D01*
X670894Y-223974D01*
X670913Y-224010D01*
X670949Y-224101D01*
X670967Y-224247D01*
X670986Y-224411D01*
Y-224429D01*
Y-224448D01*
X670967Y-224557D01*
X670949Y-224703D01*
X670894Y-224849D01*
X670876Y-224885D01*
X670822Y-224976D01*
X670749Y-225085D01*
X670640Y-225213D01*
X670621Y-225231D01*
X670548Y-225304D01*
X670439Y-225377D01*
X670293Y-225450D01*
X670257Y-225468D01*
X670166Y-225486D01*
X670020Y-225504D01*
X669856Y-225523D01*
X669820D01*
X669710Y-225504D01*
X669564Y-225486D01*
X669419Y-225450D01*
X669382Y-225432D01*
X669291Y-225377D01*
X669182Y-225304D01*
X669054Y-225213D01*
X669036Y-225177D01*
X668963Y-225104D01*
X668890Y-224994D01*
X668818Y-224849D01*
Y-224830D01*
X668799Y-224812D01*
X668781Y-224721D01*
X668763Y-224575D01*
X668745Y-224411D01*
Y-224393D01*
Y-224375D01*
X668763Y-224266D01*
X668781Y-224120D01*
X668818Y-223974D01*
Y-223956D01*
X668836Y-223938D01*
X668890Y-223846D01*
X668963Y-223737D01*
X669054Y-223628D01*
X669091Y-223591D01*
X669164Y-223537D01*
X669273Y-223446D01*
X669419Y-223373D01*
X669437D01*
X669455Y-223355D01*
X669546Y-223318D01*
X669692Y-223300D01*
X669856Y-223282D01*
X669893D01*
X670002Y-223300D01*
D02*
G37*
G36*
X726684Y-224120D02*
X726903Y-224138D01*
X727121Y-224156D01*
X727613Y-224229D01*
X727650D01*
X727723Y-224247D01*
X727850Y-224284D01*
X728014Y-224320D01*
X728196Y-224375D01*
X728397Y-224448D01*
X728852Y-224612D01*
Y-226051D01*
X728834Y-226033D01*
X728743Y-225996D01*
X728634Y-225942D01*
X728470Y-225869D01*
X728288Y-225796D01*
X728087Y-225723D01*
X727632Y-225577D01*
X727595D01*
X727522Y-225541D01*
X727395Y-225523D01*
X727231Y-225486D01*
X727030Y-225450D01*
X726793Y-225432D01*
X726538Y-225395D01*
X726138D01*
X725992Y-225413D01*
X725810Y-225432D01*
X725609Y-225468D01*
X725372Y-225523D01*
X725136Y-225595D01*
X724899Y-225687D01*
X724880Y-225705D01*
X724808Y-225741D01*
X724680Y-225814D01*
X724552Y-225905D01*
X724389Y-226015D01*
X724206Y-226160D01*
X724024Y-226324D01*
X723860Y-226525D01*
X723842Y-226543D01*
X723787Y-226616D01*
X723714Y-226725D01*
X723623Y-226889D01*
X723514Y-227071D01*
X723405Y-227308D01*
X723295Y-227563D01*
X723204Y-227837D01*
Y-227873D01*
X723168Y-227964D01*
X723131Y-228128D01*
X723095Y-228347D01*
X723058Y-228602D01*
X723022Y-228893D01*
X723004Y-229221D01*
X722986Y-229586D01*
Y-229604D01*
Y-229677D01*
Y-229786D01*
X723004Y-229932D01*
Y-230096D01*
X723022Y-230296D01*
X723058Y-230515D01*
X723095Y-230752D01*
X723186Y-231262D01*
X723332Y-231790D01*
X723550Y-232282D01*
X723678Y-232501D01*
X723824Y-232720D01*
X723842Y-232738D01*
X723860Y-232756D01*
X723915Y-232811D01*
X723988Y-232884D01*
X724060Y-232956D01*
X724170Y-233048D01*
X724297Y-233157D01*
X724443Y-233248D01*
X724607Y-233339D01*
X724789Y-233448D01*
X725008Y-233540D01*
X725227Y-233612D01*
X725463Y-233685D01*
X725718Y-233722D01*
X726010Y-233758D01*
X726302Y-233776D01*
X726557D01*
X726721Y-233758D01*
X726921Y-233740D01*
X727140Y-233722D01*
X727613Y-233631D01*
X727650D01*
X727723Y-233594D01*
X727850Y-233558D01*
X728014Y-233503D01*
X728196Y-233448D01*
X728397Y-233376D01*
X728852Y-233175D01*
Y-234560D01*
X728834D01*
X728798Y-234578D01*
X728725Y-234614D01*
X728634Y-234633D01*
X728506Y-234687D01*
X728360Y-234724D01*
X728215Y-234778D01*
X728032Y-234815D01*
X727613Y-234924D01*
X727158Y-234997D01*
X726666Y-235070D01*
X726138Y-235088D01*
X726047D01*
X725919Y-235070D01*
X725755D01*
X725573Y-235052D01*
X725354Y-235015D01*
X725117Y-234979D01*
X724844Y-234924D01*
X724571Y-234851D01*
X724279Y-234760D01*
X723988Y-234651D01*
X723696Y-234523D01*
X723423Y-234359D01*
X723149Y-234177D01*
X722876Y-233977D01*
X722639Y-233740D01*
X722621Y-233722D01*
X722585Y-233667D01*
X722530Y-233594D01*
X722457Y-233485D01*
X722366Y-233339D01*
X722257Y-233175D01*
X722147Y-232956D01*
X722038Y-232720D01*
X721929Y-232465D01*
X721819Y-232155D01*
X721710Y-231827D01*
X721619Y-231481D01*
X721546Y-231080D01*
X721491Y-230661D01*
X721455Y-230205D01*
X721437Y-229731D01*
Y-229713D01*
Y-229677D01*
Y-229604D01*
Y-229513D01*
X721455Y-229403D01*
Y-229258D01*
X721473Y-228948D01*
X721510Y-228602D01*
X721583Y-228201D01*
X721656Y-227800D01*
X721765Y-227399D01*
Y-227381D01*
X721783Y-227345D01*
X721801Y-227290D01*
X721819Y-227217D01*
X721910Y-227035D01*
X722002Y-226780D01*
X722147Y-226506D01*
X722311Y-226215D01*
X722494Y-225905D01*
X722712Y-225632D01*
X722749Y-225595D01*
X722822Y-225504D01*
X722967Y-225377D01*
X723149Y-225213D01*
X723368Y-225031D01*
X723623Y-224849D01*
X723915Y-224666D01*
X724225Y-224502D01*
X724243D01*
X724261Y-224484D01*
X724316Y-224466D01*
X724389Y-224448D01*
X724571Y-224375D01*
X724808Y-224302D01*
X725099Y-224229D01*
X725445Y-224156D01*
X725828Y-224120D01*
X726229Y-224101D01*
X726502D01*
X726684Y-224120D01*
D02*
G37*
G36*
X700866Y-234961D02*
X699573D01*
X699518Y-233412D01*
Y-233430D01*
X699500Y-233448D01*
X699409Y-233558D01*
X699299Y-233703D01*
X699135Y-233904D01*
X698935Y-234104D01*
X698716Y-234323D01*
X698480Y-234523D01*
X698224Y-234705D01*
X698188Y-234724D01*
X698097Y-234760D01*
X697969Y-234833D01*
X697769Y-234906D01*
X697550Y-234979D01*
X697295Y-235052D01*
X697022Y-235088D01*
X696712Y-235106D01*
X696603D01*
X696457Y-235088D01*
X696293Y-235070D01*
X696111Y-235033D01*
X695892Y-234979D01*
X695692Y-234906D01*
X695473Y-234815D01*
X695455Y-234797D01*
X695382Y-234760D01*
X695291Y-234687D01*
X695164Y-234596D01*
X695018Y-234487D01*
X694872Y-234341D01*
X694726Y-234177D01*
X694581Y-233995D01*
X694562Y-233977D01*
X694526Y-233904D01*
X694453Y-233776D01*
X694380Y-233631D01*
X694289Y-233430D01*
X694198Y-233211D01*
X694107Y-232975D01*
X694034Y-232701D01*
Y-232665D01*
X694016Y-232574D01*
X693979Y-232410D01*
X693961Y-232209D01*
X693925Y-231954D01*
X693888Y-231663D01*
X693870Y-231353D01*
Y-231025D01*
Y-231007D01*
Y-230970D01*
Y-230916D01*
Y-230843D01*
X693888Y-230661D01*
X693906Y-230406D01*
X693943Y-230114D01*
X693979Y-229804D01*
X694052Y-229476D01*
X694143Y-229167D01*
Y-229148D01*
X694162Y-229130D01*
X694198Y-229021D01*
X694271Y-228875D01*
X694362Y-228693D01*
X694471Y-228474D01*
X694617Y-228237D01*
X694781Y-228001D01*
X694963Y-227782D01*
X694981Y-227764D01*
X695054Y-227691D01*
X695164Y-227582D01*
X695328Y-227454D01*
X695510Y-227326D01*
X695728Y-227181D01*
X695965Y-227053D01*
X696239Y-226926D01*
X696275Y-226907D01*
X696366Y-226871D01*
X696530Y-226835D01*
X696731Y-226780D01*
X696967Y-226725D01*
X697259Y-226671D01*
X697569Y-226652D01*
X697897Y-226634D01*
X698133D01*
X698388Y-226652D01*
X698662Y-226689D01*
X698680D01*
X698735Y-226707D01*
X698808D01*
X698899Y-226725D01*
X699154Y-226780D01*
X699427Y-226853D01*
Y-223373D01*
X700866D01*
Y-234961D01*
D02*
G37*
G36*
X800147Y-226598D02*
X800238D01*
X800366Y-226616D01*
X800657Y-226671D01*
X800967Y-226762D01*
X801277Y-226907D01*
X801587Y-227090D01*
X801860Y-227345D01*
X801896Y-227381D01*
X801969Y-227490D01*
X802060Y-227654D01*
X802188Y-227909D01*
X802315Y-228219D01*
X802407Y-228620D01*
X802479Y-229076D01*
X802516Y-229604D01*
Y-234961D01*
X801095D01*
Y-229713D01*
Y-229695D01*
Y-229677D01*
Y-229622D01*
Y-229549D01*
X801077Y-229385D01*
X801058Y-229167D01*
X801004Y-228948D01*
X800949Y-228711D01*
X800858Y-228474D01*
X800730Y-228292D01*
X800712Y-228274D01*
X800657Y-228219D01*
X800585Y-228146D01*
X800457Y-228055D01*
X800311Y-227964D01*
X800129Y-227891D01*
X799910Y-227837D01*
X799655Y-227818D01*
X799564D01*
X799491Y-227837D01*
X799309Y-227855D01*
X799127Y-227909D01*
X799109D01*
X799090Y-227928D01*
X798981Y-227964D01*
X798817Y-228055D01*
X798617Y-228183D01*
X798598D01*
X798562Y-228219D01*
X798507Y-228256D01*
X798435Y-228310D01*
X798252Y-228474D01*
X798015Y-228693D01*
X797997Y-228711D01*
X797961Y-228748D01*
X797906Y-228820D01*
X797815Y-228912D01*
X797706Y-229039D01*
X797596Y-229185D01*
X797469Y-229331D01*
X797323Y-229513D01*
Y-234961D01*
X795902D01*
Y-226725D01*
X797159D01*
X797214Y-228055D01*
X797232Y-228037D01*
X797268Y-227982D01*
X797341Y-227909D01*
X797432Y-227818D01*
X797669Y-227582D01*
X797906Y-227363D01*
X797924Y-227345D01*
X797961Y-227308D01*
X798034Y-227254D01*
X798125Y-227199D01*
X798325Y-227053D01*
X798562Y-226907D01*
X798580D01*
X798617Y-226871D01*
X798690Y-226853D01*
X798763Y-226798D01*
X798981Y-226725D01*
X799218Y-226652D01*
X799236D01*
X799273Y-226634D01*
X799346D01*
X799437Y-226616D01*
X799674Y-226598D01*
X799929Y-226579D01*
X800056D01*
X800147Y-226598D01*
D02*
G37*
G36*
X679367Y-226598D02*
X679567Y-226634D01*
X679622D01*
X679731Y-226652D01*
X679895Y-226689D01*
X680059Y-226725D01*
X683047D01*
Y-227891D01*
X681717D01*
X681736Y-227909D01*
X681754Y-227946D01*
X681808Y-228001D01*
X681845Y-228092D01*
X681972Y-228292D01*
X682082Y-228565D01*
Y-228584D01*
X682100Y-228638D01*
X682118Y-228711D01*
X682155Y-228802D01*
X682173Y-228930D01*
X682191Y-229076D01*
X682209Y-229385D01*
Y-229422D01*
Y-229495D01*
X682191Y-229622D01*
X682173Y-229768D01*
X682155Y-229950D01*
X682118Y-230151D01*
X682045Y-230351D01*
X681972Y-230551D01*
X681954Y-230570D01*
X681936Y-230643D01*
X681881Y-230734D01*
X681808Y-230861D01*
X681699Y-231007D01*
X681590Y-231153D01*
X681462Y-231317D01*
X681298Y-231462D01*
X681280Y-231481D01*
X681225Y-231517D01*
X681134Y-231590D01*
X681007Y-231681D01*
X680861Y-231772D01*
X680697Y-231863D01*
X680497Y-231954D01*
X680278Y-232045D01*
X680260D01*
X680168Y-232082D01*
X680059Y-232100D01*
X679895Y-232137D01*
X679713Y-232173D01*
X679494Y-232209D01*
X679239Y-232228D01*
X678984Y-232246D01*
X678802D01*
X678675Y-232228D01*
X678529D01*
X678365Y-232191D01*
X678019Y-232137D01*
X678000D01*
X677946Y-232118D01*
X677855Y-232100D01*
X677764Y-232064D01*
X677527Y-231973D01*
X677417Y-231918D01*
X677308Y-231863D01*
Y-231881D01*
X677290Y-231900D01*
X677217Y-232009D01*
X677144Y-232155D01*
X677053Y-232300D01*
X677035Y-232337D01*
X677016Y-232428D01*
X676980Y-232574D01*
X676962Y-232756D01*
Y-232774D01*
Y-232811D01*
X676980Y-232865D01*
X676998Y-232938D01*
X677035Y-233029D01*
X677089Y-233120D01*
X677162Y-233211D01*
X677253Y-233284D01*
X677272D01*
X677308Y-233321D01*
X677381Y-233357D01*
X677454Y-233394D01*
X677581Y-233430D01*
X677709Y-233467D01*
X677855Y-233485D01*
X678037Y-233503D01*
X680205Y-233594D01*
X680424D01*
X680588Y-233612D01*
X680752Y-233631D01*
X680952Y-233649D01*
X681335Y-233740D01*
X681353D01*
X681426Y-233758D01*
X681517Y-233794D01*
X681644Y-233849D01*
X681936Y-233977D01*
X682227Y-234159D01*
X682246Y-234177D01*
X682282Y-234195D01*
X682355Y-234268D01*
X682446Y-234341D01*
X682628Y-234542D01*
X682810Y-234797D01*
X682829Y-234815D01*
X682847Y-234870D01*
X682883Y-234942D01*
X682920Y-235033D01*
X682956Y-235161D01*
X682993Y-235325D01*
X683029Y-235489D01*
Y-235671D01*
Y-235689D01*
Y-235762D01*
X683011Y-235872D01*
X682993Y-235999D01*
X682974Y-236163D01*
X682920Y-236345D01*
X682865Y-236528D01*
X682774Y-236710D01*
X682756Y-236728D01*
X682738Y-236783D01*
X682665Y-236892D01*
X682592Y-237001D01*
X682501Y-237129D01*
X682373Y-237275D01*
X682227Y-237420D01*
X682045Y-237566D01*
X682027Y-237584D01*
X681954Y-237621D01*
X681845Y-237694D01*
X681699Y-237785D01*
X681517Y-237876D01*
X681316Y-237985D01*
X681061Y-238076D01*
X680788Y-238167D01*
X680752Y-238186D01*
X680660Y-238204D01*
X680497Y-238240D01*
X680278Y-238277D01*
X680005Y-238331D01*
X679713Y-238368D01*
X679367Y-238386D01*
X678984Y-238404D01*
X678820D01*
X678638Y-238386D01*
X678401D01*
X678128Y-238368D01*
X677836Y-238331D01*
X677545Y-238295D01*
X677272Y-238240D01*
X677235D01*
X677162Y-238204D01*
X677035Y-238167D01*
X676871Y-238113D01*
X676688Y-238058D01*
X676488Y-237985D01*
X676306Y-237894D01*
X676124Y-237785D01*
X676105Y-237767D01*
X676051Y-237730D01*
X675978Y-237675D01*
X675869Y-237602D01*
X675759Y-237493D01*
X675650Y-237384D01*
X675559Y-237256D01*
X675468Y-237111D01*
Y-237092D01*
X675431Y-237038D01*
X675413Y-236965D01*
X675377Y-236856D01*
X675340Y-236728D01*
X675304Y-236582D01*
X675286Y-236418D01*
X675267Y-236254D01*
Y-236236D01*
Y-236163D01*
X675286Y-236054D01*
X675304Y-235908D01*
X675340Y-235744D01*
X675377Y-235562D01*
X675450Y-235398D01*
X675541Y-235216D01*
X675559Y-235197D01*
X675595Y-235143D01*
X675650Y-235052D01*
X675759Y-234942D01*
X675869Y-234815D01*
X676014Y-234669D01*
X676197Y-234523D01*
X676397Y-234359D01*
X676361Y-234341D01*
X676269Y-234286D01*
X676160Y-234214D01*
X676033Y-234122D01*
X676014Y-234086D01*
X675942Y-234013D01*
X675869Y-233922D01*
X675777Y-233794D01*
X675759Y-233758D01*
X675723Y-233685D01*
X675686Y-233558D01*
X675632Y-233412D01*
Y-233394D01*
Y-233376D01*
X675613Y-233284D01*
X675595Y-233157D01*
Y-233029D01*
Y-233011D01*
Y-232938D01*
X675613Y-232847D01*
X675632Y-232701D01*
X675650Y-232556D01*
X675705Y-232392D01*
X675759Y-232228D01*
X675832Y-232064D01*
X675850Y-232045D01*
X675887Y-231991D01*
X675923Y-231900D01*
X675996Y-231790D01*
X676087Y-231663D01*
X676178Y-231517D01*
X676415Y-231207D01*
X676397Y-231171D01*
X676324Y-231098D01*
X676233Y-230970D01*
X676142Y-230843D01*
X676124Y-230806D01*
X676069Y-230734D01*
X676014Y-230606D01*
X675942Y-230460D01*
Y-230442D01*
X675923Y-230424D01*
X675887Y-230314D01*
X675850Y-230169D01*
X675814Y-230005D01*
Y-229987D01*
Y-229968D01*
X675796Y-229914D01*
Y-229841D01*
X675777Y-229677D01*
Y-229458D01*
Y-229422D01*
Y-229349D01*
X675796Y-229221D01*
X675814Y-229076D01*
X675832Y-228893D01*
X675869Y-228693D01*
X675923Y-228492D01*
X675996Y-228292D01*
X676014Y-228274D01*
X676033Y-228201D01*
X676087Y-228110D01*
X676160Y-227982D01*
X676269Y-227837D01*
X676379Y-227691D01*
X676506Y-227527D01*
X676652Y-227381D01*
X676670Y-227363D01*
X676725Y-227326D01*
X676816Y-227254D01*
X676944Y-227163D01*
X677089Y-227071D01*
X677253Y-226980D01*
X677454Y-226889D01*
X677672Y-226798D01*
X677709Y-226780D01*
X677782Y-226762D01*
X677909Y-226725D01*
X678055Y-226689D01*
X678255Y-226652D01*
X678474Y-226616D01*
X678729Y-226579D01*
X679166D01*
X679367Y-226598D01*
D02*
G37*
G36*
X765566Y-234961D02*
X764290D01*
X764236Y-233649D01*
X764217Y-233667D01*
X764181Y-233722D01*
X764108Y-233794D01*
X764017Y-233886D01*
X763780Y-234122D01*
X763525Y-234359D01*
X763507Y-234378D01*
X763470Y-234396D01*
X763398Y-234451D01*
X763325Y-234523D01*
X763106Y-234651D01*
X762869Y-234797D01*
X762851D01*
X762815Y-234815D01*
X762742Y-234851D01*
X762669Y-234888D01*
X762450Y-234961D01*
X762213Y-235033D01*
X762195D01*
X762158Y-235052D01*
X762086D01*
X761995Y-235070D01*
X761776Y-235088D01*
X761503Y-235106D01*
X761375D01*
X761302Y-235088D01*
X761193D01*
X761065Y-235070D01*
X760792Y-235015D01*
X760482Y-234924D01*
X760173Y-234797D01*
X759863Y-234614D01*
X759589Y-234378D01*
X759571Y-234341D01*
X759498Y-234232D01*
X759389Y-234068D01*
X759280Y-233813D01*
X759152Y-233503D01*
X759061Y-233102D01*
X758988Y-232647D01*
X758952Y-232118D01*
Y-226725D01*
X760373D01*
Y-232009D01*
Y-232027D01*
Y-232082D01*
X760391Y-232173D01*
Y-232300D01*
X760409Y-232446D01*
X760446Y-232610D01*
X760555Y-232938D01*
X760628Y-233120D01*
X760719Y-233284D01*
X760828Y-233448D01*
X760974Y-233594D01*
X761138Y-233703D01*
X761320Y-233813D01*
X761539Y-233867D01*
X761794Y-233886D01*
X761831D01*
X761958Y-233867D01*
X762122Y-233849D01*
X762304Y-233813D01*
X762323D01*
X762341Y-233794D01*
X762395Y-233776D01*
X762468Y-233758D01*
X762632Y-233667D01*
X762833Y-233558D01*
X762851Y-233539D01*
X762887Y-233521D01*
X762942Y-233485D01*
X763015Y-233412D01*
X763197Y-233248D01*
X763416Y-233029D01*
X763434Y-233011D01*
X763470Y-232975D01*
X763543Y-232902D01*
X763634Y-232792D01*
X763744Y-232683D01*
X763871Y-232537D01*
X763999Y-232373D01*
X764145Y-232191D01*
Y-226725D01*
X765566D01*
Y-234961D01*
D02*
G37*
G36*
X790892Y-233776D02*
X793351D01*
Y-234961D01*
X786756D01*
Y-233776D01*
X789452D01*
Y-227909D01*
X787029D01*
Y-226725D01*
X790892D01*
Y-233776D01*
D02*
G37*
G36*
X781654D02*
X784114D01*
Y-234961D01*
X777518D01*
Y-233776D01*
X780215D01*
Y-224539D01*
X777791D01*
Y-223373D01*
X781654D01*
Y-233776D01*
D02*
G37*
G36*
X734573Y-224266D02*
X734792Y-224284D01*
X735065Y-224320D01*
X735357Y-224393D01*
X735685Y-224466D01*
X736013Y-224575D01*
X736341Y-224703D01*
X736669Y-224885D01*
X736960Y-225085D01*
X737234Y-225341D01*
X737452Y-225650D01*
X737634Y-225996D01*
X737744Y-226397D01*
X737762Y-226616D01*
X737780Y-226853D01*
Y-226871D01*
Y-226889D01*
Y-226998D01*
X737762Y-227163D01*
X737725Y-227363D01*
X737671Y-227600D01*
X737598Y-227855D01*
X737507Y-228110D01*
X737361Y-228347D01*
X737343Y-228365D01*
X737288Y-228456D01*
X737179Y-228565D01*
X737051Y-228693D01*
X736869Y-228839D01*
X736632Y-229003D01*
X736359Y-229148D01*
X736031Y-229276D01*
X736049D01*
X736104Y-229294D01*
X736195Y-229312D01*
X736304Y-229331D01*
X736559Y-229422D01*
X736851Y-229549D01*
X736869D01*
X736924Y-229586D01*
X736997Y-229622D01*
X737088Y-229695D01*
X737306Y-229841D01*
X737525Y-230059D01*
X737543Y-230078D01*
X737580Y-230114D01*
X737634Y-230187D01*
X737689Y-230260D01*
X737762Y-230369D01*
X737835Y-230497D01*
X737981Y-230806D01*
Y-230825D01*
X738017Y-230879D01*
X738035Y-230970D01*
X738072Y-231080D01*
X738108Y-231225D01*
X738126Y-231389D01*
X738163Y-231754D01*
Y-231790D01*
Y-231881D01*
X738145Y-232027D01*
X738126Y-232228D01*
X738090Y-232428D01*
X738035Y-232665D01*
X737962Y-232902D01*
X737853Y-233139D01*
X737835Y-233157D01*
X737798Y-233230D01*
X737725Y-233339D01*
X737634Y-233485D01*
X737525Y-233631D01*
X737379Y-233813D01*
X737215Y-233977D01*
X737015Y-234141D01*
X736997Y-234159D01*
X736924Y-234214D01*
X736796Y-234286D01*
X736651Y-234359D01*
X736450Y-234469D01*
X736232Y-234578D01*
X735976Y-234669D01*
X735685Y-234760D01*
X735648D01*
X735557Y-234797D01*
X735393Y-234815D01*
X735193Y-234851D01*
X734938Y-234888D01*
X734646Y-234924D01*
X734318Y-234942D01*
X733972Y-234961D01*
X731221D01*
Y-224247D01*
X734391D01*
X734573Y-224266D01*
D02*
G37*
G36*
X716244D02*
X716481Y-224284D01*
X716736Y-224320D01*
X717283Y-224429D01*
X717319D01*
X717410Y-224466D01*
X717538Y-224502D01*
X717720Y-224575D01*
X717920Y-224648D01*
X718121Y-224757D01*
X718339Y-224867D01*
X718558Y-225012D01*
X718576Y-225031D01*
X718649Y-225085D01*
X718758Y-225158D01*
X718886Y-225286D01*
X719032Y-225432D01*
X719177Y-225595D01*
X719323Y-225796D01*
X719451Y-226015D01*
X719469Y-226051D01*
X719506Y-226124D01*
X719560Y-226252D01*
X719615Y-226434D01*
X719669Y-226652D01*
X719724Y-226907D01*
X719761Y-227199D01*
X719779Y-227527D01*
Y-227563D01*
Y-227636D01*
X719761Y-227764D01*
X719742Y-227928D01*
X719724Y-228128D01*
X719669Y-228365D01*
X719615Y-228602D01*
X719524Y-228839D01*
X719506Y-228875D01*
X719487Y-228948D01*
X719414Y-229076D01*
X719342Y-229221D01*
X719232Y-229403D01*
X719105Y-229586D01*
X718941Y-229786D01*
X718758Y-229987D01*
X718740Y-230005D01*
X718667Y-230078D01*
X718558Y-230169D01*
X718412Y-230278D01*
X718212Y-230406D01*
X717993Y-230551D01*
X717738Y-230679D01*
X717447Y-230806D01*
X717410Y-230825D01*
X717301Y-230861D01*
X717137Y-230898D01*
X716900Y-230952D01*
X716627Y-231025D01*
X716299Y-231062D01*
X715916Y-231098D01*
X715515Y-231116D01*
X714204D01*
Y-234961D01*
X712746D01*
Y-224247D01*
X716044D01*
X716244Y-224266D01*
D02*
G37*
G36*
X689279Y-233776D02*
X691738D01*
Y-234961D01*
X685143Y-234961D01*
Y-233776D01*
X687839Y-233776D01*
Y-227909D01*
X685416Y-227909D01*
Y-226725D01*
X689279Y-226725D01*
Y-233776D01*
D02*
G37*
G36*
X670803Y-233776D02*
X673263D01*
Y-234961D01*
X666668D01*
Y-233776D01*
X669364D01*
Y-227909D01*
X666941D01*
Y-226725D01*
X670803D01*
Y-233776D01*
D02*
G37*
G36*
X660618Y-224266D02*
X660837D01*
X661092Y-224302D01*
X661366Y-224338D01*
X661639Y-224393D01*
X661894Y-224466D01*
X661930D01*
X662003Y-224502D01*
X662131Y-224557D01*
X662277Y-224612D01*
X662459Y-224685D01*
X662641Y-224794D01*
X662823Y-224903D01*
X662987Y-225031D01*
X663005Y-225049D01*
X663060Y-225104D01*
X663133Y-225177D01*
X663224Y-225286D01*
X663333Y-225413D01*
X663443Y-225559D01*
X663534Y-225741D01*
X663625Y-225923D01*
X663643Y-225942D01*
X663661Y-226015D01*
X663698Y-226124D01*
X663734Y-226270D01*
X663770Y-226434D01*
X663807Y-226634D01*
X663843Y-226835D01*
Y-227071D01*
Y-227090D01*
Y-227163D01*
Y-227254D01*
X663825Y-227381D01*
X663807Y-227527D01*
X663770Y-227691D01*
X663679Y-228037D01*
Y-228055D01*
X663661Y-228110D01*
X663625Y-228201D01*
X663570Y-228292D01*
X663443Y-228565D01*
X663242Y-228839D01*
X663224Y-228857D01*
X663188Y-228893D01*
X663133Y-228966D01*
X663042Y-229057D01*
X662932Y-229149D01*
X662805Y-229258D01*
X662513Y-229476D01*
X662495Y-229495D01*
X662440Y-229513D01*
X662349Y-229568D01*
X662240Y-229622D01*
X662094Y-229677D01*
X661930Y-229750D01*
X661730Y-229804D01*
X661529Y-229859D01*
X661548D01*
X661602Y-229895D01*
X661693Y-229932D01*
X661803Y-229987D01*
X661912Y-230060D01*
X662040Y-230169D01*
X662167Y-230278D01*
X662295Y-230424D01*
X662313Y-230442D01*
X662349Y-230497D01*
X662422Y-230570D01*
X662495Y-230697D01*
X662604Y-230843D01*
X662714Y-231007D01*
X662823Y-231225D01*
X662951Y-231444D01*
X664663Y-234961D01*
X663005D01*
X661402Y-231535D01*
Y-231517D01*
X661366Y-231462D01*
X661329Y-231408D01*
X661293Y-231317D01*
X661165Y-231098D01*
X661019Y-230898D01*
Y-230879D01*
X660983Y-230843D01*
X660910Y-230734D01*
X660782Y-230606D01*
X660618Y-230479D01*
X660600D01*
X660582Y-230460D01*
X660473Y-230387D01*
X660327Y-230333D01*
X660145Y-230260D01*
X660126D01*
X660108Y-230242D01*
X660054D01*
X659981Y-230223D01*
X659799Y-230205D01*
X659562Y-230187D01*
X658888D01*
Y-234961D01*
X657430D01*
Y-224247D01*
X660455D01*
X660618Y-224266D01*
D02*
G37*
G36*
X771105Y-226725D02*
X774821D01*
Y-227928D01*
X771105D01*
Y-232118D01*
Y-232137D01*
Y-232155D01*
Y-232264D01*
X771123Y-232410D01*
X771159Y-232610D01*
X771214Y-232829D01*
X771305Y-233048D01*
X771414Y-233248D01*
X771578Y-233430D01*
X771596Y-233448D01*
X771669Y-233503D01*
X771779Y-233576D01*
X771924Y-233649D01*
X772125Y-233722D01*
X772362Y-233794D01*
X772635Y-233849D01*
X772963Y-233867D01*
X773218D01*
X773346Y-233849D01*
X773510D01*
X773838Y-233813D01*
X773856D01*
X773929Y-233794D01*
X774020D01*
X774147Y-233758D01*
X774293Y-233740D01*
X774457Y-233703D01*
X774821Y-233612D01*
Y-234851D01*
X774803D01*
X774730Y-234870D01*
X774639Y-234888D01*
X774512Y-234906D01*
X774348Y-234942D01*
X774184Y-234961D01*
X773801Y-235015D01*
X773710D01*
X773619Y-235033D01*
X773473D01*
X773327Y-235052D01*
X773145D01*
X772763Y-235070D01*
X772617D01*
X772507Y-235052D01*
X772380D01*
X772234Y-235033D01*
X771888Y-234979D01*
X771524Y-234906D01*
X771141Y-234778D01*
X770777Y-234614D01*
X770594Y-234505D01*
X770449Y-234378D01*
X770412Y-234341D01*
X770321Y-234250D01*
X770212Y-234086D01*
X770066Y-233849D01*
X769920Y-233539D01*
X769811Y-233175D01*
X769720Y-232738D01*
X769683Y-232228D01*
Y-227928D01*
X767388D01*
Y-226725D01*
X769683D01*
Y-224466D01*
X771105Y-224083D01*
Y-226725D01*
D02*
G37*
G36*
X808838Y-226598D02*
X809039Y-226616D01*
X809276Y-226652D01*
X809531Y-226689D01*
X809786Y-226762D01*
X810041Y-226853D01*
X810077Y-226871D01*
X810150Y-226907D01*
X810277Y-226962D01*
X810441Y-227053D01*
X810606Y-227162D01*
X810806Y-227290D01*
X810988Y-227454D01*
X811170Y-227636D01*
X811189Y-227654D01*
X811243Y-227727D01*
X811334Y-227837D01*
X811425Y-227964D01*
X811535Y-228146D01*
X811662Y-228347D01*
X811772Y-228584D01*
X811863Y-228839D01*
X811881Y-228875D01*
X811899Y-228966D01*
X811936Y-229112D01*
X811990Y-229294D01*
X812027Y-229531D01*
X812063Y-229786D01*
X812081Y-230078D01*
X812099Y-230406D01*
Y-230424D01*
Y-230460D01*
Y-230515D01*
Y-230588D01*
Y-230752D01*
X812081Y-230934D01*
Y-230970D01*
Y-231062D01*
Y-231171D01*
X812063Y-231298D01*
X806287D01*
Y-231317D01*
Y-231353D01*
Y-231426D01*
X806306Y-231499D01*
Y-231608D01*
X806324Y-231736D01*
X806378Y-232027D01*
X806451Y-232337D01*
X806579Y-232665D01*
X806743Y-232975D01*
X806980Y-233248D01*
X807016Y-233284D01*
X807107Y-233357D01*
X807271Y-233467D01*
X807508Y-233576D01*
X807800Y-233703D01*
X808146Y-233813D01*
X808547Y-233886D01*
X809020Y-233922D01*
X809476D01*
X809731Y-233904D01*
X809786D01*
X809859Y-233886D01*
X809950D01*
X810186Y-233849D01*
X810423Y-233831D01*
X810441D01*
X810478Y-233813D01*
X810551D01*
X810642Y-233794D01*
X810842Y-233758D01*
X811079Y-233722D01*
X811098D01*
X811134Y-233703D01*
X811189Y-233685D01*
X811261Y-233667D01*
X811462Y-233630D01*
X811662Y-233576D01*
Y-234742D01*
X811644D01*
X811553Y-234760D01*
X811444Y-234797D01*
X811280Y-234833D01*
X811079Y-234870D01*
X810861Y-234924D01*
X810606Y-234961D01*
X810332Y-234997D01*
X810296D01*
X810205Y-235015D01*
X810059Y-235033D01*
X809877Y-235052D01*
X809640Y-235070D01*
X809385Y-235088D01*
X809111Y-235106D01*
X808638D01*
X808437Y-235088D01*
X808200Y-235070D01*
X807909Y-235033D01*
X807599Y-234997D01*
X807290Y-234924D01*
X806998Y-234833D01*
X806962Y-234815D01*
X806870Y-234778D01*
X806725Y-234705D01*
X806561Y-234614D01*
X806360Y-234505D01*
X806142Y-234359D01*
X805941Y-234195D01*
X805741Y-233995D01*
X805723Y-233977D01*
X805668Y-233904D01*
X805577Y-233776D01*
X805468Y-233630D01*
X805340Y-233430D01*
X805231Y-233211D01*
X805103Y-232938D01*
X805012Y-232665D01*
Y-232647D01*
Y-232628D01*
X804976Y-232519D01*
X804939Y-232355D01*
X804903Y-232137D01*
X804866Y-231863D01*
X804830Y-231572D01*
X804811Y-231225D01*
X804793Y-230861D01*
Y-230843D01*
Y-230825D01*
Y-230715D01*
X804811Y-230551D01*
X804830Y-230333D01*
X804848Y-230096D01*
X804903Y-229823D01*
X804957Y-229531D01*
X805030Y-229240D01*
Y-229221D01*
X805048Y-229203D01*
X805085Y-229112D01*
X805140Y-228966D01*
X805212Y-228766D01*
X805322Y-228565D01*
X805449Y-228328D01*
X805595Y-228092D01*
X805759Y-227873D01*
X805777Y-227855D01*
X805850Y-227782D01*
X805959Y-227673D01*
X806087Y-227527D01*
X806269Y-227381D01*
X806470Y-227217D01*
X806688Y-227071D01*
X806943Y-226926D01*
X806980Y-226907D01*
X807071Y-226871D01*
X807217Y-226816D01*
X807399Y-226743D01*
X807636Y-226689D01*
X807909Y-226634D01*
X808200Y-226598D01*
X808528Y-226579D01*
X808674D01*
X808838Y-226598D01*
D02*
G37*
G36*
X753468Y-224101D02*
X753704Y-224138D01*
X753996Y-224174D01*
X754287Y-224247D01*
X754597Y-224338D01*
X754889Y-224466D01*
X754925Y-224484D01*
X755016Y-224539D01*
X755162Y-224630D01*
X755344Y-224739D01*
X755545Y-224903D01*
X755745Y-225085D01*
X755964Y-225304D01*
X756164Y-225559D01*
X756182Y-225595D01*
X756255Y-225687D01*
X756346Y-225832D01*
X756456Y-226033D01*
X756583Y-226288D01*
X756711Y-226579D01*
X756820Y-226907D01*
X756929Y-227272D01*
Y-227290D01*
X756948Y-227308D01*
Y-227363D01*
X756966Y-227454D01*
X756984Y-227545D01*
X757002Y-227654D01*
X757057Y-227928D01*
X757112Y-228256D01*
X757148Y-228638D01*
X757166Y-229076D01*
X757185Y-229531D01*
Y-229549D01*
Y-229586D01*
Y-229677D01*
Y-229768D01*
X757166Y-229895D01*
Y-230041D01*
X757148Y-230387D01*
X757093Y-230770D01*
X757039Y-231189D01*
X756948Y-231608D01*
X756838Y-232027D01*
Y-232045D01*
X756820Y-232082D01*
X756802Y-232137D01*
X756784Y-232209D01*
X756693Y-232392D01*
X756601Y-232647D01*
X756456Y-232920D01*
X756310Y-233211D01*
X756110Y-233503D01*
X755909Y-233776D01*
X755891Y-233813D01*
X755818Y-233886D01*
X755690Y-234013D01*
X755526Y-234159D01*
X755326Y-234323D01*
X755107Y-234487D01*
X754852Y-234633D01*
X754561Y-234778D01*
X754524Y-234797D01*
X754433Y-234833D01*
X754269Y-234888D01*
X754069Y-234942D01*
X753832Y-234997D01*
X753559Y-235052D01*
X753249Y-235088D01*
X752939Y-235106D01*
X752757D01*
X752575Y-235088D01*
X752320Y-235052D01*
X752046Y-235015D01*
X751737Y-234961D01*
X751427Y-234870D01*
X751135Y-234742D01*
X751099Y-234724D01*
X751008Y-234669D01*
X750862Y-234578D01*
X750698Y-234469D01*
X750480Y-234305D01*
X750279Y-234122D01*
X750061Y-233904D01*
X749860Y-233667D01*
X749842Y-233630D01*
X749769Y-233539D01*
X749678Y-233394D01*
X749569Y-233193D01*
X749459Y-232938D01*
X749332Y-232647D01*
X749222Y-232319D01*
X749113Y-231954D01*
Y-231936D01*
X749095Y-231900D01*
Y-231845D01*
X749077Y-231772D01*
X749058Y-231681D01*
X749040Y-231572D01*
X749004Y-231280D01*
X748949Y-230952D01*
X748913Y-230551D01*
X748894Y-230114D01*
X748876Y-229659D01*
Y-229640D01*
Y-229604D01*
Y-229513D01*
Y-229422D01*
X748894Y-229294D01*
Y-229148D01*
X748913Y-228820D01*
X748949Y-228420D01*
X749022Y-228019D01*
X749095Y-227582D01*
X749204Y-227181D01*
Y-227162D01*
X749222Y-227126D01*
X749240Y-227071D01*
X749259Y-226998D01*
X749332Y-226816D01*
X749441Y-226561D01*
X749569Y-226288D01*
X749732Y-225996D01*
X749915Y-225723D01*
X750115Y-225450D01*
X750133Y-225413D01*
X750224Y-225341D01*
X750334Y-225213D01*
X750498Y-225067D01*
X750698Y-224903D01*
X750935Y-224721D01*
X751190Y-224575D01*
X751463Y-224429D01*
X751500Y-224411D01*
X751591Y-224375D01*
X751755Y-224320D01*
X751955Y-224247D01*
X752192Y-224193D01*
X752484Y-224138D01*
X752775Y-224101D01*
X753103Y-224083D01*
X753267D01*
X753468Y-224101D01*
D02*
G37*
%LPC*%
G36*
X697787Y-227818D02*
X697678D01*
X697587Y-227837D01*
X697386Y-227855D01*
X697131Y-227909D01*
X696822Y-228001D01*
X696530Y-228146D01*
X696239Y-228328D01*
X695965Y-228584D01*
X695947Y-228620D01*
X695874Y-228729D01*
X695820Y-228802D01*
X695765Y-228912D01*
X695710Y-229021D01*
X695655Y-229148D01*
X695583Y-229312D01*
X695528Y-229476D01*
X695473Y-229677D01*
X695437Y-229895D01*
X695382Y-230114D01*
X695364Y-230369D01*
X695328Y-230643D01*
Y-230934D01*
Y-230952D01*
Y-231007D01*
Y-231080D01*
Y-231171D01*
X695346Y-231298D01*
Y-231444D01*
X695382Y-231772D01*
X695437Y-232137D01*
X695510Y-232501D01*
X695619Y-232847D01*
X695765Y-233157D01*
X695783Y-233193D01*
X695838Y-233266D01*
X695947Y-233394D01*
X696093Y-233521D01*
X696257Y-233649D01*
X696475Y-233776D01*
X696712Y-233849D01*
X697004Y-233886D01*
X697095D01*
X697204Y-233867D01*
X697350Y-233831D01*
X697532Y-233776D01*
X697714Y-233685D01*
X697933Y-233576D01*
X698152Y-233412D01*
X698188Y-233394D01*
X698261Y-233321D01*
X698370Y-233211D01*
X698534Y-233048D01*
X698735Y-232847D01*
X698935Y-232592D01*
X699172Y-232300D01*
X699427Y-231973D01*
Y-228165D01*
X699409D01*
X699372Y-228128D01*
X699281Y-228110D01*
X699190Y-228074D01*
X699081Y-228037D01*
X698935Y-227982D01*
X698625Y-227909D01*
X698607D01*
X698553Y-227891D01*
X698480Y-227873D01*
X698370Y-227855D01*
X698243D01*
X698097Y-227837D01*
X697787Y-227818D01*
D02*
G37*
G36*
X678984Y-227654D02*
X678838D01*
X678729Y-227673D01*
X678492Y-227727D01*
X678219Y-227818D01*
X678201D01*
X678164Y-227837D01*
X678110Y-227873D01*
X678037Y-227928D01*
X677855Y-228037D01*
X677672Y-228201D01*
Y-228219D01*
X677636Y-228237D01*
X677599Y-228292D01*
X677545Y-228365D01*
X677435Y-228547D01*
X677326Y-228766D01*
Y-228784D01*
X677308Y-228820D01*
X677290Y-228875D01*
X677272Y-228966D01*
X677235Y-229167D01*
X677217Y-229422D01*
Y-229440D01*
Y-229495D01*
Y-229568D01*
X677235Y-229659D01*
X677272Y-229895D01*
X677344Y-230151D01*
Y-230169D01*
X677363Y-230205D01*
X677399Y-230260D01*
X677435Y-230333D01*
X677545Y-230515D01*
X677709Y-230697D01*
X677727Y-230715D01*
X677745Y-230734D01*
X677800Y-230770D01*
X677873Y-230825D01*
X678037Y-230952D01*
X678255Y-231062D01*
X678274D01*
X678310Y-231080D01*
X678383Y-231098D01*
X678474Y-231116D01*
X678583Y-231134D01*
X678711Y-231153D01*
X678984Y-231171D01*
X679130D01*
X679239Y-231153D01*
X679476Y-231116D01*
X679731Y-231043D01*
X679749D01*
X679786Y-231025D01*
X679859Y-230989D01*
X679932Y-230934D01*
X680114Y-230825D01*
X680296Y-230661D01*
X680314Y-230643D01*
X680333Y-230624D01*
X680369Y-230570D01*
X680424Y-230497D01*
X680533Y-230314D01*
X680642Y-230096D01*
Y-230078D01*
X680660Y-230041D01*
X680679Y-229968D01*
X680715Y-229895D01*
X680752Y-229677D01*
X680770Y-229422D01*
Y-229403D01*
Y-229349D01*
Y-229276D01*
X680752Y-229185D01*
X680715Y-228948D01*
X680624Y-228711D01*
Y-228693D01*
X680606Y-228657D01*
X680569Y-228602D01*
X680533Y-228511D01*
X680424Y-228328D01*
X680260Y-228146D01*
X680241Y-228128D01*
X680223Y-228110D01*
X680168Y-228055D01*
X680096Y-228019D01*
X679914Y-227891D01*
X679695Y-227782D01*
X679677D01*
X679640Y-227764D01*
X679567Y-227746D01*
X679494Y-227709D01*
X679385Y-227691D01*
X679257Y-227673D01*
X678984Y-227654D01*
D02*
G37*
G36*
X677672Y-234742D02*
X677654D01*
X677636Y-234778D01*
X677508Y-234851D01*
X677363Y-234961D01*
X677217Y-235088D01*
X677199Y-235125D01*
X677126Y-235197D01*
X677035Y-235289D01*
X676944Y-235416D01*
X676925Y-235453D01*
X676889Y-235525D01*
X676853Y-235653D01*
X676816Y-235781D01*
Y-235817D01*
X676798Y-235890D01*
X676780Y-235999D01*
Y-236127D01*
Y-236145D01*
X676798Y-236218D01*
X676816Y-236327D01*
X676853Y-236455D01*
X676925Y-236600D01*
X677035Y-236728D01*
X677180Y-236874D01*
X677381Y-236983D01*
X677417Y-237001D01*
X677490Y-237019D01*
X677636Y-237074D01*
X677818Y-237111D01*
X678055Y-237165D01*
X678346Y-237220D01*
X678693Y-237238D01*
X679075Y-237256D01*
X679312D01*
X679476Y-237238D01*
X679640Y-237220D01*
X679841Y-237202D01*
X680023Y-237165D01*
X680205Y-237129D01*
X680223D01*
X680278Y-237111D01*
X680369Y-237074D01*
X680478Y-237038D01*
X680715Y-236928D01*
X680843Y-236874D01*
X680952Y-236801D01*
X680970Y-236783D01*
X681007Y-236764D01*
X681116Y-236673D01*
X681244Y-236528D01*
X681371Y-236345D01*
Y-236327D01*
X681389Y-236309D01*
X681407Y-236254D01*
X681444Y-236181D01*
X681480Y-236017D01*
X681499Y-235817D01*
Y-235799D01*
Y-235744D01*
X681480Y-235653D01*
X681444Y-235544D01*
X681389Y-235416D01*
X681316Y-235307D01*
X681225Y-235179D01*
X681079Y-235088D01*
X681061Y-235070D01*
X681007Y-235052D01*
X680897Y-235015D01*
X680770Y-234961D01*
X680588Y-234924D01*
X680369Y-234870D01*
X680114Y-234833D01*
X679822Y-234815D01*
X677672Y-234742D01*
D02*
G37*
G36*
X734391Y-225486D02*
X732679D01*
Y-228820D01*
X734300D01*
X734410Y-228802D01*
X734555D01*
X734701Y-228784D01*
X735011Y-228729D01*
X735029D01*
X735084Y-228711D01*
X735156Y-228675D01*
X735248Y-228638D01*
X735466Y-228547D01*
X735703Y-228401D01*
X735721Y-228383D01*
X735758Y-228365D01*
X735867Y-228256D01*
X736013Y-228074D01*
X736159Y-227855D01*
Y-227837D01*
X736177Y-227800D01*
X736213Y-227727D01*
X736250Y-227618D01*
X736268Y-227509D01*
X736304Y-227363D01*
X736323Y-227053D01*
Y-227035D01*
Y-226998D01*
Y-226944D01*
X736304Y-226853D01*
X736286Y-226671D01*
X736213Y-226452D01*
Y-226434D01*
X736195Y-226397D01*
X736177Y-226343D01*
X736140Y-226288D01*
X736031Y-226124D01*
X735867Y-225960D01*
X735849Y-225942D01*
X735831Y-225923D01*
X735776Y-225887D01*
X735703Y-225832D01*
X735612Y-225778D01*
X735485Y-225723D01*
X735357Y-225668D01*
X735211Y-225614D01*
X735193D01*
X735138Y-225595D01*
X735047Y-225577D01*
X734920Y-225541D01*
X734774Y-225523D01*
X734592Y-225504D01*
X734391Y-225486D01*
D02*
G37*
G36*
X734373Y-230041D02*
X732679D01*
Y-233722D01*
X734410D01*
X734519Y-233703D01*
X734646D01*
X734920Y-233667D01*
X735229Y-233612D01*
X735539Y-233521D01*
X735831Y-233412D01*
X736086Y-233266D01*
X736104Y-233248D01*
X736177Y-233175D01*
X736286Y-233066D01*
X736395Y-232902D01*
X736505Y-232701D01*
X736614Y-232446D01*
X736687Y-232155D01*
X736705Y-231809D01*
Y-231790D01*
Y-231736D01*
Y-231663D01*
X736687Y-231572D01*
X736632Y-231335D01*
X736523Y-231080D01*
Y-231062D01*
X736486Y-231025D01*
X736450Y-230970D01*
X736395Y-230879D01*
X736250Y-230715D01*
X736031Y-230533D01*
X736013Y-230515D01*
X735976Y-230497D01*
X735904Y-230442D01*
X735812Y-230406D01*
X735685Y-230333D01*
X735557Y-230278D01*
X735229Y-230169D01*
X735211D01*
X735138Y-230151D01*
X735047Y-230132D01*
X734920Y-230096D01*
X734756Y-230078D01*
X734573Y-230059D01*
X734373Y-230041D01*
D02*
G37*
G36*
X715679Y-225468D02*
X714204D01*
Y-229877D01*
X715679D01*
X715770Y-229859D01*
X715880D01*
X716007Y-229841D01*
X716281Y-229804D01*
X716608Y-229731D01*
X716936Y-229640D01*
X717265Y-229495D01*
X717556Y-229312D01*
X717592Y-229294D01*
X717665Y-229203D01*
X717775Y-229076D01*
X717920Y-228893D01*
X718048Y-228638D01*
X718157Y-228347D01*
X718230Y-228001D01*
X718267Y-227600D01*
Y-227582D01*
Y-227563D01*
Y-227509D01*
X718248Y-227436D01*
X718230Y-227254D01*
X718176Y-227017D01*
X718103Y-226762D01*
X717975Y-226506D01*
X717811Y-226252D01*
X717574Y-226033D01*
X717538Y-226015D01*
X717447Y-225942D01*
X717301Y-225851D01*
X717082Y-225741D01*
X716809Y-225650D01*
X716499Y-225559D01*
X716117Y-225486D01*
X715679Y-225468D01*
D02*
G37*
G36*
X660254Y-225486D02*
X658888D01*
Y-229021D01*
X660236D01*
X660363Y-229003D01*
X660509D01*
X660673Y-228966D01*
X660983Y-228912D01*
X661001D01*
X661056Y-228893D01*
X661129Y-228857D01*
X661238Y-228820D01*
X661457Y-228711D01*
X661693Y-228565D01*
X661712Y-228547D01*
X661748Y-228529D01*
X661803Y-228474D01*
X661857Y-228401D01*
X662003Y-228219D01*
X662149Y-228001D01*
Y-227982D01*
X662167Y-227946D01*
X662204Y-227873D01*
X662240Y-227764D01*
X662258Y-227654D01*
X662295Y-227509D01*
X662313Y-227199D01*
Y-227181D01*
Y-227163D01*
Y-227053D01*
X662277Y-226907D01*
X662240Y-226725D01*
X662185Y-226507D01*
X662076Y-226306D01*
X661948Y-226106D01*
X661766Y-225923D01*
X661748Y-225905D01*
X661675Y-225851D01*
X661548Y-225778D01*
X661384Y-225705D01*
X661165Y-225632D01*
X660910Y-225559D01*
X660600Y-225504D01*
X660254Y-225486D01*
D02*
G37*
G36*
X808656Y-227727D02*
X808292D01*
X808182Y-227746D01*
X808055Y-227764D01*
X807909Y-227800D01*
X807599Y-227909D01*
X807581D01*
X807545Y-227946D01*
X807472Y-227982D01*
X807381Y-228037D01*
X807162Y-228201D01*
X806943Y-228420D01*
X806925Y-228438D01*
X806907Y-228474D01*
X806852Y-228547D01*
X806779Y-228638D01*
X806706Y-228748D01*
X806634Y-228893D01*
X806488Y-229203D01*
Y-229221D01*
X806470Y-229276D01*
X806433Y-229367D01*
X806397Y-229495D01*
X806360Y-229640D01*
X806342Y-229823D01*
X806287Y-230205D01*
X810624D01*
Y-230187D01*
Y-230114D01*
Y-230005D01*
Y-229877D01*
X810606Y-229731D01*
X810587Y-229568D01*
X810496Y-229221D01*
Y-229203D01*
X810478Y-229148D01*
X810441Y-229057D01*
X810405Y-228948D01*
X810277Y-228693D01*
X810095Y-228438D01*
X810077Y-228420D01*
X810041Y-228383D01*
X809986Y-228328D01*
X809913Y-228256D01*
X809804Y-228165D01*
X809694Y-228092D01*
X809403Y-227928D01*
X809385Y-227909D01*
X809330Y-227891D01*
X809239Y-227855D01*
X809130Y-227818D01*
X809002Y-227782D01*
X808838Y-227764D01*
X808656Y-227727D01*
D02*
G37*
G36*
X753012Y-225359D02*
X752903D01*
X752757Y-225377D01*
X752593Y-225395D01*
X752411Y-225450D01*
X752192Y-225504D01*
X751992Y-225595D01*
X751791Y-225705D01*
X751773Y-225723D01*
X751719Y-225760D01*
X751627Y-225832D01*
X751500Y-225942D01*
X751372Y-226069D01*
X751245Y-226233D01*
X751099Y-226415D01*
X750972Y-226616D01*
X750953Y-226634D01*
X750917Y-226707D01*
X750862Y-226835D01*
X750789Y-226998D01*
X750716Y-227181D01*
X750625Y-227417D01*
X750552Y-227673D01*
X750480Y-227946D01*
Y-227982D01*
X750461Y-228074D01*
X750443Y-228237D01*
X750407Y-228438D01*
X750388Y-228675D01*
X750352Y-228948D01*
X750334Y-229258D01*
Y-229568D01*
Y-229586D01*
Y-229604D01*
Y-229659D01*
Y-229731D01*
Y-229914D01*
X750352Y-230132D01*
X750370Y-230406D01*
X750388Y-230697D01*
X750480Y-231317D01*
Y-231353D01*
X750516Y-231444D01*
X750534Y-231590D01*
X750589Y-231772D01*
X750662Y-231991D01*
X750735Y-232209D01*
X750826Y-232446D01*
X750935Y-232665D01*
X750953Y-232683D01*
X750990Y-232756D01*
X751063Y-232847D01*
X751172Y-232975D01*
X751281Y-233120D01*
X751427Y-233248D01*
X751591Y-233394D01*
X751773Y-233521D01*
X751791Y-233539D01*
X751864Y-233576D01*
X751973Y-233612D01*
X752119Y-233667D01*
X752302Y-233740D01*
X752520Y-233776D01*
X752757Y-233813D01*
X753012Y-233831D01*
X753140D01*
X753267Y-233813D01*
X753431Y-233794D01*
X753632Y-233758D01*
X753832Y-233685D01*
X754032Y-233612D01*
X754233Y-233503D01*
X754251Y-233485D01*
X754324Y-233448D01*
X754415Y-233376D01*
X754524Y-233266D01*
X754670Y-233139D01*
X754798Y-232993D01*
X754943Y-232811D01*
X755071Y-232610D01*
X755089Y-232592D01*
X755126Y-232501D01*
X755180Y-232392D01*
X755253Y-232228D01*
X755344Y-232027D01*
X755417Y-231809D01*
X755490Y-231554D01*
X755563Y-231280D01*
Y-231244D01*
X755581Y-231153D01*
X755618Y-230989D01*
X755654Y-230788D01*
X755672Y-230551D01*
X755709Y-230260D01*
X755727Y-229968D01*
Y-229640D01*
Y-229622D01*
Y-229604D01*
Y-229549D01*
Y-229476D01*
Y-229294D01*
X755709Y-229076D01*
X755690Y-228802D01*
X755654Y-228511D01*
X755563Y-227909D01*
Y-227891D01*
Y-227873D01*
X755545Y-227782D01*
X755508Y-227636D01*
X755454Y-227454D01*
X755381Y-227235D01*
X755308Y-227017D01*
X755198Y-226780D01*
X755089Y-226561D01*
X755071Y-226543D01*
X755034Y-226470D01*
X754962Y-226361D01*
X754871Y-226233D01*
X754743Y-226106D01*
X754597Y-225960D01*
X754433Y-225814D01*
X754251Y-225687D01*
X754233Y-225668D01*
X754160Y-225632D01*
X754051Y-225577D01*
X753905Y-225523D01*
X753723Y-225468D01*
X753522Y-225413D01*
X753267Y-225377D01*
X753012Y-225359D01*
D02*
G37*
%LPD*%
M02*
