G04*
G04 #@! TF.GenerationSoftware,Altium Limited,Altium Designer,20.0.13 (296)*
G04*
G04 Layer_Color=16711935*
%FSLAX25Y25*%
%MOIN*%
G70*
G01*
G75*
%ADD31C,0.05906*%
%ADD32R,0.05906X0.05906*%
%ADD33R,0.04724X0.04724*%
%ADD34C,0.04724*%
%ADD35C,0.07000*%
%ADD36C,0.03937*%
%ADD37C,0.30000*%
%ADD41R,0.16142X0.09055*%
G36*
X726192Y-244102D02*
X726411Y-244120D01*
X726520D01*
X726611Y-244138D01*
X726812Y-244156D01*
X727049Y-244193D01*
X727103D01*
X727176Y-244211D01*
X727249D01*
X727449Y-244247D01*
X727686Y-244284D01*
X727741D01*
X727814Y-244302D01*
X727887Y-244320D01*
X728087Y-244357D01*
X728288Y-244393D01*
Y-245705D01*
X728251D01*
X728178Y-245668D01*
X728051Y-245650D01*
X727887Y-245614D01*
X727704Y-245577D01*
X727486Y-245523D01*
X727012Y-245450D01*
X726994D01*
X726903Y-245432D01*
X726793Y-245413D01*
X726629Y-245395D01*
X726447Y-245377D01*
X726229Y-245359D01*
X725791Y-245340D01*
X725591D01*
X725372Y-245359D01*
X725099Y-245395D01*
X724789Y-245450D01*
X724480Y-245523D01*
X724206Y-245632D01*
X723951Y-245778D01*
X723933Y-245796D01*
X723860Y-245851D01*
X723769Y-245942D01*
X723660Y-246069D01*
X723550Y-246233D01*
X723459Y-246434D01*
X723386Y-246652D01*
X723368Y-246907D01*
Y-246926D01*
Y-246980D01*
X723386Y-247053D01*
X723405Y-247163D01*
X723478Y-247399D01*
X723532Y-247527D01*
X723605Y-247654D01*
X723623Y-247673D01*
X723641Y-247709D01*
X723696Y-247764D01*
X723769Y-247837D01*
X723969Y-248019D01*
X724225Y-248219D01*
X724243Y-248237D01*
X724297Y-248256D01*
X724370Y-248310D01*
X724498Y-248365D01*
X724625Y-248438D01*
X724771Y-248511D01*
X725136Y-248657D01*
X725154D01*
X725227Y-248693D01*
X725318Y-248729D01*
X725463Y-248784D01*
X725609Y-248839D01*
X725773Y-248912D01*
X726156Y-249076D01*
X726174D01*
X726247Y-249112D01*
X726356Y-249148D01*
X726484Y-249203D01*
X726648Y-249276D01*
X726812Y-249349D01*
X727194Y-249531D01*
X727213Y-249549D01*
X727285Y-249568D01*
X727377Y-249622D01*
X727504Y-249695D01*
X727796Y-249896D01*
X728087Y-250132D01*
X728105Y-250150D01*
X728160Y-250187D01*
X728233Y-250260D01*
X728324Y-250369D01*
X728415Y-250479D01*
X728524Y-250624D01*
X728725Y-250952D01*
X728743Y-250970D01*
X728761Y-251043D01*
X728798Y-251134D01*
X728852Y-251262D01*
X728907Y-251426D01*
X728943Y-251626D01*
X728962Y-251827D01*
X728980Y-252064D01*
Y-252100D01*
Y-252191D01*
X728962Y-252337D01*
X728943Y-252519D01*
X728907Y-252720D01*
X728834Y-252956D01*
X728761Y-253193D01*
X728652Y-253412D01*
X728634Y-253430D01*
X728597Y-253503D01*
X728524Y-253612D01*
X728433Y-253740D01*
X728306Y-253886D01*
X728160Y-254050D01*
X727978Y-254214D01*
X727777Y-254359D01*
X727759Y-254378D01*
X727686Y-254414D01*
X727559Y-254487D01*
X727413Y-254578D01*
X727213Y-254669D01*
X726994Y-254760D01*
X726739Y-254851D01*
X726447Y-254924D01*
X726411D01*
X726320Y-254961D01*
X726156Y-254979D01*
X725937Y-255015D01*
X725682Y-255052D01*
X725391Y-255070D01*
X725063Y-255106D01*
X724461D01*
X724316Y-255088D01*
X724188D01*
X723860Y-255070D01*
X723787D01*
X723714Y-255052D01*
X723605D01*
X723350Y-255015D01*
X723058Y-254979D01*
X722986D01*
X722913Y-254961D01*
X722822D01*
X722585Y-254924D01*
X722330Y-254888D01*
X722311D01*
X722275Y-254870D01*
X722202Y-254851D01*
X722129Y-254833D01*
X721929Y-254778D01*
X721710Y-254724D01*
Y-253321D01*
X721747Y-253339D01*
X721819Y-253357D01*
X721947Y-253394D01*
X722111Y-253448D01*
X722311Y-253521D01*
X722548Y-253576D01*
X722803Y-253631D01*
X723077Y-253685D01*
X723113D01*
X723204Y-253703D01*
X723368Y-253722D01*
X723587Y-253740D01*
X723842Y-253776D01*
X724133Y-253795D01*
X724461Y-253813D01*
X725081D01*
X725245Y-253795D01*
X725427D01*
X725627Y-253758D01*
X725828Y-253740D01*
X726028Y-253703D01*
X726047D01*
X726119Y-253685D01*
X726192Y-253649D01*
X726320Y-253631D01*
X726575Y-253521D01*
X726830Y-253394D01*
X726848Y-253376D01*
X726885Y-253357D01*
X726939Y-253303D01*
X727012Y-253248D01*
X727176Y-253084D01*
X727304Y-252865D01*
Y-252847D01*
X727322Y-252811D01*
X727358Y-252738D01*
X727377Y-252647D01*
X727413Y-252537D01*
X727431Y-252410D01*
X727449Y-252136D01*
Y-252118D01*
Y-252064D01*
X727431Y-251991D01*
X727413Y-251881D01*
X727340Y-251645D01*
X727285Y-251535D01*
X727194Y-251408D01*
X727176Y-251390D01*
X727158Y-251353D01*
X727103Y-251298D01*
X727030Y-251225D01*
X726939Y-251134D01*
X726830Y-251043D01*
X726557Y-250861D01*
X726538Y-250843D01*
X726484Y-250825D01*
X726411Y-250770D01*
X726302Y-250715D01*
X726174Y-250642D01*
X726028Y-250570D01*
X725664Y-250406D01*
X725646Y-250387D01*
X725573Y-250369D01*
X725482Y-250333D01*
X725336Y-250278D01*
X725190Y-250223D01*
X725008Y-250150D01*
X724625Y-250005D01*
X724607Y-249987D01*
X724534Y-249968D01*
X724443Y-249914D01*
X724316Y-249859D01*
X724152Y-249786D01*
X723988Y-249713D01*
X723605Y-249531D01*
X723587Y-249513D01*
X723514Y-249476D01*
X723423Y-249440D01*
X723295Y-249367D01*
X723168Y-249276D01*
X723004Y-249185D01*
X722694Y-248948D01*
X722676Y-248930D01*
X722639Y-248893D01*
X722567Y-248820D01*
X722475Y-248711D01*
X722384Y-248602D01*
X722275Y-248456D01*
X722075Y-248146D01*
X722056Y-248128D01*
X722038Y-248055D01*
X722002Y-247964D01*
X721965Y-247837D01*
X721910Y-247673D01*
X721874Y-247490D01*
X721856Y-247272D01*
X721838Y-247053D01*
Y-247035D01*
Y-246962D01*
X721856Y-246853D01*
X721874Y-246707D01*
X721892Y-246543D01*
X721929Y-246361D01*
X721983Y-246160D01*
X722056Y-245960D01*
X722075Y-245942D01*
X722093Y-245869D01*
X722166Y-245778D01*
X722238Y-245650D01*
X722330Y-245504D01*
X722457Y-245340D01*
X722603Y-245177D01*
X722767Y-245012D01*
X722785Y-244994D01*
X722858Y-244940D01*
X722967Y-244867D01*
X723113Y-244776D01*
X723277Y-244666D01*
X723496Y-244557D01*
X723733Y-244448D01*
X724006Y-244338D01*
X724042Y-244320D01*
X724152Y-244302D01*
X724297Y-244266D01*
X724516Y-244211D01*
X724789Y-244156D01*
X725099Y-244120D01*
X725445Y-244102D01*
X725828Y-244083D01*
X726010D01*
X726192Y-244102D01*
D02*
G37*
G36*
X756401Y-254961D02*
X755107D01*
X755053Y-253412D01*
Y-253430D01*
X755034Y-253448D01*
X754943Y-253558D01*
X754834Y-253703D01*
X754670Y-253904D01*
X754470Y-254104D01*
X754251Y-254323D01*
X754014Y-254523D01*
X753759Y-254706D01*
X753723Y-254724D01*
X753632Y-254760D01*
X753504Y-254833D01*
X753304Y-254906D01*
X753085Y-254979D01*
X752830Y-255052D01*
X752557Y-255088D01*
X752247Y-255106D01*
X752138D01*
X751992Y-255088D01*
X751828Y-255070D01*
X751646Y-255033D01*
X751427Y-254979D01*
X751227Y-254906D01*
X751008Y-254815D01*
X750990Y-254797D01*
X750917Y-254760D01*
X750826Y-254687D01*
X750698Y-254596D01*
X750552Y-254487D01*
X750407Y-254341D01*
X750261Y-254177D01*
X750115Y-253995D01*
X750097Y-253977D01*
X750061Y-253904D01*
X749988Y-253776D01*
X749915Y-253630D01*
X749824Y-253430D01*
X749732Y-253211D01*
X749641Y-252975D01*
X749569Y-252701D01*
Y-252665D01*
X749550Y-252574D01*
X749514Y-252410D01*
X749496Y-252209D01*
X749459Y-251954D01*
X749423Y-251663D01*
X749404Y-251353D01*
Y-251025D01*
Y-251007D01*
Y-250970D01*
Y-250916D01*
Y-250843D01*
X749423Y-250661D01*
X749441Y-250406D01*
X749477Y-250114D01*
X749514Y-249804D01*
X749587Y-249476D01*
X749678Y-249167D01*
Y-249148D01*
X749696Y-249130D01*
X749732Y-249021D01*
X749805Y-248875D01*
X749896Y-248693D01*
X750006Y-248474D01*
X750152Y-248237D01*
X750316Y-248001D01*
X750498Y-247782D01*
X750516Y-247764D01*
X750589Y-247691D01*
X750698Y-247582D01*
X750862Y-247454D01*
X751044Y-247326D01*
X751263Y-247181D01*
X751500Y-247053D01*
X751773Y-246926D01*
X751810Y-246907D01*
X751901Y-246871D01*
X752065Y-246834D01*
X752265Y-246780D01*
X752502Y-246725D01*
X752794Y-246671D01*
X753103Y-246652D01*
X753431Y-246634D01*
X753668D01*
X753923Y-246652D01*
X754196Y-246689D01*
X754215D01*
X754269Y-246707D01*
X754342D01*
X754433Y-246725D01*
X754688Y-246780D01*
X754962Y-246853D01*
Y-243373D01*
X756401D01*
Y-254961D01*
D02*
G37*
G36*
X800147Y-246598D02*
X800329D01*
X800749Y-246634D01*
X800767D01*
X800858Y-246652D01*
X800967D01*
X801131Y-246671D01*
X801313Y-246707D01*
X801514Y-246725D01*
X801751Y-246780D01*
X801987Y-246816D01*
Y-248092D01*
X801951D01*
X801878Y-248055D01*
X801751Y-248037D01*
X801568Y-248001D01*
X801386Y-247964D01*
X801168Y-247928D01*
X800712Y-247855D01*
X800694D01*
X800603Y-247837D01*
X800493Y-247818D01*
X800348Y-247800D01*
X800184D01*
X800020Y-247782D01*
X799655Y-247764D01*
X799473D01*
X799346Y-247782D01*
X799054Y-247800D01*
X798763Y-247855D01*
X798744D01*
X798708Y-247873D01*
X798635Y-247891D01*
X798544Y-247909D01*
X798362Y-248001D01*
X798161Y-248092D01*
X798125Y-248110D01*
X798034Y-248183D01*
X797943Y-248292D01*
X797852Y-248420D01*
X797833Y-248456D01*
X797815Y-248547D01*
X797779Y-248675D01*
X797760Y-248839D01*
Y-248857D01*
Y-248875D01*
X797779Y-248966D01*
X797797Y-249094D01*
X797833Y-249239D01*
X797852Y-249276D01*
X797906Y-249349D01*
X798015Y-249458D01*
X798161Y-249586D01*
X798179D01*
X798198Y-249622D01*
X798252Y-249640D01*
X798325Y-249695D01*
X798435Y-249750D01*
X798544Y-249804D01*
X798671Y-249859D01*
X798817Y-249932D01*
X798835D01*
X798890Y-249968D01*
X798981Y-249987D01*
X799109Y-250041D01*
X799273Y-250096D01*
X799455Y-250150D01*
X799655Y-250205D01*
X799892Y-250278D01*
X799929Y-250296D01*
X800020Y-250314D01*
X800147Y-250351D01*
X800329Y-250424D01*
X800530Y-250479D01*
X800730Y-250570D01*
X800931Y-250642D01*
X801131Y-250734D01*
X801149Y-250752D01*
X801222Y-250770D01*
X801295Y-250825D01*
X801423Y-250879D01*
X801678Y-251062D01*
X801933Y-251262D01*
X801951Y-251280D01*
X801987Y-251317D01*
X802042Y-251371D01*
X802115Y-251444D01*
X802261Y-251645D01*
X802334Y-251772D01*
X802388Y-251900D01*
Y-251918D01*
X802407Y-251954D01*
X802443Y-252045D01*
X802461Y-252136D01*
X802498Y-252264D01*
X802516Y-252392D01*
X802534Y-252719D01*
Y-252738D01*
Y-252792D01*
Y-252884D01*
X802516Y-252975D01*
X802461Y-253230D01*
X802370Y-253503D01*
Y-253521D01*
X802352Y-253558D01*
X802315Y-253630D01*
X802261Y-253703D01*
X802133Y-253904D01*
X801969Y-254122D01*
X801951Y-254141D01*
X801933Y-254159D01*
X801878Y-254214D01*
X801805Y-254268D01*
X801605Y-254414D01*
X801368Y-254578D01*
X801350D01*
X801313Y-254614D01*
X801240Y-254633D01*
X801149Y-254687D01*
X800931Y-254778D01*
X800657Y-254870D01*
X800639D01*
X800603Y-254888D01*
X800512Y-254906D01*
X800420Y-254924D01*
X800311Y-254961D01*
X800165Y-254979D01*
X799874Y-255033D01*
X799856D01*
X799801Y-255052D01*
X799728D01*
X799619Y-255070D01*
X799382Y-255088D01*
X799090Y-255106D01*
X798781D01*
X798580Y-255088D01*
X798344D01*
X798088Y-255070D01*
X797542Y-255033D01*
X797505D01*
X797432Y-255015D01*
X797287Y-254997D01*
X797123Y-254979D01*
X796904Y-254942D01*
X796685Y-254906D01*
X796194Y-254797D01*
Y-253485D01*
X796230D01*
X796321Y-253521D01*
X796449Y-253558D01*
X796631Y-253612D01*
X796849Y-253667D01*
X797086Y-253722D01*
X797615Y-253813D01*
X797651D01*
X797742Y-253831D01*
X797870Y-253849D01*
X798052D01*
X798271Y-253867D01*
X798507Y-253886D01*
X799036Y-253904D01*
X799200D01*
X799382Y-253886D01*
X799601Y-253867D01*
X799856Y-253831D01*
X800111Y-253795D01*
X800348Y-253722D01*
X800548Y-253630D01*
X800566Y-253612D01*
X800621Y-253576D01*
X800712Y-253521D01*
X800803Y-253430D01*
X800894Y-253321D01*
X800985Y-253175D01*
X801040Y-253011D01*
X801058Y-252829D01*
Y-252811D01*
Y-252792D01*
X801040Y-252701D01*
X801022Y-252574D01*
X800967Y-252446D01*
X800949Y-252410D01*
X800912Y-252337D01*
X800821Y-252228D01*
X800676Y-252100D01*
X800639Y-252064D01*
X800585Y-252045D01*
X800530Y-251991D01*
X800439Y-251954D01*
X800329Y-251900D01*
X800184Y-251827D01*
X800038Y-251772D01*
X800020D01*
X799965Y-251736D01*
X799874Y-251699D01*
X799728Y-251645D01*
X799564Y-251590D01*
X799364Y-251517D01*
X799145Y-251444D01*
X798872Y-251371D01*
X798854D01*
X798781Y-251335D01*
X798671Y-251317D01*
X798544Y-251262D01*
X798380Y-251207D01*
X798216Y-251153D01*
X797852Y-251007D01*
X797833Y-250989D01*
X797779Y-250970D01*
X797687Y-250916D01*
X797578Y-250861D01*
X797305Y-250715D01*
X797032Y-250515D01*
X797013Y-250497D01*
X796977Y-250460D01*
X796904Y-250406D01*
X796831Y-250314D01*
X796649Y-250114D01*
X796485Y-249841D01*
Y-249823D01*
X796449Y-249768D01*
X796430Y-249695D01*
X796394Y-249586D01*
X796357Y-249458D01*
X796339Y-249294D01*
X796303Y-249112D01*
Y-248930D01*
Y-248912D01*
Y-248875D01*
Y-248802D01*
X796321Y-248711D01*
X796339Y-248602D01*
X796357Y-248474D01*
X796449Y-248183D01*
Y-248165D01*
X796485Y-248110D01*
X796522Y-248037D01*
X796576Y-247928D01*
X796649Y-247818D01*
X796740Y-247691D01*
X796868Y-247545D01*
X796995Y-247417D01*
X797013Y-247399D01*
X797068Y-247363D01*
X797159Y-247290D01*
X797268Y-247199D01*
X797414Y-247108D01*
X797596Y-247017D01*
X797797Y-246907D01*
X798034Y-246816D01*
X798070Y-246798D01*
X798161Y-246780D01*
X798289Y-246743D01*
X798489Y-246689D01*
X798726Y-246652D01*
X798999Y-246616D01*
X799327Y-246598D01*
X799674Y-246579D01*
X800002D01*
X800147Y-246598D01*
D02*
G37*
G36*
X773054D02*
X773145D01*
X773273Y-246616D01*
X773564Y-246689D01*
X773874Y-246780D01*
X774184Y-246926D01*
X774494Y-247144D01*
X774639Y-247272D01*
X774767Y-247417D01*
X774803Y-247454D01*
X774821Y-247509D01*
X774876Y-247563D01*
X774913Y-247654D01*
X774967Y-247764D01*
X775040Y-247891D01*
X775095Y-248037D01*
X775149Y-248201D01*
X775204Y-248365D01*
X775259Y-248565D01*
X775313Y-248784D01*
X775350Y-249039D01*
X775368Y-249294D01*
X775386Y-249568D01*
Y-249859D01*
X773947D01*
Y-249841D01*
Y-249804D01*
Y-249750D01*
Y-249677D01*
X773929Y-249495D01*
X773910Y-249276D01*
X773874Y-249021D01*
X773819Y-248766D01*
X773728Y-248511D01*
X773619Y-248310D01*
X773601Y-248292D01*
X773564Y-248237D01*
X773473Y-248146D01*
X773364Y-248055D01*
X773218Y-247982D01*
X773054Y-247891D01*
X772854Y-247837D01*
X772617Y-247818D01*
X772507D01*
X772453Y-247837D01*
X772271Y-247855D01*
X772052Y-247928D01*
X772034D01*
X771997Y-247946D01*
X771943Y-247964D01*
X771870Y-248001D01*
X771669Y-248110D01*
X771451Y-248256D01*
X771432Y-248274D01*
X771396Y-248292D01*
X771341Y-248347D01*
X771250Y-248401D01*
X771050Y-248602D01*
X770795Y-248839D01*
X770777Y-248857D01*
X770740Y-248893D01*
X770667Y-248966D01*
X770576Y-249076D01*
X770467Y-249203D01*
X770339Y-249331D01*
X770212Y-249495D01*
X770066Y-249677D01*
Y-254961D01*
X768627D01*
Y-246725D01*
X769920D01*
X769957Y-248256D01*
Y-248237D01*
X769993Y-248219D01*
X770084Y-248110D01*
X770230Y-247964D01*
X770412Y-247764D01*
X770631Y-247563D01*
X770868Y-247345D01*
X771123Y-247144D01*
X771396Y-246980D01*
X771432Y-246962D01*
X771524Y-246926D01*
X771651Y-246853D01*
X771852Y-246780D01*
X772052Y-246707D01*
X772307Y-246634D01*
X772562Y-246598D01*
X772835Y-246579D01*
X772963D01*
X773054Y-246598D01*
D02*
G37*
G36*
X783403D02*
X783494Y-246616D01*
X783622Y-246652D01*
X783749Y-246707D01*
X783895Y-246780D01*
X784041Y-246871D01*
X784187Y-246999D01*
X784332Y-247162D01*
X784460Y-247363D01*
X784587Y-247582D01*
X784678Y-247855D01*
X784751Y-248183D01*
X784806Y-248547D01*
X784824Y-248966D01*
Y-254961D01*
X783403D01*
Y-249057D01*
Y-249039D01*
Y-248985D01*
Y-248930D01*
Y-248839D01*
X783385Y-248638D01*
X783367Y-248438D01*
Y-248420D01*
Y-248401D01*
X783348Y-248292D01*
X783330Y-248165D01*
X783276Y-248037D01*
X783257Y-248019D01*
X783239Y-247964D01*
X783184Y-247891D01*
X783130Y-247837D01*
X783111Y-247818D01*
X783075Y-247800D01*
X783002Y-247782D01*
X782911Y-247764D01*
X782893D01*
X782820Y-247782D01*
X782729Y-247800D01*
X782620Y-247873D01*
X782601Y-247891D01*
X782547Y-247946D01*
X782456Y-248055D01*
X782346Y-248201D01*
Y-248219D01*
X782328Y-248237D01*
X782292Y-248292D01*
X782255Y-248347D01*
X782146Y-248547D01*
X782018Y-248784D01*
Y-248802D01*
X781982Y-248857D01*
X781945Y-248930D01*
X781891Y-249039D01*
X781836Y-249167D01*
X781763Y-249312D01*
X781690Y-249495D01*
X781599Y-249677D01*
Y-254961D01*
X780178D01*
Y-249203D01*
Y-249185D01*
Y-249130D01*
Y-249057D01*
Y-248948D01*
X780160Y-248711D01*
X780142Y-248493D01*
Y-248474D01*
Y-248438D01*
X780123Y-248328D01*
X780105Y-248183D01*
X780051Y-248055D01*
X780032Y-248037D01*
X780014Y-247964D01*
X779959Y-247891D01*
X779905Y-247837D01*
X779887Y-247818D01*
X779850Y-247800D01*
X779777Y-247782D01*
X779686Y-247764D01*
X779668D01*
X779595Y-247782D01*
X779504Y-247800D01*
X779413Y-247855D01*
X779395Y-247873D01*
X779340Y-247928D01*
X779249Y-248019D01*
X779140Y-248165D01*
X779121Y-248201D01*
X779048Y-248310D01*
X778939Y-248493D01*
X778812Y-248729D01*
Y-248748D01*
X778775Y-248802D01*
X778739Y-248875D01*
X778684Y-248985D01*
X778629Y-249112D01*
X778556Y-249276D01*
X778465Y-249476D01*
X778374Y-249677D01*
Y-254961D01*
X776953D01*
Y-246725D01*
X778119D01*
X778192Y-248292D01*
X778210Y-248274D01*
X778229Y-248219D01*
X778265Y-248128D01*
X778320Y-248019D01*
X778465Y-247764D01*
X778611Y-247509D01*
X778629Y-247490D01*
X778648Y-247454D01*
X778684Y-247399D01*
X778739Y-247326D01*
X778866Y-247144D01*
X779030Y-246980D01*
X779048Y-246962D01*
X779067Y-246944D01*
X779176Y-246871D01*
X779322Y-246780D01*
X779486Y-246689D01*
X779504D01*
X779522Y-246671D01*
X779650Y-246634D01*
X779814Y-246598D01*
X780014Y-246579D01*
X780123D01*
X780251Y-246598D01*
X780397Y-246634D01*
X780561Y-246689D01*
X780725Y-246762D01*
X780889Y-246871D01*
X781035Y-247017D01*
X781053Y-247035D01*
X781089Y-247090D01*
X781144Y-247199D01*
X781217Y-247345D01*
X781271Y-247545D01*
X781326Y-247764D01*
X781362Y-248037D01*
X781381Y-248365D01*
X781399Y-248347D01*
X781417Y-248292D01*
X781454Y-248219D01*
X781508Y-248110D01*
X781636Y-247873D01*
X781763Y-247618D01*
Y-247600D01*
X781800Y-247563D01*
X781836Y-247490D01*
X781891Y-247417D01*
X782018Y-247235D01*
X782164Y-247053D01*
X782182Y-247035D01*
X782200Y-247017D01*
X782310Y-246926D01*
X782456Y-246816D01*
X782638Y-246707D01*
X782656D01*
X782692Y-246689D01*
X782747Y-246671D01*
X782820Y-246634D01*
X783020Y-246598D01*
X783257Y-246579D01*
X783330D01*
X783403Y-246598D01*
D02*
G37*
G36*
X709503Y-246598D02*
X709594Y-246616D01*
X709721Y-246652D01*
X709849Y-246707D01*
X709995Y-246780D01*
X710140Y-246871D01*
X710286Y-246999D01*
X710432Y-247163D01*
X710560Y-247363D01*
X710687Y-247582D01*
X710778Y-247855D01*
X710851Y-248183D01*
X710906Y-248547D01*
X710924Y-248966D01*
Y-254961D01*
X709503D01*
Y-249057D01*
Y-249039D01*
Y-248985D01*
Y-248930D01*
Y-248839D01*
X709484Y-248638D01*
X709466Y-248438D01*
Y-248420D01*
Y-248401D01*
X709448Y-248292D01*
X709430Y-248165D01*
X709375Y-248037D01*
X709357Y-248019D01*
X709339Y-247964D01*
X709284Y-247891D01*
X709229Y-247837D01*
X709211Y-247818D01*
X709175Y-247800D01*
X709102Y-247782D01*
X709011Y-247764D01*
X708993D01*
X708920Y-247782D01*
X708829Y-247800D01*
X708719Y-247873D01*
X708701Y-247891D01*
X708646Y-247946D01*
X708555Y-248055D01*
X708446Y-248201D01*
Y-248219D01*
X708428Y-248237D01*
X708391Y-248292D01*
X708355Y-248347D01*
X708246Y-248547D01*
X708118Y-248784D01*
Y-248802D01*
X708082Y-248857D01*
X708045Y-248930D01*
X707991Y-249039D01*
X707936Y-249167D01*
X707863Y-249312D01*
X707790Y-249495D01*
X707699Y-249677D01*
Y-254961D01*
X706278D01*
Y-249203D01*
Y-249185D01*
Y-249130D01*
Y-249057D01*
Y-248948D01*
X706260Y-248711D01*
X706241Y-248493D01*
Y-248474D01*
Y-248438D01*
X706223Y-248328D01*
X706205Y-248183D01*
X706150Y-248055D01*
X706132Y-248037D01*
X706114Y-247964D01*
X706059Y-247891D01*
X706004Y-247837D01*
X705986Y-247818D01*
X705950Y-247800D01*
X705877Y-247782D01*
X705786Y-247764D01*
X705768D01*
X705695Y-247782D01*
X705604Y-247800D01*
X705513Y-247855D01*
X705494Y-247873D01*
X705440Y-247928D01*
X705349Y-248019D01*
X705239Y-248165D01*
X705221Y-248201D01*
X705148Y-248310D01*
X705039Y-248493D01*
X704911Y-248729D01*
Y-248748D01*
X704875Y-248802D01*
X704838Y-248875D01*
X704784Y-248985D01*
X704729Y-249112D01*
X704656Y-249276D01*
X704565Y-249476D01*
X704474Y-249677D01*
Y-254961D01*
X703053D01*
Y-246725D01*
X704219D01*
X704292Y-248292D01*
X704310Y-248274D01*
X704328Y-248219D01*
X704365Y-248128D01*
X704419Y-248019D01*
X704565Y-247764D01*
X704711Y-247509D01*
X704729Y-247490D01*
X704747Y-247454D01*
X704784Y-247399D01*
X704838Y-247326D01*
X704966Y-247144D01*
X705130Y-246980D01*
X705148Y-246962D01*
X705166Y-246944D01*
X705276Y-246871D01*
X705421Y-246780D01*
X705585Y-246689D01*
X705604D01*
X705622Y-246671D01*
X705749Y-246634D01*
X705913Y-246598D01*
X706114Y-246579D01*
X706223D01*
X706351Y-246598D01*
X706496Y-246634D01*
X706660Y-246689D01*
X706824Y-246762D01*
X706988Y-246871D01*
X707134Y-247017D01*
X707152Y-247035D01*
X707189Y-247090D01*
X707243Y-247199D01*
X707316Y-247345D01*
X707371Y-247545D01*
X707426Y-247764D01*
X707462Y-248037D01*
X707480Y-248365D01*
X707499Y-248347D01*
X707517Y-248292D01*
X707553Y-248219D01*
X707608Y-248110D01*
X707735Y-247873D01*
X707863Y-247618D01*
Y-247600D01*
X707899Y-247563D01*
X707936Y-247490D01*
X707991Y-247417D01*
X708118Y-247235D01*
X708264Y-247053D01*
X708282Y-247035D01*
X708300Y-247017D01*
X708410Y-246926D01*
X708555Y-246816D01*
X708738Y-246707D01*
X708756D01*
X708792Y-246689D01*
X708847Y-246671D01*
X708920Y-246634D01*
X709120Y-246598D01*
X709357Y-246579D01*
X709430D01*
X709503Y-246598D01*
D02*
G37*
G36*
X806852Y-250497D02*
X810551Y-246725D01*
X812446D01*
X808583Y-250533D01*
X812664Y-254961D01*
X810697D01*
X806852Y-250551D01*
Y-254961D01*
X805431D01*
Y-243373D01*
X806852D01*
Y-250497D01*
D02*
G37*
G36*
X790582Y-246598D02*
X790782Y-246616D01*
X791019Y-246652D01*
X791474Y-246743D01*
X791493D01*
X791584Y-246780D01*
X791693Y-246816D01*
X791821Y-246871D01*
X791985Y-246944D01*
X792149Y-247035D01*
X792313Y-247126D01*
X792477Y-247253D01*
X792495Y-247272D01*
X792550Y-247308D01*
X792622Y-247381D01*
X792713Y-247472D01*
X792823Y-247600D01*
X792932Y-247745D01*
X793023Y-247909D01*
X793114Y-248092D01*
X793132Y-248110D01*
X793151Y-248183D01*
X793187Y-248292D01*
X793242Y-248438D01*
X793278Y-248602D01*
X793315Y-248820D01*
X793333Y-249039D01*
X793351Y-249294D01*
Y-254961D01*
X792058D01*
X792021Y-253867D01*
X791985Y-253904D01*
X791912Y-253977D01*
X791766Y-254086D01*
X791602Y-254232D01*
X791383Y-254378D01*
X791165Y-254542D01*
X790910Y-254687D01*
X790655Y-254815D01*
X790618Y-254833D01*
X790527Y-254851D01*
X790400Y-254906D01*
X790217Y-254961D01*
X789999Y-255015D01*
X789744Y-255052D01*
X789489Y-255088D01*
X789197Y-255106D01*
X789088D01*
X788960Y-255088D01*
X788796D01*
X788596Y-255070D01*
X788395Y-255033D01*
X787994Y-254942D01*
X787976D01*
X787922Y-254906D01*
X787830Y-254870D01*
X787703Y-254815D01*
X787448Y-254651D01*
X787175Y-254450D01*
X787156Y-254432D01*
X787120Y-254396D01*
X787065Y-254323D01*
X786992Y-254232D01*
X786919Y-254122D01*
X786828Y-253995D01*
X786701Y-253703D01*
Y-253685D01*
X786683Y-253630D01*
X786664Y-253539D01*
X786628Y-253430D01*
X786610Y-253284D01*
X786573Y-253120D01*
X786555Y-252774D01*
Y-252756D01*
Y-252719D01*
Y-252647D01*
X786573Y-252574D01*
X786592Y-252465D01*
X786610Y-252337D01*
X786664Y-252064D01*
X786774Y-251754D01*
X786938Y-251426D01*
X787047Y-251262D01*
X787175Y-251116D01*
X787302Y-250970D01*
X787466Y-250825D01*
X787484D01*
X787502Y-250788D01*
X787557Y-250752D01*
X787648Y-250715D01*
X787739Y-250661D01*
X787849Y-250606D01*
X787994Y-250533D01*
X788159Y-250460D01*
X788341Y-250406D01*
X788541Y-250333D01*
X788760Y-250278D01*
X789015Y-250223D01*
X789270Y-250187D01*
X789561Y-250150D01*
X789871Y-250114D01*
X791912D01*
Y-249404D01*
Y-249367D01*
Y-249276D01*
X791894Y-249148D01*
X791857Y-248985D01*
X791803Y-248802D01*
X791711Y-248602D01*
X791602Y-248420D01*
X791438Y-248237D01*
X791420Y-248219D01*
X791347Y-248165D01*
X791238Y-248092D01*
X791092Y-248019D01*
X790892Y-247946D01*
X790636Y-247873D01*
X790345Y-247818D01*
X790017Y-247800D01*
X789762D01*
X789580Y-247818D01*
X789361Y-247837D01*
X789142Y-247873D01*
X788632Y-247964D01*
X788596D01*
X788523Y-248001D01*
X788377Y-248037D01*
X788213Y-248074D01*
X787994Y-248146D01*
X787758Y-248219D01*
X787502Y-248310D01*
X787248Y-248401D01*
Y-247108D01*
X787266D01*
X787302Y-247090D01*
X787339Y-247071D01*
X787411Y-247053D01*
X787594Y-246999D01*
X787830Y-246926D01*
X787849D01*
X787885Y-246907D01*
X787958Y-246889D01*
X788049Y-246871D01*
X788286Y-246816D01*
X788541Y-246762D01*
X788559D01*
X788614Y-246743D01*
X788687Y-246725D01*
X788778Y-246707D01*
X788887Y-246689D01*
X789015Y-246671D01*
X789306Y-246634D01*
X789325D01*
X789379Y-246616D01*
X789452D01*
X789561Y-246598D01*
X789689D01*
X789817Y-246579D01*
X790400D01*
X790582Y-246598D01*
D02*
G37*
G36*
X744813Y-253776D02*
X747273D01*
Y-254961D01*
X740677Y-254961D01*
Y-253776D01*
X743374Y-253776D01*
Y-244539D01*
X740950Y-244539D01*
Y-243373D01*
X744813Y-243373D01*
Y-253776D01*
D02*
G37*
G36*
X660782Y-244266D02*
X661001Y-244284D01*
X661274Y-244320D01*
X661566Y-244393D01*
X661894Y-244466D01*
X662222Y-244575D01*
X662550Y-244703D01*
X662878Y-244885D01*
X663169Y-245085D01*
X663443Y-245340D01*
X663661Y-245650D01*
X663843Y-245996D01*
X663953Y-246397D01*
X663971Y-246616D01*
X663989Y-246853D01*
Y-246871D01*
Y-246889D01*
Y-246999D01*
X663971Y-247163D01*
X663935Y-247363D01*
X663880Y-247600D01*
X663807Y-247855D01*
X663716Y-248110D01*
X663570Y-248347D01*
X663552Y-248365D01*
X663497Y-248456D01*
X663388Y-248565D01*
X663260Y-248693D01*
X663078Y-248839D01*
X662841Y-249003D01*
X662568Y-249149D01*
X662240Y-249276D01*
X662258D01*
X662313Y-249294D01*
X662404Y-249312D01*
X662513Y-249331D01*
X662768Y-249422D01*
X663060Y-249549D01*
X663078D01*
X663133Y-249586D01*
X663206Y-249622D01*
X663297Y-249695D01*
X663515Y-249841D01*
X663734Y-250060D01*
X663752Y-250078D01*
X663789Y-250114D01*
X663843Y-250187D01*
X663898Y-250260D01*
X663971Y-250369D01*
X664044Y-250497D01*
X664190Y-250806D01*
Y-250825D01*
X664226Y-250879D01*
X664244Y-250970D01*
X664281Y-251080D01*
X664317Y-251225D01*
X664335Y-251390D01*
X664372Y-251754D01*
Y-251790D01*
Y-251881D01*
X664354Y-252027D01*
X664335Y-252228D01*
X664299Y-252428D01*
X664244Y-252665D01*
X664171Y-252902D01*
X664062Y-253139D01*
X664044Y-253157D01*
X664007Y-253230D01*
X663935Y-253339D01*
X663843Y-253485D01*
X663734Y-253631D01*
X663588Y-253813D01*
X663424Y-253977D01*
X663224Y-254141D01*
X663206Y-254159D01*
X663133Y-254214D01*
X663005Y-254287D01*
X662859Y-254359D01*
X662659Y-254469D01*
X662440Y-254578D01*
X662185Y-254669D01*
X661894Y-254760D01*
X661857D01*
X661766Y-254797D01*
X661602Y-254815D01*
X661402Y-254851D01*
X661147Y-254888D01*
X660855Y-254924D01*
X660527Y-254942D01*
X660181Y-254961D01*
X657430D01*
Y-244247D01*
X660600D01*
X660782Y-244266D01*
D02*
G37*
G36*
X688076Y-246725D02*
X691793D01*
Y-247928D01*
X688076D01*
Y-252118D01*
Y-252136D01*
Y-252155D01*
Y-252264D01*
X688094Y-252410D01*
X688131Y-252610D01*
X688185Y-252829D01*
X688276Y-253047D01*
X688386Y-253248D01*
X688550Y-253430D01*
X688568Y-253448D01*
X688641Y-253503D01*
X688750Y-253576D01*
X688896Y-253649D01*
X689096Y-253722D01*
X689333Y-253795D01*
X689607Y-253849D01*
X689934Y-253867D01*
X690190D01*
X690317Y-253849D01*
X690481D01*
X690809Y-253813D01*
X690827D01*
X690900Y-253795D01*
X690991D01*
X691119Y-253758D01*
X691264Y-253740D01*
X691429Y-253703D01*
X691793Y-253612D01*
Y-254851D01*
X691775D01*
X691702Y-254870D01*
X691611Y-254888D01*
X691483Y-254906D01*
X691319Y-254942D01*
X691155Y-254961D01*
X690773Y-255015D01*
X690682D01*
X690590Y-255033D01*
X690445D01*
X690299Y-255052D01*
X690117D01*
X689734Y-255070D01*
X689588D01*
X689479Y-255052D01*
X689351D01*
X689206Y-255033D01*
X688860Y-254979D01*
X688495Y-254906D01*
X688112Y-254778D01*
X687748Y-254614D01*
X687566Y-254505D01*
X687420Y-254378D01*
X687384Y-254341D01*
X687293Y-254250D01*
X687183Y-254086D01*
X687038Y-253849D01*
X686892Y-253539D01*
X686782Y-253175D01*
X686691Y-252738D01*
X686655Y-252228D01*
Y-247928D01*
X684359Y-247928D01*
Y-246725D01*
X686655Y-246725D01*
Y-244466D01*
X688076Y-244083D01*
Y-246725D01*
D02*
G37*
G36*
X678838Y-246725D02*
X682555D01*
Y-247928D01*
X678838D01*
Y-252118D01*
Y-252136D01*
Y-252155D01*
Y-252264D01*
X678857Y-252410D01*
X678893Y-252610D01*
X678948Y-252829D01*
X679039Y-253047D01*
X679148Y-253248D01*
X679312Y-253430D01*
X679330Y-253448D01*
X679403Y-253503D01*
X679513Y-253576D01*
X679658Y-253649D01*
X679859Y-253722D01*
X680096Y-253795D01*
X680369Y-253849D01*
X680697Y-253867D01*
X680952D01*
X681079Y-253849D01*
X681244D01*
X681571Y-253813D01*
X681590D01*
X681663Y-253795D01*
X681754D01*
X681881Y-253758D01*
X682027Y-253740D01*
X682191Y-253703D01*
X682555Y-253612D01*
Y-254851D01*
X682537D01*
X682464Y-254870D01*
X682373Y-254888D01*
X682246Y-254906D01*
X682082Y-254942D01*
X681918Y-254961D01*
X681535Y-255015D01*
X681444D01*
X681353Y-255033D01*
X681207D01*
X681061Y-255052D01*
X680879D01*
X680497Y-255070D01*
X680351D01*
X680241Y-255052D01*
X680114D01*
X679968Y-255033D01*
X679622Y-254979D01*
X679257Y-254906D01*
X678875Y-254778D01*
X678511Y-254614D01*
X678328Y-254505D01*
X678183Y-254378D01*
X678146Y-254341D01*
X678055Y-254250D01*
X677946Y-254086D01*
X677800Y-253849D01*
X677654Y-253539D01*
X677545Y-253175D01*
X677454Y-252738D01*
X677417Y-252228D01*
Y-247928D01*
X675122D01*
Y-246725D01*
X677417D01*
Y-244466D01*
X678838Y-244083D01*
Y-246725D01*
D02*
G37*
G36*
X762760Y-246598D02*
X762960Y-246616D01*
X763197Y-246652D01*
X763452Y-246689D01*
X763707Y-246762D01*
X763962Y-246853D01*
X763999Y-246871D01*
X764072Y-246907D01*
X764199Y-246962D01*
X764363Y-247053D01*
X764527Y-247162D01*
X764727Y-247290D01*
X764910Y-247454D01*
X765092Y-247636D01*
X765110Y-247654D01*
X765165Y-247727D01*
X765256Y-247837D01*
X765347Y-247964D01*
X765456Y-248146D01*
X765584Y-248347D01*
X765693Y-248584D01*
X765784Y-248839D01*
X765802Y-248875D01*
X765821Y-248966D01*
X765857Y-249112D01*
X765912Y-249294D01*
X765948Y-249531D01*
X765985Y-249786D01*
X766003Y-250078D01*
X766021Y-250406D01*
Y-250424D01*
Y-250460D01*
Y-250515D01*
Y-250588D01*
Y-250752D01*
X766003Y-250934D01*
Y-250970D01*
Y-251062D01*
Y-251171D01*
X765985Y-251298D01*
X760209D01*
Y-251317D01*
Y-251353D01*
Y-251426D01*
X760227Y-251499D01*
Y-251608D01*
X760245Y-251736D01*
X760300Y-252027D01*
X760373Y-252337D01*
X760500Y-252665D01*
X760665Y-252975D01*
X760901Y-253248D01*
X760938Y-253284D01*
X761029Y-253357D01*
X761193Y-253467D01*
X761430Y-253576D01*
X761721Y-253703D01*
X762067Y-253813D01*
X762468Y-253886D01*
X762942Y-253922D01*
X763398D01*
X763653Y-253904D01*
X763707D01*
X763780Y-253886D01*
X763871D01*
X764108Y-253849D01*
X764345Y-253831D01*
X764363D01*
X764400Y-253813D01*
X764472D01*
X764564Y-253795D01*
X764764Y-253758D01*
X765001Y-253722D01*
X765019D01*
X765056Y-253703D01*
X765110Y-253685D01*
X765183Y-253667D01*
X765383Y-253630D01*
X765584Y-253576D01*
Y-254742D01*
X765566D01*
X765475Y-254760D01*
X765365Y-254797D01*
X765201Y-254833D01*
X765001Y-254870D01*
X764782Y-254924D01*
X764527Y-254961D01*
X764254Y-254997D01*
X764217D01*
X764126Y-255015D01*
X763980Y-255033D01*
X763798Y-255052D01*
X763561Y-255070D01*
X763306Y-255088D01*
X763033Y-255106D01*
X762559D01*
X762359Y-255088D01*
X762122Y-255070D01*
X761831Y-255033D01*
X761521Y-254997D01*
X761211Y-254924D01*
X760920Y-254833D01*
X760883Y-254815D01*
X760792Y-254778D01*
X760646Y-254706D01*
X760482Y-254614D01*
X760282Y-254505D01*
X760063Y-254359D01*
X759863Y-254195D01*
X759662Y-253995D01*
X759644Y-253977D01*
X759589Y-253904D01*
X759498Y-253776D01*
X759389Y-253630D01*
X759262Y-253430D01*
X759152Y-253211D01*
X759025Y-252938D01*
X758934Y-252665D01*
Y-252647D01*
Y-252628D01*
X758897Y-252519D01*
X758861Y-252355D01*
X758824Y-252136D01*
X758788Y-251863D01*
X758751Y-251572D01*
X758733Y-251225D01*
X758715Y-250861D01*
Y-250843D01*
Y-250825D01*
Y-250715D01*
X758733Y-250551D01*
X758751Y-250333D01*
X758770Y-250096D01*
X758824Y-249823D01*
X758879Y-249531D01*
X758952Y-249239D01*
Y-249221D01*
X758970Y-249203D01*
X759007Y-249112D01*
X759061Y-248966D01*
X759134Y-248766D01*
X759243Y-248565D01*
X759371Y-248328D01*
X759517Y-248092D01*
X759681Y-247873D01*
X759699Y-247855D01*
X759772Y-247782D01*
X759881Y-247673D01*
X760009Y-247527D01*
X760191Y-247381D01*
X760391Y-247217D01*
X760610Y-247071D01*
X760865Y-246926D01*
X760901Y-246907D01*
X760992Y-246871D01*
X761138Y-246816D01*
X761320Y-246743D01*
X761557Y-246689D01*
X761831Y-246634D01*
X762122Y-246598D01*
X762450Y-246579D01*
X762596D01*
X762760Y-246598D01*
D02*
G37*
G36*
X735047Y-246598D02*
X735248Y-246616D01*
X735503Y-246652D01*
X735758Y-246707D01*
X736031Y-246780D01*
X736304Y-246871D01*
X736341Y-246889D01*
X736432Y-246926D01*
X736559Y-246980D01*
X736723Y-247071D01*
X736906Y-247181D01*
X737106Y-247326D01*
X737306Y-247490D01*
X737489Y-247673D01*
X737507Y-247691D01*
X737562Y-247764D01*
X737653Y-247873D01*
X737762Y-248037D01*
X737889Y-248219D01*
X738017Y-248456D01*
X738126Y-248711D01*
X738236Y-248985D01*
X738254Y-249021D01*
X738272Y-249130D01*
X738327Y-249294D01*
X738381Y-249495D01*
X738418Y-249768D01*
X738473Y-250078D01*
X738491Y-250424D01*
X738509Y-250788D01*
Y-250806D01*
Y-250825D01*
Y-250879D01*
Y-250952D01*
X738491Y-251134D01*
X738473Y-251371D01*
X738436Y-251645D01*
X738400Y-251936D01*
X738327Y-252246D01*
X738236Y-252556D01*
X738217Y-252592D01*
X738181Y-252683D01*
X738126Y-252829D01*
X738035Y-253011D01*
X737926Y-253230D01*
X737798Y-253467D01*
X737634Y-253703D01*
X737452Y-253922D01*
X737434Y-253940D01*
X737361Y-254013D01*
X737252Y-254122D01*
X737106Y-254250D01*
X736924Y-254378D01*
X736723Y-254523D01*
X736468Y-254669D01*
X736213Y-254797D01*
X736177Y-254815D01*
X736086Y-254851D01*
X735940Y-254888D01*
X735740Y-254942D01*
X735485Y-255015D01*
X735211Y-255052D01*
X734901Y-255088D01*
X734555Y-255106D01*
X734410D01*
X734227Y-255088D01*
X734027Y-255070D01*
X733772Y-255033D01*
X733498Y-254997D01*
X733225Y-254924D01*
X732952Y-254833D01*
X732915Y-254815D01*
X732843Y-254778D01*
X732715Y-254724D01*
X732551Y-254633D01*
X732351Y-254523D01*
X732168Y-254378D01*
X731968Y-254214D01*
X731768Y-254031D01*
X731749Y-254013D01*
X731695Y-253940D01*
X731604Y-253831D01*
X731494Y-253667D01*
X731385Y-253485D01*
X731257Y-253248D01*
X731148Y-252993D01*
X731039Y-252720D01*
Y-252701D01*
X731021Y-252683D01*
X731002Y-252574D01*
X730966Y-252410D01*
X730911Y-252191D01*
X730857Y-251918D01*
X730820Y-251608D01*
X730802Y-251262D01*
X730784Y-250898D01*
Y-250879D01*
Y-250861D01*
Y-250806D01*
Y-250734D01*
X730802Y-250551D01*
X730820Y-250333D01*
X730838Y-250059D01*
X730893Y-249768D01*
X730948Y-249458D01*
X731039Y-249167D01*
Y-249148D01*
X731057Y-249130D01*
X731093Y-249039D01*
X731148Y-248875D01*
X731239Y-248693D01*
X731349Y-248474D01*
X731494Y-248256D01*
X731640Y-248019D01*
X731822Y-247800D01*
X731840Y-247782D01*
X731913Y-247709D01*
X732023Y-247600D01*
X732168Y-247472D01*
X732351Y-247326D01*
X732569Y-247181D01*
X732806Y-247035D01*
X733061Y-246907D01*
X733098Y-246889D01*
X733189Y-246853D01*
X733334Y-246798D01*
X733535Y-246743D01*
X733790Y-246689D01*
X734063Y-246634D01*
X734373Y-246598D01*
X734719Y-246579D01*
X734865D01*
X735047Y-246598D01*
D02*
G37*
G36*
X698097D02*
X698297Y-246616D01*
X698553Y-246652D01*
X698808Y-246707D01*
X699081Y-246780D01*
X699354Y-246871D01*
X699391Y-246889D01*
X699482Y-246926D01*
X699609Y-246980D01*
X699773Y-247071D01*
X699956Y-247181D01*
X700156Y-247326D01*
X700356Y-247490D01*
X700538Y-247673D01*
X700557Y-247691D01*
X700611Y-247764D01*
X700702Y-247873D01*
X700812Y-248037D01*
X700939Y-248219D01*
X701067Y-248456D01*
X701176Y-248711D01*
X701286Y-248985D01*
X701304Y-249021D01*
X701322Y-249130D01*
X701377Y-249294D01*
X701431Y-249495D01*
X701468Y-249768D01*
X701522Y-250078D01*
X701541Y-250424D01*
X701559Y-250788D01*
Y-250806D01*
Y-250825D01*
Y-250879D01*
Y-250952D01*
X701541Y-251134D01*
X701522Y-251371D01*
X701486Y-251645D01*
X701449Y-251936D01*
X701377Y-252246D01*
X701286Y-252556D01*
X701267Y-252592D01*
X701231Y-252683D01*
X701176Y-252829D01*
X701085Y-253011D01*
X700976Y-253230D01*
X700848Y-253467D01*
X700684Y-253703D01*
X700502Y-253922D01*
X700484Y-253940D01*
X700411Y-254013D01*
X700302Y-254122D01*
X700156Y-254250D01*
X699974Y-254378D01*
X699773Y-254523D01*
X699518Y-254669D01*
X699263Y-254797D01*
X699227Y-254815D01*
X699135Y-254851D01*
X698990Y-254888D01*
X698789Y-254942D01*
X698534Y-255015D01*
X698261Y-255052D01*
X697951Y-255088D01*
X697605Y-255106D01*
X697459D01*
X697277Y-255088D01*
X697077Y-255070D01*
X696822Y-255033D01*
X696548Y-254997D01*
X696275Y-254924D01*
X696002Y-254833D01*
X695965Y-254815D01*
X695892Y-254778D01*
X695765Y-254724D01*
X695601Y-254633D01*
X695400Y-254523D01*
X695218Y-254378D01*
X695018Y-254214D01*
X694817Y-254031D01*
X694799Y-254013D01*
X694744Y-253940D01*
X694653Y-253831D01*
X694544Y-253667D01*
X694435Y-253485D01*
X694307Y-253248D01*
X694198Y-252993D01*
X694089Y-252720D01*
Y-252701D01*
X694070Y-252683D01*
X694052Y-252574D01*
X694016Y-252410D01*
X693961Y-252191D01*
X693906Y-251918D01*
X693870Y-251608D01*
X693852Y-251262D01*
X693833Y-250898D01*
Y-250879D01*
Y-250861D01*
Y-250806D01*
Y-250734D01*
X693852Y-250551D01*
X693870Y-250333D01*
X693888Y-250059D01*
X693943Y-249768D01*
X693997Y-249458D01*
X694089Y-249167D01*
Y-249148D01*
X694107Y-249130D01*
X694143Y-249039D01*
X694198Y-248875D01*
X694289Y-248693D01*
X694398Y-248474D01*
X694544Y-248256D01*
X694690Y-248019D01*
X694872Y-247800D01*
X694890Y-247782D01*
X694963Y-247709D01*
X695073Y-247600D01*
X695218Y-247472D01*
X695400Y-247326D01*
X695619Y-247181D01*
X695856Y-247035D01*
X696111Y-246907D01*
X696147Y-246889D01*
X696239Y-246853D01*
X696384Y-246798D01*
X696585Y-246743D01*
X696840Y-246689D01*
X697113Y-246634D01*
X697423Y-246598D01*
X697769Y-246579D01*
X697915D01*
X698097Y-246598D01*
D02*
G37*
G36*
X670384Y-246598D02*
X670585Y-246616D01*
X670840Y-246652D01*
X671095Y-246707D01*
X671368Y-246780D01*
X671642Y-246871D01*
X671678Y-246889D01*
X671769Y-246926D01*
X671897Y-246980D01*
X672061Y-247071D01*
X672243Y-247181D01*
X672443Y-247326D01*
X672644Y-247490D01*
X672826Y-247673D01*
X672844Y-247691D01*
X672899Y-247764D01*
X672990Y-247873D01*
X673099Y-248037D01*
X673227Y-248219D01*
X673354Y-248456D01*
X673464Y-248711D01*
X673573Y-248985D01*
X673591Y-249021D01*
X673609Y-249130D01*
X673664Y-249294D01*
X673719Y-249495D01*
X673755Y-249768D01*
X673810Y-250078D01*
X673828Y-250424D01*
X673846Y-250788D01*
Y-250806D01*
Y-250825D01*
Y-250879D01*
Y-250952D01*
X673828Y-251134D01*
X673810Y-251371D01*
X673773Y-251645D01*
X673737Y-251936D01*
X673664Y-252246D01*
X673573Y-252556D01*
X673555Y-252592D01*
X673518Y-252683D01*
X673464Y-252829D01*
X673373Y-253011D01*
X673263Y-253230D01*
X673136Y-253467D01*
X672972Y-253703D01*
X672789Y-253922D01*
X672771Y-253940D01*
X672698Y-254013D01*
X672589Y-254122D01*
X672443Y-254250D01*
X672261Y-254378D01*
X672061Y-254523D01*
X671806Y-254669D01*
X671551Y-254797D01*
X671514Y-254815D01*
X671423Y-254851D01*
X671277Y-254888D01*
X671077Y-254942D01*
X670822Y-255015D01*
X670548Y-255052D01*
X670239Y-255088D01*
X669893Y-255106D01*
X669747D01*
X669564Y-255088D01*
X669364Y-255070D01*
X669109Y-255033D01*
X668836Y-254997D01*
X668562Y-254924D01*
X668289Y-254833D01*
X668253Y-254815D01*
X668180Y-254778D01*
X668052Y-254724D01*
X667888Y-254633D01*
X667688Y-254523D01*
X667506Y-254378D01*
X667305Y-254214D01*
X667105Y-254031D01*
X667087Y-254013D01*
X667032Y-253940D01*
X666941Y-253831D01*
X666831Y-253667D01*
X666722Y-253485D01*
X666595Y-253248D01*
X666485Y-252993D01*
X666376Y-252720D01*
Y-252701D01*
X666358Y-252683D01*
X666339Y-252574D01*
X666303Y-252410D01*
X666248Y-252191D01*
X666194Y-251918D01*
X666157Y-251608D01*
X666139Y-251262D01*
X666121Y-250898D01*
Y-250879D01*
Y-250861D01*
Y-250806D01*
Y-250734D01*
X666139Y-250551D01*
X666157Y-250333D01*
X666176Y-250060D01*
X666230Y-249768D01*
X666285Y-249458D01*
X666376Y-249167D01*
Y-249149D01*
X666394Y-249130D01*
X666431Y-249039D01*
X666485Y-248875D01*
X666576Y-248693D01*
X666686Y-248474D01*
X666831Y-248256D01*
X666977Y-248019D01*
X667160Y-247800D01*
X667178Y-247782D01*
X667251Y-247709D01*
X667360Y-247600D01*
X667506Y-247472D01*
X667688Y-247326D01*
X667907Y-247181D01*
X668143Y-247035D01*
X668398Y-246907D01*
X668435Y-246889D01*
X668526Y-246853D01*
X668672Y-246798D01*
X668872Y-246743D01*
X669127Y-246689D01*
X669401Y-246634D01*
X669710Y-246598D01*
X670056Y-246579D01*
X670202D01*
X670384Y-246598D01*
D02*
G37*
G36*
X118947Y-246598D02*
X119111Y-246634D01*
X119238Y-246671D01*
X119256Y-246689D01*
X119274D01*
X119439Y-246780D01*
X119584Y-246871D01*
X119694Y-246944D01*
X119712Y-246962D01*
X119730Y-246980D01*
X119894Y-247144D01*
X120021Y-247326D01*
X120076Y-247399D01*
X120113Y-247454D01*
X120131Y-247490D01*
X120149Y-247509D01*
X120295Y-247764D01*
X120441Y-248019D01*
X120495Y-248128D01*
X120532Y-248219D01*
X120550Y-248274D01*
X120568Y-248292D01*
X120641Y-246725D01*
X121807D01*
Y-254961D01*
X120386D01*
Y-249677D01*
X120295Y-249476D01*
X120204Y-249276D01*
X120131Y-249112D01*
X120076Y-248985D01*
X120021Y-248875D01*
X119985Y-248802D01*
X119949Y-248748D01*
Y-248729D01*
X119821Y-248493D01*
X119712Y-248310D01*
X119639Y-248201D01*
X119621Y-248165D01*
X119511Y-248019D01*
X119420Y-247928D01*
X119366Y-247873D01*
X119347Y-247855D01*
X119256Y-247800D01*
X119165Y-247782D01*
X119092Y-247764D01*
X119074D01*
X118983Y-247782D01*
X118910Y-247800D01*
X118874Y-247818D01*
X118855Y-247837D01*
X118801Y-247891D01*
X118746Y-247964D01*
X118728Y-248037D01*
X118710Y-248055D01*
X118655Y-248183D01*
X118637Y-248329D01*
X118619Y-248438D01*
Y-248474D01*
Y-248493D01*
X118600Y-248711D01*
X118582Y-248948D01*
Y-249057D01*
Y-249130D01*
Y-249185D01*
Y-249203D01*
Y-254961D01*
X117161D01*
Y-249677D01*
X117070Y-249495D01*
X116997Y-249312D01*
X116924Y-249167D01*
X116869Y-249039D01*
X116815Y-248930D01*
X116778Y-248857D01*
X116742Y-248802D01*
Y-248784D01*
X116614Y-248547D01*
X116505Y-248347D01*
X116469Y-248292D01*
X116432Y-248237D01*
X116414Y-248219D01*
Y-248201D01*
X116305Y-248055D01*
X116214Y-247946D01*
X116159Y-247891D01*
X116141Y-247873D01*
X116031Y-247800D01*
X115940Y-247782D01*
X115867Y-247764D01*
X115849D01*
X115758Y-247782D01*
X115685Y-247800D01*
X115649Y-247818D01*
X115630Y-247837D01*
X115576Y-247891D01*
X115521Y-247964D01*
X115503Y-248019D01*
X115485Y-248037D01*
X115430Y-248165D01*
X115412Y-248292D01*
X115394Y-248401D01*
Y-248420D01*
Y-248438D01*
X115375Y-248638D01*
X115357Y-248839D01*
Y-248930D01*
Y-248985D01*
Y-249039D01*
Y-249057D01*
Y-254961D01*
X113936D01*
Y-248966D01*
X113954Y-248547D01*
X114009Y-248183D01*
X114082Y-247855D01*
X114173Y-247582D01*
X114301Y-247363D01*
X114428Y-247163D01*
X114574Y-246999D01*
X114719Y-246871D01*
X114865Y-246780D01*
X115011Y-246707D01*
X115139Y-246652D01*
X115266Y-246616D01*
X115357Y-246598D01*
X115430Y-246579D01*
X115503D01*
X115740Y-246598D01*
X115940Y-246634D01*
X116013Y-246671D01*
X116068Y-246689D01*
X116104Y-246707D01*
X116122D01*
X116305Y-246816D01*
X116450Y-246926D01*
X116560Y-247017D01*
X116578Y-247035D01*
X116596Y-247053D01*
X116742Y-247235D01*
X116869Y-247418D01*
X116924Y-247490D01*
X116961Y-247563D01*
X116997Y-247600D01*
Y-247618D01*
X117124Y-247873D01*
X117252Y-248110D01*
X117307Y-248219D01*
X117343Y-248292D01*
X117361Y-248347D01*
X117380Y-248365D01*
X117398Y-248037D01*
X117434Y-247764D01*
X117489Y-247545D01*
X117544Y-247345D01*
X117616Y-247199D01*
X117671Y-247090D01*
X117708Y-247035D01*
X117726Y-247017D01*
X117872Y-246871D01*
X118035Y-246762D01*
X118200Y-246689D01*
X118363Y-246634D01*
X118509Y-246598D01*
X118637Y-246579D01*
X118746D01*
X118947Y-246598D01*
D02*
G37*
G36*
X45046Y-246598D02*
X45210Y-246634D01*
X45338Y-246671D01*
X45356Y-246689D01*
X45374D01*
X45538Y-246780D01*
X45684Y-246871D01*
X45793Y-246944D01*
X45812Y-246962D01*
X45830Y-246980D01*
X45994Y-247144D01*
X46121Y-247326D01*
X46176Y-247399D01*
X46212Y-247454D01*
X46231Y-247491D01*
X46249Y-247509D01*
X46395Y-247764D01*
X46540Y-248019D01*
X46595Y-248128D01*
X46631Y-248219D01*
X46650Y-248274D01*
X46668Y-248292D01*
X46741Y-246725D01*
X47907D01*
Y-254961D01*
X46486D01*
Y-249677D01*
X46395Y-249476D01*
X46303Y-249276D01*
X46231Y-249112D01*
X46176Y-248985D01*
X46121Y-248875D01*
X46085Y-248802D01*
X46048Y-248748D01*
Y-248729D01*
X45921Y-248493D01*
X45812Y-248310D01*
X45739Y-248201D01*
X45720Y-248165D01*
X45611Y-248019D01*
X45520Y-247928D01*
X45465Y-247873D01*
X45447Y-247855D01*
X45356Y-247800D01*
X45265Y-247782D01*
X45192Y-247764D01*
X45174D01*
X45083Y-247782D01*
X45010Y-247800D01*
X44973Y-247818D01*
X44955Y-247837D01*
X44901Y-247891D01*
X44846Y-247964D01*
X44828Y-248037D01*
X44809Y-248055D01*
X44755Y-248183D01*
X44736Y-248329D01*
X44718Y-248438D01*
Y-248474D01*
Y-248493D01*
X44700Y-248711D01*
X44682Y-248948D01*
Y-249057D01*
Y-249130D01*
Y-249185D01*
Y-249203D01*
Y-254961D01*
X43261D01*
Y-249677D01*
X43170Y-249495D01*
X43097Y-249312D01*
X43024Y-249167D01*
X42969Y-249039D01*
X42915Y-248930D01*
X42878Y-248857D01*
X42842Y-248802D01*
Y-248784D01*
X42714Y-248547D01*
X42605Y-248347D01*
X42568Y-248292D01*
X42532Y-248237D01*
X42514Y-248219D01*
Y-248201D01*
X42404Y-248055D01*
X42313Y-247946D01*
X42259Y-247891D01*
X42240Y-247873D01*
X42131Y-247800D01*
X42040Y-247782D01*
X41967Y-247764D01*
X41949D01*
X41858Y-247782D01*
X41785Y-247800D01*
X41748Y-247818D01*
X41730Y-247837D01*
X41675Y-247891D01*
X41621Y-247964D01*
X41603Y-248019D01*
X41584Y-248037D01*
X41530Y-248165D01*
X41511Y-248292D01*
X41493Y-248401D01*
Y-248420D01*
Y-248438D01*
X41475Y-248638D01*
X41457Y-248839D01*
Y-248930D01*
Y-248985D01*
Y-249039D01*
Y-249057D01*
Y-254961D01*
X40036D01*
Y-248966D01*
X40054Y-248547D01*
X40109Y-248183D01*
X40181Y-247855D01*
X40273Y-247582D01*
X40400Y-247363D01*
X40528Y-247163D01*
X40673Y-246999D01*
X40819Y-246871D01*
X40965Y-246780D01*
X41111Y-246707D01*
X41238Y-246652D01*
X41366Y-246616D01*
X41457Y-246598D01*
X41530Y-246579D01*
X41603D01*
X41840Y-246598D01*
X42040Y-246634D01*
X42113Y-246671D01*
X42167Y-246689D01*
X42204Y-246707D01*
X42222D01*
X42404Y-246816D01*
X42550Y-246926D01*
X42659Y-247017D01*
X42678Y-247035D01*
X42696Y-247053D01*
X42842Y-247235D01*
X42969Y-247418D01*
X43024Y-247491D01*
X43060Y-247563D01*
X43097Y-247600D01*
Y-247618D01*
X43224Y-247873D01*
X43352Y-248110D01*
X43406Y-248219D01*
X43443Y-248292D01*
X43461Y-248347D01*
X43479Y-248365D01*
X43497Y-248037D01*
X43534Y-247764D01*
X43589Y-247545D01*
X43643Y-247345D01*
X43716Y-247199D01*
X43771Y-247090D01*
X43807Y-247035D01*
X43826Y-247017D01*
X43971Y-246871D01*
X44135Y-246762D01*
X44299Y-246689D01*
X44463Y-246634D01*
X44609Y-246598D01*
X44736Y-246579D01*
X44846D01*
X45046Y-246598D01*
D02*
G37*
G36*
X35171D02*
X35298D01*
X35408Y-246616D01*
X35481D01*
X35535Y-246634D01*
X35554D01*
X35845Y-246671D01*
X35973Y-246689D01*
X36082Y-246707D01*
X36173Y-246725D01*
X36246Y-246743D01*
X36301Y-246762D01*
X36319D01*
X36574Y-246816D01*
X36811Y-246871D01*
X36902Y-246889D01*
X36975Y-246907D01*
X37011Y-246926D01*
X37029D01*
X37266Y-246999D01*
X37448Y-247053D01*
X37521Y-247071D01*
X37558Y-247090D01*
X37594Y-247108D01*
X37613D01*
Y-248401D01*
X37357Y-248310D01*
X37102Y-248219D01*
X36865Y-248146D01*
X36647Y-248074D01*
X36483Y-248037D01*
X36337Y-248001D01*
X36264Y-247964D01*
X36228D01*
X35718Y-247873D01*
X35499Y-247837D01*
X35280Y-247818D01*
X35098Y-247800D01*
X34843D01*
X34515Y-247818D01*
X34224Y-247873D01*
X33968Y-247946D01*
X33768Y-248019D01*
X33622Y-248092D01*
X33513Y-248165D01*
X33440Y-248219D01*
X33422Y-248237D01*
X33258Y-248420D01*
X33149Y-248602D01*
X33057Y-248802D01*
X33003Y-248985D01*
X32966Y-249149D01*
X32948Y-249276D01*
Y-249367D01*
Y-249404D01*
Y-250114D01*
X34989D01*
X35298Y-250151D01*
X35590Y-250187D01*
X35845Y-250223D01*
X36100Y-250278D01*
X36319Y-250333D01*
X36519Y-250406D01*
X36702Y-250460D01*
X36865Y-250533D01*
X37011Y-250606D01*
X37121Y-250661D01*
X37212Y-250715D01*
X37303Y-250752D01*
X37357Y-250788D01*
X37376Y-250825D01*
X37394D01*
X37558Y-250971D01*
X37685Y-251116D01*
X37813Y-251262D01*
X37922Y-251426D01*
X38086Y-251754D01*
X38195Y-252064D01*
X38250Y-252337D01*
X38268Y-252465D01*
X38287Y-252574D01*
X38305Y-252647D01*
Y-252720D01*
Y-252756D01*
Y-252774D01*
X38287Y-253120D01*
X38250Y-253284D01*
X38232Y-253430D01*
X38195Y-253539D01*
X38177Y-253631D01*
X38159Y-253685D01*
Y-253703D01*
X38032Y-253995D01*
X37940Y-254122D01*
X37868Y-254232D01*
X37795Y-254323D01*
X37740Y-254396D01*
X37704Y-254432D01*
X37685Y-254450D01*
X37412Y-254651D01*
X37157Y-254815D01*
X37029Y-254870D01*
X36938Y-254906D01*
X36884Y-254942D01*
X36865D01*
X36465Y-255033D01*
X36264Y-255070D01*
X36064Y-255088D01*
X35900D01*
X35772Y-255106D01*
X35663D01*
X35371Y-255088D01*
X35116Y-255052D01*
X34861Y-255015D01*
X34643Y-254961D01*
X34460Y-254906D01*
X34333Y-254851D01*
X34242Y-254833D01*
X34205Y-254815D01*
X33950Y-254687D01*
X33695Y-254542D01*
X33476Y-254378D01*
X33258Y-254232D01*
X33094Y-254086D01*
X32948Y-253977D01*
X32875Y-253904D01*
X32839Y-253868D01*
X32802Y-254961D01*
X31509D01*
Y-249294D01*
X31527Y-249039D01*
X31545Y-248820D01*
X31582Y-248602D01*
X31618Y-248438D01*
X31673Y-248292D01*
X31709Y-248183D01*
X31727Y-248110D01*
X31746Y-248092D01*
X31837Y-247909D01*
X31928Y-247745D01*
X32037Y-247600D01*
X32146Y-247472D01*
X32238Y-247381D01*
X32310Y-247308D01*
X32365Y-247272D01*
X32383Y-247254D01*
X32547Y-247126D01*
X32711Y-247035D01*
X32875Y-246944D01*
X33039Y-246871D01*
X33167Y-246816D01*
X33276Y-246780D01*
X33367Y-246743D01*
X33385D01*
X33841Y-246652D01*
X34078Y-246616D01*
X34278Y-246598D01*
X34460Y-246579D01*
X35043D01*
X35171Y-246598D01*
D02*
G37*
G36*
X19429Y-254961D02*
X18008D01*
Y-250551D01*
X14163Y-254961D01*
X12196D01*
X16277Y-250533D01*
X12414Y-246725D01*
X14309D01*
X18008Y-250497D01*
Y-243373D01*
X19429D01*
Y-254961D01*
D02*
G37*
G36*
X147443Y-244466D02*
Y-246725D01*
X149738D01*
Y-247928D01*
X147443D01*
Y-252228D01*
X147406Y-252738D01*
X147315Y-253175D01*
X147206Y-253539D01*
X147060Y-253849D01*
X146914Y-254086D01*
X146805Y-254250D01*
X146714Y-254341D01*
X146677Y-254378D01*
X146532Y-254505D01*
X146349Y-254614D01*
X145985Y-254778D01*
X145602Y-254906D01*
X145238Y-254979D01*
X144892Y-255033D01*
X144746Y-255052D01*
X144618D01*
X144509Y-255070D01*
X144363D01*
X143981Y-255052D01*
X143799D01*
X143653Y-255033D01*
X143507D01*
X143416Y-255015D01*
X143325D01*
X142942Y-254961D01*
X142778Y-254942D01*
X142614Y-254906D01*
X142487Y-254888D01*
X142396Y-254870D01*
X142323Y-254851D01*
X142305D01*
Y-253612D01*
X142669Y-253703D01*
X142833Y-253740D01*
X142979Y-253758D01*
X143106Y-253795D01*
X143197D01*
X143270Y-253813D01*
X143289D01*
X143616Y-253849D01*
X143780D01*
X143908Y-253867D01*
X144163D01*
X144491Y-253849D01*
X144764Y-253795D01*
X145001Y-253722D01*
X145202Y-253649D01*
X145347Y-253576D01*
X145457Y-253503D01*
X145529Y-253448D01*
X145548Y-253430D01*
X145712Y-253248D01*
X145821Y-253047D01*
X145912Y-252829D01*
X145967Y-252610D01*
X146003Y-252410D01*
X146021Y-252264D01*
Y-252155D01*
Y-252136D01*
Y-252118D01*
Y-247928D01*
X142305D01*
Y-246725D01*
X146021D01*
Y-244083D01*
X147443Y-244466D01*
D02*
G37*
G36*
X138205Y-244466D02*
Y-246725D01*
X140501Y-246725D01*
Y-247928D01*
X138205Y-247928D01*
Y-252228D01*
X138169Y-252738D01*
X138077Y-253175D01*
X137968Y-253539D01*
X137822Y-253849D01*
X137677Y-254086D01*
X137567Y-254250D01*
X137476Y-254341D01*
X137440Y-254378D01*
X137294Y-254505D01*
X137112Y-254614D01*
X136748Y-254778D01*
X136365Y-254906D01*
X136001Y-254979D01*
X135654Y-255033D01*
X135509Y-255052D01*
X135381D01*
X135272Y-255070D01*
X135126D01*
X134743Y-255052D01*
X134561D01*
X134415Y-255033D01*
X134270D01*
X134178Y-255015D01*
X134087D01*
X133705Y-254961D01*
X133541Y-254942D01*
X133377Y-254906D01*
X133249Y-254888D01*
X133158Y-254870D01*
X133085Y-254851D01*
X133067D01*
Y-253612D01*
X133431Y-253703D01*
X133595Y-253740D01*
X133741Y-253758D01*
X133869Y-253795D01*
X133960D01*
X134033Y-253813D01*
X134051D01*
X134379Y-253849D01*
X134543D01*
X134670Y-253867D01*
X134925D01*
X135253Y-253849D01*
X135527Y-253795D01*
X135764Y-253722D01*
X135964Y-253649D01*
X136110Y-253576D01*
X136219Y-253503D01*
X136292Y-253448D01*
X136310Y-253430D01*
X136474Y-253248D01*
X136583Y-253047D01*
X136675Y-252829D01*
X136729Y-252610D01*
X136766Y-252410D01*
X136784Y-252264D01*
Y-252155D01*
Y-252136D01*
Y-252118D01*
Y-247928D01*
X133067D01*
Y-246725D01*
X136784D01*
Y-244083D01*
X138205Y-244466D01*
D02*
G37*
G36*
X62738Y-246598D02*
X63029Y-246634D01*
X63303Y-246689D01*
X63539Y-246743D01*
X63722Y-246816D01*
X63867Y-246871D01*
X63959Y-246907D01*
X63995Y-246926D01*
X64250Y-247071D01*
X64469Y-247217D01*
X64669Y-247381D01*
X64851Y-247527D01*
X64979Y-247673D01*
X65088Y-247782D01*
X65161Y-247855D01*
X65179Y-247873D01*
X65343Y-248092D01*
X65489Y-248329D01*
X65617Y-248565D01*
X65726Y-248766D01*
X65799Y-248966D01*
X65854Y-249112D01*
X65890Y-249203D01*
X65908Y-249221D01*
Y-249240D01*
X65981Y-249531D01*
X66036Y-249823D01*
X66090Y-250096D01*
X66109Y-250333D01*
X66127Y-250551D01*
X66145Y-250715D01*
Y-250825D01*
Y-250843D01*
Y-250861D01*
X66127Y-251226D01*
X66109Y-251572D01*
X66072Y-251863D01*
X66036Y-252136D01*
X65999Y-252355D01*
X65963Y-252519D01*
X65926Y-252628D01*
Y-252647D01*
Y-252665D01*
X65835Y-252938D01*
X65708Y-253211D01*
X65598Y-253430D01*
X65471Y-253631D01*
X65361Y-253776D01*
X65270Y-253904D01*
X65216Y-253977D01*
X65198Y-253995D01*
X64997Y-254195D01*
X64797Y-254359D01*
X64578Y-254505D01*
X64378Y-254614D01*
X64214Y-254706D01*
X64068Y-254779D01*
X63977Y-254815D01*
X63940Y-254833D01*
X63649Y-254924D01*
X63339Y-254997D01*
X63029Y-255033D01*
X62738Y-255070D01*
X62501Y-255088D01*
X62301Y-255106D01*
X61827D01*
X61554Y-255088D01*
X61299Y-255070D01*
X61062Y-255052D01*
X60879Y-255033D01*
X60734Y-255015D01*
X60643Y-254997D01*
X60606D01*
X60333Y-254961D01*
X60078Y-254924D01*
X59859Y-254870D01*
X59659Y-254833D01*
X59495Y-254797D01*
X59385Y-254760D01*
X59294Y-254742D01*
X59276D01*
Y-253576D01*
X59477Y-253631D01*
X59677Y-253667D01*
X59750Y-253685D01*
X59804Y-253703D01*
X59841Y-253722D01*
X59859D01*
X60096Y-253758D01*
X60296Y-253795D01*
X60387Y-253813D01*
X60460D01*
X60497Y-253831D01*
X60515D01*
X60752Y-253849D01*
X60989Y-253886D01*
X61080D01*
X61153Y-253904D01*
X61207D01*
X61462Y-253922D01*
X61918D01*
X62392Y-253886D01*
X62792Y-253813D01*
X63139Y-253703D01*
X63430Y-253576D01*
X63667Y-253467D01*
X63831Y-253357D01*
X63922Y-253284D01*
X63959Y-253248D01*
X64196Y-252975D01*
X64359Y-252665D01*
X64487Y-252337D01*
X64560Y-252027D01*
X64614Y-251736D01*
X64633Y-251608D01*
Y-251499D01*
X64651Y-251426D01*
Y-251353D01*
Y-251317D01*
Y-251298D01*
X58875D01*
X58857Y-251171D01*
Y-251062D01*
Y-250971D01*
Y-250934D01*
X58839Y-250752D01*
Y-250588D01*
Y-250515D01*
Y-250460D01*
Y-250424D01*
Y-250406D01*
X58857Y-250078D01*
X58875Y-249786D01*
X58912Y-249531D01*
X58948Y-249294D01*
X59003Y-249112D01*
X59039Y-248966D01*
X59057Y-248875D01*
X59076Y-248839D01*
X59167Y-248584D01*
X59276Y-248347D01*
X59404Y-248146D01*
X59513Y-247964D01*
X59604Y-247837D01*
X59695Y-247727D01*
X59750Y-247654D01*
X59768Y-247636D01*
X59950Y-247454D01*
X60132Y-247290D01*
X60333Y-247163D01*
X60497Y-247053D01*
X60661Y-246962D01*
X60788Y-246907D01*
X60861Y-246871D01*
X60898Y-246853D01*
X61153Y-246762D01*
X61408Y-246689D01*
X61663Y-246652D01*
X61900Y-246616D01*
X62100Y-246598D01*
X62264Y-246579D01*
X62410D01*
X62738Y-246598D01*
D02*
G37*
G36*
X167430Y-254961D02*
X164679D01*
X164333Y-254942D01*
X164005Y-254924D01*
X163713Y-254888D01*
X163458Y-254851D01*
X163258Y-254815D01*
X163094Y-254797D01*
X163003Y-254760D01*
X162966D01*
X162674Y-254669D01*
X162419Y-254578D01*
X162201Y-254469D01*
X162000Y-254359D01*
X161855Y-254287D01*
X161727Y-254214D01*
X161654Y-254159D01*
X161636Y-254141D01*
X161436Y-253977D01*
X161272Y-253813D01*
X161126Y-253631D01*
X161016Y-253485D01*
X160925Y-253339D01*
X160853Y-253230D01*
X160816Y-253157D01*
X160798Y-253139D01*
X160689Y-252902D01*
X160616Y-252665D01*
X160561Y-252428D01*
X160525Y-252228D01*
X160506Y-252027D01*
X160488Y-251881D01*
Y-251790D01*
Y-251754D01*
X160525Y-251390D01*
X160543Y-251225D01*
X160579Y-251080D01*
X160616Y-250970D01*
X160634Y-250879D01*
X160670Y-250825D01*
Y-250806D01*
X160816Y-250497D01*
X160889Y-250369D01*
X160962Y-250260D01*
X161016Y-250187D01*
X161071Y-250114D01*
X161108Y-250078D01*
X161126Y-250060D01*
X161345Y-249841D01*
X161563Y-249695D01*
X161654Y-249622D01*
X161727Y-249586D01*
X161782Y-249549D01*
X161800D01*
X162092Y-249422D01*
X162347Y-249331D01*
X162456Y-249312D01*
X162547Y-249294D01*
X162602Y-249276D01*
X162620D01*
X162292Y-249149D01*
X162019Y-249003D01*
X161782Y-248839D01*
X161600Y-248693D01*
X161472Y-248565D01*
X161363Y-248456D01*
X161308Y-248365D01*
X161290Y-248347D01*
X161144Y-248110D01*
X161053Y-247855D01*
X160980Y-247600D01*
X160925Y-247363D01*
X160889Y-247163D01*
X160871Y-246999D01*
Y-246889D01*
Y-246871D01*
Y-246853D01*
X160889Y-246616D01*
X160907Y-246397D01*
X161016Y-245996D01*
X161199Y-245650D01*
X161417Y-245340D01*
X161691Y-245085D01*
X161982Y-244885D01*
X162310Y-244703D01*
X162638Y-244575D01*
X162966Y-244466D01*
X163294Y-244393D01*
X163585Y-244320D01*
X163859Y-244284D01*
X164077Y-244266D01*
X164260Y-244247D01*
X167430D01*
Y-254961D01*
D02*
G37*
G36*
X83909Y-244539D02*
X81486Y-244539D01*
Y-253776D01*
X84183Y-253776D01*
Y-254961D01*
X77587Y-254961D01*
Y-253776D01*
X80047D01*
Y-243373D01*
X83909Y-243373D01*
Y-244539D01*
D02*
G37*
G36*
X52298Y-246598D02*
X52553Y-246634D01*
X52808Y-246707D01*
X53008Y-246780D01*
X53209Y-246853D01*
X53336Y-246926D01*
X53427Y-246962D01*
X53464Y-246980D01*
X53737Y-247144D01*
X53992Y-247345D01*
X54229Y-247563D01*
X54448Y-247764D01*
X54630Y-247964D01*
X54776Y-248110D01*
X54867Y-248219D01*
X54903Y-248237D01*
Y-248256D01*
X54940Y-246725D01*
X56233D01*
Y-254961D01*
X54794D01*
Y-249677D01*
X54648Y-249495D01*
X54521Y-249331D01*
X54393Y-249203D01*
X54284Y-249076D01*
X54193Y-248966D01*
X54120Y-248893D01*
X54083Y-248857D01*
X54065Y-248839D01*
X53810Y-248602D01*
X53610Y-248401D01*
X53518Y-248347D01*
X53464Y-248292D01*
X53427Y-248274D01*
X53409Y-248256D01*
X53191Y-248110D01*
X52990Y-248001D01*
X52917Y-247964D01*
X52863Y-247946D01*
X52826Y-247928D01*
X52808D01*
X52589Y-247855D01*
X52407Y-247837D01*
X52352Y-247818D01*
X52243D01*
X52006Y-247837D01*
X51806Y-247891D01*
X51642Y-247982D01*
X51496Y-248055D01*
X51387Y-248146D01*
X51296Y-248237D01*
X51259Y-248292D01*
X51241Y-248310D01*
X51132Y-248511D01*
X51041Y-248766D01*
X50986Y-249021D01*
X50950Y-249276D01*
X50931Y-249495D01*
X50913Y-249677D01*
Y-249750D01*
Y-249804D01*
Y-249841D01*
Y-249859D01*
X49474D01*
Y-249568D01*
X49492Y-249294D01*
X49510Y-249039D01*
X49547Y-248784D01*
X49601Y-248565D01*
X49656Y-248365D01*
X49711Y-248201D01*
X49765Y-248037D01*
X49820Y-247891D01*
X49893Y-247764D01*
X49947Y-247654D01*
X49984Y-247563D01*
X50038Y-247509D01*
X50057Y-247454D01*
X50093Y-247418D01*
X50221Y-247272D01*
X50366Y-247144D01*
X50676Y-246926D01*
X50986Y-246780D01*
X51296Y-246689D01*
X51587Y-246616D01*
X51715Y-246598D01*
X51806D01*
X51897Y-246579D01*
X52025D01*
X52298Y-246598D01*
D02*
G37*
G36*
X155150Y-246598D02*
X155459Y-246634D01*
X155733Y-246689D01*
X155988Y-246743D01*
X156188Y-246798D01*
X156334Y-246853D01*
X156425Y-246889D01*
X156462Y-246907D01*
X156717Y-247035D01*
X156954Y-247181D01*
X157172Y-247326D01*
X157354Y-247472D01*
X157500Y-247600D01*
X157609Y-247709D01*
X157682Y-247782D01*
X157701Y-247800D01*
X157883Y-248019D01*
X158028Y-248256D01*
X158174Y-248474D01*
X158283Y-248693D01*
X158375Y-248875D01*
X158429Y-249039D01*
X158466Y-249130D01*
X158484Y-249149D01*
Y-249167D01*
X158575Y-249458D01*
X158630Y-249768D01*
X158684Y-250060D01*
X158703Y-250333D01*
X158721Y-250551D01*
X158739Y-250734D01*
Y-250806D01*
Y-250861D01*
Y-250879D01*
Y-250898D01*
X158721Y-251262D01*
X158703Y-251608D01*
X158666Y-251918D01*
X158612Y-252191D01*
X158557Y-252410D01*
X158520Y-252574D01*
X158502Y-252683D01*
X158484Y-252701D01*
Y-252720D01*
X158375Y-252993D01*
X158265Y-253248D01*
X158138Y-253485D01*
X158028Y-253667D01*
X157919Y-253831D01*
X157828Y-253940D01*
X157773Y-254013D01*
X157755Y-254031D01*
X157555Y-254214D01*
X157354Y-254378D01*
X157172Y-254523D01*
X156972Y-254633D01*
X156808Y-254724D01*
X156680Y-254778D01*
X156607Y-254815D01*
X156571Y-254833D01*
X156298Y-254924D01*
X156024Y-254997D01*
X155751Y-255033D01*
X155496Y-255070D01*
X155296Y-255088D01*
X155113Y-255106D01*
X154967D01*
X154621Y-255088D01*
X154312Y-255052D01*
X154038Y-255015D01*
X153783Y-254942D01*
X153583Y-254888D01*
X153437Y-254851D01*
X153346Y-254815D01*
X153310Y-254797D01*
X153054Y-254669D01*
X152799Y-254523D01*
X152599Y-254378D01*
X152417Y-254250D01*
X152271Y-254122D01*
X152162Y-254013D01*
X152089Y-253940D01*
X152070Y-253922D01*
X151888Y-253703D01*
X151724Y-253467D01*
X151597Y-253230D01*
X151488Y-253011D01*
X151396Y-252829D01*
X151342Y-252683D01*
X151305Y-252592D01*
X151287Y-252556D01*
X151196Y-252246D01*
X151123Y-251936D01*
X151087Y-251645D01*
X151050Y-251371D01*
X151032Y-251134D01*
X151014Y-250952D01*
Y-250879D01*
Y-250825D01*
Y-250806D01*
Y-250788D01*
X151032Y-250424D01*
X151050Y-250078D01*
X151105Y-249768D01*
X151141Y-249495D01*
X151196Y-249294D01*
X151251Y-249130D01*
X151269Y-249021D01*
X151287Y-248985D01*
X151396Y-248711D01*
X151506Y-248456D01*
X151633Y-248219D01*
X151761Y-248037D01*
X151870Y-247873D01*
X151961Y-247764D01*
X152016Y-247691D01*
X152034Y-247673D01*
X152216Y-247490D01*
X152417Y-247326D01*
X152617Y-247181D01*
X152799Y-247071D01*
X152963Y-246980D01*
X153091Y-246926D01*
X153182Y-246889D01*
X153218Y-246871D01*
X153492Y-246780D01*
X153765Y-246707D01*
X154020Y-246652D01*
X154275Y-246616D01*
X154475Y-246598D01*
X154658Y-246579D01*
X154804D01*
X155150Y-246598D01*
D02*
G37*
G36*
X127437Y-246598D02*
X127747Y-246634D01*
X128020Y-246689D01*
X128275Y-246743D01*
X128476Y-246798D01*
X128621Y-246853D01*
X128712Y-246889D01*
X128749Y-246907D01*
X129004Y-247035D01*
X129241Y-247181D01*
X129460Y-247326D01*
X129642Y-247472D01*
X129787Y-247600D01*
X129897Y-247709D01*
X129970Y-247782D01*
X129988Y-247800D01*
X130170Y-248019D01*
X130316Y-248256D01*
X130462Y-248474D01*
X130571Y-248693D01*
X130662Y-248875D01*
X130717Y-249039D01*
X130753Y-249130D01*
X130771Y-249149D01*
Y-249167D01*
X130862Y-249458D01*
X130917Y-249768D01*
X130972Y-250060D01*
X130990Y-250333D01*
X131008Y-250551D01*
X131026Y-250734D01*
Y-250806D01*
Y-250861D01*
Y-250879D01*
Y-250898D01*
X131008Y-251262D01*
X130990Y-251608D01*
X130954Y-251918D01*
X130899Y-252191D01*
X130844Y-252410D01*
X130808Y-252574D01*
X130790Y-252683D01*
X130771Y-252701D01*
Y-252720D01*
X130662Y-252993D01*
X130553Y-253248D01*
X130425Y-253485D01*
X130316Y-253667D01*
X130207Y-253831D01*
X130115Y-253940D01*
X130061Y-254013D01*
X130043Y-254031D01*
X129842Y-254214D01*
X129642Y-254378D01*
X129460Y-254523D01*
X129259Y-254633D01*
X129095Y-254724D01*
X128968Y-254778D01*
X128895Y-254815D01*
X128858Y-254833D01*
X128585Y-254924D01*
X128312Y-254997D01*
X128038Y-255033D01*
X127783Y-255070D01*
X127583Y-255088D01*
X127401Y-255106D01*
X127255D01*
X126909Y-255088D01*
X126599Y-255052D01*
X126326Y-255015D01*
X126071Y-254942D01*
X125870Y-254888D01*
X125724Y-254851D01*
X125633Y-254815D01*
X125597Y-254797D01*
X125342Y-254669D01*
X125087Y-254523D01*
X124886Y-254378D01*
X124704Y-254250D01*
X124558Y-254122D01*
X124449Y-254013D01*
X124376Y-253940D01*
X124358Y-253922D01*
X124176Y-253703D01*
X124012Y-253467D01*
X123884Y-253230D01*
X123775Y-253011D01*
X123684Y-252829D01*
X123629Y-252683D01*
X123593Y-252592D01*
X123574Y-252556D01*
X123483Y-252246D01*
X123410Y-251936D01*
X123374Y-251645D01*
X123338Y-251371D01*
X123319Y-251134D01*
X123301Y-250952D01*
Y-250879D01*
Y-250825D01*
Y-250806D01*
Y-250788D01*
X123319Y-250424D01*
X123338Y-250078D01*
X123392Y-249768D01*
X123429Y-249495D01*
X123483Y-249294D01*
X123538Y-249130D01*
X123556Y-249021D01*
X123574Y-248985D01*
X123684Y-248711D01*
X123793Y-248456D01*
X123921Y-248219D01*
X124048Y-248037D01*
X124158Y-247873D01*
X124249Y-247764D01*
X124303Y-247691D01*
X124321Y-247673D01*
X124504Y-247490D01*
X124704Y-247326D01*
X124905Y-247181D01*
X125087Y-247071D01*
X125251Y-246980D01*
X125378Y-246926D01*
X125469Y-246889D01*
X125506Y-246871D01*
X125779Y-246780D01*
X126052Y-246707D01*
X126307Y-246652D01*
X126562Y-246616D01*
X126763Y-246598D01*
X126945Y-246579D01*
X127091D01*
X127437Y-246598D01*
D02*
G37*
G36*
X99415Y-244102D02*
X99761Y-244120D01*
X100071Y-244156D01*
X100344Y-244211D01*
X100563Y-244266D01*
X100708Y-244302D01*
X100818Y-244320D01*
X100854Y-244338D01*
X101127Y-244448D01*
X101364Y-244557D01*
X101583Y-244666D01*
X101747Y-244776D01*
X101893Y-244867D01*
X102002Y-244940D01*
X102075Y-244994D01*
X102093Y-245012D01*
X102257Y-245177D01*
X102403Y-245340D01*
X102530Y-245504D01*
X102621Y-245650D01*
X102694Y-245778D01*
X102767Y-245869D01*
X102785Y-245942D01*
X102804Y-245960D01*
X102876Y-246160D01*
X102931Y-246361D01*
X102968Y-246543D01*
X102986Y-246707D01*
X103004Y-246853D01*
X103022Y-246962D01*
Y-247035D01*
Y-247053D01*
X103004Y-247272D01*
X102986Y-247490D01*
X102949Y-247673D01*
X102895Y-247837D01*
X102858Y-247964D01*
X102822Y-248055D01*
X102804Y-248128D01*
X102785Y-248146D01*
X102585Y-248456D01*
X102476Y-248602D01*
X102385Y-248711D01*
X102294Y-248820D01*
X102221Y-248893D01*
X102184Y-248930D01*
X102166Y-248948D01*
X101856Y-249185D01*
X101692Y-249276D01*
X101565Y-249367D01*
X101437Y-249440D01*
X101346Y-249476D01*
X101273Y-249513D01*
X101255Y-249531D01*
X100872Y-249713D01*
X100708Y-249786D01*
X100544Y-249859D01*
X100417Y-249914D01*
X100326Y-249968D01*
X100253Y-249987D01*
X100235Y-250005D01*
X99852Y-250151D01*
X99670Y-250223D01*
X99524Y-250278D01*
X99378Y-250333D01*
X99287Y-250369D01*
X99214Y-250387D01*
X99196Y-250406D01*
X98832Y-250570D01*
X98686Y-250642D01*
X98558Y-250715D01*
X98449Y-250770D01*
X98376Y-250825D01*
X98321Y-250843D01*
X98303Y-250861D01*
X98030Y-251043D01*
X97921Y-251134D01*
X97830Y-251225D01*
X97757Y-251298D01*
X97702Y-251353D01*
X97684Y-251390D01*
X97666Y-251408D01*
X97575Y-251535D01*
X97520Y-251645D01*
X97447Y-251882D01*
X97429Y-251991D01*
X97411Y-252064D01*
Y-252118D01*
Y-252136D01*
X97429Y-252410D01*
X97447Y-252537D01*
X97483Y-252647D01*
X97502Y-252738D01*
X97538Y-252811D01*
X97556Y-252847D01*
Y-252865D01*
X97684Y-253084D01*
X97848Y-253248D01*
X97921Y-253303D01*
X97975Y-253357D01*
X98012Y-253376D01*
X98030Y-253394D01*
X98285Y-253521D01*
X98540Y-253631D01*
X98668Y-253649D01*
X98741Y-253685D01*
X98813Y-253703D01*
X98832D01*
X99032Y-253740D01*
X99233Y-253758D01*
X99433Y-253795D01*
X99615D01*
X99779Y-253813D01*
X100399D01*
X100726Y-253795D01*
X101018Y-253776D01*
X101273Y-253740D01*
X101492Y-253722D01*
X101656Y-253703D01*
X101747Y-253685D01*
X101783D01*
X102057Y-253631D01*
X102312Y-253576D01*
X102549Y-253521D01*
X102749Y-253448D01*
X102913Y-253394D01*
X103041Y-253357D01*
X103113Y-253339D01*
X103150Y-253321D01*
Y-254724D01*
X102931Y-254778D01*
X102731Y-254833D01*
X102658Y-254851D01*
X102585Y-254870D01*
X102549Y-254888D01*
X102530D01*
X102275Y-254924D01*
X102038Y-254961D01*
X101947D01*
X101874Y-254979D01*
X101802D01*
X101510Y-255015D01*
X101255Y-255052D01*
X101146D01*
X101073Y-255070D01*
X101000D01*
X100672Y-255088D01*
X100544D01*
X100399Y-255106D01*
X99797D01*
X99469Y-255070D01*
X99178Y-255052D01*
X98923Y-255015D01*
X98704Y-254979D01*
X98540Y-254961D01*
X98449Y-254924D01*
X98413D01*
X98121Y-254851D01*
X97866Y-254760D01*
X97647Y-254669D01*
X97447Y-254578D01*
X97301Y-254487D01*
X97174Y-254414D01*
X97101Y-254378D01*
X97083Y-254359D01*
X96882Y-254214D01*
X96700Y-254050D01*
X96554Y-253886D01*
X96427Y-253740D01*
X96336Y-253612D01*
X96263Y-253503D01*
X96226Y-253430D01*
X96208Y-253412D01*
X96099Y-253193D01*
X96026Y-252956D01*
X95953Y-252720D01*
X95916Y-252519D01*
X95898Y-252337D01*
X95880Y-252191D01*
Y-252100D01*
Y-252064D01*
X95898Y-251827D01*
X95916Y-251626D01*
X95953Y-251426D01*
X96008Y-251262D01*
X96062Y-251134D01*
X96099Y-251043D01*
X96117Y-250971D01*
X96135Y-250952D01*
X96336Y-250624D01*
X96445Y-250479D01*
X96536Y-250369D01*
X96627Y-250260D01*
X96700Y-250187D01*
X96755Y-250151D01*
X96773Y-250132D01*
X97064Y-249896D01*
X97356Y-249695D01*
X97483Y-249622D01*
X97575Y-249568D01*
X97647Y-249549D01*
X97666Y-249531D01*
X98048Y-249349D01*
X98212Y-249276D01*
X98376Y-249203D01*
X98504Y-249149D01*
X98613Y-249112D01*
X98686Y-249076D01*
X98704D01*
X99087Y-248912D01*
X99251Y-248839D01*
X99397Y-248784D01*
X99542Y-248729D01*
X99633Y-248693D01*
X99706Y-248657D01*
X99725D01*
X100089Y-248511D01*
X100235Y-248438D01*
X100362Y-248365D01*
X100490Y-248310D01*
X100563Y-248256D01*
X100617Y-248237D01*
X100636Y-248219D01*
X100891Y-248019D01*
X101091Y-247837D01*
X101164Y-247764D01*
X101218Y-247709D01*
X101237Y-247673D01*
X101255Y-247654D01*
X101328Y-247527D01*
X101383Y-247399D01*
X101455Y-247163D01*
X101474Y-247053D01*
X101492Y-246980D01*
Y-246926D01*
Y-246907D01*
X101474Y-246652D01*
X101401Y-246434D01*
X101310Y-246233D01*
X101200Y-246069D01*
X101091Y-245942D01*
X101000Y-245851D01*
X100927Y-245796D01*
X100909Y-245778D01*
X100654Y-245632D01*
X100380Y-245523D01*
X100071Y-245450D01*
X99761Y-245395D01*
X99488Y-245359D01*
X99269Y-245340D01*
X99068D01*
X98631Y-245359D01*
X98413Y-245377D01*
X98230Y-245395D01*
X98066Y-245413D01*
X97957Y-245432D01*
X97866Y-245450D01*
X97848D01*
X97374Y-245523D01*
X97155Y-245577D01*
X96973Y-245614D01*
X96809Y-245650D01*
X96682Y-245668D01*
X96609Y-245705D01*
X96572D01*
Y-244393D01*
X96773Y-244357D01*
X96973Y-244320D01*
X97046Y-244302D01*
X97119Y-244284D01*
X97174D01*
X97411Y-244247D01*
X97611Y-244211D01*
X97684D01*
X97757Y-244193D01*
X97811D01*
X98048Y-244156D01*
X98249Y-244138D01*
X98340Y-244120D01*
X98449D01*
X98668Y-244102D01*
X98850Y-244083D01*
X99032D01*
X99415Y-244102D01*
D02*
G37*
G36*
X90487Y-246598D02*
X90797Y-246634D01*
X91070Y-246689D01*
X91325Y-246743D01*
X91526Y-246798D01*
X91671Y-246853D01*
X91762Y-246889D01*
X91799Y-246907D01*
X92054Y-247035D01*
X92291Y-247181D01*
X92509Y-247326D01*
X92691Y-247472D01*
X92837Y-247600D01*
X92947Y-247709D01*
X93019Y-247782D01*
X93038Y-247800D01*
X93220Y-248019D01*
X93366Y-248256D01*
X93511Y-248474D01*
X93621Y-248693D01*
X93712Y-248875D01*
X93766Y-249039D01*
X93803Y-249130D01*
X93821Y-249149D01*
Y-249167D01*
X93912Y-249458D01*
X93967Y-249768D01*
X94022Y-250060D01*
X94040Y-250333D01*
X94058Y-250551D01*
X94076Y-250734D01*
Y-250806D01*
Y-250861D01*
Y-250879D01*
Y-250898D01*
X94058Y-251262D01*
X94040Y-251608D01*
X94003Y-251918D01*
X93949Y-252191D01*
X93894Y-252410D01*
X93858Y-252574D01*
X93839Y-252683D01*
X93821Y-252701D01*
Y-252720D01*
X93712Y-252993D01*
X93603Y-253248D01*
X93475Y-253485D01*
X93366Y-253667D01*
X93256Y-253831D01*
X93165Y-253940D01*
X93111Y-254013D01*
X93092Y-254031D01*
X92892Y-254214D01*
X92691Y-254378D01*
X92509Y-254523D01*
X92309Y-254633D01*
X92145Y-254724D01*
X92017Y-254778D01*
X91944Y-254815D01*
X91908Y-254833D01*
X91635Y-254924D01*
X91361Y-254997D01*
X91088Y-255033D01*
X90833Y-255070D01*
X90633Y-255088D01*
X90451Y-255106D01*
X90305D01*
X89959Y-255088D01*
X89649Y-255052D01*
X89376Y-255015D01*
X89120Y-254942D01*
X88920Y-254888D01*
X88774Y-254851D01*
X88683Y-254815D01*
X88647Y-254797D01*
X88392Y-254669D01*
X88137Y-254523D01*
X87936Y-254378D01*
X87754Y-254250D01*
X87608Y-254122D01*
X87499Y-254013D01*
X87426Y-253940D01*
X87408Y-253922D01*
X87226Y-253703D01*
X87062Y-253467D01*
X86934Y-253230D01*
X86825Y-253011D01*
X86734Y-252829D01*
X86679Y-252683D01*
X86642Y-252592D01*
X86624Y-252556D01*
X86533Y-252246D01*
X86460Y-251936D01*
X86424Y-251645D01*
X86387Y-251371D01*
X86369Y-251134D01*
X86351Y-250952D01*
Y-250879D01*
Y-250825D01*
Y-250806D01*
Y-250788D01*
X86369Y-250424D01*
X86387Y-250078D01*
X86442Y-249768D01*
X86479Y-249495D01*
X86533Y-249294D01*
X86588Y-249130D01*
X86606Y-249021D01*
X86624Y-248985D01*
X86734Y-248711D01*
X86843Y-248456D01*
X86971Y-248219D01*
X87098Y-248037D01*
X87207Y-247873D01*
X87298Y-247764D01*
X87353Y-247691D01*
X87371Y-247673D01*
X87554Y-247490D01*
X87754Y-247326D01*
X87954Y-247181D01*
X88137Y-247071D01*
X88301Y-246980D01*
X88428Y-246926D01*
X88519Y-246889D01*
X88556Y-246871D01*
X88829Y-246780D01*
X89102Y-246707D01*
X89357Y-246652D01*
X89612Y-246616D01*
X89813Y-246598D01*
X89995Y-246579D01*
X90141D01*
X90487Y-246598D01*
D02*
G37*
G36*
X69898Y-246853D02*
X70172Y-246780D01*
X70427Y-246725D01*
X70518Y-246707D01*
X70591D01*
X70645Y-246689D01*
X70663D01*
X70937Y-246652D01*
X71192Y-246634D01*
X71429D01*
X71757Y-246652D01*
X72066Y-246671D01*
X72358Y-246725D01*
X72595Y-246780D01*
X72795Y-246834D01*
X72959Y-246871D01*
X73050Y-246907D01*
X73087Y-246926D01*
X73360Y-247053D01*
X73597Y-247181D01*
X73816Y-247326D01*
X73998Y-247454D01*
X74162Y-247582D01*
X74271Y-247691D01*
X74344Y-247764D01*
X74362Y-247782D01*
X74544Y-248001D01*
X74708Y-248237D01*
X74854Y-248474D01*
X74963Y-248693D01*
X75055Y-248875D01*
X75127Y-249021D01*
X75164Y-249130D01*
X75182Y-249149D01*
Y-249167D01*
X75273Y-249476D01*
X75346Y-249804D01*
X75383Y-250114D01*
X75419Y-250406D01*
X75437Y-250661D01*
X75455Y-250843D01*
Y-250916D01*
Y-250971D01*
Y-251007D01*
Y-251025D01*
Y-251353D01*
X75437Y-251663D01*
X75401Y-251954D01*
X75364Y-252209D01*
X75346Y-252410D01*
X75310Y-252574D01*
X75291Y-252665D01*
Y-252701D01*
X75219Y-252975D01*
X75127Y-253211D01*
X75036Y-253430D01*
X74945Y-253631D01*
X74872Y-253776D01*
X74800Y-253904D01*
X74763Y-253977D01*
X74745Y-253995D01*
X74599Y-254177D01*
X74453Y-254341D01*
X74308Y-254487D01*
X74162Y-254596D01*
X74034Y-254687D01*
X73943Y-254760D01*
X73870Y-254797D01*
X73852Y-254815D01*
X73633Y-254906D01*
X73433Y-254979D01*
X73214Y-255033D01*
X73032Y-255070D01*
X72868Y-255088D01*
X72722Y-255106D01*
X72613D01*
X72303Y-255088D01*
X72030Y-255052D01*
X71775Y-254979D01*
X71556Y-254906D01*
X71356Y-254833D01*
X71228Y-254760D01*
X71137Y-254724D01*
X71101Y-254706D01*
X70846Y-254523D01*
X70609Y-254323D01*
X70390Y-254104D01*
X70190Y-253904D01*
X70026Y-253703D01*
X69916Y-253558D01*
X69825Y-253448D01*
X69807Y-253430D01*
Y-253412D01*
X69753Y-254961D01*
X68459D01*
Y-243373D01*
X69898D01*
Y-246853D01*
D02*
G37*
G36*
X25533Y-246598D02*
X25861Y-246616D01*
X26134Y-246652D01*
X26371Y-246689D01*
X26571Y-246743D01*
X26699Y-246780D01*
X26790Y-246798D01*
X26826Y-246816D01*
X27063Y-246907D01*
X27264Y-247017D01*
X27446Y-247108D01*
X27591Y-247199D01*
X27701Y-247290D01*
X27792Y-247363D01*
X27847Y-247399D01*
X27865Y-247418D01*
X27992Y-247545D01*
X28120Y-247691D01*
X28211Y-247818D01*
X28284Y-247928D01*
X28339Y-248037D01*
X28375Y-248110D01*
X28411Y-248165D01*
Y-248183D01*
X28503Y-248474D01*
X28521Y-248602D01*
X28539Y-248711D01*
X28557Y-248802D01*
Y-248875D01*
Y-248912D01*
Y-248930D01*
Y-249112D01*
X28521Y-249294D01*
X28503Y-249458D01*
X28466Y-249586D01*
X28430Y-249695D01*
X28411Y-249768D01*
X28375Y-249823D01*
Y-249841D01*
X28211Y-250114D01*
X28029Y-250315D01*
X27956Y-250406D01*
X27883Y-250460D01*
X27847Y-250497D01*
X27828Y-250515D01*
X27555Y-250715D01*
X27282Y-250861D01*
X27172Y-250916D01*
X27081Y-250971D01*
X27027Y-250989D01*
X27008Y-251007D01*
X26644Y-251153D01*
X26480Y-251207D01*
X26316Y-251262D01*
X26188Y-251317D01*
X26079Y-251335D01*
X26006Y-251371D01*
X25988D01*
X25715Y-251444D01*
X25496Y-251517D01*
X25296Y-251590D01*
X25132Y-251645D01*
X24986Y-251699D01*
X24895Y-251736D01*
X24840Y-251772D01*
X24822D01*
X24676Y-251827D01*
X24531Y-251900D01*
X24421Y-251954D01*
X24330Y-251991D01*
X24275Y-252045D01*
X24221Y-252064D01*
X24184Y-252100D01*
X24039Y-252228D01*
X23947Y-252337D01*
X23911Y-252410D01*
X23893Y-252446D01*
X23838Y-252574D01*
X23820Y-252701D01*
X23802Y-252793D01*
Y-252811D01*
Y-252829D01*
X23820Y-253011D01*
X23875Y-253175D01*
X23966Y-253321D01*
X24057Y-253430D01*
X24148Y-253521D01*
X24239Y-253576D01*
X24294Y-253612D01*
X24312Y-253631D01*
X24512Y-253722D01*
X24749Y-253795D01*
X25004Y-253831D01*
X25259Y-253868D01*
X25478Y-253886D01*
X25660Y-253904D01*
X25824D01*
X26353Y-253886D01*
X26589Y-253868D01*
X26808Y-253849D01*
X26990D01*
X27118Y-253831D01*
X27209Y-253813D01*
X27245D01*
X27774Y-253722D01*
X28010Y-253667D01*
X28229Y-253612D01*
X28411Y-253558D01*
X28539Y-253521D01*
X28630Y-253485D01*
X28666D01*
Y-254797D01*
X28174Y-254906D01*
X27956Y-254942D01*
X27737Y-254979D01*
X27573Y-254997D01*
X27428Y-255015D01*
X27355Y-255033D01*
X27318D01*
X26772Y-255070D01*
X26517Y-255088D01*
X26280D01*
X26079Y-255106D01*
X25769D01*
X25478Y-255088D01*
X25241Y-255070D01*
X25132Y-255052D01*
X25059D01*
X25004Y-255033D01*
X24986D01*
X24694Y-254979D01*
X24549Y-254961D01*
X24439Y-254924D01*
X24348Y-254906D01*
X24257Y-254888D01*
X24221Y-254870D01*
X24203D01*
X23929Y-254779D01*
X23711Y-254687D01*
X23619Y-254633D01*
X23547Y-254614D01*
X23510Y-254578D01*
X23492D01*
X23255Y-254414D01*
X23055Y-254268D01*
X22982Y-254214D01*
X22927Y-254159D01*
X22909Y-254141D01*
X22891Y-254122D01*
X22727Y-253904D01*
X22599Y-253703D01*
X22545Y-253631D01*
X22508Y-253558D01*
X22490Y-253521D01*
Y-253503D01*
X22399Y-253230D01*
X22344Y-252975D01*
X22326Y-252884D01*
Y-252793D01*
Y-252738D01*
Y-252720D01*
X22344Y-252392D01*
X22362Y-252264D01*
X22399Y-252137D01*
X22417Y-252045D01*
X22453Y-251954D01*
X22472Y-251918D01*
Y-251900D01*
X22526Y-251772D01*
X22599Y-251645D01*
X22745Y-251444D01*
X22818Y-251371D01*
X22873Y-251317D01*
X22909Y-251280D01*
X22927Y-251262D01*
X23182Y-251062D01*
X23437Y-250879D01*
X23565Y-250825D01*
X23638Y-250770D01*
X23711Y-250752D01*
X23729Y-250734D01*
X23929Y-250642D01*
X24130Y-250570D01*
X24330Y-250479D01*
X24531Y-250424D01*
X24713Y-250351D01*
X24840Y-250315D01*
X24931Y-250296D01*
X24968Y-250278D01*
X25205Y-250205D01*
X25405Y-250151D01*
X25587Y-250096D01*
X25751Y-250041D01*
X25879Y-249987D01*
X25970Y-249968D01*
X26024Y-249932D01*
X26043D01*
X26188Y-249859D01*
X26316Y-249804D01*
X26425Y-249750D01*
X26535Y-249695D01*
X26608Y-249640D01*
X26662Y-249622D01*
X26680Y-249586D01*
X26699D01*
X26844Y-249458D01*
X26954Y-249349D01*
X27008Y-249276D01*
X27027Y-249240D01*
X27063Y-249094D01*
X27081Y-248966D01*
X27099Y-248875D01*
Y-248857D01*
Y-248839D01*
X27081Y-248675D01*
X27045Y-248547D01*
X27027Y-248456D01*
X27008Y-248420D01*
X26917Y-248292D01*
X26826Y-248183D01*
X26735Y-248110D01*
X26699Y-248092D01*
X26498Y-248001D01*
X26316Y-247909D01*
X26225Y-247891D01*
X26152Y-247873D01*
X26116Y-247855D01*
X26097D01*
X25806Y-247800D01*
X25514Y-247782D01*
X25387Y-247764D01*
X25205D01*
X24840Y-247782D01*
X24676Y-247800D01*
X24512D01*
X24366Y-247818D01*
X24257Y-247837D01*
X24166Y-247855D01*
X24148D01*
X23692Y-247928D01*
X23474Y-247964D01*
X23292Y-248001D01*
X23109Y-248037D01*
X22982Y-248055D01*
X22909Y-248092D01*
X22873D01*
Y-246816D01*
X23109Y-246780D01*
X23346Y-246725D01*
X23547Y-246707D01*
X23729Y-246671D01*
X23893Y-246652D01*
X24002D01*
X24093Y-246634D01*
X24111D01*
X24531Y-246598D01*
X24713D01*
X24859Y-246579D01*
X25186D01*
X25533Y-246598D01*
D02*
G37*
%LPC*%
G36*
X753322Y-247818D02*
X753212D01*
X753121Y-247837D01*
X752921Y-247855D01*
X752666Y-247909D01*
X752356Y-248001D01*
X752065Y-248146D01*
X751773Y-248328D01*
X751500Y-248584D01*
X751482Y-248620D01*
X751409Y-248729D01*
X751354Y-248802D01*
X751299Y-248912D01*
X751245Y-249021D01*
X751190Y-249148D01*
X751117Y-249312D01*
X751063Y-249476D01*
X751008Y-249677D01*
X750972Y-249895D01*
X750917Y-250114D01*
X750899Y-250369D01*
X750862Y-250642D01*
Y-250934D01*
Y-250952D01*
Y-251007D01*
Y-251080D01*
Y-251171D01*
X750880Y-251298D01*
Y-251444D01*
X750917Y-251772D01*
X750972Y-252136D01*
X751044Y-252501D01*
X751154Y-252847D01*
X751299Y-253157D01*
X751318Y-253193D01*
X751372Y-253266D01*
X751482Y-253394D01*
X751627Y-253521D01*
X751791Y-253649D01*
X752010Y-253776D01*
X752247Y-253849D01*
X752538Y-253886D01*
X752630D01*
X752739Y-253867D01*
X752885Y-253831D01*
X753067Y-253776D01*
X753249Y-253685D01*
X753468Y-253576D01*
X753686Y-253412D01*
X753723Y-253394D01*
X753796Y-253321D01*
X753905Y-253211D01*
X754069Y-253047D01*
X754269Y-252847D01*
X754470Y-252592D01*
X754706Y-252301D01*
X754962Y-251973D01*
Y-248165D01*
X754943D01*
X754907Y-248128D01*
X754816Y-248110D01*
X754725Y-248074D01*
X754615Y-248037D01*
X754470Y-247982D01*
X754160Y-247909D01*
X754142D01*
X754087Y-247891D01*
X754014Y-247873D01*
X753905Y-247855D01*
X753777D01*
X753632Y-247837D01*
X753322Y-247818D01*
D02*
G37*
G36*
X791912Y-251207D02*
X789908D01*
X789780Y-251225D01*
X789489Y-251244D01*
X789179Y-251317D01*
X789161D01*
X789124Y-251335D01*
X789051Y-251353D01*
X788960Y-251390D01*
X788741Y-251499D01*
X788541Y-251626D01*
X788523D01*
X788505Y-251663D01*
X788414Y-251754D01*
X788286Y-251918D01*
X788177Y-252100D01*
Y-252118D01*
X788159Y-252155D01*
X788140Y-252209D01*
X788122Y-252282D01*
X788086Y-252483D01*
X788067Y-252719D01*
Y-252738D01*
Y-252756D01*
X788086Y-252865D01*
X788104Y-253011D01*
X788140Y-253175D01*
Y-253193D01*
X788159Y-253211D01*
X788195Y-253303D01*
X788268Y-253430D01*
X788377Y-253576D01*
X788414Y-253594D01*
X788486Y-253667D01*
X788632Y-253758D01*
X788796Y-253831D01*
X788814D01*
X788851Y-253849D01*
X788905Y-253867D01*
X788978D01*
X789179Y-253904D01*
X789434Y-253922D01*
X789525D01*
X789616Y-253904D01*
X789762Y-253886D01*
X789926Y-253849D01*
X790126Y-253795D01*
X790327Y-253722D01*
X790563Y-253630D01*
X790600Y-253612D01*
X790673Y-253576D01*
X790800Y-253503D01*
X790964Y-253394D01*
X791165Y-253266D01*
X791402Y-253102D01*
X791657Y-252920D01*
X791912Y-252683D01*
Y-251207D01*
D02*
G37*
G36*
X660600Y-245486D02*
X658888D01*
Y-248820D01*
X660509D01*
X660618Y-248802D01*
X660764D01*
X660910Y-248784D01*
X661220Y-248729D01*
X661238D01*
X661293Y-248711D01*
X661366Y-248675D01*
X661457Y-248638D01*
X661675Y-248547D01*
X661912Y-248401D01*
X661930Y-248383D01*
X661967Y-248365D01*
X662076Y-248256D01*
X662222Y-248074D01*
X662368Y-247855D01*
Y-247837D01*
X662386Y-247800D01*
X662422Y-247727D01*
X662459Y-247618D01*
X662477Y-247509D01*
X662513Y-247363D01*
X662532Y-247053D01*
Y-247035D01*
Y-246999D01*
Y-246944D01*
X662513Y-246853D01*
X662495Y-246671D01*
X662422Y-246452D01*
Y-246434D01*
X662404Y-246397D01*
X662386Y-246343D01*
X662349Y-246288D01*
X662240Y-246124D01*
X662076Y-245960D01*
X662058Y-245942D01*
X662040Y-245923D01*
X661985Y-245887D01*
X661912Y-245832D01*
X661821Y-245778D01*
X661693Y-245723D01*
X661566Y-245668D01*
X661420Y-245614D01*
X661402D01*
X661347Y-245596D01*
X661256Y-245577D01*
X661129Y-245541D01*
X660983Y-245523D01*
X660801Y-245504D01*
X660600Y-245486D01*
D02*
G37*
G36*
X660582Y-250041D02*
X658888D01*
Y-253722D01*
X660618D01*
X660728Y-253703D01*
X660855D01*
X661129Y-253667D01*
X661438Y-253612D01*
X661748Y-253521D01*
X662040Y-253412D01*
X662295Y-253266D01*
X662313Y-253248D01*
X662386Y-253175D01*
X662495Y-253066D01*
X662604Y-252902D01*
X662714Y-252701D01*
X662823Y-252446D01*
X662896Y-252155D01*
X662914Y-251809D01*
Y-251790D01*
Y-251736D01*
Y-251663D01*
X662896Y-251572D01*
X662841Y-251335D01*
X662732Y-251080D01*
Y-251062D01*
X662696Y-251025D01*
X662659Y-250970D01*
X662604Y-250879D01*
X662459Y-250715D01*
X662240Y-250533D01*
X662222Y-250515D01*
X662185Y-250497D01*
X662113Y-250442D01*
X662021Y-250406D01*
X661894Y-250333D01*
X661766Y-250278D01*
X661438Y-250169D01*
X661420D01*
X661347Y-250151D01*
X661256Y-250132D01*
X661129Y-250096D01*
X660965Y-250078D01*
X660782Y-250060D01*
X660582Y-250041D01*
D02*
G37*
G36*
X762578Y-247727D02*
X762213D01*
X762104Y-247745D01*
X761976Y-247764D01*
X761831Y-247800D01*
X761521Y-247909D01*
X761503D01*
X761466Y-247946D01*
X761393Y-247982D01*
X761302Y-248037D01*
X761084Y-248201D01*
X760865Y-248420D01*
X760847Y-248438D01*
X760828Y-248474D01*
X760774Y-248547D01*
X760701Y-248638D01*
X760628Y-248748D01*
X760555Y-248893D01*
X760409Y-249203D01*
Y-249221D01*
X760391Y-249276D01*
X760355Y-249367D01*
X760318Y-249495D01*
X760282Y-249640D01*
X760264Y-249823D01*
X760209Y-250205D01*
X764545D01*
Y-250187D01*
Y-250114D01*
Y-250005D01*
Y-249877D01*
X764527Y-249731D01*
X764509Y-249568D01*
X764418Y-249221D01*
Y-249203D01*
X764400Y-249148D01*
X764363Y-249057D01*
X764327Y-248948D01*
X764199Y-248693D01*
X764017Y-248438D01*
X763999Y-248420D01*
X763962Y-248383D01*
X763908Y-248328D01*
X763835Y-248256D01*
X763726Y-248165D01*
X763616Y-248092D01*
X763325Y-247928D01*
X763306Y-247909D01*
X763252Y-247891D01*
X763161Y-247855D01*
X763051Y-247818D01*
X762924Y-247782D01*
X762760Y-247764D01*
X762578Y-247727D01*
D02*
G37*
G36*
X734847Y-247800D02*
X734537D01*
X734410Y-247818D01*
X734264Y-247837D01*
X734082Y-247855D01*
X733899Y-247909D01*
X733717Y-247964D01*
X733535Y-248055D01*
X733517Y-248074D01*
X733462Y-248110D01*
X733371Y-248165D01*
X733280Y-248237D01*
X733152Y-248328D01*
X733025Y-248438D01*
X732788Y-248729D01*
X732770Y-248748D01*
X732733Y-248802D01*
X732697Y-248893D01*
X732624Y-249003D01*
X732551Y-249148D01*
X732496Y-249312D01*
X732423Y-249495D01*
X732369Y-249695D01*
Y-249713D01*
X732351Y-249786D01*
X732332Y-249896D01*
X732314Y-250041D01*
X732278Y-250223D01*
X732260Y-250424D01*
X732241Y-250861D01*
Y-250898D01*
Y-250989D01*
X732260Y-251134D01*
Y-251317D01*
X732278Y-251517D01*
X732314Y-251754D01*
X732405Y-252209D01*
Y-252228D01*
X732442Y-252301D01*
X732478Y-252410D01*
X732533Y-252537D01*
X732679Y-252847D01*
X732879Y-253157D01*
X732897Y-253175D01*
X732934Y-253211D01*
X733006Y-253284D01*
X733098Y-253357D01*
X733207Y-253448D01*
X733334Y-253539D01*
X733626Y-253722D01*
X733644D01*
X733699Y-253758D01*
X733808Y-253776D01*
X733918Y-253813D01*
X734082Y-253849D01*
X734245Y-253867D01*
X734446Y-253904D01*
X734756D01*
X734865Y-253886D01*
X735029Y-253867D01*
X735193Y-253849D01*
X735375Y-253795D01*
X735557Y-253740D01*
X735740Y-253667D01*
X735758Y-253649D01*
X735812Y-253612D01*
X735904Y-253558D01*
X736013Y-253485D01*
X736122Y-253394D01*
X736250Y-253266D01*
X736486Y-252993D01*
X736505Y-252975D01*
X736541Y-252920D01*
X736578Y-252829D01*
X736651Y-252720D01*
X736723Y-252574D01*
X736778Y-252410D01*
X736851Y-252228D01*
X736906Y-252027D01*
Y-252009D01*
X736924Y-251936D01*
X736960Y-251809D01*
X736978Y-251663D01*
X737015Y-251499D01*
X737033Y-251298D01*
X737051Y-250861D01*
Y-250825D01*
Y-250734D01*
Y-250588D01*
X737033Y-250406D01*
X737015Y-250205D01*
X736978Y-249968D01*
X736924Y-249750D01*
X736869Y-249531D01*
Y-249513D01*
X736833Y-249440D01*
X736796Y-249331D01*
X736742Y-249185D01*
X736596Y-248893D01*
X736505Y-248729D01*
X736395Y-248584D01*
X736377Y-248565D01*
X736341Y-248529D01*
X736268Y-248456D01*
X736177Y-248365D01*
X736067Y-248274D01*
X735940Y-248183D01*
X735630Y-248001D01*
X735612Y-247982D01*
X735557Y-247964D01*
X735466Y-247928D01*
X735339Y-247891D01*
X735193Y-247855D01*
X735029Y-247837D01*
X734847Y-247800D01*
D02*
G37*
G36*
X697897D02*
X697587D01*
X697459Y-247818D01*
X697314Y-247837D01*
X697131Y-247855D01*
X696949Y-247909D01*
X696767Y-247964D01*
X696585Y-248055D01*
X696566Y-248074D01*
X696512Y-248110D01*
X696421Y-248165D01*
X696330Y-248237D01*
X696202Y-248328D01*
X696075Y-248438D01*
X695838Y-248729D01*
X695820Y-248748D01*
X695783Y-248802D01*
X695747Y-248893D01*
X695674Y-249003D01*
X695601Y-249148D01*
X695546Y-249312D01*
X695473Y-249495D01*
X695419Y-249695D01*
Y-249713D01*
X695400Y-249786D01*
X695382Y-249896D01*
X695364Y-250041D01*
X695328Y-250223D01*
X695309Y-250424D01*
X695291Y-250861D01*
Y-250898D01*
Y-250989D01*
X695309Y-251134D01*
Y-251317D01*
X695328Y-251517D01*
X695364Y-251754D01*
X695455Y-252209D01*
Y-252228D01*
X695492Y-252301D01*
X695528Y-252410D01*
X695583Y-252537D01*
X695728Y-252847D01*
X695929Y-253157D01*
X695947Y-253175D01*
X695984Y-253211D01*
X696056Y-253284D01*
X696147Y-253357D01*
X696257Y-253448D01*
X696384Y-253539D01*
X696676Y-253722D01*
X696694D01*
X696749Y-253758D01*
X696858Y-253776D01*
X696967Y-253813D01*
X697131Y-253849D01*
X697295Y-253867D01*
X697496Y-253904D01*
X697806D01*
X697915Y-253886D01*
X698079Y-253867D01*
X698243Y-253849D01*
X698425Y-253795D01*
X698607Y-253740D01*
X698789Y-253667D01*
X698808Y-253649D01*
X698862Y-253612D01*
X698953Y-253558D01*
X699063Y-253485D01*
X699172Y-253394D01*
X699299Y-253266D01*
X699536Y-252993D01*
X699555Y-252975D01*
X699591Y-252920D01*
X699627Y-252829D01*
X699700Y-252720D01*
X699773Y-252574D01*
X699828Y-252410D01*
X699901Y-252228D01*
X699956Y-252027D01*
Y-252009D01*
X699974Y-251936D01*
X700010Y-251809D01*
X700028Y-251663D01*
X700065Y-251499D01*
X700083Y-251298D01*
X700101Y-250861D01*
Y-250825D01*
Y-250734D01*
Y-250588D01*
X700083Y-250406D01*
X700065Y-250205D01*
X700028Y-249968D01*
X699974Y-249750D01*
X699919Y-249531D01*
Y-249513D01*
X699883Y-249440D01*
X699846Y-249331D01*
X699791Y-249185D01*
X699646Y-248893D01*
X699555Y-248729D01*
X699445Y-248584D01*
X699427Y-248565D01*
X699391Y-248529D01*
X699318Y-248456D01*
X699227Y-248365D01*
X699117Y-248274D01*
X698990Y-248183D01*
X698680Y-248001D01*
X698662Y-247982D01*
X698607Y-247964D01*
X698516Y-247928D01*
X698388Y-247891D01*
X698243Y-247855D01*
X698079Y-247837D01*
X697897Y-247800D01*
D02*
G37*
G36*
X670184Y-247800D02*
X669874D01*
X669747Y-247818D01*
X669601Y-247837D01*
X669419Y-247855D01*
X669237Y-247909D01*
X669054Y-247964D01*
X668872Y-248055D01*
X668854Y-248074D01*
X668799Y-248110D01*
X668708Y-248165D01*
X668617Y-248237D01*
X668490Y-248328D01*
X668362Y-248438D01*
X668125Y-248729D01*
X668107Y-248748D01*
X668070Y-248802D01*
X668034Y-248893D01*
X667961Y-249003D01*
X667888Y-249149D01*
X667834Y-249312D01*
X667761Y-249495D01*
X667706Y-249695D01*
Y-249713D01*
X667688Y-249786D01*
X667670Y-249896D01*
X667651Y-250041D01*
X667615Y-250223D01*
X667597Y-250424D01*
X667579Y-250861D01*
Y-250898D01*
Y-250989D01*
X667597Y-251134D01*
Y-251317D01*
X667615Y-251517D01*
X667651Y-251754D01*
X667742Y-252209D01*
Y-252228D01*
X667779Y-252301D01*
X667815Y-252410D01*
X667870Y-252537D01*
X668016Y-252847D01*
X668216Y-253157D01*
X668234Y-253175D01*
X668271Y-253211D01*
X668344Y-253284D01*
X668435Y-253357D01*
X668544Y-253448D01*
X668672Y-253539D01*
X668963Y-253722D01*
X668982D01*
X669036Y-253758D01*
X669145Y-253776D01*
X669255Y-253813D01*
X669419Y-253849D01*
X669583Y-253867D01*
X669783Y-253904D01*
X670093D01*
X670202Y-253886D01*
X670366Y-253867D01*
X670530Y-253849D01*
X670712Y-253795D01*
X670894Y-253740D01*
X671077Y-253667D01*
X671095Y-253649D01*
X671150Y-253612D01*
X671241Y-253558D01*
X671350Y-253485D01*
X671459Y-253394D01*
X671587Y-253266D01*
X671824Y-252993D01*
X671842Y-252975D01*
X671878Y-252920D01*
X671915Y-252829D01*
X671988Y-252720D01*
X672061Y-252574D01*
X672115Y-252410D01*
X672188Y-252228D01*
X672243Y-252027D01*
Y-252009D01*
X672261Y-251936D01*
X672297Y-251809D01*
X672316Y-251663D01*
X672352Y-251499D01*
X672370Y-251298D01*
X672389Y-250861D01*
Y-250825D01*
Y-250734D01*
Y-250588D01*
X672370Y-250406D01*
X672352Y-250205D01*
X672316Y-249968D01*
X672261Y-249750D01*
X672206Y-249531D01*
Y-249513D01*
X672170Y-249440D01*
X672133Y-249331D01*
X672079Y-249185D01*
X671933Y-248893D01*
X671842Y-248729D01*
X671733Y-248584D01*
X671714Y-248565D01*
X671678Y-248529D01*
X671605Y-248456D01*
X671514Y-248365D01*
X671405Y-248274D01*
X671277Y-248183D01*
X670967Y-248001D01*
X670949Y-247982D01*
X670894Y-247964D01*
X670803Y-247928D01*
X670676Y-247891D01*
X670530Y-247855D01*
X670366Y-247837D01*
X670184Y-247800D01*
D02*
G37*
G36*
X34952Y-251207D02*
X32948D01*
Y-252683D01*
X33203Y-252920D01*
X33458Y-253102D01*
X33695Y-253266D01*
X33896Y-253394D01*
X34060Y-253503D01*
X34187Y-253576D01*
X34260Y-253612D01*
X34296Y-253631D01*
X34533Y-253722D01*
X34734Y-253795D01*
X34934Y-253849D01*
X35098Y-253886D01*
X35244Y-253904D01*
X35335Y-253922D01*
X35426D01*
X35681Y-253904D01*
X35882Y-253868D01*
X35954D01*
X36009Y-253849D01*
X36046Y-253831D01*
X36064D01*
X36228Y-253758D01*
X36373Y-253667D01*
X36446Y-253594D01*
X36483Y-253576D01*
X36592Y-253430D01*
X36665Y-253303D01*
X36702Y-253211D01*
X36720Y-253193D01*
Y-253175D01*
X36756Y-253011D01*
X36774Y-252865D01*
X36793Y-252756D01*
Y-252738D01*
Y-252720D01*
X36774Y-252483D01*
X36738Y-252282D01*
X36720Y-252209D01*
X36702Y-252155D01*
X36683Y-252118D01*
Y-252100D01*
X36574Y-251918D01*
X36446Y-251754D01*
X36355Y-251663D01*
X36337Y-251626D01*
X36319D01*
X36118Y-251499D01*
X35900Y-251390D01*
X35809Y-251353D01*
X35736Y-251335D01*
X35699Y-251317D01*
X35681D01*
X35371Y-251244D01*
X35080Y-251226D01*
X34952Y-251207D01*
D02*
G37*
G36*
X62647Y-247727D02*
X62282D01*
X62100Y-247764D01*
X61936Y-247782D01*
X61809Y-247818D01*
X61699Y-247855D01*
X61608Y-247891D01*
X61554Y-247909D01*
X61535Y-247928D01*
X61244Y-248092D01*
X61134Y-248165D01*
X61025Y-248256D01*
X60952Y-248329D01*
X60898Y-248383D01*
X60861Y-248420D01*
X60843Y-248438D01*
X60661Y-248693D01*
X60533Y-248948D01*
X60497Y-249057D01*
X60460Y-249149D01*
X60442Y-249203D01*
Y-249221D01*
X60351Y-249568D01*
X60333Y-249731D01*
X60315Y-249877D01*
Y-250005D01*
Y-250114D01*
Y-250187D01*
Y-250205D01*
X64651D01*
X64596Y-249823D01*
X64578Y-249640D01*
X64542Y-249495D01*
X64505Y-249367D01*
X64469Y-249276D01*
X64451Y-249221D01*
Y-249203D01*
X64305Y-248893D01*
X64232Y-248748D01*
X64159Y-248638D01*
X64086Y-248547D01*
X64031Y-248474D01*
X64013Y-248438D01*
X63995Y-248420D01*
X63776Y-248201D01*
X63558Y-248037D01*
X63467Y-247982D01*
X63394Y-247946D01*
X63357Y-247909D01*
X63339D01*
X63029Y-247800D01*
X62884Y-247764D01*
X62756Y-247745D01*
X62647Y-247727D01*
D02*
G37*
G36*
X165972Y-245486D02*
X164260D01*
X164059Y-245504D01*
X163877Y-245523D01*
X163731Y-245541D01*
X163604Y-245577D01*
X163513Y-245596D01*
X163458Y-245614D01*
X163440D01*
X163294Y-245668D01*
X163166Y-245723D01*
X163039Y-245778D01*
X162948Y-245832D01*
X162875Y-245887D01*
X162820Y-245923D01*
X162802Y-245942D01*
X162784Y-245960D01*
X162620Y-246124D01*
X162511Y-246288D01*
X162474Y-246343D01*
X162456Y-246397D01*
X162438Y-246434D01*
Y-246452D01*
X162365Y-246671D01*
X162347Y-246853D01*
X162328Y-246944D01*
Y-246999D01*
Y-247035D01*
Y-247053D01*
X162347Y-247363D01*
X162383Y-247509D01*
X162401Y-247618D01*
X162438Y-247727D01*
X162474Y-247800D01*
X162492Y-247837D01*
Y-247855D01*
X162638Y-248074D01*
X162784Y-248256D01*
X162893Y-248365D01*
X162930Y-248383D01*
X162948Y-248401D01*
X163185Y-248547D01*
X163403Y-248638D01*
X163495Y-248675D01*
X163567Y-248711D01*
X163622Y-248729D01*
X163640D01*
X163950Y-248784D01*
X164096Y-248802D01*
X164242D01*
X164351Y-248820D01*
X165972D01*
Y-245486D01*
D02*
G37*
G36*
Y-250041D02*
X164278D01*
X164077Y-250060D01*
X163895Y-250078D01*
X163731Y-250096D01*
X163604Y-250132D01*
X163513Y-250151D01*
X163440Y-250169D01*
X163422D01*
X163094Y-250278D01*
X162966Y-250333D01*
X162838Y-250406D01*
X162747Y-250442D01*
X162674Y-250497D01*
X162638Y-250515D01*
X162620Y-250533D01*
X162401Y-250715D01*
X162256Y-250879D01*
X162201Y-250970D01*
X162164Y-251025D01*
X162128Y-251062D01*
Y-251080D01*
X162019Y-251335D01*
X161964Y-251572D01*
X161946Y-251663D01*
Y-251736D01*
Y-251790D01*
Y-251809D01*
X161964Y-252155D01*
X162037Y-252446D01*
X162146Y-252701D01*
X162256Y-252902D01*
X162365Y-253066D01*
X162474Y-253175D01*
X162547Y-253248D01*
X162565Y-253266D01*
X162820Y-253412D01*
X163112Y-253521D01*
X163422Y-253612D01*
X163731Y-253667D01*
X164005Y-253703D01*
X164132D01*
X164242Y-253722D01*
X165972D01*
Y-250041D01*
D02*
G37*
G36*
X154986Y-247800D02*
X154676D01*
X154494Y-247837D01*
X154330Y-247855D01*
X154184Y-247891D01*
X154057Y-247928D01*
X153965Y-247964D01*
X153911Y-247982D01*
X153893Y-248001D01*
X153583Y-248183D01*
X153455Y-248274D01*
X153346Y-248365D01*
X153255Y-248456D01*
X153182Y-248529D01*
X153146Y-248565D01*
X153127Y-248584D01*
X153018Y-248729D01*
X152927Y-248893D01*
X152781Y-249185D01*
X152726Y-249331D01*
X152690Y-249440D01*
X152654Y-249513D01*
Y-249531D01*
X152599Y-249750D01*
X152544Y-249968D01*
X152508Y-250205D01*
X152490Y-250406D01*
X152471Y-250588D01*
Y-250734D01*
Y-250825D01*
Y-250861D01*
X152490Y-251298D01*
X152508Y-251499D01*
X152544Y-251663D01*
X152562Y-251809D01*
X152599Y-251936D01*
X152617Y-252009D01*
Y-252027D01*
X152672Y-252228D01*
X152745Y-252410D01*
X152799Y-252574D01*
X152872Y-252720D01*
X152945Y-252829D01*
X152981Y-252920D01*
X153018Y-252975D01*
X153036Y-252993D01*
X153273Y-253266D01*
X153401Y-253394D01*
X153510Y-253485D01*
X153619Y-253558D01*
X153710Y-253612D01*
X153765Y-253649D01*
X153783Y-253667D01*
X153965Y-253740D01*
X154148Y-253795D01*
X154330Y-253849D01*
X154494Y-253867D01*
X154658Y-253886D01*
X154767Y-253904D01*
X155077D01*
X155277Y-253867D01*
X155441Y-253849D01*
X155605Y-253813D01*
X155714Y-253776D01*
X155824Y-253758D01*
X155878Y-253722D01*
X155897D01*
X156188Y-253539D01*
X156316Y-253448D01*
X156425Y-253357D01*
X156516Y-253284D01*
X156589Y-253211D01*
X156625Y-253175D01*
X156644Y-253157D01*
X156844Y-252847D01*
X156990Y-252537D01*
X157045Y-252410D01*
X157081Y-252301D01*
X157117Y-252228D01*
Y-252209D01*
X157209Y-251754D01*
X157245Y-251517D01*
X157263Y-251317D01*
Y-251134D01*
X157281Y-250989D01*
Y-250898D01*
Y-250861D01*
X157263Y-250424D01*
X157245Y-250223D01*
X157209Y-250041D01*
X157190Y-249896D01*
X157172Y-249786D01*
X157154Y-249713D01*
Y-249695D01*
X157099Y-249495D01*
X157026Y-249312D01*
X156972Y-249149D01*
X156899Y-249003D01*
X156826Y-248893D01*
X156790Y-248802D01*
X156753Y-248748D01*
X156735Y-248729D01*
X156498Y-248438D01*
X156370Y-248328D01*
X156243Y-248237D01*
X156152Y-248165D01*
X156061Y-248110D01*
X156006Y-248074D01*
X155988Y-248055D01*
X155806Y-247964D01*
X155623Y-247909D01*
X155441Y-247855D01*
X155259Y-247837D01*
X155113Y-247818D01*
X154986Y-247800D01*
D02*
G37*
G36*
X127273Y-247800D02*
X126963D01*
X126781Y-247837D01*
X126617Y-247855D01*
X126471Y-247891D01*
X126344Y-247928D01*
X126253Y-247964D01*
X126198Y-247982D01*
X126180Y-248001D01*
X125870Y-248183D01*
X125743Y-248274D01*
X125633Y-248365D01*
X125542Y-248456D01*
X125469Y-248529D01*
X125433Y-248565D01*
X125415Y-248584D01*
X125305Y-248729D01*
X125214Y-248893D01*
X125068Y-249185D01*
X125014Y-249331D01*
X124977Y-249440D01*
X124941Y-249513D01*
Y-249531D01*
X124886Y-249750D01*
X124832Y-249968D01*
X124795Y-250205D01*
X124777Y-250406D01*
X124759Y-250588D01*
Y-250734D01*
Y-250825D01*
Y-250861D01*
X124777Y-251298D01*
X124795Y-251499D01*
X124832Y-251663D01*
X124850Y-251809D01*
X124886Y-251936D01*
X124905Y-252009D01*
Y-252027D01*
X124959Y-252228D01*
X125032Y-252410D01*
X125087Y-252574D01*
X125160Y-252720D01*
X125232Y-252829D01*
X125269Y-252920D01*
X125305Y-252975D01*
X125324Y-252993D01*
X125560Y-253266D01*
X125688Y-253394D01*
X125797Y-253485D01*
X125907Y-253558D01*
X125998Y-253612D01*
X126052Y-253649D01*
X126071Y-253667D01*
X126253Y-253740D01*
X126435Y-253795D01*
X126617Y-253849D01*
X126781Y-253867D01*
X126945Y-253886D01*
X127054Y-253904D01*
X127364D01*
X127565Y-253867D01*
X127729Y-253849D01*
X127893Y-253813D01*
X128002Y-253776D01*
X128111Y-253758D01*
X128166Y-253722D01*
X128184D01*
X128476Y-253539D01*
X128603Y-253448D01*
X128712Y-253357D01*
X128804Y-253284D01*
X128876Y-253211D01*
X128913Y-253175D01*
X128931Y-253157D01*
X129131Y-252847D01*
X129277Y-252537D01*
X129332Y-252410D01*
X129368Y-252301D01*
X129405Y-252228D01*
Y-252209D01*
X129496Y-251754D01*
X129532Y-251517D01*
X129551Y-251317D01*
Y-251134D01*
X129569Y-250989D01*
Y-250898D01*
Y-250861D01*
X129551Y-250424D01*
X129532Y-250223D01*
X129496Y-250041D01*
X129478Y-249896D01*
X129460Y-249786D01*
X129441Y-249713D01*
Y-249695D01*
X129387Y-249495D01*
X129314Y-249312D01*
X129259Y-249149D01*
X129186Y-249003D01*
X129113Y-248893D01*
X129077Y-248802D01*
X129040Y-248748D01*
X129022Y-248729D01*
X128785Y-248438D01*
X128658Y-248329D01*
X128530Y-248237D01*
X128439Y-248165D01*
X128348Y-248110D01*
X128293Y-248074D01*
X128275Y-248055D01*
X128093Y-247964D01*
X127911Y-247909D01*
X127729Y-247855D01*
X127546Y-247837D01*
X127401Y-247818D01*
X127273Y-247800D01*
D02*
G37*
G36*
X90323D02*
X90013D01*
X89831Y-247837D01*
X89667Y-247855D01*
X89521Y-247891D01*
X89394Y-247928D01*
X89303Y-247964D01*
X89248Y-247982D01*
X89230Y-248001D01*
X88920Y-248183D01*
X88792Y-248274D01*
X88683Y-248365D01*
X88592Y-248456D01*
X88519Y-248529D01*
X88483Y-248565D01*
X88464Y-248584D01*
X88355Y-248729D01*
X88264Y-248893D01*
X88118Y-249185D01*
X88064Y-249331D01*
X88027Y-249440D01*
X87991Y-249513D01*
Y-249531D01*
X87936Y-249750D01*
X87881Y-249968D01*
X87845Y-250205D01*
X87827Y-250406D01*
X87809Y-250588D01*
Y-250734D01*
Y-250825D01*
Y-250861D01*
X87827Y-251298D01*
X87845Y-251499D01*
X87881Y-251663D01*
X87900Y-251809D01*
X87936Y-251936D01*
X87954Y-252009D01*
Y-252027D01*
X88009Y-252228D01*
X88082Y-252410D01*
X88137Y-252574D01*
X88209Y-252720D01*
X88282Y-252829D01*
X88319Y-252920D01*
X88355Y-252975D01*
X88373Y-252993D01*
X88610Y-253266D01*
X88738Y-253394D01*
X88847Y-253485D01*
X88956Y-253558D01*
X89047Y-253612D01*
X89102Y-253649D01*
X89120Y-253667D01*
X89303Y-253740D01*
X89485Y-253795D01*
X89667Y-253849D01*
X89831Y-253867D01*
X89995Y-253886D01*
X90104Y-253904D01*
X90414D01*
X90614Y-253867D01*
X90778Y-253849D01*
X90942Y-253813D01*
X91052Y-253776D01*
X91161Y-253758D01*
X91216Y-253722D01*
X91234D01*
X91526Y-253539D01*
X91653Y-253448D01*
X91762Y-253357D01*
X91853Y-253284D01*
X91926Y-253211D01*
X91963Y-253175D01*
X91981Y-253157D01*
X92181Y-252847D01*
X92327Y-252537D01*
X92382Y-252410D01*
X92418Y-252301D01*
X92455Y-252228D01*
Y-252209D01*
X92546Y-251754D01*
X92582Y-251517D01*
X92600Y-251317D01*
Y-251134D01*
X92619Y-250989D01*
Y-250898D01*
Y-250861D01*
X92600Y-250424D01*
X92582Y-250223D01*
X92546Y-250041D01*
X92528Y-249896D01*
X92509Y-249786D01*
X92491Y-249713D01*
Y-249695D01*
X92436Y-249495D01*
X92364Y-249312D01*
X92309Y-249149D01*
X92236Y-249003D01*
X92163Y-248893D01*
X92127Y-248802D01*
X92090Y-248748D01*
X92072Y-248729D01*
X91835Y-248438D01*
X91708Y-248329D01*
X91580Y-248237D01*
X91489Y-248165D01*
X91398Y-248110D01*
X91343Y-248074D01*
X91325Y-248055D01*
X91143Y-247964D01*
X90961Y-247909D01*
X90778Y-247855D01*
X90596Y-247837D01*
X90451Y-247818D01*
X90323Y-247800D01*
D02*
G37*
G36*
X71647Y-247818D02*
X71538D01*
X71228Y-247837D01*
X71083Y-247855D01*
X70955D01*
X70846Y-247873D01*
X70773Y-247891D01*
X70718Y-247909D01*
X70700D01*
X70390Y-247982D01*
X70244Y-248037D01*
X70135Y-248074D01*
X70044Y-248110D01*
X69953Y-248128D01*
X69916Y-248165D01*
X69898D01*
Y-251973D01*
X70153Y-252301D01*
X70390Y-252592D01*
X70591Y-252847D01*
X70791Y-253048D01*
X70955Y-253211D01*
X71064Y-253321D01*
X71137Y-253394D01*
X71174Y-253412D01*
X71392Y-253576D01*
X71611Y-253685D01*
X71793Y-253776D01*
X71975Y-253831D01*
X72121Y-253868D01*
X72230Y-253886D01*
X72322D01*
X72613Y-253849D01*
X72850Y-253776D01*
X73069Y-253649D01*
X73233Y-253521D01*
X73378Y-253394D01*
X73488Y-253266D01*
X73542Y-253193D01*
X73561Y-253157D01*
X73706Y-252847D01*
X73816Y-252501D01*
X73888Y-252136D01*
X73943Y-251772D01*
X73980Y-251444D01*
Y-251298D01*
X73998Y-251171D01*
Y-251080D01*
Y-251007D01*
Y-250952D01*
Y-250934D01*
Y-250642D01*
X73961Y-250369D01*
X73943Y-250114D01*
X73888Y-249896D01*
X73852Y-249677D01*
X73797Y-249476D01*
X73743Y-249312D01*
X73670Y-249149D01*
X73615Y-249021D01*
X73561Y-248912D01*
X73506Y-248802D01*
X73451Y-248729D01*
X73378Y-248620D01*
X73360Y-248584D01*
X73087Y-248329D01*
X72795Y-248146D01*
X72504Y-248001D01*
X72194Y-247909D01*
X71939Y-247855D01*
X71738Y-247837D01*
X71647Y-247818D01*
D02*
G37*
%LPD*%
D31*
X-23622Y-122047D02*
D03*
Y-51181D02*
D03*
Y-104331D02*
D03*
Y-86614D02*
D03*
Y-68898D02*
D03*
Y62165D02*
D03*
Y91535D02*
D03*
Y121221D02*
D03*
D32*
Y52165D02*
D03*
Y81535D02*
D03*
Y111221D02*
D03*
D33*
X-27559Y-19685D02*
D03*
Y3937D02*
D03*
Y27559D02*
D03*
D34*
X-19685Y-19685D02*
D03*
X-27559Y-27559D02*
D03*
X-19685D02*
D03*
Y3937D02*
D03*
X-27559Y-3937D02*
D03*
X-19685D02*
D03*
X-27559Y-11811D02*
D03*
X-19685D02*
D03*
Y27559D02*
D03*
X-27559Y19685D02*
D03*
X-19685D02*
D03*
X-27559Y11811D02*
D03*
X-19685D02*
D03*
D35*
X282200Y129921D02*
D03*
X0D02*
D03*
X282198Y43307D02*
D03*
X-2D02*
D03*
Y-43307D02*
D03*
X282198D02*
D03*
X-2Y-129921D02*
D03*
X282198D02*
D03*
D36*
X250100Y98421D02*
D03*
X32600Y161421D02*
D03*
X0Y98421D02*
D03*
X282198Y74807D02*
D03*
X249598Y11807D02*
D03*
X32098Y74807D02*
D03*
X-2Y11807D02*
D03*
Y-74807D02*
D03*
X32598Y-11807D02*
D03*
X250098Y-74807D02*
D03*
X282198Y-11807D02*
D03*
X32098Y-98421D02*
D03*
X249598Y-161421D02*
D03*
X282198Y-98421D02*
D03*
D37*
X310070Y-157480D02*
D03*
Y157480D02*
D03*
X-27870D02*
D03*
Y-157480D02*
D03*
D41*
X387008Y86614D02*
D03*
Y43307D02*
D03*
Y0D02*
D03*
Y-43307D02*
D03*
Y-86614D02*
D03*
M02*
