G04*
G04 #@! TF.GenerationSoftware,Altium Limited,Altium Designer,20.0.13 (296)*
G04*
G04 Layer_Color=32896*
%FSLAX25Y25*%
%MOIN*%
G70*
G01*
G75*
%ADD10C,0.00800*%
%ADD11C,0.00787*%
%ADD12C,0.01000*%
%ADD15R,0.27559X0.23622*%
%ADD16R,0.27559X0.27559*%
%ADD43R,1.01100X0.20000*%
%ADD44R,0.04000X0.08000*%
%ADD45R,0.19685X0.19685*%
G36*
X374016Y-3937D02*
X346457D01*
Y19685D01*
X374016D01*
Y-3937D01*
D02*
G37*
G36*
X374016Y-43307D02*
X346457D01*
Y-19685D01*
X374016D01*
Y-43307D01*
D02*
G37*
G36*
X90396Y-223300D02*
X90542Y-223318D01*
X90633Y-223355D01*
X90651Y-223373D01*
X90669D01*
X90815Y-223446D01*
X90924Y-223537D01*
X90997Y-223591D01*
X91034Y-223628D01*
X91125Y-223737D01*
X91198Y-223846D01*
X91252Y-223938D01*
X91270Y-223956D01*
Y-223974D01*
X91307Y-224120D01*
X91325Y-224266D01*
X91343Y-224375D01*
Y-224393D01*
Y-224411D01*
X91325Y-224575D01*
X91307Y-224721D01*
X91289Y-224812D01*
X91270Y-224830D01*
Y-224849D01*
X91198Y-224994D01*
X91125Y-225104D01*
X91052Y-225177D01*
X91034Y-225213D01*
X90906Y-225304D01*
X90797Y-225377D01*
X90706Y-225432D01*
X90669Y-225450D01*
X90523Y-225486D01*
X90378Y-225504D01*
X90268Y-225523D01*
X90232D01*
X90068Y-225504D01*
X89922Y-225486D01*
X89831Y-225468D01*
X89795Y-225450D01*
X89649Y-225377D01*
X89539Y-225304D01*
X89467Y-225231D01*
X89448Y-225213D01*
X89339Y-225085D01*
X89266Y-224976D01*
X89211Y-224885D01*
X89193Y-224849D01*
X89139Y-224703D01*
X89120Y-224557D01*
X89102Y-224448D01*
Y-224429D01*
Y-224411D01*
X89120Y-224247D01*
X89139Y-224101D01*
X89175Y-224010D01*
X89193Y-223974D01*
X89266Y-223828D01*
X89357Y-223719D01*
X89412Y-223646D01*
X89448Y-223628D01*
X89558Y-223518D01*
X89667Y-223446D01*
X89758Y-223391D01*
X89776Y-223373D01*
X89795D01*
X89940Y-223318D01*
X90086Y-223300D01*
X90195Y-223282D01*
X90232D01*
X90396Y-223300D01*
D02*
G37*
G36*
X118947Y-226598D02*
X119111Y-226634D01*
X119238Y-226671D01*
X119256Y-226689D01*
X119274D01*
X119439Y-226780D01*
X119584Y-226871D01*
X119694Y-226944D01*
X119712Y-226962D01*
X119730Y-226980D01*
X119894Y-227144D01*
X120021Y-227326D01*
X120076Y-227399D01*
X120113Y-227454D01*
X120131Y-227490D01*
X120149Y-227509D01*
X120295Y-227764D01*
X120441Y-228019D01*
X120495Y-228128D01*
X120532Y-228219D01*
X120550Y-228274D01*
X120568Y-228292D01*
X120641Y-226725D01*
X121807D01*
Y-234961D01*
X120386D01*
Y-229677D01*
X120295Y-229476D01*
X120204Y-229276D01*
X120131Y-229112D01*
X120076Y-228984D01*
X120021Y-228875D01*
X119985Y-228802D01*
X119949Y-228748D01*
Y-228729D01*
X119821Y-228492D01*
X119712Y-228310D01*
X119639Y-228201D01*
X119621Y-228165D01*
X119511Y-228019D01*
X119420Y-227928D01*
X119366Y-227873D01*
X119347Y-227855D01*
X119256Y-227800D01*
X119165Y-227782D01*
X119092Y-227764D01*
X119074D01*
X118983Y-227782D01*
X118910Y-227800D01*
X118874Y-227818D01*
X118855Y-227837D01*
X118801Y-227891D01*
X118746Y-227964D01*
X118728Y-228037D01*
X118710Y-228055D01*
X118655Y-228183D01*
X118637Y-228329D01*
X118619Y-228438D01*
Y-228474D01*
Y-228492D01*
X118600Y-228711D01*
X118582Y-228948D01*
Y-229057D01*
Y-229130D01*
Y-229185D01*
Y-229203D01*
Y-234961D01*
X117161D01*
Y-229677D01*
X117070Y-229495D01*
X116997Y-229312D01*
X116924Y-229167D01*
X116869Y-229039D01*
X116815Y-228930D01*
X116778Y-228857D01*
X116742Y-228802D01*
Y-228784D01*
X116614Y-228547D01*
X116505Y-228347D01*
X116469Y-228292D01*
X116432Y-228238D01*
X116414Y-228219D01*
Y-228201D01*
X116305Y-228055D01*
X116214Y-227946D01*
X116159Y-227891D01*
X116141Y-227873D01*
X116031Y-227800D01*
X115940Y-227782D01*
X115867Y-227764D01*
X115849D01*
X115758Y-227782D01*
X115685Y-227800D01*
X115649Y-227818D01*
X115630Y-227837D01*
X115576Y-227891D01*
X115521Y-227964D01*
X115503Y-228019D01*
X115485Y-228037D01*
X115430Y-228165D01*
X115412Y-228292D01*
X115394Y-228401D01*
Y-228420D01*
Y-228438D01*
X115375Y-228638D01*
X115357Y-228839D01*
Y-228930D01*
Y-228984D01*
Y-229039D01*
Y-229057D01*
Y-234961D01*
X113936D01*
Y-228966D01*
X113954Y-228547D01*
X114009Y-228183D01*
X114082Y-227855D01*
X114173Y-227582D01*
X114301Y-227363D01*
X114428Y-227163D01*
X114574Y-226998D01*
X114719Y-226871D01*
X114865Y-226780D01*
X115011Y-226707D01*
X115139Y-226652D01*
X115266Y-226616D01*
X115357Y-226598D01*
X115430Y-226579D01*
X115503D01*
X115740Y-226598D01*
X115940Y-226634D01*
X116013Y-226671D01*
X116068Y-226689D01*
X116104Y-226707D01*
X116122D01*
X116305Y-226816D01*
X116450Y-226926D01*
X116560Y-227017D01*
X116578Y-227035D01*
X116596Y-227053D01*
X116742Y-227235D01*
X116869Y-227418D01*
X116924Y-227490D01*
X116961Y-227563D01*
X116997Y-227600D01*
Y-227618D01*
X117124Y-227873D01*
X117252Y-228110D01*
X117307Y-228219D01*
X117343Y-228292D01*
X117361Y-228347D01*
X117380Y-228365D01*
X117398Y-228037D01*
X117434Y-227764D01*
X117489Y-227545D01*
X117544Y-227345D01*
X117616Y-227199D01*
X117671Y-227090D01*
X117708Y-227035D01*
X117726Y-227017D01*
X117872Y-226871D01*
X118035Y-226762D01*
X118200Y-226689D01*
X118363Y-226634D01*
X118509Y-226598D01*
X118637Y-226579D01*
X118746D01*
X118947Y-226598D01*
D02*
G37*
G36*
X74854Y-234961D02*
X73433D01*
Y-230551D01*
X69589Y-234961D01*
X67621D01*
X71702Y-230533D01*
X67839Y-226725D01*
X69734D01*
X73433Y-230497D01*
Y-223373D01*
X74854D01*
Y-234961D01*
D02*
G37*
G36*
X52772Y-226634D02*
X53081Y-226671D01*
X53373Y-226707D01*
X53628Y-226762D01*
X53828Y-226835D01*
X53992Y-226871D01*
X54083Y-226907D01*
X54120Y-226926D01*
X54393Y-227053D01*
X54648Y-227199D01*
X54867Y-227345D01*
X55067Y-227472D01*
X55213Y-227600D01*
X55340Y-227709D01*
X55413Y-227782D01*
X55432Y-227800D01*
X55632Y-228019D01*
X55796Y-228256D01*
X55942Y-228474D01*
X56069Y-228693D01*
X56160Y-228875D01*
X56233Y-229039D01*
X56270Y-229130D01*
X56288Y-229149D01*
Y-229167D01*
X56379Y-229458D01*
X56452Y-229768D01*
X56507Y-230078D01*
X56543Y-230351D01*
X56561Y-230588D01*
X56580Y-230770D01*
Y-230843D01*
Y-230898D01*
Y-230916D01*
Y-230934D01*
X56561Y-231298D01*
X56543Y-231645D01*
X56488Y-231973D01*
X56415Y-232264D01*
X56343Y-232537D01*
X56252Y-232792D01*
X56160Y-233029D01*
X56051Y-233230D01*
X55960Y-233412D01*
X55869Y-233576D01*
X55778Y-233703D01*
X55705Y-233813D01*
X55632Y-233904D01*
X55577Y-233959D01*
X55559Y-233995D01*
X55541Y-234013D01*
X55340Y-234195D01*
X55104Y-234359D01*
X54867Y-234505D01*
X54630Y-234614D01*
X54375Y-234724D01*
X54120Y-234815D01*
X53646Y-234942D01*
X53409Y-234979D01*
X53209Y-235015D01*
X53027Y-235033D01*
X52863Y-235052D01*
X52717Y-235070D01*
X52535D01*
X52079Y-235052D01*
X51860Y-235033D01*
X51678Y-235015D01*
X51533Y-234997D01*
X51423Y-234979D01*
X51332Y-234961D01*
X51314D01*
X50895Y-234870D01*
X50694Y-234815D01*
X50512Y-234778D01*
X50366Y-234724D01*
X50257Y-234687D01*
X50184Y-234651D01*
X50166D01*
Y-233321D01*
X50549Y-233503D01*
X50731Y-233576D01*
X50877Y-233631D01*
X51022Y-233667D01*
X51132Y-233703D01*
X51205Y-233722D01*
X51223D01*
X51624Y-233795D01*
X51824Y-233813D01*
X51988Y-233831D01*
X52134Y-233849D01*
X52352D01*
X52808Y-233813D01*
X53209Y-233740D01*
X53555Y-233612D01*
X53847Y-233485D01*
X54083Y-233357D01*
X54247Y-233230D01*
X54338Y-233157D01*
X54375Y-233120D01*
X54612Y-232811D01*
X54794Y-232465D01*
X54903Y-232082D01*
X54994Y-231736D01*
X55049Y-231408D01*
X55067Y-231262D01*
Y-231135D01*
X55085Y-231043D01*
Y-230971D01*
Y-230916D01*
Y-230898D01*
X55067Y-230624D01*
X55049Y-230387D01*
X55013Y-230169D01*
X54976Y-229968D01*
X54940Y-229823D01*
X54922Y-229695D01*
X54885Y-229622D01*
Y-229604D01*
X54794Y-229403D01*
X54703Y-229221D01*
X54612Y-229057D01*
X54502Y-228912D01*
X54430Y-228802D01*
X54357Y-228729D01*
X54320Y-228675D01*
X54302Y-228657D01*
X54156Y-228511D01*
X54010Y-228401D01*
X53865Y-228292D01*
X53737Y-228201D01*
X53628Y-228146D01*
X53518Y-228092D01*
X53464Y-228055D01*
X53446D01*
X53263Y-227982D01*
X53081Y-227928D01*
X52899Y-227891D01*
X52735Y-227855D01*
X52608D01*
X52498Y-227837D01*
X52407D01*
X51970Y-227855D01*
X51788Y-227873D01*
X51605Y-227891D01*
X51460Y-227928D01*
X51350Y-227946D01*
X51278Y-227964D01*
X51259D01*
X50858Y-228074D01*
X50676Y-228146D01*
X50512Y-228219D01*
X50366Y-228274D01*
X50257Y-228329D01*
X50184Y-228347D01*
X50166Y-228365D01*
Y-226998D01*
X50549Y-226871D01*
X50731Y-226816D01*
X50895Y-226780D01*
X51041Y-226743D01*
X51150Y-226725D01*
X51223Y-226707D01*
X51241D01*
X51660Y-226652D01*
X51860Y-226634D01*
X52061D01*
X52207Y-226616D01*
X52444D01*
X52772Y-226634D01*
D02*
G37*
G36*
X147443Y-224466D02*
Y-226725D01*
X149738D01*
Y-227928D01*
X147443D01*
Y-232228D01*
X147406Y-232738D01*
X147315Y-233175D01*
X147206Y-233540D01*
X147060Y-233849D01*
X146914Y-234086D01*
X146805Y-234250D01*
X146714Y-234341D01*
X146677Y-234378D01*
X146532Y-234505D01*
X146349Y-234614D01*
X145985Y-234778D01*
X145602Y-234906D01*
X145238Y-234979D01*
X144892Y-235033D01*
X144746Y-235052D01*
X144618D01*
X144509Y-235070D01*
X144363D01*
X143981Y-235052D01*
X143799D01*
X143653Y-235033D01*
X143507D01*
X143416Y-235015D01*
X143325D01*
X142942Y-234961D01*
X142778Y-234942D01*
X142614Y-234906D01*
X142487Y-234888D01*
X142396Y-234870D01*
X142323Y-234851D01*
X142305D01*
Y-233612D01*
X142669Y-233703D01*
X142833Y-233740D01*
X142979Y-233758D01*
X143106Y-233794D01*
X143197D01*
X143270Y-233813D01*
X143289D01*
X143616Y-233849D01*
X143780D01*
X143908Y-233867D01*
X144163D01*
X144491Y-233849D01*
X144764Y-233794D01*
X145001Y-233722D01*
X145202Y-233649D01*
X145347Y-233576D01*
X145457Y-233503D01*
X145529Y-233448D01*
X145548Y-233430D01*
X145712Y-233248D01*
X145821Y-233048D01*
X145912Y-232829D01*
X145967Y-232610D01*
X146003Y-232410D01*
X146021Y-232264D01*
Y-232155D01*
Y-232137D01*
Y-232118D01*
Y-227928D01*
X142305D01*
Y-226725D01*
X146021D01*
Y-224083D01*
X147443Y-224466D01*
D02*
G37*
G36*
X138205Y-224466D02*
Y-226725D01*
X140501Y-226725D01*
Y-227928D01*
X138205Y-227928D01*
Y-232228D01*
X138169Y-232738D01*
X138077Y-233175D01*
X137968Y-233540D01*
X137822Y-233849D01*
X137677Y-234086D01*
X137567Y-234250D01*
X137476Y-234341D01*
X137440Y-234378D01*
X137294Y-234505D01*
X137112Y-234614D01*
X136748Y-234778D01*
X136365Y-234906D01*
X136001Y-234979D01*
X135654Y-235033D01*
X135509Y-235052D01*
X135381D01*
X135272Y-235070D01*
X135126D01*
X134743Y-235052D01*
X134561D01*
X134415Y-235033D01*
X134270D01*
X134178Y-235015D01*
X134087D01*
X133705Y-234961D01*
X133541Y-234942D01*
X133377Y-234906D01*
X133249Y-234888D01*
X133158Y-234870D01*
X133085Y-234851D01*
X133067D01*
Y-233612D01*
X133431Y-233703D01*
X133595Y-233740D01*
X133741Y-233758D01*
X133869Y-233795D01*
X133960D01*
X134033Y-233813D01*
X134051D01*
X134379Y-233849D01*
X134543D01*
X134670Y-233867D01*
X134925D01*
X135253Y-233849D01*
X135527Y-233795D01*
X135764Y-233722D01*
X135964Y-233649D01*
X136110Y-233576D01*
X136219Y-233503D01*
X136292Y-233448D01*
X136310Y-233430D01*
X136474Y-233248D01*
X136583Y-233048D01*
X136675Y-232829D01*
X136729Y-232610D01*
X136766Y-232410D01*
X136784Y-232264D01*
Y-232155D01*
Y-232137D01*
Y-232118D01*
Y-227928D01*
X133067D01*
Y-226725D01*
X136784D01*
Y-224083D01*
X138205Y-224466D01*
D02*
G37*
G36*
X35025Y-226598D02*
X35317Y-226634D01*
X35590Y-226689D01*
X35827Y-226743D01*
X36009Y-226816D01*
X36155Y-226871D01*
X36246Y-226907D01*
X36282Y-226926D01*
X36538Y-227071D01*
X36756Y-227217D01*
X36957Y-227381D01*
X37139Y-227527D01*
X37266Y-227673D01*
X37376Y-227782D01*
X37448Y-227855D01*
X37467Y-227873D01*
X37631Y-228092D01*
X37776Y-228329D01*
X37904Y-228565D01*
X38013Y-228766D01*
X38086Y-228966D01*
X38141Y-229112D01*
X38177Y-229203D01*
X38195Y-229221D01*
Y-229240D01*
X38268Y-229531D01*
X38323Y-229823D01*
X38378Y-230096D01*
X38396Y-230333D01*
X38414Y-230551D01*
X38432Y-230715D01*
Y-230825D01*
Y-230843D01*
Y-230861D01*
X38414Y-231226D01*
X38396Y-231572D01*
X38359Y-231863D01*
X38323Y-232137D01*
X38287Y-232355D01*
X38250Y-232519D01*
X38214Y-232628D01*
Y-232647D01*
Y-232665D01*
X38123Y-232938D01*
X37995Y-233211D01*
X37886Y-233430D01*
X37758Y-233631D01*
X37649Y-233776D01*
X37558Y-233904D01*
X37503Y-233977D01*
X37485Y-233995D01*
X37284Y-234195D01*
X37084Y-234359D01*
X36865Y-234505D01*
X36665Y-234614D01*
X36501Y-234706D01*
X36355Y-234778D01*
X36264Y-234815D01*
X36228Y-234833D01*
X35936Y-234924D01*
X35627Y-234997D01*
X35317Y-235033D01*
X35025Y-235070D01*
X34788Y-235088D01*
X34588Y-235106D01*
X34114D01*
X33841Y-235088D01*
X33586Y-235070D01*
X33349Y-235052D01*
X33167Y-235033D01*
X33021Y-235015D01*
X32930Y-234997D01*
X32893D01*
X32620Y-234961D01*
X32365Y-234924D01*
X32146Y-234870D01*
X31946Y-234833D01*
X31782Y-234797D01*
X31673Y-234760D01*
X31582Y-234742D01*
X31563D01*
Y-233576D01*
X31764Y-233631D01*
X31964Y-233667D01*
X32037Y-233685D01*
X32092Y-233703D01*
X32128Y-233722D01*
X32146D01*
X32383Y-233758D01*
X32584Y-233795D01*
X32675Y-233813D01*
X32748D01*
X32784Y-233831D01*
X32802D01*
X33039Y-233849D01*
X33276Y-233886D01*
X33367D01*
X33440Y-233904D01*
X33495D01*
X33750Y-233922D01*
X34205D01*
X34679Y-233886D01*
X35080Y-233813D01*
X35426Y-233703D01*
X35718Y-233576D01*
X35954Y-233467D01*
X36118Y-233357D01*
X36209Y-233284D01*
X36246Y-233248D01*
X36483Y-232975D01*
X36647Y-232665D01*
X36774Y-232337D01*
X36847Y-232027D01*
X36902Y-231736D01*
X36920Y-231608D01*
Y-231499D01*
X36938Y-231426D01*
Y-231353D01*
Y-231317D01*
Y-231298D01*
X31163D01*
X31144Y-231171D01*
Y-231062D01*
Y-230971D01*
Y-230934D01*
X31126Y-230752D01*
Y-230588D01*
Y-230515D01*
Y-230460D01*
Y-230424D01*
Y-230406D01*
X31144Y-230078D01*
X31163Y-229786D01*
X31199Y-229531D01*
X31236Y-229294D01*
X31290Y-229112D01*
X31327Y-228966D01*
X31345Y-228875D01*
X31363Y-228839D01*
X31454Y-228584D01*
X31563Y-228347D01*
X31691Y-228146D01*
X31800Y-227964D01*
X31891Y-227837D01*
X31982Y-227727D01*
X32037Y-227654D01*
X32055Y-227636D01*
X32238Y-227454D01*
X32420Y-227290D01*
X32620Y-227163D01*
X32784Y-227053D01*
X32948Y-226962D01*
X33076Y-226907D01*
X33149Y-226871D01*
X33185Y-226853D01*
X33440Y-226762D01*
X33695Y-226689D01*
X33950Y-226652D01*
X34187Y-226616D01*
X34387Y-226598D01*
X34552Y-226579D01*
X34697D01*
X35025Y-226598D01*
D02*
G37*
G36*
X25788D02*
X26079Y-226634D01*
X26353Y-226689D01*
X26589Y-226743D01*
X26772Y-226816D01*
X26917Y-226871D01*
X27008Y-226907D01*
X27045Y-226926D01*
X27300Y-227071D01*
X27519Y-227217D01*
X27719Y-227381D01*
X27901Y-227527D01*
X28029Y-227673D01*
X28138Y-227782D01*
X28211Y-227855D01*
X28229Y-227873D01*
X28393Y-228092D01*
X28539Y-228329D01*
X28666Y-228565D01*
X28776Y-228766D01*
X28849Y-228966D01*
X28903Y-229112D01*
X28940Y-229203D01*
X28958Y-229221D01*
Y-229240D01*
X29031Y-229531D01*
X29085Y-229823D01*
X29140Y-230096D01*
X29158Y-230333D01*
X29177Y-230551D01*
X29195Y-230715D01*
Y-230825D01*
Y-230843D01*
Y-230861D01*
X29177Y-231226D01*
X29158Y-231572D01*
X29122Y-231863D01*
X29085Y-232137D01*
X29049Y-232355D01*
X29013Y-232519D01*
X28976Y-232628D01*
Y-232647D01*
Y-232665D01*
X28885Y-232938D01*
X28758Y-233211D01*
X28648Y-233430D01*
X28521Y-233631D01*
X28411Y-233776D01*
X28320Y-233904D01*
X28266Y-233977D01*
X28247Y-233995D01*
X28047Y-234195D01*
X27847Y-234359D01*
X27628Y-234505D01*
X27428Y-234614D01*
X27264Y-234706D01*
X27118Y-234778D01*
X27027Y-234815D01*
X26990Y-234833D01*
X26699Y-234924D01*
X26389Y-234997D01*
X26079Y-235033D01*
X25788Y-235070D01*
X25551Y-235088D01*
X25350Y-235106D01*
X24877D01*
X24603Y-235088D01*
X24348Y-235070D01*
X24111Y-235052D01*
X23929Y-235033D01*
X23784Y-235015D01*
X23692Y-234997D01*
X23656D01*
X23383Y-234961D01*
X23128Y-234924D01*
X22909Y-234870D01*
X22708Y-234833D01*
X22545Y-234797D01*
X22435Y-234760D01*
X22344Y-234742D01*
X22326D01*
Y-233576D01*
X22526Y-233631D01*
X22727Y-233667D01*
X22800Y-233685D01*
X22854Y-233703D01*
X22891Y-233722D01*
X22909D01*
X23146Y-233758D01*
X23346Y-233795D01*
X23437Y-233813D01*
X23510D01*
X23547Y-233831D01*
X23565D01*
X23802Y-233849D01*
X24039Y-233886D01*
X24130D01*
X24203Y-233904D01*
X24257D01*
X24512Y-233922D01*
X24968D01*
X25442Y-233886D01*
X25842Y-233813D01*
X26188Y-233703D01*
X26480Y-233576D01*
X26717Y-233467D01*
X26881Y-233357D01*
X26972Y-233284D01*
X27008Y-233248D01*
X27245Y-232975D01*
X27409Y-232665D01*
X27537Y-232337D01*
X27610Y-232027D01*
X27664Y-231736D01*
X27683Y-231608D01*
Y-231499D01*
X27701Y-231426D01*
Y-231353D01*
Y-231317D01*
Y-231298D01*
X21925Y-231298D01*
X21907Y-231171D01*
Y-231062D01*
Y-230971D01*
Y-230934D01*
X21889Y-230752D01*
Y-230588D01*
Y-230515D01*
Y-230460D01*
Y-230424D01*
Y-230406D01*
X21907Y-230078D01*
X21925Y-229786D01*
X21961Y-229531D01*
X21998Y-229294D01*
X22053Y-229112D01*
X22089Y-228966D01*
X22107Y-228875D01*
X22126Y-228839D01*
X22217Y-228584D01*
X22326Y-228347D01*
X22453Y-228146D01*
X22563Y-227964D01*
X22654Y-227837D01*
X22745Y-227727D01*
X22800Y-227654D01*
X22818Y-227636D01*
X23000Y-227454D01*
X23182Y-227290D01*
X23383Y-227163D01*
X23547Y-227053D01*
X23711Y-226962D01*
X23838Y-226907D01*
X23911Y-226871D01*
X23947Y-226853D01*
X24203Y-226762D01*
X24458Y-226689D01*
X24713Y-226652D01*
X24950Y-226616D01*
X25150Y-226598D01*
X25314Y-226579D01*
X25460D01*
X25788Y-226598D01*
D02*
G37*
G36*
X167430Y-234961D02*
X164679D01*
X164333Y-234942D01*
X164005Y-234924D01*
X163713Y-234888D01*
X163458Y-234851D01*
X163258Y-234815D01*
X163094Y-234797D01*
X163003Y-234760D01*
X162966D01*
X162674Y-234669D01*
X162419Y-234578D01*
X162201Y-234469D01*
X162000Y-234359D01*
X161855Y-234286D01*
X161727Y-234214D01*
X161654Y-234159D01*
X161636Y-234141D01*
X161436Y-233977D01*
X161272Y-233813D01*
X161126Y-233631D01*
X161016Y-233485D01*
X160925Y-233339D01*
X160853Y-233230D01*
X160816Y-233157D01*
X160798Y-233139D01*
X160689Y-232902D01*
X160616Y-232665D01*
X160561Y-232428D01*
X160525Y-232228D01*
X160506Y-232027D01*
X160488Y-231881D01*
Y-231790D01*
Y-231754D01*
X160525Y-231389D01*
X160543Y-231225D01*
X160579Y-231080D01*
X160616Y-230970D01*
X160634Y-230879D01*
X160670Y-230825D01*
Y-230806D01*
X160816Y-230497D01*
X160889Y-230369D01*
X160962Y-230260D01*
X161016Y-230187D01*
X161071Y-230114D01*
X161108Y-230078D01*
X161126Y-230060D01*
X161345Y-229841D01*
X161563Y-229695D01*
X161654Y-229622D01*
X161727Y-229586D01*
X161782Y-229549D01*
X161800D01*
X162092Y-229422D01*
X162347Y-229331D01*
X162456Y-229312D01*
X162547Y-229294D01*
X162602Y-229276D01*
X162620D01*
X162292Y-229149D01*
X162019Y-229003D01*
X161782Y-228839D01*
X161600Y-228693D01*
X161472Y-228565D01*
X161363Y-228456D01*
X161308Y-228365D01*
X161290Y-228347D01*
X161144Y-228110D01*
X161053Y-227855D01*
X160980Y-227600D01*
X160925Y-227363D01*
X160889Y-227163D01*
X160871Y-226998D01*
Y-226889D01*
Y-226871D01*
Y-226853D01*
X160889Y-226616D01*
X160907Y-226397D01*
X161016Y-225996D01*
X161199Y-225650D01*
X161417Y-225341D01*
X161691Y-225085D01*
X161982Y-224885D01*
X162310Y-224703D01*
X162638Y-224575D01*
X162966Y-224466D01*
X163294Y-224393D01*
X163585Y-224320D01*
X163859Y-224284D01*
X164077Y-224266D01*
X164260Y-224247D01*
X167430D01*
Y-234961D01*
D02*
G37*
G36*
X93147Y-227909D02*
X90724D01*
Y-233776D01*
X93420D01*
Y-234961D01*
X86825D01*
Y-233776D01*
X89284D01*
Y-226725D01*
X93147D01*
Y-227909D01*
D02*
G37*
G36*
X83909Y-224539D02*
X81486Y-224539D01*
Y-233776D01*
X84183Y-233776D01*
Y-234961D01*
X77587Y-234961D01*
Y-233776D01*
X80047D01*
Y-223373D01*
X83909Y-223373D01*
Y-224539D01*
D02*
G37*
G36*
X43060Y-226598D02*
X43315Y-226634D01*
X43570Y-226707D01*
X43771Y-226780D01*
X43971Y-226853D01*
X44099Y-226926D01*
X44190Y-226962D01*
X44226Y-226980D01*
X44500Y-227144D01*
X44755Y-227345D01*
X44992Y-227563D01*
X45210Y-227764D01*
X45392Y-227964D01*
X45538Y-228110D01*
X45629Y-228219D01*
X45666Y-228238D01*
Y-228256D01*
X45702Y-226725D01*
X46996D01*
Y-234961D01*
X45556D01*
Y-229677D01*
X45411Y-229495D01*
X45283Y-229331D01*
X45156Y-229203D01*
X45046Y-229076D01*
X44955Y-228966D01*
X44882Y-228893D01*
X44846Y-228857D01*
X44828Y-228839D01*
X44572Y-228602D01*
X44372Y-228401D01*
X44281Y-228347D01*
X44226Y-228292D01*
X44190Y-228274D01*
X44172Y-228256D01*
X43953Y-228110D01*
X43753Y-228001D01*
X43680Y-227964D01*
X43625Y-227946D01*
X43589Y-227928D01*
X43570D01*
X43352Y-227855D01*
X43170Y-227837D01*
X43115Y-227818D01*
X43006D01*
X42769Y-227837D01*
X42568Y-227891D01*
X42404Y-227982D01*
X42259Y-228055D01*
X42149Y-228146D01*
X42058Y-228238D01*
X42022Y-228292D01*
X42004Y-228310D01*
X41894Y-228511D01*
X41803Y-228766D01*
X41748Y-229021D01*
X41712Y-229276D01*
X41694Y-229495D01*
X41675Y-229677D01*
Y-229750D01*
Y-229804D01*
Y-229841D01*
Y-229859D01*
X40236D01*
Y-229568D01*
X40254Y-229294D01*
X40273Y-229039D01*
X40309Y-228784D01*
X40364Y-228565D01*
X40418Y-228365D01*
X40473Y-228201D01*
X40528Y-228037D01*
X40582Y-227891D01*
X40655Y-227764D01*
X40710Y-227654D01*
X40746Y-227563D01*
X40801Y-227509D01*
X40819Y-227454D01*
X40856Y-227418D01*
X40983Y-227272D01*
X41129Y-227144D01*
X41439Y-226926D01*
X41748Y-226780D01*
X42058Y-226689D01*
X42350Y-226616D01*
X42477Y-226598D01*
X42568D01*
X42659Y-226579D01*
X42787D01*
X43060Y-226598D01*
D02*
G37*
G36*
X15840Y-226598D02*
X16076Y-226616D01*
X16168Y-226634D01*
X16240D01*
X16277Y-226652D01*
X16295D01*
X16532Y-226725D01*
X16751Y-226798D01*
X16823Y-226853D01*
X16896Y-226871D01*
X16933Y-226907D01*
X16951D01*
X17188Y-227053D01*
X17388Y-227199D01*
X17479Y-227254D01*
X17552Y-227308D01*
X17589Y-227345D01*
X17607Y-227363D01*
X17844Y-227582D01*
X18081Y-227818D01*
X18172Y-227909D01*
X18245Y-227982D01*
X18281Y-228037D01*
X18299Y-228055D01*
X18354Y-226725D01*
X19611D01*
Y-234961D01*
X18190D01*
Y-229513D01*
X18044Y-229331D01*
X17917Y-229185D01*
X17807Y-229039D01*
X17698Y-228912D01*
X17607Y-228820D01*
X17552Y-228748D01*
X17516Y-228711D01*
X17498Y-228693D01*
X17261Y-228474D01*
X17078Y-228310D01*
X17006Y-228256D01*
X16951Y-228219D01*
X16915Y-228183D01*
X16896D01*
X16696Y-228055D01*
X16532Y-227964D01*
X16423Y-227928D01*
X16404Y-227909D01*
X16386D01*
X16204Y-227855D01*
X16022Y-227837D01*
X15949Y-227818D01*
X15858D01*
X15603Y-227837D01*
X15384Y-227891D01*
X15202Y-227964D01*
X15056Y-228055D01*
X14929Y-228146D01*
X14856Y-228219D01*
X14801Y-228274D01*
X14783Y-228292D01*
X14655Y-228474D01*
X14564Y-228711D01*
X14510Y-228948D01*
X14455Y-229167D01*
X14437Y-229385D01*
X14418Y-229549D01*
Y-229622D01*
Y-229677D01*
Y-229695D01*
Y-229713D01*
Y-234961D01*
X12997D01*
Y-229604D01*
X13034Y-229076D01*
X13107Y-228620D01*
X13198Y-228219D01*
X13325Y-227909D01*
X13453Y-227654D01*
X13544Y-227490D01*
X13617Y-227381D01*
X13653Y-227345D01*
X13927Y-227090D01*
X14236Y-226907D01*
X14546Y-226762D01*
X14856Y-226671D01*
X15147Y-226616D01*
X15275Y-226598D01*
X15366D01*
X15457Y-226579D01*
X15585D01*
X15840Y-226598D01*
D02*
G37*
G36*
X155150Y-226598D02*
X155459Y-226634D01*
X155733Y-226689D01*
X155988Y-226743D01*
X156188Y-226798D01*
X156334Y-226853D01*
X156425Y-226889D01*
X156462Y-226907D01*
X156717Y-227035D01*
X156954Y-227181D01*
X157172Y-227326D01*
X157354Y-227472D01*
X157500Y-227600D01*
X157609Y-227709D01*
X157682Y-227782D01*
X157701Y-227800D01*
X157883Y-228019D01*
X158028Y-228256D01*
X158174Y-228474D01*
X158283Y-228693D01*
X158375Y-228875D01*
X158429Y-229039D01*
X158466Y-229130D01*
X158484Y-229149D01*
Y-229167D01*
X158575Y-229458D01*
X158630Y-229768D01*
X158684Y-230060D01*
X158703Y-230333D01*
X158721Y-230551D01*
X158739Y-230734D01*
Y-230806D01*
Y-230861D01*
Y-230879D01*
Y-230898D01*
X158721Y-231262D01*
X158703Y-231608D01*
X158666Y-231918D01*
X158612Y-232191D01*
X158557Y-232410D01*
X158520Y-232574D01*
X158502Y-232683D01*
X158484Y-232701D01*
Y-232720D01*
X158375Y-232993D01*
X158265Y-233248D01*
X158138Y-233485D01*
X158028Y-233667D01*
X157919Y-233831D01*
X157828Y-233940D01*
X157773Y-234013D01*
X157755Y-234031D01*
X157555Y-234214D01*
X157354Y-234378D01*
X157172Y-234523D01*
X156972Y-234633D01*
X156808Y-234724D01*
X156680Y-234778D01*
X156607Y-234815D01*
X156571Y-234833D01*
X156298Y-234924D01*
X156024Y-234997D01*
X155751Y-235033D01*
X155496Y-235070D01*
X155296Y-235088D01*
X155113Y-235106D01*
X154967D01*
X154621Y-235088D01*
X154312Y-235052D01*
X154038Y-235015D01*
X153783Y-234942D01*
X153583Y-234888D01*
X153437Y-234851D01*
X153346Y-234815D01*
X153310Y-234797D01*
X153054Y-234669D01*
X152799Y-234523D01*
X152599Y-234378D01*
X152417Y-234250D01*
X152271Y-234122D01*
X152162Y-234013D01*
X152089Y-233940D01*
X152070Y-233922D01*
X151888Y-233703D01*
X151724Y-233467D01*
X151597Y-233230D01*
X151488Y-233011D01*
X151396Y-232829D01*
X151342Y-232683D01*
X151305Y-232592D01*
X151287Y-232556D01*
X151196Y-232246D01*
X151123Y-231936D01*
X151087Y-231645D01*
X151050Y-231371D01*
X151032Y-231134D01*
X151014Y-230952D01*
Y-230879D01*
Y-230825D01*
Y-230806D01*
Y-230788D01*
X151032Y-230424D01*
X151050Y-230078D01*
X151105Y-229768D01*
X151141Y-229495D01*
X151196Y-229294D01*
X151251Y-229130D01*
X151269Y-229021D01*
X151287Y-228984D01*
X151396Y-228711D01*
X151506Y-228456D01*
X151633Y-228219D01*
X151761Y-228037D01*
X151870Y-227873D01*
X151961Y-227764D01*
X152016Y-227691D01*
X152034Y-227673D01*
X152216Y-227490D01*
X152417Y-227326D01*
X152617Y-227181D01*
X152799Y-227071D01*
X152963Y-226980D01*
X153091Y-226926D01*
X153182Y-226889D01*
X153218Y-226871D01*
X153492Y-226780D01*
X153765Y-226707D01*
X154020Y-226652D01*
X154275Y-226616D01*
X154475Y-226598D01*
X154658Y-226579D01*
X154804D01*
X155150Y-226598D01*
D02*
G37*
G36*
X127437Y-226598D02*
X127747Y-226634D01*
X128020Y-226689D01*
X128275Y-226743D01*
X128476Y-226798D01*
X128621Y-226853D01*
X128712Y-226889D01*
X128749Y-226907D01*
X129004Y-227035D01*
X129241Y-227181D01*
X129460Y-227326D01*
X129642Y-227472D01*
X129787Y-227600D01*
X129897Y-227709D01*
X129970Y-227782D01*
X129988Y-227800D01*
X130170Y-228019D01*
X130316Y-228256D01*
X130462Y-228474D01*
X130571Y-228693D01*
X130662Y-228875D01*
X130717Y-229039D01*
X130753Y-229130D01*
X130771Y-229149D01*
Y-229167D01*
X130862Y-229458D01*
X130917Y-229768D01*
X130972Y-230060D01*
X130990Y-230333D01*
X131008Y-230551D01*
X131026Y-230734D01*
Y-230806D01*
Y-230861D01*
Y-230879D01*
Y-230898D01*
X131008Y-231262D01*
X130990Y-231608D01*
X130954Y-231918D01*
X130899Y-232191D01*
X130844Y-232410D01*
X130808Y-232574D01*
X130790Y-232683D01*
X130771Y-232701D01*
Y-232720D01*
X130662Y-232993D01*
X130553Y-233248D01*
X130425Y-233485D01*
X130316Y-233667D01*
X130207Y-233831D01*
X130115Y-233940D01*
X130061Y-234013D01*
X130043Y-234031D01*
X129842Y-234214D01*
X129642Y-234378D01*
X129460Y-234523D01*
X129259Y-234633D01*
X129095Y-234724D01*
X128968Y-234778D01*
X128895Y-234815D01*
X128858Y-234833D01*
X128585Y-234924D01*
X128312Y-234997D01*
X128038Y-235033D01*
X127783Y-235070D01*
X127583Y-235088D01*
X127401Y-235106D01*
X127255D01*
X126909Y-235088D01*
X126599Y-235052D01*
X126326Y-235015D01*
X126071Y-234942D01*
X125870Y-234888D01*
X125724Y-234851D01*
X125633Y-234815D01*
X125597Y-234797D01*
X125342Y-234669D01*
X125087Y-234523D01*
X124886Y-234378D01*
X124704Y-234250D01*
X124558Y-234122D01*
X124449Y-234013D01*
X124376Y-233940D01*
X124358Y-233922D01*
X124176Y-233703D01*
X124012Y-233467D01*
X123884Y-233230D01*
X123775Y-233011D01*
X123684Y-232829D01*
X123629Y-232683D01*
X123593Y-232592D01*
X123574Y-232556D01*
X123483Y-232246D01*
X123410Y-231936D01*
X123374Y-231645D01*
X123338Y-231371D01*
X123319Y-231134D01*
X123301Y-230952D01*
Y-230879D01*
Y-230825D01*
Y-230806D01*
Y-230788D01*
X123319Y-230424D01*
X123338Y-230078D01*
X123392Y-229768D01*
X123429Y-229495D01*
X123483Y-229294D01*
X123538Y-229130D01*
X123556Y-229021D01*
X123574Y-228984D01*
X123684Y-228711D01*
X123793Y-228456D01*
X123921Y-228219D01*
X124048Y-228037D01*
X124158Y-227873D01*
X124249Y-227764D01*
X124303Y-227691D01*
X124321Y-227673D01*
X124504Y-227490D01*
X124704Y-227326D01*
X124905Y-227181D01*
X125087Y-227071D01*
X125251Y-226980D01*
X125378Y-226926D01*
X125469Y-226889D01*
X125506Y-226871D01*
X125779Y-226780D01*
X126052Y-226707D01*
X126307Y-226652D01*
X126562Y-226616D01*
X126763Y-226598D01*
X126945Y-226579D01*
X127091D01*
X127437Y-226598D01*
D02*
G37*
G36*
X99415Y-224101D02*
X99761Y-224120D01*
X100071Y-224156D01*
X100344Y-224211D01*
X100563Y-224266D01*
X100708Y-224302D01*
X100818Y-224320D01*
X100854Y-224338D01*
X101127Y-224448D01*
X101364Y-224557D01*
X101583Y-224666D01*
X101747Y-224776D01*
X101893Y-224867D01*
X102002Y-224940D01*
X102075Y-224994D01*
X102093Y-225012D01*
X102257Y-225177D01*
X102403Y-225341D01*
X102530Y-225504D01*
X102621Y-225650D01*
X102694Y-225778D01*
X102767Y-225869D01*
X102785Y-225942D01*
X102804Y-225960D01*
X102876Y-226160D01*
X102931Y-226361D01*
X102968Y-226543D01*
X102986Y-226707D01*
X103004Y-226853D01*
X103022Y-226962D01*
Y-227035D01*
Y-227053D01*
X103004Y-227272D01*
X102986Y-227490D01*
X102949Y-227673D01*
X102895Y-227837D01*
X102858Y-227964D01*
X102822Y-228055D01*
X102804Y-228128D01*
X102785Y-228146D01*
X102585Y-228456D01*
X102476Y-228602D01*
X102385Y-228711D01*
X102294Y-228820D01*
X102221Y-228893D01*
X102184Y-228930D01*
X102166Y-228948D01*
X101856Y-229185D01*
X101692Y-229276D01*
X101565Y-229367D01*
X101437Y-229440D01*
X101346Y-229476D01*
X101273Y-229513D01*
X101255Y-229531D01*
X100872Y-229713D01*
X100708Y-229786D01*
X100544Y-229859D01*
X100417Y-229914D01*
X100326Y-229968D01*
X100253Y-229987D01*
X100235Y-230005D01*
X99852Y-230151D01*
X99670Y-230223D01*
X99524Y-230278D01*
X99378Y-230333D01*
X99287Y-230369D01*
X99214Y-230387D01*
X99196Y-230406D01*
X98832Y-230570D01*
X98686Y-230643D01*
X98558Y-230715D01*
X98449Y-230770D01*
X98376Y-230825D01*
X98321Y-230843D01*
X98303Y-230861D01*
X98030Y-231043D01*
X97921Y-231134D01*
X97830Y-231225D01*
X97757Y-231298D01*
X97702Y-231353D01*
X97684Y-231389D01*
X97666Y-231408D01*
X97575Y-231535D01*
X97520Y-231645D01*
X97447Y-231881D01*
X97429Y-231991D01*
X97411Y-232064D01*
Y-232118D01*
Y-232137D01*
X97429Y-232410D01*
X97447Y-232537D01*
X97483Y-232647D01*
X97502Y-232738D01*
X97538Y-232811D01*
X97556Y-232847D01*
Y-232865D01*
X97684Y-233084D01*
X97848Y-233248D01*
X97921Y-233303D01*
X97975Y-233357D01*
X98012Y-233376D01*
X98030Y-233394D01*
X98285Y-233521D01*
X98540Y-233631D01*
X98668Y-233649D01*
X98741Y-233685D01*
X98813Y-233703D01*
X98832D01*
X99032Y-233740D01*
X99233Y-233758D01*
X99433Y-233795D01*
X99615D01*
X99779Y-233813D01*
X100399D01*
X100726Y-233795D01*
X101018Y-233776D01*
X101273Y-233740D01*
X101492Y-233722D01*
X101656Y-233703D01*
X101747Y-233685D01*
X101783D01*
X102057Y-233631D01*
X102312Y-233576D01*
X102549Y-233521D01*
X102749Y-233448D01*
X102913Y-233394D01*
X103041Y-233357D01*
X103113Y-233339D01*
X103150Y-233321D01*
Y-234724D01*
X102931Y-234778D01*
X102731Y-234833D01*
X102658Y-234851D01*
X102585Y-234870D01*
X102549Y-234888D01*
X102530D01*
X102275Y-234924D01*
X102038Y-234961D01*
X101947D01*
X101874Y-234979D01*
X101802D01*
X101510Y-235015D01*
X101255Y-235052D01*
X101146D01*
X101073Y-235070D01*
X101000D01*
X100672Y-235088D01*
X100544D01*
X100399Y-235106D01*
X99797D01*
X99469Y-235070D01*
X99178Y-235052D01*
X98923Y-235015D01*
X98704Y-234979D01*
X98540Y-234961D01*
X98449Y-234924D01*
X98413D01*
X98121Y-234851D01*
X97866Y-234760D01*
X97647Y-234669D01*
X97447Y-234578D01*
X97301Y-234487D01*
X97174Y-234414D01*
X97101Y-234378D01*
X97083Y-234359D01*
X96882Y-234214D01*
X96700Y-234050D01*
X96554Y-233886D01*
X96427Y-233740D01*
X96336Y-233612D01*
X96263Y-233503D01*
X96226Y-233430D01*
X96208Y-233412D01*
X96099Y-233193D01*
X96026Y-232956D01*
X95953Y-232720D01*
X95916Y-232519D01*
X95898Y-232337D01*
X95880Y-232191D01*
Y-232100D01*
Y-232064D01*
X95898Y-231827D01*
X95916Y-231626D01*
X95953Y-231426D01*
X96008Y-231262D01*
X96062Y-231134D01*
X96099Y-231043D01*
X96117Y-230971D01*
X96135Y-230952D01*
X96336Y-230624D01*
X96445Y-230479D01*
X96536Y-230369D01*
X96627Y-230260D01*
X96700Y-230187D01*
X96755Y-230151D01*
X96773Y-230132D01*
X97064Y-229895D01*
X97356Y-229695D01*
X97483Y-229622D01*
X97575Y-229568D01*
X97647Y-229549D01*
X97666Y-229531D01*
X98048Y-229349D01*
X98212Y-229276D01*
X98376Y-229203D01*
X98504Y-229149D01*
X98613Y-229112D01*
X98686Y-229076D01*
X98704D01*
X99087Y-228912D01*
X99251Y-228839D01*
X99397Y-228784D01*
X99542Y-228729D01*
X99633Y-228693D01*
X99706Y-228657D01*
X99725D01*
X100089Y-228511D01*
X100235Y-228438D01*
X100362Y-228365D01*
X100490Y-228310D01*
X100563Y-228256D01*
X100617Y-228238D01*
X100636Y-228219D01*
X100891Y-228019D01*
X101091Y-227837D01*
X101164Y-227764D01*
X101218Y-227709D01*
X101237Y-227673D01*
X101255Y-227654D01*
X101328Y-227527D01*
X101383Y-227399D01*
X101455Y-227163D01*
X101474Y-227053D01*
X101492Y-226980D01*
Y-226926D01*
Y-226907D01*
X101474Y-226652D01*
X101401Y-226434D01*
X101310Y-226233D01*
X101200Y-226069D01*
X101091Y-225942D01*
X101000Y-225851D01*
X100927Y-225796D01*
X100909Y-225778D01*
X100654Y-225632D01*
X100380Y-225523D01*
X100071Y-225450D01*
X99761Y-225395D01*
X99488Y-225359D01*
X99269Y-225341D01*
X99068D01*
X98631Y-225359D01*
X98413Y-225377D01*
X98230Y-225395D01*
X98066Y-225413D01*
X97957Y-225432D01*
X97866Y-225450D01*
X97848D01*
X97374Y-225523D01*
X97155Y-225577D01*
X96973Y-225614D01*
X96809Y-225650D01*
X96682Y-225668D01*
X96609Y-225705D01*
X96572D01*
Y-224393D01*
X96773Y-224357D01*
X96973Y-224320D01*
X97046Y-224302D01*
X97119Y-224284D01*
X97174D01*
X97411Y-224247D01*
X97611Y-224211D01*
X97684D01*
X97757Y-224193D01*
X97811D01*
X98048Y-224156D01*
X98249Y-224138D01*
X98340Y-224120D01*
X98449D01*
X98668Y-224101D01*
X98850Y-224083D01*
X99032D01*
X99415Y-224101D01*
D02*
G37*
G36*
X62483Y-226598D02*
X62811Y-226616D01*
X63084Y-226652D01*
X63321Y-226689D01*
X63521Y-226743D01*
X63649Y-226780D01*
X63740Y-226798D01*
X63776Y-226816D01*
X64013Y-226907D01*
X64214Y-227017D01*
X64396Y-227108D01*
X64542Y-227199D01*
X64651Y-227290D01*
X64742Y-227363D01*
X64797Y-227399D01*
X64815Y-227418D01*
X64943Y-227545D01*
X65070Y-227691D01*
X65161Y-227818D01*
X65234Y-227928D01*
X65289Y-228037D01*
X65325Y-228110D01*
X65361Y-228165D01*
Y-228183D01*
X65453Y-228474D01*
X65471Y-228602D01*
X65489Y-228711D01*
X65507Y-228802D01*
Y-228875D01*
Y-228912D01*
Y-228930D01*
Y-229112D01*
X65471Y-229294D01*
X65453Y-229458D01*
X65416Y-229586D01*
X65380Y-229695D01*
X65361Y-229768D01*
X65325Y-229823D01*
Y-229841D01*
X65161Y-230114D01*
X64979Y-230315D01*
X64906Y-230406D01*
X64833Y-230460D01*
X64797Y-230497D01*
X64779Y-230515D01*
X64505Y-230715D01*
X64232Y-230861D01*
X64123Y-230916D01*
X64031Y-230971D01*
X63977Y-230989D01*
X63959Y-231007D01*
X63594Y-231153D01*
X63430Y-231207D01*
X63266Y-231262D01*
X63139Y-231317D01*
X63029Y-231335D01*
X62957Y-231371D01*
X62938D01*
X62665Y-231444D01*
X62446Y-231517D01*
X62246Y-231590D01*
X62082Y-231645D01*
X61936Y-231699D01*
X61845Y-231736D01*
X61790Y-231772D01*
X61772D01*
X61626Y-231827D01*
X61481Y-231900D01*
X61371Y-231954D01*
X61280Y-231991D01*
X61226Y-232045D01*
X61171Y-232064D01*
X61134Y-232100D01*
X60989Y-232228D01*
X60898Y-232337D01*
X60861Y-232410D01*
X60843Y-232446D01*
X60788Y-232574D01*
X60770Y-232701D01*
X60752Y-232792D01*
Y-232811D01*
Y-232829D01*
X60770Y-233011D01*
X60825Y-233175D01*
X60916Y-233321D01*
X61007Y-233430D01*
X61098Y-233521D01*
X61189Y-233576D01*
X61244Y-233612D01*
X61262Y-233631D01*
X61462Y-233722D01*
X61699Y-233795D01*
X61954Y-233831D01*
X62209Y-233868D01*
X62428Y-233886D01*
X62610Y-233904D01*
X62774D01*
X63303Y-233886D01*
X63539Y-233868D01*
X63758Y-233849D01*
X63940D01*
X64068Y-233831D01*
X64159Y-233813D01*
X64196D01*
X64724Y-233722D01*
X64961Y-233667D01*
X65179Y-233612D01*
X65361Y-233558D01*
X65489Y-233521D01*
X65580Y-233485D01*
X65617D01*
Y-234797D01*
X65125Y-234906D01*
X64906Y-234942D01*
X64687Y-234979D01*
X64523Y-234997D01*
X64378Y-235015D01*
X64305Y-235033D01*
X64268D01*
X63722Y-235070D01*
X63467Y-235088D01*
X63230D01*
X63029Y-235106D01*
X62720D01*
X62428Y-235088D01*
X62191Y-235070D01*
X62082Y-235052D01*
X62009D01*
X61954Y-235033D01*
X61936D01*
X61645Y-234979D01*
X61499Y-234961D01*
X61390Y-234924D01*
X61299Y-234906D01*
X61207Y-234888D01*
X61171Y-234870D01*
X61153D01*
X60879Y-234778D01*
X60661Y-234687D01*
X60570Y-234633D01*
X60497Y-234614D01*
X60460Y-234578D01*
X60442D01*
X60205Y-234414D01*
X60005Y-234268D01*
X59932Y-234214D01*
X59877Y-234159D01*
X59859Y-234141D01*
X59841Y-234122D01*
X59677Y-233904D01*
X59549Y-233703D01*
X59495Y-233631D01*
X59458Y-233558D01*
X59440Y-233521D01*
Y-233503D01*
X59349Y-233230D01*
X59294Y-232975D01*
X59276Y-232884D01*
Y-232792D01*
Y-232738D01*
Y-232720D01*
X59294Y-232392D01*
X59312Y-232264D01*
X59349Y-232137D01*
X59367Y-232045D01*
X59404Y-231954D01*
X59422Y-231918D01*
Y-231900D01*
X59477Y-231772D01*
X59549Y-231645D01*
X59695Y-231444D01*
X59768Y-231371D01*
X59823Y-231317D01*
X59859Y-231280D01*
X59877Y-231262D01*
X60132Y-231062D01*
X60387Y-230879D01*
X60515Y-230825D01*
X60588Y-230770D01*
X60661Y-230752D01*
X60679Y-230734D01*
X60879Y-230643D01*
X61080Y-230570D01*
X61280Y-230479D01*
X61481Y-230424D01*
X61663Y-230351D01*
X61790Y-230315D01*
X61882Y-230296D01*
X61918Y-230278D01*
X62155Y-230205D01*
X62355Y-230151D01*
X62537Y-230096D01*
X62701Y-230041D01*
X62829Y-229987D01*
X62920Y-229968D01*
X62975Y-229932D01*
X62993D01*
X63139Y-229859D01*
X63266Y-229804D01*
X63376Y-229750D01*
X63485Y-229695D01*
X63558Y-229640D01*
X63612Y-229622D01*
X63631Y-229586D01*
X63649D01*
X63795Y-229458D01*
X63904Y-229349D01*
X63959Y-229276D01*
X63977Y-229240D01*
X64013Y-229094D01*
X64031Y-228966D01*
X64050Y-228875D01*
Y-228857D01*
Y-228839D01*
X64031Y-228675D01*
X63995Y-228547D01*
X63977Y-228456D01*
X63959Y-228420D01*
X63867Y-228292D01*
X63776Y-228183D01*
X63685Y-228110D01*
X63649Y-228092D01*
X63448Y-228001D01*
X63266Y-227909D01*
X63175Y-227891D01*
X63102Y-227873D01*
X63066Y-227855D01*
X63048D01*
X62756Y-227800D01*
X62464Y-227782D01*
X62337Y-227764D01*
X62155D01*
X61790Y-227782D01*
X61626Y-227800D01*
X61462D01*
X61317Y-227818D01*
X61207Y-227837D01*
X61116Y-227855D01*
X61098D01*
X60643Y-227928D01*
X60424Y-227964D01*
X60242Y-228001D01*
X60059Y-228037D01*
X59932Y-228055D01*
X59859Y-228092D01*
X59823D01*
Y-226816D01*
X60059Y-226780D01*
X60296Y-226725D01*
X60497Y-226707D01*
X60679Y-226671D01*
X60843Y-226652D01*
X60952D01*
X61043Y-226634D01*
X61062D01*
X61481Y-226598D01*
X61663D01*
X61809Y-226579D01*
X62137D01*
X62483Y-226598D01*
D02*
G37*
%LPC*%
G36*
X362882Y14030D02*
X362598Y11056D01*
X362620D01*
X362664Y11034D01*
X362751D01*
X362839Y11012D01*
X363101Y10925D01*
X363429Y10815D01*
X363801Y10684D01*
X364173Y10487D01*
X364501Y10269D01*
X364807Y9984D01*
X364829Y9941D01*
X364916Y9831D01*
X365026Y9656D01*
X365157Y9394D01*
X365288Y9066D01*
X365398Y8694D01*
X365485Y8257D01*
X365507Y7754D01*
Y7513D01*
X365463Y7251D01*
X365419Y6923D01*
X365354Y6573D01*
X365245Y6201D01*
X365091Y5851D01*
X364895Y5545D01*
X364873Y5501D01*
X364785Y5414D01*
X364654Y5304D01*
X364479Y5151D01*
X364260Y5020D01*
X363998Y4889D01*
X363735Y4801D01*
X363429Y4779D01*
X363407D01*
X363342D01*
X363232Y4801D01*
X363101Y4823D01*
X362970Y4867D01*
X362817Y4911D01*
X362664Y4998D01*
X362511Y5107D01*
X362489Y5129D01*
X362445Y5173D01*
X362380Y5239D01*
X362292Y5348D01*
X362183Y5501D01*
X362073Y5698D01*
X361964Y5917D01*
X361855Y6201D01*
Y6223D01*
X361811Y6310D01*
X361767Y6463D01*
X361723Y6573D01*
X361701Y6704D01*
X361658Y6857D01*
X361592Y7032D01*
X361548Y7229D01*
X361483Y7447D01*
X361417Y7710D01*
X361352Y7994D01*
X361264Y8300D01*
X361177Y8650D01*
Y8672D01*
X361155Y8760D01*
X361111Y8891D01*
X361067Y9044D01*
X361002Y9241D01*
X360936Y9481D01*
X360849Y9722D01*
X360761Y10006D01*
X360542Y10575D01*
X360280Y11122D01*
X360149Y11406D01*
X359996Y11647D01*
X359843Y11887D01*
X359689Y12084D01*
X359668Y12106D01*
X359624Y12150D01*
X359558Y12215D01*
X359471Y12303D01*
X359340Y12412D01*
X359187Y12521D01*
X359033Y12653D01*
X358837Y12762D01*
X358377Y13024D01*
X357852Y13243D01*
X357568Y13330D01*
X357284Y13396D01*
X356956Y13440D01*
X356628Y13462D01*
X356606D01*
X356584D01*
X356518D01*
X356431D01*
X356212Y13418D01*
X355928Y13374D01*
X355600Y13309D01*
X355228Y13199D01*
X354834Y13046D01*
X354463Y12828D01*
X354441D01*
X354419Y12806D01*
X354288Y12696D01*
X354113Y12565D01*
X353894Y12346D01*
X353653Y12084D01*
X353391Y11756D01*
X353150Y11384D01*
X352932Y10947D01*
Y10925D01*
X352910Y10881D01*
X352888Y10815D01*
X352844Y10728D01*
X352800Y10597D01*
X352757Y10466D01*
X352713Y10291D01*
X352647Y10094D01*
X352560Y9656D01*
X352472Y9153D01*
X352407Y8585D01*
X352385Y7950D01*
Y7688D01*
X352407Y7491D01*
X352429Y7251D01*
X352450Y6966D01*
X352494Y6682D01*
X352538Y6354D01*
X352691Y5654D01*
X352800Y5304D01*
X352910Y4954D01*
X353063Y4604D01*
X353238Y4276D01*
X353435Y3970D01*
X353653Y3686D01*
X353675Y3664D01*
X353719Y3620D01*
X353785Y3555D01*
X353872Y3467D01*
X354003Y3358D01*
X354156Y3227D01*
X354331Y3095D01*
X354528Y2942D01*
X354769Y2811D01*
X355009Y2680D01*
X355294Y2549D01*
X355600Y2439D01*
X355906Y2330D01*
X356256Y2242D01*
X356606Y2177D01*
X356999Y2155D01*
X357109Y5217D01*
X357087D01*
X357065D01*
X356912Y5260D01*
X356715Y5304D01*
X356475Y5392D01*
X356190Y5501D01*
X355928Y5654D01*
X355665Y5851D01*
X355447Y6070D01*
X355425Y6092D01*
X355359Y6179D01*
X355272Y6332D01*
X355184Y6551D01*
X355097Y6813D01*
X355009Y7141D01*
X354944Y7535D01*
X354922Y7994D01*
Y8213D01*
X354944Y8454D01*
X354987Y8738D01*
X355053Y9066D01*
X355162Y9416D01*
X355294Y9744D01*
X355490Y10050D01*
X355512Y10072D01*
X355556Y10116D01*
X355622Y10203D01*
X355731Y10291D01*
X355862Y10378D01*
X356037Y10466D01*
X356212Y10509D01*
X356431Y10531D01*
X356453D01*
X356518D01*
X356628Y10509D01*
X356737Y10466D01*
X356890Y10422D01*
X357043Y10356D01*
X357196Y10247D01*
X357349Y10094D01*
X357371Y10072D01*
X357437Y9963D01*
X357481Y9897D01*
X357524Y9788D01*
X357590Y9678D01*
X357656Y9525D01*
X357721Y9350D01*
X357809Y9153D01*
X357896Y8913D01*
X357984Y8672D01*
X358071Y8366D01*
X358159Y8038D01*
X358246Y7688D01*
X358355Y7294D01*
Y7273D01*
X358377Y7185D01*
X358399Y7076D01*
X358443Y6923D01*
X358487Y6748D01*
X358552Y6529D01*
X358618Y6288D01*
X358683Y6048D01*
X358858Y5523D01*
X359033Y4976D01*
X359230Y4451D01*
X359340Y4233D01*
X359449Y4014D01*
Y3992D01*
X359471Y3970D01*
X359558Y3839D01*
X359689Y3642D01*
X359864Y3402D01*
X360083Y3139D01*
X360346Y2855D01*
X360652Y2571D01*
X361002Y2330D01*
X361045Y2308D01*
X361177Y2242D01*
X361373Y2133D01*
X361658Y2024D01*
X362008Y1914D01*
X362423Y1805D01*
X362882Y1740D01*
X363407Y1718D01*
X352385D01*
X368088D01*
Y8082D01*
X368066Y8279D01*
X368044Y8519D01*
X368022Y8782D01*
X367978Y9088D01*
X367913Y9416D01*
X367759Y10137D01*
X367650Y10509D01*
X367541Y10859D01*
X367388Y11231D01*
X367213Y11581D01*
X367016Y11909D01*
X366775Y12215D01*
X366754Y12237D01*
X366710Y12281D01*
X366644Y12368D01*
X366535Y12456D01*
X366382Y12587D01*
X366207Y12718D01*
X366010Y12871D01*
X365791Y13024D01*
X365529Y13178D01*
X365245Y13330D01*
X364916Y13484D01*
X364566Y13637D01*
X364195Y13746D01*
X363779Y13877D01*
X363342Y13965D01*
X362882Y14030D01*
D02*
G37*
%LPD*%
G36*
X368088Y1718D02*
X363626D01*
X363735Y1740D01*
X363889Y1761D01*
X364195Y1805D01*
X364588Y1892D01*
X365004Y2024D01*
X365419Y2221D01*
X365857Y2461D01*
X365879D01*
X365901Y2505D01*
X366032Y2592D01*
X366250Y2767D01*
X366491Y2986D01*
X366775Y3270D01*
X367038Y3642D01*
X367300Y4036D01*
X367541Y4517D01*
Y4539D01*
X367563Y4583D01*
X367584Y4648D01*
X367628Y4758D01*
X367672Y4889D01*
X367716Y5042D01*
X367759Y5217D01*
X367803Y5414D01*
X367869Y5654D01*
X367913Y5895D01*
X368000Y6463D01*
X368066Y7098D01*
X368088Y7797D01*
Y1718D01*
D02*
G37*
%LPC*%
G36*
X367803Y-25701D02*
X352669D01*
Y-31277D01*
X352691Y-31518D01*
Y-32087D01*
X352735Y-32699D01*
X352779Y-33311D01*
X352800Y-33574D01*
X352822Y-33836D01*
X352866Y-34055D01*
X352910Y-34230D01*
Y-34252D01*
X352932Y-34295D01*
X352954Y-34361D01*
X352975Y-34449D01*
X353085Y-34689D01*
X353216Y-34995D01*
X353413Y-35323D01*
X353675Y-35695D01*
X354003Y-36045D01*
X354397Y-36395D01*
X354419D01*
X354441Y-36439D01*
X354506Y-36483D01*
X354594Y-36526D01*
X354725Y-36614D01*
X354856Y-36679D01*
X355009Y-36767D01*
X355184Y-36854D01*
X355622Y-37007D01*
X356103Y-37160D01*
X356693Y-37248D01*
X357328Y-37292D01*
X352669D01*
X357568D01*
X357677Y-37270D01*
X357831D01*
X358137Y-37226D01*
X358508Y-37160D01*
X358924Y-37073D01*
X359318Y-36942D01*
X359689Y-36767D01*
X359733Y-36745D01*
X359843Y-36679D01*
X360017Y-36570D01*
X360236Y-36417D01*
X360455Y-36242D01*
X360717Y-36001D01*
X360958Y-35761D01*
X361177Y-35476D01*
X361198Y-35433D01*
X361264Y-35345D01*
X361352Y-35192D01*
X361461Y-34995D01*
X361592Y-34755D01*
X361701Y-34492D01*
X361811Y-34208D01*
X361898Y-33902D01*
Y-33858D01*
X361920Y-33792D01*
Y-33705D01*
X361942Y-33596D01*
X361964Y-33443D01*
X361986Y-33289D01*
Y-33093D01*
X362008Y-32896D01*
X362030Y-32655D01*
X362051Y-32393D01*
X362073Y-32108D01*
Y-31802D01*
X362095Y-31474D01*
Y-28762D01*
X367803D01*
Y-37292D01*
D01*
D01*
Y-25701D01*
D02*
G37*
%LPD*%
G36*
X359536Y-30862D02*
X359514Y-31015D01*
Y-31409D01*
X359493Y-31802D01*
X359449Y-32196D01*
X359383Y-32546D01*
X359361Y-32699D01*
X359318Y-32830D01*
X359296Y-32852D01*
X359274Y-32939D01*
X359208Y-33049D01*
X359143Y-33180D01*
X359033Y-33333D01*
X358902Y-33486D01*
X358749Y-33661D01*
X358574Y-33792D01*
X358552Y-33814D01*
X358487Y-33858D01*
X358377Y-33902D01*
X358224Y-33967D01*
X358049Y-34033D01*
X357852Y-34099D01*
X357634Y-34121D01*
X357393Y-34142D01*
X357349D01*
X357262D01*
X357109Y-34121D01*
X356912Y-34077D01*
X356693Y-34011D01*
X356453Y-33924D01*
X356234Y-33814D01*
X356015Y-33639D01*
X355993Y-33617D01*
X355928Y-33552D01*
X355840Y-33443D01*
X355731Y-33311D01*
X355600Y-33136D01*
X355490Y-32918D01*
X355403Y-32677D01*
X355337Y-32415D01*
Y-32393D01*
X355315Y-32305D01*
X355294Y-32152D01*
X355272Y-31934D01*
Y-31649D01*
X355250Y-31452D01*
Y-31255D01*
X355228Y-31037D01*
Y-28762D01*
X359536D01*
Y-30862D01*
D02*
G37*
%LPC*%
G36*
X34934Y-227727D02*
X34570D01*
X34387Y-227764D01*
X34224Y-227782D01*
X34096Y-227818D01*
X33987Y-227855D01*
X33896Y-227891D01*
X33841Y-227909D01*
X33823Y-227928D01*
X33531Y-228092D01*
X33422Y-228165D01*
X33312Y-228256D01*
X33240Y-228329D01*
X33185Y-228383D01*
X33149Y-228420D01*
X33130Y-228438D01*
X32948Y-228693D01*
X32821Y-228948D01*
X32784Y-229057D01*
X32748Y-229149D01*
X32730Y-229203D01*
Y-229221D01*
X32638Y-229568D01*
X32620Y-229731D01*
X32602Y-229877D01*
Y-230005D01*
Y-230114D01*
Y-230187D01*
Y-230205D01*
X36938D01*
X36884Y-229823D01*
X36865Y-229640D01*
X36829Y-229495D01*
X36793Y-229367D01*
X36756Y-229276D01*
X36738Y-229221D01*
Y-229203D01*
X36592Y-228893D01*
X36519Y-228748D01*
X36446Y-228638D01*
X36373Y-228547D01*
X36319Y-228474D01*
X36301Y-228438D01*
X36282Y-228420D01*
X36064Y-228201D01*
X35845Y-228037D01*
X35754Y-227982D01*
X35681Y-227946D01*
X35645Y-227909D01*
X35627D01*
X35317Y-227800D01*
X35171Y-227764D01*
X35043Y-227746D01*
X34934Y-227727D01*
D02*
G37*
G36*
X25697D02*
X25332D01*
X25150Y-227764D01*
X24986Y-227782D01*
X24859Y-227818D01*
X24749Y-227855D01*
X24658Y-227891D01*
X24603Y-227909D01*
X24585Y-227928D01*
X24294Y-228092D01*
X24184Y-228165D01*
X24075Y-228256D01*
X24002Y-228329D01*
X23947Y-228383D01*
X23911Y-228420D01*
X23893Y-228438D01*
X23711Y-228693D01*
X23583Y-228948D01*
X23547Y-229057D01*
X23510Y-229149D01*
X23492Y-229203D01*
Y-229221D01*
X23401Y-229568D01*
X23383Y-229731D01*
X23364Y-229877D01*
Y-230005D01*
Y-230114D01*
Y-230187D01*
Y-230205D01*
X27701Y-230205D01*
X27646Y-229823D01*
X27628Y-229640D01*
X27591Y-229495D01*
X27555Y-229367D01*
X27519Y-229276D01*
X27500Y-229221D01*
Y-229203D01*
X27355Y-228893D01*
X27282Y-228748D01*
X27209Y-228638D01*
X27136Y-228547D01*
X27081Y-228474D01*
X27063Y-228438D01*
X27045Y-228420D01*
X26826Y-228201D01*
X26608Y-228037D01*
X26517Y-227982D01*
X26444Y-227946D01*
X26407Y-227909D01*
X26389D01*
X26079Y-227800D01*
X25933Y-227764D01*
X25806Y-227746D01*
X25697Y-227727D01*
D02*
G37*
G36*
X165972Y-225486D02*
X164260D01*
X164059Y-225504D01*
X163877Y-225523D01*
X163731Y-225541D01*
X163604Y-225577D01*
X163513Y-225596D01*
X163458Y-225614D01*
X163440D01*
X163294Y-225668D01*
X163166Y-225723D01*
X163039Y-225778D01*
X162948Y-225832D01*
X162875Y-225887D01*
X162820Y-225923D01*
X162802Y-225942D01*
X162784Y-225960D01*
X162620Y-226124D01*
X162511Y-226288D01*
X162474Y-226343D01*
X162456Y-226397D01*
X162438Y-226434D01*
Y-226452D01*
X162365Y-226671D01*
X162347Y-226853D01*
X162328Y-226944D01*
Y-226998D01*
Y-227035D01*
Y-227053D01*
X162347Y-227363D01*
X162383Y-227509D01*
X162401Y-227618D01*
X162438Y-227727D01*
X162474Y-227800D01*
X162492Y-227837D01*
Y-227855D01*
X162638Y-228074D01*
X162784Y-228256D01*
X162893Y-228365D01*
X162930Y-228383D01*
X162948Y-228401D01*
X163185Y-228547D01*
X163403Y-228638D01*
X163495Y-228675D01*
X163567Y-228711D01*
X163622Y-228729D01*
X163640D01*
X163950Y-228784D01*
X164096Y-228802D01*
X164242D01*
X164351Y-228820D01*
X165972D01*
Y-225486D01*
D02*
G37*
G36*
Y-230041D02*
X164278D01*
X164077Y-230060D01*
X163895Y-230078D01*
X163731Y-230096D01*
X163604Y-230132D01*
X163513Y-230151D01*
X163440Y-230169D01*
X163422D01*
X163094Y-230278D01*
X162966Y-230333D01*
X162838Y-230406D01*
X162747Y-230442D01*
X162674Y-230497D01*
X162638Y-230515D01*
X162620Y-230533D01*
X162401Y-230715D01*
X162256Y-230879D01*
X162201Y-230970D01*
X162164Y-231025D01*
X162128Y-231062D01*
Y-231080D01*
X162019Y-231335D01*
X161964Y-231572D01*
X161946Y-231663D01*
Y-231736D01*
Y-231790D01*
Y-231809D01*
X161964Y-232155D01*
X162037Y-232446D01*
X162146Y-232701D01*
X162256Y-232902D01*
X162365Y-233066D01*
X162474Y-233175D01*
X162547Y-233248D01*
X162565Y-233266D01*
X162820Y-233412D01*
X163112Y-233521D01*
X163422Y-233612D01*
X163731Y-233667D01*
X164005Y-233703D01*
X164132D01*
X164242Y-233722D01*
X165972D01*
Y-230041D01*
D02*
G37*
G36*
X154986Y-227800D02*
X154676D01*
X154494Y-227837D01*
X154330Y-227855D01*
X154184Y-227891D01*
X154057Y-227928D01*
X153965Y-227964D01*
X153911Y-227982D01*
X153893Y-228001D01*
X153583Y-228183D01*
X153455Y-228274D01*
X153346Y-228365D01*
X153255Y-228456D01*
X153182Y-228529D01*
X153146Y-228565D01*
X153127Y-228584D01*
X153018Y-228729D01*
X152927Y-228893D01*
X152781Y-229185D01*
X152726Y-229331D01*
X152690Y-229440D01*
X152654Y-229513D01*
Y-229531D01*
X152599Y-229750D01*
X152544Y-229968D01*
X152508Y-230205D01*
X152490Y-230406D01*
X152471Y-230588D01*
Y-230734D01*
Y-230825D01*
Y-230861D01*
X152490Y-231298D01*
X152508Y-231499D01*
X152544Y-231663D01*
X152562Y-231809D01*
X152599Y-231936D01*
X152617Y-232009D01*
Y-232027D01*
X152672Y-232228D01*
X152745Y-232410D01*
X152799Y-232574D01*
X152872Y-232720D01*
X152945Y-232829D01*
X152981Y-232920D01*
X153018Y-232975D01*
X153036Y-232993D01*
X153273Y-233266D01*
X153401Y-233394D01*
X153510Y-233485D01*
X153619Y-233558D01*
X153710Y-233612D01*
X153765Y-233649D01*
X153783Y-233667D01*
X153965Y-233740D01*
X154148Y-233794D01*
X154330Y-233849D01*
X154494Y-233867D01*
X154658Y-233886D01*
X154767Y-233904D01*
X155077D01*
X155277Y-233867D01*
X155441Y-233849D01*
X155605Y-233813D01*
X155714Y-233776D01*
X155824Y-233758D01*
X155878Y-233722D01*
X155897D01*
X156188Y-233540D01*
X156316Y-233448D01*
X156425Y-233357D01*
X156516Y-233284D01*
X156589Y-233211D01*
X156625Y-233175D01*
X156644Y-233157D01*
X156844Y-232847D01*
X156990Y-232537D01*
X157045Y-232410D01*
X157081Y-232300D01*
X157117Y-232228D01*
Y-232209D01*
X157209Y-231754D01*
X157245Y-231517D01*
X157263Y-231317D01*
Y-231134D01*
X157281Y-230989D01*
Y-230898D01*
Y-230861D01*
X157263Y-230424D01*
X157245Y-230223D01*
X157209Y-230041D01*
X157190Y-229895D01*
X157172Y-229786D01*
X157154Y-229713D01*
Y-229695D01*
X157099Y-229495D01*
X157026Y-229312D01*
X156972Y-229149D01*
X156899Y-229003D01*
X156826Y-228893D01*
X156790Y-228802D01*
X156753Y-228748D01*
X156735Y-228729D01*
X156498Y-228438D01*
X156370Y-228328D01*
X156243Y-228237D01*
X156152Y-228165D01*
X156061Y-228110D01*
X156006Y-228074D01*
X155988Y-228055D01*
X155806Y-227964D01*
X155623Y-227909D01*
X155441Y-227855D01*
X155259Y-227837D01*
X155113Y-227818D01*
X154986Y-227800D01*
D02*
G37*
G36*
X127273Y-227800D02*
X126963D01*
X126781Y-227837D01*
X126617Y-227855D01*
X126471Y-227891D01*
X126344Y-227928D01*
X126253Y-227964D01*
X126198Y-227982D01*
X126180Y-228001D01*
X125870Y-228183D01*
X125743Y-228274D01*
X125633Y-228365D01*
X125542Y-228456D01*
X125469Y-228529D01*
X125433Y-228565D01*
X125415Y-228584D01*
X125305Y-228729D01*
X125214Y-228893D01*
X125068Y-229185D01*
X125014Y-229331D01*
X124977Y-229440D01*
X124941Y-229513D01*
Y-229531D01*
X124886Y-229750D01*
X124832Y-229968D01*
X124795Y-230205D01*
X124777Y-230406D01*
X124759Y-230588D01*
Y-230734D01*
Y-230825D01*
Y-230861D01*
X124777Y-231298D01*
X124795Y-231499D01*
X124832Y-231663D01*
X124850Y-231809D01*
X124886Y-231936D01*
X124905Y-232009D01*
Y-232027D01*
X124959Y-232228D01*
X125032Y-232410D01*
X125087Y-232574D01*
X125160Y-232720D01*
X125232Y-232829D01*
X125269Y-232920D01*
X125305Y-232975D01*
X125324Y-232993D01*
X125560Y-233266D01*
X125688Y-233394D01*
X125797Y-233485D01*
X125907Y-233558D01*
X125998Y-233612D01*
X126052Y-233649D01*
X126071Y-233667D01*
X126253Y-233740D01*
X126435Y-233795D01*
X126617Y-233849D01*
X126781Y-233867D01*
X126945Y-233886D01*
X127054Y-233904D01*
X127364D01*
X127565Y-233867D01*
X127729Y-233849D01*
X127893Y-233813D01*
X128002Y-233776D01*
X128111Y-233758D01*
X128166Y-233722D01*
X128184D01*
X128476Y-233540D01*
X128603Y-233448D01*
X128712Y-233357D01*
X128804Y-233284D01*
X128876Y-233211D01*
X128913Y-233175D01*
X128931Y-233157D01*
X129131Y-232847D01*
X129277Y-232537D01*
X129332Y-232410D01*
X129368Y-232300D01*
X129405Y-232228D01*
Y-232209D01*
X129496Y-231754D01*
X129532Y-231517D01*
X129551Y-231317D01*
Y-231134D01*
X129569Y-230989D01*
Y-230898D01*
Y-230861D01*
X129551Y-230424D01*
X129532Y-230223D01*
X129496Y-230041D01*
X129478Y-229895D01*
X129460Y-229786D01*
X129441Y-229713D01*
Y-229695D01*
X129387Y-229495D01*
X129314Y-229312D01*
X129259Y-229149D01*
X129186Y-229003D01*
X129113Y-228893D01*
X129077Y-228802D01*
X129040Y-228748D01*
X129022Y-228729D01*
X128785Y-228438D01*
X128658Y-228329D01*
X128530Y-228238D01*
X128439Y-228165D01*
X128348Y-228110D01*
X128293Y-228074D01*
X128275Y-228055D01*
X128093Y-227964D01*
X127911Y-227909D01*
X127729Y-227855D01*
X127546Y-227837D01*
X127401Y-227818D01*
X127273Y-227800D01*
D02*
G37*
%LPD*%
D10*
X-33372Y-19685D02*
G03*
X-33372Y-19685I-400J0D01*
G01*
Y3937D02*
G03*
X-33372Y3937I-400J0D01*
G01*
Y27559D02*
G03*
X-33372Y27559I-400J0D01*
G01*
D11*
X69025Y46968D02*
X71649D01*
X69025Y49591D01*
Y50247D01*
X69681Y50903D01*
X70993D01*
X71649Y50247D01*
X65089D02*
X65746Y50903D01*
X67057D01*
X67713Y50247D01*
Y49591D01*
X67057Y48935D01*
X65746D01*
X65089Y48280D01*
Y47624D01*
X65746Y46968D01*
X67057D01*
X67713Y47624D01*
X63778Y49591D02*
X63122D01*
Y48935D01*
X63778D01*
Y49591D01*
Y47624D02*
X63122D01*
Y46968D01*
X63778D01*
Y47624D01*
X60498Y48935D02*
X57874D01*
X59186Y50247D02*
Y47624D01*
X71649Y43635D02*
X70993Y44291D01*
X69681D01*
X69025Y43635D01*
Y42979D01*
X69681Y42323D01*
X70337D01*
X69681D01*
X69025Y41667D01*
Y41011D01*
X69681Y40355D01*
X70993D01*
X71649Y41011D01*
X65089Y43635D02*
X65746Y44291D01*
X67057D01*
X67713Y43635D01*
Y42979D01*
X67057Y42323D01*
X65746D01*
X65089Y41667D01*
Y41011D01*
X65746Y40355D01*
X67057D01*
X67713Y41011D01*
X63778Y42979D02*
X63122D01*
Y42323D01*
X63778D01*
Y42979D01*
Y41011D02*
X63122D01*
Y40355D01*
X63778D01*
Y41011D01*
X60498Y44291D02*
X57874Y40355D01*
Y44291D02*
X60498Y40355D01*
X69681Y33742D02*
Y37678D01*
X71649Y35710D01*
X69025D01*
X65089Y37022D02*
X65746Y37678D01*
X67057D01*
X67713Y37022D01*
Y36366D01*
X67057Y35710D01*
X65746D01*
X65089Y35054D01*
Y34398D01*
X65746Y33742D01*
X67057D01*
X67713Y34398D01*
X63778Y36366D02*
X63122D01*
Y35710D01*
X63778D01*
Y36366D01*
Y34398D02*
X63122D01*
Y33742D01*
X63778D01*
Y34398D01*
X60498Y35710D02*
X57874D01*
X222569Y-38662D02*
X225192D01*
X222569Y-36039D01*
Y-35383D01*
X223224Y-34727D01*
X224536D01*
X225192Y-35383D01*
X218633D02*
X219289Y-34727D01*
X220601D01*
X221257Y-35383D01*
Y-36039D01*
X220601Y-36694D01*
X219289D01*
X218633Y-37350D01*
Y-38006D01*
X219289Y-38662D01*
X220601D01*
X221257Y-38006D01*
X217321Y-36039D02*
X216665D01*
Y-36694D01*
X217321D01*
Y-36039D01*
Y-38006D02*
X216665D01*
Y-38662D01*
X217321D01*
Y-38006D01*
X214041Y-36694D02*
X211417D01*
X212729Y-35383D02*
Y-38006D01*
X225192Y-41995D02*
X224536Y-41339D01*
X223224D01*
X222569Y-41995D01*
Y-42651D01*
X223224Y-43307D01*
X223881D01*
X223224D01*
X222569Y-43963D01*
Y-44619D01*
X223224Y-45275D01*
X224536D01*
X225192Y-44619D01*
X218633Y-41995D02*
X219289Y-41339D01*
X220601D01*
X221257Y-41995D01*
Y-42651D01*
X220601Y-43307D01*
X219289D01*
X218633Y-43963D01*
Y-44619D01*
X219289Y-45275D01*
X220601D01*
X221257Y-44619D01*
X217321Y-42651D02*
X216665D01*
Y-43307D01*
X217321D01*
Y-42651D01*
Y-44619D02*
X216665D01*
Y-45275D01*
X217321D01*
Y-44619D01*
X214041Y-43307D02*
X211417D01*
X223224Y-51888D02*
Y-47952D01*
X225192Y-49920D01*
X222569D01*
X218633Y-48608D02*
X219289Y-47952D01*
X220601D01*
X221257Y-48608D01*
Y-49264D01*
X220601Y-49920D01*
X219289D01*
X218633Y-50576D01*
Y-51232D01*
X219289Y-51888D01*
X220601D01*
X221257Y-51232D01*
X217321Y-49264D02*
X216665D01*
Y-49920D01*
X217321D01*
Y-49264D01*
Y-51232D02*
X216665D01*
Y-51888D01*
X217321D01*
Y-51232D01*
X214041Y-49920D02*
X211417D01*
X69025Y-39647D02*
X71649D01*
X69025Y-37023D01*
Y-36367D01*
X69681Y-35711D01*
X70993D01*
X71649Y-36367D01*
X65089D02*
X65746Y-35711D01*
X67057D01*
X67713Y-36367D01*
Y-37023D01*
X67057Y-37679D01*
X65746D01*
X65089Y-38335D01*
Y-38991D01*
X65746Y-39647D01*
X67057D01*
X67713Y-38991D01*
X63778Y-37023D02*
X63122D01*
Y-37679D01*
X63778D01*
Y-37023D01*
Y-38991D02*
X63122D01*
Y-39647D01*
X63778D01*
Y-38991D01*
X60498Y-37679D02*
X57874D01*
X71649Y-42979D02*
X70993Y-42323D01*
X69681D01*
X69025Y-42979D01*
Y-43635D01*
X69681Y-44291D01*
X70337D01*
X69681D01*
X69025Y-44947D01*
Y-45603D01*
X69681Y-46259D01*
X70993D01*
X71649Y-45603D01*
X65089Y-42979D02*
X65746Y-42323D01*
X67057D01*
X67713Y-42979D01*
Y-43635D01*
X67057Y-44291D01*
X65746D01*
X65089Y-44947D01*
Y-45603D01*
X65746Y-46259D01*
X67057D01*
X67713Y-45603D01*
X63778Y-43635D02*
X63122D01*
Y-44291D01*
X63778D01*
Y-43635D01*
Y-45603D02*
X63122D01*
Y-46259D01*
X63778D01*
Y-45603D01*
X60498Y-44291D02*
X57874D01*
X59186Y-42979D02*
Y-45603D01*
X69681Y-52872D02*
Y-48936D01*
X71649Y-50904D01*
X69025D01*
X65089Y-49592D02*
X65746Y-48936D01*
X67057D01*
X67713Y-49592D01*
Y-50248D01*
X67057Y-50904D01*
X65746D01*
X65089Y-51560D01*
Y-52216D01*
X65746Y-52872D01*
X67057D01*
X67713Y-52216D01*
X63778Y-50248D02*
X63122D01*
Y-50904D01*
X63778D01*
Y-50248D01*
Y-52216D02*
X63122D01*
Y-52872D01*
X63778D01*
Y-52216D01*
X60498Y-50904D02*
X57874D01*
X59186Y-49592D02*
Y-52216D01*
X221983Y47952D02*
X224606D01*
X221983Y50576D01*
Y51232D01*
X222638Y51888D01*
X223950D01*
X224606Y51232D01*
X218047D02*
X218703Y51888D01*
X220015D01*
X220671Y51232D01*
Y50576D01*
X220015Y49920D01*
X218703D01*
X218047Y49264D01*
Y48608D01*
X218703Y47952D01*
X220015D01*
X220671Y48608D01*
X216735Y50576D02*
X216079D01*
Y49920D01*
X216735D01*
Y50576D01*
Y48608D02*
X216079D01*
Y47952D01*
X216735D01*
Y48608D01*
X213455Y49920D02*
X210831D01*
X224606Y44619D02*
X223950Y45275D01*
X222638D01*
X221983Y44619D01*
Y43963D01*
X222638Y43307D01*
X223294D01*
X222638D01*
X221983Y42651D01*
Y41995D01*
X222638Y41339D01*
X223950D01*
X224606Y41995D01*
X218047Y44619D02*
X218703Y45275D01*
X220015D01*
X220671Y44619D01*
Y43963D01*
X220015Y43307D01*
X218703D01*
X218047Y42651D01*
Y41995D01*
X218703Y41339D01*
X220015D01*
X220671Y41995D01*
X216735Y43963D02*
X216079D01*
Y43307D01*
X216735D01*
Y43963D01*
Y41995D02*
X216079D01*
Y41339D01*
X216735D01*
Y41995D01*
X213455Y45275D02*
X210831Y41339D01*
Y45275D02*
X213455Y41339D01*
X222638Y34727D02*
Y38662D01*
X224606Y36694D01*
X221983D01*
X218047Y38006D02*
X218703Y38662D01*
X220015D01*
X220671Y38006D01*
Y37350D01*
X220015Y36694D01*
X218703D01*
X218047Y36039D01*
Y35383D01*
X218703Y34727D01*
X220015D01*
X220671Y35383D01*
X216735Y37350D02*
X216079D01*
Y36694D01*
X216735D01*
Y37350D01*
Y35383D02*
X216079D01*
Y34727D01*
X216735D01*
Y35383D01*
X213455Y36694D02*
X210831D01*
X212143Y38006D02*
Y35383D01*
X339240Y20998D02*
X338584Y21654D01*
Y22966D01*
X339240Y23622D01*
X341864D01*
X342520Y22966D01*
Y21654D01*
X341864Y20998D01*
X342520Y19030D02*
Y17718D01*
X341864Y17063D01*
X340552D01*
X339896Y17718D01*
Y19030D01*
X340552Y19686D01*
X341864D01*
X342520Y19030D01*
Y15751D02*
X339896D01*
Y13783D01*
X340552Y13127D01*
X342520D01*
Y11159D02*
X339240D01*
X340552D01*
Y11815D01*
Y10503D01*
Y11159D01*
X339240D01*
X338584Y10503D01*
X342520Y8535D02*
Y7223D01*
Y7879D01*
X339896D01*
Y8535D01*
X343832Y3943D02*
Y3287D01*
X343176Y2631D01*
X339896D01*
Y4599D01*
X340552Y5255D01*
X341864D01*
X342520Y4599D01*
Y2631D01*
X339896Y1319D02*
X341864D01*
X342520Y664D01*
Y-1304D01*
X339896D01*
Y-2616D02*
X342520D01*
X341208D01*
X340552Y-3272D01*
X339896Y-3928D01*
Y-4584D01*
Y-7208D02*
Y-8520D01*
X340552Y-9176D01*
X342520D01*
Y-7208D01*
X341864Y-6552D01*
X341208Y-7208D01*
Y-9176D01*
X339240Y-11144D02*
X339896D01*
Y-10488D01*
Y-11800D01*
Y-11144D01*
X341864D01*
X342520Y-11800D01*
Y-13768D02*
Y-15079D01*
Y-14423D01*
X339896D01*
Y-13768D01*
X342520Y-17703D02*
Y-19015D01*
X341864Y-19671D01*
X340552D01*
X339896Y-19015D01*
Y-17703D01*
X340552Y-17047D01*
X341864D01*
X342520Y-17703D01*
Y-20983D02*
X339896D01*
Y-22951D01*
X340552Y-23607D01*
X342520D01*
X339896Y-24919D02*
Y-25575D01*
X340552D01*
Y-24919D01*
X339896D01*
X341864D02*
Y-25575D01*
X342520D01*
Y-24919D01*
X341864D01*
X397048Y157480D02*
X400984D01*
Y155512D01*
X400328Y154857D01*
X397705D01*
X397048Y155512D01*
Y157480D01*
Y150921D02*
Y152233D01*
Y151577D01*
X400328D01*
X400984Y152233D01*
Y152889D01*
X400328Y153545D01*
X397048Y149609D02*
X400984D01*
X399672Y148297D01*
X400984Y146985D01*
X397048D01*
X166659Y37402D02*
Y40026D01*
X166003D01*
X165347Y39370D01*
Y37402D01*
Y39370D01*
X164691Y40026D01*
X164035Y39370D01*
Y37402D01*
X162067Y40026D02*
X160755D01*
X160099Y39370D01*
Y37402D01*
X162067D01*
X162723Y38058D01*
X162067Y38714D01*
X160099D01*
X156163Y41338D02*
Y37402D01*
X158131D01*
X158787Y38058D01*
Y39370D01*
X158131Y40026D01*
X156163D01*
X152884Y37402D02*
X154195D01*
X154851Y38058D01*
Y39370D01*
X154195Y40026D01*
X152884D01*
X152228Y39370D01*
Y38714D01*
X154851D01*
X146980Y37402D02*
X145668D01*
X146324D01*
Y40026D01*
X146980D01*
X143700Y37402D02*
Y40026D01*
X141732D01*
X141076Y39370D01*
Y37402D01*
X135829Y41338D02*
Y38058D01*
X135173Y37402D01*
X133861D01*
X133205Y38058D01*
Y41338D01*
X131893Y37402D02*
Y38058D01*
X131237D01*
Y37402D01*
X131893D01*
X125989Y40682D02*
X126645Y41338D01*
X127957D01*
X128613Y40682D01*
Y40026D01*
X127957Y39370D01*
X126645D01*
X125989Y38714D01*
Y38058D01*
X126645Y37402D01*
X127957D01*
X128613Y38058D01*
X124677Y37402D02*
Y38058D01*
X124021D01*
Y37402D01*
X124677D01*
X121398D02*
Y40026D01*
X120086Y41338D01*
X118774Y40026D01*
Y37402D01*
Y39370D01*
X121398D01*
X117462Y37402D02*
Y38058D01*
X116806D01*
Y37402D01*
X117462D01*
X158131Y48556D02*
X158787Y49212D01*
X160099D01*
X160755Y48556D01*
Y45932D01*
X160099Y45276D01*
X158787D01*
X158131Y45932D01*
X156819Y45276D02*
Y47900D01*
X155507Y49212D01*
X154195Y47900D01*
Y45276D01*
Y47244D01*
X156819D01*
X150260Y48556D02*
X150916Y49212D01*
X152228D01*
X152884Y48556D01*
Y45932D01*
X152228Y45276D01*
X150916D01*
X150260Y45932D01*
Y47244D01*
X151572D01*
X146324Y49212D02*
X148948D01*
Y45276D01*
X146324D01*
X148948Y47244D02*
X147636D01*
X139108Y45276D02*
Y49212D01*
X141076Y47244D01*
X138452D01*
X137141Y49212D02*
Y45276D01*
X134517D01*
X130581Y49212D02*
X133205D01*
Y45276D01*
X130581D01*
X133205Y47244D02*
X131893D01*
X126645Y49212D02*
X127957D01*
X127301D01*
Y45932D01*
X127957Y45276D01*
X128613D01*
X129269Y45932D01*
X125333Y48556D02*
X124677Y49212D01*
X123365D01*
X122710Y48556D01*
Y47900D01*
X123365Y47244D01*
X122710Y46588D01*
Y45932D01*
X123365Y45276D01*
X124677D01*
X125333Y45932D01*
Y46588D01*
X124677Y47244D01*
X125333Y47900D01*
Y48556D01*
X124677Y47244D02*
X123365D01*
X396851Y-81366D02*
X399475D01*
X400787Y-82678D01*
X399475Y-83990D01*
X396851D01*
X397507Y-87926D02*
X396851Y-87270D01*
Y-85958D01*
X397507Y-85302D01*
X400131D01*
X400787Y-85958D01*
Y-87270D01*
X400131Y-87926D01*
X397507Y-89238D02*
X396851Y-89894D01*
Y-91206D01*
X397507Y-91862D01*
X400131D01*
X400787Y-91206D01*
Y-89894D01*
X400131Y-89238D01*
X397507D01*
X396851Y-38715D02*
X399475D01*
X400787Y-40027D01*
X399475Y-41339D01*
X396851D01*
X397507Y-45275D02*
X396851Y-44619D01*
Y-43307D01*
X397507Y-42651D01*
X400131D01*
X400787Y-43307D01*
Y-44619D01*
X400131Y-45275D01*
X400787Y-46587D02*
Y-47899D01*
Y-47243D01*
X396851D01*
X397507Y-46587D01*
X396851Y5248D02*
X399475D01*
X400787Y3936D01*
X399475Y2624D01*
X396851D01*
X397507Y-1312D02*
X396851Y-656D01*
Y656D01*
X397507Y1312D01*
X400131D01*
X400787Y656D01*
Y-656D01*
X400131Y-1312D01*
X400787Y-5248D02*
Y-2624D01*
X398163Y-5248D01*
X397507D01*
X396851Y-4592D01*
Y-3280D01*
X397507Y-2624D01*
X396851Y48555D02*
X399475D01*
X400787Y47243D01*
X399475Y45931D01*
X396851D01*
X397507Y41995D02*
X396851Y42651D01*
Y43963D01*
X397507Y44619D01*
X400131D01*
X400787Y43963D01*
Y42651D01*
X400131Y41995D01*
X397507Y40683D02*
X396851Y40027D01*
Y38715D01*
X397507Y38059D01*
X398163D01*
X398819Y38715D01*
Y39371D01*
Y38715D01*
X399475Y38059D01*
X400131D01*
X400787Y38715D01*
Y40027D01*
X400131Y40683D01*
X396851Y91862D02*
X399475D01*
X400787Y90550D01*
X399475Y89238D01*
X396851D01*
X397507Y85302D02*
X396851Y85958D01*
Y87270D01*
X397507Y87926D01*
X400131D01*
X400787Y87270D01*
Y85958D01*
X400131Y85302D01*
X400787Y82023D02*
X396851D01*
X398819Y83990D01*
Y81366D01*
X-28872Y73852D02*
X-27560D01*
X-28216D01*
Y70573D01*
X-27560Y69917D01*
X-26904D01*
X-26248Y70573D01*
X-30184Y69917D02*
Y73852D01*
X-32152D01*
X-32808Y73197D01*
Y71885D01*
X-32152Y71229D01*
X-30184D01*
X-36088Y69917D02*
Y73852D01*
X-34120Y71885D01*
X-36744D01*
X-28872Y103163D02*
X-27560D01*
X-28216D01*
Y99883D01*
X-27560Y99227D01*
X-26904D01*
X-26248Y99883D01*
X-30184Y99227D02*
Y103163D01*
X-32152D01*
X-32808Y102507D01*
Y101195D01*
X-32152Y100539D01*
X-30184D01*
X-34120Y102507D02*
X-34776Y103163D01*
X-36088D01*
X-36744Y102507D01*
Y101851D01*
X-36088Y101195D01*
X-35432D01*
X-36088D01*
X-36744Y100539D01*
Y99883D01*
X-36088Y99227D01*
X-34776D01*
X-34120Y99883D01*
X-28872Y132988D02*
X-27560D01*
X-28216D01*
Y129708D01*
X-27560Y129052D01*
X-26904D01*
X-26248Y129708D01*
X-30184Y129052D02*
Y132988D01*
X-32152D01*
X-32808Y132332D01*
Y131020D01*
X-32152Y130364D01*
X-30184D01*
X-36744Y129052D02*
X-34120D01*
X-36744Y131676D01*
Y132332D01*
X-36088Y132988D01*
X-34776D01*
X-34120Y132332D01*
X-13453Y103346D02*
Y99410D01*
X-15420D01*
X-16076Y100066D01*
Y100722D01*
X-15420Y101378D01*
X-13453D01*
X-15420D01*
X-16076Y102034D01*
Y102690D01*
X-15420Y103346D01*
X-13453D01*
X-19356Y99410D02*
Y103346D01*
X-17388Y101378D01*
X-20012D01*
X-13453Y73818D02*
Y69883D01*
X-15420D01*
X-16076Y70539D01*
Y71194D01*
X-15420Y71850D01*
X-13453D01*
X-15420D01*
X-16076Y72506D01*
Y73162D01*
X-15420Y73818D01*
X-13453D01*
X-17388Y73162D02*
X-18044Y73818D01*
X-19356D01*
X-20012Y73162D01*
Y72506D01*
X-19356Y71850D01*
X-18700D01*
X-19356D01*
X-20012Y71194D01*
Y70539D01*
X-19356Y69883D01*
X-18044D01*
X-17388Y70539D01*
X-13453Y-75788D02*
Y-79724D01*
X-15420D01*
X-16076Y-79068D01*
Y-78412D01*
X-15420Y-77756D01*
X-13453D01*
X-15420D01*
X-16076Y-77100D01*
Y-76444D01*
X-15420Y-75788D01*
X-13453D01*
X-20012Y-79724D02*
X-17388D01*
X-20012Y-77100D01*
Y-76444D01*
X-19356Y-75788D01*
X-18044D01*
X-17388Y-76444D01*
X-14108Y-95473D02*
Y-99409D01*
X-16076D01*
X-16732Y-98753D01*
Y-98097D01*
X-16076Y-97441D01*
X-14108D01*
X-16076D01*
X-16732Y-96785D01*
Y-96129D01*
X-16076Y-95473D01*
X-14108D01*
X-18044Y-99409D02*
X-19356D01*
X-18700D01*
Y-95473D01*
X-18044Y-96129D01*
D12*
X-62598Y68165D02*
X-22441D01*
X-62598Y46165D02*
Y68165D01*
Y46165D02*
X-22441D01*
X-62598Y97535D02*
X-22441D01*
X-62598Y75535D02*
Y97535D01*
Y75535D02*
X-22441D01*
X-62598Y127220D02*
X-22441D01*
X-62598Y105220D02*
Y127220D01*
Y105220D02*
X-22441D01*
X-32283Y-31496D02*
Y-15748D01*
X-14961Y-31496D02*
Y-15748D01*
X-32283Y-31496D02*
X-14961D01*
X-32283Y-15748D02*
X-14961D01*
X-32283D02*
X-14961D01*
X-32283Y7874D02*
X-14961D01*
Y-15748D02*
Y7874D01*
X-32283Y-15748D02*
Y7874D01*
Y7874D02*
X-14961D01*
X-32283Y31496D02*
X-14961D01*
Y7874D02*
Y31496D01*
X-32283Y7874D02*
Y31496D01*
X198000Y125921D02*
Y133921D01*
X82000Y125921D02*
Y133921D01*
X78000Y129921D02*
X86000D01*
X-11262Y88189D02*
Y171653D01*
X293462D01*
Y88189D02*
Y171653D01*
X-11262Y88189D02*
X293462D01*
X-11264Y85039D02*
X293461D01*
X-11264Y1575D02*
Y85039D01*
Y1575D02*
X293461D01*
Y85039D01*
X-11264Y-85039D02*
X293461D01*
Y-1575D01*
X-11264D02*
X293461D01*
X-11264Y-85039D02*
Y-1575D01*
X84198Y-133921D02*
Y-125921D01*
X200198Y-133921D02*
Y-125921D01*
X196198Y-129921D02*
X204198D01*
X293461Y-171653D02*
Y-88189D01*
X-11264Y-171653D02*
X293461D01*
X-11264D02*
Y-88189D01*
X293461D01*
X161726Y-40508D02*
X163725Y-38508D01*
Y-36509D01*
X161726Y-34510D01*
X154728Y-35509D02*
X155728Y-34510D01*
X157727D01*
X158727Y-35509D01*
Y-39508D01*
X157727Y-40508D01*
X155728D01*
X154728Y-39508D01*
X152729Y-40508D02*
X150729Y-38508D01*
Y-36509D01*
X152729Y-34510D01*
X137734Y-40508D02*
X141732D01*
X137734Y-36509D01*
Y-35509D01*
X138733Y-34510D01*
X140733D01*
X141732Y-35509D01*
X135734D02*
X134734Y-34510D01*
X132735D01*
X131736Y-35509D01*
Y-39508D01*
X132735Y-40508D01*
X134734D01*
X135734Y-39508D01*
Y-35509D01*
X125737Y-40508D02*
X129736D01*
X125737Y-36509D01*
Y-35509D01*
X126737Y-34510D01*
X128736D01*
X129736Y-35509D01*
X123738D02*
X122738Y-34510D01*
X120739D01*
X119739Y-35509D01*
Y-39508D01*
X120739Y-40508D01*
X122738D01*
X123738Y-39508D01*
Y-35509D01*
X174222Y-50105D02*
Y-44107D01*
X171223D01*
X170223Y-45107D01*
Y-47106D01*
X171223Y-48106D01*
X174222D01*
X168224Y-44107D02*
Y-49106D01*
X167224Y-50105D01*
X165225D01*
X164225Y-49106D01*
Y-44107D01*
X162226Y-50105D02*
Y-44107D01*
X160226Y-46107D01*
X158227Y-44107D01*
Y-50105D01*
X156228D02*
Y-44107D01*
X153229D01*
X152229Y-45107D01*
Y-47106D01*
X153229Y-48106D01*
X156228D01*
X150230Y-44107D02*
Y-50105D01*
Y-48106D01*
X146231Y-44107D01*
X149230Y-47106D01*
X146231Y-50105D01*
X144231Y-44107D02*
X142232D01*
X143232D01*
Y-50105D01*
X144231D01*
X142232D01*
X139233D02*
Y-44107D01*
X135234Y-50105D01*
Y-44107D01*
X132235Y-51105D02*
X131236Y-50105D01*
Y-49106D01*
X132235D01*
Y-50105D01*
X131236D01*
X132235Y-51105D01*
X133235Y-52105D01*
X121239Y-44107D02*
X119240D01*
X120239D01*
Y-50105D01*
X121239D01*
X119240D01*
X116241D02*
Y-46107D01*
X113242D01*
X112242Y-47106D01*
Y-50105D01*
X106244Y-46107D02*
X109243D01*
X110242Y-47106D01*
Y-49106D01*
X109243Y-50105D01*
X106244D01*
X104244D02*
Y-49106D01*
X103245D01*
Y-50105D01*
X104244D01*
D15*
X360236Y-11811D02*
D03*
D16*
X360236Y29528D02*
D03*
D43*
X142550Y129921D02*
D03*
X139648Y-129921D02*
D03*
D44*
X90000Y129921D02*
D03*
X192199Y-129921D02*
D03*
D45*
X238089Y43307D02*
D03*
X44108Y43307D02*
D03*
X44108Y-43307D02*
D03*
X238089Y-43307D02*
D03*
M02*
