G04 Layer_Color=16711935*
%FSLAX25Y25*%
%MOIN*%
G70*
G01*
G75*
%ADD45C,0.01000*%
G36*
X87557Y53026D02*
X89397D01*
Y51769D01*
X87557D01*
Y49400D01*
X86100D01*
Y51769D01*
X80943D01*
Y53026D01*
X85498Y60113D01*
X87557D01*
Y53026D01*
D02*
G37*
G36*
X67916Y50730D02*
X70303D01*
Y49400D01*
X63580D01*
Y50730D01*
X66331D01*
Y58546D01*
X63762Y57162D01*
X63252Y58382D01*
X66641Y60168D01*
X67916D01*
Y50730D01*
D02*
G37*
G36*
X97250Y58874D02*
X92823D01*
Y55868D01*
X94025D01*
X94226Y55850D01*
X94463Y55832D01*
X94699Y55813D01*
X95246Y55722D01*
X95282D01*
X95373Y55686D01*
X95519Y55650D01*
X95683Y55613D01*
X95902Y55540D01*
X96121Y55449D01*
X96339Y55358D01*
X96558Y55230D01*
X96576Y55212D01*
X96649Y55176D01*
X96758Y55085D01*
X96886Y54993D01*
X97032Y54848D01*
X97177Y54702D01*
X97323Y54502D01*
X97469Y54301D01*
X97487Y54283D01*
X97523Y54192D01*
X97578Y54064D01*
X97651Y53900D01*
X97724Y53682D01*
X97779Y53427D01*
X97815Y53153D01*
X97833Y52825D01*
Y52789D01*
Y52698D01*
X97815Y52534D01*
X97797Y52352D01*
X97742Y52115D01*
X97688Y51878D01*
X97596Y51623D01*
X97487Y51368D01*
X97469Y51331D01*
X97432Y51258D01*
X97341Y51131D01*
X97232Y50985D01*
X97104Y50803D01*
X96940Y50621D01*
X96740Y50420D01*
X96521Y50238D01*
X96503Y50220D01*
X96412Y50165D01*
X96285Y50074D01*
X96121Y49965D01*
X95902Y49856D01*
X95665Y49728D01*
X95392Y49619D01*
X95100Y49509D01*
X95064Y49491D01*
X94955Y49473D01*
X94791Y49436D01*
X94572Y49382D01*
X94317Y49327D01*
X94007Y49291D01*
X93679Y49273D01*
X93333Y49254D01*
X93023D01*
X92823Y49273D01*
X92713D01*
X92659Y49291D01*
X92477D01*
X92276Y49309D01*
X92185D01*
X92112Y49327D01*
X91930Y49345D01*
X91748Y49364D01*
X91711D01*
X91602Y49382D01*
X91456D01*
X91292Y49400D01*
Y50694D01*
X91311D01*
X91365Y50675D01*
X91456Y50657D01*
X91584Y50639D01*
X91729Y50603D01*
X91894Y50584D01*
X92094Y50548D01*
X92294Y50530D01*
X92404D01*
X92513Y50511D01*
X92841D01*
X93041Y50493D01*
X93697D01*
X93861Y50511D01*
X94025Y50530D01*
X94226Y50548D01*
X94626Y50639D01*
X94645D01*
X94718Y50675D01*
X94809Y50712D01*
X94936Y50766D01*
X95228Y50894D01*
X95519Y51095D01*
X95538Y51113D01*
X95574Y51149D01*
X95647Y51204D01*
X95738Y51295D01*
X95829Y51386D01*
X95920Y51513D01*
X96102Y51787D01*
X96121Y51805D01*
X96139Y51860D01*
X96175Y51951D01*
X96212Y52060D01*
X96248Y52206D01*
X96266Y52370D01*
X96303Y52534D01*
Y52734D01*
Y52753D01*
Y52771D01*
Y52825D01*
X96285Y52898D01*
X96266Y53062D01*
X96212Y53281D01*
X96121Y53518D01*
X95993Y53755D01*
X95811Y53973D01*
X95574Y54174D01*
X95538Y54192D01*
X95446Y54246D01*
X95282Y54319D01*
X95046Y54410D01*
X94754Y54502D01*
X94390Y54575D01*
X93971Y54629D01*
X93497Y54647D01*
X91474D01*
Y60113D01*
X97250D01*
Y58874D01*
D02*
G37*
G36*
X103718Y60095D02*
X103937Y60077D01*
X104210Y60040D01*
X104502Y59968D01*
X104830Y59895D01*
X105158Y59785D01*
X105486Y59658D01*
X105814Y59476D01*
X106105Y59275D01*
X106378Y59020D01*
X106597Y58710D01*
X106779Y58364D01*
X106889Y57963D01*
X106907Y57745D01*
X106925Y57508D01*
Y57490D01*
Y57472D01*
Y57362D01*
X106907Y57198D01*
X106870Y56998D01*
X106816Y56761D01*
X106743Y56506D01*
X106652Y56251D01*
X106506Y56014D01*
X106488Y55996D01*
X106433Y55905D01*
X106324Y55795D01*
X106196Y55668D01*
X106014Y55522D01*
X105777Y55358D01*
X105504Y55212D01*
X105176Y55085D01*
X105194D01*
X105249Y55066D01*
X105340Y55048D01*
X105449Y55030D01*
X105704Y54939D01*
X105996Y54811D01*
X106014D01*
X106069Y54775D01*
X106142Y54738D01*
X106233Y54666D01*
X106451Y54520D01*
X106670Y54301D01*
X106688Y54283D01*
X106725Y54246D01*
X106779Y54174D01*
X106834Y54101D01*
X106907Y53991D01*
X106980Y53864D01*
X107125Y53554D01*
Y53536D01*
X107162Y53481D01*
X107180Y53390D01*
X107217Y53281D01*
X107253Y53135D01*
X107271Y52971D01*
X107308Y52607D01*
Y52570D01*
Y52479D01*
X107289Y52333D01*
X107271Y52133D01*
X107235Y51933D01*
X107180Y51696D01*
X107107Y51459D01*
X106998Y51222D01*
X106980Y51204D01*
X106943Y51131D01*
X106870Y51022D01*
X106779Y50876D01*
X106670Y50730D01*
X106524Y50548D01*
X106360Y50384D01*
X106160Y50220D01*
X106142Y50202D01*
X106069Y50147D01*
X105941Y50074D01*
X105795Y50001D01*
X105595Y49892D01*
X105376Y49783D01*
X105121Y49692D01*
X104830Y49600D01*
X104793D01*
X104702Y49564D01*
X104538Y49546D01*
X104338Y49509D01*
X104083Y49473D01*
X103791Y49436D01*
X103463Y49418D01*
X103117Y49400D01*
X100366D01*
Y60113D01*
X103536D01*
X103718Y60095D01*
D02*
G37*
G36*
X41825Y58874D02*
X37398D01*
Y55868D01*
X38600D01*
X38800Y55850D01*
X39037Y55832D01*
X39274Y55813D01*
X39821Y55722D01*
X39857D01*
X39948Y55686D01*
X40094Y55650D01*
X40258Y55613D01*
X40477Y55540D01*
X40695Y55449D01*
X40914Y55358D01*
X41133Y55230D01*
X41151Y55212D01*
X41224Y55176D01*
X41333Y55085D01*
X41461Y54993D01*
X41606Y54848D01*
X41752Y54702D01*
X41898Y54502D01*
X42044Y54301D01*
X42062Y54283D01*
X42098Y54192D01*
X42153Y54064D01*
X42226Y53900D01*
X42299Y53682D01*
X42353Y53427D01*
X42390Y53153D01*
X42408Y52825D01*
Y52789D01*
Y52698D01*
X42390Y52534D01*
X42372Y52352D01*
X42317Y52115D01*
X42262Y51878D01*
X42171Y51623D01*
X42062Y51368D01*
X42044Y51331D01*
X42007Y51258D01*
X41916Y51131D01*
X41807Y50985D01*
X41679Y50803D01*
X41515Y50621D01*
X41315Y50420D01*
X41096Y50238D01*
X41078Y50220D01*
X40987Y50165D01*
X40859Y50074D01*
X40695Y49965D01*
X40477Y49856D01*
X40240Y49728D01*
X39966Y49619D01*
X39675Y49509D01*
X39639Y49491D01*
X39529Y49473D01*
X39365Y49436D01*
X39147Y49382D01*
X38892Y49327D01*
X38582Y49291D01*
X38254Y49273D01*
X37908Y49254D01*
X37598D01*
X37398Y49273D01*
X37288D01*
X37233Y49291D01*
X37051D01*
X36851Y49309D01*
X36760D01*
X36687Y49327D01*
X36505Y49345D01*
X36323Y49364D01*
X36286D01*
X36177Y49382D01*
X36031D01*
X35867Y49400D01*
Y50694D01*
X35885D01*
X35940Y50675D01*
X36031Y50657D01*
X36158Y50639D01*
X36304Y50603D01*
X36468Y50584D01*
X36669Y50548D01*
X36869Y50530D01*
X36978D01*
X37088Y50511D01*
X37416D01*
X37616Y50493D01*
X38272D01*
X38436Y50511D01*
X38600Y50530D01*
X38800Y50548D01*
X39201Y50639D01*
X39219D01*
X39292Y50675D01*
X39384Y50712D01*
X39511Y50766D01*
X39803Y50894D01*
X40094Y51095D01*
X40112Y51113D01*
X40149Y51149D01*
X40222Y51204D01*
X40313Y51295D01*
X40404Y51386D01*
X40495Y51513D01*
X40677Y51787D01*
X40695Y51805D01*
X40714Y51860D01*
X40750Y51951D01*
X40786Y52060D01*
X40823Y52206D01*
X40841Y52370D01*
X40878Y52534D01*
Y52734D01*
Y52753D01*
Y52771D01*
Y52825D01*
X40859Y52898D01*
X40841Y53062D01*
X40786Y53281D01*
X40695Y53518D01*
X40568Y53755D01*
X40386Y53973D01*
X40149Y54174D01*
X40112Y54192D01*
X40021Y54246D01*
X39857Y54319D01*
X39620Y54410D01*
X39329Y54502D01*
X38964Y54575D01*
X38545Y54629D01*
X38072Y54647D01*
X36049D01*
Y60113D01*
X41825D01*
Y58874D01*
D02*
G37*
G36*
X57895Y60259D02*
X58095Y60241D01*
X58332Y60204D01*
X58606Y60132D01*
X58861Y60059D01*
X59134Y59949D01*
X59170Y59931D01*
X59262Y59895D01*
X59389Y59804D01*
X59553Y59694D01*
X59735Y59567D01*
X59936Y59385D01*
X60136Y59184D01*
X60337Y58947D01*
X60355Y58911D01*
X60428Y58820D01*
X60519Y58674D01*
X60628Y58474D01*
X60755Y58237D01*
X60883Y57927D01*
X61011Y57599D01*
X61120Y57216D01*
Y57198D01*
X61138Y57162D01*
Y57107D01*
X61156Y57034D01*
X61193Y56925D01*
X61211Y56815D01*
X61229Y56670D01*
X61266Y56524D01*
X61302Y56160D01*
X61357Y55741D01*
X61375Y55267D01*
X61393Y54757D01*
Y54738D01*
Y54702D01*
Y54629D01*
Y54556D01*
Y54447D01*
X61375Y54319D01*
X61357Y54010D01*
X61339Y53663D01*
X61284Y53281D01*
X61229Y52880D01*
X61138Y52497D01*
Y52479D01*
X61120Y52461D01*
Y52406D01*
X61102Y52333D01*
X61029Y52151D01*
X60956Y51914D01*
X60847Y51641D01*
X60719Y51350D01*
X60573Y51058D01*
X60391Y50766D01*
X60373Y50730D01*
X60300Y50639D01*
X60191Y50511D01*
X60045Y50347D01*
X59881Y50165D01*
X59662Y49983D01*
X59425Y49801D01*
X59152Y49637D01*
X59116Y49619D01*
X59025Y49582D01*
X58861Y49509D01*
X58660Y49455D01*
X58405Y49382D01*
X58114Y49309D01*
X57786Y49273D01*
X57421Y49254D01*
X57275D01*
X57112Y49273D01*
X56893Y49291D01*
X56656Y49327D01*
X56383Y49382D01*
X56109Y49455D01*
X55836Y49564D01*
X55800Y49582D01*
X55727Y49619D01*
X55599Y49710D01*
X55435Y49819D01*
X55235Y49947D01*
X55035Y50129D01*
X54834Y50329D01*
X54634Y50566D01*
X54615Y50603D01*
X54561Y50694D01*
X54470Y50839D01*
X54360Y51040D01*
X54233Y51277D01*
X54105Y51568D01*
X53978Y51914D01*
X53868Y52279D01*
Y52297D01*
X53850Y52333D01*
Y52388D01*
X53832Y52461D01*
X53814Y52570D01*
X53795Y52680D01*
X53759Y52825D01*
X53741Y52971D01*
X53686Y53335D01*
X53650Y53755D01*
X53632Y54246D01*
X53613Y54757D01*
Y54775D01*
Y54811D01*
Y54884D01*
Y54957D01*
Y55066D01*
X53632Y55194D01*
X53650Y55504D01*
X53668Y55850D01*
X53723Y56214D01*
X53777Y56615D01*
X53850Y56998D01*
Y57016D01*
X53868Y57052D01*
X53887Y57089D01*
X53905Y57162D01*
X53960Y57362D01*
X54032Y57599D01*
X54142Y57872D01*
X54269Y58164D01*
X54433Y58455D01*
X54597Y58747D01*
X54615Y58783D01*
X54688Y58874D01*
X54798Y59002D01*
X54943Y59166D01*
X55107Y59348D01*
X55326Y59530D01*
X55563Y59712D01*
X55836Y59877D01*
X55873Y59895D01*
X55964Y59931D01*
X56128Y60004D01*
X56328Y60077D01*
X56583Y60150D01*
X56893Y60223D01*
X57221Y60259D01*
X57585Y60277D01*
X57731D01*
X57895Y60259D01*
D02*
G37*
G36*
X30182D02*
X30383Y60241D01*
X30620Y60204D01*
X30893Y60132D01*
X31148Y60059D01*
X31421Y59949D01*
X31458Y59931D01*
X31549Y59895D01*
X31676Y59804D01*
X31840Y59694D01*
X32023Y59567D01*
X32223Y59385D01*
X32423Y59184D01*
X32624Y58947D01*
X32642Y58911D01*
X32715Y58820D01*
X32806Y58674D01*
X32915Y58474D01*
X33043Y58237D01*
X33171Y57927D01*
X33298Y57599D01*
X33407Y57216D01*
Y57198D01*
X33426Y57162D01*
Y57107D01*
X33444Y57034D01*
X33480Y56925D01*
X33498Y56815D01*
X33517Y56670D01*
X33553Y56524D01*
X33590Y56160D01*
X33644Y55741D01*
X33662Y55267D01*
X33681Y54757D01*
Y54738D01*
Y54702D01*
Y54629D01*
Y54556D01*
Y54447D01*
X33662Y54319D01*
X33644Y54010D01*
X33626Y53663D01*
X33571Y53281D01*
X33517Y52880D01*
X33426Y52497D01*
Y52479D01*
X33407Y52461D01*
Y52406D01*
X33389Y52333D01*
X33316Y52151D01*
X33243Y51914D01*
X33134Y51641D01*
X33007Y51350D01*
X32861Y51058D01*
X32678Y50766D01*
X32660Y50730D01*
X32587Y50639D01*
X32478Y50511D01*
X32332Y50347D01*
X32168Y50165D01*
X31950Y49983D01*
X31713Y49801D01*
X31440Y49637D01*
X31403Y49619D01*
X31312Y49582D01*
X31148Y49509D01*
X30948Y49455D01*
X30692Y49382D01*
X30401Y49309D01*
X30073Y49273D01*
X29709Y49254D01*
X29563D01*
X29399Y49273D01*
X29180Y49291D01*
X28943Y49327D01*
X28670Y49382D01*
X28397Y49455D01*
X28124Y49564D01*
X28087Y49582D01*
X28014Y49619D01*
X27887Y49710D01*
X27723Y49819D01*
X27522Y49947D01*
X27322Y50129D01*
X27121Y50329D01*
X26921Y50566D01*
X26903Y50603D01*
X26848Y50694D01*
X26757Y50839D01*
X26648Y51040D01*
X26520Y51277D01*
X26393Y51568D01*
X26265Y51914D01*
X26156Y52279D01*
Y52297D01*
X26138Y52333D01*
Y52388D01*
X26119Y52461D01*
X26101Y52570D01*
X26083Y52680D01*
X26046Y52825D01*
X26028Y52971D01*
X25974Y53335D01*
X25937Y53755D01*
X25919Y54246D01*
X25901Y54757D01*
Y54775D01*
Y54811D01*
Y54884D01*
Y54957D01*
Y55066D01*
X25919Y55194D01*
X25937Y55504D01*
X25955Y55850D01*
X26010Y56214D01*
X26065Y56615D01*
X26138Y56998D01*
Y57016D01*
X26156Y57052D01*
X26174Y57089D01*
X26192Y57162D01*
X26247Y57362D01*
X26320Y57599D01*
X26429Y57872D01*
X26557Y58164D01*
X26721Y58455D01*
X26885Y58747D01*
X26903Y58783D01*
X26976Y58874D01*
X27085Y59002D01*
X27231Y59166D01*
X27395Y59348D01*
X27613Y59530D01*
X27850Y59712D01*
X28124Y59877D01*
X28160Y59895D01*
X28251Y59931D01*
X28415Y60004D01*
X28615Y60077D01*
X28870Y60150D01*
X29180Y60223D01*
X29508Y60259D01*
X29873Y60277D01*
X30018D01*
X30182Y60259D01*
D02*
G37*
G36*
X76516D02*
X76753Y60241D01*
X76990Y60204D01*
X77245Y60150D01*
X77482Y60095D01*
X77518D01*
X77591Y60059D01*
X77700Y60022D01*
X77846Y59968D01*
X78010Y59895D01*
X78174Y59804D01*
X78356Y59694D01*
X78520Y59585D01*
X78538Y59567D01*
X78593Y59530D01*
X78666Y59457D01*
X78775Y59366D01*
X78866Y59239D01*
X78975Y59111D01*
X79085Y58947D01*
X79176Y58783D01*
X79194Y58765D01*
X79212Y58710D01*
X79249Y58601D01*
X79285Y58492D01*
X79322Y58328D01*
X79358Y58146D01*
X79395Y57963D01*
Y57745D01*
Y57727D01*
Y57708D01*
Y57654D01*
Y57599D01*
X79376Y57417D01*
X79322Y57198D01*
X79267Y56943D01*
X79176Y56688D01*
X79048Y56415D01*
X78866Y56160D01*
X78848Y56123D01*
X78775Y56050D01*
X78648Y55923D01*
X78484Y55777D01*
X78283Y55595D01*
X78028Y55394D01*
X77718Y55194D01*
X77390Y55012D01*
X77409Y54993D01*
X77463Y54975D01*
X77554Y54921D01*
X77682Y54866D01*
X77810Y54775D01*
X77955Y54684D01*
X78265Y54483D01*
X78283Y54465D01*
X78338Y54429D01*
X78411Y54374D01*
X78520Y54301D01*
X78739Y54101D01*
X78975Y53846D01*
X78994Y53828D01*
X79030Y53791D01*
X79085Y53718D01*
X79158Y53627D01*
X79231Y53500D01*
X79303Y53372D01*
X79449Y53062D01*
Y53044D01*
X79486Y52989D01*
X79504Y52898D01*
X79540Y52771D01*
X79577Y52643D01*
X79595Y52479D01*
X79632Y52097D01*
Y52060D01*
Y51987D01*
X79613Y51841D01*
X79595Y51678D01*
X79559Y51495D01*
X79504Y51295D01*
X79431Y51076D01*
X79340Y50876D01*
X79322Y50858D01*
X79285Y50785D01*
X79231Y50694D01*
X79140Y50566D01*
X79030Y50420D01*
X78903Y50275D01*
X78739Y50129D01*
X78557Y49983D01*
X78538Y49965D01*
X78465Y49928D01*
X78356Y49856D01*
X78228Y49783D01*
X78046Y49692D01*
X77846Y49600D01*
X77627Y49509D01*
X77372Y49436D01*
X77336D01*
X77263Y49400D01*
X77117Y49382D01*
X76935Y49345D01*
X76716Y49309D01*
X76479Y49291D01*
X76206Y49254D01*
X75769D01*
X75605Y49273D01*
X75386D01*
X75149Y49291D01*
X74894Y49327D01*
X74621Y49382D01*
X74366Y49436D01*
X74329Y49455D01*
X74257Y49473D01*
X74129Y49527D01*
X73965Y49582D01*
X73801Y49655D01*
X73601Y49746D01*
X73418Y49856D01*
X73236Y49983D01*
X73218Y50001D01*
X73163Y50056D01*
X73090Y50129D01*
X72981Y50220D01*
X72872Y50347D01*
X72763Y50493D01*
X72653Y50657D01*
X72562Y50821D01*
Y50839D01*
X72526Y50912D01*
X72489Y51003D01*
X72453Y51149D01*
X72416Y51295D01*
X72380Y51477D01*
X72362Y51678D01*
X72343Y51896D01*
Y51914D01*
Y51933D01*
Y51987D01*
X72362Y52060D01*
X72380Y52242D01*
X72416Y52479D01*
X72471Y52734D01*
X72580Y53026D01*
X72708Y53317D01*
X72890Y53591D01*
X72908Y53627D01*
X72999Y53718D01*
X73127Y53846D01*
X73309Y54028D01*
X73546Y54228D01*
X73838Y54447D01*
X74184Y54684D01*
X74585Y54902D01*
X74566D01*
X74548Y54921D01*
X74493Y54957D01*
X74420Y54993D01*
X74238Y55103D01*
X74001Y55249D01*
X73746Y55431D01*
X73510Y55631D01*
X73255Y55850D01*
X73054Y56087D01*
X73036Y56123D01*
X72981Y56196D01*
X72908Y56342D01*
X72817Y56524D01*
X72726Y56743D01*
X72653Y56998D01*
X72598Y57271D01*
X72580Y57581D01*
Y57599D01*
Y57672D01*
X72598Y57763D01*
Y57890D01*
X72635Y58055D01*
X72671Y58218D01*
X72708Y58382D01*
X72781Y58565D01*
X72799Y58583D01*
X72817Y58656D01*
X72872Y58747D01*
X72945Y58856D01*
X73036Y59002D01*
X73145Y59148D01*
X73273Y59294D01*
X73418Y59439D01*
X73437Y59457D01*
X73491Y59512D01*
X73582Y59567D01*
X73710Y59658D01*
X73874Y59749D01*
X74056Y59858D01*
X74257Y59949D01*
X74493Y60040D01*
X74530Y60059D01*
X74603Y60077D01*
X74748Y60113D01*
X74931Y60168D01*
X75149Y60204D01*
X75423Y60241D01*
X75714Y60259D01*
X76024Y60277D01*
X76315D01*
X76516Y60259D01*
D02*
G37*
G36*
X50716Y53190D02*
X45815D01*
Y54538D01*
X50716D01*
Y53190D01*
D02*
G37*
G36*
X24152Y58783D02*
X19651Y49400D01*
X18011D01*
X22676Y58783D01*
X16900D01*
Y60113D01*
X24152D01*
Y58783D01*
D02*
G37*
%LPC*%
G36*
X86100Y58729D02*
X82364Y53026D01*
X86100D01*
Y58729D01*
D02*
G37*
G36*
X103536Y58874D02*
X101823D01*
Y55540D01*
X103445D01*
X103554Y55558D01*
X103700D01*
X103846Y55577D01*
X104156Y55631D01*
X104174D01*
X104228Y55650D01*
X104301Y55686D01*
X104392Y55722D01*
X104611Y55813D01*
X104848Y55959D01*
X104866Y55977D01*
X104903Y55996D01*
X105012Y56105D01*
X105158Y56287D01*
X105303Y56506D01*
Y56524D01*
X105322Y56560D01*
X105358Y56633D01*
X105394Y56743D01*
X105413Y56852D01*
X105449Y56998D01*
X105467Y57307D01*
Y57326D01*
Y57362D01*
Y57417D01*
X105449Y57508D01*
X105431Y57690D01*
X105358Y57909D01*
Y57927D01*
X105340Y57963D01*
X105322Y58018D01*
X105285Y58073D01*
X105176Y58237D01*
X105012Y58401D01*
X104994Y58419D01*
X104975Y58437D01*
X104921Y58474D01*
X104848Y58528D01*
X104757Y58583D01*
X104629Y58637D01*
X104502Y58692D01*
X104356Y58747D01*
X104338D01*
X104283Y58765D01*
X104192Y58783D01*
X104065Y58820D01*
X103919Y58838D01*
X103736Y58856D01*
X103536Y58874D01*
D02*
G37*
G36*
X103518Y54319D02*
X101823D01*
Y50639D01*
X103554D01*
X103664Y50657D01*
X103791D01*
X104065Y50694D01*
X104374Y50748D01*
X104684Y50839D01*
X104975Y50949D01*
X105231Y51095D01*
X105249Y51113D01*
X105322Y51186D01*
X105431Y51295D01*
X105540Y51459D01*
X105650Y51659D01*
X105759Y51914D01*
X105832Y52206D01*
X105850Y52552D01*
Y52570D01*
Y52625D01*
Y52698D01*
X105832Y52789D01*
X105777Y53026D01*
X105668Y53281D01*
Y53299D01*
X105631Y53335D01*
X105595Y53390D01*
X105540Y53481D01*
X105394Y53645D01*
X105176Y53828D01*
X105158Y53846D01*
X105121Y53864D01*
X105048Y53919D01*
X104957Y53955D01*
X104830Y54028D01*
X104702Y54083D01*
X104374Y54192D01*
X104356D01*
X104283Y54210D01*
X104192Y54228D01*
X104065Y54265D01*
X103901Y54283D01*
X103718Y54301D01*
X103518Y54319D01*
D02*
G37*
G36*
X57494Y59057D02*
X57403D01*
X57294Y59038D01*
X57148Y59020D01*
X57002Y58984D01*
X56820Y58947D01*
X56656Y58874D01*
X56474Y58783D01*
X56456Y58765D01*
X56401Y58729D01*
X56310Y58674D01*
X56200Y58583D01*
X56091Y58455D01*
X55945Y58328D01*
X55818Y58164D01*
X55690Y57963D01*
X55672Y57945D01*
X55636Y57872D01*
X55581Y57763D01*
X55508Y57599D01*
X55435Y57399D01*
X55362Y57180D01*
X55290Y56925D01*
X55217Y56633D01*
Y56597D01*
X55198Y56488D01*
X55162Y56324D01*
X55144Y56105D01*
X55107Y55832D01*
X55071Y55522D01*
X55053Y55176D01*
Y54793D01*
Y54775D01*
Y54757D01*
Y54629D01*
Y54465D01*
Y54283D01*
Y54265D01*
Y54246D01*
Y54137D01*
Y53991D01*
X55071Y53809D01*
X59608Y57162D01*
Y57180D01*
X59589Y57235D01*
X59553Y57307D01*
X59517Y57417D01*
X59425Y57654D01*
X59298Y57927D01*
Y57945D01*
X59262Y57982D01*
X59225Y58055D01*
X59170Y58127D01*
X59025Y58328D01*
X58842Y58510D01*
X58824Y58528D01*
X58806Y58546D01*
X58751Y58601D01*
X58679Y58656D01*
X58478Y58783D01*
X58241Y58911D01*
X58223D01*
X58187Y58929D01*
X58114Y58965D01*
X58022Y58984D01*
X57913Y59020D01*
X57786Y59038D01*
X57494Y59057D01*
D02*
G37*
G36*
X59881Y55795D02*
X55344Y52425D01*
Y52406D01*
X55362Y52352D01*
X55399Y52261D01*
X55435Y52169D01*
X55526Y51896D01*
X55654Y51623D01*
X55672Y51605D01*
X55690Y51568D01*
X55727Y51495D01*
X55782Y51422D01*
X55927Y51222D01*
X56109Y51003D01*
X56128Y50985D01*
X56164Y50967D01*
X56219Y50912D01*
X56292Y50858D01*
X56474Y50730D01*
X56711Y50603D01*
X56729D01*
X56765Y50584D01*
X56838Y50566D01*
X56948Y50548D01*
X57057Y50511D01*
X57184Y50493D01*
X57494Y50475D01*
X57585D01*
X57695Y50493D01*
X57840Y50511D01*
X57986Y50530D01*
X58168Y50584D01*
X58332Y50639D01*
X58514Y50730D01*
X58533Y50748D01*
X58587Y50785D01*
X58679Y50839D01*
X58788Y50931D01*
X58897Y51040D01*
X59025Y51186D01*
X59152Y51350D01*
X59280Y51532D01*
X59298Y51550D01*
X59334Y51623D01*
X59389Y51750D01*
X59462Y51896D01*
X59553Y52097D01*
X59626Y52315D01*
X59699Y52588D01*
X59772Y52862D01*
Y52880D01*
Y52898D01*
X59808Y53008D01*
X59826Y53171D01*
X59863Y53390D01*
X59899Y53663D01*
X59917Y53973D01*
X59954Y54319D01*
Y54702D01*
Y54720D01*
Y54757D01*
Y54811D01*
Y54866D01*
X59936Y55048D01*
X59917Y55249D01*
Y55267D01*
Y55303D01*
Y55358D01*
X59899Y55413D01*
Y55595D01*
X59881Y55795D01*
D02*
G37*
G36*
X32168D02*
X27632Y52425D01*
Y52406D01*
X27650Y52352D01*
X27686Y52261D01*
X27723Y52169D01*
X27814Y51896D01*
X27941Y51623D01*
X27959Y51605D01*
X27978Y51568D01*
X28014Y51495D01*
X28069Y51422D01*
X28215Y51222D01*
X28397Y51003D01*
X28415Y50985D01*
X28451Y50967D01*
X28506Y50912D01*
X28579Y50858D01*
X28761Y50730D01*
X28998Y50603D01*
X29016D01*
X29053Y50584D01*
X29126Y50566D01*
X29235Y50548D01*
X29344Y50511D01*
X29472Y50493D01*
X29781Y50475D01*
X29873D01*
X29982Y50493D01*
X30128Y50511D01*
X30274Y50530D01*
X30456Y50584D01*
X30620Y50639D01*
X30802Y50730D01*
X30820Y50748D01*
X30875Y50785D01*
X30966Y50839D01*
X31075Y50931D01*
X31185Y51040D01*
X31312Y51186D01*
X31440Y51350D01*
X31567Y51532D01*
X31585Y51550D01*
X31622Y51623D01*
X31676Y51750D01*
X31749Y51896D01*
X31840Y52097D01*
X31913Y52315D01*
X31986Y52588D01*
X32059Y52862D01*
Y52880D01*
Y52898D01*
X32096Y53008D01*
X32114Y53171D01*
X32150Y53390D01*
X32187Y53663D01*
X32205Y53973D01*
X32241Y54319D01*
Y54702D01*
Y54720D01*
Y54757D01*
Y54811D01*
Y54866D01*
X32223Y55048D01*
X32205Y55249D01*
Y55267D01*
Y55303D01*
Y55358D01*
X32187Y55413D01*
Y55595D01*
X32168Y55795D01*
D02*
G37*
G36*
X29781Y59057D02*
X29690D01*
X29581Y59038D01*
X29435Y59020D01*
X29290Y58984D01*
X29107Y58947D01*
X28943Y58874D01*
X28761Y58783D01*
X28743Y58765D01*
X28688Y58729D01*
X28597Y58674D01*
X28488Y58583D01*
X28379Y58455D01*
X28233Y58328D01*
X28105Y58164D01*
X27978Y57963D01*
X27959Y57945D01*
X27923Y57872D01*
X27868Y57763D01*
X27796Y57599D01*
X27723Y57399D01*
X27650Y57180D01*
X27577Y56925D01*
X27504Y56633D01*
Y56597D01*
X27486Y56488D01*
X27449Y56324D01*
X27431Y56105D01*
X27395Y55832D01*
X27358Y55522D01*
X27340Y55176D01*
Y54793D01*
Y54775D01*
Y54757D01*
Y54629D01*
Y54465D01*
Y54283D01*
Y54265D01*
Y54246D01*
Y54137D01*
Y53991D01*
X27358Y53809D01*
X31895Y57162D01*
Y57180D01*
X31877Y57235D01*
X31840Y57307D01*
X31804Y57417D01*
X31713Y57654D01*
X31585Y57927D01*
Y57945D01*
X31549Y57982D01*
X31512Y58055D01*
X31458Y58127D01*
X31312Y58328D01*
X31130Y58510D01*
X31112Y58528D01*
X31093Y58546D01*
X31039Y58601D01*
X30966Y58656D01*
X30765Y58783D01*
X30529Y58911D01*
X30510D01*
X30474Y58929D01*
X30401Y58965D01*
X30310Y58984D01*
X30201Y59020D01*
X30073Y59038D01*
X29781Y59057D01*
D02*
G37*
G36*
X75987Y59093D02*
X75842D01*
X75678Y59075D01*
X75477Y59057D01*
X75240Y59002D01*
X75004Y58947D01*
X74767Y58856D01*
X74566Y58729D01*
X74548Y58710D01*
X74493Y58656D01*
X74402Y58583D01*
X74311Y58474D01*
X74220Y58310D01*
X74129Y58127D01*
X74074Y57909D01*
X74056Y57654D01*
Y57635D01*
Y57599D01*
Y57544D01*
X74074Y57472D01*
X74111Y57271D01*
X74165Y57071D01*
Y57052D01*
X74184Y57034D01*
X74257Y56907D01*
X74384Y56761D01*
X74548Y56579D01*
X74566Y56560D01*
X74603Y56542D01*
X74657Y56488D01*
X74730Y56433D01*
X74931Y56287D01*
X75186Y56105D01*
X75204Y56087D01*
X75259Y56068D01*
X75331Y56014D01*
X75441Y55959D01*
X75587Y55886D01*
X75732Y55813D01*
X75915Y55741D01*
X76115Y55650D01*
X76133D01*
X76151Y55668D01*
X76261Y55722D01*
X76425Y55813D01*
X76625Y55923D01*
X76844Y56050D01*
X77081Y56196D01*
X77299Y56360D01*
X77482Y56542D01*
X77500Y56560D01*
X77554Y56633D01*
X77627Y56724D01*
X77718Y56852D01*
X77791Y57016D01*
X77864Y57198D01*
X77919Y57417D01*
X77937Y57635D01*
Y57672D01*
Y57763D01*
X77919Y57890D01*
X77864Y58055D01*
X77810Y58218D01*
X77718Y58401D01*
X77591Y58583D01*
X77409Y58729D01*
X77390Y58747D01*
X77318Y58783D01*
X77208Y58838D01*
X77044Y58911D01*
X76844Y58984D01*
X76589Y59038D01*
X76315Y59075D01*
X75987Y59093D01*
D02*
G37*
G36*
X75860Y54283D02*
X75842Y54265D01*
X75769Y54228D01*
X75660Y54174D01*
X75532Y54119D01*
X75240Y53937D01*
X74931Y53736D01*
X74913Y53718D01*
X74876Y53682D01*
X74803Y53627D01*
X74712Y53572D01*
X74512Y53390D01*
X74311Y53190D01*
X74293Y53171D01*
X74275Y53135D01*
X74238Y53080D01*
X74184Y53008D01*
X74074Y52825D01*
X73983Y52607D01*
Y52588D01*
X73965Y52552D01*
X73947Y52497D01*
Y52425D01*
X73910Y52224D01*
X73892Y51987D01*
Y51969D01*
Y51933D01*
Y51860D01*
X73910Y51769D01*
X73947Y51550D01*
X74038Y51331D01*
Y51313D01*
X74074Y51295D01*
X74147Y51167D01*
X74293Y51022D01*
X74475Y50858D01*
X74493D01*
X74530Y50821D01*
X74585Y50785D01*
X74676Y50748D01*
X74876Y50657D01*
X75149Y50566D01*
X75168D01*
X75222Y50548D01*
X75295Y50530D01*
X75404D01*
X75514Y50511D01*
X75660Y50493D01*
X75987Y50475D01*
X76133D01*
X76243Y50493D01*
X76498Y50511D01*
X76789Y50548D01*
X76807D01*
X76862Y50566D01*
X76935Y50584D01*
X77026Y50621D01*
X77245Y50694D01*
X77463Y50821D01*
X77482Y50839D01*
X77518Y50858D01*
X77627Y50949D01*
X77773Y51113D01*
X77919Y51295D01*
Y51313D01*
X77937Y51350D01*
X77973Y51404D01*
X78010Y51495D01*
X78065Y51696D01*
X78083Y51969D01*
Y51987D01*
Y52024D01*
Y52078D01*
X78065Y52169D01*
X78046Y52352D01*
X77973Y52570D01*
Y52588D01*
X77955Y52625D01*
X77937Y52680D01*
X77901Y52753D01*
X77791Y52935D01*
X77627Y53135D01*
X77609Y53153D01*
X77573Y53190D01*
X77518Y53244D01*
X77445Y53299D01*
X77354Y53390D01*
X77226Y53481D01*
X77099Y53572D01*
X76935Y53682D01*
X76917Y53700D01*
X76862Y53736D01*
X76771Y53791D01*
X76643Y53864D01*
X76498Y53955D01*
X76297Y54064D01*
X76097Y54174D01*
X75860Y54283D01*
D02*
G37*
%LPD*%
D45*
X206300Y-341200D02*
G03*
X201600Y-336500I-4700J0D01*
G01*
X174800D02*
G03*
X170100Y-341200I0J-4700D01*
G01*
X165400Y-354962D02*
G03*
X170100Y-350262I0J4700D01*
G01*
X206300D02*
G03*
X211000Y-354962I4700J0D01*
G01*
X137100Y-350262D02*
G03*
X141800Y-354962I4700J0D01*
G01*
X137100Y-338662D02*
G03*
X132400Y-333962I-4700J0D01*
G01*
X244200D02*
G03*
X239500Y-338662I0J-4700D01*
G01*
X234800Y-354962D02*
G03*
X239500Y-350262I0J4700D01*
G01*
X20000Y-7462D02*
G03*
X18834Y-32408I0J-12500D01*
G01*
X331597Y-22462D02*
G03*
X326949Y-26467I0J-4700D01*
G01*
X46447Y-347462D02*
G03*
X51147Y-342762I0J4700D01*
G01*
X7500Y-334962D02*
G03*
X20000Y-347462I12500J0D01*
G01*
X322313Y-30462D02*
G03*
X326949Y-26467I0J4688D01*
G01*
X377500Y-27162D02*
G03*
X372800Y-22462I-4700J0D01*
G01*
X378601Y-93972D02*
G03*
X377500Y-90950I-4700J0D01*
G01*
X373901Y-116450D02*
G03*
X378601Y-111750I0J4700D01*
G01*
X370700Y-116450D02*
G03*
X366000Y-121150I0J-4700D01*
G01*
Y-242750D02*
G03*
X370700Y-247450I4700J0D01*
G01*
X378601Y-252150D02*
G03*
X373901Y-247450I-4700J0D01*
G01*
X377500Y-272950D02*
G03*
X378601Y-269928I-3600J3022D01*
G01*
X372800Y-337001D02*
G03*
X377500Y-332301I0J4700D01*
G01*
X277500Y-333962D02*
G03*
X281897Y-337001I4397J1661D01*
G01*
X55847Y-333962D02*
G03*
X51147Y-338662I0J-4700D01*
G01*
X7500Y-277616D02*
G03*
X3200Y-272933I-4700J0D01*
G01*
X-1100Y-268250D02*
G03*
X3200Y-272933I4700J0D01*
G01*
X3600Y-247450D02*
G03*
X-1100Y-252150I0J-4700D01*
G01*
X13302Y-247450D02*
G03*
X18001Y-242750I0J4700D01*
G01*
X22689Y-158881D02*
G03*
X18001Y-163568I0J-4688D01*
G01*
X36813Y-158881D02*
G03*
X41500Y-154193I0J4688D01*
G01*
Y-57298D02*
G03*
X18834Y-32408I-25000J0D01*
G01*
X93250Y-7462D02*
G03*
X97950Y-2762I0J4700D01*
G01*
X102650Y7900D02*
G03*
X97950Y3200I0J-4700D01*
G01*
X123950D02*
G03*
X119250Y7900I-4700J0D01*
G01*
X123950Y-2762D02*
G03*
X128650Y-7462I4700J0D01*
G01*
X229000Y-12162D02*
G03*
X224300Y-7462I-4700J0D01*
G01*
X229000Y-25762D02*
G03*
X233700Y-30462I4700J0D01*
G01*
X174800Y-336500D02*
X201600D01*
X141800Y-354962D02*
X165400D01*
X211000D02*
X234800D01*
X170100Y-350262D02*
Y-341200D01*
X137100Y-350262D02*
Y-338662D01*
X20000Y-7462D02*
X93250D01*
X331597Y-22462D02*
X372800D01*
X281897Y-337001D02*
X372800D01*
X20000Y-347462D02*
X46447D01*
X244200Y-333962D02*
X277500D01*
X55847D02*
X132400D01*
X233700Y-30462D02*
X322313D01*
X377500Y-90950D02*
Y-27162D01*
X378601Y-111750D02*
Y-93972D01*
X370700Y-116450D02*
X373901D01*
X366000Y-242750D02*
Y-121150D01*
X370700Y-247450D02*
X373901D01*
X378601Y-269928D02*
Y-252150D01*
X377500Y-332301D02*
Y-272950D01*
X51147Y-342762D02*
Y-338662D01*
X7500Y-334962D02*
Y-277616D01*
X-1100Y-268250D02*
Y-252150D01*
X3600Y-247450D02*
X13302D01*
X18001Y-242750D02*
Y-163568D01*
X22689Y-158881D02*
X36813D01*
X41500Y-154193D02*
Y-57298D01*
X97950Y-2762D02*
Y3200D01*
X102650Y7900D02*
X119250D01*
X123950Y-2762D02*
Y3200D01*
X128650Y-7462D02*
X224300D01*
X229000Y-25762D02*
Y-12162D01*
X239500Y-350262D02*
Y-338662D01*
X206300Y-350262D02*
Y-341200D01*
M02*
