G04 Layer_Physical_Order=8*
G04 Layer_Color=16711680*
%FSLAX25Y25*%
%MOIN*%
G70*
G01*
G75*
%ADD10R,0.05315X0.04134*%
%ADD11R,0.03937X0.03143*%
%ADD13O,0.05512X0.01100*%
%ADD18R,0.05551X0.03583*%
%ADD19R,0.05709X0.03937*%
%ADD20R,0.03937X0.05709*%
%ADD21R,0.03143X0.03937*%
%ADD25R,0.02165X0.05906*%
%ADD26R,0.01575X0.05315*%
%ADD27R,0.16535X0.02756*%
%ADD28R,0.07874X0.02362*%
%ADD30R,0.03740X0.03150*%
%ADD31R,0.03583X0.05551*%
%ADD32R,0.04134X0.05315*%
%ADD37O,0.01100X0.05512*%
%ADD40O,0.05709X0.02362*%
%ADD45C,0.01000*%
%ADD46C,0.01500*%
%ADD47C,0.00700*%
%ADD48C,0.02000*%
%ADD49C,0.02500*%
%ADD50C,0.05000*%
%ADD51C,0.00800*%
%ADD52C,0.00787*%
%ADD53R,0.29995X0.25000*%
%ADD54R,0.30005X0.25000*%
%ADD55C,0.05906*%
%ADD56C,0.25000*%
%ADD57C,0.28000*%
%ADD58C,0.10000*%
%ADD59C,0.04921*%
%ADD60C,0.04000*%
%ADD61R,0.07000X0.07000*%
%ADD62C,0.07874*%
%ADD63C,0.05118*%
%ADD64C,0.06693*%
%ADD65C,0.03000*%
%ADD66C,0.01969*%
%ADD67C,0.03937*%
%ADD68C,0.04000*%
%ADD88C,0.00900*%
%ADD98R,0.02165X0.04134*%
%ADD99R,0.03937X0.02362*%
%ADD100O,0.05512X0.01575*%
%ADD101O,0.03543X0.05315*%
%ADD102R,0.12400X0.04016*%
%ADD103R,0.04016X0.12400*%
%ADD104R,0.02362X0.04331*%
%ADD105R,0.05906X0.02165*%
%ADD106O,0.01150X0.06496*%
%ADD107O,0.05512X0.01600*%
%ADD108R,0.04134X0.02165*%
%ADD109R,0.03976X0.01150*%
%ADD110R,0.06890X0.11594*%
%ADD111R,0.11900X0.04000*%
%ADD112R,0.09600X0.12100*%
%ADD113R,0.04200X0.16000*%
G36*
X127129Y52131D02*
X131829D01*
Y50892D01*
X125653D01*
Y61606D01*
X127129D01*
Y52131D01*
D02*
G37*
G36*
X248893Y61751D02*
X249130Y61715D01*
X249421Y61678D01*
X249713Y61606D01*
X250023Y61514D01*
X250314Y61387D01*
X250350Y61369D01*
X250442Y61314D01*
X250587Y61223D01*
X250769Y61114D01*
X250970Y60950D01*
X251170Y60767D01*
X251389Y60549D01*
X251589Y60294D01*
X251608Y60257D01*
X251680Y60166D01*
X251772Y60020D01*
X251881Y59820D01*
X252009Y59565D01*
X252136Y59273D01*
X252245Y58945D01*
X252355Y58581D01*
Y58563D01*
X252373Y58545D01*
Y58490D01*
X252391Y58399D01*
X252409Y58308D01*
X252428Y58198D01*
X252482Y57925D01*
X252537Y57597D01*
X252573Y57214D01*
X252591Y56777D01*
X252610Y56322D01*
Y56304D01*
Y56267D01*
Y56176D01*
Y56085D01*
X252591Y55957D01*
Y55812D01*
X252573Y55465D01*
X252519Y55083D01*
X252464Y54664D01*
X252373Y54245D01*
X252264Y53826D01*
Y53807D01*
X252245Y53771D01*
X252227Y53716D01*
X252209Y53643D01*
X252118Y53461D01*
X252027Y53206D01*
X251881Y52933D01*
X251735Y52641D01*
X251535Y52350D01*
X251334Y52077D01*
X251316Y52040D01*
X251243Y51967D01*
X251116Y51840D01*
X250952Y51694D01*
X250751Y51530D01*
X250533Y51366D01*
X250278Y51220D01*
X249986Y51074D01*
X249950Y51056D01*
X249858Y51020D01*
X249695Y50965D01*
X249494Y50910D01*
X249257Y50856D01*
X248984Y50801D01*
X248674Y50765D01*
X248364Y50746D01*
X248182D01*
X248000Y50765D01*
X247745Y50801D01*
X247472Y50837D01*
X247162Y50892D01*
X246852Y50983D01*
X246561Y51111D01*
X246524Y51129D01*
X246433Y51184D01*
X246287Y51275D01*
X246123Y51384D01*
X245905Y51548D01*
X245704Y51730D01*
X245486Y51949D01*
X245285Y52186D01*
X245267Y52222D01*
X245194Y52313D01*
X245103Y52459D01*
X244994Y52659D01*
X244884Y52915D01*
X244757Y53206D01*
X244648Y53534D01*
X244538Y53899D01*
Y53917D01*
X244520Y53953D01*
Y54008D01*
X244502Y54081D01*
X244484Y54172D01*
X244465Y54281D01*
X244429Y54573D01*
X244374Y54901D01*
X244338Y55301D01*
X244320Y55739D01*
X244301Y56194D01*
Y56212D01*
Y56249D01*
Y56340D01*
Y56431D01*
X244320Y56559D01*
Y56704D01*
X244338Y57032D01*
X244374Y57433D01*
X244447Y57834D01*
X244520Y58271D01*
X244629Y58672D01*
Y58690D01*
X244648Y58727D01*
X244666Y58781D01*
X244684Y58854D01*
X244757Y59036D01*
X244866Y59292D01*
X244994Y59565D01*
X245158Y59856D01*
X245340Y60130D01*
X245540Y60403D01*
X245559Y60439D01*
X245650Y60512D01*
X245759Y60640D01*
X245923Y60786D01*
X246123Y60950D01*
X246360Y61132D01*
X246615Y61278D01*
X246889Y61423D01*
X246925Y61442D01*
X247016Y61478D01*
X247180Y61533D01*
X247381Y61606D01*
X247618Y61660D01*
X247909Y61715D01*
X248200Y61751D01*
X248529Y61769D01*
X248692D01*
X248893Y61751D01*
D02*
G37*
G36*
X221180D02*
X221417Y61715D01*
X221709Y61678D01*
X222000Y61606D01*
X222310Y61514D01*
X222601Y61387D01*
X222638Y61369D01*
X222729Y61314D01*
X222875Y61223D01*
X223057Y61114D01*
X223257Y60950D01*
X223458Y60767D01*
X223676Y60549D01*
X223877Y60294D01*
X223895Y60257D01*
X223968Y60166D01*
X224059Y60020D01*
X224168Y59820D01*
X224296Y59565D01*
X224423Y59273D01*
X224533Y58945D01*
X224642Y58581D01*
Y58563D01*
X224660Y58545D01*
Y58490D01*
X224678Y58399D01*
X224697Y58308D01*
X224715Y58198D01*
X224770Y57925D01*
X224824Y57597D01*
X224861Y57214D01*
X224879Y56777D01*
X224897Y56322D01*
Y56304D01*
Y56267D01*
Y56176D01*
Y56085D01*
X224879Y55957D01*
Y55812D01*
X224861Y55465D01*
X224806Y55083D01*
X224751Y54664D01*
X224660Y54245D01*
X224551Y53826D01*
Y53807D01*
X224533Y53771D01*
X224515Y53716D01*
X224496Y53643D01*
X224405Y53461D01*
X224314Y53206D01*
X224168Y52933D01*
X224023Y52641D01*
X223822Y52350D01*
X223622Y52077D01*
X223604Y52040D01*
X223531Y51967D01*
X223403Y51840D01*
X223239Y51694D01*
X223039Y51530D01*
X222820Y51366D01*
X222565Y51220D01*
X222273Y51074D01*
X222237Y51056D01*
X222146Y51020D01*
X221982Y50965D01*
X221781Y50910D01*
X221545Y50856D01*
X221271Y50801D01*
X220962Y50765D01*
X220652Y50746D01*
X220470D01*
X220287Y50765D01*
X220032Y50801D01*
X219759Y50837D01*
X219449Y50892D01*
X219140Y50983D01*
X218848Y51111D01*
X218812Y51129D01*
X218721Y51184D01*
X218575Y51275D01*
X218411Y51384D01*
X218192Y51548D01*
X217992Y51730D01*
X217773Y51949D01*
X217573Y52186D01*
X217554Y52222D01*
X217482Y52313D01*
X217390Y52459D01*
X217281Y52659D01*
X217172Y52915D01*
X217044Y53206D01*
X216935Y53534D01*
X216826Y53899D01*
Y53917D01*
X216808Y53953D01*
Y54008D01*
X216789Y54081D01*
X216771Y54172D01*
X216753Y54281D01*
X216716Y54573D01*
X216662Y54901D01*
X216625Y55301D01*
X216607Y55739D01*
X216589Y56194D01*
Y56212D01*
Y56249D01*
Y56340D01*
Y56431D01*
X216607Y56559D01*
Y56704D01*
X216625Y57032D01*
X216662Y57433D01*
X216735Y57834D01*
X216808Y58271D01*
X216917Y58672D01*
Y58690D01*
X216935Y58727D01*
X216953Y58781D01*
X216971Y58854D01*
X217044Y59036D01*
X217154Y59292D01*
X217281Y59565D01*
X217445Y59856D01*
X217627Y60130D01*
X217828Y60403D01*
X217846Y60439D01*
X217937Y60512D01*
X218046Y60640D01*
X218210Y60786D01*
X218411Y60950D01*
X218648Y61132D01*
X218903Y61278D01*
X219176Y61423D01*
X219213Y61442D01*
X219304Y61478D01*
X219468Y61533D01*
X219668Y61606D01*
X219905Y61660D01*
X220196Y61715D01*
X220488Y61751D01*
X220816Y61769D01*
X220980D01*
X221180Y61751D01*
D02*
G37*
G36*
X138097Y59255D02*
X138297Y59237D01*
X138534Y59201D01*
X138990Y59109D01*
X139008D01*
X139099Y59073D01*
X139208Y59036D01*
X139336Y58982D01*
X139500Y58909D01*
X139664Y58818D01*
X139828Y58727D01*
X139992Y58599D01*
X140010Y58581D01*
X140065Y58545D01*
X140138Y58472D01*
X140229Y58381D01*
X140338Y58253D01*
X140447Y58107D01*
X140539Y57943D01*
X140630Y57761D01*
X140648Y57743D01*
X140666Y57670D01*
X140702Y57561D01*
X140757Y57415D01*
X140794Y57251D01*
X140830Y57032D01*
X140848Y56814D01*
X140866Y56559D01*
Y50892D01*
X139573D01*
X139536Y51985D01*
X139500Y51949D01*
X139427Y51876D01*
X139281Y51767D01*
X139117Y51621D01*
X138899Y51475D01*
X138680Y51311D01*
X138425Y51165D01*
X138170Y51038D01*
X138134Y51020D01*
X138042Y51002D01*
X137915Y50947D01*
X137733Y50892D01*
X137514Y50837D01*
X137259Y50801D01*
X137004Y50765D01*
X136712Y50746D01*
X136603D01*
X136476Y50765D01*
X136311D01*
X136111Y50783D01*
X135911Y50819D01*
X135510Y50910D01*
X135492D01*
X135437Y50947D01*
X135346Y50983D01*
X135218Y51038D01*
X134963Y51202D01*
X134690Y51402D01*
X134672Y51421D01*
X134635Y51457D01*
X134581Y51530D01*
X134508Y51621D01*
X134435Y51730D01*
X134344Y51858D01*
X134216Y52149D01*
Y52168D01*
X134198Y52222D01*
X134180Y52313D01*
X134143Y52423D01*
X134125Y52568D01*
X134089Y52732D01*
X134070Y53079D01*
Y53097D01*
Y53133D01*
Y53206D01*
X134089Y53279D01*
X134107Y53388D01*
X134125Y53516D01*
X134180Y53789D01*
X134289Y54099D01*
X134453Y54427D01*
X134562Y54591D01*
X134690Y54737D01*
X134818Y54882D01*
X134981Y55028D01*
X135000D01*
X135018Y55065D01*
X135073Y55101D01*
X135164Y55137D01*
X135255Y55192D01*
X135364Y55247D01*
X135510Y55320D01*
X135674Y55392D01*
X135856Y55447D01*
X136056Y55520D01*
X136275Y55575D01*
X136530Y55629D01*
X136785Y55666D01*
X137077Y55702D01*
X137387Y55739D01*
X139427D01*
Y56449D01*
Y56486D01*
Y56577D01*
X139409Y56704D01*
X139373Y56868D01*
X139318Y57051D01*
X139227Y57251D01*
X139117Y57433D01*
X138953Y57615D01*
X138935Y57634D01*
X138862Y57688D01*
X138753Y57761D01*
X138607Y57834D01*
X138407Y57907D01*
X138152Y57980D01*
X137860Y58034D01*
X137532Y58053D01*
X137277D01*
X137095Y58034D01*
X136876Y58016D01*
X136658Y57980D01*
X136147Y57889D01*
X136111D01*
X136038Y57852D01*
X135892Y57816D01*
X135729Y57779D01*
X135510Y57706D01*
X135273Y57634D01*
X135018Y57543D01*
X134763Y57451D01*
Y58745D01*
X134781D01*
X134818Y58763D01*
X134854Y58781D01*
X134927Y58800D01*
X135109Y58854D01*
X135346Y58927D01*
X135364D01*
X135400Y58945D01*
X135473Y58964D01*
X135564Y58982D01*
X135801Y59036D01*
X136056Y59091D01*
X136075D01*
X136129Y59109D01*
X136202Y59128D01*
X136293Y59146D01*
X136403Y59164D01*
X136530Y59182D01*
X136822Y59219D01*
X136840D01*
X136895Y59237D01*
X136967D01*
X137077Y59255D01*
X137204D01*
X137332Y59273D01*
X137915D01*
X138097Y59255D01*
D02*
G37*
G36*
X211524Y61587D02*
X211742Y61569D01*
X212016Y61533D01*
X212307Y61460D01*
X212635Y61387D01*
X212963Y61278D01*
X213291Y61150D01*
X213619Y60968D01*
X213911Y60767D01*
X214184Y60512D01*
X214402Y60203D01*
X214585Y59856D01*
X214694Y59456D01*
X214712Y59237D01*
X214730Y59000D01*
Y58982D01*
Y58964D01*
Y58854D01*
X214712Y58690D01*
X214676Y58490D01*
X214621Y58253D01*
X214548Y57998D01*
X214457Y57743D01*
X214311Y57506D01*
X214293Y57488D01*
X214238Y57397D01*
X214129Y57287D01*
X214002Y57160D01*
X213819Y57014D01*
X213582Y56850D01*
X213309Y56704D01*
X212981Y56577D01*
X213000D01*
X213054Y56559D01*
X213145Y56540D01*
X213255Y56522D01*
X213510Y56431D01*
X213801Y56304D01*
X213819D01*
X213874Y56267D01*
X213947Y56231D01*
X214038Y56158D01*
X214257Y56012D01*
X214475Y55793D01*
X214493Y55775D01*
X214530Y55739D01*
X214585Y55666D01*
X214639Y55593D01*
X214712Y55484D01*
X214785Y55356D01*
X214931Y55046D01*
Y55028D01*
X214967Y54974D01*
X214985Y54882D01*
X215022Y54773D01*
X215058Y54627D01*
X215077Y54463D01*
X215113Y54099D01*
Y54062D01*
Y53971D01*
X215095Y53826D01*
X215077Y53625D01*
X215040Y53425D01*
X214985Y53188D01*
X214913Y52951D01*
X214803Y52714D01*
X214785Y52696D01*
X214749Y52623D01*
X214676Y52514D01*
X214585Y52368D01*
X214475Y52222D01*
X214330Y52040D01*
X214166Y51876D01*
X213965Y51712D01*
X213947Y51694D01*
X213874Y51639D01*
X213747Y51566D01*
X213601Y51493D01*
X213400Y51384D01*
X213182Y51275D01*
X212927Y51184D01*
X212635Y51093D01*
X212599D01*
X212508Y51056D01*
X212344Y51038D01*
X212143Y51002D01*
X211888Y50965D01*
X211596Y50929D01*
X211269Y50910D01*
X210922Y50892D01*
X208171D01*
Y61606D01*
X211342D01*
X211524Y61587D01*
D02*
G37*
G36*
X233880Y60367D02*
X230709D01*
Y50892D01*
X229234D01*
Y60367D01*
X226063D01*
Y61606D01*
X233880D01*
Y60367D01*
D02*
G37*
G36*
X243117D02*
X239947D01*
Y50892D01*
X238471D01*
Y60367D01*
X235301D01*
Y61606D01*
X243117D01*
Y60367D01*
D02*
G37*
G36*
X184321Y61751D02*
X184558Y61733D01*
X184795Y61697D01*
X185050Y61642D01*
X185287Y61587D01*
X185323D01*
X185396Y61551D01*
X185505Y61514D01*
X185651Y61460D01*
X185815Y61387D01*
X185979Y61296D01*
X186161Y61186D01*
X186325Y61077D01*
X186344Y61059D01*
X186398Y61023D01*
X186471Y60950D01*
X186581Y60859D01*
X186672Y60731D01*
X186781Y60603D01*
X186890Y60439D01*
X186981Y60276D01*
X186999Y60257D01*
X187018Y60203D01*
X187054Y60093D01*
X187091Y59984D01*
X187127Y59820D01*
X187163Y59638D01*
X187200Y59456D01*
Y59237D01*
Y59219D01*
Y59201D01*
Y59146D01*
Y59091D01*
X187182Y58909D01*
X187127Y58690D01*
X187072Y58435D01*
X186981Y58180D01*
X186854Y57907D01*
X186672Y57652D01*
X186653Y57615D01*
X186581Y57543D01*
X186453Y57415D01*
X186289Y57269D01*
X186089Y57087D01*
X185834Y56887D01*
X185524Y56686D01*
X185196Y56504D01*
X185214Y56486D01*
X185269Y56467D01*
X185360Y56413D01*
X185487Y56358D01*
X185615Y56267D01*
X185761Y56176D01*
X186070Y55976D01*
X186089Y55957D01*
X186143Y55921D01*
X186216Y55866D01*
X186325Y55793D01*
X186544Y55593D01*
X186781Y55338D01*
X186799Y55320D01*
X186836Y55283D01*
X186890Y55210D01*
X186963Y55119D01*
X187036Y54992D01*
X187109Y54864D01*
X187255Y54554D01*
Y54536D01*
X187291Y54482D01*
X187309Y54390D01*
X187346Y54263D01*
X187382Y54135D01*
X187400Y53971D01*
X187437Y53589D01*
Y53552D01*
Y53479D01*
X187419Y53334D01*
X187400Y53170D01*
X187364Y52987D01*
X187309Y52787D01*
X187236Y52568D01*
X187145Y52368D01*
X187127Y52350D01*
X187091Y52277D01*
X187036Y52186D01*
X186945Y52058D01*
X186836Y51912D01*
X186708Y51767D01*
X186544Y51621D01*
X186362Y51475D01*
X186344Y51457D01*
X186271Y51421D01*
X186161Y51348D01*
X186034Y51275D01*
X185852Y51184D01*
X185651Y51093D01*
X185433Y51002D01*
X185178Y50929D01*
X185141D01*
X185068Y50892D01*
X184923Y50874D01*
X184740Y50837D01*
X184522Y50801D01*
X184285Y50783D01*
X184011Y50746D01*
X183574D01*
X183410Y50765D01*
X183192D01*
X182955Y50783D01*
X182700Y50819D01*
X182426Y50874D01*
X182171Y50929D01*
X182135Y50947D01*
X182062Y50965D01*
X181934Y51020D01*
X181770Y51074D01*
X181606Y51147D01*
X181406Y51238D01*
X181224Y51348D01*
X181042Y51475D01*
X181023Y51493D01*
X180969Y51548D01*
X180896Y51621D01*
X180787Y51712D01*
X180677Y51840D01*
X180568Y51985D01*
X180459Y52149D01*
X180368Y52313D01*
Y52332D01*
X180331Y52404D01*
X180295Y52496D01*
X180258Y52641D01*
X180222Y52787D01*
X180185Y52969D01*
X180167Y53170D01*
X180149Y53388D01*
Y53407D01*
Y53425D01*
Y53479D01*
X180167Y53552D01*
X180185Y53734D01*
X180222Y53971D01*
X180276Y54226D01*
X180386Y54518D01*
X180513Y54809D01*
X180695Y55083D01*
X180714Y55119D01*
X180805Y55210D01*
X180932Y55338D01*
X181114Y55520D01*
X181351Y55721D01*
X181643Y55939D01*
X181989Y56176D01*
X182390Y56395D01*
X182372D01*
X182353Y56413D01*
X182299Y56449D01*
X182226Y56486D01*
X182044Y56595D01*
X181807Y56741D01*
X181552Y56923D01*
X181315Y57123D01*
X181060Y57342D01*
X180859Y57579D01*
X180841Y57615D01*
X180787Y57688D01*
X180714Y57834D01*
X180622Y58016D01*
X180531Y58235D01*
X180459Y58490D01*
X180404Y58763D01*
X180386Y59073D01*
Y59091D01*
Y59164D01*
X180404Y59255D01*
Y59383D01*
X180440Y59547D01*
X180477Y59711D01*
X180513Y59875D01*
X180586Y60057D01*
X180604Y60075D01*
X180622Y60148D01*
X180677Y60239D01*
X180750Y60348D01*
X180841Y60494D01*
X180950Y60640D01*
X181078Y60786D01*
X181224Y60931D01*
X181242Y60950D01*
X181297Y61004D01*
X181388Y61059D01*
X181515Y61150D01*
X181679Y61241D01*
X181861Y61351D01*
X182062Y61442D01*
X182299Y61533D01*
X182335Y61551D01*
X182408Y61569D01*
X182554Y61606D01*
X182736Y61660D01*
X182955Y61697D01*
X183228Y61733D01*
X183519Y61751D01*
X183829Y61769D01*
X184121D01*
X184321Y61751D01*
D02*
G37*
G36*
X204746Y62243D02*
X204709Y62207D01*
X204618Y62098D01*
X204454Y61933D01*
X204254Y61697D01*
X203999Y61405D01*
X203744Y61059D01*
X203452Y60640D01*
X203161Y60203D01*
X202851Y59711D01*
X202559Y59164D01*
X202304Y58599D01*
X202049Y57980D01*
X201849Y57342D01*
X201703Y56686D01*
X201594Y55994D01*
X201575Y55648D01*
X201557Y55283D01*
Y55265D01*
Y55192D01*
Y55101D01*
X201575Y54955D01*
Y54791D01*
X201594Y54591D01*
X201630Y54372D01*
X201667Y54117D01*
X201703Y53844D01*
X201758Y53570D01*
X201904Y52951D01*
X202104Y52295D01*
X202213Y51967D01*
X202359Y51639D01*
X202377Y51621D01*
X202395Y51566D01*
X202450Y51475D01*
X202505Y51348D01*
X202596Y51184D01*
X202705Y51002D01*
X202815Y50801D01*
X202960Y50564D01*
X203124Y50327D01*
X203288Y50072D01*
X203489Y49799D01*
X203707Y49507D01*
X203944Y49216D01*
X204181Y48924D01*
X204454Y48633D01*
X204746Y48341D01*
X203871Y47449D01*
X203853Y47467D01*
X203835Y47485D01*
X203780Y47540D01*
X203707Y47613D01*
X203616Y47704D01*
X203525Y47795D01*
X203288Y48068D01*
X202997Y48396D01*
X202687Y48779D01*
X202341Y49234D01*
X201995Y49726D01*
X201630Y50273D01*
X201302Y50874D01*
X200974Y51512D01*
X200683Y52186D01*
X200446Y52896D01*
X200264Y53625D01*
X200191Y54008D01*
X200136Y54390D01*
X200118Y54773D01*
X200100Y55174D01*
Y55192D01*
Y55229D01*
Y55265D01*
Y55338D01*
X200118Y55538D01*
Y55793D01*
X200154Y56103D01*
X200191Y56431D01*
X200227Y56796D01*
X200300Y57160D01*
Y57178D01*
X200318Y57196D01*
Y57251D01*
X200337Y57324D01*
X200391Y57524D01*
X200464Y57779D01*
X200537Y58071D01*
X200646Y58399D01*
X200792Y58763D01*
X200938Y59128D01*
Y59146D01*
X200956Y59182D01*
X200992Y59219D01*
X201029Y59292D01*
X201120Y59492D01*
X201266Y59747D01*
X201430Y60057D01*
X201630Y60385D01*
X201867Y60749D01*
X202122Y61114D01*
Y61132D01*
X202159Y61168D01*
X202195Y61205D01*
X202250Y61278D01*
X202414Y61478D01*
X202614Y61733D01*
X202887Y62043D01*
X203179Y62371D01*
X203525Y62735D01*
X203908Y63100D01*
X204746Y62243D01*
D02*
G37*
G36*
X166757Y59255D02*
X166848D01*
X166976Y59237D01*
X167267Y59164D01*
X167577Y59073D01*
X167887Y58927D01*
X168196Y58709D01*
X168342Y58581D01*
X168470Y58435D01*
X168506Y58399D01*
X168525Y58344D01*
X168579Y58289D01*
X168616Y58198D01*
X168670Y58089D01*
X168743Y57961D01*
X168798Y57816D01*
X168852Y57652D01*
X168907Y57488D01*
X168962Y57287D01*
X169016Y57069D01*
X169053Y56814D01*
X169071Y56559D01*
X169089Y56285D01*
Y55994D01*
X167650D01*
Y56012D01*
Y56049D01*
Y56103D01*
Y56176D01*
X167632Y56358D01*
X167613Y56577D01*
X167577Y56832D01*
X167522Y57087D01*
X167431Y57342D01*
X167322Y57543D01*
X167304Y57561D01*
X167267Y57615D01*
X167176Y57706D01*
X167067Y57798D01*
X166921Y57871D01*
X166757Y57961D01*
X166557Y58016D01*
X166320Y58034D01*
X166210D01*
X166156Y58016D01*
X165974Y57998D01*
X165755Y57925D01*
X165737D01*
X165700Y57907D01*
X165646Y57889D01*
X165573Y57852D01*
X165372Y57743D01*
X165154Y57597D01*
X165136Y57579D01*
X165099Y57561D01*
X165044Y57506D01*
X164953Y57451D01*
X164753Y57251D01*
X164498Y57014D01*
X164480Y56996D01*
X164443Y56959D01*
X164370Y56887D01*
X164279Y56777D01*
X164170Y56650D01*
X164042Y56522D01*
X163915Y56358D01*
X163769Y56176D01*
Y50892D01*
X162330D01*
Y59128D01*
X163623D01*
X163660Y57597D01*
Y57615D01*
X163696Y57634D01*
X163787Y57743D01*
X163933Y57889D01*
X164115Y58089D01*
X164334Y58289D01*
X164571Y58508D01*
X164826Y58709D01*
X165099Y58873D01*
X165136Y58891D01*
X165227Y58927D01*
X165354Y59000D01*
X165555Y59073D01*
X165755Y59146D01*
X166010Y59219D01*
X166265Y59255D01*
X166539Y59273D01*
X166666D01*
X166757Y59255D01*
D02*
G37*
G36*
X360176Y-312719D02*
X361899Y-313227D01*
X363532Y-313977D01*
X365040Y-314952D01*
X366394Y-316132D01*
X367565Y-317495D01*
X368529Y-319010D01*
X369267Y-320648D01*
X369762Y-322374D01*
X370007Y-324154D01*
X369994Y-325950D01*
X369724Y-327726D01*
X369203Y-329445D01*
X368442Y-331072D01*
X367457Y-332574D01*
X366266Y-333919D01*
X364896Y-335080D01*
X363373Y-336033D01*
X361730Y-336759D01*
X360865Y-337001D01*
Y-337001D01*
X327500D01*
Y-312462D01*
X358399D01*
X360176Y-312719D01*
D02*
G37*
G36*
X265309Y63081D02*
X265327Y63063D01*
X265382Y63008D01*
X265455Y62936D01*
X265546Y62845D01*
X265637Y62753D01*
X265892Y62480D01*
X266165Y62152D01*
X266493Y61769D01*
X266840Y61314D01*
X267186Y60804D01*
X267532Y60257D01*
X267878Y59656D01*
X268206Y59000D01*
X268498Y58326D01*
X268735Y57615D01*
X268917Y56868D01*
X268989Y56486D01*
X269044Y56103D01*
X269062Y55702D01*
X269081Y55301D01*
Y55283D01*
Y55265D01*
Y55210D01*
Y55156D01*
Y54974D01*
X269062Y54737D01*
X269044Y54463D01*
X269008Y54154D01*
X268953Y53807D01*
X268898Y53461D01*
Y53443D01*
Y53425D01*
X268880Y53370D01*
X268862Y53297D01*
X268826Y53115D01*
X268753Y52860D01*
X268662Y52568D01*
X268552Y52241D01*
X268425Y51894D01*
X268279Y51530D01*
Y51512D01*
X268261Y51493D01*
X268243Y51439D01*
X268206Y51366D01*
X268097Y51165D01*
X267969Y50910D01*
X267805Y50601D01*
X267587Y50273D01*
X267368Y49908D01*
X267095Y49526D01*
Y49507D01*
X267058Y49471D01*
X267022Y49416D01*
X266967Y49343D01*
X266894Y49252D01*
X266803Y49143D01*
X266584Y48870D01*
X266329Y48560D01*
X266020Y48214D01*
X265655Y47831D01*
X265254Y47449D01*
X264435Y48305D01*
X264453Y48323D01*
X264507Y48378D01*
X264580Y48469D01*
X264690Y48578D01*
X264835Y48724D01*
X264981Y48906D01*
X265145Y49088D01*
X265327Y49307D01*
X265510Y49544D01*
X265710Y49799D01*
X266111Y50364D01*
X266475Y50965D01*
X266639Y51293D01*
X266803Y51603D01*
X266821Y51621D01*
X266840Y51676D01*
X266876Y51767D01*
X266931Y51894D01*
X266985Y52058D01*
X267058Y52241D01*
X267131Y52459D01*
X267204Y52696D01*
X267277Y52951D01*
X267350Y53224D01*
X267477Y53844D01*
X267568Y54500D01*
X267605Y54846D01*
Y55192D01*
Y55210D01*
Y55229D01*
Y55283D01*
Y55374D01*
X267587Y55465D01*
Y55575D01*
X267550Y55848D01*
X267514Y56194D01*
X267441Y56595D01*
X267332Y57032D01*
X267204Y57524D01*
X267040Y58053D01*
X266840Y58618D01*
X266566Y59201D01*
X266275Y59802D01*
X265910Y60403D01*
X265473Y61004D01*
X264999Y61624D01*
X264726Y61915D01*
X264435Y62207D01*
X265291Y63100D01*
X265309Y63081D01*
D02*
G37*
G36*
X148045Y51767D02*
Y51749D01*
X148027Y51712D01*
X148009Y51657D01*
X147972Y51585D01*
X147881Y51366D01*
X147772Y51111D01*
X147626Y50819D01*
X147480Y50491D01*
X147316Y50163D01*
X147134Y49854D01*
X147116Y49817D01*
X147061Y49726D01*
X146970Y49562D01*
X146843Y49380D01*
X146697Y49161D01*
X146515Y48943D01*
X146333Y48724D01*
X146132Y48505D01*
X146114Y48487D01*
X146041Y48414D01*
X145932Y48323D01*
X145786Y48214D01*
X145604Y48086D01*
X145403Y47959D01*
X145166Y47850D01*
X144930Y47740D01*
X144893Y47722D01*
X144820Y47704D01*
X144675Y47667D01*
X144492Y47613D01*
X144274Y47558D01*
X144037Y47521D01*
X143745Y47503D01*
X143454Y47485D01*
X143199D01*
X143053Y47503D01*
X142834D01*
X142689Y47521D01*
Y48815D01*
X142725D01*
X142798Y48797D01*
X142925D01*
X143071Y48779D01*
X143108D01*
X143217Y48760D01*
X143363Y48742D01*
X143672D01*
X143763Y48760D01*
X144019Y48797D01*
X144274Y48870D01*
X144292D01*
X144328Y48888D01*
X144401Y48924D01*
X144492Y48961D01*
X144693Y49070D01*
X144911Y49234D01*
X144930Y49252D01*
X144966Y49289D01*
X145021Y49343D01*
X145094Y49416D01*
X145185Y49507D01*
X145294Y49635D01*
X145494Y49908D01*
X145513Y49926D01*
X145549Y49981D01*
X145604Y50072D01*
X145677Y50182D01*
X145749Y50327D01*
X145841Y50510D01*
X145950Y50692D01*
X146041Y50892D01*
X142761Y59128D01*
X144383D01*
X146460Y53662D01*
X146879Y52386D01*
X147353Y53698D01*
X149284Y59128D01*
X150851D01*
X148045Y51767D01*
D02*
G37*
G36*
X156463Y59255D02*
X156663Y59237D01*
X156900Y59201D01*
X157155Y59164D01*
X157410Y59091D01*
X157665Y59000D01*
X157702Y58982D01*
X157775Y58945D01*
X157902Y58891D01*
X158066Y58800D01*
X158230Y58690D01*
X158431Y58563D01*
X158613Y58399D01*
X158795Y58217D01*
X158813Y58198D01*
X158868Y58126D01*
X158959Y58016D01*
X159050Y57889D01*
X159159Y57706D01*
X159287Y57506D01*
X159396Y57269D01*
X159487Y57014D01*
X159506Y56978D01*
X159524Y56887D01*
X159560Y56741D01*
X159615Y56559D01*
X159651Y56322D01*
X159688Y56067D01*
X159706Y55775D01*
X159724Y55447D01*
Y55429D01*
Y55392D01*
Y55338D01*
Y55265D01*
Y55101D01*
X159706Y54919D01*
Y54882D01*
Y54791D01*
Y54682D01*
X159688Y54554D01*
X153912D01*
Y54536D01*
Y54500D01*
Y54427D01*
X153930Y54354D01*
Y54245D01*
X153948Y54117D01*
X154003Y53826D01*
X154076Y53516D01*
X154203Y53188D01*
X154367Y52878D01*
X154604Y52605D01*
X154641Y52568D01*
X154732Y52496D01*
X154896Y52386D01*
X155133Y52277D01*
X155424Y52149D01*
X155771Y52040D01*
X156171Y51967D01*
X156645Y51931D01*
X157100D01*
X157356Y51949D01*
X157410D01*
X157483Y51967D01*
X157574D01*
X157811Y52004D01*
X158048Y52022D01*
X158066D01*
X158103Y52040D01*
X158176D01*
X158267Y52058D01*
X158467Y52095D01*
X158704Y52131D01*
X158722D01*
X158758Y52149D01*
X158813Y52168D01*
X158886Y52186D01*
X159087Y52222D01*
X159287Y52277D01*
Y51111D01*
X159269D01*
X159178Y51093D01*
X159068Y51056D01*
X158904Y51020D01*
X158704Y50983D01*
X158485Y50929D01*
X158230Y50892D01*
X157957Y50856D01*
X157920D01*
X157829Y50837D01*
X157684Y50819D01*
X157501Y50801D01*
X157264Y50783D01*
X157009Y50765D01*
X156736Y50746D01*
X156262D01*
X156062Y50765D01*
X155825Y50783D01*
X155534Y50819D01*
X155224Y50856D01*
X154914Y50929D01*
X154623Y51020D01*
X154586Y51038D01*
X154495Y51074D01*
X154349Y51147D01*
X154185Y51238D01*
X153985Y51348D01*
X153766Y51493D01*
X153566Y51657D01*
X153365Y51858D01*
X153347Y51876D01*
X153293Y51949D01*
X153201Y52077D01*
X153092Y52222D01*
X152965Y52423D01*
X152855Y52641D01*
X152728Y52915D01*
X152637Y53188D01*
Y53206D01*
Y53224D01*
X152600Y53334D01*
X152564Y53498D01*
X152527Y53716D01*
X152491Y53990D01*
X152454Y54281D01*
X152436Y54627D01*
X152418Y54992D01*
Y55010D01*
Y55028D01*
Y55137D01*
X152436Y55301D01*
X152454Y55520D01*
X152473Y55757D01*
X152527Y56030D01*
X152582Y56322D01*
X152655Y56613D01*
Y56631D01*
X152673Y56650D01*
X152709Y56741D01*
X152764Y56887D01*
X152837Y57087D01*
X152946Y57287D01*
X153074Y57524D01*
X153220Y57761D01*
X153384Y57980D01*
X153402Y57998D01*
X153475Y58071D01*
X153584Y58180D01*
X153712Y58326D01*
X153894Y58472D01*
X154094Y58636D01*
X154313Y58781D01*
X154568Y58927D01*
X154604Y58945D01*
X154695Y58982D01*
X154841Y59036D01*
X155023Y59109D01*
X155260Y59164D01*
X155534Y59219D01*
X155825Y59255D01*
X156153Y59273D01*
X156299D01*
X156463Y59255D01*
D02*
G37*
G36*
X261902Y50892D02*
X260481D01*
X260262Y57579D01*
X260171Y60130D01*
X259661Y58654D01*
X258076Y54390D01*
X257074D01*
X255561Y58490D01*
X255069Y60130D01*
X255033Y57470D01*
X254851Y50892D01*
X253466D01*
X253994Y61606D01*
X255725D01*
X257165Y57561D01*
X257639Y56194D01*
X258076Y57561D01*
X259606Y61606D01*
X261392D01*
X261902Y50892D01*
D02*
G37*
%LPC*%
G36*
X248437Y60494D02*
X248328D01*
X248182Y60476D01*
X248018Y60458D01*
X247836Y60403D01*
X247618Y60348D01*
X247417Y60257D01*
X247217Y60148D01*
X247198Y60130D01*
X247144Y60093D01*
X247053Y60020D01*
X246925Y59911D01*
X246798Y59784D01*
X246670Y59620D01*
X246524Y59437D01*
X246397Y59237D01*
X246378Y59219D01*
X246342Y59146D01*
X246287Y59018D01*
X246215Y58854D01*
X246142Y58672D01*
X246051Y58435D01*
X245978Y58180D01*
X245905Y57907D01*
Y57871D01*
X245887Y57779D01*
X245868Y57615D01*
X245832Y57415D01*
X245814Y57178D01*
X245777Y56905D01*
X245759Y56595D01*
Y56285D01*
Y56267D01*
Y56249D01*
Y56194D01*
Y56121D01*
Y55939D01*
X245777Y55721D01*
X245795Y55447D01*
X245814Y55156D01*
X245905Y54536D01*
Y54500D01*
X245941Y54409D01*
X245959Y54263D01*
X246014Y54081D01*
X246087Y53862D01*
X246160Y53643D01*
X246251Y53407D01*
X246360Y53188D01*
X246378Y53170D01*
X246415Y53097D01*
X246488Y53006D01*
X246597Y52878D01*
X246707Y52732D01*
X246852Y52605D01*
X247016Y52459D01*
X247198Y52332D01*
X247217Y52313D01*
X247289Y52277D01*
X247399Y52241D01*
X247545Y52186D01*
X247727Y52113D01*
X247945Y52077D01*
X248182Y52040D01*
X248437Y52022D01*
X248565D01*
X248692Y52040D01*
X248856Y52058D01*
X249057Y52095D01*
X249257Y52168D01*
X249458Y52241D01*
X249658Y52350D01*
X249676Y52368D01*
X249749Y52404D01*
X249840Y52477D01*
X249950Y52587D01*
X250095Y52714D01*
X250223Y52860D01*
X250369Y53042D01*
X250496Y53243D01*
X250515Y53261D01*
X250551Y53352D01*
X250606Y53461D01*
X250678Y53625D01*
X250769Y53826D01*
X250842Y54044D01*
X250915Y54299D01*
X250988Y54573D01*
Y54609D01*
X251006Y54700D01*
X251043Y54864D01*
X251079Y55065D01*
X251097Y55301D01*
X251134Y55593D01*
X251152Y55884D01*
Y56212D01*
Y56231D01*
Y56249D01*
Y56304D01*
Y56376D01*
Y56559D01*
X251134Y56777D01*
X251116Y57051D01*
X251079Y57342D01*
X250988Y57943D01*
Y57961D01*
Y57980D01*
X250970Y58071D01*
X250934Y58217D01*
X250879Y58399D01*
X250806Y58618D01*
X250733Y58836D01*
X250624Y59073D01*
X250515Y59292D01*
X250496Y59310D01*
X250460Y59383D01*
X250387Y59492D01*
X250296Y59620D01*
X250168Y59747D01*
X250023Y59893D01*
X249858Y60039D01*
X249676Y60166D01*
X249658Y60184D01*
X249585Y60221D01*
X249476Y60276D01*
X249330Y60330D01*
X249148Y60385D01*
X248948Y60439D01*
X248692Y60476D01*
X248437Y60494D01*
D02*
G37*
G36*
X220725D02*
X220615D01*
X220470Y60476D01*
X220306Y60458D01*
X220124Y60403D01*
X219905Y60348D01*
X219704Y60257D01*
X219504Y60148D01*
X219486Y60130D01*
X219431Y60093D01*
X219340Y60020D01*
X219213Y59911D01*
X219085Y59784D01*
X218957Y59620D01*
X218812Y59437D01*
X218684Y59237D01*
X218666Y59219D01*
X218630Y59146D01*
X218575Y59018D01*
X218502Y58854D01*
X218429Y58672D01*
X218338Y58435D01*
X218265Y58180D01*
X218192Y57907D01*
Y57871D01*
X218174Y57779D01*
X218156Y57615D01*
X218119Y57415D01*
X218101Y57178D01*
X218065Y56905D01*
X218046Y56595D01*
Y56285D01*
Y56267D01*
Y56249D01*
Y56194D01*
Y56121D01*
Y55939D01*
X218065Y55721D01*
X218083Y55447D01*
X218101Y55156D01*
X218192Y54536D01*
Y54500D01*
X218229Y54409D01*
X218247Y54263D01*
X218302Y54081D01*
X218374Y53862D01*
X218447Y53643D01*
X218538Y53407D01*
X218648Y53188D01*
X218666Y53170D01*
X218702Y53097D01*
X218775Y53006D01*
X218884Y52878D01*
X218994Y52732D01*
X219140Y52605D01*
X219304Y52459D01*
X219486Y52332D01*
X219504Y52313D01*
X219577Y52277D01*
X219686Y52241D01*
X219832Y52186D01*
X220014Y52113D01*
X220233Y52077D01*
X220470Y52040D01*
X220725Y52022D01*
X220852D01*
X220980Y52040D01*
X221144Y52058D01*
X221344Y52095D01*
X221545Y52168D01*
X221745Y52241D01*
X221946Y52350D01*
X221964Y52368D01*
X222037Y52404D01*
X222128Y52477D01*
X222237Y52587D01*
X222383Y52714D01*
X222510Y52860D01*
X222656Y53042D01*
X222784Y53243D01*
X222802Y53261D01*
X222838Y53352D01*
X222893Y53461D01*
X222966Y53625D01*
X223057Y53826D01*
X223130Y54044D01*
X223203Y54299D01*
X223276Y54573D01*
Y54609D01*
X223294Y54700D01*
X223330Y54864D01*
X223367Y55065D01*
X223385Y55301D01*
X223421Y55593D01*
X223440Y55884D01*
Y56212D01*
Y56231D01*
Y56249D01*
Y56304D01*
Y56376D01*
Y56559D01*
X223421Y56777D01*
X223403Y57051D01*
X223367Y57342D01*
X223276Y57943D01*
Y57961D01*
Y57980D01*
X223257Y58071D01*
X223221Y58217D01*
X223166Y58399D01*
X223093Y58618D01*
X223021Y58836D01*
X222911Y59073D01*
X222802Y59292D01*
X222784Y59310D01*
X222747Y59383D01*
X222674Y59492D01*
X222583Y59620D01*
X222456Y59747D01*
X222310Y59893D01*
X222146Y60039D01*
X221964Y60166D01*
X221946Y60184D01*
X221873Y60221D01*
X221763Y60276D01*
X221618Y60330D01*
X221435Y60385D01*
X221235Y60439D01*
X220980Y60476D01*
X220725Y60494D01*
D02*
G37*
G36*
X139427Y54646D02*
X137423D01*
X137295Y54627D01*
X137004Y54609D01*
X136694Y54536D01*
X136676D01*
X136639Y54518D01*
X136567Y54500D01*
X136476Y54463D01*
X136257Y54354D01*
X136056Y54226D01*
X136038D01*
X136020Y54190D01*
X135929Y54099D01*
X135801Y53935D01*
X135692Y53753D01*
Y53734D01*
X135674Y53698D01*
X135656Y53643D01*
X135637Y53570D01*
X135601Y53370D01*
X135583Y53133D01*
Y53115D01*
Y53097D01*
X135601Y52987D01*
X135619Y52842D01*
X135656Y52678D01*
Y52659D01*
X135674Y52641D01*
X135710Y52550D01*
X135783Y52423D01*
X135892Y52277D01*
X135929Y52259D01*
X136002Y52186D01*
X136147Y52095D01*
X136311Y52022D01*
X136330D01*
X136366Y52004D01*
X136421Y51985D01*
X136494D01*
X136694Y51949D01*
X136949Y51931D01*
X137040D01*
X137131Y51949D01*
X137277Y51967D01*
X137441Y52004D01*
X137642Y52058D01*
X137842Y52131D01*
X138079Y52222D01*
X138115Y52241D01*
X138188Y52277D01*
X138316Y52350D01*
X138480Y52459D01*
X138680Y52587D01*
X138917Y52751D01*
X139172Y52933D01*
X139427Y53170D01*
Y54646D01*
D02*
G37*
G36*
X211323Y55812D02*
X209629D01*
Y52131D01*
X211360D01*
X211469Y52149D01*
X211596D01*
X211870Y52186D01*
X212180Y52241D01*
X212489Y52332D01*
X212781Y52441D01*
X213036Y52587D01*
X213054Y52605D01*
X213127Y52678D01*
X213236Y52787D01*
X213346Y52951D01*
X213455Y53152D01*
X213564Y53407D01*
X213637Y53698D01*
X213655Y54044D01*
Y54062D01*
Y54117D01*
Y54190D01*
X213637Y54281D01*
X213582Y54518D01*
X213473Y54773D01*
Y54791D01*
X213437Y54828D01*
X213400Y54882D01*
X213346Y54974D01*
X213200Y55137D01*
X212981Y55320D01*
X212963Y55338D01*
X212927Y55356D01*
X212854Y55411D01*
X212763Y55447D01*
X212635Y55520D01*
X212508Y55575D01*
X212180Y55684D01*
X212161D01*
X212088Y55702D01*
X211997Y55721D01*
X211870Y55757D01*
X211706Y55775D01*
X211524Y55793D01*
X211323Y55812D01*
D02*
G37*
G36*
X211342Y60367D02*
X209629D01*
Y57032D01*
X211250D01*
X211360Y57051D01*
X211505D01*
X211651Y57069D01*
X211961Y57123D01*
X211979D01*
X212034Y57142D01*
X212107Y57178D01*
X212198Y57214D01*
X212416Y57306D01*
X212653Y57451D01*
X212671Y57470D01*
X212708Y57488D01*
X212817Y57597D01*
X212963Y57779D01*
X213109Y57998D01*
Y58016D01*
X213127Y58053D01*
X213163Y58126D01*
X213200Y58235D01*
X213218Y58344D01*
X213255Y58490D01*
X213273Y58800D01*
Y58818D01*
Y58854D01*
Y58909D01*
X213255Y59000D01*
X213236Y59182D01*
X213163Y59401D01*
Y59419D01*
X213145Y59456D01*
X213127Y59510D01*
X213091Y59565D01*
X212981Y59729D01*
X212817Y59893D01*
X212799Y59911D01*
X212781Y59929D01*
X212726Y59966D01*
X212653Y60020D01*
X212562Y60075D01*
X212435Y60130D01*
X212307Y60184D01*
X212161Y60239D01*
X212143D01*
X212088Y60257D01*
X211997Y60276D01*
X211870Y60312D01*
X211724Y60330D01*
X211542Y60348D01*
X211342Y60367D01*
D02*
G37*
G36*
X183793Y60585D02*
X183647D01*
X183483Y60567D01*
X183283Y60549D01*
X183046Y60494D01*
X182809Y60439D01*
X182572Y60348D01*
X182372Y60221D01*
X182353Y60203D01*
X182299Y60148D01*
X182208Y60075D01*
X182117Y59966D01*
X182026Y59802D01*
X181934Y59620D01*
X181880Y59401D01*
X181861Y59146D01*
Y59128D01*
Y59091D01*
Y59036D01*
X181880Y58964D01*
X181916Y58763D01*
X181971Y58563D01*
Y58545D01*
X181989Y58526D01*
X182062Y58399D01*
X182190Y58253D01*
X182353Y58071D01*
X182372Y58053D01*
X182408Y58034D01*
X182463Y57980D01*
X182536Y57925D01*
X182736Y57779D01*
X182991Y57597D01*
X183009Y57579D01*
X183064Y57561D01*
X183137Y57506D01*
X183246Y57451D01*
X183392Y57379D01*
X183538Y57306D01*
X183720Y57233D01*
X183920Y57142D01*
X183939D01*
X183957Y57160D01*
X184066Y57214D01*
X184230Y57306D01*
X184431Y57415D01*
X184649Y57543D01*
X184886Y57688D01*
X185105Y57852D01*
X185287Y58034D01*
X185305Y58053D01*
X185360Y58126D01*
X185433Y58217D01*
X185524Y58344D01*
X185597Y58508D01*
X185670Y58690D01*
X185724Y58909D01*
X185742Y59128D01*
Y59164D01*
Y59255D01*
X185724Y59383D01*
X185670Y59547D01*
X185615Y59711D01*
X185524Y59893D01*
X185396Y60075D01*
X185214Y60221D01*
X185196Y60239D01*
X185123Y60276D01*
X185014Y60330D01*
X184850Y60403D01*
X184649Y60476D01*
X184394Y60531D01*
X184121Y60567D01*
X183793Y60585D01*
D02*
G37*
G36*
X183665Y55775D02*
X183647Y55757D01*
X183574Y55721D01*
X183465Y55666D01*
X183337Y55611D01*
X183046Y55429D01*
X182736Y55229D01*
X182718Y55210D01*
X182681Y55174D01*
X182608Y55119D01*
X182517Y55065D01*
X182317Y54882D01*
X182117Y54682D01*
X182098Y54664D01*
X182080Y54627D01*
X182044Y54573D01*
X181989Y54500D01*
X181880Y54318D01*
X181789Y54099D01*
Y54081D01*
X181770Y54044D01*
X181752Y53990D01*
Y53917D01*
X181716Y53716D01*
X181697Y53479D01*
Y53461D01*
Y53425D01*
Y53352D01*
X181716Y53261D01*
X181752Y53042D01*
X181843Y52824D01*
Y52805D01*
X181880Y52787D01*
X181953Y52659D01*
X182098Y52514D01*
X182281Y52350D01*
X182299D01*
X182335Y52313D01*
X182390Y52277D01*
X182481Y52241D01*
X182681Y52149D01*
X182955Y52058D01*
X182973D01*
X183028Y52040D01*
X183100Y52022D01*
X183210D01*
X183319Y52004D01*
X183465Y51985D01*
X183793Y51967D01*
X183939D01*
X184048Y51985D01*
X184303Y52004D01*
X184595Y52040D01*
X184613D01*
X184667Y52058D01*
X184740Y52077D01*
X184831Y52113D01*
X185050Y52186D01*
X185269Y52313D01*
X185287Y52332D01*
X185323Y52350D01*
X185433Y52441D01*
X185578Y52605D01*
X185724Y52787D01*
Y52805D01*
X185742Y52842D01*
X185779Y52896D01*
X185815Y52987D01*
X185870Y53188D01*
X185888Y53461D01*
Y53479D01*
Y53516D01*
Y53570D01*
X185870Y53662D01*
X185852Y53844D01*
X185779Y54062D01*
Y54081D01*
X185761Y54117D01*
X185742Y54172D01*
X185706Y54245D01*
X185597Y54427D01*
X185433Y54627D01*
X185414Y54646D01*
X185378Y54682D01*
X185323Y54737D01*
X185250Y54791D01*
X185159Y54882D01*
X185032Y54974D01*
X184904Y55065D01*
X184740Y55174D01*
X184722Y55192D01*
X184667Y55229D01*
X184576Y55283D01*
X184449Y55356D01*
X184303Y55447D01*
X184103Y55556D01*
X183902Y55666D01*
X183665Y55775D01*
D02*
G37*
G36*
X156281Y58126D02*
X155916D01*
X155807Y58107D01*
X155679Y58089D01*
X155534Y58053D01*
X155224Y57943D01*
X155206D01*
X155169Y57907D01*
X155096Y57871D01*
X155005Y57816D01*
X154787Y57652D01*
X154568Y57433D01*
X154550Y57415D01*
X154532Y57379D01*
X154477Y57306D01*
X154404Y57214D01*
X154331Y57105D01*
X154258Y56959D01*
X154112Y56650D01*
Y56631D01*
X154094Y56577D01*
X154058Y56486D01*
X154021Y56358D01*
X153985Y56212D01*
X153967Y56030D01*
X153912Y55648D01*
X158248D01*
Y55666D01*
Y55739D01*
Y55848D01*
Y55976D01*
X158230Y56121D01*
X158212Y56285D01*
X158121Y56631D01*
Y56650D01*
X158103Y56704D01*
X158066Y56796D01*
X158030Y56905D01*
X157902Y57160D01*
X157720Y57415D01*
X157702Y57433D01*
X157665Y57470D01*
X157611Y57524D01*
X157538Y57597D01*
X157429Y57688D01*
X157319Y57761D01*
X157028Y57925D01*
X157009Y57943D01*
X156955Y57961D01*
X156864Y57998D01*
X156754Y58034D01*
X156627Y58071D01*
X156463Y58089D01*
X156281Y58126D01*
D02*
G37*
%LPD*%
D10*
X79050Y-136327D02*
D03*
Y-144398D02*
D03*
X111150Y-125950D02*
D03*
Y-117879D02*
D03*
X243150Y-214698D02*
D03*
Y-206627D02*
D03*
X240350Y-284898D02*
D03*
Y-276827D02*
D03*
X298650Y-329598D02*
D03*
Y-321527D02*
D03*
X275450D02*
D03*
Y-329598D02*
D03*
X160850Y-95827D02*
D03*
Y-103898D02*
D03*
X229150Y-261798D02*
D03*
Y-253727D02*
D03*
X232150Y-284998D02*
D03*
Y-276927D02*
D03*
X99596Y-76422D02*
D03*
Y-84493D02*
D03*
X107550Y-76427D02*
D03*
Y-84498D02*
D03*
X368450Y-301827D02*
D03*
Y-309898D02*
D03*
X210250Y-93598D02*
D03*
Y-85527D02*
D03*
X118350Y-245298D02*
D03*
Y-237227D02*
D03*
X102850Y-117980D02*
D03*
Y-126050D02*
D03*
X70450Y-237898D02*
D03*
Y-229827D02*
D03*
X79050Y-129433D02*
D03*
Y-121362D02*
D03*
D11*
X56550Y-48005D02*
D03*
Y-53720D02*
D03*
X121750Y-161420D02*
D03*
Y-155705D02*
D03*
X227850Y-198620D02*
D03*
Y-192905D02*
D03*
X261950Y-163020D02*
D03*
Y-157305D02*
D03*
X270550Y-163020D02*
D03*
Y-157305D02*
D03*
X261950Y-121884D02*
D03*
Y-116169D02*
D03*
X270550Y-121884D02*
D03*
Y-116169D02*
D03*
X261950Y-231820D02*
D03*
Y-226105D02*
D03*
X270550Y-231820D02*
D03*
Y-226105D02*
D03*
X261950Y-191720D02*
D03*
Y-186005D02*
D03*
X270550Y-191720D02*
D03*
Y-186005D02*
D03*
X183550Y-97005D02*
D03*
Y-102720D02*
D03*
X169250Y-97005D02*
D03*
Y-102720D02*
D03*
X93750Y-230905D02*
D03*
Y-236620D02*
D03*
X70250Y-211305D02*
D03*
Y-217020D02*
D03*
X141150Y-281405D02*
D03*
Y-287120D02*
D03*
D13*
X150010Y-51198D02*
D03*
Y-53167D02*
D03*
Y-55135D02*
D03*
Y-57104D02*
D03*
Y-59072D02*
D03*
Y-61041D02*
D03*
Y-63009D02*
D03*
Y-64978D02*
D03*
Y-66946D02*
D03*
Y-68915D02*
D03*
Y-70883D02*
D03*
Y-72852D02*
D03*
Y-74820D02*
D03*
Y-76789D02*
D03*
Y-78757D02*
D03*
Y-80726D02*
D03*
X194891D02*
D03*
Y-78757D02*
D03*
Y-76789D02*
D03*
Y-74820D02*
D03*
Y-72852D02*
D03*
Y-70883D02*
D03*
Y-68915D02*
D03*
Y-66946D02*
D03*
Y-64978D02*
D03*
Y-63009D02*
D03*
Y-61041D02*
D03*
Y-59072D02*
D03*
Y-57104D02*
D03*
Y-55135D02*
D03*
Y-53167D02*
D03*
Y-51198D02*
D03*
D18*
X322650Y-329775D02*
D03*
Y-321350D02*
D03*
D19*
X48950Y-166227D02*
D03*
Y-174298D02*
D03*
X185050Y-275298D02*
D03*
Y-267227D02*
D03*
X48950Y-198327D02*
D03*
Y-206398D02*
D03*
D20*
X149686Y-104862D02*
D03*
X141615D02*
D03*
X133715Y-136962D02*
D03*
X141786D02*
D03*
X212915Y-281912D02*
D03*
X220986D02*
D03*
X212915Y-253652D02*
D03*
X220986D02*
D03*
X31886Y-223562D02*
D03*
X23815D02*
D03*
D21*
X88808Y-33462D02*
D03*
X83093D02*
D03*
X203242Y-331600D02*
D03*
X208958D02*
D03*
X139785Y-331000D02*
D03*
X145500D02*
D03*
X288993Y-152662D02*
D03*
X294708D02*
D03*
X155865Y-260662D02*
D03*
X150150D02*
D03*
X289093Y-212262D02*
D03*
X294808D02*
D03*
X126993Y-229762D02*
D03*
X132708D02*
D03*
X75408Y-179862D02*
D03*
X69693D02*
D03*
X75308Y-188362D02*
D03*
X69593D02*
D03*
X75408Y-168762D02*
D03*
X69693D02*
D03*
D25*
X109750Y-313802D02*
D03*
X113491Y-306322D02*
D03*
X106010D02*
D03*
D26*
X75918Y-24100D02*
D03*
X73359D02*
D03*
X70800D02*
D03*
X68241D02*
D03*
X65682D02*
D03*
D27*
X22800Y-284141D02*
D03*
Y-311700D02*
D03*
D28*
X31068Y-295952D02*
D03*
Y-292015D02*
D03*
Y-288078D02*
D03*
Y-307763D02*
D03*
Y-299889D02*
D03*
Y-303826D02*
D03*
D30*
X49050Y-69220D02*
D03*
Y-63905D02*
D03*
D31*
X23738Y-240362D02*
D03*
X32163D02*
D03*
D32*
X39315Y-317462D02*
D03*
X47386D02*
D03*
X300686Y-307362D02*
D03*
X292615D02*
D03*
X132115Y-184362D02*
D03*
X140186D02*
D03*
X310815Y-245862D02*
D03*
X318886D02*
D03*
X133715Y-145262D02*
D03*
X141786D02*
D03*
X318786Y-222762D02*
D03*
X310715D02*
D03*
X287615Y-238362D02*
D03*
X295686D02*
D03*
X126786Y-136962D02*
D03*
X118715D02*
D03*
X295686Y-230262D02*
D03*
X287615D02*
D03*
X130086Y-170062D02*
D03*
X122015D02*
D03*
X136815D02*
D03*
X144886D02*
D03*
X315586Y-307362D02*
D03*
X307515D02*
D03*
X318921Y-260262D02*
D03*
X310850D02*
D03*
X300686Y-297062D02*
D03*
X292615D02*
D03*
X300686Y-288862D02*
D03*
X292615D02*
D03*
X315586Y-315562D02*
D03*
X307515D02*
D03*
X141180Y-253262D02*
D03*
X149250D02*
D03*
X163986Y-245062D02*
D03*
X155915D02*
D03*
X155915Y-253262D02*
D03*
X163986D02*
D03*
X170715D02*
D03*
X178786D02*
D03*
X113986Y-293362D02*
D03*
X105915D02*
D03*
X310015Y-39362D02*
D03*
X318086D02*
D03*
X169286Y-129762D02*
D03*
X161215D02*
D03*
X169286Y-121562D02*
D03*
X161215D02*
D03*
X169286Y-113462D02*
D03*
X161215D02*
D03*
X191031Y-113422D02*
D03*
X182960D02*
D03*
X191086Y-121562D02*
D03*
X183015D02*
D03*
X244486Y-293062D02*
D03*
X236415D02*
D03*
X39315Y-286462D02*
D03*
X47386D02*
D03*
X209686Y-45362D02*
D03*
X201615D02*
D03*
X124986Y-258862D02*
D03*
X116915D02*
D03*
X31886Y-231962D02*
D03*
X23815D02*
D03*
X23915Y-248762D02*
D03*
X31986D02*
D03*
X23915Y-256962D02*
D03*
X31986D02*
D03*
X78015Y-245262D02*
D03*
X86086D02*
D03*
X109615Y-205962D02*
D03*
X117686D02*
D03*
X89886Y-195862D02*
D03*
X81815D02*
D03*
X105215Y-197762D02*
D03*
X113286D02*
D03*
X105286Y-189662D02*
D03*
X97215D02*
D03*
X39315Y-300462D02*
D03*
X47386D02*
D03*
X47386Y-309362D02*
D03*
X39315D02*
D03*
X147286Y-13462D02*
D03*
X139215D02*
D03*
X105286Y-180662D02*
D03*
X97215D02*
D03*
X266386Y-146309D02*
D03*
X258315D02*
D03*
X274457D02*
D03*
X266386Y-216162D02*
D03*
X258315D02*
D03*
X274457D02*
D03*
X242635Y-69632D02*
D03*
X234565D02*
D03*
X242635Y-77300D02*
D03*
X234565D02*
D03*
D37*
X187214Y-43521D02*
D03*
X185246D02*
D03*
X183277D02*
D03*
X181309D02*
D03*
X179340D02*
D03*
X177372D02*
D03*
X175403D02*
D03*
X173435D02*
D03*
X171466D02*
D03*
X169498D02*
D03*
X167529D02*
D03*
X165561D02*
D03*
X163592D02*
D03*
X161624D02*
D03*
X159655D02*
D03*
X157687D02*
D03*
Y-88403D02*
D03*
X159655D02*
D03*
X161624D02*
D03*
X163592D02*
D03*
X165561D02*
D03*
X167529D02*
D03*
X169498D02*
D03*
X171466D02*
D03*
X173435D02*
D03*
X175403D02*
D03*
X177372D02*
D03*
X179340D02*
D03*
X181309D02*
D03*
X183277D02*
D03*
X185246D02*
D03*
X187214D02*
D03*
D40*
X140979Y-113962D02*
D03*
Y-118962D02*
D03*
Y-123962D02*
D03*
Y-128962D02*
D03*
X119522Y-113962D02*
D03*
Y-118962D02*
D03*
Y-123962D02*
D03*
Y-128962D02*
D03*
D45*
X58235Y-131092D02*
X59143Y-132000D01*
X67184Y-130129D02*
X67880Y-129433D01*
X59817Y-130129D02*
X67184D01*
X58150Y-128462D02*
X59817Y-130129D01*
X59143Y-132000D02*
X71700D01*
X46350Y-128462D02*
X58150D01*
X72898Y-142498D02*
X74400Y-144000D01*
X52100Y-149792D02*
X54980D01*
X64287Y-144298D02*
X65150Y-145162D01*
X45801Y-142292D02*
Y-140212D01*
Y-146032D02*
Y-142292D01*
X20059Y-246353D02*
Y-169453D01*
X45801Y-153532D02*
Y-149792D01*
Y-156412D02*
Y-153532D01*
Y-122192D02*
Y-120312D01*
Y-125932D02*
Y-122192D01*
X162550Y-213462D02*
X164100Y-215012D01*
Y-223613D02*
Y-215012D01*
X162443Y-225270D02*
X164100Y-223613D01*
X224884Y-213496D02*
X230950Y-219562D01*
X233550Y-203762D02*
X238050D01*
X192538Y-154362D02*
X206150D01*
X188100Y-158800D02*
X192538Y-154362D01*
X189950Y-209462D02*
X206550D01*
X186450Y-212962D02*
X189950Y-209462D01*
X188750Y-215462D02*
X190717Y-213496D01*
X188750Y-232002D02*
Y-215462D01*
X186691Y-205622D02*
X199750D01*
X186450Y-232248D02*
Y-212962D01*
X192662Y-185962D02*
X232850D01*
X184726Y-178026D02*
X192662Y-185962D01*
X173750Y-178026D02*
X184726D01*
X188350Y-177962D02*
X236150D01*
X184350Y-173962D02*
X188350Y-177962D01*
X184250Y-208062D02*
X186691Y-205622D01*
X169370Y-158362D02*
X184673D01*
X163287Y-178026D02*
X167350Y-173962D01*
X155850Y-178026D02*
X163287D01*
X167350Y-173962D02*
X184350D01*
X184673Y-158362D02*
X191350Y-151684D01*
X68350Y-314462D02*
X79250Y-325362D01*
X66550Y-315208D02*
X78605Y-327262D01*
X68350Y-314462D02*
Y-302062D01*
X79250Y-325362D02*
X93850D01*
X66550Y-315208D02*
Y-302862D01*
X78605Y-327262D02*
X94496D01*
X47386Y-309362D02*
Y-306114D01*
X48600Y-304900D01*
X50300D01*
X182586Y-96862D02*
X183286Y-96162D01*
X37109Y-304904D02*
X39700D01*
X37050Y-304962D02*
X37109Y-304904D01*
X35914Y-303826D02*
X37050Y-304962D01*
X84097Y-102062D02*
X86857Y-104821D01*
X62050Y-102062D02*
X84097D01*
X83982Y-98200D02*
X88657Y-102874D01*
X68700Y-98200D02*
X83982D01*
X83792Y-94262D02*
X90457Y-100927D01*
Y-147699D02*
Y-100927D01*
X62150Y-94262D02*
X83792D01*
X78950Y-104462D02*
X82750D01*
X85057Y-106768D01*
X83614Y-90326D02*
X92257Y-98968D01*
X68700Y-90326D02*
X83614D01*
X155850Y-225270D02*
X162443D01*
X129087Y-213462D02*
X162550D01*
X106450Y-236099D02*
X129087Y-213462D01*
X127699Y-217396D02*
X155850D01*
X69000Y-290048D02*
X76036D01*
X80850Y-294862D01*
X86400Y-290048D02*
X93365D01*
X96750Y-286662D01*
X149210Y-209522D02*
X155850D01*
X147850Y-208162D02*
X149210Y-209522D01*
X86400Y-282174D02*
X93739D01*
X104650Y-271262D01*
X80550Y-277862D02*
X93850D01*
X76239Y-282174D02*
X80550Y-277862D01*
X69000Y-282174D02*
X76239D01*
X135810Y-201648D02*
X155850D01*
X131842Y-208162D02*
X147850D01*
X146062Y-185900D02*
X155850D01*
X69000Y-274300D02*
X75813D01*
X79950Y-270162D01*
X86400Y-274300D02*
X93613D01*
X101050Y-266862D01*
X141139Y-193774D02*
X155850D01*
X79087Y-266426D02*
X86400D01*
X75350Y-270162D02*
X79087Y-266426D01*
X61050Y-270162D02*
X75350D01*
X59250Y-268362D02*
X61050Y-270162D01*
X39450Y-268362D02*
X59250D01*
X37376Y-266287D02*
X39450Y-268362D01*
X37376Y-266287D02*
Y-256037D01*
X40150Y-262962D02*
X40227D01*
X43690Y-266426D01*
X69000D01*
X51300Y-109413D02*
Y-106074D01*
X50650Y-110062D02*
X51300Y-109413D01*
X49250Y-110062D02*
X50650D01*
X68700Y-106074D02*
X77339D01*
X78950Y-104462D01*
X81350Y-107162D02*
X83257Y-109068D01*
X51300Y-98200D02*
X58188D01*
X62050Y-102062D01*
X51300Y-90326D02*
X58214D01*
X62150Y-94262D01*
X122050Y-43862D02*
X131850D01*
X119674Y-41486D02*
X122050Y-43862D01*
X119674Y-41486D02*
Y-33700D01*
X139150Y-40362D02*
Y-25862D01*
X142050Y-39662D02*
Y-25862D01*
X134571Y-17483D02*
X148371D01*
X133388Y-16300D02*
X134571Y-17483D01*
X127548Y-16300D02*
X133388D01*
X127548Y-26865D02*
X134646Y-19767D01*
X148371Y-17483D02*
X149350Y-18462D01*
Y-21121D02*
Y-18462D01*
X134646Y-19767D02*
X146790D01*
X127548Y-33700D02*
Y-26865D01*
X310815Y-245862D02*
Y-222862D01*
X137150Y-247362D02*
X145950Y-238562D01*
X137150Y-258162D02*
Y-247362D01*
X132450Y-262862D02*
X137150Y-258162D01*
X132450Y-287862D02*
Y-262862D01*
X194750Y-45362D02*
X201615D01*
X190350Y-49762D02*
X194750Y-45362D01*
X190350Y-55862D02*
Y-49762D01*
X187214Y-43521D02*
X188891D01*
X97650Y-216362D02*
X97850D01*
X113986Y-293262D02*
X132750D01*
X132450Y-287862D02*
X140450Y-295862D01*
Y-317262D02*
Y-295862D01*
X312336Y-162162D02*
X316450Y-166276D01*
X275010Y-177702D02*
X283250Y-169462D01*
Y-161262D01*
X318166Y-139478D02*
X320050Y-141362D01*
X312365Y-139478D02*
X318166D01*
X320050Y-176962D02*
Y-141362D01*
X284850Y-186262D02*
X289116D01*
X289136Y-186283D01*
X292630Y-129242D02*
X304650Y-141262D01*
Y-151962D02*
Y-141262D01*
X280229Y-301141D02*
X318329D01*
X276650Y-297562D02*
X280229Y-301141D01*
X264650Y-297562D02*
X276650D01*
X246450Y-279362D02*
X264650Y-297562D01*
X62040Y-25478D02*
X63418Y-24100D01*
X65682D01*
X40850Y-161362D02*
X45801Y-156412D01*
X14850Y-317462D02*
X39315D01*
X11750Y-314362D02*
X14850Y-317462D01*
X11750Y-314362D02*
Y-254662D01*
X20059Y-246353D01*
Y-169453D02*
X28150Y-161362D01*
X47038Y-158762D02*
X52055D01*
X55565Y-155252D01*
Y-150377D01*
X52100Y-155512D02*
Y-153532D01*
X51450Y-156162D02*
X52100Y-155512D01*
X48950Y-156162D02*
X51450D01*
X54980Y-149792D02*
X55565Y-150377D01*
X170171Y-291742D02*
X173800D01*
X166250Y-295662D02*
X170171Y-291742D01*
X167944Y-300068D02*
Y-297199D01*
X165082Y-302930D02*
X167944Y-300068D01*
X165082Y-306530D02*
Y-302930D01*
X170842Y-294301D02*
X173800D01*
X167944Y-297199D02*
X170842Y-294301D01*
X170829Y-296860D02*
X173800D01*
X169744Y-297944D02*
X170829Y-296860D01*
X169744Y-304288D02*
Y-297944D01*
X160750Y-310862D02*
X165082Y-306530D01*
X169744Y-304288D02*
X171450Y-305994D01*
X169150Y-288062D02*
Y-285862D01*
Y-288062D02*
X170271Y-289183D01*
X173800D01*
X177689Y-286624D02*
X179050Y-285262D01*
X173800Y-286624D02*
X177689D01*
X28150Y-161362D02*
X40850D01*
X52100Y-146032D02*
X57280D01*
X45801Y-129012D02*
X46350Y-128462D01*
X52100Y-125932D02*
X58080D01*
X52100Y-122192D02*
Y-120113D01*
X52750Y-119462D01*
X66150D01*
X68950Y-122262D01*
X74550D01*
X44550Y-273062D02*
X50250D01*
X44150D02*
X44550D01*
X50250D02*
X57650Y-280462D01*
X45950Y-281762D02*
X53050D01*
X55850Y-284562D01*
X91550Y-245262D02*
X96350Y-240462D01*
X86086Y-245262D02*
X91550D01*
X99250Y-264662D02*
Y-232711D01*
X101050Y-266862D02*
Y-233862D01*
X102850Y-268862D02*
Y-234608D01*
X104650Y-271262D02*
Y-235353D01*
X106450Y-273262D02*
Y-236099D01*
X108250Y-236844D02*
X127699Y-217396D01*
X108250Y-274862D02*
Y-236844D01*
X94010Y-212722D02*
X97650Y-216362D01*
X94010Y-212722D02*
Y-210027D01*
X82250Y-162362D02*
Y-158162D01*
X81250Y-157162D02*
X82250Y-158162D01*
X117650Y-146262D02*
X124250D01*
X102850Y-131462D02*
X117650Y-146262D01*
X97215Y-180662D02*
Y-168027D01*
X82315Y-153127D02*
X97215Y-168027D01*
X154009Y-43521D02*
X157687D01*
X263450Y-251862D02*
X272638D01*
X262250Y-250662D02*
X263450Y-251862D01*
X262250Y-250662D02*
Y-247602D01*
X266450Y-120962D02*
Y-119162D01*
X265528Y-121884D02*
X266450Y-120962D01*
X261950Y-121884D02*
X265528D01*
X258372D02*
X261950D01*
X245050Y-108562D02*
X258372Y-121884D01*
X45850Y-225862D02*
X56050D01*
X60015Y-229827D01*
X37650Y-248762D02*
X46850Y-257962D01*
X102850Y-131462D02*
Y-126050D01*
X112250Y-113962D02*
X119522D01*
X111150Y-115062D02*
X112250Y-113962D01*
X111150Y-117879D02*
Y-115062D01*
X135550Y-149962D02*
X137150Y-151562D01*
X127950Y-149962D02*
X135550D01*
X137150Y-154527D02*
X137191D01*
X124250Y-146262D02*
X127950Y-149962D01*
X160050Y-274062D02*
Y-267062D01*
Y-246262D01*
X158970Y-275143D02*
X160050Y-274062D01*
X318786Y-227098D02*
Y-222762D01*
Y-227098D02*
X321550Y-229862D01*
X350650D01*
X352450Y-228062D01*
Y-186762D01*
X60015Y-229827D02*
X70450D01*
X262250Y-210062D02*
X263350Y-211162D01*
X262250Y-210062D02*
Y-207502D01*
X114146Y-78757D02*
X150010D01*
X112950Y-77562D02*
X114146Y-78757D01*
X161250Y-245062D02*
X163986D01*
X160050Y-246262D02*
X161250Y-245062D01*
X178786Y-253262D02*
Y-249298D01*
X163986Y-245062D02*
X167450D01*
X163986Y-253262D02*
X170715D01*
X163986Y-267627D02*
Y-253262D01*
Y-267627D02*
X164021Y-267662D01*
X150291Y-271402D02*
X155950D01*
X135850Y-13462D02*
X139215D01*
X163592Y-43521D02*
Y-37504D01*
X153550Y-27462D02*
X163592Y-37504D01*
X153550Y-27462D02*
Y-16362D01*
X150650Y-13462D02*
X153550Y-16362D01*
X147286Y-13462D02*
X150650D01*
X160850Y-25762D02*
X172641D01*
X158250Y-28362D02*
X160850Y-25762D01*
X191350Y-151684D02*
Y-143362D01*
X188650Y-150162D02*
Y-137062D01*
X191350Y-143362D02*
X192083Y-142630D01*
X199750D01*
X229950Y-175262D02*
Y-147262D01*
X225318Y-142630D02*
X229950Y-147262D01*
X217650Y-142630D02*
X225318D01*
X181350Y-142662D02*
Y-138362D01*
X191050Y-128662D01*
X215950D01*
X217650Y-130362D01*
Y-134756D02*
Y-130362D01*
X188650Y-137062D02*
X190957Y-134756D01*
X199750D01*
X273450Y-151362D02*
X275350Y-153262D01*
Y-160862D02*
Y-153262D01*
X273193Y-163020D02*
X275350Y-160862D01*
X268150Y-151362D02*
X273450D01*
X266350Y-149562D02*
X268150Y-151362D01*
X261950Y-231820D02*
X265093D01*
X266050Y-230862D01*
Y-229562D01*
X261950Y-191720D02*
X265293D01*
X169286Y-113462D02*
Y-109327D01*
Y-108927D01*
X169250Y-105762D02*
Y-102720D01*
X169450Y-96805D02*
Y-93862D01*
Y-88450D01*
X169250Y-97005D02*
X169450Y-96805D01*
Y-88450D02*
X169498Y-88403D01*
X261950Y-129822D02*
Y-121884D01*
Y-199722D02*
Y-191720D01*
Y-232998D02*
Y-231820D01*
X169250Y-97005D02*
Y-95827D01*
X239250Y-202562D02*
Y-198635D01*
X238050Y-203762D02*
X239250Y-202562D01*
X199750Y-150504D02*
X206609D01*
X210750Y-146362D01*
X223650D01*
X226650Y-149362D01*
Y-175062D02*
Y-149362D01*
X210009Y-150504D02*
X217650D01*
X206150Y-154362D02*
X210009Y-150504D01*
X368450Y-301827D02*
Y-298162D01*
X362650Y-292362D02*
X368450Y-298162D01*
X362650Y-292362D02*
Y-70662D01*
X183277Y-96153D02*
Y-88403D01*
X180750Y-33872D02*
X183277Y-36398D01*
X172641Y-25762D02*
X180750Y-33872D01*
Y-29662D01*
X185750Y-24662D01*
X183277Y-43521D02*
Y-36398D01*
X99050Y-284062D02*
X108250Y-274862D01*
X99050Y-289162D02*
Y-284062D01*
X93350Y-294862D02*
X99050Y-289162D01*
X96750Y-282962D02*
X106450Y-273262D01*
X96750Y-286662D02*
Y-282962D01*
X124986Y-258862D02*
X125815Y-258033D01*
Y-252562D01*
Y-245002D01*
Y-252562D02*
X125815Y-252562D01*
X118350Y-245298D02*
X118646Y-245002D01*
X125815D01*
X31068Y-303826D02*
X35914D01*
X79291Y-153127D02*
X82315D01*
X72850Y-157162D02*
X81250D01*
X71810Y-158202D02*
X72850Y-157162D01*
X71810Y-161198D02*
Y-158202D01*
X90291Y-180427D02*
Y-176602D01*
X79291Y-165602D02*
X90291Y-176602D01*
X79291Y-165602D02*
Y-161198D01*
X105286Y-180662D02*
X107950D01*
X109615Y-182327D01*
X103950Y-184762D02*
X105286Y-186098D01*
X91450Y-184762D02*
X103950D01*
X90291Y-185922D02*
X91450Y-184762D01*
X116850Y-193362D02*
Y-184262D01*
Y-193362D02*
X126050Y-202562D01*
X118850Y-191262D02*
Y-183717D01*
Y-191262D02*
X128050Y-200462D01*
X120650Y-188962D02*
Y-182971D01*
Y-188962D02*
X130050Y-198362D01*
X126150Y-186262D02*
Y-183380D01*
X123250Y-187562D02*
Y-183025D01*
X99250Y-232711D02*
X146062Y-185900D01*
X101050Y-233862D02*
X141139Y-193774D01*
X102850Y-234608D02*
X135810Y-201648D01*
X104650Y-235353D02*
X131842Y-208162D01*
X48050Y-214662D02*
X62250Y-200462D01*
X26150Y-214662D02*
X48050D01*
X23815Y-216998D02*
X26150Y-214662D01*
X62250Y-200462D02*
X82250D01*
X87050Y-195862D02*
X89886D01*
X86550Y-195362D02*
X87050Y-195862D01*
X86550Y-195362D02*
Y-188498D01*
X90291D02*
Y-185922D01*
X105286Y-189662D02*
Y-186098D01*
X109615Y-205962D02*
Y-182327D01*
X105215Y-197762D02*
X105286Y-197691D01*
Y-189662D01*
X113350Y-210362D02*
X115750Y-212762D01*
X109615Y-213198D02*
Y-205962D01*
X117686Y-210598D02*
X117750Y-210662D01*
X117686Y-210598D02*
Y-205962D01*
X104715Y-218098D02*
X109615Y-213198D01*
X101491Y-218098D02*
X104715D01*
X97750Y-210027D02*
Y-203362D01*
X95250Y-200862D02*
X97750Y-203362D01*
X88931Y-200862D02*
X95250D01*
X85791Y-204002D02*
X88931Y-200862D01*
X82250Y-200462D02*
X85791Y-204002D01*
Y-210027D02*
Y-204002D01*
X23815Y-223562D02*
Y-216998D01*
Y-231962D02*
Y-223562D01*
Y-231962D02*
X26950D01*
X27950Y-232962D01*
Y-239162D02*
Y-232962D01*
Y-239162D02*
X29150Y-240362D01*
X32163D01*
X23738D02*
X23915Y-240539D01*
Y-248762D02*
Y-240539D01*
X31986Y-256962D02*
Y-248762D01*
X37650D01*
X70450Y-229827D02*
X70550Y-229727D01*
X78310D01*
X76350Y-233762D02*
X81150D01*
X82050Y-234662D01*
Y-237798D02*
Y-234662D01*
X85791Y-244967D02*
X86086Y-245262D01*
X85791Y-244967D02*
Y-237798D01*
X165561Y-50072D02*
Y-43521D01*
X181050Y-78462D02*
X185246Y-82657D01*
Y-88403D02*
Y-82657D01*
X187214Y-88403D02*
X190209D01*
X174350Y-117762D02*
X178150Y-121562D01*
X173435Y-116846D02*
X174350Y-117762D01*
X113986Y-293262D02*
Y-284827D01*
Y-293362D02*
Y-293262D01*
Y-284827D02*
X120850Y-277962D01*
X150010Y-59072D02*
X155740D01*
X154029Y-61041D02*
X154650Y-61662D01*
X150010Y-61041D02*
X154029D01*
X145403Y-63009D02*
X150010D01*
Y-64978D02*
X154835D01*
X149988Y-70862D02*
X150010Y-70883D01*
X146450Y-70862D02*
X149988D01*
X145350Y-69762D02*
X146450Y-70862D01*
X142950Y-71362D02*
X144440Y-72852D01*
X141150Y-72162D02*
X143809Y-74820D01*
X144440Y-72852D02*
X150010D01*
X143809Y-74820D02*
X150010D01*
X191592Y-57104D02*
X194891D01*
X189782Y-66962D02*
X190050D01*
X189766Y-66946D02*
X189782Y-66962D01*
X185750Y-24662D02*
X222650D01*
X171466Y-43521D02*
Y-28178D01*
X173435Y-48246D02*
Y-43521D01*
X201477Y-76789D02*
X205950Y-81262D01*
X199346Y-78757D02*
X203950Y-83362D01*
X197214Y-80726D02*
X201950Y-85462D01*
X203609Y-74820D02*
X207950Y-79162D01*
X205740Y-72852D02*
X209950Y-77062D01*
X210235Y-77346D01*
X207031Y-70883D02*
X237305Y-101157D01*
X203726Y-64978D02*
X238105Y-99357D01*
X198452Y-57104D02*
X238905Y-97557D01*
X199083Y-55135D02*
X239705Y-95757D01*
X199755Y-53167D02*
X240545Y-93957D01*
X200446Y-51198D02*
X241405Y-92157D01*
X194891Y-74820D02*
X203609D01*
X194891Y-76789D02*
X201477D01*
X118715Y-136962D02*
X119522Y-136155D01*
Y-128962D01*
X137191Y-169687D02*
Y-162598D01*
X130086Y-170062D02*
X136815D01*
X199958Y-221162D02*
X208750D01*
X199750Y-221370D02*
X199958Y-221162D01*
X184250Y-232594D02*
X192619Y-240962D01*
X184250Y-232594D02*
Y-208062D01*
X217650Y-221370D02*
X217650Y-221370D01*
Y-217462D01*
X37699Y-288078D02*
X39315Y-286462D01*
X31068Y-288078D02*
X37699D01*
X31068Y-307763D02*
X37816D01*
X31068Y-299889D02*
X31141Y-299962D01*
X181250Y-88345D02*
Y-83962D01*
X160850Y-99962D02*
Y-95827D01*
X161624Y-95053D01*
Y-88403D01*
X165650Y-129762D02*
X169286D01*
X164950Y-129062D02*
X165650Y-129762D01*
X164950Y-129062D02*
Y-93062D01*
X163592Y-91704D02*
X164950Y-93062D01*
X163592Y-91704D02*
Y-88403D01*
X169286Y-129762D02*
X175850D01*
X169286Y-121562D02*
X174750D01*
X178150D02*
X183015D01*
X182820Y-113562D02*
X182960Y-113422D01*
X178350Y-113562D02*
X182820D01*
X180850Y-108562D02*
X245050D01*
X179340Y-107052D02*
X180850Y-108562D01*
X234150Y-269362D02*
Y-262962D01*
X232986Y-261798D02*
X234150Y-262962D01*
X229150Y-261798D02*
X232986D01*
X232016Y-271496D02*
X232150Y-271631D01*
X231982Y-271462D02*
X232016Y-271496D01*
X226498Y-271462D02*
X231982D01*
X225750Y-270715D02*
X226498Y-271462D01*
X232016Y-271496D02*
X234150Y-269362D01*
X232150Y-276927D02*
Y-271631D01*
X165561Y-88403D02*
Y-85172D01*
X167550Y-84762D02*
X168450Y-83862D01*
X167550Y-88382D02*
Y-84762D01*
X167529Y-88403D02*
X167550Y-88382D01*
X177372Y-112583D02*
X178350Y-113562D01*
X177372Y-112583D02*
Y-88403D01*
X175403Y-114715D02*
X176350Y-115662D01*
X171466Y-88403D02*
Y-83878D01*
X173435Y-116846D02*
Y-88403D01*
X175403Y-114715D02*
Y-88403D01*
X184172Y-61041D02*
X194891D01*
X210235Y-85343D02*
Y-77346D01*
X190350Y-55862D02*
X191592Y-57104D01*
X185150Y-88308D02*
X185246Y-88403D01*
X181250Y-88345D02*
X181309Y-88403D01*
X179340Y-107052D02*
Y-88403D01*
X194891Y-80726D02*
X197214D01*
X194891Y-78757D02*
X199346D01*
X194891Y-72852D02*
X205740D01*
X296412Y-191401D02*
X302450Y-185362D01*
X289136Y-191401D02*
X296412D01*
X289136Y-119006D02*
X299494D01*
X292253Y-121564D02*
X294550Y-123862D01*
X289136Y-121564D02*
X292253D01*
X295471Y-188842D02*
X298950Y-185362D01*
X289136Y-188842D02*
X295471D01*
X289136Y-126683D02*
X293671D01*
X289136Y-129242D02*
X292630D01*
X294048Y-134360D02*
X302254Y-142566D01*
X283250Y-132317D02*
X285294Y-134360D01*
X289136D01*
X276450Y-128062D02*
X285307Y-136919D01*
X289136D01*
Y-134360D02*
X294048D01*
X289136Y-136919D02*
X293007D01*
X307466Y-139478D02*
X312365D01*
X305150Y-137162D02*
X307466Y-139478D01*
X308707Y-136919D02*
X312365D01*
X306950Y-135162D02*
X308707Y-136919D01*
X312365D02*
X319207D01*
X312365Y-129242D02*
X321742D01*
X312365Y-131801D02*
X318689D01*
X289115Y-152662D02*
X289136Y-152641D01*
Y-144596D01*
X289115Y-204217D02*
X289136Y-204196D01*
X306515Y-201898D02*
X306776Y-201637D01*
X289637Y-105394D02*
X305150Y-120908D01*
X290383Y-103594D02*
X306950Y-120162D01*
X305150Y-137162D02*
Y-120908D01*
X306950Y-135162D02*
Y-120162D01*
X312365Y-193960D02*
X318748D01*
X312339Y-142062D02*
X312365Y-142037D01*
X308350Y-111328D02*
X312365D01*
X308350Y-113887D02*
X312365D01*
X308350Y-119006D02*
X312365D01*
X308350Y-116446D02*
X312365D01*
X326250Y-180062D02*
X329850D01*
X317471Y-188842D02*
X326250Y-180062D01*
X312365Y-188842D02*
X317471D01*
X342638Y-129862D02*
X347500Y-125000D01*
X336750Y-129862D02*
X342638D01*
X333450Y-133162D02*
X336750Y-129862D01*
X333450Y-184562D02*
Y-133162D01*
X326773Y-191239D02*
X333450Y-184562D01*
X312365Y-191401D02*
Y-191239D01*
X327500Y-135000D02*
X331350Y-138850D01*
Y-178562D02*
Y-138850D01*
X329850Y-180062D02*
X331350Y-178562D01*
X312365Y-186283D02*
X316530D01*
X312365Y-183724D02*
X316289D01*
X312365Y-181165D02*
X315848D01*
X323250Y-120062D02*
X342562D01*
X319189Y-124124D02*
X323250Y-120062D01*
X312365Y-124124D02*
X319189D01*
X327500Y-145000D02*
Y-140612D01*
X318689Y-131801D02*
X327500Y-140612D01*
X321742Y-129242D02*
X327500Y-135000D01*
X342562Y-120062D02*
X347500Y-125000D01*
X322850Y-116862D02*
Y-89650D01*
X327500Y-85000D01*
X289115Y-238362D02*
X289115Y-238362D01*
X287615Y-238362D02*
Y-230262D01*
X289136Y-183724D02*
X294389D01*
X304650Y-173462D01*
X316530Y-186283D02*
X323650Y-179162D01*
Y-148850D01*
X327500Y-145000D01*
X316289Y-183724D02*
X321850Y-178162D01*
Y-139562D01*
X319207Y-136919D02*
X321850Y-139562D01*
X315848Y-181165D02*
X320050Y-176962D01*
X316450Y-172662D02*
Y-166276D01*
X312365Y-173487D02*
X312390Y-173462D01*
X315650D01*
X316450Y-172662D01*
X318250Y-176162D02*
Y-164790D01*
X312365Y-178605D02*
X312408Y-178562D01*
X315850D01*
X318250Y-176162D01*
X309535Y-176046D02*
X312365D01*
Y-170928D02*
Y-168762D01*
Y-210148D02*
Y-204196D01*
X305050Y-217462D02*
X312365Y-210148D01*
X289136Y-204196D02*
X294217D01*
X293766Y-116446D02*
X294850Y-115362D01*
X283250Y-132317D02*
Y-117262D01*
X273350Y-107362D02*
X283250Y-117262D01*
X266350Y-130827D02*
X267091Y-130087D01*
X276450Y-128062D02*
Y-113102D01*
X252719Y-99357D02*
X256956Y-103594D01*
X290383D01*
X255796Y-92157D02*
X260001Y-96362D01*
X293384D01*
X308350Y-111328D01*
X292625Y-98162D02*
X308350Y-113887D01*
X254210Y-95757D02*
X258430Y-99977D01*
X291881D01*
X308350Y-116446D01*
X253465Y-97557D02*
X257699Y-101792D01*
X291137D01*
X308350Y-119006D01*
X256133Y-105394D02*
X289637D01*
X251896Y-101157D02*
X256133Y-105394D01*
X255556Y-107362D02*
X273350D01*
X251151Y-102957D02*
X255556Y-107362D01*
X254810Y-109162D02*
X272510D01*
X250410Y-104762D02*
X254810Y-109162D01*
X272510D02*
X276450Y-113102D01*
X278680Y-142037D02*
X289136D01*
X274310Y-137667D02*
X278680Y-142037D01*
X265150Y-133827D02*
X266350Y-135027D01*
Y-143962D02*
Y-135027D01*
Y-130827D01*
X262215Y-137827D02*
Y-137667D01*
Y-137567D01*
X270286Y-137667D02*
X274310D01*
X270321Y-177702D02*
X275010D01*
X261950Y-199722D02*
X262250Y-200022D01*
X270550Y-199793D02*
Y-192898D01*
X270321Y-200022D02*
X270550Y-199793D01*
X267491Y-200022D02*
X270321D01*
X266350Y-201162D02*
X267491Y-200022D01*
X262250Y-203762D02*
X265050D01*
X266350Y-205062D01*
Y-201162D01*
X286576Y-201637D02*
X289136D01*
X279250Y-208962D02*
X286576Y-201637D01*
X274828Y-208962D02*
X279250D01*
X273368Y-207502D02*
X274828Y-208962D01*
X270321Y-207502D02*
X273368D01*
X274321Y-220891D02*
X276421Y-222991D01*
X267321Y-220891D02*
X274321D01*
X266350Y-219920D02*
X267321Y-220891D01*
X276421Y-230891D02*
Y-222991D01*
X274086Y-233227D02*
X276421Y-230891D01*
X310715Y-222762D02*
X310815Y-222862D01*
X301850Y-222762D02*
X310715D01*
X299750Y-220662D02*
X301850Y-222762D01*
X291550Y-220662D02*
X299750D01*
X287615Y-230262D02*
Y-225198D01*
X281150Y-224262D02*
X287950Y-217462D01*
X305050D01*
X254155Y-137667D02*
X262215D01*
X239250Y-152572D02*
X254155Y-137667D01*
X237282Y-182690D02*
Y-179094D01*
X241219Y-190994D02*
X254510Y-177702D01*
X262250D01*
X236150Y-177962D02*
X237282Y-179094D01*
X231423Y-182690D02*
X235313D01*
X232850Y-185962D02*
X237282Y-190394D01*
Y-198635D02*
Y-190394D01*
X243187Y-206590D02*
Y-198635D01*
X243150Y-206627D02*
X243187Y-206590D01*
X217650Y-221370D02*
X225958D01*
X229150Y-224562D01*
X193143Y-221370D02*
X199750D01*
X210391Y-205622D02*
X217650D01*
X206550Y-209462D02*
X210391Y-205622D01*
X333662Y-301162D02*
X337500Y-305000D01*
X322410Y-301162D02*
X333662D01*
X343462Y-290962D02*
X347500Y-295000D01*
X217650Y-213496D02*
X224884D01*
X318948Y-295000D02*
X327500D01*
X333438Y-289062D02*
X337500Y-285000D01*
X317510Y-290962D02*
X343462D01*
X316850Y-285062D02*
X320850D01*
X318210Y-289062D02*
X333438D01*
X292305Y-263157D02*
X318210Y-289062D01*
X291505Y-264957D02*
X317510Y-290962D01*
X290705Y-266757D02*
X318948Y-295000D01*
X289905Y-268657D02*
X322410Y-301162D01*
X293050Y-261262D02*
X316850Y-285062D01*
X191150Y-223362D02*
X193143Y-221370D01*
X322188Y-305000D02*
X327500D01*
X315586Y-315562D02*
X319950D01*
X315586Y-307362D02*
X319750D01*
X300686Y-311827D02*
Y-307362D01*
X318329Y-301141D02*
X322188Y-305000D01*
X300686Y-288862D02*
X304850D01*
X318921Y-260262D02*
X323650D01*
X292615Y-297062D02*
Y-292962D01*
Y-288862D01*
X300686Y-297062D02*
X300786Y-296962D01*
X309550D01*
X288050Y-307362D02*
X292615D01*
X286150Y-305462D02*
X288050Y-307362D01*
X310850Y-260262D02*
X311250Y-260662D01*
Y-267362D02*
Y-260662D01*
X312322Y-158862D02*
X318250Y-164790D01*
X293007Y-136919D02*
X300454Y-144366D01*
X307050Y-173562D02*
X309535Y-176046D01*
X307050Y-173562D02*
Y-170762D01*
X312350Y-165462D01*
X304650Y-173462D02*
Y-151962D01*
X312365Y-121564D02*
X318148D01*
X319050Y-120662D01*
X319150D01*
Y-120562D02*
X322850Y-116862D01*
X319150Y-120662D02*
Y-120562D01*
X237305Y-101157D02*
X251896D01*
X238105Y-99357D02*
X252719D01*
X238905Y-97557D02*
X253465D01*
X239705Y-95757D02*
X254210D01*
X259161Y-98162D02*
X292625D01*
X254956Y-93957D02*
X259161Y-98162D01*
X240545Y-93957D02*
X254956D01*
X241405Y-92157D02*
X255796D01*
X109750Y-313802D02*
X114910D01*
X80850Y-294862D02*
X93350D01*
X79950Y-270162D02*
X93750D01*
X99250Y-264662D01*
X93850Y-277862D02*
X102850Y-268862D01*
X191150Y-231762D02*
Y-223362D01*
Y-231762D02*
X194950Y-235562D01*
X188750Y-232002D02*
X193010Y-236262D01*
X193105D01*
X194205Y-237362D01*
X193159Y-238862D02*
X193459Y-239162D01*
X256763Y-268657D02*
X289905D01*
X186450Y-232248D02*
X193064Y-238862D01*
X193159D01*
X230950Y-232662D02*
Y-219562D01*
Y-232662D02*
X259550Y-261262D01*
X293050D01*
X229150Y-233408D02*
Y-224562D01*
Y-233408D02*
X258900Y-263157D01*
X292305D01*
X194950Y-235562D02*
X228759D01*
X258154Y-264957D01*
X291505D01*
X194205Y-237362D02*
X228014D01*
X257409Y-266757D01*
X290705D01*
X193459Y-239162D02*
X227268D01*
X256763Y-268657D01*
X192619Y-240962D02*
X226522D01*
X246450Y-279362D02*
Y-260890D01*
X226522Y-240962D02*
X246450Y-260890D01*
X220794Y-270715D02*
X225750D01*
X229150Y-261798D02*
Y-258062D01*
X220794Y-266778D02*
X230150D01*
X220794Y-264809D02*
X228889D01*
X229150Y-264547D01*
Y-261798D01*
X196866Y-266778D02*
X203707D01*
X198850Y-264809D02*
X203707D01*
X196966Y-268746D02*
X203707D01*
X198998Y-270715D02*
X203707D01*
X198598Y-271115D02*
X198998Y-270715D01*
X196391Y-51198D02*
X200446D01*
X196391Y-53167D02*
X199755D01*
X194891Y-55135D02*
X199083D01*
X194891Y-57104D02*
X198452D01*
X194891Y-64978D02*
X203726D01*
X194891Y-70883D02*
X207031D01*
X194891Y-68915D02*
X200198D01*
X201050Y-68062D01*
X181309Y-71965D02*
X212300Y-102957D01*
X181309Y-71965D02*
Y-43521D01*
X212300Y-102957D02*
X251151D01*
X179340Y-72543D02*
Y-43521D01*
Y-72543D02*
X211560Y-104762D01*
X250410D01*
X57650Y-291362D02*
Y-280462D01*
Y-291362D02*
X68350Y-302062D01*
X93850Y-325362D02*
X98750Y-320462D01*
X120850Y-277962D02*
Y-252662D01*
X137250Y-320462D02*
X140450Y-317262D01*
X98750Y-320462D02*
X137250D01*
X196450Y-269262D02*
X196966Y-268746D01*
X196450Y-266362D02*
X196866Y-266778D01*
X198450Y-264409D02*
X198850Y-264809D01*
X203266Y-247846D02*
X206544Y-244568D01*
X223057D01*
X227050Y-248562D01*
X239250Y-182690D02*
Y-172562D01*
Y-152572D01*
X133886Y-245002D02*
X136210D01*
X261791Y-248062D02*
X262250Y-247602D01*
X210650Y-247162D02*
X216150D01*
X208166Y-249646D02*
X210650Y-247162D01*
X55850Y-292162D02*
Y-284562D01*
Y-292162D02*
X66550Y-302862D01*
X94496Y-327262D02*
X99496Y-322262D01*
X150750D01*
X155950Y-275143D02*
X158970D01*
X161570D02*
X164021D01*
X160150Y-276562D02*
X161570Y-275143D01*
X141180Y-262291D02*
X150291Y-271402D01*
X141180Y-262291D02*
Y-257462D01*
Y-253262D01*
X134250Y-264391D02*
X141180Y-257462D01*
X134250Y-287117D02*
Y-264391D01*
X138875Y-291742D02*
X150572D01*
X134250Y-287117D02*
X138875Y-291742D01*
X167450Y-245062D02*
X168850Y-243662D01*
Y-243262D01*
X141251Y-281505D02*
X150572D01*
X141150Y-281405D02*
X141251Y-281505D01*
X150572Y-286624D02*
X154989D01*
X195866Y-249646D02*
X208166D01*
X150572Y-289183D02*
X155830D01*
X162350Y-282662D01*
X150572Y-294301D02*
X154812D01*
X150572Y-296860D02*
X154748D01*
X181035Y-247846D02*
X203266D01*
X71810Y-153127D02*
Y-148602D01*
X289136Y-116446D02*
X293766D01*
X289136Y-181165D02*
X294403D01*
X302254Y-173313D01*
Y-142566D01*
X289136Y-178605D02*
X294207D01*
X300454Y-172358D01*
Y-144366D01*
X241219Y-182690D02*
X243187D01*
X133886Y-241262D02*
Y-237522D01*
X129710Y-154527D02*
X133450D01*
X113150Y-293262D02*
X113986D01*
X312365Y-191239D02*
X326773D01*
X220794Y-268746D02*
X228050D01*
X37816Y-307763D02*
X39415Y-309362D01*
X150572Y-284065D02*
X154148D01*
X155450Y-282762D01*
X170653Y-284065D02*
X173800D01*
X169250Y-282662D02*
X170653Y-284065D01*
X150750Y-322262D02*
X157050Y-315962D01*
Y-295462D01*
X173668Y-281373D02*
X173800Y-281505D01*
X168650Y-311162D02*
X171450Y-308362D01*
Y-305994D01*
X154989Y-286624D02*
X160150Y-281462D01*
Y-276562D01*
X157050Y-295462D02*
X166550Y-285962D01*
X154812Y-294301D02*
X163850Y-285262D01*
X173668Y-281373D02*
Y-276445D01*
X166550Y-285962D02*
Y-278962D01*
X162350Y-282662D02*
X162450D01*
X178786Y-263827D02*
Y-253262D01*
X164021Y-275143D02*
X167470D01*
X312365Y-155562D02*
Y-144596D01*
X266350Y-219920D02*
Y-205062D01*
X270321Y-233227D02*
X274086D01*
X45801Y-120312D02*
X47750Y-118362D01*
X57280Y-146032D02*
X59014Y-144298D01*
X64287D01*
X52306Y-142498D02*
X72898D01*
X64747Y-134462D02*
X65547Y-135262D01*
X55494Y-140698D02*
X77873D01*
X79050Y-139520D01*
Y-136327D01*
X65547Y-135262D02*
X71750D01*
X126150Y-186262D02*
X132050Y-192162D01*
Y-196262D02*
Y-192162D01*
X241219Y-198635D02*
Y-190994D01*
X169498Y-67209D02*
X173850Y-71562D01*
X169498Y-67209D02*
Y-43521D01*
X163592Y-74262D02*
Y-43521D01*
X41600Y-164200D02*
X47038Y-158762D01*
X29600Y-164200D02*
X41600D01*
X159655Y-43521D02*
X159774Y-43640D01*
Y-48674D02*
Y-43640D01*
Y-48674D02*
X161100Y-50000D01*
X157267Y-53167D02*
X158800Y-54700D01*
X261950Y-163098D02*
Y-163020D01*
X270550D02*
X273193D01*
X266350Y-149562D02*
Y-146309D01*
X262215Y-133827D02*
X265150D01*
X267091Y-130087D02*
X270286D01*
X261950Y-163020D02*
X264580D01*
X269300Y-46913D02*
Y-46800D01*
X238188Y-43800D02*
X250000D01*
X253000Y-46800D01*
X269300D01*
X188891Y-43521D02*
X202313Y-30100D01*
X224488D01*
X238188Y-43800D01*
X245200Y-57000D02*
Y-52700D01*
X240800Y-61400D02*
X245200Y-57000D01*
X240800Y-64000D02*
Y-61400D01*
Y-64000D02*
X242635Y-65835D01*
Y-69632D02*
Y-65835D01*
Y-77300D02*
X245400D01*
X258800Y-63900D01*
Y-55000D01*
X207799Y-213494D02*
X217440D01*
X217546Y-213600D02*
X217650Y-213496D01*
X166800Y-54200D02*
Y-51312D01*
X165561Y-50072D02*
X166800Y-51312D01*
X164350Y-83962D02*
X165561Y-85172D01*
X74113Y-146800D02*
X74150Y-146762D01*
X73700Y-146800D02*
X74113D01*
X71810Y-148602D02*
X73613Y-146800D01*
X73700D01*
X31141Y-299962D02*
X42750D01*
X186372Y-59072D02*
X194891D01*
X65150Y-158950D02*
Y-145162D01*
X53400Y-170700D02*
X65150Y-158950D01*
X40300Y-175100D02*
X44700Y-170700D01*
X53400D01*
X67880Y-129433D02*
X79050D01*
X58080Y-125932D02*
X59950Y-124062D01*
X70362D01*
X150010Y-53167D02*
X157267D01*
X152600Y-48700D02*
Y-44930D01*
X154009Y-43521D01*
X265293Y-191720D02*
X266250Y-190762D01*
X266000Y-190512D02*
X266250Y-190762D01*
X266000Y-190512D02*
Y-180700D01*
X265703Y-161897D02*
Y-155514D01*
X264580Y-163020D02*
X265703Y-161897D01*
X210050Y-85527D02*
X210235Y-85343D01*
X141180Y-253262D02*
Y-246720D01*
X143900Y-244000D01*
X145950Y-238562D02*
X171750D01*
X181035Y-247846D01*
X174400Y-244912D02*
Y-244600D01*
Y-244912D02*
X178786Y-249298D01*
X270321Y-247602D02*
X270608Y-247316D01*
X273919D02*
X281150Y-240085D01*
X270608Y-247316D02*
X273919D01*
X281150Y-240085D02*
Y-224262D01*
X272638Y-251862D02*
X274900Y-249600D01*
X143200Y-238013D02*
Y-233900D01*
X136210Y-245002D02*
X143200Y-238013D01*
X261391Y-247662D02*
X261791Y-248062D01*
X166550Y-278962D02*
X195866Y-249646D01*
X167470Y-275143D02*
X178786Y-263827D01*
X307515Y-315562D02*
Y-307362D01*
X78310Y-229727D02*
X80473D01*
X85791Y-224409D01*
Y-218098D01*
X217440Y-213494D02*
X217546Y-213600D01*
X190717Y-213496D02*
X199750D01*
X83257Y-150681D02*
Y-109068D01*
X85057Y-149935D02*
Y-106768D01*
X86857Y-149190D02*
Y-104821D01*
X88657Y-148444D02*
Y-102874D01*
X83257Y-150681D02*
X96722Y-164146D01*
X85057Y-149935D02*
X97467Y-162346D01*
X86857Y-149190D02*
X98213Y-160546D01*
X88657Y-148444D02*
X98959Y-158746D01*
X90457Y-147699D02*
X99704Y-156946D01*
X96722Y-164146D02*
X96735D01*
X116850Y-184262D01*
X97467Y-162346D02*
X97480D01*
X118850Y-183717D01*
X98213Y-160546D02*
X98226D01*
X120650Y-182971D01*
X98959Y-158746D02*
X98971D01*
X123250Y-183025D01*
X99704Y-156946D02*
X99717D01*
X126150Y-183380D01*
X101558Y-155600D02*
X101700D01*
X92257Y-146299D02*
Y-98968D01*
Y-146299D02*
X101558Y-155600D01*
X45801Y-134832D02*
Y-131092D01*
X52100D02*
X58235D01*
X52100Y-134462D02*
X64747D01*
X45801Y-131092D02*
Y-129012D01*
X54558Y-139762D02*
X55494Y-140698D01*
X45801Y-140212D02*
X46250Y-139762D01*
X54558D01*
X165850Y-295662D02*
X166250D01*
X71400Y-125100D02*
X73500D01*
X70362Y-124062D02*
X71400Y-125100D01*
X117200Y-16300D02*
X119674D01*
X115700Y-46500D02*
Y-17800D01*
X117200Y-16300D01*
X113350Y-210362D02*
Y-197762D01*
X131850Y-43862D02*
X138588Y-50600D01*
X138900D01*
X141150Y-72162D02*
Y-51580D01*
X141184Y-51546D01*
X142950Y-71362D02*
Y-52325D01*
X142984Y-52292D01*
Y-40596D01*
X141184Y-51546D02*
Y-42396D01*
X139150Y-40362D02*
X141184Y-42396D01*
X142050Y-39662D02*
X142984Y-40596D01*
X137150Y-154527D02*
Y-151562D01*
X148230Y-22242D02*
X149350Y-21121D01*
X154835Y-64978D02*
X155600Y-64212D01*
X189766Y-66946D02*
X194891D01*
X289115Y-212262D02*
Y-204217D01*
D46*
X75950Y-24068D02*
Y-11962D01*
X308176Y-142037D02*
X312365D01*
X75918Y-24100D02*
X75950Y-24068D01*
X49050Y-62905D02*
X49150Y-62805D01*
D47*
X211623Y-342900D02*
X211700D01*
X211512Y-343012D02*
X211623Y-342900D01*
X225359Y-345471D02*
Y-340190D01*
X222800Y-343012D02*
Y-339752D01*
X191751Y-277962D02*
X194300D01*
X183750Y-285962D02*
X191751Y-277962D01*
X183750Y-288762D02*
Y-285962D01*
Y-298098D02*
Y-293262D01*
Y-292062D01*
X191600D01*
Y-289862D01*
X183750D02*
X191600D01*
X183750D02*
Y-288762D01*
X201582Y-284647D02*
Y-279794D01*
X199750Y-277962D02*
X201582Y-279794D01*
X199000Y-277962D02*
X199750D01*
X194300D02*
X195700D01*
Y-283662D02*
Y-277962D01*
Y-283662D02*
X197900D01*
Y-277962D01*
X199000D01*
X207391Y-322221D02*
X225359Y-340190D01*
X95616Y-141667D02*
Y-92607D01*
X94116Y-142289D02*
Y-93228D01*
X185246Y-43521D02*
Y-38367D01*
Y-47357D02*
Y-43521D01*
X240550Y-276008D02*
X240860Y-276317D01*
X348550Y-79462D02*
X352350Y-83262D01*
X292850Y-79462D02*
X348550D01*
X318086Y-39362D02*
Y-34898D01*
X315650Y-32462D02*
X318086Y-34898D01*
X259750Y-32462D02*
X315650D01*
X250650Y-41562D02*
X259750Y-32462D01*
X291715Y-36622D02*
X295750D01*
X295650Y-44102D02*
Y-36722D01*
X238650Y-41562D02*
X250650D01*
X185246Y-47357D02*
X185850Y-47962D01*
X189746D01*
X196546Y-41162D01*
X74891Y-45298D02*
Y-37227D01*
X67410Y-45298D02*
Y-37227D01*
X291715Y-47298D02*
Y-44102D01*
X287513Y-51500D02*
X291715Y-47298D01*
X275000Y-51500D02*
X287513D01*
X85711Y-82701D02*
X95616Y-92607D01*
X73219Y-70209D02*
X79911Y-76902D01*
X82244Y-79235D02*
X85711Y-82701D01*
X82244Y-79235D02*
X83766Y-77713D01*
X82211Y-76158D02*
X83766Y-77713D01*
X80689Y-77679D02*
X82211Y-76158D01*
X79911Y-76902D02*
X80689Y-77679D01*
X73219Y-70209D02*
Y-65277D01*
X49750Y-50962D02*
X51250Y-49462D01*
X52760Y-50971D02*
Y-39271D01*
X52750Y-39262D02*
X52760Y-39271D01*
X69282Y-54647D02*
Y-50334D01*
X67410Y-48463D02*
X69282Y-50334D01*
X50632Y-55462D02*
X53950Y-58781D01*
X47650Y-55462D02*
X50632D01*
X52750Y-39262D02*
X52750Y-39262D01*
Y-28062D01*
X70800Y-24100D02*
Y-19612D01*
X69051Y-17862D02*
X70800Y-19612D01*
X62950Y-17862D02*
X69051D01*
X52750Y-28062D02*
X53550Y-27262D01*
X57440Y-23373D02*
X62950Y-17862D01*
X57440Y-23373D02*
X58947Y-24881D01*
X57392Y-26437D02*
X58947Y-24881D01*
X55884Y-24929D02*
X57392Y-26437D01*
X54328Y-26484D02*
X55884Y-24929D01*
X53550Y-27262D02*
X54328Y-26484D01*
X199910Y-320822D02*
Y-313998D01*
X200372Y-276462D02*
X205519Y-281609D01*
Y-284647D02*
Y-281609D01*
X182250Y-285341D02*
X191129Y-276462D01*
X182250Y-293562D02*
Y-285341D01*
X179850Y-295962D02*
X182250Y-293562D01*
X191129Y-276462D02*
X200372D01*
X207391Y-322221D02*
Y-313998D01*
X43945Y-51757D02*
X47650Y-55462D01*
X43945Y-51757D02*
Y-40457D01*
X99681Y-93062D02*
X110350D01*
X69672Y-16362D02*
X73350Y-20041D01*
Y-24091D02*
Y-20041D01*
Y-24091D02*
X73359Y-24100D01*
X51250Y-49462D02*
Y-27441D01*
X67410Y-48463D02*
Y-45298D01*
X51250Y-27441D02*
X62329Y-16362D01*
X69672D01*
X73219Y-50134D02*
X74891Y-48463D01*
X73219Y-54647D02*
Y-50134D01*
X74891Y-48463D02*
Y-45298D01*
Y-37227D02*
Y-32102D01*
X72830Y-30041D02*
X74891Y-32102D01*
X72830Y-30041D02*
Y-27637D01*
X67410Y-34062D02*
X71330Y-30143D01*
X67410Y-37227D02*
Y-34062D01*
X72830Y-27637D02*
X73359Y-27108D01*
Y-24100D01*
X71330Y-30143D02*
Y-27637D01*
X70800Y-27108D02*
X71330Y-27637D01*
X70800Y-27108D02*
Y-24100D01*
X69282Y-68394D02*
Y-65277D01*
X72269Y-58781D02*
X89910Y-76422D01*
X53950Y-58781D02*
X72269D01*
X69282Y-68394D02*
X94116Y-93228D01*
Y-142289D02*
X97600Y-145772D01*
X290791Y-329598D02*
Y-321527D01*
X240450Y-313162D02*
Y-284862D01*
X99416Y-144428D02*
X99650Y-144662D01*
X112787Y-82526D02*
X146987D01*
X100987Y-80726D02*
X150010D01*
X110815Y-84498D02*
X112787Y-82526D01*
X107550Y-84498D02*
X110815D01*
X146987Y-82526D02*
X147037Y-82576D01*
X99650Y-93031D02*
X99681Y-93062D01*
X99596Y-84493D02*
X99650Y-84547D01*
Y-93031D02*
Y-84547D01*
X99596Y-76422D02*
X99601Y-76427D01*
X107550D01*
X89910Y-76422D02*
X99596D01*
Y-84493D02*
Y-82117D01*
X100987Y-80726D01*
X181950Y-232839D02*
Y-200112D01*
Y-232839D02*
X191873Y-242762D01*
X291715Y-44102D02*
X295650D01*
X299786D01*
X295750Y-36622D02*
X299786D01*
X295650Y-36722D02*
X295750Y-36622D01*
X310000Y-70252D02*
X310250Y-70502D01*
X310000Y-70252D02*
Y-63022D01*
Y-51500D01*
X306315Y-70502D02*
X310250D01*
X314386D01*
X306315Y-63022D02*
X310000D01*
X314386D01*
X310000Y-51500D02*
Y-39377D01*
X310015Y-39362D01*
X347500Y-135000D02*
X352350Y-130150D01*
Y-83262D01*
X184314Y-197748D02*
X199750D01*
X181950Y-200112D02*
X184314Y-197748D01*
X283310Y-329598D02*
Y-325562D01*
Y-321527D01*
X290791D02*
X298650D01*
X256648Y-310000D02*
X270000D01*
X244486Y-297838D02*
X256648Y-310000D01*
X244486Y-297838D02*
Y-293062D01*
X275450Y-329598D02*
X283310D01*
X256886D02*
X275450D01*
X240450Y-313162D02*
X256886Y-329598D01*
X191873Y-242762D02*
X225750D01*
X240550Y-276008D02*
Y-257562D01*
X225750Y-242762D02*
X240550Y-257562D01*
X199910Y-313998D02*
Y-305927D01*
X207391Y-313998D02*
Y-305927D01*
X201582Y-301390D02*
Y-295277D01*
X199910Y-305927D02*
Y-303062D01*
X201582Y-301390D01*
X205519Y-301190D02*
Y-295277D01*
X207391Y-305927D02*
Y-303062D01*
X205519Y-301190D02*
X207391Y-303062D01*
X39350Y-35862D02*
X43945Y-40457D01*
X211350Y-293062D02*
X236415D01*
X199910Y-320822D02*
X201450Y-322362D01*
X205410D01*
X222800Y-339752D01*
X150010Y-66946D02*
X155335D01*
X150010Y-68915D02*
X154303D01*
X155550Y-70162D01*
X155335Y-66946D02*
X157450Y-69062D01*
X150010Y-80726D02*
X152964D01*
X155550Y-78140D01*
Y-70162D01*
X147037Y-82576D02*
X153235D01*
X156714Y-79097D01*
X156724D01*
X157450Y-78371D01*
Y-69062D01*
X196546Y-41162D02*
X233217D01*
X185246Y-38367D02*
X195613Y-28000D01*
X225088D01*
X238650Y-41562D01*
X233217Y-41162D02*
X242592Y-50537D01*
X263925D01*
X292850Y-79462D01*
X97600Y-146600D02*
Y-145772D01*
X98415Y-144466D02*
X98484D01*
X98680Y-144662D01*
X99650D01*
X95616Y-141667D02*
X98415Y-144466D01*
X215050Y-345662D02*
X225359D01*
X211512Y-343012D02*
X222800D01*
D48*
X75686Y-172194D02*
Y-168762D01*
X44215Y-166227D02*
X48950D01*
X163300Y-173900D02*
X167048Y-170152D01*
X173750D01*
X208558Y-331600D02*
X208862Y-331905D01*
X150805Y-347000D02*
Y-332705D01*
X208862Y-344338D02*
Y-331905D01*
X208800Y-344400D02*
X208862Y-344338D01*
X145500Y-331000D02*
X149100D01*
X150805Y-332705D01*
X173750Y-162278D02*
X184434D01*
X184435Y-162278D01*
X184009Y-154404D02*
X184009Y-154404D01*
X173750Y-170152D02*
Y-162278D01*
X182586Y-96862D02*
X187580D01*
X160850Y-129398D02*
Y-103898D01*
X258280Y-219987D02*
Y-216162D01*
Y-146309D02*
Y-142333D01*
X121750Y-161262D02*
X125450D01*
X127050Y-233462D02*
Y-229762D01*
X90150Y-230962D02*
X93750D01*
X86400Y-258552D02*
Y-253712D01*
X102350Y-47862D02*
X111350D01*
X71150Y-49162D02*
Y-45298D01*
X83093Y-33462D02*
Y-28842D01*
X52150Y-53762D02*
X56508D01*
X56550Y-53720D01*
X71150Y-37227D02*
Y-33362D01*
X123850Y-175462D02*
X124550D01*
X122015Y-173627D02*
X123850Y-175462D01*
X173750Y-154404D02*
X184009D01*
X301950Y-66762D02*
X306315D01*
X274250Y-203762D02*
X275800Y-205312D01*
X270321Y-203762D02*
X274250D01*
X262250Y-243862D02*
X270321D01*
X257050D02*
X262250D01*
X287050Y-333362D02*
Y-329598D01*
X24761Y-295952D02*
X31068D01*
X75086Y-237798D02*
X78310D01*
X82050Y-218098D02*
Y-210027D01*
Y-222362D02*
Y-218098D01*
X48950Y-166227D02*
X54015D01*
X79050Y-121362D02*
Y-117831D01*
X133550Y-179462D02*
X134050D01*
X132115Y-180898D02*
X133550Y-179462D01*
X132115Y-184362D02*
Y-180898D01*
X94010Y-219922D02*
X97150Y-223062D01*
X48950Y-62605D02*
X49150Y-62805D01*
X96052Y-41564D02*
X102350Y-47862D01*
X31886Y-231962D02*
X36850D01*
X75550Y-153127D02*
Y-149562D01*
X75582Y-179758D02*
X76250Y-180427D01*
X75582Y-179758D02*
Y-175094D01*
X74184Y-173696D02*
X75582Y-175094D01*
X321550Y-237662D02*
X321650Y-237562D01*
X318886Y-240327D02*
X321550Y-237662D01*
X318886Y-245862D02*
Y-240327D01*
X238286Y-206627D02*
X243150D01*
X155915Y-253262D02*
Y-245062D01*
Y-253262D02*
Y-253262D01*
X155915D01*
X149250D02*
X155915D01*
Y-253262D02*
X155915Y-253262D01*
X155865Y-253312D02*
X155915Y-253262D01*
X155865Y-260662D02*
Y-253312D01*
Y-267577D02*
Y-260662D01*
Y-267577D02*
X155950Y-267662D01*
X289093Y-212262D02*
X289115D01*
X282550D02*
X289093D01*
X283950Y-152662D02*
X288993D01*
X289115D01*
X269415Y-226062D02*
X269615Y-225862D01*
X125815Y-234698D02*
X127050Y-233462D01*
X125815Y-237522D02*
Y-234698D01*
X126993Y-229762D02*
X127050D01*
X119650D02*
X126993D01*
X132650D02*
X132708D01*
X187580Y-96862D02*
X188615Y-95827D01*
X88915Y-229727D02*
X90150Y-230962D01*
X85791Y-229727D02*
X88915D01*
X93750Y-230905D02*
Y-226462D01*
Y-230962D02*
Y-230905D01*
X74850Y-188533D02*
X74886Y-188498D01*
X75550Y-168627D02*
X75686Y-168762D01*
X126786Y-162598D02*
X129710D01*
X125450Y-161262D02*
X126786Y-162598D01*
X121750Y-161420D02*
Y-161262D01*
Y-169798D02*
Y-161420D01*
X304486Y-329598D02*
X304663Y-329775D01*
X117650Y-231762D02*
X119650Y-229762D01*
X118350Y-237227D02*
X118646Y-237522D01*
X125815D01*
X49703Y-294709D02*
Y-292015D01*
X47386Y-297027D02*
X49703Y-294709D01*
X47386Y-300462D02*
Y-297027D01*
X119522Y-118962D02*
X119722Y-119162D01*
X75550Y-168627D02*
Y-161198D01*
X74184Y-173696D02*
X75686Y-172194D01*
X122015Y-173627D02*
Y-170062D01*
X56750Y-173696D02*
X74184D01*
X52250D02*
X56750D01*
X65850Y-195862D02*
X81815D01*
X56750Y-186762D02*
X65850Y-195862D01*
X56750Y-186762D02*
Y-173696D01*
X49552D02*
X52250D01*
X52691Y-174136D01*
X48950Y-174298D02*
X49552Y-173696D01*
X48950Y-198327D02*
Y-195562D01*
X52691Y-191822D02*
Y-189198D01*
X48950Y-195562D02*
X52691Y-191822D01*
X45210Y-191822D02*
X48950Y-195562D01*
X45210Y-191822D02*
Y-189198D01*
X48950Y-180712D02*
X49805Y-179857D01*
X48950Y-198327D02*
X49344D01*
X42915D02*
X48950D01*
Y-188898D02*
Y-180712D01*
X76250Y-180427D02*
X82810D01*
X94010Y-219922D02*
Y-218098D01*
X78310Y-206502D02*
X79750Y-205062D01*
X78310Y-210027D02*
Y-206502D01*
Y-218098D02*
Y-210027D01*
X93750Y-226462D02*
X97150Y-223062D01*
X78015Y-245262D02*
X78310Y-244967D01*
X164124Y-146736D02*
X164950Y-147562D01*
X155850Y-146736D02*
Y-146530D01*
X96052Y-41564D02*
Y-33700D01*
X103926Y-16300D02*
Y-6638D01*
X140979Y-113962D02*
X141786Y-113155D01*
X136815Y-170062D02*
X137191Y-169687D01*
X121750Y-169798D02*
X122015Y-170062D01*
X31068Y-292015D02*
X49703D01*
X160850Y-129398D02*
X161215Y-129762D01*
X191031Y-113422D02*
X191086Y-113476D01*
X209686Y-38477D02*
X209700Y-38462D01*
X209686Y-44262D02*
X209700Y-44248D01*
X270286Y-130087D02*
Y-123327D01*
X270550Y-123062D01*
X261950Y-129822D02*
X262215Y-130087D01*
X270321Y-170222D02*
Y-163327D01*
X261950Y-169922D02*
X262250Y-170222D01*
X261950Y-169922D02*
Y-163098D01*
Y-239822D02*
Y-232998D01*
Y-239822D02*
X262250Y-240122D01*
X270321Y-233227D02*
X270550Y-232998D01*
X270321Y-240122D02*
Y-233227D01*
X285000Y-41500D02*
X286138Y-40362D01*
X299786D02*
X304750D01*
X314386Y-66762D02*
X318850D01*
X258280Y-219987D02*
X259354Y-221062D01*
X263450D01*
X258280Y-142333D02*
X259350Y-141262D01*
X262750D01*
X287050Y-321527D02*
Y-316762D01*
X275000Y-321076D02*
X275450Y-321527D01*
X51300Y-114154D02*
Y-113948D01*
X68494Y-114154D02*
X68700Y-113948D01*
X95846Y-16506D02*
X96052Y-16300D01*
X95846Y-33700D02*
X96052D01*
X103926Y-16300D02*
X104131Y-16506D01*
X103926Y-33700D02*
X104131D01*
X203650Y-317562D02*
Y-313998D01*
Y-305927D02*
Y-302362D01*
X221060Y-253727D02*
X229150D01*
X220986Y-253652D02*
X221060Y-253727D01*
X185050Y-267227D02*
X191515D01*
X155850Y-129762D02*
X161215D01*
X191515Y-267227D02*
X191950Y-267662D01*
X212150Y-282676D02*
X212915Y-281912D01*
X141150Y-281405D02*
Y-275962D01*
X144350Y-272762D01*
X71386Y-211262D02*
X77950D01*
X61750Y-216729D02*
X62084Y-217062D01*
X286138Y-40362D02*
X291715D01*
X52691Y-181127D02*
Y-174136D01*
X169250Y-268762D02*
X169750Y-268262D01*
X277597Y-146309D02*
X283950Y-152662D01*
X274457Y-146309D02*
X277597D01*
X274421D02*
X274457D01*
X278650Y-216162D02*
X282550Y-212262D01*
X274457Y-216162D02*
X278650D01*
X274421D02*
X274457D01*
X39750Y-195162D02*
X42915Y-198327D01*
X39750Y-180662D02*
Y-180362D01*
Y-195162D02*
Y-180662D01*
X236900Y-208013D02*
X238286Y-206627D01*
X236900Y-208800D02*
Y-208013D01*
X149200Y-253212D02*
X149250Y-253262D01*
X149200Y-253212D02*
Y-244700D01*
X168950Y-268762D02*
X169250D01*
X51300Y-114154D02*
X68494D01*
X68700Y-113948D02*
X78336D01*
X155850Y-146736D02*
X164124D01*
X104131Y-33700D02*
Y-16506D01*
X212150Y-282676D02*
X213450Y-283976D01*
X74886Y-188498D02*
X82810D01*
X95846Y-33700D02*
Y-16506D01*
D49*
X227850Y-198698D02*
X234594D01*
X227850Y-206150D02*
X229700Y-208000D01*
X234594Y-198698D02*
X234657Y-198635D01*
X227850Y-206150D02*
Y-198698D01*
X323950Y-219962D02*
X329550D01*
X332350Y-217162D01*
Y-210150D01*
X337500Y-205000D01*
X155734Y-162162D02*
X155850Y-162278D01*
D50*
X141786Y-158198D02*
Y-149439D01*
X146750Y-154404D01*
X141786Y-158198D02*
X145750Y-162162D01*
X141786Y-136962D02*
Y-130138D01*
Y-145262D02*
Y-136962D01*
X118650Y-88262D02*
X128309D01*
X141786Y-101739D01*
Y-149439D02*
Y-145262D01*
X145750Y-162162D02*
X155734D01*
X146750Y-154404D02*
X155850D01*
X141786Y-113155D02*
Y-101739D01*
D51*
X162650Y-170062D02*
X164450Y-168262D01*
X144886Y-174798D02*
Y-170062D01*
X140186Y-179498D02*
X144886Y-174798D01*
X140186Y-183062D02*
Y-179498D01*
X102850Y-117980D02*
Y-108862D01*
X146650Y-148262D02*
Y-132962D01*
X112850Y-87462D02*
X115987Y-84326D01*
X112850Y-98862D02*
Y-87462D01*
X104098Y-107615D02*
X112850Y-98862D01*
X102850Y-108862D02*
X104098Y-107615D01*
X164450Y-168262D02*
Y-152162D01*
X162450Y-150162D02*
X164450Y-152162D01*
X148550Y-150162D02*
X162450D01*
X146650Y-148262D02*
X148550Y-150162D01*
X155760Y-170062D02*
X155850Y-170152D01*
X144886Y-170062D02*
X155760D01*
X146650Y-132962D02*
X155500Y-124113D01*
X158698Y-51198D02*
X161100Y-53600D01*
X150010Y-55135D02*
X155983D01*
X159300Y-58452D01*
Y-78713D02*
Y-58452D01*
X115987Y-84326D02*
X153687D01*
X159300Y-78713D01*
X155500Y-124113D02*
Y-84776D01*
X161100Y-79176D01*
Y-53600D01*
X157687Y-88403D02*
Y-84852D01*
X168439Y-74100D01*
X159655Y-88403D02*
Y-85146D01*
X168402Y-76400D01*
X174800D01*
X168439Y-74100D02*
X172300D01*
X224100Y-71600D02*
X226068Y-69632D01*
X234565D01*
X227100Y-74500D02*
X229900Y-77300D01*
X234565D01*
X150010Y-51198D02*
X158698D01*
X155760Y-170062D02*
X162650D01*
D52*
X216874Y-15882D02*
X216218Y-15226D01*
X214906D01*
X214250Y-15882D01*
Y-18506D01*
X214906Y-19162D01*
X216218D01*
X216874Y-18506D01*
Y-17194D01*
X215562D01*
X218186Y-19162D02*
Y-15226D01*
X220810Y-19162D01*
Y-15226D01*
X222122D02*
Y-19162D01*
X224090D01*
X224746Y-18506D01*
Y-15882D01*
X224090Y-15226D01*
X222122D01*
D53*
X35003Y-334962D02*
D03*
Y-19962D02*
D03*
D54*
X342503Y-34962D02*
D03*
D55*
X46850Y-247962D02*
D03*
Y-257962D02*
D03*
X45850Y-225862D02*
D03*
X288250Y-92062D02*
D03*
X368650Y-256162D02*
D03*
X369250Y-85462D02*
D03*
X367550Y-65062D02*
D03*
D56*
X270000Y-282500D02*
D03*
Y-82500D02*
D03*
X357505Y-34957D02*
D03*
X20005Y-334957D02*
D03*
Y-19957D02*
D03*
X357505Y-324957D02*
D03*
X223800Y-55000D02*
D03*
X88800D02*
D03*
X223700Y-310000D02*
D03*
X88800D02*
D03*
D57*
X125800Y-60000D02*
D03*
D58*
X334505Y-34957D02*
D03*
X43005Y-334957D02*
D03*
Y-19957D02*
D03*
X334505Y-324957D02*
D03*
D59*
X337500Y-185000D02*
D03*
Y-195000D02*
D03*
Y-215000D02*
D03*
Y-205000D02*
D03*
Y-225000D02*
D03*
Y-235000D02*
D03*
Y-245000D02*
D03*
Y-255000D02*
D03*
Y-265000D02*
D03*
Y-275000D02*
D03*
X327500D02*
D03*
Y-265000D02*
D03*
Y-255000D02*
D03*
Y-245000D02*
D03*
Y-235000D02*
D03*
Y-225000D02*
D03*
Y-205000D02*
D03*
Y-215000D02*
D03*
Y-195000D02*
D03*
Y-95000D02*
D03*
Y-105000D02*
D03*
Y-115000D02*
D03*
Y-125000D02*
D03*
Y-135000D02*
D03*
Y-145000D02*
D03*
Y-165000D02*
D03*
Y-155000D02*
D03*
Y-175000D02*
D03*
Y-185000D02*
D03*
X337500Y-85000D02*
D03*
Y-95000D02*
D03*
Y-105000D02*
D03*
Y-115000D02*
D03*
Y-125000D02*
D03*
Y-135000D02*
D03*
Y-145000D02*
D03*
Y-165000D02*
D03*
Y-155000D02*
D03*
Y-175000D02*
D03*
X327500Y-285000D02*
D03*
Y-295000D02*
D03*
Y-305000D02*
D03*
X337500D02*
D03*
Y-295000D02*
D03*
Y-285000D02*
D03*
Y-75000D02*
D03*
X327500D02*
D03*
Y-85000D02*
D03*
X337500Y-65000D02*
D03*
Y-55000D02*
D03*
X327500D02*
D03*
Y-65000D02*
D03*
X357500Y-185000D02*
D03*
Y-195000D02*
D03*
Y-215000D02*
D03*
Y-205000D02*
D03*
Y-225000D02*
D03*
Y-235000D02*
D03*
Y-245000D02*
D03*
Y-255000D02*
D03*
Y-265000D02*
D03*
Y-275000D02*
D03*
X347500D02*
D03*
Y-265000D02*
D03*
Y-255000D02*
D03*
Y-245000D02*
D03*
Y-235000D02*
D03*
Y-225000D02*
D03*
Y-205000D02*
D03*
Y-215000D02*
D03*
Y-195000D02*
D03*
Y-95000D02*
D03*
Y-105000D02*
D03*
Y-115000D02*
D03*
Y-125000D02*
D03*
Y-135000D02*
D03*
Y-145000D02*
D03*
Y-165000D02*
D03*
Y-155000D02*
D03*
Y-175000D02*
D03*
Y-185000D02*
D03*
X357500Y-85000D02*
D03*
Y-95000D02*
D03*
Y-105000D02*
D03*
Y-115000D02*
D03*
Y-125000D02*
D03*
Y-135000D02*
D03*
Y-145000D02*
D03*
Y-165000D02*
D03*
Y-155000D02*
D03*
Y-175000D02*
D03*
X347500Y-285000D02*
D03*
Y-295000D02*
D03*
Y-305000D02*
D03*
X357500D02*
D03*
Y-295000D02*
D03*
Y-285000D02*
D03*
Y-75000D02*
D03*
X347500D02*
D03*
Y-85000D02*
D03*
X357500Y-65000D02*
D03*
Y-55000D02*
D03*
X347500D02*
D03*
Y-65000D02*
D03*
D60*
X79560Y-25478D02*
D03*
X62040D02*
D03*
X162360Y-337622D02*
D03*
X144840D02*
D03*
X62040Y-25478D02*
D03*
X79560D02*
D03*
X231660Y-337622D02*
D03*
X214140D02*
D03*
D61*
X87237Y-13175D02*
D03*
X54363D02*
D03*
X170037Y-349925D02*
D03*
X137163D02*
D03*
X54363Y-13175D02*
D03*
X87237D02*
D03*
X239337Y-349925D02*
D03*
X206463D02*
D03*
D62*
X316304Y-277000D02*
D03*
X289296D02*
D03*
X285000Y-61500D02*
D03*
Y-41500D02*
D03*
X265000D02*
D03*
Y-61500D02*
D03*
D63*
X270000Y-310000D02*
D03*
X275000Y-315000D02*
D03*
X265000D02*
D03*
X275000Y-305000D02*
D03*
X265000D02*
D03*
X310000Y-51500D02*
D03*
X315000Y-56500D02*
D03*
X305000D02*
D03*
X315000Y-46500D02*
D03*
X305000D02*
D03*
D64*
X275000Y-51500D02*
D03*
D65*
X187757Y-310806D02*
D03*
X124797D02*
D03*
X120862Y-306868D02*
D03*
Y-314743D02*
D03*
X128732D02*
D03*
Y-306868D02*
D03*
X136602Y-314743D02*
D03*
Y-306868D02*
D03*
X144472Y-314743D02*
D03*
Y-306868D02*
D03*
X152342Y-314743D02*
D03*
Y-306868D02*
D03*
X160212Y-314743D02*
D03*
Y-306868D02*
D03*
X168082Y-314743D02*
D03*
Y-306868D02*
D03*
X175952Y-314743D02*
D03*
Y-306868D02*
D03*
X183822Y-314743D02*
D03*
Y-306868D02*
D03*
X191692Y-314743D02*
D03*
Y-306868D02*
D03*
X204250Y-326000D02*
D03*
X195000Y-330962D02*
D03*
X175250D02*
D03*
X73936Y-315895D02*
D03*
X165375Y-330962D02*
D03*
X160550Y-351260D02*
D03*
X113306Y-241092D02*
D03*
X34200Y-173100D02*
D03*
X61750Y-61463D02*
D03*
X152250Y-94262D02*
D03*
X160438Y-325962D02*
D03*
X244350Y-33462D02*
D03*
X249250Y-38462D02*
D03*
X254250Y-33462D02*
D03*
X234450D02*
D03*
X239400Y-38462D02*
D03*
X204750Y-33462D02*
D03*
X209700Y-38462D02*
D03*
X214650Y-33462D02*
D03*
X219600Y-38462D02*
D03*
X184950Y-33462D02*
D03*
X189900Y-38462D02*
D03*
X194850Y-33462D02*
D03*
X199800Y-38462D02*
D03*
X165150Y-33462D02*
D03*
X175050D02*
D03*
X180000Y-38462D02*
D03*
X145350Y-33462D02*
D03*
X150300Y-38462D02*
D03*
X155250Y-33462D02*
D03*
X160200Y-38462D02*
D03*
X135450Y-33462D02*
D03*
X90900Y-38462D02*
D03*
X81000D02*
D03*
X249250Y-47887D02*
D03*
X254250Y-42912D02*
D03*
X249250Y-67787D02*
D03*
X254250Y-62812D02*
D03*
X249250Y-57837D02*
D03*
X254250Y-82712D02*
D03*
X249250Y-77737D02*
D03*
X254250Y-72762D02*
D03*
X249250Y-107587D02*
D03*
Y-127487D02*
D03*
X254250Y-122512D02*
D03*
X249250Y-117537D02*
D03*
X254250Y-112562D02*
D03*
X249250Y-147387D02*
D03*
X254250Y-142412D02*
D03*
X249250Y-137437D02*
D03*
X254250Y-132462D02*
D03*
X249250Y-167287D02*
D03*
X254250Y-152362D02*
D03*
X249250Y-187187D02*
D03*
X254250Y-182212D02*
D03*
X249250Y-177237D02*
D03*
X254250Y-172262D02*
D03*
X249250Y-207087D02*
D03*
X254250Y-202112D02*
D03*
X249250Y-197137D02*
D03*
X254250Y-192162D02*
D03*
X249250Y-226987D02*
D03*
X254250Y-222012D02*
D03*
X249250Y-217037D02*
D03*
X254250Y-212062D02*
D03*
X249250Y-246887D02*
D03*
X254250Y-241912D02*
D03*
X249250Y-236937D02*
D03*
X254250Y-231962D02*
D03*
Y-251862D02*
D03*
X249250Y-286687D02*
D03*
X254250Y-281712D02*
D03*
X249250Y-276737D02*
D03*
X254250Y-271762D02*
D03*
X249250Y-306587D02*
D03*
X254250Y-301612D02*
D03*
X249250Y-296637D02*
D03*
X254250Y-291662D02*
D03*
X249250Y-325962D02*
D03*
X254250Y-321512D02*
D03*
X249250Y-316537D02*
D03*
X254250Y-311562D02*
D03*
Y-330962D02*
D03*
X229563Y-325962D02*
D03*
X234500Y-330962D02*
D03*
X239438Y-325962D02*
D03*
X244375Y-330962D02*
D03*
X219688Y-325962D02*
D03*
X224625Y-330962D02*
D03*
X190063Y-325962D02*
D03*
X170313D02*
D03*
X180188D02*
D03*
X185125Y-330962D02*
D03*
X150563Y-325962D02*
D03*
X155500Y-330962D02*
D03*
X130813Y-325962D02*
D03*
X135750Y-330962D02*
D03*
X111063Y-325962D02*
D03*
X116000Y-330962D02*
D03*
X120938Y-325962D02*
D03*
X125875Y-330962D02*
D03*
X96250D02*
D03*
X101188Y-325962D02*
D03*
X106125Y-330962D02*
D03*
X71563Y-325962D02*
D03*
X76500Y-330962D02*
D03*
X86375D02*
D03*
X56750D02*
D03*
X61688Y-325995D02*
D03*
X66625Y-330962D02*
D03*
X61750Y-316062D02*
D03*
X56750Y-321029D02*
D03*
Y-301162D02*
D03*
X61750Y-306129D02*
D03*
X56750Y-261429D02*
D03*
Y-271362D02*
D03*
X61750Y-236596D02*
D03*
X56750Y-241562D02*
D03*
X61750Y-246529D02*
D03*
X56750Y-251496D02*
D03*
X61750Y-216729D02*
D03*
X56750Y-221696D02*
D03*
X61750Y-226662D02*
D03*
X56750Y-231629D02*
D03*
X61750Y-196862D02*
D03*
X56750Y-201829D02*
D03*
X61750Y-206796D02*
D03*
X56750Y-211762D02*
D03*
X61750Y-176996D02*
D03*
Y-186929D02*
D03*
X56750Y-191896D02*
D03*
X61750Y-157129D02*
D03*
X56750Y-162096D02*
D03*
X61750Y-167062D02*
D03*
Y-137262D02*
D03*
Y-147196D02*
D03*
X56750Y-122362D02*
D03*
X61750Y-127329D02*
D03*
Y-75163D02*
D03*
X56750Y-70196D02*
D03*
X61750Y-48362D02*
D03*
X56750Y-43396D02*
D03*
X61750Y-38462D02*
D03*
X56750Y-33463D02*
D03*
X249250Y-87687D02*
D03*
X24923Y-197785D02*
D03*
X36734D02*
D03*
X30828Y-203691D02*
D03*
X24923Y-209596D02*
D03*
X36734D02*
D03*
X42639Y-203691D02*
D03*
X30828Y-191879D02*
D03*
X292439Y-245029D02*
D03*
X304250D02*
D03*
X292439Y-256840D02*
D03*
X304250D02*
D03*
X316061Y-252903D02*
D03*
Y-237155D02*
D03*
X260943Y-69832D02*
D03*
X221573Y-119045D02*
D03*
Y-128887D02*
D03*
X211731Y-119045D02*
D03*
X201888D02*
D03*
Y-99360D02*
D03*
X192046D02*
D03*
X231416Y-128887D02*
D03*
Y-138730D02*
D03*
X152676Y-109202D02*
D03*
X132991Y-40305D02*
D03*
X172361Y-10777D02*
D03*
X182203D02*
D03*
X192046D02*
D03*
X201888D02*
D03*
X211731D02*
D03*
X319999Y-99360D02*
D03*
Y-109202D02*
D03*
X369211Y-50147D02*
D03*
Y-99360D02*
D03*
Y-109202D02*
D03*
X280628Y-187943D02*
D03*
X235353Y-221407D02*
D03*
Y-164320D02*
D03*
Y-154478D02*
D03*
X164487Y-134793D02*
D03*
X225510Y-225344D02*
D03*
X129054Y-241092D02*
D03*
X113306Y-280462D02*
D03*
X125117Y-284399D02*
D03*
X74250Y-295362D02*
D03*
X73936Y-306053D02*
D03*
X284565Y-292273D02*
D03*
X127085Y-124950D02*
D03*
X119211Y-75738D02*
D03*
X97557Y-69832D02*
D03*
X73936Y-118945D02*
D03*
X99526Y-227312D02*
D03*
X129450Y-251662D02*
D03*
X98750Y-296462D02*
D03*
X244250Y-82712D02*
D03*
Y-62812D02*
D03*
X239275Y-57812D02*
D03*
D66*
X45650Y-238150D02*
D03*
X39000Y-242400D02*
D03*
X49000Y-137400D02*
D03*
X71700Y-132000D02*
D03*
X74400Y-144000D02*
D03*
X211700Y-342900D02*
D03*
X208800Y-344400D02*
D03*
X150800Y-347000D02*
D03*
X151200Y-205500D02*
D03*
X150900Y-197800D02*
D03*
X160000Y-229300D02*
D03*
X167457Y-221300D02*
D03*
X226100Y-210800D02*
D03*
X222600Y-209700D02*
D03*
X233550Y-203762D02*
D03*
X189100Y-185800D02*
D03*
X188100Y-158800D02*
D03*
X186800Y-171100D02*
D03*
X186700Y-166700D02*
D03*
X165700Y-179900D02*
D03*
X172750Y-189962D02*
D03*
X176550Y-197762D02*
D03*
X178000Y-182100D02*
D03*
X180900D02*
D03*
X189950Y-209462D02*
D03*
X190950Y-213562D02*
D03*
X184100Y-181900D02*
D03*
X184435Y-162278D02*
D03*
X186691Y-205622D02*
D03*
X163300Y-173900D02*
D03*
X169370Y-158362D02*
D03*
X144886Y-174798D02*
D03*
X142500Y-154500D02*
D03*
Y-158300D02*
D03*
X134050Y-164800D02*
D03*
X154400Y-174200D02*
D03*
X51300Y-318500D02*
D03*
X34300Y-313800D02*
D03*
X105500Y-316600D02*
D03*
X50300Y-304900D02*
D03*
X39700Y-304904D02*
D03*
X225359Y-345471D02*
D03*
X222800Y-343012D02*
D03*
X153600D02*
D03*
X156159Y-345471D02*
D03*
X40150Y-262962D02*
D03*
X49250Y-110062D02*
D03*
X81350Y-107162D02*
D03*
X97950Y-109962D02*
D03*
X146790Y-19767D02*
D03*
X142050Y-25862D02*
D03*
X52760Y-50971D02*
D03*
X71150Y-49162D02*
D03*
X49750Y-50962D02*
D03*
X90577Y-25636D02*
D03*
X215050Y-345662D02*
D03*
X83093Y-28842D02*
D03*
X85450Y-27262D02*
D03*
X97850Y-216362D02*
D03*
X219450Y-347862D02*
D03*
X52150Y-53762D02*
D03*
X144550Y-277362D02*
D03*
X132750Y-293262D02*
D03*
X98650Y-149462D02*
D03*
X110350Y-93062D02*
D03*
X71150Y-33362D02*
D03*
X100950Y-141962D02*
D03*
X312308Y-155562D02*
D03*
X312336Y-162162D02*
D03*
X283250Y-161062D02*
D03*
X278950Y-151662D02*
D03*
X317250Y-141862D02*
D03*
X284850Y-186262D02*
D03*
X125650Y-179562D02*
D03*
X189100Y-188800D02*
D03*
X208050Y-159662D02*
D03*
X159950Y-158262D02*
D03*
X128550Y-141962D02*
D03*
X134050Y-158562D02*
D03*
X266350Y-115562D02*
D03*
X284850Y-115162D02*
D03*
X263550Y-151962D02*
D03*
X317650Y-329662D02*
D03*
X100550Y-213962D02*
D03*
X44500Y-64200D02*
D03*
X47750Y-118362D02*
D03*
X50550Y-117962D02*
D03*
X47250Y-162462D02*
D03*
X48950Y-156162D02*
D03*
X166150Y-295762D02*
D03*
X74550Y-122262D02*
D03*
X82250Y-286162D02*
D03*
X86005Y-286157D02*
D03*
X89250Y-286162D02*
D03*
X94950Y-264862D02*
D03*
X93250Y-286062D02*
D03*
X134050Y-179462D02*
D03*
X44550Y-273062D02*
D03*
X45950Y-281762D02*
D03*
X96350Y-240462D02*
D03*
X82250Y-162362D02*
D03*
X99650Y-144662D02*
D03*
X117650Y-146262D02*
D03*
X88250Y-28162D02*
D03*
X46950Y-50962D02*
D03*
X266450Y-119162D02*
D03*
X160050Y-267062D02*
D03*
X295550Y-94662D02*
D03*
X295750Y-146962D02*
D03*
X75550Y-149562D02*
D03*
X82850Y-176262D02*
D03*
X211150Y-292862D02*
D03*
X183750Y-298098D02*
D03*
X179850Y-295962D02*
D03*
X302050Y-73762D02*
D03*
X185850Y-243162D02*
D03*
X179550Y-270062D02*
D03*
X214093Y-271801D02*
D03*
X263350Y-211162D02*
D03*
X112950Y-77562D02*
D03*
X150150Y-267462D02*
D03*
X135850Y-13462D02*
D03*
X158250Y-28362D02*
D03*
X188650Y-150162D02*
D03*
X229950Y-175262D02*
D03*
X182850Y-245562D02*
D03*
X181350Y-142662D02*
D03*
X225450Y-188662D02*
D03*
X266050Y-229562D02*
D03*
X169250Y-105762D02*
D03*
X169450Y-93862D02*
D03*
X147050Y-210962D02*
D03*
X173850Y-71562D02*
D03*
X226650Y-175062D02*
D03*
X362650Y-70662D02*
D03*
X102050Y-285662D02*
D03*
X117650Y-231762D02*
D03*
X82315Y-153127D02*
D03*
X123250Y-187562D02*
D03*
X126050Y-202562D02*
D03*
X49805Y-179857D02*
D03*
X79650Y-188462D02*
D03*
X76350Y-233762D02*
D03*
X181050Y-78462D02*
D03*
X190209Y-88403D02*
D03*
X174350Y-117762D02*
D03*
X156350Y-278062D02*
D03*
X140650Y-270162D02*
D03*
X128050Y-200462D02*
D03*
X130050Y-198362D02*
D03*
X145403Y-63009D02*
D03*
X99650Y-106662D02*
D03*
X113750Y-214862D02*
D03*
X115750Y-212762D02*
D03*
X117750Y-210662D02*
D03*
X39350Y-35862D02*
D03*
X145350Y-69762D02*
D03*
X190050Y-66962D02*
D03*
X222650Y-24662D02*
D03*
X171466Y-28178D02*
D03*
X173435Y-48246D02*
D03*
X205950Y-81262D02*
D03*
X203950Y-83362D02*
D03*
X201950Y-85462D02*
D03*
X207950Y-79162D02*
D03*
X209950Y-77062D02*
D03*
X217650Y-217462D02*
D03*
X51050Y-286462D02*
D03*
X37161Y-295952D02*
D03*
X42450Y-296062D02*
D03*
X42750Y-299962D02*
D03*
X181250Y-83962D02*
D03*
X160850Y-99962D02*
D03*
X175850Y-129762D02*
D03*
X174750Y-121562D02*
D03*
X169286Y-109327D02*
D03*
X232150Y-288962D02*
D03*
X168450Y-83862D02*
D03*
X176350Y-115662D02*
D03*
X178350Y-113562D02*
D03*
X171466Y-83878D02*
D03*
X186472Y-63341D02*
D03*
X186372Y-58741D02*
D03*
X184172Y-61041D02*
D03*
X210250Y-97562D02*
D03*
X302450Y-185362D02*
D03*
X299494Y-119006D02*
D03*
X294550Y-123862D02*
D03*
X298950Y-185362D02*
D03*
X293671Y-126683D02*
D03*
X319148Y-193960D02*
D03*
X312365Y-168762D02*
D03*
X312322Y-158862D02*
D03*
X291450Y-220662D02*
D03*
X287615Y-225198D02*
D03*
X231423Y-182690D02*
D03*
X263450Y-221062D02*
D03*
X262750Y-141262D02*
D03*
X320850Y-285062D02*
D03*
X287050Y-333362D02*
D03*
X283310Y-325562D02*
D03*
X290650Y-325562D02*
D03*
X319950Y-315562D02*
D03*
X319750Y-307362D02*
D03*
X300686Y-311827D02*
D03*
X304850Y-288862D02*
D03*
X323650Y-260262D02*
D03*
X292615Y-292962D02*
D03*
X307450Y-311462D02*
D03*
X309550Y-296962D02*
D03*
X286150Y-305462D02*
D03*
X261250Y-318962D02*
D03*
X308950Y-273662D02*
D03*
X298850Y-283762D02*
D03*
X311250Y-267362D02*
D03*
X312350Y-165462D02*
D03*
X304650Y-151962D02*
D03*
X319150Y-120662D02*
D03*
X203650Y-317562D02*
D03*
Y-302362D02*
D03*
X114910Y-313802D02*
D03*
X229150Y-258062D02*
D03*
X210550Y-265501D02*
D03*
X214093D02*
D03*
X210550Y-271801D02*
D03*
X230150Y-266778D02*
D03*
X228050Y-269062D02*
D03*
X198598Y-271115D02*
D03*
X201050Y-68062D02*
D03*
X120850Y-252662D02*
D03*
X196450Y-269262D02*
D03*
Y-266362D02*
D03*
X198450Y-264409D02*
D03*
X208750Y-221162D02*
D03*
X208300Y-254500D02*
D03*
X220986Y-249162D02*
D03*
X227050Y-248562D02*
D03*
X239250Y-172562D02*
D03*
X241350Y-191262D02*
D03*
X147428Y-182985D02*
D03*
X216150Y-247162D02*
D03*
X139250Y-264962D02*
D03*
X89850Y-22862D02*
D03*
X36550Y-35662D02*
D03*
X110350Y-90262D02*
D03*
X298350Y-94762D02*
D03*
X292750Y-93962D02*
D03*
X186650Y-297162D02*
D03*
X300750Y-76262D02*
D03*
X144350Y-272762D02*
D03*
X176750Y-229062D02*
D03*
X168850Y-243262D02*
D03*
X154748Y-296860D02*
D03*
X37376Y-256037D02*
D03*
X77650Y-256862D02*
D03*
X169250Y-150362D02*
D03*
X139150Y-25862D02*
D03*
X155450Y-282762D02*
D03*
X169250Y-282662D02*
D03*
X160750Y-310862D02*
D03*
X168650Y-311162D02*
D03*
X181650Y-282662D02*
D03*
X179050Y-285262D02*
D03*
X169150Y-285862D02*
D03*
X163850Y-285262D02*
D03*
X175952Y-278164D02*
D03*
X173668Y-276445D02*
D03*
X171350Y-278162D02*
D03*
X164150D02*
D03*
X162450Y-282662D02*
D03*
X101550Y-291262D02*
D03*
X75150Y-132862D02*
D03*
X71750Y-135262D02*
D03*
X161500Y-221300D02*
D03*
X172800Y-213500D02*
D03*
X132050Y-196262D02*
D03*
X129500Y-194300D02*
D03*
X163650Y-74262D02*
D03*
X155550Y-64162D02*
D03*
X166000Y-68500D02*
D03*
X156540Y-58972D02*
D03*
X29600Y-164200D02*
D03*
X161100Y-50000D02*
D03*
X155050Y-61362D02*
D03*
X158800Y-54700D02*
D03*
X174800Y-76400D02*
D03*
X172300Y-74100D02*
D03*
X224100Y-71600D02*
D03*
X227100Y-74500D02*
D03*
X269300Y-46800D02*
D03*
X245200Y-52700D02*
D03*
X258800Y-55000D02*
D03*
X207799Y-213494D02*
D03*
X207500Y-216400D02*
D03*
X166800Y-54200D02*
D03*
X164350Y-83962D02*
D03*
X73700Y-146800D02*
D03*
X50500Y-161400D02*
D03*
X31900Y-177700D02*
D03*
X40300Y-175100D02*
D03*
X152600Y-48700D02*
D03*
X266000Y-180700D02*
D03*
X265703Y-155514D02*
D03*
X143900Y-244000D02*
D03*
X174400Y-244600D02*
D03*
X145000Y-247900D02*
D03*
X274900Y-249600D02*
D03*
X173000Y-229200D02*
D03*
X207700Y-229500D02*
D03*
X143200Y-233900D02*
D03*
X172450Y-266662D02*
D03*
X131500Y-255400D02*
D03*
X101700Y-155600D02*
D03*
X97600Y-146600D02*
D03*
X73500Y-125100D02*
D03*
X99900Y-15200D02*
D03*
X115700Y-46500D02*
D03*
X138900Y-50600D02*
D03*
X148230Y-22242D02*
D03*
D67*
X162800Y-344700D02*
D03*
X229700Y-208000D02*
D03*
X184009Y-154404D02*
D03*
X227918Y-348694D02*
D03*
X86400Y-253712D02*
D03*
X111350Y-47862D02*
D03*
X136602Y-296880D02*
D03*
X124550Y-175462D02*
D03*
X50750Y-77662D02*
D03*
X97150Y-223062D02*
D03*
X99250Y-199762D02*
D03*
X48950Y-60062D02*
D03*
X36850Y-231962D02*
D03*
X323950Y-219962D02*
D03*
X121750Y-150162D02*
D03*
X79350Y-173762D02*
D03*
X321550Y-237662D02*
D03*
X211350Y-299662D02*
D03*
X194650Y-311162D02*
D03*
X179250Y-274162D02*
D03*
X146450Y-113962D02*
D03*
X118650Y-88262D02*
D03*
X160550Y-13662D02*
D03*
X278150Y-193827D02*
D03*
X373250Y-296462D02*
D03*
X144750Y-229762D02*
D03*
X126450Y-118862D02*
D03*
X79350Y-223362D02*
D03*
X79750Y-205062D02*
D03*
X19150Y-256962D02*
D03*
X38050Y-224962D02*
D03*
X164950Y-147762D02*
D03*
X146750Y-154404D02*
D03*
X103926Y-6638D02*
D03*
X108015Y-2798D02*
D03*
X166286Y-16627D02*
D03*
X193450Y-20562D02*
D03*
X185550Y-53262D02*
D03*
X311450Y-100962D02*
D03*
X49703Y-292015D02*
D03*
X75950Y-11962D02*
D03*
X65650Y-11762D02*
D03*
X195691Y-113422D02*
D03*
X226250Y-277362D02*
D03*
X188415Y-103898D02*
D03*
X188615Y-95827D02*
D03*
X301450Y-211262D02*
D03*
X279550Y-108762D02*
D03*
X298915Y-123427D02*
D03*
X281650Y-138062D02*
D03*
X295650Y-158362D02*
D03*
X306515Y-201898D02*
D03*
X275800Y-205312D02*
D03*
X306150Y-177462D02*
D03*
X283666Y-175946D02*
D03*
X294217Y-204196D02*
D03*
X283950Y-152662D02*
D03*
X294850Y-115362D02*
D03*
X293050Y-224462D02*
D03*
X304750Y-40362D02*
D03*
X318850Y-66762D02*
D03*
X232850Y-192827D02*
D03*
X287050Y-316762D02*
D03*
X304486Y-329598D02*
D03*
X304550Y-188562D02*
D03*
X307950Y-148162D02*
D03*
X284250Y-256762D02*
D03*
X78150Y-113962D02*
D03*
X22850Y-299662D02*
D03*
X184009Y-146530D02*
D03*
X111800Y-7113D02*
D03*
X113491Y-300302D02*
D03*
X276200Y-240413D02*
D03*
X128732Y-296880D02*
D03*
X155850Y-129762D02*
D03*
X191950Y-267662D02*
D03*
X213450Y-289662D02*
D03*
X323450Y-35862D02*
D03*
X368350Y-56762D02*
D03*
X320850Y-84362D02*
D03*
X160550Y-296662D02*
D03*
X102650Y-299562D02*
D03*
X315150Y-323462D02*
D03*
X35600Y-184700D02*
D03*
X39750Y-180662D02*
D03*
X236900Y-208800D02*
D03*
X284100Y-244100D02*
D03*
X149200Y-244700D02*
D03*
X168950Y-268762D02*
D03*
D68*
X49050Y-75940D02*
X50697Y-77587D01*
X48950Y-62605D02*
Y-60062D01*
X49050Y-75940D02*
Y-69220D01*
X140979Y-113962D02*
X146450D01*
X140979Y-128962D02*
X145550D01*
X147350Y-127162D01*
Y-120762D01*
X145550Y-118962D02*
X147350Y-120762D01*
X140979Y-118962D02*
X145550D01*
X136350Y-123962D02*
X140979D01*
X134650Y-122262D02*
X136350Y-123962D01*
X134650Y-122262D02*
Y-116162D01*
X136850Y-113962D01*
X140979D01*
D88*
X322650Y-312862D02*
X325650Y-309862D01*
X322650Y-321350D02*
Y-312862D01*
X352450Y-186762D02*
Y-140050D01*
X357500Y-135000D01*
X102050Y-285662D02*
X116915Y-270798D01*
Y-258862D01*
X47386Y-286462D02*
X51050D01*
X297186Y-238362D02*
X297486Y-238062D01*
X295986D02*
X297486D01*
X303350D01*
X105915Y-306227D02*
X106010Y-306322D01*
X325650Y-309862D02*
X368450D01*
X105915Y-306227D02*
Y-294562D01*
X186472Y-63009D02*
X194891D01*
D98*
X199910Y-313998D02*
D03*
X207391D02*
D03*
X67410Y-45298D02*
D03*
X74891D02*
D03*
X129710Y-154527D02*
D03*
X133450D02*
D03*
X137191D02*
D03*
Y-162598D02*
D03*
X129710D02*
D03*
X71150Y-45298D02*
D03*
X74891Y-37227D02*
D03*
X71150D02*
D03*
X67410D02*
D03*
X203650Y-313998D02*
D03*
X207391Y-305927D02*
D03*
X203650D02*
D03*
X199910D02*
D03*
X290791Y-321527D02*
D03*
X287050D02*
D03*
X283310D02*
D03*
Y-329598D02*
D03*
X287050D02*
D03*
X290791D02*
D03*
X85791Y-237798D02*
D03*
X82050D02*
D03*
X78310D02*
D03*
Y-229727D02*
D03*
X85791D02*
D03*
X52691Y-189198D02*
D03*
X48950D02*
D03*
X45210D02*
D03*
Y-181127D02*
D03*
X52691D02*
D03*
X82810Y-188498D02*
D03*
X86550D02*
D03*
X90291D02*
D03*
Y-180427D02*
D03*
X86550D02*
D03*
X82810D02*
D03*
X71810Y-161198D02*
D03*
X75550D02*
D03*
X79291D02*
D03*
Y-153127D02*
D03*
X75550D02*
D03*
X71810D02*
D03*
X94010Y-210027D02*
D03*
X97750D02*
D03*
X101491D02*
D03*
Y-218098D02*
D03*
X94010D02*
D03*
X85791Y-210027D02*
D03*
X82050D02*
D03*
X78310D02*
D03*
Y-218098D02*
D03*
X82050D02*
D03*
X85791D02*
D03*
D99*
X45801Y-122192D02*
D03*
Y-125932D02*
D03*
X52100Y-122192D02*
D03*
Y-125932D02*
D03*
X45801Y-131092D02*
D03*
Y-134832D02*
D03*
X52100Y-131092D02*
D03*
Y-134832D02*
D03*
X45801Y-142292D02*
D03*
Y-146032D02*
D03*
X52100Y-142292D02*
D03*
Y-146032D02*
D03*
X45801Y-149792D02*
D03*
Y-153532D02*
D03*
X52100Y-149792D02*
D03*
Y-153532D02*
D03*
D100*
X173800Y-281505D02*
D03*
Y-284065D02*
D03*
Y-286624D02*
D03*
Y-289183D02*
D03*
Y-291742D02*
D03*
Y-294301D02*
D03*
Y-296860D02*
D03*
Y-299419D02*
D03*
X150572Y-281505D02*
D03*
Y-284065D02*
D03*
Y-286624D02*
D03*
Y-289183D02*
D03*
Y-291742D02*
D03*
Y-294301D02*
D03*
Y-296860D02*
D03*
Y-299419D02*
D03*
D101*
X99650Y-93031D02*
D03*
Y-101693D02*
D03*
D102*
X69000Y-274300D02*
D03*
X86400D02*
D03*
Y-282174D02*
D03*
X69000D02*
D03*
X86400Y-290048D02*
D03*
X69000D02*
D03*
X86400Y-266426D02*
D03*
X69000D02*
D03*
X86400Y-258552D02*
D03*
X69000D02*
D03*
X68700Y-98200D02*
D03*
X51300D02*
D03*
Y-90326D02*
D03*
X68700D02*
D03*
X51300Y-82452D02*
D03*
X68700D02*
D03*
X51300Y-106074D02*
D03*
X68700D02*
D03*
X51300Y-113948D02*
D03*
X68700D02*
D03*
D103*
X111800Y-33700D02*
D03*
Y-16300D02*
D03*
X119674D02*
D03*
Y-33700D02*
D03*
X127548Y-16300D02*
D03*
Y-33700D02*
D03*
X103926Y-16300D02*
D03*
Y-33700D02*
D03*
X96052Y-16300D02*
D03*
Y-33700D02*
D03*
D104*
X69282Y-65277D02*
D03*
X73219D02*
D03*
X69282Y-54647D02*
D03*
X73219D02*
D03*
X205519Y-284647D02*
D03*
X201582D02*
D03*
X205519Y-295277D02*
D03*
X201582D02*
D03*
D105*
X310831Y-234322D02*
D03*
X303350Y-230582D02*
D03*
Y-238062D02*
D03*
D106*
X243187Y-198635D02*
D03*
X241219D02*
D03*
X239250D02*
D03*
X237282D02*
D03*
X235313D02*
D03*
X243187Y-182690D02*
D03*
X241219D02*
D03*
X239250D02*
D03*
X237282D02*
D03*
X235313D02*
D03*
D107*
X289136Y-144596D02*
D03*
Y-142037D02*
D03*
Y-139478D02*
D03*
Y-136919D02*
D03*
Y-134360D02*
D03*
Y-131801D02*
D03*
Y-129242D02*
D03*
Y-126683D02*
D03*
Y-124124D02*
D03*
Y-121564D02*
D03*
Y-119006D02*
D03*
Y-116446D02*
D03*
Y-113887D02*
D03*
Y-111328D02*
D03*
X312365Y-144596D02*
D03*
Y-142037D02*
D03*
Y-139478D02*
D03*
Y-136919D02*
D03*
Y-134360D02*
D03*
Y-131801D02*
D03*
Y-129242D02*
D03*
Y-126683D02*
D03*
Y-124124D02*
D03*
Y-121564D02*
D03*
Y-119006D02*
D03*
Y-116446D02*
D03*
Y-113887D02*
D03*
Y-111328D02*
D03*
X289136Y-204196D02*
D03*
Y-201637D02*
D03*
Y-199078D02*
D03*
Y-196519D02*
D03*
Y-193960D02*
D03*
Y-191401D02*
D03*
Y-188842D02*
D03*
Y-186283D02*
D03*
Y-183724D02*
D03*
Y-181165D02*
D03*
Y-178605D02*
D03*
Y-176046D02*
D03*
Y-173487D02*
D03*
Y-170928D02*
D03*
X312365Y-204196D02*
D03*
Y-201637D02*
D03*
Y-199078D02*
D03*
Y-196519D02*
D03*
Y-193960D02*
D03*
Y-191401D02*
D03*
Y-188842D02*
D03*
Y-186283D02*
D03*
Y-183724D02*
D03*
Y-181165D02*
D03*
Y-178605D02*
D03*
Y-176046D02*
D03*
Y-173487D02*
D03*
Y-170928D02*
D03*
D108*
X262250Y-170222D02*
D03*
Y-173962D02*
D03*
Y-177702D02*
D03*
X270321D02*
D03*
Y-173962D02*
D03*
Y-170222D02*
D03*
X262215Y-130187D02*
D03*
Y-133927D02*
D03*
Y-137667D02*
D03*
X270286D02*
D03*
Y-133927D02*
D03*
Y-130187D02*
D03*
X155950Y-267662D02*
D03*
Y-271402D02*
D03*
Y-275143D02*
D03*
X164021D02*
D03*
Y-271402D02*
D03*
Y-267662D02*
D03*
X314386Y-70502D02*
D03*
Y-66762D02*
D03*
Y-63022D02*
D03*
X306315D02*
D03*
Y-66762D02*
D03*
Y-70502D02*
D03*
X299786Y-44102D02*
D03*
Y-40362D02*
D03*
Y-36622D02*
D03*
X291715D02*
D03*
Y-40362D02*
D03*
Y-44102D02*
D03*
X262250Y-240122D02*
D03*
Y-243862D02*
D03*
Y-247602D02*
D03*
X270321D02*
D03*
Y-243862D02*
D03*
Y-240122D02*
D03*
X262250Y-200022D02*
D03*
Y-203762D02*
D03*
Y-207502D02*
D03*
X270321D02*
D03*
Y-203762D02*
D03*
Y-200022D02*
D03*
X133886Y-237522D02*
D03*
Y-241262D02*
D03*
Y-245002D02*
D03*
X125815D02*
D03*
Y-237522D02*
D03*
D109*
X220794Y-260872D02*
D03*
Y-262841D02*
D03*
Y-264809D02*
D03*
Y-266778D02*
D03*
Y-274652D02*
D03*
Y-272683D02*
D03*
Y-270715D02*
D03*
Y-268746D02*
D03*
X203707D02*
D03*
Y-270715D02*
D03*
Y-272683D02*
D03*
Y-274652D02*
D03*
Y-266778D02*
D03*
Y-264809D02*
D03*
Y-262841D02*
D03*
Y-260872D02*
D03*
D110*
X212250Y-267762D02*
D03*
D111*
X155850Y-209522D02*
D03*
X173750D02*
D03*
X155850Y-201648D02*
D03*
X173750D02*
D03*
X155850Y-193774D02*
D03*
X173750D02*
D03*
X155850Y-185900D02*
D03*
X173750D02*
D03*
X155850Y-178026D02*
D03*
X173750D02*
D03*
X155850Y-170152D02*
D03*
X173750D02*
D03*
X155850Y-162278D02*
D03*
X173750D02*
D03*
X155850Y-154404D02*
D03*
X173750D02*
D03*
X155850Y-146530D02*
D03*
X173750D02*
D03*
X155850Y-138656D02*
D03*
X173750D02*
D03*
Y-217396D02*
D03*
X155850D02*
D03*
X173750Y-225270D02*
D03*
X155850D02*
D03*
X173750Y-233144D02*
D03*
X155850D02*
D03*
X199750Y-205622D02*
D03*
X217650D02*
D03*
X199750Y-197748D02*
D03*
X217650D02*
D03*
X199750Y-189874D02*
D03*
X217650D02*
D03*
X199750Y-182000D02*
D03*
X217650D02*
D03*
X199750Y-174126D02*
D03*
X217650D02*
D03*
X199750Y-166252D02*
D03*
X217650D02*
D03*
X199750Y-158378D02*
D03*
X217650D02*
D03*
X199750Y-150504D02*
D03*
X217650D02*
D03*
X199750Y-142630D02*
D03*
X217650D02*
D03*
X199750Y-134756D02*
D03*
X217650D02*
D03*
Y-213496D02*
D03*
X199750D02*
D03*
X217650Y-221370D02*
D03*
X199750D02*
D03*
X217650Y-229244D02*
D03*
X199750D02*
D03*
D112*
X223550Y-278812D02*
D03*
D113*
X220850Y-255362D02*
D03*
M02*
