G04 Layer_Color=128*
%FSLAX25Y25*%
%MOIN*%
G70*
G01*
G75*
%ADD10R,0.05315X0.04134*%
%ADD11R,0.03937X0.03143*%
%ADD13O,0.05512X0.01100*%
%ADD18R,0.05551X0.03583*%
%ADD19R,0.05709X0.03937*%
%ADD20R,0.03937X0.05709*%
%ADD21R,0.03143X0.03937*%
%ADD25R,0.02165X0.05906*%
%ADD26R,0.01575X0.05315*%
%ADD27R,0.16535X0.02756*%
%ADD28R,0.07874X0.02362*%
%ADD30R,0.03740X0.03150*%
%ADD31R,0.03583X0.05551*%
%ADD32R,0.04134X0.05315*%
%ADD37O,0.01100X0.05512*%
%ADD40O,0.05709X0.02362*%
%ADD98R,0.02165X0.04134*%
%ADD99R,0.03937X0.02362*%
%ADD100O,0.05512X0.01575*%
%ADD101O,0.03543X0.05315*%
%ADD102R,0.12400X0.04016*%
%ADD103R,0.04016X0.12400*%
%ADD104R,0.02362X0.04331*%
%ADD105R,0.05906X0.02165*%
%ADD106O,0.01150X0.06496*%
%ADD107O,0.05512X0.01600*%
%ADD108R,0.04134X0.02165*%
%ADD109R,0.03976X0.01150*%
%ADD111R,0.11900X0.04000*%
%ADD137R,0.05512X0.02756*%
G36*
X154899Y57628D02*
X158616D01*
Y56425D01*
X154899D01*
Y52235D01*
Y52216D01*
Y52198D01*
Y52089D01*
X154917Y51943D01*
X154954Y51743D01*
X155008Y51524D01*
X155099Y51305D01*
X155209Y51105D01*
X155373Y50923D01*
X155391Y50905D01*
X155464Y50850D01*
X155573Y50777D01*
X155719Y50704D01*
X155919Y50631D01*
X156156Y50558D01*
X156429Y50504D01*
X156757Y50485D01*
X157012D01*
X157140Y50504D01*
X157304D01*
X157632Y50540D01*
X157650D01*
X157723Y50558D01*
X157814D01*
X157942Y50595D01*
X158087Y50613D01*
X158251Y50649D01*
X158616Y50740D01*
Y49501D01*
X158598D01*
X158525Y49483D01*
X158433Y49465D01*
X158306Y49447D01*
X158142Y49410D01*
X157978Y49392D01*
X157595Y49338D01*
X157504D01*
X157413Y49319D01*
X157267D01*
X157122Y49301D01*
X156939D01*
X156557Y49283D01*
X156411D01*
X156302Y49301D01*
X156174D01*
X156028Y49319D01*
X155682Y49374D01*
X155318Y49447D01*
X154935Y49574D01*
X154571Y49738D01*
X154389Y49848D01*
X154243Y49975D01*
X154207Y50012D01*
X154115Y50103D01*
X154006Y50267D01*
X153860Y50504D01*
X153715Y50813D01*
X153605Y51178D01*
X153514Y51615D01*
X153478Y52125D01*
Y56425D01*
X151182D01*
Y57628D01*
X153478D01*
Y59887D01*
X154899Y60269D01*
Y57628D01*
D02*
G37*
G36*
X284224D02*
X287941D01*
Y56425D01*
X284224D01*
Y52235D01*
Y52216D01*
Y52198D01*
Y52089D01*
X284243Y51943D01*
X284279Y51743D01*
X284334Y51524D01*
X284425Y51305D01*
X284534Y51105D01*
X284698Y50923D01*
X284716Y50905D01*
X284789Y50850D01*
X284898Y50777D01*
X285044Y50704D01*
X285245Y50631D01*
X285482Y50558D01*
X285755Y50504D01*
X286083Y50485D01*
X286338D01*
X286466Y50504D01*
X286629D01*
X286957Y50540D01*
X286976D01*
X287049Y50558D01*
X287140D01*
X287267Y50595D01*
X287413Y50613D01*
X287577Y50649D01*
X287941Y50740D01*
Y49501D01*
X287923D01*
X287850Y49483D01*
X287759Y49465D01*
X287632Y49447D01*
X287468Y49410D01*
X287304Y49392D01*
X286921Y49338D01*
X286830D01*
X286739Y49319D01*
X286593D01*
X286447Y49301D01*
X286265D01*
X285882Y49283D01*
X285737D01*
X285627Y49301D01*
X285500D01*
X285354Y49319D01*
X285008Y49374D01*
X284644Y49447D01*
X284261Y49574D01*
X283896Y49738D01*
X283714Y49848D01*
X283569Y49975D01*
X283532Y50012D01*
X283441Y50103D01*
X283332Y50267D01*
X283186Y50504D01*
X283040Y50813D01*
X282931Y51178D01*
X282840Y51615D01*
X282803Y52125D01*
Y56425D01*
X280507D01*
Y57628D01*
X282803D01*
Y59887D01*
X284224Y60269D01*
Y57628D01*
D02*
G37*
G36*
X294245Y57755D02*
X294446Y57737D01*
X294683Y57701D01*
X294938Y57664D01*
X295193Y57591D01*
X295448Y57500D01*
X295484Y57482D01*
X295557Y57445D01*
X295685Y57391D01*
X295849Y57300D01*
X296013Y57190D01*
X296213Y57063D01*
X296395Y56899D01*
X296578Y56717D01*
X296596Y56698D01*
X296650Y56625D01*
X296742Y56516D01*
X296833Y56389D01*
X296942Y56207D01*
X297070Y56006D01*
X297179Y55769D01*
X297270Y55514D01*
X297288Y55478D01*
X297306Y55387D01*
X297343Y55241D01*
X297397Y55059D01*
X297434Y54822D01*
X297470Y54567D01*
X297489Y54275D01*
X297507Y53947D01*
Y53929D01*
Y53892D01*
Y53838D01*
Y53765D01*
Y53601D01*
X297489Y53419D01*
Y53382D01*
Y53291D01*
Y53182D01*
X297470Y53054D01*
X291695D01*
Y53036D01*
Y53000D01*
Y52927D01*
X291713Y52854D01*
Y52745D01*
X291731Y52617D01*
X291786Y52326D01*
X291859Y52016D01*
X291986Y51688D01*
X292150Y51378D01*
X292387Y51105D01*
X292423Y51068D01*
X292514Y50995D01*
X292678Y50886D01*
X292915Y50777D01*
X293207Y50649D01*
X293553Y50540D01*
X293954Y50467D01*
X294428Y50431D01*
X294883D01*
X295138Y50449D01*
X295193D01*
X295266Y50467D01*
X295357D01*
X295594Y50504D01*
X295830Y50522D01*
X295849D01*
X295885Y50540D01*
X295958D01*
X296049Y50558D01*
X296250Y50595D01*
X296486Y50631D01*
X296505D01*
X296541Y50649D01*
X296596Y50668D01*
X296669Y50686D01*
X296869Y50722D01*
X297070Y50777D01*
Y49611D01*
X297051D01*
X296960Y49593D01*
X296851Y49556D01*
X296687Y49520D01*
X296486Y49483D01*
X296268Y49429D01*
X296013Y49392D01*
X295739Y49356D01*
X295703D01*
X295612Y49338D01*
X295466Y49319D01*
X295284Y49301D01*
X295047Y49283D01*
X294792Y49265D01*
X294519Y49246D01*
X294045D01*
X293845Y49265D01*
X293608Y49283D01*
X293316Y49319D01*
X293006Y49356D01*
X292697Y49429D01*
X292405Y49520D01*
X292369Y49538D01*
X292278Y49574D01*
X292132Y49647D01*
X291968Y49738D01*
X291768Y49848D01*
X291549Y49994D01*
X291348Y50157D01*
X291148Y50358D01*
X291130Y50376D01*
X291075Y50449D01*
X290984Y50577D01*
X290875Y50722D01*
X290747Y50923D01*
X290638Y51141D01*
X290510Y51415D01*
X290419Y51688D01*
Y51706D01*
Y51724D01*
X290383Y51834D01*
X290346Y51998D01*
X290310Y52216D01*
X290273Y52490D01*
X290237Y52781D01*
X290219Y53127D01*
X290201Y53492D01*
Y53510D01*
Y53528D01*
Y53637D01*
X290219Y53801D01*
X290237Y54020D01*
X290255Y54257D01*
X290310Y54530D01*
X290365Y54822D01*
X290437Y55113D01*
Y55132D01*
X290456Y55150D01*
X290492Y55241D01*
X290547Y55387D01*
X290620Y55587D01*
X290729Y55787D01*
X290857Y56024D01*
X291002Y56261D01*
X291166Y56480D01*
X291184Y56498D01*
X291257Y56571D01*
X291367Y56680D01*
X291494Y56826D01*
X291676Y56972D01*
X291877Y57136D01*
X292095Y57281D01*
X292351Y57427D01*
X292387Y57445D01*
X292478Y57482D01*
X292624Y57537D01*
X292806Y57609D01*
X293043Y57664D01*
X293316Y57719D01*
X293608Y57755D01*
X293936Y57773D01*
X294081D01*
X294245Y57755D01*
D02*
G37*
G36*
X145661Y57628D02*
X149378D01*
Y56425D01*
X145661D01*
Y52235D01*
Y52216D01*
Y52198D01*
Y52089D01*
X145679Y51943D01*
X145716Y51743D01*
X145771Y51524D01*
X145862Y51305D01*
X145971Y51105D01*
X146135Y50923D01*
X146153Y50905D01*
X146226Y50850D01*
X146335Y50777D01*
X146481Y50704D01*
X146682Y50631D01*
X146918Y50558D01*
X147192Y50504D01*
X147520Y50485D01*
X147775D01*
X147902Y50504D01*
X148066D01*
X148394Y50540D01*
X148413D01*
X148485Y50558D01*
X148576D01*
X148704Y50595D01*
X148850Y50613D01*
X149014Y50649D01*
X149378Y50740D01*
Y49501D01*
X149360D01*
X149287Y49483D01*
X149196Y49465D01*
X149068Y49447D01*
X148905Y49410D01*
X148740Y49392D01*
X148358Y49338D01*
X148267D01*
X148176Y49319D01*
X148030D01*
X147884Y49301D01*
X147702D01*
X147319Y49283D01*
X147174D01*
X147064Y49301D01*
X146937D01*
X146791Y49319D01*
X146445Y49374D01*
X146080Y49447D01*
X145698Y49574D01*
X145333Y49738D01*
X145151Y49848D01*
X145005Y49975D01*
X144969Y50012D01*
X144878Y50103D01*
X144769Y50267D01*
X144623Y50504D01*
X144477Y50813D01*
X144368Y51178D01*
X144277Y51615D01*
X144240Y52125D01*
Y56425D01*
X141944D01*
Y57628D01*
X144240D01*
Y59887D01*
X145661Y60269D01*
Y57628D01*
D02*
G37*
G36*
X266642Y57755D02*
X266843Y57737D01*
X267079Y57701D01*
X267535Y57609D01*
X267553D01*
X267644Y57573D01*
X267754Y57537D01*
X267881Y57482D01*
X268045Y57409D01*
X268209Y57318D01*
X268373Y57227D01*
X268537Y57099D01*
X268555Y57081D01*
X268610Y57045D01*
X268683Y56972D01*
X268774Y56881D01*
X268883Y56753D01*
X268992Y56607D01*
X269084Y56443D01*
X269175Y56261D01*
X269193Y56243D01*
X269211Y56170D01*
X269248Y56061D01*
X269302Y55915D01*
X269339Y55751D01*
X269375Y55532D01*
X269393Y55314D01*
X269411Y55059D01*
Y49392D01*
X268118D01*
X268081Y50485D01*
X268045Y50449D01*
X267972Y50376D01*
X267826Y50267D01*
X267662Y50121D01*
X267444Y49975D01*
X267225Y49811D01*
X266970Y49665D01*
X266715Y49538D01*
X266679Y49520D01*
X266587Y49501D01*
X266460Y49447D01*
X266278Y49392D01*
X266059Y49338D01*
X265804Y49301D01*
X265549Y49265D01*
X265257Y49246D01*
X265148D01*
X265020Y49265D01*
X264857D01*
X264656Y49283D01*
X264456Y49319D01*
X264055Y49410D01*
X264037D01*
X263982Y49447D01*
X263891Y49483D01*
X263763Y49538D01*
X263508Y49702D01*
X263235Y49902D01*
X263217Y49921D01*
X263180Y49957D01*
X263126Y50030D01*
X263053Y50121D01*
X262980Y50230D01*
X262889Y50358D01*
X262761Y50649D01*
Y50668D01*
X262743Y50722D01*
X262725Y50813D01*
X262688Y50923D01*
X262670Y51068D01*
X262634Y51232D01*
X262615Y51579D01*
Y51597D01*
Y51633D01*
Y51706D01*
X262634Y51779D01*
X262652Y51888D01*
X262670Y52016D01*
X262725Y52289D01*
X262834Y52599D01*
X262998Y52927D01*
X263107Y53091D01*
X263235Y53237D01*
X263363Y53382D01*
X263527Y53528D01*
X263545D01*
X263563Y53565D01*
X263618Y53601D01*
X263709Y53637D01*
X263800Y53692D01*
X263909Y53747D01*
X264055Y53820D01*
X264219Y53892D01*
X264401Y53947D01*
X264601Y54020D01*
X264820Y54075D01*
X265075Y54129D01*
X265330Y54166D01*
X265622Y54202D01*
X265932Y54239D01*
X267972D01*
Y54949D01*
Y54986D01*
Y55077D01*
X267954Y55204D01*
X267917Y55368D01*
X267863Y55550D01*
X267772Y55751D01*
X267662Y55933D01*
X267498Y56115D01*
X267480Y56134D01*
X267407Y56188D01*
X267298Y56261D01*
X267152Y56334D01*
X266952Y56407D01*
X266697Y56480D01*
X266405Y56534D01*
X266077Y56553D01*
X265822D01*
X265640Y56534D01*
X265421Y56516D01*
X265203Y56480D01*
X264693Y56389D01*
X264656D01*
X264583Y56352D01*
X264438Y56316D01*
X264274Y56279D01*
X264055Y56207D01*
X263818Y56134D01*
X263563Y56042D01*
X263308Y55951D01*
Y57245D01*
X263326D01*
X263363Y57263D01*
X263399Y57281D01*
X263472Y57300D01*
X263654Y57354D01*
X263891Y57427D01*
X263909D01*
X263946Y57445D01*
X264018Y57464D01*
X264109Y57482D01*
X264346Y57537D01*
X264601Y57591D01*
X264620D01*
X264674Y57609D01*
X264747Y57628D01*
X264838Y57646D01*
X264948Y57664D01*
X265075Y57682D01*
X265367Y57719D01*
X265385D01*
X265440Y57737D01*
X265512D01*
X265622Y57755D01*
X265749D01*
X265877Y57773D01*
X266460D01*
X266642Y57755D01*
D02*
G37*
G36*
X257077Y60087D02*
X257313Y60069D01*
X257569Y60033D01*
X258115Y59923D01*
X258152D01*
X258243Y59887D01*
X258370Y59851D01*
X258552Y59778D01*
X258753Y59705D01*
X258953Y59595D01*
X259172Y59486D01*
X259390Y59340D01*
X259409Y59322D01*
X259482Y59267D01*
X259591Y59195D01*
X259718Y59067D01*
X259864Y58921D01*
X260010Y58757D01*
X260156Y58557D01*
X260283Y58338D01*
X260301Y58302D01*
X260338Y58229D01*
X260393Y58101D01*
X260447Y57919D01*
X260502Y57701D01*
X260557Y57445D01*
X260593Y57154D01*
X260611Y56826D01*
Y56789D01*
Y56717D01*
X260593Y56589D01*
X260575Y56425D01*
X260557Y56225D01*
X260502Y55988D01*
X260447Y55751D01*
X260356Y55514D01*
X260338Y55478D01*
X260320Y55405D01*
X260247Y55277D01*
X260174Y55132D01*
X260065Y54949D01*
X259937Y54767D01*
X259773Y54567D01*
X259591Y54366D01*
X259573Y54348D01*
X259500Y54275D01*
X259390Y54184D01*
X259245Y54075D01*
X259044Y53947D01*
X258826Y53801D01*
X258571Y53674D01*
X258279Y53546D01*
X258243Y53528D01*
X258133Y53492D01*
X257969Y53455D01*
X257733Y53401D01*
X257459Y53328D01*
X257131Y53291D01*
X256749Y53255D01*
X256348Y53237D01*
X255036D01*
Y49392D01*
X253578D01*
Y60106D01*
X256876D01*
X257077Y60087D01*
D02*
G37*
G36*
X127605D02*
X127824Y60069D01*
X128097Y60033D01*
X128389Y59960D01*
X128717Y59887D01*
X129045Y59778D01*
X129373Y59650D01*
X129701Y59468D01*
X129992Y59267D01*
X130265Y59012D01*
X130484Y58703D01*
X130666Y58356D01*
X130776Y57956D01*
X130794Y57737D01*
X130812Y57500D01*
Y57482D01*
Y57464D01*
Y57354D01*
X130794Y57190D01*
X130757Y56990D01*
X130703Y56753D01*
X130630Y56498D01*
X130539Y56243D01*
X130393Y56006D01*
X130375Y55988D01*
X130320Y55897D01*
X130211Y55787D01*
X130083Y55660D01*
X129901Y55514D01*
X129664Y55350D01*
X129391Y55204D01*
X129063Y55077D01*
X129081D01*
X129136Y55059D01*
X129227Y55040D01*
X129336Y55022D01*
X129591Y54931D01*
X129883Y54804D01*
X129901D01*
X129956Y54767D01*
X130028Y54731D01*
X130120Y54658D01*
X130338Y54512D01*
X130557Y54293D01*
X130575Y54275D01*
X130612Y54239D01*
X130666Y54166D01*
X130721Y54093D01*
X130794Y53984D01*
X130867Y53856D01*
X131012Y53546D01*
Y53528D01*
X131049Y53474D01*
X131067Y53382D01*
X131104Y53273D01*
X131140Y53127D01*
X131158Y52963D01*
X131195Y52599D01*
Y52562D01*
Y52471D01*
X131176Y52326D01*
X131158Y52125D01*
X131122Y51925D01*
X131067Y51688D01*
X130994Y51451D01*
X130885Y51214D01*
X130867Y51196D01*
X130830Y51123D01*
X130757Y51014D01*
X130666Y50868D01*
X130557Y50722D01*
X130411Y50540D01*
X130247Y50376D01*
X130047Y50212D01*
X130028Y50194D01*
X129956Y50139D01*
X129828Y50066D01*
X129682Y49994D01*
X129482Y49884D01*
X129263Y49775D01*
X129008Y49684D01*
X128717Y49593D01*
X128680D01*
X128589Y49556D01*
X128425Y49538D01*
X128225Y49501D01*
X127970Y49465D01*
X127678Y49429D01*
X127350Y49410D01*
X127004Y49392D01*
X124253D01*
Y60106D01*
X127423D01*
X127605Y60087D01*
D02*
G37*
G36*
X211636Y50577D02*
X214096D01*
Y49392D01*
X207500D01*
Y50577D01*
X210196D01*
Y59814D01*
X207773D01*
Y60980D01*
X211636D01*
Y50577D01*
D02*
G37*
G36*
X229583Y57755D02*
X229783Y57737D01*
X230020Y57701D01*
X230275Y57664D01*
X230530Y57591D01*
X230785Y57500D01*
X230822Y57482D01*
X230894Y57445D01*
X231022Y57391D01*
X231186Y57300D01*
X231350Y57190D01*
X231550Y57063D01*
X231733Y56899D01*
X231915Y56717D01*
X231933Y56698D01*
X231988Y56625D01*
X232079Y56516D01*
X232170Y56389D01*
X232279Y56207D01*
X232407Y56006D01*
X232516Y55769D01*
X232607Y55514D01*
X232625Y55478D01*
X232644Y55387D01*
X232680Y55241D01*
X232735Y55059D01*
X232771Y54822D01*
X232808Y54567D01*
X232826Y54275D01*
X232844Y53947D01*
Y53929D01*
Y53892D01*
Y53838D01*
Y53765D01*
Y53601D01*
X232826Y53419D01*
Y53382D01*
Y53291D01*
Y53182D01*
X232808Y53054D01*
X227032D01*
Y53036D01*
Y53000D01*
Y52927D01*
X227050Y52854D01*
Y52745D01*
X227068Y52617D01*
X227123Y52326D01*
X227196Y52016D01*
X227323Y51688D01*
X227487Y51378D01*
X227724Y51105D01*
X227761Y51068D01*
X227852Y50995D01*
X228016Y50886D01*
X228253Y50777D01*
X228544Y50649D01*
X228890Y50540D01*
X229291Y50467D01*
X229765Y50431D01*
X230220D01*
X230475Y50449D01*
X230530D01*
X230603Y50467D01*
X230694D01*
X230931Y50504D01*
X231168Y50522D01*
X231186D01*
X231222Y50540D01*
X231295D01*
X231386Y50558D01*
X231587Y50595D01*
X231824Y50631D01*
X231842D01*
X231878Y50649D01*
X231933Y50668D01*
X232006Y50686D01*
X232206Y50722D01*
X232407Y50777D01*
Y49611D01*
X232388D01*
X232297Y49593D01*
X232188Y49556D01*
X232024Y49520D01*
X231824Y49483D01*
X231605Y49429D01*
X231350Y49392D01*
X231077Y49356D01*
X231040D01*
X230949Y49338D01*
X230803Y49319D01*
X230621Y49301D01*
X230384Y49283D01*
X230129Y49265D01*
X229856Y49246D01*
X229382D01*
X229182Y49265D01*
X228945Y49283D01*
X228653Y49319D01*
X228344Y49356D01*
X228034Y49429D01*
X227742Y49520D01*
X227706Y49538D01*
X227615Y49574D01*
X227469Y49647D01*
X227305Y49738D01*
X227105Y49848D01*
X226886Y49994D01*
X226686Y50157D01*
X226485Y50358D01*
X226467Y50376D01*
X226412Y50449D01*
X226321Y50577D01*
X226212Y50722D01*
X226084Y50923D01*
X225975Y51141D01*
X225848Y51415D01*
X225756Y51688D01*
Y51706D01*
Y51724D01*
X225720Y51834D01*
X225683Y51998D01*
X225647Y52216D01*
X225611Y52490D01*
X225574Y52781D01*
X225556Y53127D01*
X225538Y53492D01*
Y53510D01*
Y53528D01*
Y53637D01*
X225556Y53801D01*
X225574Y54020D01*
X225592Y54257D01*
X225647Y54530D01*
X225702Y54822D01*
X225775Y55113D01*
Y55132D01*
X225793Y55150D01*
X225829Y55241D01*
X225884Y55387D01*
X225957Y55587D01*
X226066Y55787D01*
X226194Y56024D01*
X226340Y56261D01*
X226503Y56480D01*
X226522Y56498D01*
X226594Y56571D01*
X226704Y56680D01*
X226831Y56826D01*
X227014Y56972D01*
X227214Y57136D01*
X227433Y57281D01*
X227688Y57427D01*
X227724Y57445D01*
X227815Y57482D01*
X227961Y57537D01*
X228143Y57609D01*
X228380Y57664D01*
X228653Y57719D01*
X228945Y57755D01*
X229273Y57773D01*
X229419D01*
X229583Y57755D01*
D02*
G37*
G36*
X276208D02*
X276390D01*
X276809Y57719D01*
X276827D01*
X276918Y57701D01*
X277028D01*
X277191Y57682D01*
X277374Y57646D01*
X277574Y57628D01*
X277811Y57573D01*
X278048Y57537D01*
Y56261D01*
X278011D01*
X277939Y56298D01*
X277811Y56316D01*
X277629Y56352D01*
X277447Y56389D01*
X277228Y56425D01*
X276772Y56498D01*
X276754D01*
X276663Y56516D01*
X276554Y56534D01*
X276408Y56553D01*
X276244D01*
X276080Y56571D01*
X275716Y56589D01*
X275534D01*
X275406Y56571D01*
X275114Y56553D01*
X274823Y56498D01*
X274805D01*
X274768Y56480D01*
X274695Y56462D01*
X274604Y56443D01*
X274422Y56352D01*
X274222Y56261D01*
X274185Y56243D01*
X274094Y56170D01*
X274003Y56061D01*
X273912Y55933D01*
X273894Y55897D01*
X273875Y55806D01*
X273839Y55678D01*
X273821Y55514D01*
Y55496D01*
Y55478D01*
X273839Y55387D01*
X273857Y55259D01*
X273894Y55113D01*
X273912Y55077D01*
X273967Y55004D01*
X274076Y54895D01*
X274222Y54767D01*
X274240D01*
X274258Y54731D01*
X274313Y54712D01*
X274386Y54658D01*
X274495Y54603D01*
X274604Y54549D01*
X274732Y54494D01*
X274878Y54421D01*
X274896D01*
X274950Y54384D01*
X275042Y54366D01*
X275169Y54312D01*
X275333Y54257D01*
X275515Y54202D01*
X275716Y54148D01*
X275953Y54075D01*
X275989Y54057D01*
X276080Y54038D01*
X276208Y54002D01*
X276390Y53929D01*
X276590Y53874D01*
X276791Y53783D01*
X276991Y53710D01*
X277191Y53619D01*
X277210Y53601D01*
X277283Y53583D01*
X277356Y53528D01*
X277483Y53474D01*
X277738Y53291D01*
X277993Y53091D01*
X278011Y53073D01*
X278048Y53036D01*
X278102Y52982D01*
X278175Y52909D01*
X278321Y52708D01*
X278394Y52581D01*
X278449Y52453D01*
Y52435D01*
X278467Y52399D01*
X278503Y52307D01*
X278521Y52216D01*
X278558Y52089D01*
X278576Y51961D01*
X278594Y51633D01*
Y51615D01*
Y51560D01*
Y51469D01*
X278576Y51378D01*
X278521Y51123D01*
X278430Y50850D01*
Y50832D01*
X278412Y50795D01*
X278376Y50722D01*
X278321Y50649D01*
X278194Y50449D01*
X278030Y50230D01*
X278011Y50212D01*
X277993Y50194D01*
X277939Y50139D01*
X277866Y50085D01*
X277665Y49939D01*
X277428Y49775D01*
X277410D01*
X277374Y49738D01*
X277301Y49720D01*
X277210Y49665D01*
X276991Y49574D01*
X276718Y49483D01*
X276699D01*
X276663Y49465D01*
X276572Y49447D01*
X276481Y49429D01*
X276372Y49392D01*
X276226Y49374D01*
X275934Y49319D01*
X275916D01*
X275861Y49301D01*
X275788D01*
X275679Y49283D01*
X275442Y49265D01*
X275151Y49246D01*
X274841D01*
X274641Y49265D01*
X274404D01*
X274149Y49283D01*
X273602Y49319D01*
X273566D01*
X273493Y49338D01*
X273347Y49356D01*
X273183Y49374D01*
X272964Y49410D01*
X272746Y49447D01*
X272254Y49556D01*
Y50868D01*
X272290D01*
X272381Y50832D01*
X272509Y50795D01*
X272691Y50740D01*
X272910Y50686D01*
X273147Y50631D01*
X273675Y50540D01*
X273711D01*
X273803Y50522D01*
X273930Y50504D01*
X274112D01*
X274331Y50485D01*
X274568Y50467D01*
X275096Y50449D01*
X275260D01*
X275442Y50467D01*
X275661Y50485D01*
X275916Y50522D01*
X276171Y50558D01*
X276408Y50631D01*
X276608Y50722D01*
X276627Y50740D01*
X276681Y50777D01*
X276772Y50832D01*
X276864Y50923D01*
X276955Y51032D01*
X277046Y51178D01*
X277100Y51342D01*
X277119Y51524D01*
Y51542D01*
Y51560D01*
X277100Y51652D01*
X277082Y51779D01*
X277028Y51907D01*
X277009Y51943D01*
X276973Y52016D01*
X276882Y52125D01*
X276736Y52253D01*
X276699Y52289D01*
X276645Y52307D01*
X276590Y52362D01*
X276499Y52399D01*
X276390Y52453D01*
X276244Y52526D01*
X276098Y52581D01*
X276080D01*
X276025Y52617D01*
X275934Y52654D01*
X275788Y52708D01*
X275625Y52763D01*
X275424Y52836D01*
X275205Y52909D01*
X274932Y52982D01*
X274914D01*
X274841Y53018D01*
X274732Y53036D01*
X274604Y53091D01*
X274440Y53145D01*
X274276Y53200D01*
X273912Y53346D01*
X273894Y53364D01*
X273839Y53382D01*
X273748Y53437D01*
X273639Y53492D01*
X273365Y53637D01*
X273092Y53838D01*
X273074Y53856D01*
X273037Y53892D01*
X272964Y53947D01*
X272892Y54038D01*
X272709Y54239D01*
X272545Y54512D01*
Y54530D01*
X272509Y54585D01*
X272491Y54658D01*
X272454Y54767D01*
X272418Y54895D01*
X272400Y55059D01*
X272363Y55241D01*
Y55423D01*
Y55441D01*
Y55478D01*
Y55550D01*
X272381Y55642D01*
X272400Y55751D01*
X272418Y55879D01*
X272509Y56170D01*
Y56188D01*
X272545Y56243D01*
X272582Y56316D01*
X272637Y56425D01*
X272709Y56534D01*
X272800Y56662D01*
X272928Y56808D01*
X273056Y56935D01*
X273074Y56954D01*
X273128Y56990D01*
X273219Y57063D01*
X273329Y57154D01*
X273475Y57245D01*
X273657Y57336D01*
X273857Y57445D01*
X274094Y57537D01*
X274131Y57555D01*
X274222Y57573D01*
X274349Y57609D01*
X274550Y57664D01*
X274786Y57701D01*
X275060Y57737D01*
X275388Y57755D01*
X275734Y57773D01*
X276062D01*
X276208Y57755D01*
D02*
G37*
G36*
X239877D02*
X239968D01*
X240096Y57737D01*
X240387Y57664D01*
X240697Y57573D01*
X241007Y57427D01*
X241316Y57209D01*
X241462Y57081D01*
X241590Y56935D01*
X241626Y56899D01*
X241644Y56844D01*
X241699Y56789D01*
X241735Y56698D01*
X241790Y56589D01*
X241863Y56462D01*
X241918Y56316D01*
X241972Y56152D01*
X242027Y55988D01*
X242081Y55787D01*
X242136Y55569D01*
X242173Y55314D01*
X242191Y55059D01*
X242209Y54785D01*
Y54494D01*
X240770D01*
Y54512D01*
Y54549D01*
Y54603D01*
Y54676D01*
X240752Y54858D01*
X240733Y55077D01*
X240697Y55332D01*
X240642Y55587D01*
X240551Y55842D01*
X240442Y56042D01*
X240423Y56061D01*
X240387Y56115D01*
X240296Y56207D01*
X240187Y56298D01*
X240041Y56371D01*
X239877Y56462D01*
X239676Y56516D01*
X239440Y56534D01*
X239330D01*
X239276Y56516D01*
X239093Y56498D01*
X238875Y56425D01*
X238857D01*
X238820Y56407D01*
X238766Y56389D01*
X238693Y56352D01*
X238492Y56243D01*
X238274Y56097D01*
X238255Y56079D01*
X238219Y56061D01*
X238164Y56006D01*
X238073Y55951D01*
X237873Y55751D01*
X237618Y55514D01*
X237599Y55496D01*
X237563Y55459D01*
X237490Y55387D01*
X237399Y55277D01*
X237290Y55150D01*
X237162Y55022D01*
X237035Y54858D01*
X236889Y54676D01*
Y49392D01*
X235450D01*
Y57628D01*
X236743D01*
X236779Y56097D01*
Y56115D01*
X236816Y56134D01*
X236907Y56243D01*
X237053Y56389D01*
X237235Y56589D01*
X237454Y56789D01*
X237690Y57008D01*
X237946Y57209D01*
X238219Y57373D01*
X238255Y57391D01*
X238346Y57427D01*
X238474Y57500D01*
X238674Y57573D01*
X238875Y57646D01*
X239130Y57719D01*
X239385Y57755D01*
X239658Y57773D01*
X239786D01*
X239877Y57755D01*
D02*
G37*
G36*
X193015Y60251D02*
X193234Y60233D01*
X193343D01*
X193434Y60215D01*
X193635Y60197D01*
X193871Y60160D01*
X193926D01*
X193999Y60142D01*
X194072D01*
X194272Y60106D01*
X194509Y60069D01*
X194564D01*
X194637Y60051D01*
X194710Y60033D01*
X194910Y59996D01*
X195110Y59960D01*
Y58648D01*
X195074D01*
X195001Y58684D01*
X194873Y58703D01*
X194710Y58739D01*
X194527Y58776D01*
X194309Y58830D01*
X193835Y58903D01*
X193817D01*
X193726Y58921D01*
X193616Y58939D01*
X193452Y58958D01*
X193270Y58976D01*
X193052Y58994D01*
X192614Y59012D01*
X192414D01*
X192195Y58994D01*
X191922Y58958D01*
X191612Y58903D01*
X191302Y58830D01*
X191029Y58721D01*
X190774Y58575D01*
X190756Y58557D01*
X190683Y58502D01*
X190592Y58411D01*
X190482Y58284D01*
X190373Y58120D01*
X190282Y57919D01*
X190209Y57701D01*
X190191Y57445D01*
Y57427D01*
Y57373D01*
X190209Y57300D01*
X190227Y57190D01*
X190300Y56954D01*
X190355Y56826D01*
X190428Y56698D01*
X190446Y56680D01*
X190464Y56644D01*
X190519Y56589D01*
X190592Y56516D01*
X190792Y56334D01*
X191047Y56134D01*
X191066Y56115D01*
X191120Y56097D01*
X191193Y56042D01*
X191321Y55988D01*
X191448Y55915D01*
X191594Y55842D01*
X191958Y55696D01*
X191976D01*
X192049Y55660D01*
X192140Y55623D01*
X192286Y55569D01*
X192432Y55514D01*
X192596Y55441D01*
X192979Y55277D01*
X192997D01*
X193070Y55241D01*
X193179Y55204D01*
X193307Y55150D01*
X193471Y55077D01*
X193635Y55004D01*
X194017Y54822D01*
X194035Y54804D01*
X194108Y54785D01*
X194199Y54731D01*
X194327Y54658D01*
X194618Y54457D01*
X194910Y54220D01*
X194928Y54202D01*
X194983Y54166D01*
X195056Y54093D01*
X195147Y53984D01*
X195238Y53874D01*
X195347Y53728D01*
X195548Y53401D01*
X195566Y53382D01*
X195584Y53310D01*
X195621Y53218D01*
X195675Y53091D01*
X195730Y52927D01*
X195766Y52726D01*
X195784Y52526D01*
X195803Y52289D01*
Y52253D01*
Y52162D01*
X195784Y52016D01*
X195766Y51834D01*
X195730Y51633D01*
X195657Y51396D01*
X195584Y51160D01*
X195475Y50941D01*
X195457Y50923D01*
X195420Y50850D01*
X195347Y50740D01*
X195256Y50613D01*
X195129Y50467D01*
X194983Y50303D01*
X194801Y50139D01*
X194600Y49994D01*
X194582Y49975D01*
X194509Y49939D01*
X194382Y49866D01*
X194236Y49775D01*
X194035Y49684D01*
X193817Y49593D01*
X193562Y49501D01*
X193270Y49429D01*
X193234D01*
X193143Y49392D01*
X192979Y49374D01*
X192760Y49338D01*
X192505Y49301D01*
X192213Y49283D01*
X191885Y49246D01*
X191284D01*
X191138Y49265D01*
X191011D01*
X190683Y49283D01*
X190610D01*
X190537Y49301D01*
X190428D01*
X190173Y49338D01*
X189881Y49374D01*
X189808D01*
X189735Y49392D01*
X189644D01*
X189408Y49429D01*
X189152Y49465D01*
X189134D01*
X189098Y49483D01*
X189025Y49501D01*
X188952Y49520D01*
X188752Y49574D01*
X188533Y49629D01*
Y51032D01*
X188569Y51014D01*
X188642Y50995D01*
X188770Y50959D01*
X188934Y50905D01*
X189134Y50832D01*
X189371Y50777D01*
X189626Y50722D01*
X189900Y50668D01*
X189936D01*
X190027Y50649D01*
X190191Y50631D01*
X190410Y50613D01*
X190665Y50577D01*
X190956Y50558D01*
X191284Y50540D01*
X191904D01*
X192068Y50558D01*
X192250D01*
X192450Y50595D01*
X192651Y50613D01*
X192851Y50649D01*
X192869D01*
X192942Y50668D01*
X193015Y50704D01*
X193143Y50722D01*
X193398Y50832D01*
X193653Y50959D01*
X193671Y50977D01*
X193707Y50995D01*
X193762Y51050D01*
X193835Y51105D01*
X193999Y51269D01*
X194126Y51487D01*
Y51506D01*
X194145Y51542D01*
X194181Y51615D01*
X194199Y51706D01*
X194236Y51815D01*
X194254Y51943D01*
X194272Y52216D01*
Y52235D01*
Y52289D01*
X194254Y52362D01*
X194236Y52471D01*
X194163Y52708D01*
X194108Y52818D01*
X194017Y52945D01*
X193999Y52963D01*
X193981Y53000D01*
X193926Y53054D01*
X193853Y53127D01*
X193762Y53218D01*
X193653Y53310D01*
X193379Y53492D01*
X193361Y53510D01*
X193307Y53528D01*
X193234Y53583D01*
X193124Y53637D01*
X192997Y53710D01*
X192851Y53783D01*
X192487Y53947D01*
X192469Y53965D01*
X192396Y53984D01*
X192305Y54020D01*
X192159Y54075D01*
X192013Y54129D01*
X191831Y54202D01*
X191448Y54348D01*
X191430Y54366D01*
X191357Y54384D01*
X191266Y54439D01*
X191138Y54494D01*
X190974Y54567D01*
X190811Y54640D01*
X190428Y54822D01*
X190410Y54840D01*
X190337Y54876D01*
X190246Y54913D01*
X190118Y54986D01*
X189991Y55077D01*
X189827Y55168D01*
X189517Y55405D01*
X189499Y55423D01*
X189462Y55459D01*
X189389Y55532D01*
X189298Y55642D01*
X189207Y55751D01*
X189098Y55897D01*
X188897Y56207D01*
X188879Y56225D01*
X188861Y56298D01*
X188824Y56389D01*
X188788Y56516D01*
X188733Y56680D01*
X188697Y56862D01*
X188679Y57081D01*
X188661Y57300D01*
Y57318D01*
Y57391D01*
X188679Y57500D01*
X188697Y57646D01*
X188715Y57810D01*
X188752Y57992D01*
X188806Y58192D01*
X188879Y58393D01*
X188897Y58411D01*
X188916Y58484D01*
X188988Y58575D01*
X189061Y58703D01*
X189152Y58848D01*
X189280Y59012D01*
X189426Y59176D01*
X189590Y59340D01*
X189608Y59359D01*
X189681Y59413D01*
X189790Y59486D01*
X189936Y59577D01*
X190100Y59686D01*
X190319Y59796D01*
X190555Y59905D01*
X190829Y60014D01*
X190865Y60033D01*
X190974Y60051D01*
X191120Y60087D01*
X191339Y60142D01*
X191612Y60197D01*
X191922Y60233D01*
X192268Y60251D01*
X192651Y60269D01*
X192833D01*
X193015Y60251D01*
D02*
G37*
G36*
X223224Y49392D02*
X221930D01*
X221876Y50941D01*
Y50923D01*
X221857Y50905D01*
X221766Y50795D01*
X221657Y50649D01*
X221493Y50449D01*
X221292Y50248D01*
X221074Y50030D01*
X220837Y49830D01*
X220582Y49647D01*
X220546Y49629D01*
X220454Y49593D01*
X220327Y49520D01*
X220126Y49447D01*
X219908Y49374D01*
X219653Y49301D01*
X219379Y49265D01*
X219070Y49246D01*
X218960D01*
X218815Y49265D01*
X218651Y49283D01*
X218468Y49319D01*
X218250Y49374D01*
X218049Y49447D01*
X217831Y49538D01*
X217812Y49556D01*
X217740Y49593D01*
X217649Y49665D01*
X217521Y49757D01*
X217375Y49866D01*
X217230Y50012D01*
X217084Y50176D01*
X216938Y50358D01*
X216920Y50376D01*
X216883Y50449D01*
X216810Y50577D01*
X216738Y50722D01*
X216646Y50923D01*
X216555Y51141D01*
X216464Y51378D01*
X216391Y51652D01*
Y51688D01*
X216373Y51779D01*
X216337Y51943D01*
X216318Y52143D01*
X216282Y52399D01*
X216246Y52690D01*
X216227Y53000D01*
Y53328D01*
Y53346D01*
Y53382D01*
Y53437D01*
Y53510D01*
X216246Y53692D01*
X216264Y53947D01*
X216300Y54239D01*
X216337Y54549D01*
X216410Y54876D01*
X216501Y55186D01*
Y55204D01*
X216519Y55223D01*
X216555Y55332D01*
X216628Y55478D01*
X216719Y55660D01*
X216829Y55879D01*
X216974Y56115D01*
X217138Y56352D01*
X217321Y56571D01*
X217339Y56589D01*
X217412Y56662D01*
X217521Y56771D01*
X217685Y56899D01*
X217867Y57026D01*
X218086Y57172D01*
X218323Y57300D01*
X218596Y57427D01*
X218632Y57445D01*
X218724Y57482D01*
X218887Y57518D01*
X219088Y57573D01*
X219325Y57628D01*
X219616Y57682D01*
X219926Y57701D01*
X220254Y57719D01*
X220491D01*
X220746Y57701D01*
X221019Y57664D01*
X221037D01*
X221092Y57646D01*
X221165D01*
X221256Y57628D01*
X221511Y57573D01*
X221784Y57500D01*
Y60980D01*
X223224D01*
Y49392D01*
D02*
G37*
G36*
X164920Y57755D02*
X165120Y57737D01*
X165375Y57701D01*
X165630Y57646D01*
X165904Y57573D01*
X166177Y57482D01*
X166214Y57464D01*
X166305Y57427D01*
X166432Y57373D01*
X166596Y57281D01*
X166778Y57172D01*
X166979Y57026D01*
X167179Y56862D01*
X167361Y56680D01*
X167379Y56662D01*
X167434Y56589D01*
X167525Y56480D01*
X167635Y56316D01*
X167762Y56134D01*
X167890Y55897D01*
X167999Y55642D01*
X168108Y55368D01*
X168127Y55332D01*
X168145Y55223D01*
X168199Y55059D01*
X168254Y54858D01*
X168290Y54585D01*
X168345Y54275D01*
X168363Y53929D01*
X168382Y53565D01*
Y53546D01*
Y53528D01*
Y53474D01*
Y53401D01*
X168363Y53218D01*
X168345Y52982D01*
X168309Y52708D01*
X168272Y52417D01*
X168199Y52107D01*
X168108Y51797D01*
X168090Y51761D01*
X168054Y51670D01*
X167999Y51524D01*
X167908Y51342D01*
X167799Y51123D01*
X167671Y50886D01*
X167507Y50649D01*
X167325Y50431D01*
X167307Y50412D01*
X167234Y50340D01*
X167124Y50230D01*
X166979Y50103D01*
X166797Y49975D01*
X166596Y49830D01*
X166341Y49684D01*
X166086Y49556D01*
X166050Y49538D01*
X165958Y49501D01*
X165813Y49465D01*
X165612Y49410D01*
X165357Y49338D01*
X165084Y49301D01*
X164774Y49265D01*
X164428Y49246D01*
X164282D01*
X164100Y49265D01*
X163900Y49283D01*
X163644Y49319D01*
X163371Y49356D01*
X163098Y49429D01*
X162824Y49520D01*
X162788Y49538D01*
X162715Y49574D01*
X162588Y49629D01*
X162424Y49720D01*
X162223Y49830D01*
X162041Y49975D01*
X161841Y50139D01*
X161640Y50321D01*
X161622Y50340D01*
X161567Y50412D01*
X161476Y50522D01*
X161367Y50686D01*
X161258Y50868D01*
X161130Y51105D01*
X161021Y51360D01*
X160911Y51633D01*
Y51652D01*
X160893Y51670D01*
X160875Y51779D01*
X160839Y51943D01*
X160784Y52162D01*
X160729Y52435D01*
X160693Y52745D01*
X160675Y53091D01*
X160656Y53455D01*
Y53474D01*
Y53492D01*
Y53546D01*
Y53619D01*
X160675Y53801D01*
X160693Y54020D01*
X160711Y54293D01*
X160766Y54585D01*
X160820Y54895D01*
X160911Y55186D01*
Y55204D01*
X160930Y55223D01*
X160966Y55314D01*
X161021Y55478D01*
X161112Y55660D01*
X161221Y55879D01*
X161367Y56097D01*
X161513Y56334D01*
X161695Y56553D01*
X161713Y56571D01*
X161786Y56644D01*
X161895Y56753D01*
X162041Y56881D01*
X162223Y57026D01*
X162442Y57172D01*
X162679Y57318D01*
X162934Y57445D01*
X162970Y57464D01*
X163061Y57500D01*
X163207Y57555D01*
X163408Y57609D01*
X163663Y57664D01*
X163936Y57719D01*
X164246Y57755D01*
X164592Y57773D01*
X164738D01*
X164920Y57755D01*
D02*
G37*
G36*
X201870D02*
X202070Y57737D01*
X202326Y57701D01*
X202581Y57646D01*
X202854Y57573D01*
X203127Y57482D01*
X203164Y57464D01*
X203255Y57427D01*
X203382Y57373D01*
X203546Y57281D01*
X203728Y57172D01*
X203929Y57026D01*
X204129Y56862D01*
X204311Y56680D01*
X204330Y56662D01*
X204384Y56589D01*
X204475Y56480D01*
X204585Y56316D01*
X204712Y56134D01*
X204840Y55897D01*
X204949Y55642D01*
X205059Y55368D01*
X205077Y55332D01*
X205095Y55223D01*
X205150Y55059D01*
X205204Y54858D01*
X205241Y54585D01*
X205295Y54275D01*
X205314Y53929D01*
X205332Y53565D01*
Y53546D01*
Y53528D01*
Y53474D01*
Y53401D01*
X205314Y53218D01*
X205295Y52982D01*
X205259Y52708D01*
X205223Y52417D01*
X205150Y52107D01*
X205059Y51797D01*
X205040Y51761D01*
X205004Y51670D01*
X204949Y51524D01*
X204858Y51342D01*
X204749Y51123D01*
X204621Y50886D01*
X204457Y50649D01*
X204275Y50431D01*
X204257Y50412D01*
X204184Y50340D01*
X204075Y50230D01*
X203929Y50103D01*
X203747Y49975D01*
X203546Y49830D01*
X203291Y49684D01*
X203036Y49556D01*
X203000Y49538D01*
X202908Y49501D01*
X202763Y49465D01*
X202562Y49410D01*
X202307Y49338D01*
X202034Y49301D01*
X201724Y49265D01*
X201378Y49246D01*
X201232D01*
X201050Y49265D01*
X200850Y49283D01*
X200595Y49319D01*
X200321Y49356D01*
X200048Y49429D01*
X199775Y49520D01*
X199738Y49538D01*
X199665Y49574D01*
X199538Y49629D01*
X199374Y49720D01*
X199173Y49830D01*
X198991Y49975D01*
X198791Y50139D01*
X198590Y50321D01*
X198572Y50340D01*
X198518Y50412D01*
X198426Y50522D01*
X198317Y50686D01*
X198208Y50868D01*
X198080Y51105D01*
X197971Y51360D01*
X197862Y51633D01*
Y51652D01*
X197843Y51670D01*
X197825Y51779D01*
X197789Y51943D01*
X197734Y52162D01*
X197679Y52435D01*
X197643Y52745D01*
X197625Y53091D01*
X197607Y53455D01*
Y53474D01*
Y53492D01*
Y53546D01*
Y53619D01*
X197625Y53801D01*
X197643Y54020D01*
X197661Y54293D01*
X197716Y54585D01*
X197771Y54895D01*
X197862Y55186D01*
Y55204D01*
X197880Y55223D01*
X197916Y55314D01*
X197971Y55478D01*
X198062Y55660D01*
X198171Y55879D01*
X198317Y56097D01*
X198463Y56334D01*
X198645Y56553D01*
X198663Y56571D01*
X198736Y56644D01*
X198846Y56753D01*
X198991Y56881D01*
X199173Y57026D01*
X199392Y57172D01*
X199629Y57318D01*
X199884Y57445D01*
X199920Y57464D01*
X200012Y57500D01*
X200157Y57555D01*
X200358Y57609D01*
X200613Y57664D01*
X200886Y57719D01*
X201196Y57755D01*
X201542Y57773D01*
X201688D01*
X201870Y57755D01*
D02*
G37*
G36*
X176326D02*
X176417Y57737D01*
X176544Y57701D01*
X176672Y57646D01*
X176818Y57573D01*
X176963Y57482D01*
X177109Y57354D01*
X177255Y57190D01*
X177382Y56990D01*
X177510Y56771D01*
X177601Y56498D01*
X177674Y56170D01*
X177728Y55806D01*
X177747Y55387D01*
Y49392D01*
X176326D01*
Y55295D01*
Y55314D01*
Y55368D01*
Y55423D01*
Y55514D01*
X176307Y55714D01*
X176289Y55915D01*
Y55933D01*
Y55951D01*
X176271Y56061D01*
X176253Y56188D01*
X176198Y56316D01*
X176180Y56334D01*
X176162Y56389D01*
X176107Y56462D01*
X176052Y56516D01*
X176034Y56534D01*
X175998Y56553D01*
X175925Y56571D01*
X175834Y56589D01*
X175815D01*
X175742Y56571D01*
X175651Y56553D01*
X175542Y56480D01*
X175524Y56462D01*
X175469Y56407D01*
X175378Y56298D01*
X175269Y56152D01*
Y56134D01*
X175251Y56115D01*
X175214Y56061D01*
X175178Y56006D01*
X175068Y55806D01*
X174941Y55569D01*
Y55550D01*
X174904Y55496D01*
X174868Y55423D01*
X174813Y55314D01*
X174759Y55186D01*
X174686Y55040D01*
X174613Y54858D01*
X174522Y54676D01*
Y49392D01*
X173101D01*
Y55150D01*
Y55168D01*
Y55223D01*
Y55295D01*
Y55405D01*
X173082Y55642D01*
X173064Y55860D01*
Y55879D01*
Y55915D01*
X173046Y56024D01*
X173028Y56170D01*
X172973Y56298D01*
X172955Y56316D01*
X172937Y56389D01*
X172882Y56462D01*
X172827Y56516D01*
X172809Y56534D01*
X172773Y56553D01*
X172700Y56571D01*
X172609Y56589D01*
X172590D01*
X172518Y56571D01*
X172426Y56553D01*
X172335Y56498D01*
X172317Y56480D01*
X172263Y56425D01*
X172171Y56334D01*
X172062Y56188D01*
X172044Y56152D01*
X171971Y56042D01*
X171862Y55860D01*
X171734Y55623D01*
Y55605D01*
X171698Y55550D01*
X171661Y55478D01*
X171607Y55368D01*
X171552Y55241D01*
X171479Y55077D01*
X171388Y54876D01*
X171297Y54676D01*
Y49392D01*
X169876D01*
Y57628D01*
X171042D01*
X171115Y56061D01*
X171133Y56079D01*
X171151Y56134D01*
X171187Y56225D01*
X171242Y56334D01*
X171388Y56589D01*
X171534Y56844D01*
X171552Y56862D01*
X171570Y56899D01*
X171607Y56954D01*
X171661Y57026D01*
X171789Y57209D01*
X171953Y57373D01*
X171971Y57391D01*
X171989Y57409D01*
X172099Y57482D01*
X172244Y57573D01*
X172408Y57664D01*
X172426D01*
X172445Y57682D01*
X172572Y57719D01*
X172736Y57755D01*
X172937Y57773D01*
X173046D01*
X173173Y57755D01*
X173319Y57719D01*
X173483Y57664D01*
X173647Y57591D01*
X173811Y57482D01*
X173957Y57336D01*
X173975Y57318D01*
X174012Y57263D01*
X174066Y57154D01*
X174139Y57008D01*
X174194Y56808D01*
X174249Y56589D01*
X174285Y56316D01*
X174303Y55988D01*
X174321Y56006D01*
X174340Y56061D01*
X174376Y56134D01*
X174431Y56243D01*
X174558Y56480D01*
X174686Y56735D01*
Y56753D01*
X174722Y56789D01*
X174759Y56862D01*
X174813Y56935D01*
X174941Y57117D01*
X175087Y57300D01*
X175105Y57318D01*
X175123Y57336D01*
X175232Y57427D01*
X175378Y57537D01*
X175560Y57646D01*
X175578D01*
X175615Y57664D01*
X175670Y57682D01*
X175742Y57719D01*
X175943Y57755D01*
X176180Y57773D01*
X176253D01*
X176326Y57755D01*
D02*
G37*
G36*
X137207D02*
X137408Y57737D01*
X137663Y57701D01*
X137918Y57646D01*
X138191Y57573D01*
X138464Y57482D01*
X138501Y57464D01*
X138592Y57427D01*
X138719Y57373D01*
X138883Y57281D01*
X139066Y57172D01*
X139266Y57026D01*
X139467Y56862D01*
X139649Y56680D01*
X139667Y56662D01*
X139722Y56589D01*
X139813Y56480D01*
X139922Y56316D01*
X140050Y56134D01*
X140177Y55897D01*
X140286Y55642D01*
X140396Y55368D01*
X140414Y55332D01*
X140432Y55223D01*
X140487Y55059D01*
X140542Y54858D01*
X140578Y54585D01*
X140633Y54275D01*
X140651Y53929D01*
X140669Y53565D01*
Y53546D01*
Y53528D01*
Y53474D01*
Y53401D01*
X140651Y53218D01*
X140633Y52982D01*
X140596Y52708D01*
X140560Y52417D01*
X140487Y52107D01*
X140396Y51797D01*
X140377Y51761D01*
X140341Y51670D01*
X140286Y51524D01*
X140195Y51342D01*
X140086Y51123D01*
X139958Y50886D01*
X139795Y50649D01*
X139612Y50431D01*
X139594Y50412D01*
X139521Y50340D01*
X139412Y50230D01*
X139266Y50103D01*
X139084Y49975D01*
X138883Y49830D01*
X138628Y49684D01*
X138373Y49556D01*
X138337Y49538D01*
X138246Y49501D01*
X138100Y49465D01*
X137900Y49410D01*
X137645Y49338D01*
X137371Y49301D01*
X137062Y49265D01*
X136715Y49246D01*
X136569D01*
X136387Y49265D01*
X136187Y49283D01*
X135932Y49319D01*
X135659Y49356D01*
X135385Y49429D01*
X135112Y49520D01*
X135075Y49538D01*
X135003Y49574D01*
X134875Y49629D01*
X134711Y49720D01*
X134511Y49830D01*
X134328Y49975D01*
X134128Y50139D01*
X133928Y50321D01*
X133909Y50340D01*
X133855Y50412D01*
X133764Y50522D01*
X133654Y50686D01*
X133545Y50868D01*
X133417Y51105D01*
X133308Y51360D01*
X133199Y51633D01*
Y51652D01*
X133181Y51670D01*
X133162Y51779D01*
X133126Y51943D01*
X133071Y52162D01*
X133017Y52435D01*
X132980Y52745D01*
X132962Y53091D01*
X132944Y53455D01*
Y53474D01*
Y53492D01*
Y53546D01*
Y53619D01*
X132962Y53801D01*
X132980Y54020D01*
X132998Y54293D01*
X133053Y54585D01*
X133108Y54895D01*
X133199Y55186D01*
Y55204D01*
X133217Y55223D01*
X133254Y55314D01*
X133308Y55478D01*
X133399Y55660D01*
X133509Y55879D01*
X133654Y56097D01*
X133800Y56334D01*
X133982Y56553D01*
X134001Y56571D01*
X134073Y56644D01*
X134183Y56753D01*
X134328Y56881D01*
X134511Y57026D01*
X134729Y57172D01*
X134966Y57318D01*
X135221Y57445D01*
X135258Y57464D01*
X135349Y57500D01*
X135494Y57555D01*
X135695Y57609D01*
X135950Y57664D01*
X136223Y57719D01*
X136533Y57755D01*
X136879Y57773D01*
X137025D01*
X137207Y57755D01*
D02*
G37*
%LPC*%
G36*
X294063Y56625D02*
X293699D01*
X293589Y56607D01*
X293462Y56589D01*
X293316Y56553D01*
X293006Y56443D01*
X292988D01*
X292952Y56407D01*
X292879Y56371D01*
X292788Y56316D01*
X292569Y56152D01*
X292351Y55933D01*
X292332Y55915D01*
X292314Y55879D01*
X292259Y55806D01*
X292186Y55714D01*
X292114Y55605D01*
X292041Y55459D01*
X291895Y55150D01*
Y55132D01*
X291877Y55077D01*
X291840Y54986D01*
X291804Y54858D01*
X291768Y54712D01*
X291749Y54530D01*
X291695Y54148D01*
X296031D01*
Y54166D01*
Y54239D01*
Y54348D01*
Y54476D01*
X296013Y54621D01*
X295994Y54785D01*
X295903Y55132D01*
Y55150D01*
X295885Y55204D01*
X295849Y55295D01*
X295812Y55405D01*
X295685Y55660D01*
X295503Y55915D01*
X295484Y55933D01*
X295448Y55970D01*
X295393Y56024D01*
X295320Y56097D01*
X295211Y56188D01*
X295102Y56261D01*
X294810Y56425D01*
X294792Y56443D01*
X294737Y56462D01*
X294646Y56498D01*
X294537Y56534D01*
X294409Y56571D01*
X294245Y56589D01*
X294063Y56625D01*
D02*
G37*
G36*
X267972Y53145D02*
X265968D01*
X265840Y53127D01*
X265549Y53109D01*
X265239Y53036D01*
X265221D01*
X265184Y53018D01*
X265112Y53000D01*
X265020Y52963D01*
X264802Y52854D01*
X264601Y52726D01*
X264583D01*
X264565Y52690D01*
X264474Y52599D01*
X264346Y52435D01*
X264237Y52253D01*
Y52235D01*
X264219Y52198D01*
X264201Y52143D01*
X264182Y52070D01*
X264146Y51870D01*
X264128Y51633D01*
Y51615D01*
Y51597D01*
X264146Y51487D01*
X264164Y51342D01*
X264201Y51178D01*
Y51160D01*
X264219Y51141D01*
X264255Y51050D01*
X264328Y50923D01*
X264438Y50777D01*
X264474Y50759D01*
X264547Y50686D01*
X264693Y50595D01*
X264857Y50522D01*
X264875D01*
X264911Y50504D01*
X264966Y50485D01*
X265039D01*
X265239Y50449D01*
X265494Y50431D01*
X265585D01*
X265676Y50449D01*
X265822Y50467D01*
X265986Y50504D01*
X266187Y50558D01*
X266387Y50631D01*
X266624Y50722D01*
X266660Y50740D01*
X266733Y50777D01*
X266861Y50850D01*
X267025Y50959D01*
X267225Y51087D01*
X267462Y51251D01*
X267717Y51433D01*
X267972Y51670D01*
Y53145D01*
D02*
G37*
G36*
X256512Y58885D02*
X255036D01*
Y54476D01*
X256512D01*
X256603Y54494D01*
X256712D01*
X256840Y54512D01*
X257113Y54549D01*
X257441Y54621D01*
X257769Y54712D01*
X258097Y54858D01*
X258388Y55040D01*
X258425Y55059D01*
X258498Y55150D01*
X258607Y55277D01*
X258753Y55459D01*
X258880Y55714D01*
X258990Y56006D01*
X259063Y56352D01*
X259099Y56753D01*
Y56771D01*
Y56789D01*
Y56844D01*
X259081Y56917D01*
X259063Y57099D01*
X259008Y57336D01*
X258935Y57591D01*
X258807Y57846D01*
X258644Y58101D01*
X258407Y58320D01*
X258370Y58338D01*
X258279Y58411D01*
X258133Y58502D01*
X257915Y58612D01*
X257641Y58703D01*
X257332Y58794D01*
X256949Y58867D01*
X256512Y58885D01*
D02*
G37*
G36*
X127405Y54312D02*
X125710D01*
Y50631D01*
X127441D01*
X127551Y50649D01*
X127678D01*
X127952Y50686D01*
X128261Y50740D01*
X128571Y50832D01*
X128863Y50941D01*
X129118Y51087D01*
X129136Y51105D01*
X129209Y51178D01*
X129318Y51287D01*
X129427Y51451D01*
X129537Y51652D01*
X129646Y51907D01*
X129719Y52198D01*
X129737Y52544D01*
Y52562D01*
Y52617D01*
Y52690D01*
X129719Y52781D01*
X129664Y53018D01*
X129555Y53273D01*
Y53291D01*
X129518Y53328D01*
X129482Y53382D01*
X129427Y53474D01*
X129281Y53637D01*
X129063Y53820D01*
X129045Y53838D01*
X129008Y53856D01*
X128935Y53911D01*
X128844Y53947D01*
X128717Y54020D01*
X128589Y54075D01*
X128261Y54184D01*
X128243D01*
X128170Y54202D01*
X128079Y54220D01*
X127952Y54257D01*
X127787Y54275D01*
X127605Y54293D01*
X127405Y54312D01*
D02*
G37*
G36*
X127423Y58867D02*
X125710D01*
Y55532D01*
X127332D01*
X127441Y55550D01*
X127587D01*
X127733Y55569D01*
X128043Y55623D01*
X128061D01*
X128115Y55642D01*
X128188Y55678D01*
X128279Y55714D01*
X128498Y55806D01*
X128735Y55951D01*
X128753Y55970D01*
X128790Y55988D01*
X128899Y56097D01*
X129045Y56279D01*
X129190Y56498D01*
Y56516D01*
X129209Y56553D01*
X129245Y56625D01*
X129281Y56735D01*
X129300Y56844D01*
X129336Y56990D01*
X129354Y57300D01*
Y57318D01*
Y57354D01*
Y57409D01*
X129336Y57500D01*
X129318Y57682D01*
X129245Y57901D01*
Y57919D01*
X129227Y57956D01*
X129209Y58010D01*
X129172Y58065D01*
X129063Y58229D01*
X128899Y58393D01*
X128881Y58411D01*
X128863Y58429D01*
X128808Y58466D01*
X128735Y58520D01*
X128644Y58575D01*
X128516Y58630D01*
X128389Y58684D01*
X128243Y58739D01*
X128225D01*
X128170Y58757D01*
X128079Y58776D01*
X127952Y58812D01*
X127806Y58830D01*
X127623Y58848D01*
X127423Y58867D01*
D02*
G37*
G36*
X229400Y56625D02*
X229036D01*
X228927Y56607D01*
X228799Y56589D01*
X228653Y56553D01*
X228344Y56443D01*
X228325D01*
X228289Y56407D01*
X228216Y56371D01*
X228125Y56316D01*
X227906Y56152D01*
X227688Y55933D01*
X227670Y55915D01*
X227651Y55879D01*
X227597Y55806D01*
X227524Y55714D01*
X227451Y55605D01*
X227378Y55459D01*
X227232Y55150D01*
Y55132D01*
X227214Y55077D01*
X227178Y54986D01*
X227141Y54858D01*
X227105Y54712D01*
X227086Y54530D01*
X227032Y54148D01*
X231368D01*
Y54166D01*
Y54239D01*
Y54348D01*
Y54476D01*
X231350Y54621D01*
X231332Y54785D01*
X231241Y55132D01*
Y55150D01*
X231222Y55204D01*
X231186Y55295D01*
X231150Y55405D01*
X231022Y55660D01*
X230840Y55915D01*
X230822Y55933D01*
X230785Y55970D01*
X230731Y56024D01*
X230658Y56097D01*
X230548Y56188D01*
X230439Y56261D01*
X230147Y56425D01*
X230129Y56443D01*
X230075Y56462D01*
X229983Y56498D01*
X229874Y56534D01*
X229747Y56571D01*
X229583Y56589D01*
X229400Y56625D01*
D02*
G37*
G36*
X220145Y56534D02*
X220035D01*
X219944Y56516D01*
X219744Y56498D01*
X219489Y56443D01*
X219179Y56352D01*
X218887Y56207D01*
X218596Y56024D01*
X218323Y55769D01*
X218304Y55733D01*
X218232Y55623D01*
X218177Y55550D01*
X218122Y55441D01*
X218068Y55332D01*
X218013Y55204D01*
X217940Y55040D01*
X217885Y54876D01*
X217831Y54676D01*
X217794Y54457D01*
X217740Y54239D01*
X217721Y53984D01*
X217685Y53710D01*
Y53419D01*
Y53401D01*
Y53346D01*
Y53273D01*
Y53182D01*
X217703Y53054D01*
Y52909D01*
X217740Y52581D01*
X217794Y52216D01*
X217867Y51852D01*
X217976Y51506D01*
X218122Y51196D01*
X218141Y51160D01*
X218195Y51087D01*
X218304Y50959D01*
X218450Y50832D01*
X218614Y50704D01*
X218833Y50577D01*
X219070Y50504D01*
X219361Y50467D01*
X219452D01*
X219562Y50485D01*
X219707Y50522D01*
X219890Y50577D01*
X220072Y50668D01*
X220290Y50777D01*
X220509Y50941D01*
X220546Y50959D01*
X220618Y51032D01*
X220728Y51141D01*
X220892Y51305D01*
X221092Y51506D01*
X221292Y51761D01*
X221529Y52052D01*
X221784Y52380D01*
Y56188D01*
X221766D01*
X221730Y56225D01*
X221639Y56243D01*
X221548Y56279D01*
X221438Y56316D01*
X221292Y56371D01*
X220983Y56443D01*
X220965D01*
X220910Y56462D01*
X220837Y56480D01*
X220728Y56498D01*
X220600D01*
X220454Y56516D01*
X220145Y56534D01*
D02*
G37*
G36*
X164719Y56553D02*
X164410D01*
X164282Y56534D01*
X164136Y56516D01*
X163954Y56498D01*
X163772Y56443D01*
X163590Y56389D01*
X163408Y56298D01*
X163389Y56279D01*
X163335Y56243D01*
X163244Y56188D01*
X163153Y56115D01*
X163025Y56024D01*
X162897Y55915D01*
X162661Y55623D01*
X162642Y55605D01*
X162606Y55550D01*
X162569Y55459D01*
X162497Y55350D01*
X162424Y55204D01*
X162369Y55040D01*
X162296Y54858D01*
X162241Y54658D01*
Y54640D01*
X162223Y54567D01*
X162205Y54457D01*
X162187Y54312D01*
X162150Y54129D01*
X162132Y53929D01*
X162114Y53492D01*
Y53455D01*
Y53364D01*
X162132Y53218D01*
Y53036D01*
X162150Y52836D01*
X162187Y52599D01*
X162278Y52143D01*
Y52125D01*
X162314Y52052D01*
X162351Y51943D01*
X162406Y51815D01*
X162551Y51506D01*
X162752Y51196D01*
X162770Y51178D01*
X162806Y51141D01*
X162879Y51068D01*
X162970Y50995D01*
X163080Y50905D01*
X163207Y50813D01*
X163499Y50631D01*
X163517D01*
X163572Y50595D01*
X163681Y50577D01*
X163790Y50540D01*
X163954Y50504D01*
X164118Y50485D01*
X164319Y50449D01*
X164628D01*
X164738Y50467D01*
X164902Y50485D01*
X165066Y50504D01*
X165248Y50558D01*
X165430Y50613D01*
X165612Y50686D01*
X165630Y50704D01*
X165685Y50740D01*
X165776Y50795D01*
X165885Y50868D01*
X165995Y50959D01*
X166122Y51087D01*
X166359Y51360D01*
X166377Y51378D01*
X166414Y51433D01*
X166450Y51524D01*
X166523Y51633D01*
X166596Y51779D01*
X166651Y51943D01*
X166724Y52125D01*
X166778Y52326D01*
Y52344D01*
X166797Y52417D01*
X166833Y52544D01*
X166851Y52690D01*
X166888Y52854D01*
X166906Y53054D01*
X166924Y53492D01*
Y53528D01*
Y53619D01*
Y53765D01*
X166906Y53947D01*
X166888Y54148D01*
X166851Y54384D01*
X166797Y54603D01*
X166742Y54822D01*
Y54840D01*
X166705Y54913D01*
X166669Y55022D01*
X166614Y55168D01*
X166469Y55459D01*
X166377Y55623D01*
X166268Y55769D01*
X166250Y55787D01*
X166214Y55824D01*
X166141Y55897D01*
X166050Y55988D01*
X165940Y56079D01*
X165813Y56170D01*
X165503Y56352D01*
X165485Y56371D01*
X165430Y56389D01*
X165339Y56425D01*
X165211Y56462D01*
X165066Y56498D01*
X164902Y56516D01*
X164719Y56553D01*
D02*
G37*
G36*
X201670D02*
X201360D01*
X201232Y56534D01*
X201086Y56516D01*
X200904Y56498D01*
X200722Y56443D01*
X200540Y56389D01*
X200358Y56298D01*
X200340Y56279D01*
X200285Y56243D01*
X200194Y56188D01*
X200103Y56115D01*
X199975Y56024D01*
X199848Y55915D01*
X199611Y55623D01*
X199592Y55605D01*
X199556Y55550D01*
X199520Y55459D01*
X199447Y55350D01*
X199374Y55204D01*
X199319Y55040D01*
X199246Y54858D01*
X199192Y54658D01*
Y54640D01*
X199173Y54567D01*
X199155Y54457D01*
X199137Y54312D01*
X199101Y54129D01*
X199082Y53929D01*
X199064Y53492D01*
Y53455D01*
Y53364D01*
X199082Y53218D01*
Y53036D01*
X199101Y52836D01*
X199137Y52599D01*
X199228Y52143D01*
Y52125D01*
X199265Y52052D01*
X199301Y51943D01*
X199356Y51815D01*
X199501Y51506D01*
X199702Y51196D01*
X199720Y51178D01*
X199757Y51141D01*
X199829Y51068D01*
X199920Y50995D01*
X200030Y50905D01*
X200157Y50813D01*
X200449Y50631D01*
X200467D01*
X200522Y50595D01*
X200631Y50577D01*
X200740Y50540D01*
X200904Y50504D01*
X201068Y50485D01*
X201269Y50449D01*
X201578D01*
X201688Y50467D01*
X201852Y50485D01*
X202016Y50504D01*
X202198Y50558D01*
X202380Y50613D01*
X202562Y50686D01*
X202581Y50704D01*
X202635Y50740D01*
X202726Y50795D01*
X202836Y50868D01*
X202945Y50959D01*
X203073Y51087D01*
X203309Y51360D01*
X203328Y51378D01*
X203364Y51433D01*
X203400Y51524D01*
X203473Y51633D01*
X203546Y51779D01*
X203601Y51943D01*
X203674Y52125D01*
X203728Y52326D01*
Y52344D01*
X203747Y52417D01*
X203783Y52544D01*
X203801Y52690D01*
X203838Y52854D01*
X203856Y53054D01*
X203874Y53492D01*
Y53528D01*
Y53619D01*
Y53765D01*
X203856Y53947D01*
X203838Y54148D01*
X203801Y54384D01*
X203747Y54603D01*
X203692Y54822D01*
Y54840D01*
X203656Y54913D01*
X203619Y55022D01*
X203565Y55168D01*
X203419Y55459D01*
X203328Y55623D01*
X203218Y55769D01*
X203200Y55787D01*
X203164Y55824D01*
X203091Y55897D01*
X203000Y55988D01*
X202890Y56079D01*
X202763Y56170D01*
X202453Y56352D01*
X202435Y56371D01*
X202380Y56389D01*
X202289Y56425D01*
X202162Y56462D01*
X202016Y56498D01*
X201852Y56516D01*
X201670Y56553D01*
D02*
G37*
G36*
X137007D02*
X136697D01*
X136569Y56534D01*
X136424Y56516D01*
X136242Y56498D01*
X136059Y56443D01*
X135877Y56389D01*
X135695Y56298D01*
X135677Y56279D01*
X135622Y56243D01*
X135531Y56188D01*
X135440Y56115D01*
X135312Y56024D01*
X135185Y55915D01*
X134948Y55623D01*
X134930Y55605D01*
X134893Y55550D01*
X134857Y55459D01*
X134784Y55350D01*
X134711Y55204D01*
X134656Y55040D01*
X134583Y54858D01*
X134529Y54658D01*
Y54640D01*
X134511Y54567D01*
X134492Y54457D01*
X134474Y54312D01*
X134438Y54129D01*
X134420Y53929D01*
X134401Y53492D01*
Y53455D01*
Y53364D01*
X134420Y53218D01*
Y53036D01*
X134438Y52836D01*
X134474Y52599D01*
X134565Y52143D01*
Y52125D01*
X134602Y52052D01*
X134638Y51943D01*
X134693Y51815D01*
X134839Y51506D01*
X135039Y51196D01*
X135057Y51178D01*
X135094Y51141D01*
X135167Y51068D01*
X135258Y50995D01*
X135367Y50905D01*
X135494Y50813D01*
X135786Y50631D01*
X135804D01*
X135859Y50595D01*
X135968Y50577D01*
X136078Y50540D01*
X136242Y50504D01*
X136406Y50485D01*
X136606Y50449D01*
X136916D01*
X137025Y50467D01*
X137189Y50485D01*
X137353Y50504D01*
X137535Y50558D01*
X137717Y50613D01*
X137900Y50686D01*
X137918Y50704D01*
X137972Y50740D01*
X138064Y50795D01*
X138173Y50868D01*
X138282Y50959D01*
X138410Y51087D01*
X138647Y51360D01*
X138665Y51378D01*
X138701Y51433D01*
X138738Y51524D01*
X138811Y51633D01*
X138883Y51779D01*
X138938Y51943D01*
X139011Y52125D01*
X139066Y52326D01*
Y52344D01*
X139084Y52417D01*
X139120Y52544D01*
X139138Y52690D01*
X139175Y52854D01*
X139193Y53054D01*
X139211Y53492D01*
Y53528D01*
Y53619D01*
Y53765D01*
X139193Y53947D01*
X139175Y54148D01*
X139138Y54384D01*
X139084Y54603D01*
X139029Y54822D01*
Y54840D01*
X138993Y54913D01*
X138956Y55022D01*
X138902Y55168D01*
X138756Y55459D01*
X138665Y55623D01*
X138556Y55769D01*
X138537Y55787D01*
X138501Y55824D01*
X138428Y55897D01*
X138337Y55988D01*
X138227Y56079D01*
X138100Y56170D01*
X137790Y56352D01*
X137772Y56371D01*
X137717Y56389D01*
X137626Y56425D01*
X137499Y56462D01*
X137353Y56498D01*
X137189Y56516D01*
X137007Y56553D01*
D02*
G37*
%LPD*%
D10*
X79050Y-136327D02*
D03*
Y-144398D02*
D03*
X111150Y-125950D02*
D03*
Y-117879D02*
D03*
X243150Y-214698D02*
D03*
Y-206627D02*
D03*
X240350Y-284898D02*
D03*
Y-276827D02*
D03*
X298650Y-329598D02*
D03*
Y-321527D02*
D03*
X275450D02*
D03*
Y-329598D02*
D03*
X160850Y-95827D02*
D03*
Y-103898D02*
D03*
X229150Y-261798D02*
D03*
Y-253727D02*
D03*
X232150Y-284998D02*
D03*
Y-276927D02*
D03*
X99596Y-76422D02*
D03*
Y-84493D02*
D03*
X107550Y-76427D02*
D03*
Y-84498D02*
D03*
X368450Y-301827D02*
D03*
Y-309898D02*
D03*
X210250Y-93598D02*
D03*
Y-85527D02*
D03*
X118350Y-245298D02*
D03*
Y-237227D02*
D03*
X102850Y-117980D02*
D03*
Y-126050D02*
D03*
X70450Y-237898D02*
D03*
Y-229827D02*
D03*
X79050Y-129433D02*
D03*
Y-121362D02*
D03*
D11*
X56550Y-48005D02*
D03*
Y-53720D02*
D03*
X121750Y-161420D02*
D03*
Y-155705D02*
D03*
X227850Y-198620D02*
D03*
Y-192905D02*
D03*
X261950Y-163020D02*
D03*
Y-157305D02*
D03*
X270550Y-163020D02*
D03*
Y-157305D02*
D03*
X261950Y-121884D02*
D03*
Y-116169D02*
D03*
X270550Y-121884D02*
D03*
Y-116169D02*
D03*
X261950Y-231820D02*
D03*
Y-226105D02*
D03*
X270550Y-231820D02*
D03*
Y-226105D02*
D03*
X261950Y-191720D02*
D03*
Y-186005D02*
D03*
X270550Y-191720D02*
D03*
Y-186005D02*
D03*
X183550Y-97005D02*
D03*
Y-102720D02*
D03*
X169250Y-97005D02*
D03*
Y-102720D02*
D03*
X93750Y-230905D02*
D03*
Y-236620D02*
D03*
X70250Y-211305D02*
D03*
Y-217020D02*
D03*
X141150Y-281405D02*
D03*
Y-287120D02*
D03*
D13*
X150010Y-51198D02*
D03*
Y-53167D02*
D03*
Y-55135D02*
D03*
Y-57104D02*
D03*
Y-59072D02*
D03*
Y-61041D02*
D03*
Y-63009D02*
D03*
Y-64978D02*
D03*
Y-66946D02*
D03*
Y-68915D02*
D03*
Y-70883D02*
D03*
Y-72852D02*
D03*
Y-74820D02*
D03*
Y-76789D02*
D03*
Y-78757D02*
D03*
Y-80726D02*
D03*
X194891D02*
D03*
Y-78757D02*
D03*
Y-76789D02*
D03*
Y-74820D02*
D03*
Y-72852D02*
D03*
Y-70883D02*
D03*
Y-68915D02*
D03*
Y-66946D02*
D03*
Y-64978D02*
D03*
Y-63009D02*
D03*
Y-61041D02*
D03*
Y-59072D02*
D03*
Y-57104D02*
D03*
Y-55135D02*
D03*
Y-53167D02*
D03*
Y-51198D02*
D03*
D18*
X322650Y-329775D02*
D03*
Y-321350D02*
D03*
D19*
X48950Y-166227D02*
D03*
Y-174298D02*
D03*
X185050Y-275298D02*
D03*
Y-267227D02*
D03*
X48950Y-198327D02*
D03*
Y-206398D02*
D03*
D20*
X149686Y-104862D02*
D03*
X141615D02*
D03*
X133715Y-136962D02*
D03*
X141786D02*
D03*
X212915Y-281912D02*
D03*
X220986D02*
D03*
X212915Y-253652D02*
D03*
X220986D02*
D03*
X31886Y-223562D02*
D03*
X23815D02*
D03*
D21*
X88808Y-33462D02*
D03*
X83093D02*
D03*
X203242Y-331600D02*
D03*
X208958D02*
D03*
X139785Y-331000D02*
D03*
X145500D02*
D03*
X288993Y-152662D02*
D03*
X294708D02*
D03*
X155865Y-260662D02*
D03*
X150150D02*
D03*
X289093Y-212262D02*
D03*
X294808D02*
D03*
X126993Y-229762D02*
D03*
X132708D02*
D03*
X75408Y-179862D02*
D03*
X69693D02*
D03*
X75308Y-188362D02*
D03*
X69593D02*
D03*
X75408Y-168762D02*
D03*
X69693D02*
D03*
D25*
X109750Y-313802D02*
D03*
X113491Y-306322D02*
D03*
X106010D02*
D03*
D26*
X75918Y-24100D02*
D03*
X73359D02*
D03*
X70800D02*
D03*
X68241D02*
D03*
X65682D02*
D03*
D27*
X22800Y-284141D02*
D03*
Y-311700D02*
D03*
D28*
X31068Y-295952D02*
D03*
Y-292015D02*
D03*
Y-288078D02*
D03*
Y-307763D02*
D03*
Y-299889D02*
D03*
Y-303826D02*
D03*
D30*
X49050Y-69220D02*
D03*
Y-63905D02*
D03*
D31*
X23738Y-240362D02*
D03*
X32163D02*
D03*
D32*
X39315Y-317462D02*
D03*
X47386D02*
D03*
X300686Y-307362D02*
D03*
X292615D02*
D03*
X132115Y-184362D02*
D03*
X140186D02*
D03*
X310815Y-245862D02*
D03*
X318886D02*
D03*
X133715Y-145262D02*
D03*
X141786D02*
D03*
X318786Y-222762D02*
D03*
X310715D02*
D03*
X287615Y-238362D02*
D03*
X295686D02*
D03*
X126786Y-136962D02*
D03*
X118715D02*
D03*
X295686Y-230262D02*
D03*
X287615D02*
D03*
X130086Y-170062D02*
D03*
X122015D02*
D03*
X136815D02*
D03*
X144886D02*
D03*
X315586Y-307362D02*
D03*
X307515D02*
D03*
X318921Y-260262D02*
D03*
X310850D02*
D03*
X300686Y-297062D02*
D03*
X292615D02*
D03*
X300686Y-288862D02*
D03*
X292615D02*
D03*
X315586Y-315562D02*
D03*
X307515D02*
D03*
X141180Y-253262D02*
D03*
X149250D02*
D03*
X163986Y-245062D02*
D03*
X155915D02*
D03*
X155915Y-253262D02*
D03*
X163986D02*
D03*
X170715D02*
D03*
X178786D02*
D03*
X113986Y-293362D02*
D03*
X105915D02*
D03*
X310015Y-39362D02*
D03*
X318086D02*
D03*
X169286Y-129762D02*
D03*
X161215D02*
D03*
X169286Y-121562D02*
D03*
X161215D02*
D03*
X169286Y-113462D02*
D03*
X161215D02*
D03*
X191031Y-113422D02*
D03*
X182960D02*
D03*
X191086Y-121562D02*
D03*
X183015D02*
D03*
X244486Y-293062D02*
D03*
X236415D02*
D03*
X39315Y-286462D02*
D03*
X47386D02*
D03*
X209686Y-45362D02*
D03*
X201615D02*
D03*
X124986Y-258862D02*
D03*
X116915D02*
D03*
X31886Y-231962D02*
D03*
X23815D02*
D03*
X23915Y-248762D02*
D03*
X31986D02*
D03*
X23915Y-256962D02*
D03*
X31986D02*
D03*
X78015Y-245262D02*
D03*
X86086D02*
D03*
X109615Y-205962D02*
D03*
X117686D02*
D03*
X89886Y-195862D02*
D03*
X81815D02*
D03*
X105215Y-197762D02*
D03*
X113286D02*
D03*
X105286Y-189662D02*
D03*
X97215D02*
D03*
X39315Y-300462D02*
D03*
X47386D02*
D03*
X47386Y-309362D02*
D03*
X39315D02*
D03*
X147286Y-13462D02*
D03*
X139215D02*
D03*
X105286Y-180662D02*
D03*
X97215D02*
D03*
X266386Y-146309D02*
D03*
X258315D02*
D03*
X274457D02*
D03*
X266386Y-216162D02*
D03*
X258315D02*
D03*
X274457D02*
D03*
X242635Y-69632D02*
D03*
X234565D02*
D03*
X242635Y-77300D02*
D03*
X234565D02*
D03*
D37*
X187214Y-43521D02*
D03*
X185246D02*
D03*
X183277D02*
D03*
X181309D02*
D03*
X179340D02*
D03*
X177372D02*
D03*
X175403D02*
D03*
X173435D02*
D03*
X171466D02*
D03*
X169498D02*
D03*
X167529D02*
D03*
X165561D02*
D03*
X163592D02*
D03*
X161624D02*
D03*
X159655D02*
D03*
X157687D02*
D03*
Y-88403D02*
D03*
X159655D02*
D03*
X161624D02*
D03*
X163592D02*
D03*
X165561D02*
D03*
X167529D02*
D03*
X169498D02*
D03*
X171466D02*
D03*
X173435D02*
D03*
X175403D02*
D03*
X177372D02*
D03*
X179340D02*
D03*
X181309D02*
D03*
X183277D02*
D03*
X185246D02*
D03*
X187214D02*
D03*
D40*
X140979Y-113962D02*
D03*
Y-118962D02*
D03*
Y-123962D02*
D03*
Y-128962D02*
D03*
X119522Y-113962D02*
D03*
Y-118962D02*
D03*
Y-123962D02*
D03*
Y-128962D02*
D03*
D98*
X199910Y-313998D02*
D03*
X207391D02*
D03*
X67410Y-45298D02*
D03*
X74891D02*
D03*
X129710Y-154527D02*
D03*
X133450D02*
D03*
X137191D02*
D03*
Y-162598D02*
D03*
X129710D02*
D03*
X71150Y-45298D02*
D03*
X74891Y-37227D02*
D03*
X71150D02*
D03*
X67410D02*
D03*
X203650Y-313998D02*
D03*
X207391Y-305927D02*
D03*
X203650D02*
D03*
X199910D02*
D03*
X290791Y-321527D02*
D03*
X287050D02*
D03*
X283310D02*
D03*
Y-329598D02*
D03*
X287050D02*
D03*
X290791D02*
D03*
X85791Y-237798D02*
D03*
X82050D02*
D03*
X78310D02*
D03*
Y-229727D02*
D03*
X85791D02*
D03*
X52691Y-189198D02*
D03*
X48950D02*
D03*
X45210D02*
D03*
Y-181127D02*
D03*
X52691D02*
D03*
X82810Y-188498D02*
D03*
X86550D02*
D03*
X90291D02*
D03*
Y-180427D02*
D03*
X86550D02*
D03*
X82810D02*
D03*
X71810Y-161198D02*
D03*
X75550D02*
D03*
X79291D02*
D03*
Y-153127D02*
D03*
X75550D02*
D03*
X71810D02*
D03*
X94010Y-210027D02*
D03*
X97750D02*
D03*
X101491D02*
D03*
Y-218098D02*
D03*
X94010D02*
D03*
X85791Y-210027D02*
D03*
X82050D02*
D03*
X78310D02*
D03*
Y-218098D02*
D03*
X82050D02*
D03*
X85791D02*
D03*
D99*
X45801Y-122192D02*
D03*
Y-125932D02*
D03*
X52100Y-122192D02*
D03*
Y-125932D02*
D03*
X45801Y-131092D02*
D03*
Y-134832D02*
D03*
X52100Y-131092D02*
D03*
Y-134832D02*
D03*
X45801Y-142292D02*
D03*
Y-146032D02*
D03*
X52100Y-142292D02*
D03*
Y-146032D02*
D03*
X45801Y-149792D02*
D03*
Y-153532D02*
D03*
X52100Y-149792D02*
D03*
Y-153532D02*
D03*
D100*
X173800Y-281505D02*
D03*
Y-284065D02*
D03*
Y-286624D02*
D03*
Y-289183D02*
D03*
Y-291742D02*
D03*
Y-294301D02*
D03*
Y-296860D02*
D03*
Y-299419D02*
D03*
X150572Y-281505D02*
D03*
Y-284065D02*
D03*
Y-286624D02*
D03*
Y-289183D02*
D03*
Y-291742D02*
D03*
Y-294301D02*
D03*
Y-296860D02*
D03*
Y-299419D02*
D03*
D101*
X99650Y-93031D02*
D03*
Y-101693D02*
D03*
D102*
X69000Y-274300D02*
D03*
X86400D02*
D03*
Y-282174D02*
D03*
X69000D02*
D03*
X86400Y-290048D02*
D03*
X69000D02*
D03*
X86400Y-266426D02*
D03*
X69000D02*
D03*
X86400Y-258552D02*
D03*
X69000D02*
D03*
X68700Y-98200D02*
D03*
X51300D02*
D03*
Y-90326D02*
D03*
X68700D02*
D03*
X51300Y-82452D02*
D03*
X68700D02*
D03*
X51300Y-106074D02*
D03*
X68700D02*
D03*
X51300Y-113948D02*
D03*
X68700D02*
D03*
D103*
X111800Y-33700D02*
D03*
Y-16300D02*
D03*
X119674D02*
D03*
Y-33700D02*
D03*
X127548Y-16300D02*
D03*
Y-33700D02*
D03*
X103926Y-16300D02*
D03*
Y-33700D02*
D03*
X96052Y-16300D02*
D03*
Y-33700D02*
D03*
D104*
X69282Y-65277D02*
D03*
X73219D02*
D03*
X69282Y-54647D02*
D03*
X73219D02*
D03*
X205519Y-284647D02*
D03*
X201582D02*
D03*
X205519Y-295277D02*
D03*
X201582D02*
D03*
D105*
X310831Y-234322D02*
D03*
X303350Y-230582D02*
D03*
Y-238062D02*
D03*
D106*
X243187Y-198635D02*
D03*
X241219D02*
D03*
X239250D02*
D03*
X237282D02*
D03*
X235313D02*
D03*
X243187Y-182690D02*
D03*
X241219D02*
D03*
X239250D02*
D03*
X237282D02*
D03*
X235313D02*
D03*
D107*
X289136Y-144596D02*
D03*
Y-142037D02*
D03*
Y-139478D02*
D03*
Y-136919D02*
D03*
Y-134360D02*
D03*
Y-131801D02*
D03*
Y-129242D02*
D03*
Y-126683D02*
D03*
Y-124124D02*
D03*
Y-121564D02*
D03*
Y-119006D02*
D03*
Y-116446D02*
D03*
Y-113887D02*
D03*
Y-111328D02*
D03*
X312365Y-144596D02*
D03*
Y-142037D02*
D03*
Y-139478D02*
D03*
Y-136919D02*
D03*
Y-134360D02*
D03*
Y-131801D02*
D03*
Y-129242D02*
D03*
Y-126683D02*
D03*
Y-124124D02*
D03*
Y-121564D02*
D03*
Y-119006D02*
D03*
Y-116446D02*
D03*
Y-113887D02*
D03*
Y-111328D02*
D03*
X289136Y-204196D02*
D03*
Y-201637D02*
D03*
Y-199078D02*
D03*
Y-196519D02*
D03*
Y-193960D02*
D03*
Y-191401D02*
D03*
Y-188842D02*
D03*
Y-186283D02*
D03*
Y-183724D02*
D03*
Y-181165D02*
D03*
Y-178605D02*
D03*
Y-176046D02*
D03*
Y-173487D02*
D03*
Y-170928D02*
D03*
X312365Y-204196D02*
D03*
Y-201637D02*
D03*
Y-199078D02*
D03*
Y-196519D02*
D03*
Y-193960D02*
D03*
Y-191401D02*
D03*
Y-188842D02*
D03*
Y-186283D02*
D03*
Y-183724D02*
D03*
Y-181165D02*
D03*
Y-178605D02*
D03*
Y-176046D02*
D03*
Y-173487D02*
D03*
Y-170928D02*
D03*
D108*
X262250Y-170222D02*
D03*
Y-173962D02*
D03*
Y-177702D02*
D03*
X270321D02*
D03*
Y-173962D02*
D03*
Y-170222D02*
D03*
X262215Y-130187D02*
D03*
Y-133927D02*
D03*
Y-137667D02*
D03*
X270286D02*
D03*
Y-133927D02*
D03*
Y-130187D02*
D03*
X155950Y-267662D02*
D03*
Y-271402D02*
D03*
Y-275143D02*
D03*
X164021D02*
D03*
Y-271402D02*
D03*
Y-267662D02*
D03*
X314386Y-70502D02*
D03*
Y-66762D02*
D03*
Y-63022D02*
D03*
X306315D02*
D03*
Y-66762D02*
D03*
Y-70502D02*
D03*
X299786Y-44102D02*
D03*
Y-40362D02*
D03*
Y-36622D02*
D03*
X291715D02*
D03*
Y-40362D02*
D03*
Y-44102D02*
D03*
X262250Y-240122D02*
D03*
Y-243862D02*
D03*
Y-247602D02*
D03*
X270321D02*
D03*
Y-243862D02*
D03*
Y-240122D02*
D03*
X262250Y-200022D02*
D03*
Y-203762D02*
D03*
Y-207502D02*
D03*
X270321D02*
D03*
Y-203762D02*
D03*
Y-200022D02*
D03*
X133886Y-237522D02*
D03*
Y-241262D02*
D03*
Y-245002D02*
D03*
X125815D02*
D03*
Y-237522D02*
D03*
D109*
X220794Y-260872D02*
D03*
Y-262841D02*
D03*
Y-264809D02*
D03*
Y-266778D02*
D03*
Y-274652D02*
D03*
Y-272683D02*
D03*
Y-270715D02*
D03*
Y-268746D02*
D03*
X203707D02*
D03*
Y-270715D02*
D03*
Y-272683D02*
D03*
Y-274652D02*
D03*
Y-266778D02*
D03*
Y-264809D02*
D03*
Y-262841D02*
D03*
Y-260872D02*
D03*
D111*
X155850Y-209522D02*
D03*
X173750D02*
D03*
X155850Y-201648D02*
D03*
X173750D02*
D03*
X155850Y-193774D02*
D03*
X173750D02*
D03*
X155850Y-185900D02*
D03*
X173750D02*
D03*
X155850Y-178026D02*
D03*
X173750D02*
D03*
X155850Y-170152D02*
D03*
X173750D02*
D03*
X155850Y-162278D02*
D03*
X173750D02*
D03*
X155850Y-154404D02*
D03*
X173750D02*
D03*
X155850Y-146530D02*
D03*
X173750D02*
D03*
X155850Y-138656D02*
D03*
X173750D02*
D03*
Y-217396D02*
D03*
X155850D02*
D03*
X173750Y-225270D02*
D03*
X155850D02*
D03*
X173750Y-233144D02*
D03*
X155850D02*
D03*
X199750Y-205622D02*
D03*
X217650D02*
D03*
X199750Y-197748D02*
D03*
X217650D02*
D03*
X199750Y-189874D02*
D03*
X217650D02*
D03*
X199750Y-182000D02*
D03*
X217650D02*
D03*
X199750Y-174126D02*
D03*
X217650D02*
D03*
X199750Y-166252D02*
D03*
X217650D02*
D03*
X199750Y-158378D02*
D03*
X217650D02*
D03*
X199750Y-150504D02*
D03*
X217650D02*
D03*
X199750Y-142630D02*
D03*
X217650D02*
D03*
X199750Y-134756D02*
D03*
X217650D02*
D03*
Y-213496D02*
D03*
X199750D02*
D03*
X217650Y-221370D02*
D03*
X199750D02*
D03*
X217650Y-229244D02*
D03*
X199750D02*
D03*
D137*
X212250Y-271305D02*
D03*
Y-264219D02*
D03*
Y-267762D02*
D03*
M02*
