G04 Layer_Physical_Order=7*
G04 Layer_Color=128*
%FSLAX25Y25*%
%MOIN*%
G70*
G01*
G75*
%ADD53C,0.00787*%
%ADD69C,0.04000*%
%ADD70C,0.07937*%
%ADD71C,0.16500*%
%ADD72C,0.10500*%
%ADD73C,0.08016*%
G04:AMPARAMS|DCode=74|XSize=100.157mil|YSize=100.157mil|CornerRadius=0mil|HoleSize=0mil|Usage=FLASHONLY|Rotation=0.000|XOffset=0mil|YOffset=0mil|HoleType=Round|Shape=Relief|Width=10mil|Gap=10mil|Entries=4|*
%AMTHD74*
7,0,0,0.10016,0.08016,0.01000,45*
%
%ADD74THD74*%
%ADD75C,0.08685*%
G04:AMPARAMS|DCode=76|XSize=86mil|YSize=86mil|CornerRadius=0mil|HoleSize=0mil|Usage=FLASHONLY|Rotation=0.000|XOffset=0mil|YOffset=0mil|HoleType=Round|Shape=Relief|Width=10mil|Gap=10mil|Entries=4|*
%AMTHD76*
7,0,0,0.08600,0.06600,0.01000,45*
%
%ADD76THD76*%
G04:AMPARAMS|DCode=77|XSize=97mil|YSize=97mil|CornerRadius=0mil|HoleSize=0mil|Usage=FLASHONLY|Rotation=0.000|XOffset=0mil|YOffset=0mil|HoleType=Round|Shape=Relief|Width=10mil|Gap=10mil|Entries=4|*
%AMTHD77*
7,0,0,0.09700,0.07700,0.01000,45*
%
%ADD77THD77*%
%ADD78C,0.07700*%
G04:AMPARAMS|DCode=79|XSize=130.079mil|YSize=130.079mil|CornerRadius=0mil|HoleSize=0mil|Usage=FLASHONLY|Rotation=0.000|XOffset=0mil|YOffset=0mil|HoleType=Round|Shape=Relief|Width=10mil|Gap=10mil|Entries=4|*
%AMTHD79*
7,0,0,0.13008,0.11008,0.01000,45*
%
%ADD79THD79*%
%ADD80C,0.07307*%
G04:AMPARAMS|DCode=81|XSize=93.071mil|YSize=93.071mil|CornerRadius=0mil|HoleSize=0mil|Usage=FLASHONLY|Rotation=0.000|XOffset=0mil|YOffset=0mil|HoleType=Round|Shape=Relief|Width=10mil|Gap=10mil|Entries=4|*
%AMTHD81*
7,0,0,0.09307,0.07307,0.01000,45*
%
%ADD81THD81*%
%ADD82C,0.08331*%
G04:AMPARAMS|DCode=83|XSize=115.118mil|YSize=115.118mil|CornerRadius=0mil|HoleSize=0mil|Usage=FLASHONLY|Rotation=0.000|XOffset=0mil|YOffset=0mil|HoleType=Round|Shape=Relief|Width=10mil|Gap=10mil|Entries=4|*
%AMTHD83*
7,0,0,0.11512,0.09512,0.01000,45*
%
%ADD83THD83*%
%ADD84C,0.07000*%
%ADD85C,0.07400*%
%ADD86C,0.05181*%
%ADD87C,0.05969*%
%ADD88C,0.06000*%
G36*
X226469Y62233D02*
X226670Y62215D01*
X226906Y62178D01*
X227180Y62142D01*
X227471Y62087D01*
X227763Y62014D01*
X228073Y61941D01*
X228382Y61832D01*
X228692Y61705D01*
X229002Y61559D01*
X229293Y61377D01*
X229567Y61194D01*
X229803Y60958D01*
X229822Y60939D01*
X229858Y60903D01*
X229913Y60830D01*
X230004Y60721D01*
X230095Y60575D01*
X230204Y60411D01*
X230314Y60211D01*
X230423Y59974D01*
X230532Y59719D01*
X230660Y59427D01*
X230751Y59099D01*
X230842Y58753D01*
X230933Y58352D01*
X230988Y57933D01*
X231024Y57496D01*
X231043Y57004D01*
Y56967D01*
Y56876D01*
Y56731D01*
X231024Y56530D01*
X231006Y56312D01*
X230988Y56056D01*
X230915Y55528D01*
Y55492D01*
X230897Y55401D01*
X230860Y55273D01*
X230824Y55091D01*
X230769Y54890D01*
X230696Y54672D01*
X230532Y54216D01*
X230514Y54198D01*
X230478Y54107D01*
X230423Y53998D01*
X230350Y53852D01*
X230259Y53688D01*
X230150Y53487D01*
X229858Y53105D01*
X229840Y53087D01*
X229785Y53032D01*
X229694Y52923D01*
X229567Y52813D01*
X229421Y52686D01*
X229239Y52540D01*
X229038Y52394D01*
X228820Y52267D01*
X228801Y52248D01*
X228710Y52212D01*
X228583Y52139D01*
X228419Y52066D01*
X228218Y51975D01*
X227981Y51884D01*
X227708Y51793D01*
X227417Y51720D01*
X227380D01*
X227271Y51684D01*
X227107Y51665D01*
X226888Y51629D01*
X226615Y51592D01*
X226305Y51574D01*
X225959Y51538D01*
X223299D01*
Y62251D01*
X226287D01*
X226469Y62233D01*
D02*
G37*
G36*
X153516Y59901D02*
X153717Y59883D01*
X153954Y59846D01*
X154209Y59810D01*
X154464Y59737D01*
X154719Y59646D01*
X154755Y59627D01*
X154828Y59591D01*
X154956Y59536D01*
X155120Y59445D01*
X155284Y59336D01*
X155484Y59209D01*
X155666Y59044D01*
X155849Y58862D01*
X155867Y58844D01*
X155921Y58771D01*
X156012Y58662D01*
X156104Y58534D01*
X156213Y58352D01*
X156341Y58152D01*
X156450Y57915D01*
X156541Y57660D01*
X156559Y57623D01*
X156577Y57532D01*
X156614Y57386D01*
X156668Y57204D01*
X156705Y56967D01*
X156741Y56712D01*
X156760Y56421D01*
X156778Y56093D01*
Y56075D01*
Y56038D01*
Y55984D01*
Y55911D01*
Y55747D01*
X156760Y55564D01*
Y55528D01*
Y55437D01*
Y55328D01*
X156741Y55200D01*
X150966D01*
Y55182D01*
Y55145D01*
Y55072D01*
X150984Y55000D01*
Y54890D01*
X151002Y54763D01*
X151057Y54471D01*
X151129Y54162D01*
X151257Y53834D01*
X151421Y53524D01*
X151658Y53250D01*
X151694Y53214D01*
X151786Y53141D01*
X151949Y53032D01*
X152186Y52923D01*
X152478Y52795D01*
X152824Y52686D01*
X153225Y52613D01*
X153699Y52576D01*
X154154D01*
X154409Y52595D01*
X154464D01*
X154537Y52613D01*
X154628D01*
X154865Y52649D01*
X155102Y52667D01*
X155120D01*
X155156Y52686D01*
X155229D01*
X155320Y52704D01*
X155521Y52740D01*
X155757Y52777D01*
X155776D01*
X155812Y52795D01*
X155867Y52813D01*
X155940Y52832D01*
X156140Y52868D01*
X156341Y52923D01*
Y51757D01*
X156322D01*
X156231Y51738D01*
X156122Y51702D01*
X155958Y51665D01*
X155757Y51629D01*
X155539Y51574D01*
X155284Y51538D01*
X155010Y51501D01*
X154974D01*
X154883Y51483D01*
X154737Y51465D01*
X154555Y51447D01*
X154318Y51429D01*
X154063Y51410D01*
X153790Y51392D01*
X153316D01*
X153115Y51410D01*
X152879Y51429D01*
X152587Y51465D01*
X152277Y51501D01*
X151968Y51574D01*
X151676Y51665D01*
X151640Y51684D01*
X151549Y51720D01*
X151403Y51793D01*
X151239Y51884D01*
X151038Y51993D01*
X150820Y52139D01*
X150619Y52303D01*
X150419Y52504D01*
X150401Y52522D01*
X150346Y52595D01*
X150255Y52722D01*
X150146Y52868D01*
X150018Y53068D01*
X149909Y53287D01*
X149781Y53560D01*
X149690Y53834D01*
Y53852D01*
Y53870D01*
X149654Y53979D01*
X149617Y54143D01*
X149581Y54362D01*
X149544Y54635D01*
X149508Y54927D01*
X149490Y55273D01*
X149471Y55637D01*
Y55656D01*
Y55674D01*
Y55783D01*
X149490Y55947D01*
X149508Y56166D01*
X149526Y56403D01*
X149581Y56676D01*
X149636Y56967D01*
X149708Y57259D01*
Y57277D01*
X149727Y57295D01*
X149763Y57386D01*
X149818Y57532D01*
X149891Y57733D01*
X150000Y57933D01*
X150127Y58170D01*
X150273Y58407D01*
X150437Y58625D01*
X150455Y58644D01*
X150528Y58716D01*
X150638Y58826D01*
X150765Y58972D01*
X150947Y59117D01*
X151148Y59281D01*
X151366Y59427D01*
X151621Y59573D01*
X151658Y59591D01*
X151749Y59627D01*
X151895Y59682D01*
X152077Y59755D01*
X152314Y59810D01*
X152587Y59864D01*
X152879Y59901D01*
X153207Y59919D01*
X153352D01*
X153516Y59901D01*
D02*
G37*
G36*
X184436Y60921D02*
X179935Y51538D01*
X178296D01*
X182960Y60921D01*
X177184D01*
Y62251D01*
X184436D01*
Y60921D01*
D02*
G37*
G36*
X124182Y52777D02*
X128883D01*
Y51538D01*
X122706D01*
Y62251D01*
X124182D01*
Y52777D01*
D02*
G37*
G36*
X135151Y59901D02*
X135351Y59883D01*
X135588Y59846D01*
X136043Y59755D01*
X136062D01*
X136153Y59719D01*
X136262Y59682D01*
X136390Y59627D01*
X136554Y59555D01*
X136717Y59464D01*
X136881Y59373D01*
X137046Y59245D01*
X137064Y59227D01*
X137118Y59190D01*
X137191Y59117D01*
X137282Y59026D01*
X137392Y58899D01*
X137501Y58753D01*
X137592Y58589D01*
X137683Y58407D01*
X137701Y58389D01*
X137720Y58316D01*
X137756Y58206D01*
X137811Y58061D01*
X137847Y57897D01*
X137884Y57678D01*
X137902Y57459D01*
X137920Y57204D01*
Y51538D01*
X136626D01*
X136590Y52631D01*
X136554Y52595D01*
X136481Y52522D01*
X136335Y52412D01*
X136171Y52267D01*
X135952Y52121D01*
X135734Y51957D01*
X135479Y51811D01*
X135223Y51684D01*
X135187Y51665D01*
X135096Y51647D01*
X134968Y51592D01*
X134786Y51538D01*
X134568Y51483D01*
X134312Y51447D01*
X134057Y51410D01*
X133766Y51392D01*
X133657D01*
X133529Y51410D01*
X133365D01*
X133165Y51429D01*
X132964Y51465D01*
X132563Y51556D01*
X132545D01*
X132491Y51592D01*
X132399Y51629D01*
X132272Y51684D01*
X132017Y51848D01*
X131744Y52048D01*
X131725Y52066D01*
X131689Y52103D01*
X131634Y52175D01*
X131561Y52267D01*
X131488Y52376D01*
X131397Y52504D01*
X131270Y52795D01*
Y52813D01*
X131252Y52868D01*
X131233Y52959D01*
X131197Y53068D01*
X131179Y53214D01*
X131142Y53378D01*
X131124Y53724D01*
Y53742D01*
Y53779D01*
Y53852D01*
X131142Y53925D01*
X131160Y54034D01*
X131179Y54162D01*
X131233Y54435D01*
X131343Y54745D01*
X131507Y55072D01*
X131616Y55237D01*
X131744Y55382D01*
X131871Y55528D01*
X132035Y55674D01*
X132053D01*
X132071Y55710D01*
X132126Y55747D01*
X132217Y55783D01*
X132308Y55838D01*
X132418Y55892D01*
X132563Y55965D01*
X132727Y56038D01*
X132910Y56093D01*
X133110Y56166D01*
X133329Y56220D01*
X133584Y56275D01*
X133839Y56312D01*
X134130Y56348D01*
X134440Y56384D01*
X136481D01*
Y57095D01*
Y57131D01*
Y57222D01*
X136462Y57350D01*
X136426Y57514D01*
X136371Y57696D01*
X136280Y57897D01*
X136171Y58079D01*
X136007Y58261D01*
X135989Y58279D01*
X135916Y58334D01*
X135807Y58407D01*
X135661Y58480D01*
X135460Y58552D01*
X135205Y58625D01*
X134914Y58680D01*
X134586Y58698D01*
X134331D01*
X134149Y58680D01*
X133930Y58662D01*
X133711Y58625D01*
X133201Y58534D01*
X133165D01*
X133092Y58498D01*
X132946Y58461D01*
X132782Y58425D01*
X132563Y58352D01*
X132326Y58279D01*
X132071Y58188D01*
X131816Y58097D01*
Y59391D01*
X131835D01*
X131871Y59409D01*
X131907Y59427D01*
X131980Y59445D01*
X132162Y59500D01*
X132399Y59573D01*
X132418D01*
X132454Y59591D01*
X132527Y59609D01*
X132618Y59627D01*
X132855Y59682D01*
X133110Y59737D01*
X133128D01*
X133183Y59755D01*
X133256Y59773D01*
X133347Y59791D01*
X133456Y59810D01*
X133584Y59828D01*
X133875Y59864D01*
X133893D01*
X133948Y59883D01*
X134021D01*
X134130Y59901D01*
X134258D01*
X134385Y59919D01*
X134968D01*
X135151Y59901D01*
D02*
G37*
G36*
X234650Y63727D02*
X234668Y63709D01*
X234723Y63654D01*
X234796Y63581D01*
X234887Y63490D01*
X234978Y63399D01*
X235233Y63126D01*
X235506Y62798D01*
X235834Y62415D01*
X236180Y61960D01*
X236527Y61449D01*
X236873Y60903D01*
X237219Y60302D01*
X237547Y59646D01*
X237839Y58972D01*
X238075Y58261D01*
X238258Y57514D01*
X238331Y57131D01*
X238385Y56749D01*
X238403Y56348D01*
X238422Y55947D01*
Y55929D01*
Y55911D01*
Y55856D01*
Y55801D01*
Y55619D01*
X238403Y55382D01*
X238385Y55109D01*
X238349Y54799D01*
X238294Y54453D01*
X238239Y54107D01*
Y54089D01*
Y54070D01*
X238221Y54016D01*
X238203Y53943D01*
X238166Y53761D01*
X238094Y53506D01*
X238002Y53214D01*
X237893Y52886D01*
X237766Y52540D01*
X237620Y52175D01*
Y52157D01*
X237602Y52139D01*
X237583Y52084D01*
X237547Y52012D01*
X237438Y51811D01*
X237310Y51556D01*
X237146Y51246D01*
X236928Y50918D01*
X236709Y50554D01*
X236436Y50171D01*
Y50153D01*
X236399Y50117D01*
X236363Y50062D01*
X236308Y49989D01*
X236235Y49898D01*
X236144Y49789D01*
X235925Y49515D01*
X235670Y49206D01*
X235361Y48860D01*
X234996Y48477D01*
X234595Y48094D01*
X233775Y48951D01*
X233794Y48969D01*
X233848Y49024D01*
X233921Y49115D01*
X234031Y49224D01*
X234176Y49370D01*
X234322Y49552D01*
X234486Y49734D01*
X234668Y49953D01*
X234850Y50190D01*
X235051Y50445D01*
X235452Y51010D01*
X235816Y51611D01*
X235980Y51939D01*
X236144Y52248D01*
X236162Y52267D01*
X236180Y52321D01*
X236217Y52412D01*
X236272Y52540D01*
X236326Y52704D01*
X236399Y52886D01*
X236472Y53105D01*
X236545Y53342D01*
X236618Y53597D01*
X236691Y53870D01*
X236818Y54489D01*
X236909Y55145D01*
X236946Y55492D01*
Y55838D01*
Y55856D01*
Y55874D01*
Y55929D01*
Y56020D01*
X236928Y56111D01*
Y56220D01*
X236891Y56494D01*
X236855Y56840D01*
X236782Y57241D01*
X236672Y57678D01*
X236545Y58170D01*
X236381Y58698D01*
X236180Y59263D01*
X235907Y59846D01*
X235616Y60447D01*
X235251Y61049D01*
X234814Y61650D01*
X234340Y62269D01*
X234067Y62561D01*
X233775Y62853D01*
X234632Y63745D01*
X234650Y63727D01*
D02*
G37*
G36*
X163811Y59901D02*
X163902D01*
X164029Y59883D01*
X164321Y59810D01*
X164631Y59719D01*
X164940Y59573D01*
X165250Y59354D01*
X165396Y59227D01*
X165523Y59081D01*
X165560Y59044D01*
X165578Y58990D01*
X165633Y58935D01*
X165669Y58844D01*
X165724Y58735D01*
X165797Y58607D01*
X165851Y58461D01*
X165906Y58297D01*
X165961Y58134D01*
X166015Y57933D01*
X166070Y57714D01*
X166106Y57459D01*
X166125Y57204D01*
X166143Y56931D01*
Y56639D01*
X164703D01*
Y56658D01*
Y56694D01*
Y56749D01*
Y56822D01*
X164685Y57004D01*
X164667Y57222D01*
X164631Y57478D01*
X164576Y57733D01*
X164485Y57988D01*
X164375Y58188D01*
X164357Y58206D01*
X164321Y58261D01*
X164230Y58352D01*
X164120Y58443D01*
X163975Y58516D01*
X163811Y58607D01*
X163610Y58662D01*
X163373Y58680D01*
X163264D01*
X163209Y58662D01*
X163027Y58644D01*
X162809Y58571D01*
X162790D01*
X162754Y58552D01*
X162699Y58534D01*
X162626Y58498D01*
X162426Y58389D01*
X162207Y58243D01*
X162189Y58225D01*
X162153Y58206D01*
X162098Y58152D01*
X162007Y58097D01*
X161806Y57897D01*
X161551Y57660D01*
X161533Y57642D01*
X161497Y57605D01*
X161424Y57532D01*
X161333Y57423D01*
X161223Y57295D01*
X161096Y57168D01*
X160968Y57004D01*
X160823Y56822D01*
Y51538D01*
X159383D01*
Y59773D01*
X160677D01*
X160713Y58243D01*
Y58261D01*
X160750Y58279D01*
X160841Y58389D01*
X160987Y58534D01*
X161169Y58735D01*
X161387Y58935D01*
X161624Y59154D01*
X161879Y59354D01*
X162153Y59518D01*
X162189Y59536D01*
X162280Y59573D01*
X162408Y59646D01*
X162608Y59719D01*
X162809Y59791D01*
X163064Y59864D01*
X163319Y59901D01*
X163592Y59919D01*
X163720D01*
X163811Y59901D01*
D02*
G37*
G36*
X209998Y62397D02*
X210199Y62379D01*
X210436Y62361D01*
X210928Y62288D01*
X210964D01*
X211037Y62269D01*
X211164Y62233D01*
X211328Y62197D01*
X211529Y62142D01*
X211729Y62069D01*
X212185Y61887D01*
Y60429D01*
X212167Y60447D01*
X212075Y60484D01*
X211966Y60539D01*
X211802Y60611D01*
X211620Y60684D01*
X211401Y60775D01*
X210946Y60921D01*
X210909D01*
X210837Y60958D01*
X210709Y60976D01*
X210545Y61012D01*
X210326Y61049D01*
X210108Y61067D01*
X209853Y61103D01*
X209434D01*
X209270Y61085D01*
X209069Y61067D01*
X208832Y61031D01*
X208577Y60976D01*
X208304Y60903D01*
X208049Y60794D01*
X208012Y60775D01*
X207940Y60739D01*
X207812Y60666D01*
X207666Y60575D01*
X207484Y60447D01*
X207302Y60302D01*
X207120Y60119D01*
X206937Y59919D01*
X206919Y59901D01*
X206865Y59828D01*
X206773Y59700D01*
X206682Y59555D01*
X206573Y59354D01*
X206446Y59136D01*
X206336Y58881D01*
X206245Y58589D01*
X206227Y58552D01*
X206209Y58461D01*
X206172Y58297D01*
X206136Y58097D01*
X206081Y57842D01*
X206045Y57551D01*
X206026Y57222D01*
X206008Y56876D01*
Y56858D01*
Y56840D01*
Y56785D01*
Y56712D01*
X206026Y56530D01*
Y56293D01*
X206045Y56020D01*
X206081Y55710D01*
X206136Y55419D01*
X206190Y55109D01*
X206209Y55072D01*
X206227Y54981D01*
X206281Y54836D01*
X206336Y54654D01*
X206427Y54435D01*
X206537Y54216D01*
X206664Y53998D01*
X206810Y53779D01*
X206828Y53761D01*
X206883Y53688D01*
X206974Y53597D01*
X207101Y53487D01*
X207265Y53342D01*
X207448Y53214D01*
X207648Y53087D01*
X207885Y52959D01*
X207921Y52941D01*
X207994Y52923D01*
X208140Y52868D01*
X208322Y52832D01*
X208559Y52777D01*
X208832Y52722D01*
X209124Y52704D01*
X209452Y52686D01*
X209816D01*
X209889Y52704D01*
X210017D01*
X210144Y52722D01*
X210181D01*
X210253Y52740D01*
X210363Y52777D01*
X210490Y52795D01*
X210527Y52813D01*
X210600Y52832D01*
X210691Y52868D01*
X210800Y52904D01*
Y56312D01*
X208595D01*
Y57514D01*
X212239D01*
Y52030D01*
X212221D01*
X212185Y52012D01*
X212112Y51975D01*
X212021Y51939D01*
X211784Y51829D01*
X211511Y51738D01*
X211492D01*
X211456Y51720D01*
X211383Y51702D01*
X211274Y51684D01*
X211164Y51647D01*
X211037Y51611D01*
X210745Y51556D01*
X210727D01*
X210672Y51538D01*
X210600D01*
X210508Y51520D01*
X210253Y51483D01*
X209980Y51447D01*
X209907D01*
X209834Y51429D01*
X209743D01*
X209506Y51410D01*
X209233Y51392D01*
X209051D01*
X208832Y51410D01*
X208577Y51429D01*
X208267Y51465D01*
X207940Y51538D01*
X207593Y51611D01*
X207247Y51720D01*
X207229D01*
X207211Y51738D01*
X207101Y51793D01*
X206937Y51866D01*
X206737Y51975D01*
X206500Y52121D01*
X206245Y52303D01*
X205990Y52504D01*
X205753Y52740D01*
X205735Y52777D01*
X205644Y52868D01*
X205535Y53014D01*
X205407Y53214D01*
X205243Y53451D01*
X205097Y53742D01*
X204933Y54070D01*
X204806Y54435D01*
Y54453D01*
X204787Y54489D01*
X204769Y54544D01*
X204751Y54617D01*
X204733Y54708D01*
X204696Y54817D01*
X204642Y55109D01*
X204587Y55437D01*
X204532Y55838D01*
X204496Y56293D01*
X204478Y56767D01*
Y56785D01*
Y56822D01*
Y56894D01*
Y56986D01*
X204496Y57113D01*
Y57241D01*
X204532Y57569D01*
X204569Y57933D01*
X204624Y58334D01*
X204715Y58735D01*
X204842Y59136D01*
Y59154D01*
X204860Y59190D01*
X204878Y59245D01*
X204915Y59318D01*
X204988Y59500D01*
X205115Y59755D01*
X205243Y60028D01*
X205425Y60338D01*
X205626Y60630D01*
X205862Y60921D01*
X205899Y60958D01*
X205990Y61049D01*
X206118Y61176D01*
X206318Y61340D01*
X206555Y61522D01*
X206828Y61705D01*
X207138Y61869D01*
X207466Y62033D01*
X207484D01*
X207502Y62051D01*
X207557Y62069D01*
X207630Y62087D01*
X207830Y62160D01*
X208085Y62233D01*
X208395Y62288D01*
X208741Y62361D01*
X209142Y62397D01*
X209561Y62415D01*
X209816D01*
X209998Y62397D01*
D02*
G37*
G36*
X201799Y62889D02*
X201763Y62853D01*
X201672Y62743D01*
X201508Y62579D01*
X201307Y62342D01*
X201052Y62051D01*
X200797Y61705D01*
X200506Y61286D01*
X200214Y60848D01*
X199905Y60356D01*
X199613Y59810D01*
X199358Y59245D01*
X199103Y58625D01*
X198902Y57988D01*
X198757Y57332D01*
X198647Y56639D01*
X198629Y56293D01*
X198611Y55929D01*
Y55911D01*
Y55838D01*
Y55747D01*
X198629Y55601D01*
Y55437D01*
X198647Y55237D01*
X198684Y55018D01*
X198720Y54763D01*
X198757Y54489D01*
X198811Y54216D01*
X198957Y53597D01*
X199158Y52941D01*
X199267Y52613D01*
X199413Y52285D01*
X199431Y52267D01*
X199449Y52212D01*
X199504Y52121D01*
X199558Y51993D01*
X199649Y51829D01*
X199759Y51647D01*
X199868Y51447D01*
X200014Y51210D01*
X200178Y50973D01*
X200342Y50718D01*
X200542Y50445D01*
X200761Y50153D01*
X200998Y49862D01*
X201235Y49570D01*
X201508Y49279D01*
X201799Y48987D01*
X200925Y48094D01*
X200907Y48112D01*
X200888Y48131D01*
X200834Y48185D01*
X200761Y48258D01*
X200670Y48349D01*
X200579Y48440D01*
X200342Y48714D01*
X200050Y49042D01*
X199741Y49424D01*
X199394Y49880D01*
X199048Y50372D01*
X198684Y50918D01*
X198356Y51520D01*
X198028Y52157D01*
X197736Y52832D01*
X197499Y53542D01*
X197317Y54271D01*
X197244Y54654D01*
X197190Y55036D01*
X197171Y55419D01*
X197153Y55820D01*
Y55838D01*
Y55874D01*
Y55911D01*
Y55984D01*
X197171Y56184D01*
Y56439D01*
X197208Y56749D01*
X197244Y57077D01*
X197281Y57441D01*
X197354Y57806D01*
Y57824D01*
X197372Y57842D01*
Y57897D01*
X197390Y57969D01*
X197445Y58170D01*
X197518Y58425D01*
X197590Y58716D01*
X197700Y59044D01*
X197846Y59409D01*
X197991Y59773D01*
Y59791D01*
X198010Y59828D01*
X198046Y59864D01*
X198082Y59937D01*
X198174Y60138D01*
X198319Y60393D01*
X198483Y60703D01*
X198684Y61031D01*
X198921Y61395D01*
X199176Y61759D01*
Y61778D01*
X199212Y61814D01*
X199249Y61850D01*
X199303Y61923D01*
X199467Y62124D01*
X199668Y62379D01*
X199941Y62688D01*
X200232Y63016D01*
X200579Y63381D01*
X200961Y63745D01*
X201799Y62889D01*
D02*
G37*
G36*
X145099Y52412D02*
Y52394D01*
X145080Y52358D01*
X145062Y52303D01*
X145026Y52230D01*
X144935Y52012D01*
X144825Y51757D01*
X144680Y51465D01*
X144534Y51137D01*
X144370Y50809D01*
X144188Y50499D01*
X144169Y50463D01*
X144115Y50372D01*
X144024Y50208D01*
X143896Y50026D01*
X143750Y49807D01*
X143568Y49588D01*
X143386Y49370D01*
X143186Y49151D01*
X143167Y49133D01*
X143095Y49060D01*
X142985Y48969D01*
X142839Y48860D01*
X142657Y48732D01*
X142457Y48604D01*
X142220Y48495D01*
X141983Y48386D01*
X141947Y48368D01*
X141874Y48349D01*
X141728Y48313D01*
X141546Y48258D01*
X141327Y48204D01*
X141090Y48167D01*
X140799Y48149D01*
X140507Y48131D01*
X140252D01*
X140106Y48149D01*
X139888D01*
X139742Y48167D01*
Y49461D01*
X139778D01*
X139851Y49442D01*
X139979D01*
X140125Y49424D01*
X140161D01*
X140270Y49406D01*
X140416Y49388D01*
X140726D01*
X140817Y49406D01*
X141072Y49442D01*
X141327Y49515D01*
X141345D01*
X141382Y49534D01*
X141455Y49570D01*
X141546Y49606D01*
X141746Y49716D01*
X141965Y49880D01*
X141983Y49898D01*
X142019Y49935D01*
X142074Y49989D01*
X142147Y50062D01*
X142238Y50153D01*
X142348Y50281D01*
X142548Y50554D01*
X142566Y50572D01*
X142603Y50627D01*
X142657Y50718D01*
X142730Y50827D01*
X142803Y50973D01*
X142894Y51155D01*
X143003Y51337D01*
X143095Y51538D01*
X139815Y59773D01*
X141437D01*
X143514Y54307D01*
X143933Y53032D01*
X144406Y54344D01*
X146338Y59773D01*
X147905D01*
X145099Y52412D01*
D02*
G37*
G36*
X221441Y51538D02*
X219455D01*
X216466Y58225D01*
X215610Y60374D01*
Y54963D01*
Y51538D01*
X214153D01*
Y62251D01*
X216102D01*
X218944Y55911D01*
X219983Y53469D01*
Y59209D01*
Y62251D01*
X221441D01*
Y51538D01*
D02*
G37*
%LPC*%
G36*
X226324Y61012D02*
X224757D01*
Y52795D01*
X225995D01*
X226178Y52832D01*
X226415Y52868D01*
X226688Y52923D01*
X226998Y53014D01*
X227326Y53141D01*
X227672Y53305D01*
X228018Y53524D01*
X228346Y53797D01*
X228656Y54125D01*
X228929Y54526D01*
X229057Y54745D01*
X229166Y55000D01*
X229275Y55255D01*
X229348Y55546D01*
X229421Y55838D01*
X229475Y56166D01*
X229494Y56530D01*
X229512Y56894D01*
Y56913D01*
Y56949D01*
Y57004D01*
Y57077D01*
X229494Y57295D01*
Y57551D01*
X229457Y57860D01*
X229421Y58170D01*
X229366Y58498D01*
X229293Y58808D01*
Y58826D01*
X229275Y58844D01*
X229257Y58935D01*
X229202Y59081D01*
X229129Y59263D01*
X229038Y59464D01*
X228929Y59682D01*
X228783Y59901D01*
X228637Y60083D01*
X228619Y60101D01*
X228565Y60156D01*
X228473Y60247D01*
X228346Y60356D01*
X228182Y60466D01*
X228000Y60593D01*
X227781Y60703D01*
X227544Y60794D01*
X227508Y60812D01*
X227435Y60830D01*
X227289Y60866D01*
X227107Y60903D01*
X226870Y60939D01*
X226615Y60976D01*
X226324Y61012D01*
D02*
G37*
G36*
X153334Y58771D02*
X152970D01*
X152860Y58753D01*
X152733Y58735D01*
X152587Y58698D01*
X152277Y58589D01*
X152259D01*
X152223Y58552D01*
X152150Y58516D01*
X152059Y58461D01*
X151840Y58297D01*
X151621Y58079D01*
X151603Y58061D01*
X151585Y58024D01*
X151530Y57951D01*
X151458Y57860D01*
X151385Y57751D01*
X151312Y57605D01*
X151166Y57295D01*
Y57277D01*
X151148Y57222D01*
X151111Y57131D01*
X151075Y57004D01*
X151038Y56858D01*
X151020Y56676D01*
X150966Y56293D01*
X155302D01*
Y56312D01*
Y56384D01*
Y56494D01*
Y56621D01*
X155284Y56767D01*
X155265Y56931D01*
X155174Y57277D01*
Y57295D01*
X155156Y57350D01*
X155120Y57441D01*
X155083Y57551D01*
X154956Y57806D01*
X154773Y58061D01*
X154755Y58079D01*
X154719Y58115D01*
X154664Y58170D01*
X154591Y58243D01*
X154482Y58334D01*
X154373Y58407D01*
X154081Y58571D01*
X154063Y58589D01*
X154008Y58607D01*
X153917Y58644D01*
X153808Y58680D01*
X153680Y58716D01*
X153516Y58735D01*
X153334Y58771D01*
D02*
G37*
G36*
X136481Y55291D02*
X134476D01*
X134349Y55273D01*
X134057Y55255D01*
X133748Y55182D01*
X133729D01*
X133693Y55164D01*
X133620Y55145D01*
X133529Y55109D01*
X133310Y55000D01*
X133110Y54872D01*
X133092D01*
X133073Y54836D01*
X132982Y54745D01*
X132855Y54581D01*
X132746Y54398D01*
Y54380D01*
X132727Y54344D01*
X132709Y54289D01*
X132691Y54216D01*
X132655Y54016D01*
X132636Y53779D01*
Y53761D01*
Y53742D01*
X132655Y53633D01*
X132673Y53487D01*
X132709Y53323D01*
Y53305D01*
X132727Y53287D01*
X132764Y53196D01*
X132837Y53068D01*
X132946Y52923D01*
X132982Y52904D01*
X133055Y52832D01*
X133201Y52740D01*
X133365Y52667D01*
X133383D01*
X133420Y52649D01*
X133474Y52631D01*
X133547D01*
X133748Y52595D01*
X134003Y52576D01*
X134094D01*
X134185Y52595D01*
X134331Y52613D01*
X134495Y52649D01*
X134695Y52704D01*
X134896Y52777D01*
X135132Y52868D01*
X135169Y52886D01*
X135242Y52923D01*
X135369Y52996D01*
X135533Y53105D01*
X135734Y53232D01*
X135970Y53396D01*
X136226Y53579D01*
X136481Y53815D01*
Y55291D01*
D02*
G37*
%LPD*%
D53*
X5774Y-265282D02*
X5118Y-264626D01*
X3806D01*
X3150Y-265282D01*
Y-267906D01*
X3806Y-268562D01*
X5118D01*
X5774Y-267906D01*
Y-266594D01*
X4462D01*
X7086Y-268562D02*
Y-264626D01*
X9710Y-268562D01*
Y-264626D01*
X11022D02*
Y-268562D01*
X12990D01*
X13646Y-267906D01*
Y-265282D01*
X12990Y-264626D01*
X11022D01*
D69*
X7500Y-334962D02*
G03*
X20000Y-347462I12500J0D01*
G01*
X46447D02*
G03*
X51147Y-342762I0J4700D01*
G01*
X55847Y-333962D02*
G03*
X51147Y-338662I0J-4700D01*
G01*
X137100D02*
G03*
X132400Y-333962I-4700J0D01*
G01*
X137100Y-350262D02*
G03*
X141800Y-354962I4700J0D01*
G01*
X165400D02*
G03*
X170100Y-350262I0J4700D01*
G01*
X174800Y-336500D02*
G03*
X170100Y-341200I0J-4700D01*
G01*
X206300D02*
G03*
X201600Y-336500I-4700J0D01*
G01*
X206300Y-350262D02*
G03*
X211000Y-354962I4700J0D01*
G01*
X234800D02*
G03*
X239500Y-350262I0J4700D01*
G01*
X244200Y-333962D02*
G03*
X239500Y-338662I0J-4700D01*
G01*
X277500Y-333962D02*
G03*
X281897Y-337001I4397J1661D01*
G01*
X372800D02*
G03*
X377500Y-332301I0J4700D01*
G01*
Y-272950D02*
G03*
X378601Y-269928I-3600J3022D01*
G01*
Y-252150D02*
G03*
X373901Y-247450I-4700J0D01*
G01*
X366000Y-242750D02*
G03*
X370700Y-247450I4700J0D01*
G01*
Y-116450D02*
G03*
X366000Y-121150I0J-4700D01*
G01*
X373901Y-116450D02*
G03*
X378601Y-111750I0J4700D01*
G01*
Y-93972D02*
G03*
X377500Y-90950I-4700J0D01*
G01*
Y-27162D02*
G03*
X372800Y-22462I-4700J0D01*
G01*
X331597D02*
G03*
X326949Y-26467I0J-4700D01*
G01*
X322313Y-30462D02*
G03*
X326949Y-26467I0J4688D01*
G01*
X217200Y-25762D02*
G03*
X221900Y-30462I4700J0D01*
G01*
X217200Y-12162D02*
G03*
X212500Y-7462I-4700J0D01*
G01*
X123950Y-2762D02*
G03*
X128650Y-7462I4700J0D01*
G01*
X123950Y3200D02*
G03*
X119250Y7900I-4700J0D01*
G01*
X102650D02*
G03*
X97950Y3200I0J-4700D01*
G01*
X93250Y-7462D02*
G03*
X97950Y-2762I0J4700D01*
G01*
X20000Y-7462D02*
G03*
X18834Y-32408I0J-12500D01*
G01*
X41500Y-57298D02*
G03*
X18834Y-32408I-25000J0D01*
G01*
X36813Y-158881D02*
G03*
X41500Y-154193I0J4688D01*
G01*
X22689Y-158881D02*
G03*
X18001Y-163568I0J-4688D01*
G01*
X13302Y-247450D02*
G03*
X18001Y-242750I0J4700D01*
G01*
X3600Y-247450D02*
G03*
X-1100Y-252150I0J-4700D01*
G01*
Y-268250D02*
G03*
X3200Y-272933I4700J0D01*
G01*
X7500Y-277616D02*
G03*
X3200Y-272933I-4700J0D01*
G01*
X221900Y-30462D02*
X322313D01*
X217200Y-25762D02*
Y-12162D01*
X128650Y-7462D02*
X212500D01*
X141800Y-354962D02*
X165400D01*
X170100Y-350262D02*
Y-341200D01*
X174800Y-336500D02*
X201600D01*
X206300Y-350262D02*
Y-341200D01*
X211000Y-354962D02*
X234800D01*
X55847Y-333962D02*
X132400D01*
X137100Y-350262D02*
Y-338662D01*
X239500Y-350262D02*
Y-338662D01*
X244200Y-333962D02*
X277500D01*
X3200Y-272933D02*
X3200Y-272933D01*
X-1100Y-268250D02*
Y-252150D01*
X3600Y-247450D02*
X13302D01*
X18001Y-242750D02*
Y-163568D01*
X22689Y-158881D02*
X36813D01*
X41500Y-154193D02*
Y-57298D01*
X20000Y-7462D02*
X93250D01*
X97950Y-2762D02*
Y3200D01*
X102650Y7900D02*
X119250D01*
X123950Y-2762D02*
Y3200D01*
X331597Y-22462D02*
X372800D01*
X377500Y-90950D02*
Y-27162D01*
X378601Y-111750D02*
Y-93972D01*
X370700Y-116450D02*
X373901D01*
X366000Y-242750D02*
Y-121150D01*
X370700Y-247450D02*
X373901D01*
X378601Y-269928D02*
Y-252150D01*
X377500Y-332301D02*
Y-272950D01*
X281897Y-337001D02*
X372800D01*
X51147Y-342762D02*
Y-338662D01*
X20000Y-347462D02*
X46447D01*
X7500Y-334962D02*
Y-277616D01*
D70*
X46850Y-247962D02*
D03*
Y-257962D02*
D03*
D71*
X357505Y-34957D02*
D03*
X20005Y-334957D02*
D03*
Y-19957D02*
D03*
X357505Y-324957D02*
D03*
D72*
X334505Y-34957D02*
D03*
X43005Y-334957D02*
D03*
Y-19957D02*
D03*
X334505Y-324957D02*
D03*
D73*
X337500Y-185000D02*
D03*
Y-195000D02*
D03*
Y-215000D02*
D03*
Y-205000D02*
D03*
Y-225000D02*
D03*
Y-235000D02*
D03*
Y-245000D02*
D03*
Y-255000D02*
D03*
Y-265000D02*
D03*
Y-275000D02*
D03*
X327500D02*
D03*
Y-265000D02*
D03*
Y-255000D02*
D03*
Y-245000D02*
D03*
Y-235000D02*
D03*
Y-225000D02*
D03*
Y-205000D02*
D03*
Y-215000D02*
D03*
Y-195000D02*
D03*
Y-95000D02*
D03*
Y-105000D02*
D03*
Y-115000D02*
D03*
Y-125000D02*
D03*
Y-135000D02*
D03*
Y-145000D02*
D03*
Y-165000D02*
D03*
Y-155000D02*
D03*
Y-175000D02*
D03*
Y-185000D02*
D03*
X337500Y-85000D02*
D03*
Y-95000D02*
D03*
Y-105000D02*
D03*
Y-115000D02*
D03*
Y-125000D02*
D03*
Y-135000D02*
D03*
Y-145000D02*
D03*
Y-165000D02*
D03*
Y-155000D02*
D03*
Y-175000D02*
D03*
X327500Y-285000D02*
D03*
Y-295000D02*
D03*
Y-305000D02*
D03*
X337500D02*
D03*
Y-295000D02*
D03*
Y-285000D02*
D03*
Y-75000D02*
D03*
X327500D02*
D03*
Y-85000D02*
D03*
X337500Y-65000D02*
D03*
Y-55000D02*
D03*
X327500D02*
D03*
Y-65000D02*
D03*
X357500Y-185000D02*
D03*
Y-215000D02*
D03*
Y-225000D02*
D03*
Y-235000D02*
D03*
Y-245000D02*
D03*
Y-255000D02*
D03*
Y-265000D02*
D03*
Y-275000D02*
D03*
X347500D02*
D03*
Y-265000D02*
D03*
Y-255000D02*
D03*
Y-245000D02*
D03*
Y-235000D02*
D03*
Y-225000D02*
D03*
Y-205000D02*
D03*
Y-215000D02*
D03*
Y-95000D02*
D03*
Y-105000D02*
D03*
Y-115000D02*
D03*
Y-125000D02*
D03*
Y-135000D02*
D03*
Y-145000D02*
D03*
Y-165000D02*
D03*
Y-155000D02*
D03*
Y-175000D02*
D03*
Y-185000D02*
D03*
X357500Y-85000D02*
D03*
Y-95000D02*
D03*
Y-105000D02*
D03*
Y-115000D02*
D03*
Y-125000D02*
D03*
Y-135000D02*
D03*
Y-145000D02*
D03*
Y-165000D02*
D03*
Y-155000D02*
D03*
Y-175000D02*
D03*
X347500Y-285000D02*
D03*
Y-295000D02*
D03*
Y-305000D02*
D03*
X357500D02*
D03*
Y-295000D02*
D03*
Y-285000D02*
D03*
Y-75000D02*
D03*
X347500D02*
D03*
Y-85000D02*
D03*
X357500Y-65000D02*
D03*
Y-55000D02*
D03*
X347500D02*
D03*
Y-65000D02*
D03*
D74*
X357500Y-195000D02*
D03*
Y-205000D02*
D03*
X347500Y-195000D02*
D03*
D75*
X77700Y-286111D02*
D03*
Y-262489D02*
D03*
X60000Y-86389D02*
D03*
Y-110011D02*
D03*
X123611Y-25000D02*
D03*
X99989D02*
D03*
X164800Y-142593D02*
D03*
Y-229207D02*
D03*
X208700Y-138693D02*
D03*
Y-225307D02*
D03*
D76*
X79560Y-25478D02*
D03*
X62040D02*
D03*
X162360Y-337622D02*
D03*
X144840D02*
D03*
X62040Y-25478D02*
D03*
X79560D02*
D03*
X231660Y-337622D02*
D03*
X214140D02*
D03*
D77*
X87237Y-13175D02*
D03*
X54363D02*
D03*
D03*
X87237D02*
D03*
X239337Y-349925D02*
D03*
X206463D02*
D03*
X369250Y-85462D02*
D03*
D78*
X170037Y-349925D02*
D03*
X137163D02*
D03*
X45850Y-225862D02*
D03*
X288250Y-92062D02*
D03*
X368650Y-256162D02*
D03*
X367550Y-65062D02*
D03*
D79*
X316304Y-277000D02*
D03*
X289296D02*
D03*
D80*
X270000Y-310000D02*
D03*
X310000Y-51500D02*
D03*
D81*
X275000Y-315000D02*
D03*
X265000D02*
D03*
X275000Y-305000D02*
D03*
X265000D02*
D03*
X315000Y-56500D02*
D03*
X305000D02*
D03*
X315000Y-46500D02*
D03*
X305000D02*
D03*
D82*
X275000Y-51500D02*
D03*
D83*
X285000Y-61500D02*
D03*
Y-41500D02*
D03*
X265000D02*
D03*
Y-61500D02*
D03*
D84*
X187757Y-310806D02*
D03*
X124797D02*
D03*
D85*
X120862Y-306868D02*
D03*
Y-314743D02*
D03*
X128732D02*
D03*
Y-306868D02*
D03*
X136602Y-314743D02*
D03*
Y-306868D02*
D03*
X144472Y-314743D02*
D03*
Y-306868D02*
D03*
X152342Y-314743D02*
D03*
Y-306868D02*
D03*
X160212Y-314743D02*
D03*
Y-306868D02*
D03*
X168082Y-314743D02*
D03*
Y-306868D02*
D03*
X175952Y-314743D02*
D03*
Y-306868D02*
D03*
X183822Y-314743D02*
D03*
Y-306868D02*
D03*
X191692Y-314743D02*
D03*
Y-306868D02*
D03*
D86*
X320600Y-206000D02*
D03*
X211100Y-20600D02*
D03*
X146600Y-104900D02*
D03*
X236900Y-208013D02*
D03*
X319500Y-193900D02*
D03*
X302300Y-183400D02*
D03*
X45650Y-238150D02*
D03*
X39000Y-242400D02*
D03*
X49000Y-137400D02*
D03*
X71700Y-132000D02*
D03*
X74400Y-144000D02*
D03*
X211700Y-342900D02*
D03*
X208800Y-344400D02*
D03*
X150800Y-347000D02*
D03*
X160000Y-229300D02*
D03*
X167457Y-221300D02*
D03*
X222600Y-209700D02*
D03*
X233550Y-203762D02*
D03*
X189100Y-185800D02*
D03*
X188100Y-158800D02*
D03*
X186800Y-171100D02*
D03*
X186700Y-166700D02*
D03*
X178000Y-182100D02*
D03*
X180900D02*
D03*
X189950Y-209462D02*
D03*
X190950Y-213562D02*
D03*
X184100Y-181900D02*
D03*
X186691Y-205622D02*
D03*
X169370Y-158362D02*
D03*
X144886Y-174798D02*
D03*
X142500Y-154500D02*
D03*
Y-158300D02*
D03*
X51300Y-318500D02*
D03*
X34300Y-313800D02*
D03*
X105500Y-316600D02*
D03*
X50300Y-304900D02*
D03*
X39700Y-304904D02*
D03*
X225359Y-345471D02*
D03*
X222800Y-343012D02*
D03*
X153600D02*
D03*
X156159Y-345471D02*
D03*
X40150Y-262962D02*
D03*
X49250Y-110062D02*
D03*
X81350Y-107162D02*
D03*
X97950Y-109962D02*
D03*
X146790Y-19767D02*
D03*
X142050Y-25862D02*
D03*
X52760Y-50971D02*
D03*
X71150Y-49162D02*
D03*
X49750Y-50962D02*
D03*
X90577Y-25636D02*
D03*
X215050Y-345662D02*
D03*
X83093Y-28842D02*
D03*
X97850Y-216362D02*
D03*
X52150Y-53762D02*
D03*
X144550Y-277362D02*
D03*
X132750Y-293262D02*
D03*
X110350Y-93062D02*
D03*
X312308Y-155562D02*
D03*
X312336Y-162162D02*
D03*
X283250Y-161062D02*
D03*
X278950Y-151662D02*
D03*
X317250Y-141862D02*
D03*
X284850Y-186262D02*
D03*
X47750Y-118362D02*
D03*
X50550Y-117962D02*
D03*
X47250Y-162462D02*
D03*
X48950Y-156162D02*
D03*
X166150Y-295762D02*
D03*
X74550Y-122262D02*
D03*
X82250Y-286162D02*
D03*
X86005Y-286157D02*
D03*
X89250Y-286162D02*
D03*
X94950Y-264862D02*
D03*
X93250Y-286062D02*
D03*
X134050Y-179462D02*
D03*
X44550Y-273062D02*
D03*
X45950Y-281762D02*
D03*
X96350Y-240462D02*
D03*
X82250Y-162362D02*
D03*
X99650Y-144662D02*
D03*
X117650Y-146262D02*
D03*
X88250Y-28162D02*
D03*
X266450Y-119162D02*
D03*
X160050Y-267062D02*
D03*
X295550Y-94662D02*
D03*
X295750Y-146962D02*
D03*
X211150Y-292862D02*
D03*
X183750Y-298098D02*
D03*
X179850Y-295962D02*
D03*
X302050Y-73762D02*
D03*
X185850Y-243162D02*
D03*
X179550Y-270062D02*
D03*
X263350Y-211162D02*
D03*
X112950Y-77562D02*
D03*
X135850Y-13462D02*
D03*
X158250Y-28362D02*
D03*
X188650Y-150162D02*
D03*
X229950Y-175262D02*
D03*
X182850Y-245562D02*
D03*
X181350Y-142662D02*
D03*
X225450Y-188662D02*
D03*
X266050Y-229562D02*
D03*
X169450Y-93862D02*
D03*
X147050Y-210962D02*
D03*
X173850Y-71562D02*
D03*
X226650Y-175062D02*
D03*
X362650Y-70662D02*
D03*
X102050Y-285662D02*
D03*
X117650Y-231762D02*
D03*
X82315Y-153127D02*
D03*
X123250Y-187562D02*
D03*
X126050Y-202562D02*
D03*
X79650Y-188462D02*
D03*
X76350Y-233762D02*
D03*
X181050Y-78462D02*
D03*
X190209Y-88403D02*
D03*
X174350Y-117762D02*
D03*
X156350Y-278062D02*
D03*
X140650Y-270162D02*
D03*
X128050Y-200462D02*
D03*
X130050Y-198362D02*
D03*
X145403Y-63009D02*
D03*
X113750Y-214862D02*
D03*
X115750Y-212762D02*
D03*
X117750Y-210662D02*
D03*
X39350Y-35862D02*
D03*
X145350Y-69762D02*
D03*
X171466Y-28178D02*
D03*
X173435Y-48246D02*
D03*
X205950Y-81262D02*
D03*
X203950Y-83362D02*
D03*
X201950Y-85462D02*
D03*
X207950Y-79162D02*
D03*
X209950Y-77062D02*
D03*
X217650Y-217462D02*
D03*
X51050Y-286462D02*
D03*
X37161Y-295952D02*
D03*
X42450Y-296062D02*
D03*
X42750Y-299962D02*
D03*
X160850Y-99962D02*
D03*
X175850Y-129762D02*
D03*
X174750Y-121562D02*
D03*
X169286Y-109327D02*
D03*
X168450Y-83862D02*
D03*
X176350Y-115662D02*
D03*
X178350Y-113562D02*
D03*
X186472Y-63341D02*
D03*
X186372Y-58741D02*
D03*
X184172Y-61041D02*
D03*
X299494Y-119006D02*
D03*
X294550Y-123862D02*
D03*
X298950Y-185362D02*
D03*
X293671Y-126683D02*
D03*
X312365Y-168762D02*
D03*
X312322Y-158862D02*
D03*
X287615Y-225198D02*
D03*
X231423Y-182690D02*
D03*
X263450Y-221062D02*
D03*
X262750Y-141262D02*
D03*
X320850Y-285062D02*
D03*
X283310Y-325562D02*
D03*
X290650Y-325562D02*
D03*
X319950Y-315562D02*
D03*
X319750Y-307362D02*
D03*
X300686Y-311827D02*
D03*
X304850Y-288862D02*
D03*
X323650Y-260262D02*
D03*
X292615Y-292962D02*
D03*
X307450Y-311462D02*
D03*
X309550Y-296962D02*
D03*
X286150Y-305462D02*
D03*
X261250Y-318962D02*
D03*
X308950Y-273662D02*
D03*
X298850Y-283762D02*
D03*
X311250Y-267362D02*
D03*
X312350Y-165462D02*
D03*
X304650Y-151962D02*
D03*
X319150Y-120662D02*
D03*
X203650Y-317562D02*
D03*
X114910Y-313802D02*
D03*
X229150Y-258062D02*
D03*
X230150Y-266778D02*
D03*
X228050Y-269062D02*
D03*
X198598Y-271115D02*
D03*
X201050Y-68062D02*
D03*
X120850Y-252662D02*
D03*
X196450Y-269262D02*
D03*
Y-266362D02*
D03*
X198450Y-264409D02*
D03*
X208750Y-221162D02*
D03*
X220986Y-249162D02*
D03*
X227050Y-248562D02*
D03*
X239250Y-172562D02*
D03*
X241350Y-191262D02*
D03*
X216150Y-247162D02*
D03*
X144350Y-272762D02*
D03*
X176750Y-229062D02*
D03*
X168850Y-243262D02*
D03*
X154748Y-296860D02*
D03*
X37376Y-256037D02*
D03*
X77650Y-256862D02*
D03*
X169250Y-150362D02*
D03*
X139150Y-25862D02*
D03*
X155450Y-282762D02*
D03*
X169250Y-282662D02*
D03*
X160750Y-310862D02*
D03*
X168650Y-311162D02*
D03*
X179050Y-285262D02*
D03*
X169150Y-285862D02*
D03*
X163850Y-285262D02*
D03*
X175952Y-278164D02*
D03*
X173668Y-276445D02*
D03*
X171350Y-278162D02*
D03*
X164150D02*
D03*
X162450Y-282662D02*
D03*
X101550Y-291262D02*
D03*
X75150Y-132862D02*
D03*
X71750Y-135262D02*
D03*
X132050Y-196262D02*
D03*
X163650Y-74262D02*
D03*
X166000Y-68500D02*
D03*
X156540Y-58972D02*
D03*
X29600Y-164200D02*
D03*
X161100Y-50000D02*
D03*
X155050Y-61362D02*
D03*
X158800Y-54700D02*
D03*
X174800Y-76400D02*
D03*
X172300Y-74100D02*
D03*
X224100Y-71600D02*
D03*
X227100Y-74500D02*
D03*
X269300Y-46800D02*
D03*
X245200Y-52700D02*
D03*
X258800Y-55000D02*
D03*
X207799Y-213494D02*
D03*
X166800Y-54200D02*
D03*
X164350Y-83962D02*
D03*
X73700Y-146800D02*
D03*
X50500Y-161400D02*
D03*
X31900Y-177700D02*
D03*
X40300Y-175100D02*
D03*
X152600Y-48700D02*
D03*
X266000Y-180700D02*
D03*
X265703Y-155514D02*
D03*
X143900Y-244000D02*
D03*
X174400Y-244600D02*
D03*
X145000Y-247900D02*
D03*
X274900Y-249600D02*
D03*
X173000Y-229200D02*
D03*
X207700Y-229500D02*
D03*
X143200Y-233900D02*
D03*
X172450Y-266662D02*
D03*
X131500Y-255400D02*
D03*
X101700Y-155600D02*
D03*
X97600Y-146600D02*
D03*
X73500Y-125100D02*
D03*
X99900Y-15200D02*
D03*
X115700Y-46500D02*
D03*
X138900Y-50600D02*
D03*
X148230Y-22242D02*
D03*
D87*
X156200Y-133500D02*
D03*
X278200Y-194300D02*
D03*
X305700Y-185900D02*
D03*
X162800Y-344700D02*
D03*
X229700Y-208000D02*
D03*
X227918Y-348694D02*
D03*
X86400Y-253712D02*
D03*
X111350Y-47862D02*
D03*
X124550Y-175462D02*
D03*
X50750Y-77662D02*
D03*
X97150Y-223062D02*
D03*
X48950Y-60062D02*
D03*
X36850Y-231962D02*
D03*
X323950Y-219962D02*
D03*
X79350Y-173762D02*
D03*
X321550Y-237662D02*
D03*
X211350Y-299662D02*
D03*
X194650Y-311162D02*
D03*
X118650Y-88262D02*
D03*
X160550Y-13662D02*
D03*
X79750Y-205062D02*
D03*
X164950Y-147762D02*
D03*
X146750Y-154404D02*
D03*
X103926Y-6638D02*
D03*
X108015Y-2798D02*
D03*
X49703Y-292015D02*
D03*
X75950Y-11962D02*
D03*
X65650Y-11762D02*
D03*
X226250Y-277362D02*
D03*
X188615Y-95827D02*
D03*
X279550Y-108762D02*
D03*
X306150Y-177462D02*
D03*
X283950Y-152662D02*
D03*
X304750Y-40362D02*
D03*
X318850Y-66762D02*
D03*
X287050Y-316762D02*
D03*
X284250Y-256762D02*
D03*
X78150Y-113962D02*
D03*
X276200Y-240413D02*
D03*
X191950Y-267662D02*
D03*
X323450Y-35862D02*
D03*
X368350Y-56762D02*
D03*
X320850Y-84362D02*
D03*
X102650Y-299562D02*
D03*
X315150Y-323462D02*
D03*
X35600Y-184700D02*
D03*
X39750Y-180662D02*
D03*
X284100Y-244100D02*
D03*
X149200Y-244700D02*
D03*
D88*
X279000Y-212262D02*
D03*
M02*
