G04 Layer_Physical_Order=2*
G04 Layer_Color=32768*
%FSLAX25Y25*%
%MOIN*%
G70*
G01*
G75*
%ADD52C,0.00787*%
%ADD68C,0.04000*%
%ADD69C,0.07937*%
%ADD70C,0.16500*%
%ADD71C,0.10500*%
%ADD72C,0.08016*%
G04:AMPARAMS|DCode=73|XSize=100.157mil|YSize=100.157mil|CornerRadius=0mil|HoleSize=0mil|Usage=FLASHONLY|Rotation=0.000|XOffset=0mil|YOffset=0mil|HoleType=Round|Shape=Relief|Width=10mil|Gap=10mil|Entries=4|*
%AMTHD73*
7,0,0,0.10016,0.08016,0.01000,45*
%
%ADD73THD73*%
%ADD74C,0.08685*%
G04:AMPARAMS|DCode=75|XSize=86mil|YSize=86mil|CornerRadius=0mil|HoleSize=0mil|Usage=FLASHONLY|Rotation=0.000|XOffset=0mil|YOffset=0mil|HoleType=Round|Shape=Relief|Width=10mil|Gap=10mil|Entries=4|*
%AMTHD75*
7,0,0,0.08600,0.06600,0.01000,45*
%
%ADD75THD75*%
G04:AMPARAMS|DCode=76|XSize=97mil|YSize=97mil|CornerRadius=0mil|HoleSize=0mil|Usage=FLASHONLY|Rotation=0.000|XOffset=0mil|YOffset=0mil|HoleType=Round|Shape=Relief|Width=10mil|Gap=10mil|Entries=4|*
%AMTHD76*
7,0,0,0.09700,0.07700,0.01000,45*
%
%ADD76THD76*%
%ADD77C,0.07700*%
G04:AMPARAMS|DCode=78|XSize=130.079mil|YSize=130.079mil|CornerRadius=0mil|HoleSize=0mil|Usage=FLASHONLY|Rotation=0.000|XOffset=0mil|YOffset=0mil|HoleType=Round|Shape=Relief|Width=10mil|Gap=10mil|Entries=4|*
%AMTHD78*
7,0,0,0.13008,0.11008,0.01000,45*
%
%ADD78THD78*%
%ADD79C,0.07307*%
G04:AMPARAMS|DCode=80|XSize=93.071mil|YSize=93.071mil|CornerRadius=0mil|HoleSize=0mil|Usage=FLASHONLY|Rotation=0.000|XOffset=0mil|YOffset=0mil|HoleType=Round|Shape=Relief|Width=10mil|Gap=10mil|Entries=4|*
%AMTHD80*
7,0,0,0.09307,0.07307,0.01000,45*
%
%ADD80THD80*%
%ADD81C,0.08331*%
G04:AMPARAMS|DCode=82|XSize=115.118mil|YSize=115.118mil|CornerRadius=0mil|HoleSize=0mil|Usage=FLASHONLY|Rotation=0.000|XOffset=0mil|YOffset=0mil|HoleType=Round|Shape=Relief|Width=10mil|Gap=10mil|Entries=4|*
%AMTHD82*
7,0,0,0.11512,0.09512,0.01000,45*
%
%ADD82THD82*%
%ADD83C,0.07000*%
%ADD84C,0.07400*%
%ADD85C,0.05181*%
%ADD86C,0.05969*%
G36*
X227713Y61233D02*
X227914Y61215D01*
X228151Y61178D01*
X228424Y61142D01*
X228715Y61087D01*
X229007Y61014D01*
X229317Y60941D01*
X229626Y60832D01*
X229936Y60705D01*
X230246Y60559D01*
X230537Y60377D01*
X230811Y60194D01*
X231048Y59958D01*
X231066Y59939D01*
X231102Y59903D01*
X231157Y59830D01*
X231248Y59721D01*
X231339Y59575D01*
X231448Y59411D01*
X231558Y59211D01*
X231667Y58974D01*
X231776Y58719D01*
X231904Y58427D01*
X231995Y58099D01*
X232086Y57753D01*
X232177Y57352D01*
X232232Y56933D01*
X232268Y56496D01*
X232287Y56004D01*
Y55967D01*
Y55876D01*
Y55731D01*
X232268Y55530D01*
X232250Y55312D01*
X232232Y55056D01*
X232159Y54528D01*
Y54492D01*
X232141Y54400D01*
X232104Y54273D01*
X232068Y54091D01*
X232013Y53890D01*
X231940Y53672D01*
X231776Y53216D01*
X231758Y53198D01*
X231722Y53107D01*
X231667Y52998D01*
X231594Y52852D01*
X231503Y52688D01*
X231394Y52487D01*
X231102Y52105D01*
X231084Y52087D01*
X231029Y52032D01*
X230938Y51923D01*
X230811Y51813D01*
X230665Y51686D01*
X230483Y51540D01*
X230282Y51394D01*
X230064Y51267D01*
X230046Y51248D01*
X229954Y51212D01*
X229827Y51139D01*
X229663Y51066D01*
X229463Y50975D01*
X229226Y50884D01*
X228952Y50793D01*
X228661Y50720D01*
X228624D01*
X228515Y50684D01*
X228351Y50665D01*
X228132Y50629D01*
X227859Y50592D01*
X227549Y50574D01*
X227203Y50538D01*
X224543D01*
Y61251D01*
X227531D01*
X227713Y61233D01*
D02*
G37*
G36*
X154761Y58901D02*
X154961Y58883D01*
X155198Y58846D01*
X155453Y58810D01*
X155708Y58737D01*
X155963Y58646D01*
X155999Y58627D01*
X156072Y58591D01*
X156200Y58536D01*
X156364Y58445D01*
X156528Y58336D01*
X156728Y58209D01*
X156910Y58044D01*
X157093Y57862D01*
X157111Y57844D01*
X157166Y57771D01*
X157257Y57662D01*
X157348Y57534D01*
X157457Y57352D01*
X157585Y57152D01*
X157694Y56915D01*
X157785Y56660D01*
X157803Y56623D01*
X157821Y56532D01*
X157858Y56387D01*
X157913Y56204D01*
X157949Y55967D01*
X157985Y55712D01*
X158004Y55421D01*
X158022Y55093D01*
Y55075D01*
Y55038D01*
Y54984D01*
Y54911D01*
Y54747D01*
X158004Y54564D01*
Y54528D01*
Y54437D01*
Y54328D01*
X157985Y54200D01*
X152210D01*
Y54182D01*
Y54145D01*
Y54072D01*
X152228Y54000D01*
Y53890D01*
X152246Y53763D01*
X152301Y53471D01*
X152374Y53162D01*
X152501Y52834D01*
X152665Y52524D01*
X152902Y52250D01*
X152938Y52214D01*
X153030Y52141D01*
X153193Y52032D01*
X153430Y51923D01*
X153722Y51795D01*
X154068Y51686D01*
X154469Y51613D01*
X154943Y51576D01*
X155398D01*
X155653Y51595D01*
X155708D01*
X155781Y51613D01*
X155872D01*
X156109Y51649D01*
X156346Y51667D01*
X156364D01*
X156400Y51686D01*
X156473D01*
X156564Y51704D01*
X156765Y51740D01*
X157001Y51777D01*
X157020D01*
X157056Y51795D01*
X157111Y51813D01*
X157184Y51832D01*
X157384Y51868D01*
X157585Y51923D01*
Y50757D01*
X157566D01*
X157475Y50738D01*
X157366Y50702D01*
X157202Y50665D01*
X157001Y50629D01*
X156783Y50574D01*
X156528Y50538D01*
X156254Y50501D01*
X156218D01*
X156127Y50483D01*
X155981Y50465D01*
X155799Y50447D01*
X155562Y50428D01*
X155307Y50410D01*
X155034Y50392D01*
X154560D01*
X154360Y50410D01*
X154123Y50428D01*
X153831Y50465D01*
X153522Y50501D01*
X153212Y50574D01*
X152920Y50665D01*
X152884Y50684D01*
X152793Y50720D01*
X152647Y50793D01*
X152483Y50884D01*
X152283Y50993D01*
X152064Y51139D01*
X151864Y51303D01*
X151663Y51503D01*
X151645Y51522D01*
X151590Y51595D01*
X151499Y51722D01*
X151390Y51868D01*
X151262Y52068D01*
X151153Y52287D01*
X151025Y52560D01*
X150934Y52834D01*
Y52852D01*
Y52870D01*
X150898Y52979D01*
X150861Y53143D01*
X150825Y53362D01*
X150788Y53635D01*
X150752Y53927D01*
X150734Y54273D01*
X150716Y54637D01*
Y54656D01*
Y54674D01*
Y54783D01*
X150734Y54947D01*
X150752Y55166D01*
X150770Y55403D01*
X150825Y55676D01*
X150880Y55967D01*
X150952Y56259D01*
Y56277D01*
X150971Y56295D01*
X151007Y56387D01*
X151062Y56532D01*
X151135Y56733D01*
X151244Y56933D01*
X151372Y57170D01*
X151517Y57407D01*
X151681Y57625D01*
X151699Y57644D01*
X151772Y57717D01*
X151882Y57826D01*
X152009Y57972D01*
X152191Y58117D01*
X152392Y58281D01*
X152611Y58427D01*
X152866Y58573D01*
X152902Y58591D01*
X152993Y58627D01*
X153139Y58682D01*
X153321Y58755D01*
X153558Y58810D01*
X153831Y58864D01*
X154123Y58901D01*
X154451Y58919D01*
X154596D01*
X154761Y58901D01*
D02*
G37*
G36*
X182182Y61397D02*
X182364D01*
X182564Y61361D01*
X182783Y61324D01*
X183020Y61269D01*
X183238Y61197D01*
X183256Y61178D01*
X183329Y61160D01*
X183439Y61105D01*
X183584Y61033D01*
X183748Y60941D01*
X183913Y60850D01*
X184240Y60577D01*
X184259Y60559D01*
X184313Y60504D01*
X184386Y60413D01*
X184495Y60304D01*
X184605Y60158D01*
X184714Y59994D01*
X184824Y59812D01*
X184915Y59593D01*
X184933Y59575D01*
X184951Y59484D01*
X184987Y59374D01*
X185042Y59211D01*
X185079Y59010D01*
X185115Y58792D01*
X185133Y58555D01*
X185151Y58281D01*
Y58263D01*
Y58172D01*
Y58063D01*
X185133Y57899D01*
X185115Y57735D01*
X185079Y57534D01*
X184987Y57134D01*
Y57115D01*
X184951Y57042D01*
X184915Y56933D01*
X184860Y56805D01*
X184787Y56642D01*
X184696Y56459D01*
X184477Y56077D01*
X184459Y56059D01*
X184423Y55986D01*
X184350Y55895D01*
X184259Y55749D01*
X184131Y55585D01*
X183985Y55403D01*
X183821Y55202D01*
X183639Y55002D01*
X183621Y54984D01*
X183548Y54911D01*
X183439Y54801D01*
X183311Y54656D01*
X183129Y54473D01*
X182929Y54273D01*
X182710Y54036D01*
X182455Y53799D01*
X180524Y51904D01*
X185734D01*
Y50538D01*
X178665D01*
Y51813D01*
X181416Y54564D01*
X181453Y54601D01*
X181526Y54674D01*
X181653Y54801D01*
X181817Y54965D01*
X181999Y55147D01*
X182182Y55348D01*
X182364Y55548D01*
X182528Y55731D01*
X182546Y55749D01*
X182601Y55822D01*
X182674Y55913D01*
X182765Y56022D01*
X182874Y56168D01*
X182983Y56314D01*
X183184Y56623D01*
X183202Y56642D01*
X183220Y56696D01*
X183275Y56769D01*
X183329Y56878D01*
X183439Y57115D01*
X183512Y57389D01*
Y57407D01*
X183530Y57462D01*
X183548Y57534D01*
X183566Y57625D01*
Y57735D01*
X183584Y57881D01*
X183603Y58172D01*
Y58190D01*
Y58245D01*
Y58318D01*
X183584Y58409D01*
X183566Y58664D01*
X183493Y58919D01*
Y58937D01*
X183475Y58974D01*
X183457Y59047D01*
X183421Y59138D01*
X183311Y59338D01*
X183165Y59557D01*
X183147Y59575D01*
X183129Y59611D01*
X183074Y59648D01*
X183020Y59721D01*
X182819Y59848D01*
X182582Y59994D01*
X182564D01*
X182528Y60012D01*
X182455Y60049D01*
X182345Y60085D01*
X182218Y60103D01*
X182090Y60140D01*
X181927Y60158D01*
X181635D01*
X181507Y60140D01*
X181343Y60122D01*
X181143Y60085D01*
X180943Y60031D01*
X180724Y59958D01*
X180505Y59848D01*
X180487Y59830D01*
X180414Y59794D01*
X180305Y59721D01*
X180159Y59630D01*
X180013Y59520D01*
X179831Y59393D01*
X179667Y59229D01*
X179485Y59065D01*
X178701Y59994D01*
X178738Y60031D01*
X178811Y60103D01*
X178938Y60213D01*
X179102Y60358D01*
X179303Y60522D01*
X179540Y60686D01*
X179795Y60869D01*
X180086Y61014D01*
X180104D01*
X180123Y61033D01*
X180232Y61069D01*
X180396Y61142D01*
X180615Y61215D01*
X180888Y61288D01*
X181198Y61361D01*
X181544Y61397D01*
X181927Y61415D01*
X182054D01*
X182182Y61397D01*
D02*
G37*
G36*
X125426Y51777D02*
X130127D01*
Y50538D01*
X123950D01*
Y61251D01*
X125426D01*
Y51777D01*
D02*
G37*
G36*
X136395Y58901D02*
X136595Y58883D01*
X136832Y58846D01*
X137287Y58755D01*
X137306D01*
X137397Y58719D01*
X137506Y58682D01*
X137634Y58627D01*
X137798Y58555D01*
X137962Y58464D01*
X138126Y58372D01*
X138290Y58245D01*
X138308Y58227D01*
X138363Y58190D01*
X138435Y58117D01*
X138526Y58026D01*
X138636Y57899D01*
X138745Y57753D01*
X138836Y57589D01*
X138927Y57407D01*
X138945Y57389D01*
X138964Y57316D01*
X139000Y57206D01*
X139055Y57061D01*
X139091Y56897D01*
X139128Y56678D01*
X139146Y56459D01*
X139164Y56204D01*
Y50538D01*
X137871D01*
X137834Y51631D01*
X137798Y51595D01*
X137725Y51522D01*
X137579Y51412D01*
X137415Y51267D01*
X137196Y51121D01*
X136978Y50957D01*
X136723Y50811D01*
X136468Y50684D01*
X136431Y50665D01*
X136340Y50647D01*
X136213Y50592D01*
X136030Y50538D01*
X135812Y50483D01*
X135557Y50447D01*
X135301Y50410D01*
X135010Y50392D01*
X134901D01*
X134773Y50410D01*
X134609D01*
X134409Y50428D01*
X134208Y50465D01*
X133808Y50556D01*
X133789D01*
X133735Y50592D01*
X133643Y50629D01*
X133516Y50684D01*
X133261Y50848D01*
X132988Y51048D01*
X132969Y51066D01*
X132933Y51103D01*
X132878Y51175D01*
X132805Y51267D01*
X132732Y51376D01*
X132641Y51503D01*
X132514Y51795D01*
Y51813D01*
X132496Y51868D01*
X132477Y51959D01*
X132441Y52068D01*
X132423Y52214D01*
X132386Y52378D01*
X132368Y52724D01*
Y52742D01*
Y52779D01*
Y52852D01*
X132386Y52925D01*
X132404Y53034D01*
X132423Y53162D01*
X132477Y53435D01*
X132587Y53745D01*
X132751Y54072D01*
X132860Y54237D01*
X132988Y54382D01*
X133115Y54528D01*
X133279Y54674D01*
X133297D01*
X133316Y54710D01*
X133370Y54747D01*
X133461Y54783D01*
X133552Y54838D01*
X133662Y54892D01*
X133808Y54965D01*
X133971Y55038D01*
X134154Y55093D01*
X134354Y55166D01*
X134573Y55220D01*
X134828Y55275D01*
X135083Y55312D01*
X135374Y55348D01*
X135684Y55384D01*
X137725D01*
Y56095D01*
Y56131D01*
Y56222D01*
X137706Y56350D01*
X137670Y56514D01*
X137615Y56696D01*
X137524Y56897D01*
X137415Y57079D01*
X137251Y57261D01*
X137233Y57279D01*
X137160Y57334D01*
X137051Y57407D01*
X136905Y57480D01*
X136704Y57552D01*
X136449Y57625D01*
X136158Y57680D01*
X135830Y57698D01*
X135575D01*
X135393Y57680D01*
X135174Y57662D01*
X134955Y57625D01*
X134445Y57534D01*
X134409D01*
X134336Y57498D01*
X134190Y57462D01*
X134026Y57425D01*
X133808Y57352D01*
X133571Y57279D01*
X133316Y57188D01*
X133060Y57097D01*
Y58391D01*
X133079D01*
X133115Y58409D01*
X133151Y58427D01*
X133224Y58445D01*
X133407Y58500D01*
X133643Y58573D01*
X133662D01*
X133698Y58591D01*
X133771Y58609D01*
X133862Y58627D01*
X134099Y58682D01*
X134354Y58737D01*
X134372D01*
X134427Y58755D01*
X134500Y58773D01*
X134591Y58792D01*
X134700Y58810D01*
X134828Y58828D01*
X135119Y58864D01*
X135137D01*
X135192Y58883D01*
X135265D01*
X135374Y58901D01*
X135502D01*
X135629Y58919D01*
X136213D01*
X136395Y58901D01*
D02*
G37*
G36*
X235894Y62727D02*
X235912Y62709D01*
X235967Y62654D01*
X236040Y62581D01*
X236131Y62490D01*
X236222Y62399D01*
X236477Y62126D01*
X236751Y61798D01*
X237078Y61415D01*
X237425Y60960D01*
X237771Y60449D01*
X238117Y59903D01*
X238463Y59302D01*
X238791Y58646D01*
X239083Y57972D01*
X239319Y57261D01*
X239502Y56514D01*
X239575Y56131D01*
X239629Y55749D01*
X239647Y55348D01*
X239666Y54947D01*
Y54929D01*
Y54911D01*
Y54856D01*
Y54801D01*
Y54619D01*
X239647Y54382D01*
X239629Y54109D01*
X239593Y53799D01*
X239538Y53453D01*
X239483Y53107D01*
Y53089D01*
Y53070D01*
X239465Y53016D01*
X239447Y52943D01*
X239411Y52761D01*
X239338Y52506D01*
X239247Y52214D01*
X239137Y51886D01*
X239010Y51540D01*
X238864Y51175D01*
Y51157D01*
X238846Y51139D01*
X238827Y51084D01*
X238791Y51012D01*
X238682Y50811D01*
X238554Y50556D01*
X238390Y50246D01*
X238172Y49918D01*
X237953Y49554D01*
X237680Y49171D01*
Y49153D01*
X237643Y49117D01*
X237607Y49062D01*
X237552Y48989D01*
X237479Y48898D01*
X237388Y48789D01*
X237170Y48515D01*
X236914Y48206D01*
X236605Y47859D01*
X236240Y47477D01*
X235840Y47094D01*
X235020Y47951D01*
X235038Y47969D01*
X235092Y48024D01*
X235165Y48115D01*
X235275Y48224D01*
X235420Y48370D01*
X235566Y48552D01*
X235730Y48734D01*
X235912Y48953D01*
X236094Y49190D01*
X236295Y49445D01*
X236696Y50010D01*
X237060Y50611D01*
X237224Y50939D01*
X237388Y51248D01*
X237406Y51267D01*
X237425Y51321D01*
X237461Y51412D01*
X237516Y51540D01*
X237570Y51704D01*
X237643Y51886D01*
X237716Y52105D01*
X237789Y52342D01*
X237862Y52597D01*
X237935Y52870D01*
X238062Y53490D01*
X238153Y54145D01*
X238190Y54492D01*
Y54838D01*
Y54856D01*
Y54874D01*
Y54929D01*
Y55020D01*
X238172Y55111D01*
Y55220D01*
X238135Y55494D01*
X238099Y55840D01*
X238026Y56241D01*
X237916Y56678D01*
X237789Y57170D01*
X237625Y57698D01*
X237425Y58263D01*
X237151Y58846D01*
X236860Y59447D01*
X236495Y60049D01*
X236058Y60650D01*
X235584Y61269D01*
X235311Y61561D01*
X235020Y61853D01*
X235876Y62745D01*
X235894Y62727D01*
D02*
G37*
G36*
X165055Y58901D02*
X165146D01*
X165273Y58883D01*
X165565Y58810D01*
X165875Y58719D01*
X166184Y58573D01*
X166494Y58354D01*
X166640Y58227D01*
X166767Y58081D01*
X166804Y58044D01*
X166822Y57990D01*
X166877Y57935D01*
X166913Y57844D01*
X166968Y57735D01*
X167041Y57607D01*
X167095Y57462D01*
X167150Y57297D01*
X167205Y57134D01*
X167259Y56933D01*
X167314Y56714D01*
X167350Y56459D01*
X167369Y56204D01*
X167387Y55931D01*
Y55639D01*
X165947D01*
Y55658D01*
Y55694D01*
Y55749D01*
Y55822D01*
X165929Y56004D01*
X165911Y56222D01*
X165875Y56478D01*
X165820Y56733D01*
X165729Y56988D01*
X165620Y57188D01*
X165601Y57206D01*
X165565Y57261D01*
X165474Y57352D01*
X165365Y57443D01*
X165219Y57516D01*
X165055Y57607D01*
X164854Y57662D01*
X164618Y57680D01*
X164508D01*
X164453Y57662D01*
X164271Y57644D01*
X164053Y57571D01*
X164034D01*
X163998Y57552D01*
X163943Y57534D01*
X163871Y57498D01*
X163670Y57389D01*
X163451Y57243D01*
X163433Y57225D01*
X163397Y57206D01*
X163342Y57152D01*
X163251Y57097D01*
X163051Y56897D01*
X162795Y56660D01*
X162777Y56642D01*
X162741Y56605D01*
X162668Y56532D01*
X162577Y56423D01*
X162468Y56295D01*
X162340Y56168D01*
X162212Y56004D01*
X162067Y55822D01*
Y50538D01*
X160627D01*
Y58773D01*
X161921D01*
X161957Y57243D01*
Y57261D01*
X161994Y57279D01*
X162085Y57389D01*
X162231Y57534D01*
X162413Y57735D01*
X162631Y57935D01*
X162868Y58154D01*
X163123Y58354D01*
X163397Y58518D01*
X163433Y58536D01*
X163524Y58573D01*
X163652Y58646D01*
X163852Y58719D01*
X164053Y58792D01*
X164308Y58864D01*
X164563Y58901D01*
X164836Y58919D01*
X164964D01*
X165055Y58901D01*
D02*
G37*
G36*
X211243Y61397D02*
X211443Y61379D01*
X211680Y61361D01*
X212172Y61288D01*
X212208D01*
X212281Y61269D01*
X212408Y61233D01*
X212573Y61197D01*
X212773Y61142D01*
X212973Y61069D01*
X213429Y60887D01*
Y59429D01*
X213411Y59447D01*
X213319Y59484D01*
X213210Y59539D01*
X213046Y59611D01*
X212864Y59684D01*
X212645Y59775D01*
X212190Y59921D01*
X212154D01*
X212081Y59958D01*
X211953Y59976D01*
X211789Y60012D01*
X211570Y60049D01*
X211352Y60067D01*
X211097Y60103D01*
X210678D01*
X210514Y60085D01*
X210313Y60067D01*
X210076Y60031D01*
X209821Y59976D01*
X209548Y59903D01*
X209293Y59794D01*
X209257Y59775D01*
X209184Y59739D01*
X209056Y59666D01*
X208910Y59575D01*
X208728Y59447D01*
X208546Y59302D01*
X208364Y59119D01*
X208182Y58919D01*
X208163Y58901D01*
X208109Y58828D01*
X208017Y58700D01*
X207926Y58555D01*
X207817Y58354D01*
X207690Y58136D01*
X207580Y57881D01*
X207489Y57589D01*
X207471Y57552D01*
X207453Y57462D01*
X207416Y57297D01*
X207380Y57097D01*
X207325Y56842D01*
X207289Y56551D01*
X207271Y56222D01*
X207252Y55876D01*
Y55858D01*
Y55840D01*
Y55785D01*
Y55712D01*
X207271Y55530D01*
Y55293D01*
X207289Y55020D01*
X207325Y54710D01*
X207380Y54419D01*
X207435Y54109D01*
X207453Y54072D01*
X207471Y53981D01*
X207526Y53836D01*
X207580Y53654D01*
X207671Y53435D01*
X207781Y53216D01*
X207908Y52998D01*
X208054Y52779D01*
X208072Y52761D01*
X208127Y52688D01*
X208218Y52597D01*
X208346Y52487D01*
X208509Y52342D01*
X208692Y52214D01*
X208892Y52087D01*
X209129Y51959D01*
X209165Y51941D01*
X209238Y51923D01*
X209384Y51868D01*
X209566Y51832D01*
X209803Y51777D01*
X210076Y51722D01*
X210368Y51704D01*
X210696Y51686D01*
X211060D01*
X211133Y51704D01*
X211261D01*
X211388Y51722D01*
X211425D01*
X211497Y51740D01*
X211607Y51777D01*
X211734Y51795D01*
X211771Y51813D01*
X211844Y51832D01*
X211935Y51868D01*
X212044Y51904D01*
Y55312D01*
X209840D01*
Y56514D01*
X213484D01*
Y51030D01*
X213465D01*
X213429Y51012D01*
X213356Y50975D01*
X213265Y50939D01*
X213028Y50829D01*
X212755Y50738D01*
X212737D01*
X212700Y50720D01*
X212627Y50702D01*
X212518Y50684D01*
X212408Y50647D01*
X212281Y50611D01*
X211989Y50556D01*
X211971D01*
X211917Y50538D01*
X211844D01*
X211753Y50520D01*
X211497Y50483D01*
X211224Y50447D01*
X211151D01*
X211079Y50428D01*
X210987D01*
X210751Y50410D01*
X210477Y50392D01*
X210295D01*
X210076Y50410D01*
X209821Y50428D01*
X209512Y50465D01*
X209184Y50538D01*
X208837Y50611D01*
X208491Y50720D01*
X208473D01*
X208455Y50738D01*
X208346Y50793D01*
X208182Y50866D01*
X207981Y50975D01*
X207744Y51121D01*
X207489Y51303D01*
X207234Y51503D01*
X206997Y51740D01*
X206979Y51777D01*
X206888Y51868D01*
X206779Y52014D01*
X206651Y52214D01*
X206487Y52451D01*
X206341Y52742D01*
X206177Y53070D01*
X206050Y53435D01*
Y53453D01*
X206031Y53490D01*
X206013Y53544D01*
X205995Y53617D01*
X205977Y53708D01*
X205940Y53817D01*
X205886Y54109D01*
X205831Y54437D01*
X205777Y54838D01*
X205740Y55293D01*
X205722Y55767D01*
Y55785D01*
Y55822D01*
Y55895D01*
Y55986D01*
X205740Y56113D01*
Y56241D01*
X205777Y56569D01*
X205813Y56933D01*
X205868Y57334D01*
X205959Y57735D01*
X206086Y58136D01*
Y58154D01*
X206104Y58190D01*
X206123Y58245D01*
X206159Y58318D01*
X206232Y58500D01*
X206360Y58755D01*
X206487Y59028D01*
X206669Y59338D01*
X206870Y59630D01*
X207106Y59921D01*
X207143Y59958D01*
X207234Y60049D01*
X207362Y60176D01*
X207562Y60340D01*
X207799Y60522D01*
X208072Y60705D01*
X208382Y60869D01*
X208710Y61033D01*
X208728D01*
X208746Y61051D01*
X208801Y61069D01*
X208874Y61087D01*
X209074Y61160D01*
X209329Y61233D01*
X209639Y61288D01*
X209985Y61361D01*
X210386Y61397D01*
X210805Y61415D01*
X211060D01*
X211243Y61397D01*
D02*
G37*
G36*
X203044Y61889D02*
X203007Y61853D01*
X202916Y61743D01*
X202752Y61579D01*
X202552Y61342D01*
X202296Y61051D01*
X202041Y60705D01*
X201750Y60286D01*
X201458Y59848D01*
X201149Y59356D01*
X200857Y58810D01*
X200602Y58245D01*
X200347Y57625D01*
X200147Y56988D01*
X200001Y56332D01*
X199891Y55639D01*
X199873Y55293D01*
X199855Y54929D01*
Y54911D01*
Y54838D01*
Y54747D01*
X199873Y54601D01*
Y54437D01*
X199891Y54237D01*
X199928Y54018D01*
X199964Y53763D01*
X200001Y53490D01*
X200055Y53216D01*
X200201Y52597D01*
X200402Y51941D01*
X200511Y51613D01*
X200657Y51285D01*
X200675Y51267D01*
X200693Y51212D01*
X200748Y51121D01*
X200802Y50993D01*
X200893Y50829D01*
X201003Y50647D01*
X201112Y50447D01*
X201258Y50210D01*
X201422Y49973D01*
X201586Y49718D01*
X201786Y49445D01*
X202005Y49153D01*
X202242Y48862D01*
X202479Y48570D01*
X202752Y48279D01*
X203044Y47987D01*
X202169Y47094D01*
X202151Y47113D01*
X202133Y47131D01*
X202078Y47185D01*
X202005Y47258D01*
X201914Y47349D01*
X201823Y47440D01*
X201586Y47714D01*
X201294Y48042D01*
X200985Y48424D01*
X200638Y48880D01*
X200292Y49372D01*
X199928Y49918D01*
X199600Y50520D01*
X199272Y51157D01*
X198980Y51832D01*
X198743Y52542D01*
X198561Y53271D01*
X198488Y53654D01*
X198434Y54036D01*
X198416Y54419D01*
X198397Y54820D01*
Y54838D01*
Y54874D01*
Y54911D01*
Y54984D01*
X198416Y55184D01*
Y55439D01*
X198452Y55749D01*
X198488Y56077D01*
X198525Y56441D01*
X198598Y56805D01*
Y56824D01*
X198616Y56842D01*
Y56897D01*
X198634Y56969D01*
X198689Y57170D01*
X198762Y57425D01*
X198835Y57717D01*
X198944Y58044D01*
X199090Y58409D01*
X199235Y58773D01*
Y58792D01*
X199254Y58828D01*
X199290Y58864D01*
X199327Y58937D01*
X199418Y59138D01*
X199563Y59393D01*
X199727Y59702D01*
X199928Y60031D01*
X200165Y60395D01*
X200420Y60759D01*
Y60777D01*
X200456Y60814D01*
X200493Y60850D01*
X200547Y60923D01*
X200711Y61124D01*
X200912Y61379D01*
X201185Y61689D01*
X201477Y62016D01*
X201823Y62381D01*
X202205Y62745D01*
X203044Y61889D01*
D02*
G37*
G36*
X146343Y51412D02*
Y51394D01*
X146325Y51358D01*
X146306Y51303D01*
X146270Y51230D01*
X146179Y51012D01*
X146070Y50757D01*
X145924Y50465D01*
X145778Y50137D01*
X145614Y49809D01*
X145432Y49499D01*
X145414Y49463D01*
X145359Y49372D01*
X145268Y49208D01*
X145140Y49026D01*
X144994Y48807D01*
X144812Y48588D01*
X144630Y48370D01*
X144430Y48151D01*
X144412Y48133D01*
X144339Y48060D01*
X144229Y47969D01*
X144083Y47859D01*
X143901Y47732D01*
X143701Y47604D01*
X143464Y47495D01*
X143227Y47386D01*
X143191Y47368D01*
X143118Y47349D01*
X142972Y47313D01*
X142790Y47258D01*
X142571Y47204D01*
X142334Y47167D01*
X142043Y47149D01*
X141751Y47131D01*
X141496D01*
X141350Y47149D01*
X141132D01*
X140986Y47167D01*
Y48461D01*
X141023D01*
X141095Y48443D01*
X141223D01*
X141369Y48424D01*
X141405D01*
X141515Y48406D01*
X141660Y48388D01*
X141970D01*
X142061Y48406D01*
X142316Y48443D01*
X142571Y48515D01*
X142589D01*
X142626Y48534D01*
X142699Y48570D01*
X142790Y48607D01*
X142990Y48716D01*
X143209Y48880D01*
X143227Y48898D01*
X143264Y48935D01*
X143318Y48989D01*
X143391Y49062D01*
X143482Y49153D01*
X143592Y49281D01*
X143792Y49554D01*
X143810Y49572D01*
X143847Y49627D01*
X143901Y49718D01*
X143974Y49827D01*
X144047Y49973D01*
X144138Y50155D01*
X144247Y50337D01*
X144339Y50538D01*
X141059Y58773D01*
X142681D01*
X144758Y53307D01*
X145177Y52032D01*
X145650Y53344D01*
X147582Y58773D01*
X149149D01*
X146343Y51412D01*
D02*
G37*
G36*
X222685Y50538D02*
X220699D01*
X217711Y57225D01*
X216854Y59374D01*
Y53963D01*
Y50538D01*
X215397D01*
Y61251D01*
X217346D01*
X220188Y54911D01*
X221227Y52469D01*
Y58209D01*
Y61251D01*
X222685D01*
Y50538D01*
D02*
G37*
%LPC*%
G36*
X227568Y60012D02*
X226001D01*
Y51795D01*
X227240D01*
X227422Y51832D01*
X227659Y51868D01*
X227932Y51923D01*
X228242Y52014D01*
X228570Y52141D01*
X228916Y52305D01*
X229262Y52524D01*
X229590Y52797D01*
X229900Y53125D01*
X230173Y53526D01*
X230301Y53745D01*
X230410Y54000D01*
X230519Y54255D01*
X230592Y54546D01*
X230665Y54838D01*
X230720Y55166D01*
X230738Y55530D01*
X230756Y55895D01*
Y55913D01*
Y55949D01*
Y56004D01*
Y56077D01*
X230738Y56295D01*
Y56551D01*
X230701Y56860D01*
X230665Y57170D01*
X230610Y57498D01*
X230537Y57808D01*
Y57826D01*
X230519Y57844D01*
X230501Y57935D01*
X230446Y58081D01*
X230374Y58263D01*
X230282Y58464D01*
X230173Y58682D01*
X230027Y58901D01*
X229882Y59083D01*
X229863Y59101D01*
X229809Y59156D01*
X229717Y59247D01*
X229590Y59356D01*
X229426Y59466D01*
X229244Y59593D01*
X229025Y59702D01*
X228788Y59794D01*
X228752Y59812D01*
X228679Y59830D01*
X228533Y59866D01*
X228351Y59903D01*
X228114Y59939D01*
X227859Y59976D01*
X227568Y60012D01*
D02*
G37*
G36*
X154578Y57771D02*
X154214D01*
X154104Y57753D01*
X153977Y57735D01*
X153831Y57698D01*
X153522Y57589D01*
X153503D01*
X153467Y57552D01*
X153394Y57516D01*
X153303Y57462D01*
X153084Y57297D01*
X152866Y57079D01*
X152847Y57061D01*
X152829Y57024D01*
X152775Y56951D01*
X152702Y56860D01*
X152629Y56751D01*
X152556Y56605D01*
X152410Y56295D01*
Y56277D01*
X152392Y56222D01*
X152355Y56131D01*
X152319Y56004D01*
X152283Y55858D01*
X152264Y55676D01*
X152210Y55293D01*
X156546D01*
Y55312D01*
Y55384D01*
Y55494D01*
Y55621D01*
X156528Y55767D01*
X156510Y55931D01*
X156419Y56277D01*
Y56295D01*
X156400Y56350D01*
X156364Y56441D01*
X156327Y56551D01*
X156200Y56805D01*
X156018Y57061D01*
X155999Y57079D01*
X155963Y57115D01*
X155908Y57170D01*
X155835Y57243D01*
X155726Y57334D01*
X155617Y57407D01*
X155325Y57571D01*
X155307Y57589D01*
X155252Y57607D01*
X155161Y57644D01*
X155052Y57680D01*
X154924Y57717D01*
X154761Y57735D01*
X154578Y57771D01*
D02*
G37*
G36*
X137725Y54291D02*
X135721D01*
X135593Y54273D01*
X135301Y54255D01*
X134992Y54182D01*
X134974D01*
X134937Y54164D01*
X134864Y54145D01*
X134773Y54109D01*
X134555Y54000D01*
X134354Y53872D01*
X134336D01*
X134318Y53836D01*
X134227Y53745D01*
X134099Y53581D01*
X133990Y53398D01*
Y53380D01*
X133971Y53344D01*
X133953Y53289D01*
X133935Y53216D01*
X133899Y53016D01*
X133880Y52779D01*
Y52761D01*
Y52742D01*
X133899Y52633D01*
X133917Y52487D01*
X133953Y52323D01*
Y52305D01*
X133971Y52287D01*
X134008Y52196D01*
X134081Y52068D01*
X134190Y51923D01*
X134227Y51904D01*
X134299Y51832D01*
X134445Y51740D01*
X134609Y51667D01*
X134627D01*
X134664Y51649D01*
X134719Y51631D01*
X134791D01*
X134992Y51595D01*
X135247Y51576D01*
X135338D01*
X135429Y51595D01*
X135575Y51613D01*
X135739Y51649D01*
X135939Y51704D01*
X136140Y51777D01*
X136377Y51868D01*
X136413Y51886D01*
X136486Y51923D01*
X136613Y51995D01*
X136777Y52105D01*
X136978Y52232D01*
X137215Y52396D01*
X137470Y52579D01*
X137725Y52815D01*
Y54291D01*
D02*
G37*
%LPD*%
D52*
X14174Y-281982D02*
X13518Y-281326D01*
X12206D01*
X11550Y-281982D01*
Y-284606D01*
X12206Y-285262D01*
X13518D01*
X14174Y-284606D01*
Y-283294D01*
X12862D01*
X15486Y-285262D02*
Y-281326D01*
X18110Y-285262D01*
Y-281326D01*
X19422D02*
Y-285262D01*
X21390D01*
X22046Y-284606D01*
Y-281982D01*
X21390Y-281326D01*
X19422D01*
D68*
X7500Y-334962D02*
G03*
X20000Y-347462I12500J0D01*
G01*
X46447D02*
G03*
X51147Y-342762I0J4700D01*
G01*
X55847Y-333962D02*
G03*
X51147Y-338662I0J-4700D01*
G01*
X137100D02*
G03*
X132400Y-333962I-4700J0D01*
G01*
X137100Y-350262D02*
G03*
X141800Y-354962I4700J0D01*
G01*
X165400D02*
G03*
X170100Y-350262I0J4700D01*
G01*
X174800Y-336500D02*
G03*
X170100Y-341200I0J-4700D01*
G01*
X206300D02*
G03*
X201600Y-336500I-4700J0D01*
G01*
X206300Y-350262D02*
G03*
X211000Y-354962I4700J0D01*
G01*
X234800D02*
G03*
X239500Y-350262I0J4700D01*
G01*
X244200Y-333962D02*
G03*
X239500Y-338662I0J-4700D01*
G01*
X277500Y-333962D02*
G03*
X281897Y-337001I4397J1661D01*
G01*
X372800D02*
G03*
X377500Y-332301I0J4700D01*
G01*
Y-272950D02*
G03*
X378601Y-269928I-3600J3022D01*
G01*
Y-252150D02*
G03*
X373901Y-247450I-4700J0D01*
G01*
X366000Y-242750D02*
G03*
X370700Y-247450I4700J0D01*
G01*
Y-116450D02*
G03*
X366000Y-121150I0J-4700D01*
G01*
X373901Y-116450D02*
G03*
X378601Y-111750I0J4700D01*
G01*
Y-93972D02*
G03*
X377500Y-90950I-4700J0D01*
G01*
Y-27162D02*
G03*
X372800Y-22462I-4700J0D01*
G01*
X331597D02*
G03*
X326949Y-26467I0J-4700D01*
G01*
X322313Y-30462D02*
G03*
X326949Y-26467I0J4688D01*
G01*
X229000Y-25762D02*
G03*
X233700Y-30462I4700J0D01*
G01*
X229000Y-12162D02*
G03*
X224300Y-7462I-4700J0D01*
G01*
X123950Y-2762D02*
G03*
X128650Y-7462I4700J0D01*
G01*
X123950Y3200D02*
G03*
X119250Y7900I-4700J0D01*
G01*
X102650D02*
G03*
X97950Y3200I0J-4700D01*
G01*
X93250Y-7462D02*
G03*
X97950Y-2762I0J4700D01*
G01*
X20000Y-7462D02*
G03*
X18834Y-32408I0J-12500D01*
G01*
X41500Y-57298D02*
G03*
X18834Y-32408I-25000J0D01*
G01*
X36813Y-158881D02*
G03*
X41500Y-154193I0J4688D01*
G01*
X22689Y-158881D02*
G03*
X18001Y-163568I0J-4688D01*
G01*
X13302Y-247450D02*
G03*
X18001Y-242750I0J4700D01*
G01*
X3600Y-247450D02*
G03*
X-1100Y-252150I0J-4700D01*
G01*
Y-268250D02*
G03*
X3200Y-272933I4700J0D01*
G01*
X7500Y-277616D02*
G03*
X3200Y-272933I-4700J0D01*
G01*
X141800Y-354962D02*
X165400D01*
X170100Y-350262D02*
Y-341200D01*
X174800Y-336500D02*
X201600D01*
X206300Y-350262D02*
Y-341200D01*
X211000Y-354962D02*
X234800D01*
X55847Y-333962D02*
X132400D01*
X137100Y-350262D02*
Y-338662D01*
X239500Y-350262D02*
Y-338662D01*
X244200Y-333962D02*
X277500D01*
X3200Y-272933D02*
X3200Y-272933D01*
X-1100Y-268250D02*
Y-252150D01*
X3600Y-247450D02*
X13302D01*
X18001Y-242750D02*
Y-163568D01*
X22689Y-158881D02*
X36813D01*
X41500Y-154193D02*
Y-57298D01*
X20000Y-7462D02*
X93250D01*
X97950Y-2762D02*
Y3200D01*
X102650Y7900D02*
X119250D01*
X123950Y-2762D02*
Y3200D01*
X128650Y-7462D02*
X224300D01*
X229000Y-25762D02*
Y-12162D01*
X233700Y-30462D02*
X322313D01*
X331597Y-22462D02*
X372800D01*
X377500Y-90950D02*
Y-27162D01*
X378601Y-111750D02*
Y-93972D01*
X370700Y-116450D02*
X373901D01*
X366000Y-242750D02*
Y-121150D01*
X370700Y-247450D02*
X373901D01*
X378601Y-269928D02*
Y-252150D01*
X377500Y-332301D02*
Y-272950D01*
X281897Y-337001D02*
X372800D01*
X51147Y-342762D02*
Y-338662D01*
X20000Y-347462D02*
X46447D01*
X7500Y-334962D02*
Y-277616D01*
D69*
X46850Y-247962D02*
D03*
Y-257962D02*
D03*
D70*
X357505Y-34957D02*
D03*
X20005Y-334957D02*
D03*
Y-19957D02*
D03*
X357505Y-324957D02*
D03*
D71*
X334505Y-34957D02*
D03*
X43005Y-334957D02*
D03*
Y-19957D02*
D03*
X334505Y-324957D02*
D03*
D72*
X337500Y-185000D02*
D03*
Y-195000D02*
D03*
Y-215000D02*
D03*
Y-205000D02*
D03*
Y-225000D02*
D03*
Y-235000D02*
D03*
Y-245000D02*
D03*
Y-255000D02*
D03*
Y-265000D02*
D03*
Y-275000D02*
D03*
X327500D02*
D03*
Y-265000D02*
D03*
Y-255000D02*
D03*
Y-245000D02*
D03*
Y-235000D02*
D03*
Y-225000D02*
D03*
Y-205000D02*
D03*
Y-215000D02*
D03*
Y-195000D02*
D03*
Y-95000D02*
D03*
Y-105000D02*
D03*
Y-115000D02*
D03*
Y-125000D02*
D03*
Y-135000D02*
D03*
Y-145000D02*
D03*
Y-165000D02*
D03*
Y-155000D02*
D03*
Y-175000D02*
D03*
Y-185000D02*
D03*
X337500Y-85000D02*
D03*
Y-95000D02*
D03*
Y-105000D02*
D03*
Y-115000D02*
D03*
Y-125000D02*
D03*
Y-135000D02*
D03*
Y-145000D02*
D03*
Y-165000D02*
D03*
Y-155000D02*
D03*
Y-175000D02*
D03*
X327500Y-285000D02*
D03*
Y-295000D02*
D03*
Y-305000D02*
D03*
X337500D02*
D03*
Y-295000D02*
D03*
Y-285000D02*
D03*
Y-75000D02*
D03*
X327500D02*
D03*
Y-85000D02*
D03*
X337500Y-65000D02*
D03*
Y-55000D02*
D03*
X327500D02*
D03*
Y-65000D02*
D03*
X357500Y-185000D02*
D03*
Y-215000D02*
D03*
Y-225000D02*
D03*
Y-235000D02*
D03*
Y-245000D02*
D03*
Y-255000D02*
D03*
Y-265000D02*
D03*
Y-275000D02*
D03*
X347500D02*
D03*
Y-265000D02*
D03*
Y-255000D02*
D03*
Y-245000D02*
D03*
Y-235000D02*
D03*
Y-225000D02*
D03*
Y-205000D02*
D03*
Y-215000D02*
D03*
Y-95000D02*
D03*
Y-105000D02*
D03*
Y-115000D02*
D03*
Y-125000D02*
D03*
Y-135000D02*
D03*
Y-145000D02*
D03*
Y-165000D02*
D03*
Y-155000D02*
D03*
Y-175000D02*
D03*
Y-185000D02*
D03*
X357500Y-85000D02*
D03*
Y-95000D02*
D03*
Y-105000D02*
D03*
Y-115000D02*
D03*
Y-125000D02*
D03*
Y-135000D02*
D03*
Y-145000D02*
D03*
Y-165000D02*
D03*
Y-155000D02*
D03*
Y-175000D02*
D03*
X347500Y-285000D02*
D03*
Y-295000D02*
D03*
Y-305000D02*
D03*
X357500D02*
D03*
Y-295000D02*
D03*
Y-285000D02*
D03*
Y-75000D02*
D03*
X347500D02*
D03*
Y-85000D02*
D03*
X357500Y-65000D02*
D03*
Y-55000D02*
D03*
X347500D02*
D03*
Y-65000D02*
D03*
D73*
X357500Y-195000D02*
D03*
Y-205000D02*
D03*
X347500Y-195000D02*
D03*
D74*
X77700Y-286111D02*
D03*
Y-262489D02*
D03*
X60000Y-86389D02*
D03*
Y-110011D02*
D03*
X123611Y-25000D02*
D03*
X99989D02*
D03*
X164800Y-142593D02*
D03*
Y-229207D02*
D03*
X208700Y-138693D02*
D03*
Y-225307D02*
D03*
D75*
X79560Y-25478D02*
D03*
X62040D02*
D03*
X162360Y-337622D02*
D03*
X144840D02*
D03*
X62040Y-25478D02*
D03*
X79560D02*
D03*
X231660Y-337622D02*
D03*
X214140D02*
D03*
D76*
X87237Y-13175D02*
D03*
X54363D02*
D03*
D03*
X87237D02*
D03*
X239337Y-349925D02*
D03*
X206463D02*
D03*
X369250Y-85462D02*
D03*
D77*
X170037Y-349925D02*
D03*
X137163D02*
D03*
X45850Y-225862D02*
D03*
X288250Y-92062D02*
D03*
X368650Y-256162D02*
D03*
X367550Y-65062D02*
D03*
D78*
X316304Y-277000D02*
D03*
X289296D02*
D03*
D79*
X270000Y-310000D02*
D03*
X310000Y-51500D02*
D03*
D80*
X275000Y-315000D02*
D03*
X265000D02*
D03*
X275000Y-305000D02*
D03*
X265000D02*
D03*
X315000Y-56500D02*
D03*
X305000D02*
D03*
X315000Y-46500D02*
D03*
X305000D02*
D03*
D81*
X275000Y-51500D02*
D03*
D82*
X285000Y-61500D02*
D03*
Y-41500D02*
D03*
X265000D02*
D03*
Y-61500D02*
D03*
D83*
X187757Y-310806D02*
D03*
X124797D02*
D03*
D84*
X120862Y-306868D02*
D03*
Y-314743D02*
D03*
X128732D02*
D03*
Y-306868D02*
D03*
X136602Y-314743D02*
D03*
Y-306868D02*
D03*
X144472Y-314743D02*
D03*
Y-306868D02*
D03*
X152342Y-314743D02*
D03*
Y-306868D02*
D03*
X160212Y-314743D02*
D03*
Y-306868D02*
D03*
X168082Y-314743D02*
D03*
Y-306868D02*
D03*
X175952Y-314743D02*
D03*
Y-306868D02*
D03*
X183822Y-314743D02*
D03*
Y-306868D02*
D03*
X191692Y-314743D02*
D03*
Y-306868D02*
D03*
D85*
X45650Y-238150D02*
D03*
X39000Y-242400D02*
D03*
X49000Y-137400D02*
D03*
X71700Y-132000D02*
D03*
X74400Y-144000D02*
D03*
X211700Y-342900D02*
D03*
X208800Y-344400D02*
D03*
X150800Y-347000D02*
D03*
X160000Y-229300D02*
D03*
X167457Y-221300D02*
D03*
X222600Y-209700D02*
D03*
X233550Y-203762D02*
D03*
X189100Y-185800D02*
D03*
X188100Y-158800D02*
D03*
X186800Y-171100D02*
D03*
X186700Y-166700D02*
D03*
X178000Y-182100D02*
D03*
X180900D02*
D03*
X189950Y-209462D02*
D03*
X190950Y-213562D02*
D03*
X184100Y-181900D02*
D03*
X186691Y-205622D02*
D03*
X169370Y-158362D02*
D03*
X144886Y-174798D02*
D03*
X142500Y-154500D02*
D03*
Y-158300D02*
D03*
X51300Y-318500D02*
D03*
X34300Y-313800D02*
D03*
X105500Y-316600D02*
D03*
X50300Y-304900D02*
D03*
X39700Y-304904D02*
D03*
X225359Y-345471D02*
D03*
X222800Y-343012D02*
D03*
X153600D02*
D03*
X156159Y-345471D02*
D03*
X40150Y-262962D02*
D03*
X49250Y-110062D02*
D03*
X81350Y-107162D02*
D03*
X97950Y-109962D02*
D03*
X146790Y-19767D02*
D03*
X142050Y-25862D02*
D03*
X52760Y-50971D02*
D03*
X71150Y-49162D02*
D03*
X49750Y-50962D02*
D03*
X90577Y-25636D02*
D03*
X215050Y-345662D02*
D03*
X83093Y-28842D02*
D03*
X97850Y-216362D02*
D03*
X52150Y-53762D02*
D03*
X144550Y-277362D02*
D03*
X132750Y-293262D02*
D03*
X110350Y-93062D02*
D03*
X312308Y-155562D02*
D03*
X312336Y-162162D02*
D03*
X283250Y-161062D02*
D03*
X278950Y-151662D02*
D03*
X317250Y-141862D02*
D03*
X284850Y-186262D02*
D03*
X128550Y-141962D02*
D03*
X47750Y-118362D02*
D03*
X50550Y-117962D02*
D03*
X47250Y-162462D02*
D03*
X48950Y-156162D02*
D03*
X166150Y-295762D02*
D03*
X74550Y-122262D02*
D03*
X82250Y-286162D02*
D03*
X86005Y-286157D02*
D03*
X89250Y-286162D02*
D03*
X94950Y-264862D02*
D03*
X93250Y-286062D02*
D03*
X134050Y-179462D02*
D03*
X44550Y-273062D02*
D03*
X45950Y-281762D02*
D03*
X96350Y-240462D02*
D03*
X82250Y-162362D02*
D03*
X99650Y-144662D02*
D03*
X117650Y-146262D02*
D03*
X88250Y-28162D02*
D03*
X266450Y-119162D02*
D03*
X160050Y-267062D02*
D03*
X295550Y-94662D02*
D03*
X295750Y-146962D02*
D03*
X211150Y-292862D02*
D03*
X183750Y-298098D02*
D03*
X179850Y-295962D02*
D03*
X302050Y-73762D02*
D03*
X185850Y-243162D02*
D03*
X179550Y-270062D02*
D03*
X263350Y-211162D02*
D03*
X112950Y-77562D02*
D03*
X135850Y-13462D02*
D03*
X158250Y-28362D02*
D03*
X188650Y-150162D02*
D03*
X229950Y-175262D02*
D03*
X182850Y-245562D02*
D03*
X181350Y-142662D02*
D03*
X225450Y-188662D02*
D03*
X266050Y-229562D02*
D03*
X169450Y-93862D02*
D03*
X147050Y-210962D02*
D03*
X173850Y-71562D02*
D03*
X226650Y-175062D02*
D03*
X362650Y-70662D02*
D03*
X102050Y-285662D02*
D03*
X117650Y-231762D02*
D03*
X82315Y-153127D02*
D03*
X123250Y-187562D02*
D03*
X126050Y-202562D02*
D03*
X79650Y-188462D02*
D03*
X76350Y-233762D02*
D03*
X181050Y-78462D02*
D03*
X190209Y-88403D02*
D03*
X174350Y-117762D02*
D03*
X156350Y-278062D02*
D03*
X140650Y-270162D02*
D03*
X128050Y-200462D02*
D03*
X130050Y-198362D02*
D03*
X145403Y-63009D02*
D03*
X113750Y-214862D02*
D03*
X115750Y-212762D02*
D03*
X117750Y-210662D02*
D03*
X39350Y-35862D02*
D03*
X145350Y-69762D02*
D03*
X222650Y-24662D02*
D03*
X171466Y-28178D02*
D03*
X173435Y-48246D02*
D03*
X205950Y-81262D02*
D03*
X203950Y-83362D02*
D03*
X201950Y-85462D02*
D03*
X207950Y-79162D02*
D03*
X209950Y-77062D02*
D03*
X217650Y-217462D02*
D03*
X51050Y-286462D02*
D03*
X37161Y-295952D02*
D03*
X42450Y-296062D02*
D03*
X42750Y-299962D02*
D03*
X160850Y-99962D02*
D03*
X175850Y-129762D02*
D03*
X174750Y-121562D02*
D03*
X169286Y-109327D02*
D03*
X168450Y-83862D02*
D03*
X176350Y-115662D02*
D03*
X178350Y-113562D02*
D03*
X186472Y-63341D02*
D03*
X186372Y-58741D02*
D03*
X184172Y-61041D02*
D03*
X302450Y-185362D02*
D03*
X299494Y-119006D02*
D03*
X294550Y-123862D02*
D03*
X298950Y-185362D02*
D03*
X293671Y-126683D02*
D03*
X319148Y-193960D02*
D03*
X312365Y-168762D02*
D03*
X312322Y-158862D02*
D03*
X291450Y-220662D02*
D03*
X287615Y-225198D02*
D03*
X231423Y-182690D02*
D03*
X263450Y-221062D02*
D03*
X262750Y-141262D02*
D03*
X320850Y-285062D02*
D03*
X283310Y-325562D02*
D03*
X290650Y-325562D02*
D03*
X319950Y-315562D02*
D03*
X319750Y-307362D02*
D03*
X300686Y-311827D02*
D03*
X304850Y-288862D02*
D03*
X323650Y-260262D02*
D03*
X292615Y-292962D02*
D03*
X307450Y-311462D02*
D03*
X309550Y-296962D02*
D03*
X286150Y-305462D02*
D03*
X261250Y-318962D02*
D03*
X308950Y-273662D02*
D03*
X298850Y-283762D02*
D03*
X311250Y-267362D02*
D03*
X312350Y-165462D02*
D03*
X304650Y-151962D02*
D03*
X319150Y-120662D02*
D03*
X203650Y-317562D02*
D03*
X114910Y-313802D02*
D03*
X229150Y-258062D02*
D03*
X230150Y-266778D02*
D03*
X228050Y-269062D02*
D03*
X198598Y-271115D02*
D03*
X201050Y-68062D02*
D03*
X120850Y-252662D02*
D03*
X196450Y-269262D02*
D03*
Y-266362D02*
D03*
X198450Y-264409D02*
D03*
X208750Y-221162D02*
D03*
X220986Y-249162D02*
D03*
X227050Y-248562D02*
D03*
X239250Y-172562D02*
D03*
X241350Y-191262D02*
D03*
X216150Y-247162D02*
D03*
X144350Y-272762D02*
D03*
X176750Y-229062D02*
D03*
X168850Y-243262D02*
D03*
X154748Y-296860D02*
D03*
X37376Y-256037D02*
D03*
X77650Y-256862D02*
D03*
X169250Y-150362D02*
D03*
X139150Y-25862D02*
D03*
X155450Y-282762D02*
D03*
X169250Y-282662D02*
D03*
X160750Y-310862D02*
D03*
X168650Y-311162D02*
D03*
X179050Y-285262D02*
D03*
X169150Y-285862D02*
D03*
X163850Y-285262D02*
D03*
X175952Y-278164D02*
D03*
X173668Y-276445D02*
D03*
X171350Y-278162D02*
D03*
X164150D02*
D03*
X162450Y-282662D02*
D03*
X101550Y-291262D02*
D03*
X75150Y-132862D02*
D03*
X71750Y-135262D02*
D03*
X132050Y-196262D02*
D03*
X163650Y-74262D02*
D03*
X166000Y-68500D02*
D03*
X156540Y-58972D02*
D03*
X29600Y-164200D02*
D03*
X161100Y-50000D02*
D03*
X155050Y-61362D02*
D03*
X158800Y-54700D02*
D03*
X174800Y-76400D02*
D03*
X172300Y-74100D02*
D03*
X224100Y-71600D02*
D03*
X227100Y-74500D02*
D03*
X269300Y-46800D02*
D03*
X245200Y-52700D02*
D03*
X258800Y-55000D02*
D03*
X207799Y-213494D02*
D03*
X166800Y-54200D02*
D03*
X164350Y-83962D02*
D03*
X73700Y-146800D02*
D03*
X50500Y-161400D02*
D03*
X31900Y-177700D02*
D03*
X40300Y-175100D02*
D03*
X152600Y-48700D02*
D03*
X266000Y-180700D02*
D03*
X265703Y-155514D02*
D03*
X143900Y-244000D02*
D03*
X174400Y-244600D02*
D03*
X145000Y-247900D02*
D03*
X274900Y-249600D02*
D03*
X173000Y-229200D02*
D03*
X207700Y-229500D02*
D03*
X143200Y-233900D02*
D03*
X172450Y-266662D02*
D03*
X131500Y-255400D02*
D03*
X101700Y-155600D02*
D03*
X97600Y-146600D02*
D03*
X73500Y-125100D02*
D03*
X99900Y-15200D02*
D03*
X115700Y-46500D02*
D03*
X138900Y-50600D02*
D03*
X148230Y-22242D02*
D03*
D86*
X162800Y-344700D02*
D03*
X229700Y-208000D02*
D03*
X227918Y-348694D02*
D03*
X86400Y-253712D02*
D03*
X111350Y-47862D02*
D03*
X124550Y-175462D02*
D03*
X50750Y-77662D02*
D03*
X97150Y-223062D02*
D03*
X48950Y-60062D02*
D03*
X36850Y-231962D02*
D03*
X323950Y-219962D02*
D03*
X79350Y-173762D02*
D03*
X321550Y-237662D02*
D03*
X211350Y-299662D02*
D03*
X194650Y-311162D02*
D03*
X146450Y-113962D02*
D03*
X118650Y-88262D02*
D03*
X160550Y-13662D02*
D03*
X278150Y-193827D02*
D03*
X79750Y-205062D02*
D03*
X164950Y-147762D02*
D03*
X146750Y-154404D02*
D03*
X103926Y-6638D02*
D03*
X108015Y-2798D02*
D03*
X49703Y-292015D02*
D03*
X75950Y-11962D02*
D03*
X65650Y-11762D02*
D03*
X226250Y-277362D02*
D03*
X188615Y-95827D02*
D03*
X279550Y-108762D02*
D03*
X306150Y-177462D02*
D03*
X294217Y-204196D02*
D03*
X283950Y-152662D02*
D03*
X304750Y-40362D02*
D03*
X318850Y-66762D02*
D03*
X287050Y-316762D02*
D03*
X304550Y-188562D02*
D03*
X284250Y-256762D02*
D03*
X78150Y-113962D02*
D03*
X276200Y-240413D02*
D03*
X155850Y-129762D02*
D03*
X191950Y-267662D02*
D03*
X323450Y-35862D02*
D03*
X368350Y-56762D02*
D03*
X320850Y-84362D02*
D03*
X102650Y-299562D02*
D03*
X315150Y-323462D02*
D03*
X35600Y-184700D02*
D03*
X39750Y-180662D02*
D03*
X236900Y-208800D02*
D03*
X284100Y-244100D02*
D03*
X149200Y-244700D02*
D03*
M02*
