G04 Layer_Color=8388736*
%FSLAX25Y25*%
%MOIN*%
G70*
G01*
G75*
%ADD10R,0.05315X0.04134*%
%ADD13O,0.05512X0.01100*%
%ADD14R,0.02800X0.10236*%
%ADD15R,0.04800X0.07087*%
%ADD16R,0.10236X0.02800*%
%ADD17R,0.07087X0.04800*%
%ADD18R,0.05551X0.03583*%
%ADD19R,0.05709X0.03937*%
%ADD20R,0.03937X0.05709*%
%ADD22R,0.08858X0.10039*%
%ADD24R,0.10039X0.08858*%
%ADD25R,0.02165X0.05906*%
%ADD26R,0.01575X0.05315*%
%ADD29R,0.01600X0.04150*%
%ADD30R,0.03740X0.03150*%
%ADD31R,0.03583X0.05551*%
%ADD32R,0.04134X0.05315*%
%ADD34O,0.02362X0.05709*%
%ADD35R,0.04134X0.07874*%
%ADD36R,0.29724X0.29134*%
%ADD37O,0.01100X0.05512*%
%ADD38R,0.07874X0.04134*%
%ADD39R,0.29134X0.29724*%
%ADD40O,0.05709X0.02362*%
%ADD42R,0.08661X0.04134*%
%ADD43R,0.04134X0.04134*%
%ADD44R,0.03500X0.05500*%
%ADD53R,0.29995X0.25000*%
%ADD54R,0.30005X0.25000*%
%ADD55C,0.05906*%
%ADD56C,0.25000*%
%ADD57C,0.28000*%
%ADD58C,0.10000*%
%ADD59C,0.04921*%
%ADD60C,0.04000*%
%ADD61R,0.07000X0.07000*%
%ADD62C,0.07874*%
%ADD63C,0.05118*%
%ADD64C,0.06693*%
%ADD65C,0.03000*%
%ADD119R,0.04337X0.03543*%
%ADD120R,0.06112X0.05324*%
%ADD121R,0.03543X0.04337*%
%ADD122R,0.02841X0.02841*%
%ADD123R,0.16839X0.03059*%
%ADD124R,0.08177X0.02665*%
%ADD125R,0.04140X0.03310*%
%ADD126O,0.05515X0.01800*%
G36*
X165986Y39151D02*
X166204Y39133D01*
X166314D01*
X166405Y39115D01*
X166605Y39097D01*
X166842Y39060D01*
X166896D01*
X166969Y39042D01*
X167042D01*
X167243Y39006D01*
X167480Y38969D01*
X167534D01*
X167607Y38951D01*
X167680Y38933D01*
X167880Y38896D01*
X168081Y38860D01*
Y37548D01*
X168044D01*
X167972Y37584D01*
X167844Y37603D01*
X167680Y37639D01*
X167498Y37675D01*
X167279Y37730D01*
X166805Y37803D01*
X166787D01*
X166696Y37821D01*
X166587Y37839D01*
X166423Y37858D01*
X166241Y37876D01*
X166022Y37894D01*
X165585Y37912D01*
X165384D01*
X165166Y37894D01*
X164892Y37858D01*
X164583Y37803D01*
X164273Y37730D01*
X163999Y37621D01*
X163744Y37475D01*
X163726Y37457D01*
X163653Y37402D01*
X163562Y37311D01*
X163453Y37184D01*
X163344Y37020D01*
X163252Y36819D01*
X163180Y36601D01*
X163161Y36345D01*
Y36327D01*
Y36273D01*
X163180Y36200D01*
X163198Y36090D01*
X163271Y35853D01*
X163325Y35726D01*
X163398Y35598D01*
X163417Y35580D01*
X163435Y35544D01*
X163489Y35489D01*
X163562Y35416D01*
X163763Y35234D01*
X164018Y35034D01*
X164036Y35015D01*
X164091Y34997D01*
X164163Y34942D01*
X164291Y34888D01*
X164419Y34815D01*
X164564Y34742D01*
X164929Y34596D01*
X164947D01*
X165020Y34560D01*
X165111Y34523D01*
X165257Y34469D01*
X165402Y34414D01*
X165566Y34341D01*
X165949Y34177D01*
X165967D01*
X166040Y34141D01*
X166149Y34104D01*
X166277Y34050D01*
X166441Y33977D01*
X166605Y33904D01*
X166988Y33722D01*
X167006Y33704D01*
X167079Y33685D01*
X167170Y33631D01*
X167297Y33558D01*
X167589Y33357D01*
X167880Y33121D01*
X167899Y33102D01*
X167953Y33066D01*
X168026Y32993D01*
X168117Y32884D01*
X168208Y32774D01*
X168318Y32629D01*
X168518Y32301D01*
X168536Y32282D01*
X168554Y32210D01*
X168591Y32118D01*
X168646Y31991D01*
X168700Y31827D01*
X168737Y31626D01*
X168755Y31426D01*
X168773Y31189D01*
Y31153D01*
Y31062D01*
X168755Y30916D01*
X168737Y30734D01*
X168700Y30533D01*
X168627Y30296D01*
X168554Y30059D01*
X168445Y29841D01*
X168427Y29823D01*
X168391Y29750D01*
X168318Y29640D01*
X168227Y29513D01*
X168099Y29367D01*
X167953Y29203D01*
X167771Y29039D01*
X167571Y28894D01*
X167552Y28875D01*
X167480Y28839D01*
X167352Y28766D01*
X167206Y28675D01*
X167006Y28584D01*
X166787Y28493D01*
X166532Y28401D01*
X166241Y28329D01*
X166204D01*
X166113Y28292D01*
X165949Y28274D01*
X165730Y28238D01*
X165475Y28201D01*
X165184Y28183D01*
X164856Y28146D01*
X164255D01*
X164109Y28165D01*
X163981D01*
X163653Y28183D01*
X163581D01*
X163508Y28201D01*
X163398D01*
X163143Y28238D01*
X162852Y28274D01*
X162779D01*
X162706Y28292D01*
X162615D01*
X162378Y28329D01*
X162123Y28365D01*
X162105D01*
X162068Y28383D01*
X161995Y28401D01*
X161922Y28420D01*
X161722Y28474D01*
X161503Y28529D01*
Y29932D01*
X161540Y29914D01*
X161613Y29895D01*
X161740Y29859D01*
X161904Y29805D01*
X162105Y29732D01*
X162341Y29677D01*
X162597Y29622D01*
X162870Y29568D01*
X162906D01*
X162997Y29549D01*
X163161Y29531D01*
X163380Y29513D01*
X163635Y29476D01*
X163927Y29458D01*
X164255Y29440D01*
X164874D01*
X165038Y29458D01*
X165220D01*
X165421Y29495D01*
X165621Y29513D01*
X165822Y29549D01*
X165840D01*
X165913Y29568D01*
X165986Y29604D01*
X166113Y29622D01*
X166368Y29732D01*
X166623Y29859D01*
X166641Y29877D01*
X166678Y29895D01*
X166733Y29950D01*
X166805Y30005D01*
X166969Y30169D01*
X167097Y30387D01*
Y30406D01*
X167115Y30442D01*
X167152Y30515D01*
X167170Y30606D01*
X167206Y30715D01*
X167225Y30843D01*
X167243Y31116D01*
Y31135D01*
Y31189D01*
X167225Y31262D01*
X167206Y31371D01*
X167133Y31608D01*
X167079Y31718D01*
X166988Y31845D01*
X166969Y31863D01*
X166951Y31900D01*
X166896Y31954D01*
X166824Y32027D01*
X166733Y32118D01*
X166623Y32210D01*
X166350Y32392D01*
X166332Y32410D01*
X166277Y32428D01*
X166204Y32483D01*
X166095Y32537D01*
X165967Y32610D01*
X165822Y32683D01*
X165457Y32847D01*
X165439Y32865D01*
X165366Y32884D01*
X165275Y32920D01*
X165129Y32975D01*
X164983Y33029D01*
X164801Y33102D01*
X164419Y33248D01*
X164400Y33266D01*
X164328Y33285D01*
X164236Y33339D01*
X164109Y33394D01*
X163945Y33467D01*
X163781Y33540D01*
X163398Y33722D01*
X163380Y33740D01*
X163307Y33776D01*
X163216Y33813D01*
X163089Y33886D01*
X162961Y33977D01*
X162797Y34068D01*
X162487Y34305D01*
X162469Y34323D01*
X162433Y34359D01*
X162360Y34432D01*
X162269Y34542D01*
X162178Y34651D01*
X162068Y34797D01*
X161868Y35107D01*
X161850Y35125D01*
X161831Y35198D01*
X161795Y35289D01*
X161758Y35416D01*
X161704Y35580D01*
X161667Y35762D01*
X161649Y35981D01*
X161631Y36200D01*
Y36218D01*
Y36291D01*
X161649Y36400D01*
X161667Y36546D01*
X161686Y36710D01*
X161722Y36892D01*
X161777Y37093D01*
X161850Y37293D01*
X161868Y37311D01*
X161886Y37384D01*
X161959Y37475D01*
X162032Y37603D01*
X162123Y37748D01*
X162250Y37912D01*
X162396Y38076D01*
X162560Y38240D01*
X162578Y38258D01*
X162651Y38313D01*
X162761Y38386D01*
X162906Y38477D01*
X163070Y38587D01*
X163289Y38696D01*
X163526Y38805D01*
X163799Y38914D01*
X163836Y38933D01*
X163945Y38951D01*
X164091Y38987D01*
X164309Y39042D01*
X164583Y39097D01*
X164892Y39133D01*
X165238Y39151D01*
X165621Y39169D01*
X165803D01*
X165986Y39151D01*
D02*
G37*
G36*
X196194Y28292D02*
X194901D01*
X194846Y29841D01*
Y29823D01*
X194828Y29805D01*
X194737Y29695D01*
X194627Y29549D01*
X194463Y29349D01*
X194263Y29149D01*
X194044Y28930D01*
X193807Y28730D01*
X193552Y28547D01*
X193516Y28529D01*
X193425Y28493D01*
X193297Y28420D01*
X193097Y28347D01*
X192878Y28274D01*
X192623Y28201D01*
X192350Y28165D01*
X192040Y28146D01*
X191931D01*
X191785Y28165D01*
X191621Y28183D01*
X191439Y28219D01*
X191220Y28274D01*
X191020Y28347D01*
X190801Y28438D01*
X190783Y28456D01*
X190710Y28493D01*
X190619Y28565D01*
X190491Y28657D01*
X190346Y28766D01*
X190200Y28912D01*
X190054Y29076D01*
X189908Y29258D01*
X189890Y29276D01*
X189854Y29349D01*
X189781Y29476D01*
X189708Y29622D01*
X189617Y29823D01*
X189526Y30041D01*
X189435Y30278D01*
X189362Y30551D01*
Y30588D01*
X189344Y30679D01*
X189307Y30843D01*
X189289Y31043D01*
X189252Y31299D01*
X189216Y31590D01*
X189198Y31900D01*
Y32228D01*
Y32246D01*
Y32282D01*
Y32337D01*
Y32410D01*
X189216Y32592D01*
X189234Y32847D01*
X189271Y33139D01*
X189307Y33448D01*
X189380Y33776D01*
X189471Y34086D01*
Y34104D01*
X189489Y34123D01*
X189526Y34232D01*
X189599Y34378D01*
X189690Y34560D01*
X189799Y34778D01*
X189945Y35015D01*
X190109Y35252D01*
X190291Y35471D01*
X190309Y35489D01*
X190382Y35562D01*
X190491Y35671D01*
X190655Y35799D01*
X190838Y35926D01*
X191056Y36072D01*
X191293Y36200D01*
X191566Y36327D01*
X191603Y36345D01*
X191694Y36382D01*
X191858Y36418D01*
X192058Y36473D01*
X192295Y36528D01*
X192587Y36582D01*
X192896Y36601D01*
X193224Y36619D01*
X193461D01*
X193716Y36601D01*
X193990Y36564D01*
X194008D01*
X194062Y36546D01*
X194135D01*
X194227Y36528D01*
X194482Y36473D01*
X194755Y36400D01*
Y39880D01*
X196194D01*
Y28292D01*
D02*
G37*
G36*
X239941Y36655D02*
X240123D01*
X240542Y36619D01*
X240560D01*
X240651Y36601D01*
X240760D01*
X240924Y36582D01*
X241107Y36546D01*
X241307Y36528D01*
X241544Y36473D01*
X241781Y36437D01*
Y35161D01*
X241744D01*
X241671Y35198D01*
X241544Y35216D01*
X241362Y35252D01*
X241179Y35289D01*
X240961Y35325D01*
X240505Y35398D01*
X240487D01*
X240396Y35416D01*
X240287Y35434D01*
X240141Y35453D01*
X239977D01*
X239813Y35471D01*
X239448Y35489D01*
X239266D01*
X239139Y35471D01*
X238847Y35453D01*
X238556Y35398D01*
X238538D01*
X238501Y35380D01*
X238428Y35361D01*
X238337Y35343D01*
X238155Y35252D01*
X237954Y35161D01*
X237918Y35143D01*
X237827Y35070D01*
X237736Y34961D01*
X237645Y34833D01*
X237627Y34797D01*
X237608Y34706D01*
X237572Y34578D01*
X237554Y34414D01*
Y34396D01*
Y34378D01*
X237572Y34287D01*
X237590Y34159D01*
X237627Y34013D01*
X237645Y33977D01*
X237699Y33904D01*
X237809Y33795D01*
X237954Y33667D01*
X237973D01*
X237991Y33631D01*
X238046Y33612D01*
X238119Y33558D01*
X238228Y33503D01*
X238337Y33448D01*
X238465Y33394D01*
X238610Y33321D01*
X238629D01*
X238683Y33285D01*
X238774Y33266D01*
X238902Y33212D01*
X239066Y33157D01*
X239248Y33102D01*
X239448Y33048D01*
X239685Y32975D01*
X239722Y32956D01*
X239813Y32938D01*
X239941Y32902D01*
X240123Y32829D01*
X240323Y32774D01*
X240524Y32683D01*
X240724Y32610D01*
X240924Y32519D01*
X240943Y32501D01*
X241016Y32483D01*
X241088Y32428D01*
X241216Y32373D01*
X241471Y32191D01*
X241726Y31991D01*
X241744Y31973D01*
X241781Y31936D01*
X241835Y31881D01*
X241908Y31809D01*
X242054Y31608D01*
X242127Y31481D01*
X242181Y31353D01*
Y31335D01*
X242200Y31299D01*
X242236Y31207D01*
X242254Y31116D01*
X242291Y30989D01*
X242309Y30861D01*
X242327Y30533D01*
Y30515D01*
Y30460D01*
Y30369D01*
X242309Y30278D01*
X242254Y30023D01*
X242163Y29750D01*
Y29732D01*
X242145Y29695D01*
X242109Y29622D01*
X242054Y29549D01*
X241927Y29349D01*
X241762Y29130D01*
X241744Y29112D01*
X241726Y29094D01*
X241671Y29039D01*
X241599Y28985D01*
X241398Y28839D01*
X241161Y28675D01*
X241143D01*
X241107Y28638D01*
X241034Y28620D01*
X240943Y28565D01*
X240724Y28474D01*
X240451Y28383D01*
X240432D01*
X240396Y28365D01*
X240305Y28347D01*
X240214Y28329D01*
X240105Y28292D01*
X239959Y28274D01*
X239667Y28219D01*
X239649D01*
X239594Y28201D01*
X239521D01*
X239412Y28183D01*
X239175Y28165D01*
X238884Y28146D01*
X238574D01*
X238374Y28165D01*
X238137D01*
X237882Y28183D01*
X237335Y28219D01*
X237299D01*
X237226Y28238D01*
X237080Y28256D01*
X236916Y28274D01*
X236697Y28310D01*
X236479Y28347D01*
X235987Y28456D01*
Y29768D01*
X236023D01*
X236114Y29732D01*
X236242Y29695D01*
X236424Y29640D01*
X236643Y29586D01*
X236879Y29531D01*
X237408Y29440D01*
X237444D01*
X237535Y29422D01*
X237663Y29404D01*
X237845D01*
X238064Y29385D01*
X238301Y29367D01*
X238829Y29349D01*
X238993D01*
X239175Y29367D01*
X239394Y29385D01*
X239649Y29422D01*
X239904Y29458D01*
X240141Y29531D01*
X240341Y29622D01*
X240359Y29640D01*
X240414Y29677D01*
X240505Y29732D01*
X240596Y29823D01*
X240687Y29932D01*
X240779Y30078D01*
X240833Y30242D01*
X240851Y30424D01*
Y30442D01*
Y30460D01*
X240833Y30551D01*
X240815Y30679D01*
X240760Y30806D01*
X240742Y30843D01*
X240706Y30916D01*
X240615Y31025D01*
X240469Y31153D01*
X240432Y31189D01*
X240378Y31207D01*
X240323Y31262D01*
X240232Y31299D01*
X240123Y31353D01*
X239977Y31426D01*
X239831Y31481D01*
X239813D01*
X239758Y31517D01*
X239667Y31554D01*
X239521Y31608D01*
X239357Y31663D01*
X239157Y31736D01*
X238938Y31809D01*
X238665Y31881D01*
X238647D01*
X238574Y31918D01*
X238465Y31936D01*
X238337Y31991D01*
X238173Y32046D01*
X238009Y32100D01*
X237645Y32246D01*
X237627Y32264D01*
X237572Y32282D01*
X237481Y32337D01*
X237371Y32392D01*
X237098Y32537D01*
X236825Y32738D01*
X236807Y32756D01*
X236770Y32792D01*
X236697Y32847D01*
X236624Y32938D01*
X236442Y33139D01*
X236278Y33412D01*
Y33430D01*
X236242Y33485D01*
X236224Y33558D01*
X236187Y33667D01*
X236151Y33795D01*
X236133Y33959D01*
X236096Y34141D01*
Y34323D01*
Y34341D01*
Y34378D01*
Y34451D01*
X236114Y34542D01*
X236133Y34651D01*
X236151Y34778D01*
X236242Y35070D01*
Y35088D01*
X236278Y35143D01*
X236315Y35216D01*
X236369Y35325D01*
X236442Y35434D01*
X236533Y35562D01*
X236661Y35708D01*
X236788Y35835D01*
X236807Y35853D01*
X236861Y35890D01*
X236952Y35963D01*
X237062Y36054D01*
X237208Y36145D01*
X237390Y36236D01*
X237590Y36345D01*
X237827Y36437D01*
X237863Y36455D01*
X237954Y36473D01*
X238082Y36509D01*
X238282Y36564D01*
X238519Y36601D01*
X238793Y36637D01*
X239121Y36655D01*
X239467Y36673D01*
X239795D01*
X239941Y36655D01*
D02*
G37*
G36*
X147857D02*
X148021Y36637D01*
X148221Y36601D01*
X148421Y36546D01*
X148640Y36473D01*
X148840Y36364D01*
X148859Y36345D01*
X148932Y36309D01*
X149023Y36236D01*
X149150Y36145D01*
X149296Y36036D01*
X149442Y35890D01*
X149588Y35726D01*
X149733Y35526D01*
X149751Y35507D01*
X149788Y35434D01*
X149861Y35325D01*
X149934Y35161D01*
X150025Y34979D01*
X150116Y34760D01*
X150207Y34505D01*
X150280Y34232D01*
Y34196D01*
X150316Y34104D01*
X150335Y33940D01*
X150371Y33740D01*
X150407Y33503D01*
X150426Y33212D01*
X150462Y32902D01*
Y32556D01*
Y32537D01*
Y32501D01*
Y32446D01*
Y32373D01*
X150444Y32155D01*
X150426Y31900D01*
X150389Y31590D01*
X150335Y31280D01*
X150262Y30952D01*
X150152Y30624D01*
X150134Y30588D01*
X150098Y30497D01*
X150025Y30351D01*
X149934Y30151D01*
X149806Y29950D01*
X149660Y29713D01*
X149496Y29495D01*
X149296Y29276D01*
X149278Y29258D01*
X149205Y29185D01*
X149077Y29094D01*
X148932Y28966D01*
X148749Y28839D01*
X148512Y28693D01*
X148276Y28565D01*
X148002Y28456D01*
X147966Y28438D01*
X147875Y28420D01*
X147729Y28383D01*
X147529Y28329D01*
X147292Y28274D01*
X147019Y28238D01*
X146727Y28219D01*
X146417Y28201D01*
X146162D01*
X145925Y28219D01*
X145634Y28256D01*
X145561D01*
X145488Y28274D01*
X145397Y28292D01*
X145269D01*
X145142Y28310D01*
X144850Y28365D01*
Y24922D01*
X143429D01*
Y36528D01*
X144686D01*
X144777Y35143D01*
Y35161D01*
X144814Y35179D01*
X144887Y35289D01*
X145014Y35434D01*
X145178Y35598D01*
X145379Y35799D01*
X145597Y35999D01*
X145834Y36182D01*
X146089Y36327D01*
X146126Y36345D01*
X146217Y36382D01*
X146344Y36437D01*
X146545Y36509D01*
X146763Y36564D01*
X147019Y36619D01*
X147310Y36655D01*
X147601Y36673D01*
X147729D01*
X147857Y36655D01*
D02*
G37*
G36*
X212847D02*
X212938D01*
X213066Y36637D01*
X213357Y36564D01*
X213667Y36473D01*
X213977Y36327D01*
X214287Y36109D01*
X214433Y35981D01*
X214560Y35835D01*
X214597Y35799D01*
X214615Y35744D01*
X214669Y35689D01*
X214706Y35598D01*
X214760Y35489D01*
X214833Y35361D01*
X214888Y35216D01*
X214943Y35052D01*
X214997Y34888D01*
X215052Y34687D01*
X215107Y34469D01*
X215143Y34214D01*
X215161Y33959D01*
X215179Y33685D01*
Y33394D01*
X213740D01*
Y33412D01*
Y33448D01*
Y33503D01*
Y33576D01*
X213722Y33758D01*
X213704Y33977D01*
X213667Y34232D01*
X213613Y34487D01*
X213522Y34742D01*
X213412Y34942D01*
X213394Y34961D01*
X213357Y35015D01*
X213266Y35107D01*
X213157Y35198D01*
X213011Y35270D01*
X212847Y35361D01*
X212647Y35416D01*
X212410Y35434D01*
X212301D01*
X212246Y35416D01*
X212064Y35398D01*
X211845Y35325D01*
X211827D01*
X211791Y35307D01*
X211736Y35289D01*
X211663Y35252D01*
X211463Y35143D01*
X211244Y34997D01*
X211226Y34979D01*
X211189Y34961D01*
X211135Y34906D01*
X211044Y34851D01*
X210843Y34651D01*
X210588Y34414D01*
X210570Y34396D01*
X210533Y34359D01*
X210460Y34287D01*
X210369Y34177D01*
X210260Y34050D01*
X210133Y33922D01*
X210005Y33758D01*
X209859Y33576D01*
Y28292D01*
X208420D01*
Y36528D01*
X209714D01*
X209750Y34997D01*
Y35015D01*
X209786Y35034D01*
X209877Y35143D01*
X210023Y35289D01*
X210205Y35489D01*
X210424Y35689D01*
X210661Y35908D01*
X210916Y36109D01*
X211189Y36273D01*
X211226Y36291D01*
X211317Y36327D01*
X211444Y36400D01*
X211645Y36473D01*
X211845Y36546D01*
X212100Y36619D01*
X212355Y36655D01*
X212629Y36673D01*
X212756D01*
X212847Y36655D01*
D02*
G37*
G36*
X223196D02*
X223287Y36637D01*
X223415Y36601D01*
X223542Y36546D01*
X223688Y36473D01*
X223834Y36382D01*
X223980Y36254D01*
X224126Y36090D01*
X224253Y35890D01*
X224381Y35671D01*
X224472Y35398D01*
X224545Y35070D01*
X224599Y34706D01*
X224618Y34287D01*
Y28292D01*
X223196D01*
Y34196D01*
Y34214D01*
Y34268D01*
Y34323D01*
Y34414D01*
X223178Y34615D01*
X223160Y34815D01*
Y34833D01*
Y34851D01*
X223142Y34961D01*
X223123Y35088D01*
X223069Y35216D01*
X223050Y35234D01*
X223032Y35289D01*
X222978Y35361D01*
X222923Y35416D01*
X222905Y35434D01*
X222868Y35453D01*
X222796Y35471D01*
X222704Y35489D01*
X222686D01*
X222613Y35471D01*
X222522Y35453D01*
X222413Y35380D01*
X222395Y35361D01*
X222340Y35307D01*
X222249Y35198D01*
X222140Y35052D01*
Y35034D01*
X222121Y35015D01*
X222085Y34961D01*
X222048Y34906D01*
X221939Y34706D01*
X221812Y34469D01*
Y34451D01*
X221775Y34396D01*
X221739Y34323D01*
X221684Y34214D01*
X221629Y34086D01*
X221556Y33940D01*
X221484Y33758D01*
X221392Y33576D01*
Y28292D01*
X219971D01*
Y34050D01*
Y34068D01*
Y34123D01*
Y34196D01*
Y34305D01*
X219953Y34542D01*
X219935Y34760D01*
Y34778D01*
Y34815D01*
X219917Y34924D01*
X219899Y35070D01*
X219844Y35198D01*
X219826Y35216D01*
X219807Y35289D01*
X219753Y35361D01*
X219698Y35416D01*
X219680Y35434D01*
X219643Y35453D01*
X219570Y35471D01*
X219479Y35489D01*
X219461D01*
X219388Y35471D01*
X219297Y35453D01*
X219206Y35398D01*
X219188Y35380D01*
X219133Y35325D01*
X219042Y35234D01*
X218933Y35088D01*
X218915Y35052D01*
X218842Y34942D01*
X218732Y34760D01*
X218605Y34523D01*
Y34505D01*
X218568Y34451D01*
X218532Y34378D01*
X218477Y34268D01*
X218423Y34141D01*
X218350Y33977D01*
X218259Y33776D01*
X218168Y33576D01*
Y28292D01*
X216746D01*
Y36528D01*
X217913D01*
X217985Y34961D01*
X218004Y34979D01*
X218022Y35034D01*
X218058Y35125D01*
X218113Y35234D01*
X218259Y35489D01*
X218404Y35744D01*
X218423Y35762D01*
X218441Y35799D01*
X218477Y35853D01*
X218532Y35926D01*
X218659Y36109D01*
X218824Y36273D01*
X218842Y36291D01*
X218860Y36309D01*
X218969Y36382D01*
X219115Y36473D01*
X219279Y36564D01*
X219297D01*
X219315Y36582D01*
X219443Y36619D01*
X219607Y36655D01*
X219807Y36673D01*
X219917D01*
X220044Y36655D01*
X220190Y36619D01*
X220354Y36564D01*
X220518Y36491D01*
X220682Y36382D01*
X220828Y36236D01*
X220846Y36218D01*
X220882Y36163D01*
X220937Y36054D01*
X221010Y35908D01*
X221065Y35708D01*
X221119Y35489D01*
X221156Y35216D01*
X221174Y34888D01*
X221192Y34906D01*
X221210Y34961D01*
X221247Y35034D01*
X221301Y35143D01*
X221429Y35380D01*
X221556Y35635D01*
Y35653D01*
X221593Y35689D01*
X221629Y35762D01*
X221684Y35835D01*
X221812Y36018D01*
X221957Y36200D01*
X221976Y36218D01*
X221994Y36236D01*
X222103Y36327D01*
X222249Y36437D01*
X222431Y36546D01*
X222449D01*
X222486Y36564D01*
X222540Y36582D01*
X222613Y36619D01*
X222814Y36655D01*
X223050Y36673D01*
X223123D01*
X223196Y36655D01*
D02*
G37*
G36*
X246645Y32756D02*
X250344Y36528D01*
X252239D01*
X248376Y32720D01*
X252458Y28292D01*
X250490D01*
X246645Y32701D01*
Y28292D01*
X245224D01*
Y39880D01*
X246645D01*
Y32756D01*
D02*
G37*
G36*
X230375Y36655D02*
X230575Y36637D01*
X230812Y36601D01*
X231268Y36509D01*
X231286D01*
X231377Y36473D01*
X231486Y36437D01*
X231614Y36382D01*
X231778Y36309D01*
X231942Y36218D01*
X232106Y36127D01*
X232270Y35999D01*
X232288Y35981D01*
X232343Y35945D01*
X232416Y35872D01*
X232507Y35781D01*
X232616Y35653D01*
X232725Y35507D01*
X232817Y35343D01*
X232908Y35161D01*
X232926Y35143D01*
X232944Y35070D01*
X232980Y34961D01*
X233035Y34815D01*
X233071Y34651D01*
X233108Y34432D01*
X233126Y34214D01*
X233144Y33959D01*
Y28292D01*
X231851D01*
X231814Y29385D01*
X231778Y29349D01*
X231705Y29276D01*
X231559Y29167D01*
X231395Y29021D01*
X231177Y28875D01*
X230958Y28711D01*
X230703Y28565D01*
X230448Y28438D01*
X230411Y28420D01*
X230320Y28401D01*
X230193Y28347D01*
X230011Y28292D01*
X229792Y28238D01*
X229537Y28201D01*
X229282Y28165D01*
X228990Y28146D01*
X228881D01*
X228753Y28165D01*
X228589D01*
X228389Y28183D01*
X228189Y28219D01*
X227788Y28310D01*
X227769D01*
X227715Y28347D01*
X227624Y28383D01*
X227496Y28438D01*
X227241Y28602D01*
X226968Y28802D01*
X226950Y28821D01*
X226913Y28857D01*
X226858Y28930D01*
X226786Y29021D01*
X226713Y29130D01*
X226622Y29258D01*
X226494Y29549D01*
Y29568D01*
X226476Y29622D01*
X226458Y29713D01*
X226421Y29823D01*
X226403Y29968D01*
X226367Y30132D01*
X226348Y30479D01*
Y30497D01*
Y30533D01*
Y30606D01*
X226367Y30679D01*
X226385Y30788D01*
X226403Y30916D01*
X226458Y31189D01*
X226567Y31499D01*
X226731Y31827D01*
X226840Y31991D01*
X226968Y32137D01*
X227095Y32282D01*
X227259Y32428D01*
X227278D01*
X227296Y32465D01*
X227350Y32501D01*
X227442Y32537D01*
X227533Y32592D01*
X227642Y32647D01*
X227788Y32720D01*
X227952Y32792D01*
X228134Y32847D01*
X228334Y32920D01*
X228553Y32975D01*
X228808Y33029D01*
X229063Y33066D01*
X229355Y33102D01*
X229664Y33139D01*
X231705D01*
Y33849D01*
Y33886D01*
Y33977D01*
X231687Y34104D01*
X231650Y34268D01*
X231596Y34451D01*
X231505Y34651D01*
X231395Y34833D01*
X231231Y35015D01*
X231213Y35034D01*
X231140Y35088D01*
X231031Y35161D01*
X230885Y35234D01*
X230685Y35307D01*
X230430Y35380D01*
X230138Y35434D01*
X229810Y35453D01*
X229555D01*
X229373Y35434D01*
X229154Y35416D01*
X228936Y35380D01*
X228425Y35289D01*
X228389D01*
X228316Y35252D01*
X228170Y35216D01*
X228006Y35179D01*
X227788Y35107D01*
X227551Y35034D01*
X227296Y34942D01*
X227041Y34851D01*
Y36145D01*
X227059D01*
X227095Y36163D01*
X227132Y36182D01*
X227205Y36200D01*
X227387Y36254D01*
X227624Y36327D01*
X227642D01*
X227678Y36345D01*
X227751Y36364D01*
X227842Y36382D01*
X228079Y36437D01*
X228334Y36491D01*
X228353D01*
X228407Y36509D01*
X228480Y36528D01*
X228571Y36546D01*
X228680Y36564D01*
X228808Y36582D01*
X229100Y36619D01*
X229118D01*
X229172Y36637D01*
X229245D01*
X229355Y36655D01*
X229482D01*
X229610Y36673D01*
X230193D01*
X230375Y36655D01*
D02*
G37*
G36*
X184606Y29476D02*
X187066D01*
Y28292D01*
X180470D01*
Y29476D01*
X183167D01*
Y38714D01*
X180744D01*
Y39880D01*
X184606D01*
Y29476D01*
D02*
G37*
G36*
X132169Y37767D02*
X128999D01*
Y28292D01*
X127523D01*
Y37767D01*
X124353D01*
Y39006D01*
X132169D01*
Y37767D01*
D02*
G37*
G36*
X202553Y36655D02*
X202753Y36637D01*
X202990Y36601D01*
X203245Y36564D01*
X203501Y36491D01*
X203756Y36400D01*
X203792Y36382D01*
X203865Y36345D01*
X203992Y36291D01*
X204156Y36200D01*
X204320Y36090D01*
X204521Y35963D01*
X204703Y35799D01*
X204885Y35617D01*
X204903Y35598D01*
X204958Y35526D01*
X205049Y35416D01*
X205140Y35289D01*
X205250Y35107D01*
X205377Y34906D01*
X205486Y34669D01*
X205578Y34414D01*
X205596Y34378D01*
X205614Y34287D01*
X205650Y34141D01*
X205705Y33959D01*
X205742Y33722D01*
X205778Y33467D01*
X205796Y33175D01*
X205814Y32847D01*
Y32829D01*
Y32792D01*
Y32738D01*
Y32665D01*
Y32501D01*
X205796Y32319D01*
Y32282D01*
Y32191D01*
Y32082D01*
X205778Y31954D01*
X200002D01*
Y31936D01*
Y31900D01*
Y31827D01*
X200021Y31754D01*
Y31645D01*
X200039Y31517D01*
X200093Y31226D01*
X200166Y30916D01*
X200294Y30588D01*
X200458Y30278D01*
X200695Y30005D01*
X200731Y29968D01*
X200822Y29895D01*
X200986Y29786D01*
X201223Y29677D01*
X201515Y29549D01*
X201861Y29440D01*
X202261Y29367D01*
X202735Y29331D01*
X203191D01*
X203446Y29349D01*
X203501D01*
X203573Y29367D01*
X203664D01*
X203901Y29404D01*
X204138Y29422D01*
X204156D01*
X204193Y29440D01*
X204266D01*
X204357Y29458D01*
X204557Y29495D01*
X204794Y29531D01*
X204812D01*
X204849Y29549D01*
X204903Y29568D01*
X204976Y29586D01*
X205177Y29622D01*
X205377Y29677D01*
Y28511D01*
X205359D01*
X205268Y28493D01*
X205158Y28456D01*
X204995Y28420D01*
X204794Y28383D01*
X204575Y28329D01*
X204320Y28292D01*
X204047Y28256D01*
X204011D01*
X203920Y28238D01*
X203774Y28219D01*
X203592Y28201D01*
X203355Y28183D01*
X203100Y28165D01*
X202826Y28146D01*
X202353D01*
X202152Y28165D01*
X201915Y28183D01*
X201624Y28219D01*
X201314Y28256D01*
X201004Y28329D01*
X200713Y28420D01*
X200676Y28438D01*
X200585Y28474D01*
X200440Y28547D01*
X200275Y28638D01*
X200075Y28748D01*
X199856Y28894D01*
X199656Y29057D01*
X199456Y29258D01*
X199437Y29276D01*
X199383Y29349D01*
X199292Y29476D01*
X199182Y29622D01*
X199055Y29823D01*
X198945Y30041D01*
X198818Y30315D01*
X198727Y30588D01*
Y30606D01*
Y30624D01*
X198690Y30734D01*
X198654Y30898D01*
X198617Y31116D01*
X198581Y31390D01*
X198545Y31681D01*
X198526Y32027D01*
X198508Y32392D01*
Y32410D01*
Y32428D01*
Y32537D01*
X198526Y32701D01*
X198545Y32920D01*
X198563Y33157D01*
X198617Y33430D01*
X198672Y33722D01*
X198745Y34013D01*
Y34032D01*
X198763Y34050D01*
X198800Y34141D01*
X198854Y34287D01*
X198927Y34487D01*
X199037Y34687D01*
X199164Y34924D01*
X199310Y35161D01*
X199474Y35380D01*
X199492Y35398D01*
X199565Y35471D01*
X199674Y35580D01*
X199802Y35726D01*
X199984Y35872D01*
X200184Y36036D01*
X200403Y36182D01*
X200658Y36327D01*
X200695Y36345D01*
X200786Y36382D01*
X200932Y36437D01*
X201114Y36509D01*
X201350Y36564D01*
X201624Y36619D01*
X201915Y36655D01*
X202243Y36673D01*
X202389D01*
X202553Y36655D01*
D02*
G37*
G36*
X174840D02*
X175041Y36637D01*
X175296Y36601D01*
X175551Y36546D01*
X175824Y36473D01*
X176098Y36382D01*
X176134Y36364D01*
X176225Y36327D01*
X176353Y36273D01*
X176517Y36182D01*
X176699Y36072D01*
X176899Y35926D01*
X177100Y35762D01*
X177282Y35580D01*
X177300Y35562D01*
X177355Y35489D01*
X177446Y35380D01*
X177555Y35216D01*
X177683Y35034D01*
X177810Y34797D01*
X177920Y34542D01*
X178029Y34268D01*
X178047Y34232D01*
X178065Y34123D01*
X178120Y33959D01*
X178175Y33758D01*
X178211Y33485D01*
X178266Y33175D01*
X178284Y32829D01*
X178302Y32465D01*
Y32446D01*
Y32428D01*
Y32373D01*
Y32301D01*
X178284Y32118D01*
X178266Y31881D01*
X178229Y31608D01*
X178193Y31317D01*
X178120Y31007D01*
X178029Y30697D01*
X178011Y30661D01*
X177974Y30570D01*
X177920Y30424D01*
X177829Y30242D01*
X177719Y30023D01*
X177592Y29786D01*
X177428Y29549D01*
X177245Y29331D01*
X177227Y29313D01*
X177154Y29240D01*
X177045Y29130D01*
X176899Y29003D01*
X176717Y28875D01*
X176517Y28730D01*
X176262Y28584D01*
X176006Y28456D01*
X175970Y28438D01*
X175879Y28401D01*
X175733Y28365D01*
X175533Y28310D01*
X175278Y28238D01*
X175004Y28201D01*
X174695Y28165D01*
X174348Y28146D01*
X174203D01*
X174021Y28165D01*
X173820Y28183D01*
X173565Y28219D01*
X173292Y28256D01*
X173018Y28329D01*
X172745Y28420D01*
X172709Y28438D01*
X172636Y28474D01*
X172508Y28529D01*
X172344Y28620D01*
X172144Y28730D01*
X171962Y28875D01*
X171761Y29039D01*
X171561Y29221D01*
X171543Y29240D01*
X171488Y29313D01*
X171397Y29422D01*
X171288Y29586D01*
X171178Y29768D01*
X171051Y30005D01*
X170941Y30260D01*
X170832Y30533D01*
Y30551D01*
X170814Y30570D01*
X170796Y30679D01*
X170759Y30843D01*
X170704Y31062D01*
X170650Y31335D01*
X170613Y31645D01*
X170595Y31991D01*
X170577Y32355D01*
Y32373D01*
Y32392D01*
Y32446D01*
Y32519D01*
X170595Y32701D01*
X170613Y32920D01*
X170632Y33193D01*
X170686Y33485D01*
X170741Y33795D01*
X170832Y34086D01*
Y34104D01*
X170850Y34123D01*
X170887Y34214D01*
X170941Y34378D01*
X171032Y34560D01*
X171142Y34778D01*
X171288Y34997D01*
X171433Y35234D01*
X171616Y35453D01*
X171634Y35471D01*
X171707Y35544D01*
X171816Y35653D01*
X171962Y35781D01*
X172144Y35926D01*
X172362Y36072D01*
X172599Y36218D01*
X172854Y36345D01*
X172891Y36364D01*
X172982Y36400D01*
X173128Y36455D01*
X173328Y36509D01*
X173583Y36564D01*
X173856Y36619D01*
X174166Y36655D01*
X174513Y36673D01*
X174658D01*
X174840Y36655D01*
D02*
G37*
G36*
X137890D02*
X138091Y36637D01*
X138346Y36601D01*
X138601Y36546D01*
X138874Y36473D01*
X139147Y36382D01*
X139184Y36364D01*
X139275Y36327D01*
X139402Y36273D01*
X139567Y36182D01*
X139749Y36072D01*
X139949Y35926D01*
X140149Y35762D01*
X140332Y35580D01*
X140350Y35562D01*
X140405Y35489D01*
X140496Y35380D01*
X140605Y35216D01*
X140733Y35034D01*
X140860Y34797D01*
X140969Y34542D01*
X141079Y34268D01*
X141097Y34232D01*
X141115Y34123D01*
X141170Y33959D01*
X141225Y33758D01*
X141261Y33485D01*
X141316Y33175D01*
X141334Y32829D01*
X141352Y32465D01*
Y32446D01*
Y32428D01*
Y32373D01*
Y32301D01*
X141334Y32118D01*
X141316Y31881D01*
X141279Y31608D01*
X141243Y31317D01*
X141170Y31007D01*
X141079Y30697D01*
X141060Y30661D01*
X141024Y30570D01*
X140969Y30424D01*
X140878Y30242D01*
X140769Y30023D01*
X140641Y29786D01*
X140478Y29549D01*
X140295Y29331D01*
X140277Y29313D01*
X140204Y29240D01*
X140095Y29130D01*
X139949Y29003D01*
X139767Y28875D01*
X139567Y28730D01*
X139311Y28584D01*
X139056Y28456D01*
X139020Y28438D01*
X138929Y28401D01*
X138783Y28365D01*
X138583Y28310D01*
X138328Y28238D01*
X138054Y28201D01*
X137744Y28165D01*
X137398Y28146D01*
X137253D01*
X137070Y28165D01*
X136870Y28183D01*
X136615Y28219D01*
X136342Y28256D01*
X136068Y28329D01*
X135795Y28420D01*
X135758Y28438D01*
X135686Y28474D01*
X135558Y28529D01*
X135394Y28620D01*
X135194Y28730D01*
X135011Y28875D01*
X134811Y29039D01*
X134611Y29221D01*
X134592Y29240D01*
X134538Y29313D01*
X134447Y29422D01*
X134337Y29586D01*
X134228Y29768D01*
X134100Y30005D01*
X133991Y30260D01*
X133882Y30533D01*
Y30551D01*
X133864Y30570D01*
X133845Y30679D01*
X133809Y30843D01*
X133754Y31062D01*
X133700Y31335D01*
X133663Y31645D01*
X133645Y31991D01*
X133627Y32355D01*
Y32373D01*
Y32392D01*
Y32446D01*
Y32519D01*
X133645Y32701D01*
X133663Y32920D01*
X133681Y33193D01*
X133736Y33485D01*
X133791Y33795D01*
X133882Y34086D01*
Y34104D01*
X133900Y34123D01*
X133937Y34214D01*
X133991Y34378D01*
X134082Y34560D01*
X134192Y34778D01*
X134337Y34997D01*
X134483Y35234D01*
X134665Y35453D01*
X134684Y35471D01*
X134756Y35544D01*
X134866Y35653D01*
X135011Y35781D01*
X135194Y35926D01*
X135412Y36072D01*
X135649Y36218D01*
X135904Y36345D01*
X135941Y36364D01*
X136032Y36400D01*
X136178Y36455D01*
X136378Y36509D01*
X136633Y36564D01*
X136906Y36619D01*
X137216Y36655D01*
X137562Y36673D01*
X137708D01*
X137890Y36655D01*
D02*
G37*
G36*
X258250Y-61402D02*
X258288Y-62168D01*
X258587Y-63669D01*
X259173Y-65084D01*
X260023Y-66357D01*
X261106Y-67439D01*
X262379Y-68290D01*
X263793Y-68876D01*
X265295Y-69174D01*
X266060Y-69212D01*
X275710D01*
X277219Y-69512D01*
X278640Y-70101D01*
X279919Y-70956D01*
X281007Y-72044D01*
X281862Y-73323D01*
X282450Y-74744D01*
X282750Y-76253D01*
Y-77022D01*
Y-89201D01*
Y-89971D01*
X282450Y-91479D01*
X281862Y-92901D01*
X281007Y-94180D01*
X279919Y-95268D01*
X278640Y-96122D01*
X277219Y-96711D01*
X275710Y-97011D01*
X268560D01*
X267795Y-97049D01*
X266293Y-97348D01*
X264879Y-97934D01*
X263606Y-98784D01*
X262523Y-99867D01*
X261673Y-101140D01*
X261087Y-102554D01*
X260788Y-104056D01*
X260750Y-104821D01*
Y-260103D01*
X260788Y-260869D01*
X261087Y-262370D01*
X261673Y-263785D01*
X262523Y-265058D01*
X263606Y-266140D01*
X264879Y-266991D01*
X266293Y-267577D01*
X267795Y-267875D01*
X268560Y-267913D01*
X275710D01*
X277219Y-268213D01*
X278640Y-268802D01*
X279919Y-269656D01*
X281007Y-270744D01*
X281862Y-272024D01*
X282450Y-273445D01*
X282750Y-274954D01*
Y-275723D01*
Y-287902D01*
Y-288671D01*
X282450Y-290180D01*
X281862Y-291602D01*
X281007Y-292881D01*
X279919Y-293969D01*
X278640Y-294823D01*
X277219Y-295412D01*
X275710Y-295712D01*
X266060D01*
X265295Y-295750D01*
X263793Y-296048D01*
X262379Y-296634D01*
X261106Y-297485D01*
X260023Y-298568D01*
X259173Y-299840D01*
X258587Y-301255D01*
X258288Y-302757D01*
X258250Y-303522D01*
Y-334462D01*
X54250D01*
Y-30462D01*
X258250D01*
Y-61402D01*
D02*
G37*
G36*
X360176Y-312719D02*
X361899Y-313227D01*
X363532Y-313977D01*
X365040Y-314952D01*
X366394Y-316132D01*
X367565Y-317495D01*
X368529Y-319010D01*
X369267Y-320648D01*
X369762Y-322374D01*
X370007Y-324154D01*
X369994Y-325950D01*
X369724Y-327726D01*
X369203Y-329445D01*
X368442Y-331072D01*
X367457Y-332574D01*
X366266Y-333919D01*
X364896Y-335080D01*
X363373Y-336033D01*
X361730Y-336759D01*
X360865Y-337001D01*
Y-337001D01*
X327500D01*
Y-312462D01*
X358399D01*
X360176Y-312719D01*
D02*
G37*
%LPC*%
G36*
X193115Y35434D02*
X193006D01*
X192915Y35416D01*
X192714Y35398D01*
X192459Y35343D01*
X192149Y35252D01*
X191858Y35107D01*
X191566Y34924D01*
X191293Y34669D01*
X191275Y34633D01*
X191202Y34523D01*
X191147Y34451D01*
X191093Y34341D01*
X191038Y34232D01*
X190983Y34104D01*
X190910Y33940D01*
X190856Y33776D01*
X190801Y33576D01*
X190765Y33357D01*
X190710Y33139D01*
X190692Y32884D01*
X190655Y32610D01*
Y32319D01*
Y32301D01*
Y32246D01*
Y32173D01*
Y32082D01*
X190674Y31954D01*
Y31809D01*
X190710Y31481D01*
X190765Y31116D01*
X190838Y30752D01*
X190947Y30406D01*
X191093Y30096D01*
X191111Y30059D01*
X191165Y29987D01*
X191275Y29859D01*
X191421Y29732D01*
X191585Y29604D01*
X191803Y29476D01*
X192040Y29404D01*
X192332Y29367D01*
X192423D01*
X192532Y29385D01*
X192678Y29422D01*
X192860Y29476D01*
X193042Y29568D01*
X193261Y29677D01*
X193480Y29841D01*
X193516Y29859D01*
X193589Y29932D01*
X193698Y30041D01*
X193862Y30205D01*
X194062Y30406D01*
X194263Y30661D01*
X194500Y30952D01*
X194755Y31280D01*
Y35088D01*
X194737D01*
X194700Y35125D01*
X194609Y35143D01*
X194518Y35179D01*
X194409Y35216D01*
X194263Y35270D01*
X193953Y35343D01*
X193935D01*
X193880Y35361D01*
X193807Y35380D01*
X193698Y35398D01*
X193571D01*
X193425Y35416D01*
X193115Y35434D01*
D02*
G37*
G36*
X147474D02*
X147201D01*
X147146Y35416D01*
X146964Y35398D01*
X146763Y35343D01*
X146745D01*
X146709Y35325D01*
X146654Y35307D01*
X146581Y35270D01*
X146399Y35179D01*
X146180Y35052D01*
X146162D01*
X146126Y35015D01*
X146071Y34979D01*
X145998Y34906D01*
X145798Y34742D01*
X145543Y34505D01*
X145524Y34487D01*
X145488Y34451D01*
X145415Y34378D01*
X145342Y34287D01*
X145233Y34159D01*
X145105Y34013D01*
X144978Y33867D01*
X144850Y33685D01*
Y29695D01*
X144869D01*
X144923Y29677D01*
X144996Y29640D01*
X145105Y29604D01*
X145215Y29568D01*
X145361Y29513D01*
X145670Y29440D01*
X145688D01*
X145743Y29422D01*
X145834Y29404D01*
X145943D01*
X146071Y29385D01*
X146217Y29367D01*
X146527Y29349D01*
X146636D01*
X146709Y29367D01*
X146927Y29385D01*
X147183Y29440D01*
X147474Y29549D01*
X147766Y29677D01*
X148057Y29877D01*
X148203Y29987D01*
X148330Y30132D01*
Y30151D01*
X148367Y30169D01*
X148385Y30224D01*
X148440Y30278D01*
X148494Y30369D01*
X148549Y30460D01*
X148604Y30588D01*
X148677Y30715D01*
X148731Y30879D01*
X148786Y31043D01*
X148840Y31244D01*
X148895Y31462D01*
X148950Y31681D01*
X148968Y31936D01*
X149004Y32191D01*
Y32483D01*
Y32519D01*
Y32592D01*
Y32720D01*
X148986Y32884D01*
Y33066D01*
X148968Y33266D01*
X148895Y33667D01*
Y33685D01*
X148877Y33758D01*
X148859Y33867D01*
X148822Y33995D01*
X148731Y34287D01*
X148604Y34596D01*
Y34615D01*
X148567Y34669D01*
X148531Y34742D01*
X148458Y34833D01*
X148294Y35034D01*
X148075Y35216D01*
X148057Y35234D01*
X148021Y35252D01*
X147948Y35289D01*
X147857Y35325D01*
X147747Y35361D01*
X147620Y35398D01*
X147474Y35434D01*
D02*
G37*
G36*
X231705Y32046D02*
X229701D01*
X229573Y32027D01*
X229282Y32009D01*
X228972Y31936D01*
X228954D01*
X228917Y31918D01*
X228844Y31900D01*
X228753Y31863D01*
X228535Y31754D01*
X228334Y31626D01*
X228316D01*
X228298Y31590D01*
X228207Y31499D01*
X228079Y31335D01*
X227970Y31153D01*
Y31135D01*
X227952Y31098D01*
X227934Y31043D01*
X227915Y30970D01*
X227879Y30770D01*
X227861Y30533D01*
Y30515D01*
Y30497D01*
X227879Y30387D01*
X227897Y30242D01*
X227934Y30078D01*
Y30059D01*
X227952Y30041D01*
X227988Y29950D01*
X228061Y29823D01*
X228170Y29677D01*
X228207Y29659D01*
X228280Y29586D01*
X228425Y29495D01*
X228589Y29422D01*
X228608D01*
X228644Y29404D01*
X228699Y29385D01*
X228772D01*
X228972Y29349D01*
X229227Y29331D01*
X229318D01*
X229409Y29349D01*
X229555Y29367D01*
X229719Y29404D01*
X229920Y29458D01*
X230120Y29531D01*
X230357Y29622D01*
X230393Y29640D01*
X230466Y29677D01*
X230594Y29750D01*
X230758Y29859D01*
X230958Y29987D01*
X231195Y30151D01*
X231450Y30333D01*
X231705Y30570D01*
Y32046D01*
D02*
G37*
G36*
X202371Y35526D02*
X202006D01*
X201897Y35507D01*
X201770Y35489D01*
X201624Y35453D01*
X201314Y35343D01*
X201296D01*
X201259Y35307D01*
X201186Y35270D01*
X201095Y35216D01*
X200877Y35052D01*
X200658Y34833D01*
X200640Y34815D01*
X200622Y34778D01*
X200567Y34706D01*
X200494Y34615D01*
X200421Y34505D01*
X200348Y34359D01*
X200203Y34050D01*
Y34032D01*
X200184Y33977D01*
X200148Y33886D01*
X200112Y33758D01*
X200075Y33612D01*
X200057Y33430D01*
X200002Y33048D01*
X204339D01*
Y33066D01*
Y33139D01*
Y33248D01*
Y33376D01*
X204320Y33521D01*
X204302Y33685D01*
X204211Y34032D01*
Y34050D01*
X204193Y34104D01*
X204156Y34196D01*
X204120Y34305D01*
X203992Y34560D01*
X203810Y34815D01*
X203792Y34833D01*
X203756Y34870D01*
X203701Y34924D01*
X203628Y34997D01*
X203519Y35088D01*
X203409Y35161D01*
X203118Y35325D01*
X203100Y35343D01*
X203045Y35361D01*
X202954Y35398D01*
X202845Y35434D01*
X202717Y35471D01*
X202553Y35489D01*
X202371Y35526D01*
D02*
G37*
G36*
X174640Y35453D02*
X174330D01*
X174203Y35434D01*
X174057Y35416D01*
X173875Y35398D01*
X173693Y35343D01*
X173510Y35289D01*
X173328Y35198D01*
X173310Y35179D01*
X173255Y35143D01*
X173164Y35088D01*
X173073Y35015D01*
X172945Y34924D01*
X172818Y34815D01*
X172581Y34523D01*
X172563Y34505D01*
X172527Y34451D01*
X172490Y34359D01*
X172417Y34250D01*
X172344Y34104D01*
X172290Y33940D01*
X172217Y33758D01*
X172162Y33558D01*
Y33540D01*
X172144Y33467D01*
X172126Y33357D01*
X172107Y33212D01*
X172071Y33029D01*
X172053Y32829D01*
X172035Y32392D01*
Y32355D01*
Y32264D01*
X172053Y32118D01*
Y31936D01*
X172071Y31736D01*
X172107Y31499D01*
X172198Y31043D01*
Y31025D01*
X172235Y30952D01*
X172271Y30843D01*
X172326Y30715D01*
X172472Y30406D01*
X172672Y30096D01*
X172690Y30078D01*
X172727Y30041D01*
X172800Y29968D01*
X172891Y29895D01*
X173000Y29805D01*
X173128Y29713D01*
X173419Y29531D01*
X173438D01*
X173492Y29495D01*
X173601Y29476D01*
X173711Y29440D01*
X173875Y29404D01*
X174039Y29385D01*
X174239Y29349D01*
X174549D01*
X174658Y29367D01*
X174822Y29385D01*
X174986Y29404D01*
X175168Y29458D01*
X175351Y29513D01*
X175533Y29586D01*
X175551Y29604D01*
X175606Y29640D01*
X175697Y29695D01*
X175806Y29768D01*
X175915Y29859D01*
X176043Y29987D01*
X176280Y30260D01*
X176298Y30278D01*
X176335Y30333D01*
X176371Y30424D01*
X176444Y30533D01*
X176517Y30679D01*
X176571Y30843D01*
X176644Y31025D01*
X176699Y31226D01*
Y31244D01*
X176717Y31317D01*
X176753Y31444D01*
X176772Y31590D01*
X176808Y31754D01*
X176826Y31954D01*
X176845Y32392D01*
Y32428D01*
Y32519D01*
Y32665D01*
X176826Y32847D01*
X176808Y33048D01*
X176772Y33285D01*
X176717Y33503D01*
X176662Y33722D01*
Y33740D01*
X176626Y33813D01*
X176590Y33922D01*
X176535Y34068D01*
X176389Y34359D01*
X176298Y34523D01*
X176189Y34669D01*
X176171Y34687D01*
X176134Y34724D01*
X176061Y34797D01*
X175970Y34888D01*
X175861Y34979D01*
X175733Y35070D01*
X175424Y35252D01*
X175405Y35270D01*
X175351Y35289D01*
X175259Y35325D01*
X175132Y35361D01*
X174986Y35398D01*
X174822Y35416D01*
X174640Y35453D01*
D02*
G37*
G36*
X137690D02*
X137380D01*
X137253Y35434D01*
X137107Y35416D01*
X136925Y35398D01*
X136742Y35343D01*
X136560Y35289D01*
X136378Y35198D01*
X136360Y35179D01*
X136305Y35143D01*
X136214Y35088D01*
X136123Y35015D01*
X135995Y34924D01*
X135868Y34815D01*
X135631Y34523D01*
X135613Y34505D01*
X135576Y34451D01*
X135540Y34359D01*
X135467Y34250D01*
X135394Y34104D01*
X135339Y33940D01*
X135267Y33758D01*
X135212Y33558D01*
Y33540D01*
X135194Y33467D01*
X135176Y33357D01*
X135157Y33212D01*
X135121Y33029D01*
X135103Y32829D01*
X135084Y32392D01*
Y32355D01*
Y32264D01*
X135103Y32118D01*
Y31936D01*
X135121Y31736D01*
X135157Y31499D01*
X135248Y31043D01*
Y31025D01*
X135285Y30952D01*
X135321Y30843D01*
X135376Y30715D01*
X135522Y30406D01*
X135722Y30096D01*
X135740Y30078D01*
X135777Y30041D01*
X135850Y29968D01*
X135941Y29895D01*
X136050Y29805D01*
X136178Y29713D01*
X136469Y29531D01*
X136487D01*
X136542Y29495D01*
X136651Y29476D01*
X136761Y29440D01*
X136925Y29404D01*
X137089Y29385D01*
X137289Y29349D01*
X137599D01*
X137708Y29367D01*
X137872Y29385D01*
X138036Y29404D01*
X138218Y29458D01*
X138400Y29513D01*
X138583Y29586D01*
X138601Y29604D01*
X138655Y29640D01*
X138747Y29695D01*
X138856Y29768D01*
X138965Y29859D01*
X139093Y29987D01*
X139330Y30260D01*
X139348Y30278D01*
X139384Y30333D01*
X139421Y30424D01*
X139494Y30533D01*
X139567Y30679D01*
X139621Y30843D01*
X139694Y31025D01*
X139749Y31226D01*
Y31244D01*
X139767Y31317D01*
X139803Y31444D01*
X139822Y31590D01*
X139858Y31754D01*
X139876Y31954D01*
X139894Y32392D01*
Y32428D01*
Y32519D01*
Y32665D01*
X139876Y32847D01*
X139858Y33048D01*
X139822Y33285D01*
X139767Y33503D01*
X139712Y33722D01*
Y33740D01*
X139676Y33813D01*
X139639Y33922D01*
X139585Y34068D01*
X139439Y34359D01*
X139348Y34523D01*
X139239Y34669D01*
X139220Y34687D01*
X139184Y34724D01*
X139111Y34797D01*
X139020Y34888D01*
X138911Y34979D01*
X138783Y35070D01*
X138473Y35252D01*
X138455Y35270D01*
X138400Y35289D01*
X138309Y35325D01*
X138182Y35361D01*
X138036Y35398D01*
X137872Y35416D01*
X137690Y35453D01*
D02*
G37*
G36*
X111848Y-45360D02*
X110853D01*
X109933Y-45741D01*
X109229Y-46445D01*
X108848Y-47365D01*
Y-47862D01*
Y-48360D01*
X109229Y-49279D01*
X109933Y-49983D01*
X110853Y-50364D01*
X111848D01*
X112768Y-49983D01*
X113471Y-49279D01*
X113852Y-48360D01*
Y-47862D01*
Y-47365D01*
X113471Y-46445D01*
X112768Y-45741D01*
X111848Y-45360D01*
D02*
G37*
G36*
X71648Y-46660D02*
X70653D01*
X69733Y-47041D01*
X69029Y-47745D01*
X68648Y-48665D01*
Y-49162D01*
Y-49660D01*
X69029Y-50579D01*
X69733Y-51283D01*
X70653Y-51664D01*
X71648D01*
X72568Y-51283D01*
X73272Y-50579D01*
X73652Y-49660D01*
Y-49162D01*
Y-48665D01*
X73272Y-47745D01*
X72568Y-47041D01*
X71648Y-46660D01*
D02*
G37*
G36*
X139191Y-48249D02*
X138195D01*
X137276Y-48630D01*
X136572Y-49333D01*
X136191Y-50253D01*
Y-50751D01*
Y-51248D01*
X136572Y-52168D01*
X137276Y-52872D01*
X138195Y-53253D01*
X139191D01*
X140110Y-52872D01*
X140814Y-52168D01*
X141195Y-51248D01*
Y-50751D01*
Y-50253D01*
X140814Y-49333D01*
X140110Y-48630D01*
X139191Y-48249D01*
D02*
G37*
G36*
X182600Y-47162D02*
X169500D01*
Y-59562D01*
X182600D01*
Y-47162D01*
D02*
G37*
G36*
X204350Y-56662D02*
X191250D01*
Y-68162D01*
X204350D01*
Y-56662D01*
D02*
G37*
G36*
X170625Y-60200D02*
X144650D01*
Y-73262D01*
X170625D01*
Y-60200D01*
D02*
G37*
G36*
X241848Y-188760D02*
X240853D01*
X239933Y-189141D01*
X239229Y-189845D01*
X238848Y-190764D01*
Y-191262D01*
Y-191760D01*
X239229Y-192679D01*
X239933Y-193383D01*
X240853Y-193764D01*
X241848D01*
X242768Y-193383D01*
X243472Y-192679D01*
X243852Y-191760D01*
Y-191262D01*
Y-190764D01*
X243472Y-189845D01*
X242768Y-189141D01*
X241848Y-188760D01*
D02*
G37*
G36*
X229250Y-149462D02*
X136400Y-149462D01*
X136400Y-234100D01*
X172050Y-234100D01*
X172050Y-241162D01*
X209950D01*
Y-218062D01*
X229250D01*
Y-149462D01*
D02*
G37*
G36*
X195750Y-247450D02*
X146200D01*
Y-268900D01*
X169750D01*
X169750Y-293362D01*
X132450D01*
X132450Y-269928D01*
X101250D01*
Y-324762D01*
X132450D01*
X211165Y-324762D01*
X211165Y-281262D01*
X195750Y-281262D01*
Y-247450D01*
D02*
G37*
%LPD*%
D10*
X45750Y-114098D02*
D03*
Y-106027D02*
D03*
X283650Y-216898D02*
D03*
Y-208827D02*
D03*
X314250D02*
D03*
Y-216898D02*
D03*
X368550Y-293998D02*
D03*
Y-285927D02*
D03*
X40050Y-269127D02*
D03*
Y-277198D02*
D03*
X48350Y-277198D02*
D03*
Y-269127D02*
D03*
X109650Y-316155D02*
D03*
Y-308084D02*
D03*
X295350Y-73227D02*
D03*
Y-81298D02*
D03*
X316850Y-163398D02*
D03*
Y-155327D02*
D03*
Y-128227D02*
D03*
Y-136298D02*
D03*
X267550Y-138027D02*
D03*
Y-146098D02*
D03*
X211050Y-24598D02*
D03*
Y-16527D02*
D03*
X45750Y-91498D02*
D03*
Y-83427D02*
D03*
D13*
X167457Y-197119D02*
D03*
Y-195150D02*
D03*
X212339Y-183339D02*
D03*
Y-185308D02*
D03*
Y-187276D02*
D03*
Y-189245D02*
D03*
Y-191213D02*
D03*
Y-193182D02*
D03*
Y-195150D02*
D03*
Y-197119D02*
D03*
Y-199087D02*
D03*
Y-201056D02*
D03*
Y-203024D02*
D03*
Y-204993D02*
D03*
Y-206961D02*
D03*
Y-208930D02*
D03*
Y-210898D02*
D03*
Y-212867D02*
D03*
X167457D02*
D03*
Y-210898D02*
D03*
Y-208930D02*
D03*
Y-206961D02*
D03*
Y-204993D02*
D03*
Y-203024D02*
D03*
Y-201056D02*
D03*
Y-199087D02*
D03*
Y-193182D02*
D03*
Y-191213D02*
D03*
Y-189245D02*
D03*
Y-187276D02*
D03*
Y-185308D02*
D03*
Y-183339D02*
D03*
D14*
X269950Y-325562D02*
D03*
D15*
X262450D02*
D03*
X277450D02*
D03*
D16*
X295350Y-58562D02*
D03*
X310050Y-74249D02*
D03*
X48331Y-140662D02*
D03*
X153200Y-222200D02*
D03*
D17*
X295350Y-66062D02*
D03*
Y-51062D02*
D03*
X310050Y-81749D02*
D03*
Y-66749D02*
D03*
X48331Y-148162D02*
D03*
Y-133162D02*
D03*
X153200Y-229700D02*
D03*
Y-214700D02*
D03*
D18*
X118250Y-1550D02*
D03*
Y-9975D02*
D03*
X368550Y-279487D02*
D03*
Y-271062D02*
D03*
D19*
X314250Y-201898D02*
D03*
Y-193827D02*
D03*
X283650Y-201898D02*
D03*
Y-193827D02*
D03*
X213350Y-161427D02*
D03*
Y-169498D02*
D03*
X266750Y-247927D02*
D03*
Y-255998D02*
D03*
Y-241498D02*
D03*
Y-233427D02*
D03*
X276150Y-138027D02*
D03*
Y-146098D02*
D03*
D20*
X33335Y-167700D02*
D03*
X25265D02*
D03*
X39865D02*
D03*
X47935D02*
D03*
X307586Y-169762D02*
D03*
X299515D02*
D03*
X298915Y-129722D02*
D03*
X306986D02*
D03*
X306986Y-101222D02*
D03*
X298915D02*
D03*
D22*
X271450Y-196258D02*
D03*
Y-214959D02*
D03*
X303550Y-140312D02*
D03*
Y-159013D02*
D03*
X271450Y-108112D02*
D03*
Y-126813D02*
D03*
X287450Y-108112D02*
D03*
Y-126813D02*
D03*
D24*
X171801Y-260362D02*
D03*
X153100D02*
D03*
X181900Y-20562D02*
D03*
X200601D02*
D03*
D25*
X288050Y-138262D02*
D03*
X291791Y-145742D02*
D03*
X284310D02*
D03*
X302950Y-117262D02*
D03*
X299210Y-109782D02*
D03*
X306691D02*
D03*
D26*
X158718Y-339000D02*
D03*
X156159D02*
D03*
X153600D02*
D03*
X151041D02*
D03*
X148482D02*
D03*
X65682Y-24100D02*
D03*
X68241D02*
D03*
X70800D02*
D03*
X73359D02*
D03*
X75918D02*
D03*
X228018Y-339000D02*
D03*
X225459D02*
D03*
X222900D02*
D03*
X220341D02*
D03*
X217782D02*
D03*
D29*
X306550Y-264480D02*
D03*
X304050D02*
D03*
X301550D02*
D03*
X299050D02*
D03*
X297800Y-269480D02*
D03*
X300300D02*
D03*
X302800D02*
D03*
X305300D02*
D03*
X307800D02*
D03*
D30*
X203650Y-309462D02*
D03*
Y-314777D02*
D03*
D31*
X39087Y-318500D02*
D03*
X47513D02*
D03*
D32*
X298615Y-224462D02*
D03*
X306686D02*
D03*
X183715Y-274262D02*
D03*
X191786D02*
D03*
X120615Y-279062D02*
D03*
X128686D02*
D03*
X113786Y-291162D02*
D03*
X105715D02*
D03*
X128686D02*
D03*
X120615D02*
D03*
X290186Y-181462D02*
D03*
X282115D02*
D03*
X116086Y-25062D02*
D03*
X108015D02*
D03*
X116086Y-16962D02*
D03*
X108015D02*
D03*
X159615Y-63362D02*
D03*
X167686D02*
D03*
D34*
X306450Y-194634D02*
D03*
X301450D02*
D03*
X296450D02*
D03*
X291450D02*
D03*
X306450Y-216090D02*
D03*
X301450D02*
D03*
X296450D02*
D03*
X291450D02*
D03*
D35*
X45600Y-176800D02*
D03*
X27569Y-176800D02*
D03*
D36*
X36584Y-204453D02*
D03*
D37*
X175134Y-175662D02*
D03*
X177102D02*
D03*
X179071D02*
D03*
X181039D02*
D03*
X183008D02*
D03*
X184976D02*
D03*
X186945D02*
D03*
X188913D02*
D03*
X190882D02*
D03*
X192850D02*
D03*
X194819D02*
D03*
X196787D02*
D03*
X198756D02*
D03*
X200725D02*
D03*
X202693D02*
D03*
X204661D02*
D03*
Y-220544D02*
D03*
X202693D02*
D03*
X200725D02*
D03*
X198756D02*
D03*
X196787D02*
D03*
X194819D02*
D03*
X192850D02*
D03*
X190882D02*
D03*
X188913D02*
D03*
X186945D02*
D03*
X184976D02*
D03*
X183008D02*
D03*
X181039D02*
D03*
X179071D02*
D03*
X177102D02*
D03*
X175134D02*
D03*
D38*
X276200Y-235800D02*
D03*
X276200Y-253832D02*
D03*
D39*
X303854Y-244816D02*
D03*
D40*
X268722Y-158362D02*
D03*
Y-163362D02*
D03*
Y-168362D02*
D03*
Y-173362D02*
D03*
X290179Y-158362D02*
D03*
Y-163362D02*
D03*
Y-168362D02*
D03*
Y-173362D02*
D03*
D42*
X47150Y-46969D02*
D03*
Y-35355D02*
D03*
D43*
X41146Y-41162D02*
D03*
D44*
X168082Y-319306D02*
D03*
X175952D02*
D03*
X160212D02*
D03*
X152342D02*
D03*
X183822D02*
D03*
X128732Y-302306D02*
D03*
X120862D02*
D03*
X191692Y-319306D02*
D03*
X144472D02*
D03*
X120862D02*
D03*
X128732D02*
D03*
X136602D02*
D03*
Y-302306D02*
D03*
X144472D02*
D03*
X152342D02*
D03*
X160212D02*
D03*
X168082D02*
D03*
X175952D02*
D03*
X183822D02*
D03*
X191692D02*
D03*
D53*
X35003Y-334962D02*
D03*
Y-19962D02*
D03*
D54*
X342503Y-34962D02*
D03*
D55*
X46850Y-247962D02*
D03*
Y-257962D02*
D03*
X45850Y-225862D02*
D03*
X288250Y-92062D02*
D03*
X368650Y-256162D02*
D03*
X369250Y-85462D02*
D03*
X367550Y-65062D02*
D03*
D56*
X270000Y-282500D02*
D03*
Y-82500D02*
D03*
X357505Y-34957D02*
D03*
X20005Y-334957D02*
D03*
Y-19957D02*
D03*
X357505Y-324957D02*
D03*
X223800Y-55000D02*
D03*
X88800D02*
D03*
X223700Y-310000D02*
D03*
X88800D02*
D03*
D57*
X125800Y-60000D02*
D03*
D58*
X334505Y-34957D02*
D03*
X43005Y-334957D02*
D03*
Y-19957D02*
D03*
X334505Y-324957D02*
D03*
D59*
X337500Y-185000D02*
D03*
Y-195000D02*
D03*
Y-215000D02*
D03*
Y-205000D02*
D03*
Y-225000D02*
D03*
Y-235000D02*
D03*
Y-245000D02*
D03*
Y-255000D02*
D03*
Y-265000D02*
D03*
Y-275000D02*
D03*
X327500D02*
D03*
Y-265000D02*
D03*
Y-255000D02*
D03*
Y-245000D02*
D03*
Y-235000D02*
D03*
Y-225000D02*
D03*
Y-205000D02*
D03*
Y-215000D02*
D03*
Y-195000D02*
D03*
Y-95000D02*
D03*
Y-105000D02*
D03*
Y-115000D02*
D03*
Y-125000D02*
D03*
Y-135000D02*
D03*
Y-145000D02*
D03*
Y-165000D02*
D03*
Y-155000D02*
D03*
Y-175000D02*
D03*
Y-185000D02*
D03*
X337500Y-85000D02*
D03*
Y-95000D02*
D03*
Y-105000D02*
D03*
Y-115000D02*
D03*
Y-125000D02*
D03*
Y-135000D02*
D03*
Y-145000D02*
D03*
Y-165000D02*
D03*
Y-155000D02*
D03*
Y-175000D02*
D03*
X327500Y-285000D02*
D03*
Y-295000D02*
D03*
Y-305000D02*
D03*
X337500D02*
D03*
Y-295000D02*
D03*
Y-285000D02*
D03*
Y-75000D02*
D03*
X327500D02*
D03*
Y-85000D02*
D03*
X337500Y-65000D02*
D03*
Y-55000D02*
D03*
X327500D02*
D03*
Y-65000D02*
D03*
X357500Y-185000D02*
D03*
Y-195000D02*
D03*
Y-215000D02*
D03*
Y-205000D02*
D03*
Y-225000D02*
D03*
Y-235000D02*
D03*
Y-245000D02*
D03*
Y-255000D02*
D03*
Y-265000D02*
D03*
Y-275000D02*
D03*
X347500D02*
D03*
Y-265000D02*
D03*
Y-255000D02*
D03*
Y-245000D02*
D03*
Y-235000D02*
D03*
Y-225000D02*
D03*
Y-205000D02*
D03*
Y-215000D02*
D03*
Y-195000D02*
D03*
Y-95000D02*
D03*
Y-105000D02*
D03*
Y-115000D02*
D03*
Y-125000D02*
D03*
Y-135000D02*
D03*
Y-145000D02*
D03*
Y-165000D02*
D03*
Y-155000D02*
D03*
Y-175000D02*
D03*
Y-185000D02*
D03*
X357500Y-85000D02*
D03*
Y-95000D02*
D03*
Y-105000D02*
D03*
Y-115000D02*
D03*
Y-125000D02*
D03*
Y-135000D02*
D03*
Y-145000D02*
D03*
Y-165000D02*
D03*
Y-155000D02*
D03*
Y-175000D02*
D03*
X347500Y-285000D02*
D03*
Y-295000D02*
D03*
Y-305000D02*
D03*
X357500D02*
D03*
Y-295000D02*
D03*
Y-285000D02*
D03*
Y-75000D02*
D03*
X347500D02*
D03*
Y-85000D02*
D03*
X357500Y-65000D02*
D03*
Y-55000D02*
D03*
X347500D02*
D03*
Y-65000D02*
D03*
D60*
X79560Y-25478D02*
D03*
X62040D02*
D03*
X162360Y-337622D02*
D03*
X144840D02*
D03*
X62040Y-25478D02*
D03*
X79560D02*
D03*
X231660Y-337622D02*
D03*
X214140D02*
D03*
D61*
X87237Y-13175D02*
D03*
X54363D02*
D03*
X170037Y-349925D02*
D03*
X137163D02*
D03*
X54363Y-13175D02*
D03*
X87237D02*
D03*
X239337Y-349925D02*
D03*
X206463D02*
D03*
D62*
X316304Y-277000D02*
D03*
X289296D02*
D03*
X285000Y-61500D02*
D03*
Y-41500D02*
D03*
X265000D02*
D03*
Y-61500D02*
D03*
D63*
X270000Y-310000D02*
D03*
X275000Y-315000D02*
D03*
X265000D02*
D03*
X275000Y-305000D02*
D03*
X265000D02*
D03*
X310000Y-51500D02*
D03*
X315000Y-56500D02*
D03*
X305000D02*
D03*
X315000Y-46500D02*
D03*
X305000D02*
D03*
D64*
X275000Y-51500D02*
D03*
D65*
X187757Y-310806D02*
D03*
X124797D02*
D03*
X120862Y-306868D02*
D03*
Y-314743D02*
D03*
X128732D02*
D03*
Y-306868D02*
D03*
X136602Y-314743D02*
D03*
Y-306868D02*
D03*
X144472Y-314743D02*
D03*
Y-306868D02*
D03*
X152342Y-314743D02*
D03*
Y-306868D02*
D03*
X160212Y-314743D02*
D03*
Y-306868D02*
D03*
X168082Y-314743D02*
D03*
Y-306868D02*
D03*
X175952Y-314743D02*
D03*
Y-306868D02*
D03*
X183822Y-314743D02*
D03*
Y-306868D02*
D03*
X191692Y-314743D02*
D03*
Y-306868D02*
D03*
X204250Y-326000D02*
D03*
X195000Y-330962D02*
D03*
X175250D02*
D03*
X165375D02*
D03*
X34200Y-173100D02*
D03*
X61750Y-61463D02*
D03*
X160438Y-325962D02*
D03*
X244350Y-33462D02*
D03*
X249250Y-38462D02*
D03*
X254250Y-33462D02*
D03*
X234450D02*
D03*
X239400Y-38462D02*
D03*
X204750Y-33462D02*
D03*
X209700Y-38462D02*
D03*
X214650Y-33462D02*
D03*
X219600Y-38462D02*
D03*
X184950Y-33462D02*
D03*
X189900Y-38462D02*
D03*
X194850Y-33462D02*
D03*
X199800Y-38462D02*
D03*
X165150Y-33462D02*
D03*
X175050D02*
D03*
X180000Y-38462D02*
D03*
X145350Y-33462D02*
D03*
X150300Y-38462D02*
D03*
X155250Y-33462D02*
D03*
X160200Y-38462D02*
D03*
X135450Y-33462D02*
D03*
X90900Y-38462D02*
D03*
X81000D02*
D03*
X249250Y-47887D02*
D03*
X254250Y-42912D02*
D03*
X249250Y-67787D02*
D03*
X254250Y-62812D02*
D03*
X249250Y-57837D02*
D03*
X254250Y-82712D02*
D03*
X249250Y-77737D02*
D03*
X254250Y-72762D02*
D03*
X249250Y-107587D02*
D03*
Y-127487D02*
D03*
X254250Y-122512D02*
D03*
X249250Y-117537D02*
D03*
X254250Y-112562D02*
D03*
X249250Y-147387D02*
D03*
X254250Y-142412D02*
D03*
X249250Y-137437D02*
D03*
X254250Y-132462D02*
D03*
X249250Y-167287D02*
D03*
X254250Y-152362D02*
D03*
X249250Y-187187D02*
D03*
X254250Y-182212D02*
D03*
X249250Y-177237D02*
D03*
X254250Y-172262D02*
D03*
X249250Y-207087D02*
D03*
X254250Y-202112D02*
D03*
X249250Y-197137D02*
D03*
X254250Y-192162D02*
D03*
X249250Y-226987D02*
D03*
X254250Y-222012D02*
D03*
X249250Y-217037D02*
D03*
X254250Y-212062D02*
D03*
X249250Y-246887D02*
D03*
X254250Y-241912D02*
D03*
X249250Y-236937D02*
D03*
X254250Y-231962D02*
D03*
Y-251862D02*
D03*
X249250Y-286687D02*
D03*
X254250Y-281712D02*
D03*
X249250Y-276737D02*
D03*
X254250Y-271762D02*
D03*
X249250Y-306587D02*
D03*
X254250Y-301612D02*
D03*
X249250Y-296637D02*
D03*
X254250Y-291662D02*
D03*
X249250Y-325962D02*
D03*
X254250Y-321512D02*
D03*
X249250Y-316537D02*
D03*
X254250Y-311562D02*
D03*
Y-330962D02*
D03*
X229563Y-325962D02*
D03*
X234500Y-330962D02*
D03*
X239438Y-325962D02*
D03*
X244375Y-330962D02*
D03*
X219688Y-325962D02*
D03*
X224625Y-330962D02*
D03*
X190063Y-325962D02*
D03*
X170313D02*
D03*
X180188D02*
D03*
X185125Y-330962D02*
D03*
X150563Y-325962D02*
D03*
X155500Y-330962D02*
D03*
X130813Y-325962D02*
D03*
X135750Y-330962D02*
D03*
X111063Y-325962D02*
D03*
X116000Y-330962D02*
D03*
X120938Y-325962D02*
D03*
X125875Y-330962D02*
D03*
X96250D02*
D03*
X101188Y-325962D02*
D03*
X106125Y-330962D02*
D03*
X71563Y-325962D02*
D03*
X76500Y-330962D02*
D03*
X86375D02*
D03*
X56750D02*
D03*
X61688Y-325995D02*
D03*
X66625Y-330962D02*
D03*
X61750Y-316062D02*
D03*
X56750Y-321029D02*
D03*
Y-301162D02*
D03*
X61750Y-306129D02*
D03*
X56750Y-261429D02*
D03*
Y-271362D02*
D03*
X61750Y-236596D02*
D03*
X56750Y-241562D02*
D03*
X61750Y-246529D02*
D03*
X56750Y-251496D02*
D03*
X61750Y-216729D02*
D03*
X56750Y-221696D02*
D03*
X61750Y-226662D02*
D03*
X56750Y-231629D02*
D03*
X61750Y-196862D02*
D03*
X56750Y-201829D02*
D03*
X61750Y-206796D02*
D03*
X56750Y-211762D02*
D03*
X61750Y-176996D02*
D03*
Y-186929D02*
D03*
X56750Y-191896D02*
D03*
X61750Y-157129D02*
D03*
X56750Y-162096D02*
D03*
X61750Y-167062D02*
D03*
Y-137262D02*
D03*
Y-147196D02*
D03*
X56750Y-122362D02*
D03*
X61750Y-127329D02*
D03*
Y-75163D02*
D03*
X56750Y-70196D02*
D03*
X61750Y-48362D02*
D03*
X56750Y-43396D02*
D03*
X61750Y-38462D02*
D03*
X56750Y-33463D02*
D03*
X249250Y-87687D02*
D03*
X244250Y-82712D02*
D03*
Y-62812D02*
D03*
X239275Y-57812D02*
D03*
D119*
X190850Y-168320D02*
D03*
Y-162605D02*
D03*
X45750Y-73620D02*
D03*
Y-67905D02*
D03*
X159250Y-188620D02*
D03*
Y-182905D02*
D03*
X202850Y-227905D02*
D03*
Y-233620D02*
D03*
X197850Y-168320D02*
D03*
Y-162605D02*
D03*
X204850Y-168320D02*
D03*
Y-162605D02*
D03*
X181050Y-227905D02*
D03*
Y-233620D02*
D03*
X203650Y-295920D02*
D03*
Y-290205D02*
D03*
X160650Y-17905D02*
D03*
Y-23620D02*
D03*
X171350Y-23520D02*
D03*
Y-17805D02*
D03*
D120*
X156120Y-168612D02*
D03*
Y-162312D02*
D03*
X164781D02*
D03*
Y-168612D02*
D03*
D121*
X160108Y-198462D02*
D03*
X154393D02*
D03*
X160108Y-206062D02*
D03*
X154393D02*
D03*
X219693Y-204962D02*
D03*
X225408D02*
D03*
X177143Y-168200D02*
D03*
X182858D02*
D03*
X219693Y-195662D02*
D03*
X225408D02*
D03*
X191808Y-284062D02*
D03*
X186093D02*
D03*
X191808Y-293262D02*
D03*
X186093D02*
D03*
X201008Y-64562D02*
D03*
X195293D02*
D03*
X173493Y-51562D02*
D03*
X179208D02*
D03*
X148493Y-69662D02*
D03*
X154208D02*
D03*
D122*
X170700Y-167300D02*
D03*
Y-163678D02*
D03*
X150250Y-163740D02*
D03*
Y-167362D02*
D03*
D123*
X22800Y-271785D02*
D03*
Y-252100D02*
D03*
Y-311700D02*
D03*
Y-292015D02*
D03*
D124*
X31068Y-267848D02*
D03*
Y-256037D02*
D03*
Y-259974D02*
D03*
Y-263911D02*
D03*
Y-307763D02*
D03*
Y-295952D02*
D03*
Y-299889D02*
D03*
Y-303826D02*
D03*
D125*
X151550Y-188540D02*
D03*
Y-182985D02*
D03*
D126*
X152410Y-24601D02*
D03*
Y-22042D02*
D03*
Y-19483D02*
D03*
Y-16924D02*
D03*
X134891Y-24601D02*
D03*
Y-22042D02*
D03*
Y-19483D02*
D03*
Y-16924D02*
D03*
M02*
