M48
;Layer_Color=9474304
;FILE_FORMAT=2:5
INCH,LZ
;TYPE=PLATED
T1F00S00C0.01181
T2F00S00C0.01968
T3F00S00C0.02000
T4F00S00C0.02600
T5F00S00C0.03000
T6F00S00C0.03307
T7F00S00C0.03700
T8F00S00C0.03937
T9F00S00C0.04016
T10F00S00C0.04331
T11F00S00C0.05512
T12F00S00C0.06500
T13F00S00C0.07008
T14F00S00C0.12500
T15F00S00C0.13400
T16F00S00C0.16500
T17F00S00C0.20000
;TYPE=NON_PLATED
T18F00S00C0.03400
T19F00S00C0.04685
%
T01
X00343Y-03138
X00397Y-0304904
X004275Y-0299962
X004245Y-0296062
X0037161Y-0295952
X00503Y-03049
X00513Y-03185
X005105Y-0286462
X004595Y-0281762
X004455Y-0273062
X004015Y-0262962
X0037376Y-0256037
X0039Y-02424
X004565Y-023815
X007635Y-0233762
X007765Y-0256862
X008225Y-0286162
X0086005Y-0286157
X008925Y-0286162
X009325Y-0286062
X010205Y-0285662
X010155Y-0291262
X01055Y-03166
X011491Y-0313802
X013275Y-0293262
X0154748Y-029686
X016615Y-0295762
X016385Y-0285262
X016245Y-0282662
X016415Y-0278162
X017135
X0173668Y-0276445
X0175952Y-0278164
X018165Y-0282662
X017905Y-0285262
X016915Y-0285862
X016925Y-0282662
X015545Y-0282762
X015635Y-0278062
X014455Y-0277362
X014435Y-0272762
X014065Y-0270162
X013925Y-0264962
X015015Y-0267462
X016005Y-0267062
X017245Y-0266662
X017955Y-0270062
X019645Y-0269262
Y-0266362
X019845Y-0264409
X0198598Y-0271115
X021055Y-0271801
X0214093
Y-0265501
X021055
X02083Y-02545
X021615Y-0247162
X0220986Y-0249162
X022705Y-0248562
X022915Y-0258062
X023015Y-0266778
X022805Y-0269062
X023215Y-0288962
X021115Y-0292862
X020365Y-0302362
Y-0317562
X02088Y-03444
X02117Y-03429
X021505Y-0345662
X021945Y-0347862
X02228Y-0343012
X0225359Y-0345471
X0156159
X01536Y-0343012
X01508Y-0347
X016075Y-0310862
X016865Y-0311162
X017985Y-0295962
X018375Y-0298098
X018665Y-0297162
X018585Y-0243162
X018285Y-0245562
X01744Y-02446
X016885Y-0243262
X01439Y-0244
X0145Y-02479
X01432Y-02339
X011765Y-0231762
X012085Y-0252662
X01315Y-02554
X009495Y-0264862
X009635Y-0240462
X02749Y-02496
X031125Y-0267362
X030895Y-0273662
X030485Y-0288862
X029885Y-0283762
X0292615Y-0292962
X028615Y-0305462
X0300686Y-0311827
X030745Y-0311462
X031975Y-0307362
X031995Y-0315562
X031765Y-0329662
X029065Y-0325562
X028331Y-0325562
X028705Y-0333362
X026125Y-0318962
X030955Y-0296962
X032085Y-0285062
X032365Y-0260262
X0319148Y-019396
X030245Y-0185362
X029895
X028485Y-0186262
X0266Y-01807
X0265703Y-0155514
X026355Y-0151962
X026275Y-0141262
X026645Y-0119162
X026635Y-0115562
X028485Y-0115162
X029455Y-0123862
X0293671Y-0126683
X0299494Y-0119006
X031915Y-0120662
X031725Y-0141862
X0312308Y-0155562
X0312322Y-0158862
X0312336Y-0162162
X031235Y-0165462
X0312365Y-0168762
X030465Y-0151962
X029575Y-0146962
X027895Y-0151662
X028325Y-0161062
X029145Y-0220662
X0287615Y-0225198
X026605Y-0229562
X026345Y-0221062
X026335Y-0211162
X024135Y-0191262
X029275Y-0093962
X029555Y-0094662
X029835Y-0094762
X030075Y-0076262
X020995Y-0077062
X020795Y-0079162
X020595Y-0081262
X020395Y-0083362
X020195Y-0085462
X0190209Y-0088403
X018125Y-0083962
X018105Y-0078462
X01748Y-00764
X0171466Y-0083878
X016845Y-0083862
X016435Y-0083962
X016945Y-0093862
X016925Y-0105762
X0169286Y-0109327
X017835Y-0113562
X017635Y-0115662
X017435Y-0117762
X017475Y-0121562
X017585Y-0129762
X018135Y-0142662
X018865Y-0150162
X01881Y-01588
X0184435Y-0162278
X01867Y-01667
X01868Y-01711
X01841Y-01819
X01809Y-01821
X0178
X017275Y-0189962
X017655Y-0197762
X0186691Y-0205622
X018995Y-0209462
X019095Y-0213562
X0207799Y-0213494
X02075Y-02164
X020875Y-0221162
X02077Y-02295
X021765Y-0217462
X02226Y-02097
X02261Y-02108
X023355Y-0203762
X022545Y-0188662
X0231423Y-018269
X022995Y-0175262
X022665Y-0175062
X023925Y-0172562
X020805Y-0159662
X016937Y-0158362
X016925Y-0150362
X015995Y-0158262
X01425Y-01583
Y-01545
X013405Y-0158562
Y-01648
Y-0179462
X012565Y-0179562
X012325Y-0187562
X01295Y-01943
X013205Y-0196262
X013005Y-0198362
X012805Y-0200462
X012605Y-0202562
X011775Y-0210662
X011575Y-0212762
X011375Y-0214862
X010055Y-0213962
X009785Y-0216362
X014705Y-0210962
X01512Y-02055
X01509Y-01978
X0147428Y-0182985
X0144886Y-0174798
X01544Y-01742
X01633Y-01739
X01657Y-01799
X01891Y-01858
Y-01888
X01728Y-02135
X0167457Y-02213
X01615
X016Y-02293
X0173Y-02292
X017675Y-0229062
X012855Y-0141962
X011765Y-0146262
X009965Y-0144662
X00976Y-01466
X009865Y-0149462
X01017Y-01556
X010095Y-0141962
X009795Y-0109962
X009965Y-0106662
X011035Y-0093062
Y-0090262
X011295Y-0077562
X016085Y-0099962
X021025Y-0097562
X008135Y-0107162
X007455Y-0122262
X00735Y-01251
X00717Y-0132
X007175Y-0135262
X007515Y-0132862
X00744Y-0144
X00737Y-01468
X007555Y-0149562
X0082315Y-0153127
X008225Y-0162362
X008285Y-0176262
X007965Y-0188462
X0049805Y-0179857
X00403Y-01751
X00319Y-01777
X00296Y-01642
X004725Y-0162462
X00505Y-01614
X004895Y-0156162
X0049Y-01374
X004775Y-0118362
X005055Y-0117962
X004925Y-0110062
X00445Y-00642
X004695Y-0050962
X004975
X005276Y-0050971
X005215Y-0053762
X007115Y-0049162
Y-0033362
X003935Y-0035862
X003655Y-0035662
X0083093Y-0028842
X008545Y-0027262
X008825Y-0028162
X0090577Y-0025636
X008985Y-0022862
X00999Y-00152
X013585Y-0013462
X013915Y-0025862
X014205
X014823Y-0022242
X014679Y-0019767
X015825Y-0028362
X0171466Y-0028178
X0173435Y-0048246
X01668Y-00542
X01588Y-00547
X015654Y-0058972
X015505Y-0061362
X015555Y-0064162
X0145403Y-0063009
X014535Y-0069762
X0166Y-00685
X016365Y-0074262
X01723Y-00741
X017385Y-0071562
X019005Y-0066962
X0186472Y-0063341
X0184172Y-0061041
X0186372Y-0058741
X020105Y-0068062
X02241Y-00716
X02271Y-00745
X022265Y-0024662
X01611Y-005
X01526Y-00487
X01389Y-00506
X01157Y-00465
X02452Y-00527
X02588Y-0055
X02693Y-00468
X030205Y-0073762
X036265Y-0070662
T02
X002285Y-0299662
X0049703Y-0292015
X001915Y-0256962
X003685Y-0231962
X00864Y-0253712
X010265Y-0299562
X0113491Y-0300302
X0128732Y-029688
X0136602
X016055Y-0296662
X016895Y-0268762
X017925Y-0274162
X019195Y-0267662
X021345Y-0289662
X021135Y-0299662
X019465Y-0311162
X01628Y-03447
X0227918Y-0348694
X022625Y-0277362
X01492Y-02447
X02762Y-0240413
X02841Y-02441
X028425Y-0256762
X032155Y-0237662
X031515Y-0323462
X0304486Y-0329598
X028705Y-0316762
X037325Y-0296462
X032395Y-0219962
X030145Y-0211262
X0294217Y-0204196
X0306515Y-0201898
X030455Y-0188562
X030615Y-0177462
X0283666Y-0175946
X027815Y-0193827
X02758Y-0205312
X029305Y-0224462
X029565Y-0158362
X028395Y-0152662
X028165Y-0138062
X027955Y-0108762
X029485Y-0115362
X0298915Y-0123427
X030795Y-0148162
X031145Y-0100962
X032085Y-0084362
X0188615Y-0095827
X0188415Y-0103898
X0195691Y-0113422
X0184009Y-014653
Y-0154404
X016495Y-0147762
X014675Y-0154404
X012175Y-0150162
X012455Y-0175462
X009925Y-0199762
X009715Y-0223062
X014475Y-0229762
X02297Y-0208
X02369Y-02088
X023285Y-0192827
X015585Y-0129762
X014645Y-0113962
X012645Y-0118862
X011865Y-0088262
X007815Y-0113962
X007935Y-0173762
X007975Y-0205062
X007935Y-0223362
X003805Y-0224962
X00356Y-01847
X003975Y-0180662
X005075Y-0077662
X004895Y-0060062
X006565Y-0011762
X007595Y-0011962
X0103926Y-0006638
X0108015Y-0002798
X01118Y-0007113
X011135Y-0047862
X018555Y-0053262
X019345Y-0020562
X0166286Y-0016627
X016055Y-0013662
X030475Y-0040362
X032345Y-0035862
X031885Y-0066762
X036835Y-0056762
T03
X005675Y-0330962
X0066625
X00765
X0071563Y-0325962
X0061688Y-0325995
X005675Y-0321029
X006175Y-0316062
Y-0306129
X005675Y-0301162
X0073936Y-0306053
Y-0315895
X007425Y-0295362
X005675Y-0271362
Y-0261429
Y-0251496
Y-0241562
Y-0231629
X006175Y-0236596
Y-0246529
X0113306Y-0241092
X0129054
X012945Y-0251662
X0125117Y-0284399
X0113306Y-0280462
X009875Y-0296462
X0101188Y-0325962
X0111063
X0120938
X0130813
X013575Y-0330962
X0125875
X0116
X0106125
X009625
X0086375
X01555
X0165375
X017525
X0185125
X0195
X0190063Y-0325962
X0180188
X0170313
X0160438
X0150563
X016055Y-035126
X020425Y-0326
X0219688Y-0325962
X0229563
X02345Y-0330962
X0224625
X0244375
X024925Y-0325962
Y-0316537
Y-0306587
Y-0296637
Y-0286687
Y-0276737
X025425Y-0281712
Y-0271762
Y-0251862
Y-0241912
Y-0231962
X024925Y-0236937
Y-0246887
X0292439Y-0245029
X030425
Y-025684
X0292439
X0316061Y-0252903
Y-0237155
X0284565Y-0292273
X025425Y-0291662
Y-0301612
Y-0311562
Y-0321512
Y-0330962
X0239438Y-0325962
X024925Y-0226987
Y-0217037
Y-0207087
Y-0197137
Y-0187187
Y-0177237
Y-0167287
X025425Y-0172262
Y-0182212
Y-0192162
Y-0202112
Y-0212062
Y-0222012
X0280628Y-0187943
X025425Y-0152362
Y-0142412
Y-0132462
Y-0122512
Y-0112562
X024925Y-0107587
Y-0117537
Y-0127487
Y-0137437
Y-0147387
Y-0087687
Y-0077737
X025425Y-0082712
X024425
X0319999Y-009936
Y-0109202
X0369211
Y-009936
X0201888
X0192046
X0201888Y-0119045
X0211731
X0221573
Y-0128887
X0231416
Y-013873
X0235353Y-0154478
Y-016432
Y-0221407
X022551Y-0225344
X0099526Y-0227312
X0127085Y-012495
X0152676Y-0109202
X015225Y-0094262
X0119211Y-0075738
X0164487Y-0134793
X006175Y-0137262
Y-0147196
Y-0157129
Y-0167062
Y-0176996
Y-0186929
Y-0196862
Y-0206796
Y-0216729
Y-0226662
X005675Y-0221696
Y-0211762
Y-0201829
Y-0191896
X0036734Y-0197785
X0024923
X0030828Y-0191879
Y-0203691
X0024923Y-0209596
X0036734
X0042639Y-0203691
X00342Y-01731
X005675Y-0162096
Y-0122362
X006175Y-0127329
X0073936Y-0118945
X006175Y-0075163
X005675Y-0070196
X006175Y-0061463
Y-0048362
Y-0038462
X005675Y-0043396
Y-0033463
X0081Y-0038462
X00909
X0097557Y-0069832
X0132991Y-0040305
X013545Y-0033462
X014535
X015525
X016515
X017505
X018495
X019485
X020475
X021465
X02097Y-0038462
X02196
X01998
X01899
X018
X01602
X01503
X0172361Y-0010777
X0182203
X0192046
X0201888
X0211731
X023445Y-0033462
X0239275Y-0057812
X024425Y-0062812
X024925Y-0067787
Y-0057837
Y-0047887
Y-0038462
X025425Y-0042912
Y-0033462
X024435
X02394Y-0038462
X025425Y-0062812
Y-0072762
X0260943Y-0069832
X0369211Y-0050147
T04
X014484Y-0337622
X016236
X021414
X023166
X007956Y-0025478
X006204
T05
X0124797Y-0310806
X0187757
T06
X0265Y-0315
X027Y-031
X0275Y-0315
Y-0305
X0265
X0305Y-00565
X031Y-00515
X0315Y-00565
Y-00465
X0305
T07
X0137163Y-0349925
X0170037
X0206463
X0239337
X036865Y-0256162
X036925Y-0085462
X028825Y-0092062
X004585Y-0225862
X0054363Y-0013175
X0087237
X036755Y-0065062
T08
X004685Y-0257962
Y-0247962
T09
X03275Y-0305
Y-0295
Y-0285
Y-0275
X03375
Y-0265
Y-0255
Y-0245
Y-0235
X03275
Y-0245
Y-0255
Y-0265
X03475
X03575
Y-0255
Y-0245
Y-0235
X03475
Y-0245
Y-0255
Y-0275
X03575
Y-0285
X03475
X03375
Y-0295
Y-0305
X03475
Y-0295
X03575
Y-0305
Y-0225
Y-0215
Y-0205
Y-0195
Y-0185
X03475
X03375
Y-0195
Y-0205
Y-0215
Y-0225
X03275
Y-0215
Y-0205
Y-0195
Y-0185
Y-0175
Y-0165
Y-0155
Y-0145
Y-0135
Y-0125
Y-0115
Y-0105
Y-0095
X03375
Y-0085
Y-0075
X03275
Y-0085
X03475
Y-0095
Y-0105
X03375
Y-0115
Y-0125
Y-0135
Y-0145
Y-0155
Y-0165
Y-0175
X03475
Y-0165
Y-0155
Y-0145
Y-0135
Y-0125
Y-0115
X03575
Y-0105
Y-0095
Y-0085
Y-0075
X03475
X03575Y-0125
Y-0135
Y-0145
Y-0155
Y-0165
Y-0175
X03475Y-0195
Y-0205
Y-0215
Y-0225
Y-0065
X03375
Y-0055
X03275
Y-0065
X03575
Y-0055
X03475
T10
X0275Y-00515
T11
X0265Y-00615
X0285
Y-00415
X0265
T12
X0043005Y-0334957
X0334505Y-0324957
X0043005Y-0019957
X0334505Y-0034957
T13
X0289296Y-0277
X0316304
T14
X0020005Y-0334957
X0357505Y-0324957
X0020005Y-0019957
X0357505Y-0034957
T15
X027Y-02825
Y-00825
T16
X00888Y-031
X02237
X02238Y-0055
X00888
T17
X01258Y-006
T18
X0120862Y-0314743
X0128732
X0136602
X0144472
X0152342
X0160212
X0168082
X0175952
X0183822
X0191692
Y-0306868
X0183822
X0175952
X0168082
X0160212
X0152342
X0144472
X0136602
X0128732
X0120862
T19
X00777Y-0286111
Y-0262489
X01648Y-0229207
X02087Y-0225307
Y-0138693
X01648Y-0142593
X006Y-0110011
Y-0086389
X0099989Y-0025
X0123611
M30
