G04 Layer_Physical_Order=5*
G04 Layer_Color=8388736*
%FSLAX25Y25*%
%MOIN*%
G70*
G01*
G75*
%ADD45C,0.01000*%
%ADD52C,0.00787*%
%ADD68C,0.04000*%
%ADD69C,0.07937*%
%ADD70C,0.16500*%
%ADD71C,0.10500*%
%ADD72C,0.08016*%
G04:AMPARAMS|DCode=73|XSize=100.157mil|YSize=100.157mil|CornerRadius=0mil|HoleSize=0mil|Usage=FLASHONLY|Rotation=0.000|XOffset=0mil|YOffset=0mil|HoleType=Round|Shape=Relief|Width=10mil|Gap=10mil|Entries=4|*
%AMTHD73*
7,0,0,0.10016,0.08016,0.01000,45*
%
%ADD73THD73*%
%ADD74C,0.08685*%
G04:AMPARAMS|DCode=76|XSize=97mil|YSize=97mil|CornerRadius=0mil|HoleSize=0mil|Usage=FLASHONLY|Rotation=0.000|XOffset=0mil|YOffset=0mil|HoleType=Round|Shape=Relief|Width=10mil|Gap=10mil|Entries=4|*
%AMTHD76*
7,0,0,0.09700,0.07700,0.01000,45*
%
%ADD76THD76*%
%ADD77C,0.07700*%
%ADD79C,0.07307*%
%ADD81C,0.08331*%
%ADD83C,0.07000*%
%ADD84C,0.07400*%
%ADD85C,0.05181*%
%ADD86C,0.05969*%
%ADD90C,0.17400*%
%ADD91C,0.24000*%
%ADD92C,0.06600*%
%ADD93C,0.11008*%
%ADD94C,0.09512*%
%ADD95C,0.20500*%
%ADD96C,0.06000*%
G04:AMPARAMS|DCode=97|XSize=99.37mil|YSize=99.37mil|CornerRadius=0mil|HoleSize=0mil|Usage=FLASHONLY|Rotation=0.000|XOffset=0mil|YOffset=0mil|HoleType=Round|Shape=Relief|Width=10mil|Gap=10mil|Entries=4|*
%AMTHD97*
7,0,0,0.09937,0.07937,0.01000,45*
%
%ADD97THD97*%
G36*
X125826Y50477D02*
X130527D01*
Y49238D01*
X124350D01*
Y59951D01*
X125826D01*
Y50477D01*
D02*
G37*
G36*
X185278Y58712D02*
X180851D01*
Y55706D01*
X182053D01*
X182254Y55688D01*
X182491Y55669D01*
X182727Y55651D01*
X183274Y55560D01*
X183310D01*
X183402Y55524D01*
X183547Y55487D01*
X183711Y55451D01*
X183930Y55378D01*
X184149Y55287D01*
X184367Y55196D01*
X184586Y55068D01*
X184604Y55050D01*
X184677Y55014D01*
X184786Y54922D01*
X184914Y54831D01*
X185059Y54686D01*
X185205Y54540D01*
X185351Y54339D01*
X185497Y54139D01*
X185515Y54121D01*
X185551Y54030D01*
X185606Y53902D01*
X185679Y53738D01*
X185752Y53520D01*
X185807Y53264D01*
X185843Y52991D01*
X185861Y52663D01*
Y52627D01*
Y52536D01*
X185843Y52372D01*
X185825Y52189D01*
X185770Y51953D01*
X185715Y51716D01*
X185624Y51461D01*
X185515Y51206D01*
X185497Y51169D01*
X185460Y51096D01*
X185369Y50969D01*
X185260Y50823D01*
X185132Y50641D01*
X184968Y50459D01*
X184768Y50258D01*
X184549Y50076D01*
X184531Y50058D01*
X184440Y50003D01*
X184312Y49912D01*
X184149Y49803D01*
X183930Y49693D01*
X183693Y49566D01*
X183420Y49457D01*
X183128Y49347D01*
X183092Y49329D01*
X182982Y49311D01*
X182818Y49274D01*
X182600Y49220D01*
X182345Y49165D01*
X182035Y49128D01*
X181707Y49110D01*
X181361Y49092D01*
X181051D01*
X180851Y49110D01*
X180741D01*
X180687Y49128D01*
X180505D01*
X180304Y49147D01*
X180213D01*
X180140Y49165D01*
X179958Y49183D01*
X179776Y49201D01*
X179739D01*
X179630Y49220D01*
X179484D01*
X179320Y49238D01*
Y50532D01*
X179338D01*
X179393Y50513D01*
X179484Y50495D01*
X179612Y50477D01*
X179757Y50440D01*
X179921Y50422D01*
X180122Y50386D01*
X180322Y50367D01*
X180432D01*
X180541Y50349D01*
X180869D01*
X181069Y50331D01*
X181725D01*
X181889Y50349D01*
X182053Y50367D01*
X182254Y50386D01*
X182654Y50477D01*
X182673D01*
X182746Y50513D01*
X182837Y50550D01*
X182964Y50604D01*
X183256Y50732D01*
X183547Y50932D01*
X183565Y50950D01*
X183602Y50987D01*
X183675Y51042D01*
X183766Y51133D01*
X183857Y51224D01*
X183948Y51351D01*
X184130Y51625D01*
X184149Y51643D01*
X184167Y51698D01*
X184203Y51789D01*
X184240Y51898D01*
X184276Y52044D01*
X184294Y52208D01*
X184331Y52372D01*
Y52572D01*
Y52590D01*
Y52609D01*
Y52663D01*
X184312Y52736D01*
X184294Y52900D01*
X184240Y53119D01*
X184149Y53356D01*
X184021Y53592D01*
X183839Y53811D01*
X183602Y54011D01*
X183565Y54030D01*
X183474Y54084D01*
X183310Y54157D01*
X183073Y54248D01*
X182782Y54339D01*
X182418Y54412D01*
X181999Y54467D01*
X181525Y54485D01*
X179502D01*
Y59951D01*
X185278D01*
Y58712D01*
D02*
G37*
G36*
X228642Y59933D02*
X228860D01*
X229115Y59897D01*
X229389Y59860D01*
X229662Y59805D01*
X229917Y59733D01*
X229954D01*
X230026Y59696D01*
X230154Y59641D01*
X230300Y59587D01*
X230482Y59514D01*
X230664Y59405D01*
X230846Y59295D01*
X231010Y59168D01*
X231029Y59149D01*
X231083Y59095D01*
X231156Y59022D01*
X231247Y58913D01*
X231357Y58785D01*
X231466Y58639D01*
X231557Y58457D01*
X231648Y58275D01*
X231666Y58257D01*
X231684Y58184D01*
X231721Y58074D01*
X231757Y57929D01*
X231794Y57765D01*
X231830Y57564D01*
X231867Y57364D01*
Y57127D01*
Y57109D01*
Y57036D01*
Y56945D01*
X231848Y56817D01*
X231830Y56672D01*
X231794Y56508D01*
X231703Y56161D01*
Y56143D01*
X231684Y56089D01*
X231648Y55998D01*
X231593Y55906D01*
X231466Y55633D01*
X231265Y55360D01*
X231247Y55342D01*
X231211Y55305D01*
X231156Y55232D01*
X231065Y55141D01*
X230956Y55050D01*
X230828Y54941D01*
X230537Y54722D01*
X230518Y54704D01*
X230464Y54686D01*
X230373Y54631D01*
X230263Y54576D01*
X230118Y54522D01*
X229954Y54449D01*
X229753Y54394D01*
X229553Y54339D01*
X229571D01*
X229626Y54303D01*
X229717Y54267D01*
X229826Y54212D01*
X229935Y54139D01*
X230063Y54030D01*
X230190Y53920D01*
X230318Y53775D01*
X230336Y53756D01*
X230373Y53702D01*
X230446Y53629D01*
X230518Y53501D01*
X230628Y53356D01*
X230737Y53192D01*
X230846Y52973D01*
X230974Y52754D01*
X232687Y49238D01*
X231029D01*
X229425Y52663D01*
Y52681D01*
X229389Y52736D01*
X229352Y52791D01*
X229316Y52882D01*
X229188Y53101D01*
X229043Y53301D01*
Y53319D01*
X229006Y53356D01*
X228933Y53465D01*
X228806Y53592D01*
X228642Y53720D01*
X228624D01*
X228605Y53738D01*
X228496Y53811D01*
X228350Y53866D01*
X228168Y53939D01*
X228150D01*
X228132Y53957D01*
X228077D01*
X228004Y53975D01*
X227822Y53993D01*
X227585Y54011D01*
X226911D01*
Y49238D01*
X225453D01*
Y59951D01*
X228478D01*
X228642Y59933D01*
D02*
G37*
G36*
X136795Y57601D02*
X136995Y57583D01*
X137232Y57546D01*
X137688Y57455D01*
X137706D01*
X137797Y57419D01*
X137906Y57382D01*
X138034Y57328D01*
X138198Y57255D01*
X138362Y57164D01*
X138526Y57073D01*
X138690Y56945D01*
X138708Y56927D01*
X138762Y56890D01*
X138835Y56817D01*
X138926Y56726D01*
X139036Y56599D01*
X139145Y56453D01*
X139236Y56289D01*
X139327Y56107D01*
X139346Y56089D01*
X139364Y56016D01*
X139400Y55906D01*
X139455Y55761D01*
X139491Y55597D01*
X139528Y55378D01*
X139546Y55159D01*
X139564Y54904D01*
Y49238D01*
X138270D01*
X138234Y50331D01*
X138198Y50295D01*
X138125Y50222D01*
X137979Y50112D01*
X137815Y49967D01*
X137596Y49821D01*
X137378Y49657D01*
X137123Y49511D01*
X136868Y49384D01*
X136831Y49365D01*
X136740Y49347D01*
X136612Y49292D01*
X136430Y49238D01*
X136212Y49183D01*
X135957Y49147D01*
X135702Y49110D01*
X135410Y49092D01*
X135301D01*
X135173Y49110D01*
X135009D01*
X134809Y49128D01*
X134608Y49165D01*
X134207Y49256D01*
X134189D01*
X134135Y49292D01*
X134044Y49329D01*
X133916Y49384D01*
X133661Y49548D01*
X133388Y49748D01*
X133369Y49766D01*
X133333Y49803D01*
X133278Y49876D01*
X133205Y49967D01*
X133133Y50076D01*
X133041Y50204D01*
X132914Y50495D01*
Y50513D01*
X132896Y50568D01*
X132877Y50659D01*
X132841Y50768D01*
X132823Y50914D01*
X132786Y51078D01*
X132768Y51424D01*
Y51442D01*
Y51479D01*
Y51552D01*
X132786Y51625D01*
X132805Y51734D01*
X132823Y51862D01*
X132877Y52135D01*
X132987Y52445D01*
X133151Y52772D01*
X133260Y52937D01*
X133388Y53082D01*
X133515Y53228D01*
X133679Y53374D01*
X133697D01*
X133715Y53410D01*
X133770Y53447D01*
X133861Y53483D01*
X133952Y53538D01*
X134062Y53592D01*
X134207Y53665D01*
X134371Y53738D01*
X134554Y53793D01*
X134754Y53866D01*
X134973Y53920D01*
X135228Y53975D01*
X135483Y54011D01*
X135774Y54048D01*
X136084Y54084D01*
X138125D01*
Y54795D01*
Y54831D01*
Y54922D01*
X138107Y55050D01*
X138070Y55214D01*
X138015Y55396D01*
X137924Y55597D01*
X137815Y55779D01*
X137651Y55961D01*
X137633Y55979D01*
X137560Y56034D01*
X137451Y56107D01*
X137305Y56180D01*
X137104Y56252D01*
X136849Y56325D01*
X136558Y56380D01*
X136230Y56398D01*
X135975D01*
X135793Y56380D01*
X135574Y56362D01*
X135355Y56325D01*
X134845Y56234D01*
X134809D01*
X134736Y56198D01*
X134590Y56161D01*
X134426Y56125D01*
X134207Y56052D01*
X133971Y55979D01*
X133715Y55888D01*
X133460Y55797D01*
Y57091D01*
X133479D01*
X133515Y57109D01*
X133552Y57127D01*
X133624Y57145D01*
X133807Y57200D01*
X134044Y57273D01*
X134062D01*
X134098Y57291D01*
X134171Y57309D01*
X134262Y57328D01*
X134499Y57382D01*
X134754Y57437D01*
X134772D01*
X134827Y57455D01*
X134900Y57473D01*
X134991Y57491D01*
X135100Y57510D01*
X135228Y57528D01*
X135519Y57564D01*
X135538D01*
X135592Y57583D01*
X135665D01*
X135774Y57601D01*
X135902D01*
X136030Y57619D01*
X136612D01*
X136795Y57601D01*
D02*
G37*
G36*
X210367Y59933D02*
X210604Y59915D01*
X210859Y59878D01*
X211406Y59769D01*
X211442D01*
X211533Y59733D01*
X211661Y59696D01*
X211843Y59623D01*
X212043Y59550D01*
X212244Y59441D01*
X212462Y59332D01*
X212681Y59186D01*
X212699Y59168D01*
X212772Y59113D01*
X212881Y59040D01*
X213009Y58913D01*
X213155Y58767D01*
X213300Y58603D01*
X213446Y58403D01*
X213574Y58184D01*
X213592Y58147D01*
X213628Y58074D01*
X213683Y57947D01*
X213738Y57765D01*
X213792Y57546D01*
X213847Y57291D01*
X213883Y57000D01*
X213902Y56672D01*
Y56635D01*
Y56562D01*
X213883Y56435D01*
X213865Y56271D01*
X213847Y56070D01*
X213792Y55834D01*
X213738Y55597D01*
X213647Y55360D01*
X213628Y55323D01*
X213610Y55251D01*
X213537Y55123D01*
X213464Y54977D01*
X213355Y54795D01*
X213228Y54613D01*
X213064Y54412D01*
X212881Y54212D01*
X212863Y54194D01*
X212790Y54121D01*
X212681Y54030D01*
X212535Y53920D01*
X212335Y53793D01*
X212116Y53647D01*
X211861Y53520D01*
X211570Y53392D01*
X211533Y53374D01*
X211424Y53337D01*
X211260Y53301D01*
X211023Y53246D01*
X210750Y53173D01*
X210422Y53137D01*
X210039Y53101D01*
X209638Y53082D01*
X208326D01*
Y49238D01*
X206869D01*
Y59951D01*
X210167D01*
X210367Y59933D01*
D02*
G37*
G36*
X222957Y49238D02*
X221062D01*
X219732Y53046D01*
X219368Y54285D01*
X218967Y52955D01*
X217746Y49238D01*
X215924D01*
X215177Y59951D01*
X216562D01*
X216963Y52645D01*
X217090Y50659D01*
X217600Y52354D01*
X218912Y56344D01*
X219914D01*
X221408Y52062D01*
X221900Y50659D01*
X221937Y52117D01*
X222374Y59951D01*
X223686D01*
X222957Y49238D01*
D02*
G37*
G36*
X203444Y60589D02*
X203407Y60553D01*
X203316Y60443D01*
X203152Y60279D01*
X202952Y60042D01*
X202696Y59751D01*
X202441Y59405D01*
X202150Y58986D01*
X201858Y58548D01*
X201549Y58056D01*
X201257Y57510D01*
X201002Y56945D01*
X200747Y56325D01*
X200547Y55688D01*
X200401Y55032D01*
X200291Y54339D01*
X200273Y53993D01*
X200255Y53629D01*
Y53611D01*
Y53538D01*
Y53447D01*
X200273Y53301D01*
Y53137D01*
X200291Y52937D01*
X200328Y52718D01*
X200364Y52463D01*
X200401Y52189D01*
X200455Y51916D01*
X200601Y51297D01*
X200802Y50641D01*
X200911Y50313D01*
X201057Y49985D01*
X201075Y49967D01*
X201093Y49912D01*
X201148Y49821D01*
X201202Y49693D01*
X201293Y49529D01*
X201403Y49347D01*
X201512Y49147D01*
X201658Y48910D01*
X201822Y48673D01*
X201986Y48418D01*
X202186Y48145D01*
X202405Y47853D01*
X202642Y47562D01*
X202879Y47270D01*
X203152Y46979D01*
X203444Y46687D01*
X202569Y45794D01*
X202551Y45812D01*
X202533Y45831D01*
X202478Y45885D01*
X202405Y45958D01*
X202314Y46049D01*
X202223Y46140D01*
X201986Y46414D01*
X201694Y46742D01*
X201385Y47124D01*
X201038Y47580D01*
X200692Y48072D01*
X200328Y48618D01*
X200000Y49220D01*
X199672Y49857D01*
X199380Y50532D01*
X199144Y51242D01*
X198961Y51971D01*
X198889Y52354D01*
X198834Y52736D01*
X198816Y53119D01*
X198797Y53520D01*
Y53538D01*
Y53574D01*
Y53611D01*
Y53684D01*
X198816Y53884D01*
Y54139D01*
X198852Y54449D01*
X198889Y54777D01*
X198925Y55141D01*
X198998Y55506D01*
Y55524D01*
X199016Y55542D01*
Y55597D01*
X199034Y55669D01*
X199089Y55870D01*
X199162Y56125D01*
X199235Y56416D01*
X199344Y56744D01*
X199490Y57109D01*
X199636Y57473D01*
Y57491D01*
X199654Y57528D01*
X199690Y57564D01*
X199727Y57637D01*
X199818Y57838D01*
X199963Y58093D01*
X200127Y58403D01*
X200328Y58731D01*
X200565Y59095D01*
X200820Y59459D01*
Y59478D01*
X200856Y59514D01*
X200893Y59550D01*
X200947Y59623D01*
X201111Y59824D01*
X201312Y60079D01*
X201585Y60388D01*
X201876Y60716D01*
X202223Y61081D01*
X202605Y61445D01*
X203444Y60589D01*
D02*
G37*
G36*
X165455Y57601D02*
X165546D01*
X165673Y57583D01*
X165965Y57510D01*
X166275Y57419D01*
X166584Y57273D01*
X166894Y57054D01*
X167040Y56927D01*
X167167Y56781D01*
X167204Y56744D01*
X167222Y56690D01*
X167277Y56635D01*
X167313Y56544D01*
X167368Y56435D01*
X167441Y56307D01*
X167495Y56161D01*
X167550Y55998D01*
X167605Y55834D01*
X167659Y55633D01*
X167714Y55414D01*
X167751Y55159D01*
X167769Y54904D01*
X167787Y54631D01*
Y54339D01*
X166348D01*
Y54358D01*
Y54394D01*
Y54449D01*
Y54522D01*
X166329Y54704D01*
X166311Y54922D01*
X166275Y55178D01*
X166220Y55433D01*
X166129Y55688D01*
X166020Y55888D01*
X166001Y55906D01*
X165965Y55961D01*
X165874Y56052D01*
X165764Y56143D01*
X165619Y56216D01*
X165455Y56307D01*
X165254Y56362D01*
X165017Y56380D01*
X164908D01*
X164854Y56362D01*
X164671Y56344D01*
X164453Y56271D01*
X164434D01*
X164398Y56252D01*
X164343Y56234D01*
X164270Y56198D01*
X164070Y56089D01*
X163851Y55943D01*
X163833Y55925D01*
X163797Y55906D01*
X163742Y55852D01*
X163651Y55797D01*
X163451Y55597D01*
X163196Y55360D01*
X163177Y55342D01*
X163141Y55305D01*
X163068Y55232D01*
X162977Y55123D01*
X162867Y54995D01*
X162740Y54868D01*
X162612Y54704D01*
X162467Y54522D01*
Y49238D01*
X161027D01*
Y57473D01*
X162321D01*
X162357Y55943D01*
Y55961D01*
X162394Y55979D01*
X162485Y56089D01*
X162631Y56234D01*
X162813Y56435D01*
X163031Y56635D01*
X163268Y56854D01*
X163523Y57054D01*
X163797Y57218D01*
X163833Y57236D01*
X163924Y57273D01*
X164052Y57346D01*
X164252Y57419D01*
X164453Y57491D01*
X164708Y57564D01*
X164963Y57601D01*
X165236Y57619D01*
X165364D01*
X165455Y57601D01*
D02*
G37*
G36*
X236294Y61427D02*
X236312Y61409D01*
X236367Y61354D01*
X236440Y61281D01*
X236531Y61190D01*
X236622Y61099D01*
X236877Y60826D01*
X237151Y60498D01*
X237478Y60115D01*
X237825Y59660D01*
X238171Y59149D01*
X238517Y58603D01*
X238863Y58002D01*
X239191Y57346D01*
X239483Y56672D01*
X239720Y55961D01*
X239902Y55214D01*
X239975Y54831D01*
X240029Y54449D01*
X240047Y54048D01*
X240066Y53647D01*
Y53629D01*
Y53611D01*
Y53556D01*
Y53501D01*
Y53319D01*
X240047Y53082D01*
X240029Y52809D01*
X239993Y52499D01*
X239938Y52153D01*
X239883Y51807D01*
Y51789D01*
Y51770D01*
X239865Y51716D01*
X239847Y51643D01*
X239811Y51461D01*
X239738Y51206D01*
X239647Y50914D01*
X239537Y50586D01*
X239410Y50240D01*
X239264Y49876D01*
Y49857D01*
X239246Y49839D01*
X239228Y49784D01*
X239191Y49712D01*
X239082Y49511D01*
X238954Y49256D01*
X238790Y48946D01*
X238572Y48618D01*
X238353Y48254D01*
X238080Y47871D01*
Y47853D01*
X238043Y47817D01*
X238007Y47762D01*
X237952Y47689D01*
X237879Y47598D01*
X237788Y47489D01*
X237569Y47215D01*
X237314Y46906D01*
X237005Y46560D01*
X236640Y46177D01*
X236240Y45794D01*
X235420Y46651D01*
X235438Y46669D01*
X235492Y46723D01*
X235565Y46815D01*
X235675Y46924D01*
X235820Y47070D01*
X235966Y47252D01*
X236130Y47434D01*
X236312Y47653D01*
X236494Y47890D01*
X236695Y48145D01*
X237096Y48709D01*
X237460Y49311D01*
X237624Y49639D01*
X237788Y49948D01*
X237806Y49967D01*
X237825Y50021D01*
X237861Y50112D01*
X237916Y50240D01*
X237970Y50404D01*
X238043Y50586D01*
X238116Y50805D01*
X238189Y51042D01*
X238262Y51297D01*
X238335Y51570D01*
X238462Y52189D01*
X238553Y52845D01*
X238590Y53192D01*
Y53538D01*
Y53556D01*
Y53574D01*
Y53629D01*
Y53720D01*
X238572Y53811D01*
Y53920D01*
X238535Y54194D01*
X238499Y54540D01*
X238426Y54941D01*
X238316Y55378D01*
X238189Y55870D01*
X238025Y56398D01*
X237825Y56963D01*
X237551Y57546D01*
X237260Y58147D01*
X236895Y58749D01*
X236458Y59350D01*
X235984Y59969D01*
X235711Y60261D01*
X235420Y60553D01*
X236276Y61445D01*
X236294Y61427D01*
D02*
G37*
G36*
X146743Y50112D02*
Y50094D01*
X146725Y50058D01*
X146706Y50003D01*
X146670Y49930D01*
X146579Y49712D01*
X146469Y49457D01*
X146324Y49165D01*
X146178Y48837D01*
X146014Y48509D01*
X145832Y48199D01*
X145814Y48163D01*
X145759Y48072D01*
X145668Y47908D01*
X145540Y47726D01*
X145395Y47507D01*
X145212Y47288D01*
X145030Y47070D01*
X144830Y46851D01*
X144811Y46833D01*
X144739Y46760D01*
X144629Y46669D01*
X144483Y46560D01*
X144301Y46432D01*
X144101Y46304D01*
X143864Y46195D01*
X143627Y46086D01*
X143591Y46068D01*
X143518Y46049D01*
X143372Y46013D01*
X143190Y45958D01*
X142971Y45904D01*
X142734Y45867D01*
X142443Y45849D01*
X142151Y45831D01*
X141896D01*
X141751Y45849D01*
X141532D01*
X141386Y45867D01*
Y47161D01*
X141423D01*
X141496Y47142D01*
X141623D01*
X141769Y47124D01*
X141805D01*
X141914Y47106D01*
X142060Y47088D01*
X142370D01*
X142461Y47106D01*
X142716Y47142D01*
X142971Y47215D01*
X142990D01*
X143026Y47234D01*
X143099Y47270D01*
X143190Y47306D01*
X143390Y47416D01*
X143609Y47580D01*
X143627Y47598D01*
X143664Y47635D01*
X143718Y47689D01*
X143791Y47762D01*
X143882Y47853D01*
X143992Y47981D01*
X144192Y48254D01*
X144210Y48272D01*
X144247Y48327D01*
X144301Y48418D01*
X144374Y48527D01*
X144447Y48673D01*
X144538Y48855D01*
X144648Y49037D01*
X144739Y49238D01*
X141459Y57473D01*
X143081D01*
X145158Y52007D01*
X145577Y50732D01*
X146051Y52044D01*
X147982Y57473D01*
X149549D01*
X146743Y50112D01*
D02*
G37*
G36*
X155160Y57601D02*
X155361Y57583D01*
X155598Y57546D01*
X155853Y57510D01*
X156108Y57437D01*
X156363Y57346D01*
X156399Y57328D01*
X156472Y57291D01*
X156600Y57236D01*
X156764Y57145D01*
X156928Y57036D01*
X157128Y56909D01*
X157310Y56744D01*
X157493Y56562D01*
X157511Y56544D01*
X157565Y56471D01*
X157657Y56362D01*
X157748Y56234D01*
X157857Y56052D01*
X157985Y55852D01*
X158094Y55615D01*
X158185Y55360D01*
X158203Y55323D01*
X158221Y55232D01*
X158258Y55086D01*
X158312Y54904D01*
X158349Y54667D01*
X158385Y54412D01*
X158404Y54121D01*
X158422Y53793D01*
Y53775D01*
Y53738D01*
Y53684D01*
Y53611D01*
Y53447D01*
X158404Y53264D01*
Y53228D01*
Y53137D01*
Y53028D01*
X158385Y52900D01*
X152610D01*
Y52882D01*
Y52845D01*
Y52772D01*
X152628Y52700D01*
Y52590D01*
X152646Y52463D01*
X152701Y52171D01*
X152774Y51862D01*
X152901Y51534D01*
X153065Y51224D01*
X153302Y50950D01*
X153339Y50914D01*
X153430Y50841D01*
X153594Y50732D01*
X153830Y50623D01*
X154122Y50495D01*
X154468Y50386D01*
X154869Y50313D01*
X155343Y50276D01*
X155798D01*
X156053Y50295D01*
X156108D01*
X156181Y50313D01*
X156272D01*
X156509Y50349D01*
X156746Y50367D01*
X156764D01*
X156800Y50386D01*
X156873D01*
X156964Y50404D01*
X157165Y50440D01*
X157402Y50477D01*
X157420D01*
X157456Y50495D01*
X157511Y50513D01*
X157584Y50532D01*
X157784Y50568D01*
X157985Y50623D01*
Y49457D01*
X157966D01*
X157875Y49438D01*
X157766Y49402D01*
X157602Y49365D01*
X157402Y49329D01*
X157183Y49274D01*
X156928Y49238D01*
X156655Y49201D01*
X156618D01*
X156527Y49183D01*
X156381Y49165D01*
X156199Y49147D01*
X155962Y49128D01*
X155707Y49110D01*
X155434Y49092D01*
X154960D01*
X154760Y49110D01*
X154523Y49128D01*
X154231Y49165D01*
X153921Y49201D01*
X153612Y49274D01*
X153320Y49365D01*
X153284Y49384D01*
X153193Y49420D01*
X153047Y49493D01*
X152883Y49584D01*
X152682Y49693D01*
X152464Y49839D01*
X152263Y50003D01*
X152063Y50204D01*
X152045Y50222D01*
X151990Y50295D01*
X151899Y50422D01*
X151790Y50568D01*
X151662Y50768D01*
X151553Y50987D01*
X151425Y51260D01*
X151334Y51534D01*
Y51552D01*
Y51570D01*
X151298Y51679D01*
X151261Y51843D01*
X151225Y52062D01*
X151189Y52335D01*
X151152Y52627D01*
X151134Y52973D01*
X151116Y53337D01*
Y53356D01*
Y53374D01*
Y53483D01*
X151134Y53647D01*
X151152Y53866D01*
X151170Y54103D01*
X151225Y54376D01*
X151280Y54667D01*
X151353Y54959D01*
Y54977D01*
X151371Y54995D01*
X151407Y55086D01*
X151462Y55232D01*
X151535Y55433D01*
X151644Y55633D01*
X151771Y55870D01*
X151917Y56107D01*
X152081Y56325D01*
X152100Y56344D01*
X152172Y56416D01*
X152282Y56526D01*
X152409Y56672D01*
X152591Y56817D01*
X152792Y56981D01*
X153010Y57127D01*
X153266Y57273D01*
X153302Y57291D01*
X153393Y57328D01*
X153539Y57382D01*
X153721Y57455D01*
X153958Y57510D01*
X154231Y57564D01*
X154523Y57601D01*
X154851Y57619D01*
X154997D01*
X155160Y57601D01*
D02*
G37*
%LPC*%
G36*
X228277Y58712D02*
X226911D01*
Y55178D01*
X228259D01*
X228387Y55196D01*
X228532D01*
X228696Y55232D01*
X229006Y55287D01*
X229024D01*
X229079Y55305D01*
X229152Y55342D01*
X229261Y55378D01*
X229480Y55487D01*
X229717Y55633D01*
X229735Y55651D01*
X229771Y55669D01*
X229826Y55724D01*
X229881Y55797D01*
X230026Y55979D01*
X230172Y56198D01*
Y56216D01*
X230190Y56252D01*
X230227Y56325D01*
X230263Y56435D01*
X230281Y56544D01*
X230318Y56690D01*
X230336Y57000D01*
Y57018D01*
Y57036D01*
Y57145D01*
X230300Y57291D01*
X230263Y57473D01*
X230209Y57692D01*
X230099Y57892D01*
X229972Y58093D01*
X229790Y58275D01*
X229771Y58293D01*
X229698Y58348D01*
X229571Y58421D01*
X229407Y58494D01*
X229188Y58566D01*
X228933Y58639D01*
X228624Y58694D01*
X228277Y58712D01*
D02*
G37*
G36*
X138125Y52991D02*
X136121D01*
X135993Y52973D01*
X135702Y52955D01*
X135392Y52882D01*
X135373D01*
X135337Y52864D01*
X135264Y52845D01*
X135173Y52809D01*
X134955Y52700D01*
X134754Y52572D01*
X134736D01*
X134718Y52536D01*
X134626Y52445D01*
X134499Y52281D01*
X134390Y52098D01*
Y52080D01*
X134371Y52044D01*
X134353Y51989D01*
X134335Y51916D01*
X134299Y51716D01*
X134280Y51479D01*
Y51461D01*
Y51442D01*
X134299Y51333D01*
X134317Y51187D01*
X134353Y51023D01*
Y51005D01*
X134371Y50987D01*
X134408Y50896D01*
X134481Y50768D01*
X134590Y50623D01*
X134626Y50604D01*
X134699Y50532D01*
X134845Y50440D01*
X135009Y50367D01*
X135027D01*
X135064Y50349D01*
X135118Y50331D01*
X135191D01*
X135392Y50295D01*
X135647Y50276D01*
X135738D01*
X135829Y50295D01*
X135975Y50313D01*
X136139Y50349D01*
X136339Y50404D01*
X136540Y50477D01*
X136776Y50568D01*
X136813Y50586D01*
X136886Y50623D01*
X137013Y50695D01*
X137177Y50805D01*
X137378Y50932D01*
X137615Y51096D01*
X137870Y51279D01*
X138125Y51515D01*
Y52991D01*
D02*
G37*
G36*
X209802Y58731D02*
X208326D01*
Y54321D01*
X209802D01*
X209893Y54339D01*
X210003D01*
X210130Y54358D01*
X210403Y54394D01*
X210732Y54467D01*
X211059Y54558D01*
X211387Y54704D01*
X211679Y54886D01*
X211715Y54904D01*
X211788Y54995D01*
X211897Y55123D01*
X212043Y55305D01*
X212171Y55560D01*
X212280Y55852D01*
X212353Y56198D01*
X212389Y56599D01*
Y56617D01*
Y56635D01*
Y56690D01*
X212371Y56763D01*
X212353Y56945D01*
X212298Y57182D01*
X212226Y57437D01*
X212098Y57692D01*
X211934Y57947D01*
X211697Y58166D01*
X211661Y58184D01*
X211570Y58257D01*
X211424Y58348D01*
X211205Y58457D01*
X210932Y58548D01*
X210622Y58639D01*
X210240Y58712D01*
X209802Y58731D01*
D02*
G37*
G36*
X154978Y56471D02*
X154614D01*
X154505Y56453D01*
X154377Y56435D01*
X154231Y56398D01*
X153921Y56289D01*
X153903D01*
X153867Y56252D01*
X153794Y56216D01*
X153703Y56161D01*
X153484Y55998D01*
X153266Y55779D01*
X153247Y55761D01*
X153229Y55724D01*
X153174Y55651D01*
X153102Y55560D01*
X153029Y55451D01*
X152956Y55305D01*
X152810Y54995D01*
Y54977D01*
X152792Y54922D01*
X152755Y54831D01*
X152719Y54704D01*
X152682Y54558D01*
X152664Y54376D01*
X152610Y53993D01*
X156946D01*
Y54011D01*
Y54084D01*
Y54194D01*
Y54321D01*
X156928Y54467D01*
X156910Y54631D01*
X156818Y54977D01*
Y54995D01*
X156800Y55050D01*
X156764Y55141D01*
X156727Y55251D01*
X156600Y55506D01*
X156418Y55761D01*
X156399Y55779D01*
X156363Y55815D01*
X156308Y55870D01*
X156235Y55943D01*
X156126Y56034D01*
X156017Y56107D01*
X155725Y56271D01*
X155707Y56289D01*
X155652Y56307D01*
X155561Y56344D01*
X155452Y56380D01*
X155324Y56416D01*
X155160Y56435D01*
X154978Y56471D01*
D02*
G37*
%LPD*%
D45*
X69741Y-168652D02*
X85150Y-184062D01*
X52650Y-151562D02*
X69741Y-168652D01*
X40550Y-157562D02*
Y-151562D01*
X52650D01*
X130550Y-226062D02*
Y-224062D01*
Y-181962D02*
Y-155062D01*
Y-278762D02*
Y-224962D01*
X17750Y-199362D02*
X17950Y-199562D01*
X106050D01*
X130550Y-224062D01*
X85150Y-184062D02*
X95150D01*
X128450D01*
X130550Y-181962D01*
Y-155062D02*
X138250Y-147362D01*
X215450D01*
X238750Y-170662D01*
Y-242562D02*
Y-170662D01*
X181050Y-300262D02*
X238750Y-242562D01*
X152050Y-300262D02*
X181050D01*
X130550Y-278762D02*
X152050Y-300262D01*
X309650Y-337562D02*
Y-31162D01*
D52*
X200138Y-149758D02*
X200794Y-149102D01*
X202106D01*
X202762Y-149758D01*
Y-150414D01*
X202106Y-151070D01*
X201450D01*
X202106D01*
X202762Y-151726D01*
Y-152382D01*
X202106Y-153038D01*
X200794D01*
X200138Y-152382D01*
X204074Y-149102D02*
Y-151726D01*
X205385Y-153038D01*
X206697Y-151726D01*
Y-149102D01*
X208009Y-149758D02*
X208665Y-149102D01*
X209977D01*
X210633Y-149758D01*
Y-150414D01*
X209977Y-151070D01*
X209321D01*
X209977D01*
X210633Y-151726D01*
Y-152382D01*
X209977Y-153038D01*
X208665D01*
X208009Y-152382D01*
X211945Y-153693D02*
X214569D01*
X200138Y-160306D02*
Y-157682D01*
X201450Y-156370D01*
X202762Y-157682D01*
Y-160306D01*
Y-158338D01*
X200138D01*
X204074Y-156370D02*
Y-160306D01*
X206041D01*
X206697Y-159650D01*
Y-157026D01*
X206041Y-156370D01*
X204074D01*
X210633Y-157026D02*
X209977Y-156370D01*
X208665D01*
X208009Y-157026D01*
Y-159650D01*
X208665Y-160306D01*
X209977D01*
X210633Y-159650D01*
X214569Y-157026D02*
X213913Y-156370D01*
X212601D01*
X211945Y-157026D01*
Y-157682D01*
X212601Y-158338D01*
X213913D01*
X214569Y-158994D01*
Y-159650D01*
X213913Y-160306D01*
X212601D01*
X211945Y-159650D01*
X200138Y-167575D02*
X202762D01*
X204074Y-162983D02*
Y-166263D01*
X204730Y-166919D01*
X206041D01*
X206697Y-166263D01*
Y-162983D01*
X210633Y-163639D02*
X209977Y-162983D01*
X208665D01*
X208009Y-163639D01*
Y-164295D01*
X208665Y-164951D01*
X209977D01*
X210633Y-165607D01*
Y-166263D01*
X209977Y-166919D01*
X208665D01*
X208009Y-166263D01*
X211945Y-162983D02*
Y-166919D01*
X213913D01*
X214569Y-166263D01*
Y-165607D01*
X213913Y-164951D01*
X211945D01*
X213913D01*
X214569Y-164295D01*
Y-163639D01*
X213913Y-162983D01*
X211945D01*
X2550Y-264726D02*
Y-267350D01*
X3862Y-268662D01*
X5174Y-267350D01*
Y-264726D01*
X9110Y-265382D02*
X8454Y-264726D01*
X7142D01*
X6486Y-265382D01*
Y-268006D01*
X7142Y-268662D01*
X8454D01*
X9110Y-268006D01*
X13046Y-265382D02*
X12390Y-264726D01*
X11078D01*
X10422Y-265382D01*
Y-268006D01*
X11078Y-268662D01*
X12390D01*
X13046Y-268006D01*
X14358Y-269318D02*
X16982D01*
X18293Y-268662D02*
Y-264726D01*
X19605Y-266038D01*
X20917Y-264726D01*
Y-268662D01*
X24853Y-265382D02*
X24197Y-264726D01*
X22885D01*
X22229Y-265382D01*
Y-268006D01*
X22885Y-268662D01*
X24197D01*
X24853Y-268006D01*
X26165Y-264726D02*
Y-268006D01*
X26821Y-268662D01*
X28133D01*
X28789Y-268006D01*
Y-264726D01*
X333550Y-313894D02*
X336174D01*
X334862Y-312582D02*
Y-315206D01*
X340110Y-311926D02*
X337486D01*
Y-313894D01*
X338798Y-313238D01*
X339454D01*
X340110Y-313894D01*
Y-315206D01*
X339454Y-315862D01*
X338142D01*
X337486Y-315206D01*
X341422Y-311926D02*
Y-314550D01*
X342734Y-315862D01*
X344046Y-314550D01*
Y-311926D01*
X345358Y-316518D02*
X347982D01*
X351917Y-312582D02*
X351261Y-311926D01*
X349949D01*
X349293Y-312582D01*
Y-313238D01*
X349949Y-313894D01*
X351261D01*
X351917Y-314550D01*
Y-315206D01*
X351261Y-315862D01*
X349949D01*
X349293Y-315206D01*
X353229Y-311926D02*
Y-312582D01*
X354541Y-313894D01*
X355853Y-312582D01*
Y-311926D01*
X354541Y-313894D02*
Y-315862D01*
X359789Y-312582D02*
X359133Y-311926D01*
X357821D01*
X357165Y-312582D01*
Y-313238D01*
X357821Y-313894D01*
X359133D01*
X359789Y-314550D01*
Y-315206D01*
X359133Y-315862D01*
X357821D01*
X357165Y-315206D01*
D68*
X7500Y-334962D02*
G03*
X20000Y-347462I12500J0D01*
G01*
X46447D02*
G03*
X51147Y-342762I0J4700D01*
G01*
X55847Y-333962D02*
G03*
X51147Y-338662I0J-4700D01*
G01*
X137100D02*
G03*
X132400Y-333962I-4700J0D01*
G01*
X137100Y-350262D02*
G03*
X141800Y-354962I4700J0D01*
G01*
X165400D02*
G03*
X170100Y-350262I0J4700D01*
G01*
X174800Y-336500D02*
G03*
X170100Y-341200I0J-4700D01*
G01*
X206300D02*
G03*
X201600Y-336500I-4700J0D01*
G01*
X206300Y-350262D02*
G03*
X211000Y-354962I4700J0D01*
G01*
X234800D02*
G03*
X239500Y-350262I0J4700D01*
G01*
X244200Y-333962D02*
G03*
X239500Y-338662I0J-4700D01*
G01*
X277500Y-333962D02*
G03*
X281897Y-337001I4397J1661D01*
G01*
X372800D02*
G03*
X377500Y-332301I0J4700D01*
G01*
Y-272950D02*
G03*
X378601Y-269928I-3600J3022D01*
G01*
Y-252150D02*
G03*
X373901Y-247450I-4700J0D01*
G01*
X366000Y-242750D02*
G03*
X370700Y-247450I4700J0D01*
G01*
Y-116450D02*
G03*
X366000Y-121150I0J-4700D01*
G01*
X373901Y-116450D02*
G03*
X378601Y-111750I0J4700D01*
G01*
Y-93972D02*
G03*
X377500Y-90950I-4700J0D01*
G01*
Y-27162D02*
G03*
X372800Y-22462I-4700J0D01*
G01*
X331597D02*
G03*
X326949Y-26467I0J-4700D01*
G01*
X322313Y-30462D02*
G03*
X326949Y-26467I0J4688D01*
G01*
X229000Y-25762D02*
G03*
X233700Y-30462I4700J0D01*
G01*
X229000Y-12162D02*
G03*
X224300Y-7462I-4700J0D01*
G01*
X123950Y-2762D02*
G03*
X128650Y-7462I4700J0D01*
G01*
X123950Y3200D02*
G03*
X119250Y7900I-4700J0D01*
G01*
X102650D02*
G03*
X97950Y3200I0J-4700D01*
G01*
X93250Y-7462D02*
G03*
X97950Y-2762I0J4700D01*
G01*
X20000Y-7462D02*
G03*
X18834Y-32408I0J-12500D01*
G01*
X41500Y-57298D02*
G03*
X18834Y-32408I-25000J0D01*
G01*
X36813Y-158881D02*
G03*
X41500Y-154193I0J4688D01*
G01*
X22689Y-158881D02*
G03*
X18001Y-163568I0J-4688D01*
G01*
X13302Y-247450D02*
G03*
X18001Y-242750I0J4700D01*
G01*
X3600Y-247450D02*
G03*
X-1100Y-252150I0J-4700D01*
G01*
Y-268250D02*
G03*
X3200Y-272933I4700J0D01*
G01*
X7500Y-277616D02*
G03*
X3200Y-272933I-4700J0D01*
G01*
X141800Y-354962D02*
X165400D01*
X170100Y-350262D02*
Y-341200D01*
X174800Y-336500D02*
X201600D01*
X206300Y-350262D02*
Y-341200D01*
X211000Y-354962D02*
X234800D01*
X55847Y-333962D02*
X132400D01*
X137100Y-350262D02*
Y-338662D01*
X239500Y-350262D02*
Y-338662D01*
X244200Y-333962D02*
X277500D01*
X3200Y-272933D02*
X3200Y-272933D01*
X7500Y-334962D02*
Y-277616D01*
X20000Y-347462D02*
X46447D01*
X51147Y-342762D02*
Y-338662D01*
X281897Y-337001D02*
X372800D01*
X377500Y-332301D02*
Y-272950D01*
X378601Y-269928D02*
Y-252150D01*
X370700Y-247450D02*
X373901D01*
X366000Y-242750D02*
Y-121150D01*
X370700Y-116450D02*
X373901D01*
X378601Y-111750D02*
Y-93972D01*
X377500Y-90950D02*
Y-27162D01*
X331597Y-22462D02*
X372800D01*
X233700Y-30462D02*
X322313D01*
X229000Y-25762D02*
Y-12162D01*
X128650Y-7462D02*
X224300D01*
X123950Y-2762D02*
Y3200D01*
X102650Y7900D02*
X119250D01*
X97950Y-2762D02*
Y3200D01*
X20000Y-7462D02*
X93250D01*
X41500Y-154193D02*
Y-57298D01*
X22689Y-158881D02*
X36813D01*
X18001Y-242750D02*
Y-163568D01*
X3600Y-247450D02*
X13302D01*
X-1100Y-268250D02*
Y-252150D01*
D69*
X46850Y-257962D02*
D03*
D70*
X357505Y-34957D02*
D03*
X20005Y-334957D02*
D03*
Y-19957D02*
D03*
X357505Y-324957D02*
D03*
D71*
X334505Y-34957D02*
D03*
X43005Y-334957D02*
D03*
Y-19957D02*
D03*
X334505Y-324957D02*
D03*
D72*
X337500Y-185000D02*
D03*
Y-195000D02*
D03*
Y-215000D02*
D03*
Y-205000D02*
D03*
Y-225000D02*
D03*
Y-235000D02*
D03*
Y-245000D02*
D03*
Y-255000D02*
D03*
Y-265000D02*
D03*
Y-275000D02*
D03*
X327500D02*
D03*
Y-265000D02*
D03*
Y-255000D02*
D03*
Y-245000D02*
D03*
Y-235000D02*
D03*
Y-225000D02*
D03*
Y-205000D02*
D03*
Y-215000D02*
D03*
Y-195000D02*
D03*
Y-95000D02*
D03*
Y-105000D02*
D03*
Y-115000D02*
D03*
Y-125000D02*
D03*
Y-135000D02*
D03*
Y-145000D02*
D03*
Y-165000D02*
D03*
Y-155000D02*
D03*
Y-175000D02*
D03*
Y-185000D02*
D03*
X337500Y-85000D02*
D03*
Y-95000D02*
D03*
Y-105000D02*
D03*
Y-115000D02*
D03*
Y-125000D02*
D03*
Y-135000D02*
D03*
Y-145000D02*
D03*
Y-165000D02*
D03*
Y-155000D02*
D03*
Y-175000D02*
D03*
X327500Y-285000D02*
D03*
Y-295000D02*
D03*
Y-305000D02*
D03*
X337500D02*
D03*
Y-295000D02*
D03*
Y-285000D02*
D03*
Y-75000D02*
D03*
X327500D02*
D03*
Y-85000D02*
D03*
X337500Y-65000D02*
D03*
Y-55000D02*
D03*
X327500D02*
D03*
Y-65000D02*
D03*
X357500Y-185000D02*
D03*
Y-195000D02*
D03*
Y-215000D02*
D03*
Y-205000D02*
D03*
Y-225000D02*
D03*
Y-235000D02*
D03*
Y-245000D02*
D03*
Y-255000D02*
D03*
Y-265000D02*
D03*
Y-275000D02*
D03*
X347500D02*
D03*
Y-265000D02*
D03*
Y-255000D02*
D03*
Y-245000D02*
D03*
Y-235000D02*
D03*
Y-225000D02*
D03*
Y-205000D02*
D03*
Y-215000D02*
D03*
Y-195000D02*
D03*
Y-95000D02*
D03*
Y-105000D02*
D03*
Y-115000D02*
D03*
Y-125000D02*
D03*
Y-135000D02*
D03*
Y-145000D02*
D03*
Y-165000D02*
D03*
Y-155000D02*
D03*
Y-185000D02*
D03*
X357500Y-85000D02*
D03*
Y-95000D02*
D03*
Y-105000D02*
D03*
Y-115000D02*
D03*
Y-125000D02*
D03*
Y-135000D02*
D03*
Y-145000D02*
D03*
Y-165000D02*
D03*
Y-155000D02*
D03*
X347500Y-285000D02*
D03*
Y-295000D02*
D03*
Y-305000D02*
D03*
X357500D02*
D03*
Y-295000D02*
D03*
Y-285000D02*
D03*
Y-75000D02*
D03*
X347500D02*
D03*
Y-85000D02*
D03*
X357500Y-65000D02*
D03*
Y-55000D02*
D03*
X347500D02*
D03*
Y-65000D02*
D03*
D73*
Y-175000D02*
D03*
X357500D02*
D03*
D74*
X77700Y-286111D02*
D03*
Y-262489D02*
D03*
X60000Y-86389D02*
D03*
Y-110011D02*
D03*
X123611Y-25000D02*
D03*
X99989D02*
D03*
X164800Y-142593D02*
D03*
Y-229207D02*
D03*
X208700Y-138693D02*
D03*
Y-225307D02*
D03*
D76*
X288250Y-92062D02*
D03*
D77*
X87237Y-13175D02*
D03*
X54363D02*
D03*
X170037Y-349925D02*
D03*
X137163D02*
D03*
X54363Y-13175D02*
D03*
X87237D02*
D03*
X239337Y-349925D02*
D03*
X206463D02*
D03*
X45850Y-225862D02*
D03*
X368650Y-256162D02*
D03*
X369250Y-85462D02*
D03*
X367550Y-65062D02*
D03*
D79*
X270000Y-310000D02*
D03*
X275000Y-315000D02*
D03*
X265000D02*
D03*
X275000Y-305000D02*
D03*
X265000D02*
D03*
X310000Y-51500D02*
D03*
X315000Y-56500D02*
D03*
X305000D02*
D03*
X315000Y-46500D02*
D03*
X305000D02*
D03*
D81*
X275000Y-51500D02*
D03*
D83*
X187757Y-310806D02*
D03*
X124797D02*
D03*
D84*
X120862Y-306868D02*
D03*
Y-314743D02*
D03*
X128732D02*
D03*
Y-306868D02*
D03*
X136602Y-314743D02*
D03*
Y-306868D02*
D03*
X144472Y-314743D02*
D03*
Y-306868D02*
D03*
X152342Y-314743D02*
D03*
Y-306868D02*
D03*
X160212Y-314743D02*
D03*
Y-306868D02*
D03*
X168082Y-314743D02*
D03*
Y-306868D02*
D03*
X175952Y-314743D02*
D03*
Y-306868D02*
D03*
X183822Y-314743D02*
D03*
Y-306868D02*
D03*
X191692Y-314743D02*
D03*
Y-306868D02*
D03*
D85*
X45650Y-238150D02*
D03*
X39000Y-242400D02*
D03*
X49000Y-137400D02*
D03*
X71700Y-132000D02*
D03*
X74400Y-144000D02*
D03*
X211700Y-342900D02*
D03*
X208800Y-344400D02*
D03*
X150800Y-347000D02*
D03*
X151200Y-205500D02*
D03*
X150900Y-197800D02*
D03*
X167457Y-221300D02*
D03*
X226100Y-210800D02*
D03*
X222600Y-209700D02*
D03*
X233550Y-203762D02*
D03*
X189100Y-185800D02*
D03*
X188100Y-158800D02*
D03*
X186800Y-171100D02*
D03*
X165700Y-179900D02*
D03*
X172750Y-189962D02*
D03*
X176550Y-197762D02*
D03*
X178000Y-182100D02*
D03*
X180900D02*
D03*
X189950Y-209462D02*
D03*
X190950Y-213562D02*
D03*
X184100Y-181900D02*
D03*
X184435Y-162278D02*
D03*
X186691Y-205622D02*
D03*
X163300Y-173900D02*
D03*
X169370Y-158362D02*
D03*
X144886Y-174798D02*
D03*
X142500Y-154500D02*
D03*
Y-158300D02*
D03*
X134050Y-164800D02*
D03*
X154400Y-174200D02*
D03*
X51300Y-318500D02*
D03*
X34300Y-313800D02*
D03*
X105500Y-316600D02*
D03*
X50300Y-304900D02*
D03*
X39700Y-304904D02*
D03*
X225359Y-345471D02*
D03*
X222800Y-343012D02*
D03*
X153600D02*
D03*
X156159Y-345471D02*
D03*
X40150Y-262962D02*
D03*
X49250Y-110062D02*
D03*
X81350Y-107162D02*
D03*
X97950Y-109962D02*
D03*
X146790Y-19767D02*
D03*
X142050Y-25862D02*
D03*
X52760Y-50971D02*
D03*
X71150Y-49162D02*
D03*
X49750Y-50962D02*
D03*
X90577Y-25636D02*
D03*
X215050Y-345662D02*
D03*
X83093Y-28842D02*
D03*
X85450Y-27262D02*
D03*
X97850Y-216362D02*
D03*
X219450Y-347862D02*
D03*
X52150Y-53762D02*
D03*
X144550Y-277362D02*
D03*
X132750Y-293262D02*
D03*
X98650Y-149462D02*
D03*
X110350Y-93062D02*
D03*
X71150Y-33362D02*
D03*
X100950Y-141962D02*
D03*
X312308Y-155562D02*
D03*
X312336Y-162162D02*
D03*
X283250Y-161062D02*
D03*
X278950Y-151662D02*
D03*
X317250Y-141862D02*
D03*
X284850Y-186262D02*
D03*
X125650Y-179562D02*
D03*
X189100Y-188800D02*
D03*
X208050Y-159662D02*
D03*
X159950Y-158262D02*
D03*
X128550Y-141962D02*
D03*
X134050Y-158562D02*
D03*
X266350Y-115562D02*
D03*
X284850Y-115162D02*
D03*
X263550Y-151962D02*
D03*
X317650Y-329662D02*
D03*
X100550Y-213962D02*
D03*
X44500Y-64200D02*
D03*
X47750Y-118362D02*
D03*
X50550Y-117962D02*
D03*
X48950Y-156162D02*
D03*
X166150Y-295762D02*
D03*
X74550Y-122262D02*
D03*
X82250Y-286162D02*
D03*
X86005Y-286157D02*
D03*
X89250Y-286162D02*
D03*
X94950Y-264862D02*
D03*
X93250Y-286062D02*
D03*
X44550Y-273062D02*
D03*
X45950Y-281762D02*
D03*
X96350Y-240462D02*
D03*
X82250Y-162362D02*
D03*
X99650Y-144662D02*
D03*
X117650Y-146262D02*
D03*
X88250Y-28162D02*
D03*
X46950Y-50962D02*
D03*
X266450Y-119162D02*
D03*
X160050Y-267062D02*
D03*
X295550Y-94662D02*
D03*
X295750Y-146962D02*
D03*
X75550Y-149562D02*
D03*
X82850Y-176262D02*
D03*
X211150Y-292862D02*
D03*
X183750Y-298098D02*
D03*
X179850Y-295962D02*
D03*
X302050Y-73762D02*
D03*
X185850Y-243162D02*
D03*
X179550Y-270062D02*
D03*
X214093Y-271801D02*
D03*
X263350Y-211162D02*
D03*
X112950Y-77562D02*
D03*
X150150Y-267462D02*
D03*
X135850Y-13462D02*
D03*
X158250Y-28362D02*
D03*
X188650Y-150162D02*
D03*
X229950Y-175262D02*
D03*
X182850Y-245562D02*
D03*
X181350Y-142662D02*
D03*
X266050Y-229562D02*
D03*
X169250Y-105762D02*
D03*
X147050Y-210962D02*
D03*
X173850Y-71562D02*
D03*
X226650Y-175062D02*
D03*
X362650Y-70662D02*
D03*
X102050Y-285662D02*
D03*
X82315Y-153127D02*
D03*
X123250Y-187562D02*
D03*
X126050Y-202562D02*
D03*
X49805Y-179857D02*
D03*
X79650Y-188462D02*
D03*
X76350Y-233762D02*
D03*
X181050Y-78462D02*
D03*
X190209Y-88403D02*
D03*
X174350Y-117762D02*
D03*
X156350Y-278062D02*
D03*
X140650Y-270162D02*
D03*
X128050Y-200462D02*
D03*
X130050Y-198362D02*
D03*
X145403Y-63009D02*
D03*
X99650Y-106662D02*
D03*
X113750Y-214862D02*
D03*
X115750Y-212762D02*
D03*
X117750Y-210662D02*
D03*
X39350Y-35862D02*
D03*
X190050Y-66962D02*
D03*
X222650Y-24662D02*
D03*
X171466Y-28178D02*
D03*
X205950Y-81262D02*
D03*
X203950Y-83362D02*
D03*
X201950Y-85462D02*
D03*
X207950Y-79162D02*
D03*
X209950Y-77062D02*
D03*
X217650Y-217462D02*
D03*
X51050Y-286462D02*
D03*
X37161Y-295952D02*
D03*
X42450Y-296062D02*
D03*
X42750Y-299962D02*
D03*
X181250Y-83962D02*
D03*
X160850Y-99962D02*
D03*
X175850Y-129762D02*
D03*
X174750Y-121562D02*
D03*
X169286Y-109327D02*
D03*
X232150Y-288962D02*
D03*
X168450Y-83862D02*
D03*
X176350Y-115662D02*
D03*
X178350Y-113562D02*
D03*
X171466Y-83878D02*
D03*
X186472Y-63341D02*
D03*
X186372Y-58741D02*
D03*
X184172Y-61041D02*
D03*
X210250Y-97562D02*
D03*
X302450Y-185362D02*
D03*
X299494Y-119006D02*
D03*
X294550Y-123862D02*
D03*
X298950Y-185362D02*
D03*
X293671Y-126683D02*
D03*
X319148Y-193960D02*
D03*
X312365Y-168762D02*
D03*
X312322Y-158862D02*
D03*
X291450Y-220662D02*
D03*
X287615Y-225198D02*
D03*
X231423Y-182690D02*
D03*
X320850Y-285062D02*
D03*
X287050Y-333362D02*
D03*
X283310Y-325562D02*
D03*
X290650Y-325562D02*
D03*
X319950Y-315562D02*
D03*
X319750Y-307362D02*
D03*
X300686Y-311827D02*
D03*
X304850Y-288862D02*
D03*
X323650Y-260262D02*
D03*
X292615Y-292962D02*
D03*
X307450Y-311462D02*
D03*
X309550Y-296962D02*
D03*
X286150Y-305462D02*
D03*
X261250Y-318962D02*
D03*
X308950Y-273662D02*
D03*
X298850Y-283762D02*
D03*
X311250Y-267362D02*
D03*
X312350Y-165462D02*
D03*
X304650Y-151962D02*
D03*
X319150Y-120662D02*
D03*
X203650Y-317562D02*
D03*
Y-302362D02*
D03*
X114910Y-313802D02*
D03*
X229150Y-258062D02*
D03*
X210550Y-265501D02*
D03*
X214093D02*
D03*
X210550Y-271801D02*
D03*
X230150Y-266778D02*
D03*
X228050Y-269062D02*
D03*
X198598Y-271115D02*
D03*
X120850Y-252662D02*
D03*
X196450Y-269262D02*
D03*
Y-266362D02*
D03*
X198450Y-264409D02*
D03*
X208750Y-221162D02*
D03*
X208300Y-254500D02*
D03*
X220986Y-249162D02*
D03*
X227050Y-248562D02*
D03*
X239250Y-172562D02*
D03*
X241350Y-191262D02*
D03*
X147428Y-182985D02*
D03*
X216150Y-247162D02*
D03*
X139250Y-264962D02*
D03*
X89850Y-22862D02*
D03*
X36550Y-35662D02*
D03*
X110350Y-90262D02*
D03*
X298350Y-94762D02*
D03*
X292750Y-93962D02*
D03*
X186650Y-297162D02*
D03*
X300750Y-76262D02*
D03*
X168850Y-243262D02*
D03*
X37376Y-256037D02*
D03*
X77650Y-256862D02*
D03*
X139150Y-25862D02*
D03*
X155450Y-282762D02*
D03*
X169250Y-282662D02*
D03*
X160750Y-310862D02*
D03*
X168650Y-311162D02*
D03*
X181650Y-282662D02*
D03*
X179050Y-285262D02*
D03*
X169150Y-285862D02*
D03*
X163850Y-285262D02*
D03*
X175952Y-278164D02*
D03*
X173668Y-276445D02*
D03*
X171350Y-278162D02*
D03*
X164150D02*
D03*
X162450Y-282662D02*
D03*
X101550Y-291262D02*
D03*
X75150Y-132862D02*
D03*
X71750Y-135262D02*
D03*
X161500Y-221300D02*
D03*
X172800Y-213500D02*
D03*
X132050Y-196262D02*
D03*
X129500Y-194300D02*
D03*
X163650Y-74262D02*
D03*
X155550Y-64162D02*
D03*
X166000Y-68500D02*
D03*
X156540Y-58972D02*
D03*
X29600Y-164200D02*
D03*
X161100Y-50000D02*
D03*
X155050Y-61362D02*
D03*
X158800Y-54700D02*
D03*
X174800Y-76400D02*
D03*
X172300Y-74100D02*
D03*
X224100Y-71600D02*
D03*
X227100Y-74500D02*
D03*
X269300Y-46800D02*
D03*
X245200Y-52700D02*
D03*
X258800Y-55000D02*
D03*
X207799Y-213494D02*
D03*
X207500Y-216400D02*
D03*
X166800Y-54200D02*
D03*
X164350Y-83962D02*
D03*
X73700Y-146800D02*
D03*
X50500Y-161400D02*
D03*
X31900Y-177700D02*
D03*
X40300Y-175100D02*
D03*
X152600Y-48700D02*
D03*
X266000Y-180700D02*
D03*
X265703Y-155514D02*
D03*
X143900Y-244000D02*
D03*
X174400Y-244600D02*
D03*
X145000Y-247900D02*
D03*
X274900Y-249600D02*
D03*
X173000Y-229200D02*
D03*
X143200Y-233900D02*
D03*
X172450Y-266662D02*
D03*
X131500Y-255400D02*
D03*
X101700Y-155600D02*
D03*
X97600Y-146600D02*
D03*
X73500Y-125100D02*
D03*
X99900Y-15200D02*
D03*
X115700Y-46500D02*
D03*
X138900Y-50600D02*
D03*
X148230Y-22242D02*
D03*
D86*
X162800Y-344700D02*
D03*
X229700Y-208000D02*
D03*
X184009Y-154404D02*
D03*
X227918Y-348694D02*
D03*
X86400Y-253712D02*
D03*
X111350Y-47862D02*
D03*
X136602Y-296880D02*
D03*
X50750Y-77662D02*
D03*
X99250Y-199762D02*
D03*
X48950Y-60062D02*
D03*
X323950Y-219962D02*
D03*
X121750Y-150162D02*
D03*
X79350Y-173762D02*
D03*
X211350Y-299662D02*
D03*
X194650Y-311162D02*
D03*
X179250Y-274162D02*
D03*
X146450Y-113962D02*
D03*
X118650Y-88262D02*
D03*
X278150Y-193827D02*
D03*
X373250Y-296462D02*
D03*
X144750Y-229762D02*
D03*
X126450Y-118862D02*
D03*
X79350Y-223362D02*
D03*
X19150Y-256962D02*
D03*
X38050Y-224962D02*
D03*
X164950Y-147762D02*
D03*
X146750Y-154404D02*
D03*
X103926Y-6638D02*
D03*
X166286Y-16627D02*
D03*
X193450Y-20562D02*
D03*
X185550Y-53262D02*
D03*
X311450Y-100962D02*
D03*
X75950Y-11962D02*
D03*
X65650Y-11762D02*
D03*
X195691Y-113422D02*
D03*
X226250Y-277362D02*
D03*
X188415Y-103898D02*
D03*
X301450Y-211262D02*
D03*
X298915Y-123427D02*
D03*
X281650Y-138062D02*
D03*
X295650Y-158362D02*
D03*
X306515Y-201898D02*
D03*
X275800Y-205312D02*
D03*
X306150Y-177462D02*
D03*
X283666Y-175946D02*
D03*
X294217Y-204196D02*
D03*
X283950Y-152662D02*
D03*
X294850Y-115362D02*
D03*
X293050Y-224462D02*
D03*
X304750Y-40362D02*
D03*
X318850Y-66762D02*
D03*
X232850Y-192827D02*
D03*
X287050Y-316762D02*
D03*
X304486Y-329598D02*
D03*
X304550Y-188562D02*
D03*
X307950Y-148162D02*
D03*
X284250Y-256762D02*
D03*
X78150Y-113962D02*
D03*
X22850Y-299662D02*
D03*
X184009Y-146530D02*
D03*
X111800Y-7113D02*
D03*
X113491Y-300302D02*
D03*
X276200Y-240413D02*
D03*
X128732Y-296880D02*
D03*
X191950Y-267662D02*
D03*
X213450Y-289662D02*
D03*
X320850Y-84362D02*
D03*
X160550Y-296662D02*
D03*
X102650Y-299562D02*
D03*
X35600Y-184700D02*
D03*
X39750Y-180662D02*
D03*
X236900Y-208800D02*
D03*
X284100Y-244100D02*
D03*
X168950Y-268762D02*
D03*
D90*
X270000Y-282500D02*
D03*
Y-82500D02*
D03*
D91*
X125800Y-60000D02*
D03*
D92*
X79560Y-25478D02*
D03*
X62040D02*
D03*
X162360Y-337622D02*
D03*
X144840D02*
D03*
X62040Y-25478D02*
D03*
X79560D02*
D03*
X231660Y-337622D02*
D03*
X214140D02*
D03*
D93*
X316304Y-277000D02*
D03*
X289296D02*
D03*
D94*
X285000Y-61500D02*
D03*
Y-41500D02*
D03*
X265000D02*
D03*
Y-61500D02*
D03*
D95*
X223800Y-55000D02*
D03*
X88800D02*
D03*
X223700Y-310000D02*
D03*
X88800D02*
D03*
D96*
X204250Y-326000D02*
D03*
X195000Y-330962D02*
D03*
X175250D02*
D03*
X73936Y-315895D02*
D03*
X165375Y-330962D02*
D03*
X160550Y-351260D02*
D03*
X113306Y-241092D02*
D03*
X34200Y-173100D02*
D03*
X61750Y-61463D02*
D03*
X152250Y-94262D02*
D03*
X160438Y-325962D02*
D03*
X244350Y-33462D02*
D03*
X249250Y-38462D02*
D03*
X254250Y-33462D02*
D03*
X234450D02*
D03*
X239400Y-38462D02*
D03*
X204750Y-33462D02*
D03*
X209700Y-38462D02*
D03*
X214650Y-33462D02*
D03*
X219600Y-38462D02*
D03*
X184950Y-33462D02*
D03*
X189900Y-38462D02*
D03*
X194850Y-33462D02*
D03*
X199800Y-38462D02*
D03*
X165150Y-33462D02*
D03*
X175050D02*
D03*
X180000Y-38462D02*
D03*
X145350Y-33462D02*
D03*
X150300Y-38462D02*
D03*
X155250Y-33462D02*
D03*
X160200Y-38462D02*
D03*
X135450Y-33462D02*
D03*
X90900Y-38462D02*
D03*
X81000D02*
D03*
X249250Y-47887D02*
D03*
X254250Y-42912D02*
D03*
X249250Y-67787D02*
D03*
X254250Y-62812D02*
D03*
X249250Y-57837D02*
D03*
X254250Y-82712D02*
D03*
X249250Y-77737D02*
D03*
X254250Y-72762D02*
D03*
X249250Y-107587D02*
D03*
Y-127487D02*
D03*
X254250Y-122512D02*
D03*
X249250Y-117537D02*
D03*
X254250Y-112562D02*
D03*
X249250Y-147387D02*
D03*
X254250Y-142412D02*
D03*
X249250Y-137437D02*
D03*
X254250Y-132462D02*
D03*
X249250Y-167287D02*
D03*
X254250Y-152362D02*
D03*
X249250Y-187187D02*
D03*
X254250Y-182212D02*
D03*
X249250Y-177237D02*
D03*
X254250Y-172262D02*
D03*
X249250Y-207087D02*
D03*
X254250Y-202112D02*
D03*
X249250Y-197137D02*
D03*
X254250Y-192162D02*
D03*
X249250Y-226987D02*
D03*
X254250Y-222012D02*
D03*
X249250Y-217037D02*
D03*
X254250Y-212062D02*
D03*
X249250Y-246887D02*
D03*
X254250Y-241912D02*
D03*
X249250Y-236937D02*
D03*
X254250Y-231962D02*
D03*
Y-251862D02*
D03*
X249250Y-286687D02*
D03*
X254250Y-281712D02*
D03*
X249250Y-276737D02*
D03*
X254250Y-271762D02*
D03*
X249250Y-306587D02*
D03*
X254250Y-301612D02*
D03*
X249250Y-296637D02*
D03*
X254250Y-291662D02*
D03*
X249250Y-325962D02*
D03*
X254250Y-321512D02*
D03*
X249250Y-316537D02*
D03*
X254250Y-311562D02*
D03*
Y-330962D02*
D03*
X229563Y-325962D02*
D03*
X234500Y-330962D02*
D03*
X239438Y-325962D02*
D03*
X244375Y-330962D02*
D03*
X219688Y-325962D02*
D03*
X224625Y-330962D02*
D03*
X190063Y-325962D02*
D03*
X170313D02*
D03*
X180188D02*
D03*
X185125Y-330962D02*
D03*
X150563Y-325962D02*
D03*
X155500Y-330962D02*
D03*
X130813Y-325962D02*
D03*
X135750Y-330962D02*
D03*
X111063Y-325962D02*
D03*
X116000Y-330962D02*
D03*
X120938Y-325962D02*
D03*
X125875Y-330962D02*
D03*
X96250D02*
D03*
X101188Y-325962D02*
D03*
X106125Y-330962D02*
D03*
X71563Y-325962D02*
D03*
X76500Y-330962D02*
D03*
X86375D02*
D03*
X56750D02*
D03*
X61688Y-325995D02*
D03*
X66625Y-330962D02*
D03*
X61750Y-316062D02*
D03*
X56750Y-321029D02*
D03*
Y-301162D02*
D03*
X61750Y-306129D02*
D03*
X56750Y-261429D02*
D03*
Y-271362D02*
D03*
X61750Y-236596D02*
D03*
X56750Y-241562D02*
D03*
X61750Y-246529D02*
D03*
X56750Y-251496D02*
D03*
X61750Y-216729D02*
D03*
X56750Y-221696D02*
D03*
X61750Y-226662D02*
D03*
X56750Y-231629D02*
D03*
X61750Y-196862D02*
D03*
X56750Y-201829D02*
D03*
X61750Y-206796D02*
D03*
X56750Y-211762D02*
D03*
X61750Y-176996D02*
D03*
Y-186929D02*
D03*
X56750Y-191896D02*
D03*
X61750Y-157129D02*
D03*
X56750Y-162096D02*
D03*
X61750Y-167062D02*
D03*
Y-137262D02*
D03*
Y-147196D02*
D03*
X56750Y-122362D02*
D03*
X61750Y-127329D02*
D03*
Y-75163D02*
D03*
X56750Y-70196D02*
D03*
X61750Y-48362D02*
D03*
X56750Y-43396D02*
D03*
X61750Y-38462D02*
D03*
X56750Y-33463D02*
D03*
X249250Y-87687D02*
D03*
X24923Y-197785D02*
D03*
X36734D02*
D03*
X30828Y-203691D02*
D03*
X24923Y-209596D02*
D03*
X36734D02*
D03*
X42639Y-203691D02*
D03*
X30828Y-191879D02*
D03*
X292439Y-245029D02*
D03*
X304250D02*
D03*
X292439Y-256840D02*
D03*
X304250D02*
D03*
X316061Y-252903D02*
D03*
Y-237155D02*
D03*
X260943Y-69832D02*
D03*
X221573Y-119045D02*
D03*
Y-128887D02*
D03*
X211731Y-119045D02*
D03*
X201888D02*
D03*
Y-99360D02*
D03*
X192046D02*
D03*
X231416Y-128887D02*
D03*
Y-138730D02*
D03*
X152676Y-109202D02*
D03*
X132991Y-40305D02*
D03*
X172361Y-10777D02*
D03*
X182203D02*
D03*
X192046D02*
D03*
X201888D02*
D03*
X211731D02*
D03*
X319999Y-99360D02*
D03*
Y-109202D02*
D03*
X369211Y-50147D02*
D03*
Y-99360D02*
D03*
Y-109202D02*
D03*
X280628Y-187943D02*
D03*
X235353Y-221407D02*
D03*
Y-164320D02*
D03*
Y-154478D02*
D03*
X164487Y-134793D02*
D03*
X225510Y-225344D02*
D03*
X129054Y-241092D02*
D03*
X113306Y-280462D02*
D03*
X125117Y-284399D02*
D03*
X74250Y-295362D02*
D03*
X73936Y-306053D02*
D03*
X284565Y-292273D02*
D03*
X127085Y-124950D02*
D03*
X119211Y-75738D02*
D03*
X97557Y-69832D02*
D03*
X73936Y-118945D02*
D03*
X99526Y-227312D02*
D03*
X129450Y-251662D02*
D03*
X98750Y-296462D02*
D03*
X244250Y-82712D02*
D03*
Y-62812D02*
D03*
X239275Y-57812D02*
D03*
D97*
X46850Y-247962D02*
D03*
M02*
