G04 Layer_Color=16711935*
%FSLAX25Y25*%
%MOIN*%
G70*
G01*
G75*
%ADD10R,0.03976X0.01150*%
%ADD11R,0.06890X0.11594*%
%ADD12R,0.05315X0.04134*%
%ADD15O,0.05512X0.01100*%
%ADD20R,0.05551X0.03583*%
%ADD21R,0.03937X0.05709*%
%ADD22R,0.05709X0.03937*%
%ADD27R,0.02165X0.05906*%
%ADD28R,0.01575X0.05315*%
%ADD32R,0.03740X0.03150*%
%ADD33R,0.03583X0.05551*%
%ADD35R,0.04134X0.05315*%
%ADD38O,0.01100X0.05512*%
%ADD54R,0.29995X0.25000*%
%ADD55R,0.30005X0.25000*%
%ADD56C,0.05906*%
%ADD57C,0.25000*%
%ADD58C,0.28000*%
%ADD59C,0.10000*%
%ADD60C,0.04921*%
%ADD61C,0.04000*%
%ADD62R,0.07000X0.07000*%
%ADD63C,0.07874*%
%ADD64C,0.05118*%
%ADD65C,0.06693*%
%ADD66C,0.03000*%
%ADD99R,0.01150X0.03976*%
%ADD100R,0.11594X0.06890*%
%ADD101R,0.02165X0.04134*%
%ADD104O,0.03543X0.05315*%
%ADD105R,0.12400X0.04016*%
%ADD106R,0.04016X0.12400*%
%ADD107R,0.02362X0.04331*%
%ADD108R,0.05906X0.02165*%
%ADD109O,0.01150X0.06496*%
%ADD111R,0.04134X0.02165*%
%ADD121R,0.04337X0.03543*%
%ADD123R,0.03543X0.04337*%
%ADD125R,0.16839X0.03059*%
%ADD126R,0.08177X0.02665*%
%ADD129R,0.04500X0.04600*%
%ADD130R,0.03500X0.06000*%
%ADD131R,0.04337X0.02762*%
%ADD132O,0.05669X0.01732*%
%ADD133O,0.05712X0.01800*%
%ADD134R,0.12300X0.04400*%
G36*
X191469Y39351D02*
X191687Y39333D01*
X191797D01*
X191888Y39315D01*
X192088Y39297D01*
X192325Y39260D01*
X192380D01*
X192453Y39242D01*
X192525D01*
X192726Y39206D01*
X192963Y39169D01*
X193017D01*
X193090Y39151D01*
X193163Y39133D01*
X193363Y39096D01*
X193564Y39060D01*
Y37748D01*
X193527D01*
X193455Y37784D01*
X193327Y37803D01*
X193163Y37839D01*
X192981Y37876D01*
X192762Y37930D01*
X192288Y38003D01*
X192270D01*
X192179Y38021D01*
X192070Y38039D01*
X191906Y38058D01*
X191724Y38076D01*
X191505Y38094D01*
X191068Y38112D01*
X190867D01*
X190649Y38094D01*
X190375Y38058D01*
X190066Y38003D01*
X189756Y37930D01*
X189483Y37821D01*
X189228Y37675D01*
X189209Y37657D01*
X189137Y37602D01*
X189045Y37511D01*
X188936Y37384D01*
X188827Y37220D01*
X188736Y37019D01*
X188663Y36801D01*
X188645Y36545D01*
Y36527D01*
Y36473D01*
X188663Y36400D01*
X188681Y36290D01*
X188754Y36053D01*
X188809Y35926D01*
X188881Y35798D01*
X188900Y35780D01*
X188918Y35744D01*
X188972Y35689D01*
X189045Y35616D01*
X189246Y35434D01*
X189501Y35234D01*
X189519Y35215D01*
X189574Y35197D01*
X189647Y35142D01*
X189774Y35088D01*
X189902Y35015D01*
X190048Y34942D01*
X190412Y34796D01*
X190430D01*
X190503Y34760D01*
X190594Y34723D01*
X190740Y34669D01*
X190886Y34614D01*
X191050Y34541D01*
X191432Y34377D01*
X191450D01*
X191523Y34341D01*
X191633Y34304D01*
X191760Y34250D01*
X191924Y34177D01*
X192088Y34104D01*
X192471Y33922D01*
X192489Y33904D01*
X192562Y33885D01*
X192653Y33831D01*
X192780Y33758D01*
X193072Y33557D01*
X193363Y33321D01*
X193382Y33302D01*
X193436Y33266D01*
X193509Y33193D01*
X193600Y33084D01*
X193692Y32974D01*
X193801Y32829D01*
X194001Y32501D01*
X194019Y32482D01*
X194038Y32410D01*
X194074Y32318D01*
X194129Y32191D01*
X194183Y32027D01*
X194220Y31826D01*
X194238Y31626D01*
X194256Y31389D01*
Y31353D01*
Y31262D01*
X194238Y31116D01*
X194220Y30934D01*
X194183Y30733D01*
X194111Y30496D01*
X194038Y30259D01*
X193928Y30041D01*
X193910Y30023D01*
X193874Y29950D01*
X193801Y29840D01*
X193710Y29713D01*
X193582Y29567D01*
X193436Y29403D01*
X193254Y29239D01*
X193054Y29094D01*
X193035Y29075D01*
X192963Y29039D01*
X192835Y28966D01*
X192689Y28875D01*
X192489Y28784D01*
X192270Y28693D01*
X192015Y28602D01*
X191724Y28529D01*
X191687D01*
X191596Y28492D01*
X191432Y28474D01*
X191214Y28438D01*
X190958Y28401D01*
X190667Y28383D01*
X190339Y28346D01*
X189738D01*
X189592Y28365D01*
X189464D01*
X189137Y28383D01*
X189064D01*
X188991Y28401D01*
X188881D01*
X188626Y28438D01*
X188335Y28474D01*
X188262D01*
X188189Y28492D01*
X188098D01*
X187861Y28529D01*
X187606Y28565D01*
X187588D01*
X187551Y28583D01*
X187478Y28602D01*
X187406Y28620D01*
X187205Y28674D01*
X186986Y28729D01*
Y30132D01*
X187023Y30114D01*
X187096Y30095D01*
X187223Y30059D01*
X187387Y30005D01*
X187588Y29932D01*
X187825Y29877D01*
X188080Y29822D01*
X188353Y29768D01*
X188389D01*
X188480Y29749D01*
X188645Y29731D01*
X188863Y29713D01*
X189118Y29676D01*
X189410Y29658D01*
X189738Y29640D01*
X190357D01*
X190521Y29658D01*
X190703D01*
X190904Y29695D01*
X191104Y29713D01*
X191305Y29749D01*
X191323D01*
X191396Y29768D01*
X191469Y29804D01*
X191596Y29822D01*
X191851Y29932D01*
X192106Y30059D01*
X192124Y30077D01*
X192161Y30095D01*
X192216Y30150D01*
X192288Y30205D01*
X192453Y30369D01*
X192580Y30588D01*
Y30606D01*
X192598Y30642D01*
X192635Y30715D01*
X192653Y30806D01*
X192689Y30915D01*
X192708Y31043D01*
X192726Y31316D01*
Y31334D01*
Y31389D01*
X192708Y31462D01*
X192689Y31571D01*
X192616Y31808D01*
X192562Y31918D01*
X192471Y32045D01*
X192453Y32063D01*
X192434Y32100D01*
X192380Y32154D01*
X192307Y32227D01*
X192216Y32318D01*
X192106Y32410D01*
X191833Y32592D01*
X191815Y32610D01*
X191760Y32628D01*
X191687Y32683D01*
X191578Y32737D01*
X191450Y32810D01*
X191305Y32883D01*
X190940Y33047D01*
X190922Y33065D01*
X190849Y33084D01*
X190758Y33120D01*
X190612Y33175D01*
X190466Y33229D01*
X190284Y33302D01*
X189902Y33448D01*
X189883Y33466D01*
X189811Y33485D01*
X189719Y33539D01*
X189592Y33594D01*
X189428Y33667D01*
X189264Y33740D01*
X188881Y33922D01*
X188863Y33940D01*
X188790Y33976D01*
X188699Y34013D01*
X188572Y34086D01*
X188444Y34177D01*
X188280Y34268D01*
X187970Y34505D01*
X187952Y34523D01*
X187916Y34559D01*
X187843Y34632D01*
X187752Y34742D01*
X187661Y34851D01*
X187551Y34997D01*
X187351Y35307D01*
X187333Y35325D01*
X187314Y35398D01*
X187278Y35489D01*
X187242Y35616D01*
X187187Y35780D01*
X187151Y35962D01*
X187132Y36181D01*
X187114Y36400D01*
Y36418D01*
Y36491D01*
X187132Y36600D01*
X187151Y36746D01*
X187169Y36910D01*
X187205Y37092D01*
X187260Y37293D01*
X187333Y37493D01*
X187351Y37511D01*
X187369Y37584D01*
X187442Y37675D01*
X187515Y37803D01*
X187606Y37948D01*
X187733Y38112D01*
X187879Y38276D01*
X188043Y38440D01*
X188061Y38458D01*
X188134Y38513D01*
X188244Y38586D01*
X188389Y38677D01*
X188553Y38787D01*
X188772Y38896D01*
X189009Y39005D01*
X189282Y39114D01*
X189319Y39133D01*
X189428Y39151D01*
X189574Y39187D01*
X189792Y39242D01*
X190066Y39297D01*
X190375Y39333D01*
X190722Y39351D01*
X191104Y39369D01*
X191286D01*
X191469Y39351D01*
D02*
G37*
G36*
X221677Y28492D02*
X220384D01*
X220329Y30041D01*
Y30023D01*
X220311Y30005D01*
X220220Y29895D01*
X220111Y29749D01*
X219947Y29549D01*
X219746Y29348D01*
X219527Y29130D01*
X219291Y28929D01*
X219036Y28747D01*
X218999Y28729D01*
X218908Y28693D01*
X218780Y28620D01*
X218580Y28547D01*
X218361Y28474D01*
X218106Y28401D01*
X217833Y28365D01*
X217523Y28346D01*
X217414D01*
X217268Y28365D01*
X217104Y28383D01*
X216922Y28419D01*
X216703Y28474D01*
X216503Y28547D01*
X216284Y28638D01*
X216266Y28656D01*
X216193Y28693D01*
X216102Y28765D01*
X215974Y28857D01*
X215829Y28966D01*
X215683Y29112D01*
X215537Y29276D01*
X215391Y29458D01*
X215373Y29476D01*
X215337Y29549D01*
X215264Y29676D01*
X215191Y29822D01*
X215100Y30023D01*
X215009Y30241D01*
X214918Y30478D01*
X214845Y30751D01*
Y30788D01*
X214827Y30879D01*
X214790Y31043D01*
X214772Y31243D01*
X214736Y31499D01*
X214699Y31790D01*
X214681Y32100D01*
Y32428D01*
Y32446D01*
Y32482D01*
Y32537D01*
Y32610D01*
X214699Y32792D01*
X214717Y33047D01*
X214754Y33339D01*
X214790Y33648D01*
X214863Y33976D01*
X214954Y34286D01*
Y34304D01*
X214972Y34323D01*
X215009Y34432D01*
X215082Y34578D01*
X215173Y34760D01*
X215282Y34979D01*
X215428Y35215D01*
X215592Y35452D01*
X215774Y35671D01*
X215792Y35689D01*
X215865Y35762D01*
X215974Y35871D01*
X216139Y35999D01*
X216321Y36126D01*
X216539Y36272D01*
X216776Y36400D01*
X217050Y36527D01*
X217086Y36545D01*
X217177Y36582D01*
X217341Y36618D01*
X217541Y36673D01*
X217778Y36728D01*
X218070Y36782D01*
X218380Y36801D01*
X218707Y36819D01*
X218944D01*
X219199Y36801D01*
X219473Y36764D01*
X219491D01*
X219546Y36746D01*
X219619D01*
X219710Y36728D01*
X219965Y36673D01*
X220238Y36600D01*
Y40080D01*
X221677D01*
Y28492D01*
D02*
G37*
G36*
X265424Y36855D02*
X265606D01*
X266025Y36819D01*
X266043D01*
X266134Y36801D01*
X266244D01*
X266407Y36782D01*
X266590Y36746D01*
X266790Y36728D01*
X267027Y36673D01*
X267264Y36636D01*
Y35361D01*
X267227D01*
X267155Y35398D01*
X267027Y35416D01*
X266845Y35452D01*
X266663Y35489D01*
X266444Y35525D01*
X265988Y35598D01*
X265970D01*
X265879Y35616D01*
X265770Y35634D01*
X265624Y35653D01*
X265460D01*
X265296Y35671D01*
X264932Y35689D01*
X264750D01*
X264622Y35671D01*
X264330Y35653D01*
X264039Y35598D01*
X264021D01*
X263984Y35580D01*
X263911Y35561D01*
X263820Y35543D01*
X263638Y35452D01*
X263438Y35361D01*
X263401Y35343D01*
X263310Y35270D01*
X263219Y35161D01*
X263128Y35033D01*
X263110Y34997D01*
X263091Y34906D01*
X263055Y34778D01*
X263037Y34614D01*
Y34596D01*
Y34578D01*
X263055Y34487D01*
X263073Y34359D01*
X263110Y34213D01*
X263128Y34177D01*
X263182Y34104D01*
X263292Y33995D01*
X263438Y33867D01*
X263456D01*
X263474Y33831D01*
X263529Y33812D01*
X263602Y33758D01*
X263711Y33703D01*
X263820Y33648D01*
X263948Y33594D01*
X264093Y33521D01*
X264112D01*
X264166Y33485D01*
X264258Y33466D01*
X264385Y33412D01*
X264549Y33357D01*
X264731Y33302D01*
X264932Y33248D01*
X265168Y33175D01*
X265205Y33156D01*
X265296Y33138D01*
X265424Y33102D01*
X265606Y33029D01*
X265806Y32974D01*
X266007Y32883D01*
X266207Y32810D01*
X266407Y32719D01*
X266426Y32701D01*
X266499Y32683D01*
X266571Y32628D01*
X266699Y32574D01*
X266954Y32391D01*
X267209Y32191D01*
X267227Y32173D01*
X267264Y32136D01*
X267319Y32081D01*
X267391Y32009D01*
X267537Y31808D01*
X267610Y31681D01*
X267665Y31553D01*
Y31535D01*
X267683Y31499D01*
X267719Y31407D01*
X267738Y31316D01*
X267774Y31189D01*
X267792Y31061D01*
X267810Y30733D01*
Y30715D01*
Y30660D01*
Y30569D01*
X267792Y30478D01*
X267738Y30223D01*
X267646Y29950D01*
Y29932D01*
X267628Y29895D01*
X267592Y29822D01*
X267537Y29749D01*
X267410Y29549D01*
X267246Y29330D01*
X267227Y29312D01*
X267209Y29294D01*
X267155Y29239D01*
X267082Y29185D01*
X266881Y29039D01*
X266644Y28875D01*
X266626D01*
X266590Y28838D01*
X266517Y28820D01*
X266426Y28765D01*
X266207Y28674D01*
X265934Y28583D01*
X265915D01*
X265879Y28565D01*
X265788Y28547D01*
X265697Y28529D01*
X265588Y28492D01*
X265442Y28474D01*
X265150Y28419D01*
X265132D01*
X265077Y28401D01*
X265004D01*
X264895Y28383D01*
X264658Y28365D01*
X264367Y28346D01*
X264057D01*
X263857Y28365D01*
X263620D01*
X263365Y28383D01*
X262818Y28419D01*
X262782D01*
X262709Y28438D01*
X262563Y28456D01*
X262399Y28474D01*
X262180Y28510D01*
X261962Y28547D01*
X261470Y28656D01*
Y29968D01*
X261506D01*
X261597Y29932D01*
X261725Y29895D01*
X261907Y29840D01*
X262126Y29786D01*
X262363Y29731D01*
X262891Y29640D01*
X262928D01*
X263019Y29622D01*
X263146Y29604D01*
X263328D01*
X263547Y29585D01*
X263784Y29567D01*
X264312Y29549D01*
X264476D01*
X264658Y29567D01*
X264877Y29585D01*
X265132Y29622D01*
X265387Y29658D01*
X265624Y29731D01*
X265824Y29822D01*
X265843Y29840D01*
X265897Y29877D01*
X265988Y29932D01*
X266079Y30023D01*
X266171Y30132D01*
X266262Y30278D01*
X266316Y30442D01*
X266335Y30624D01*
Y30642D01*
Y30660D01*
X266316Y30751D01*
X266298Y30879D01*
X266244Y31007D01*
X266225Y31043D01*
X266189Y31116D01*
X266098Y31225D01*
X265952Y31353D01*
X265915Y31389D01*
X265861Y31407D01*
X265806Y31462D01*
X265715Y31499D01*
X265606Y31553D01*
X265460Y31626D01*
X265314Y31681D01*
X265296D01*
X265241Y31717D01*
X265150Y31754D01*
X265004Y31808D01*
X264841Y31863D01*
X264640Y31936D01*
X264422Y32009D01*
X264148Y32081D01*
X264130D01*
X264057Y32118D01*
X263948Y32136D01*
X263820Y32191D01*
X263656Y32245D01*
X263492Y32300D01*
X263128Y32446D01*
X263110Y32464D01*
X263055Y32482D01*
X262964Y32537D01*
X262855Y32592D01*
X262581Y32737D01*
X262308Y32938D01*
X262290Y32956D01*
X262253Y32993D01*
X262180Y33047D01*
X262108Y33138D01*
X261925Y33339D01*
X261761Y33612D01*
Y33630D01*
X261725Y33685D01*
X261707Y33758D01*
X261670Y33867D01*
X261634Y33995D01*
X261616Y34159D01*
X261579Y34341D01*
Y34523D01*
Y34541D01*
Y34578D01*
Y34650D01*
X261597Y34742D01*
X261616Y34851D01*
X261634Y34979D01*
X261725Y35270D01*
Y35288D01*
X261761Y35343D01*
X261798Y35416D01*
X261853Y35525D01*
X261925Y35634D01*
X262017Y35762D01*
X262144Y35908D01*
X262271Y36035D01*
X262290Y36053D01*
X262344Y36090D01*
X262436Y36163D01*
X262545Y36254D01*
X262691Y36345D01*
X262873Y36436D01*
X263073Y36545D01*
X263310Y36636D01*
X263347Y36655D01*
X263438Y36673D01*
X263565Y36709D01*
X263766Y36764D01*
X264002Y36801D01*
X264276Y36837D01*
X264604Y36855D01*
X264950Y36873D01*
X265278D01*
X265424Y36855D01*
D02*
G37*
G36*
X238331D02*
X238422D01*
X238549Y36837D01*
X238841Y36764D01*
X239150Y36673D01*
X239460Y36527D01*
X239770Y36309D01*
X239916Y36181D01*
X240043Y36035D01*
X240080Y35999D01*
X240098Y35944D01*
X240153Y35890D01*
X240189Y35798D01*
X240244Y35689D01*
X240316Y35561D01*
X240371Y35416D01*
X240426Y35252D01*
X240480Y35088D01*
X240535Y34887D01*
X240590Y34669D01*
X240626Y34414D01*
X240644Y34159D01*
X240663Y33885D01*
Y33594D01*
X239223D01*
Y33612D01*
Y33648D01*
Y33703D01*
Y33776D01*
X239205Y33958D01*
X239187Y34177D01*
X239150Y34432D01*
X239096Y34687D01*
X239005Y34942D01*
X238895Y35142D01*
X238877Y35161D01*
X238841Y35215D01*
X238750Y35307D01*
X238640Y35398D01*
X238494Y35470D01*
X238331Y35561D01*
X238130Y35616D01*
X237893Y35634D01*
X237784D01*
X237729Y35616D01*
X237547Y35598D01*
X237328Y35525D01*
X237310D01*
X237274Y35507D01*
X237219Y35489D01*
X237146Y35452D01*
X236946Y35343D01*
X236727Y35197D01*
X236709Y35179D01*
X236672Y35161D01*
X236618Y35106D01*
X236527Y35051D01*
X236326Y34851D01*
X236071Y34614D01*
X236053Y34596D01*
X236017Y34559D01*
X235944Y34487D01*
X235853Y34377D01*
X235743Y34250D01*
X235616Y34122D01*
X235488Y33958D01*
X235342Y33776D01*
Y28492D01*
X233903D01*
Y36728D01*
X235197D01*
X235233Y35197D01*
Y35215D01*
X235269Y35234D01*
X235361Y35343D01*
X235506Y35489D01*
X235689Y35689D01*
X235907Y35890D01*
X236144Y36108D01*
X236399Y36309D01*
X236672Y36473D01*
X236709Y36491D01*
X236800Y36527D01*
X236928Y36600D01*
X237128Y36673D01*
X237328Y36746D01*
X237583Y36819D01*
X237839Y36855D01*
X238112Y36873D01*
X238239D01*
X238331Y36855D01*
D02*
G37*
G36*
X408265D02*
X408429Y36819D01*
X408556Y36782D01*
X408574Y36764D01*
X408593D01*
X408757Y36673D01*
X408902Y36582D01*
X409012Y36509D01*
X409030Y36491D01*
X409048Y36473D01*
X409212Y36309D01*
X409340Y36126D01*
X409394Y36053D01*
X409431Y35999D01*
X409449Y35962D01*
X409467Y35944D01*
X409613Y35689D01*
X409759Y35434D01*
X409813Y35325D01*
X409850Y35234D01*
X409868Y35179D01*
X409886Y35161D01*
X409959Y36728D01*
X411125D01*
Y28492D01*
X409704D01*
Y33776D01*
X409613Y33976D01*
X409522Y34177D01*
X409449Y34341D01*
X409394Y34468D01*
X409340Y34578D01*
X409303Y34650D01*
X409267Y34705D01*
Y34723D01*
X409139Y34960D01*
X409030Y35142D01*
X408957Y35252D01*
X408939Y35288D01*
X408829Y35434D01*
X408738Y35525D01*
X408684Y35580D01*
X408666Y35598D01*
X408574Y35653D01*
X408483Y35671D01*
X408410Y35689D01*
X408392D01*
X408301Y35671D01*
X408228Y35653D01*
X408192Y35634D01*
X408174Y35616D01*
X408119Y35561D01*
X408064Y35489D01*
X408046Y35416D01*
X408028Y35398D01*
X407973Y35270D01*
X407955Y35124D01*
X407937Y35015D01*
Y34979D01*
Y34960D01*
X407918Y34742D01*
X407900Y34505D01*
Y34396D01*
Y34323D01*
Y34268D01*
Y34250D01*
Y28492D01*
X406479D01*
Y33776D01*
X406388Y33958D01*
X406315Y34140D01*
X406242Y34286D01*
X406187Y34414D01*
X406133Y34523D01*
X406096Y34596D01*
X406060Y34650D01*
Y34669D01*
X405933Y34906D01*
X405823Y35106D01*
X405787Y35161D01*
X405750Y35215D01*
X405732Y35234D01*
Y35252D01*
X405623Y35398D01*
X405532Y35507D01*
X405477Y35561D01*
X405459Y35580D01*
X405349Y35653D01*
X405258Y35671D01*
X405185Y35689D01*
X405167D01*
X405076Y35671D01*
X405003Y35653D01*
X404967Y35634D01*
X404949Y35616D01*
X404894Y35561D01*
X404839Y35489D01*
X404821Y35434D01*
X404803Y35416D01*
X404748Y35288D01*
X404730Y35161D01*
X404712Y35051D01*
Y35033D01*
Y35015D01*
X404694Y34815D01*
X404675Y34614D01*
Y34523D01*
Y34468D01*
Y34414D01*
Y34396D01*
Y28492D01*
X403254D01*
Y34487D01*
X403272Y34906D01*
X403327Y35270D01*
X403400Y35598D01*
X403491Y35871D01*
X403618Y36090D01*
X403746Y36290D01*
X403892Y36454D01*
X404038Y36582D01*
X404183Y36673D01*
X404329Y36746D01*
X404457Y36801D01*
X404584Y36837D01*
X404675Y36855D01*
X404748Y36873D01*
X404821D01*
X405058Y36855D01*
X405258Y36819D01*
X405331Y36782D01*
X405386Y36764D01*
X405422Y36746D01*
X405441D01*
X405623Y36636D01*
X405768Y36527D01*
X405878Y36436D01*
X405896Y36418D01*
X405914Y36400D01*
X406060Y36217D01*
X406187Y36035D01*
X406242Y35962D01*
X406279Y35890D01*
X406315Y35853D01*
Y35835D01*
X406443Y35580D01*
X406570Y35343D01*
X406625Y35234D01*
X406661Y35161D01*
X406679Y35106D01*
X406698Y35088D01*
X406716Y35416D01*
X406752Y35689D01*
X406807Y35908D01*
X406862Y36108D01*
X406935Y36254D01*
X406989Y36363D01*
X407026Y36418D01*
X407044Y36436D01*
X407190Y36582D01*
X407354Y36691D01*
X407518Y36764D01*
X407682Y36819D01*
X407827Y36855D01*
X407955Y36873D01*
X408064D01*
X408265Y36855D01*
D02*
G37*
G36*
X334364D02*
X334528Y36819D01*
X334656Y36782D01*
X334674Y36764D01*
X334692D01*
X334856Y36673D01*
X335002Y36582D01*
X335111Y36509D01*
X335129Y36491D01*
X335148Y36473D01*
X335312Y36309D01*
X335439Y36126D01*
X335494Y36053D01*
X335530Y35999D01*
X335549Y35962D01*
X335567Y35944D01*
X335713Y35689D01*
X335858Y35434D01*
X335913Y35325D01*
X335949Y35234D01*
X335968Y35179D01*
X335986Y35161D01*
X336059Y36728D01*
X337225D01*
Y28492D01*
X335804D01*
Y33776D01*
X335713Y33976D01*
X335622Y34177D01*
X335549Y34341D01*
X335494Y34468D01*
X335439Y34578D01*
X335403Y34650D01*
X335366Y34705D01*
Y34723D01*
X335239Y34960D01*
X335129Y35142D01*
X335057Y35252D01*
X335038Y35288D01*
X334929Y35434D01*
X334838Y35525D01*
X334783Y35580D01*
X334765Y35598D01*
X334674Y35653D01*
X334583Y35671D01*
X334510Y35689D01*
X334492D01*
X334401Y35671D01*
X334328Y35653D01*
X334291Y35634D01*
X334273Y35616D01*
X334219Y35561D01*
X334164Y35489D01*
X334146Y35416D01*
X334127Y35398D01*
X334073Y35270D01*
X334055Y35124D01*
X334036Y35015D01*
Y34979D01*
Y34960D01*
X334018Y34742D01*
X334000Y34505D01*
Y34396D01*
Y34323D01*
Y34268D01*
Y34250D01*
Y28492D01*
X332579D01*
Y33776D01*
X332488Y33958D01*
X332415Y34140D01*
X332342Y34286D01*
X332287Y34414D01*
X332233Y34523D01*
X332196Y34596D01*
X332160Y34650D01*
Y34669D01*
X332032Y34906D01*
X331923Y35106D01*
X331886Y35161D01*
X331850Y35215D01*
X331832Y35234D01*
Y35252D01*
X331722Y35398D01*
X331631Y35507D01*
X331577Y35561D01*
X331558Y35580D01*
X331449Y35653D01*
X331358Y35671D01*
X331285Y35689D01*
X331267D01*
X331176Y35671D01*
X331103Y35653D01*
X331066Y35634D01*
X331048Y35616D01*
X330994Y35561D01*
X330939Y35489D01*
X330921Y35434D01*
X330903Y35416D01*
X330848Y35288D01*
X330830Y35161D01*
X330811Y35051D01*
Y35033D01*
Y35015D01*
X330793Y34815D01*
X330775Y34614D01*
Y34523D01*
Y34468D01*
Y34414D01*
Y34396D01*
Y28492D01*
X329354D01*
Y34487D01*
X329372Y34906D01*
X329427Y35270D01*
X329500Y35598D01*
X329591Y35871D01*
X329718Y36090D01*
X329846Y36290D01*
X329992Y36454D01*
X330137Y36582D01*
X330283Y36673D01*
X330429Y36746D01*
X330556Y36801D01*
X330684Y36837D01*
X330775Y36855D01*
X330848Y36873D01*
X330921D01*
X331158Y36855D01*
X331358Y36819D01*
X331431Y36782D01*
X331486Y36764D01*
X331522Y36746D01*
X331540D01*
X331722Y36636D01*
X331868Y36527D01*
X331978Y36436D01*
X331996Y36418D01*
X332014Y36400D01*
X332160Y36217D01*
X332287Y36035D01*
X332342Y35962D01*
X332378Y35890D01*
X332415Y35853D01*
Y35835D01*
X332542Y35580D01*
X332670Y35343D01*
X332724Y35234D01*
X332761Y35161D01*
X332779Y35106D01*
X332797Y35088D01*
X332816Y35416D01*
X332852Y35689D01*
X332907Y35908D01*
X332961Y36108D01*
X333034Y36254D01*
X333089Y36363D01*
X333125Y36418D01*
X333144Y36436D01*
X333289Y36582D01*
X333453Y36691D01*
X333617Y36764D01*
X333781Y36819D01*
X333927Y36855D01*
X334055Y36873D01*
X334164D01*
X334364Y36855D01*
D02*
G37*
G36*
X248679D02*
X248770Y36837D01*
X248898Y36801D01*
X249026Y36746D01*
X249171Y36673D01*
X249317Y36582D01*
X249463Y36454D01*
X249609Y36290D01*
X249736Y36090D01*
X249864Y35871D01*
X249955Y35598D01*
X250028Y35270D01*
X250082Y34906D01*
X250101Y34487D01*
Y28492D01*
X248679D01*
Y34396D01*
Y34414D01*
Y34468D01*
Y34523D01*
Y34614D01*
X248661Y34815D01*
X248643Y35015D01*
Y35033D01*
Y35051D01*
X248625Y35161D01*
X248606Y35288D01*
X248552Y35416D01*
X248534Y35434D01*
X248515Y35489D01*
X248461Y35561D01*
X248406Y35616D01*
X248388Y35634D01*
X248352Y35653D01*
X248279Y35671D01*
X248187Y35689D01*
X248169D01*
X248096Y35671D01*
X248005Y35653D01*
X247896Y35580D01*
X247878Y35561D01*
X247823Y35507D01*
X247732Y35398D01*
X247623Y35252D01*
Y35234D01*
X247604Y35215D01*
X247568Y35161D01*
X247532Y35106D01*
X247422Y34906D01*
X247295Y34669D01*
Y34650D01*
X247258Y34596D01*
X247222Y34523D01*
X247167Y34414D01*
X247112Y34286D01*
X247040Y34140D01*
X246967Y33958D01*
X246876Y33776D01*
Y28492D01*
X245455D01*
Y34250D01*
Y34268D01*
Y34323D01*
Y34396D01*
Y34505D01*
X245436Y34742D01*
X245418Y34960D01*
Y34979D01*
Y35015D01*
X245400Y35124D01*
X245382Y35270D01*
X245327Y35398D01*
X245309Y35416D01*
X245290Y35489D01*
X245236Y35561D01*
X245181Y35616D01*
X245163Y35634D01*
X245127Y35653D01*
X245054Y35671D01*
X244963Y35689D01*
X244944D01*
X244871Y35671D01*
X244780Y35653D01*
X244689Y35598D01*
X244671Y35580D01*
X244616Y35525D01*
X244525Y35434D01*
X244416Y35288D01*
X244398Y35252D01*
X244325Y35142D01*
X244215Y34960D01*
X244088Y34723D01*
Y34705D01*
X244052Y34650D01*
X244015Y34578D01*
X243960Y34468D01*
X243906Y34341D01*
X243833Y34177D01*
X243742Y33976D01*
X243651Y33776D01*
Y28492D01*
X242230D01*
Y36728D01*
X243396D01*
X243468Y35161D01*
X243487Y35179D01*
X243505Y35234D01*
X243541Y35325D01*
X243596Y35434D01*
X243742Y35689D01*
X243888Y35944D01*
X243906Y35962D01*
X243924Y35999D01*
X243960Y36053D01*
X244015Y36126D01*
X244143Y36309D01*
X244307Y36473D01*
X244325Y36491D01*
X244343Y36509D01*
X244452Y36582D01*
X244598Y36673D01*
X244762Y36764D01*
X244780D01*
X244799Y36782D01*
X244926Y36819D01*
X245090Y36855D01*
X245290Y36873D01*
X245400D01*
X245527Y36855D01*
X245673Y36819D01*
X245837Y36764D01*
X246001Y36691D01*
X246165Y36582D01*
X246311Y36436D01*
X246329Y36418D01*
X246365Y36363D01*
X246420Y36254D01*
X246493Y36108D01*
X246548Y35908D01*
X246602Y35689D01*
X246639Y35416D01*
X246657Y35088D01*
X246675Y35106D01*
X246693Y35161D01*
X246730Y35234D01*
X246784Y35343D01*
X246912Y35580D01*
X247040Y35835D01*
Y35853D01*
X247076Y35890D01*
X247112Y35962D01*
X247167Y36035D01*
X247295Y36217D01*
X247441Y36400D01*
X247459Y36418D01*
X247477Y36436D01*
X247586Y36527D01*
X247732Y36636D01*
X247914Y36746D01*
X247932D01*
X247969Y36764D01*
X248024Y36782D01*
X248096Y36819D01*
X248297Y36855D01*
X248534Y36873D01*
X248606D01*
X248679Y36855D01*
D02*
G37*
G36*
X174779D02*
X174870Y36837D01*
X174998Y36801D01*
X175125Y36746D01*
X175271Y36673D01*
X175417Y36582D01*
X175563Y36454D01*
X175708Y36290D01*
X175836Y36090D01*
X175963Y35871D01*
X176055Y35598D01*
X176127Y35270D01*
X176182Y34906D01*
X176200Y34487D01*
Y28492D01*
X174779D01*
Y34396D01*
Y34414D01*
Y34468D01*
Y34523D01*
Y34614D01*
X174761Y34815D01*
X174743Y35015D01*
Y35033D01*
Y35051D01*
X174724Y35161D01*
X174706Y35288D01*
X174652Y35416D01*
X174633Y35434D01*
X174615Y35489D01*
X174560Y35561D01*
X174506Y35616D01*
X174488Y35634D01*
X174451Y35653D01*
X174378Y35671D01*
X174287Y35689D01*
X174269D01*
X174196Y35671D01*
X174105Y35653D01*
X173996Y35580D01*
X173977Y35561D01*
X173923Y35507D01*
X173832Y35398D01*
X173722Y35252D01*
Y35234D01*
X173704Y35215D01*
X173668Y35161D01*
X173631Y35106D01*
X173522Y34906D01*
X173394Y34669D01*
Y34650D01*
X173358Y34596D01*
X173321Y34523D01*
X173267Y34414D01*
X173212Y34286D01*
X173139Y34140D01*
X173066Y33958D01*
X172975Y33776D01*
Y28492D01*
X171554D01*
Y34250D01*
Y34268D01*
Y34323D01*
Y34396D01*
Y34505D01*
X171536Y34742D01*
X171518Y34960D01*
Y34979D01*
Y35015D01*
X171500Y35124D01*
X171481Y35270D01*
X171427Y35398D01*
X171408Y35416D01*
X171390Y35489D01*
X171335Y35561D01*
X171281Y35616D01*
X171263Y35634D01*
X171226Y35653D01*
X171153Y35671D01*
X171062Y35689D01*
X171044D01*
X170971Y35671D01*
X170880Y35653D01*
X170789Y35598D01*
X170771Y35580D01*
X170716Y35525D01*
X170625Y35434D01*
X170516Y35288D01*
X170497Y35252D01*
X170424Y35142D01*
X170315Y34960D01*
X170188Y34723D01*
Y34705D01*
X170151Y34650D01*
X170115Y34578D01*
X170060Y34468D01*
X170006Y34341D01*
X169933Y34177D01*
X169842Y33976D01*
X169750Y33776D01*
Y28492D01*
X168329D01*
Y36728D01*
X169495D01*
X169568Y35161D01*
X169586Y35179D01*
X169605Y35234D01*
X169641Y35325D01*
X169696Y35434D01*
X169842Y35689D01*
X169987Y35944D01*
X170006Y35962D01*
X170024Y35999D01*
X170060Y36053D01*
X170115Y36126D01*
X170242Y36309D01*
X170406Y36473D01*
X170424Y36491D01*
X170443Y36509D01*
X170552Y36582D01*
X170698Y36673D01*
X170862Y36764D01*
X170880D01*
X170898Y36782D01*
X171026Y36819D01*
X171190Y36855D01*
X171390Y36873D01*
X171500D01*
X171627Y36855D01*
X171773Y36819D01*
X171937Y36764D01*
X172101Y36691D01*
X172265Y36582D01*
X172411Y36436D01*
X172429Y36418D01*
X172465Y36363D01*
X172520Y36254D01*
X172593Y36108D01*
X172647Y35908D01*
X172702Y35689D01*
X172739Y35416D01*
X172757Y35088D01*
X172775Y35106D01*
X172793Y35161D01*
X172830Y35234D01*
X172884Y35343D01*
X173012Y35580D01*
X173139Y35835D01*
Y35853D01*
X173176Y35890D01*
X173212Y35962D01*
X173267Y36035D01*
X173394Y36217D01*
X173540Y36400D01*
X173558Y36418D01*
X173577Y36436D01*
X173686Y36527D01*
X173832Y36636D01*
X174014Y36746D01*
X174032D01*
X174068Y36764D01*
X174123Y36782D01*
X174196Y36819D01*
X174397Y36855D01*
X174633Y36873D01*
X174706D01*
X174779Y36855D01*
D02*
G37*
G36*
X324489D02*
X324617D01*
X324726Y36837D01*
X324799D01*
X324853Y36819D01*
X324872D01*
X325163Y36782D01*
X325291Y36764D01*
X325400Y36746D01*
X325491Y36728D01*
X325564Y36709D01*
X325619Y36691D01*
X325637D01*
X325892Y36636D01*
X326129Y36582D01*
X326220Y36564D01*
X326293Y36545D01*
X326329Y36527D01*
X326347D01*
X326584Y36454D01*
X326767Y36400D01*
X326839Y36382D01*
X326876Y36363D01*
X326912Y36345D01*
X326930D01*
Y35051D01*
X326676Y35142D01*
X326420Y35234D01*
X326184Y35307D01*
X325965Y35379D01*
X325801Y35416D01*
X325655Y35452D01*
X325582Y35489D01*
X325546D01*
X325036Y35580D01*
X324817Y35616D01*
X324598Y35634D01*
X324416Y35653D01*
X324161D01*
X323833Y35634D01*
X323542Y35580D01*
X323287Y35507D01*
X323086Y35434D01*
X322940Y35361D01*
X322831Y35288D01*
X322758Y35234D01*
X322740Y35215D01*
X322576Y35033D01*
X322467Y34851D01*
X322375Y34650D01*
X322321Y34468D01*
X322284Y34304D01*
X322266Y34177D01*
Y34086D01*
Y34049D01*
Y33339D01*
X324307D01*
X324617Y33302D01*
X324908Y33266D01*
X325163Y33229D01*
X325418Y33175D01*
X325637Y33120D01*
X325837Y33047D01*
X326020Y32993D01*
X326184Y32920D01*
X326329Y32847D01*
X326439Y32792D01*
X326530Y32737D01*
X326621Y32701D01*
X326676Y32665D01*
X326694Y32628D01*
X326712D01*
X326876Y32482D01*
X327003Y32337D01*
X327131Y32191D01*
X327240Y32027D01*
X327404Y31699D01*
X327514Y31389D01*
X327568Y31116D01*
X327587Y30988D01*
X327605Y30879D01*
X327623Y30806D01*
Y30733D01*
Y30697D01*
Y30679D01*
X327605Y30332D01*
X327568Y30168D01*
X327550Y30023D01*
X327514Y29913D01*
X327495Y29822D01*
X327477Y29768D01*
Y29749D01*
X327350Y29458D01*
X327258Y29330D01*
X327186Y29221D01*
X327113Y29130D01*
X327058Y29057D01*
X327022Y29021D01*
X327003Y29002D01*
X326730Y28802D01*
X326475Y28638D01*
X326347Y28583D01*
X326256Y28547D01*
X326202Y28510D01*
X326184D01*
X325783Y28419D01*
X325582Y28383D01*
X325382Y28365D01*
X325218D01*
X325090Y28346D01*
X324981D01*
X324690Y28365D01*
X324434Y28401D01*
X324179Y28438D01*
X323961Y28492D01*
X323779Y28547D01*
X323651Y28602D01*
X323560Y28620D01*
X323523Y28638D01*
X323268Y28765D01*
X323013Y28911D01*
X322795Y29075D01*
X322576Y29221D01*
X322412Y29367D01*
X322266Y29476D01*
X322193Y29549D01*
X322157Y29585D01*
X322120Y28492D01*
X320827D01*
Y34159D01*
X320845Y34414D01*
X320863Y34632D01*
X320900Y34851D01*
X320936Y35015D01*
X320991Y35161D01*
X321027Y35270D01*
X321045Y35343D01*
X321064Y35361D01*
X321155Y35543D01*
X321246Y35707D01*
X321355Y35853D01*
X321464Y35981D01*
X321556Y36072D01*
X321628Y36145D01*
X321683Y36181D01*
X321701Y36199D01*
X321865Y36327D01*
X322029Y36418D01*
X322193Y36509D01*
X322357Y36582D01*
X322485Y36636D01*
X322594Y36673D01*
X322685Y36709D01*
X322704D01*
X323159Y36801D01*
X323396Y36837D01*
X323596Y36855D01*
X323779Y36873D01*
X324361D01*
X324489Y36855D01*
D02*
G37*
G36*
X308747Y28492D02*
X307326D01*
Y32901D01*
X303481Y28492D01*
X301514D01*
X305595Y32920D01*
X301732Y36728D01*
X303627D01*
X307326Y32956D01*
Y40080D01*
X308747D01*
Y28492D01*
D02*
G37*
G36*
X436761Y38987D02*
Y36728D01*
X439056D01*
Y35525D01*
X436761D01*
Y31225D01*
X436724Y30715D01*
X436633Y30278D01*
X436524Y29913D01*
X436378Y29604D01*
X436232Y29367D01*
X436123Y29203D01*
X436032Y29112D01*
X435995Y29075D01*
X435850Y28948D01*
X435668Y28838D01*
X435303Y28674D01*
X434921Y28547D01*
X434556Y28474D01*
X434210Y28419D01*
X434064Y28401D01*
X433937D01*
X433827Y28383D01*
X433681D01*
X433299Y28401D01*
X433117D01*
X432971Y28419D01*
X432825D01*
X432734Y28438D01*
X432643D01*
X432260Y28492D01*
X432096Y28510D01*
X431932Y28547D01*
X431805Y28565D01*
X431714Y28583D01*
X431641Y28602D01*
X431623D01*
Y29840D01*
X431987Y29749D01*
X432151Y29713D01*
X432297Y29695D01*
X432424Y29658D01*
X432515D01*
X432588Y29640D01*
X432607D01*
X432935Y29604D01*
X433099D01*
X433226Y29585D01*
X433481D01*
X433809Y29604D01*
X434082Y29658D01*
X434319Y29731D01*
X434520Y29804D01*
X434665Y29877D01*
X434775Y29950D01*
X434848Y30005D01*
X434866Y30023D01*
X435030Y30205D01*
X435139Y30405D01*
X435230Y30624D01*
X435285Y30843D01*
X435321Y31043D01*
X435339Y31189D01*
Y31298D01*
Y31316D01*
Y31334D01*
Y35525D01*
X431623D01*
Y36728D01*
X435339D01*
Y39369D01*
X436761Y38987D01*
D02*
G37*
G36*
X427523D02*
Y36728D01*
X429819D01*
Y35525D01*
X427523D01*
Y31225D01*
X427487Y30715D01*
X427396Y30278D01*
X427286Y29913D01*
X427141Y29604D01*
X426995Y29367D01*
X426886Y29203D01*
X426794Y29112D01*
X426758Y29075D01*
X426612Y28948D01*
X426430Y28838D01*
X426066Y28674D01*
X425683Y28547D01*
X425318Y28474D01*
X424972Y28419D01*
X424827Y28401D01*
X424699D01*
X424590Y28383D01*
X424444D01*
X424061Y28401D01*
X423879D01*
X423733Y28419D01*
X423588D01*
X423496Y28438D01*
X423405D01*
X423023Y28492D01*
X422859Y28510D01*
X422695Y28547D01*
X422567Y28565D01*
X422476Y28583D01*
X422403Y28602D01*
X422385D01*
Y29840D01*
X422750Y29749D01*
X422914Y29713D01*
X423059Y29695D01*
X423187Y29658D01*
X423278D01*
X423351Y29640D01*
X423369D01*
X423697Y29604D01*
X423861D01*
X423988Y29585D01*
X424244D01*
X424572Y29604D01*
X424845Y29658D01*
X425082Y29731D01*
X425282Y29804D01*
X425428Y29877D01*
X425537Y29950D01*
X425610Y30005D01*
X425628Y30023D01*
X425792Y30205D01*
X425902Y30405D01*
X425993Y30624D01*
X426047Y30843D01*
X426084Y31043D01*
X426102Y31189D01*
Y31298D01*
Y31316D01*
Y31334D01*
Y35525D01*
X422385D01*
Y36728D01*
X426102D01*
Y39369D01*
X427523Y38987D01*
D02*
G37*
G36*
X352056Y36855D02*
X352347Y36819D01*
X352621Y36764D01*
X352858Y36709D01*
X353040Y36636D01*
X353186Y36582D01*
X353277Y36545D01*
X353313Y36527D01*
X353568Y36382D01*
X353787Y36236D01*
X353987Y36072D01*
X354169Y35926D01*
X354297Y35780D01*
X354406Y35671D01*
X354479Y35598D01*
X354497Y35580D01*
X354661Y35361D01*
X354807Y35124D01*
X354935Y34887D01*
X355044Y34687D01*
X355117Y34487D01*
X355171Y34341D01*
X355208Y34250D01*
X355226Y34231D01*
Y34213D01*
X355299Y33922D01*
X355354Y33630D01*
X355408Y33357D01*
X355427Y33120D01*
X355445Y32901D01*
X355463Y32737D01*
Y32628D01*
Y32610D01*
Y32592D01*
X355445Y32227D01*
X355427Y31881D01*
X355390Y31590D01*
X355354Y31316D01*
X355317Y31098D01*
X355281Y30934D01*
X355244Y30824D01*
Y30806D01*
Y30788D01*
X355153Y30515D01*
X355026Y30241D01*
X354917Y30023D01*
X354789Y29822D01*
X354680Y29676D01*
X354589Y29549D01*
X354534Y29476D01*
X354516Y29458D01*
X354315Y29257D01*
X354115Y29094D01*
X353896Y28948D01*
X353696Y28838D01*
X353532Y28747D01*
X353386Y28674D01*
X353295Y28638D01*
X353258Y28620D01*
X352967Y28529D01*
X352657Y28456D01*
X352347Y28419D01*
X352056Y28383D01*
X351819Y28365D01*
X351619Y28346D01*
X351145D01*
X350872Y28365D01*
X350617Y28383D01*
X350380Y28401D01*
X350198Y28419D01*
X350052Y28438D01*
X349961Y28456D01*
X349924D01*
X349651Y28492D01*
X349396Y28529D01*
X349177Y28583D01*
X348977Y28620D01*
X348813Y28656D01*
X348703Y28693D01*
X348612Y28711D01*
X348594D01*
Y29877D01*
X348795Y29822D01*
X348995Y29786D01*
X349068Y29768D01*
X349123Y29749D01*
X349159Y29731D01*
X349177D01*
X349414Y29695D01*
X349614Y29658D01*
X349706Y29640D01*
X349778D01*
X349815Y29622D01*
X349833D01*
X350070Y29604D01*
X350307Y29567D01*
X350398D01*
X350471Y29549D01*
X350525D01*
X350781Y29531D01*
X351236D01*
X351710Y29567D01*
X352111Y29640D01*
X352457Y29749D01*
X352748Y29877D01*
X352985Y29986D01*
X353149Y30095D01*
X353240Y30168D01*
X353277Y30205D01*
X353514Y30478D01*
X353678Y30788D01*
X353805Y31116D01*
X353878Y31426D01*
X353933Y31717D01*
X353951Y31845D01*
Y31954D01*
X353969Y32027D01*
Y32100D01*
Y32136D01*
Y32154D01*
X348193D01*
X348175Y32282D01*
Y32391D01*
Y32482D01*
Y32519D01*
X348157Y32701D01*
Y32865D01*
Y32938D01*
Y32993D01*
Y33029D01*
Y33047D01*
X348175Y33375D01*
X348193Y33667D01*
X348230Y33922D01*
X348266Y34159D01*
X348321Y34341D01*
X348357Y34487D01*
X348376Y34578D01*
X348394Y34614D01*
X348485Y34869D01*
X348594Y35106D01*
X348722Y35307D01*
X348831Y35489D01*
X348922Y35616D01*
X349013Y35726D01*
X349068Y35798D01*
X349086Y35817D01*
X349268Y35999D01*
X349450Y36163D01*
X349651Y36290D01*
X349815Y36400D01*
X349979Y36491D01*
X350106Y36545D01*
X350179Y36582D01*
X350216Y36600D01*
X350471Y36691D01*
X350726Y36764D01*
X350981Y36801D01*
X351218Y36837D01*
X351418Y36855D01*
X351582Y36873D01*
X351728D01*
X352056Y36855D01*
D02*
G37*
G36*
X456748Y28492D02*
X453997D01*
X453651Y28510D01*
X453323Y28529D01*
X453031Y28565D01*
X452776Y28602D01*
X452576Y28638D01*
X452412Y28656D01*
X452321Y28693D01*
X452284D01*
X451993Y28784D01*
X451737Y28875D01*
X451519Y28984D01*
X451319Y29094D01*
X451173Y29166D01*
X451045Y29239D01*
X450972Y29294D01*
X450954Y29312D01*
X450754Y29476D01*
X450590Y29640D01*
X450444Y29822D01*
X450335Y29968D01*
X450244Y30114D01*
X450171Y30223D01*
X450134Y30296D01*
X450116Y30314D01*
X450007Y30551D01*
X449934Y30788D01*
X449879Y31025D01*
X449843Y31225D01*
X449824Y31426D01*
X449806Y31571D01*
Y31662D01*
Y31699D01*
X449843Y32063D01*
X449861Y32227D01*
X449897Y32373D01*
X449934Y32482D01*
X449952Y32574D01*
X449988Y32628D01*
Y32646D01*
X450134Y32956D01*
X450207Y33084D01*
X450280Y33193D01*
X450335Y33266D01*
X450389Y33339D01*
X450426Y33375D01*
X450444Y33393D01*
X450663Y33612D01*
X450881Y33758D01*
X450972Y33831D01*
X451045Y33867D01*
X451100Y33904D01*
X451118D01*
X451410Y34031D01*
X451665Y34122D01*
X451774Y34140D01*
X451865Y34159D01*
X451920Y34177D01*
X451938D01*
X451610Y34304D01*
X451337Y34450D01*
X451100Y34614D01*
X450918Y34760D01*
X450790Y34887D01*
X450681Y34997D01*
X450626Y35088D01*
X450608Y35106D01*
X450462Y35343D01*
X450371Y35598D01*
X450298Y35853D01*
X450244Y36090D01*
X450207Y36290D01*
X450189Y36454D01*
Y36564D01*
Y36582D01*
Y36600D01*
X450207Y36837D01*
X450225Y37056D01*
X450335Y37456D01*
X450517Y37803D01*
X450735Y38112D01*
X451009Y38367D01*
X451300Y38568D01*
X451628Y38750D01*
X451956Y38878D01*
X452284Y38987D01*
X452612Y39060D01*
X452904Y39133D01*
X453177Y39169D01*
X453396Y39187D01*
X453578Y39206D01*
X456748D01*
Y28492D01*
D02*
G37*
G36*
X373228Y38914D02*
X370804D01*
Y29676D01*
X373501D01*
Y28492D01*
X366905D01*
Y29676D01*
X369365D01*
Y40080D01*
X373228D01*
Y38914D01*
D02*
G37*
G36*
X341616Y36855D02*
X341871Y36819D01*
X342126Y36746D01*
X342326Y36673D01*
X342527Y36600D01*
X342654Y36527D01*
X342745Y36491D01*
X342782Y36473D01*
X343055Y36309D01*
X343310Y36108D01*
X343547Y35890D01*
X343766Y35689D01*
X343948Y35489D01*
X344094Y35343D01*
X344185Y35234D01*
X344221Y35215D01*
Y35197D01*
X344258Y36728D01*
X345551D01*
Y28492D01*
X344112D01*
Y33776D01*
X343966Y33958D01*
X343839Y34122D01*
X343711Y34250D01*
X343602Y34377D01*
X343511Y34487D01*
X343438Y34559D01*
X343401Y34596D01*
X343383Y34614D01*
X343128Y34851D01*
X342928Y35051D01*
X342837Y35106D01*
X342782Y35161D01*
X342745Y35179D01*
X342727Y35197D01*
X342509Y35343D01*
X342308Y35452D01*
X342235Y35489D01*
X342181Y35507D01*
X342144Y35525D01*
X342126D01*
X341907Y35598D01*
X341725Y35616D01*
X341670Y35634D01*
X341561D01*
X341324Y35616D01*
X341124Y35561D01*
X340960Y35470D01*
X340814Y35398D01*
X340705Y35307D01*
X340614Y35215D01*
X340577Y35161D01*
X340559Y35142D01*
X340450Y34942D01*
X340359Y34687D01*
X340304Y34432D01*
X340268Y34177D01*
X340249Y33958D01*
X340231Y33776D01*
Y33703D01*
Y33648D01*
Y33612D01*
Y33594D01*
X338792D01*
Y33885D01*
X338810Y34159D01*
X338828Y34414D01*
X338865Y34669D01*
X338919Y34887D01*
X338974Y35088D01*
X339029Y35252D01*
X339083Y35416D01*
X339138Y35561D01*
X339211Y35689D01*
X339265Y35798D01*
X339302Y35890D01*
X339357Y35944D01*
X339375Y35999D01*
X339411Y36035D01*
X339539Y36181D01*
X339685Y36309D01*
X339994Y36527D01*
X340304Y36673D01*
X340614Y36764D01*
X340905Y36837D01*
X341033Y36855D01*
X341124D01*
X341215Y36873D01*
X341343D01*
X341616Y36855D01*
D02*
G37*
G36*
X272129Y32956D02*
X275827Y36728D01*
X277722D01*
X273860Y32920D01*
X277941Y28492D01*
X275973D01*
X272129Y32901D01*
Y28492D01*
X270707D01*
Y40080D01*
X272129D01*
Y32956D01*
D02*
G37*
G36*
X255858Y36855D02*
X256059Y36837D01*
X256295Y36801D01*
X256751Y36709D01*
X256769D01*
X256860Y36673D01*
X256969Y36636D01*
X257097Y36582D01*
X257261Y36509D01*
X257425Y36418D01*
X257589Y36327D01*
X257753Y36199D01*
X257771Y36181D01*
X257826Y36145D01*
X257899Y36072D01*
X257990Y35981D01*
X258099Y35853D01*
X258208Y35707D01*
X258300Y35543D01*
X258391Y35361D01*
X258409Y35343D01*
X258427Y35270D01*
X258464Y35161D01*
X258518Y35015D01*
X258555Y34851D01*
X258591Y34632D01*
X258609Y34414D01*
X258628Y34159D01*
Y28492D01*
X257334D01*
X257297Y29585D01*
X257261Y29549D01*
X257188Y29476D01*
X257042Y29367D01*
X256878Y29221D01*
X256660Y29075D01*
X256441Y28911D01*
X256186Y28765D01*
X255931Y28638D01*
X255894Y28620D01*
X255803Y28602D01*
X255676Y28547D01*
X255494Y28492D01*
X255275Y28438D01*
X255020Y28401D01*
X254765Y28365D01*
X254473Y28346D01*
X254364D01*
X254237Y28365D01*
X254072D01*
X253872Y28383D01*
X253672Y28419D01*
X253271Y28510D01*
X253253D01*
X253198Y28547D01*
X253107Y28583D01*
X252979Y28638D01*
X252724Y28802D01*
X252451Y29002D01*
X252433Y29021D01*
X252396Y29057D01*
X252342Y29130D01*
X252269Y29221D01*
X252196Y29330D01*
X252105Y29458D01*
X251977Y29749D01*
Y29768D01*
X251959Y29822D01*
X251941Y29913D01*
X251904Y30023D01*
X251886Y30168D01*
X251850Y30332D01*
X251832Y30679D01*
Y30697D01*
Y30733D01*
Y30806D01*
X251850Y30879D01*
X251868Y30988D01*
X251886Y31116D01*
X251941Y31389D01*
X252050Y31699D01*
X252214Y32027D01*
X252323Y32191D01*
X252451Y32337D01*
X252578Y32482D01*
X252743Y32628D01*
X252761D01*
X252779Y32665D01*
X252834Y32701D01*
X252925Y32737D01*
X253016Y32792D01*
X253125Y32847D01*
X253271Y32920D01*
X253435Y32993D01*
X253617Y33047D01*
X253818Y33120D01*
X254036Y33175D01*
X254291Y33229D01*
X254546Y33266D01*
X254838Y33302D01*
X255148Y33339D01*
X257188D01*
Y34049D01*
Y34086D01*
Y34177D01*
X257170Y34304D01*
X257134Y34468D01*
X257079Y34650D01*
X256988Y34851D01*
X256878Y35033D01*
X256714Y35215D01*
X256696Y35234D01*
X256623Y35288D01*
X256514Y35361D01*
X256368Y35434D01*
X256168Y35507D01*
X255913Y35580D01*
X255621Y35634D01*
X255293Y35653D01*
X255038D01*
X254856Y35634D01*
X254637Y35616D01*
X254419Y35580D01*
X253909Y35489D01*
X253872D01*
X253799Y35452D01*
X253654Y35416D01*
X253489Y35379D01*
X253271Y35307D01*
X253034Y35234D01*
X252779Y35142D01*
X252524Y35051D01*
Y36345D01*
X252542D01*
X252578Y36363D01*
X252615Y36382D01*
X252688Y36400D01*
X252870Y36454D01*
X253107Y36527D01*
X253125D01*
X253162Y36545D01*
X253234Y36564D01*
X253326Y36582D01*
X253562Y36636D01*
X253818Y36691D01*
X253836D01*
X253890Y36709D01*
X253963Y36728D01*
X254054Y36746D01*
X254164Y36764D01*
X254291Y36782D01*
X254583Y36819D01*
X254601D01*
X254656Y36837D01*
X254729D01*
X254838Y36855D01*
X254965D01*
X255093Y36873D01*
X255676D01*
X255858Y36855D01*
D02*
G37*
G36*
X210089Y29676D02*
X212549D01*
Y28492D01*
X205954D01*
Y29676D01*
X208650D01*
Y38914D01*
X206227D01*
Y40080D01*
X210089D01*
Y29676D01*
D02*
G37*
G36*
X126059Y39187D02*
X126277Y39169D01*
X126551Y39133D01*
X126842Y39060D01*
X127170Y38987D01*
X127498Y38878D01*
X127826Y38750D01*
X128154Y38568D01*
X128446Y38367D01*
X128719Y38112D01*
X128938Y37803D01*
X129120Y37456D01*
X129229Y37056D01*
X129247Y36837D01*
X129265Y36600D01*
Y36582D01*
Y36564D01*
Y36454D01*
X129247Y36290D01*
X129211Y36090D01*
X129156Y35853D01*
X129083Y35598D01*
X128992Y35343D01*
X128847Y35106D01*
X128828Y35088D01*
X128774Y34997D01*
X128664Y34887D01*
X128537Y34760D01*
X128355Y34614D01*
X128118Y34450D01*
X127844Y34304D01*
X127516Y34177D01*
X127535D01*
X127589Y34159D01*
X127680Y34140D01*
X127790Y34122D01*
X128045Y34031D01*
X128336Y33904D01*
X128355D01*
X128409Y33867D01*
X128482Y33831D01*
X128573Y33758D01*
X128792Y33612D01*
X129010Y33393D01*
X129029Y33375D01*
X129065Y33339D01*
X129120Y33266D01*
X129174Y33193D01*
X129247Y33084D01*
X129320Y32956D01*
X129466Y32646D01*
Y32628D01*
X129502Y32574D01*
X129521Y32482D01*
X129557Y32373D01*
X129594Y32227D01*
X129612Y32063D01*
X129648Y31699D01*
Y31662D01*
Y31571D01*
X129630Y31426D01*
X129612Y31225D01*
X129575Y31025D01*
X129521Y30788D01*
X129448Y30551D01*
X129338Y30314D01*
X129320Y30296D01*
X129284Y30223D01*
X129211Y30114D01*
X129120Y29968D01*
X129010Y29822D01*
X128865Y29640D01*
X128701Y29476D01*
X128500Y29312D01*
X128482Y29294D01*
X128409Y29239D01*
X128282Y29166D01*
X128136Y29094D01*
X127936Y28984D01*
X127717Y28875D01*
X127462Y28784D01*
X127170Y28693D01*
X127134D01*
X127043Y28656D01*
X126879Y28638D01*
X126678Y28602D01*
X126423Y28565D01*
X126132Y28529D01*
X125804Y28510D01*
X125458Y28492D01*
X122706D01*
Y39206D01*
X125877D01*
X126059Y39187D01*
D02*
G37*
G36*
X153352Y36728D02*
X157069D01*
Y35525D01*
X153352D01*
Y31334D01*
Y31316D01*
Y31298D01*
Y31189D01*
X153371Y31043D01*
X153407Y30843D01*
X153462Y30624D01*
X153553Y30405D01*
X153662Y30205D01*
X153826Y30023D01*
X153844Y30005D01*
X153917Y29950D01*
X154026Y29877D01*
X154172Y29804D01*
X154373Y29731D01*
X154610Y29658D01*
X154883Y29604D01*
X155211Y29585D01*
X155466D01*
X155593Y29604D01*
X155757D01*
X156085Y29640D01*
X156104D01*
X156176Y29658D01*
X156268D01*
X156395Y29695D01*
X156541Y29713D01*
X156705Y29749D01*
X157069Y29840D01*
Y28602D01*
X157051D01*
X156978Y28583D01*
X156887Y28565D01*
X156760Y28547D01*
X156596Y28510D01*
X156432Y28492D01*
X156049Y28438D01*
X155958D01*
X155867Y28419D01*
X155721D01*
X155575Y28401D01*
X155393D01*
X155010Y28383D01*
X154865D01*
X154755Y28401D01*
X154628D01*
X154482Y28419D01*
X154136Y28474D01*
X153771Y28547D01*
X153389Y28674D01*
X153024Y28838D01*
X152842Y28948D01*
X152697Y29075D01*
X152660Y29112D01*
X152569Y29203D01*
X152460Y29367D01*
X152314Y29604D01*
X152168Y29913D01*
X152059Y30278D01*
X151968Y30715D01*
X151931Y31225D01*
Y35525D01*
X149636D01*
Y36728D01*
X151931D01*
Y38987D01*
X153352Y39369D01*
Y36728D01*
D02*
G37*
G36*
X144115D02*
X147832D01*
Y35525D01*
X144115D01*
Y31334D01*
Y31316D01*
Y31298D01*
Y31189D01*
X144133Y31043D01*
X144169Y30843D01*
X144224Y30624D01*
X144315Y30405D01*
X144425Y30205D01*
X144589Y30023D01*
X144607Y30005D01*
X144680Y29950D01*
X144789Y29877D01*
X144935Y29804D01*
X145135Y29731D01*
X145372Y29658D01*
X145645Y29604D01*
X145973Y29585D01*
X146228D01*
X146356Y29604D01*
X146520D01*
X146848Y29640D01*
X146866D01*
X146939Y29658D01*
X147030D01*
X147158Y29695D01*
X147303Y29713D01*
X147467Y29749D01*
X147832Y29840D01*
Y28602D01*
X147813D01*
X147741Y28583D01*
X147650Y28565D01*
X147522Y28547D01*
X147358Y28510D01*
X147194Y28492D01*
X146811Y28438D01*
X146720D01*
X146629Y28419D01*
X146483D01*
X146338Y28401D01*
X146156D01*
X145773Y28383D01*
X145627D01*
X145518Y28401D01*
X145390D01*
X145245Y28419D01*
X144898Y28474D01*
X144534Y28547D01*
X144151Y28674D01*
X143787Y28838D01*
X143605Y28948D01*
X143459Y29075D01*
X143422Y29112D01*
X143331Y29203D01*
X143222Y29367D01*
X143076Y29604D01*
X142930Y29913D01*
X142821Y30278D01*
X142730Y30715D01*
X142694Y31225D01*
Y35525D01*
X140398D01*
Y36728D01*
X142694D01*
Y38987D01*
X144115Y39369D01*
Y36728D01*
D02*
G37*
G36*
X444468Y36855D02*
X444777Y36819D01*
X445051Y36764D01*
X445306Y36709D01*
X445506Y36655D01*
X445652Y36600D01*
X445743Y36564D01*
X445780Y36545D01*
X446035Y36418D01*
X446272Y36272D01*
X446490Y36126D01*
X446672Y35981D01*
X446818Y35853D01*
X446927Y35744D01*
X447000Y35671D01*
X447019Y35653D01*
X447201Y35434D01*
X447346Y35197D01*
X447492Y34979D01*
X447602Y34760D01*
X447693Y34578D01*
X447747Y34414D01*
X447784Y34323D01*
X447802Y34304D01*
Y34286D01*
X447893Y33995D01*
X447948Y33685D01*
X448002Y33393D01*
X448021Y33120D01*
X448039Y32901D01*
X448057Y32719D01*
Y32646D01*
Y32592D01*
Y32574D01*
Y32555D01*
X448039Y32191D01*
X448021Y31845D01*
X447984Y31535D01*
X447930Y31262D01*
X447875Y31043D01*
X447838Y30879D01*
X447820Y30770D01*
X447802Y30751D01*
Y30733D01*
X447693Y30460D01*
X447583Y30205D01*
X447456Y29968D01*
X447346Y29786D01*
X447237Y29622D01*
X447146Y29513D01*
X447091Y29440D01*
X447073Y29421D01*
X446873Y29239D01*
X446672Y29075D01*
X446490Y28929D01*
X446290Y28820D01*
X446126Y28729D01*
X445998Y28674D01*
X445925Y28638D01*
X445889Y28620D01*
X445616Y28529D01*
X445342Y28456D01*
X445069Y28419D01*
X444814Y28383D01*
X444614Y28365D01*
X444431Y28346D01*
X444286D01*
X443939Y28365D01*
X443630Y28401D01*
X443356Y28438D01*
X443101Y28510D01*
X442901Y28565D01*
X442755Y28602D01*
X442664Y28638D01*
X442627Y28656D01*
X442373Y28784D01*
X442117Y28929D01*
X441917Y29075D01*
X441735Y29203D01*
X441589Y29330D01*
X441480Y29440D01*
X441407Y29513D01*
X441389Y29531D01*
X441206Y29749D01*
X441042Y29986D01*
X440915Y30223D01*
X440805Y30442D01*
X440714Y30624D01*
X440660Y30770D01*
X440623Y30861D01*
X440605Y30897D01*
X440514Y31207D01*
X440441Y31517D01*
X440405Y31808D01*
X440368Y32081D01*
X440350Y32318D01*
X440332Y32501D01*
Y32574D01*
Y32628D01*
Y32646D01*
Y32665D01*
X440350Y33029D01*
X440368Y33375D01*
X440423Y33685D01*
X440459Y33958D01*
X440514Y34159D01*
X440569Y34323D01*
X440587Y34432D01*
X440605Y34468D01*
X440714Y34742D01*
X440824Y34997D01*
X440951Y35234D01*
X441079Y35416D01*
X441188Y35580D01*
X441279Y35689D01*
X441334Y35762D01*
X441352Y35780D01*
X441534Y35962D01*
X441735Y36126D01*
X441935Y36272D01*
X442117Y36382D01*
X442281Y36473D01*
X442409Y36527D01*
X442500Y36564D01*
X442536Y36582D01*
X442810Y36673D01*
X443083Y36746D01*
X443338Y36801D01*
X443593Y36837D01*
X443794Y36855D01*
X443976Y36873D01*
X444122D01*
X444468Y36855D01*
D02*
G37*
G36*
X416755D02*
X417065Y36819D01*
X417338Y36764D01*
X417593Y36709D01*
X417794Y36655D01*
X417939Y36600D01*
X418031Y36564D01*
X418067Y36545D01*
X418322Y36418D01*
X418559Y36272D01*
X418778Y36126D01*
X418960Y35981D01*
X419105Y35853D01*
X419215Y35744D01*
X419288Y35671D01*
X419306Y35653D01*
X419488Y35434D01*
X419634Y35197D01*
X419780Y34979D01*
X419889Y34760D01*
X419980Y34578D01*
X420035Y34414D01*
X420071Y34323D01*
X420089Y34304D01*
Y34286D01*
X420181Y33995D01*
X420235Y33685D01*
X420290Y33393D01*
X420308Y33120D01*
X420326Y32901D01*
X420344Y32719D01*
Y32646D01*
Y32592D01*
Y32574D01*
Y32555D01*
X420326Y32191D01*
X420308Y31845D01*
X420272Y31535D01*
X420217Y31262D01*
X420162Y31043D01*
X420126Y30879D01*
X420108Y30770D01*
X420089Y30751D01*
Y30733D01*
X419980Y30460D01*
X419871Y30205D01*
X419743Y29968D01*
X419634Y29786D01*
X419525Y29622D01*
X419433Y29513D01*
X419379Y29440D01*
X419361Y29421D01*
X419160Y29239D01*
X418960Y29075D01*
X418778Y28929D01*
X418577Y28820D01*
X418413Y28729D01*
X418286Y28674D01*
X418213Y28638D01*
X418176Y28620D01*
X417903Y28529D01*
X417630Y28456D01*
X417356Y28419D01*
X417101Y28383D01*
X416901Y28365D01*
X416719Y28346D01*
X416573D01*
X416227Y28365D01*
X415917Y28401D01*
X415644Y28438D01*
X415389Y28510D01*
X415188Y28565D01*
X415042Y28602D01*
X414951Y28638D01*
X414915Y28656D01*
X414660Y28784D01*
X414405Y28929D01*
X414204Y29075D01*
X414022Y29203D01*
X413876Y29330D01*
X413767Y29440D01*
X413694Y29513D01*
X413676Y29531D01*
X413494Y29749D01*
X413330Y29986D01*
X413202Y30223D01*
X413093Y30442D01*
X413002Y30624D01*
X412947Y30770D01*
X412911Y30861D01*
X412892Y30897D01*
X412801Y31207D01*
X412729Y31517D01*
X412692Y31808D01*
X412656Y32081D01*
X412637Y32318D01*
X412619Y32501D01*
Y32574D01*
Y32628D01*
Y32646D01*
Y32665D01*
X412637Y33029D01*
X412656Y33375D01*
X412710Y33685D01*
X412747Y33958D01*
X412801Y34159D01*
X412856Y34323D01*
X412874Y34432D01*
X412892Y34468D01*
X413002Y34742D01*
X413111Y34997D01*
X413239Y35234D01*
X413366Y35416D01*
X413476Y35580D01*
X413567Y35689D01*
X413621Y35762D01*
X413639Y35780D01*
X413822Y35962D01*
X414022Y36126D01*
X414223Y36272D01*
X414405Y36382D01*
X414569Y36473D01*
X414696Y36527D01*
X414787Y36564D01*
X414824Y36582D01*
X415097Y36673D01*
X415370Y36746D01*
X415625Y36801D01*
X415881Y36837D01*
X416081Y36855D01*
X416263Y36873D01*
X416409D01*
X416755Y36855D01*
D02*
G37*
G36*
X388733Y39351D02*
X389079Y39333D01*
X389389Y39297D01*
X389662Y39242D01*
X389881Y39187D01*
X390026Y39151D01*
X390136Y39133D01*
X390172Y39114D01*
X390445Y39005D01*
X390682Y38896D01*
X390901Y38787D01*
X391065Y38677D01*
X391211Y38586D01*
X391320Y38513D01*
X391393Y38458D01*
X391411Y38440D01*
X391575Y38276D01*
X391721Y38112D01*
X391848Y37948D01*
X391939Y37803D01*
X392012Y37675D01*
X392085Y37584D01*
X392104Y37511D01*
X392122Y37493D01*
X392195Y37293D01*
X392249Y37092D01*
X392286Y36910D01*
X392304Y36746D01*
X392322Y36600D01*
X392340Y36491D01*
Y36418D01*
Y36400D01*
X392322Y36181D01*
X392304Y35962D01*
X392267Y35780D01*
X392213Y35616D01*
X392176Y35489D01*
X392140Y35398D01*
X392122Y35325D01*
X392104Y35307D01*
X391903Y34997D01*
X391794Y34851D01*
X391703Y34742D01*
X391612Y34632D01*
X391539Y34559D01*
X391502Y34523D01*
X391484Y34505D01*
X391174Y34268D01*
X391010Y34177D01*
X390883Y34086D01*
X390755Y34013D01*
X390664Y33976D01*
X390591Y33940D01*
X390573Y33922D01*
X390190Y33740D01*
X390026Y33667D01*
X389862Y33594D01*
X389735Y33539D01*
X389644Y33485D01*
X389571Y33466D01*
X389553Y33448D01*
X389170Y33302D01*
X388988Y33229D01*
X388842Y33175D01*
X388696Y33120D01*
X388605Y33084D01*
X388532Y33065D01*
X388514Y33047D01*
X388150Y32883D01*
X388004Y32810D01*
X387876Y32737D01*
X387767Y32683D01*
X387694Y32628D01*
X387640Y32610D01*
X387621Y32592D01*
X387348Y32410D01*
X387239Y32318D01*
X387148Y32227D01*
X387075Y32154D01*
X387020Y32100D01*
X387002Y32063D01*
X386984Y32045D01*
X386893Y31918D01*
X386838Y31808D01*
X386765Y31571D01*
X386747Y31462D01*
X386729Y31389D01*
Y31334D01*
Y31316D01*
X386747Y31043D01*
X386765Y30915D01*
X386802Y30806D01*
X386820Y30715D01*
X386856Y30642D01*
X386874Y30606D01*
Y30588D01*
X387002Y30369D01*
X387166Y30205D01*
X387239Y30150D01*
X387293Y30095D01*
X387330Y30077D01*
X387348Y30059D01*
X387603Y29932D01*
X387858Y29822D01*
X387986Y29804D01*
X388059Y29768D01*
X388131Y29749D01*
X388150D01*
X388350Y29713D01*
X388551Y29695D01*
X388751Y29658D01*
X388933D01*
X389097Y29640D01*
X389717D01*
X390045Y29658D01*
X390336Y29676D01*
X390591Y29713D01*
X390810Y29731D01*
X390974Y29749D01*
X391065Y29768D01*
X391101D01*
X391375Y29822D01*
X391630Y29877D01*
X391867Y29932D01*
X392067Y30005D01*
X392231Y30059D01*
X392359Y30095D01*
X392431Y30114D01*
X392468Y30132D01*
Y28729D01*
X392249Y28674D01*
X392049Y28620D01*
X391976Y28602D01*
X391903Y28583D01*
X391867Y28565D01*
X391848D01*
X391593Y28529D01*
X391356Y28492D01*
X391265D01*
X391193Y28474D01*
X391120D01*
X390828Y28438D01*
X390573Y28401D01*
X390464D01*
X390391Y28383D01*
X390318D01*
X389990Y28365D01*
X389862D01*
X389717Y28346D01*
X389115D01*
X388787Y28383D01*
X388496Y28401D01*
X388241Y28438D01*
X388022Y28474D01*
X387858Y28492D01*
X387767Y28529D01*
X387731D01*
X387439Y28602D01*
X387184Y28693D01*
X386965Y28784D01*
X386765Y28875D01*
X386619Y28966D01*
X386492Y29039D01*
X386419Y29075D01*
X386401Y29094D01*
X386200Y29239D01*
X386018Y29403D01*
X385872Y29567D01*
X385745Y29713D01*
X385654Y29840D01*
X385581Y29950D01*
X385544Y30023D01*
X385526Y30041D01*
X385417Y30259D01*
X385344Y30496D01*
X385271Y30733D01*
X385234Y30934D01*
X385216Y31116D01*
X385198Y31262D01*
Y31353D01*
Y31389D01*
X385216Y31626D01*
X385234Y31826D01*
X385271Y32027D01*
X385326Y32191D01*
X385380Y32318D01*
X385417Y32410D01*
X385435Y32482D01*
X385453Y32501D01*
X385654Y32829D01*
X385763Y32974D01*
X385854Y33084D01*
X385945Y33193D01*
X386018Y33266D01*
X386073Y33302D01*
X386091Y33321D01*
X386382Y33557D01*
X386674Y33758D01*
X386802Y33831D01*
X386893Y33885D01*
X386965Y33904D01*
X386984Y33922D01*
X387366Y34104D01*
X387530Y34177D01*
X387694Y34250D01*
X387822Y34304D01*
X387931Y34341D01*
X388004Y34377D01*
X388022D01*
X388405Y34541D01*
X388569Y34614D01*
X388715Y34669D01*
X388860Y34723D01*
X388951Y34760D01*
X389024Y34796D01*
X389042D01*
X389407Y34942D01*
X389553Y35015D01*
X389680Y35088D01*
X389808Y35142D01*
X389881Y35197D01*
X389935Y35215D01*
X389953Y35234D01*
X390209Y35434D01*
X390409Y35616D01*
X390482Y35689D01*
X390537Y35744D01*
X390555Y35780D01*
X390573Y35798D01*
X390646Y35926D01*
X390701Y36053D01*
X390773Y36290D01*
X390792Y36400D01*
X390810Y36473D01*
Y36527D01*
Y36545D01*
X390792Y36801D01*
X390719Y37019D01*
X390628Y37220D01*
X390518Y37384D01*
X390409Y37511D01*
X390318Y37602D01*
X390245Y37657D01*
X390227Y37675D01*
X389972Y37821D01*
X389698Y37930D01*
X389389Y38003D01*
X389079Y38058D01*
X388806Y38094D01*
X388587Y38112D01*
X388387D01*
X387949Y38094D01*
X387731Y38076D01*
X387548Y38058D01*
X387385Y38039D01*
X387275Y38021D01*
X387184Y38003D01*
X387166D01*
X386692Y37930D01*
X386473Y37876D01*
X386291Y37839D01*
X386127Y37803D01*
X386000Y37784D01*
X385927Y37748D01*
X385891D01*
Y39060D01*
X386091Y39096D01*
X386291Y39133D01*
X386364Y39151D01*
X386437Y39169D01*
X386492D01*
X386729Y39206D01*
X386929Y39242D01*
X387002D01*
X387075Y39260D01*
X387129D01*
X387366Y39297D01*
X387567Y39315D01*
X387658Y39333D01*
X387767D01*
X387986Y39351D01*
X388168Y39369D01*
X388350D01*
X388733Y39351D01*
D02*
G37*
G36*
X379805Y36855D02*
X380115Y36819D01*
X380388Y36764D01*
X380643Y36709D01*
X380843Y36655D01*
X380989Y36600D01*
X381080Y36564D01*
X381117Y36545D01*
X381372Y36418D01*
X381609Y36272D01*
X381827Y36126D01*
X382010Y35981D01*
X382155Y35853D01*
X382265Y35744D01*
X382338Y35671D01*
X382356Y35653D01*
X382538Y35434D01*
X382684Y35197D01*
X382829Y34979D01*
X382939Y34760D01*
X383030Y34578D01*
X383085Y34414D01*
X383121Y34323D01*
X383139Y34304D01*
Y34286D01*
X383230Y33995D01*
X383285Y33685D01*
X383340Y33393D01*
X383358Y33120D01*
X383376Y32901D01*
X383394Y32719D01*
Y32646D01*
Y32592D01*
Y32574D01*
Y32555D01*
X383376Y32191D01*
X383358Y31845D01*
X383321Y31535D01*
X383267Y31262D01*
X383212Y31043D01*
X383176Y30879D01*
X383157Y30770D01*
X383139Y30751D01*
Y30733D01*
X383030Y30460D01*
X382921Y30205D01*
X382793Y29968D01*
X382684Y29786D01*
X382574Y29622D01*
X382483Y29513D01*
X382429Y29440D01*
X382410Y29421D01*
X382210Y29239D01*
X382010Y29075D01*
X381827Y28929D01*
X381627Y28820D01*
X381463Y28729D01*
X381335Y28674D01*
X381263Y28638D01*
X381226Y28620D01*
X380953Y28529D01*
X380679Y28456D01*
X380406Y28419D01*
X380151Y28383D01*
X379951Y28365D01*
X379768Y28346D01*
X379623D01*
X379277Y28365D01*
X378967Y28401D01*
X378694Y28438D01*
X378438Y28510D01*
X378238Y28565D01*
X378092Y28602D01*
X378001Y28638D01*
X377965Y28656D01*
X377710Y28784D01*
X377455Y28929D01*
X377254Y29075D01*
X377072Y29203D01*
X376926Y29330D01*
X376817Y29440D01*
X376744Y29513D01*
X376726Y29531D01*
X376544Y29749D01*
X376380Y29986D01*
X376252Y30223D01*
X376143Y30442D01*
X376052Y30624D01*
X375997Y30770D01*
X375961Y30861D01*
X375942Y30897D01*
X375851Y31207D01*
X375778Y31517D01*
X375742Y31808D01*
X375706Y32081D01*
X375687Y32318D01*
X375669Y32501D01*
Y32574D01*
Y32628D01*
Y32646D01*
Y32665D01*
X375687Y33029D01*
X375706Y33375D01*
X375760Y33685D01*
X375797Y33958D01*
X375851Y34159D01*
X375906Y34323D01*
X375924Y34432D01*
X375942Y34468D01*
X376052Y34742D01*
X376161Y34997D01*
X376289Y35234D01*
X376416Y35416D01*
X376525Y35580D01*
X376617Y35689D01*
X376671Y35762D01*
X376689Y35780D01*
X376872Y35962D01*
X377072Y36126D01*
X377272Y36272D01*
X377455Y36382D01*
X377619Y36473D01*
X377746Y36527D01*
X377837Y36564D01*
X377874Y36582D01*
X378147Y36673D01*
X378420Y36746D01*
X378675Y36801D01*
X378930Y36837D01*
X379131Y36855D01*
X379313Y36873D01*
X379459D01*
X379805Y36855D01*
D02*
G37*
G36*
X359216Y36600D02*
X359490Y36673D01*
X359745Y36728D01*
X359836Y36746D01*
X359909D01*
X359963Y36764D01*
X359982D01*
X360255Y36801D01*
X360510Y36819D01*
X360747D01*
X361075Y36801D01*
X361385Y36782D01*
X361676Y36728D01*
X361913Y36673D01*
X362113Y36618D01*
X362277Y36582D01*
X362368Y36545D01*
X362405Y36527D01*
X362678Y36400D01*
X362915Y36272D01*
X363134Y36126D01*
X363316Y35999D01*
X363480Y35871D01*
X363589Y35762D01*
X363662Y35689D01*
X363680Y35671D01*
X363862Y35452D01*
X364026Y35215D01*
X364172Y34979D01*
X364282Y34760D01*
X364373Y34578D01*
X364445Y34432D01*
X364482Y34323D01*
X364500Y34304D01*
Y34286D01*
X364591Y33976D01*
X364664Y33648D01*
X364701Y33339D01*
X364737Y33047D01*
X364755Y32792D01*
X364774Y32610D01*
Y32537D01*
Y32482D01*
Y32446D01*
Y32428D01*
Y32100D01*
X364755Y31790D01*
X364719Y31499D01*
X364682Y31243D01*
X364664Y31043D01*
X364628Y30879D01*
X364610Y30788D01*
Y30751D01*
X364537Y30478D01*
X364445Y30241D01*
X364354Y30023D01*
X364263Y29822D01*
X364190Y29676D01*
X364118Y29549D01*
X364081Y29476D01*
X364063Y29458D01*
X363917Y29276D01*
X363771Y29112D01*
X363626Y28966D01*
X363480Y28857D01*
X363352Y28765D01*
X363261Y28693D01*
X363188Y28656D01*
X363170Y28638D01*
X362951Y28547D01*
X362751Y28474D01*
X362532Y28419D01*
X362350Y28383D01*
X362186Y28365D01*
X362040Y28346D01*
X361931D01*
X361621Y28365D01*
X361348Y28401D01*
X361093Y28474D01*
X360874Y28547D01*
X360674Y28620D01*
X360546Y28693D01*
X360455Y28729D01*
X360419Y28747D01*
X360164Y28929D01*
X359927Y29130D01*
X359708Y29348D01*
X359508Y29549D01*
X359344Y29749D01*
X359235Y29895D01*
X359143Y30005D01*
X359125Y30023D01*
Y30041D01*
X359071Y28492D01*
X357777D01*
Y40080D01*
X359216D01*
Y36600D01*
D02*
G37*
G36*
X314851Y36855D02*
X315179Y36837D01*
X315452Y36801D01*
X315689Y36764D01*
X315889Y36709D01*
X316017Y36673D01*
X316108Y36655D01*
X316144Y36636D01*
X316381Y36545D01*
X316582Y36436D01*
X316764Y36345D01*
X316910Y36254D01*
X317019Y36163D01*
X317110Y36090D01*
X317165Y36053D01*
X317183Y36035D01*
X317310Y35908D01*
X317438Y35762D01*
X317529Y35634D01*
X317602Y35525D01*
X317657Y35416D01*
X317693Y35343D01*
X317729Y35288D01*
Y35270D01*
X317821Y34979D01*
X317839Y34851D01*
X317857Y34742D01*
X317875Y34650D01*
Y34578D01*
Y34541D01*
Y34523D01*
Y34341D01*
X317839Y34159D01*
X317821Y33995D01*
X317784Y33867D01*
X317748Y33758D01*
X317729Y33685D01*
X317693Y33630D01*
Y33612D01*
X317529Y33339D01*
X317347Y33138D01*
X317274Y33047D01*
X317201Y32993D01*
X317165Y32956D01*
X317146Y32938D01*
X316873Y32737D01*
X316600Y32592D01*
X316491Y32537D01*
X316399Y32482D01*
X316345Y32464D01*
X316326Y32446D01*
X315962Y32300D01*
X315798Y32245D01*
X315634Y32191D01*
X315507Y32136D01*
X315397Y32118D01*
X315324Y32081D01*
X315306D01*
X315033Y32009D01*
X314814Y31936D01*
X314614Y31863D01*
X314450Y31808D01*
X314304Y31754D01*
X314213Y31717D01*
X314158Y31681D01*
X314140D01*
X313994Y31626D01*
X313849Y31553D01*
X313739Y31499D01*
X313648Y31462D01*
X313594Y31407D01*
X313539Y31389D01*
X313502Y31353D01*
X313357Y31225D01*
X313265Y31116D01*
X313229Y31043D01*
X313211Y31007D01*
X313156Y30879D01*
X313138Y30751D01*
X313120Y30660D01*
Y30642D01*
Y30624D01*
X313138Y30442D01*
X313193Y30278D01*
X313284Y30132D01*
X313375Y30023D01*
X313466Y29932D01*
X313557Y29877D01*
X313612Y29840D01*
X313630Y29822D01*
X313830Y29731D01*
X314067Y29658D01*
X314322Y29622D01*
X314577Y29585D01*
X314796Y29567D01*
X314978Y29549D01*
X315142D01*
X315671Y29567D01*
X315907Y29585D01*
X316126Y29604D01*
X316308D01*
X316436Y29622D01*
X316527Y29640D01*
X316563D01*
X317092Y29731D01*
X317329Y29786D01*
X317547Y29840D01*
X317729Y29895D01*
X317857Y29932D01*
X317948Y29968D01*
X317985D01*
Y28656D01*
X317493Y28547D01*
X317274Y28510D01*
X317055Y28474D01*
X316891Y28456D01*
X316746Y28438D01*
X316673Y28419D01*
X316636D01*
X316090Y28383D01*
X315835Y28365D01*
X315598D01*
X315397Y28346D01*
X315088D01*
X314796Y28365D01*
X314559Y28383D01*
X314450Y28401D01*
X314377D01*
X314322Y28419D01*
X314304D01*
X314013Y28474D01*
X313867Y28492D01*
X313757Y28529D01*
X313666Y28547D01*
X313575Y28565D01*
X313539Y28583D01*
X313521D01*
X313247Y28674D01*
X313029Y28765D01*
X312938Y28820D01*
X312865Y28838D01*
X312828Y28875D01*
X312810D01*
X312573Y29039D01*
X312373Y29185D01*
X312300Y29239D01*
X312245Y29294D01*
X312227Y29312D01*
X312209Y29330D01*
X312045Y29549D01*
X311917Y29749D01*
X311863Y29822D01*
X311826Y29895D01*
X311808Y29932D01*
Y29950D01*
X311717Y30223D01*
X311662Y30478D01*
X311644Y30569D01*
Y30660D01*
Y30715D01*
Y30733D01*
X311662Y31061D01*
X311680Y31189D01*
X311717Y31316D01*
X311735Y31407D01*
X311771Y31499D01*
X311790Y31535D01*
Y31553D01*
X311844Y31681D01*
X311917Y31808D01*
X312063Y32009D01*
X312136Y32081D01*
X312191Y32136D01*
X312227Y32173D01*
X312245Y32191D01*
X312500Y32391D01*
X312755Y32574D01*
X312883Y32628D01*
X312956Y32683D01*
X313029Y32701D01*
X313047Y32719D01*
X313247Y32810D01*
X313448Y32883D01*
X313648Y32974D01*
X313849Y33029D01*
X314031Y33102D01*
X314158Y33138D01*
X314249Y33156D01*
X314286Y33175D01*
X314523Y33248D01*
X314723Y33302D01*
X314905Y33357D01*
X315069Y33412D01*
X315197Y33466D01*
X315288Y33485D01*
X315343Y33521D01*
X315361D01*
X315507Y33594D01*
X315634Y33648D01*
X315743Y33703D01*
X315853Y33758D01*
X315926Y33812D01*
X315980Y33831D01*
X315999Y33867D01*
X316017D01*
X316162Y33995D01*
X316272Y34104D01*
X316326Y34177D01*
X316345Y34213D01*
X316381Y34359D01*
X316399Y34487D01*
X316418Y34578D01*
Y34596D01*
Y34614D01*
X316399Y34778D01*
X316363Y34906D01*
X316345Y34997D01*
X316326Y35033D01*
X316235Y35161D01*
X316144Y35270D01*
X316053Y35343D01*
X316017Y35361D01*
X315816Y35452D01*
X315634Y35543D01*
X315543Y35561D01*
X315470Y35580D01*
X315434Y35598D01*
X315416D01*
X315124Y35653D01*
X314832Y35671D01*
X314705Y35689D01*
X314523D01*
X314158Y35671D01*
X313994Y35653D01*
X313830D01*
X313685Y35634D01*
X313575Y35616D01*
X313484Y35598D01*
X313466D01*
X313011Y35525D01*
X312792Y35489D01*
X312610Y35452D01*
X312427Y35416D01*
X312300Y35398D01*
X312227Y35361D01*
X312191D01*
Y36636D01*
X312427Y36673D01*
X312664Y36728D01*
X312865Y36746D01*
X313047Y36782D01*
X313211Y36801D01*
X313320D01*
X313411Y36819D01*
X313429D01*
X313849Y36855D01*
X314031D01*
X314177Y36873D01*
X314505D01*
X314851Y36855D01*
D02*
G37*
G36*
X228036D02*
X228237Y36837D01*
X228473Y36801D01*
X228729Y36764D01*
X228984Y36691D01*
X229239Y36600D01*
X229275Y36582D01*
X229348Y36545D01*
X229475Y36491D01*
X229640Y36400D01*
X229803Y36290D01*
X230004Y36163D01*
X230186Y35999D01*
X230368Y35817D01*
X230386Y35798D01*
X230441Y35726D01*
X230532Y35616D01*
X230623Y35489D01*
X230733Y35307D01*
X230860Y35106D01*
X230970Y34869D01*
X231061Y34614D01*
X231079Y34578D01*
X231097Y34487D01*
X231134Y34341D01*
X231188Y34159D01*
X231225Y33922D01*
X231261Y33667D01*
X231279Y33375D01*
X231297Y33047D01*
Y33029D01*
Y32993D01*
Y32938D01*
Y32865D01*
Y32701D01*
X231279Y32519D01*
Y32482D01*
Y32391D01*
Y32282D01*
X231261Y32154D01*
X225485D01*
Y32136D01*
Y32100D01*
Y32027D01*
X225504Y31954D01*
Y31845D01*
X225522Y31717D01*
X225576Y31426D01*
X225649Y31116D01*
X225777Y30788D01*
X225941Y30478D01*
X226178Y30205D01*
X226214Y30168D01*
X226305Y30095D01*
X226469Y29986D01*
X226706Y29877D01*
X226998Y29749D01*
X227344Y29640D01*
X227745Y29567D01*
X228218Y29531D01*
X228674D01*
X228929Y29549D01*
X228984D01*
X229057Y29567D01*
X229148D01*
X229384Y29604D01*
X229621Y29622D01*
X229640D01*
X229676Y29640D01*
X229749D01*
X229840Y29658D01*
X230040Y29695D01*
X230277Y29731D01*
X230295D01*
X230332Y29749D01*
X230386Y29768D01*
X230459Y29786D01*
X230660Y29822D01*
X230860Y29877D01*
Y28711D01*
X230842D01*
X230751Y28693D01*
X230642Y28656D01*
X230478Y28620D01*
X230277Y28583D01*
X230059Y28529D01*
X229803Y28492D01*
X229530Y28456D01*
X229494D01*
X229403Y28438D01*
X229257Y28419D01*
X229075Y28401D01*
X228838Y28383D01*
X228583Y28365D01*
X228309Y28346D01*
X227836D01*
X227635Y28365D01*
X227398Y28383D01*
X227107Y28419D01*
X226797Y28456D01*
X226487Y28529D01*
X226196Y28620D01*
X226160Y28638D01*
X226068Y28674D01*
X225923Y28747D01*
X225759Y28838D01*
X225558Y28948D01*
X225340Y29094D01*
X225139Y29257D01*
X224939Y29458D01*
X224921Y29476D01*
X224866Y29549D01*
X224775Y29676D01*
X224665Y29822D01*
X224538Y30023D01*
X224429Y30241D01*
X224301Y30515D01*
X224210Y30788D01*
Y30806D01*
Y30824D01*
X224173Y30934D01*
X224137Y31098D01*
X224101Y31316D01*
X224064Y31590D01*
X224028Y31881D01*
X224009Y32227D01*
X223991Y32592D01*
Y32610D01*
Y32628D01*
Y32737D01*
X224009Y32901D01*
X224028Y33120D01*
X224046Y33357D01*
X224101Y33630D01*
X224155Y33922D01*
X224228Y34213D01*
Y34231D01*
X224246Y34250D01*
X224283Y34341D01*
X224338Y34487D01*
X224410Y34687D01*
X224520Y34887D01*
X224647Y35124D01*
X224793Y35361D01*
X224957Y35580D01*
X224975Y35598D01*
X225048Y35671D01*
X225157Y35780D01*
X225285Y35926D01*
X225467Y36072D01*
X225668Y36236D01*
X225886Y36382D01*
X226141Y36527D01*
X226178Y36545D01*
X226269Y36582D01*
X226415Y36636D01*
X226597Y36709D01*
X226834Y36764D01*
X227107Y36819D01*
X227398Y36855D01*
X227726Y36873D01*
X227872D01*
X228036Y36855D01*
D02*
G37*
G36*
X200324D02*
X200524Y36837D01*
X200779Y36801D01*
X201034Y36746D01*
X201307Y36673D01*
X201581Y36582D01*
X201617Y36564D01*
X201708Y36527D01*
X201836Y36473D01*
X202000Y36382D01*
X202182Y36272D01*
X202382Y36126D01*
X202583Y35962D01*
X202765Y35780D01*
X202783Y35762D01*
X202838Y35689D01*
X202929Y35580D01*
X203038Y35416D01*
X203166Y35234D01*
X203293Y34997D01*
X203403Y34742D01*
X203512Y34468D01*
X203530Y34432D01*
X203549Y34323D01*
X203603Y34159D01*
X203658Y33958D01*
X203694Y33685D01*
X203749Y33375D01*
X203767Y33029D01*
X203785Y32665D01*
Y32646D01*
Y32628D01*
Y32574D01*
Y32501D01*
X203767Y32318D01*
X203749Y32081D01*
X203713Y31808D01*
X203676Y31517D01*
X203603Y31207D01*
X203512Y30897D01*
X203494Y30861D01*
X203457Y30770D01*
X203403Y30624D01*
X203312Y30442D01*
X203202Y30223D01*
X203075Y29986D01*
X202911Y29749D01*
X202729Y29531D01*
X202710Y29513D01*
X202638Y29440D01*
X202528Y29330D01*
X202382Y29203D01*
X202200Y29075D01*
X202000Y28929D01*
X201745Y28784D01*
X201490Y28656D01*
X201453Y28638D01*
X201362Y28602D01*
X201216Y28565D01*
X201016Y28510D01*
X200761Y28438D01*
X200487Y28401D01*
X200178Y28365D01*
X199832Y28346D01*
X199686D01*
X199504Y28365D01*
X199303Y28383D01*
X199048Y28419D01*
X198775Y28456D01*
X198502Y28529D01*
X198228Y28620D01*
X198192Y28638D01*
X198119Y28674D01*
X197991Y28729D01*
X197827Y28820D01*
X197627Y28929D01*
X197445Y29075D01*
X197244Y29239D01*
X197044Y29421D01*
X197026Y29440D01*
X196971Y29513D01*
X196880Y29622D01*
X196771Y29786D01*
X196661Y29968D01*
X196534Y30205D01*
X196424Y30460D01*
X196315Y30733D01*
Y30751D01*
X196297Y30770D01*
X196279Y30879D01*
X196242Y31043D01*
X196188Y31262D01*
X196133Y31535D01*
X196097Y31845D01*
X196078Y32191D01*
X196060Y32555D01*
Y32574D01*
Y32592D01*
Y32646D01*
Y32719D01*
X196078Y32901D01*
X196097Y33120D01*
X196115Y33393D01*
X196169Y33685D01*
X196224Y33995D01*
X196315Y34286D01*
Y34304D01*
X196333Y34323D01*
X196370Y34414D01*
X196424Y34578D01*
X196516Y34760D01*
X196625Y34979D01*
X196771Y35197D01*
X196916Y35434D01*
X197099Y35653D01*
X197117Y35671D01*
X197190Y35744D01*
X197299Y35853D01*
X197445Y35981D01*
X197627Y36126D01*
X197846Y36272D01*
X198082Y36418D01*
X198338Y36545D01*
X198374Y36564D01*
X198465Y36600D01*
X198611Y36655D01*
X198811Y36709D01*
X199066Y36764D01*
X199340Y36819D01*
X199649Y36855D01*
X199996Y36873D01*
X200141D01*
X200324Y36855D01*
D02*
G37*
G36*
X163373D02*
X163574Y36837D01*
X163829Y36801D01*
X164084Y36746D01*
X164357Y36673D01*
X164631Y36582D01*
X164667Y36564D01*
X164758Y36527D01*
X164886Y36473D01*
X165050Y36382D01*
X165232Y36272D01*
X165432Y36126D01*
X165633Y35962D01*
X165815Y35780D01*
X165833Y35762D01*
X165888Y35689D01*
X165979Y35580D01*
X166088Y35416D01*
X166216Y35234D01*
X166343Y34997D01*
X166453Y34742D01*
X166562Y34468D01*
X166580Y34432D01*
X166598Y34323D01*
X166653Y34159D01*
X166708Y33958D01*
X166744Y33685D01*
X166799Y33375D01*
X166817Y33029D01*
X166835Y32665D01*
Y32646D01*
Y32628D01*
Y32574D01*
Y32501D01*
X166817Y32318D01*
X166799Y32081D01*
X166762Y31808D01*
X166726Y31517D01*
X166653Y31207D01*
X166562Y30897D01*
X166544Y30861D01*
X166507Y30770D01*
X166453Y30624D01*
X166361Y30442D01*
X166252Y30223D01*
X166125Y29986D01*
X165961Y29749D01*
X165778Y29531D01*
X165760Y29513D01*
X165687Y29440D01*
X165578Y29330D01*
X165432Y29203D01*
X165250Y29075D01*
X165050Y28929D01*
X164795Y28784D01*
X164540Y28656D01*
X164503Y28638D01*
X164412Y28602D01*
X164266Y28565D01*
X164066Y28510D01*
X163811Y28438D01*
X163537Y28401D01*
X163228Y28365D01*
X162881Y28346D01*
X162736D01*
X162554Y28365D01*
X162353Y28383D01*
X162098Y28419D01*
X161825Y28456D01*
X161551Y28529D01*
X161278Y28620D01*
X161242Y28638D01*
X161169Y28674D01*
X161041Y28729D01*
X160877Y28820D01*
X160677Y28929D01*
X160495Y29075D01*
X160294Y29239D01*
X160094Y29421D01*
X160076Y29440D01*
X160021Y29513D01*
X159930Y29622D01*
X159820Y29786D01*
X159711Y29968D01*
X159584Y30205D01*
X159474Y30460D01*
X159365Y30733D01*
Y30751D01*
X159347Y30770D01*
X159328Y30879D01*
X159292Y31043D01*
X159237Y31262D01*
X159183Y31535D01*
X159146Y31845D01*
X159128Y32191D01*
X159110Y32555D01*
Y32574D01*
Y32592D01*
Y32646D01*
Y32719D01*
X159128Y32901D01*
X159146Y33120D01*
X159165Y33393D01*
X159219Y33685D01*
X159274Y33995D01*
X159365Y34286D01*
Y34304D01*
X159383Y34323D01*
X159420Y34414D01*
X159474Y34578D01*
X159565Y34760D01*
X159675Y34979D01*
X159820Y35197D01*
X159966Y35434D01*
X160148Y35653D01*
X160167Y35671D01*
X160240Y35744D01*
X160349Y35853D01*
X160495Y35981D01*
X160677Y36126D01*
X160896Y36272D01*
X161132Y36418D01*
X161387Y36545D01*
X161424Y36564D01*
X161515Y36600D01*
X161661Y36655D01*
X161861Y36709D01*
X162116Y36764D01*
X162390Y36819D01*
X162699Y36855D01*
X163045Y36873D01*
X163191D01*
X163373Y36855D01*
D02*
G37*
G36*
X135661D02*
X135861Y36837D01*
X136116Y36801D01*
X136371Y36746D01*
X136645Y36673D01*
X136918Y36582D01*
X136954Y36564D01*
X137046Y36527D01*
X137173Y36473D01*
X137337Y36382D01*
X137519Y36272D01*
X137720Y36126D01*
X137920Y35962D01*
X138102Y35780D01*
X138120Y35762D01*
X138175Y35689D01*
X138266Y35580D01*
X138375Y35416D01*
X138503Y35234D01*
X138631Y34997D01*
X138740Y34742D01*
X138849Y34468D01*
X138867Y34432D01*
X138886Y34323D01*
X138940Y34159D01*
X138995Y33958D01*
X139032Y33685D01*
X139086Y33375D01*
X139104Y33029D01*
X139123Y32665D01*
Y32646D01*
Y32628D01*
Y32574D01*
Y32501D01*
X139104Y32318D01*
X139086Y32081D01*
X139050Y31808D01*
X139013Y31517D01*
X138940Y31207D01*
X138849Y30897D01*
X138831Y30861D01*
X138795Y30770D01*
X138740Y30624D01*
X138649Y30442D01*
X138540Y30223D01*
X138412Y29986D01*
X138248Y29749D01*
X138066Y29531D01*
X138048Y29513D01*
X137975Y29440D01*
X137865Y29330D01*
X137720Y29203D01*
X137537Y29075D01*
X137337Y28929D01*
X137082Y28784D01*
X136827Y28656D01*
X136790Y28638D01*
X136699Y28602D01*
X136554Y28565D01*
X136353Y28510D01*
X136098Y28438D01*
X135825Y28401D01*
X135515Y28365D01*
X135169Y28346D01*
X135023D01*
X134841Y28365D01*
X134640Y28383D01*
X134385Y28419D01*
X134112Y28456D01*
X133839Y28529D01*
X133565Y28620D01*
X133529Y28638D01*
X133456Y28674D01*
X133329Y28729D01*
X133165Y28820D01*
X132964Y28929D01*
X132782Y29075D01*
X132582Y29239D01*
X132381Y29421D01*
X132363Y29440D01*
X132308Y29513D01*
X132217Y29622D01*
X132108Y29786D01*
X131999Y29968D01*
X131871Y30205D01*
X131762Y30460D01*
X131652Y30733D01*
Y30751D01*
X131634Y30770D01*
X131616Y30879D01*
X131579Y31043D01*
X131525Y31262D01*
X131470Y31535D01*
X131434Y31845D01*
X131415Y32191D01*
X131397Y32555D01*
Y32574D01*
Y32592D01*
Y32646D01*
Y32719D01*
X131415Y32901D01*
X131434Y33120D01*
X131452Y33393D01*
X131507Y33685D01*
X131561Y33995D01*
X131652Y34286D01*
Y34304D01*
X131671Y34323D01*
X131707Y34414D01*
X131762Y34578D01*
X131853Y34760D01*
X131962Y34979D01*
X132108Y35197D01*
X132254Y35434D01*
X132436Y35653D01*
X132454Y35671D01*
X132527Y35744D01*
X132636Y35853D01*
X132782Y35981D01*
X132964Y36126D01*
X133183Y36272D01*
X133420Y36418D01*
X133675Y36545D01*
X133711Y36564D01*
X133802Y36600D01*
X133948Y36655D01*
X134149Y36709D01*
X134404Y36764D01*
X134677Y36819D01*
X134987Y36855D01*
X135333Y36873D01*
X135479D01*
X135661Y36855D01*
D02*
G37*
G36*
X360176Y-312719D02*
X361899Y-313227D01*
X363532Y-313977D01*
X365040Y-314952D01*
X366394Y-316132D01*
X367565Y-317495D01*
X368529Y-319010D01*
X369267Y-320648D01*
X369762Y-322374D01*
X370007Y-324154D01*
X369994Y-325950D01*
X369724Y-327726D01*
X369203Y-329445D01*
X368442Y-331072D01*
X367457Y-332574D01*
X366266Y-333919D01*
X364896Y-335080D01*
X363373Y-336033D01*
X361730Y-336759D01*
X360865Y-337001D01*
Y-337001D01*
X327500D01*
Y-312462D01*
X358399D01*
X360176Y-312719D01*
D02*
G37*
%LPC*%
G36*
X218598Y35634D02*
X218489D01*
X218398Y35616D01*
X218197Y35598D01*
X217942Y35543D01*
X217633Y35452D01*
X217341Y35307D01*
X217050Y35124D01*
X216776Y34869D01*
X216758Y34833D01*
X216685Y34723D01*
X216630Y34650D01*
X216576Y34541D01*
X216521Y34432D01*
X216466Y34304D01*
X216394Y34140D01*
X216339Y33976D01*
X216284Y33776D01*
X216248Y33557D01*
X216193Y33339D01*
X216175Y33084D01*
X216139Y32810D01*
Y32519D01*
Y32501D01*
Y32446D01*
Y32373D01*
Y32282D01*
X216157Y32154D01*
Y32009D01*
X216193Y31681D01*
X216248Y31316D01*
X216321Y30952D01*
X216430Y30606D01*
X216576Y30296D01*
X216594Y30259D01*
X216649Y30187D01*
X216758Y30059D01*
X216904Y29932D01*
X217068Y29804D01*
X217286Y29676D01*
X217523Y29604D01*
X217815Y29567D01*
X217906D01*
X218015Y29585D01*
X218161Y29622D01*
X218343Y29676D01*
X218525Y29768D01*
X218744Y29877D01*
X218963Y30041D01*
X218999Y30059D01*
X219072Y30132D01*
X219181Y30241D01*
X219345Y30405D01*
X219546Y30606D01*
X219746Y30861D01*
X219983Y31152D01*
X220238Y31480D01*
Y35288D01*
X220220D01*
X220183Y35325D01*
X220092Y35343D01*
X220001Y35379D01*
X219892Y35416D01*
X219746Y35470D01*
X219436Y35543D01*
X219418D01*
X219363Y35561D01*
X219291Y35580D01*
X219181Y35598D01*
X219054D01*
X218908Y35616D01*
X218598Y35634D01*
D02*
G37*
G36*
X324270Y32245D02*
X322266D01*
Y30770D01*
X322521Y30533D01*
X322776Y30351D01*
X323013Y30187D01*
X323214Y30059D01*
X323378Y29950D01*
X323505Y29877D01*
X323578Y29840D01*
X323615Y29822D01*
X323851Y29731D01*
X324052Y29658D01*
X324252Y29604D01*
X324416Y29567D01*
X324562Y29549D01*
X324653Y29531D01*
X324744D01*
X324999Y29549D01*
X325200Y29585D01*
X325272D01*
X325327Y29604D01*
X325364Y29622D01*
X325382D01*
X325546Y29695D01*
X325692Y29786D01*
X325764Y29859D01*
X325801Y29877D01*
X325910Y30023D01*
X325983Y30150D01*
X326020Y30241D01*
X326038Y30259D01*
Y30278D01*
X326074Y30442D01*
X326092Y30588D01*
X326111Y30697D01*
Y30715D01*
Y30733D01*
X326092Y30970D01*
X326056Y31170D01*
X326038Y31243D01*
X326020Y31298D01*
X326001Y31334D01*
Y31353D01*
X325892Y31535D01*
X325764Y31699D01*
X325673Y31790D01*
X325655Y31826D01*
X325637D01*
X325436Y31954D01*
X325218Y32063D01*
X325127Y32100D01*
X325054Y32118D01*
X325017Y32136D01*
X324999D01*
X324690Y32209D01*
X324398Y32227D01*
X324270Y32245D01*
D02*
G37*
G36*
X351965Y35726D02*
X351600D01*
X351418Y35689D01*
X351254Y35671D01*
X351127Y35634D01*
X351017Y35598D01*
X350926Y35561D01*
X350872Y35543D01*
X350853Y35525D01*
X350562Y35361D01*
X350453Y35288D01*
X350343Y35197D01*
X350270Y35124D01*
X350216Y35070D01*
X350179Y35033D01*
X350161Y35015D01*
X349979Y34760D01*
X349851Y34505D01*
X349815Y34396D01*
X349778Y34304D01*
X349760Y34250D01*
Y34231D01*
X349669Y33885D01*
X349651Y33721D01*
X349633Y33576D01*
Y33448D01*
Y33339D01*
Y33266D01*
Y33248D01*
X353969D01*
X353914Y33630D01*
X353896Y33812D01*
X353860Y33958D01*
X353823Y34086D01*
X353787Y34177D01*
X353769Y34231D01*
Y34250D01*
X353623Y34559D01*
X353550Y34705D01*
X353477Y34815D01*
X353404Y34906D01*
X353349Y34979D01*
X353331Y35015D01*
X353313Y35033D01*
X353095Y35252D01*
X352876Y35416D01*
X352785Y35470D01*
X352712Y35507D01*
X352675Y35543D01*
X352657D01*
X352347Y35653D01*
X352202Y35689D01*
X352074Y35707D01*
X351965Y35726D01*
D02*
G37*
G36*
X455290Y37967D02*
X453578D01*
X453377Y37948D01*
X453195Y37930D01*
X453049Y37912D01*
X452922Y37876D01*
X452831Y37857D01*
X452776Y37839D01*
X452758D01*
X452612Y37784D01*
X452485Y37730D01*
X452357Y37675D01*
X452266Y37620D01*
X452193Y37566D01*
X452138Y37529D01*
X452120Y37511D01*
X452102Y37493D01*
X451938Y37329D01*
X451829Y37165D01*
X451792Y37110D01*
X451774Y37056D01*
X451756Y37019D01*
Y37001D01*
X451683Y36782D01*
X451665Y36600D01*
X451646Y36509D01*
Y36454D01*
Y36418D01*
Y36400D01*
X451665Y36090D01*
X451701Y35944D01*
X451719Y35835D01*
X451756Y35726D01*
X451792Y35653D01*
X451810Y35616D01*
Y35598D01*
X451956Y35379D01*
X452102Y35197D01*
X452211Y35088D01*
X452248Y35070D01*
X452266Y35051D01*
X452503Y34906D01*
X452721Y34815D01*
X452812Y34778D01*
X452885Y34742D01*
X452940Y34723D01*
X452958D01*
X453268Y34669D01*
X453414Y34650D01*
X453559D01*
X453669Y34632D01*
X455290D01*
Y37967D01*
D02*
G37*
G36*
Y33412D02*
X453596D01*
X453396Y33393D01*
X453213Y33375D01*
X453049Y33357D01*
X452922Y33321D01*
X452831Y33302D01*
X452758Y33284D01*
X452740D01*
X452412Y33175D01*
X452284Y33120D01*
X452157Y33047D01*
X452066Y33011D01*
X451993Y32956D01*
X451956Y32938D01*
X451938Y32920D01*
X451719Y32737D01*
X451574Y32574D01*
X451519Y32482D01*
X451482Y32428D01*
X451446Y32391D01*
Y32373D01*
X451337Y32118D01*
X451282Y31881D01*
X451264Y31790D01*
Y31717D01*
Y31662D01*
Y31644D01*
X451282Y31298D01*
X451355Y31007D01*
X451464Y30751D01*
X451574Y30551D01*
X451683Y30387D01*
X451792Y30278D01*
X451865Y30205D01*
X451883Y30187D01*
X452138Y30041D01*
X452430Y29932D01*
X452740Y29840D01*
X453049Y29786D01*
X453323Y29749D01*
X453450D01*
X453559Y29731D01*
X455290D01*
Y33412D01*
D02*
G37*
G36*
X257188Y32245D02*
X255184D01*
X255056Y32227D01*
X254765Y32209D01*
X254455Y32136D01*
X254437D01*
X254400Y32118D01*
X254328Y32100D01*
X254237Y32063D01*
X254018Y31954D01*
X253818Y31826D01*
X253799D01*
X253781Y31790D01*
X253690Y31699D01*
X253562Y31535D01*
X253453Y31353D01*
Y31334D01*
X253435Y31298D01*
X253417Y31243D01*
X253398Y31170D01*
X253362Y30970D01*
X253344Y30733D01*
Y30715D01*
Y30697D01*
X253362Y30588D01*
X253380Y30442D01*
X253417Y30278D01*
Y30259D01*
X253435Y30241D01*
X253471Y30150D01*
X253544Y30023D01*
X253654Y29877D01*
X253690Y29859D01*
X253763Y29786D01*
X253909Y29695D01*
X254072Y29622D01*
X254091D01*
X254127Y29604D01*
X254182Y29585D01*
X254255D01*
X254455Y29549D01*
X254710Y29531D01*
X254801D01*
X254892Y29549D01*
X255038Y29567D01*
X255202Y29604D01*
X255403Y29658D01*
X255603Y29731D01*
X255840Y29822D01*
X255876Y29840D01*
X255949Y29877D01*
X256077Y29950D01*
X256241Y30059D01*
X256441Y30187D01*
X256678Y30351D01*
X256933Y30533D01*
X257188Y30770D01*
Y32245D01*
D02*
G37*
G36*
X125877Y37967D02*
X124164D01*
Y34632D01*
X125786D01*
X125895Y34650D01*
X126041D01*
X126186Y34669D01*
X126496Y34723D01*
X126514D01*
X126569Y34742D01*
X126642Y34778D01*
X126733Y34815D01*
X126952Y34906D01*
X127189Y35051D01*
X127207Y35070D01*
X127243Y35088D01*
X127352Y35197D01*
X127498Y35379D01*
X127644Y35598D01*
Y35616D01*
X127662Y35653D01*
X127699Y35726D01*
X127735Y35835D01*
X127753Y35944D01*
X127790Y36090D01*
X127808Y36400D01*
Y36418D01*
Y36454D01*
Y36509D01*
X127790Y36600D01*
X127771Y36782D01*
X127699Y37001D01*
Y37019D01*
X127680Y37056D01*
X127662Y37110D01*
X127626Y37165D01*
X127516Y37329D01*
X127352Y37493D01*
X127334Y37511D01*
X127316Y37529D01*
X127261Y37566D01*
X127189Y37620D01*
X127097Y37675D01*
X126970Y37730D01*
X126842Y37784D01*
X126697Y37839D01*
X126678D01*
X126624Y37857D01*
X126532Y37876D01*
X126405Y37912D01*
X126259Y37930D01*
X126077Y37948D01*
X125877Y37967D01*
D02*
G37*
G36*
X125858Y33412D02*
X124164D01*
Y29731D01*
X125895D01*
X126004Y29749D01*
X126132D01*
X126405Y29786D01*
X126715Y29840D01*
X127024Y29932D01*
X127316Y30041D01*
X127571Y30187D01*
X127589Y30205D01*
X127662Y30278D01*
X127771Y30387D01*
X127881Y30551D01*
X127990Y30751D01*
X128100Y31007D01*
X128172Y31298D01*
X128191Y31644D01*
Y31662D01*
Y31717D01*
Y31790D01*
X128172Y31881D01*
X128118Y32118D01*
X128008Y32373D01*
Y32391D01*
X127972Y32428D01*
X127936Y32482D01*
X127881Y32574D01*
X127735Y32737D01*
X127516Y32920D01*
X127498Y32938D01*
X127462Y32956D01*
X127389Y33011D01*
X127298Y33047D01*
X127170Y33120D01*
X127043Y33175D01*
X126715Y33284D01*
X126697D01*
X126624Y33302D01*
X126532Y33321D01*
X126405Y33357D01*
X126241Y33375D01*
X126059Y33393D01*
X125858Y33412D01*
D02*
G37*
G36*
X444304Y35653D02*
X443994D01*
X443812Y35616D01*
X443648Y35598D01*
X443502Y35561D01*
X443375Y35525D01*
X443284Y35489D01*
X443229Y35470D01*
X443211Y35452D01*
X442901Y35270D01*
X442773Y35179D01*
X442664Y35088D01*
X442573Y34997D01*
X442500Y34924D01*
X442464Y34887D01*
X442445Y34869D01*
X442336Y34723D01*
X442245Y34559D01*
X442099Y34268D01*
X442044Y34122D01*
X442008Y34013D01*
X441972Y33940D01*
Y33922D01*
X441917Y33703D01*
X441862Y33485D01*
X441826Y33248D01*
X441808Y33047D01*
X441789Y32865D01*
Y32719D01*
Y32628D01*
Y32592D01*
X441808Y32154D01*
X441826Y31954D01*
X441862Y31790D01*
X441881Y31644D01*
X441917Y31517D01*
X441935Y31444D01*
Y31426D01*
X441990Y31225D01*
X442063Y31043D01*
X442117Y30879D01*
X442190Y30733D01*
X442263Y30624D01*
X442300Y30533D01*
X442336Y30478D01*
X442354Y30460D01*
X442591Y30187D01*
X442719Y30059D01*
X442828Y29968D01*
X442937Y29895D01*
X443028Y29840D01*
X443083Y29804D01*
X443101Y29786D01*
X443284Y29713D01*
X443466Y29658D01*
X443648Y29604D01*
X443812Y29585D01*
X443976Y29567D01*
X444085Y29549D01*
X444395D01*
X444595Y29585D01*
X444759Y29604D01*
X444923Y29640D01*
X445033Y29676D01*
X445142Y29695D01*
X445197Y29731D01*
X445215D01*
X445506Y29913D01*
X445634Y30005D01*
X445743Y30095D01*
X445834Y30168D01*
X445907Y30241D01*
X445944Y30278D01*
X445962Y30296D01*
X446162Y30606D01*
X446308Y30915D01*
X446363Y31043D01*
X446399Y31152D01*
X446435Y31225D01*
Y31243D01*
X446527Y31699D01*
X446563Y31936D01*
X446581Y32136D01*
Y32318D01*
X446599Y32464D01*
Y32555D01*
Y32592D01*
X446581Y33029D01*
X446563Y33229D01*
X446527Y33412D01*
X446508Y33557D01*
X446490Y33667D01*
X446472Y33740D01*
Y33758D01*
X446417Y33958D01*
X446344Y34140D01*
X446290Y34304D01*
X446217Y34450D01*
X446144Y34559D01*
X446108Y34650D01*
X446071Y34705D01*
X446053Y34723D01*
X445816Y35015D01*
X445688Y35124D01*
X445561Y35215D01*
X445470Y35288D01*
X445379Y35343D01*
X445324Y35379D01*
X445306Y35398D01*
X445124Y35489D01*
X444942Y35543D01*
X444759Y35598D01*
X444577Y35616D01*
X444431Y35634D01*
X444304Y35653D01*
D02*
G37*
G36*
X416591D02*
X416281D01*
X416099Y35616D01*
X415935Y35598D01*
X415790Y35561D01*
X415662Y35525D01*
X415571Y35489D01*
X415516Y35470D01*
X415498Y35452D01*
X415188Y35270D01*
X415061Y35179D01*
X414951Y35088D01*
X414860Y34997D01*
X414787Y34924D01*
X414751Y34887D01*
X414733Y34869D01*
X414623Y34723D01*
X414532Y34559D01*
X414387Y34268D01*
X414332Y34122D01*
X414295Y34013D01*
X414259Y33940D01*
Y33922D01*
X414204Y33703D01*
X414150Y33485D01*
X414113Y33248D01*
X414095Y33047D01*
X414077Y32865D01*
Y32719D01*
Y32628D01*
Y32592D01*
X414095Y32154D01*
X414113Y31954D01*
X414150Y31790D01*
X414168Y31644D01*
X414204Y31517D01*
X414223Y31444D01*
Y31426D01*
X414277Y31225D01*
X414350Y31043D01*
X414405Y30879D01*
X414478Y30733D01*
X414550Y30624D01*
X414587Y30533D01*
X414623Y30478D01*
X414642Y30460D01*
X414879Y30187D01*
X415006Y30059D01*
X415115Y29968D01*
X415225Y29895D01*
X415316Y29840D01*
X415370Y29804D01*
X415389Y29786D01*
X415571Y29713D01*
X415753Y29658D01*
X415935Y29604D01*
X416099Y29585D01*
X416263Y29567D01*
X416372Y29549D01*
X416682D01*
X416883Y29585D01*
X417047Y29604D01*
X417211Y29640D01*
X417320Y29676D01*
X417429Y29695D01*
X417484Y29731D01*
X417502D01*
X417794Y29913D01*
X417921Y30005D01*
X418031Y30095D01*
X418122Y30168D01*
X418194Y30241D01*
X418231Y30278D01*
X418249Y30296D01*
X418450Y30606D01*
X418595Y30915D01*
X418650Y31043D01*
X418686Y31152D01*
X418723Y31225D01*
Y31243D01*
X418814Y31699D01*
X418850Y31936D01*
X418869Y32136D01*
Y32318D01*
X418887Y32464D01*
Y32555D01*
Y32592D01*
X418869Y33029D01*
X418850Y33229D01*
X418814Y33412D01*
X418796Y33557D01*
X418778Y33667D01*
X418759Y33740D01*
Y33758D01*
X418705Y33958D01*
X418632Y34140D01*
X418577Y34304D01*
X418504Y34450D01*
X418431Y34559D01*
X418395Y34650D01*
X418359Y34705D01*
X418340Y34723D01*
X418103Y35015D01*
X417976Y35124D01*
X417848Y35215D01*
X417757Y35288D01*
X417666Y35343D01*
X417612Y35379D01*
X417593Y35398D01*
X417411Y35489D01*
X417229Y35543D01*
X417047Y35598D01*
X416864Y35616D01*
X416719Y35634D01*
X416591Y35653D01*
D02*
G37*
G36*
X379641D02*
X379331D01*
X379149Y35616D01*
X378985Y35598D01*
X378839Y35561D01*
X378712Y35525D01*
X378621Y35489D01*
X378566Y35470D01*
X378548Y35452D01*
X378238Y35270D01*
X378111Y35179D01*
X378001Y35088D01*
X377910Y34997D01*
X377837Y34924D01*
X377801Y34887D01*
X377783Y34869D01*
X377673Y34723D01*
X377582Y34559D01*
X377436Y34268D01*
X377382Y34122D01*
X377345Y34013D01*
X377309Y33940D01*
Y33922D01*
X377254Y33703D01*
X377200Y33485D01*
X377163Y33248D01*
X377145Y33047D01*
X377127Y32865D01*
Y32719D01*
Y32628D01*
Y32592D01*
X377145Y32154D01*
X377163Y31954D01*
X377200Y31790D01*
X377218Y31644D01*
X377254Y31517D01*
X377272Y31444D01*
Y31426D01*
X377327Y31225D01*
X377400Y31043D01*
X377455Y30879D01*
X377527Y30733D01*
X377600Y30624D01*
X377637Y30533D01*
X377673Y30478D01*
X377692Y30460D01*
X377928Y30187D01*
X378056Y30059D01*
X378165Y29968D01*
X378274Y29895D01*
X378366Y29840D01*
X378420Y29804D01*
X378438Y29786D01*
X378621Y29713D01*
X378803Y29658D01*
X378985Y29604D01*
X379149Y29585D01*
X379313Y29567D01*
X379422Y29549D01*
X379732D01*
X379932Y29585D01*
X380097Y29604D01*
X380260Y29640D01*
X380370Y29676D01*
X380479Y29695D01*
X380534Y29731D01*
X380552D01*
X380843Y29913D01*
X380971Y30005D01*
X381080Y30095D01*
X381171Y30168D01*
X381244Y30241D01*
X381281Y30278D01*
X381299Y30296D01*
X381499Y30606D01*
X381645Y30915D01*
X381700Y31043D01*
X381736Y31152D01*
X381773Y31225D01*
Y31243D01*
X381864Y31699D01*
X381900Y31936D01*
X381919Y32136D01*
Y32318D01*
X381937Y32464D01*
Y32555D01*
Y32592D01*
X381919Y33029D01*
X381900Y33229D01*
X381864Y33412D01*
X381846Y33557D01*
X381827Y33667D01*
X381809Y33740D01*
Y33758D01*
X381754Y33958D01*
X381682Y34140D01*
X381627Y34304D01*
X381554Y34450D01*
X381481Y34559D01*
X381445Y34650D01*
X381408Y34705D01*
X381390Y34723D01*
X381153Y35015D01*
X381026Y35124D01*
X380898Y35215D01*
X380807Y35288D01*
X380716Y35343D01*
X380661Y35379D01*
X380643Y35398D01*
X380461Y35489D01*
X380279Y35543D01*
X380097Y35598D01*
X379914Y35616D01*
X379768Y35634D01*
X379641Y35653D01*
D02*
G37*
G36*
X360965Y35634D02*
X360856D01*
X360546Y35616D01*
X360401Y35598D01*
X360273D01*
X360164Y35580D01*
X360091Y35561D01*
X360036Y35543D01*
X360018D01*
X359708Y35470D01*
X359563Y35416D01*
X359453Y35379D01*
X359362Y35343D01*
X359271Y35325D01*
X359235Y35288D01*
X359216D01*
Y31480D01*
X359472Y31152D01*
X359708Y30861D01*
X359909Y30606D01*
X360109Y30405D01*
X360273Y30241D01*
X360383Y30132D01*
X360455Y30059D01*
X360492Y30041D01*
X360710Y29877D01*
X360929Y29768D01*
X361111Y29676D01*
X361294Y29622D01*
X361439Y29585D01*
X361548Y29567D01*
X361640D01*
X361931Y29604D01*
X362168Y29676D01*
X362387Y29804D01*
X362551Y29932D01*
X362696Y30059D01*
X362806Y30187D01*
X362860Y30259D01*
X362879Y30296D01*
X363024Y30606D01*
X363134Y30952D01*
X363207Y31316D01*
X363261Y31681D01*
X363298Y32009D01*
Y32154D01*
X363316Y32282D01*
Y32373D01*
Y32446D01*
Y32501D01*
Y32519D01*
Y32810D01*
X363279Y33084D01*
X363261Y33339D01*
X363207Y33557D01*
X363170Y33776D01*
X363116Y33976D01*
X363061Y34140D01*
X362988Y34304D01*
X362933Y34432D01*
X362879Y34541D01*
X362824Y34650D01*
X362769Y34723D01*
X362696Y34833D01*
X362678Y34869D01*
X362405Y35124D01*
X362113Y35307D01*
X361822Y35452D01*
X361512Y35543D01*
X361257Y35598D01*
X361057Y35616D01*
X360965Y35634D01*
D02*
G37*
G36*
X227854Y35726D02*
X227490D01*
X227380Y35707D01*
X227253Y35689D01*
X227107Y35653D01*
X226797Y35543D01*
X226779D01*
X226743Y35507D01*
X226670Y35470D01*
X226579Y35416D01*
X226360Y35252D01*
X226141Y35033D01*
X226123Y35015D01*
X226105Y34979D01*
X226050Y34906D01*
X225977Y34815D01*
X225904Y34705D01*
X225832Y34559D01*
X225686Y34250D01*
Y34231D01*
X225668Y34177D01*
X225631Y34086D01*
X225595Y33958D01*
X225558Y33812D01*
X225540Y33630D01*
X225485Y33248D01*
X229822D01*
Y33266D01*
Y33339D01*
Y33448D01*
Y33576D01*
X229803Y33721D01*
X229785Y33885D01*
X229694Y34231D01*
Y34250D01*
X229676Y34304D01*
X229640Y34396D01*
X229603Y34505D01*
X229475Y34760D01*
X229293Y35015D01*
X229275Y35033D01*
X229239Y35070D01*
X229184Y35124D01*
X229111Y35197D01*
X229002Y35288D01*
X228892Y35361D01*
X228601Y35525D01*
X228583Y35543D01*
X228528Y35561D01*
X228437Y35598D01*
X228328Y35634D01*
X228200Y35671D01*
X228036Y35689D01*
X227854Y35726D01*
D02*
G37*
G36*
X200123Y35653D02*
X199813D01*
X199686Y35634D01*
X199540Y35616D01*
X199358Y35598D01*
X199176Y35543D01*
X198994Y35489D01*
X198811Y35398D01*
X198793Y35379D01*
X198738Y35343D01*
X198647Y35288D01*
X198556Y35215D01*
X198429Y35124D01*
X198301Y35015D01*
X198064Y34723D01*
X198046Y34705D01*
X198010Y34650D01*
X197973Y34559D01*
X197900Y34450D01*
X197827Y34304D01*
X197773Y34140D01*
X197700Y33958D01*
X197645Y33758D01*
Y33740D01*
X197627Y33667D01*
X197609Y33557D01*
X197590Y33412D01*
X197554Y33229D01*
X197536Y33029D01*
X197518Y32592D01*
Y32555D01*
Y32464D01*
X197536Y32318D01*
Y32136D01*
X197554Y31936D01*
X197590Y31699D01*
X197682Y31243D01*
Y31225D01*
X197718Y31152D01*
X197755Y31043D01*
X197809Y30915D01*
X197955Y30606D01*
X198155Y30296D01*
X198174Y30278D01*
X198210Y30241D01*
X198283Y30168D01*
X198374Y30095D01*
X198483Y30005D01*
X198611Y29913D01*
X198902Y29731D01*
X198921D01*
X198975Y29695D01*
X199085Y29676D01*
X199194Y29640D01*
X199358Y29604D01*
X199522Y29585D01*
X199722Y29549D01*
X200032D01*
X200141Y29567D01*
X200305Y29585D01*
X200469Y29604D01*
X200652Y29658D01*
X200834Y29713D01*
X201016Y29786D01*
X201034Y29804D01*
X201089Y29840D01*
X201180Y29895D01*
X201289Y29968D01*
X201398Y30059D01*
X201526Y30187D01*
X201763Y30460D01*
X201781Y30478D01*
X201818Y30533D01*
X201854Y30624D01*
X201927Y30733D01*
X202000Y30879D01*
X202054Y31043D01*
X202127Y31225D01*
X202182Y31426D01*
Y31444D01*
X202200Y31517D01*
X202237Y31644D01*
X202255Y31790D01*
X202291Y31954D01*
X202309Y32154D01*
X202328Y32592D01*
Y32628D01*
Y32719D01*
Y32865D01*
X202309Y33047D01*
X202291Y33248D01*
X202255Y33485D01*
X202200Y33703D01*
X202146Y33922D01*
Y33940D01*
X202109Y34013D01*
X202073Y34122D01*
X202018Y34268D01*
X201872Y34559D01*
X201781Y34723D01*
X201672Y34869D01*
X201654Y34887D01*
X201617Y34924D01*
X201544Y34997D01*
X201453Y35088D01*
X201344Y35179D01*
X201216Y35270D01*
X200907Y35452D01*
X200888Y35470D01*
X200834Y35489D01*
X200743Y35525D01*
X200615Y35561D01*
X200469Y35598D01*
X200305Y35616D01*
X200123Y35653D01*
D02*
G37*
G36*
X163173D02*
X162863D01*
X162736Y35634D01*
X162590Y35616D01*
X162408Y35598D01*
X162225Y35543D01*
X162043Y35489D01*
X161861Y35398D01*
X161843Y35379D01*
X161788Y35343D01*
X161697Y35288D01*
X161606Y35215D01*
X161478Y35124D01*
X161351Y35015D01*
X161114Y34723D01*
X161096Y34705D01*
X161059Y34650D01*
X161023Y34559D01*
X160950Y34450D01*
X160877Y34304D01*
X160823Y34140D01*
X160750Y33958D01*
X160695Y33758D01*
Y33740D01*
X160677Y33667D01*
X160659Y33557D01*
X160640Y33412D01*
X160604Y33229D01*
X160586Y33029D01*
X160567Y32592D01*
Y32555D01*
Y32464D01*
X160586Y32318D01*
Y32136D01*
X160604Y31936D01*
X160640Y31699D01*
X160731Y31243D01*
Y31225D01*
X160768Y31152D01*
X160804Y31043D01*
X160859Y30915D01*
X161005Y30606D01*
X161205Y30296D01*
X161223Y30278D01*
X161260Y30241D01*
X161333Y30168D01*
X161424Y30095D01*
X161533Y30005D01*
X161661Y29913D01*
X161952Y29731D01*
X161970D01*
X162025Y29695D01*
X162134Y29676D01*
X162244Y29640D01*
X162408Y29604D01*
X162572Y29585D01*
X162772Y29549D01*
X163082D01*
X163191Y29567D01*
X163355Y29585D01*
X163519Y29604D01*
X163701Y29658D01*
X163883Y29713D01*
X164066Y29786D01*
X164084Y29804D01*
X164139Y29840D01*
X164230Y29895D01*
X164339Y29968D01*
X164448Y30059D01*
X164576Y30187D01*
X164813Y30460D01*
X164831Y30478D01*
X164867Y30533D01*
X164904Y30624D01*
X164977Y30733D01*
X165050Y30879D01*
X165104Y31043D01*
X165177Y31225D01*
X165232Y31426D01*
Y31444D01*
X165250Y31517D01*
X165287Y31644D01*
X165305Y31790D01*
X165341Y31954D01*
X165359Y32154D01*
X165378Y32592D01*
Y32628D01*
Y32719D01*
Y32865D01*
X165359Y33047D01*
X165341Y33248D01*
X165305Y33485D01*
X165250Y33703D01*
X165195Y33922D01*
Y33940D01*
X165159Y34013D01*
X165122Y34122D01*
X165068Y34268D01*
X164922Y34559D01*
X164831Y34723D01*
X164722Y34869D01*
X164703Y34887D01*
X164667Y34924D01*
X164594Y34997D01*
X164503Y35088D01*
X164394Y35179D01*
X164266Y35270D01*
X163956Y35452D01*
X163938Y35470D01*
X163883Y35489D01*
X163792Y35525D01*
X163665Y35561D01*
X163519Y35598D01*
X163355Y35616D01*
X163173Y35653D01*
D02*
G37*
G36*
X135460D02*
X135151D01*
X135023Y35634D01*
X134877Y35616D01*
X134695Y35598D01*
X134513Y35543D01*
X134331Y35489D01*
X134149Y35398D01*
X134130Y35379D01*
X134076Y35343D01*
X133984Y35288D01*
X133893Y35215D01*
X133766Y35124D01*
X133638Y35015D01*
X133402Y34723D01*
X133383Y34705D01*
X133347Y34650D01*
X133310Y34559D01*
X133238Y34450D01*
X133165Y34304D01*
X133110Y34140D01*
X133037Y33958D01*
X132982Y33758D01*
Y33740D01*
X132964Y33667D01*
X132946Y33557D01*
X132928Y33412D01*
X132891Y33229D01*
X132873Y33029D01*
X132855Y32592D01*
Y32555D01*
Y32464D01*
X132873Y32318D01*
Y32136D01*
X132891Y31936D01*
X132928Y31699D01*
X133019Y31243D01*
Y31225D01*
X133055Y31152D01*
X133092Y31043D01*
X133146Y30915D01*
X133292Y30606D01*
X133493Y30296D01*
X133511Y30278D01*
X133547Y30241D01*
X133620Y30168D01*
X133711Y30095D01*
X133820Y30005D01*
X133948Y29913D01*
X134240Y29731D01*
X134258D01*
X134312Y29695D01*
X134422Y29676D01*
X134531Y29640D01*
X134695Y29604D01*
X134859Y29585D01*
X135059Y29549D01*
X135369D01*
X135479Y29567D01*
X135643Y29585D01*
X135807Y29604D01*
X135989Y29658D01*
X136171Y29713D01*
X136353Y29786D01*
X136371Y29804D01*
X136426Y29840D01*
X136517Y29895D01*
X136626Y29968D01*
X136736Y30059D01*
X136863Y30187D01*
X137100Y30460D01*
X137118Y30478D01*
X137155Y30533D01*
X137191Y30624D01*
X137264Y30733D01*
X137337Y30879D01*
X137392Y31043D01*
X137464Y31225D01*
X137519Y31426D01*
Y31444D01*
X137537Y31517D01*
X137574Y31644D01*
X137592Y31790D01*
X137628Y31954D01*
X137647Y32154D01*
X137665Y32592D01*
Y32628D01*
Y32719D01*
Y32865D01*
X137647Y33047D01*
X137628Y33248D01*
X137592Y33485D01*
X137537Y33703D01*
X137483Y33922D01*
Y33940D01*
X137446Y34013D01*
X137410Y34122D01*
X137355Y34268D01*
X137209Y34559D01*
X137118Y34723D01*
X137009Y34869D01*
X136991Y34887D01*
X136954Y34924D01*
X136881Y34997D01*
X136790Y35088D01*
X136681Y35179D01*
X136554Y35270D01*
X136244Y35452D01*
X136226Y35470D01*
X136171Y35489D01*
X136080Y35525D01*
X135952Y35561D01*
X135807Y35598D01*
X135643Y35616D01*
X135460Y35653D01*
D02*
G37*
%LPD*%
D10*
X220794Y-260872D02*
D03*
Y-262841D02*
D03*
Y-264809D02*
D03*
Y-266778D02*
D03*
Y-274652D02*
D03*
Y-272683D02*
D03*
Y-270715D02*
D03*
Y-268746D02*
D03*
X203707D02*
D03*
Y-270715D02*
D03*
Y-272683D02*
D03*
Y-274652D02*
D03*
Y-266778D02*
D03*
Y-264809D02*
D03*
Y-262841D02*
D03*
Y-260872D02*
D03*
D11*
X212250Y-267762D02*
D03*
D12*
X79050Y-136327D02*
D03*
Y-144398D02*
D03*
X131900Y-121492D02*
D03*
Y-113421D02*
D03*
X243150Y-214698D02*
D03*
Y-206627D02*
D03*
X240350Y-284898D02*
D03*
Y-276827D02*
D03*
X298650Y-329598D02*
D03*
Y-321527D02*
D03*
X275450D02*
D03*
Y-329598D02*
D03*
X160850Y-95827D02*
D03*
Y-103898D02*
D03*
X229150Y-261798D02*
D03*
Y-253727D02*
D03*
X232150Y-284998D02*
D03*
Y-276927D02*
D03*
X99596Y-76422D02*
D03*
Y-84493D02*
D03*
X107550Y-76427D02*
D03*
Y-84498D02*
D03*
X368450Y-301827D02*
D03*
Y-309898D02*
D03*
X210250Y-93598D02*
D03*
Y-85527D02*
D03*
X118350Y-245298D02*
D03*
Y-237227D02*
D03*
X102850Y-117980D02*
D03*
Y-126050D02*
D03*
X70450Y-237898D02*
D03*
Y-229827D02*
D03*
X79050Y-129433D02*
D03*
Y-121362D02*
D03*
D15*
X150010Y-51198D02*
D03*
Y-53167D02*
D03*
Y-55135D02*
D03*
Y-57104D02*
D03*
Y-59072D02*
D03*
Y-61041D02*
D03*
Y-63009D02*
D03*
Y-64978D02*
D03*
Y-66946D02*
D03*
Y-68915D02*
D03*
Y-70883D02*
D03*
Y-72852D02*
D03*
Y-74820D02*
D03*
Y-76789D02*
D03*
Y-78757D02*
D03*
Y-80726D02*
D03*
X194891D02*
D03*
Y-78757D02*
D03*
Y-76789D02*
D03*
Y-74820D02*
D03*
Y-72852D02*
D03*
Y-70883D02*
D03*
Y-68915D02*
D03*
Y-66946D02*
D03*
Y-64978D02*
D03*
Y-63009D02*
D03*
Y-61041D02*
D03*
Y-59072D02*
D03*
Y-57104D02*
D03*
Y-55135D02*
D03*
Y-53167D02*
D03*
Y-51198D02*
D03*
D20*
X322650Y-329775D02*
D03*
Y-321350D02*
D03*
D21*
X150535Y-101300D02*
D03*
X142465D02*
D03*
X133715Y-136962D02*
D03*
X141786D02*
D03*
X212915Y-281912D02*
D03*
X220986D02*
D03*
X212915Y-253652D02*
D03*
X220986D02*
D03*
X31886Y-223562D02*
D03*
X23815D02*
D03*
D22*
X48950Y-166227D02*
D03*
Y-174298D02*
D03*
X185050Y-275298D02*
D03*
Y-267227D02*
D03*
X48950Y-198327D02*
D03*
Y-206398D02*
D03*
D27*
X109750Y-313802D02*
D03*
X113491Y-306322D02*
D03*
X106010D02*
D03*
D28*
X75918Y-24100D02*
D03*
X73359D02*
D03*
X70800D02*
D03*
X68241D02*
D03*
X65682D02*
D03*
D32*
X49050Y-69220D02*
D03*
Y-63905D02*
D03*
D33*
X23738Y-240362D02*
D03*
X32163D02*
D03*
D35*
X39315Y-317462D02*
D03*
X47386D02*
D03*
X300686Y-307362D02*
D03*
X292615D02*
D03*
X132115Y-184362D02*
D03*
X140186D02*
D03*
X310815Y-245862D02*
D03*
X318886D02*
D03*
X133715Y-145262D02*
D03*
X141786D02*
D03*
X318786Y-222762D02*
D03*
X310715D02*
D03*
X287615Y-238362D02*
D03*
X295686D02*
D03*
X150535Y-93300D02*
D03*
X142465D02*
D03*
X295686Y-230262D02*
D03*
X287615D02*
D03*
X130086Y-170062D02*
D03*
X122015D02*
D03*
X136815D02*
D03*
X144886D02*
D03*
X315586Y-307362D02*
D03*
X307515D02*
D03*
X318921Y-260262D02*
D03*
X310850D02*
D03*
X300686Y-297062D02*
D03*
X292615D02*
D03*
X300686Y-288862D02*
D03*
X292615D02*
D03*
X315586Y-315562D02*
D03*
X307515D02*
D03*
X141180Y-253262D02*
D03*
X149250D02*
D03*
X163986Y-245062D02*
D03*
X155915D02*
D03*
X155915Y-253262D02*
D03*
X163986D02*
D03*
X170715D02*
D03*
X178786D02*
D03*
X113986Y-293362D02*
D03*
X105915D02*
D03*
X310015Y-39362D02*
D03*
X318086D02*
D03*
X169286Y-129762D02*
D03*
X161215D02*
D03*
X169286Y-121562D02*
D03*
X161215D02*
D03*
X169286Y-113462D02*
D03*
X161215D02*
D03*
X195331Y-113422D02*
D03*
X187260D02*
D03*
X195386Y-121562D02*
D03*
X187315D02*
D03*
X244486Y-293062D02*
D03*
X236415D02*
D03*
X39315Y-286462D02*
D03*
X47386D02*
D03*
X209686Y-45362D02*
D03*
X201615D02*
D03*
X124986Y-258862D02*
D03*
X116915D02*
D03*
X31886Y-231962D02*
D03*
X23815D02*
D03*
X23915Y-248762D02*
D03*
X31986D02*
D03*
X23915Y-256962D02*
D03*
X31986D02*
D03*
X78015Y-245262D02*
D03*
X86086D02*
D03*
X109615Y-205962D02*
D03*
X117686D02*
D03*
X89886Y-195862D02*
D03*
X81815D02*
D03*
X105215Y-197762D02*
D03*
X113286D02*
D03*
X105286Y-189662D02*
D03*
X97215D02*
D03*
X39315Y-300462D02*
D03*
X47386D02*
D03*
X47386Y-309362D02*
D03*
X39315D02*
D03*
X147286Y-13462D02*
D03*
X139215D02*
D03*
X105286Y-180662D02*
D03*
X97215D02*
D03*
X266386Y-146309D02*
D03*
X258315D02*
D03*
X274457D02*
D03*
X266386Y-216162D02*
D03*
X258315D02*
D03*
X274457D02*
D03*
X242635Y-69632D02*
D03*
X234565D02*
D03*
X242635Y-77300D02*
D03*
X234565D02*
D03*
D38*
X187214Y-43521D02*
D03*
X185246D02*
D03*
X183277D02*
D03*
X181309D02*
D03*
X179340D02*
D03*
X177372D02*
D03*
X175403D02*
D03*
X173435D02*
D03*
X171466D02*
D03*
X169498D02*
D03*
X167529D02*
D03*
X165561D02*
D03*
X163592D02*
D03*
X161624D02*
D03*
X159655D02*
D03*
X157687D02*
D03*
Y-88403D02*
D03*
X159655D02*
D03*
X161624D02*
D03*
X163592D02*
D03*
X165561D02*
D03*
X167529D02*
D03*
X169498D02*
D03*
X171466D02*
D03*
X173435D02*
D03*
X175403D02*
D03*
X177372D02*
D03*
X179340D02*
D03*
X181309D02*
D03*
X183277D02*
D03*
X185246D02*
D03*
X187214D02*
D03*
D54*
X35003Y-334962D02*
D03*
Y-19962D02*
D03*
D55*
X342503Y-34962D02*
D03*
D56*
X46850Y-247962D02*
D03*
Y-257962D02*
D03*
X45850Y-225862D02*
D03*
X288250Y-92062D02*
D03*
X368650Y-256162D02*
D03*
X369250Y-85462D02*
D03*
X367550Y-65062D02*
D03*
D57*
X270000Y-282500D02*
D03*
Y-82500D02*
D03*
X357505Y-34957D02*
D03*
X20005Y-334957D02*
D03*
Y-19957D02*
D03*
X357505Y-324957D02*
D03*
X223800Y-55000D02*
D03*
X88800D02*
D03*
X223700Y-310000D02*
D03*
X88800D02*
D03*
D58*
X125800Y-60000D02*
D03*
D59*
X334505Y-34957D02*
D03*
X43005Y-334957D02*
D03*
Y-19957D02*
D03*
X334505Y-324957D02*
D03*
D60*
X337500Y-185000D02*
D03*
Y-195000D02*
D03*
Y-215000D02*
D03*
Y-205000D02*
D03*
Y-225000D02*
D03*
Y-235000D02*
D03*
Y-245000D02*
D03*
Y-255000D02*
D03*
Y-265000D02*
D03*
Y-275000D02*
D03*
X327500D02*
D03*
Y-265000D02*
D03*
Y-255000D02*
D03*
Y-245000D02*
D03*
Y-235000D02*
D03*
Y-225000D02*
D03*
Y-205000D02*
D03*
Y-215000D02*
D03*
Y-195000D02*
D03*
Y-95000D02*
D03*
Y-105000D02*
D03*
Y-115000D02*
D03*
Y-125000D02*
D03*
Y-135000D02*
D03*
Y-145000D02*
D03*
Y-165000D02*
D03*
Y-155000D02*
D03*
Y-175000D02*
D03*
Y-185000D02*
D03*
X337500Y-85000D02*
D03*
Y-95000D02*
D03*
Y-105000D02*
D03*
Y-115000D02*
D03*
Y-125000D02*
D03*
Y-135000D02*
D03*
Y-145000D02*
D03*
Y-165000D02*
D03*
Y-155000D02*
D03*
Y-175000D02*
D03*
X327500Y-285000D02*
D03*
Y-295000D02*
D03*
Y-305000D02*
D03*
X337500D02*
D03*
Y-295000D02*
D03*
Y-285000D02*
D03*
Y-75000D02*
D03*
X327500D02*
D03*
Y-85000D02*
D03*
X337500Y-65000D02*
D03*
Y-55000D02*
D03*
X327500D02*
D03*
Y-65000D02*
D03*
X357500Y-185000D02*
D03*
Y-195000D02*
D03*
Y-215000D02*
D03*
Y-205000D02*
D03*
Y-225000D02*
D03*
Y-235000D02*
D03*
Y-245000D02*
D03*
Y-255000D02*
D03*
Y-265000D02*
D03*
Y-275000D02*
D03*
X347500D02*
D03*
Y-265000D02*
D03*
Y-255000D02*
D03*
Y-245000D02*
D03*
Y-235000D02*
D03*
Y-225000D02*
D03*
Y-205000D02*
D03*
Y-215000D02*
D03*
Y-195000D02*
D03*
Y-95000D02*
D03*
Y-105000D02*
D03*
Y-115000D02*
D03*
Y-125000D02*
D03*
Y-135000D02*
D03*
Y-145000D02*
D03*
Y-165000D02*
D03*
Y-155000D02*
D03*
Y-175000D02*
D03*
Y-185000D02*
D03*
X357500Y-85000D02*
D03*
Y-95000D02*
D03*
Y-105000D02*
D03*
Y-115000D02*
D03*
Y-125000D02*
D03*
Y-135000D02*
D03*
Y-145000D02*
D03*
Y-165000D02*
D03*
Y-155000D02*
D03*
Y-175000D02*
D03*
X347500Y-285000D02*
D03*
Y-295000D02*
D03*
Y-305000D02*
D03*
X357500D02*
D03*
Y-295000D02*
D03*
Y-285000D02*
D03*
Y-75000D02*
D03*
X347500D02*
D03*
Y-85000D02*
D03*
X357500Y-65000D02*
D03*
Y-55000D02*
D03*
X347500D02*
D03*
Y-65000D02*
D03*
D61*
X79560Y-25478D02*
D03*
X62040D02*
D03*
X162360Y-337622D02*
D03*
X144840D02*
D03*
X62040Y-25478D02*
D03*
X79560D02*
D03*
X231660Y-337622D02*
D03*
X214140D02*
D03*
D62*
X87237Y-13175D02*
D03*
X54363D02*
D03*
X170037Y-349925D02*
D03*
X137163D02*
D03*
X54363Y-13175D02*
D03*
X87237D02*
D03*
X239337Y-349925D02*
D03*
X206463D02*
D03*
D63*
X316304Y-277000D02*
D03*
X289296D02*
D03*
X285000Y-61500D02*
D03*
Y-41500D02*
D03*
X265000D02*
D03*
Y-61500D02*
D03*
D64*
X270000Y-310000D02*
D03*
X275000Y-315000D02*
D03*
X265000D02*
D03*
X275000Y-305000D02*
D03*
X265000D02*
D03*
X310000Y-51500D02*
D03*
X315000Y-56500D02*
D03*
X305000D02*
D03*
X315000Y-46500D02*
D03*
X305000D02*
D03*
D65*
X275000Y-51500D02*
D03*
D66*
X187757Y-310806D02*
D03*
X124797D02*
D03*
X120862Y-306868D02*
D03*
Y-314743D02*
D03*
X128732D02*
D03*
Y-306868D02*
D03*
X136602Y-314743D02*
D03*
Y-306868D02*
D03*
X144472Y-314743D02*
D03*
Y-306868D02*
D03*
X152342Y-314743D02*
D03*
Y-306868D02*
D03*
X160212Y-314743D02*
D03*
Y-306868D02*
D03*
X168082Y-314743D02*
D03*
Y-306868D02*
D03*
X175952Y-314743D02*
D03*
Y-306868D02*
D03*
X183822Y-314743D02*
D03*
Y-306868D02*
D03*
X191692Y-314743D02*
D03*
Y-306868D02*
D03*
D99*
X139694Y-108913D02*
D03*
X141663D02*
D03*
X143631D02*
D03*
X145600D02*
D03*
X153474D02*
D03*
X151505D02*
D03*
X149537D02*
D03*
X147569D02*
D03*
Y-126000D02*
D03*
X149537D02*
D03*
X151505D02*
D03*
X153474D02*
D03*
X145600D02*
D03*
X143631D02*
D03*
X141663D02*
D03*
X139694D02*
D03*
D100*
X146584Y-117457D02*
D03*
D101*
X199910Y-313998D02*
D03*
X207391D02*
D03*
X67410Y-45298D02*
D03*
X74891D02*
D03*
X129710Y-154527D02*
D03*
X133450D02*
D03*
X137191D02*
D03*
Y-162598D02*
D03*
X129710D02*
D03*
X71150Y-45298D02*
D03*
X74891Y-37227D02*
D03*
X71150D02*
D03*
X67410D02*
D03*
X203650Y-313998D02*
D03*
X207391Y-305927D02*
D03*
X203650D02*
D03*
X199910D02*
D03*
X290791Y-321527D02*
D03*
X287050D02*
D03*
X283310D02*
D03*
Y-329598D02*
D03*
X287050D02*
D03*
X290791D02*
D03*
X85791Y-237798D02*
D03*
X82050D02*
D03*
X78310D02*
D03*
Y-229727D02*
D03*
X85791D02*
D03*
X52691Y-189198D02*
D03*
X48950D02*
D03*
X45210D02*
D03*
Y-181127D02*
D03*
X52691D02*
D03*
X82810Y-188498D02*
D03*
X86550D02*
D03*
X90291D02*
D03*
Y-180427D02*
D03*
X86550D02*
D03*
X82810D02*
D03*
X71810Y-161198D02*
D03*
X75550D02*
D03*
X79291D02*
D03*
Y-153127D02*
D03*
X75550D02*
D03*
X71810D02*
D03*
X94010Y-210027D02*
D03*
X97750D02*
D03*
X101491D02*
D03*
Y-218098D02*
D03*
X94010D02*
D03*
X85791Y-210027D02*
D03*
X82050D02*
D03*
X78310D02*
D03*
Y-218098D02*
D03*
X82050D02*
D03*
X85791D02*
D03*
D104*
X99650Y-93031D02*
D03*
Y-101693D02*
D03*
D105*
X69000Y-274300D02*
D03*
X86400D02*
D03*
Y-282174D02*
D03*
X69000D02*
D03*
X86400Y-290048D02*
D03*
X69000D02*
D03*
X86400Y-266426D02*
D03*
X69000D02*
D03*
X86400Y-258552D02*
D03*
X69000D02*
D03*
X68700Y-98200D02*
D03*
X51300D02*
D03*
Y-90326D02*
D03*
X68700D02*
D03*
X51300Y-82452D02*
D03*
X68700D02*
D03*
X51300Y-106074D02*
D03*
X68700D02*
D03*
X51300Y-113948D02*
D03*
X68700D02*
D03*
D106*
X111800Y-33700D02*
D03*
Y-16300D02*
D03*
X119674D02*
D03*
Y-33700D02*
D03*
X127548Y-16300D02*
D03*
Y-33700D02*
D03*
X103926Y-16300D02*
D03*
Y-33700D02*
D03*
X96052Y-16300D02*
D03*
Y-33700D02*
D03*
D107*
X69282Y-65277D02*
D03*
X73219D02*
D03*
X69282Y-54647D02*
D03*
X73219D02*
D03*
X205519Y-284647D02*
D03*
X201582D02*
D03*
X205519Y-295277D02*
D03*
X201582D02*
D03*
D108*
X310831Y-234322D02*
D03*
X303350Y-230582D02*
D03*
Y-238062D02*
D03*
D109*
X243187Y-198635D02*
D03*
X241219D02*
D03*
X239250D02*
D03*
X237282D02*
D03*
X235313D02*
D03*
X243187Y-182690D02*
D03*
X241219D02*
D03*
X239250D02*
D03*
X237282D02*
D03*
X235313D02*
D03*
D111*
X262250Y-170222D02*
D03*
Y-173962D02*
D03*
Y-177702D02*
D03*
X270321D02*
D03*
Y-173962D02*
D03*
Y-170222D02*
D03*
X262215Y-130187D02*
D03*
Y-133927D02*
D03*
Y-137667D02*
D03*
X270286D02*
D03*
Y-133927D02*
D03*
Y-130187D02*
D03*
X155950Y-267662D02*
D03*
Y-271402D02*
D03*
Y-275143D02*
D03*
X164021D02*
D03*
Y-271402D02*
D03*
Y-267662D02*
D03*
X314386Y-70502D02*
D03*
Y-66762D02*
D03*
Y-63022D02*
D03*
X306315D02*
D03*
Y-66762D02*
D03*
Y-70502D02*
D03*
X299786Y-44102D02*
D03*
Y-40362D02*
D03*
Y-36622D02*
D03*
X291715D02*
D03*
Y-40362D02*
D03*
Y-44102D02*
D03*
X262250Y-240122D02*
D03*
Y-243862D02*
D03*
Y-247602D02*
D03*
X270321D02*
D03*
Y-243862D02*
D03*
Y-240122D02*
D03*
X262250Y-200022D02*
D03*
Y-203762D02*
D03*
Y-207502D02*
D03*
X270321D02*
D03*
Y-203762D02*
D03*
Y-200022D02*
D03*
X133886Y-237522D02*
D03*
Y-241262D02*
D03*
Y-245002D02*
D03*
X125815D02*
D03*
Y-237522D02*
D03*
D121*
X56550Y-48005D02*
D03*
Y-53720D02*
D03*
X121750Y-161420D02*
D03*
Y-155705D02*
D03*
X227850Y-198620D02*
D03*
Y-192905D02*
D03*
X261950Y-163020D02*
D03*
Y-157305D02*
D03*
X270550Y-163020D02*
D03*
Y-157305D02*
D03*
X261950Y-121884D02*
D03*
Y-116169D02*
D03*
X270550Y-121884D02*
D03*
Y-116169D02*
D03*
X261950Y-231820D02*
D03*
Y-226105D02*
D03*
X270550Y-231820D02*
D03*
Y-226105D02*
D03*
X261950Y-191720D02*
D03*
Y-186005D02*
D03*
X270550Y-191720D02*
D03*
Y-186005D02*
D03*
X183550Y-97005D02*
D03*
Y-102720D02*
D03*
X169250Y-97005D02*
D03*
Y-102720D02*
D03*
X93750Y-230905D02*
D03*
Y-236620D02*
D03*
X70250Y-211305D02*
D03*
Y-217020D02*
D03*
X141150Y-281405D02*
D03*
Y-287120D02*
D03*
D123*
X88808Y-33462D02*
D03*
X83093D02*
D03*
X203242Y-331600D02*
D03*
X208958D02*
D03*
X139785Y-331000D02*
D03*
X145500D02*
D03*
X288993Y-152662D02*
D03*
X294708D02*
D03*
X155865Y-260662D02*
D03*
X150150D02*
D03*
X289093Y-212262D02*
D03*
X294808D02*
D03*
X126993Y-229762D02*
D03*
X132708D02*
D03*
X75408Y-179862D02*
D03*
X69693D02*
D03*
X75308Y-188362D02*
D03*
X69593D02*
D03*
X75408Y-168762D02*
D03*
X69693D02*
D03*
D125*
X22800Y-284141D02*
D03*
Y-311700D02*
D03*
D126*
X31068Y-295952D02*
D03*
Y-292015D02*
D03*
Y-288078D02*
D03*
Y-307763D02*
D03*
Y-299889D02*
D03*
Y-303826D02*
D03*
D129*
X218900Y-344362D02*
D03*
D130*
X52000Y-38562D02*
D03*
D131*
X45801Y-122192D02*
D03*
Y-125932D02*
D03*
X52100Y-122192D02*
D03*
Y-125932D02*
D03*
X45801Y-131092D02*
D03*
Y-134832D02*
D03*
X52100Y-131092D02*
D03*
Y-134832D02*
D03*
X45801Y-142292D02*
D03*
Y-146032D02*
D03*
X52100Y-142292D02*
D03*
Y-146032D02*
D03*
X45801Y-149792D02*
D03*
Y-153532D02*
D03*
X52100Y-149792D02*
D03*
Y-153532D02*
D03*
D132*
X173800Y-281505D02*
D03*
Y-284065D02*
D03*
Y-286624D02*
D03*
Y-289183D02*
D03*
Y-291742D02*
D03*
Y-294301D02*
D03*
Y-296860D02*
D03*
Y-299419D02*
D03*
X150572Y-281505D02*
D03*
Y-284065D02*
D03*
Y-286624D02*
D03*
Y-289183D02*
D03*
Y-291742D02*
D03*
Y-294301D02*
D03*
Y-296860D02*
D03*
Y-299419D02*
D03*
D133*
X289136Y-144596D02*
D03*
Y-142037D02*
D03*
Y-139478D02*
D03*
Y-136919D02*
D03*
Y-134360D02*
D03*
Y-131801D02*
D03*
Y-129242D02*
D03*
Y-126683D02*
D03*
Y-124124D02*
D03*
Y-121564D02*
D03*
Y-119006D02*
D03*
Y-116446D02*
D03*
Y-113887D02*
D03*
Y-111328D02*
D03*
X312365Y-144596D02*
D03*
Y-142037D02*
D03*
Y-139478D02*
D03*
Y-136919D02*
D03*
Y-134360D02*
D03*
Y-131801D02*
D03*
Y-129242D02*
D03*
Y-126683D02*
D03*
Y-124124D02*
D03*
Y-121564D02*
D03*
Y-119006D02*
D03*
Y-116446D02*
D03*
Y-113887D02*
D03*
Y-111328D02*
D03*
X289136Y-204196D02*
D03*
Y-201637D02*
D03*
Y-199078D02*
D03*
Y-196519D02*
D03*
Y-193960D02*
D03*
Y-191401D02*
D03*
Y-188842D02*
D03*
Y-186283D02*
D03*
Y-183724D02*
D03*
Y-181165D02*
D03*
Y-178605D02*
D03*
Y-176046D02*
D03*
Y-173487D02*
D03*
Y-170928D02*
D03*
X312365Y-204196D02*
D03*
Y-201637D02*
D03*
Y-199078D02*
D03*
Y-196519D02*
D03*
Y-193960D02*
D03*
Y-191401D02*
D03*
Y-188842D02*
D03*
Y-186283D02*
D03*
Y-183724D02*
D03*
Y-181165D02*
D03*
Y-178605D02*
D03*
Y-176046D02*
D03*
Y-173487D02*
D03*
Y-170928D02*
D03*
D134*
X155850Y-209522D02*
D03*
X173750D02*
D03*
X155850Y-201648D02*
D03*
X173750D02*
D03*
X155850Y-193774D02*
D03*
X173750D02*
D03*
X155850Y-185900D02*
D03*
X173750D02*
D03*
X155850Y-178026D02*
D03*
X173750D02*
D03*
X155850Y-170152D02*
D03*
X173750D02*
D03*
X155850Y-162278D02*
D03*
X173750D02*
D03*
X155850Y-154404D02*
D03*
X173750D02*
D03*
X155850Y-146530D02*
D03*
X173750D02*
D03*
X155850Y-138656D02*
D03*
X173750D02*
D03*
Y-217396D02*
D03*
X155850D02*
D03*
X173750Y-225270D02*
D03*
X155850D02*
D03*
X173750Y-233144D02*
D03*
X155850D02*
D03*
X199750Y-205622D02*
D03*
X217650D02*
D03*
X199750Y-197748D02*
D03*
X217650D02*
D03*
X199750Y-189874D02*
D03*
X217650D02*
D03*
X199750Y-182000D02*
D03*
X217650D02*
D03*
X199750Y-174126D02*
D03*
X217650D02*
D03*
X199750Y-166252D02*
D03*
X217650D02*
D03*
X199750Y-158378D02*
D03*
X217650D02*
D03*
X199750Y-150504D02*
D03*
X217650D02*
D03*
X199750Y-142630D02*
D03*
X217650D02*
D03*
X199750Y-134756D02*
D03*
X217650D02*
D03*
Y-213496D02*
D03*
X199750D02*
D03*
X217650Y-221370D02*
D03*
X199750D02*
D03*
X217650Y-229244D02*
D03*
X199750D02*
D03*
M02*
