G04 Layer_Color=16711935*
%FSLAX25Y25*%
%MOIN*%
G70*
G01*
G75*
%ADD47C,0.01000*%
G36*
X87557Y55692D02*
X89397D01*
Y54435D01*
X87557D01*
Y52066D01*
X86100D01*
Y54435D01*
X80943D01*
Y55692D01*
X85498Y62780D01*
X87557D01*
Y55692D01*
D02*
G37*
G36*
X67916Y53396D02*
X70303D01*
Y52066D01*
X63580D01*
Y53396D01*
X66331D01*
Y61213D01*
X63762Y59828D01*
X63252Y61049D01*
X66641Y62834D01*
X67916D01*
Y53396D01*
D02*
G37*
G36*
X97250Y61541D02*
X92823D01*
Y58534D01*
X94025D01*
X94226Y58516D01*
X94463Y58498D01*
X94699Y58480D01*
X95246Y58389D01*
X95282D01*
X95373Y58352D01*
X95519Y58316D01*
X95683Y58279D01*
X95902Y58206D01*
X96121Y58115D01*
X96339Y58024D01*
X96558Y57897D01*
X96576Y57878D01*
X96649Y57842D01*
X96758Y57751D01*
X96886Y57660D01*
X97032Y57514D01*
X97177Y57368D01*
X97323Y57168D01*
X97469Y56967D01*
X97487Y56949D01*
X97523Y56858D01*
X97578Y56731D01*
X97651Y56567D01*
X97724Y56348D01*
X97779Y56093D01*
X97815Y55820D01*
X97833Y55492D01*
Y55455D01*
Y55364D01*
X97815Y55200D01*
X97797Y55018D01*
X97742Y54781D01*
X97688Y54544D01*
X97596Y54289D01*
X97487Y54034D01*
X97469Y53998D01*
X97432Y53925D01*
X97341Y53797D01*
X97232Y53651D01*
X97104Y53469D01*
X96940Y53287D01*
X96740Y53087D01*
X96521Y52904D01*
X96503Y52886D01*
X96412Y52832D01*
X96285Y52740D01*
X96121Y52631D01*
X95902Y52522D01*
X95665Y52394D01*
X95392Y52285D01*
X95100Y52175D01*
X95064Y52157D01*
X94955Y52139D01*
X94791Y52103D01*
X94572Y52048D01*
X94317Y51993D01*
X94007Y51957D01*
X93679Y51939D01*
X93333Y51920D01*
X93023D01*
X92823Y51939D01*
X92713D01*
X92659Y51957D01*
X92477D01*
X92276Y51975D01*
X92185D01*
X92112Y51993D01*
X91930Y52012D01*
X91748Y52030D01*
X91711D01*
X91602Y52048D01*
X91456D01*
X91292Y52066D01*
Y53360D01*
X91311D01*
X91365Y53342D01*
X91456Y53323D01*
X91584Y53305D01*
X91729Y53269D01*
X91894Y53250D01*
X92094Y53214D01*
X92294Y53196D01*
X92404D01*
X92513Y53178D01*
X92841D01*
X93041Y53159D01*
X93697D01*
X93861Y53178D01*
X94025Y53196D01*
X94226Y53214D01*
X94626Y53305D01*
X94645D01*
X94718Y53342D01*
X94809Y53378D01*
X94936Y53433D01*
X95228Y53560D01*
X95519Y53761D01*
X95538Y53779D01*
X95574Y53815D01*
X95647Y53870D01*
X95738Y53961D01*
X95829Y54052D01*
X95920Y54180D01*
X96102Y54453D01*
X96121Y54471D01*
X96139Y54526D01*
X96175Y54617D01*
X96212Y54726D01*
X96248Y54872D01*
X96266Y55036D01*
X96303Y55200D01*
Y55401D01*
Y55419D01*
Y55437D01*
Y55492D01*
X96285Y55564D01*
X96266Y55728D01*
X96212Y55947D01*
X96121Y56184D01*
X95993Y56421D01*
X95811Y56639D01*
X95574Y56840D01*
X95538Y56858D01*
X95446Y56913D01*
X95282Y56986D01*
X95046Y57077D01*
X94754Y57168D01*
X94390Y57241D01*
X93971Y57295D01*
X93497Y57314D01*
X91474D01*
Y62780D01*
X97250D01*
Y61541D01*
D02*
G37*
G36*
X103718Y62761D02*
X103937Y62743D01*
X104210Y62707D01*
X104502Y62634D01*
X104830Y62561D01*
X105158Y62452D01*
X105486Y62324D01*
X105814Y62142D01*
X106105Y61941D01*
X106378Y61686D01*
X106597Y61377D01*
X106779Y61031D01*
X106889Y60630D01*
X106907Y60411D01*
X106925Y60174D01*
Y60156D01*
Y60138D01*
Y60028D01*
X106907Y59864D01*
X106870Y59664D01*
X106816Y59427D01*
X106743Y59172D01*
X106652Y58917D01*
X106506Y58680D01*
X106488Y58662D01*
X106433Y58571D01*
X106324Y58461D01*
X106196Y58334D01*
X106014Y58188D01*
X105777Y58024D01*
X105504Y57878D01*
X105176Y57751D01*
X105194D01*
X105249Y57733D01*
X105340Y57714D01*
X105449Y57696D01*
X105704Y57605D01*
X105996Y57478D01*
X106014D01*
X106069Y57441D01*
X106142Y57405D01*
X106233Y57332D01*
X106451Y57186D01*
X106670Y56967D01*
X106688Y56949D01*
X106725Y56913D01*
X106779Y56840D01*
X106834Y56767D01*
X106907Y56658D01*
X106980Y56530D01*
X107125Y56220D01*
Y56202D01*
X107162Y56147D01*
X107180Y56056D01*
X107217Y55947D01*
X107253Y55801D01*
X107271Y55637D01*
X107308Y55273D01*
Y55237D01*
Y55145D01*
X107289Y55000D01*
X107271Y54799D01*
X107235Y54599D01*
X107180Y54362D01*
X107107Y54125D01*
X106998Y53888D01*
X106980Y53870D01*
X106943Y53797D01*
X106870Y53688D01*
X106779Y53542D01*
X106670Y53396D01*
X106524Y53214D01*
X106360Y53050D01*
X106160Y52886D01*
X106142Y52868D01*
X106069Y52813D01*
X105941Y52740D01*
X105795Y52667D01*
X105595Y52558D01*
X105376Y52449D01*
X105121Y52358D01*
X104830Y52267D01*
X104793D01*
X104702Y52230D01*
X104538Y52212D01*
X104338Y52175D01*
X104083Y52139D01*
X103791Y52103D01*
X103463Y52084D01*
X103117Y52066D01*
X100366D01*
Y62780D01*
X103536D01*
X103718Y62761D01*
D02*
G37*
G36*
X41825Y61541D02*
X37398D01*
Y58534D01*
X38600D01*
X38800Y58516D01*
X39037Y58498D01*
X39274Y58480D01*
X39821Y58389D01*
X39857D01*
X39948Y58352D01*
X40094Y58316D01*
X40258Y58279D01*
X40477Y58206D01*
X40695Y58115D01*
X40914Y58024D01*
X41133Y57897D01*
X41151Y57878D01*
X41224Y57842D01*
X41333Y57751D01*
X41461Y57660D01*
X41606Y57514D01*
X41752Y57368D01*
X41898Y57168D01*
X42044Y56967D01*
X42062Y56949D01*
X42098Y56858D01*
X42153Y56731D01*
X42226Y56567D01*
X42299Y56348D01*
X42353Y56093D01*
X42390Y55820D01*
X42408Y55492D01*
Y55455D01*
Y55364D01*
X42390Y55200D01*
X42372Y55018D01*
X42317Y54781D01*
X42262Y54544D01*
X42171Y54289D01*
X42062Y54034D01*
X42044Y53998D01*
X42007Y53925D01*
X41916Y53797D01*
X41807Y53651D01*
X41679Y53469D01*
X41515Y53287D01*
X41315Y53087D01*
X41096Y52904D01*
X41078Y52886D01*
X40987Y52832D01*
X40859Y52740D01*
X40695Y52631D01*
X40477Y52522D01*
X40240Y52394D01*
X39966Y52285D01*
X39675Y52175D01*
X39639Y52157D01*
X39529Y52139D01*
X39365Y52103D01*
X39147Y52048D01*
X38892Y51993D01*
X38582Y51957D01*
X38254Y51939D01*
X37908Y51920D01*
X37598D01*
X37398Y51939D01*
X37288D01*
X37233Y51957D01*
X37051D01*
X36851Y51975D01*
X36760D01*
X36687Y51993D01*
X36505Y52012D01*
X36323Y52030D01*
X36286D01*
X36177Y52048D01*
X36031D01*
X35867Y52066D01*
Y53360D01*
X35885D01*
X35940Y53342D01*
X36031Y53323D01*
X36158Y53305D01*
X36304Y53269D01*
X36468Y53250D01*
X36669Y53214D01*
X36869Y53196D01*
X36978D01*
X37088Y53178D01*
X37416D01*
X37616Y53159D01*
X38272D01*
X38436Y53178D01*
X38600Y53196D01*
X38800Y53214D01*
X39201Y53305D01*
X39219D01*
X39292Y53342D01*
X39384Y53378D01*
X39511Y53433D01*
X39803Y53560D01*
X40094Y53761D01*
X40112Y53779D01*
X40149Y53815D01*
X40222Y53870D01*
X40313Y53961D01*
X40404Y54052D01*
X40495Y54180D01*
X40677Y54453D01*
X40695Y54471D01*
X40714Y54526D01*
X40750Y54617D01*
X40786Y54726D01*
X40823Y54872D01*
X40841Y55036D01*
X40878Y55200D01*
Y55401D01*
Y55419D01*
Y55437D01*
Y55492D01*
X40859Y55564D01*
X40841Y55728D01*
X40786Y55947D01*
X40695Y56184D01*
X40568Y56421D01*
X40386Y56639D01*
X40149Y56840D01*
X40112Y56858D01*
X40021Y56913D01*
X39857Y56986D01*
X39620Y57077D01*
X39329Y57168D01*
X38964Y57241D01*
X38545Y57295D01*
X38072Y57314D01*
X36049D01*
Y62780D01*
X41825D01*
Y61541D01*
D02*
G37*
G36*
X57895Y62925D02*
X58095Y62907D01*
X58332Y62871D01*
X58606Y62798D01*
X58861Y62725D01*
X59134Y62616D01*
X59170Y62597D01*
X59262Y62561D01*
X59389Y62470D01*
X59553Y62361D01*
X59735Y62233D01*
X59936Y62051D01*
X60136Y61850D01*
X60337Y61614D01*
X60355Y61577D01*
X60428Y61486D01*
X60519Y61340D01*
X60628Y61140D01*
X60755Y60903D01*
X60883Y60593D01*
X61011Y60265D01*
X61120Y59883D01*
Y59864D01*
X61138Y59828D01*
Y59773D01*
X61156Y59700D01*
X61193Y59591D01*
X61211Y59482D01*
X61229Y59336D01*
X61266Y59190D01*
X61302Y58826D01*
X61357Y58407D01*
X61375Y57933D01*
X61393Y57423D01*
Y57405D01*
Y57368D01*
Y57295D01*
Y57222D01*
Y57113D01*
X61375Y56986D01*
X61357Y56676D01*
X61339Y56330D01*
X61284Y55947D01*
X61229Y55546D01*
X61138Y55164D01*
Y55145D01*
X61120Y55127D01*
Y55072D01*
X61102Y55000D01*
X61029Y54817D01*
X60956Y54581D01*
X60847Y54307D01*
X60719Y54016D01*
X60573Y53724D01*
X60391Y53433D01*
X60373Y53396D01*
X60300Y53305D01*
X60191Y53178D01*
X60045Y53014D01*
X59881Y52832D01*
X59662Y52649D01*
X59425Y52467D01*
X59152Y52303D01*
X59116Y52285D01*
X59025Y52248D01*
X58861Y52175D01*
X58660Y52121D01*
X58405Y52048D01*
X58114Y51975D01*
X57786Y51939D01*
X57421Y51920D01*
X57275D01*
X57112Y51939D01*
X56893Y51957D01*
X56656Y51993D01*
X56383Y52048D01*
X56109Y52121D01*
X55836Y52230D01*
X55800Y52248D01*
X55727Y52285D01*
X55599Y52376D01*
X55435Y52485D01*
X55235Y52613D01*
X55035Y52795D01*
X54834Y52996D01*
X54634Y53232D01*
X54615Y53269D01*
X54561Y53360D01*
X54470Y53506D01*
X54360Y53706D01*
X54233Y53943D01*
X54105Y54234D01*
X53978Y54581D01*
X53868Y54945D01*
Y54963D01*
X53850Y55000D01*
Y55054D01*
X53832Y55127D01*
X53814Y55237D01*
X53795Y55346D01*
X53759Y55492D01*
X53741Y55637D01*
X53686Y56002D01*
X53650Y56421D01*
X53632Y56913D01*
X53613Y57423D01*
Y57441D01*
Y57478D01*
Y57551D01*
Y57623D01*
Y57733D01*
X53632Y57860D01*
X53650Y58170D01*
X53668Y58516D01*
X53723Y58881D01*
X53777Y59281D01*
X53850Y59664D01*
Y59682D01*
X53868Y59719D01*
X53887Y59755D01*
X53905Y59828D01*
X53960Y60028D01*
X54032Y60265D01*
X54142Y60539D01*
X54269Y60830D01*
X54433Y61122D01*
X54597Y61413D01*
X54615Y61449D01*
X54688Y61541D01*
X54798Y61668D01*
X54943Y61832D01*
X55107Y62014D01*
X55326Y62197D01*
X55563Y62379D01*
X55836Y62543D01*
X55873Y62561D01*
X55964Y62597D01*
X56128Y62670D01*
X56328Y62743D01*
X56583Y62816D01*
X56893Y62889D01*
X57221Y62925D01*
X57585Y62944D01*
X57731D01*
X57895Y62925D01*
D02*
G37*
G36*
X30182D02*
X30383Y62907D01*
X30620Y62871D01*
X30893Y62798D01*
X31148Y62725D01*
X31421Y62616D01*
X31458Y62597D01*
X31549Y62561D01*
X31676Y62470D01*
X31840Y62361D01*
X32023Y62233D01*
X32223Y62051D01*
X32423Y61850D01*
X32624Y61614D01*
X32642Y61577D01*
X32715Y61486D01*
X32806Y61340D01*
X32915Y61140D01*
X33043Y60903D01*
X33171Y60593D01*
X33298Y60265D01*
X33407Y59883D01*
Y59864D01*
X33426Y59828D01*
Y59773D01*
X33444Y59700D01*
X33480Y59591D01*
X33498Y59482D01*
X33517Y59336D01*
X33553Y59190D01*
X33590Y58826D01*
X33644Y58407D01*
X33662Y57933D01*
X33681Y57423D01*
Y57405D01*
Y57368D01*
Y57295D01*
Y57222D01*
Y57113D01*
X33662Y56986D01*
X33644Y56676D01*
X33626Y56330D01*
X33571Y55947D01*
X33517Y55546D01*
X33426Y55164D01*
Y55145D01*
X33407Y55127D01*
Y55072D01*
X33389Y55000D01*
X33316Y54817D01*
X33243Y54581D01*
X33134Y54307D01*
X33007Y54016D01*
X32861Y53724D01*
X32678Y53433D01*
X32660Y53396D01*
X32587Y53305D01*
X32478Y53178D01*
X32332Y53014D01*
X32168Y52832D01*
X31950Y52649D01*
X31713Y52467D01*
X31440Y52303D01*
X31403Y52285D01*
X31312Y52248D01*
X31148Y52175D01*
X30948Y52121D01*
X30692Y52048D01*
X30401Y51975D01*
X30073Y51939D01*
X29709Y51920D01*
X29563D01*
X29399Y51939D01*
X29180Y51957D01*
X28943Y51993D01*
X28670Y52048D01*
X28397Y52121D01*
X28124Y52230D01*
X28087Y52248D01*
X28014Y52285D01*
X27887Y52376D01*
X27723Y52485D01*
X27522Y52613D01*
X27322Y52795D01*
X27121Y52996D01*
X26921Y53232D01*
X26903Y53269D01*
X26848Y53360D01*
X26757Y53506D01*
X26648Y53706D01*
X26520Y53943D01*
X26393Y54234D01*
X26265Y54581D01*
X26156Y54945D01*
Y54963D01*
X26138Y55000D01*
Y55054D01*
X26119Y55127D01*
X26101Y55237D01*
X26083Y55346D01*
X26046Y55492D01*
X26028Y55637D01*
X25974Y56002D01*
X25937Y56421D01*
X25919Y56913D01*
X25901Y57423D01*
Y57441D01*
Y57478D01*
Y57551D01*
Y57623D01*
Y57733D01*
X25919Y57860D01*
X25937Y58170D01*
X25955Y58516D01*
X26010Y58881D01*
X26065Y59281D01*
X26138Y59664D01*
Y59682D01*
X26156Y59719D01*
X26174Y59755D01*
X26192Y59828D01*
X26247Y60028D01*
X26320Y60265D01*
X26429Y60539D01*
X26557Y60830D01*
X26721Y61122D01*
X26885Y61413D01*
X26903Y61449D01*
X26976Y61541D01*
X27085Y61668D01*
X27231Y61832D01*
X27395Y62014D01*
X27613Y62197D01*
X27850Y62379D01*
X28124Y62543D01*
X28160Y62561D01*
X28251Y62597D01*
X28415Y62670D01*
X28615Y62743D01*
X28870Y62816D01*
X29180Y62889D01*
X29508Y62925D01*
X29873Y62944D01*
X30018D01*
X30182Y62925D01*
D02*
G37*
G36*
X76516D02*
X76753Y62907D01*
X76990Y62871D01*
X77245Y62816D01*
X77482Y62761D01*
X77518D01*
X77591Y62725D01*
X77700Y62688D01*
X77846Y62634D01*
X78010Y62561D01*
X78174Y62470D01*
X78356Y62361D01*
X78520Y62251D01*
X78538Y62233D01*
X78593Y62197D01*
X78666Y62124D01*
X78775Y62033D01*
X78866Y61905D01*
X78975Y61778D01*
X79085Y61614D01*
X79176Y61449D01*
X79194Y61431D01*
X79212Y61377D01*
X79249Y61267D01*
X79285Y61158D01*
X79322Y60994D01*
X79358Y60812D01*
X79395Y60630D01*
Y60411D01*
Y60393D01*
Y60374D01*
Y60320D01*
Y60265D01*
X79376Y60083D01*
X79322Y59864D01*
X79267Y59609D01*
X79176Y59354D01*
X79048Y59081D01*
X78866Y58826D01*
X78848Y58789D01*
X78775Y58716D01*
X78648Y58589D01*
X78484Y58443D01*
X78283Y58261D01*
X78028Y58061D01*
X77718Y57860D01*
X77390Y57678D01*
X77409Y57660D01*
X77463Y57642D01*
X77554Y57587D01*
X77682Y57532D01*
X77810Y57441D01*
X77955Y57350D01*
X78265Y57150D01*
X78283Y57131D01*
X78338Y57095D01*
X78411Y57040D01*
X78520Y56967D01*
X78739Y56767D01*
X78975Y56512D01*
X78994Y56494D01*
X79030Y56457D01*
X79085Y56384D01*
X79158Y56293D01*
X79231Y56166D01*
X79303Y56038D01*
X79449Y55728D01*
Y55710D01*
X79486Y55656D01*
X79504Y55564D01*
X79540Y55437D01*
X79577Y55309D01*
X79595Y55145D01*
X79632Y54763D01*
Y54726D01*
Y54654D01*
X79613Y54508D01*
X79595Y54344D01*
X79559Y54162D01*
X79504Y53961D01*
X79431Y53742D01*
X79340Y53542D01*
X79322Y53524D01*
X79285Y53451D01*
X79231Y53360D01*
X79140Y53232D01*
X79030Y53087D01*
X78903Y52941D01*
X78739Y52795D01*
X78557Y52649D01*
X78538Y52631D01*
X78465Y52595D01*
X78356Y52522D01*
X78228Y52449D01*
X78046Y52358D01*
X77846Y52267D01*
X77627Y52175D01*
X77372Y52103D01*
X77336D01*
X77263Y52066D01*
X77117Y52048D01*
X76935Y52012D01*
X76716Y51975D01*
X76479Y51957D01*
X76206Y51920D01*
X75769D01*
X75605Y51939D01*
X75386D01*
X75149Y51957D01*
X74894Y51993D01*
X74621Y52048D01*
X74366Y52103D01*
X74329Y52121D01*
X74257Y52139D01*
X74129Y52194D01*
X73965Y52248D01*
X73801Y52321D01*
X73601Y52412D01*
X73418Y52522D01*
X73236Y52649D01*
X73218Y52667D01*
X73163Y52722D01*
X73090Y52795D01*
X72981Y52886D01*
X72872Y53014D01*
X72763Y53159D01*
X72653Y53323D01*
X72562Y53487D01*
Y53506D01*
X72526Y53579D01*
X72489Y53670D01*
X72453Y53815D01*
X72416Y53961D01*
X72380Y54143D01*
X72362Y54344D01*
X72343Y54562D01*
Y54581D01*
Y54599D01*
Y54654D01*
X72362Y54726D01*
X72380Y54909D01*
X72416Y55145D01*
X72471Y55401D01*
X72580Y55692D01*
X72708Y55984D01*
X72890Y56257D01*
X72908Y56293D01*
X72999Y56384D01*
X73127Y56512D01*
X73309Y56694D01*
X73546Y56894D01*
X73838Y57113D01*
X74184Y57350D01*
X74585Y57569D01*
X74566D01*
X74548Y57587D01*
X74493Y57623D01*
X74420Y57660D01*
X74238Y57769D01*
X74001Y57915D01*
X73746Y58097D01*
X73510Y58297D01*
X73255Y58516D01*
X73054Y58753D01*
X73036Y58789D01*
X72981Y58862D01*
X72908Y59008D01*
X72817Y59190D01*
X72726Y59409D01*
X72653Y59664D01*
X72598Y59937D01*
X72580Y60247D01*
Y60265D01*
Y60338D01*
X72598Y60429D01*
Y60557D01*
X72635Y60721D01*
X72671Y60885D01*
X72708Y61049D01*
X72781Y61231D01*
X72799Y61249D01*
X72817Y61322D01*
X72872Y61413D01*
X72945Y61522D01*
X73036Y61668D01*
X73145Y61814D01*
X73273Y61960D01*
X73418Y62105D01*
X73437Y62124D01*
X73491Y62178D01*
X73582Y62233D01*
X73710Y62324D01*
X73874Y62415D01*
X74056Y62524D01*
X74257Y62616D01*
X74493Y62707D01*
X74530Y62725D01*
X74603Y62743D01*
X74748Y62780D01*
X74931Y62834D01*
X75149Y62871D01*
X75423Y62907D01*
X75714Y62925D01*
X76024Y62944D01*
X76315D01*
X76516Y62925D01*
D02*
G37*
G36*
X50716Y55856D02*
X45815D01*
Y57204D01*
X50716D01*
Y55856D01*
D02*
G37*
G36*
X24152Y61449D02*
X19651Y52066D01*
X18011D01*
X22676Y61449D01*
X16900D01*
Y62780D01*
X24152D01*
Y61449D01*
D02*
G37*
%LPC*%
G36*
X86100Y61395D02*
X82364Y55692D01*
X86100D01*
Y61395D01*
D02*
G37*
G36*
X103536Y61541D02*
X101823D01*
Y58206D01*
X103445D01*
X103554Y58225D01*
X103700D01*
X103846Y58243D01*
X104156Y58297D01*
X104174D01*
X104228Y58316D01*
X104301Y58352D01*
X104392Y58389D01*
X104611Y58480D01*
X104848Y58625D01*
X104866Y58644D01*
X104903Y58662D01*
X105012Y58771D01*
X105158Y58953D01*
X105303Y59172D01*
Y59190D01*
X105322Y59227D01*
X105358Y59300D01*
X105394Y59409D01*
X105413Y59518D01*
X105449Y59664D01*
X105467Y59974D01*
Y59992D01*
Y60028D01*
Y60083D01*
X105449Y60174D01*
X105431Y60356D01*
X105358Y60575D01*
Y60593D01*
X105340Y60630D01*
X105322Y60684D01*
X105285Y60739D01*
X105176Y60903D01*
X105012Y61067D01*
X104994Y61085D01*
X104975Y61103D01*
X104921Y61140D01*
X104848Y61194D01*
X104757Y61249D01*
X104629Y61304D01*
X104502Y61358D01*
X104356Y61413D01*
X104338D01*
X104283Y61431D01*
X104192Y61449D01*
X104065Y61486D01*
X103919Y61504D01*
X103736Y61522D01*
X103536Y61541D01*
D02*
G37*
G36*
X103518Y56986D02*
X101823D01*
Y53305D01*
X103554D01*
X103664Y53323D01*
X103791D01*
X104065Y53360D01*
X104374Y53414D01*
X104684Y53506D01*
X104975Y53615D01*
X105231Y53761D01*
X105249Y53779D01*
X105322Y53852D01*
X105431Y53961D01*
X105540Y54125D01*
X105650Y54325D01*
X105759Y54581D01*
X105832Y54872D01*
X105850Y55218D01*
Y55237D01*
Y55291D01*
Y55364D01*
X105832Y55455D01*
X105777Y55692D01*
X105668Y55947D01*
Y55965D01*
X105631Y56002D01*
X105595Y56056D01*
X105540Y56147D01*
X105394Y56312D01*
X105176Y56494D01*
X105158Y56512D01*
X105121Y56530D01*
X105048Y56585D01*
X104957Y56621D01*
X104830Y56694D01*
X104702Y56749D01*
X104374Y56858D01*
X104356D01*
X104283Y56876D01*
X104192Y56894D01*
X104065Y56931D01*
X103901Y56949D01*
X103718Y56967D01*
X103518Y56986D01*
D02*
G37*
G36*
X57494Y61723D02*
X57403D01*
X57294Y61705D01*
X57148Y61686D01*
X57002Y61650D01*
X56820Y61614D01*
X56656Y61541D01*
X56474Y61449D01*
X56456Y61431D01*
X56401Y61395D01*
X56310Y61340D01*
X56200Y61249D01*
X56091Y61122D01*
X55945Y60994D01*
X55818Y60830D01*
X55690Y60630D01*
X55672Y60611D01*
X55636Y60539D01*
X55581Y60429D01*
X55508Y60265D01*
X55435Y60065D01*
X55362Y59846D01*
X55290Y59591D01*
X55217Y59300D01*
Y59263D01*
X55198Y59154D01*
X55162Y58990D01*
X55144Y58771D01*
X55107Y58498D01*
X55071Y58188D01*
X55053Y57842D01*
Y57459D01*
Y57441D01*
Y57423D01*
Y57295D01*
Y57131D01*
Y56949D01*
Y56931D01*
Y56913D01*
Y56803D01*
Y56658D01*
X55071Y56476D01*
X59608Y59828D01*
Y59846D01*
X59589Y59901D01*
X59553Y59974D01*
X59517Y60083D01*
X59425Y60320D01*
X59298Y60593D01*
Y60611D01*
X59262Y60648D01*
X59225Y60721D01*
X59170Y60794D01*
X59025Y60994D01*
X58842Y61176D01*
X58824Y61194D01*
X58806Y61213D01*
X58751Y61267D01*
X58679Y61322D01*
X58478Y61449D01*
X58241Y61577D01*
X58223D01*
X58187Y61595D01*
X58114Y61632D01*
X58022Y61650D01*
X57913Y61686D01*
X57786Y61705D01*
X57494Y61723D01*
D02*
G37*
G36*
X59881Y58461D02*
X55344Y55091D01*
Y55072D01*
X55362Y55018D01*
X55399Y54927D01*
X55435Y54836D01*
X55526Y54562D01*
X55654Y54289D01*
X55672Y54271D01*
X55690Y54234D01*
X55727Y54162D01*
X55782Y54089D01*
X55927Y53888D01*
X56109Y53670D01*
X56128Y53651D01*
X56164Y53633D01*
X56219Y53579D01*
X56292Y53524D01*
X56474Y53396D01*
X56711Y53269D01*
X56729D01*
X56765Y53250D01*
X56838Y53232D01*
X56948Y53214D01*
X57057Y53178D01*
X57184Y53159D01*
X57494Y53141D01*
X57585D01*
X57695Y53159D01*
X57840Y53178D01*
X57986Y53196D01*
X58168Y53250D01*
X58332Y53305D01*
X58514Y53396D01*
X58533Y53414D01*
X58587Y53451D01*
X58679Y53506D01*
X58788Y53597D01*
X58897Y53706D01*
X59025Y53852D01*
X59152Y54016D01*
X59280Y54198D01*
X59298Y54216D01*
X59334Y54289D01*
X59389Y54417D01*
X59462Y54562D01*
X59553Y54763D01*
X59626Y54981D01*
X59699Y55255D01*
X59772Y55528D01*
Y55546D01*
Y55564D01*
X59808Y55674D01*
X59826Y55838D01*
X59863Y56056D01*
X59899Y56330D01*
X59917Y56639D01*
X59954Y56986D01*
Y57368D01*
Y57386D01*
Y57423D01*
Y57478D01*
Y57532D01*
X59936Y57714D01*
X59917Y57915D01*
Y57933D01*
Y57969D01*
Y58024D01*
X59899Y58079D01*
Y58261D01*
X59881Y58461D01*
D02*
G37*
G36*
X32168D02*
X27632Y55091D01*
Y55072D01*
X27650Y55018D01*
X27686Y54927D01*
X27723Y54836D01*
X27814Y54562D01*
X27941Y54289D01*
X27959Y54271D01*
X27978Y54234D01*
X28014Y54162D01*
X28069Y54089D01*
X28215Y53888D01*
X28397Y53670D01*
X28415Y53651D01*
X28451Y53633D01*
X28506Y53579D01*
X28579Y53524D01*
X28761Y53396D01*
X28998Y53269D01*
X29016D01*
X29053Y53250D01*
X29126Y53232D01*
X29235Y53214D01*
X29344Y53178D01*
X29472Y53159D01*
X29781Y53141D01*
X29873D01*
X29982Y53159D01*
X30128Y53178D01*
X30274Y53196D01*
X30456Y53250D01*
X30620Y53305D01*
X30802Y53396D01*
X30820Y53414D01*
X30875Y53451D01*
X30966Y53506D01*
X31075Y53597D01*
X31185Y53706D01*
X31312Y53852D01*
X31440Y54016D01*
X31567Y54198D01*
X31585Y54216D01*
X31622Y54289D01*
X31676Y54417D01*
X31749Y54562D01*
X31840Y54763D01*
X31913Y54981D01*
X31986Y55255D01*
X32059Y55528D01*
Y55546D01*
Y55564D01*
X32096Y55674D01*
X32114Y55838D01*
X32150Y56056D01*
X32187Y56330D01*
X32205Y56639D01*
X32241Y56986D01*
Y57368D01*
Y57386D01*
Y57423D01*
Y57478D01*
Y57532D01*
X32223Y57714D01*
X32205Y57915D01*
Y57933D01*
Y57969D01*
Y58024D01*
X32187Y58079D01*
Y58261D01*
X32168Y58461D01*
D02*
G37*
G36*
X29781Y61723D02*
X29690D01*
X29581Y61705D01*
X29435Y61686D01*
X29290Y61650D01*
X29107Y61614D01*
X28943Y61541D01*
X28761Y61449D01*
X28743Y61431D01*
X28688Y61395D01*
X28597Y61340D01*
X28488Y61249D01*
X28379Y61122D01*
X28233Y60994D01*
X28105Y60830D01*
X27978Y60630D01*
X27959Y60611D01*
X27923Y60539D01*
X27868Y60429D01*
X27796Y60265D01*
X27723Y60065D01*
X27650Y59846D01*
X27577Y59591D01*
X27504Y59300D01*
Y59263D01*
X27486Y59154D01*
X27449Y58990D01*
X27431Y58771D01*
X27395Y58498D01*
X27358Y58188D01*
X27340Y57842D01*
Y57459D01*
Y57441D01*
Y57423D01*
Y57295D01*
Y57131D01*
Y56949D01*
Y56931D01*
Y56913D01*
Y56803D01*
Y56658D01*
X27358Y56476D01*
X31895Y59828D01*
Y59846D01*
X31877Y59901D01*
X31840Y59974D01*
X31804Y60083D01*
X31713Y60320D01*
X31585Y60593D01*
Y60611D01*
X31549Y60648D01*
X31512Y60721D01*
X31458Y60794D01*
X31312Y60994D01*
X31130Y61176D01*
X31112Y61194D01*
X31093Y61213D01*
X31039Y61267D01*
X30966Y61322D01*
X30765Y61449D01*
X30529Y61577D01*
X30510D01*
X30474Y61595D01*
X30401Y61632D01*
X30310Y61650D01*
X30201Y61686D01*
X30073Y61705D01*
X29781Y61723D01*
D02*
G37*
G36*
X75987Y61759D02*
X75842D01*
X75678Y61741D01*
X75477Y61723D01*
X75240Y61668D01*
X75004Y61614D01*
X74767Y61522D01*
X74566Y61395D01*
X74548Y61377D01*
X74493Y61322D01*
X74402Y61249D01*
X74311Y61140D01*
X74220Y60976D01*
X74129Y60794D01*
X74074Y60575D01*
X74056Y60320D01*
Y60302D01*
Y60265D01*
Y60211D01*
X74074Y60138D01*
X74111Y59937D01*
X74165Y59737D01*
Y59719D01*
X74184Y59700D01*
X74257Y59573D01*
X74384Y59427D01*
X74548Y59245D01*
X74566Y59227D01*
X74603Y59209D01*
X74657Y59154D01*
X74730Y59099D01*
X74931Y58953D01*
X75186Y58771D01*
X75204Y58753D01*
X75259Y58735D01*
X75331Y58680D01*
X75441Y58625D01*
X75587Y58552D01*
X75732Y58480D01*
X75915Y58407D01*
X76115Y58316D01*
X76133D01*
X76151Y58334D01*
X76261Y58389D01*
X76425Y58480D01*
X76625Y58589D01*
X76844Y58716D01*
X77081Y58862D01*
X77299Y59026D01*
X77482Y59209D01*
X77500Y59227D01*
X77554Y59300D01*
X77627Y59391D01*
X77718Y59518D01*
X77791Y59682D01*
X77864Y59864D01*
X77919Y60083D01*
X77937Y60302D01*
Y60338D01*
Y60429D01*
X77919Y60557D01*
X77864Y60721D01*
X77810Y60885D01*
X77718Y61067D01*
X77591Y61249D01*
X77409Y61395D01*
X77390Y61413D01*
X77318Y61449D01*
X77208Y61504D01*
X77044Y61577D01*
X76844Y61650D01*
X76589Y61705D01*
X76315Y61741D01*
X75987Y61759D01*
D02*
G37*
G36*
X75860Y56949D02*
X75842Y56931D01*
X75769Y56894D01*
X75660Y56840D01*
X75532Y56785D01*
X75240Y56603D01*
X74931Y56403D01*
X74913Y56384D01*
X74876Y56348D01*
X74803Y56293D01*
X74712Y56239D01*
X74512Y56056D01*
X74311Y55856D01*
X74293Y55838D01*
X74275Y55801D01*
X74238Y55747D01*
X74184Y55674D01*
X74074Y55492D01*
X73983Y55273D01*
Y55255D01*
X73965Y55218D01*
X73947Y55164D01*
Y55091D01*
X73910Y54890D01*
X73892Y54654D01*
Y54635D01*
Y54599D01*
Y54526D01*
X73910Y54435D01*
X73947Y54216D01*
X74038Y53998D01*
Y53979D01*
X74074Y53961D01*
X74147Y53834D01*
X74293Y53688D01*
X74475Y53524D01*
X74493D01*
X74530Y53487D01*
X74585Y53451D01*
X74676Y53414D01*
X74876Y53323D01*
X75149Y53232D01*
X75168D01*
X75222Y53214D01*
X75295Y53196D01*
X75404D01*
X75514Y53178D01*
X75660Y53159D01*
X75987Y53141D01*
X76133D01*
X76243Y53159D01*
X76498Y53178D01*
X76789Y53214D01*
X76807D01*
X76862Y53232D01*
X76935Y53250D01*
X77026Y53287D01*
X77245Y53360D01*
X77463Y53487D01*
X77482Y53506D01*
X77518Y53524D01*
X77627Y53615D01*
X77773Y53779D01*
X77919Y53961D01*
Y53979D01*
X77937Y54016D01*
X77973Y54070D01*
X78010Y54162D01*
X78065Y54362D01*
X78083Y54635D01*
Y54654D01*
Y54690D01*
Y54745D01*
X78065Y54836D01*
X78046Y55018D01*
X77973Y55237D01*
Y55255D01*
X77955Y55291D01*
X77937Y55346D01*
X77901Y55419D01*
X77791Y55601D01*
X77627Y55801D01*
X77609Y55820D01*
X77573Y55856D01*
X77518Y55911D01*
X77445Y55965D01*
X77354Y56056D01*
X77226Y56147D01*
X77099Y56239D01*
X76935Y56348D01*
X76917Y56366D01*
X76862Y56403D01*
X76771Y56457D01*
X76643Y56530D01*
X76498Y56621D01*
X76297Y56731D01*
X76097Y56840D01*
X75860Y56949D01*
D02*
G37*
%LPD*%
D47*
X217200Y-25762D02*
G03*
X221900Y-30462I4700J0D01*
G01*
X217200Y-12162D02*
G03*
X212500Y-7462I-4700J0D01*
G01*
X206300Y-341200D02*
G03*
X201600Y-336500I-4700J0D01*
G01*
X174800D02*
G03*
X170100Y-341200I0J-4700D01*
G01*
X165400Y-354962D02*
G03*
X170100Y-350262I0J4700D01*
G01*
X206300D02*
G03*
X211000Y-354962I4700J0D01*
G01*
X137100Y-350262D02*
G03*
X141800Y-354962I4700J0D01*
G01*
X137100Y-338662D02*
G03*
X132400Y-333962I-4700J0D01*
G01*
X244200D02*
G03*
X239500Y-338662I0J-4700D01*
G01*
X234800Y-354962D02*
G03*
X239500Y-350262I0J4700D01*
G01*
X20000Y-7462D02*
G03*
X18834Y-32408I0J-12500D01*
G01*
X331597Y-22462D02*
G03*
X326949Y-26467I0J-4700D01*
G01*
X46447Y-347462D02*
G03*
X51147Y-342762I0J4700D01*
G01*
X7500Y-334962D02*
G03*
X20000Y-347462I12500J0D01*
G01*
X322313Y-30462D02*
G03*
X326949Y-26467I0J4688D01*
G01*
X377500Y-27162D02*
G03*
X372800Y-22462I-4700J0D01*
G01*
X378601Y-93972D02*
G03*
X377500Y-90950I-4700J0D01*
G01*
X373901Y-116450D02*
G03*
X378601Y-111750I0J4700D01*
G01*
X370700Y-116450D02*
G03*
X366000Y-121150I0J-4700D01*
G01*
Y-242750D02*
G03*
X370700Y-247450I4700J0D01*
G01*
X378601Y-252150D02*
G03*
X373901Y-247450I-4700J0D01*
G01*
X377500Y-272950D02*
G03*
X378601Y-269928I-3600J3022D01*
G01*
X372800Y-337001D02*
G03*
X377500Y-332301I0J4700D01*
G01*
X277500Y-333962D02*
G03*
X281897Y-337001I4397J1661D01*
G01*
X55847Y-333962D02*
G03*
X51147Y-338662I0J-4700D01*
G01*
X7500Y-277616D02*
G03*
X3200Y-272933I-4700J0D01*
G01*
X-1100Y-268250D02*
G03*
X3200Y-272933I4700J0D01*
G01*
X3600Y-247450D02*
G03*
X-1100Y-252150I0J-4700D01*
G01*
X13302Y-247450D02*
G03*
X18001Y-242750I0J4700D01*
G01*
X22689Y-158881D02*
G03*
X18001Y-163568I0J-4688D01*
G01*
X36813Y-158881D02*
G03*
X41500Y-154193I0J4688D01*
G01*
Y-57298D02*
G03*
X18834Y-32408I-25000J0D01*
G01*
X93250Y-7462D02*
G03*
X97950Y-2762I0J4700D01*
G01*
X102650Y7900D02*
G03*
X97950Y3200I0J-4700D01*
G01*
X123950D02*
G03*
X119250Y7900I-4700J0D01*
G01*
X123950Y-2762D02*
G03*
X128650Y-7462I4700J0D01*
G01*
X174800Y-336500D02*
X201600D01*
X141800Y-354962D02*
X165400D01*
X211000D02*
X234800D01*
X170100Y-350262D02*
Y-341200D01*
X137100Y-350262D02*
Y-338662D01*
X20000Y-7462D02*
X93250D01*
X331597Y-22462D02*
X372800D01*
X281897Y-337001D02*
X372800D01*
X20000Y-347462D02*
X46447D01*
X244200Y-333962D02*
X277500D01*
X55847D02*
X132400D01*
X221900Y-30462D02*
X322313D01*
X377500Y-90950D02*
Y-27162D01*
X378601Y-111750D02*
Y-93972D01*
X370700Y-116450D02*
X373901D01*
X366000Y-242750D02*
Y-121150D01*
X370700Y-247450D02*
X373901D01*
X378601Y-269928D02*
Y-252150D01*
X377500Y-332301D02*
Y-272950D01*
X51147Y-342762D02*
Y-338662D01*
X7500Y-334962D02*
Y-277616D01*
X-1100Y-268250D02*
Y-252150D01*
X3600Y-247450D02*
X13302D01*
X18001Y-242750D02*
Y-163568D01*
X22689Y-158881D02*
X36813D01*
X41500Y-154193D02*
Y-57298D01*
X97950Y-2762D02*
Y3200D01*
X102650Y7900D02*
X119250D01*
X123950Y-2762D02*
Y3200D01*
X128650Y-7462D02*
X212500D01*
X217200Y-25762D02*
Y-12162D01*
X239500Y-350262D02*
Y-338662D01*
X206300Y-350262D02*
Y-341200D01*
M02*
