G04 Layer_Physical_Order=3*
G04 Layer_Color=36540*
%FSLAX25Y25*%
%MOIN*%
G70*
G01*
G75*
%ADD45C,0.01000*%
%ADD48C,0.02000*%
%ADD50C,0.05000*%
%ADD51C,0.00800*%
%ADD52C,0.00787*%
%ADD55C,0.05906*%
%ADD59C,0.04921*%
%ADD60C,0.04000*%
%ADD61R,0.07000X0.07000*%
%ADD66C,0.01969*%
%ADD67C,0.03937*%
%ADD87C,0.00600*%
%ADD88C,0.00900*%
%ADD89C,0.06000*%
G36*
X138097Y57655D02*
X138297Y57637D01*
X138534Y57600D01*
X138990Y57509D01*
X139008D01*
X139099Y57473D01*
X139208Y57437D01*
X139336Y57382D01*
X139500Y57309D01*
X139664Y57218D01*
X139828Y57127D01*
X139992Y56999D01*
X140010Y56981D01*
X140065Y56945D01*
X140138Y56872D01*
X140229Y56781D01*
X140338Y56653D01*
X140447Y56507D01*
X140539Y56343D01*
X140630Y56161D01*
X140648Y56143D01*
X140666Y56070D01*
X140702Y55961D01*
X140757Y55815D01*
X140794Y55651D01*
X140830Y55432D01*
X140848Y55214D01*
X140866Y54959D01*
Y49292D01*
X139573D01*
X139536Y50385D01*
X139500Y50349D01*
X139427Y50276D01*
X139281Y50167D01*
X139117Y50021D01*
X138899Y49875D01*
X138680Y49711D01*
X138425Y49566D01*
X138170Y49438D01*
X138134Y49420D01*
X138042Y49402D01*
X137915Y49347D01*
X137733Y49292D01*
X137514Y49237D01*
X137259Y49201D01*
X137004Y49165D01*
X136712Y49146D01*
X136603D01*
X136476Y49165D01*
X136311D01*
X136111Y49183D01*
X135911Y49219D01*
X135510Y49310D01*
X135492D01*
X135437Y49347D01*
X135346Y49383D01*
X135218Y49438D01*
X134963Y49602D01*
X134690Y49802D01*
X134672Y49821D01*
X134635Y49857D01*
X134581Y49930D01*
X134508Y50021D01*
X134435Y50130D01*
X134344Y50258D01*
X134216Y50549D01*
Y50568D01*
X134198Y50622D01*
X134180Y50713D01*
X134143Y50823D01*
X134125Y50968D01*
X134089Y51132D01*
X134070Y51479D01*
Y51497D01*
Y51533D01*
Y51606D01*
X134089Y51679D01*
X134107Y51788D01*
X134125Y51916D01*
X134180Y52189D01*
X134289Y52499D01*
X134453Y52827D01*
X134562Y52991D01*
X134690Y53137D01*
X134818Y53282D01*
X134981Y53428D01*
X135000D01*
X135018Y53465D01*
X135073Y53501D01*
X135164Y53537D01*
X135255Y53592D01*
X135364Y53647D01*
X135510Y53720D01*
X135674Y53793D01*
X135856Y53847D01*
X136056Y53920D01*
X136275Y53975D01*
X136530Y54029D01*
X136785Y54066D01*
X137077Y54102D01*
X137387Y54139D01*
X139427D01*
Y54849D01*
Y54886D01*
Y54977D01*
X139409Y55104D01*
X139373Y55268D01*
X139318Y55450D01*
X139227Y55651D01*
X139117Y55833D01*
X138953Y56015D01*
X138935Y56034D01*
X138862Y56088D01*
X138753Y56161D01*
X138607Y56234D01*
X138407Y56307D01*
X138152Y56380D01*
X137860Y56434D01*
X137532Y56453D01*
X137277D01*
X137095Y56434D01*
X136876Y56416D01*
X136658Y56380D01*
X136147Y56289D01*
X136111D01*
X136038Y56252D01*
X135892Y56216D01*
X135729Y56179D01*
X135510Y56107D01*
X135273Y56034D01*
X135018Y55942D01*
X134763Y55851D01*
Y57145D01*
X134781D01*
X134818Y57163D01*
X134854Y57181D01*
X134927Y57200D01*
X135109Y57254D01*
X135346Y57327D01*
X135364D01*
X135400Y57345D01*
X135473Y57364D01*
X135564Y57382D01*
X135801Y57437D01*
X136056Y57491D01*
X136075D01*
X136129Y57509D01*
X136202Y57528D01*
X136293Y57546D01*
X136403Y57564D01*
X136530Y57582D01*
X136822Y57619D01*
X136840D01*
X136895Y57637D01*
X136967D01*
X137077Y57655D01*
X137204D01*
X137332Y57673D01*
X137915D01*
X138097Y57655D01*
D02*
G37*
G36*
X127129Y50531D02*
X131829D01*
Y49292D01*
X125653D01*
Y60006D01*
X127129D01*
Y50531D01*
D02*
G37*
G36*
X156463Y57655D02*
X156663Y57637D01*
X156900Y57600D01*
X157155Y57564D01*
X157410Y57491D01*
X157665Y57400D01*
X157702Y57382D01*
X157775Y57345D01*
X157902Y57291D01*
X158066Y57200D01*
X158230Y57090D01*
X158431Y56963D01*
X158613Y56799D01*
X158795Y56617D01*
X158813Y56598D01*
X158868Y56525D01*
X158959Y56416D01*
X159050Y56289D01*
X159159Y56107D01*
X159287Y55906D01*
X159396Y55669D01*
X159487Y55414D01*
X159506Y55378D01*
X159524Y55287D01*
X159560Y55141D01*
X159615Y54959D01*
X159651Y54722D01*
X159688Y54467D01*
X159706Y54175D01*
X159724Y53847D01*
Y53829D01*
Y53793D01*
Y53738D01*
Y53665D01*
Y53501D01*
X159706Y53319D01*
Y53282D01*
Y53191D01*
Y53082D01*
X159688Y52954D01*
X153912D01*
Y52936D01*
Y52900D01*
Y52827D01*
X153930Y52754D01*
Y52645D01*
X153948Y52517D01*
X154003Y52226D01*
X154076Y51916D01*
X154203Y51588D01*
X154367Y51278D01*
X154604Y51005D01*
X154641Y50968D01*
X154732Y50896D01*
X154896Y50786D01*
X155133Y50677D01*
X155424Y50549D01*
X155771Y50440D01*
X156171Y50367D01*
X156645Y50331D01*
X157100D01*
X157356Y50349D01*
X157410D01*
X157483Y50367D01*
X157574D01*
X157811Y50404D01*
X158048Y50422D01*
X158066D01*
X158103Y50440D01*
X158176D01*
X158267Y50458D01*
X158467Y50495D01*
X158704Y50531D01*
X158722D01*
X158758Y50549D01*
X158813Y50568D01*
X158886Y50586D01*
X159087Y50622D01*
X159287Y50677D01*
Y49511D01*
X159269D01*
X159178Y49493D01*
X159068Y49456D01*
X158904Y49420D01*
X158704Y49383D01*
X158485Y49329D01*
X158230Y49292D01*
X157957Y49256D01*
X157920D01*
X157829Y49237D01*
X157684Y49219D01*
X157501Y49201D01*
X157264Y49183D01*
X157009Y49165D01*
X156736Y49146D01*
X156262D01*
X156062Y49165D01*
X155825Y49183D01*
X155534Y49219D01*
X155224Y49256D01*
X154914Y49329D01*
X154623Y49420D01*
X154586Y49438D01*
X154495Y49474D01*
X154349Y49547D01*
X154185Y49638D01*
X153985Y49748D01*
X153766Y49894D01*
X153566Y50057D01*
X153365Y50258D01*
X153347Y50276D01*
X153293Y50349D01*
X153201Y50476D01*
X153092Y50622D01*
X152965Y50823D01*
X152855Y51041D01*
X152728Y51315D01*
X152637Y51588D01*
Y51606D01*
Y51624D01*
X152600Y51734D01*
X152564Y51898D01*
X152527Y52116D01*
X152491Y52390D01*
X152454Y52681D01*
X152436Y53027D01*
X152418Y53392D01*
Y53410D01*
Y53428D01*
Y53537D01*
X152436Y53701D01*
X152454Y53920D01*
X152473Y54157D01*
X152527Y54430D01*
X152582Y54722D01*
X152655Y55013D01*
Y55032D01*
X152673Y55050D01*
X152709Y55141D01*
X152764Y55287D01*
X152837Y55487D01*
X152946Y55687D01*
X153074Y55924D01*
X153220Y56161D01*
X153384Y56380D01*
X153402Y56398D01*
X153475Y56471D01*
X153584Y56580D01*
X153712Y56726D01*
X153894Y56872D01*
X154094Y57036D01*
X154313Y57181D01*
X154568Y57327D01*
X154604Y57345D01*
X154695Y57382D01*
X154841Y57437D01*
X155023Y57509D01*
X155260Y57564D01*
X155534Y57619D01*
X155825Y57655D01*
X156153Y57673D01*
X156299D01*
X156463Y57655D01*
D02*
G37*
G36*
X183556Y60151D02*
X183756D01*
X183993Y60115D01*
X184230Y60078D01*
X184485Y60042D01*
X184740Y59969D01*
X184777D01*
X184850Y59933D01*
X184977Y59896D01*
X185123Y59842D01*
X185305Y59769D01*
X185487Y59678D01*
X185670Y59568D01*
X185834Y59441D01*
X185852Y59422D01*
X185906Y59386D01*
X185979Y59313D01*
X186089Y59204D01*
X186180Y59076D01*
X186289Y58949D01*
X186398Y58785D01*
X186489Y58603D01*
X186508Y58584D01*
X186526Y58512D01*
X186562Y58420D01*
X186617Y58275D01*
X186653Y58111D01*
X186690Y57929D01*
X186708Y57710D01*
X186726Y57491D01*
Y57473D01*
Y57455D01*
Y57345D01*
X186708Y57163D01*
X186672Y56963D01*
X186617Y56708D01*
X186526Y56453D01*
X186416Y56198D01*
X186252Y55942D01*
X186234Y55924D01*
X186161Y55833D01*
X186052Y55724D01*
X185906Y55596D01*
X185724Y55432D01*
X185505Y55268D01*
X185232Y55104D01*
X184941Y54959D01*
X184959D01*
X185014Y54940D01*
X185086Y54922D01*
X185196Y54904D01*
X185323Y54868D01*
X185469Y54813D01*
X185761Y54685D01*
X185779D01*
X185834Y54649D01*
X185906Y54612D01*
X186016Y54558D01*
X186252Y54394D01*
X186489Y54193D01*
X186508Y54175D01*
X186544Y54139D01*
X186599Y54066D01*
X186672Y53993D01*
X186763Y53884D01*
X186854Y53756D01*
X187018Y53465D01*
X187036Y53446D01*
X187054Y53392D01*
X187091Y53301D01*
X187127Y53191D01*
X187163Y53045D01*
X187200Y52900D01*
X187236Y52718D01*
Y52535D01*
Y52499D01*
Y52408D01*
X187218Y52280D01*
X187200Y52098D01*
X187163Y51898D01*
X187109Y51679D01*
X187036Y51442D01*
X186945Y51205D01*
X186927Y51187D01*
X186890Y51096D01*
X186817Y50987D01*
X186726Y50841D01*
X186599Y50677D01*
X186453Y50495D01*
X186271Y50313D01*
X186070Y50130D01*
X186052Y50112D01*
X185961Y50057D01*
X185852Y49966D01*
X185688Y49875D01*
X185469Y49748D01*
X185232Y49638D01*
X184941Y49511D01*
X184631Y49402D01*
X184613D01*
X184595Y49383D01*
X184540D01*
X184485Y49365D01*
X184303Y49329D01*
X184048Y49274D01*
X183756Y49219D01*
X183410Y49183D01*
X183028Y49165D01*
X182608Y49146D01*
X182226D01*
X182044Y49165D01*
X181861D01*
X181461Y49201D01*
X181370D01*
X181279Y49219D01*
X181151D01*
X181005Y49237D01*
X180841Y49256D01*
X180513Y49292D01*
Y50568D01*
X180531D01*
X180604Y50549D01*
X180695Y50531D01*
X180823Y50513D01*
X180987Y50495D01*
X181169Y50476D01*
X181570Y50422D01*
X181679D01*
X181789Y50404D01*
X182117D01*
X182317Y50385D01*
X183028D01*
X183210Y50404D01*
X183428Y50422D01*
X183647Y50440D01*
X183884Y50476D01*
X184103Y50513D01*
X184121D01*
X184194Y50549D01*
X184303Y50568D01*
X184431Y50622D01*
X184740Y50750D01*
X184886Y50841D01*
X185032Y50932D01*
X185050Y50950D01*
X185086Y50987D01*
X185159Y51041D01*
X185232Y51114D01*
X185414Y51333D01*
X185487Y51442D01*
X185560Y51588D01*
Y51606D01*
X185597Y51661D01*
X185615Y51734D01*
X185651Y51843D01*
X185688Y51970D01*
X185706Y52116D01*
X185742Y52463D01*
Y52481D01*
Y52535D01*
X185724Y52626D01*
Y52718D01*
X185651Y52973D01*
X185615Y53100D01*
X185542Y53228D01*
Y53246D01*
X185505Y53282D01*
X185451Y53337D01*
X185396Y53428D01*
X185214Y53592D01*
X184977Y53774D01*
X184959Y53793D01*
X184923Y53811D01*
X184850Y53847D01*
X184740Y53902D01*
X184613Y53957D01*
X184467Y54011D01*
X184303Y54066D01*
X184121Y54102D01*
X184103D01*
X184030Y54120D01*
X183939Y54139D01*
X183811Y54175D01*
X183647Y54193D01*
X183465Y54212D01*
X183046Y54230D01*
X181825D01*
Y55396D01*
X183246D01*
X183355Y55414D01*
X183501Y55432D01*
X183647Y55450D01*
X183957Y55523D01*
X183975D01*
X184030Y55542D01*
X184103Y55578D01*
X184194Y55615D01*
X184412Y55724D01*
X184631Y55888D01*
X184649Y55906D01*
X184686Y55924D01*
X184740Y55979D01*
X184795Y56052D01*
X184941Y56234D01*
X185068Y56471D01*
Y56489D01*
X185086Y56525D01*
X185123Y56598D01*
X185159Y56708D01*
X185178Y56817D01*
X185214Y56963D01*
X185232Y57273D01*
Y57291D01*
Y57309D01*
Y57418D01*
X185214Y57564D01*
X185159Y57746D01*
X185105Y57965D01*
X185014Y58165D01*
X184886Y58366D01*
X184704Y58530D01*
X184686Y58548D01*
X184613Y58584D01*
X184485Y58657D01*
X184321Y58730D01*
X184103Y58803D01*
X183829Y58876D01*
X183519Y58912D01*
X183155Y58931D01*
X182955D01*
X182809Y58912D01*
X182645D01*
X182445Y58894D01*
X182026Y58821D01*
X182007D01*
X181934Y58803D01*
X181807Y58785D01*
X181661Y58748D01*
X181479Y58694D01*
X181279Y58639D01*
X181042Y58584D01*
X180805Y58512D01*
Y59750D01*
X180823D01*
X180859Y59769D01*
X180914Y59787D01*
X180987Y59805D01*
X181169Y59860D01*
X181388Y59914D01*
X181406D01*
X181442Y59933D01*
X181515D01*
X181588Y59951D01*
X181789Y60006D01*
X182026Y60042D01*
X182044D01*
X182080Y60060D01*
X182135D01*
X182226Y60078D01*
X182426Y60097D01*
X182645Y60133D01*
X182700D01*
X182773Y60151D01*
X182845D01*
X183046Y60170D01*
X183392D01*
X183556Y60151D01*
D02*
G37*
G36*
X166757Y57655D02*
X166848D01*
X166976Y57637D01*
X167267Y57564D01*
X167577Y57473D01*
X167887Y57327D01*
X168196Y57109D01*
X168342Y56981D01*
X168470Y56835D01*
X168506Y56799D01*
X168525Y56744D01*
X168579Y56690D01*
X168616Y56598D01*
X168670Y56489D01*
X168743Y56362D01*
X168798Y56216D01*
X168852Y56052D01*
X168907Y55888D01*
X168962Y55687D01*
X169016Y55469D01*
X169053Y55214D01*
X169071Y54959D01*
X169089Y54685D01*
Y54394D01*
X167650D01*
Y54412D01*
Y54448D01*
Y54503D01*
Y54576D01*
X167632Y54758D01*
X167613Y54977D01*
X167577Y55232D01*
X167522Y55487D01*
X167431Y55742D01*
X167322Y55942D01*
X167304Y55961D01*
X167267Y56015D01*
X167176Y56107D01*
X167067Y56198D01*
X166921Y56270D01*
X166757Y56362D01*
X166557Y56416D01*
X166320Y56434D01*
X166210D01*
X166156Y56416D01*
X165974Y56398D01*
X165755Y56325D01*
X165737D01*
X165700Y56307D01*
X165646Y56289D01*
X165573Y56252D01*
X165372Y56143D01*
X165154Y55997D01*
X165136Y55979D01*
X165099Y55961D01*
X165044Y55906D01*
X164953Y55851D01*
X164753Y55651D01*
X164498Y55414D01*
X164480Y55396D01*
X164443Y55360D01*
X164370Y55287D01*
X164279Y55177D01*
X164170Y55050D01*
X164042Y54922D01*
X163915Y54758D01*
X163769Y54576D01*
Y49292D01*
X162330D01*
Y57528D01*
X163623D01*
X163660Y55997D01*
Y56015D01*
X163696Y56034D01*
X163787Y56143D01*
X163933Y56289D01*
X164115Y56489D01*
X164334Y56690D01*
X164571Y56908D01*
X164826Y57109D01*
X165099Y57273D01*
X165136Y57291D01*
X165227Y57327D01*
X165354Y57400D01*
X165555Y57473D01*
X165755Y57546D01*
X166010Y57619D01*
X166265Y57655D01*
X166539Y57673D01*
X166666D01*
X166757Y57655D01*
D02*
G37*
G36*
X148045Y50167D02*
Y50148D01*
X148027Y50112D01*
X148009Y50057D01*
X147972Y49985D01*
X147881Y49766D01*
X147772Y49511D01*
X147626Y49219D01*
X147480Y48891D01*
X147316Y48563D01*
X147134Y48254D01*
X147116Y48217D01*
X147061Y48126D01*
X146970Y47962D01*
X146843Y47780D01*
X146697Y47561D01*
X146515Y47343D01*
X146333Y47124D01*
X146132Y46905D01*
X146114Y46887D01*
X146041Y46814D01*
X145932Y46723D01*
X145786Y46614D01*
X145604Y46486D01*
X145403Y46359D01*
X145166Y46249D01*
X144930Y46140D01*
X144893Y46122D01*
X144820Y46104D01*
X144675Y46067D01*
X144492Y46013D01*
X144274Y45958D01*
X144037Y45921D01*
X143745Y45903D01*
X143454Y45885D01*
X143199D01*
X143053Y45903D01*
X142834D01*
X142689Y45921D01*
Y47215D01*
X142725D01*
X142798Y47197D01*
X142925D01*
X143071Y47179D01*
X143108D01*
X143217Y47160D01*
X143363Y47142D01*
X143672D01*
X143763Y47160D01*
X144019Y47197D01*
X144274Y47270D01*
X144292D01*
X144328Y47288D01*
X144401Y47324D01*
X144492Y47361D01*
X144693Y47470D01*
X144911Y47634D01*
X144930Y47652D01*
X144966Y47689D01*
X145021Y47743D01*
X145094Y47816D01*
X145185Y47908D01*
X145294Y48035D01*
X145494Y48308D01*
X145513Y48327D01*
X145549Y48381D01*
X145604Y48472D01*
X145677Y48582D01*
X145749Y48727D01*
X145841Y48910D01*
X145950Y49092D01*
X146041Y49292D01*
X142761Y57528D01*
X144383D01*
X146460Y52062D01*
X146879Y50786D01*
X147353Y52098D01*
X149284Y57528D01*
X150851D01*
X148045Y50167D01*
D02*
G37*
%LPC*%
G36*
X139427Y53045D02*
X137423D01*
X137295Y53027D01*
X137004Y53009D01*
X136694Y52936D01*
X136676D01*
X136639Y52918D01*
X136567Y52900D01*
X136476Y52863D01*
X136257Y52754D01*
X136056Y52626D01*
X136038D01*
X136020Y52590D01*
X135929Y52499D01*
X135801Y52335D01*
X135692Y52153D01*
Y52135D01*
X135674Y52098D01*
X135656Y52043D01*
X135637Y51970D01*
X135601Y51770D01*
X135583Y51533D01*
Y51515D01*
Y51497D01*
X135601Y51388D01*
X135619Y51242D01*
X135656Y51078D01*
Y51060D01*
X135674Y51041D01*
X135710Y50950D01*
X135783Y50823D01*
X135892Y50677D01*
X135929Y50659D01*
X136002Y50586D01*
X136147Y50495D01*
X136311Y50422D01*
X136330D01*
X136366Y50404D01*
X136421Y50385D01*
X136494D01*
X136694Y50349D01*
X136949Y50331D01*
X137040D01*
X137131Y50349D01*
X137277Y50367D01*
X137441Y50404D01*
X137642Y50458D01*
X137842Y50531D01*
X138079Y50622D01*
X138115Y50640D01*
X138188Y50677D01*
X138316Y50750D01*
X138480Y50859D01*
X138680Y50987D01*
X138917Y51151D01*
X139172Y51333D01*
X139427Y51570D01*
Y53045D01*
D02*
G37*
G36*
X156281Y56525D02*
X155916D01*
X155807Y56507D01*
X155679Y56489D01*
X155534Y56453D01*
X155224Y56343D01*
X155206D01*
X155169Y56307D01*
X155096Y56270D01*
X155005Y56216D01*
X154787Y56052D01*
X154568Y55833D01*
X154550Y55815D01*
X154532Y55778D01*
X154477Y55706D01*
X154404Y55615D01*
X154331Y55505D01*
X154258Y55360D01*
X154112Y55050D01*
Y55032D01*
X154094Y54977D01*
X154058Y54886D01*
X154021Y54758D01*
X153985Y54612D01*
X153967Y54430D01*
X153912Y54048D01*
X158248D01*
Y54066D01*
Y54139D01*
Y54248D01*
Y54376D01*
X158230Y54521D01*
X158212Y54685D01*
X158121Y55032D01*
Y55050D01*
X158103Y55104D01*
X158066Y55195D01*
X158030Y55305D01*
X157902Y55560D01*
X157720Y55815D01*
X157702Y55833D01*
X157665Y55870D01*
X157611Y55924D01*
X157538Y55997D01*
X157429Y56088D01*
X157319Y56161D01*
X157028Y56325D01*
X157009Y56343D01*
X156955Y56362D01*
X156864Y56398D01*
X156754Y56434D01*
X156627Y56471D01*
X156463Y56489D01*
X156281Y56525D01*
D02*
G37*
%LPD*%
D45*
X21805Y-178741D02*
X48900Y-151646D01*
X21805Y-225105D02*
X29450Y-232750D01*
X20005Y-226566D02*
Y-173795D01*
X39000Y-242400D02*
X51200D01*
X67600Y-226000D01*
X45650Y-238150D02*
X65700Y-218100D01*
X67600Y-226000D02*
Y-139413D01*
X71750Y-135262D01*
X75150Y-138350D02*
Y-132862D01*
X69400Y-144100D02*
X75150Y-138350D01*
X69400Y-226812D02*
Y-144100D01*
Y-226812D02*
X76350Y-233762D01*
X71200Y-145500D02*
X72700Y-144000D01*
X71200Y-224800D02*
Y-145500D01*
Y-224800D02*
X80300Y-233900D01*
X72700Y-144000D02*
X74400D01*
X80300Y-255312D02*
Y-233900D01*
X181700Y-202200D02*
X184100Y-199800D01*
X181700Y-233699D02*
Y-202200D01*
X168100Y-247298D02*
X181700Y-233699D01*
X222550Y-209650D02*
Y-146862D01*
Y-209650D02*
X222600Y-209700D01*
X189084Y-185800D02*
Y-159784D01*
X185362Y-151136D02*
X191550Y-157324D01*
Y-204550D02*
Y-157324D01*
X185850Y-210250D02*
X191550Y-204550D01*
X188100Y-158800D02*
X189084Y-159784D01*
X186800Y-202282D02*
Y-171100D01*
X184050Y-205032D02*
X186800Y-202282D01*
X184100Y-199800D02*
Y-181900D01*
X174100Y-161300D02*
X184100Y-171300D01*
Y-181900D02*
Y-171300D01*
X193350Y-241662D02*
Y-154862D01*
X195150Y-265062D02*
Y-152962D01*
X196950Y-262909D02*
Y-150962D01*
X198805Y-259817D02*
Y-148917D01*
X200605Y-257817D02*
Y-147417D01*
X202405Y-243417D02*
Y-145817D01*
X204205Y-242671D02*
Y-143517D01*
X185850Y-243162D02*
Y-210250D01*
X182135Y-151136D02*
X185362D01*
X51300Y-318500D02*
X56600Y-313200D01*
X104313Y-316600D02*
X105500D01*
X97013Y-323900D02*
X104313Y-316600D01*
X66100Y-313200D02*
X76800Y-323900D01*
X97013D01*
X55643Y-308100D02*
X63281Y-300462D01*
X35911Y-308100D02*
X55643D01*
X25050Y-297240D02*
X35911Y-308100D01*
X56600Y-313200D02*
X66100D01*
X50650Y-302362D02*
X54650Y-298362D01*
X77050D01*
X141450Y-67017D02*
Y-53462D01*
X110500Y-66338D02*
Y-53335D01*
X115700Y-48135D01*
X136335Y-258046D02*
Y-89623D01*
X123135Y-255946D02*
X144550Y-277362D01*
X112950Y-214062D02*
Y-77562D01*
X115366Y-212378D02*
Y-71204D01*
X117650Y-146262D02*
Y-96571D01*
X128650Y-85571D01*
X120450Y-96317D02*
X137250Y-79517D01*
X120450Y-144062D02*
Y-96317D01*
X122250Y-97062D02*
X149550Y-69762D01*
X122250Y-140462D02*
Y-97062D01*
X319148Y-120760D02*
X319535Y-121146D01*
X319148Y-193960D02*
X319535Y-193573D01*
Y-121146D01*
X316550Y-90962D02*
X328850D01*
X306350Y-80762D02*
X316550Y-90962D01*
X292850Y-80762D02*
X306350D01*
X317050Y-88862D02*
X330350D01*
X307050Y-78862D02*
X317050Y-88862D01*
X293496Y-78862D02*
X307050D01*
X120850Y-252662D02*
Y-164362D01*
X125650Y-159562D01*
X34350Y-302362D02*
X50650D01*
X29450Y-297462D02*
X34350Y-302362D01*
X20005Y-226566D02*
X25050Y-231611D01*
X31750Y-279962D02*
Y-219950D01*
Y-279962D02*
X47072Y-295284D01*
X25050Y-297240D02*
Y-231611D01*
X29450Y-297462D02*
Y-232750D01*
X47072Y-295284D02*
X62829D01*
X66550Y-291562D01*
X47235Y-288747D02*
X51057D01*
X52073Y-289762D01*
X63281Y-300462D02*
X78822D01*
X93222Y-286062D01*
X77050Y-298362D02*
X89250Y-286162D01*
X66550Y-291562D02*
X80600D01*
X86005Y-286157D01*
X52073Y-289762D02*
X79200D01*
X82250Y-286712D01*
Y-286162D01*
X80300Y-255312D02*
X89850Y-264862D01*
X94950D01*
X117650Y-146262D02*
X117750Y-146362D01*
X76550Y-257962D02*
X77650Y-256862D01*
X46850Y-257962D02*
X76550D01*
X138350Y-252362D02*
Y-90153D01*
X112950Y-214062D02*
X113750Y-214862D01*
X115366Y-212378D02*
X115750Y-212762D01*
X179550Y-270062D02*
X182450D01*
X218566Y-271346D02*
X232566D01*
X240350Y-263562D01*
Y-231562D01*
X260750Y-211162D01*
X263350D01*
X182850Y-245562D02*
X189450D01*
X164350Y-104391D02*
X169286Y-109327D01*
Y-119398D02*
Y-109327D01*
Y-108927D01*
X117750Y-210662D02*
Y-146362D01*
X171850Y-118662D02*
Y-87493D01*
Y-118662D02*
X174750Y-121562D01*
X136335Y-258046D02*
X156350Y-278062D01*
X149550Y-69762D02*
Y-66862D01*
X145403Y-65609D02*
Y-63009D01*
X110500Y-66338D02*
X115366Y-71204D01*
X330350Y-88862D02*
X333250Y-91762D01*
Y-259250D02*
Y-91762D01*
X327500Y-265000D02*
X333250Y-259250D01*
X322113Y-255000D02*
X327500D01*
X317050Y-260062D02*
X322113Y-255000D01*
X327500D02*
X331450Y-251050D01*
X160850Y-118662D02*
Y-99962D01*
X168450Y-84093D02*
X171850Y-87493D01*
X168450Y-84093D02*
Y-83862D01*
X198598Y-271115D02*
X202850Y-266862D01*
X302366Y-185278D02*
X302450Y-185362D01*
X299494Y-119006D02*
X302366Y-121878D01*
X322050Y-280062D02*
X350450D01*
X309550Y-296962D02*
Y-292562D01*
X322050Y-280062D01*
X332362Y-289862D02*
X337500Y-295000D01*
X325650Y-289862D02*
X332362D01*
X320850Y-285062D02*
X325650Y-289862D01*
X292615Y-296627D02*
X307450Y-311462D01*
X292615Y-296627D02*
Y-292962D01*
X304850Y-281047D02*
X315835Y-270062D01*
X304850Y-288862D02*
Y-281047D01*
X317050Y-265562D02*
Y-260062D01*
X308950Y-273662D02*
X317050Y-265562D01*
X298850Y-283762D02*
X308950Y-273662D01*
X292615Y-292962D02*
Y-285998D01*
X311250Y-267362D01*
X302366Y-185278D02*
Y-121878D01*
X231435Y-265494D02*
Y-257116D01*
X230150Y-266778D02*
X231435Y-265494D01*
X189450Y-245562D02*
X193350Y-241662D01*
X188650Y-150162D02*
X193350Y-154862D01*
X196450Y-269262D02*
X196828D01*
X195150Y-265062D02*
X196450Y-266362D01*
X196950Y-262909D02*
X198450Y-264409D01*
X160850Y-118662D02*
X195150Y-152962D01*
X196828Y-269262D02*
X201050Y-265040D01*
X169286Y-119398D02*
X198805Y-148917D01*
Y-259817D02*
X201050Y-262062D01*
Y-265040D02*
Y-262062D01*
X174750Y-121562D02*
X200605Y-147417D01*
Y-257817D02*
X202850Y-260062D01*
Y-266862D02*
Y-260062D01*
X202405Y-243417D02*
X228050Y-269062D01*
X174350Y-117762D02*
X202405Y-145817D01*
X176350Y-115662D02*
X204205Y-143517D01*
Y-242671D02*
X219596Y-258062D01*
X229150D01*
X227881Y-253562D02*
X231435Y-257116D01*
X137250Y-79517D02*
Y-73762D01*
X145403Y-65609D01*
X128650Y-85571D02*
Y-79817D01*
X141450Y-67017D01*
X239250Y-172562D02*
X245776Y-179088D01*
X177950Y-102262D02*
Y-75662D01*
X173850Y-71562D02*
X177950Y-75662D01*
Y-102262D02*
X222550Y-146862D01*
X178350Y-113562D02*
X212850Y-148062D01*
Y-247762D02*
Y-148062D01*
Y-247762D02*
X218650Y-253562D01*
X227881D01*
X140150Y-251493D02*
Y-90899D01*
Y-251493D02*
X163520Y-274862D01*
X331450Y-251050D02*
Y-93562D01*
X328850Y-90962D02*
X331450Y-93562D01*
X120450Y-144062D02*
X125650Y-149262D01*
Y-159562D02*
Y-149262D01*
X122250Y-140462D02*
X128019Y-146231D01*
X168891Y-243262D02*
X169071Y-243442D01*
X168850Y-243262D02*
X168891D01*
X156350Y-121808D02*
X169250Y-134708D01*
Y-150262D02*
Y-134708D01*
X156350Y-121808D02*
Y-78162D01*
X175800Y-129812D02*
X196950Y-150962D01*
X163520Y-274862D02*
X168150D01*
X171350Y-278062D01*
Y-278162D02*
Y-278062D01*
X138350Y-252362D02*
X164150Y-278162D01*
X168100Y-262212D02*
Y-247298D01*
Y-262212D02*
X172450Y-266562D01*
X123135Y-255946D02*
Y-192465D01*
X128019Y-187581D01*
Y-146231D01*
X131766Y-191166D02*
Y-91646D01*
X134535Y-264046D02*
X140650Y-270162D01*
X131766Y-191166D02*
X134535Y-193935D01*
Y-264046D02*
Y-193935D01*
X178000Y-189300D02*
Y-182100D01*
X167457Y-221300D02*
Y-188443D01*
X169300Y-186600D01*
Y-158362D01*
X169071Y-243442D02*
X179300Y-233213D01*
Y-199600D01*
X180900Y-198000D01*
Y-182100D01*
X179300Y-148300D02*
X182135Y-151136D01*
X179300Y-148300D02*
Y-144713D01*
X181350Y-142662D01*
X158350Y-120050D02*
Y-79562D01*
Y-120050D02*
X174100Y-135800D01*
Y-161300D02*
Y-135800D01*
X216150Y-247162D02*
X241350Y-221962D01*
Y-191262D01*
X227050Y-248562D02*
Y-240650D01*
X245776Y-221924D01*
Y-179088D01*
X182450Y-270062D02*
X187288Y-274900D01*
X215013D01*
X218566Y-271346D01*
X158350Y-79562D02*
X163650Y-74262D01*
X158850Y-64562D02*
Y-61283D01*
X131766Y-91646D02*
X158850Y-64562D01*
X138350Y-90153D02*
X162750Y-65753D01*
X136335Y-89623D02*
X160750Y-65208D01*
X156540Y-58972D02*
X158850Y-61283D01*
X20005Y-173795D02*
X29600Y-164200D01*
X21805Y-225105D02*
Y-178741D01*
X33628Y-230562D02*
Y-188528D01*
Y-275140D02*
X47235Y-288747D01*
X33628Y-275140D02*
Y-233363D01*
X33582Y-233316D02*
X33628Y-233363D01*
X33582Y-233316D02*
Y-230608D01*
X33628Y-230562D01*
X27805Y-216005D02*
X31750Y-219950D01*
X31900Y-186800D02*
X33628Y-188528D01*
X161100Y-50000D02*
X162750Y-51650D01*
Y-65753D02*
Y-51650D01*
X160750Y-65208D02*
Y-56650D01*
X149550Y-66862D02*
X155050Y-61362D01*
X158800Y-54700D02*
X160750Y-56650D01*
X267088Y-55000D02*
X292850Y-80762D01*
X243600Y-55000D02*
X267088D01*
X151845Y-25857D02*
X214457D01*
X243600Y-55000D01*
X267334Y-52700D02*
X293496Y-78862D01*
X245200Y-52700D02*
X267334D01*
X166800Y-64249D02*
Y-54200D01*
X140150Y-90899D02*
X166800Y-64249D01*
X164350Y-104391D02*
Y-83962D01*
X27805Y-216005D02*
Y-175286D01*
X46929Y-156162D01*
X48950D01*
X31900Y-186800D02*
Y-183600D01*
X40300Y-175200D02*
Y-175100D01*
X31900Y-183600D02*
X40300Y-175200D01*
X31900Y-177700D02*
X34300D01*
X50500Y-166000D02*
Y-161400D01*
X34300Y-177700D02*
X40600Y-171400D01*
X45100D01*
X50500Y-166000D01*
X266000Y-180700D02*
X266050Y-180750D01*
Y-229562D02*
Y-180750D01*
X266450Y-154767D02*
Y-119162D01*
X265703Y-155514D02*
X266450Y-154767D01*
X143900Y-244000D02*
X146900Y-241000D01*
X163700D01*
X174400Y-244600D02*
X184050Y-234950D01*
Y-205032D01*
X163700Y-241000D02*
X170400Y-234300D01*
Y-196900D02*
X178000Y-189300D01*
X170400Y-234300D02*
Y-196900D01*
X65700Y-218100D02*
Y-127600D01*
X71038Y-122262D01*
X74550D01*
X48900Y-151646D02*
Y-137400D01*
X115700Y-48135D02*
Y-46500D01*
X138900Y-50912D02*
X141450Y-53462D01*
X138900Y-50912D02*
Y-50600D01*
X102638Y-15200D02*
X133853Y-46416D01*
X99900Y-15200D02*
X102638D01*
X133853Y-46416D02*
X162246D01*
X169084Y-65428D02*
Y-53254D01*
X162246Y-46416D02*
X169084Y-53254D01*
X156350Y-78162D02*
X169084Y-65428D01*
X298950Y-185362D02*
X300566Y-183746D01*
Y-129878D01*
X294550Y-123862D02*
X300566Y-129878D01*
X284850Y-186262D02*
X287300Y-183813D01*
Y-133054D01*
X293671Y-126683D01*
X350450Y-280062D02*
X353700Y-276813D01*
Y-158800D01*
X357500Y-155000D01*
X351400Y-267400D02*
Y-158900D01*
X347500Y-155000D02*
X351400Y-158900D01*
X348738Y-270062D02*
X351400Y-267400D01*
X315835Y-270062D02*
X348738D01*
X243846Y-52700D02*
X245200D01*
X215108Y-23962D02*
X243846Y-52700D01*
X148230Y-22242D02*
X151845Y-25857D01*
X146790Y-19767D02*
X149067D01*
X153262Y-23962D01*
X215108D01*
D48*
X74950Y-224850D02*
X83000Y-232900D01*
Y-250312D02*
Y-232900D01*
Y-250312D02*
X86400Y-253712D01*
X74950Y-224850D02*
Y-188562D01*
X203650Y-319762D02*
X227918Y-344030D01*
Y-344092D02*
Y-344030D01*
Y-344092D02*
X228143Y-344318D01*
X203650Y-319762D02*
Y-317562D01*
X149174Y-288712D02*
X194400D01*
X107505Y-247044D02*
X149174Y-288712D01*
X50750Y-77662D02*
X53335Y-80246D01*
Y-180578D02*
Y-80246D01*
X79350Y-173762D02*
Y-115162D01*
X74950Y-188562D02*
X79350Y-184162D01*
Y-173762D01*
X287050Y-316762D02*
X309050D01*
X314850Y-310962D01*
Y-303662D01*
X318350Y-300162D01*
X360150D01*
X362450Y-297862D01*
Y-79862D01*
X367850Y-74462D01*
X324050Y-60062D02*
X362850D01*
X318850Y-66762D02*
Y-65262D01*
X324050Y-60062D01*
X320850Y-56862D02*
X324050Y-60062D01*
X320850Y-56862D02*
Y-43262D01*
X317950Y-40362D02*
X320850Y-43262D01*
X304750Y-40362D02*
X317950D01*
X78150Y-113962D02*
X79350Y-115162D01*
X65650Y-11762D02*
X73050Y-19162D01*
X206450Y-314762D02*
Y-300762D01*
X203650Y-317562D02*
X206450Y-314762D01*
X194400Y-288712D02*
X206450Y-300762D01*
X35600Y-184700D02*
X49213D01*
X53335Y-180578D01*
X100010Y-19162D02*
X107505Y-26658D01*
X73050Y-19162D02*
X100010D01*
X107505Y-247044D02*
Y-26658D01*
X228143Y-348694D02*
Y-344318D01*
X367850Y-74462D02*
Y-65062D01*
X362850Y-60062D02*
X367850Y-65062D01*
D50*
X91050Y-242162D02*
Y-80762D01*
Y-242162D02*
X149750Y-300862D01*
X71150Y-60862D02*
X91050Y-80762D01*
X71150Y-60862D02*
Y-49162D01*
D51*
X144886Y-208798D02*
Y-174798D01*
Y-208798D02*
X147050Y-210962D01*
D52*
X337650Y-311694D02*
X340274D01*
X338962Y-310382D02*
Y-313006D01*
X344210Y-309726D02*
X341586D01*
Y-311694D01*
X342898Y-311038D01*
X343554D01*
X344210Y-311694D01*
Y-313006D01*
X343554Y-313662D01*
X342242D01*
X341586Y-313006D01*
X345522Y-309726D02*
Y-312350D01*
X346834Y-313662D01*
X348146Y-312350D01*
Y-309726D01*
X349458Y-314318D02*
X352081D01*
X353393Y-309726D02*
Y-313006D01*
X354049Y-313662D01*
X355361D01*
X356017Y-313006D01*
Y-309726D01*
X359953Y-310382D02*
X359297Y-309726D01*
X357985D01*
X357329Y-310382D01*
Y-311038D01*
X357985Y-311694D01*
X359297D01*
X359953Y-312350D01*
Y-313006D01*
X359297Y-313662D01*
X357985D01*
X357329Y-313006D01*
X361265Y-309726D02*
Y-313662D01*
X363233D01*
X363889Y-313006D01*
Y-312350D01*
X363233Y-311694D01*
X361265D01*
X363233D01*
X363889Y-311038D01*
Y-310382D01*
X363233Y-309726D01*
X361265D01*
D55*
X46850Y-257962D02*
D03*
X367550Y-65062D02*
D03*
D59*
X327500Y-265000D02*
D03*
Y-255000D02*
D03*
X337500Y-295000D02*
D03*
X347500Y-155000D02*
D03*
X357500D02*
D03*
D60*
X79560Y-25478D02*
D03*
X62040D02*
D03*
D03*
X79560D02*
D03*
D61*
X87237Y-13175D02*
D03*
X54363D02*
D03*
D03*
X87237D02*
D03*
D66*
X45650Y-238150D02*
D03*
X39000Y-242400D02*
D03*
X49000Y-137400D02*
D03*
X74400Y-144000D02*
D03*
X211700Y-342900D02*
D03*
X167457Y-221300D02*
D03*
X222600Y-209700D02*
D03*
X189100Y-185800D02*
D03*
X188100Y-158800D02*
D03*
X186800Y-171100D02*
D03*
X178000Y-182100D02*
D03*
X180900D02*
D03*
X184100Y-181900D02*
D03*
X169370Y-158362D02*
D03*
X144886Y-174798D02*
D03*
X51300Y-318500D02*
D03*
X105500Y-316600D02*
D03*
X153600Y-343012D02*
D03*
X156159Y-345471D02*
D03*
X146790Y-19767D02*
D03*
X52760Y-50971D02*
D03*
X71150Y-49162D02*
D03*
X49750Y-50962D02*
D03*
X90577Y-25636D02*
D03*
X215050Y-345662D02*
D03*
X144550Y-277362D02*
D03*
X110350Y-93062D02*
D03*
X284850Y-186262D02*
D03*
X48950Y-156162D02*
D03*
X74550Y-122262D02*
D03*
X82250Y-286162D02*
D03*
X86005Y-286157D02*
D03*
X89250Y-286162D02*
D03*
X94950Y-264862D02*
D03*
X93250Y-286062D02*
D03*
X117650Y-146262D02*
D03*
X88250Y-28162D02*
D03*
X266450Y-119162D02*
D03*
X295550Y-94662D02*
D03*
X211150Y-292862D02*
D03*
X185850Y-243162D02*
D03*
X179550Y-270062D02*
D03*
X263350Y-211162D02*
D03*
X112950Y-77562D02*
D03*
X188650Y-150162D02*
D03*
X182850Y-245562D02*
D03*
X181350Y-142662D02*
D03*
X266050Y-229562D02*
D03*
X147050Y-210962D02*
D03*
X173850Y-71562D02*
D03*
X102050Y-285662D02*
D03*
X76350Y-233762D02*
D03*
X174350Y-117762D02*
D03*
X156350Y-278062D02*
D03*
X140650Y-270162D02*
D03*
X145403Y-63009D02*
D03*
X113750Y-214862D02*
D03*
X115750Y-212762D02*
D03*
X117750Y-210662D02*
D03*
X51050Y-286462D02*
D03*
X160850Y-99962D02*
D03*
X175850Y-129762D02*
D03*
X174750Y-121562D02*
D03*
X169286Y-109327D02*
D03*
X168450Y-83862D02*
D03*
X176350Y-115662D02*
D03*
X178350Y-113562D02*
D03*
X302450Y-185362D02*
D03*
X299494Y-119006D02*
D03*
X294550Y-123862D02*
D03*
X298950Y-185362D02*
D03*
X293671Y-126683D02*
D03*
X319148Y-193960D02*
D03*
X320850Y-285062D02*
D03*
X304850Y-288862D02*
D03*
X292615Y-292962D02*
D03*
X307450Y-311462D02*
D03*
X309550Y-296962D02*
D03*
X308950Y-273662D02*
D03*
X298850Y-283762D02*
D03*
X311250Y-267362D02*
D03*
X319150Y-120662D02*
D03*
X203650Y-317562D02*
D03*
X229150Y-258062D02*
D03*
X230150Y-266778D02*
D03*
X228050Y-269062D02*
D03*
X198598Y-271115D02*
D03*
X120850Y-252662D02*
D03*
X196450Y-269262D02*
D03*
Y-266362D02*
D03*
X198450Y-264409D02*
D03*
X227050Y-248562D02*
D03*
X239250Y-172562D02*
D03*
X241350Y-191262D02*
D03*
X216150Y-247162D02*
D03*
X168850Y-243262D02*
D03*
X77650Y-256862D02*
D03*
X169250Y-150362D02*
D03*
X175952Y-278164D02*
D03*
X171350Y-278162D02*
D03*
X164150D02*
D03*
X75150Y-132862D02*
D03*
X71750Y-135262D02*
D03*
X163650Y-74262D02*
D03*
X166000Y-68500D02*
D03*
X156540Y-58972D02*
D03*
X29600Y-164200D02*
D03*
X161100Y-50000D02*
D03*
X155050Y-61362D02*
D03*
X158800Y-54700D02*
D03*
X245200Y-52700D02*
D03*
X258800Y-55000D02*
D03*
X166800Y-54200D02*
D03*
X164350Y-83962D02*
D03*
X50500Y-161400D02*
D03*
X31900Y-177700D02*
D03*
X40300Y-175100D02*
D03*
X266000Y-180700D02*
D03*
X265703Y-155514D02*
D03*
X143900Y-244000D02*
D03*
X174400Y-244600D02*
D03*
X172450Y-266662D02*
D03*
X99900Y-15200D02*
D03*
X115700Y-46500D02*
D03*
X138900Y-50600D02*
D03*
X148230Y-22242D02*
D03*
D67*
X227918Y-348694D02*
D03*
X86400Y-253712D02*
D03*
X50750Y-77662D02*
D03*
X79350Y-173762D02*
D03*
X65650Y-11762D02*
D03*
X226250Y-277362D02*
D03*
X304750Y-40362D02*
D03*
X318850Y-66762D02*
D03*
X287050Y-316762D02*
D03*
X78150Y-113962D02*
D03*
X276200Y-240413D02*
D03*
X35600Y-184700D02*
D03*
D87*
X211700Y-342900D02*
Y-341752D01*
X200651Y-328650D02*
X215050Y-343050D01*
Y-345662D02*
Y-343050D01*
X200651Y-328650D02*
Y-299782D01*
X153600Y-343012D02*
Y-334300D01*
X137162Y-317862D02*
X153600Y-334300D01*
X113550Y-317862D02*
X137162D01*
X110250Y-314562D02*
X113550Y-317862D01*
X110250Y-314562D02*
Y-267662D01*
X87450Y-244862D02*
X110250Y-267662D01*
X87450Y-244862D02*
Y-90982D01*
X83134Y-86666D02*
X87450Y-90982D01*
X54350Y-57882D02*
X79934Y-83466D01*
X82161Y-85693D02*
X83134Y-86666D01*
X82161Y-85693D02*
X85801Y-82054D01*
X84316Y-80569D02*
X85801Y-82054D01*
X80677Y-84208D02*
X84316Y-80569D01*
X79934Y-83466D02*
X80677Y-84208D01*
X54350Y-57882D02*
Y-52562D01*
X52760Y-50971D02*
X54350Y-52562D01*
X136582Y-319262D02*
X151300Y-333980D01*
Y-344300D02*
Y-333980D01*
Y-344300D02*
X152471Y-345471D01*
X156159D01*
X86050Y-245442D02*
Y-91562D01*
Y-245442D02*
X86260Y-245652D01*
Y-245652D02*
Y-245652D01*
Y-245652D02*
X108851Y-268242D01*
X89687Y-28162D02*
X104005Y-42480D01*
X52760Y-50971D02*
Y-50971D01*
X49750Y-55262D02*
Y-50962D01*
Y-55262D02*
X86050Y-91562D01*
X112971Y-319262D02*
X136582D01*
X109260Y-315552D02*
X112971Y-319262D01*
X109260Y-315552D02*
Y-315552D01*
X108851Y-315142D02*
X109260Y-315552D01*
X108851Y-315142D02*
Y-268242D01*
X192030Y-291162D02*
X200651Y-299782D01*
X148151Y-291162D02*
X192030D01*
X105405Y-248417D02*
X148151Y-291162D01*
X104051Y-249042D02*
Y-249042D01*
X104005Y-248997D02*
X104051Y-249042D01*
X88250Y-28162D02*
X89687D01*
X90577Y-27072D02*
Y-25636D01*
Y-27072D02*
X105405Y-41900D01*
X144350Y-280462D02*
X198750D01*
X110350Y-246462D02*
X144350Y-280462D01*
X110350Y-246462D02*
Y-93062D01*
X270150Y-123462D02*
X295550Y-98062D01*
Y-94662D01*
X270150Y-231362D02*
Y-123462D01*
X211150Y-292862D02*
X211350Y-293062D01*
X224550Y-273162D02*
X233750D01*
X251450Y-255462D01*
Y-250062D01*
X270150Y-231362D01*
X219549Y-278164D02*
X224550Y-273162D01*
X198750Y-280462D02*
X211150Y-292862D01*
X175952Y-278164D02*
X219549D01*
X105405Y-248417D02*
Y-41900D01*
X104005Y-248997D02*
Y-42480D01*
X104051Y-249042D02*
X147571Y-292562D01*
X171200D02*
X172250D01*
X174350D01*
Y-296725D02*
Y-292562D01*
Y-296725D02*
X176450D01*
Y-292562D01*
X177200D01*
X147571D02*
X171200D01*
X177200D02*
X191451D01*
X199250Y-300362D01*
Y-329303D02*
Y-300362D01*
Y-329303D02*
X211700Y-341752D01*
D88*
X51050Y-286462D02*
X56750Y-280762D01*
X97150D01*
X102050Y-285662D01*
D89*
X226250Y-277362D02*
X236538D01*
X273487Y-240413D01*
X276200D01*
M02*
