G04 Layer_Color=65535*
%FSLAX25Y25*%
%MOIN*%
G70*
G01*
G75*
%ADD45C,0.01000*%
%ADD46C,0.01500*%
%ADD48C,0.02000*%
%ADD52C,0.00787*%
%ADD87C,0.00600*%
%ADD116C,0.00984*%
%ADD117C,0.02362*%
%ADD118C,0.00500*%
G36*
X237857Y57865D02*
X238057Y57846D01*
X238294Y57810D01*
X238549Y57774D01*
X238804Y57701D01*
X239059Y57609D01*
X239096Y57591D01*
X239169Y57555D01*
X239296Y57500D01*
X239460Y57409D01*
X239624Y57300D01*
X239825Y57172D01*
X240007Y57008D01*
X240189Y56826D01*
X240207Y56808D01*
X240262Y56735D01*
X240353Y56626D01*
X240444Y56498D01*
X240553Y56316D01*
X240681Y56116D01*
X240790Y55879D01*
X240881Y55624D01*
X240899Y55587D01*
X240918Y55496D01*
X240954Y55350D01*
X241009Y55168D01*
X241045Y54931D01*
X241082Y54676D01*
X241100Y54385D01*
X241118Y54057D01*
Y54038D01*
Y54002D01*
Y53947D01*
Y53874D01*
Y53711D01*
X241100Y53528D01*
Y53492D01*
Y53401D01*
Y53291D01*
X241082Y53164D01*
X235306D01*
Y53146D01*
Y53109D01*
Y53036D01*
X235324Y52963D01*
Y52854D01*
X235342Y52727D01*
X235397Y52435D01*
X235470Y52125D01*
X235597Y51797D01*
X235761Y51488D01*
X235998Y51214D01*
X236035Y51178D01*
X236126Y51105D01*
X236290Y50996D01*
X236527Y50886D01*
X236818Y50759D01*
X237164Y50649D01*
X237565Y50577D01*
X238039Y50540D01*
X238494D01*
X238750Y50558D01*
X238804D01*
X238877Y50577D01*
X238968D01*
X239205Y50613D01*
X239442Y50631D01*
X239460D01*
X239496Y50649D01*
X239569D01*
X239661Y50668D01*
X239861Y50704D01*
X240098Y50741D01*
X240116D01*
X240153Y50759D01*
X240207Y50777D01*
X240280Y50795D01*
X240480Y50832D01*
X240681Y50886D01*
Y49720D01*
X240663D01*
X240571Y49702D01*
X240462Y49666D01*
X240298Y49629D01*
X240098Y49593D01*
X239879Y49538D01*
X239624Y49502D01*
X239351Y49465D01*
X239314D01*
X239223Y49447D01*
X239077Y49429D01*
X238895Y49411D01*
X238658Y49392D01*
X238403Y49374D01*
X238130Y49356D01*
X237656D01*
X237456Y49374D01*
X237219Y49392D01*
X236928Y49429D01*
X236618Y49465D01*
X236308Y49538D01*
X236017Y49629D01*
X235980Y49647D01*
X235889Y49684D01*
X235743Y49757D01*
X235579Y49848D01*
X235379Y49957D01*
X235160Y50103D01*
X234960Y50267D01*
X234759Y50467D01*
X234741Y50485D01*
X234686Y50558D01*
X234595Y50686D01*
X234486Y50832D01*
X234359Y51032D01*
X234249Y51251D01*
X234122Y51524D01*
X234031Y51797D01*
Y51816D01*
Y51834D01*
X233994Y51943D01*
X233958Y52107D01*
X233921Y52326D01*
X233885Y52599D01*
X233848Y52891D01*
X233830Y53237D01*
X233812Y53601D01*
Y53619D01*
Y53638D01*
Y53747D01*
X233830Y53911D01*
X233848Y54129D01*
X233867Y54366D01*
X233921Y54640D01*
X233976Y54931D01*
X234049Y55223D01*
Y55241D01*
X234067Y55259D01*
X234103Y55350D01*
X234158Y55496D01*
X234231Y55696D01*
X234340Y55897D01*
X234468Y56134D01*
X234614Y56371D01*
X234778Y56589D01*
X234796Y56607D01*
X234869Y56680D01*
X234978Y56790D01*
X235105Y56935D01*
X235288Y57081D01*
X235488Y57245D01*
X235707Y57391D01*
X235962Y57537D01*
X235998Y57555D01*
X236089Y57591D01*
X236235Y57646D01*
X236417Y57719D01*
X236654Y57774D01*
X236928Y57828D01*
X237219Y57865D01*
X237547Y57883D01*
X237693D01*
X237857Y57865D01*
D02*
G37*
G36*
X228619D02*
X228820Y57846D01*
X229057Y57810D01*
X229312Y57774D01*
X229567Y57701D01*
X229822Y57609D01*
X229858Y57591D01*
X229931Y57555D01*
X230059Y57500D01*
X230223Y57409D01*
X230386Y57300D01*
X230587Y57172D01*
X230769Y57008D01*
X230951Y56826D01*
X230970Y56808D01*
X231024Y56735D01*
X231115Y56626D01*
X231206Y56498D01*
X231316Y56316D01*
X231443Y56116D01*
X231553Y55879D01*
X231644Y55624D01*
X231662Y55587D01*
X231680Y55496D01*
X231717Y55350D01*
X231771Y55168D01*
X231808Y54931D01*
X231844Y54676D01*
X231862Y54385D01*
X231881Y54057D01*
Y54038D01*
Y54002D01*
Y53947D01*
Y53874D01*
Y53711D01*
X231862Y53528D01*
Y53492D01*
Y53401D01*
Y53291D01*
X231844Y53164D01*
X226068D01*
Y53146D01*
Y53109D01*
Y53036D01*
X226087Y52963D01*
Y52854D01*
X226105Y52727D01*
X226160Y52435D01*
X226232Y52125D01*
X226360Y51797D01*
X226524Y51488D01*
X226761Y51214D01*
X226797Y51178D01*
X226888Y51105D01*
X227052Y50996D01*
X227289Y50886D01*
X227581Y50759D01*
X227927Y50649D01*
X228328Y50577D01*
X228801Y50540D01*
X229257D01*
X229512Y50558D01*
X229567D01*
X229640Y50577D01*
X229731D01*
X229967Y50613D01*
X230204Y50631D01*
X230223D01*
X230259Y50649D01*
X230332D01*
X230423Y50668D01*
X230623Y50704D01*
X230860Y50741D01*
X230878D01*
X230915Y50759D01*
X230970Y50777D01*
X231043Y50795D01*
X231243Y50832D01*
X231443Y50886D01*
Y49720D01*
X231425D01*
X231334Y49702D01*
X231225Y49666D01*
X231061Y49629D01*
X230860Y49593D01*
X230642Y49538D01*
X230386Y49502D01*
X230113Y49465D01*
X230077D01*
X229986Y49447D01*
X229840Y49429D01*
X229658Y49411D01*
X229421Y49392D01*
X229166Y49374D01*
X228892Y49356D01*
X228419D01*
X228218Y49374D01*
X227981Y49392D01*
X227690Y49429D01*
X227380Y49465D01*
X227070Y49538D01*
X226779Y49629D01*
X226743Y49647D01*
X226651Y49684D01*
X226506Y49757D01*
X226342Y49848D01*
X226141Y49957D01*
X225923Y50103D01*
X225722Y50267D01*
X225522Y50467D01*
X225504Y50485D01*
X225449Y50558D01*
X225358Y50686D01*
X225249Y50832D01*
X225121Y51032D01*
X225012Y51251D01*
X224884Y51524D01*
X224793Y51797D01*
Y51816D01*
Y51834D01*
X224757Y51943D01*
X224720Y52107D01*
X224684Y52326D01*
X224647Y52599D01*
X224611Y52891D01*
X224593Y53237D01*
X224574Y53601D01*
Y53619D01*
Y53638D01*
Y53747D01*
X224593Y53911D01*
X224611Y54129D01*
X224629Y54366D01*
X224684Y54640D01*
X224738Y54931D01*
X224811Y55223D01*
Y55241D01*
X224829Y55259D01*
X224866Y55350D01*
X224921Y55496D01*
X224993Y55696D01*
X225103Y55897D01*
X225230Y56134D01*
X225376Y56371D01*
X225540Y56589D01*
X225558Y56607D01*
X225631Y56680D01*
X225740Y56790D01*
X225868Y56935D01*
X226050Y57081D01*
X226251Y57245D01*
X226469Y57391D01*
X226724Y57537D01*
X226761Y57555D01*
X226852Y57591D01*
X226998Y57646D01*
X227180Y57719D01*
X227417Y57774D01*
X227690Y57828D01*
X227981Y57865D01*
X228309Y57883D01*
X228455D01*
X228619Y57865D01*
D02*
G37*
G36*
X136244D02*
X136444Y57846D01*
X136699Y57810D01*
X136954Y57755D01*
X137228Y57682D01*
X137501Y57591D01*
X137537Y57573D01*
X137628Y57537D01*
X137756Y57482D01*
X137920Y57391D01*
X138102Y57282D01*
X138303Y57136D01*
X138503Y56972D01*
X138685Y56790D01*
X138704Y56771D01*
X138758Y56699D01*
X138849Y56589D01*
X138959Y56425D01*
X139086Y56243D01*
X139214Y56006D01*
X139323Y55751D01*
X139432Y55478D01*
X139451Y55441D01*
X139469Y55332D01*
X139523Y55168D01*
X139578Y54968D01*
X139614Y54694D01*
X139669Y54385D01*
X139687Y54038D01*
X139706Y53674D01*
Y53656D01*
Y53638D01*
Y53583D01*
Y53510D01*
X139687Y53328D01*
X139669Y53091D01*
X139633Y52818D01*
X139596Y52526D01*
X139523Y52216D01*
X139432Y51907D01*
X139414Y51870D01*
X139378Y51779D01*
X139323Y51633D01*
X139232Y51451D01*
X139123Y51232D01*
X138995Y50996D01*
X138831Y50759D01*
X138649Y50540D01*
X138631Y50522D01*
X138558Y50449D01*
X138448Y50340D01*
X138303Y50212D01*
X138120Y50085D01*
X137920Y49939D01*
X137665Y49793D01*
X137410Y49666D01*
X137373Y49647D01*
X137282Y49611D01*
X137137Y49575D01*
X136936Y49520D01*
X136681Y49447D01*
X136408Y49411D01*
X136098Y49374D01*
X135752Y49356D01*
X135606D01*
X135424Y49374D01*
X135223Y49392D01*
X134968Y49429D01*
X134695Y49465D01*
X134422Y49538D01*
X134149Y49629D01*
X134112Y49647D01*
X134039Y49684D01*
X133912Y49738D01*
X133748Y49830D01*
X133547Y49939D01*
X133365Y50085D01*
X133165Y50249D01*
X132964Y50431D01*
X132946Y50449D01*
X132891Y50522D01*
X132800Y50631D01*
X132691Y50795D01*
X132582Y50977D01*
X132454Y51214D01*
X132345Y51469D01*
X132235Y51743D01*
Y51761D01*
X132217Y51779D01*
X132199Y51889D01*
X132162Y52052D01*
X132108Y52271D01*
X132053Y52544D01*
X132017Y52854D01*
X131999Y53200D01*
X131980Y53565D01*
Y53583D01*
Y53601D01*
Y53656D01*
Y53729D01*
X131999Y53911D01*
X132017Y54129D01*
X132035Y54403D01*
X132090Y54694D01*
X132144Y55004D01*
X132235Y55296D01*
Y55314D01*
X132254Y55332D01*
X132290Y55423D01*
X132345Y55587D01*
X132436Y55769D01*
X132545Y55988D01*
X132691Y56207D01*
X132837Y56444D01*
X133019Y56662D01*
X133037Y56680D01*
X133110Y56753D01*
X133219Y56862D01*
X133365Y56990D01*
X133547Y57136D01*
X133766Y57282D01*
X134003Y57427D01*
X134258Y57555D01*
X134294Y57573D01*
X134385Y57609D01*
X134531Y57664D01*
X134731Y57719D01*
X134987Y57774D01*
X135260Y57828D01*
X135570Y57865D01*
X135916Y57883D01*
X136062D01*
X136244Y57865D01*
D02*
G37*
G36*
X130523Y58976D02*
X127352D01*
Y49502D01*
X125877D01*
Y58976D01*
X122706D01*
Y60215D01*
X130523D01*
Y58976D01*
D02*
G37*
G36*
X173722Y50686D02*
X176182D01*
Y49502D01*
X169586D01*
Y50686D01*
X172283D01*
Y56553D01*
X169860D01*
Y57737D01*
X173722D01*
Y50686D01*
D02*
G37*
G36*
X182960D02*
X185420D01*
Y49502D01*
X178824D01*
Y50686D01*
X181520D01*
Y59923D01*
X179097D01*
Y61090D01*
X182960D01*
Y50686D01*
D02*
G37*
G36*
X189574Y53966D02*
X193272Y57737D01*
X195167D01*
X191305Y53929D01*
X195386Y49502D01*
X193418D01*
X189574Y53911D01*
Y49502D01*
X188153D01*
Y61090D01*
X189574D01*
Y53966D01*
D02*
G37*
G36*
X247641Y57865D02*
X247732D01*
X247860Y57846D01*
X248151Y57792D01*
X248461Y57701D01*
X248770Y57555D01*
X249080Y57373D01*
X249354Y57118D01*
X249390Y57081D01*
X249463Y56972D01*
X249554Y56808D01*
X249681Y56553D01*
X249809Y56243D01*
X249900Y55842D01*
X249973Y55387D01*
X250009Y54858D01*
Y49502D01*
X248588D01*
Y54749D01*
Y54767D01*
Y54785D01*
Y54840D01*
Y54913D01*
X248570Y55077D01*
X248552Y55296D01*
X248497Y55514D01*
X248443Y55751D01*
X248352Y55988D01*
X248224Y56170D01*
X248206Y56188D01*
X248151Y56243D01*
X248078Y56316D01*
X247951Y56407D01*
X247805Y56498D01*
X247623Y56571D01*
X247404Y56626D01*
X247149Y56644D01*
X247058D01*
X246985Y56626D01*
X246803Y56607D01*
X246621Y56553D01*
X246602D01*
X246584Y56535D01*
X246475Y56498D01*
X246311Y56407D01*
X246110Y56279D01*
X246092D01*
X246056Y56243D01*
X246001Y56207D01*
X245928Y56152D01*
X245746Y55988D01*
X245509Y55769D01*
X245491Y55751D01*
X245455Y55715D01*
X245400Y55642D01*
X245309Y55551D01*
X245199Y55423D01*
X245090Y55277D01*
X244963Y55132D01*
X244817Y54949D01*
Y49502D01*
X243396D01*
Y57737D01*
X244653D01*
X244707Y56407D01*
X244726Y56425D01*
X244762Y56480D01*
X244835Y56553D01*
X244926Y56644D01*
X245163Y56881D01*
X245400Y57099D01*
X245418Y57118D01*
X245455Y57154D01*
X245527Y57209D01*
X245619Y57263D01*
X245819Y57409D01*
X246056Y57555D01*
X246074D01*
X246110Y57591D01*
X246183Y57609D01*
X246256Y57664D01*
X246475Y57737D01*
X246712Y57810D01*
X246730D01*
X246766Y57828D01*
X246839D01*
X246930Y57846D01*
X247167Y57865D01*
X247422Y57883D01*
X247550D01*
X247641Y57865D01*
D02*
G37*
G36*
X164339Y60361D02*
X164558Y60343D01*
X164667D01*
X164758Y60324D01*
X164959Y60306D01*
X165195Y60270D01*
X165250D01*
X165323Y60251D01*
X165396D01*
X165596Y60215D01*
X165833Y60179D01*
X165888D01*
X165961Y60160D01*
X166033Y60142D01*
X166234Y60106D01*
X166434Y60069D01*
Y58757D01*
X166398D01*
X166325Y58794D01*
X166198Y58812D01*
X166033Y58849D01*
X165851Y58885D01*
X165633Y58940D01*
X165159Y59013D01*
X165141D01*
X165050Y59031D01*
X164940Y59049D01*
X164776Y59067D01*
X164594Y59085D01*
X164375Y59104D01*
X163938Y59122D01*
X163738D01*
X163519Y59104D01*
X163246Y59067D01*
X162936Y59013D01*
X162626Y58940D01*
X162353Y58830D01*
X162098Y58684D01*
X162080Y58666D01*
X162007Y58612D01*
X161916Y58521D01*
X161806Y58393D01*
X161697Y58229D01*
X161606Y58029D01*
X161533Y57810D01*
X161515Y57555D01*
Y57537D01*
Y57482D01*
X161533Y57409D01*
X161551Y57300D01*
X161624Y57063D01*
X161679Y56935D01*
X161752Y56808D01*
X161770Y56790D01*
X161788Y56753D01*
X161843Y56699D01*
X161916Y56626D01*
X162116Y56444D01*
X162371Y56243D01*
X162390Y56225D01*
X162444Y56207D01*
X162517Y56152D01*
X162645Y56097D01*
X162772Y56024D01*
X162918Y55951D01*
X163282Y55806D01*
X163301D01*
X163373Y55769D01*
X163464Y55733D01*
X163610Y55678D01*
X163756Y55624D01*
X163920Y55551D01*
X164303Y55387D01*
X164321D01*
X164394Y55350D01*
X164503Y55314D01*
X164631Y55259D01*
X164795Y55186D01*
X164959Y55113D01*
X165341Y54931D01*
X165359Y54913D01*
X165432Y54895D01*
X165523Y54840D01*
X165651Y54767D01*
X165942Y54567D01*
X166234Y54330D01*
X166252Y54312D01*
X166307Y54275D01*
X166380Y54202D01*
X166471Y54093D01*
X166562Y53984D01*
X166671Y53838D01*
X166872Y53510D01*
X166890Y53492D01*
X166908Y53419D01*
X166945Y53328D01*
X166999Y53200D01*
X167054Y53036D01*
X167090Y52836D01*
X167109Y52636D01*
X167127Y52399D01*
Y52362D01*
Y52271D01*
X167109Y52125D01*
X167090Y51943D01*
X167054Y51743D01*
X166981Y51506D01*
X166908Y51269D01*
X166799Y51050D01*
X166780Y51032D01*
X166744Y50959D01*
X166671Y50850D01*
X166580Y50722D01*
X166453Y50577D01*
X166307Y50413D01*
X166125Y50249D01*
X165924Y50103D01*
X165906Y50085D01*
X165833Y50048D01*
X165706Y49975D01*
X165560Y49884D01*
X165359Y49793D01*
X165141Y49702D01*
X164886Y49611D01*
X164594Y49538D01*
X164558D01*
X164467Y49502D01*
X164303Y49483D01*
X164084Y49447D01*
X163829Y49411D01*
X163537Y49392D01*
X163209Y49356D01*
X162608D01*
X162462Y49374D01*
X162335D01*
X162007Y49392D01*
X161934D01*
X161861Y49411D01*
X161752D01*
X161497Y49447D01*
X161205Y49483D01*
X161132D01*
X161059Y49502D01*
X160968D01*
X160731Y49538D01*
X160476Y49575D01*
X160458D01*
X160422Y49593D01*
X160349Y49611D01*
X160276Y49629D01*
X160076Y49684D01*
X159857Y49738D01*
Y51141D01*
X159893Y51123D01*
X159966Y51105D01*
X160094Y51069D01*
X160258Y51014D01*
X160458Y50941D01*
X160695Y50886D01*
X160950Y50832D01*
X161223Y50777D01*
X161260D01*
X161351Y50759D01*
X161515Y50741D01*
X161734Y50722D01*
X161989Y50686D01*
X162280Y50668D01*
X162608Y50649D01*
X163228D01*
X163392Y50668D01*
X163574D01*
X163774Y50704D01*
X163975Y50722D01*
X164175Y50759D01*
X164193D01*
X164266Y50777D01*
X164339Y50814D01*
X164467Y50832D01*
X164722Y50941D01*
X164977Y51069D01*
X164995Y51087D01*
X165031Y51105D01*
X165086Y51160D01*
X165159Y51214D01*
X165323Y51378D01*
X165451Y51597D01*
Y51615D01*
X165469Y51652D01*
X165505Y51724D01*
X165523Y51816D01*
X165560Y51925D01*
X165578Y52052D01*
X165596Y52326D01*
Y52344D01*
Y52399D01*
X165578Y52472D01*
X165560Y52581D01*
X165487Y52818D01*
X165432Y52927D01*
X165341Y53054D01*
X165323Y53073D01*
X165305Y53109D01*
X165250Y53164D01*
X165177Y53237D01*
X165086Y53328D01*
X164977Y53419D01*
X164703Y53601D01*
X164685Y53619D01*
X164631Y53638D01*
X164558Y53692D01*
X164448Y53747D01*
X164321Y53820D01*
X164175Y53893D01*
X163811Y54057D01*
X163792Y54075D01*
X163720Y54093D01*
X163628Y54129D01*
X163483Y54184D01*
X163337Y54239D01*
X163155Y54312D01*
X162772Y54457D01*
X162754Y54476D01*
X162681Y54494D01*
X162590Y54549D01*
X162462Y54603D01*
X162298Y54676D01*
X162134Y54749D01*
X161752Y54931D01*
X161734Y54949D01*
X161661Y54986D01*
X161570Y55022D01*
X161442Y55095D01*
X161314Y55186D01*
X161151Y55277D01*
X160841Y55514D01*
X160823Y55532D01*
X160786Y55569D01*
X160713Y55642D01*
X160622Y55751D01*
X160531Y55860D01*
X160422Y56006D01*
X160221Y56316D01*
X160203Y56334D01*
X160185Y56407D01*
X160148Y56498D01*
X160112Y56626D01*
X160057Y56790D01*
X160021Y56972D01*
X160003Y57191D01*
X159985Y57409D01*
Y57427D01*
Y57500D01*
X160003Y57609D01*
X160021Y57755D01*
X160039Y57919D01*
X160076Y58101D01*
X160130Y58302D01*
X160203Y58502D01*
X160221Y58521D01*
X160240Y58593D01*
X160312Y58684D01*
X160385Y58812D01*
X160476Y58958D01*
X160604Y59122D01*
X160750Y59286D01*
X160914Y59450D01*
X160932Y59468D01*
X161005Y59523D01*
X161114Y59596D01*
X161260Y59687D01*
X161424Y59796D01*
X161643Y59905D01*
X161879Y60015D01*
X162153Y60124D01*
X162189Y60142D01*
X162298Y60160D01*
X162444Y60197D01*
X162663Y60251D01*
X162936Y60306D01*
X163246Y60343D01*
X163592Y60361D01*
X163975Y60379D01*
X164157D01*
X164339Y60361D01*
D02*
G37*
G36*
X172921Y61162D02*
X173066Y61144D01*
X173212Y61090D01*
X173230D01*
X173249Y61071D01*
X173340Y61017D01*
X173449Y60944D01*
X173558Y60834D01*
X173595Y60816D01*
X173650Y60743D01*
X173741Y60634D01*
X173813Y60488D01*
X173832Y60452D01*
X173868Y60361D01*
X173886Y60215D01*
X173905Y60051D01*
Y60033D01*
Y60015D01*
X173886Y59905D01*
X173868Y59759D01*
X173813Y59614D01*
X173795Y59577D01*
X173741Y59486D01*
X173668Y59377D01*
X173558Y59249D01*
X173540Y59231D01*
X173467Y59158D01*
X173358Y59085D01*
X173212Y59013D01*
X173176Y58994D01*
X173085Y58976D01*
X172939Y58958D01*
X172775Y58940D01*
X172739D01*
X172629Y58958D01*
X172483Y58976D01*
X172338Y59013D01*
X172301Y59031D01*
X172210Y59085D01*
X172101Y59158D01*
X171973Y59249D01*
X171955Y59286D01*
X171882Y59359D01*
X171809Y59468D01*
X171736Y59614D01*
Y59632D01*
X171718Y59650D01*
X171700Y59741D01*
X171682Y59887D01*
X171663Y60051D01*
Y60069D01*
Y60088D01*
X171682Y60197D01*
X171700Y60343D01*
X171736Y60488D01*
Y60506D01*
X171755Y60525D01*
X171809Y60616D01*
X171882Y60725D01*
X171973Y60834D01*
X172010Y60871D01*
X172082Y60926D01*
X172192Y61017D01*
X172338Y61090D01*
X172356D01*
X172374Y61108D01*
X172465Y61144D01*
X172611Y61162D01*
X172775Y61181D01*
X172811D01*
X172921Y61162D01*
D02*
G37*
G36*
X201344Y57865D02*
X201526D01*
X201945Y57828D01*
X201963D01*
X202054Y57810D01*
X202164D01*
X202328Y57792D01*
X202510Y57755D01*
X202710Y57737D01*
X202947Y57682D01*
X203184Y57646D01*
Y56371D01*
X203148D01*
X203075Y56407D01*
X202947Y56425D01*
X202765Y56462D01*
X202583Y56498D01*
X202364Y56535D01*
X201909Y56607D01*
X201890D01*
X201799Y56626D01*
X201690Y56644D01*
X201544Y56662D01*
X201380D01*
X201216Y56680D01*
X200852Y56699D01*
X200670D01*
X200542Y56680D01*
X200251Y56662D01*
X199959Y56607D01*
X199941D01*
X199905Y56589D01*
X199832Y56571D01*
X199741Y56553D01*
X199558Y56462D01*
X199358Y56371D01*
X199321Y56352D01*
X199230Y56279D01*
X199139Y56170D01*
X199048Y56043D01*
X199030Y56006D01*
X199012Y55915D01*
X198975Y55787D01*
X198957Y55624D01*
Y55605D01*
Y55587D01*
X198975Y55496D01*
X198994Y55369D01*
X199030Y55223D01*
X199048Y55186D01*
X199103Y55113D01*
X199212Y55004D01*
X199358Y54877D01*
X199376D01*
X199394Y54840D01*
X199449Y54822D01*
X199522Y54767D01*
X199631Y54713D01*
X199741Y54658D01*
X199868Y54603D01*
X200014Y54530D01*
X200032D01*
X200087Y54494D01*
X200178Y54476D01*
X200305Y54421D01*
X200469Y54366D01*
X200652Y54312D01*
X200852Y54257D01*
X201089Y54184D01*
X201125Y54166D01*
X201216Y54148D01*
X201344Y54111D01*
X201526Y54038D01*
X201727Y53984D01*
X201927Y53893D01*
X202127Y53820D01*
X202328Y53729D01*
X202346Y53711D01*
X202419Y53692D01*
X202492Y53638D01*
X202619Y53583D01*
X202874Y53401D01*
X203129Y53200D01*
X203148Y53182D01*
X203184Y53146D01*
X203239Y53091D01*
X203312Y53018D01*
X203457Y52818D01*
X203530Y52690D01*
X203585Y52563D01*
Y52544D01*
X203603Y52508D01*
X203640Y52417D01*
X203658Y52326D01*
X203694Y52198D01*
X203713Y52071D01*
X203731Y51743D01*
Y51724D01*
Y51670D01*
Y51579D01*
X203713Y51488D01*
X203658Y51232D01*
X203567Y50959D01*
Y50941D01*
X203549Y50905D01*
X203512Y50832D01*
X203457Y50759D01*
X203330Y50558D01*
X203166Y50340D01*
X203148Y50322D01*
X203129Y50303D01*
X203075Y50249D01*
X203002Y50194D01*
X202801Y50048D01*
X202565Y49884D01*
X202546D01*
X202510Y49848D01*
X202437Y49830D01*
X202346Y49775D01*
X202127Y49684D01*
X201854Y49593D01*
X201836D01*
X201799Y49575D01*
X201708Y49556D01*
X201617Y49538D01*
X201508Y49502D01*
X201362Y49483D01*
X201071Y49429D01*
X201052D01*
X200998Y49411D01*
X200925D01*
X200816Y49392D01*
X200579Y49374D01*
X200287Y49356D01*
X199977D01*
X199777Y49374D01*
X199540D01*
X199285Y49392D01*
X198738Y49429D01*
X198702D01*
X198629Y49447D01*
X198483Y49465D01*
X198319Y49483D01*
X198101Y49520D01*
X197882Y49556D01*
X197390Y49666D01*
Y50977D01*
X197427D01*
X197518Y50941D01*
X197645Y50905D01*
X197827Y50850D01*
X198046Y50795D01*
X198283Y50741D01*
X198811Y50649D01*
X198848D01*
X198939Y50631D01*
X199066Y50613D01*
X199249D01*
X199467Y50595D01*
X199704Y50577D01*
X200232Y50558D01*
X200396D01*
X200579Y50577D01*
X200797Y50595D01*
X201052Y50631D01*
X201307Y50668D01*
X201544Y50741D01*
X201745Y50832D01*
X201763Y50850D01*
X201818Y50886D01*
X201909Y50941D01*
X202000Y51032D01*
X202091Y51141D01*
X202182Y51287D01*
X202237Y51451D01*
X202255Y51633D01*
Y51652D01*
Y51670D01*
X202237Y51761D01*
X202218Y51889D01*
X202164Y52016D01*
X202146Y52052D01*
X202109Y52125D01*
X202018Y52235D01*
X201872Y52362D01*
X201836Y52399D01*
X201781Y52417D01*
X201727Y52472D01*
X201635Y52508D01*
X201526Y52563D01*
X201380Y52636D01*
X201235Y52690D01*
X201216D01*
X201162Y52727D01*
X201071Y52763D01*
X200925Y52818D01*
X200761Y52872D01*
X200560Y52945D01*
X200342Y53018D01*
X200068Y53091D01*
X200050D01*
X199977Y53127D01*
X199868Y53146D01*
X199741Y53200D01*
X199576Y53255D01*
X199413Y53310D01*
X199048Y53455D01*
X199030Y53474D01*
X198975Y53492D01*
X198884Y53547D01*
X198775Y53601D01*
X198502Y53747D01*
X198228Y53947D01*
X198210Y53966D01*
X198174Y54002D01*
X198101Y54057D01*
X198028Y54148D01*
X197846Y54348D01*
X197682Y54621D01*
Y54640D01*
X197645Y54694D01*
X197627Y54767D01*
X197590Y54877D01*
X197554Y55004D01*
X197536Y55168D01*
X197499Y55350D01*
Y55532D01*
Y55551D01*
Y55587D01*
Y55660D01*
X197518Y55751D01*
X197536Y55860D01*
X197554Y55988D01*
X197645Y56279D01*
Y56298D01*
X197682Y56352D01*
X197718Y56425D01*
X197773Y56535D01*
X197846Y56644D01*
X197937Y56771D01*
X198064Y56917D01*
X198192Y57045D01*
X198210Y57063D01*
X198265Y57099D01*
X198356Y57172D01*
X198465Y57263D01*
X198611Y57354D01*
X198793Y57446D01*
X198994Y57555D01*
X199230Y57646D01*
X199267Y57664D01*
X199358Y57682D01*
X199485Y57719D01*
X199686Y57774D01*
X199923Y57810D01*
X200196Y57846D01*
X200524Y57865D01*
X200870Y57883D01*
X201198D01*
X201344Y57865D01*
D02*
G37*
G36*
X210946Y57828D02*
X211146D01*
X211347Y57810D01*
X211766Y57755D01*
X211784D01*
X211857Y57737D01*
X211966Y57719D01*
X212112Y57682D01*
X212276Y57646D01*
X212458Y57591D01*
X212841Y57464D01*
Y56097D01*
X212823Y56116D01*
X212750Y56134D01*
X212640Y56188D01*
X212494Y56243D01*
X212331Y56316D01*
X212148Y56389D01*
X211748Y56498D01*
X211729D01*
X211656Y56516D01*
X211547Y56535D01*
X211401Y56571D01*
X211219Y56589D01*
X211037Y56607D01*
X210600Y56626D01*
X210508D01*
X210399Y56607D01*
X210272D01*
X210108Y56571D01*
X209926Y56535D01*
X209743Y56480D01*
X209561Y56407D01*
X209543D01*
X209488Y56371D01*
X209379Y56316D01*
X209270Y56261D01*
X209142Y56170D01*
X208996Y56061D01*
X208851Y55951D01*
X208705Y55806D01*
X208686Y55787D01*
X208650Y55733D01*
X208577Y55660D01*
X208504Y55551D01*
X208395Y55405D01*
X208304Y55241D01*
X208213Y55059D01*
X208122Y54858D01*
Y54840D01*
X208085Y54767D01*
X208067Y54640D01*
X208031Y54494D01*
X207994Y54294D01*
X207958Y54075D01*
X207940Y53838D01*
X207921Y53565D01*
Y53547D01*
Y53492D01*
Y53419D01*
X207940Y53328D01*
Y53200D01*
X207958Y53054D01*
X208012Y52727D01*
X208103Y52380D01*
X208213Y51998D01*
X208395Y51652D01*
X208632Y51342D01*
X208668Y51305D01*
X208759Y51232D01*
X208923Y51105D01*
X209160Y50977D01*
X209452Y50850D01*
X209798Y50722D01*
X210199Y50649D01*
X210654Y50613D01*
X210873D01*
X211019Y50631D01*
X211183Y50649D01*
X211383Y50668D01*
X211784Y50741D01*
X211802D01*
X211875Y50759D01*
X211984Y50795D01*
X212130Y50832D01*
X212276Y50886D01*
X212458Y50959D01*
X212841Y51141D01*
Y49811D01*
X212823D01*
X212750Y49775D01*
X212640Y49738D01*
X212494Y49684D01*
X212312Y49647D01*
X212112Y49593D01*
X211693Y49502D01*
X211675D01*
X211583Y49483D01*
X211474Y49465D01*
X211328Y49447D01*
X211146Y49429D01*
X210928Y49411D01*
X210472Y49392D01*
X210290D01*
X210144Y49411D01*
X209980Y49429D01*
X209798Y49447D01*
X209597Y49483D01*
X209361Y49520D01*
X208887Y49647D01*
X208632Y49738D01*
X208377Y49848D01*
X208140Y49957D01*
X207903Y50103D01*
X207666Y50267D01*
X207466Y50449D01*
X207448Y50467D01*
X207429Y50504D01*
X207375Y50558D01*
X207302Y50649D01*
X207229Y50759D01*
X207138Y50886D01*
X207047Y51050D01*
X206956Y51232D01*
X206846Y51433D01*
X206755Y51670D01*
X206664Y51925D01*
X206591Y52198D01*
X206518Y52490D01*
X206464Y52818D01*
X206446Y53164D01*
X206427Y53528D01*
Y53547D01*
Y53565D01*
Y53619D01*
Y53692D01*
X206446Y53874D01*
X206464Y54111D01*
X206500Y54385D01*
X206555Y54694D01*
X206628Y55004D01*
X206719Y55296D01*
Y55314D01*
X206737Y55332D01*
X206773Y55423D01*
X206846Y55587D01*
X206937Y55769D01*
X207065Y55988D01*
X207211Y56207D01*
X207375Y56444D01*
X207575Y56662D01*
X207593Y56680D01*
X207666Y56753D01*
X207794Y56862D01*
X207940Y56990D01*
X208140Y57118D01*
X208359Y57263D01*
X208614Y57409D01*
X208887Y57537D01*
X208923Y57555D01*
X209015Y57591D01*
X209178Y57628D01*
X209379Y57701D01*
X209634Y57755D01*
X209926Y57792D01*
X210235Y57828D01*
X210563Y57846D01*
X210800D01*
X210946Y57828D01*
D02*
G37*
G36*
X220438Y57865D02*
X220530D01*
X220657Y57846D01*
X220949Y57774D01*
X221258Y57682D01*
X221568Y57537D01*
X221878Y57318D01*
X222024Y57191D01*
X222151Y57045D01*
X222187Y57008D01*
X222206Y56954D01*
X222260Y56899D01*
X222297Y56808D01*
X222352Y56699D01*
X222424Y56571D01*
X222479Y56425D01*
X222534Y56261D01*
X222588Y56097D01*
X222643Y55897D01*
X222698Y55678D01*
X222734Y55423D01*
X222752Y55168D01*
X222771Y54895D01*
Y54603D01*
X221331D01*
Y54621D01*
Y54658D01*
Y54713D01*
Y54785D01*
X221313Y54968D01*
X221295Y55186D01*
X221258Y55441D01*
X221204Y55696D01*
X221113Y55951D01*
X221003Y56152D01*
X220985Y56170D01*
X220949Y56225D01*
X220858Y56316D01*
X220748Y56407D01*
X220602Y56480D01*
X220438Y56571D01*
X220238Y56626D01*
X220001Y56644D01*
X219892D01*
X219837Y56626D01*
X219655Y56607D01*
X219436Y56535D01*
X219418D01*
X219382Y56516D01*
X219327Y56498D01*
X219254Y56462D01*
X219054Y56352D01*
X218835Y56207D01*
X218817Y56188D01*
X218780Y56170D01*
X218726Y56116D01*
X218635Y56061D01*
X218434Y55860D01*
X218179Y55624D01*
X218161Y55605D01*
X218125Y55569D01*
X218052Y55496D01*
X217961Y55387D01*
X217851Y55259D01*
X217724Y55132D01*
X217596Y54968D01*
X217450Y54785D01*
Y49502D01*
X216011D01*
Y57737D01*
X217305D01*
X217341Y56207D01*
Y56225D01*
X217377Y56243D01*
X217469Y56352D01*
X217614Y56498D01*
X217796Y56699D01*
X218015Y56899D01*
X218252Y57118D01*
X218507Y57318D01*
X218780Y57482D01*
X218817Y57500D01*
X218908Y57537D01*
X219036Y57609D01*
X219236Y57682D01*
X219436Y57755D01*
X219691Y57828D01*
X219947Y57865D01*
X220220Y57883D01*
X220347D01*
X220438Y57865D01*
D02*
G37*
G36*
X146210D02*
X146374Y57846D01*
X146574Y57810D01*
X146775Y57755D01*
X146994Y57682D01*
X147194Y57573D01*
X147212Y57555D01*
X147285Y57518D01*
X147376Y57446D01*
X147504Y57354D01*
X147650Y57245D01*
X147795Y57099D01*
X147941Y56935D01*
X148087Y56735D01*
X148105Y56717D01*
X148142Y56644D01*
X148214Y56535D01*
X148287Y56371D01*
X148378Y56188D01*
X148469Y55970D01*
X148561Y55715D01*
X148633Y55441D01*
Y55405D01*
X148670Y55314D01*
X148688Y55150D01*
X148724Y54949D01*
X148761Y54713D01*
X148779Y54421D01*
X148816Y54111D01*
Y53765D01*
Y53747D01*
Y53711D01*
Y53656D01*
Y53583D01*
X148797Y53364D01*
X148779Y53109D01*
X148743Y52799D01*
X148688Y52490D01*
X148615Y52162D01*
X148506Y51834D01*
X148488Y51797D01*
X148451Y51706D01*
X148378Y51560D01*
X148287Y51360D01*
X148160Y51160D01*
X148014Y50923D01*
X147850Y50704D01*
X147650Y50485D01*
X147631Y50467D01*
X147558Y50394D01*
X147431Y50303D01*
X147285Y50176D01*
X147103Y50048D01*
X146866Y49902D01*
X146629Y49775D01*
X146356Y49666D01*
X146319Y49647D01*
X146228Y49629D01*
X146083Y49593D01*
X145882Y49538D01*
X145645Y49483D01*
X145372Y49447D01*
X145080Y49429D01*
X144771Y49411D01*
X144516D01*
X144279Y49429D01*
X143987Y49465D01*
X143914D01*
X143842Y49483D01*
X143750Y49502D01*
X143623D01*
X143495Y49520D01*
X143204Y49575D01*
Y46131D01*
X141783D01*
Y57737D01*
X143040D01*
X143131Y56352D01*
Y56371D01*
X143167Y56389D01*
X143240Y56498D01*
X143368Y56644D01*
X143532Y56808D01*
X143732Y57008D01*
X143951Y57209D01*
X144188Y57391D01*
X144443Y57537D01*
X144479Y57555D01*
X144570Y57591D01*
X144698Y57646D01*
X144898Y57719D01*
X145117Y57774D01*
X145372Y57828D01*
X145663Y57865D01*
X145955Y57883D01*
X146083D01*
X146210Y57865D01*
D02*
G37*
%LPC*%
G36*
X237674Y56735D02*
X237310D01*
X237201Y56717D01*
X237073Y56699D01*
X236928Y56662D01*
X236618Y56553D01*
X236600D01*
X236563Y56516D01*
X236490Y56480D01*
X236399Y56425D01*
X236180Y56261D01*
X235962Y56043D01*
X235944Y56024D01*
X235925Y55988D01*
X235871Y55915D01*
X235798Y55824D01*
X235725Y55715D01*
X235652Y55569D01*
X235506Y55259D01*
Y55241D01*
X235488Y55186D01*
X235452Y55095D01*
X235415Y54968D01*
X235379Y54822D01*
X235361Y54640D01*
X235306Y54257D01*
X239642D01*
Y54275D01*
Y54348D01*
Y54457D01*
Y54585D01*
X239624Y54731D01*
X239606Y54895D01*
X239515Y55241D01*
Y55259D01*
X239496Y55314D01*
X239460Y55405D01*
X239424Y55514D01*
X239296Y55769D01*
X239114Y56024D01*
X239096Y56043D01*
X239059Y56079D01*
X239005Y56134D01*
X238932Y56207D01*
X238822Y56298D01*
X238713Y56371D01*
X238422Y56535D01*
X238403Y56553D01*
X238349Y56571D01*
X238258Y56607D01*
X238148Y56644D01*
X238021Y56680D01*
X237857Y56699D01*
X237674Y56735D01*
D02*
G37*
G36*
X228437D02*
X228073D01*
X227963Y56717D01*
X227836Y56699D01*
X227690Y56662D01*
X227380Y56553D01*
X227362D01*
X227326Y56516D01*
X227253Y56480D01*
X227162Y56425D01*
X226943Y56261D01*
X226724Y56043D01*
X226706Y56024D01*
X226688Y55988D01*
X226633Y55915D01*
X226560Y55824D01*
X226487Y55715D01*
X226415Y55569D01*
X226269Y55259D01*
Y55241D01*
X226251Y55186D01*
X226214Y55095D01*
X226178Y54968D01*
X226141Y54822D01*
X226123Y54640D01*
X226068Y54257D01*
X230405D01*
Y54275D01*
Y54348D01*
Y54457D01*
Y54585D01*
X230386Y54731D01*
X230368Y54895D01*
X230277Y55241D01*
Y55259D01*
X230259Y55314D01*
X230223Y55405D01*
X230186Y55514D01*
X230059Y55769D01*
X229876Y56024D01*
X229858Y56043D01*
X229822Y56079D01*
X229767Y56134D01*
X229694Y56207D01*
X229585Y56298D01*
X229475Y56371D01*
X229184Y56535D01*
X229166Y56553D01*
X229111Y56571D01*
X229020Y56607D01*
X228911Y56644D01*
X228783Y56680D01*
X228619Y56699D01*
X228437Y56735D01*
D02*
G37*
G36*
X136043Y56662D02*
X135734D01*
X135606Y56644D01*
X135460Y56626D01*
X135278Y56607D01*
X135096Y56553D01*
X134914Y56498D01*
X134731Y56407D01*
X134713Y56389D01*
X134659Y56352D01*
X134568Y56298D01*
X134476Y56225D01*
X134349Y56134D01*
X134221Y56024D01*
X133984Y55733D01*
X133966Y55715D01*
X133930Y55660D01*
X133893Y55569D01*
X133820Y55460D01*
X133748Y55314D01*
X133693Y55150D01*
X133620Y54968D01*
X133565Y54767D01*
Y54749D01*
X133547Y54676D01*
X133529Y54567D01*
X133511Y54421D01*
X133474Y54239D01*
X133456Y54038D01*
X133438Y53601D01*
Y53565D01*
Y53474D01*
X133456Y53328D01*
Y53146D01*
X133474Y52945D01*
X133511Y52708D01*
X133602Y52253D01*
Y52235D01*
X133638Y52162D01*
X133675Y52052D01*
X133729Y51925D01*
X133875Y51615D01*
X134076Y51305D01*
X134094Y51287D01*
X134130Y51251D01*
X134203Y51178D01*
X134294Y51105D01*
X134404Y51014D01*
X134531Y50923D01*
X134823Y50741D01*
X134841D01*
X134896Y50704D01*
X135005Y50686D01*
X135114Y50649D01*
X135278Y50613D01*
X135442Y50595D01*
X135643Y50558D01*
X135952D01*
X136062Y50577D01*
X136226Y50595D01*
X136390Y50613D01*
X136572Y50668D01*
X136754Y50722D01*
X136936Y50795D01*
X136954Y50814D01*
X137009Y50850D01*
X137100Y50905D01*
X137209Y50977D01*
X137319Y51069D01*
X137446Y51196D01*
X137683Y51469D01*
X137701Y51488D01*
X137738Y51542D01*
X137774Y51633D01*
X137847Y51743D01*
X137920Y51889D01*
X137975Y52052D01*
X138048Y52235D01*
X138102Y52435D01*
Y52453D01*
X138120Y52526D01*
X138157Y52654D01*
X138175Y52799D01*
X138212Y52963D01*
X138230Y53164D01*
X138248Y53601D01*
Y53638D01*
Y53729D01*
Y53874D01*
X138230Y54057D01*
X138212Y54257D01*
X138175Y54494D01*
X138120Y54713D01*
X138066Y54931D01*
Y54949D01*
X138029Y55022D01*
X137993Y55132D01*
X137938Y55277D01*
X137793Y55569D01*
X137701Y55733D01*
X137592Y55879D01*
X137574Y55897D01*
X137537Y55933D01*
X137464Y56006D01*
X137373Y56097D01*
X137264Y56188D01*
X137137Y56279D01*
X136827Y56462D01*
X136809Y56480D01*
X136754Y56498D01*
X136663Y56535D01*
X136535Y56571D01*
X136390Y56607D01*
X136226Y56626D01*
X136043Y56662D01*
D02*
G37*
G36*
X145827Y56644D02*
X145554D01*
X145500Y56626D01*
X145317Y56607D01*
X145117Y56553D01*
X145099D01*
X145062Y56535D01*
X145008Y56516D01*
X144935Y56480D01*
X144753Y56389D01*
X144534Y56261D01*
X144516D01*
X144479Y56225D01*
X144425Y56188D01*
X144352Y56116D01*
X144151Y55951D01*
X143896Y55715D01*
X143878Y55696D01*
X143842Y55660D01*
X143769Y55587D01*
X143696Y55496D01*
X143587Y55369D01*
X143459Y55223D01*
X143331Y55077D01*
X143204Y54895D01*
Y50905D01*
X143222D01*
X143277Y50886D01*
X143350Y50850D01*
X143459Y50814D01*
X143568Y50777D01*
X143714Y50722D01*
X144024Y50649D01*
X144042D01*
X144097Y50631D01*
X144188Y50613D01*
X144297D01*
X144425Y50595D01*
X144570Y50577D01*
X144880Y50558D01*
X144989D01*
X145062Y50577D01*
X145281Y50595D01*
X145536Y50649D01*
X145827Y50759D01*
X146119Y50886D01*
X146411Y51087D01*
X146556Y51196D01*
X146684Y51342D01*
Y51360D01*
X146720Y51378D01*
X146739Y51433D01*
X146793Y51488D01*
X146848Y51579D01*
X146903Y51670D01*
X146957Y51797D01*
X147030Y51925D01*
X147085Y52089D01*
X147139Y52253D01*
X147194Y52453D01*
X147249Y52672D01*
X147303Y52891D01*
X147322Y53146D01*
X147358Y53401D01*
Y53692D01*
Y53729D01*
Y53802D01*
Y53929D01*
X147340Y54093D01*
Y54275D01*
X147322Y54476D01*
X147249Y54877D01*
Y54895D01*
X147231Y54968D01*
X147212Y55077D01*
X147176Y55204D01*
X147085Y55496D01*
X146957Y55806D01*
Y55824D01*
X146921Y55879D01*
X146884Y55951D01*
X146811Y56043D01*
X146647Y56243D01*
X146429Y56425D01*
X146411Y56444D01*
X146374Y56462D01*
X146301Y56498D01*
X146210Y56535D01*
X146101Y56571D01*
X145973Y56607D01*
X145827Y56644D01*
D02*
G37*
%LPD*%
D45*
X152380Y-171958D02*
X168521D01*
X152380D02*
Y-158966D01*
X168521D01*
Y-171958D02*
Y-158966D01*
X262076Y-320838D02*
X267195D01*
X272706Y-330287D02*
X277824D01*
X272706Y-320838D02*
X277824D01*
X262076Y-330287D02*
X267195D01*
X290626Y-66436D02*
Y-61318D01*
X300075Y-55806D02*
Y-50688D01*
X290626Y-55806D02*
Y-50688D01*
X300075Y-66436D02*
Y-61318D01*
X305326Y-82123D02*
Y-77005D01*
X314775Y-71493D02*
Y-66375D01*
X305326Y-71493D02*
Y-66375D01*
X314775Y-82123D02*
Y-77005D01*
X43607Y-148536D02*
Y-143418D01*
X53056Y-137906D02*
Y-132788D01*
X43607Y-137906D02*
Y-132788D01*
X53056Y-148536D02*
Y-143418D01*
X148476Y-230074D02*
Y-224956D01*
X157924Y-219444D02*
Y-214326D01*
X148476Y-219444D02*
Y-214326D01*
X157924Y-230074D02*
Y-224956D01*
X42913Y-242844D02*
X48031D01*
X42913Y-262923D02*
X48031D01*
X149466Y-335457D02*
Y-334276D01*
X147301Y-335457D02*
X149466D01*
X147301D02*
Y-334276D01*
X135883D02*
X147301D01*
X135883Y-344118D02*
Y-334276D01*
X133128Y-344118D02*
X135883D01*
X133128Y-355142D02*
Y-344118D01*
Y-355142D02*
X174072D01*
Y-344118D01*
X171317D02*
X174072D01*
X171317D02*
Y-334276D01*
X149466D02*
X171317D01*
X133128Y-357898D02*
Y-355142D01*
Y-357898D02*
X135490D01*
Y-360260D02*
Y-357898D01*
Y-360260D02*
X171710D01*
Y-357898D01*
X174072D01*
Y-355142D01*
X131159Y-360260D02*
X133128Y-357898D01*
X174072D02*
X176041Y-360260D01*
X12170Y-245013D02*
Y-242651D01*
X7446D02*
X12170D01*
X7446Y-281234D02*
Y-242651D01*
Y-281234D02*
X12170D01*
Y-278872D01*
X29099D01*
X12170Y-245013D02*
X29099D01*
Y-278872D02*
Y-274541D01*
Y-249344D02*
Y-245013D01*
X283600Y-272700D02*
X286300D01*
X283600Y-296100D02*
Y-272700D01*
Y-296100D02*
X322000D01*
Y-272700D01*
X319300D02*
X322000D01*
X12170Y-284928D02*
Y-282566D01*
X7446D02*
X12170D01*
X7446Y-321149D02*
Y-282566D01*
Y-321149D02*
X12170D01*
Y-318787D01*
X29099D01*
X12170Y-284928D02*
X29099D01*
Y-318787D02*
Y-314456D01*
Y-289259D02*
Y-284928D01*
X267638Y-317480D02*
X272362D01*
X277480Y-312362D02*
Y-307638D01*
X267638Y-302520D02*
X272362D01*
X262520Y-312362D02*
Y-307638D01*
X74934Y-28824D02*
Y-27643D01*
X77099D01*
Y-28824D02*
Y-27643D01*
Y-28824D02*
X88517D01*
Y-18982D01*
X91272D01*
Y-7958D01*
X50328D02*
X91272D01*
X50328Y-18982D02*
Y-7958D01*
Y-18982D02*
X53083D01*
Y-28824D02*
Y-18982D01*
Y-28824D02*
X74934D01*
X91272Y-7958D02*
Y-5202D01*
X88910D02*
X91272D01*
X88910D02*
Y-2840D01*
X52690D02*
X88910D01*
X52690Y-5202D02*
Y-2840D01*
X50328Y-5202D02*
X52690D01*
X50328Y-7958D02*
Y-5202D01*
X91272D02*
X93241Y-2840D01*
X48359D02*
X50328Y-5202D01*
X218766Y-335457D02*
Y-334276D01*
X216601Y-335457D02*
X218766D01*
X216601D02*
Y-334276D01*
X205184D02*
X216601D01*
X205184Y-344118D02*
Y-334276D01*
X202428Y-344118D02*
X205184D01*
X202428Y-355142D02*
Y-344118D01*
Y-355142D02*
X243372D01*
Y-344118D01*
X240616D02*
X243372D01*
X240616D02*
Y-334276D01*
X218766D02*
X240616D01*
X202428Y-357898D02*
Y-355142D01*
Y-357898D02*
X204790D01*
Y-360260D02*
Y-357898D01*
Y-360260D02*
X241010D01*
Y-357898D01*
X243372D01*
Y-355142D01*
X200459Y-360260D02*
X202428Y-357898D01*
X243372D02*
X245341Y-360260D01*
X307638Y-58980D02*
X312362D01*
X317480Y-53862D02*
Y-49138D01*
X307638Y-44020D02*
X312362D01*
X302520Y-53862D02*
Y-49138D01*
X287205Y-57012D02*
Y-45988D01*
X269488Y-63705D02*
X280512D01*
X262795Y-57012D02*
Y-45988D01*
X269488Y-39295D02*
X280512D01*
X373250Y-89462D02*
Y-81462D01*
X365250D02*
X373250D01*
X365250Y-89462D02*
Y-81462D01*
Y-89462D02*
X373250D01*
X369250Y-91462D02*
Y-89462D01*
X366250Y-91462D02*
X372250D01*
X367250Y-93462D02*
X371250D01*
X368250Y-95462D02*
X370250D01*
X53056Y-47068D02*
Y-35257D01*
X311850Y-313062D02*
X315350Y-309562D01*
X311850Y-313062D02*
X318850D01*
X315350Y-309562D02*
X318850Y-313062D01*
X315350Y-311062D02*
Y-309562D01*
X314850Y-311062D02*
X315350D01*
X313350Y-312562D02*
X314850Y-311062D01*
X313350Y-312562D02*
X317350D01*
X315850Y-311062D02*
X317350Y-312562D01*
X315350Y-311062D02*
X315850D01*
X300350Y-326062D02*
Y-325562D01*
X301850Y-324062D01*
Y-328062D02*
Y-324062D01*
X300350Y-326562D02*
X301850Y-328062D01*
X300350Y-326562D02*
Y-326062D01*
X298850D02*
X300350D01*
X298850D02*
X302350Y-322562D01*
Y-329562D02*
Y-322562D01*
X298850Y-326062D02*
X302350Y-329562D01*
D46*
X319350Y-326062D02*
G03*
X319350Y-326062I-4000J0D01*
G01*
D48*
X328776Y-45354D02*
G03*
X328776Y-45354I-1000J0D01*
G01*
X348776D02*
G03*
X348776Y-45354I-1000J0D01*
G01*
X315350Y-326062D02*
Y-311062D01*
X300350Y-326062D02*
X315350D01*
D52*
X43487Y-110456D02*
Y-109669D01*
X48014Y-110456D02*
Y-109669D01*
X118266Y-6565D02*
X120219Y-4613D01*
X116282Y-4581D02*
X120219D01*
X116282D02*
X118266Y-6565D01*
X116282Y-6943D02*
X120250D01*
X311790Y-198453D02*
Y-197272D01*
X316711Y-198453D02*
Y-197272D01*
X281190Y-198453D02*
Y-197272D01*
X286111Y-198453D02*
Y-197272D01*
X28709Y-170161D02*
X29891D01*
X28709Y-165239D02*
X29891D01*
X43309D02*
X44491D01*
X43309Y-170161D02*
X44491D01*
X215811Y-166053D02*
Y-164872D01*
X210890Y-166053D02*
Y-164872D01*
X278143Y-218010D02*
Y-193207D01*
X264757Y-218010D02*
Y-193207D01*
X277454D02*
X278143D01*
X277454Y-218010D02*
X278143D01*
X264757Y-193207D02*
X265446D01*
X264757Y-218010D02*
X265446D01*
X150049Y-267055D02*
X174852D01*
X150049Y-253669D02*
X174852D01*
Y-267055D02*
Y-266366D01*
X150049Y-267055D02*
Y-266366D01*
X174852Y-254358D02*
Y-253669D01*
X150049Y-254358D02*
Y-253669D01*
X269211Y-252553D02*
Y-251372D01*
X264290Y-252553D02*
Y-251372D01*
Y-238053D02*
Y-236872D01*
X269211Y-238053D02*
Y-236872D01*
X302960Y-172223D02*
X304141D01*
X302960Y-167301D02*
X304141D01*
X278611Y-142653D02*
Y-141472D01*
X273690Y-142653D02*
Y-141472D01*
X310243Y-162064D02*
Y-137261D01*
X296858Y-162064D02*
Y-137261D01*
X309554D02*
X310243D01*
X309554Y-162064D02*
X310243D01*
X296858Y-137261D02*
X297547D01*
X296858Y-162064D02*
X297547D01*
X278143Y-129864D02*
Y-105061D01*
X264757Y-129864D02*
Y-105061D01*
X277454D02*
X278143D01*
X277454Y-129864D02*
X278143D01*
X264757Y-105061D02*
X265446D01*
X264757Y-129864D02*
X265446D01*
X294143D02*
Y-105061D01*
X280757Y-129864D02*
Y-105061D01*
X293454D02*
X294143D01*
X293454Y-129864D02*
X294143D01*
X280757Y-105061D02*
X281447D01*
X280757Y-129864D02*
X281447D01*
X302360Y-127261D02*
X303541D01*
X302360Y-132183D02*
X303541D01*
X302360Y-103683D02*
X303541D01*
X302360Y-98761D02*
X303541D01*
X178849Y-13869D02*
X203652D01*
X178849Y-27255D02*
X203652D01*
X178849Y-14558D02*
Y-13869D01*
X203652Y-14558D02*
Y-13869D01*
X178849Y-27255D02*
Y-26566D01*
X203652Y-27255D02*
Y-26566D01*
X290708Y-139246D02*
X294153D01*
Y-141215D02*
Y-139246D01*
X281948D02*
X285393D01*
X281948Y-141215D02*
Y-139246D01*
X322657Y-186299D02*
Y-173693D01*
X342342Y-186299D02*
Y-173693D01*
Y-311496D02*
Y-304410D01*
X335000Y-311496D02*
X342342D01*
X322657Y-311496D02*
Y-304153D01*
Y-311496D02*
X329744D01*
X342342Y-55847D02*
Y-48504D01*
X335256D02*
X342342D01*
X322657Y-48504D02*
X330000D01*
X322657Y-55590D02*
Y-48504D01*
X342657Y-186299D02*
Y-173693D01*
X362343Y-186299D02*
Y-173693D01*
Y-311496D02*
Y-304410D01*
X355000Y-311496D02*
X362343D01*
X342657Y-311496D02*
Y-304153D01*
Y-311496D02*
X349744D01*
X362343Y-55847D02*
Y-48504D01*
X355256D02*
X362343D01*
X342657Y-48504D02*
X350000D01*
X342657Y-55590D02*
Y-48504D01*
X281387Y-213256D02*
Y-212468D01*
X285914Y-213256D02*
Y-212468D01*
X366582Y-276456D02*
X370550D01*
X366582Y-274094D02*
X368566Y-276078D01*
X366582Y-274094D02*
X370519D01*
X368566Y-276078D02*
X370519Y-274125D01*
X42119Y-320500D02*
Y-316531D01*
X42497Y-318516D02*
X44481Y-316531D01*
Y-320468D02*
Y-316531D01*
X42497Y-318516D02*
X44450Y-320468D01*
X316514Y-213256D02*
Y-212468D01*
X311987Y-213256D02*
Y-212468D01*
X302257Y-222198D02*
X303044D01*
X302257Y-226726D02*
X303044D01*
X366287Y-290356D02*
Y-289568D01*
X370814Y-290356D02*
Y-289568D01*
X42314Y-273556D02*
Y-272768D01*
X37787Y-273556D02*
Y-272768D01*
X46087Y-273556D02*
Y-272768D01*
X50614Y-273556D02*
Y-272768D01*
X187357Y-271998D02*
X188144D01*
X187357Y-276526D02*
X188144D01*
X107387Y-312513D02*
Y-311726D01*
X111914Y-312513D02*
Y-311726D01*
X297614Y-77656D02*
Y-76868D01*
X293087Y-77656D02*
Y-76868D01*
X124257Y-276798D02*
X125044D01*
X124257Y-281326D02*
X125044D01*
X109357Y-293426D02*
X110144D01*
X109357Y-288898D02*
X110144D01*
X124257Y-293426D02*
X125044D01*
X124257Y-288898D02*
X125044D01*
X314587Y-159756D02*
Y-158968D01*
X319114Y-159756D02*
Y-158968D01*
Y-132656D02*
Y-131869D01*
X314587Y-132656D02*
Y-131869D01*
X269814Y-142456D02*
Y-141668D01*
X265287Y-142456D02*
Y-141668D01*
X285757Y-183726D02*
X286544D01*
X285757Y-179198D02*
X286544D01*
X111657Y-27326D02*
X112444D01*
X111657Y-22798D02*
X112444D01*
X111657Y-19226D02*
X112444D01*
X111657Y-14698D02*
X112444D01*
X308793Y-211661D02*
Y-199063D01*
X289108Y-211661D02*
Y-199063D01*
X308793D01*
X289108Y-211661D02*
X308793D01*
X21084Y-219953D02*
X52084D01*
X21084Y-171953D02*
X52084D01*
X21084Y-219953D02*
Y-171953D01*
X52084Y-219953D02*
Y-171953D01*
X171787Y-216213D02*
X208008D01*
X171787Y-179993D02*
X208008D01*
Y-216213D02*
Y-179993D01*
X171787Y-216213D02*
Y-179993D01*
X319354Y-260316D02*
Y-229316D01*
X271354Y-260316D02*
Y-229316D01*
Y-260316D02*
X319354D01*
X271354Y-229316D02*
X319354D01*
X273151Y-156020D02*
X285750D01*
X273151Y-175705D02*
X285750D01*
X273151D02*
Y-156020D01*
X285750Y-175705D02*
Y-156020D01*
X296848Y-116278D02*
X300293D01*
X296848D02*
Y-114309D01*
X305608Y-116278D02*
X309053D01*
Y-114309D01*
X139123Y-26864D02*
X148178D01*
X139123Y-14660D02*
X148178D01*
Y-26864D02*
Y-14660D01*
X139123Y-26864D02*
Y-14660D01*
X208787Y-20956D02*
Y-20168D01*
X213314Y-20956D02*
Y-20168D01*
X43487Y-87856D02*
Y-87068D01*
X48014Y-87856D02*
Y-87068D01*
X163257Y-61098D02*
X164044D01*
X163257Y-65626D02*
X164044D01*
X188074Y-151582D02*
X187418Y-150926D01*
X186106D01*
X185450Y-151582D01*
Y-154206D01*
X186106Y-154862D01*
X187418D01*
X188074Y-154206D01*
X192010Y-154862D02*
X189386D01*
X192010Y-152238D01*
Y-151582D01*
X191354Y-150926D01*
X190042D01*
X189386Y-151582D01*
X195946Y-154862D02*
X193322D01*
X195946Y-152238D01*
Y-151582D01*
X195290Y-150926D01*
X193978D01*
X193322Y-151582D01*
X157900Y-153564D02*
Y-154220D01*
X159212Y-155532D01*
X160524Y-154220D01*
Y-153564D01*
X159212Y-155532D02*
Y-157500D01*
X161836D02*
X163148D01*
X162492D01*
Y-153564D01*
X161836Y-154220D01*
X148250Y-13398D02*
Y-10118D01*
X147594Y-9462D01*
X146283D01*
X145627Y-10118D01*
Y-13398D01*
X141691Y-9462D02*
X144315D01*
X141691Y-12086D01*
Y-12742D01*
X142347Y-13398D01*
X143659D01*
X144315Y-12742D01*
X137755Y-13398D02*
X140379D01*
Y-11430D01*
X139067Y-12086D01*
X138411D01*
X137755Y-11430D01*
Y-10118D01*
X138411Y-9462D01*
X139723D01*
X140379Y-10118D01*
X310650Y-111526D02*
Y-114806D01*
X311306Y-115462D01*
X312618D01*
X313274Y-114806D01*
Y-111526D01*
X317210Y-115462D02*
X314586D01*
X317210Y-112838D01*
Y-112182D01*
X316554Y-111526D01*
X315242D01*
X314586Y-112182D01*
X318522D02*
X319178Y-111526D01*
X320490D01*
X321146Y-112182D01*
Y-112838D01*
X320490Y-113494D01*
X319834D01*
X320490D01*
X321146Y-114150D01*
Y-114806D01*
X320490Y-115462D01*
X319178D01*
X318522Y-114806D01*
X267550Y-177726D02*
Y-181006D01*
X268206Y-181662D01*
X269518D01*
X270174Y-181006D01*
Y-177726D01*
X274110Y-181662D02*
X271486D01*
X274110Y-179038D01*
Y-178382D01*
X273454Y-177726D01*
X272142D01*
X271486Y-178382D01*
X278046Y-181662D02*
X275422D01*
X278046Y-179038D01*
Y-178382D01*
X277390Y-177726D01*
X276078D01*
X275422Y-178382D01*
X283450Y-261626D02*
Y-264906D01*
X284106Y-265562D01*
X285418D01*
X286074Y-264906D01*
Y-261626D01*
X287386Y-265562D02*
X288698D01*
X288042D01*
Y-261626D01*
X287386Y-262282D01*
X292634Y-265562D02*
Y-261626D01*
X290666Y-263594D01*
X293290D01*
X206750Y-173526D02*
Y-176806D01*
X207406Y-177462D01*
X208718D01*
X209374Y-176806D01*
Y-173526D01*
X210686Y-177462D02*
X211998D01*
X211342D01*
Y-173526D01*
X210686Y-174182D01*
X213966D02*
X214622Y-173526D01*
X215934D01*
X216590Y-174182D01*
Y-176806D01*
X215934Y-177462D01*
X214622D01*
X213966Y-176806D01*
Y-174182D01*
X38286Y-174262D02*
X35006D01*
X34350Y-174918D01*
Y-176230D01*
X35006Y-176886D01*
X38286D01*
X37630Y-178198D02*
X38286Y-178854D01*
Y-180166D01*
X37630Y-180822D01*
X36974D01*
X36318Y-180166D01*
X35662Y-180822D01*
X35006D01*
X34350Y-180166D01*
Y-178854D01*
X35006Y-178198D01*
X35662D01*
X36318Y-178854D01*
X36974Y-178198D01*
X37630D01*
X36318Y-178854D02*
Y-180166D01*
X296150Y-186726D02*
Y-190006D01*
X296806Y-190662D01*
X298118D01*
X298774Y-190006D01*
Y-186726D01*
X300086Y-190662D02*
X301398D01*
X300742D01*
Y-186726D01*
X300086Y-187382D01*
X372915Y-264162D02*
Y-261538D01*
Y-262850D01*
X376850D01*
Y-260226D02*
X372915D01*
Y-258259D01*
X373571Y-257603D01*
X374883D01*
X375538Y-258259D01*
Y-260226D01*
X372915Y-253667D02*
X373571Y-254979D01*
X374883Y-256291D01*
X376195D01*
X376850Y-255635D01*
Y-254323D01*
X376195Y-253667D01*
X375538D01*
X374883Y-254323D01*
Y-256291D01*
X373571Y-252355D02*
X372915Y-251699D01*
Y-250387D01*
X373571Y-249731D01*
X376195D01*
X376850Y-250387D01*
Y-251699D01*
X376195Y-252355D01*
X373571D01*
X371415Y-73462D02*
Y-70838D01*
Y-72150D01*
X375350D01*
Y-69526D02*
X371415D01*
Y-67558D01*
X372071Y-66903D01*
X373383D01*
X374039Y-67558D01*
Y-69526D01*
X375350Y-63623D02*
X371415D01*
X373383Y-65591D01*
Y-62967D01*
X375350Y-59031D02*
Y-61655D01*
X372727Y-59031D01*
X372071D01*
X371415Y-59687D01*
Y-60999D01*
X372071Y-61655D01*
X291950Y-91626D02*
X294574D01*
X293262D01*
Y-95562D01*
X295886D02*
Y-91626D01*
X297854D01*
X298510Y-92282D01*
Y-93594D01*
X297854Y-94250D01*
X295886D01*
X299822Y-92282D02*
X300478Y-91626D01*
X301790D01*
X302446Y-92282D01*
Y-92938D01*
X301790Y-93594D01*
X301134D01*
X301790D01*
X302446Y-94250D01*
Y-94906D01*
X301790Y-95562D01*
X300478D01*
X299822Y-94906D01*
X303758D02*
X304414Y-95562D01*
X305726D01*
X306382Y-94906D01*
Y-92282D01*
X305726Y-91626D01*
X304414D01*
X303758Y-92282D01*
Y-92938D01*
X304414Y-93594D01*
X306382D01*
X53186Y-221062D02*
Y-223686D01*
Y-222374D01*
X49250D01*
Y-224998D02*
X53186D01*
Y-226966D01*
X52530Y-227622D01*
X51218D01*
X50562Y-226966D01*
Y-224998D01*
X53186Y-228934D02*
Y-231557D01*
X52530D01*
X49906Y-228934D01*
X49250D01*
X49450Y-82062D02*
X53386D01*
Y-84030D01*
X52730Y-84686D01*
X51418D01*
X50762Y-84030D01*
Y-82062D01*
Y-83374D02*
X49450Y-84686D01*
X53386Y-85998D02*
Y-88622D01*
X52730D01*
X50106Y-85998D01*
X49450D01*
X53386Y-92557D02*
X52730Y-91246D01*
X51418Y-89934D01*
X50106D01*
X49450Y-90590D01*
Y-91901D01*
X50106Y-92557D01*
X50762D01*
X51418Y-91901D01*
Y-89934D01*
X225250Y-18462D02*
Y-22398D01*
X223283D01*
X222627Y-21742D01*
Y-20430D01*
X223283Y-19774D01*
X225250D01*
X223938D02*
X222627Y-18462D01*
X218691Y-22398D02*
X221315D01*
Y-20430D01*
X220003Y-21086D01*
X219347D01*
X218691Y-20430D01*
Y-19118D01*
X219347Y-18462D01*
X220659D01*
X221315Y-19118D01*
X217379Y-22398D02*
X214755D01*
Y-21742D01*
X217379Y-19118D01*
Y-18462D01*
X130250Y-15462D02*
Y-19398D01*
X128283D01*
X127627Y-18742D01*
Y-17430D01*
X128283Y-16774D01*
X130250D01*
X128938D02*
X127627Y-15462D01*
X123691Y-19398D02*
X126315D01*
Y-17430D01*
X125003Y-18086D01*
X124347D01*
X123691Y-17430D01*
Y-16118D01*
X124347Y-15462D01*
X125659D01*
X126315Y-16118D01*
X119755Y-19398D02*
X122379D01*
Y-17430D01*
X121067Y-18086D01*
X120411D01*
X119755Y-17430D01*
Y-16118D01*
X120411Y-15462D01*
X121723D01*
X122379Y-16118D01*
X104750Y-17962D02*
Y-21898D01*
X102783D01*
X102127Y-21242D01*
Y-19930D01*
X102783Y-19274D01*
X104750D01*
X103438D02*
X102127Y-17962D01*
X98191Y-21898D02*
X100815D01*
Y-19930D01*
X99503Y-20586D01*
X98847D01*
X98191Y-19930D01*
Y-18618D01*
X98847Y-17962D01*
X100159D01*
X100815Y-18618D01*
X94911Y-17962D02*
Y-21898D01*
X96879Y-19930D01*
X94255D01*
X293850Y-183462D02*
Y-179526D01*
X295818D01*
X296474Y-180182D01*
Y-181494D01*
X295818Y-182150D01*
X293850D01*
X295162D02*
X296474Y-183462D01*
X300410Y-179526D02*
X297786D01*
Y-181494D01*
X299098Y-180838D01*
X299754D01*
X300410Y-181494D01*
Y-182806D01*
X299754Y-183462D01*
X298442D01*
X297786Y-182806D01*
X301722Y-180182D02*
X302378Y-179526D01*
X303690D01*
X304346Y-180182D01*
Y-182806D01*
X303690Y-183462D01*
X302378D01*
X301722Y-182806D01*
Y-180182D01*
X262550Y-153962D02*
Y-150026D01*
X264518D01*
X265174Y-150682D01*
Y-151994D01*
X264518Y-152650D01*
X262550D01*
X263862D02*
X265174Y-153962D01*
X268454D02*
Y-150026D01*
X266486Y-151994D01*
X269110D01*
X270422Y-153306D02*
X271078Y-153962D01*
X272390D01*
X273046Y-153306D01*
Y-150682D01*
X272390Y-150026D01*
X271078D01*
X270422Y-150682D01*
Y-151338D01*
X271078Y-151994D01*
X273046D01*
X310750Y-124662D02*
Y-120726D01*
X312718D01*
X313374Y-121382D01*
Y-122694D01*
X312718Y-123350D01*
X310750D01*
X312062D02*
X313374Y-124662D01*
X316654D02*
Y-120726D01*
X314686Y-122694D01*
X317310D01*
X318622Y-121382D02*
X319278Y-120726D01*
X320590D01*
X321246Y-121382D01*
Y-122038D01*
X320590Y-122694D01*
X321246Y-123350D01*
Y-124006D01*
X320590Y-124662D01*
X319278D01*
X318622Y-124006D01*
Y-123350D01*
X319278Y-122694D01*
X318622Y-122038D01*
Y-121382D01*
X319278Y-122694D02*
X320590D01*
X311650Y-151862D02*
Y-147926D01*
X313618D01*
X314274Y-148582D01*
Y-149894D01*
X313618Y-150550D01*
X311650D01*
X312962D02*
X314274Y-151862D01*
X317554D02*
Y-147926D01*
X315586Y-149894D01*
X318210D01*
X319522Y-147926D02*
X322146D01*
Y-148582D01*
X319522Y-151206D01*
Y-151862D01*
X119450Y-287562D02*
Y-283626D01*
X121418D01*
X122074Y-284282D01*
Y-285594D01*
X121418Y-286250D01*
X119450D01*
X120762D02*
X122074Y-287562D01*
X123386Y-284282D02*
X124042Y-283626D01*
X125354D01*
X126010Y-284282D01*
Y-284938D01*
X125354Y-285594D01*
X124698D01*
X125354D01*
X126010Y-286250D01*
Y-286906D01*
X125354Y-287562D01*
X124042D01*
X123386Y-286906D01*
X127322Y-284282D02*
X127978Y-283626D01*
X129290D01*
X129946Y-284282D01*
Y-284938D01*
X129290Y-285594D01*
X129946Y-286250D01*
Y-286906D01*
X129290Y-287562D01*
X127978D01*
X127322Y-286906D01*
Y-286250D01*
X127978Y-285594D01*
X127322Y-284938D01*
Y-284282D01*
X127978Y-285594D02*
X129290D01*
X104750Y-287562D02*
Y-283626D01*
X106718D01*
X107374Y-284282D01*
Y-285594D01*
X106718Y-286250D01*
X104750D01*
X106062D02*
X107374Y-287562D01*
X108686Y-284282D02*
X109342Y-283626D01*
X110654D01*
X111310Y-284282D01*
Y-284938D01*
X110654Y-285594D01*
X109998D01*
X110654D01*
X111310Y-286250D01*
Y-286906D01*
X110654Y-287562D01*
X109342D01*
X108686Y-286906D01*
X112622Y-283626D02*
X115246D01*
Y-284282D01*
X112622Y-286906D01*
Y-287562D01*
X119450Y-274662D02*
Y-270726D01*
X121418D01*
X122074Y-271382D01*
Y-272694D01*
X121418Y-273350D01*
X119450D01*
X120762D02*
X122074Y-274662D01*
X123386Y-271382D02*
X124042Y-270726D01*
X125354D01*
X126010Y-271382D01*
Y-272038D01*
X125354Y-272694D01*
X124698D01*
X125354D01*
X126010Y-273350D01*
Y-274006D01*
X125354Y-274662D01*
X124042D01*
X123386Y-274006D01*
X129946Y-270726D02*
X128634Y-271382D01*
X127322Y-272694D01*
Y-274006D01*
X127978Y-274662D01*
X129290D01*
X129946Y-274006D01*
Y-273350D01*
X129290Y-272694D01*
X127322D01*
X290150Y-89162D02*
Y-85226D01*
X292118D01*
X292774Y-85882D01*
Y-87194D01*
X292118Y-87850D01*
X290150D01*
X291462D02*
X292774Y-89162D01*
X294086Y-85882D02*
X294742Y-85226D01*
X296054D01*
X296710Y-85882D01*
Y-86538D01*
X296054Y-87194D01*
X295398D01*
X296054D01*
X296710Y-87850D01*
Y-88506D01*
X296054Y-89162D01*
X294742D01*
X294086Y-88506D01*
X300646Y-85226D02*
X298022D01*
Y-87194D01*
X299334Y-86538D01*
X299990D01*
X300646Y-87194D01*
Y-88506D01*
X299990Y-89162D01*
X298678D01*
X298022Y-88506D01*
X104250Y-304562D02*
Y-300626D01*
X106218D01*
X106874Y-301282D01*
Y-302594D01*
X106218Y-303250D01*
X104250D01*
X105562D02*
X106874Y-304562D01*
X108186Y-301282D02*
X108842Y-300626D01*
X110154D01*
X110810Y-301282D01*
Y-301938D01*
X110154Y-302594D01*
X109498D01*
X110154D01*
X110810Y-303250D01*
Y-303906D01*
X110154Y-304562D01*
X108842D01*
X108186Y-303906D01*
X114746Y-304562D02*
X112122D01*
X114746Y-301938D01*
Y-301282D01*
X114090Y-300626D01*
X112778D01*
X112122Y-301282D01*
X171450Y-275962D02*
Y-272026D01*
X173418D01*
X174074Y-272682D01*
Y-273994D01*
X173418Y-274650D01*
X171450D01*
X172762D02*
X174074Y-275962D01*
X175386Y-272682D02*
X176042Y-272026D01*
X177354D01*
X178010Y-272682D01*
Y-273338D01*
X177354Y-273994D01*
X176698D01*
X177354D01*
X178010Y-274650D01*
Y-275306D01*
X177354Y-275962D01*
X176042D01*
X175386Y-275306D01*
X179322Y-275962D02*
X180634D01*
X179978D01*
Y-272026D01*
X179322Y-272682D01*
X138150Y-187562D02*
Y-183626D01*
X140118D01*
X140774Y-184282D01*
Y-185594D01*
X140118Y-186250D01*
X138150D01*
X139462D02*
X140774Y-187562D01*
X144710D02*
X142086D01*
X144710Y-184938D01*
Y-184282D01*
X144054Y-183626D01*
X142742D01*
X142086Y-184282D01*
X148646Y-183626D02*
X146022D01*
Y-185594D01*
X147334Y-184938D01*
X147990D01*
X148646Y-185594D01*
Y-186906D01*
X147990Y-187562D01*
X146678D01*
X146022Y-186906D01*
X46450Y-280262D02*
X50386D01*
Y-282230D01*
X49730Y-282886D01*
X48418D01*
X47762Y-282230D01*
Y-280262D01*
Y-281574D02*
X46450Y-282886D01*
Y-286822D02*
Y-284198D01*
X49074Y-286822D01*
X49730D01*
X50386Y-286166D01*
Y-284854D01*
X49730Y-284198D01*
X46450Y-290102D02*
X50386D01*
X48418Y-288134D01*
Y-290757D01*
X38150Y-280262D02*
X42086D01*
Y-282230D01*
X41430Y-282886D01*
X40118D01*
X39462Y-282230D01*
Y-280262D01*
Y-281574D02*
X38150Y-282886D01*
Y-286822D02*
Y-284198D01*
X40774Y-286822D01*
X41430D01*
X42086Y-286166D01*
Y-284854D01*
X41430Y-284198D01*
Y-288134D02*
X42086Y-288790D01*
Y-290102D01*
X41430Y-290757D01*
X40774D01*
X40118Y-290102D01*
Y-289445D01*
Y-290102D01*
X39462Y-290757D01*
X38806D01*
X38150Y-290102D01*
Y-288790D01*
X38806Y-288134D01*
X376350Y-293062D02*
X372415D01*
Y-291094D01*
X373071Y-290438D01*
X374383D01*
X375039Y-291094D01*
Y-293062D01*
Y-291750D02*
X376350Y-290438D01*
X372415Y-289126D02*
Y-286503D01*
X373071D01*
X375694Y-289126D01*
X376350D01*
X288650Y-226362D02*
Y-222426D01*
X290618D01*
X291274Y-223082D01*
Y-224394D01*
X290618Y-225050D01*
X288650D01*
X289962D02*
X291274Y-226362D01*
X295210Y-222426D02*
X293898Y-223082D01*
X292586Y-224394D01*
Y-225706D01*
X293242Y-226362D01*
X294554D01*
X295210Y-225706D01*
Y-225050D01*
X294554Y-224394D01*
X292586D01*
X310950Y-224662D02*
Y-220726D01*
X312918D01*
X313574Y-221382D01*
Y-222694D01*
X312918Y-223350D01*
X310950D01*
X312262D02*
X313574Y-224662D01*
X316854D02*
Y-220726D01*
X314886Y-222694D01*
X317510D01*
X121250Y1602D02*
Y5538D01*
X118627D01*
X114691Y1602D02*
X117315D01*
Y5538D01*
X114691D01*
X117315Y3570D02*
X116003D01*
X113379Y1602D02*
Y5538D01*
X111411D01*
X110755Y4882D01*
Y2258D01*
X111411Y1602D01*
X113379D01*
X106819D02*
X108131Y2258D01*
X109443Y3570D01*
Y4882D01*
X108787Y5538D01*
X107475D01*
X106819Y4882D01*
Y4226D01*
X107475Y3570D01*
X109443D01*
X36000Y-310764D02*
Y-314700D01*
X38624D01*
X42560Y-310764D02*
X39936D01*
Y-314700D01*
X42560D01*
X39936Y-312732D02*
X41248D01*
X43872Y-310764D02*
Y-314700D01*
X45839D01*
X46495Y-314044D01*
Y-311420D01*
X45839Y-310764D01*
X43872D01*
X47807Y-314044D02*
X48463Y-314700D01*
X49775D01*
X50431Y-314044D01*
Y-311420D01*
X49775Y-310764D01*
X48463D01*
X47807Y-311420D01*
Y-312076D01*
X48463Y-312732D01*
X50431D01*
X372415Y-282662D02*
X376350D01*
Y-280038D01*
X372415Y-276103D02*
Y-278726D01*
X376350D01*
Y-276103D01*
X374383Y-278726D02*
Y-277414D01*
X372415Y-274791D02*
X376350D01*
Y-272823D01*
X375694Y-272167D01*
X373071D01*
X372415Y-272823D01*
Y-274791D01*
Y-268231D02*
Y-270855D01*
X374383D01*
X373727Y-269543D01*
Y-268887D01*
X374383Y-268231D01*
X375694D01*
X376350Y-268887D01*
Y-270199D01*
X375694Y-270855D01*
X280750Y-323426D02*
Y-327362D01*
X283374D01*
X287310Y-324082D02*
X286654Y-323426D01*
X285342D01*
X284686Y-324082D01*
Y-326706D01*
X285342Y-327362D01*
X286654D01*
X287310Y-326706D01*
X291246Y-323426D02*
X288622D01*
Y-325394D01*
X289934Y-324738D01*
X290590D01*
X291246Y-325394D01*
Y-326706D01*
X290590Y-327362D01*
X289278D01*
X288622Y-326706D01*
X300250Y-47398D02*
Y-43462D01*
X297627D01*
X293691Y-46742D02*
X294347Y-47398D01*
X295659D01*
X296315Y-46742D01*
Y-44118D01*
X295659Y-43462D01*
X294347D01*
X293691Y-44118D01*
X290411Y-43462D02*
Y-47398D01*
X292379Y-45430D01*
X289755D01*
X304850Y-85626D02*
Y-89562D01*
X307474D01*
X311410Y-86282D02*
X310754Y-85626D01*
X309442D01*
X308786Y-86282D01*
Y-88906D01*
X309442Y-89562D01*
X310754D01*
X311410Y-88906D01*
X312722Y-86282D02*
X313378Y-85626D01*
X314690D01*
X315346Y-86282D01*
Y-86938D01*
X314690Y-87594D01*
X314034D01*
X314690D01*
X315346Y-88250D01*
Y-88906D01*
X314690Y-89562D01*
X313378D01*
X312722Y-88906D01*
X50267Y-119062D02*
X46332D01*
Y-121686D01*
X49611Y-125622D02*
X50267Y-124966D01*
Y-123654D01*
X49611Y-122998D01*
X46988D01*
X46332Y-123654D01*
Y-124966D01*
X46988Y-125622D01*
X46332Y-129557D02*
Y-126934D01*
X48955Y-129557D01*
X49611D01*
X50267Y-128902D01*
Y-127590D01*
X49611Y-126934D01*
X138000Y-220264D02*
Y-224200D01*
X140624D01*
X144560Y-220920D02*
X143904Y-220264D01*
X142592D01*
X141936Y-220920D01*
Y-223544D01*
X142592Y-224200D01*
X143904D01*
X144560Y-223544D01*
X145871Y-224200D02*
X147183D01*
X146527D01*
Y-220264D01*
X145871Y-220920D01*
X200350Y-302526D02*
Y-306462D01*
X202974D01*
X204286Y-303182D02*
X204942Y-302526D01*
X206254D01*
X206910Y-303182D01*
Y-303838D01*
X206254Y-304494D01*
X205598D01*
X206254D01*
X206910Y-305150D01*
Y-305806D01*
X206254Y-306462D01*
X204942D01*
X204286Y-305806D01*
X278774Y-221326D02*
X277462D01*
X278118D01*
Y-224606D01*
X277462Y-225262D01*
X276806D01*
X276150Y-224606D01*
X280086Y-225262D02*
Y-221326D01*
X282054D01*
X282710Y-221982D01*
Y-223294D01*
X282054Y-223950D01*
X280086D01*
X285990Y-225262D02*
Y-221326D01*
X284022Y-223294D01*
X286646D01*
X47286Y-233186D02*
Y-231874D01*
Y-232530D01*
X44006D01*
X43350Y-231874D01*
Y-231218D01*
X44006Y-230562D01*
X43350Y-234498D02*
X47286D01*
Y-236466D01*
X46630Y-237122D01*
X45318D01*
X44662Y-236466D01*
Y-234498D01*
X46630Y-238434D02*
X47286Y-239090D01*
Y-240402D01*
X46630Y-241057D01*
X45974D01*
X45318Y-240402D01*
Y-239745D01*
Y-240402D01*
X44662Y-241057D01*
X44006D01*
X43350Y-240402D01*
Y-239090D01*
X44006Y-238434D01*
X48386Y-52486D02*
Y-51174D01*
Y-51830D01*
X45106D01*
X44450Y-51174D01*
Y-50518D01*
X45106Y-49862D01*
X44450Y-56422D02*
Y-53798D01*
X47074Y-56422D01*
X47730D01*
X48386Y-55766D01*
Y-54454D01*
X47730Y-53798D01*
Y-57734D02*
X48386Y-58390D01*
Y-59702D01*
X47730Y-60357D01*
X47074D01*
X46418Y-59702D01*
Y-59045D01*
Y-59702D01*
X45762Y-60357D01*
X45106D01*
X44450Y-59702D01*
Y-58390D01*
X45106Y-57734D01*
X48386Y-61669D02*
Y-64293D01*
X47730D01*
X45106Y-61669D01*
X44450D01*
X288850Y-150026D02*
Y-153962D01*
X290818D01*
X291474Y-153306D01*
Y-150682D01*
X290818Y-150026D01*
X288850D01*
X292786Y-153962D02*
X294098D01*
X293442D01*
Y-150026D01*
X292786Y-150682D01*
X172627Y-12742D02*
X173283Y-13398D01*
X174594D01*
X175250Y-12742D01*
Y-10118D01*
X174594Y-9462D01*
X173283D01*
X172627Y-10118D01*
X168691Y-13398D02*
X170003Y-12742D01*
X171315Y-11430D01*
Y-10118D01*
X170659Y-9462D01*
X169347D01*
X168691Y-10118D01*
Y-10774D01*
X169347Y-11430D01*
X171315D01*
X167379Y-12742D02*
X166723Y-13398D01*
X165411D01*
X164755Y-12742D01*
Y-10118D01*
X165411Y-9462D01*
X166723D01*
X167379Y-10118D01*
Y-12742D01*
X194627Y-11742D02*
X195283Y-12398D01*
X196595D01*
X197250Y-11742D01*
Y-9118D01*
X196595Y-8462D01*
X195283D01*
X194627Y-9118D01*
X190691Y-12398D02*
X193315D01*
Y-10430D01*
X192003Y-11086D01*
X191347D01*
X190691Y-10430D01*
Y-9118D01*
X191347Y-8462D01*
X192659D01*
X193315Y-9118D01*
X189379D02*
X188723Y-8462D01*
X187411D01*
X186755Y-9118D01*
Y-11742D01*
X187411Y-12398D01*
X188723D01*
X189379Y-11742D01*
Y-11086D01*
X188723Y-10430D01*
X186755D01*
X160627Y-12742D02*
X161283Y-13398D01*
X162594D01*
X163250Y-12742D01*
Y-10118D01*
X162594Y-9462D01*
X161283D01*
X160627Y-10118D01*
X156691Y-13398D02*
X159315D01*
Y-11430D01*
X158003Y-12086D01*
X157347D01*
X156691Y-11430D01*
Y-10118D01*
X157347Y-9462D01*
X158659D01*
X159315Y-10118D01*
X155379Y-12742D02*
X154723Y-13398D01*
X153411D01*
X152755Y-12742D01*
Y-12086D01*
X153411Y-11430D01*
X152755Y-10774D01*
Y-10118D01*
X153411Y-9462D01*
X154723D01*
X155379Y-10118D01*
Y-10774D01*
X154723Y-11430D01*
X155379Y-12086D01*
Y-12742D01*
X154723Y-11430D02*
X153411D01*
X148774Y-63382D02*
X148118Y-62726D01*
X146806D01*
X146150Y-63382D01*
Y-66006D01*
X146806Y-66662D01*
X148118D01*
X148774Y-66006D01*
X152710Y-62726D02*
X150086D01*
Y-64694D01*
X151398Y-64038D01*
X152054D01*
X152710Y-64694D01*
Y-66006D01*
X152054Y-66662D01*
X150742D01*
X150086Y-66006D01*
X156646Y-62726D02*
X155334Y-63382D01*
X154022Y-64694D01*
Y-66006D01*
X154678Y-66662D01*
X155990D01*
X156646Y-66006D01*
Y-65350D01*
X155990Y-64694D01*
X154022D01*
X173574Y-55382D02*
X172918Y-54726D01*
X171606D01*
X170950Y-55382D01*
Y-58006D01*
X171606Y-58662D01*
X172918D01*
X173574Y-58006D01*
X177510Y-54726D02*
X174886D01*
Y-56694D01*
X176198Y-56038D01*
X176854D01*
X177510Y-56694D01*
Y-58006D01*
X176854Y-58662D01*
X175542D01*
X174886Y-58006D01*
X181446Y-54726D02*
X178822D01*
Y-56694D01*
X180134Y-56038D01*
X180790D01*
X181446Y-56694D01*
Y-58006D01*
X180790Y-58662D01*
X179478D01*
X178822Y-58006D01*
X195474Y-58282D02*
X194818Y-57626D01*
X193506D01*
X192850Y-58282D01*
Y-60906D01*
X193506Y-61562D01*
X194818D01*
X195474Y-60906D01*
X199410Y-57626D02*
X196786D01*
Y-59594D01*
X198098Y-58938D01*
X198754D01*
X199410Y-59594D01*
Y-60906D01*
X198754Y-61562D01*
X197442D01*
X196786Y-60906D01*
X203346Y-61562D02*
X200722D01*
X203346Y-58938D01*
Y-58282D01*
X202690Y-57626D01*
X201378D01*
X200722Y-58282D01*
X313074Y-99882D02*
X312418Y-99226D01*
X311106D01*
X310450Y-99882D01*
Y-102506D01*
X311106Y-103162D01*
X312418D01*
X313074Y-102506D01*
X317010Y-99226D02*
X314386D01*
Y-101194D01*
X315698Y-100538D01*
X316354D01*
X317010Y-101194D01*
Y-102506D01*
X316354Y-103162D01*
X315042D01*
X314386Y-102506D01*
X318322Y-103162D02*
X319634D01*
X318978D01*
Y-99226D01*
X318322Y-99882D01*
X300274Y-122182D02*
X299618Y-121526D01*
X298306D01*
X297650Y-122182D01*
Y-124806D01*
X298306Y-125462D01*
X299618D01*
X300274Y-124806D01*
X304210Y-121526D02*
X301586D01*
Y-123494D01*
X302898Y-122838D01*
X303554D01*
X304210Y-123494D01*
Y-124806D01*
X303554Y-125462D01*
X302242D01*
X301586Y-124806D01*
X305522Y-122182D02*
X306178Y-121526D01*
X307490D01*
X308146Y-122182D01*
Y-124806D01*
X307490Y-125462D01*
X306178D01*
X305522Y-124806D01*
Y-122182D01*
X283874Y-97682D02*
X283218Y-97026D01*
X281906D01*
X281250Y-97682D01*
Y-100306D01*
X281906Y-100962D01*
X283218D01*
X283874Y-100306D01*
X287154Y-100962D02*
Y-97026D01*
X285186Y-98994D01*
X287810D01*
X289122Y-100306D02*
X289778Y-100962D01*
X291090D01*
X291746Y-100306D01*
Y-97682D01*
X291090Y-97026D01*
X289778D01*
X289122Y-97682D01*
Y-98338D01*
X289778Y-98994D01*
X291746D01*
X268574Y-98682D02*
X267918Y-98026D01*
X266606D01*
X265950Y-98682D01*
Y-101306D01*
X266606Y-101962D01*
X267918D01*
X268574Y-101306D01*
X271854Y-101962D02*
Y-98026D01*
X269886Y-99994D01*
X272510D01*
X273822Y-98682D02*
X274478Y-98026D01*
X275790D01*
X276446Y-98682D01*
Y-99338D01*
X275790Y-99994D01*
X276446Y-100650D01*
Y-101306D01*
X275790Y-101962D01*
X274478D01*
X273822Y-101306D01*
Y-100650D01*
X274478Y-99994D01*
X273822Y-99338D01*
Y-98682D01*
X274478Y-99994D02*
X275790D01*
X314274Y-141482D02*
X313618Y-140826D01*
X312306D01*
X311650Y-141482D01*
Y-144106D01*
X312306Y-144762D01*
X313618D01*
X314274Y-144106D01*
X317554Y-144762D02*
Y-140826D01*
X315586Y-142794D01*
X318210D01*
X319522Y-140826D02*
X322146D01*
Y-141482D01*
X319522Y-144106D01*
Y-144762D01*
X277474Y-150682D02*
X276818Y-150026D01*
X275506D01*
X274850Y-150682D01*
Y-153306D01*
X275506Y-153962D01*
X276818D01*
X277474Y-153306D01*
X280754Y-153962D02*
Y-150026D01*
X278786Y-151994D01*
X281410D01*
X285346Y-150026D02*
X284034Y-150682D01*
X282722Y-151994D01*
Y-153306D01*
X283378Y-153962D01*
X284690D01*
X285346Y-153306D01*
Y-152650D01*
X284690Y-151994D01*
X282722D01*
X313374Y-168582D02*
X312718Y-167926D01*
X311406D01*
X310750Y-168582D01*
Y-171206D01*
X311406Y-171862D01*
X312718D01*
X313374Y-171206D01*
X316654Y-171862D02*
Y-167926D01*
X314686Y-169894D01*
X317310D01*
X321246Y-167926D02*
X318622D01*
Y-169894D01*
X319934Y-169238D01*
X320590D01*
X321246Y-169894D01*
Y-171206D01*
X320590Y-171862D01*
X319278D01*
X318622Y-171206D01*
X264774Y-224182D02*
X264118Y-223526D01*
X262806D01*
X262150Y-224182D01*
Y-226806D01*
X262806Y-227462D01*
X264118D01*
X264774Y-226806D01*
X266086Y-224182D02*
X266742Y-223526D01*
X268054D01*
X268710Y-224182D01*
Y-224838D01*
X268054Y-225494D01*
X267398D01*
X268054D01*
X268710Y-226150D01*
Y-226806D01*
X268054Y-227462D01*
X266742D01*
X266086Y-226806D01*
X272646Y-223526D02*
X271334Y-224182D01*
X270022Y-225494D01*
Y-226806D01*
X270678Y-227462D01*
X271990D01*
X272646Y-226806D01*
Y-226150D01*
X271990Y-225494D01*
X270022D01*
X266874Y-262182D02*
X266218Y-261526D01*
X264906D01*
X264250Y-262182D01*
Y-264806D01*
X264906Y-265462D01*
X266218D01*
X266874Y-264806D01*
X268186Y-262182D02*
X268842Y-261526D01*
X270154D01*
X270810Y-262182D01*
Y-262838D01*
X270154Y-263494D01*
X269498D01*
X270154D01*
X270810Y-264150D01*
Y-264806D01*
X270154Y-265462D01*
X268842D01*
X268186Y-264806D01*
X274746Y-261526D02*
X272122D01*
Y-263494D01*
X273434Y-262838D01*
X274090D01*
X274746Y-263494D01*
Y-264806D01*
X274090Y-265462D01*
X272778D01*
X272122Y-264806D01*
X201274Y-283682D02*
X200618Y-283026D01*
X199306D01*
X198650Y-283682D01*
Y-286306D01*
X199306Y-286962D01*
X200618D01*
X201274Y-286306D01*
X202586Y-283682D02*
X203242Y-283026D01*
X204554D01*
X205210Y-283682D01*
Y-284338D01*
X204554Y-284994D01*
X203898D01*
X204554D01*
X205210Y-285650D01*
Y-286306D01*
X204554Y-286962D01*
X203242D01*
X202586Y-286306D01*
X208490Y-286962D02*
Y-283026D01*
X206522Y-284994D01*
X209146D01*
X175174Y-291782D02*
X174518Y-291126D01*
X173206D01*
X172550Y-291782D01*
Y-294406D01*
X173206Y-295062D01*
X174518D01*
X175174Y-294406D01*
X176486Y-291782D02*
X177142Y-291126D01*
X178454D01*
X179110Y-291782D01*
Y-292438D01*
X178454Y-293094D01*
X177798D01*
X178454D01*
X179110Y-293750D01*
Y-294406D01*
X178454Y-295062D01*
X177142D01*
X176486Y-294406D01*
X180422Y-291782D02*
X181078Y-291126D01*
X182390D01*
X183046Y-291782D01*
Y-292438D01*
X182390Y-293094D01*
X181734D01*
X182390D01*
X183046Y-293750D01*
Y-294406D01*
X182390Y-295062D01*
X181078D01*
X180422Y-294406D01*
X175174Y-282982D02*
X174518Y-282326D01*
X173206D01*
X172550Y-282982D01*
Y-285606D01*
X173206Y-286262D01*
X174518D01*
X175174Y-285606D01*
X176486Y-282982D02*
X177142Y-282326D01*
X178454D01*
X179110Y-282982D01*
Y-283638D01*
X178454Y-284294D01*
X177798D01*
X178454D01*
X179110Y-284950D01*
Y-285606D01*
X178454Y-286262D01*
X177142D01*
X176486Y-285606D01*
X183046Y-286262D02*
X180422D01*
X183046Y-283638D01*
Y-282982D01*
X182390Y-282326D01*
X181078D01*
X180422Y-282982D01*
X160074Y-248982D02*
X159418Y-248326D01*
X158106D01*
X157450Y-248982D01*
Y-251606D01*
X158106Y-252262D01*
X159418D01*
X160074Y-251606D01*
X161386Y-248982D02*
X162042Y-248326D01*
X163354D01*
X164010Y-248982D01*
Y-249638D01*
X163354Y-250294D01*
X162698D01*
X163354D01*
X164010Y-250950D01*
Y-251606D01*
X163354Y-252262D01*
X162042D01*
X161386Y-251606D01*
X165322Y-252262D02*
X166634D01*
X165978D01*
Y-248326D01*
X165322Y-248982D01*
X140024Y-164220D02*
X139368Y-163564D01*
X138056D01*
X137400Y-164220D01*
Y-166844D01*
X138056Y-167500D01*
X139368D01*
X140024Y-166844D01*
X141336Y-164220D02*
X141992Y-163564D01*
X143304D01*
X143960Y-164220D01*
Y-164876D01*
X143304Y-165532D01*
X142648D01*
X143304D01*
X143960Y-166188D01*
Y-166844D01*
X143304Y-167500D01*
X141992D01*
X141336Y-166844D01*
X145272Y-164220D02*
X145927Y-163564D01*
X147239D01*
X147895Y-164220D01*
Y-166844D01*
X147239Y-167500D01*
X145927D01*
X145272Y-166844D01*
Y-164220D01*
X172924Y-156120D02*
X172268Y-155464D01*
X170956D01*
X170300Y-156120D01*
Y-158744D01*
X170956Y-159400D01*
X172268D01*
X172924Y-158744D01*
X176860Y-159400D02*
X174236D01*
X176860Y-156776D01*
Y-156120D01*
X176204Y-155464D01*
X174892D01*
X174236Y-156120D01*
X178172Y-158744D02*
X178827Y-159400D01*
X180139D01*
X180795Y-158744D01*
Y-156120D01*
X180139Y-155464D01*
X178827D01*
X178172Y-156120D01*
Y-156776D01*
X178827Y-157432D01*
X180795D01*
X52130Y-70086D02*
X52786Y-69430D01*
Y-68118D01*
X52130Y-67462D01*
X49506D01*
X48850Y-68118D01*
Y-69430D01*
X49506Y-70086D01*
X48850Y-74022D02*
Y-71398D01*
X51474Y-74022D01*
X52130D01*
X52786Y-73366D01*
Y-72054D01*
X52130Y-71398D01*
X178574Y-236782D02*
X177918Y-236126D01*
X176606D01*
X175950Y-236782D01*
Y-239406D01*
X176606Y-240062D01*
X177918D01*
X178574Y-239406D01*
X182510Y-240062D02*
X179886D01*
X182510Y-237438D01*
Y-236782D01*
X181854Y-236126D01*
X180542D01*
X179886Y-236782D01*
X186446Y-236126D02*
X185134Y-236782D01*
X183822Y-238094D01*
Y-239406D01*
X184478Y-240062D01*
X185790D01*
X186446Y-239406D01*
Y-238750D01*
X185790Y-238094D01*
X183822D01*
X202074Y-151382D02*
X201418Y-150726D01*
X200106D01*
X199450Y-151382D01*
Y-154006D01*
X200106Y-154662D01*
X201418D01*
X202074Y-154006D01*
X206010Y-154662D02*
X203386D01*
X206010Y-152038D01*
Y-151382D01*
X205354Y-150726D01*
X204042D01*
X203386Y-151382D01*
X209946Y-150726D02*
X207322D01*
Y-152694D01*
X208634Y-152038D01*
X209290D01*
X209946Y-152694D01*
Y-154006D01*
X209290Y-154662D01*
X207978D01*
X207322Y-154006D01*
X219974Y-164182D02*
X219318Y-163526D01*
X218006D01*
X217350Y-164182D01*
Y-166806D01*
X218006Y-167462D01*
X219318D01*
X219974Y-166806D01*
X223910Y-167462D02*
X221286D01*
X223910Y-164838D01*
Y-164182D01*
X223254Y-163526D01*
X221942D01*
X221286Y-164182D01*
X227190Y-167462D02*
Y-163526D01*
X225222Y-165494D01*
X227846D01*
X195274Y-156682D02*
X194618Y-156026D01*
X193306D01*
X192650Y-156682D01*
Y-159306D01*
X193306Y-159962D01*
X194618D01*
X195274Y-159306D01*
X199210Y-159962D02*
X196586D01*
X199210Y-157338D01*
Y-156682D01*
X198554Y-156026D01*
X197242D01*
X196586Y-156682D01*
X200522D02*
X201178Y-156026D01*
X202490D01*
X203146Y-156682D01*
Y-157338D01*
X202490Y-157994D01*
X201834D01*
X202490D01*
X203146Y-158650D01*
Y-159306D01*
X202490Y-159962D01*
X201178D01*
X200522Y-159306D01*
X220674Y-189482D02*
X220018Y-188826D01*
X218706D01*
X218050Y-189482D01*
Y-192106D01*
X218706Y-192762D01*
X220018D01*
X220674Y-192106D01*
X224610Y-192762D02*
X221986D01*
X224610Y-190138D01*
Y-189482D01*
X223954Y-188826D01*
X222642D01*
X221986Y-189482D01*
X225922Y-192762D02*
X227234D01*
X226578D01*
Y-188826D01*
X225922Y-189482D01*
X200274Y-236882D02*
X199618Y-236226D01*
X198306D01*
X197650Y-236882D01*
Y-239506D01*
X198306Y-240162D01*
X199618D01*
X200274Y-239506D01*
X204210Y-240162D02*
X201586D01*
X204210Y-237538D01*
Y-236882D01*
X203554Y-236226D01*
X202242D01*
X201586Y-236882D01*
X205522D02*
X206178Y-236226D01*
X207490D01*
X208146Y-236882D01*
Y-239506D01*
X207490Y-240162D01*
X206178D01*
X205522Y-239506D01*
Y-236882D01*
X156874Y-176882D02*
X156218Y-176226D01*
X154906D01*
X154250Y-176882D01*
Y-179506D01*
X154906Y-180162D01*
X156218D01*
X156874Y-179506D01*
X158186Y-180162D02*
X159498D01*
X158842D01*
Y-176226D01*
X158186Y-176882D01*
X161466Y-179506D02*
X162122Y-180162D01*
X163434D01*
X164090Y-179506D01*
Y-176882D01*
X163434Y-176226D01*
X162122D01*
X161466Y-176882D01*
Y-177538D01*
X162122Y-178194D01*
X164090D01*
X177524Y-161820D02*
X176868Y-161164D01*
X175556D01*
X174900Y-161820D01*
Y-164444D01*
X175556Y-165100D01*
X176868D01*
X177524Y-164444D01*
X178836Y-165100D02*
X180148D01*
X179492D01*
Y-161164D01*
X178836Y-161820D01*
X182115D02*
X182772Y-161164D01*
X184083D01*
X184739Y-161820D01*
Y-162476D01*
X184083Y-163132D01*
X184739Y-163788D01*
Y-164444D01*
X184083Y-165100D01*
X182772D01*
X182115Y-164444D01*
Y-163788D01*
X182772Y-163132D01*
X182115Y-162476D01*
Y-161820D01*
X182772Y-163132D02*
X184083D01*
X220274Y-208382D02*
X219618Y-207726D01*
X218306D01*
X217650Y-208382D01*
Y-211006D01*
X218306Y-211662D01*
X219618D01*
X220274Y-211006D01*
X221586Y-211662D02*
X222898D01*
X222242D01*
Y-207726D01*
X221586Y-208382D01*
X224866Y-207726D02*
X227490D01*
Y-208382D01*
X224866Y-211006D01*
Y-211662D01*
X143924Y-204620D02*
X143268Y-203964D01*
X141956D01*
X141300Y-204620D01*
Y-207244D01*
X141956Y-207900D01*
X143268D01*
X143924Y-207244D01*
X145236Y-207900D02*
X146548D01*
X145892D01*
Y-203964D01*
X145236Y-204620D01*
X151139Y-203964D02*
X149827Y-204620D01*
X148515Y-205932D01*
Y-207244D01*
X149171Y-207900D01*
X150483D01*
X151139Y-207244D01*
Y-206588D01*
X150483Y-205932D01*
X148515D01*
X144024Y-196920D02*
X143368Y-196264D01*
X142056D01*
X141400Y-196920D01*
Y-199544D01*
X142056Y-200200D01*
X143368D01*
X144024Y-199544D01*
X145336Y-200200D02*
X146648D01*
X145992D01*
Y-196264D01*
X145336Y-196920D01*
X151239Y-196264D02*
X148616D01*
Y-198232D01*
X149927Y-197576D01*
X150583D01*
X151239Y-198232D01*
Y-199544D01*
X150583Y-200200D01*
X149272D01*
X148616Y-199544D01*
X41274Y-160182D02*
X40618Y-159526D01*
X39306D01*
X38650Y-160182D01*
Y-162806D01*
X39306Y-163462D01*
X40618D01*
X41274Y-162806D01*
X42586Y-163462D02*
X43898D01*
X43242D01*
Y-159526D01*
X42586Y-160182D01*
X47834Y-163462D02*
Y-159526D01*
X45866Y-161494D01*
X48490D01*
X26974Y-160482D02*
X26318Y-159826D01*
X25006D01*
X24350Y-160482D01*
Y-163106D01*
X25006Y-163762D01*
X26318D01*
X26974Y-163106D01*
X28286Y-163762D02*
X29598D01*
X28942D01*
Y-159826D01*
X28286Y-160482D01*
X31566D02*
X32222Y-159826D01*
X33534D01*
X34190Y-160482D01*
Y-161138D01*
X33534Y-161794D01*
X32878D01*
X33534D01*
X34190Y-162450D01*
Y-163106D01*
X33534Y-163762D01*
X32222D01*
X31566Y-163106D01*
X282974Y-187282D02*
X282318Y-186626D01*
X281006D01*
X280350Y-187282D01*
Y-189906D01*
X281006Y-190562D01*
X282318D01*
X282974Y-189906D01*
X284286Y-187282D02*
X284942Y-186626D01*
X286254D01*
X286910Y-187282D01*
Y-187938D01*
X286254Y-188594D01*
X285598D01*
X286254D01*
X286910Y-189250D01*
Y-189906D01*
X286254Y-190562D01*
X284942D01*
X284286Y-189906D01*
X268374Y-186782D02*
X267718Y-186126D01*
X266406D01*
X265750Y-186782D01*
Y-189406D01*
X266406Y-190062D01*
X267718D01*
X268374Y-189406D01*
X272310Y-190062D02*
X269686D01*
X272310Y-187438D01*
Y-186782D01*
X271654Y-186126D01*
X270342D01*
X269686Y-186782D01*
X273622Y-186126D02*
X276246D01*
Y-186782D01*
X273622Y-189406D01*
Y-190062D01*
X313974Y-186982D02*
X313318Y-186326D01*
X312006D01*
X311350Y-186982D01*
Y-189606D01*
X312006Y-190262D01*
X313318D01*
X313974Y-189606D01*
X315286Y-190262D02*
X316598D01*
X315942D01*
Y-186326D01*
X315286Y-186982D01*
X364315Y-58462D02*
X368250D01*
X366283D01*
Y-55838D01*
X364315D01*
X368250D01*
Y-51903D02*
Y-54526D01*
X365627Y-51903D01*
X364971D01*
X364315Y-52558D01*
Y-53870D01*
X364971Y-54526D01*
X316050Y-91826D02*
Y-95762D01*
Y-93794D01*
X318674D01*
Y-91826D01*
Y-95762D01*
X319986D02*
X321298D01*
X320642D01*
Y-91826D01*
X319986Y-92482D01*
X24786Y-229986D02*
Y-228674D01*
Y-229330D01*
X21506D01*
X20850Y-228674D01*
Y-228018D01*
X21506Y-227362D01*
X20850Y-233922D02*
Y-231298D01*
X23474Y-233922D01*
X24130D01*
X24786Y-233266D01*
Y-231954D01*
X24130Y-231298D01*
Y-235234D02*
X24786Y-235890D01*
Y-237201D01*
X24130Y-237858D01*
X23474D01*
X22818Y-237201D01*
Y-236545D01*
Y-237201D01*
X22162Y-237858D01*
X21506D01*
X20850Y-237201D01*
Y-235890D01*
X21506Y-235234D01*
X20850Y-241793D02*
Y-239169D01*
X23474Y-241793D01*
X24130D01*
X24786Y-241137D01*
Y-239825D01*
X24130Y-239169D01*
X298174Y-297526D02*
X296862D01*
X297518D01*
Y-300806D01*
X296862Y-301462D01*
X296206D01*
X295550Y-300806D01*
X302110Y-301462D02*
X299486D01*
X302110Y-298838D01*
Y-298182D01*
X301454Y-297526D01*
X300142D01*
X299486Y-298182D01*
X303422D02*
X304078Y-297526D01*
X305390D01*
X306046Y-298182D01*
Y-298838D01*
X305390Y-299494D01*
X304734D01*
X305390D01*
X306046Y-300150D01*
Y-300806D01*
X305390Y-301462D01*
X304078D01*
X303422Y-300806D01*
X307358Y-298182D02*
X308014Y-297526D01*
X309326D01*
X309981Y-298182D01*
Y-298838D01*
X309326Y-299494D01*
X308670D01*
X309326D01*
X309981Y-300150D01*
Y-300806D01*
X309326Y-301462D01*
X308014D01*
X307358Y-300806D01*
X40086Y-297286D02*
Y-295974D01*
Y-296630D01*
X36806D01*
X36150Y-295974D01*
Y-295318D01*
X36806Y-294662D01*
X36150Y-301222D02*
Y-298598D01*
X38774Y-301222D01*
X39430D01*
X40086Y-300566D01*
Y-299254D01*
X39430Y-298598D01*
Y-302534D02*
X40086Y-303190D01*
Y-304502D01*
X39430Y-305157D01*
X38774D01*
X38118Y-304502D01*
Y-303846D01*
Y-304502D01*
X37462Y-305157D01*
X36806D01*
X36150Y-304502D01*
Y-303190D01*
X36806Y-302534D01*
X36150Y-308437D02*
X40086D01*
X38118Y-306469D01*
Y-309093D01*
X265374Y-297126D02*
X264062D01*
X264718D01*
Y-300406D01*
X264062Y-301062D01*
X263406D01*
X262750Y-300406D01*
X269310Y-301062D02*
X266686D01*
X269310Y-298438D01*
Y-297782D01*
X268654Y-297126D01*
X267342D01*
X266686Y-297782D01*
X270622D02*
X271278Y-297126D01*
X272590D01*
X273246Y-297782D01*
Y-298438D01*
X272590Y-299094D01*
X271934D01*
X272590D01*
X273246Y-299750D01*
Y-300406D01*
X272590Y-301062D01*
X271278D01*
X270622Y-300406D01*
X277182Y-297126D02*
X275870Y-297782D01*
X274558Y-299094D01*
Y-300406D01*
X275214Y-301062D01*
X276525D01*
X277182Y-300406D01*
Y-299750D01*
X276525Y-299094D01*
X274558D01*
X110627Y-12898D02*
X111939D01*
X111283D01*
Y-9618D01*
X111939Y-8962D01*
X112594D01*
X113250Y-9618D01*
X106691Y-8962D02*
X109315D01*
X106691Y-11586D01*
Y-12242D01*
X107347Y-12898D01*
X108659D01*
X109315Y-12242D01*
X105379D02*
X104723Y-12898D01*
X103411D01*
X102755Y-12242D01*
Y-11586D01*
X103411Y-10930D01*
X104067D01*
X103411D01*
X102755Y-10274D01*
Y-9618D01*
X103411Y-8962D01*
X104723D01*
X105379Y-9618D01*
X101443Y-12242D02*
X100787Y-12898D01*
X99475D01*
X98819Y-12242D01*
Y-11586D01*
X99475Y-10930D01*
X98819Y-10274D01*
Y-9618D01*
X99475Y-8962D01*
X100787D01*
X101443Y-9618D01*
Y-10274D01*
X100787Y-10930D01*
X101443Y-11586D01*
Y-12242D01*
X100787Y-10930D02*
X99475D01*
X97508Y-8962D02*
Y-9618D01*
X96851D01*
Y-8962D01*
X97508D01*
X94228D02*
X92916D01*
X93572D01*
Y-12898D01*
X94228Y-12242D01*
X313827Y-42398D02*
X315139D01*
X314483D01*
Y-39118D01*
X315139Y-38462D01*
X315794D01*
X316450Y-39118D01*
X309891Y-38462D02*
X312515D01*
X309891Y-41086D01*
Y-41742D01*
X310547Y-42398D01*
X311859D01*
X312515Y-41742D01*
X308579D02*
X307923Y-42398D01*
X306611D01*
X305955Y-41742D01*
Y-41086D01*
X306611Y-40430D01*
X307267D01*
X306611D01*
X305955Y-39774D01*
Y-39118D01*
X306611Y-38462D01*
X307923D01*
X308579Y-39118D01*
X304643D02*
X303987Y-38462D01*
X302675D01*
X302019Y-39118D01*
Y-41742D01*
X302675Y-42398D01*
X303987D01*
X304643Y-41742D01*
Y-41086D01*
X303987Y-40430D01*
X302019D01*
X279027Y-37298D02*
X280339D01*
X279683D01*
Y-34018D01*
X280339Y-33362D01*
X280995D01*
X281650Y-34018D01*
X275091Y-33362D02*
X277715D01*
X275091Y-35986D01*
Y-36642D01*
X275747Y-37298D01*
X277059D01*
X277715Y-36642D01*
X271811Y-33362D02*
Y-37298D01*
X273779Y-35330D01*
X271155D01*
X269843Y-36642D02*
X269187Y-37298D01*
X267875D01*
X267219Y-36642D01*
Y-34018D01*
X267875Y-33362D01*
X269187D01*
X269843Y-34018D01*
Y-36642D01*
X147750Y-294326D02*
Y-297606D01*
X148406Y-298262D01*
X149718D01*
X150374Y-297606D01*
Y-294326D01*
X151686Y-298262D02*
X152998D01*
X152342D01*
Y-294326D01*
X151686Y-294982D01*
X157590Y-298262D02*
X154966D01*
X157590Y-295638D01*
Y-294982D01*
X156934Y-294326D01*
X155622D01*
X154966Y-294982D01*
X49300Y-105400D02*
X53236D01*
Y-107368D01*
X52580Y-108024D01*
X51268D01*
X50612Y-107368D01*
Y-105400D01*
Y-106712D02*
X49300Y-108024D01*
X52580Y-109336D02*
X53236Y-109992D01*
Y-111304D01*
X52580Y-111960D01*
X51924D01*
X51268Y-111304D01*
X50612Y-111960D01*
X49956D01*
X49300Y-111304D01*
Y-109992D01*
X49956Y-109336D01*
X50612D01*
X51268Y-109992D01*
X51924Y-109336D01*
X52580D01*
X51268Y-109992D02*
Y-111304D01*
X49300Y-113271D02*
Y-114583D01*
Y-113927D01*
X53236D01*
X52580Y-113271D01*
X158450Y-70962D02*
Y-67026D01*
X160418D01*
X161074Y-67682D01*
Y-68994D01*
X160418Y-69650D01*
X158450D01*
X159762D02*
X161074Y-70962D01*
X162386Y-67026D02*
X165010D01*
Y-67682D01*
X162386Y-70306D01*
Y-70962D01*
X166322Y-70306D02*
X166978Y-70962D01*
X168290D01*
X168946Y-70306D01*
Y-67682D01*
X168290Y-67026D01*
X166978D01*
X166322Y-67682D01*
Y-68338D01*
X166978Y-68994D01*
X168946D01*
X371815Y-317862D02*
X375750D01*
Y-315894D01*
X375095Y-315238D01*
X372471D01*
X371815Y-315894D01*
Y-317862D01*
Y-311303D02*
Y-312614D01*
Y-311959D01*
X375095D01*
X375750Y-312614D01*
Y-313270D01*
X375095Y-313926D01*
X371815Y-309991D02*
X375750D01*
X374439Y-308679D01*
X375750Y-307367D01*
X371815D01*
D87*
X319356Y-329463D02*
X321355D01*
Y-329963D01*
X319356Y-331962D01*
Y-332462D01*
X321355D01*
X295556Y-324363D02*
Y-324863D01*
X296555Y-325863D01*
X297555Y-324863D01*
Y-324363D01*
X296555Y-325863D02*
Y-327362D01*
X314256Y-305363D02*
X316255Y-308362D01*
Y-305363D02*
X314256Y-308362D01*
D116*
X278537Y-190648D02*
G03*
X278537Y-190648I-492J0D01*
G01*
X177903Y-266957D02*
G03*
X177903Y-266957I-492J0D01*
G01*
X310637Y-134702D02*
G03*
X310637Y-134702I-492J0D01*
G01*
X278537Y-102501D02*
G03*
X278537Y-102501I-492J0D01*
G01*
X294537D02*
G03*
X294537Y-102501I-492J0D01*
G01*
X176782Y-13968D02*
G03*
X176782Y-13968I-492J0D01*
G01*
X281554Y-145742D02*
G03*
X281554Y-145742I-492J0D01*
G01*
X288596Y-216090D02*
G03*
X288596Y-216090I-492J0D01*
G01*
X167949Y-180583D02*
G03*
X167949Y-180583I-492J0D01*
G01*
X290671Y-176709D02*
G03*
X290671Y-176709I-492J0D01*
G01*
X310431Y-109782D02*
G03*
X310431Y-109782I-492J0D01*
G01*
X135383Y-13676D02*
G03*
X135383Y-13676I-492J0D01*
G01*
D117*
X294226Y-207724D02*
G03*
X294226Y-207724I-1181J0D01*
G01*
X282994Y-171768D02*
G03*
X282994Y-171768I-1181J0D01*
G01*
X144241Y-18597D02*
G03*
X144241Y-18597I-1181J0D01*
G01*
D118*
X189276Y-166250D02*
Y-164675D01*
X192425Y-166250D02*
Y-164675D01*
X44176Y-71549D02*
Y-69975D01*
X47325Y-71549D02*
Y-69975D01*
X156463Y-200037D02*
X158038D01*
X156463Y-196887D02*
X158038D01*
X156463Y-207637D02*
X158038D01*
X156463Y-204487D02*
X158038D01*
X221763Y-203387D02*
X223338D01*
X221763Y-206537D02*
X223338D01*
X179213Y-166625D02*
X180787D01*
X179213Y-169775D02*
X180787D01*
X157676Y-186549D02*
Y-184975D01*
X160825Y-186549D02*
Y-184975D01*
X204425Y-231550D02*
Y-229975D01*
X201276Y-231550D02*
Y-229975D01*
X221763Y-194087D02*
X223338D01*
X221763Y-197237D02*
X223338D01*
X196276Y-166250D02*
Y-164675D01*
X199425Y-166250D02*
Y-164675D01*
X203276Y-166250D02*
Y-164675D01*
X206425Y-166250D02*
Y-164675D01*
X182625Y-231550D02*
Y-229975D01*
X179476Y-231550D02*
Y-229975D01*
X188163Y-285637D02*
X189738D01*
X188163Y-282487D02*
X189738D01*
X188163Y-294837D02*
X189738D01*
X188163Y-291687D02*
X189738D01*
X202076Y-293849D02*
Y-292275D01*
X205225Y-293849D02*
Y-292275D01*
X197363Y-66137D02*
X198938D01*
X197363Y-62987D02*
X198938D01*
X175563Y-49987D02*
X177138D01*
X175563Y-53137D02*
X177138D01*
X150563Y-68087D02*
X152138D01*
X150563Y-71237D02*
X152138D01*
X162225Y-21550D02*
Y-19975D01*
X159076Y-21550D02*
Y-19975D01*
X169776Y-21450D02*
Y-19875D01*
X172925Y-21450D02*
Y-19875D01*
X205150Y-312620D02*
Y-311620D01*
X202150Y-312620D02*
Y-311620D01*
X149976Y-186549D02*
Y-184975D01*
X153125Y-186549D02*
Y-184975D01*
M02*
