G04 Layer_Color=8421504*
%FSLAX25Y25*%
%MOIN*%
G70*
G01*
G75*
%ADD10R,0.05315X0.04134*%
%ADD11R,0.03937X0.03143*%
%ADD12R,0.05512X0.04724*%
%ADD13O,0.05512X0.01100*%
%ADD14R,0.02800X0.10236*%
%ADD15R,0.04800X0.07087*%
%ADD16R,0.10236X0.02800*%
%ADD17R,0.07087X0.04800*%
%ADD18R,0.05551X0.03583*%
%ADD19R,0.05709X0.03937*%
%ADD20R,0.03937X0.05709*%
%ADD21R,0.03143X0.03937*%
%ADD23R,0.02441X0.02441*%
%ADD25R,0.02165X0.05906*%
%ADD26R,0.01575X0.05315*%
%ADD27R,0.16535X0.02756*%
%ADD28R,0.07874X0.02362*%
%ADD29R,0.01600X0.04150*%
%ADD30R,0.03740X0.03150*%
%ADD31R,0.03583X0.05551*%
%ADD32R,0.04134X0.05315*%
%ADD33R,0.03740X0.02910*%
%ADD34O,0.02362X0.05709*%
%ADD35R,0.04134X0.07874*%
%ADD36R,0.29724X0.29134*%
%ADD37O,0.01100X0.05512*%
%ADD38R,0.07874X0.04134*%
%ADD39R,0.29134X0.29724*%
%ADD40O,0.05709X0.02362*%
%ADD41O,0.05315X0.01600*%
%ADD42R,0.08661X0.04134*%
%ADD43R,0.04134X0.04134*%
%ADD44R,0.03500X0.05500*%
%ADD114R,0.07284X0.08465*%
%ADD115R,0.08465X0.07284*%
G36*
X259395Y57828D02*
X263112D01*
Y56625D01*
X259395D01*
Y52434D01*
Y52416D01*
Y52398D01*
Y52289D01*
X259413Y52143D01*
X259450Y51943D01*
X259504Y51724D01*
X259595Y51505D01*
X259705Y51305D01*
X259869Y51123D01*
X259887Y51104D01*
X259960Y51050D01*
X260069Y50977D01*
X260215Y50904D01*
X260415Y50831D01*
X260652Y50758D01*
X260925Y50704D01*
X261253Y50685D01*
X261508D01*
X261636Y50704D01*
X261800D01*
X262128Y50740D01*
X262146D01*
X262219Y50758D01*
X262310D01*
X262438Y50795D01*
X262583Y50813D01*
X262747Y50849D01*
X263112Y50941D01*
Y49701D01*
X263093D01*
X263021Y49683D01*
X262930Y49665D01*
X262802Y49647D01*
X262638Y49610D01*
X262474Y49592D01*
X262091Y49538D01*
X262000D01*
X261909Y49519D01*
X261763D01*
X261618Y49501D01*
X261436D01*
X261053Y49483D01*
X260907D01*
X260798Y49501D01*
X260670D01*
X260525Y49519D01*
X260178Y49574D01*
X259814Y49647D01*
X259431Y49774D01*
X259067Y49938D01*
X258885Y50048D01*
X258739Y50175D01*
X258702Y50212D01*
X258611Y50303D01*
X258502Y50467D01*
X258356Y50704D01*
X258210Y51013D01*
X258101Y51378D01*
X258010Y51815D01*
X257974Y52325D01*
Y56625D01*
X255678D01*
Y57828D01*
X257974D01*
Y60087D01*
X259395Y60470D01*
Y57828D01*
D02*
G37*
G36*
X269416Y57955D02*
X269616Y57937D01*
X269853Y57901D01*
X270108Y57864D01*
X270363Y57791D01*
X270618Y57700D01*
X270655Y57682D01*
X270728Y57645D01*
X270855Y57591D01*
X271019Y57500D01*
X271183Y57390D01*
X271384Y57263D01*
X271566Y57099D01*
X271748Y56917D01*
X271766Y56898D01*
X271821Y56826D01*
X271912Y56716D01*
X272003Y56589D01*
X272112Y56406D01*
X272240Y56206D01*
X272349Y55969D01*
X272440Y55714D01*
X272459Y55678D01*
X272477Y55587D01*
X272513Y55441D01*
X272568Y55259D01*
X272604Y55022D01*
X272641Y54767D01*
X272659Y54475D01*
X272677Y54147D01*
Y54129D01*
Y54093D01*
Y54038D01*
Y53965D01*
Y53801D01*
X272659Y53619D01*
Y53582D01*
Y53491D01*
Y53382D01*
X272641Y53254D01*
X266865D01*
Y53236D01*
Y53200D01*
Y53127D01*
X266883Y53054D01*
Y52945D01*
X266901Y52817D01*
X266956Y52526D01*
X267029Y52216D01*
X267157Y51888D01*
X267320Y51578D01*
X267557Y51305D01*
X267594Y51268D01*
X267685Y51196D01*
X267849Y51086D01*
X268086Y50977D01*
X268377Y50849D01*
X268724Y50740D01*
X269124Y50667D01*
X269598Y50631D01*
X270054D01*
X270309Y50649D01*
X270363D01*
X270436Y50667D01*
X270527D01*
X270764Y50704D01*
X271001Y50722D01*
X271019D01*
X271056Y50740D01*
X271129D01*
X271220Y50758D01*
X271420Y50795D01*
X271657Y50831D01*
X271675D01*
X271711Y50849D01*
X271766Y50868D01*
X271839Y50886D01*
X272040Y50922D01*
X272240Y50977D01*
Y49811D01*
X272222D01*
X272131Y49793D01*
X272021Y49756D01*
X271857Y49720D01*
X271657Y49683D01*
X271438Y49629D01*
X271183Y49592D01*
X270910Y49556D01*
X270873D01*
X270782Y49538D01*
X270637Y49519D01*
X270454Y49501D01*
X270217Y49483D01*
X269962Y49465D01*
X269689Y49446D01*
X269215D01*
X269015Y49465D01*
X268778Y49483D01*
X268487Y49519D01*
X268177Y49556D01*
X267867Y49629D01*
X267576Y49720D01*
X267539Y49738D01*
X267448Y49774D01*
X267302Y49847D01*
X267138Y49938D01*
X266938Y50048D01*
X266719Y50194D01*
X266519Y50357D01*
X266318Y50558D01*
X266300Y50576D01*
X266246Y50649D01*
X266154Y50776D01*
X266045Y50922D01*
X265918Y51123D01*
X265808Y51341D01*
X265681Y51615D01*
X265590Y51888D01*
Y51906D01*
Y51924D01*
X265553Y52034D01*
X265517Y52198D01*
X265480Y52416D01*
X265444Y52690D01*
X265407Y52981D01*
X265389Y53327D01*
X265371Y53692D01*
Y53710D01*
Y53728D01*
Y53838D01*
X265389Y54001D01*
X265407Y54220D01*
X265426Y54457D01*
X265480Y54730D01*
X265535Y55022D01*
X265608Y55313D01*
Y55331D01*
X265626Y55350D01*
X265663Y55441D01*
X265717Y55587D01*
X265790Y55787D01*
X265899Y55987D01*
X266027Y56224D01*
X266173Y56461D01*
X266337Y56680D01*
X266355Y56698D01*
X266428Y56771D01*
X266537Y56880D01*
X266665Y57026D01*
X266847Y57172D01*
X267047Y57336D01*
X267266Y57481D01*
X267521Y57627D01*
X267557Y57645D01*
X267649Y57682D01*
X267794Y57736D01*
X267976Y57809D01*
X268213Y57864D01*
X268487Y57919D01*
X268778Y57955D01*
X269106Y57973D01*
X269252D01*
X269416Y57955D01*
D02*
G37*
G36*
X204753D02*
X204954Y57937D01*
X205190Y57901D01*
X205445Y57864D01*
X205700Y57791D01*
X205956Y57700D01*
X205992Y57682D01*
X206065Y57645D01*
X206192Y57591D01*
X206356Y57500D01*
X206520Y57390D01*
X206721Y57263D01*
X206903Y57099D01*
X207085Y56917D01*
X207103Y56898D01*
X207158Y56826D01*
X207249Y56716D01*
X207340Y56589D01*
X207450Y56406D01*
X207577Y56206D01*
X207686Y55969D01*
X207778Y55714D01*
X207796Y55678D01*
X207814Y55587D01*
X207850Y55441D01*
X207905Y55259D01*
X207942Y55022D01*
X207978Y54767D01*
X207996Y54475D01*
X208014Y54147D01*
Y54129D01*
Y54093D01*
Y54038D01*
Y53965D01*
Y53801D01*
X207996Y53619D01*
Y53582D01*
Y53491D01*
Y53382D01*
X207978Y53254D01*
X202202D01*
Y53236D01*
Y53200D01*
Y53127D01*
X202221Y53054D01*
Y52945D01*
X202239Y52817D01*
X202293Y52526D01*
X202366Y52216D01*
X202494Y51888D01*
X202658Y51578D01*
X202895Y51305D01*
X202931Y51268D01*
X203022Y51196D01*
X203186Y51086D01*
X203423Y50977D01*
X203714Y50849D01*
X204061Y50740D01*
X204462Y50667D01*
X204935Y50631D01*
X205391D01*
X205646Y50649D01*
X205700D01*
X205773Y50667D01*
X205865D01*
X206101Y50704D01*
X206338Y50722D01*
X206356D01*
X206393Y50740D01*
X206466D01*
X206557Y50758D01*
X206757Y50795D01*
X206994Y50831D01*
X207012D01*
X207049Y50849D01*
X207103Y50868D01*
X207176Y50886D01*
X207377Y50922D01*
X207577Y50977D01*
Y49811D01*
X207559D01*
X207468Y49793D01*
X207359Y49756D01*
X207194Y49720D01*
X206994Y49683D01*
X206775Y49629D01*
X206520Y49592D01*
X206247Y49556D01*
X206211D01*
X206119Y49538D01*
X205974Y49519D01*
X205792Y49501D01*
X205555Y49483D01*
X205300Y49465D01*
X205026Y49446D01*
X204553D01*
X204352Y49465D01*
X204115Y49483D01*
X203824Y49519D01*
X203514Y49556D01*
X203204Y49629D01*
X202913Y49720D01*
X202876Y49738D01*
X202785Y49774D01*
X202640Y49847D01*
X202476Y49938D01*
X202275Y50048D01*
X202057Y50194D01*
X201856Y50357D01*
X201656Y50558D01*
X201637Y50576D01*
X201583Y50649D01*
X201492Y50776D01*
X201382Y50922D01*
X201255Y51123D01*
X201146Y51341D01*
X201018Y51615D01*
X200927Y51888D01*
Y51906D01*
Y51924D01*
X200890Y52034D01*
X200854Y52198D01*
X200817Y52416D01*
X200781Y52690D01*
X200745Y52981D01*
X200726Y53327D01*
X200708Y53692D01*
Y53710D01*
Y53728D01*
Y53838D01*
X200726Y54001D01*
X200745Y54220D01*
X200763Y54457D01*
X200817Y54730D01*
X200872Y55022D01*
X200945Y55313D01*
Y55331D01*
X200963Y55350D01*
X201000Y55441D01*
X201054Y55587D01*
X201127Y55787D01*
X201237Y55987D01*
X201364Y56224D01*
X201510Y56461D01*
X201674Y56680D01*
X201692Y56698D01*
X201765Y56771D01*
X201874Y56880D01*
X202002Y57026D01*
X202184Y57172D01*
X202384Y57336D01*
X202603Y57481D01*
X202858Y57627D01*
X202895Y57645D01*
X202986Y57682D01*
X203132Y57736D01*
X203314Y57809D01*
X203551Y57864D01*
X203824Y57919D01*
X204115Y57955D01*
X204443Y57973D01*
X204589D01*
X204753Y57955D01*
D02*
G37*
G36*
X134369Y59067D02*
X131199D01*
Y49592D01*
X129723D01*
Y59067D01*
X126553D01*
Y60306D01*
X134369D01*
Y59067D01*
D02*
G37*
G36*
X241812Y57955D02*
X242013Y57937D01*
X242250Y57901D01*
X242705Y57809D01*
X242723D01*
X242815Y57773D01*
X242924Y57736D01*
X243052Y57682D01*
X243215Y57609D01*
X243379Y57518D01*
X243543Y57427D01*
X243707Y57299D01*
X243726Y57281D01*
X243780Y57245D01*
X243853Y57172D01*
X243944Y57081D01*
X244054Y56953D01*
X244163Y56807D01*
X244254Y56643D01*
X244345Y56461D01*
X244363Y56443D01*
X244381Y56370D01*
X244418Y56261D01*
X244473Y56115D01*
X244509Y55951D01*
X244546Y55732D01*
X244564Y55514D01*
X244582Y55259D01*
Y49592D01*
X243288D01*
X243252Y50685D01*
X243215Y50649D01*
X243143Y50576D01*
X242997Y50467D01*
X242833Y50321D01*
X242614Y50175D01*
X242396Y50011D01*
X242141Y49865D01*
X241885Y49738D01*
X241849Y49720D01*
X241758Y49701D01*
X241630Y49647D01*
X241448Y49592D01*
X241230Y49538D01*
X240974Y49501D01*
X240719Y49465D01*
X240428Y49446D01*
X240318D01*
X240191Y49465D01*
X240027D01*
X239826Y49483D01*
X239626Y49519D01*
X239225Y49610D01*
X239207D01*
X239152Y49647D01*
X239061Y49683D01*
X238934Y49738D01*
X238679Y49902D01*
X238405Y50102D01*
X238387Y50121D01*
X238351Y50157D01*
X238296Y50230D01*
X238223Y50321D01*
X238150Y50430D01*
X238059Y50558D01*
X237932Y50849D01*
Y50868D01*
X237913Y50922D01*
X237895Y51013D01*
X237859Y51123D01*
X237841Y51268D01*
X237804Y51432D01*
X237786Y51779D01*
Y51797D01*
Y51833D01*
Y51906D01*
X237804Y51979D01*
X237822Y52088D01*
X237841Y52216D01*
X237895Y52489D01*
X238004Y52799D01*
X238169Y53127D01*
X238278Y53291D01*
X238405Y53437D01*
X238533Y53582D01*
X238697Y53728D01*
X238715D01*
X238733Y53765D01*
X238788Y53801D01*
X238879Y53838D01*
X238970Y53892D01*
X239079Y53947D01*
X239225Y54020D01*
X239389Y54093D01*
X239571Y54147D01*
X239772Y54220D01*
X239990Y54275D01*
X240246Y54329D01*
X240501Y54366D01*
X240792Y54402D01*
X241102Y54439D01*
X243143D01*
Y55149D01*
Y55186D01*
Y55277D01*
X243124Y55404D01*
X243088Y55568D01*
X243033Y55751D01*
X242942Y55951D01*
X242833Y56133D01*
X242669Y56315D01*
X242651Y56334D01*
X242578Y56388D01*
X242468Y56461D01*
X242323Y56534D01*
X242122Y56607D01*
X241867Y56680D01*
X241576Y56734D01*
X241248Y56753D01*
X240993D01*
X240810Y56734D01*
X240592Y56716D01*
X240373Y56680D01*
X239863Y56589D01*
X239826D01*
X239754Y56552D01*
X239608Y56516D01*
X239444Y56479D01*
X239225Y56406D01*
X238988Y56334D01*
X238733Y56243D01*
X238478Y56151D01*
Y57445D01*
X238496D01*
X238533Y57463D01*
X238569Y57481D01*
X238642Y57500D01*
X238824Y57554D01*
X239061Y57627D01*
X239079D01*
X239116Y57645D01*
X239189Y57664D01*
X239280Y57682D01*
X239517Y57736D01*
X239772Y57791D01*
X239790D01*
X239845Y57809D01*
X239918Y57828D01*
X240009Y57846D01*
X240118Y57864D01*
X240246Y57882D01*
X240537Y57919D01*
X240555D01*
X240610Y57937D01*
X240683D01*
X240792Y57955D01*
X240920D01*
X241047Y57973D01*
X241630D01*
X241812Y57955D01*
D02*
G37*
G36*
X232247Y60287D02*
X232484Y60269D01*
X232739Y60233D01*
X233286Y60123D01*
X233322D01*
X233413Y60087D01*
X233541Y60050D01*
X233723Y59978D01*
X233923Y59905D01*
X234124Y59795D01*
X234342Y59686D01*
X234561Y59540D01*
X234579Y59522D01*
X234652Y59467D01*
X234761Y59395D01*
X234889Y59267D01*
X235035Y59121D01*
X235180Y58957D01*
X235326Y58757D01*
X235454Y58538D01*
X235472Y58502D01*
X235508Y58429D01*
X235563Y58301D01*
X235618Y58119D01*
X235672Y57901D01*
X235727Y57645D01*
X235764Y57354D01*
X235782Y57026D01*
Y56990D01*
Y56917D01*
X235764Y56789D01*
X235745Y56625D01*
X235727Y56425D01*
X235672Y56188D01*
X235618Y55951D01*
X235527Y55714D01*
X235508Y55678D01*
X235490Y55605D01*
X235417Y55477D01*
X235344Y55331D01*
X235235Y55149D01*
X235108Y54967D01*
X234944Y54767D01*
X234761Y54566D01*
X234743Y54548D01*
X234670Y54475D01*
X234561Y54384D01*
X234415Y54275D01*
X234215Y54147D01*
X233996Y54001D01*
X233741Y53874D01*
X233450Y53746D01*
X233413Y53728D01*
X233304Y53692D01*
X233140Y53655D01*
X232903Y53601D01*
X232630Y53528D01*
X232302Y53491D01*
X231919Y53455D01*
X231518Y53437D01*
X230206D01*
Y49592D01*
X228749D01*
Y60306D01*
X232047D01*
X232247Y60287D01*
D02*
G37*
G36*
X186806Y50776D02*
X189266D01*
Y49592D01*
X182670D01*
Y50776D01*
X185367D01*
Y60014D01*
X182944D01*
Y61180D01*
X186806D01*
Y50776D01*
D02*
G37*
G36*
X251378Y57955D02*
X251560D01*
X251979Y57919D01*
X251997D01*
X252089Y57901D01*
X252198D01*
X252362Y57882D01*
X252544Y57846D01*
X252745Y57828D01*
X252981Y57773D01*
X253218Y57736D01*
Y56461D01*
X253182D01*
X253109Y56498D01*
X252981Y56516D01*
X252799Y56552D01*
X252617Y56589D01*
X252398Y56625D01*
X251943Y56698D01*
X251925D01*
X251834Y56716D01*
X251724Y56734D01*
X251578Y56753D01*
X251414D01*
X251251Y56771D01*
X250886Y56789D01*
X250704D01*
X250576Y56771D01*
X250285Y56753D01*
X249993Y56698D01*
X249975D01*
X249939Y56680D01*
X249866Y56661D01*
X249775Y56643D01*
X249592Y56552D01*
X249392Y56461D01*
X249356Y56443D01*
X249265Y56370D01*
X249173Y56261D01*
X249082Y56133D01*
X249064Y56097D01*
X249046Y56006D01*
X249009Y55878D01*
X248991Y55714D01*
Y55696D01*
Y55678D01*
X249009Y55587D01*
X249028Y55459D01*
X249064Y55313D01*
X249082Y55277D01*
X249137Y55204D01*
X249246Y55095D01*
X249392Y54967D01*
X249410D01*
X249429Y54931D01*
X249483Y54912D01*
X249556Y54858D01*
X249665Y54803D01*
X249775Y54748D01*
X249902Y54694D01*
X250048Y54621D01*
X250066D01*
X250121Y54584D01*
X250212Y54566D01*
X250340Y54512D01*
X250503Y54457D01*
X250686Y54402D01*
X250886Y54348D01*
X251123Y54275D01*
X251159Y54256D01*
X251251Y54238D01*
X251378Y54202D01*
X251560Y54129D01*
X251761Y54074D01*
X251961Y53983D01*
X252162Y53910D01*
X252362Y53819D01*
X252380Y53801D01*
X252453Y53783D01*
X252526Y53728D01*
X252653Y53673D01*
X252908Y53491D01*
X253164Y53291D01*
X253182Y53273D01*
X253218Y53236D01*
X253273Y53181D01*
X253346Y53109D01*
X253491Y52908D01*
X253564Y52781D01*
X253619Y52653D01*
Y52635D01*
X253637Y52599D01*
X253674Y52507D01*
X253692Y52416D01*
X253728Y52289D01*
X253747Y52161D01*
X253765Y51833D01*
Y51815D01*
Y51760D01*
Y51669D01*
X253747Y51578D01*
X253692Y51323D01*
X253601Y51050D01*
Y51032D01*
X253583Y50995D01*
X253546Y50922D01*
X253491Y50849D01*
X253364Y50649D01*
X253200Y50430D01*
X253182Y50412D01*
X253164Y50394D01*
X253109Y50339D01*
X253036Y50285D01*
X252836Y50139D01*
X252599Y49975D01*
X252580D01*
X252544Y49938D01*
X252471Y49920D01*
X252380Y49865D01*
X252162Y49774D01*
X251888Y49683D01*
X251870D01*
X251834Y49665D01*
X251742Y49647D01*
X251651Y49629D01*
X251542Y49592D01*
X251396Y49574D01*
X251105Y49519D01*
X251086D01*
X251032Y49501D01*
X250959D01*
X250850Y49483D01*
X250613Y49465D01*
X250321Y49446D01*
X250011D01*
X249811Y49465D01*
X249574D01*
X249319Y49483D01*
X248773Y49519D01*
X248736D01*
X248663Y49538D01*
X248517Y49556D01*
X248354Y49574D01*
X248135Y49610D01*
X247916Y49647D01*
X247424Y49756D01*
Y51068D01*
X247461D01*
X247552Y51032D01*
X247679Y50995D01*
X247862Y50941D01*
X248080Y50886D01*
X248317Y50831D01*
X248845Y50740D01*
X248882D01*
X248973Y50722D01*
X249100Y50704D01*
X249283D01*
X249501Y50685D01*
X249738Y50667D01*
X250267Y50649D01*
X250431D01*
X250613Y50667D01*
X250831Y50685D01*
X251086Y50722D01*
X251342Y50758D01*
X251578Y50831D01*
X251779Y50922D01*
X251797Y50941D01*
X251852Y50977D01*
X251943Y51032D01*
X252034Y51123D01*
X252125Y51232D01*
X252216Y51378D01*
X252271Y51542D01*
X252289Y51724D01*
Y51742D01*
Y51760D01*
X252271Y51851D01*
X252253Y51979D01*
X252198Y52107D01*
X252180Y52143D01*
X252143Y52216D01*
X252052Y52325D01*
X251906Y52453D01*
X251870Y52489D01*
X251815Y52507D01*
X251761Y52562D01*
X251670Y52599D01*
X251560Y52653D01*
X251414Y52726D01*
X251269Y52781D01*
X251251D01*
X251196Y52817D01*
X251105Y52854D01*
X250959Y52908D01*
X250795Y52963D01*
X250595Y53036D01*
X250376Y53109D01*
X250103Y53181D01*
X250084D01*
X250011Y53218D01*
X249902Y53236D01*
X249775Y53291D01*
X249611Y53346D01*
X249447Y53400D01*
X249082Y53546D01*
X249064Y53564D01*
X249009Y53582D01*
X248918Y53637D01*
X248809Y53692D01*
X248536Y53838D01*
X248262Y54038D01*
X248244Y54056D01*
X248208Y54093D01*
X248135Y54147D01*
X248062Y54238D01*
X247880Y54439D01*
X247716Y54712D01*
Y54730D01*
X247679Y54785D01*
X247661Y54858D01*
X247625Y54967D01*
X247588Y55095D01*
X247570Y55259D01*
X247534Y55441D01*
Y55623D01*
Y55641D01*
Y55678D01*
Y55751D01*
X247552Y55842D01*
X247570Y55951D01*
X247588Y56078D01*
X247679Y56370D01*
Y56388D01*
X247716Y56443D01*
X247752Y56516D01*
X247807Y56625D01*
X247880Y56734D01*
X247971Y56862D01*
X248098Y57008D01*
X248226Y57135D01*
X248244Y57153D01*
X248299Y57190D01*
X248390Y57263D01*
X248499Y57354D01*
X248645Y57445D01*
X248827Y57536D01*
X249028Y57645D01*
X249265Y57736D01*
X249301Y57755D01*
X249392Y57773D01*
X249520Y57809D01*
X249720Y57864D01*
X249957Y57901D01*
X250230Y57937D01*
X250558Y57955D01*
X250904Y57973D01*
X251232D01*
X251378Y57955D01*
D02*
G37*
G36*
X198394Y49592D02*
X197101D01*
X197046Y51141D01*
Y51123D01*
X197028Y51104D01*
X196937Y50995D01*
X196827Y50849D01*
X196663Y50649D01*
X196463Y50449D01*
X196244Y50230D01*
X196007Y50029D01*
X195752Y49847D01*
X195716Y49829D01*
X195625Y49793D01*
X195497Y49720D01*
X195297Y49647D01*
X195078Y49574D01*
X194823Y49501D01*
X194550Y49465D01*
X194240Y49446D01*
X194131D01*
X193985Y49465D01*
X193821Y49483D01*
X193639Y49519D01*
X193420Y49574D01*
X193220Y49647D01*
X193001Y49738D01*
X192983Y49756D01*
X192910Y49793D01*
X192819Y49865D01*
X192691Y49957D01*
X192546Y50066D01*
X192400Y50212D01*
X192254Y50376D01*
X192108Y50558D01*
X192090Y50576D01*
X192054Y50649D01*
X191981Y50776D01*
X191908Y50922D01*
X191817Y51123D01*
X191726Y51341D01*
X191635Y51578D01*
X191562Y51851D01*
Y51888D01*
X191543Y51979D01*
X191507Y52143D01*
X191489Y52343D01*
X191452Y52599D01*
X191416Y52890D01*
X191398Y53200D01*
Y53528D01*
Y53546D01*
Y53582D01*
Y53637D01*
Y53710D01*
X191416Y53892D01*
X191434Y54147D01*
X191471Y54439D01*
X191507Y54748D01*
X191580Y55076D01*
X191671Y55386D01*
Y55404D01*
X191689Y55423D01*
X191726Y55532D01*
X191799Y55678D01*
X191890Y55860D01*
X191999Y56078D01*
X192145Y56315D01*
X192309Y56552D01*
X192491Y56771D01*
X192509Y56789D01*
X192582Y56862D01*
X192691Y56971D01*
X192855Y57099D01*
X193038Y57226D01*
X193256Y57372D01*
X193493Y57500D01*
X193766Y57627D01*
X193803Y57645D01*
X193894Y57682D01*
X194058Y57718D01*
X194258Y57773D01*
X194495Y57828D01*
X194787Y57882D01*
X195096Y57901D01*
X195424Y57919D01*
X195661D01*
X195916Y57901D01*
X196190Y57864D01*
X196208D01*
X196263Y57846D01*
X196335D01*
X196426Y57828D01*
X196682Y57773D01*
X196955Y57700D01*
Y61180D01*
X198394D01*
Y49592D01*
D02*
G37*
G36*
X168185Y60451D02*
X168404Y60433D01*
X168514D01*
X168605Y60415D01*
X168805Y60397D01*
X169042Y60360D01*
X169097D01*
X169169Y60342D01*
X169242D01*
X169443Y60306D01*
X169679Y60269D01*
X169734D01*
X169807Y60251D01*
X169880Y60233D01*
X170080Y60196D01*
X170281Y60160D01*
Y58848D01*
X170244D01*
X170171Y58884D01*
X170044Y58903D01*
X169880Y58939D01*
X169698Y58975D01*
X169479Y59030D01*
X169005Y59103D01*
X168987D01*
X168896Y59121D01*
X168787Y59140D01*
X168623Y59158D01*
X168441Y59176D01*
X168222Y59194D01*
X167785Y59212D01*
X167584D01*
X167366Y59194D01*
X167092Y59158D01*
X166783Y59103D01*
X166473Y59030D01*
X166200Y58921D01*
X165944Y58775D01*
X165926Y58757D01*
X165853Y58702D01*
X165762Y58611D01*
X165653Y58484D01*
X165544Y58320D01*
X165453Y58119D01*
X165380Y57901D01*
X165361Y57645D01*
Y57627D01*
Y57573D01*
X165380Y57500D01*
X165398Y57390D01*
X165471Y57153D01*
X165525Y57026D01*
X165598Y56898D01*
X165617Y56880D01*
X165635Y56844D01*
X165689Y56789D01*
X165762Y56716D01*
X165963Y56534D01*
X166218Y56334D01*
X166236Y56315D01*
X166291Y56297D01*
X166364Y56243D01*
X166491Y56188D01*
X166619Y56115D01*
X166764Y56042D01*
X167129Y55896D01*
X167147D01*
X167220Y55860D01*
X167311Y55823D01*
X167457Y55769D01*
X167603Y55714D01*
X167766Y55641D01*
X168149Y55477D01*
X168167D01*
X168240Y55441D01*
X168350Y55404D01*
X168477Y55350D01*
X168641Y55277D01*
X168805Y55204D01*
X169188Y55022D01*
X169206Y55003D01*
X169279Y54985D01*
X169370Y54931D01*
X169497Y54858D01*
X169789Y54657D01*
X170080Y54421D01*
X170099Y54402D01*
X170153Y54366D01*
X170226Y54293D01*
X170317Y54184D01*
X170408Y54074D01*
X170518Y53929D01*
X170718Y53601D01*
X170736Y53582D01*
X170755Y53509D01*
X170791Y53418D01*
X170846Y53291D01*
X170900Y53127D01*
X170937Y52926D01*
X170955Y52726D01*
X170973Y52489D01*
Y52453D01*
Y52362D01*
X170955Y52216D01*
X170937Y52034D01*
X170900Y51833D01*
X170827Y51596D01*
X170755Y51359D01*
X170645Y51141D01*
X170627Y51123D01*
X170590Y51050D01*
X170518Y50941D01*
X170427Y50813D01*
X170299Y50667D01*
X170153Y50503D01*
X169971Y50339D01*
X169771Y50194D01*
X169752Y50175D01*
X169679Y50139D01*
X169552Y50066D01*
X169406Y49975D01*
X169206Y49884D01*
X168987Y49793D01*
X168732Y49701D01*
X168441Y49629D01*
X168404D01*
X168313Y49592D01*
X168149Y49574D01*
X167930Y49538D01*
X167675Y49501D01*
X167384Y49483D01*
X167056Y49446D01*
X166455D01*
X166309Y49465D01*
X166181D01*
X165853Y49483D01*
X165780D01*
X165708Y49501D01*
X165598D01*
X165343Y49538D01*
X165052Y49574D01*
X164979D01*
X164906Y49592D01*
X164815D01*
X164578Y49629D01*
X164323Y49665D01*
X164305D01*
X164268Y49683D01*
X164195Y49701D01*
X164122Y49720D01*
X163922Y49774D01*
X163703Y49829D01*
Y51232D01*
X163740Y51214D01*
X163813Y51196D01*
X163940Y51159D01*
X164104Y51104D01*
X164305Y51032D01*
X164541Y50977D01*
X164797Y50922D01*
X165070Y50868D01*
X165106D01*
X165197Y50849D01*
X165361Y50831D01*
X165580Y50813D01*
X165835Y50776D01*
X166127Y50758D01*
X166455Y50740D01*
X167074D01*
X167238Y50758D01*
X167420D01*
X167621Y50795D01*
X167821Y50813D01*
X168022Y50849D01*
X168040D01*
X168113Y50868D01*
X168185Y50904D01*
X168313Y50922D01*
X168568Y51032D01*
X168823Y51159D01*
X168841Y51177D01*
X168878Y51196D01*
X168932Y51250D01*
X169005Y51305D01*
X169169Y51469D01*
X169297Y51688D01*
Y51706D01*
X169315Y51742D01*
X169352Y51815D01*
X169370Y51906D01*
X169406Y52015D01*
X169424Y52143D01*
X169443Y52416D01*
Y52434D01*
Y52489D01*
X169424Y52562D01*
X169406Y52671D01*
X169333Y52908D01*
X169279Y53018D01*
X169188Y53145D01*
X169169Y53163D01*
X169151Y53200D01*
X169097Y53254D01*
X169024Y53327D01*
X168932Y53418D01*
X168823Y53509D01*
X168550Y53692D01*
X168532Y53710D01*
X168477Y53728D01*
X168404Y53783D01*
X168295Y53838D01*
X168167Y53910D01*
X168022Y53983D01*
X167657Y54147D01*
X167639Y54165D01*
X167566Y54184D01*
X167475Y54220D01*
X167329Y54275D01*
X167183Y54329D01*
X167001Y54402D01*
X166619Y54548D01*
X166600Y54566D01*
X166527Y54584D01*
X166436Y54639D01*
X166309Y54694D01*
X166145Y54767D01*
X165981Y54839D01*
X165598Y55022D01*
X165580Y55040D01*
X165507Y55076D01*
X165416Y55113D01*
X165288Y55186D01*
X165161Y55277D01*
X164997Y55368D01*
X164687Y55605D01*
X164669Y55623D01*
X164633Y55660D01*
X164560Y55732D01*
X164469Y55842D01*
X164377Y55951D01*
X164268Y56097D01*
X164068Y56406D01*
X164050Y56425D01*
X164031Y56498D01*
X163995Y56589D01*
X163959Y56716D01*
X163904Y56880D01*
X163867Y57062D01*
X163849Y57281D01*
X163831Y57500D01*
Y57518D01*
Y57591D01*
X163849Y57700D01*
X163867Y57846D01*
X163886Y58010D01*
X163922Y58192D01*
X163977Y58392D01*
X164050Y58593D01*
X164068Y58611D01*
X164086Y58684D01*
X164159Y58775D01*
X164232Y58903D01*
X164323Y59048D01*
X164450Y59212D01*
X164596Y59376D01*
X164760Y59540D01*
X164778Y59558D01*
X164851Y59613D01*
X164961Y59686D01*
X165106Y59777D01*
X165270Y59886D01*
X165489Y59996D01*
X165726Y60105D01*
X165999Y60214D01*
X166035Y60233D01*
X166145Y60251D01*
X166291Y60287D01*
X166509Y60342D01*
X166783Y60397D01*
X167092Y60433D01*
X167438Y60451D01*
X167821Y60470D01*
X168003D01*
X168185Y60451D01*
D02*
G37*
G36*
X150057Y57955D02*
X150221Y57937D01*
X150421Y57901D01*
X150621Y57846D01*
X150840Y57773D01*
X151040Y57664D01*
X151059Y57645D01*
X151132Y57609D01*
X151223Y57536D01*
X151350Y57445D01*
X151496Y57336D01*
X151642Y57190D01*
X151787Y57026D01*
X151933Y56826D01*
X151952Y56807D01*
X151988Y56734D01*
X152061Y56625D01*
X152134Y56461D01*
X152225Y56279D01*
X152316Y56060D01*
X152407Y55805D01*
X152480Y55532D01*
Y55496D01*
X152516Y55404D01*
X152534Y55240D01*
X152571Y55040D01*
X152607Y54803D01*
X152626Y54512D01*
X152662Y54202D01*
Y53856D01*
Y53838D01*
Y53801D01*
Y53746D01*
Y53673D01*
X152644Y53455D01*
X152626Y53200D01*
X152589Y52890D01*
X152534Y52580D01*
X152462Y52252D01*
X152352Y51924D01*
X152334Y51888D01*
X152298Y51797D01*
X152225Y51651D01*
X152134Y51451D01*
X152006Y51250D01*
X151860Y51013D01*
X151696Y50795D01*
X151496Y50576D01*
X151478Y50558D01*
X151405Y50485D01*
X151277Y50394D01*
X151132Y50266D01*
X150949Y50139D01*
X150713Y49993D01*
X150476Y49865D01*
X150202Y49756D01*
X150166Y49738D01*
X150075Y49720D01*
X149929Y49683D01*
X149729Y49629D01*
X149492Y49574D01*
X149218Y49538D01*
X148927Y49519D01*
X148617Y49501D01*
X148362D01*
X148125Y49519D01*
X147834Y49556D01*
X147761D01*
X147688Y49574D01*
X147597Y49592D01*
X147469D01*
X147342Y49610D01*
X147050Y49665D01*
Y46222D01*
X145629D01*
Y57828D01*
X146886D01*
X146977Y56443D01*
Y56461D01*
X147014Y56479D01*
X147087Y56589D01*
X147214Y56734D01*
X147378Y56898D01*
X147579Y57099D01*
X147797Y57299D01*
X148034Y57481D01*
X148289Y57627D01*
X148326Y57645D01*
X148417Y57682D01*
X148544Y57736D01*
X148745Y57809D01*
X148963Y57864D01*
X149218Y57919D01*
X149510Y57955D01*
X149802Y57973D01*
X149929D01*
X150057Y57955D01*
D02*
G37*
G36*
X177040D02*
X177241Y57937D01*
X177496Y57901D01*
X177751Y57846D01*
X178024Y57773D01*
X178298Y57682D01*
X178334Y57664D01*
X178425Y57627D01*
X178553Y57573D01*
X178717Y57481D01*
X178899Y57372D01*
X179099Y57226D01*
X179300Y57062D01*
X179482Y56880D01*
X179500Y56862D01*
X179555Y56789D01*
X179646Y56680D01*
X179755Y56516D01*
X179883Y56334D01*
X180010Y56097D01*
X180120Y55842D01*
X180229Y55568D01*
X180247Y55532D01*
X180265Y55423D01*
X180320Y55259D01*
X180375Y55058D01*
X180411Y54785D01*
X180466Y54475D01*
X180484Y54129D01*
X180502Y53765D01*
Y53746D01*
Y53728D01*
Y53673D01*
Y53601D01*
X180484Y53418D01*
X180466Y53181D01*
X180429Y52908D01*
X180393Y52617D01*
X180320Y52307D01*
X180229Y51997D01*
X180211Y51961D01*
X180174Y51870D01*
X180120Y51724D01*
X180028Y51542D01*
X179919Y51323D01*
X179792Y51086D01*
X179628Y50849D01*
X179446Y50631D01*
X179427Y50612D01*
X179354Y50540D01*
X179245Y50430D01*
X179099Y50303D01*
X178917Y50175D01*
X178717Y50029D01*
X178462Y49884D01*
X178207Y49756D01*
X178170Y49738D01*
X178079Y49701D01*
X177933Y49665D01*
X177733Y49610D01*
X177478Y49538D01*
X177204Y49501D01*
X176895Y49465D01*
X176549Y49446D01*
X176403D01*
X176221Y49465D01*
X176020Y49483D01*
X175765Y49519D01*
X175492Y49556D01*
X175218Y49629D01*
X174945Y49720D01*
X174909Y49738D01*
X174836Y49774D01*
X174708Y49829D01*
X174544Y49920D01*
X174344Y50029D01*
X174162Y50175D01*
X173961Y50339D01*
X173761Y50521D01*
X173743Y50540D01*
X173688Y50612D01*
X173597Y50722D01*
X173487Y50886D01*
X173378Y51068D01*
X173251Y51305D01*
X173141Y51560D01*
X173032Y51833D01*
Y51851D01*
X173014Y51870D01*
X172996Y51979D01*
X172959Y52143D01*
X172905Y52362D01*
X172850Y52635D01*
X172813Y52945D01*
X172795Y53291D01*
X172777Y53655D01*
Y53673D01*
Y53692D01*
Y53746D01*
Y53819D01*
X172795Y54001D01*
X172813Y54220D01*
X172832Y54493D01*
X172886Y54785D01*
X172941Y55095D01*
X173032Y55386D01*
Y55404D01*
X173050Y55423D01*
X173087Y55514D01*
X173141Y55678D01*
X173232Y55860D01*
X173342Y56078D01*
X173487Y56297D01*
X173633Y56534D01*
X173816Y56753D01*
X173834Y56771D01*
X173907Y56844D01*
X174016Y56953D01*
X174162Y57081D01*
X174344Y57226D01*
X174563Y57372D01*
X174799Y57518D01*
X175054Y57645D01*
X175091Y57664D01*
X175182Y57700D01*
X175328Y57755D01*
X175528Y57809D01*
X175783Y57864D01*
X176057Y57919D01*
X176366Y57955D01*
X176713Y57973D01*
X176858D01*
X177040Y57955D01*
D02*
G37*
G36*
X140090D02*
X140291Y57937D01*
X140546Y57901D01*
X140801Y57846D01*
X141074Y57773D01*
X141347Y57682D01*
X141384Y57664D01*
X141475Y57627D01*
X141603Y57573D01*
X141767Y57481D01*
X141949Y57372D01*
X142149Y57226D01*
X142350Y57062D01*
X142532Y56880D01*
X142550Y56862D01*
X142605Y56789D01*
X142696Y56680D01*
X142805Y56516D01*
X142933Y56334D01*
X143060Y56097D01*
X143169Y55842D01*
X143279Y55568D01*
X143297Y55532D01*
X143315Y55423D01*
X143370Y55259D01*
X143424Y55058D01*
X143461Y54785D01*
X143516Y54475D01*
X143534Y54129D01*
X143552Y53765D01*
Y53746D01*
Y53728D01*
Y53673D01*
Y53601D01*
X143534Y53418D01*
X143516Y53181D01*
X143479Y52908D01*
X143443Y52617D01*
X143370Y52307D01*
X143279Y51997D01*
X143261Y51961D01*
X143224Y51870D01*
X143169Y51724D01*
X143078Y51542D01*
X142969Y51323D01*
X142841Y51086D01*
X142677Y50849D01*
X142495Y50631D01*
X142477Y50612D01*
X142404Y50540D01*
X142295Y50430D01*
X142149Y50303D01*
X141967Y50175D01*
X141767Y50029D01*
X141511Y49884D01*
X141256Y49756D01*
X141220Y49738D01*
X141129Y49701D01*
X140983Y49665D01*
X140783Y49610D01*
X140527Y49538D01*
X140254Y49501D01*
X139945Y49465D01*
X139598Y49446D01*
X139453D01*
X139270Y49465D01*
X139070Y49483D01*
X138815Y49519D01*
X138542Y49556D01*
X138268Y49629D01*
X137995Y49720D01*
X137959Y49738D01*
X137886Y49774D01*
X137758Y49829D01*
X137594Y49920D01*
X137394Y50029D01*
X137212Y50175D01*
X137011Y50339D01*
X136811Y50521D01*
X136792Y50540D01*
X136738Y50612D01*
X136647Y50722D01*
X136537Y50886D01*
X136428Y51068D01*
X136301Y51305D01*
X136191Y51560D01*
X136082Y51833D01*
Y51851D01*
X136064Y51870D01*
X136045Y51979D01*
X136009Y52143D01*
X135954Y52362D01*
X135900Y52635D01*
X135863Y52945D01*
X135845Y53291D01*
X135827Y53655D01*
Y53673D01*
Y53692D01*
Y53746D01*
Y53819D01*
X135845Y54001D01*
X135863Y54220D01*
X135881Y54493D01*
X135936Y54785D01*
X135991Y55095D01*
X136082Y55386D01*
Y55404D01*
X136100Y55423D01*
X136136Y55514D01*
X136191Y55678D01*
X136282Y55860D01*
X136392Y56078D01*
X136537Y56297D01*
X136683Y56534D01*
X136865Y56753D01*
X136883Y56771D01*
X136956Y56844D01*
X137066Y56953D01*
X137212Y57081D01*
X137394Y57226D01*
X137612Y57372D01*
X137849Y57518D01*
X138104Y57645D01*
X138141Y57664D01*
X138232Y57700D01*
X138378Y57755D01*
X138578Y57809D01*
X138833Y57864D01*
X139106Y57919D01*
X139416Y57955D01*
X139762Y57973D01*
X139908D01*
X140090Y57955D01*
D02*
G37*
G36*
X215047D02*
X215138D01*
X215266Y57937D01*
X215558Y57864D01*
X215867Y57773D01*
X216177Y57627D01*
X216487Y57409D01*
X216633Y57281D01*
X216760Y57135D01*
X216796Y57099D01*
X216815Y57044D01*
X216869Y56990D01*
X216906Y56898D01*
X216960Y56789D01*
X217033Y56661D01*
X217088Y56516D01*
X217143Y56352D01*
X217197Y56188D01*
X217252Y55987D01*
X217307Y55769D01*
X217343Y55514D01*
X217361Y55259D01*
X217379Y54985D01*
Y54694D01*
X215940D01*
Y54712D01*
Y54748D01*
Y54803D01*
Y54876D01*
X215922Y55058D01*
X215904Y55277D01*
X215867Y55532D01*
X215813Y55787D01*
X215722Y56042D01*
X215612Y56243D01*
X215594Y56261D01*
X215558Y56315D01*
X215466Y56406D01*
X215357Y56498D01*
X215211Y56571D01*
X215047Y56661D01*
X214847Y56716D01*
X214610Y56734D01*
X214501D01*
X214446Y56716D01*
X214264Y56698D01*
X214045Y56625D01*
X214027D01*
X213991Y56607D01*
X213936Y56589D01*
X213863Y56552D01*
X213663Y56443D01*
X213444Y56297D01*
X213426Y56279D01*
X213389Y56261D01*
X213335Y56206D01*
X213244Y56151D01*
X213043Y55951D01*
X212788Y55714D01*
X212770Y55696D01*
X212733Y55660D01*
X212661Y55587D01*
X212569Y55477D01*
X212460Y55350D01*
X212333Y55222D01*
X212205Y55058D01*
X212059Y54876D01*
Y49592D01*
X210620D01*
Y57828D01*
X211913D01*
X211950Y56297D01*
Y56315D01*
X211986Y56334D01*
X212077Y56443D01*
X212223Y56589D01*
X212405Y56789D01*
X212624Y56990D01*
X212861Y57208D01*
X213116Y57409D01*
X213389Y57573D01*
X213426Y57591D01*
X213517Y57627D01*
X213644Y57700D01*
X213845Y57773D01*
X214045Y57846D01*
X214300Y57919D01*
X214555Y57955D01*
X214829Y57973D01*
X214956D01*
X215047Y57955D01*
D02*
G37*
%LPC*%
G36*
X269234Y56826D02*
X268869D01*
X268760Y56807D01*
X268632Y56789D01*
X268487Y56753D01*
X268177Y56643D01*
X268159D01*
X268122Y56607D01*
X268049Y56571D01*
X267958Y56516D01*
X267740Y56352D01*
X267521Y56133D01*
X267503Y56115D01*
X267484Y56078D01*
X267430Y56006D01*
X267357Y55914D01*
X267284Y55805D01*
X267211Y55660D01*
X267065Y55350D01*
Y55331D01*
X267047Y55277D01*
X267011Y55186D01*
X266974Y55058D01*
X266938Y54912D01*
X266920Y54730D01*
X266865Y54348D01*
X271201D01*
Y54366D01*
Y54439D01*
Y54548D01*
Y54676D01*
X271183Y54821D01*
X271165Y54985D01*
X271074Y55331D01*
Y55350D01*
X271056Y55404D01*
X271019Y55496D01*
X270983Y55605D01*
X270855Y55860D01*
X270673Y56115D01*
X270655Y56133D01*
X270618Y56170D01*
X270564Y56224D01*
X270491Y56297D01*
X270381Y56388D01*
X270272Y56461D01*
X269981Y56625D01*
X269962Y56643D01*
X269908Y56661D01*
X269817Y56698D01*
X269707Y56734D01*
X269580Y56771D01*
X269416Y56789D01*
X269234Y56826D01*
D02*
G37*
G36*
X204571D02*
X204206D01*
X204097Y56807D01*
X203970Y56789D01*
X203824Y56753D01*
X203514Y56643D01*
X203496D01*
X203459Y56607D01*
X203386Y56571D01*
X203295Y56516D01*
X203077Y56352D01*
X202858Y56133D01*
X202840Y56115D01*
X202822Y56078D01*
X202767Y56006D01*
X202694Y55914D01*
X202621Y55805D01*
X202548Y55660D01*
X202403Y55350D01*
Y55331D01*
X202384Y55277D01*
X202348Y55186D01*
X202312Y55058D01*
X202275Y54912D01*
X202257Y54730D01*
X202202Y54348D01*
X206539D01*
Y54366D01*
Y54439D01*
Y54548D01*
Y54676D01*
X206520Y54821D01*
X206502Y54985D01*
X206411Y55331D01*
Y55350D01*
X206393Y55404D01*
X206356Y55496D01*
X206320Y55605D01*
X206192Y55860D01*
X206010Y56115D01*
X205992Y56133D01*
X205956Y56170D01*
X205901Y56224D01*
X205828Y56297D01*
X205719Y56388D01*
X205609Y56461D01*
X205318Y56625D01*
X205300Y56643D01*
X205245Y56661D01*
X205154Y56698D01*
X205045Y56734D01*
X204917Y56771D01*
X204753Y56789D01*
X204571Y56826D01*
D02*
G37*
G36*
X243143Y53346D02*
X241138D01*
X241011Y53327D01*
X240719Y53309D01*
X240410Y53236D01*
X240391D01*
X240355Y53218D01*
X240282Y53200D01*
X240191Y53163D01*
X239972Y53054D01*
X239772Y52926D01*
X239754D01*
X239735Y52890D01*
X239644Y52799D01*
X239517Y52635D01*
X239407Y52453D01*
Y52434D01*
X239389Y52398D01*
X239371Y52343D01*
X239353Y52271D01*
X239316Y52070D01*
X239298Y51833D01*
Y51815D01*
Y51797D01*
X239316Y51688D01*
X239335Y51542D01*
X239371Y51378D01*
Y51359D01*
X239389Y51341D01*
X239426Y51250D01*
X239499Y51123D01*
X239608Y50977D01*
X239644Y50959D01*
X239717Y50886D01*
X239863Y50795D01*
X240027Y50722D01*
X240045D01*
X240082Y50704D01*
X240136Y50685D01*
X240209D01*
X240410Y50649D01*
X240665Y50631D01*
X240756D01*
X240847Y50649D01*
X240993Y50667D01*
X241157Y50704D01*
X241357Y50758D01*
X241557Y50831D01*
X241794Y50922D01*
X241831Y50941D01*
X241904Y50977D01*
X242031Y51050D01*
X242195Y51159D01*
X242396Y51287D01*
X242632Y51451D01*
X242887Y51633D01*
X243143Y51870D01*
Y53346D01*
D02*
G37*
G36*
X231682Y59085D02*
X230206D01*
Y54676D01*
X231682D01*
X231773Y54694D01*
X231883D01*
X232010Y54712D01*
X232283Y54748D01*
X232611Y54821D01*
X232939Y54912D01*
X233267Y55058D01*
X233559Y55240D01*
X233595Y55259D01*
X233668Y55350D01*
X233777Y55477D01*
X233923Y55660D01*
X234051Y55914D01*
X234160Y56206D01*
X234233Y56552D01*
X234269Y56953D01*
Y56971D01*
Y56990D01*
Y57044D01*
X234251Y57117D01*
X234233Y57299D01*
X234178Y57536D01*
X234105Y57791D01*
X233978Y58046D01*
X233814Y58301D01*
X233577Y58520D01*
X233541Y58538D01*
X233450Y58611D01*
X233304Y58702D01*
X233085Y58811D01*
X232812Y58903D01*
X232502Y58994D01*
X232119Y59067D01*
X231682Y59085D01*
D02*
G37*
G36*
X195315Y56734D02*
X195206D01*
X195115Y56716D01*
X194914Y56698D01*
X194659Y56643D01*
X194349Y56552D01*
X194058Y56406D01*
X193766Y56224D01*
X193493Y55969D01*
X193475Y55933D01*
X193402Y55823D01*
X193347Y55751D01*
X193293Y55641D01*
X193238Y55532D01*
X193183Y55404D01*
X193111Y55240D01*
X193056Y55076D01*
X193001Y54876D01*
X192965Y54657D01*
X192910Y54439D01*
X192892Y54184D01*
X192855Y53910D01*
Y53619D01*
Y53601D01*
Y53546D01*
Y53473D01*
Y53382D01*
X192874Y53254D01*
Y53109D01*
X192910Y52781D01*
X192965Y52416D01*
X193038Y52052D01*
X193147Y51706D01*
X193293Y51396D01*
X193311Y51359D01*
X193366Y51287D01*
X193475Y51159D01*
X193621Y51032D01*
X193785Y50904D01*
X194003Y50776D01*
X194240Y50704D01*
X194532Y50667D01*
X194623D01*
X194732Y50685D01*
X194878Y50722D01*
X195060Y50776D01*
X195242Y50868D01*
X195461Y50977D01*
X195679Y51141D01*
X195716Y51159D01*
X195789Y51232D01*
X195898Y51341D01*
X196062Y51505D01*
X196263Y51706D01*
X196463Y51961D01*
X196700Y52252D01*
X196955Y52580D01*
Y56388D01*
X196937D01*
X196900Y56425D01*
X196809Y56443D01*
X196718Y56479D01*
X196609Y56516D01*
X196463Y56571D01*
X196153Y56643D01*
X196135D01*
X196080Y56661D01*
X196007Y56680D01*
X195898Y56698D01*
X195771D01*
X195625Y56716D01*
X195315Y56734D01*
D02*
G37*
G36*
X149674D02*
X149401D01*
X149346Y56716D01*
X149164Y56698D01*
X148963Y56643D01*
X148945D01*
X148909Y56625D01*
X148854Y56607D01*
X148781Y56571D01*
X148599Y56479D01*
X148380Y56352D01*
X148362D01*
X148326Y56315D01*
X148271Y56279D01*
X148198Y56206D01*
X147998Y56042D01*
X147743Y55805D01*
X147724Y55787D01*
X147688Y55751D01*
X147615Y55678D01*
X147542Y55587D01*
X147433Y55459D01*
X147305Y55313D01*
X147178Y55168D01*
X147050Y54985D01*
Y50995D01*
X147069D01*
X147123Y50977D01*
X147196Y50941D01*
X147305Y50904D01*
X147415Y50868D01*
X147561Y50813D01*
X147870Y50740D01*
X147888D01*
X147943Y50722D01*
X148034Y50704D01*
X148143D01*
X148271Y50685D01*
X148417Y50667D01*
X148726Y50649D01*
X148836D01*
X148909Y50667D01*
X149127Y50685D01*
X149382Y50740D01*
X149674Y50849D01*
X149966Y50977D01*
X150257Y51177D01*
X150403Y51287D01*
X150530Y51432D01*
Y51451D01*
X150567Y51469D01*
X150585Y51524D01*
X150640Y51578D01*
X150694Y51669D01*
X150749Y51760D01*
X150804Y51888D01*
X150876Y52015D01*
X150931Y52179D01*
X150986Y52343D01*
X151040Y52544D01*
X151095Y52763D01*
X151150Y52981D01*
X151168Y53236D01*
X151205Y53491D01*
Y53783D01*
Y53819D01*
Y53892D01*
Y54020D01*
X151186Y54184D01*
Y54366D01*
X151168Y54566D01*
X151095Y54967D01*
Y54985D01*
X151077Y55058D01*
X151059Y55168D01*
X151022Y55295D01*
X150931Y55587D01*
X150804Y55896D01*
Y55914D01*
X150767Y55969D01*
X150731Y56042D01*
X150658Y56133D01*
X150494Y56334D01*
X150275Y56516D01*
X150257Y56534D01*
X150221Y56552D01*
X150148Y56589D01*
X150057Y56625D01*
X149947Y56661D01*
X149820Y56698D01*
X149674Y56734D01*
D02*
G37*
G36*
X176840Y56753D02*
X176530D01*
X176403Y56734D01*
X176257Y56716D01*
X176075Y56698D01*
X175893Y56643D01*
X175710Y56589D01*
X175528Y56498D01*
X175510Y56479D01*
X175455Y56443D01*
X175364Y56388D01*
X175273Y56315D01*
X175145Y56224D01*
X175018Y56115D01*
X174781Y55823D01*
X174763Y55805D01*
X174726Y55751D01*
X174690Y55660D01*
X174617Y55550D01*
X174544Y55404D01*
X174490Y55240D01*
X174417Y55058D01*
X174362Y54858D01*
Y54839D01*
X174344Y54767D01*
X174326Y54657D01*
X174307Y54512D01*
X174271Y54329D01*
X174253Y54129D01*
X174234Y53692D01*
Y53655D01*
Y53564D01*
X174253Y53418D01*
Y53236D01*
X174271Y53036D01*
X174307Y52799D01*
X174399Y52343D01*
Y52325D01*
X174435Y52252D01*
X174471Y52143D01*
X174526Y52015D01*
X174672Y51706D01*
X174872Y51396D01*
X174890Y51378D01*
X174927Y51341D01*
X175000Y51268D01*
X175091Y51196D01*
X175200Y51104D01*
X175328Y51013D01*
X175619Y50831D01*
X175637D01*
X175692Y50795D01*
X175802Y50776D01*
X175911Y50740D01*
X176075Y50704D01*
X176239Y50685D01*
X176439Y50649D01*
X176749D01*
X176858Y50667D01*
X177022Y50685D01*
X177186Y50704D01*
X177368Y50758D01*
X177551Y50813D01*
X177733Y50886D01*
X177751Y50904D01*
X177806Y50941D01*
X177897Y50995D01*
X178006Y51068D01*
X178115Y51159D01*
X178243Y51287D01*
X178480Y51560D01*
X178498Y51578D01*
X178534Y51633D01*
X178571Y51724D01*
X178644Y51833D01*
X178717Y51979D01*
X178771Y52143D01*
X178844Y52325D01*
X178899Y52526D01*
Y52544D01*
X178917Y52617D01*
X178954Y52744D01*
X178972Y52890D01*
X179008Y53054D01*
X179026Y53254D01*
X179045Y53692D01*
Y53728D01*
Y53819D01*
Y53965D01*
X179026Y54147D01*
X179008Y54348D01*
X178972Y54584D01*
X178917Y54803D01*
X178862Y55022D01*
Y55040D01*
X178826Y55113D01*
X178789Y55222D01*
X178735Y55368D01*
X178589Y55660D01*
X178498Y55823D01*
X178389Y55969D01*
X178370Y55987D01*
X178334Y56024D01*
X178261Y56097D01*
X178170Y56188D01*
X178061Y56279D01*
X177933Y56370D01*
X177623Y56552D01*
X177605Y56571D01*
X177551Y56589D01*
X177460Y56625D01*
X177332Y56661D01*
X177186Y56698D01*
X177022Y56716D01*
X176840Y56753D01*
D02*
G37*
G36*
X139890D02*
X139580D01*
X139453Y56734D01*
X139307Y56716D01*
X139125Y56698D01*
X138942Y56643D01*
X138760Y56589D01*
X138578Y56498D01*
X138560Y56479D01*
X138505Y56443D01*
X138414Y56388D01*
X138323Y56315D01*
X138195Y56224D01*
X138068Y56115D01*
X137831Y55823D01*
X137813Y55805D01*
X137776Y55751D01*
X137740Y55660D01*
X137667Y55550D01*
X137594Y55404D01*
X137540Y55240D01*
X137467Y55058D01*
X137412Y54858D01*
Y54839D01*
X137394Y54767D01*
X137375Y54657D01*
X137357Y54512D01*
X137321Y54329D01*
X137303Y54129D01*
X137284Y53692D01*
Y53655D01*
Y53564D01*
X137303Y53418D01*
Y53236D01*
X137321Y53036D01*
X137357Y52799D01*
X137448Y52343D01*
Y52325D01*
X137485Y52252D01*
X137521Y52143D01*
X137576Y52015D01*
X137722Y51706D01*
X137922Y51396D01*
X137940Y51378D01*
X137977Y51341D01*
X138050Y51268D01*
X138141Y51196D01*
X138250Y51104D01*
X138378Y51013D01*
X138669Y50831D01*
X138687D01*
X138742Y50795D01*
X138851Y50776D01*
X138961Y50740D01*
X139125Y50704D01*
X139289Y50685D01*
X139489Y50649D01*
X139799D01*
X139908Y50667D01*
X140072Y50685D01*
X140236Y50704D01*
X140418Y50758D01*
X140600Y50813D01*
X140783Y50886D01*
X140801Y50904D01*
X140856Y50941D01*
X140947Y50995D01*
X141056Y51068D01*
X141165Y51159D01*
X141293Y51287D01*
X141530Y51560D01*
X141548Y51578D01*
X141584Y51633D01*
X141621Y51724D01*
X141694Y51833D01*
X141767Y51979D01*
X141821Y52143D01*
X141894Y52325D01*
X141949Y52526D01*
Y52544D01*
X141967Y52617D01*
X142003Y52744D01*
X142022Y52890D01*
X142058Y53054D01*
X142076Y53254D01*
X142095Y53692D01*
Y53728D01*
Y53819D01*
Y53965D01*
X142076Y54147D01*
X142058Y54348D01*
X142022Y54584D01*
X141967Y54803D01*
X141912Y55022D01*
Y55040D01*
X141876Y55113D01*
X141839Y55222D01*
X141785Y55368D01*
X141639Y55660D01*
X141548Y55823D01*
X141438Y55969D01*
X141420Y55987D01*
X141384Y56024D01*
X141311Y56097D01*
X141220Y56188D01*
X141111Y56279D01*
X140983Y56370D01*
X140673Y56552D01*
X140655Y56571D01*
X140600Y56589D01*
X140509Y56625D01*
X140382Y56661D01*
X140236Y56698D01*
X140072Y56716D01*
X139890Y56753D01*
D02*
G37*
%LPD*%
D10*
X45750Y-114098D02*
D03*
Y-106027D02*
D03*
X283650Y-216898D02*
D03*
Y-208827D02*
D03*
X314250D02*
D03*
Y-216898D02*
D03*
X368550Y-293998D02*
D03*
Y-285927D02*
D03*
X40050Y-269127D02*
D03*
Y-277198D02*
D03*
X48350Y-277198D02*
D03*
Y-269127D02*
D03*
X109650Y-316155D02*
D03*
Y-308084D02*
D03*
X295350Y-73227D02*
D03*
Y-81298D02*
D03*
X316850Y-163398D02*
D03*
Y-155327D02*
D03*
Y-128227D02*
D03*
Y-136298D02*
D03*
X267550Y-138027D02*
D03*
Y-146098D02*
D03*
X211050Y-24598D02*
D03*
Y-16527D02*
D03*
X45750Y-91498D02*
D03*
Y-83427D02*
D03*
D11*
X190850Y-168320D02*
D03*
Y-162605D02*
D03*
X45750Y-73620D02*
D03*
Y-67905D02*
D03*
X159250Y-188620D02*
D03*
Y-182905D02*
D03*
X202850Y-227905D02*
D03*
Y-233620D02*
D03*
X197850Y-168320D02*
D03*
Y-162605D02*
D03*
X204850Y-168320D02*
D03*
Y-162605D02*
D03*
X181050Y-227905D02*
D03*
Y-233620D02*
D03*
X203650Y-295920D02*
D03*
Y-290205D02*
D03*
X160650Y-17905D02*
D03*
Y-23620D02*
D03*
X171350Y-23520D02*
D03*
Y-17805D02*
D03*
D12*
X156120Y-168612D02*
D03*
Y-162312D02*
D03*
X164781D02*
D03*
Y-168612D02*
D03*
D13*
X167457Y-197119D02*
D03*
Y-195150D02*
D03*
X212339Y-183339D02*
D03*
Y-185308D02*
D03*
Y-187276D02*
D03*
Y-189245D02*
D03*
Y-191213D02*
D03*
Y-193182D02*
D03*
Y-195150D02*
D03*
Y-197119D02*
D03*
Y-199087D02*
D03*
Y-201056D02*
D03*
Y-203024D02*
D03*
Y-204993D02*
D03*
Y-206961D02*
D03*
Y-208930D02*
D03*
Y-210898D02*
D03*
Y-212867D02*
D03*
X167457D02*
D03*
Y-210898D02*
D03*
Y-208930D02*
D03*
Y-206961D02*
D03*
Y-204993D02*
D03*
Y-203024D02*
D03*
Y-201056D02*
D03*
Y-199087D02*
D03*
Y-193182D02*
D03*
Y-191213D02*
D03*
Y-189245D02*
D03*
Y-187276D02*
D03*
Y-185308D02*
D03*
Y-183339D02*
D03*
D14*
X269950Y-325562D02*
D03*
D15*
X262450D02*
D03*
X277450D02*
D03*
D16*
X295350Y-58562D02*
D03*
X310050Y-74249D02*
D03*
X48331Y-140662D02*
D03*
X153200Y-222200D02*
D03*
D17*
X295350Y-66062D02*
D03*
Y-51062D02*
D03*
X310050Y-81749D02*
D03*
Y-66749D02*
D03*
X48331Y-148162D02*
D03*
Y-133162D02*
D03*
X153200Y-229700D02*
D03*
Y-214700D02*
D03*
D18*
X118250Y-1550D02*
D03*
Y-9975D02*
D03*
X368550Y-279487D02*
D03*
Y-271062D02*
D03*
D19*
X314250Y-201898D02*
D03*
Y-193827D02*
D03*
X283650Y-201898D02*
D03*
Y-193827D02*
D03*
X213350Y-161427D02*
D03*
Y-169498D02*
D03*
X266750Y-247927D02*
D03*
Y-255998D02*
D03*
Y-241498D02*
D03*
Y-233427D02*
D03*
X276150Y-138027D02*
D03*
Y-146098D02*
D03*
D20*
X33335Y-167700D02*
D03*
X25265D02*
D03*
X39865D02*
D03*
X47935D02*
D03*
X307586Y-169762D02*
D03*
X299515D02*
D03*
X298915Y-129722D02*
D03*
X306986D02*
D03*
X306986Y-101222D02*
D03*
X298915D02*
D03*
D21*
X160108Y-198462D02*
D03*
X154393D02*
D03*
X160108Y-206062D02*
D03*
X154393D02*
D03*
X219693Y-204962D02*
D03*
X225408D02*
D03*
X177143Y-168200D02*
D03*
X182858D02*
D03*
X219693Y-195662D02*
D03*
X225408D02*
D03*
X191808Y-284062D02*
D03*
X186093D02*
D03*
X191808Y-293262D02*
D03*
X186093D02*
D03*
X201008Y-64562D02*
D03*
X195293D02*
D03*
X173493Y-51562D02*
D03*
X179208D02*
D03*
X148493Y-69662D02*
D03*
X154208D02*
D03*
D23*
X170700Y-167300D02*
D03*
Y-163678D02*
D03*
X150250Y-163740D02*
D03*
Y-167362D02*
D03*
D25*
X288050Y-138262D02*
D03*
X291791Y-145742D02*
D03*
X284310D02*
D03*
X302950Y-117262D02*
D03*
X299210Y-109782D02*
D03*
X306691D02*
D03*
D26*
X158718Y-339000D02*
D03*
X156159D02*
D03*
X153600D02*
D03*
X151041D02*
D03*
X148482D02*
D03*
X65682Y-24100D02*
D03*
X68241D02*
D03*
X70800D02*
D03*
X73359D02*
D03*
X75918D02*
D03*
X228018Y-339000D02*
D03*
X225459D02*
D03*
X222900D02*
D03*
X220341D02*
D03*
X217782D02*
D03*
D27*
X22800Y-271785D02*
D03*
Y-252100D02*
D03*
Y-311700D02*
D03*
Y-292015D02*
D03*
D28*
X31068Y-267848D02*
D03*
Y-256037D02*
D03*
Y-259974D02*
D03*
Y-263911D02*
D03*
Y-307763D02*
D03*
Y-295952D02*
D03*
Y-299889D02*
D03*
Y-303826D02*
D03*
D29*
X306550Y-264480D02*
D03*
X304050D02*
D03*
X301550D02*
D03*
X299050D02*
D03*
X297800Y-269480D02*
D03*
X300300D02*
D03*
X302800D02*
D03*
X305300D02*
D03*
X307800D02*
D03*
D30*
X203650Y-309462D02*
D03*
Y-314777D02*
D03*
D31*
X39087Y-318500D02*
D03*
X47513D02*
D03*
D32*
X298615Y-224462D02*
D03*
X306686D02*
D03*
X183715Y-274262D02*
D03*
X191786D02*
D03*
X120615Y-279062D02*
D03*
X128686D02*
D03*
X113786Y-291162D02*
D03*
X105715D02*
D03*
X128686D02*
D03*
X120615D02*
D03*
X290186Y-181462D02*
D03*
X282115D02*
D03*
X116086Y-25062D02*
D03*
X108015D02*
D03*
X116086Y-16962D02*
D03*
X108015D02*
D03*
X159615Y-63362D02*
D03*
X167686D02*
D03*
D33*
X151550Y-188540D02*
D03*
Y-182985D02*
D03*
D34*
X306450Y-194634D02*
D03*
X301450D02*
D03*
X296450D02*
D03*
X291450D02*
D03*
X306450Y-216090D02*
D03*
X301450D02*
D03*
X296450D02*
D03*
X291450D02*
D03*
D35*
X45600Y-176800D02*
D03*
X27569Y-176800D02*
D03*
D36*
X36584Y-204453D02*
D03*
D37*
X175134Y-175662D02*
D03*
X177102D02*
D03*
X179071D02*
D03*
X181039D02*
D03*
X183008D02*
D03*
X184976D02*
D03*
X186945D02*
D03*
X188913D02*
D03*
X190882D02*
D03*
X192850D02*
D03*
X194819D02*
D03*
X196787D02*
D03*
X198756D02*
D03*
X200725D02*
D03*
X202693D02*
D03*
X204661D02*
D03*
Y-220544D02*
D03*
X202693D02*
D03*
X200725D02*
D03*
X198756D02*
D03*
X196787D02*
D03*
X194819D02*
D03*
X192850D02*
D03*
X190882D02*
D03*
X188913D02*
D03*
X186945D02*
D03*
X184976D02*
D03*
X183008D02*
D03*
X181039D02*
D03*
X179071D02*
D03*
X177102D02*
D03*
X175134D02*
D03*
D38*
X276200Y-235800D02*
D03*
X276200Y-253832D02*
D03*
D39*
X303854Y-244816D02*
D03*
D40*
X268722Y-158362D02*
D03*
Y-163362D02*
D03*
Y-168362D02*
D03*
Y-173362D02*
D03*
X290179Y-158362D02*
D03*
Y-163362D02*
D03*
Y-168362D02*
D03*
Y-173362D02*
D03*
D41*
X152410Y-24601D02*
D03*
Y-22042D02*
D03*
Y-19483D02*
D03*
Y-16924D02*
D03*
X134891Y-24601D02*
D03*
Y-22042D02*
D03*
Y-19483D02*
D03*
Y-16924D02*
D03*
D42*
X47150Y-46969D02*
D03*
Y-35355D02*
D03*
D43*
X41146Y-41162D02*
D03*
D44*
X168082Y-319306D02*
D03*
X175952D02*
D03*
X160212D02*
D03*
X152342D02*
D03*
X183822D02*
D03*
X128732Y-302306D02*
D03*
X120862D02*
D03*
X191692Y-319306D02*
D03*
X144472D02*
D03*
X120862D02*
D03*
X128732D02*
D03*
X136602D02*
D03*
Y-302306D02*
D03*
X144472D02*
D03*
X152342D02*
D03*
X160212D02*
D03*
X168082D02*
D03*
X175952D02*
D03*
X183822D02*
D03*
X191692D02*
D03*
D114*
X271450Y-196258D02*
D03*
Y-214959D02*
D03*
X303550Y-140312D02*
D03*
Y-159013D02*
D03*
X271450Y-108112D02*
D03*
Y-126813D02*
D03*
X287450Y-108112D02*
D03*
Y-126813D02*
D03*
D115*
X171801Y-260362D02*
D03*
X153100D02*
D03*
X181900Y-20562D02*
D03*
X200601D02*
D03*
M02*
