G04 Layer_Color=12632256*
%FSLAX25Y25*%
%MOIN*%
G70*
G01*
G75*
%ADD55C,0.05906*%
%ADD56C,0.25000*%
%ADD57C,0.28000*%
%ADD58C,0.10000*%
%ADD59C,0.04921*%
%ADD60C,0.04000*%
%ADD61R,0.07000X0.07000*%
%ADD62C,0.07874*%
%ADD63C,0.05118*%
%ADD64C,0.06693*%
%ADD65C,0.03000*%
%ADD141C,0.15000*%
D55*
X46850Y-247962D02*
D03*
Y-257962D02*
D03*
X45850Y-225862D02*
D03*
X288250Y-92062D02*
D03*
X368650Y-256162D02*
D03*
X369250Y-85462D02*
D03*
X367550Y-65062D02*
D03*
D56*
X270000Y-282500D02*
D03*
Y-82500D02*
D03*
X223800Y-55000D02*
D03*
X88800D02*
D03*
X223700Y-310000D02*
D03*
X88800D02*
D03*
D57*
X125800Y-60000D02*
D03*
D58*
X334505Y-34957D02*
D03*
X43005Y-334957D02*
D03*
Y-19957D02*
D03*
X334505Y-324957D02*
D03*
D59*
X337500Y-185000D02*
D03*
Y-195000D02*
D03*
Y-215000D02*
D03*
Y-205000D02*
D03*
Y-225000D02*
D03*
Y-235000D02*
D03*
Y-245000D02*
D03*
Y-255000D02*
D03*
Y-265000D02*
D03*
Y-275000D02*
D03*
X327500D02*
D03*
Y-265000D02*
D03*
Y-255000D02*
D03*
Y-245000D02*
D03*
Y-235000D02*
D03*
Y-225000D02*
D03*
Y-205000D02*
D03*
Y-215000D02*
D03*
Y-195000D02*
D03*
Y-95000D02*
D03*
Y-105000D02*
D03*
Y-115000D02*
D03*
Y-125000D02*
D03*
Y-135000D02*
D03*
Y-145000D02*
D03*
Y-165000D02*
D03*
Y-155000D02*
D03*
Y-175000D02*
D03*
Y-185000D02*
D03*
X337500Y-85000D02*
D03*
Y-95000D02*
D03*
Y-105000D02*
D03*
Y-115000D02*
D03*
Y-125000D02*
D03*
Y-135000D02*
D03*
Y-145000D02*
D03*
Y-165000D02*
D03*
Y-155000D02*
D03*
Y-175000D02*
D03*
X327500Y-285000D02*
D03*
Y-295000D02*
D03*
Y-305000D02*
D03*
X337500D02*
D03*
Y-295000D02*
D03*
Y-285000D02*
D03*
Y-75000D02*
D03*
X327500D02*
D03*
Y-85000D02*
D03*
X337500Y-65000D02*
D03*
Y-55000D02*
D03*
X327500D02*
D03*
Y-65000D02*
D03*
X357500Y-185000D02*
D03*
Y-195000D02*
D03*
Y-215000D02*
D03*
Y-205000D02*
D03*
Y-225000D02*
D03*
Y-235000D02*
D03*
Y-245000D02*
D03*
Y-255000D02*
D03*
Y-265000D02*
D03*
Y-275000D02*
D03*
X347500D02*
D03*
Y-265000D02*
D03*
Y-255000D02*
D03*
Y-245000D02*
D03*
Y-235000D02*
D03*
Y-225000D02*
D03*
Y-205000D02*
D03*
Y-215000D02*
D03*
Y-195000D02*
D03*
Y-95000D02*
D03*
Y-105000D02*
D03*
Y-115000D02*
D03*
Y-125000D02*
D03*
Y-135000D02*
D03*
Y-145000D02*
D03*
Y-165000D02*
D03*
Y-155000D02*
D03*
Y-175000D02*
D03*
Y-185000D02*
D03*
X357500Y-85000D02*
D03*
Y-95000D02*
D03*
Y-105000D02*
D03*
Y-115000D02*
D03*
Y-125000D02*
D03*
Y-135000D02*
D03*
Y-145000D02*
D03*
Y-165000D02*
D03*
Y-155000D02*
D03*
Y-175000D02*
D03*
X347500Y-285000D02*
D03*
Y-295000D02*
D03*
Y-305000D02*
D03*
X357500D02*
D03*
Y-295000D02*
D03*
Y-285000D02*
D03*
Y-75000D02*
D03*
X347500D02*
D03*
Y-85000D02*
D03*
X357500Y-65000D02*
D03*
Y-55000D02*
D03*
X347500D02*
D03*
Y-65000D02*
D03*
D60*
X79560Y-25478D02*
D03*
X62040D02*
D03*
X162360Y-337622D02*
D03*
X144840D02*
D03*
X62040Y-25478D02*
D03*
X79560D02*
D03*
X231660Y-337622D02*
D03*
X214140D02*
D03*
D61*
X87237Y-13175D02*
D03*
X54363D02*
D03*
X170037Y-349925D02*
D03*
X137163D02*
D03*
X54363Y-13175D02*
D03*
X87237D02*
D03*
X239337Y-349925D02*
D03*
X206463D02*
D03*
D62*
X316304Y-277000D02*
D03*
X289296D02*
D03*
X285000Y-61500D02*
D03*
Y-41500D02*
D03*
X265000D02*
D03*
Y-61500D02*
D03*
D63*
X270000Y-310000D02*
D03*
X275000Y-315000D02*
D03*
X265000D02*
D03*
X275000Y-305000D02*
D03*
X265000D02*
D03*
X310000Y-51500D02*
D03*
X315000Y-56500D02*
D03*
X305000D02*
D03*
X315000Y-46500D02*
D03*
X305000D02*
D03*
D64*
X275000Y-51500D02*
D03*
D65*
X187757Y-310806D02*
D03*
X124797D02*
D03*
X120862Y-306868D02*
D03*
Y-314743D02*
D03*
X128732D02*
D03*
Y-306868D02*
D03*
X136602Y-314743D02*
D03*
Y-306868D02*
D03*
X144472Y-314743D02*
D03*
Y-306868D02*
D03*
X152342Y-314743D02*
D03*
Y-306868D02*
D03*
X160212Y-314743D02*
D03*
Y-306868D02*
D03*
X168082Y-314743D02*
D03*
Y-306868D02*
D03*
X175952Y-314743D02*
D03*
Y-306868D02*
D03*
X183822Y-314743D02*
D03*
Y-306868D02*
D03*
X191692Y-314743D02*
D03*
Y-306868D02*
D03*
D141*
X357505Y-34957D02*
D03*
X20005Y-334957D02*
D03*
Y-19957D02*
D03*
X357505Y-324957D02*
D03*
M02*
