G04 Layer_Color=32768*
%FSLAX25Y25*%
%MOIN*%
G70*
G01*
G75*
%ADD135C,0.00394*%
%ADD142C,0.00197*%
D135*
X144616Y-117457D02*
X148553D01*
X146584Y-119425D02*
Y-115488D01*
X299250Y-207331D02*
Y-203394D01*
X297282Y-205362D02*
X301219D01*
X41382Y-317462D02*
X45319D01*
X43350Y-319431D02*
Y-315494D01*
X45750Y-112031D02*
Y-108094D01*
X43782Y-110062D02*
X47719D01*
X48950Y-172231D02*
Y-168294D01*
X46982Y-170262D02*
X50919D01*
X188961Y-165462D02*
X192740D01*
X190850Y-167352D02*
Y-163572D01*
X296650Y-309331D02*
Y-305394D01*
X294682Y-307362D02*
X298619D01*
X46982Y-124063D02*
X50919D01*
X48951Y-126031D02*
Y-122094D01*
X46982Y-132963D02*
X50919D01*
X48951Y-134931D02*
Y-130994D01*
X46982Y-144162D02*
X50919D01*
X48951Y-146131D02*
Y-142194D01*
X46982Y-151663D02*
X50919D01*
X48951Y-153631D02*
Y-149694D01*
X160217Y-290462D02*
X164154D01*
X162186Y-292431D02*
Y-288494D01*
X79050Y-142331D02*
Y-138394D01*
X77082Y-140362D02*
X81019D01*
X116282Y-5762D02*
X120219D01*
X118250Y-7731D02*
Y-3794D01*
X136150Y-186331D02*
Y-182394D01*
X134182Y-184362D02*
X138119D01*
X84061Y-33462D02*
X87840D01*
X85950Y-35352D02*
Y-31572D01*
X204210Y-331600D02*
X207990D01*
X206100Y-333490D02*
Y-329710D01*
X140753Y-331000D02*
X144532D01*
X142642Y-332890D02*
Y-329110D01*
X56550Y-52752D02*
Y-48972D01*
X54661Y-50862D02*
X58440D01*
X297282Y-192700D02*
X301219D01*
X299250Y-194668D02*
Y-190732D01*
X43861Y-70762D02*
X47640D01*
X45750Y-72652D02*
Y-68872D01*
X283350Y-200231D02*
Y-196294D01*
X281382Y-198262D02*
X285319D01*
X144532Y-101300D02*
X148468D01*
X146500Y-103269D02*
Y-99331D01*
X135782Y-136962D02*
X139719D01*
X137750Y-138931D02*
Y-134994D01*
X119861Y-158562D02*
X123640D01*
X121750Y-160452D02*
Y-156672D01*
X225961Y-195762D02*
X229740D01*
X227850Y-197652D02*
Y-193872D01*
X260061Y-160162D02*
X263840D01*
X261950Y-162052D02*
Y-158272D01*
X268661Y-160162D02*
X272440D01*
X270550Y-162052D02*
Y-158272D01*
X260061Y-119027D02*
X263840D01*
X261950Y-120916D02*
Y-117137D01*
X268661Y-119027D02*
X272440D01*
X270550Y-120916D02*
Y-117137D01*
X291850Y-154552D02*
Y-150772D01*
X289961Y-152662D02*
X293740D01*
X27332Y-167700D02*
X31269D01*
X29300Y-169668D02*
Y-165732D01*
X41932Y-167700D02*
X45869D01*
X43900Y-169668D02*
Y-165732D01*
X157250Y-200352D02*
Y-196572D01*
X155361Y-198462D02*
X159140D01*
X157250Y-207952D02*
Y-204172D01*
X155361Y-206062D02*
X159140D01*
X222550Y-206852D02*
Y-203072D01*
X220661Y-204962D02*
X224440D01*
X180000Y-170090D02*
Y-166310D01*
X178110Y-168200D02*
X181890D01*
X157361Y-185762D02*
X161140D01*
X159250Y-187652D02*
Y-183872D01*
X200961Y-230762D02*
X204740D01*
X202850Y-232652D02*
Y-228872D01*
X222550Y-197552D02*
Y-193772D01*
X220661Y-195662D02*
X224440D01*
X195961Y-165462D02*
X199740D01*
X197850Y-167352D02*
Y-163572D01*
X213350Y-167431D02*
Y-163494D01*
X211382Y-165462D02*
X215319D01*
X202961D02*
X206740D01*
X204850Y-167352D02*
Y-163572D01*
X179161Y-230762D02*
X182940D01*
X181050Y-232652D02*
Y-228872D01*
X271450Y-207577D02*
Y-203640D01*
X269482Y-205608D02*
X273419D01*
X153008Y-262552D02*
Y-258772D01*
X151118Y-260662D02*
X154898D01*
X170700Y-166572D02*
Y-164406D01*
X169617Y-165489D02*
X171783D01*
X150250Y-166634D02*
Y-164469D01*
X149168Y-165551D02*
X151333D01*
X160482Y-260362D02*
X164419D01*
X162450Y-262331D02*
Y-258394D01*
X188950Y-285952D02*
Y-282172D01*
X187061Y-284062D02*
X190840D01*
X188950Y-295152D02*
Y-291372D01*
X187061Y-293262D02*
X190840D01*
X201761Y-293062D02*
X205540D01*
X203650Y-294952D02*
Y-291172D01*
X266750Y-253931D02*
Y-249994D01*
X264782Y-251962D02*
X268719D01*
X266750Y-239431D02*
Y-235494D01*
X264782Y-237462D02*
X268719D01*
X214982Y-281912D02*
X218919D01*
X216950Y-283880D02*
Y-279943D01*
X214982Y-253652D02*
X218919D01*
X216950Y-255621D02*
Y-251684D01*
X185050Y-273231D02*
Y-269294D01*
X183082Y-271262D02*
X187019D01*
X260061Y-228962D02*
X263840D01*
X261950Y-230852D02*
Y-227072D01*
X268661Y-228962D02*
X272440D01*
X270550Y-230852D02*
Y-227072D01*
X260061Y-188862D02*
X263840D01*
X261950Y-190752D02*
Y-186972D01*
X268661Y-188862D02*
X272440D01*
X270550Y-190752D02*
Y-186972D01*
X291950Y-214152D02*
Y-210372D01*
X290061Y-212262D02*
X293840D01*
X301582Y-169762D02*
X305519D01*
X303550Y-171731D02*
Y-167794D01*
X276150Y-144031D02*
Y-140094D01*
X274182Y-142062D02*
X278119D01*
X303550Y-151631D02*
Y-147694D01*
X301582Y-149662D02*
X305519D01*
X271450Y-119431D02*
Y-115494D01*
X269482Y-117462D02*
X273419D01*
X287450Y-119431D02*
Y-115494D01*
X285482Y-117462D02*
X289419D01*
X300982Y-129722D02*
X304919D01*
X302950Y-131691D02*
Y-127753D01*
X300982Y-101222D02*
X304919D01*
X302950Y-103191D02*
Y-99253D01*
X198150Y-66452D02*
Y-62672D01*
X196261Y-64562D02*
X200040D01*
X181661Y-99862D02*
X185440D01*
X183550Y-101752D02*
Y-97972D01*
X167361Y-99862D02*
X171140D01*
X169250Y-101752D02*
Y-97972D01*
X176350Y-53452D02*
Y-49672D01*
X174461Y-51562D02*
X178240D01*
X151350Y-71552D02*
Y-67772D01*
X149461Y-69662D02*
X153240D01*
X129850Y-231652D02*
Y-227872D01*
X127961Y-229762D02*
X131740D01*
X158761Y-20762D02*
X162540D01*
X160650Y-22652D02*
Y-18872D01*
X189282Y-20562D02*
X193219D01*
X191250Y-22531D02*
Y-18594D01*
X169461Y-20662D02*
X173240D01*
X171350Y-22552D02*
Y-18772D01*
X91861Y-233762D02*
X95640D01*
X93750Y-235652D02*
Y-231872D01*
X68361Y-214162D02*
X72140D01*
X70250Y-216052D02*
Y-212272D01*
X25882Y-223562D02*
X29819D01*
X27850Y-225531D02*
Y-221594D01*
X72550Y-181752D02*
Y-177972D01*
X70661Y-179862D02*
X74440D01*
X72450Y-190252D02*
Y-186472D01*
X70561Y-188362D02*
X74340D01*
X48950Y-204331D02*
Y-200394D01*
X46982Y-202362D02*
X50919D01*
X286082Y-142002D02*
X290019D01*
X288050Y-143971D02*
Y-140034D01*
X99650Y-99331D02*
Y-95394D01*
X97682Y-97362D02*
X101619D01*
X322264Y-48110D02*
X342736D01*
X322264Y-311890D02*
X342736D01*
Y-48110D01*
X322264Y-311890D02*
Y-48110D01*
X330532Y-180000D02*
X334469D01*
X332500Y-181968D02*
Y-178032D01*
X342264Y-48110D02*
X362736D01*
X342264Y-311890D02*
X362736D01*
Y-48110D01*
X342264Y-311890D02*
Y-48110D01*
X350532Y-180000D02*
X354468D01*
X352500Y-181968D02*
Y-178032D01*
X312931Y-198300D02*
X316868D01*
X314900Y-200269D02*
Y-196332D01*
X49050Y-68432D02*
Y-64692D01*
X47180Y-66562D02*
X50920D01*
X69282Y-59962D02*
X73219D01*
X71250Y-61931D02*
Y-57994D01*
X203650Y-313990D02*
Y-310249D01*
X201780Y-312120D02*
X205521D01*
X201582Y-289962D02*
X205519D01*
X203550Y-291931D02*
Y-287994D01*
X368550Y-277243D02*
Y-273306D01*
X366582Y-275275D02*
X370519D01*
X41331Y-318500D02*
X45268D01*
X43300Y-320468D02*
Y-316531D01*
X322650Y-327531D02*
Y-323594D01*
X320682Y-325562D02*
X324619D01*
X27950Y-242331D02*
Y-238394D01*
X25982Y-240362D02*
X29919D01*
X307091Y-236291D02*
Y-232353D01*
X305122Y-234322D02*
X309059D01*
X107782Y-310062D02*
X111719D01*
X109750Y-312031D02*
Y-308094D01*
X312882Y-245862D02*
X316819D01*
X314850Y-247831D02*
Y-243894D01*
X135782Y-145262D02*
X139719D01*
X137750Y-147231D02*
Y-143294D01*
X312782Y-222762D02*
X316719D01*
X314750Y-224731D02*
Y-220794D01*
X289682Y-238362D02*
X293619D01*
X291650Y-240331D02*
Y-236394D01*
X314900Y-214568D02*
Y-210631D01*
X312931Y-212600D02*
X316868D01*
X368550Y-291931D02*
Y-287994D01*
X366582Y-289962D02*
X370519D01*
X144532Y-93300D02*
X148468D01*
X146500Y-95268D02*
Y-91331D01*
X131900Y-119425D02*
Y-115488D01*
X129931Y-117457D02*
X133869D01*
X289682Y-230262D02*
X293619D01*
X291650Y-232231D02*
Y-228294D01*
X124082Y-170062D02*
X128019D01*
X126050Y-172031D02*
Y-168094D01*
X138882Y-170062D02*
X142819D01*
X140850Y-172031D02*
Y-168094D01*
X243150Y-212631D02*
Y-208694D01*
X241182Y-210662D02*
X245119D01*
X240350Y-282831D02*
Y-278894D01*
X238382Y-280862D02*
X242319D01*
X298650Y-327531D02*
Y-323594D01*
X296682Y-325562D02*
X300619D01*
X275450Y-327531D02*
Y-323594D01*
X273482Y-325562D02*
X277419D01*
X309582Y-307362D02*
X313519D01*
X311550Y-309331D02*
Y-305394D01*
X312917Y-260262D02*
X316854D01*
X314886Y-262231D02*
Y-258294D01*
X294682Y-297062D02*
X298619D01*
X296650Y-299031D02*
Y-295094D01*
X294682Y-288862D02*
X298619D01*
X296650Y-290831D02*
Y-286894D01*
X309582Y-315562D02*
X313519D01*
X311550Y-317531D02*
Y-313594D01*
X40050Y-275131D02*
Y-271194D01*
X38082Y-273162D02*
X42019D01*
X48350Y-275131D02*
Y-271194D01*
X46382Y-273162D02*
X50319D01*
X149680Y-185762D02*
X153420D01*
X151550Y-187632D02*
Y-183892D01*
X143246Y-253262D02*
X147184D01*
X145215Y-255231D02*
Y-251294D01*
X157982Y-245062D02*
X161919D01*
X159950Y-247031D02*
Y-243094D01*
X157982Y-253262D02*
X161919D01*
X159950Y-255231D02*
Y-251294D01*
X172782Y-253262D02*
X176719D01*
X174750Y-255231D02*
Y-251294D01*
X185782Y-274262D02*
X189719D01*
X187750Y-276231D02*
Y-272294D01*
X109650Y-314088D02*
Y-310151D01*
X107682Y-312120D02*
X111619D01*
X107982Y-293362D02*
X111919D01*
X109950Y-295331D02*
Y-291394D01*
X312082Y-39362D02*
X316019D01*
X314050Y-41331D02*
Y-37394D01*
X295350Y-79231D02*
Y-75294D01*
X293382Y-77262D02*
X297319D01*
X122682Y-279062D02*
X126619D01*
X124650Y-281031D02*
Y-277094D01*
X107782Y-291162D02*
X111719D01*
X109750Y-293131D02*
Y-289194D01*
X122682Y-291162D02*
X126619D01*
X124650Y-293131D02*
Y-289194D01*
X163282Y-129762D02*
X167219D01*
X165250Y-131731D02*
Y-127794D01*
X163282Y-121562D02*
X167219D01*
X165250Y-123531D02*
Y-119594D01*
X160850Y-101831D02*
Y-97894D01*
X158882Y-99862D02*
X162819D01*
X163282Y-113462D02*
X167219D01*
X165250Y-115431D02*
Y-111494D01*
X229150Y-259731D02*
Y-255794D01*
X227182Y-257762D02*
X231119D01*
X232150Y-282931D02*
Y-278994D01*
X230182Y-280962D02*
X234119D01*
X189327Y-113422D02*
X193264D01*
X191296Y-115390D02*
Y-111453D01*
X189382Y-121562D02*
X193319D01*
X191350Y-123531D02*
Y-119594D01*
X316850Y-161331D02*
Y-157394D01*
X314882Y-159362D02*
X318819D01*
X316850Y-134231D02*
Y-130294D01*
X314882Y-132262D02*
X318819D01*
X267550Y-144031D02*
Y-140094D01*
X265582Y-142062D02*
X269519D01*
X284182Y-181462D02*
X288119D01*
X286150Y-183431D02*
Y-179494D01*
X238482Y-293062D02*
X242419D01*
X240450Y-295031D02*
Y-291094D01*
X99596Y-82426D02*
Y-78489D01*
X97627Y-80457D02*
X101564D01*
X107550Y-82431D02*
Y-78494D01*
X105582Y-80462D02*
X109519D01*
X110082Y-25062D02*
X114019D01*
X112050Y-27031D02*
Y-23094D01*
X110082Y-16962D02*
X114019D01*
X112050Y-18931D02*
Y-14994D01*
X368450Y-307831D02*
Y-303894D01*
X366482Y-305862D02*
X370419D01*
X41382Y-286462D02*
X45319D01*
X43350Y-288431D02*
Y-284494D01*
X210250Y-91531D02*
Y-87594D01*
X208282Y-89562D02*
X212219D01*
X203682Y-45362D02*
X207619D01*
X205650Y-47331D02*
Y-43394D01*
X118350Y-243231D02*
Y-239294D01*
X116382Y-241262D02*
X120319D01*
X118982Y-258862D02*
X122919D01*
X120950Y-260831D02*
Y-256894D01*
X102850Y-123983D02*
Y-120046D01*
X100882Y-122015D02*
X104819D01*
X25882Y-231962D02*
X29819D01*
X27850Y-233931D02*
Y-229994D01*
X25982Y-248762D02*
X29919D01*
X27950Y-250731D02*
Y-246794D01*
X25982Y-256962D02*
X29919D01*
X27950Y-258931D02*
Y-254994D01*
X80082Y-245262D02*
X84019D01*
X82050Y-247231D02*
Y-243294D01*
X111682Y-205962D02*
X115619D01*
X113650Y-207931D02*
Y-203994D01*
X70450Y-235831D02*
Y-231894D01*
X68482Y-233862D02*
X72419D01*
X83882Y-195862D02*
X87819D01*
X85850Y-197831D02*
Y-193894D01*
X107282Y-197762D02*
X111219D01*
X109250Y-199731D02*
Y-195794D01*
X99282Y-189662D02*
X103219D01*
X101250Y-191631D02*
Y-187694D01*
X41382Y-300462D02*
X45319D01*
X43350Y-302431D02*
Y-298494D01*
X41382Y-309362D02*
X45319D01*
X43350Y-311331D02*
Y-307394D01*
X237282Y-190662D02*
X241219D01*
X239250Y-192631D02*
Y-188694D01*
X133450Y-160531D02*
Y-156594D01*
X131482Y-158562D02*
X135419D01*
X298782Y-127962D02*
X302719D01*
X300750Y-129931D02*
Y-125994D01*
X266286Y-175931D02*
Y-171994D01*
X264317Y-173962D02*
X268254D01*
X266250Y-135895D02*
Y-131958D01*
X264282Y-133927D02*
X268219D01*
X69182Y-41262D02*
X73119D01*
X71150Y-43231D02*
Y-39294D01*
X159986Y-273371D02*
Y-269434D01*
X158017Y-271402D02*
X161954D01*
X201682Y-309962D02*
X205619D01*
X203650Y-311931D02*
Y-307994D01*
X310350Y-68731D02*
Y-64794D01*
X308382Y-66762D02*
X312319D01*
X295750Y-42331D02*
Y-38394D01*
X293782Y-40362D02*
X297719D01*
X212250Y-269731D02*
Y-265794D01*
X210282Y-267762D02*
X214219D01*
X285082Y-325562D02*
X289019D01*
X287050Y-327531D02*
Y-323594D01*
X298782Y-187562D02*
X302719D01*
X300750Y-189531D02*
Y-185594D01*
X266286Y-245831D02*
Y-241894D01*
X264317Y-243862D02*
X268254D01*
X266286Y-205731D02*
Y-201794D01*
X264317Y-203762D02*
X268254D01*
X279450Y-167831D02*
Y-163894D01*
X277482Y-165862D02*
X281419D01*
X300982Y-113522D02*
X304919D01*
X302950Y-115490D02*
Y-111554D01*
X143650Y-22731D02*
Y-18794D01*
X141682Y-20762D02*
X145619D01*
X127882Y-241262D02*
X131819D01*
X129850Y-243231D02*
Y-239294D01*
X82050Y-235731D02*
Y-231794D01*
X80082Y-233762D02*
X84019D01*
X48950Y-187131D02*
Y-183194D01*
X46982Y-185162D02*
X50919D01*
X84582Y-184462D02*
X88519D01*
X86550Y-186431D02*
Y-182494D01*
X141282Y-13462D02*
X145219D01*
X143250Y-15431D02*
Y-11494D01*
X99282Y-180662D02*
X103219D01*
X101250Y-182631D02*
Y-178694D01*
X72550Y-170652D02*
Y-166872D01*
X70661Y-168762D02*
X74440D01*
X73582Y-157162D02*
X77519D01*
X75550Y-159131D02*
Y-155194D01*
X97750Y-216031D02*
Y-212094D01*
X95782Y-214062D02*
X99719D01*
X80082D02*
X84019D01*
X82050Y-216031D02*
Y-212094D01*
X211050Y-22531D02*
Y-18594D01*
X209082Y-20562D02*
X213019D01*
X45750Y-89431D02*
Y-85494D01*
X43782Y-87462D02*
X47719D01*
X79050Y-127366D02*
Y-123429D01*
X77082Y-125398D02*
X81019D01*
X161682Y-63362D02*
X165619D01*
X163650Y-65331D02*
Y-61394D01*
X139261Y-284262D02*
X143040D01*
X141150Y-286152D02*
Y-282372D01*
X266386Y-148277D02*
Y-144340D01*
X264417Y-146309D02*
X268354D01*
X266386Y-218131D02*
Y-214194D01*
X264417Y-216162D02*
X268354D01*
X238600Y-71601D02*
Y-67664D01*
X236631Y-69632D02*
X240568D01*
X238600Y-79268D02*
Y-75331D01*
X236631Y-77300D02*
X240568D01*
D142*
X155935Y-129268D02*
Y-105646D01*
X137332Y-129268D02*
Y-105646D01*
Y-129268D02*
X155935D01*
X137332Y-105646D02*
X155935D01*
X287439Y-196012D02*
X311062D01*
X287439Y-214614D02*
X311062D01*
X287439D02*
Y-196012D01*
X311062Y-214614D02*
Y-196012D01*
X36264Y-321202D02*
Y-313722D01*
X50437Y-321202D02*
Y-313722D01*
X36264Y-321202D02*
X50437D01*
X36264Y-313722D02*
X50437D01*
X42010Y-117149D02*
X49491D01*
X42010Y-102975D02*
X49491D01*
X42010Y-117149D02*
Y-102975D01*
X49491Y-117149D02*
Y-102975D01*
X45013Y-163175D02*
X52887D01*
X45013Y-177349D02*
X52887D01*
X45013D02*
Y-163175D01*
X52887Y-177349D02*
Y-163175D01*
X187898Y-170777D02*
Y-160147D01*
X193803Y-170777D02*
Y-160147D01*
X187898Y-170777D02*
X193803D01*
X187898Y-160147D02*
X193803D01*
X289564Y-303622D02*
X303737D01*
X289564Y-311102D02*
X303737D01*
Y-303622D01*
X289564Y-311102D02*
Y-303622D01*
X177540Y-301486D02*
Y-279438D01*
X146832Y-301486D02*
Y-279438D01*
X177540D01*
X146832Y-301486D02*
X177540D01*
X75310Y-133275D02*
X82791D01*
X75310Y-147449D02*
X82791D01*
X75310D02*
Y-133275D01*
X82791Y-147449D02*
Y-133275D01*
X122187Y-12849D02*
Y1324D01*
X114313Y-12849D02*
Y1324D01*
X122187D01*
X114313Y-12849D02*
X122187D01*
X129064Y-188102D02*
X143237D01*
X129064Y-180622D02*
X143237D01*
X129064Y-188102D02*
Y-180622D01*
X143237Y-188102D02*
Y-180622D01*
X91265Y-36415D02*
Y-30509D01*
X80635Y-36415D02*
Y-30509D01*
X91265D01*
X80635Y-36415D02*
X91265D01*
X200785Y-334553D02*
Y-328647D01*
X211415Y-334553D02*
Y-328647D01*
X200785Y-334553D02*
X211415D01*
X200785Y-328647D02*
X211415D01*
X137328Y-333953D02*
Y-328047D01*
X147958Y-333953D02*
Y-328047D01*
X137328Y-333953D02*
X147958D01*
X137328Y-328047D02*
X147958D01*
X53598Y-45547D02*
X59503D01*
X53598Y-56177D02*
X59503D01*
X53598D02*
Y-45547D01*
X59503Y-56177D02*
Y-45547D01*
X292164Y-196637D02*
Y-188763D01*
X306337Y-196637D02*
Y-188763D01*
X292164D02*
X306337D01*
X292164Y-196637D02*
X306337D01*
X42798Y-76077D02*
Y-65447D01*
X48703Y-76077D02*
Y-65447D01*
X42798Y-76077D02*
X48703D01*
X42798Y-65447D02*
X48703D01*
X279413Y-205349D02*
X287287D01*
X279413Y-191175D02*
X287287D01*
X279413Y-205349D02*
Y-191175D01*
X287287Y-205349D02*
Y-191175D01*
X153587Y-105237D02*
Y-97363D01*
X139413Y-105237D02*
Y-97363D01*
X153587D01*
X139413Y-105237D02*
X153587D01*
X130664Y-140899D02*
Y-133025D01*
X144837Y-140899D02*
Y-133025D01*
X130664Y-140899D02*
X144837D01*
X130664Y-133025D02*
X144837D01*
X124703Y-163877D02*
Y-153247D01*
X118798Y-163877D02*
Y-153247D01*
Y-163877D02*
X124703D01*
X118798Y-153247D02*
X124703D01*
X230803Y-201077D02*
Y-190447D01*
X224898Y-201077D02*
Y-190447D01*
Y-201077D02*
X230803D01*
X224898Y-190447D02*
X230803D01*
X264903Y-165477D02*
Y-154847D01*
X258998Y-165477D02*
Y-154847D01*
Y-165477D02*
X264903D01*
X258998Y-154847D02*
X264903D01*
X273503Y-165477D02*
Y-154847D01*
X267598Y-165477D02*
Y-154847D01*
Y-165477D02*
X273503D01*
X267598Y-154847D02*
X273503D01*
X264903Y-124342D02*
Y-113712D01*
X258998Y-124342D02*
Y-113712D01*
Y-124342D02*
X264903D01*
X258998Y-113712D02*
X264903D01*
X273503Y-124342D02*
Y-113712D01*
X267598Y-124342D02*
Y-113712D01*
Y-124342D02*
X273503D01*
X267598Y-113712D02*
X273503D01*
X286536Y-155615D02*
X297165D01*
X286536Y-149709D02*
X297165D01*
X286536Y-155615D02*
Y-149709D01*
X297165Y-155615D02*
Y-149709D01*
X36387Y-171637D02*
Y-163763D01*
X22213Y-171637D02*
Y-163763D01*
Y-171637D02*
X36387D01*
X22213Y-163763D02*
X36387D01*
X36813Y-171637D02*
Y-163763D01*
X50987Y-171637D02*
Y-163763D01*
X36813D02*
X50987D01*
X36813Y-171637D02*
X50987D01*
X151936Y-201415D02*
X162565D01*
X151936Y-195509D02*
X162565D01*
Y-201415D02*
Y-195509D01*
X151936Y-201415D02*
Y-195509D01*
Y-209015D02*
X162565D01*
X151936Y-203109D02*
X162565D01*
Y-209015D02*
Y-203109D01*
X151936Y-209015D02*
Y-203109D01*
X217235Y-202009D02*
X227865D01*
X217235Y-207915D02*
X227865D01*
X217235D02*
Y-202009D01*
X227865Y-207915D02*
Y-202009D01*
X174685Y-165247D02*
X185315D01*
X174685Y-171153D02*
X185315D01*
X174685D02*
Y-165247D01*
X185315Y-171153D02*
Y-165247D01*
X156298Y-191077D02*
Y-180447D01*
X162203Y-191077D02*
Y-180447D01*
X156298Y-191077D02*
X162203D01*
X156298Y-180447D02*
X162203D01*
X205803Y-236077D02*
Y-225447D01*
X199898Y-236077D02*
Y-225447D01*
X205803D01*
X199898Y-236077D02*
X205803D01*
X217235Y-192709D02*
X227865D01*
X217235Y-198615D02*
X227865D01*
X217235D02*
Y-192709D01*
X227865Y-198615D02*
Y-192709D01*
X194898Y-170777D02*
Y-160147D01*
X200803Y-170777D02*
Y-160147D01*
X194898Y-170777D02*
X200803D01*
X194898Y-160147D02*
X200803D01*
X209413Y-158376D02*
X217287D01*
X209413Y-172549D02*
X217287D01*
Y-158376D01*
X209413Y-172549D02*
Y-158376D01*
X201898Y-170777D02*
Y-160147D01*
X207803Y-170777D02*
Y-160147D01*
X201898Y-170777D02*
X207803D01*
X201898Y-160147D02*
X207803D01*
X184003Y-236077D02*
Y-225447D01*
X178098Y-236077D02*
Y-225447D01*
X184003D01*
X178098Y-236077D02*
X184003D01*
X263773Y-190254D02*
X279128D01*
X263773Y-220963D02*
X279128D01*
Y-190254D01*
X263773Y-220963D02*
Y-190254D01*
X147693Y-257709D02*
X158323D01*
X147693Y-263615D02*
X158323D01*
Y-257709D01*
X147693Y-263615D02*
Y-257709D01*
X168731Y-169229D02*
X172669D01*
X168731Y-161749D02*
X172669D01*
X168731Y-169229D02*
Y-161749D01*
X172669Y-169229D02*
Y-161749D01*
X148282Y-161811D02*
X152219D01*
X148282Y-169291D02*
X152219D01*
Y-161811D01*
X148282Y-169291D02*
Y-161811D01*
X177805Y-268039D02*
Y-252685D01*
X147096Y-268039D02*
Y-252685D01*
Y-268039D02*
X177805D01*
X147096Y-252685D02*
X177805D01*
X183635Y-287015D02*
X194265D01*
X183635Y-281109D02*
X194265D01*
Y-287015D02*
Y-281109D01*
X183635Y-287015D02*
Y-281109D01*
Y-296215D02*
X194265D01*
X183635Y-290309D02*
X194265D01*
Y-296215D02*
Y-290309D01*
X183635Y-296215D02*
Y-290309D01*
X200698Y-298377D02*
Y-287747D01*
X206603Y-298377D02*
Y-287747D01*
X200698Y-298377D02*
X206603D01*
X200698Y-287747D02*
X206603D01*
X262813Y-244876D02*
X270687D01*
X262813Y-259049D02*
X270687D01*
Y-244876D01*
X262813Y-259049D02*
Y-244876D01*
Y-244549D02*
X270687D01*
X262813Y-230376D02*
X270687D01*
X262813Y-244549D02*
Y-230376D01*
X270687Y-244549D02*
Y-230376D01*
X209864Y-285849D02*
Y-277975D01*
X224037Y-285849D02*
Y-277975D01*
X209864Y-285849D02*
X224037D01*
X209864Y-277975D02*
X224037D01*
X209864Y-257589D02*
Y-249715D01*
X224037Y-257589D02*
Y-249715D01*
X209864Y-257589D02*
X224037D01*
X209864Y-249715D02*
X224037D01*
X181113Y-278349D02*
X188987D01*
X181113Y-264176D02*
X188987D01*
Y-278349D02*
Y-264176D01*
X181113Y-278349D02*
Y-264176D01*
X264903Y-234277D02*
Y-223647D01*
X258998Y-234277D02*
Y-223647D01*
Y-234277D02*
X264903D01*
X258998Y-223647D02*
X264903D01*
X273503Y-234277D02*
Y-223647D01*
X267598Y-234277D02*
Y-223647D01*
Y-234277D02*
X273503D01*
X267598Y-223647D02*
X273503D01*
X264903Y-194177D02*
Y-183547D01*
X258998Y-194177D02*
Y-183547D01*
Y-194177D02*
X264903D01*
X258998Y-183547D02*
X264903D01*
X273503Y-194177D02*
Y-183547D01*
X267598Y-194177D02*
Y-183547D01*
Y-194177D02*
X273503D01*
X267598Y-183547D02*
X273503D01*
X286635Y-215215D02*
X297265D01*
X286635Y-209309D02*
X297265D01*
X286635Y-215215D02*
Y-209309D01*
X297265Y-215215D02*
Y-209309D01*
X310637Y-173699D02*
Y-165825D01*
X296464Y-173699D02*
Y-165825D01*
Y-173699D02*
X310637D01*
X296464Y-165825D02*
X310637D01*
X272213Y-134976D02*
X280087D01*
X272213Y-149149D02*
X280087D01*
Y-134976D01*
X272213Y-149149D02*
Y-134976D01*
X295873Y-134308D02*
X311228D01*
X295873Y-165016D02*
X311228D01*
Y-134308D01*
X295873Y-165016D02*
Y-134308D01*
X263773Y-102108D02*
X279128D01*
X263773Y-132817D02*
X279128D01*
Y-102108D01*
X263773Y-132817D02*
Y-102108D01*
X279773D02*
X295128D01*
X279773Y-132817D02*
X295128D01*
Y-102108D01*
X279773Y-132817D02*
Y-102108D01*
X295864Y-133659D02*
Y-125785D01*
X310037Y-133659D02*
Y-125785D01*
X295864D02*
X310037D01*
X295864Y-133659D02*
X310037D01*
X310037Y-105159D02*
Y-97285D01*
X295864Y-105159D02*
Y-97285D01*
Y-105159D02*
X310037D01*
X295864Y-97285D02*
X310037D01*
X192835Y-67515D02*
X203465D01*
X192835Y-61609D02*
X203465D01*
Y-67515D02*
Y-61609D01*
X192835Y-67515D02*
Y-61609D01*
X180598Y-105177D02*
Y-94547D01*
X186503Y-105177D02*
Y-94547D01*
X180598D02*
X186503D01*
X180598Y-105177D02*
X186503D01*
X166298D02*
Y-94547D01*
X172203Y-105177D02*
Y-94547D01*
X166298D02*
X172203D01*
X166298Y-105177D02*
X172203D01*
X171036Y-48609D02*
X181665D01*
X171036Y-54515D02*
X181665D01*
X171036D02*
Y-48609D01*
X181665Y-54515D02*
Y-48609D01*
X146036Y-66709D02*
X156665D01*
X146036Y-72615D02*
X156665D01*
X146036D02*
Y-66709D01*
X156665Y-72615D02*
Y-66709D01*
X124536Y-232715D02*
X135165D01*
X124536Y-226809D02*
X135165D01*
X124536Y-232715D02*
Y-226809D01*
X135165Y-232715D02*
Y-226809D01*
X163603Y-26077D02*
Y-15447D01*
X157698Y-26077D02*
Y-15447D01*
X163603D01*
X157698Y-26077D02*
X163603D01*
X175896Y-28239D02*
Y-12885D01*
X206605Y-28239D02*
Y-12885D01*
X175896D02*
X206605D01*
X175896Y-28239D02*
X206605D01*
X168398Y-25977D02*
Y-15347D01*
X174303Y-25977D02*
Y-15347D01*
X168398Y-25977D02*
X174303D01*
X168398Y-15347D02*
X174303D01*
X90798Y-239077D02*
Y-228447D01*
X96703Y-239077D02*
Y-228447D01*
X90798D02*
X96703D01*
X90798Y-239077D02*
X96703D01*
X67298Y-219477D02*
Y-208847D01*
X73203Y-219477D02*
Y-208847D01*
X67298D02*
X73203D01*
X67298Y-219477D02*
X73203D01*
X34937Y-227499D02*
Y-219625D01*
X20764Y-227499D02*
Y-219625D01*
X34937D01*
X20764Y-227499D02*
X34937D01*
X67235Y-176909D02*
X77865D01*
X67235Y-182815D02*
X77865D01*
Y-176909D01*
X67235Y-182815D02*
Y-176909D01*
X67136Y-185409D02*
X77765D01*
X67136Y-191315D02*
X77765D01*
Y-185409D01*
X67136Y-191315D02*
Y-185409D01*
X45013Y-195275D02*
X52887D01*
X45013Y-209449D02*
X52887D01*
X45013D02*
Y-195275D01*
X52887Y-209449D02*
Y-195275D01*
X295137Y-149680D02*
Y-134325D01*
X280964Y-149680D02*
Y-134325D01*
X295137D01*
X280964Y-149680D02*
X295137D01*
X95910Y-89488D02*
X103391D01*
X95910Y-105236D02*
X103391D01*
X95910D02*
Y-89488D01*
X103391Y-105236D02*
Y-89488D01*
X311160Y-205387D02*
Y-191213D01*
X318640Y-205387D02*
Y-191213D01*
X311160Y-205387D02*
X318640D01*
X311160Y-191213D02*
X318640D01*
X46098Y-71877D02*
X52003D01*
X46098Y-61247D02*
X52003D01*
Y-71877D02*
Y-61247D01*
X46098Y-71877D02*
Y-61247D01*
X75778Y-68462D02*
Y-51462D01*
X66723Y-68462D02*
Y-51462D01*
Y-68462D02*
X75778D01*
X66723Y-51462D02*
X75778D01*
X200698Y-306805D02*
X206603D01*
X200698Y-317435D02*
X206603D01*
Y-306805D01*
X200698Y-317435D02*
Y-306805D01*
X199023Y-298462D02*
Y-281462D01*
X208078Y-298462D02*
Y-281462D01*
X199023D02*
X208078D01*
X199023Y-298462D02*
X208078D01*
X364613Y-282361D02*
X372487D01*
X364613Y-268188D02*
X372487D01*
X364613Y-282361D02*
Y-268188D01*
X372487Y-282361D02*
Y-268188D01*
X36213Y-322437D02*
Y-314563D01*
X50387Y-322437D02*
Y-314563D01*
X36213D02*
X50387D01*
X36213Y-322437D02*
X50387D01*
X318713Y-332649D02*
X326587D01*
X318713Y-318476D02*
X326587D01*
Y-332649D02*
Y-318476D01*
X318713Y-332649D02*
Y-318476D01*
X20864Y-244299D02*
X35037D01*
X20864Y-236425D02*
X35037D01*
X20864Y-244299D02*
Y-236425D01*
X35037Y-244299D02*
Y-236425D01*
X299413Y-227235D02*
X314768D01*
X299413Y-241409D02*
X314768D01*
Y-227235D01*
X299413Y-241409D02*
Y-227235D01*
X116837Y-317739D02*
Y-302385D01*
X102664Y-317739D02*
Y-302385D01*
Y-317739D02*
X116837D01*
X102664Y-302385D02*
X116837D01*
X307764Y-249602D02*
Y-242122D01*
X321937Y-249602D02*
Y-242122D01*
X307764Y-249602D02*
X321937D01*
X307764Y-242122D02*
X321937D01*
X130664Y-149002D02*
Y-141522D01*
X144837Y-149002D02*
Y-141522D01*
X130664Y-149002D02*
X144837D01*
X130664Y-141522D02*
X144837D01*
X321837Y-226502D02*
Y-219022D01*
X307664Y-226502D02*
Y-219022D01*
X321837D01*
X307664Y-226502D02*
X321837D01*
X284564Y-242102D02*
Y-234622D01*
X298737Y-242102D02*
Y-234622D01*
X284564Y-242102D02*
X298737D01*
X284564Y-234622D02*
X298737D01*
X311160Y-219687D02*
X318640D01*
X311160Y-205513D02*
X318640D01*
X311160Y-219687D02*
Y-205513D01*
X318640Y-219687D02*
Y-205513D01*
X364810Y-297049D02*
X372291D01*
X364810Y-282875D02*
X372291D01*
X364810Y-297049D02*
Y-282875D01*
X372291Y-297049D02*
Y-282875D01*
X153587Y-97040D02*
Y-89560D01*
X139413Y-97040D02*
Y-89560D01*
X153587D01*
X139413Y-97040D02*
X153587D01*
X128160Y-124543D02*
X135640D01*
X128160Y-110370D02*
X135640D01*
Y-124543D02*
Y-110370D01*
X128160Y-124543D02*
Y-110370D01*
X298737Y-234002D02*
Y-226522D01*
X284564Y-234002D02*
Y-226522D01*
X298737D01*
X284564Y-234002D02*
X298737D01*
X133137Y-173802D02*
Y-166322D01*
X118964Y-173802D02*
Y-166322D01*
X133137D01*
X118964Y-173802D02*
X133137D01*
X133764D02*
Y-166322D01*
X147937Y-173802D02*
Y-166322D01*
X133764Y-173802D02*
X147937D01*
X133764Y-166322D02*
X147937D01*
X239410Y-217749D02*
X246891D01*
X239410Y-203575D02*
X246891D01*
Y-217749D02*
Y-203575D01*
X239410Y-217749D02*
Y-203575D01*
X236610Y-287949D02*
X244091D01*
X236610Y-273776D02*
X244091D01*
Y-287949D02*
Y-273776D01*
X236610Y-287949D02*
Y-273776D01*
X294910Y-332649D02*
X302391D01*
X294910Y-318476D02*
X302391D01*
Y-332649D02*
Y-318476D01*
X294910Y-332649D02*
Y-318476D01*
X271710D02*
X279191D01*
X271710Y-332649D02*
X279191D01*
X271710D02*
Y-318476D01*
X279191Y-332649D02*
Y-318476D01*
X318637Y-311102D02*
Y-303622D01*
X304464Y-311102D02*
Y-303622D01*
X318637D01*
X304464Y-311102D02*
X318637D01*
X321972Y-264002D02*
Y-256522D01*
X307799Y-264002D02*
Y-256522D01*
X321972D01*
X307799Y-264002D02*
X321972D01*
X303737Y-300802D02*
Y-293322D01*
X289564Y-300802D02*
Y-293322D01*
X303737D01*
X289564Y-300802D02*
X303737D01*
Y-292602D02*
Y-285122D01*
X289564Y-292602D02*
Y-285122D01*
X303737D01*
X289564Y-292602D02*
X303737D01*
X318637Y-319302D02*
Y-311822D01*
X304464Y-319302D02*
Y-311822D01*
X318637D01*
X304464Y-319302D02*
X318637D01*
X36310Y-266075D02*
X43791D01*
X36310Y-280249D02*
X43791D01*
Y-266075D01*
X36310Y-280249D02*
Y-266075D01*
X44610Y-280249D02*
X52091D01*
X44610Y-266075D02*
X52091D01*
X44610Y-280249D02*
Y-266075D01*
X52091Y-280249D02*
Y-266075D01*
X148598Y-191077D02*
Y-180447D01*
X154503Y-191077D02*
Y-180447D01*
X148598Y-191077D02*
X154503D01*
X148598Y-180447D02*
X154503D01*
X138128Y-257002D02*
Y-249522D01*
X152302Y-257002D02*
Y-249522D01*
X138128Y-257002D02*
X152302D01*
X138128Y-249522D02*
X152302D01*
X167037Y-248802D02*
Y-241322D01*
X152864Y-248802D02*
Y-241322D01*
X167037D01*
X152864Y-248802D02*
X167037D01*
X152864Y-257002D02*
Y-249522D01*
X167037Y-257002D02*
Y-249522D01*
X152864Y-257002D02*
X167037D01*
X152864Y-249522D02*
X167037D01*
X167664Y-257002D02*
Y-249522D01*
X181837Y-257002D02*
Y-249522D01*
X167664Y-257002D02*
X181837D01*
X167664Y-249522D02*
X181837D01*
X180664Y-278002D02*
Y-270522D01*
X194837Y-278002D02*
Y-270522D01*
X180664D02*
X194837D01*
X180664Y-278002D02*
X194837D01*
X105910Y-319206D02*
X113391D01*
X105910Y-305033D02*
X113391D01*
X105910Y-319206D02*
Y-305033D01*
X113391Y-319206D02*
Y-305033D01*
X117037Y-297102D02*
Y-289622D01*
X102864Y-297102D02*
Y-289622D01*
X117037D01*
X102864Y-297102D02*
X117037D01*
X306964Y-43102D02*
Y-35622D01*
X321137Y-43102D02*
Y-35622D01*
X306964Y-43102D02*
X321137D01*
X306964Y-35622D02*
X321137D01*
X291610Y-70175D02*
X299091D01*
X291610Y-84349D02*
X299091D01*
Y-70175D01*
X291610Y-84349D02*
Y-70175D01*
X117564Y-282802D02*
Y-275322D01*
X131737Y-282802D02*
Y-275322D01*
X117564D02*
X131737D01*
X117564Y-282802D02*
X131737D01*
X116837Y-294902D02*
Y-287422D01*
X102664Y-294902D02*
Y-287422D01*
Y-294902D02*
X116837D01*
X102664Y-287422D02*
X116837D01*
X131737Y-294902D02*
Y-287422D01*
X117564Y-294902D02*
Y-287422D01*
Y-294902D02*
X131737D01*
X117564Y-287422D02*
X131737D01*
X172337Y-133502D02*
Y-126022D01*
X158164Y-133502D02*
Y-126022D01*
X172337D01*
X158164Y-133502D02*
X172337D01*
Y-125302D02*
Y-117822D01*
X158164Y-125302D02*
Y-117822D01*
X172337D01*
X158164Y-125302D02*
X172337D01*
X157110Y-92775D02*
X164591D01*
X157110Y-106949D02*
X164591D01*
X157110D02*
Y-92775D01*
X164591Y-106949D02*
Y-92775D01*
X172337Y-117202D02*
Y-109722D01*
X158164Y-117202D02*
Y-109722D01*
X172337D01*
X158164Y-117202D02*
X172337D01*
X225410Y-264849D02*
X232891D01*
X225410Y-250676D02*
X232891D01*
Y-264849D02*
Y-250676D01*
X225410Y-264849D02*
Y-250676D01*
X228410Y-288049D02*
X235891D01*
X228410Y-273875D02*
X235891D01*
Y-288049D02*
Y-273875D01*
X228410Y-288049D02*
Y-273875D01*
X198382Y-117162D02*
Y-109682D01*
X184209Y-117162D02*
Y-109682D01*
X198382D01*
X184209Y-117162D02*
X198382D01*
X198437Y-125302D02*
Y-117822D01*
X184264Y-125302D02*
Y-117822D01*
X198437D01*
X184264Y-125302D02*
X198437D01*
X313110Y-166449D02*
X320591D01*
X313110Y-152276D02*
X320591D01*
X313110Y-166449D02*
Y-152276D01*
X320591Y-166449D02*
Y-152276D01*
X313110Y-125175D02*
X320591D01*
X313110Y-139349D02*
X320591D01*
Y-125175D01*
X313110Y-139349D02*
Y-125175D01*
X263810Y-134976D02*
X271291D01*
X263810Y-149149D02*
X271291D01*
Y-134976D01*
X263810Y-149149D02*
Y-134976D01*
X293237Y-185202D02*
Y-177722D01*
X279064Y-185202D02*
Y-177722D01*
Y-185202D02*
X293237D01*
X279064Y-177722D02*
X293237D01*
X247537Y-296802D02*
Y-289322D01*
X233364Y-296802D02*
Y-289322D01*
X247537D01*
X233364Y-296802D02*
X247537D01*
X95856Y-73370D02*
X103336D01*
X95856Y-87544D02*
X103336D01*
X95856D02*
Y-73370D01*
X103336Y-87544D02*
Y-73370D01*
X103810Y-73375D02*
X111291D01*
X103810Y-87549D02*
X111291D01*
X103810D02*
Y-73375D01*
X111291Y-87549D02*
Y-73375D01*
X119137Y-28802D02*
Y-21322D01*
X104964Y-28802D02*
Y-21322D01*
Y-28802D02*
X119137D01*
X104964Y-21322D02*
X119137D01*
Y-20702D02*
Y-13222D01*
X104964Y-20702D02*
Y-13222D01*
Y-20702D02*
X119137D01*
X104964Y-13222D02*
X119137D01*
X364710Y-298776D02*
X372191D01*
X364710Y-312949D02*
X372191D01*
X364710D02*
Y-298776D01*
X372191Y-312949D02*
Y-298776D01*
X36264Y-290202D02*
Y-282722D01*
X50437Y-290202D02*
Y-282722D01*
X36264Y-290202D02*
X50437D01*
X36264Y-282722D02*
X50437D01*
X206510Y-96649D02*
X213991D01*
X206510Y-82476D02*
X213991D01*
Y-96649D02*
Y-82476D01*
X206510Y-96649D02*
Y-82476D01*
X212737Y-49102D02*
Y-41622D01*
X198564Y-49102D02*
Y-41622D01*
X212737D01*
X198564Y-49102D02*
X212737D01*
X114610Y-248349D02*
X122091D01*
X114610Y-234175D02*
X122091D01*
Y-248349D02*
Y-234175D01*
X114610Y-248349D02*
Y-234175D01*
X128037Y-262602D02*
Y-255122D01*
X113864Y-262602D02*
Y-255122D01*
X128037D01*
X113864Y-262602D02*
X128037D01*
X99110Y-114928D02*
X106591D01*
X99110Y-129102D02*
X106591D01*
X99110D02*
Y-114928D01*
X106591Y-129102D02*
Y-114928D01*
X34937Y-235702D02*
Y-228222D01*
X20764Y-235702D02*
Y-228222D01*
X34937D01*
X20764Y-235702D02*
X34937D01*
X20864Y-252502D02*
Y-245022D01*
X35037Y-252502D02*
Y-245022D01*
X20864Y-252502D02*
X35037D01*
X20864Y-245022D02*
X35037D01*
X20864Y-260702D02*
Y-253222D01*
X35037Y-260702D02*
Y-253222D01*
X20864Y-260702D02*
X35037D01*
X20864Y-253222D02*
X35037D01*
X74964Y-249002D02*
Y-241522D01*
X89137Y-249002D02*
Y-241522D01*
X74964Y-249002D02*
X89137D01*
X74964Y-241522D02*
X89137D01*
X106564Y-209702D02*
Y-202222D01*
X120737Y-209702D02*
Y-202222D01*
X106564Y-209702D02*
X120737D01*
X106564Y-202222D02*
X120737D01*
X66710Y-240949D02*
X74191D01*
X66710Y-226776D02*
X74191D01*
Y-240949D02*
Y-226776D01*
X66710Y-240949D02*
Y-226776D01*
X92937Y-199602D02*
Y-192122D01*
X78764Y-199602D02*
Y-192122D01*
X92937D01*
X78764Y-199602D02*
X92937D01*
X102164Y-201502D02*
Y-194022D01*
X116337Y-201502D02*
Y-194022D01*
X102164Y-201502D02*
X116337D01*
X102164Y-194022D02*
X116337D01*
X108337Y-193402D02*
Y-185922D01*
X94164Y-193402D02*
Y-185922D01*
X108337D01*
X94164Y-193402D02*
X108337D01*
X36264Y-304202D02*
Y-296722D01*
X50437Y-304202D02*
Y-296722D01*
X36264Y-304202D02*
X50437D01*
X36264Y-296722D02*
X50437D01*
X50437Y-313102D02*
Y-305622D01*
X36264Y-313102D02*
Y-305622D01*
X50437D01*
X36264Y-313102D02*
X50437D01*
X246140Y-202867D02*
Y-178457D01*
X232361Y-202867D02*
Y-178457D01*
Y-202867D02*
X246140D01*
X232361Y-178457D02*
X246140D01*
X126364Y-151476D02*
X140537D01*
X126364Y-165649D02*
X140537D01*
X126364D02*
Y-151476D01*
X140537Y-165649D02*
Y-151476D01*
X285494Y-148238D02*
Y-107687D01*
X316006Y-148238D02*
Y-107687D01*
X285494Y-148238D02*
X316006D01*
X285494Y-107687D02*
X316006D01*
X259199Y-181049D02*
X273373D01*
X259199Y-166876D02*
X273373D01*
X259199Y-181049D02*
Y-166876D01*
X273373Y-181049D02*
Y-166876D01*
X259164Y-141013D02*
X273337D01*
X259164Y-126840D02*
X273337D01*
X259164Y-141013D02*
Y-126840D01*
X273337Y-141013D02*
Y-126840D01*
X78237Y-48349D02*
Y-34176D01*
X64064Y-48349D02*
Y-34176D01*
Y-48349D02*
X78237D01*
X64064Y-34176D02*
X78237D01*
X163717Y-224284D02*
X216079D01*
X163717Y-171922D02*
X216079D01*
Y-224284D02*
Y-171922D01*
X163717Y-224284D02*
Y-171922D01*
X152899Y-278489D02*
X167072D01*
X152899Y-264316D02*
X167072D01*
X152899Y-278489D02*
Y-264316D01*
X167072Y-278489D02*
Y-264316D01*
X210737Y-317049D02*
Y-302875D01*
X196564Y-317049D02*
Y-302875D01*
Y-317049D02*
X210737D01*
X196564Y-302875D02*
X210737D01*
X303264Y-59676D02*
X317437D01*
X303264Y-73849D02*
X317437D01*
Y-59676D01*
X303264Y-73849D02*
Y-59676D01*
X288664Y-33275D02*
X302837D01*
X288664Y-47449D02*
X302837D01*
Y-33275D01*
X288664Y-47449D02*
Y-33275D01*
X200439Y-277113D02*
X224061D01*
X200439Y-258510D02*
X224061D01*
X200439Y-277113D02*
Y-258510D01*
X224061Y-277113D02*
Y-258510D01*
X279964Y-332649D02*
Y-318476D01*
X294137Y-332649D02*
Y-318476D01*
X279964D02*
X294137D01*
X279964Y-332649D02*
X294137D01*
X285494Y-207838D02*
Y-167287D01*
X316006Y-207838D02*
Y-167287D01*
X285494Y-207838D02*
X316006D01*
X285494Y-167287D02*
X316006D01*
X259199Y-250949D02*
X273373D01*
X259199Y-236775D02*
X273373D01*
X259199Y-250949D02*
Y-236775D01*
X273373Y-250949D02*
Y-236775D01*
X259199Y-210849D02*
X273373D01*
X259199Y-196676D02*
X273373D01*
X259199Y-210849D02*
Y-196676D01*
X273373Y-210849D02*
Y-196676D01*
X264883Y-155035D02*
X294017D01*
X264883Y-176689D02*
X294017D01*
X264883D02*
Y-155035D01*
X294017Y-176689D02*
Y-155035D01*
X295864Y-121199D02*
Y-105845D01*
X310037Y-121199D02*
Y-105845D01*
X295864Y-121199D02*
X310037D01*
X295864Y-105845D02*
X310037D01*
X146269Y-92143D02*
X198632D01*
X146269Y-39781D02*
X198632D01*
X146269Y-92143D02*
Y-39781D01*
X198632Y-92143D02*
Y-39781D01*
X131249Y-27849D02*
X156052D01*
X131249Y-13676D02*
X156052D01*
Y-27849D02*
Y-13676D01*
X131249Y-27849D02*
Y-13676D01*
X136937Y-248349D02*
Y-234175D01*
X122764Y-248349D02*
Y-234175D01*
X136937D01*
X122764Y-248349D02*
X136937D01*
X74964Y-240849D02*
X89137D01*
X74964Y-226676D02*
X89137D01*
Y-240849D02*
Y-226676D01*
X74964Y-240849D02*
Y-226676D01*
X41864Y-192249D02*
X56037D01*
X41864Y-178076D02*
X56037D01*
Y-192249D02*
Y-178076D01*
X41864Y-192249D02*
Y-178076D01*
X93637Y-191549D02*
Y-177375D01*
X79464Y-191549D02*
Y-177375D01*
Y-191549D02*
X93637D01*
X79464Y-177375D02*
X93637D01*
X150337Y-17202D02*
Y-9722D01*
X136164Y-17202D02*
Y-9722D01*
X150337D01*
X136164Y-17202D02*
X150337D01*
X108337Y-184402D02*
Y-176922D01*
X94164Y-184402D02*
Y-176922D01*
X108337D01*
X94164Y-184402D02*
X108337D01*
X67235Y-165809D02*
X77865D01*
X67235Y-171715D02*
X77865D01*
Y-165809D01*
X67235Y-171715D02*
Y-165809D01*
X82637Y-164249D02*
Y-150075D01*
X68464Y-164249D02*
Y-150075D01*
Y-164249D02*
X82637D01*
X68464Y-150075D02*
X82637D01*
X90664Y-206976D02*
X104837D01*
X90664Y-221149D02*
X104837D01*
X90664D02*
Y-206976D01*
X104837Y-221149D02*
Y-206976D01*
X74964Y-221149D02*
Y-206976D01*
X89137Y-221149D02*
Y-206976D01*
X74964D02*
X89137D01*
X74964Y-221149D02*
X89137D01*
X207310Y-27649D02*
X214791D01*
X207310Y-13476D02*
X214791D01*
X207310Y-27649D02*
Y-13476D01*
X214791Y-27649D02*
Y-13476D01*
X42010Y-94549D02*
X49491D01*
X42010Y-80375D02*
X49491D01*
X42010Y-94549D02*
Y-80375D01*
X49491Y-94549D02*
Y-80375D01*
X75310Y-132484D02*
X82791D01*
X75310Y-118311D02*
X82791D01*
Y-132484D02*
Y-118311D01*
X75310Y-132484D02*
Y-118311D01*
X156564Y-67102D02*
Y-59622D01*
X170737Y-67102D02*
Y-59622D01*
X156564D02*
X170737D01*
X156564Y-67102D02*
X170737D01*
X138198Y-289577D02*
Y-278947D01*
X144103Y-289577D02*
Y-278947D01*
X138198D02*
X144103D01*
X138198Y-289577D02*
X144103D01*
X255362Y-142569D02*
X277410D01*
X255362Y-150049D02*
X277410D01*
Y-142569D01*
X255362Y-150049D02*
Y-142569D01*
Y-212422D02*
X277410D01*
X255362Y-219902D02*
X277410D01*
Y-212422D01*
X255362Y-219902D02*
Y-212422D01*
X231513Y-65892D02*
X245687D01*
X231513Y-73372D02*
X245687D01*
Y-65892D01*
X231513Y-73372D02*
Y-65892D01*
Y-73560D02*
X245687D01*
X231513Y-81040D02*
X245687D01*
Y-73560D01*
X231513Y-81040D02*
Y-73560D01*
M02*
