G04 Layer_Color=128*
%FSLAX25Y25*%
%MOIN*%
G70*
G01*
G75*
%ADD10R,0.03976X0.01150*%
%ADD12R,0.05315X0.04134*%
%ADD13R,0.03937X0.03143*%
%ADD15O,0.05512X0.01100*%
%ADD20R,0.05551X0.03583*%
%ADD21R,0.03937X0.05709*%
%ADD22R,0.05709X0.03937*%
%ADD23R,0.03143X0.03937*%
%ADD27R,0.02165X0.05906*%
%ADD28R,0.01575X0.05315*%
%ADD29R,0.16535X0.02756*%
%ADD30R,0.07874X0.02362*%
%ADD32R,0.03740X0.03150*%
%ADD33R,0.03583X0.05551*%
%ADD35R,0.04134X0.05315*%
%ADD38O,0.01100X0.05512*%
%ADD99R,0.01150X0.03976*%
%ADD101R,0.02165X0.04134*%
%ADD102R,0.03937X0.02362*%
%ADD103O,0.05512X0.01575*%
%ADD104O,0.03543X0.05315*%
%ADD105R,0.12400X0.04016*%
%ADD106R,0.04016X0.12400*%
%ADD107R,0.02362X0.04331*%
%ADD108R,0.05906X0.02165*%
%ADD109O,0.01150X0.06496*%
%ADD110O,0.05512X0.01600*%
%ADD111R,0.04134X0.02165*%
%ADD112R,0.11900X0.04000*%
%ADD115R,0.05512X0.02756*%
%ADD139R,0.02756X0.05512*%
G36*
X153352Y60393D02*
X157069D01*
Y59190D01*
X153352D01*
Y55000D01*
Y54981D01*
Y54963D01*
Y54854D01*
X153371Y54708D01*
X153407Y54508D01*
X153462Y54289D01*
X153553Y54070D01*
X153662Y53870D01*
X153826Y53688D01*
X153844Y53670D01*
X153917Y53615D01*
X154026Y53542D01*
X154172Y53469D01*
X154373Y53396D01*
X154610Y53323D01*
X154883Y53269D01*
X155211Y53250D01*
X155466D01*
X155593Y53269D01*
X155757D01*
X156085Y53305D01*
X156104D01*
X156176Y53323D01*
X156268D01*
X156395Y53360D01*
X156541Y53378D01*
X156705Y53414D01*
X157069Y53506D01*
Y52267D01*
X157051D01*
X156978Y52248D01*
X156887Y52230D01*
X156760Y52212D01*
X156596Y52175D01*
X156432Y52157D01*
X156049Y52103D01*
X155958D01*
X155867Y52084D01*
X155721D01*
X155575Y52066D01*
X155393D01*
X155010Y52048D01*
X154865D01*
X154755Y52066D01*
X154628D01*
X154482Y52084D01*
X154136Y52139D01*
X153771Y52212D01*
X153389Y52340D01*
X153024Y52504D01*
X152842Y52613D01*
X152697Y52740D01*
X152660Y52777D01*
X152569Y52868D01*
X152460Y53032D01*
X152314Y53269D01*
X152168Y53579D01*
X152059Y53943D01*
X151968Y54380D01*
X151931Y54890D01*
Y59190D01*
X149636D01*
Y60393D01*
X151931D01*
Y62652D01*
X153352Y63035D01*
Y60393D01*
D02*
G37*
G36*
X282678D02*
X286395D01*
Y59190D01*
X282678D01*
Y55000D01*
Y54981D01*
Y54963D01*
Y54854D01*
X282696Y54708D01*
X282733Y54508D01*
X282787Y54289D01*
X282878Y54070D01*
X282988Y53870D01*
X283152Y53688D01*
X283170Y53670D01*
X283243Y53615D01*
X283352Y53542D01*
X283498Y53469D01*
X283698Y53396D01*
X283935Y53323D01*
X284208Y53269D01*
X284536Y53250D01*
X284791D01*
X284919Y53269D01*
X285083D01*
X285411Y53305D01*
X285429D01*
X285502Y53323D01*
X285593D01*
X285721Y53360D01*
X285866Y53378D01*
X286030Y53414D01*
X286395Y53506D01*
Y52267D01*
X286377D01*
X286304Y52248D01*
X286213Y52230D01*
X286085Y52212D01*
X285921Y52175D01*
X285757Y52157D01*
X285374Y52103D01*
X285283D01*
X285192Y52084D01*
X285047D01*
X284901Y52066D01*
X284719D01*
X284336Y52048D01*
X284190D01*
X284081Y52066D01*
X283953D01*
X283808Y52084D01*
X283461Y52139D01*
X283097Y52212D01*
X282714Y52340D01*
X282350Y52504D01*
X282168Y52613D01*
X282022Y52740D01*
X281986Y52777D01*
X281894Y52868D01*
X281785Y53032D01*
X281639Y53269D01*
X281494Y53579D01*
X281384Y53943D01*
X281293Y54380D01*
X281257Y54890D01*
Y59190D01*
X278961D01*
Y60393D01*
X281257D01*
Y62652D01*
X282678Y63035D01*
Y60393D01*
D02*
G37*
G36*
X292699Y60520D02*
X292899Y60502D01*
X293136Y60466D01*
X293391Y60429D01*
X293646Y60356D01*
X293901Y60265D01*
X293938Y60247D01*
X294011Y60211D01*
X294138Y60156D01*
X294302Y60065D01*
X294466Y59956D01*
X294667Y59828D01*
X294849Y59664D01*
X295031Y59482D01*
X295049Y59464D01*
X295104Y59391D01*
X295195Y59281D01*
X295286Y59154D01*
X295395Y58972D01*
X295523Y58771D01*
X295632Y58534D01*
X295724Y58279D01*
X295742Y58243D01*
X295760Y58152D01*
X295796Y58006D01*
X295851Y57824D01*
X295887Y57587D01*
X295924Y57332D01*
X295942Y57040D01*
X295960Y56712D01*
Y56694D01*
Y56658D01*
Y56603D01*
Y56530D01*
Y56366D01*
X295942Y56184D01*
Y56147D01*
Y56056D01*
Y55947D01*
X295924Y55820D01*
X290148D01*
Y55801D01*
Y55765D01*
Y55692D01*
X290166Y55619D01*
Y55510D01*
X290185Y55382D01*
X290239Y55091D01*
X290312Y54781D01*
X290440Y54453D01*
X290604Y54143D01*
X290841Y53870D01*
X290877Y53834D01*
X290968Y53761D01*
X291132Y53651D01*
X291369Y53542D01*
X291660Y53414D01*
X292007Y53305D01*
X292407Y53232D01*
X292881Y53196D01*
X293337D01*
X293592Y53214D01*
X293646D01*
X293719Y53232D01*
X293810D01*
X294047Y53269D01*
X294284Y53287D01*
X294302D01*
X294339Y53305D01*
X294412D01*
X294503Y53323D01*
X294703Y53360D01*
X294940Y53396D01*
X294958D01*
X294995Y53414D01*
X295049Y53433D01*
X295122Y53451D01*
X295323Y53487D01*
X295523Y53542D01*
Y52376D01*
X295505D01*
X295414Y52358D01*
X295304Y52321D01*
X295140Y52285D01*
X294940Y52248D01*
X294721Y52194D01*
X294466Y52157D01*
X294193Y52121D01*
X294157D01*
X294065Y52103D01*
X293920Y52084D01*
X293738Y52066D01*
X293501Y52048D01*
X293246Y52030D01*
X292972Y52012D01*
X292498D01*
X292298Y52030D01*
X292061Y52048D01*
X291770Y52084D01*
X291460Y52121D01*
X291150Y52194D01*
X290859Y52285D01*
X290822Y52303D01*
X290731Y52340D01*
X290585Y52412D01*
X290421Y52504D01*
X290221Y52613D01*
X290002Y52759D01*
X289802Y52923D01*
X289601Y53123D01*
X289583Y53141D01*
X289529Y53214D01*
X289438Y53342D01*
X289328Y53487D01*
X289201Y53688D01*
X289091Y53906D01*
X288964Y54180D01*
X288873Y54453D01*
Y54471D01*
Y54489D01*
X288836Y54599D01*
X288800Y54763D01*
X288763Y54981D01*
X288727Y55255D01*
X288690Y55546D01*
X288672Y55892D01*
X288654Y56257D01*
Y56275D01*
Y56293D01*
Y56403D01*
X288672Y56567D01*
X288690Y56785D01*
X288709Y57022D01*
X288763Y57295D01*
X288818Y57587D01*
X288891Y57878D01*
Y57897D01*
X288909Y57915D01*
X288946Y58006D01*
X289000Y58152D01*
X289073Y58352D01*
X289182Y58552D01*
X289310Y58789D01*
X289456Y59026D01*
X289620Y59245D01*
X289638Y59263D01*
X289711Y59336D01*
X289820Y59445D01*
X289948Y59591D01*
X290130Y59737D01*
X290330Y59901D01*
X290549Y60047D01*
X290804Y60192D01*
X290841Y60211D01*
X290932Y60247D01*
X291077Y60302D01*
X291260Y60374D01*
X291496Y60429D01*
X291770Y60484D01*
X292061Y60520D01*
X292389Y60539D01*
X292535D01*
X292699Y60520D01*
D02*
G37*
G36*
X144115Y60393D02*
X147832D01*
Y59190D01*
X144115D01*
Y55000D01*
Y54981D01*
Y54963D01*
Y54854D01*
X144133Y54708D01*
X144169Y54508D01*
X144224Y54289D01*
X144315Y54070D01*
X144425Y53870D01*
X144589Y53688D01*
X144607Y53670D01*
X144680Y53615D01*
X144789Y53542D01*
X144935Y53469D01*
X145135Y53396D01*
X145372Y53323D01*
X145645Y53269D01*
X145973Y53250D01*
X146228D01*
X146356Y53269D01*
X146520D01*
X146848Y53305D01*
X146866D01*
X146939Y53323D01*
X147030D01*
X147158Y53360D01*
X147303Y53378D01*
X147467Y53414D01*
X147832Y53506D01*
Y52267D01*
X147813D01*
X147741Y52248D01*
X147650Y52230D01*
X147522Y52212D01*
X147358Y52175D01*
X147194Y52157D01*
X146811Y52103D01*
X146720D01*
X146629Y52084D01*
X146483D01*
X146338Y52066D01*
X146156D01*
X145773Y52048D01*
X145627D01*
X145518Y52066D01*
X145390D01*
X145245Y52084D01*
X144898Y52139D01*
X144534Y52212D01*
X144151Y52340D01*
X143787Y52504D01*
X143605Y52613D01*
X143459Y52740D01*
X143422Y52777D01*
X143331Y52868D01*
X143222Y53032D01*
X143076Y53269D01*
X142930Y53579D01*
X142821Y53943D01*
X142730Y54380D01*
X142694Y54890D01*
Y59190D01*
X140398D01*
Y60393D01*
X142694D01*
Y62652D01*
X144115Y63035D01*
Y60393D01*
D02*
G37*
G36*
X265096Y60520D02*
X265296Y60502D01*
X265533Y60466D01*
X265988Y60374D01*
X266007D01*
X266098Y60338D01*
X266207Y60302D01*
X266335Y60247D01*
X266499Y60174D01*
X266663Y60083D01*
X266827Y59992D01*
X266990Y59864D01*
X267009Y59846D01*
X267063Y59810D01*
X267136Y59737D01*
X267227Y59646D01*
X267337Y59518D01*
X267446Y59373D01*
X267537Y59209D01*
X267628Y59026D01*
X267646Y59008D01*
X267665Y58935D01*
X267701Y58826D01*
X267756Y58680D01*
X267792Y58516D01*
X267829Y58297D01*
X267847Y58079D01*
X267865Y57824D01*
Y52157D01*
X266571D01*
X266535Y53250D01*
X266499Y53214D01*
X266426Y53141D01*
X266280Y53032D01*
X266116Y52886D01*
X265897Y52740D01*
X265679Y52576D01*
X265424Y52431D01*
X265168Y52303D01*
X265132Y52285D01*
X265041Y52267D01*
X264913Y52212D01*
X264731Y52157D01*
X264513Y52103D01*
X264258Y52066D01*
X264002Y52030D01*
X263711Y52012D01*
X263602D01*
X263474Y52030D01*
X263310D01*
X263110Y52048D01*
X262909Y52084D01*
X262508Y52175D01*
X262490D01*
X262436Y52212D01*
X262344Y52248D01*
X262217Y52303D01*
X261962Y52467D01*
X261688Y52667D01*
X261670Y52686D01*
X261634Y52722D01*
X261579Y52795D01*
X261506Y52886D01*
X261433Y52996D01*
X261342Y53123D01*
X261215Y53414D01*
Y53433D01*
X261197Y53487D01*
X261178Y53579D01*
X261142Y53688D01*
X261124Y53834D01*
X261087Y53998D01*
X261069Y54344D01*
Y54362D01*
Y54398D01*
Y54471D01*
X261087Y54544D01*
X261105Y54654D01*
X261124Y54781D01*
X261178Y55054D01*
X261288Y55364D01*
X261452Y55692D01*
X261561Y55856D01*
X261688Y56002D01*
X261816Y56147D01*
X261980Y56293D01*
X261998D01*
X262017Y56330D01*
X262071Y56366D01*
X262162Y56403D01*
X262253Y56457D01*
X262363Y56512D01*
X262508Y56585D01*
X262672Y56658D01*
X262855Y56712D01*
X263055Y56785D01*
X263274Y56840D01*
X263529Y56894D01*
X263784Y56931D01*
X264075Y56967D01*
X264385Y57004D01*
X266426D01*
Y57714D01*
Y57751D01*
Y57842D01*
X266407Y57969D01*
X266371Y58134D01*
X266316Y58316D01*
X266225Y58516D01*
X266116Y58698D01*
X265952Y58881D01*
X265934Y58899D01*
X265861Y58953D01*
X265752Y59026D01*
X265606Y59099D01*
X265405Y59172D01*
X265150Y59245D01*
X264859Y59300D01*
X264531Y59318D01*
X264276D01*
X264093Y59300D01*
X263875Y59281D01*
X263656Y59245D01*
X263146Y59154D01*
X263110D01*
X263037Y59117D01*
X262891Y59081D01*
X262727Y59044D01*
X262508Y58972D01*
X262271Y58899D01*
X262017Y58808D01*
X261761Y58716D01*
Y60010D01*
X261780D01*
X261816Y60028D01*
X261853Y60047D01*
X261925Y60065D01*
X262108Y60119D01*
X262344Y60192D01*
X262363D01*
X262399Y60211D01*
X262472Y60229D01*
X262563Y60247D01*
X262800Y60302D01*
X263055Y60356D01*
X263073D01*
X263128Y60374D01*
X263201Y60393D01*
X263292Y60411D01*
X263401Y60429D01*
X263529Y60447D01*
X263820Y60484D01*
X263839D01*
X263893Y60502D01*
X263966D01*
X264075Y60520D01*
X264203D01*
X264330Y60539D01*
X264913D01*
X265096Y60520D01*
D02*
G37*
G36*
X255530Y62853D02*
X255767Y62834D01*
X256022Y62798D01*
X256569Y62688D01*
X256605D01*
X256696Y62652D01*
X256824Y62616D01*
X257006Y62543D01*
X257206Y62470D01*
X257407Y62361D01*
X257625Y62251D01*
X257844Y62105D01*
X257862Y62087D01*
X257935Y62033D01*
X258045Y61960D01*
X258172Y61832D01*
X258318Y61686D01*
X258464Y61522D01*
X258609Y61322D01*
X258737Y61103D01*
X258755Y61067D01*
X258791Y60994D01*
X258846Y60866D01*
X258901Y60684D01*
X258956Y60466D01*
X259010Y60211D01*
X259047Y59919D01*
X259065Y59591D01*
Y59555D01*
Y59482D01*
X259047Y59354D01*
X259028Y59190D01*
X259010Y58990D01*
X258956Y58753D01*
X258901Y58516D01*
X258810Y58279D01*
X258791Y58243D01*
X258773Y58170D01*
X258700Y58042D01*
X258628Y57897D01*
X258518Y57714D01*
X258391Y57532D01*
X258227Y57332D01*
X258045Y57131D01*
X258026Y57113D01*
X257953Y57040D01*
X257844Y56949D01*
X257698Y56840D01*
X257498Y56712D01*
X257279Y56567D01*
X257024Y56439D01*
X256733Y56312D01*
X256696Y56293D01*
X256587Y56257D01*
X256423Y56220D01*
X256186Y56166D01*
X255913Y56093D01*
X255585Y56056D01*
X255202Y56020D01*
X254801Y56002D01*
X253489D01*
Y52157D01*
X252032D01*
Y62871D01*
X255330D01*
X255530Y62853D01*
D02*
G37*
G36*
X126059D02*
X126277Y62834D01*
X126551Y62798D01*
X126842Y62725D01*
X127170Y62652D01*
X127498Y62543D01*
X127826Y62415D01*
X128154Y62233D01*
X128446Y62033D01*
X128719Y61778D01*
X128938Y61468D01*
X129120Y61122D01*
X129229Y60721D01*
X129247Y60502D01*
X129265Y60265D01*
Y60247D01*
Y60229D01*
Y60119D01*
X129247Y59956D01*
X129211Y59755D01*
X129156Y59518D01*
X129083Y59263D01*
X128992Y59008D01*
X128847Y58771D01*
X128828Y58753D01*
X128774Y58662D01*
X128664Y58552D01*
X128537Y58425D01*
X128355Y58279D01*
X128118Y58115D01*
X127844Y57969D01*
X127516Y57842D01*
X127535D01*
X127589Y57824D01*
X127680Y57806D01*
X127790Y57787D01*
X128045Y57696D01*
X128336Y57569D01*
X128355D01*
X128409Y57532D01*
X128482Y57496D01*
X128573Y57423D01*
X128792Y57277D01*
X129010Y57059D01*
X129029Y57040D01*
X129065Y57004D01*
X129120Y56931D01*
X129174Y56858D01*
X129247Y56749D01*
X129320Y56621D01*
X129466Y56312D01*
Y56293D01*
X129502Y56239D01*
X129521Y56147D01*
X129557Y56038D01*
X129594Y55892D01*
X129612Y55728D01*
X129648Y55364D01*
Y55328D01*
Y55237D01*
X129630Y55091D01*
X129612Y54890D01*
X129575Y54690D01*
X129521Y54453D01*
X129448Y54216D01*
X129338Y53979D01*
X129320Y53961D01*
X129284Y53888D01*
X129211Y53779D01*
X129120Y53633D01*
X129010Y53487D01*
X128865Y53305D01*
X128701Y53141D01*
X128500Y52977D01*
X128482Y52959D01*
X128409Y52904D01*
X128282Y52832D01*
X128136Y52759D01*
X127936Y52649D01*
X127717Y52540D01*
X127462Y52449D01*
X127170Y52358D01*
X127134D01*
X127043Y52321D01*
X126879Y52303D01*
X126678Y52267D01*
X126423Y52230D01*
X126132Y52194D01*
X125804Y52175D01*
X125458Y52157D01*
X122706D01*
Y62871D01*
X125877D01*
X126059Y62853D01*
D02*
G37*
G36*
X210089Y53342D02*
X212549D01*
Y52157D01*
X205954D01*
Y53342D01*
X208650D01*
Y62579D01*
X206227D01*
Y63745D01*
X210089D01*
Y53342D01*
D02*
G37*
G36*
X228036Y60520D02*
X228237Y60502D01*
X228473Y60466D01*
X228729Y60429D01*
X228984Y60356D01*
X229239Y60265D01*
X229275Y60247D01*
X229348Y60211D01*
X229475Y60156D01*
X229640Y60065D01*
X229803Y59956D01*
X230004Y59828D01*
X230186Y59664D01*
X230368Y59482D01*
X230386Y59464D01*
X230441Y59391D01*
X230532Y59281D01*
X230623Y59154D01*
X230733Y58972D01*
X230860Y58771D01*
X230970Y58534D01*
X231061Y58279D01*
X231079Y58243D01*
X231097Y58152D01*
X231134Y58006D01*
X231188Y57824D01*
X231225Y57587D01*
X231261Y57332D01*
X231279Y57040D01*
X231297Y56712D01*
Y56694D01*
Y56658D01*
Y56603D01*
Y56530D01*
Y56366D01*
X231279Y56184D01*
Y56147D01*
Y56056D01*
Y55947D01*
X231261Y55820D01*
X225485D01*
Y55801D01*
Y55765D01*
Y55692D01*
X225504Y55619D01*
Y55510D01*
X225522Y55382D01*
X225576Y55091D01*
X225649Y54781D01*
X225777Y54453D01*
X225941Y54143D01*
X226178Y53870D01*
X226214Y53834D01*
X226305Y53761D01*
X226469Y53651D01*
X226706Y53542D01*
X226998Y53414D01*
X227344Y53305D01*
X227745Y53232D01*
X228218Y53196D01*
X228674D01*
X228929Y53214D01*
X228984D01*
X229057Y53232D01*
X229148D01*
X229384Y53269D01*
X229621Y53287D01*
X229640D01*
X229676Y53305D01*
X229749D01*
X229840Y53323D01*
X230040Y53360D01*
X230277Y53396D01*
X230295D01*
X230332Y53414D01*
X230386Y53433D01*
X230459Y53451D01*
X230660Y53487D01*
X230860Y53542D01*
Y52376D01*
X230842D01*
X230751Y52358D01*
X230642Y52321D01*
X230478Y52285D01*
X230277Y52248D01*
X230059Y52194D01*
X229803Y52157D01*
X229530Y52121D01*
X229494D01*
X229403Y52103D01*
X229257Y52084D01*
X229075Y52066D01*
X228838Y52048D01*
X228583Y52030D01*
X228309Y52012D01*
X227836D01*
X227635Y52030D01*
X227398Y52048D01*
X227107Y52084D01*
X226797Y52121D01*
X226487Y52194D01*
X226196Y52285D01*
X226160Y52303D01*
X226068Y52340D01*
X225923Y52412D01*
X225759Y52504D01*
X225558Y52613D01*
X225340Y52759D01*
X225139Y52923D01*
X224939Y53123D01*
X224921Y53141D01*
X224866Y53214D01*
X224775Y53342D01*
X224665Y53487D01*
X224538Y53688D01*
X224429Y53906D01*
X224301Y54180D01*
X224210Y54453D01*
Y54471D01*
Y54489D01*
X224173Y54599D01*
X224137Y54763D01*
X224101Y54981D01*
X224064Y55255D01*
X224028Y55546D01*
X224009Y55892D01*
X223991Y56257D01*
Y56275D01*
Y56293D01*
Y56403D01*
X224009Y56567D01*
X224028Y56785D01*
X224046Y57022D01*
X224101Y57295D01*
X224155Y57587D01*
X224228Y57878D01*
Y57897D01*
X224246Y57915D01*
X224283Y58006D01*
X224338Y58152D01*
X224410Y58352D01*
X224520Y58552D01*
X224647Y58789D01*
X224793Y59026D01*
X224957Y59245D01*
X224975Y59263D01*
X225048Y59336D01*
X225157Y59445D01*
X225285Y59591D01*
X225467Y59737D01*
X225668Y59901D01*
X225886Y60047D01*
X226141Y60192D01*
X226178Y60211D01*
X226269Y60247D01*
X226415Y60302D01*
X226597Y60374D01*
X226834Y60429D01*
X227107Y60484D01*
X227398Y60520D01*
X227726Y60539D01*
X227872D01*
X228036Y60520D01*
D02*
G37*
G36*
X274661D02*
X274843D01*
X275262Y60484D01*
X275281D01*
X275372Y60466D01*
X275481D01*
X275645Y60447D01*
X275827Y60411D01*
X276028Y60393D01*
X276265Y60338D01*
X276501Y60302D01*
Y59026D01*
X276465D01*
X276392Y59063D01*
X276265Y59081D01*
X276082Y59117D01*
X275900Y59154D01*
X275681Y59190D01*
X275226Y59263D01*
X275208D01*
X275117Y59281D01*
X275007Y59300D01*
X274862Y59318D01*
X274698D01*
X274534Y59336D01*
X274169Y59354D01*
X273987D01*
X273860Y59336D01*
X273568Y59318D01*
X273276Y59263D01*
X273258D01*
X273222Y59245D01*
X273149Y59227D01*
X273058Y59209D01*
X272876Y59117D01*
X272675Y59026D01*
X272639Y59008D01*
X272548Y58935D01*
X272457Y58826D01*
X272365Y58698D01*
X272347Y58662D01*
X272329Y58571D01*
X272292Y58443D01*
X272274Y58279D01*
Y58261D01*
Y58243D01*
X272292Y58152D01*
X272311Y58024D01*
X272347Y57878D01*
X272365Y57842D01*
X272420Y57769D01*
X272529Y57660D01*
X272675Y57532D01*
X272693D01*
X272712Y57496D01*
X272766Y57478D01*
X272839Y57423D01*
X272949Y57368D01*
X273058Y57314D01*
X273185Y57259D01*
X273331Y57186D01*
X273349D01*
X273404Y57150D01*
X273495Y57131D01*
X273623Y57077D01*
X273787Y57022D01*
X273969Y56967D01*
X274169Y56913D01*
X274406Y56840D01*
X274443Y56822D01*
X274534Y56803D01*
X274661Y56767D01*
X274843Y56694D01*
X275044Y56639D01*
X275244Y56548D01*
X275445Y56476D01*
X275645Y56384D01*
X275663Y56366D01*
X275736Y56348D01*
X275809Y56293D01*
X275937Y56239D01*
X276192Y56056D01*
X276447Y55856D01*
X276465Y55838D01*
X276501Y55801D01*
X276556Y55747D01*
X276629Y55674D01*
X276775Y55473D01*
X276848Y55346D01*
X276902Y55218D01*
Y55200D01*
X276920Y55164D01*
X276957Y55072D01*
X276975Y54981D01*
X277011Y54854D01*
X277030Y54726D01*
X277048Y54398D01*
Y54380D01*
Y54325D01*
Y54234D01*
X277030Y54143D01*
X276975Y53888D01*
X276884Y53615D01*
Y53597D01*
X276866Y53560D01*
X276829Y53487D01*
X276775Y53414D01*
X276647Y53214D01*
X276483Y52996D01*
X276465Y52977D01*
X276447Y52959D01*
X276392Y52904D01*
X276319Y52850D01*
X276119Y52704D01*
X275882Y52540D01*
X275864D01*
X275827Y52504D01*
X275754Y52485D01*
X275663Y52431D01*
X275445Y52340D01*
X275171Y52248D01*
X275153D01*
X275117Y52230D01*
X275026Y52212D01*
X274934Y52194D01*
X274825Y52157D01*
X274679Y52139D01*
X274388Y52084D01*
X274370D01*
X274315Y52066D01*
X274242D01*
X274133Y52048D01*
X273896Y52030D01*
X273604Y52012D01*
X273295D01*
X273094Y52030D01*
X272857D01*
X272602Y52048D01*
X272056Y52084D01*
X272019D01*
X271946Y52103D01*
X271801Y52121D01*
X271637Y52139D01*
X271418Y52175D01*
X271199Y52212D01*
X270707Y52321D01*
Y53633D01*
X270744D01*
X270835Y53597D01*
X270963Y53560D01*
X271145Y53506D01*
X271363Y53451D01*
X271600Y53396D01*
X272129Y53305D01*
X272165D01*
X272256Y53287D01*
X272384Y53269D01*
X272566D01*
X272784Y53250D01*
X273021Y53232D01*
X273550Y53214D01*
X273714D01*
X273896Y53232D01*
X274114Y53250D01*
X274370Y53287D01*
X274625Y53323D01*
X274862Y53396D01*
X275062Y53487D01*
X275080Y53506D01*
X275135Y53542D01*
X275226Y53597D01*
X275317Y53688D01*
X275408Y53797D01*
X275499Y53943D01*
X275554Y54107D01*
X275572Y54289D01*
Y54307D01*
Y54325D01*
X275554Y54417D01*
X275536Y54544D01*
X275481Y54672D01*
X275463Y54708D01*
X275426Y54781D01*
X275335Y54890D01*
X275189Y55018D01*
X275153Y55054D01*
X275098Y55072D01*
X275044Y55127D01*
X274953Y55164D01*
X274843Y55218D01*
X274698Y55291D01*
X274552Y55346D01*
X274534D01*
X274479Y55382D01*
X274388Y55419D01*
X274242Y55473D01*
X274078Y55528D01*
X273878Y55601D01*
X273659Y55674D01*
X273386Y55747D01*
X273368D01*
X273295Y55783D01*
X273185Y55801D01*
X273058Y55856D01*
X272894Y55911D01*
X272730Y55965D01*
X272365Y56111D01*
X272347Y56129D01*
X272292Y56147D01*
X272201Y56202D01*
X272092Y56257D01*
X271819Y56403D01*
X271546Y56603D01*
X271527Y56621D01*
X271491Y56658D01*
X271418Y56712D01*
X271345Y56803D01*
X271163Y57004D01*
X270999Y57277D01*
Y57295D01*
X270963Y57350D01*
X270944Y57423D01*
X270908Y57532D01*
X270871Y57660D01*
X270853Y57824D01*
X270817Y58006D01*
Y58188D01*
Y58206D01*
Y58243D01*
Y58316D01*
X270835Y58407D01*
X270853Y58516D01*
X270871Y58644D01*
X270963Y58935D01*
Y58953D01*
X270999Y59008D01*
X271035Y59081D01*
X271090Y59190D01*
X271163Y59300D01*
X271254Y59427D01*
X271381Y59573D01*
X271509Y59700D01*
X271527Y59719D01*
X271582Y59755D01*
X271673Y59828D01*
X271782Y59919D01*
X271928Y60010D01*
X272110Y60101D01*
X272311Y60211D01*
X272548Y60302D01*
X272584Y60320D01*
X272675Y60338D01*
X272803Y60374D01*
X273003Y60429D01*
X273240Y60466D01*
X273513Y60502D01*
X273841Y60520D01*
X274187Y60539D01*
X274515D01*
X274661Y60520D01*
D02*
G37*
G36*
X238331D02*
X238422D01*
X238549Y60502D01*
X238841Y60429D01*
X239150Y60338D01*
X239460Y60192D01*
X239770Y59974D01*
X239916Y59846D01*
X240043Y59700D01*
X240080Y59664D01*
X240098Y59609D01*
X240153Y59555D01*
X240189Y59464D01*
X240244Y59354D01*
X240316Y59227D01*
X240371Y59081D01*
X240426Y58917D01*
X240480Y58753D01*
X240535Y58552D01*
X240590Y58334D01*
X240626Y58079D01*
X240644Y57824D01*
X240663Y57551D01*
Y57259D01*
X239223D01*
Y57277D01*
Y57314D01*
Y57368D01*
Y57441D01*
X239205Y57623D01*
X239187Y57842D01*
X239150Y58097D01*
X239096Y58352D01*
X239005Y58607D01*
X238895Y58808D01*
X238877Y58826D01*
X238841Y58881D01*
X238750Y58972D01*
X238640Y59063D01*
X238494Y59136D01*
X238331Y59227D01*
X238130Y59281D01*
X237893Y59300D01*
X237784D01*
X237729Y59281D01*
X237547Y59263D01*
X237328Y59190D01*
X237310D01*
X237274Y59172D01*
X237219Y59154D01*
X237146Y59117D01*
X236946Y59008D01*
X236727Y58862D01*
X236709Y58844D01*
X236672Y58826D01*
X236618Y58771D01*
X236527Y58716D01*
X236326Y58516D01*
X236071Y58279D01*
X236053Y58261D01*
X236017Y58225D01*
X235944Y58152D01*
X235853Y58042D01*
X235743Y57915D01*
X235616Y57787D01*
X235488Y57623D01*
X235342Y57441D01*
Y52157D01*
X233903D01*
Y60393D01*
X235197D01*
X235233Y58862D01*
Y58881D01*
X235269Y58899D01*
X235361Y59008D01*
X235506Y59154D01*
X235689Y59354D01*
X235907Y59555D01*
X236144Y59773D01*
X236399Y59974D01*
X236672Y60138D01*
X236709Y60156D01*
X236800Y60192D01*
X236928Y60265D01*
X237128Y60338D01*
X237328Y60411D01*
X237583Y60484D01*
X237839Y60520D01*
X238112Y60539D01*
X238239D01*
X238331Y60520D01*
D02*
G37*
G36*
X191469Y63016D02*
X191687Y62998D01*
X191797D01*
X191888Y62980D01*
X192088Y62962D01*
X192325Y62925D01*
X192380D01*
X192453Y62907D01*
X192525D01*
X192726Y62871D01*
X192963Y62834D01*
X193017D01*
X193090Y62816D01*
X193163Y62798D01*
X193363Y62761D01*
X193564Y62725D01*
Y61413D01*
X193527D01*
X193455Y61449D01*
X193327Y61468D01*
X193163Y61504D01*
X192981Y61541D01*
X192762Y61595D01*
X192288Y61668D01*
X192270D01*
X192179Y61686D01*
X192070Y61705D01*
X191906Y61723D01*
X191724Y61741D01*
X191505Y61759D01*
X191068Y61778D01*
X190867D01*
X190649Y61759D01*
X190375Y61723D01*
X190066Y61668D01*
X189756Y61595D01*
X189483Y61486D01*
X189228Y61340D01*
X189209Y61322D01*
X189137Y61267D01*
X189045Y61176D01*
X188936Y61049D01*
X188827Y60885D01*
X188736Y60684D01*
X188663Y60466D01*
X188645Y60211D01*
Y60192D01*
Y60138D01*
X188663Y60065D01*
X188681Y59956D01*
X188754Y59719D01*
X188809Y59591D01*
X188881Y59464D01*
X188900Y59445D01*
X188918Y59409D01*
X188972Y59354D01*
X189045Y59281D01*
X189246Y59099D01*
X189501Y58899D01*
X189519Y58881D01*
X189574Y58862D01*
X189647Y58808D01*
X189774Y58753D01*
X189902Y58680D01*
X190048Y58607D01*
X190412Y58461D01*
X190430D01*
X190503Y58425D01*
X190594Y58389D01*
X190740Y58334D01*
X190886Y58279D01*
X191050Y58206D01*
X191432Y58042D01*
X191450D01*
X191523Y58006D01*
X191633Y57969D01*
X191760Y57915D01*
X191924Y57842D01*
X192088Y57769D01*
X192471Y57587D01*
X192489Y57569D01*
X192562Y57551D01*
X192653Y57496D01*
X192780Y57423D01*
X193072Y57222D01*
X193363Y56986D01*
X193382Y56967D01*
X193436Y56931D01*
X193509Y56858D01*
X193600Y56749D01*
X193692Y56639D01*
X193801Y56494D01*
X194001Y56166D01*
X194019Y56147D01*
X194038Y56075D01*
X194074Y55984D01*
X194129Y55856D01*
X194183Y55692D01*
X194220Y55492D01*
X194238Y55291D01*
X194256Y55054D01*
Y55018D01*
Y54927D01*
X194238Y54781D01*
X194220Y54599D01*
X194183Y54398D01*
X194111Y54162D01*
X194038Y53925D01*
X193928Y53706D01*
X193910Y53688D01*
X193874Y53615D01*
X193801Y53506D01*
X193710Y53378D01*
X193582Y53232D01*
X193436Y53068D01*
X193254Y52904D01*
X193054Y52759D01*
X193035Y52740D01*
X192963Y52704D01*
X192835Y52631D01*
X192689Y52540D01*
X192489Y52449D01*
X192270Y52358D01*
X192015Y52267D01*
X191724Y52194D01*
X191687D01*
X191596Y52157D01*
X191432Y52139D01*
X191214Y52103D01*
X190958Y52066D01*
X190667Y52048D01*
X190339Y52012D01*
X189738D01*
X189592Y52030D01*
X189464D01*
X189137Y52048D01*
X189064D01*
X188991Y52066D01*
X188881D01*
X188626Y52103D01*
X188335Y52139D01*
X188262D01*
X188189Y52157D01*
X188098D01*
X187861Y52194D01*
X187606Y52230D01*
X187588D01*
X187551Y52248D01*
X187478Y52267D01*
X187406Y52285D01*
X187205Y52340D01*
X186986Y52394D01*
Y53797D01*
X187023Y53779D01*
X187096Y53761D01*
X187223Y53724D01*
X187387Y53670D01*
X187588Y53597D01*
X187825Y53542D01*
X188080Y53487D01*
X188353Y53433D01*
X188389D01*
X188480Y53414D01*
X188645Y53396D01*
X188863Y53378D01*
X189118Y53342D01*
X189410Y53323D01*
X189738Y53305D01*
X190357D01*
X190521Y53323D01*
X190703D01*
X190904Y53360D01*
X191104Y53378D01*
X191305Y53414D01*
X191323D01*
X191396Y53433D01*
X191469Y53469D01*
X191596Y53487D01*
X191851Y53597D01*
X192106Y53724D01*
X192124Y53742D01*
X192161Y53761D01*
X192216Y53815D01*
X192288Y53870D01*
X192453Y54034D01*
X192580Y54253D01*
Y54271D01*
X192598Y54307D01*
X192635Y54380D01*
X192653Y54471D01*
X192689Y54581D01*
X192708Y54708D01*
X192726Y54981D01*
Y55000D01*
Y55054D01*
X192708Y55127D01*
X192689Y55237D01*
X192616Y55473D01*
X192562Y55583D01*
X192471Y55710D01*
X192453Y55728D01*
X192434Y55765D01*
X192380Y55820D01*
X192307Y55892D01*
X192216Y55984D01*
X192106Y56075D01*
X191833Y56257D01*
X191815Y56275D01*
X191760Y56293D01*
X191687Y56348D01*
X191578Y56403D01*
X191450Y56476D01*
X191305Y56548D01*
X190940Y56712D01*
X190922Y56731D01*
X190849Y56749D01*
X190758Y56785D01*
X190612Y56840D01*
X190466Y56894D01*
X190284Y56967D01*
X189902Y57113D01*
X189883Y57131D01*
X189811Y57150D01*
X189719Y57204D01*
X189592Y57259D01*
X189428Y57332D01*
X189264Y57405D01*
X188881Y57587D01*
X188863Y57605D01*
X188790Y57642D01*
X188699Y57678D01*
X188572Y57751D01*
X188444Y57842D01*
X188280Y57933D01*
X187970Y58170D01*
X187952Y58188D01*
X187916Y58225D01*
X187843Y58297D01*
X187752Y58407D01*
X187661Y58516D01*
X187551Y58662D01*
X187351Y58972D01*
X187333Y58990D01*
X187314Y59063D01*
X187278Y59154D01*
X187242Y59281D01*
X187187Y59445D01*
X187151Y59627D01*
X187132Y59846D01*
X187114Y60065D01*
Y60083D01*
Y60156D01*
X187132Y60265D01*
X187151Y60411D01*
X187169Y60575D01*
X187205Y60757D01*
X187260Y60958D01*
X187333Y61158D01*
X187351Y61176D01*
X187369Y61249D01*
X187442Y61340D01*
X187515Y61468D01*
X187606Y61614D01*
X187733Y61778D01*
X187879Y61941D01*
X188043Y62105D01*
X188061Y62124D01*
X188134Y62178D01*
X188244Y62251D01*
X188389Y62342D01*
X188553Y62452D01*
X188772Y62561D01*
X189009Y62670D01*
X189282Y62780D01*
X189319Y62798D01*
X189428Y62816D01*
X189574Y62853D01*
X189792Y62907D01*
X190066Y62962D01*
X190375Y62998D01*
X190722Y63016D01*
X191104Y63035D01*
X191286D01*
X191469Y63016D01*
D02*
G37*
G36*
X221677Y52157D02*
X220384D01*
X220329Y53706D01*
Y53688D01*
X220311Y53670D01*
X220220Y53560D01*
X220111Y53414D01*
X219947Y53214D01*
X219746Y53014D01*
X219527Y52795D01*
X219291Y52595D01*
X219036Y52412D01*
X218999Y52394D01*
X218908Y52358D01*
X218780Y52285D01*
X218580Y52212D01*
X218361Y52139D01*
X218106Y52066D01*
X217833Y52030D01*
X217523Y52012D01*
X217414D01*
X217268Y52030D01*
X217104Y52048D01*
X216922Y52084D01*
X216703Y52139D01*
X216503Y52212D01*
X216284Y52303D01*
X216266Y52321D01*
X216193Y52358D01*
X216102Y52431D01*
X215974Y52522D01*
X215829Y52631D01*
X215683Y52777D01*
X215537Y52941D01*
X215391Y53123D01*
X215373Y53141D01*
X215337Y53214D01*
X215264Y53342D01*
X215191Y53487D01*
X215100Y53688D01*
X215009Y53906D01*
X214918Y54143D01*
X214845Y54417D01*
Y54453D01*
X214827Y54544D01*
X214790Y54708D01*
X214772Y54909D01*
X214736Y55164D01*
X214699Y55455D01*
X214681Y55765D01*
Y56093D01*
Y56111D01*
Y56147D01*
Y56202D01*
Y56275D01*
X214699Y56457D01*
X214717Y56712D01*
X214754Y57004D01*
X214790Y57314D01*
X214863Y57642D01*
X214954Y57951D01*
Y57969D01*
X214972Y57988D01*
X215009Y58097D01*
X215082Y58243D01*
X215173Y58425D01*
X215282Y58644D01*
X215428Y58881D01*
X215592Y59117D01*
X215774Y59336D01*
X215792Y59354D01*
X215865Y59427D01*
X215974Y59536D01*
X216139Y59664D01*
X216321Y59791D01*
X216539Y59937D01*
X216776Y60065D01*
X217050Y60192D01*
X217086Y60211D01*
X217177Y60247D01*
X217341Y60283D01*
X217541Y60338D01*
X217778Y60393D01*
X218070Y60447D01*
X218380Y60466D01*
X218707Y60484D01*
X218944D01*
X219199Y60466D01*
X219473Y60429D01*
X219491D01*
X219546Y60411D01*
X219619D01*
X219710Y60393D01*
X219965Y60338D01*
X220238Y60265D01*
Y63745D01*
X221677D01*
Y52157D01*
D02*
G37*
G36*
X163373Y60520D02*
X163574Y60502D01*
X163829Y60466D01*
X164084Y60411D01*
X164357Y60338D01*
X164631Y60247D01*
X164667Y60229D01*
X164758Y60192D01*
X164886Y60138D01*
X165050Y60047D01*
X165232Y59937D01*
X165432Y59791D01*
X165633Y59627D01*
X165815Y59445D01*
X165833Y59427D01*
X165888Y59354D01*
X165979Y59245D01*
X166088Y59081D01*
X166216Y58899D01*
X166343Y58662D01*
X166453Y58407D01*
X166562Y58134D01*
X166580Y58097D01*
X166598Y57988D01*
X166653Y57824D01*
X166708Y57623D01*
X166744Y57350D01*
X166799Y57040D01*
X166817Y56694D01*
X166835Y56330D01*
Y56312D01*
Y56293D01*
Y56239D01*
Y56166D01*
X166817Y55984D01*
X166799Y55747D01*
X166762Y55473D01*
X166726Y55182D01*
X166653Y54872D01*
X166562Y54562D01*
X166544Y54526D01*
X166507Y54435D01*
X166453Y54289D01*
X166361Y54107D01*
X166252Y53888D01*
X166125Y53651D01*
X165961Y53414D01*
X165778Y53196D01*
X165760Y53178D01*
X165687Y53105D01*
X165578Y52996D01*
X165432Y52868D01*
X165250Y52740D01*
X165050Y52595D01*
X164795Y52449D01*
X164540Y52321D01*
X164503Y52303D01*
X164412Y52267D01*
X164266Y52230D01*
X164066Y52175D01*
X163811Y52103D01*
X163537Y52066D01*
X163228Y52030D01*
X162881Y52012D01*
X162736D01*
X162554Y52030D01*
X162353Y52048D01*
X162098Y52084D01*
X161825Y52121D01*
X161551Y52194D01*
X161278Y52285D01*
X161242Y52303D01*
X161169Y52340D01*
X161041Y52394D01*
X160877Y52485D01*
X160677Y52595D01*
X160495Y52740D01*
X160294Y52904D01*
X160094Y53087D01*
X160076Y53105D01*
X160021Y53178D01*
X159930Y53287D01*
X159820Y53451D01*
X159711Y53633D01*
X159584Y53870D01*
X159474Y54125D01*
X159365Y54398D01*
Y54417D01*
X159347Y54435D01*
X159328Y54544D01*
X159292Y54708D01*
X159237Y54927D01*
X159183Y55200D01*
X159146Y55510D01*
X159128Y55856D01*
X159110Y56220D01*
Y56239D01*
Y56257D01*
Y56312D01*
Y56384D01*
X159128Y56567D01*
X159146Y56785D01*
X159165Y57059D01*
X159219Y57350D01*
X159274Y57660D01*
X159365Y57951D01*
Y57969D01*
X159383Y57988D01*
X159420Y58079D01*
X159474Y58243D01*
X159565Y58425D01*
X159675Y58644D01*
X159820Y58862D01*
X159966Y59099D01*
X160148Y59318D01*
X160167Y59336D01*
X160240Y59409D01*
X160349Y59518D01*
X160495Y59646D01*
X160677Y59791D01*
X160896Y59937D01*
X161132Y60083D01*
X161387Y60211D01*
X161424Y60229D01*
X161515Y60265D01*
X161661Y60320D01*
X161861Y60374D01*
X162116Y60429D01*
X162390Y60484D01*
X162699Y60520D01*
X163045Y60539D01*
X163191D01*
X163373Y60520D01*
D02*
G37*
G36*
X200324D02*
X200524Y60502D01*
X200779Y60466D01*
X201034Y60411D01*
X201307Y60338D01*
X201581Y60247D01*
X201617Y60229D01*
X201708Y60192D01*
X201836Y60138D01*
X202000Y60047D01*
X202182Y59937D01*
X202382Y59791D01*
X202583Y59627D01*
X202765Y59445D01*
X202783Y59427D01*
X202838Y59354D01*
X202929Y59245D01*
X203038Y59081D01*
X203166Y58899D01*
X203293Y58662D01*
X203403Y58407D01*
X203512Y58134D01*
X203530Y58097D01*
X203549Y57988D01*
X203603Y57824D01*
X203658Y57623D01*
X203694Y57350D01*
X203749Y57040D01*
X203767Y56694D01*
X203785Y56330D01*
Y56312D01*
Y56293D01*
Y56239D01*
Y56166D01*
X203767Y55984D01*
X203749Y55747D01*
X203713Y55473D01*
X203676Y55182D01*
X203603Y54872D01*
X203512Y54562D01*
X203494Y54526D01*
X203457Y54435D01*
X203403Y54289D01*
X203312Y54107D01*
X203202Y53888D01*
X203075Y53651D01*
X202911Y53414D01*
X202729Y53196D01*
X202710Y53178D01*
X202638Y53105D01*
X202528Y52996D01*
X202382Y52868D01*
X202200Y52740D01*
X202000Y52595D01*
X201745Y52449D01*
X201490Y52321D01*
X201453Y52303D01*
X201362Y52267D01*
X201216Y52230D01*
X201016Y52175D01*
X200761Y52103D01*
X200487Y52066D01*
X200178Y52030D01*
X199832Y52012D01*
X199686D01*
X199504Y52030D01*
X199303Y52048D01*
X199048Y52084D01*
X198775Y52121D01*
X198502Y52194D01*
X198228Y52285D01*
X198192Y52303D01*
X198119Y52340D01*
X197991Y52394D01*
X197827Y52485D01*
X197627Y52595D01*
X197445Y52740D01*
X197244Y52904D01*
X197044Y53087D01*
X197026Y53105D01*
X196971Y53178D01*
X196880Y53287D01*
X196771Y53451D01*
X196661Y53633D01*
X196534Y53870D01*
X196424Y54125D01*
X196315Y54398D01*
Y54417D01*
X196297Y54435D01*
X196279Y54544D01*
X196242Y54708D01*
X196188Y54927D01*
X196133Y55200D01*
X196097Y55510D01*
X196078Y55856D01*
X196060Y56220D01*
Y56239D01*
Y56257D01*
Y56312D01*
Y56384D01*
X196078Y56567D01*
X196097Y56785D01*
X196115Y57059D01*
X196169Y57350D01*
X196224Y57660D01*
X196315Y57951D01*
Y57969D01*
X196333Y57988D01*
X196370Y58079D01*
X196424Y58243D01*
X196516Y58425D01*
X196625Y58644D01*
X196771Y58862D01*
X196916Y59099D01*
X197099Y59318D01*
X197117Y59336D01*
X197190Y59409D01*
X197299Y59518D01*
X197445Y59646D01*
X197627Y59791D01*
X197846Y59937D01*
X198082Y60083D01*
X198338Y60211D01*
X198374Y60229D01*
X198465Y60265D01*
X198611Y60320D01*
X198811Y60374D01*
X199066Y60429D01*
X199340Y60484D01*
X199649Y60520D01*
X199996Y60539D01*
X200141D01*
X200324Y60520D01*
D02*
G37*
G36*
X174779D02*
X174870Y60502D01*
X174998Y60466D01*
X175125Y60411D01*
X175271Y60338D01*
X175417Y60247D01*
X175563Y60119D01*
X175708Y59956D01*
X175836Y59755D01*
X175963Y59536D01*
X176055Y59263D01*
X176127Y58935D01*
X176182Y58571D01*
X176200Y58152D01*
Y52157D01*
X174779D01*
Y58061D01*
Y58079D01*
Y58134D01*
Y58188D01*
Y58279D01*
X174761Y58480D01*
X174743Y58680D01*
Y58698D01*
Y58716D01*
X174724Y58826D01*
X174706Y58953D01*
X174652Y59081D01*
X174633Y59099D01*
X174615Y59154D01*
X174560Y59227D01*
X174506Y59281D01*
X174488Y59300D01*
X174451Y59318D01*
X174378Y59336D01*
X174287Y59354D01*
X174269D01*
X174196Y59336D01*
X174105Y59318D01*
X173996Y59245D01*
X173977Y59227D01*
X173923Y59172D01*
X173832Y59063D01*
X173722Y58917D01*
Y58899D01*
X173704Y58881D01*
X173668Y58826D01*
X173631Y58771D01*
X173522Y58571D01*
X173394Y58334D01*
Y58316D01*
X173358Y58261D01*
X173321Y58188D01*
X173267Y58079D01*
X173212Y57951D01*
X173139Y57806D01*
X173066Y57623D01*
X172975Y57441D01*
Y52157D01*
X171554D01*
Y57915D01*
Y57933D01*
Y57988D01*
Y58061D01*
Y58170D01*
X171536Y58407D01*
X171518Y58625D01*
Y58644D01*
Y58680D01*
X171500Y58789D01*
X171481Y58935D01*
X171427Y59063D01*
X171408Y59081D01*
X171390Y59154D01*
X171335Y59227D01*
X171281Y59281D01*
X171263Y59300D01*
X171226Y59318D01*
X171153Y59336D01*
X171062Y59354D01*
X171044D01*
X170971Y59336D01*
X170880Y59318D01*
X170789Y59263D01*
X170771Y59245D01*
X170716Y59190D01*
X170625Y59099D01*
X170516Y58953D01*
X170497Y58917D01*
X170424Y58808D01*
X170315Y58625D01*
X170188Y58389D01*
Y58370D01*
X170151Y58316D01*
X170115Y58243D01*
X170060Y58134D01*
X170006Y58006D01*
X169933Y57842D01*
X169842Y57642D01*
X169750Y57441D01*
Y52157D01*
X168329D01*
Y60393D01*
X169495D01*
X169568Y58826D01*
X169586Y58844D01*
X169605Y58899D01*
X169641Y58990D01*
X169696Y59099D01*
X169842Y59354D01*
X169987Y59609D01*
X170006Y59627D01*
X170024Y59664D01*
X170060Y59719D01*
X170115Y59791D01*
X170242Y59974D01*
X170406Y60138D01*
X170424Y60156D01*
X170443Y60174D01*
X170552Y60247D01*
X170698Y60338D01*
X170862Y60429D01*
X170880D01*
X170898Y60447D01*
X171026Y60484D01*
X171190Y60520D01*
X171390Y60539D01*
X171500D01*
X171627Y60520D01*
X171773Y60484D01*
X171937Y60429D01*
X172101Y60356D01*
X172265Y60247D01*
X172411Y60101D01*
X172429Y60083D01*
X172465Y60028D01*
X172520Y59919D01*
X172593Y59773D01*
X172647Y59573D01*
X172702Y59354D01*
X172739Y59081D01*
X172757Y58753D01*
X172775Y58771D01*
X172793Y58826D01*
X172830Y58899D01*
X172884Y59008D01*
X173012Y59245D01*
X173139Y59500D01*
Y59518D01*
X173176Y59555D01*
X173212Y59627D01*
X173267Y59700D01*
X173394Y59883D01*
X173540Y60065D01*
X173558Y60083D01*
X173577Y60101D01*
X173686Y60192D01*
X173832Y60302D01*
X174014Y60411D01*
X174032D01*
X174068Y60429D01*
X174123Y60447D01*
X174196Y60484D01*
X174397Y60520D01*
X174633Y60539D01*
X174706D01*
X174779Y60520D01*
D02*
G37*
G36*
X135661D02*
X135861Y60502D01*
X136116Y60466D01*
X136371Y60411D01*
X136645Y60338D01*
X136918Y60247D01*
X136954Y60229D01*
X137046Y60192D01*
X137173Y60138D01*
X137337Y60047D01*
X137519Y59937D01*
X137720Y59791D01*
X137920Y59627D01*
X138102Y59445D01*
X138120Y59427D01*
X138175Y59354D01*
X138266Y59245D01*
X138375Y59081D01*
X138503Y58899D01*
X138631Y58662D01*
X138740Y58407D01*
X138849Y58134D01*
X138867Y58097D01*
X138886Y57988D01*
X138940Y57824D01*
X138995Y57623D01*
X139032Y57350D01*
X139086Y57040D01*
X139104Y56694D01*
X139123Y56330D01*
Y56312D01*
Y56293D01*
Y56239D01*
Y56166D01*
X139104Y55984D01*
X139086Y55747D01*
X139050Y55473D01*
X139013Y55182D01*
X138940Y54872D01*
X138849Y54562D01*
X138831Y54526D01*
X138795Y54435D01*
X138740Y54289D01*
X138649Y54107D01*
X138540Y53888D01*
X138412Y53651D01*
X138248Y53414D01*
X138066Y53196D01*
X138048Y53178D01*
X137975Y53105D01*
X137865Y52996D01*
X137720Y52868D01*
X137537Y52740D01*
X137337Y52595D01*
X137082Y52449D01*
X136827Y52321D01*
X136790Y52303D01*
X136699Y52267D01*
X136554Y52230D01*
X136353Y52175D01*
X136098Y52103D01*
X135825Y52066D01*
X135515Y52030D01*
X135169Y52012D01*
X135023D01*
X134841Y52030D01*
X134640Y52048D01*
X134385Y52084D01*
X134112Y52121D01*
X133839Y52194D01*
X133565Y52285D01*
X133529Y52303D01*
X133456Y52340D01*
X133329Y52394D01*
X133165Y52485D01*
X132964Y52595D01*
X132782Y52740D01*
X132582Y52904D01*
X132381Y53087D01*
X132363Y53105D01*
X132308Y53178D01*
X132217Y53287D01*
X132108Y53451D01*
X131999Y53633D01*
X131871Y53870D01*
X131762Y54125D01*
X131652Y54398D01*
Y54417D01*
X131634Y54435D01*
X131616Y54544D01*
X131579Y54708D01*
X131525Y54927D01*
X131470Y55200D01*
X131434Y55510D01*
X131415Y55856D01*
X131397Y56220D01*
Y56239D01*
Y56257D01*
Y56312D01*
Y56384D01*
X131415Y56567D01*
X131434Y56785D01*
X131452Y57059D01*
X131507Y57350D01*
X131561Y57660D01*
X131652Y57951D01*
Y57969D01*
X131671Y57988D01*
X131707Y58079D01*
X131762Y58243D01*
X131853Y58425D01*
X131962Y58644D01*
X132108Y58862D01*
X132254Y59099D01*
X132436Y59318D01*
X132454Y59336D01*
X132527Y59409D01*
X132636Y59518D01*
X132782Y59646D01*
X132964Y59791D01*
X133183Y59937D01*
X133420Y60083D01*
X133675Y60211D01*
X133711Y60229D01*
X133802Y60265D01*
X133948Y60320D01*
X134149Y60374D01*
X134404Y60429D01*
X134677Y60484D01*
X134987Y60520D01*
X135333Y60539D01*
X135479D01*
X135661Y60520D01*
D02*
G37*
%LPC*%
G36*
X292517Y59391D02*
X292152D01*
X292043Y59373D01*
X291915Y59354D01*
X291770Y59318D01*
X291460Y59209D01*
X291442D01*
X291405Y59172D01*
X291332Y59136D01*
X291241Y59081D01*
X291023Y58917D01*
X290804Y58698D01*
X290786Y58680D01*
X290768Y58644D01*
X290713Y58571D01*
X290640Y58480D01*
X290567Y58370D01*
X290494Y58225D01*
X290349Y57915D01*
Y57897D01*
X290330Y57842D01*
X290294Y57751D01*
X290258Y57623D01*
X290221Y57478D01*
X290203Y57295D01*
X290148Y56913D01*
X294484D01*
Y56931D01*
Y57004D01*
Y57113D01*
Y57241D01*
X294466Y57386D01*
X294448Y57551D01*
X294357Y57897D01*
Y57915D01*
X294339Y57969D01*
X294302Y58061D01*
X294266Y58170D01*
X294138Y58425D01*
X293956Y58680D01*
X293938Y58698D01*
X293901Y58735D01*
X293847Y58789D01*
X293774Y58862D01*
X293665Y58953D01*
X293555Y59026D01*
X293264Y59190D01*
X293246Y59209D01*
X293191Y59227D01*
X293100Y59263D01*
X292990Y59300D01*
X292863Y59336D01*
X292699Y59354D01*
X292517Y59391D01*
D02*
G37*
G36*
X266426Y55911D02*
X264422D01*
X264294Y55892D01*
X264002Y55874D01*
X263693Y55801D01*
X263674D01*
X263638Y55783D01*
X263565Y55765D01*
X263474Y55728D01*
X263255Y55619D01*
X263055Y55492D01*
X263037D01*
X263019Y55455D01*
X262928Y55364D01*
X262800Y55200D01*
X262691Y55018D01*
Y55000D01*
X262672Y54963D01*
X262654Y54909D01*
X262636Y54836D01*
X262599Y54635D01*
X262581Y54398D01*
Y54380D01*
Y54362D01*
X262599Y54253D01*
X262618Y54107D01*
X262654Y53943D01*
Y53925D01*
X262672Y53906D01*
X262709Y53815D01*
X262782Y53688D01*
X262891Y53542D01*
X262928Y53524D01*
X263000Y53451D01*
X263146Y53360D01*
X263310Y53287D01*
X263328D01*
X263365Y53269D01*
X263419Y53250D01*
X263492D01*
X263693Y53214D01*
X263948Y53196D01*
X264039D01*
X264130Y53214D01*
X264276Y53232D01*
X264440Y53269D01*
X264640Y53323D01*
X264841Y53396D01*
X265077Y53487D01*
X265114Y53506D01*
X265187Y53542D01*
X265314Y53615D01*
X265478Y53724D01*
X265679Y53852D01*
X265915Y54016D01*
X266171Y54198D01*
X266426Y54435D01*
Y55911D01*
D02*
G37*
G36*
X254965Y61650D02*
X253489D01*
Y57241D01*
X254965D01*
X255056Y57259D01*
X255166D01*
X255293Y57277D01*
X255567Y57314D01*
X255894Y57386D01*
X256223Y57478D01*
X256551Y57623D01*
X256842Y57806D01*
X256878Y57824D01*
X256951Y57915D01*
X257061Y58042D01*
X257206Y58225D01*
X257334Y58480D01*
X257443Y58771D01*
X257516Y59117D01*
X257553Y59518D01*
Y59536D01*
Y59555D01*
Y59609D01*
X257534Y59682D01*
X257516Y59864D01*
X257462Y60101D01*
X257389Y60356D01*
X257261Y60611D01*
X257097Y60866D01*
X256860Y61085D01*
X256824Y61103D01*
X256733Y61176D01*
X256587Y61267D01*
X256368Y61377D01*
X256095Y61468D01*
X255785Y61559D01*
X255403Y61632D01*
X254965Y61650D01*
D02*
G37*
G36*
X125858Y57077D02*
X124164D01*
Y53396D01*
X125895D01*
X126004Y53414D01*
X126132D01*
X126405Y53451D01*
X126715Y53506D01*
X127024Y53597D01*
X127316Y53706D01*
X127571Y53852D01*
X127589Y53870D01*
X127662Y53943D01*
X127771Y54052D01*
X127881Y54216D01*
X127990Y54417D01*
X128100Y54672D01*
X128172Y54963D01*
X128191Y55309D01*
Y55328D01*
Y55382D01*
Y55455D01*
X128172Y55546D01*
X128118Y55783D01*
X128008Y56038D01*
Y56056D01*
X127972Y56093D01*
X127936Y56147D01*
X127881Y56239D01*
X127735Y56403D01*
X127516Y56585D01*
X127498Y56603D01*
X127462Y56621D01*
X127389Y56676D01*
X127298Y56712D01*
X127170Y56785D01*
X127043Y56840D01*
X126715Y56949D01*
X126697D01*
X126624Y56967D01*
X126532Y56986D01*
X126405Y57022D01*
X126241Y57040D01*
X126059Y57059D01*
X125858Y57077D01*
D02*
G37*
G36*
X125877Y61632D02*
X124164D01*
Y58297D01*
X125786D01*
X125895Y58316D01*
X126041D01*
X126186Y58334D01*
X126496Y58389D01*
X126514D01*
X126569Y58407D01*
X126642Y58443D01*
X126733Y58480D01*
X126952Y58571D01*
X127189Y58716D01*
X127207Y58735D01*
X127243Y58753D01*
X127352Y58862D01*
X127498Y59044D01*
X127644Y59263D01*
Y59281D01*
X127662Y59318D01*
X127699Y59391D01*
X127735Y59500D01*
X127753Y59609D01*
X127790Y59755D01*
X127808Y60065D01*
Y60083D01*
Y60119D01*
Y60174D01*
X127790Y60265D01*
X127771Y60447D01*
X127699Y60666D01*
Y60684D01*
X127680Y60721D01*
X127662Y60775D01*
X127626Y60830D01*
X127516Y60994D01*
X127352Y61158D01*
X127334Y61176D01*
X127316Y61194D01*
X127261Y61231D01*
X127189Y61286D01*
X127097Y61340D01*
X126970Y61395D01*
X126842Y61449D01*
X126697Y61504D01*
X126678D01*
X126624Y61522D01*
X126532Y61541D01*
X126405Y61577D01*
X126259Y61595D01*
X126077Y61614D01*
X125877Y61632D01*
D02*
G37*
G36*
X227854Y59391D02*
X227490D01*
X227380Y59373D01*
X227253Y59354D01*
X227107Y59318D01*
X226797Y59209D01*
X226779D01*
X226743Y59172D01*
X226670Y59136D01*
X226579Y59081D01*
X226360Y58917D01*
X226141Y58698D01*
X226123Y58680D01*
X226105Y58644D01*
X226050Y58571D01*
X225977Y58480D01*
X225904Y58370D01*
X225832Y58225D01*
X225686Y57915D01*
Y57897D01*
X225668Y57842D01*
X225631Y57751D01*
X225595Y57623D01*
X225558Y57478D01*
X225540Y57295D01*
X225485Y56913D01*
X229822D01*
Y56931D01*
Y57004D01*
Y57113D01*
Y57241D01*
X229803Y57386D01*
X229785Y57551D01*
X229694Y57897D01*
Y57915D01*
X229676Y57969D01*
X229640Y58061D01*
X229603Y58170D01*
X229475Y58425D01*
X229293Y58680D01*
X229275Y58698D01*
X229239Y58735D01*
X229184Y58789D01*
X229111Y58862D01*
X229002Y58953D01*
X228892Y59026D01*
X228601Y59190D01*
X228583Y59209D01*
X228528Y59227D01*
X228437Y59263D01*
X228328Y59300D01*
X228200Y59336D01*
X228036Y59354D01*
X227854Y59391D01*
D02*
G37*
G36*
X218598Y59300D02*
X218489D01*
X218398Y59281D01*
X218197Y59263D01*
X217942Y59209D01*
X217633Y59117D01*
X217341Y58972D01*
X217050Y58789D01*
X216776Y58534D01*
X216758Y58498D01*
X216685Y58389D01*
X216630Y58316D01*
X216576Y58206D01*
X216521Y58097D01*
X216466Y57969D01*
X216394Y57806D01*
X216339Y57642D01*
X216284Y57441D01*
X216248Y57222D01*
X216193Y57004D01*
X216175Y56749D01*
X216139Y56476D01*
Y56184D01*
Y56166D01*
Y56111D01*
Y56038D01*
Y55947D01*
X216157Y55820D01*
Y55674D01*
X216193Y55346D01*
X216248Y54981D01*
X216321Y54617D01*
X216430Y54271D01*
X216576Y53961D01*
X216594Y53925D01*
X216649Y53852D01*
X216758Y53724D01*
X216904Y53597D01*
X217068Y53469D01*
X217286Y53342D01*
X217523Y53269D01*
X217815Y53232D01*
X217906D01*
X218015Y53250D01*
X218161Y53287D01*
X218343Y53342D01*
X218525Y53433D01*
X218744Y53542D01*
X218963Y53706D01*
X218999Y53724D01*
X219072Y53797D01*
X219181Y53906D01*
X219345Y54070D01*
X219546Y54271D01*
X219746Y54526D01*
X219983Y54817D01*
X220238Y55145D01*
Y58953D01*
X220220D01*
X220183Y58990D01*
X220092Y59008D01*
X220001Y59044D01*
X219892Y59081D01*
X219746Y59136D01*
X219436Y59209D01*
X219418D01*
X219363Y59227D01*
X219291Y59245D01*
X219181Y59263D01*
X219054D01*
X218908Y59281D01*
X218598Y59300D01*
D02*
G37*
G36*
X163173Y59318D02*
X162863D01*
X162736Y59300D01*
X162590Y59281D01*
X162408Y59263D01*
X162225Y59209D01*
X162043Y59154D01*
X161861Y59063D01*
X161843Y59044D01*
X161788Y59008D01*
X161697Y58953D01*
X161606Y58881D01*
X161478Y58789D01*
X161351Y58680D01*
X161114Y58389D01*
X161096Y58370D01*
X161059Y58316D01*
X161023Y58225D01*
X160950Y58115D01*
X160877Y57969D01*
X160823Y57806D01*
X160750Y57623D01*
X160695Y57423D01*
Y57405D01*
X160677Y57332D01*
X160659Y57222D01*
X160640Y57077D01*
X160604Y56894D01*
X160586Y56694D01*
X160567Y56257D01*
Y56220D01*
Y56129D01*
X160586Y55984D01*
Y55801D01*
X160604Y55601D01*
X160640Y55364D01*
X160731Y54909D01*
Y54890D01*
X160768Y54817D01*
X160804Y54708D01*
X160859Y54581D01*
X161005Y54271D01*
X161205Y53961D01*
X161223Y53943D01*
X161260Y53906D01*
X161333Y53834D01*
X161424Y53761D01*
X161533Y53670D01*
X161661Y53579D01*
X161952Y53396D01*
X161970D01*
X162025Y53360D01*
X162134Y53342D01*
X162244Y53305D01*
X162408Y53269D01*
X162572Y53250D01*
X162772Y53214D01*
X163082D01*
X163191Y53232D01*
X163355Y53250D01*
X163519Y53269D01*
X163701Y53323D01*
X163883Y53378D01*
X164066Y53451D01*
X164084Y53469D01*
X164139Y53506D01*
X164230Y53560D01*
X164339Y53633D01*
X164448Y53724D01*
X164576Y53852D01*
X164813Y54125D01*
X164831Y54143D01*
X164867Y54198D01*
X164904Y54289D01*
X164977Y54398D01*
X165050Y54544D01*
X165104Y54708D01*
X165177Y54890D01*
X165232Y55091D01*
Y55109D01*
X165250Y55182D01*
X165287Y55309D01*
X165305Y55455D01*
X165341Y55619D01*
X165359Y55820D01*
X165378Y56257D01*
Y56293D01*
Y56384D01*
Y56530D01*
X165359Y56712D01*
X165341Y56913D01*
X165305Y57150D01*
X165250Y57368D01*
X165195Y57587D01*
Y57605D01*
X165159Y57678D01*
X165122Y57787D01*
X165068Y57933D01*
X164922Y58225D01*
X164831Y58389D01*
X164722Y58534D01*
X164703Y58552D01*
X164667Y58589D01*
X164594Y58662D01*
X164503Y58753D01*
X164394Y58844D01*
X164266Y58935D01*
X163956Y59117D01*
X163938Y59136D01*
X163883Y59154D01*
X163792Y59190D01*
X163665Y59227D01*
X163519Y59263D01*
X163355Y59281D01*
X163173Y59318D01*
D02*
G37*
G36*
X200123D02*
X199813D01*
X199686Y59300D01*
X199540Y59281D01*
X199358Y59263D01*
X199176Y59209D01*
X198994Y59154D01*
X198811Y59063D01*
X198793Y59044D01*
X198738Y59008D01*
X198647Y58953D01*
X198556Y58881D01*
X198429Y58789D01*
X198301Y58680D01*
X198064Y58389D01*
X198046Y58370D01*
X198010Y58316D01*
X197973Y58225D01*
X197900Y58115D01*
X197827Y57969D01*
X197773Y57806D01*
X197700Y57623D01*
X197645Y57423D01*
Y57405D01*
X197627Y57332D01*
X197609Y57222D01*
X197590Y57077D01*
X197554Y56894D01*
X197536Y56694D01*
X197518Y56257D01*
Y56220D01*
Y56129D01*
X197536Y55984D01*
Y55801D01*
X197554Y55601D01*
X197590Y55364D01*
X197682Y54909D01*
Y54890D01*
X197718Y54817D01*
X197755Y54708D01*
X197809Y54581D01*
X197955Y54271D01*
X198155Y53961D01*
X198174Y53943D01*
X198210Y53906D01*
X198283Y53834D01*
X198374Y53761D01*
X198483Y53670D01*
X198611Y53579D01*
X198902Y53396D01*
X198921D01*
X198975Y53360D01*
X199085Y53342D01*
X199194Y53305D01*
X199358Y53269D01*
X199522Y53250D01*
X199722Y53214D01*
X200032D01*
X200141Y53232D01*
X200305Y53250D01*
X200469Y53269D01*
X200652Y53323D01*
X200834Y53378D01*
X201016Y53451D01*
X201034Y53469D01*
X201089Y53506D01*
X201180Y53560D01*
X201289Y53633D01*
X201398Y53724D01*
X201526Y53852D01*
X201763Y54125D01*
X201781Y54143D01*
X201818Y54198D01*
X201854Y54289D01*
X201927Y54398D01*
X202000Y54544D01*
X202054Y54708D01*
X202127Y54890D01*
X202182Y55091D01*
Y55109D01*
X202200Y55182D01*
X202237Y55309D01*
X202255Y55455D01*
X202291Y55619D01*
X202309Y55820D01*
X202328Y56257D01*
Y56293D01*
Y56384D01*
Y56530D01*
X202309Y56712D01*
X202291Y56913D01*
X202255Y57150D01*
X202200Y57368D01*
X202146Y57587D01*
Y57605D01*
X202109Y57678D01*
X202073Y57787D01*
X202018Y57933D01*
X201872Y58225D01*
X201781Y58389D01*
X201672Y58534D01*
X201654Y58552D01*
X201617Y58589D01*
X201544Y58662D01*
X201453Y58753D01*
X201344Y58844D01*
X201216Y58935D01*
X200907Y59117D01*
X200888Y59136D01*
X200834Y59154D01*
X200743Y59190D01*
X200615Y59227D01*
X200469Y59263D01*
X200305Y59281D01*
X200123Y59318D01*
D02*
G37*
G36*
X135460D02*
X135151D01*
X135023Y59300D01*
X134877Y59281D01*
X134695Y59263D01*
X134513Y59209D01*
X134331Y59154D01*
X134149Y59063D01*
X134130Y59044D01*
X134076Y59008D01*
X133984Y58953D01*
X133893Y58881D01*
X133766Y58789D01*
X133638Y58680D01*
X133402Y58389D01*
X133383Y58370D01*
X133347Y58316D01*
X133310Y58225D01*
X133238Y58115D01*
X133165Y57969D01*
X133110Y57806D01*
X133037Y57623D01*
X132982Y57423D01*
Y57405D01*
X132964Y57332D01*
X132946Y57222D01*
X132928Y57077D01*
X132891Y56894D01*
X132873Y56694D01*
X132855Y56257D01*
Y56220D01*
Y56129D01*
X132873Y55984D01*
Y55801D01*
X132891Y55601D01*
X132928Y55364D01*
X133019Y54909D01*
Y54890D01*
X133055Y54817D01*
X133092Y54708D01*
X133146Y54581D01*
X133292Y54271D01*
X133493Y53961D01*
X133511Y53943D01*
X133547Y53906D01*
X133620Y53834D01*
X133711Y53761D01*
X133820Y53670D01*
X133948Y53579D01*
X134240Y53396D01*
X134258D01*
X134312Y53360D01*
X134422Y53342D01*
X134531Y53305D01*
X134695Y53269D01*
X134859Y53250D01*
X135059Y53214D01*
X135369D01*
X135479Y53232D01*
X135643Y53250D01*
X135807Y53269D01*
X135989Y53323D01*
X136171Y53378D01*
X136353Y53451D01*
X136371Y53469D01*
X136426Y53506D01*
X136517Y53560D01*
X136626Y53633D01*
X136736Y53724D01*
X136863Y53852D01*
X137100Y54125D01*
X137118Y54143D01*
X137155Y54198D01*
X137191Y54289D01*
X137264Y54398D01*
X137337Y54544D01*
X137392Y54708D01*
X137464Y54890D01*
X137519Y55091D01*
Y55109D01*
X137537Y55182D01*
X137574Y55309D01*
X137592Y55455D01*
X137628Y55619D01*
X137647Y55820D01*
X137665Y56257D01*
Y56293D01*
Y56384D01*
Y56530D01*
X137647Y56712D01*
X137628Y56913D01*
X137592Y57150D01*
X137537Y57368D01*
X137483Y57587D01*
Y57605D01*
X137446Y57678D01*
X137410Y57787D01*
X137355Y57933D01*
X137209Y58225D01*
X137118Y58389D01*
X137009Y58534D01*
X136991Y58552D01*
X136954Y58589D01*
X136881Y58662D01*
X136790Y58753D01*
X136681Y58844D01*
X136554Y58935D01*
X136244Y59117D01*
X136226Y59136D01*
X136171Y59154D01*
X136080Y59190D01*
X135952Y59227D01*
X135807Y59263D01*
X135643Y59281D01*
X135460Y59318D01*
D02*
G37*
%LPD*%
D10*
X220794Y-260872D02*
D03*
Y-262841D02*
D03*
Y-264809D02*
D03*
Y-266778D02*
D03*
Y-274652D02*
D03*
Y-272683D02*
D03*
Y-270715D02*
D03*
Y-268746D02*
D03*
X203707D02*
D03*
Y-270715D02*
D03*
Y-272683D02*
D03*
Y-274652D02*
D03*
Y-266778D02*
D03*
Y-264809D02*
D03*
Y-262841D02*
D03*
Y-260872D02*
D03*
D12*
X79050Y-136327D02*
D03*
Y-144398D02*
D03*
X131900Y-121492D02*
D03*
Y-113421D02*
D03*
X243150Y-214698D02*
D03*
Y-206627D02*
D03*
X240350Y-284898D02*
D03*
Y-276827D02*
D03*
X298650Y-329598D02*
D03*
Y-321527D02*
D03*
X275450D02*
D03*
Y-329598D02*
D03*
X160850Y-95827D02*
D03*
Y-103898D02*
D03*
X229150Y-261798D02*
D03*
Y-253727D02*
D03*
X232150Y-284998D02*
D03*
Y-276927D02*
D03*
X99596Y-76422D02*
D03*
Y-84493D02*
D03*
X107550Y-76427D02*
D03*
Y-84498D02*
D03*
X368450Y-301827D02*
D03*
Y-309898D02*
D03*
X210250Y-93598D02*
D03*
Y-85527D02*
D03*
X118350Y-245298D02*
D03*
Y-237227D02*
D03*
X102850Y-117980D02*
D03*
Y-126050D02*
D03*
X70450Y-237898D02*
D03*
Y-229827D02*
D03*
X79050Y-129433D02*
D03*
Y-121362D02*
D03*
D13*
X56550Y-48005D02*
D03*
Y-53720D02*
D03*
X121750Y-161420D02*
D03*
Y-155705D02*
D03*
X227850Y-198620D02*
D03*
Y-192905D02*
D03*
X261950Y-163020D02*
D03*
Y-157305D02*
D03*
X270550Y-163020D02*
D03*
Y-157305D02*
D03*
X261950Y-121884D02*
D03*
Y-116169D02*
D03*
X270550Y-121884D02*
D03*
Y-116169D02*
D03*
X261950Y-231820D02*
D03*
Y-226105D02*
D03*
X270550Y-231820D02*
D03*
Y-226105D02*
D03*
X261950Y-191720D02*
D03*
Y-186005D02*
D03*
X270550Y-191720D02*
D03*
Y-186005D02*
D03*
X183550Y-97005D02*
D03*
Y-102720D02*
D03*
X169250Y-97005D02*
D03*
Y-102720D02*
D03*
X93750Y-230905D02*
D03*
Y-236620D02*
D03*
X70250Y-211305D02*
D03*
Y-217020D02*
D03*
X141150Y-281405D02*
D03*
Y-287120D02*
D03*
D15*
X150010Y-51198D02*
D03*
Y-53167D02*
D03*
Y-55135D02*
D03*
Y-57104D02*
D03*
Y-59072D02*
D03*
Y-61041D02*
D03*
Y-63009D02*
D03*
Y-64978D02*
D03*
Y-66946D02*
D03*
Y-68915D02*
D03*
Y-70883D02*
D03*
Y-72852D02*
D03*
Y-74820D02*
D03*
Y-76789D02*
D03*
Y-78757D02*
D03*
Y-80726D02*
D03*
X194891D02*
D03*
Y-78757D02*
D03*
Y-76789D02*
D03*
Y-74820D02*
D03*
Y-72852D02*
D03*
Y-70883D02*
D03*
Y-68915D02*
D03*
Y-66946D02*
D03*
Y-64978D02*
D03*
Y-63009D02*
D03*
Y-61041D02*
D03*
Y-59072D02*
D03*
Y-57104D02*
D03*
Y-55135D02*
D03*
Y-53167D02*
D03*
Y-51198D02*
D03*
D20*
X322650Y-329775D02*
D03*
Y-321350D02*
D03*
D21*
X150535Y-101300D02*
D03*
X142465D02*
D03*
X133715Y-136962D02*
D03*
X141786D02*
D03*
X212915Y-281912D02*
D03*
X220986D02*
D03*
X212915Y-253652D02*
D03*
X220986D02*
D03*
X31886Y-223562D02*
D03*
X23815D02*
D03*
D22*
X48950Y-166227D02*
D03*
Y-174298D02*
D03*
X185050Y-275298D02*
D03*
Y-267227D02*
D03*
X48950Y-198327D02*
D03*
Y-206398D02*
D03*
D23*
X88808Y-33462D02*
D03*
X83093D02*
D03*
X203242Y-331600D02*
D03*
X208958D02*
D03*
X139785Y-331000D02*
D03*
X145500D02*
D03*
X288993Y-152662D02*
D03*
X294708D02*
D03*
X155865Y-260662D02*
D03*
X150150D02*
D03*
X289093Y-212262D02*
D03*
X294808D02*
D03*
X126993Y-229762D02*
D03*
X132708D02*
D03*
X75408Y-179862D02*
D03*
X69693D02*
D03*
X75308Y-188362D02*
D03*
X69593D02*
D03*
X75408Y-168762D02*
D03*
X69693D02*
D03*
D27*
X109750Y-313802D02*
D03*
X113491Y-306322D02*
D03*
X106010D02*
D03*
D28*
X75918Y-24100D02*
D03*
X73359D02*
D03*
X70800D02*
D03*
X68241D02*
D03*
X65682D02*
D03*
D29*
X22800Y-284141D02*
D03*
Y-311700D02*
D03*
D30*
X31068Y-295952D02*
D03*
Y-292015D02*
D03*
Y-288078D02*
D03*
Y-307763D02*
D03*
Y-299889D02*
D03*
Y-303826D02*
D03*
D32*
X49050Y-69220D02*
D03*
Y-63905D02*
D03*
D33*
X23738Y-240362D02*
D03*
X32163D02*
D03*
D35*
X39315Y-317462D02*
D03*
X47386D02*
D03*
X300686Y-307362D02*
D03*
X292615D02*
D03*
X132115Y-184362D02*
D03*
X140186D02*
D03*
X310815Y-245862D02*
D03*
X318886D02*
D03*
X133715Y-145262D02*
D03*
X141786D02*
D03*
X318786Y-222762D02*
D03*
X310715D02*
D03*
X287615Y-238362D02*
D03*
X295686D02*
D03*
X150535Y-93300D02*
D03*
X142465D02*
D03*
X295686Y-230262D02*
D03*
X287615D02*
D03*
X130086Y-170062D02*
D03*
X122015D02*
D03*
X136815D02*
D03*
X144886D02*
D03*
X315586Y-307362D02*
D03*
X307515D02*
D03*
X318921Y-260262D02*
D03*
X310850D02*
D03*
X300686Y-297062D02*
D03*
X292615D02*
D03*
X300686Y-288862D02*
D03*
X292615D02*
D03*
X315586Y-315562D02*
D03*
X307515D02*
D03*
X141180Y-253262D02*
D03*
X149250D02*
D03*
X163986Y-245062D02*
D03*
X155915D02*
D03*
X155915Y-253262D02*
D03*
X163986D02*
D03*
X170715D02*
D03*
X178786D02*
D03*
X113986Y-293362D02*
D03*
X105915D02*
D03*
X310015Y-39362D02*
D03*
X318086D02*
D03*
X169286Y-129762D02*
D03*
X161215D02*
D03*
X169286Y-121562D02*
D03*
X161215D02*
D03*
X169286Y-113462D02*
D03*
X161215D02*
D03*
X195331Y-113422D02*
D03*
X187260D02*
D03*
X195386Y-121562D02*
D03*
X187315D02*
D03*
X244486Y-293062D02*
D03*
X236415D02*
D03*
X39315Y-286462D02*
D03*
X47386D02*
D03*
X209686Y-45362D02*
D03*
X201615D02*
D03*
X124986Y-258862D02*
D03*
X116915D02*
D03*
X31886Y-231962D02*
D03*
X23815D02*
D03*
X23915Y-248762D02*
D03*
X31986D02*
D03*
X23915Y-256962D02*
D03*
X31986D02*
D03*
X78015Y-245262D02*
D03*
X86086D02*
D03*
X109615Y-205962D02*
D03*
X117686D02*
D03*
X89886Y-195862D02*
D03*
X81815D02*
D03*
X105215Y-197762D02*
D03*
X113286D02*
D03*
X105286Y-189662D02*
D03*
X97215D02*
D03*
X39315Y-300462D02*
D03*
X47386D02*
D03*
X47386Y-309362D02*
D03*
X39315D02*
D03*
X147286Y-13462D02*
D03*
X139215D02*
D03*
X105286Y-180662D02*
D03*
X97215D02*
D03*
X266386Y-146309D02*
D03*
X258315D02*
D03*
X274457D02*
D03*
X266386Y-216162D02*
D03*
X258315D02*
D03*
X274457D02*
D03*
X242635Y-69632D02*
D03*
X234565D02*
D03*
X242635Y-77300D02*
D03*
X234565D02*
D03*
D38*
X187214Y-43521D02*
D03*
X185246D02*
D03*
X183277D02*
D03*
X181309D02*
D03*
X179340D02*
D03*
X177372D02*
D03*
X175403D02*
D03*
X173435D02*
D03*
X171466D02*
D03*
X169498D02*
D03*
X167529D02*
D03*
X165561D02*
D03*
X163592D02*
D03*
X161624D02*
D03*
X159655D02*
D03*
X157687D02*
D03*
Y-88403D02*
D03*
X159655D02*
D03*
X161624D02*
D03*
X163592D02*
D03*
X165561D02*
D03*
X167529D02*
D03*
X169498D02*
D03*
X171466D02*
D03*
X173435D02*
D03*
X175403D02*
D03*
X177372D02*
D03*
X179340D02*
D03*
X181309D02*
D03*
X183277D02*
D03*
X185246D02*
D03*
X187214D02*
D03*
D99*
X139694Y-108913D02*
D03*
X141663D02*
D03*
X143631D02*
D03*
X145600D02*
D03*
X153474D02*
D03*
X151505D02*
D03*
X149537D02*
D03*
X147569D02*
D03*
Y-126000D02*
D03*
X149537D02*
D03*
X151505D02*
D03*
X153474D02*
D03*
X145600D02*
D03*
X143631D02*
D03*
X141663D02*
D03*
X139694D02*
D03*
D101*
X199910Y-313998D02*
D03*
X207391D02*
D03*
X67410Y-45298D02*
D03*
X74891D02*
D03*
X129710Y-154527D02*
D03*
X133450D02*
D03*
X137191D02*
D03*
Y-162598D02*
D03*
X129710D02*
D03*
X71150Y-45298D02*
D03*
X74891Y-37227D02*
D03*
X71150D02*
D03*
X67410D02*
D03*
X203650Y-313998D02*
D03*
X207391Y-305927D02*
D03*
X203650D02*
D03*
X199910D02*
D03*
X290791Y-321527D02*
D03*
X287050D02*
D03*
X283310D02*
D03*
Y-329598D02*
D03*
X287050D02*
D03*
X290791D02*
D03*
X85791Y-237798D02*
D03*
X82050D02*
D03*
X78310D02*
D03*
Y-229727D02*
D03*
X85791D02*
D03*
X52691Y-189198D02*
D03*
X48950D02*
D03*
X45210D02*
D03*
Y-181127D02*
D03*
X52691D02*
D03*
X82810Y-188498D02*
D03*
X86550D02*
D03*
X90291D02*
D03*
Y-180427D02*
D03*
X86550D02*
D03*
X82810D02*
D03*
X71810Y-161198D02*
D03*
X75550D02*
D03*
X79291D02*
D03*
Y-153127D02*
D03*
X75550D02*
D03*
X71810D02*
D03*
X94010Y-210027D02*
D03*
X97750D02*
D03*
X101491D02*
D03*
Y-218098D02*
D03*
X94010D02*
D03*
X85791Y-210027D02*
D03*
X82050D02*
D03*
X78310D02*
D03*
Y-218098D02*
D03*
X82050D02*
D03*
X85791D02*
D03*
D102*
X45801Y-122192D02*
D03*
Y-125932D02*
D03*
X52100Y-122192D02*
D03*
Y-125932D02*
D03*
X45801Y-131092D02*
D03*
Y-134832D02*
D03*
X52100Y-131092D02*
D03*
Y-134832D02*
D03*
X45801Y-142292D02*
D03*
Y-146032D02*
D03*
X52100Y-142292D02*
D03*
Y-146032D02*
D03*
X45801Y-149792D02*
D03*
Y-153532D02*
D03*
X52100Y-149792D02*
D03*
Y-153532D02*
D03*
D103*
X173800Y-281505D02*
D03*
Y-284065D02*
D03*
Y-286624D02*
D03*
Y-289183D02*
D03*
Y-291742D02*
D03*
Y-294301D02*
D03*
Y-296860D02*
D03*
Y-299419D02*
D03*
X150572Y-281505D02*
D03*
Y-284065D02*
D03*
Y-286624D02*
D03*
Y-289183D02*
D03*
Y-291742D02*
D03*
Y-294301D02*
D03*
Y-296860D02*
D03*
Y-299419D02*
D03*
D104*
X99650Y-93031D02*
D03*
Y-101693D02*
D03*
D105*
X69000Y-274300D02*
D03*
X86400D02*
D03*
Y-282174D02*
D03*
X69000D02*
D03*
X86400Y-290048D02*
D03*
X69000D02*
D03*
X86400Y-266426D02*
D03*
X69000D02*
D03*
X86400Y-258552D02*
D03*
X69000D02*
D03*
X68700Y-98200D02*
D03*
X51300D02*
D03*
Y-90326D02*
D03*
X68700D02*
D03*
X51300Y-82452D02*
D03*
X68700D02*
D03*
X51300Y-106074D02*
D03*
X68700D02*
D03*
X51300Y-113948D02*
D03*
X68700D02*
D03*
D106*
X111800Y-33700D02*
D03*
Y-16300D02*
D03*
X119674D02*
D03*
Y-33700D02*
D03*
X127548Y-16300D02*
D03*
Y-33700D02*
D03*
X103926Y-16300D02*
D03*
Y-33700D02*
D03*
X96052Y-16300D02*
D03*
Y-33700D02*
D03*
D107*
X69282Y-65277D02*
D03*
X73219D02*
D03*
X69282Y-54647D02*
D03*
X73219D02*
D03*
X205519Y-284647D02*
D03*
X201582D02*
D03*
X205519Y-295277D02*
D03*
X201582D02*
D03*
D108*
X310831Y-234322D02*
D03*
X303350Y-230582D02*
D03*
Y-238062D02*
D03*
D109*
X243187Y-198635D02*
D03*
X241219D02*
D03*
X239250D02*
D03*
X237282D02*
D03*
X235313D02*
D03*
X243187Y-182690D02*
D03*
X241219D02*
D03*
X239250D02*
D03*
X237282D02*
D03*
X235313D02*
D03*
D110*
X289136Y-144596D02*
D03*
Y-142037D02*
D03*
Y-139478D02*
D03*
Y-136919D02*
D03*
Y-134360D02*
D03*
Y-131801D02*
D03*
Y-129242D02*
D03*
Y-126683D02*
D03*
Y-124124D02*
D03*
Y-121564D02*
D03*
Y-119006D02*
D03*
Y-116446D02*
D03*
Y-113887D02*
D03*
Y-111328D02*
D03*
X312365Y-144596D02*
D03*
Y-142037D02*
D03*
Y-139478D02*
D03*
Y-136919D02*
D03*
Y-134360D02*
D03*
Y-131801D02*
D03*
Y-129242D02*
D03*
Y-126683D02*
D03*
Y-124124D02*
D03*
Y-121564D02*
D03*
Y-119006D02*
D03*
Y-116446D02*
D03*
Y-113887D02*
D03*
Y-111328D02*
D03*
X289136Y-204196D02*
D03*
Y-201637D02*
D03*
Y-199078D02*
D03*
Y-196519D02*
D03*
Y-193960D02*
D03*
Y-191401D02*
D03*
Y-188842D02*
D03*
Y-186283D02*
D03*
Y-183724D02*
D03*
Y-181165D02*
D03*
Y-178605D02*
D03*
Y-176046D02*
D03*
Y-173487D02*
D03*
Y-170928D02*
D03*
X312365Y-204196D02*
D03*
Y-201637D02*
D03*
Y-199078D02*
D03*
Y-196519D02*
D03*
Y-193960D02*
D03*
Y-191401D02*
D03*
Y-188842D02*
D03*
Y-186283D02*
D03*
Y-183724D02*
D03*
Y-181165D02*
D03*
Y-178605D02*
D03*
Y-176046D02*
D03*
Y-173487D02*
D03*
Y-170928D02*
D03*
D111*
X262250Y-170222D02*
D03*
Y-173962D02*
D03*
Y-177702D02*
D03*
X270321D02*
D03*
Y-173962D02*
D03*
Y-170222D02*
D03*
X262215Y-130187D02*
D03*
Y-133927D02*
D03*
Y-137667D02*
D03*
X270286D02*
D03*
Y-133927D02*
D03*
Y-130187D02*
D03*
X155950Y-267662D02*
D03*
Y-271402D02*
D03*
Y-275143D02*
D03*
X164021D02*
D03*
Y-271402D02*
D03*
Y-267662D02*
D03*
X314386Y-70502D02*
D03*
Y-66762D02*
D03*
Y-63022D02*
D03*
X306315D02*
D03*
Y-66762D02*
D03*
Y-70502D02*
D03*
X299786Y-44102D02*
D03*
Y-40362D02*
D03*
Y-36622D02*
D03*
X291715D02*
D03*
Y-40362D02*
D03*
Y-44102D02*
D03*
X262250Y-240122D02*
D03*
Y-243862D02*
D03*
Y-247602D02*
D03*
X270321D02*
D03*
Y-243862D02*
D03*
Y-240122D02*
D03*
X262250Y-200022D02*
D03*
Y-203762D02*
D03*
Y-207502D02*
D03*
X270321D02*
D03*
Y-203762D02*
D03*
Y-200022D02*
D03*
X133886Y-237522D02*
D03*
Y-241262D02*
D03*
Y-245002D02*
D03*
X125815D02*
D03*
Y-237522D02*
D03*
D112*
X155850Y-209522D02*
D03*
X173750D02*
D03*
X155850Y-201648D02*
D03*
X173750D02*
D03*
X155850Y-193774D02*
D03*
X173750D02*
D03*
X155850Y-185900D02*
D03*
X173750D02*
D03*
X155850Y-178026D02*
D03*
X173750D02*
D03*
X155850Y-170152D02*
D03*
X173750D02*
D03*
X155850Y-162278D02*
D03*
X173750D02*
D03*
X155850Y-154404D02*
D03*
X173750D02*
D03*
X155850Y-146530D02*
D03*
X173750D02*
D03*
X155850Y-138656D02*
D03*
X173750D02*
D03*
Y-217396D02*
D03*
X155850D02*
D03*
X173750Y-225270D02*
D03*
X155850D02*
D03*
X173750Y-233144D02*
D03*
X155850D02*
D03*
X199750Y-205622D02*
D03*
X217650D02*
D03*
X199750Y-197748D02*
D03*
X217650D02*
D03*
X199750Y-189874D02*
D03*
X217650D02*
D03*
X199750Y-182000D02*
D03*
X217650D02*
D03*
X199750Y-174126D02*
D03*
X217650D02*
D03*
X199750Y-166252D02*
D03*
X217650D02*
D03*
X199750Y-158378D02*
D03*
X217650D02*
D03*
X199750Y-150504D02*
D03*
X217650D02*
D03*
X199750Y-142630D02*
D03*
X217650D02*
D03*
X199750Y-134756D02*
D03*
X217650D02*
D03*
Y-213496D02*
D03*
X199750D02*
D03*
X217650Y-221370D02*
D03*
X199750D02*
D03*
X217650Y-229244D02*
D03*
X199750D02*
D03*
D115*
X212250Y-271305D02*
D03*
Y-264219D02*
D03*
Y-267762D02*
D03*
D139*
X150127Y-117457D02*
D03*
X143041D02*
D03*
X146584Y-117457D02*
D03*
M02*
