G04 Layer_Color=16711935*
%FSLAX25Y25*%
%MOIN*%
G70*
G01*
G75*
%ADD135C,0.00394*%
%ADD140R,0.13386X0.03139*%
%ADD141R,0.03139X0.13386*%
D135*
X169469Y-283966D02*
G03*
X169469Y-283966I-1969J0D01*
G01*
X238857Y-188300D02*
G03*
X238857Y-188300I-1969J0D01*
G01*
X297404Y-143710D02*
G03*
X297404Y-143710I-1969J0D01*
G01*
X175724Y-181961D02*
G03*
X175724Y-181961I-1969J0D01*
G01*
X297404Y-203310D02*
G03*
X297404Y-203310I-1969J0D01*
G01*
X285750Y-172161D02*
G03*
X285750Y-172161I-1969J0D01*
G01*
X190561Y-49820D02*
G03*
X190561Y-49820I-1969J0D01*
G01*
X143060Y-18203D02*
G03*
X143060Y-18203I-1969J0D01*
G01*
X154557Y-123362D02*
Y-111551D01*
X138612Y-123362D02*
Y-111551D01*
Y-123362D02*
X154557D01*
X138612Y-111551D02*
X154557D01*
X293345Y-197390D02*
X305156D01*
X293345Y-213335D02*
X305156D01*
X293345D02*
Y-197390D01*
X305156Y-213335D02*
Y-197390D01*
X39020Y-320218D02*
Y-314706D01*
X47681Y-320218D02*
Y-314706D01*
X39020Y-320218D02*
X47681D01*
X39020Y-314706D02*
X47681D01*
X42994Y-114393D02*
X48506D01*
X42994Y-105731D02*
X48506D01*
X42994Y-114393D02*
Y-105731D01*
X48506Y-114393D02*
Y-105731D01*
X46194Y-165931D02*
X51706D01*
X46194Y-174593D02*
X51706D01*
X46194D02*
Y-165931D01*
X51706Y-174593D02*
Y-165931D01*
X188961Y-168907D02*
Y-162017D01*
X192740Y-168907D02*
Y-162017D01*
X188961Y-168907D02*
X192740D01*
X188961Y-162017D02*
X192740D01*
X45013Y-126523D02*
Y-121601D01*
X52887Y-126523D02*
Y-121601D01*
X45013Y-126523D02*
X52887D01*
X45013Y-121601D02*
X52887D01*
X45013Y-135423D02*
Y-130501D01*
X52887Y-135423D02*
Y-130501D01*
X45013Y-135423D02*
X52887D01*
X45013Y-130501D02*
X52887D01*
X45013Y-146623D02*
Y-141701D01*
X52887Y-146623D02*
Y-141701D01*
X45013Y-146623D02*
X52887D01*
X45013Y-141701D02*
X52887D01*
X45013Y-154123D02*
Y-149202D01*
X52887Y-154123D02*
Y-149202D01*
X45013Y-154123D02*
X52887D01*
X45013Y-149202D02*
X52887D01*
X171044Y-300501D02*
Y-280423D01*
X153328Y-300501D02*
Y-280423D01*
X171044D01*
X153328Y-300501D02*
X171044D01*
X76294Y-136031D02*
X81806D01*
X76294Y-144693D02*
X81806D01*
X76294D02*
Y-136031D01*
X81806Y-144693D02*
Y-136031D01*
X121006Y-10093D02*
Y-1431D01*
X115495Y-10093D02*
Y-1431D01*
X121006D01*
X115495Y-10093D02*
X121006D01*
X131820Y-187118D02*
X140481D01*
X131820Y-181606D02*
X140481D01*
X131820Y-187118D02*
Y-181606D01*
X140481Y-187118D02*
Y-181606D01*
X89395Y-35352D02*
Y-31572D01*
X82506Y-35352D02*
Y-31572D01*
X89395D01*
X82506Y-35352D02*
X89395D01*
X202655Y-333490D02*
Y-329710D01*
X209545Y-333490D02*
Y-329710D01*
X202655Y-333490D02*
X209545D01*
X202655Y-329710D02*
X209545D01*
X139198Y-332890D02*
Y-329110D01*
X146087Y-332890D02*
Y-329110D01*
X139198Y-332890D02*
X146087D01*
X139198Y-329110D02*
X146087D01*
X54661Y-47417D02*
X58440D01*
X54661Y-54307D02*
X58440D01*
X54661D02*
Y-47417D01*
X58440Y-54307D02*
Y-47417D01*
X294920Y-195456D02*
Y-189944D01*
X303581Y-195456D02*
Y-189944D01*
X294920D02*
X303581D01*
X294920Y-195456D02*
X303581D01*
X43861Y-74207D02*
Y-67317D01*
X47640Y-74207D02*
Y-67317D01*
X43861Y-74207D02*
X47640D01*
X43861Y-67317D02*
X47640D01*
X280594Y-202593D02*
X286106D01*
X280594Y-193931D02*
X286106D01*
X280594Y-202593D02*
Y-193931D01*
X286106Y-202593D02*
Y-193931D01*
X150831Y-104056D02*
Y-98544D01*
X142169Y-104056D02*
Y-98544D01*
X150831D01*
X142169Y-104056D02*
X150831D01*
X133420Y-139718D02*
Y-134206D01*
X142081Y-139718D02*
Y-134206D01*
X133420Y-139718D02*
X142081D01*
X133420Y-134206D02*
X142081D01*
X123640Y-162007D02*
Y-155117D01*
X119861Y-162007D02*
Y-155117D01*
Y-162007D02*
X123640D01*
X119861Y-155117D02*
X123640D01*
X229740Y-199207D02*
Y-192317D01*
X225961Y-199207D02*
Y-192317D01*
Y-199207D02*
X229740D01*
X225961Y-192317D02*
X229740D01*
X263840Y-163607D02*
Y-156717D01*
X260061Y-163607D02*
Y-156717D01*
Y-163607D02*
X263840D01*
X260061Y-156717D02*
X263840D01*
X272440Y-163607D02*
Y-156717D01*
X268661Y-163607D02*
Y-156717D01*
Y-163607D02*
X272440D01*
X268661Y-156717D02*
X272440D01*
X263840Y-122472D02*
Y-115582D01*
X260061Y-122472D02*
Y-115582D01*
Y-122472D02*
X263840D01*
X260061Y-115582D02*
X263840D01*
X272440Y-122472D02*
Y-115582D01*
X268661Y-122472D02*
Y-115582D01*
Y-122472D02*
X272440D01*
X268661Y-115582D02*
X272440D01*
X288406Y-154552D02*
X295295D01*
X288406Y-150772D02*
X295295D01*
X288406Y-154552D02*
Y-150772D01*
X295295Y-154552D02*
Y-150772D01*
X33631Y-170456D02*
Y-164944D01*
X24969Y-170456D02*
Y-164944D01*
Y-170456D02*
X33631D01*
X24969Y-164944D02*
X33631D01*
X39569Y-170456D02*
Y-164944D01*
X48231Y-170456D02*
Y-164944D01*
X39569D02*
X48231D01*
X39569Y-170456D02*
X48231D01*
X153806Y-200352D02*
X160695D01*
X153806Y-196572D02*
X160695D01*
Y-200352D02*
Y-196572D01*
X153806Y-200352D02*
Y-196572D01*
Y-207952D02*
X160695D01*
X153806Y-204172D02*
X160695D01*
Y-207952D02*
Y-204172D01*
X153806Y-207952D02*
Y-204172D01*
X219106Y-203072D02*
X225995D01*
X219106Y-206852D02*
X225995D01*
X219106D02*
Y-203072D01*
X225995Y-206852D02*
Y-203072D01*
X176555Y-166310D02*
X183445D01*
X176555Y-170090D02*
X183445D01*
X176555D02*
Y-166310D01*
X183445Y-170090D02*
Y-166310D01*
X157361Y-189207D02*
Y-182317D01*
X161140Y-189207D02*
Y-182317D01*
X157361Y-189207D02*
X161140D01*
X157361Y-182317D02*
X161140D01*
X204740Y-234207D02*
Y-227317D01*
X200961Y-234207D02*
Y-227317D01*
X204740D01*
X200961Y-234207D02*
X204740D01*
X219106Y-193772D02*
X225995D01*
X219106Y-197552D02*
X225995D01*
X219106D02*
Y-193772D01*
X225995Y-197552D02*
Y-193772D01*
X195961Y-168907D02*
Y-162017D01*
X199740Y-168907D02*
Y-162017D01*
X195961Y-168907D02*
X199740D01*
X195961Y-162017D02*
X199740D01*
X210595Y-161131D02*
X216106D01*
X210595Y-169793D02*
X216106D01*
Y-161131D01*
X210595Y-169793D02*
Y-161131D01*
X202961Y-168907D02*
Y-162017D01*
X206740Y-168907D02*
Y-162017D01*
X202961Y-168907D02*
X206740D01*
X202961Y-162017D02*
X206740D01*
X182940Y-234207D02*
Y-227317D01*
X179161Y-234207D02*
Y-227317D01*
X182940D01*
X179161Y-234207D02*
X182940D01*
X264757Y-193600D02*
X278143D01*
X264757Y-217616D02*
X278143D01*
Y-193600D01*
X264757Y-217616D02*
Y-193600D01*
X149563Y-258772D02*
X156453D01*
X149563Y-262552D02*
X156453D01*
Y-258772D01*
X149563Y-262552D02*
Y-258772D01*
X169617Y-167556D02*
X171783D01*
X169617Y-163422D02*
X171783D01*
X169617Y-167556D02*
Y-163422D01*
X171783Y-167556D02*
Y-163422D01*
X149168Y-163484D02*
X151333D01*
X149168Y-167618D02*
X151333D01*
Y-163484D01*
X149168Y-167618D02*
Y-163484D01*
X174458Y-267055D02*
Y-253669D01*
X150443Y-267055D02*
Y-253669D01*
Y-267055D02*
X174458D01*
X150443Y-253669D02*
X174458D01*
X185506Y-285952D02*
X192395D01*
X185506Y-282172D02*
X192395D01*
Y-285952D02*
Y-282172D01*
X185506Y-285952D02*
Y-282172D01*
Y-295152D02*
X192395D01*
X185506Y-291372D02*
X192395D01*
Y-295152D02*
Y-291372D01*
X185506Y-295152D02*
Y-291372D01*
X201761Y-296507D02*
Y-289617D01*
X205540Y-296507D02*
Y-289617D01*
X201761Y-296507D02*
X205540D01*
X201761Y-289617D02*
X205540D01*
X263995Y-247631D02*
X269506D01*
X263995Y-256293D02*
X269506D01*
Y-247631D01*
X263995Y-256293D02*
Y-247631D01*
X263995Y-241793D02*
X269506D01*
X263995Y-233131D02*
X269506D01*
X263995Y-241793D02*
Y-233131D01*
X269506Y-241793D02*
Y-233131D01*
X212620Y-284668D02*
Y-279156D01*
X221281Y-284668D02*
Y-279156D01*
X212620Y-284668D02*
X221281D01*
X212620Y-279156D02*
X221281D01*
X212620Y-256408D02*
Y-250896D01*
X221281Y-256408D02*
Y-250896D01*
X212620Y-256408D02*
X221281D01*
X212620Y-250896D02*
X221281D01*
X182294Y-275593D02*
X187806D01*
X182294Y-266931D02*
X187806D01*
Y-275593D02*
Y-266931D01*
X182294Y-275593D02*
Y-266931D01*
X263840Y-232407D02*
Y-225517D01*
X260061Y-232407D02*
Y-225517D01*
Y-232407D02*
X263840D01*
X260061Y-225517D02*
X263840D01*
X272440Y-232407D02*
Y-225517D01*
X268661Y-232407D02*
Y-225517D01*
Y-232407D02*
X272440D01*
X268661Y-225517D02*
X272440D01*
X263840Y-192307D02*
Y-185417D01*
X260061Y-192307D02*
Y-185417D01*
Y-192307D02*
X263840D01*
X260061Y-185417D02*
X263840D01*
X272440Y-192307D02*
Y-185417D01*
X268661Y-192307D02*
Y-185417D01*
Y-192307D02*
X272440D01*
X268661Y-185417D02*
X272440D01*
X288506Y-214152D02*
X295395D01*
X288506Y-210372D02*
X295395D01*
X288506Y-214152D02*
Y-210372D01*
X295395Y-214152D02*
Y-210372D01*
X307881Y-172518D02*
Y-167006D01*
X299220Y-172518D02*
Y-167006D01*
Y-172518D02*
X307881D01*
X299220Y-167006D02*
X307881D01*
X273394Y-137731D02*
X278906D01*
X273394Y-146393D02*
X278906D01*
Y-137731D01*
X273394Y-146393D02*
Y-137731D01*
X296858Y-137654D02*
X310243D01*
X296858Y-161670D02*
X310243D01*
Y-137654D01*
X296858Y-161670D02*
Y-137654D01*
X264757Y-105454D02*
X278143D01*
X264757Y-129470D02*
X278143D01*
Y-105454D01*
X264757Y-129470D02*
Y-105454D01*
X280757D02*
X294143D01*
X280757Y-129470D02*
X294143D01*
Y-105454D01*
X280757Y-129470D02*
Y-105454D01*
X298620Y-132478D02*
Y-126966D01*
X307281Y-132478D02*
Y-126966D01*
X298620D02*
X307281D01*
X298620Y-132478D02*
X307281D01*
Y-103978D02*
Y-98466D01*
X298620Y-103978D02*
Y-98466D01*
Y-103978D02*
X307281D01*
X298620Y-98466D02*
X307281D01*
X194706Y-66452D02*
X201595D01*
X194706Y-62672D02*
X201595D01*
Y-66452D02*
Y-62672D01*
X194706Y-66452D02*
Y-62672D01*
X181661Y-103307D02*
Y-96417D01*
X185440Y-103307D02*
Y-96417D01*
X181661D02*
X185440D01*
X181661Y-103307D02*
X185440D01*
X167361D02*
Y-96417D01*
X171140Y-103307D02*
Y-96417D01*
X167361D02*
X171140D01*
X167361Y-103307D02*
X171140D01*
X172906Y-49672D02*
X179795D01*
X172906Y-53452D02*
X179795D01*
X172906D02*
Y-49672D01*
X179795Y-53452D02*
Y-49672D01*
X147906Y-67772D02*
X154795D01*
X147906Y-71552D02*
X154795D01*
X147906D02*
Y-67772D01*
X154795Y-71552D02*
Y-67772D01*
X126406Y-231652D02*
X133295D01*
X126406Y-227872D02*
X133295D01*
X126406Y-231652D02*
Y-227872D01*
X133295Y-231652D02*
Y-227872D01*
X162540Y-24207D02*
Y-17317D01*
X158761Y-24207D02*
Y-17317D01*
X162540D01*
X158761Y-24207D02*
X162540D01*
X179243Y-27255D02*
Y-13869D01*
X203258Y-27255D02*
Y-13869D01*
X179243D02*
X203258D01*
X179243Y-27255D02*
X203258D01*
X169461Y-24107D02*
Y-17217D01*
X173240Y-24107D02*
Y-17217D01*
X169461Y-24107D02*
X173240D01*
X169461Y-17217D02*
X173240D01*
X91861Y-237207D02*
Y-230317D01*
X95640Y-237207D02*
Y-230317D01*
X91861D02*
X95640D01*
X91861Y-237207D02*
X95640D01*
X68361Y-217607D02*
Y-210717D01*
X72140Y-217607D02*
Y-210717D01*
X68361D02*
X72140D01*
X68361Y-217607D02*
X72140D01*
X32181Y-226318D02*
Y-220806D01*
X23520Y-226318D02*
Y-220806D01*
X32181D01*
X23520Y-226318D02*
X32181D01*
X69106Y-177972D02*
X75995D01*
X69106Y-181752D02*
X75995D01*
Y-177972D01*
X69106Y-181752D02*
Y-177972D01*
X69006Y-186472D02*
X75895D01*
X69006Y-190252D02*
X75895D01*
Y-186472D01*
X69006Y-190252D02*
Y-186472D01*
X46194Y-198031D02*
X51706D01*
X46194Y-206693D02*
X51706D01*
X46194D02*
Y-198031D01*
X51706Y-206693D02*
Y-198031D01*
X294054Y-144758D02*
Y-139246D01*
X282047Y-144758D02*
Y-139246D01*
X294054D01*
X282047Y-144758D02*
X294054D01*
X96895Y-93819D02*
X102406D01*
X96895Y-100906D02*
X102406D01*
X96895D02*
Y-93819D01*
X102406Y-100906D02*
Y-93819D01*
X342342Y-311496D02*
Y-48504D01*
X322657D02*
X342342D01*
X322657Y-311496D02*
X342342D01*
X322657D02*
Y-48504D01*
X362343Y-311496D02*
Y-48504D01*
X342657D02*
X362343D01*
X342657Y-311496D02*
X362343D01*
X342657D02*
Y-48504D01*
X312144Y-202631D02*
Y-193969D01*
X317656Y-202631D02*
Y-193969D01*
X312144Y-202631D02*
X317656D01*
X312144Y-193969D02*
X317656D01*
X47180Y-70007D02*
X50920D01*
X47180Y-63117D02*
X50920D01*
Y-70007D02*
Y-63117D01*
X47180Y-70007D02*
Y-63117D01*
X74794Y-66655D02*
Y-53269D01*
X67707Y-66655D02*
Y-53269D01*
Y-66655D02*
X74794D01*
X67707Y-53269D02*
X74794D01*
X201780Y-308675D02*
X205521D01*
X201780Y-315564D02*
X205521D01*
Y-308675D01*
X201780Y-315564D02*
Y-308675D01*
X200007Y-296655D02*
Y-283269D01*
X207094Y-296655D02*
Y-283269D01*
X200007D02*
X207094D01*
X200007Y-296655D02*
X207094D01*
X365794Y-279606D02*
X371306D01*
X365794Y-270944D02*
X371306D01*
X365794Y-279606D02*
Y-270944D01*
X371306Y-279606D02*
Y-270944D01*
X38969Y-321256D02*
Y-315744D01*
X47631Y-321256D02*
Y-315744D01*
X38969D02*
X47631D01*
X38969Y-321256D02*
X47631D01*
X319895Y-329893D02*
X325406D01*
X319895Y-321231D02*
X325406D01*
Y-329893D02*
Y-321231D01*
X319895Y-329893D02*
Y-321231D01*
X23620Y-243118D02*
X32281D01*
X23620Y-237606D02*
X32281D01*
X23620Y-243118D02*
Y-237606D01*
X32281Y-243118D02*
Y-237606D01*
X304335Y-228318D02*
X309846D01*
X304335Y-240326D02*
X309846D01*
Y-228318D01*
X304335Y-240326D02*
Y-228318D01*
X115754Y-312818D02*
Y-307306D01*
X103746Y-312818D02*
Y-307306D01*
Y-312818D02*
X115754D01*
X103746Y-307306D02*
X115754D01*
X310520Y-248618D02*
Y-243106D01*
X319181Y-248618D02*
Y-243106D01*
X310520Y-248618D02*
X319181D01*
X310520Y-243106D02*
X319181D01*
X133420Y-148018D02*
Y-142506D01*
X142081Y-148018D02*
Y-142506D01*
X133420Y-148018D02*
X142081D01*
X133420Y-142506D02*
X142081D01*
X319081Y-225518D02*
Y-220006D01*
X310420Y-225518D02*
Y-220006D01*
X319081D01*
X310420Y-225518D02*
X319081D01*
X287320Y-241118D02*
Y-235606D01*
X295981Y-241118D02*
Y-235606D01*
X287320Y-241118D02*
X295981D01*
X287320Y-235606D02*
X295981D01*
X312144Y-216931D02*
X317656D01*
X312144Y-208269D02*
X317656D01*
X312144Y-216931D02*
Y-208269D01*
X317656Y-216931D02*
Y-208269D01*
X365794Y-294293D02*
X371306D01*
X365794Y-285631D02*
X371306D01*
X365794Y-294293D02*
Y-285631D01*
X371306Y-294293D02*
Y-285631D01*
X150831Y-96056D02*
Y-90544D01*
X142169Y-96056D02*
Y-90544D01*
X150831D01*
X142169Y-96056D02*
X150831D01*
X129144Y-121787D02*
X134656D01*
X129144Y-113126D02*
X134656D01*
Y-121787D02*
Y-113126D01*
X129144Y-121787D02*
Y-113126D01*
X295981Y-233018D02*
Y-227506D01*
X287320Y-233018D02*
Y-227506D01*
X295981D01*
X287320Y-233018D02*
X295981D01*
X130381Y-172818D02*
Y-167306D01*
X121720Y-172818D02*
Y-167306D01*
X130381D01*
X121720Y-172818D02*
X130381D01*
X136520D02*
Y-167306D01*
X145181Y-172818D02*
Y-167306D01*
X136520Y-172818D02*
X145181D01*
X136520Y-167306D02*
X145181D01*
X240394Y-214993D02*
X245906D01*
X240394Y-206331D02*
X245906D01*
Y-214993D02*
Y-206331D01*
X240394Y-214993D02*
Y-206331D01*
X237595Y-285193D02*
X243106D01*
X237595Y-276531D02*
X243106D01*
Y-285193D02*
Y-276531D01*
X237595Y-285193D02*
Y-276531D01*
X295895Y-329893D02*
X301406D01*
X295895Y-321231D02*
X301406D01*
Y-329893D02*
Y-321231D01*
X295895Y-329893D02*
Y-321231D01*
X272694Y-321231D02*
X278206D01*
X272694Y-329893D02*
X278206D01*
X272694D02*
Y-321231D01*
X278206Y-329893D02*
Y-321231D01*
X37295Y-268831D02*
X42806D01*
X37295Y-277493D02*
X42806D01*
Y-268831D01*
X37295Y-277493D02*
Y-268831D01*
X45594Y-277493D02*
X51106D01*
X45594Y-268831D02*
X51106D01*
X45594Y-277493D02*
Y-268831D01*
X51106Y-277493D02*
Y-268831D01*
X149680Y-189207D02*
Y-182317D01*
X153420Y-189207D02*
Y-182317D01*
X149680Y-189207D02*
X153420D01*
X149680Y-182317D02*
X153420D01*
X140884Y-256018D02*
Y-250506D01*
X149546Y-256018D02*
Y-250506D01*
X140884Y-256018D02*
X149546D01*
X140884Y-250506D02*
X149546D01*
X164281Y-247818D02*
Y-242306D01*
X155620Y-247818D02*
Y-242306D01*
X164281D01*
X155620Y-247818D02*
X164281D01*
X155620Y-256018D02*
Y-250506D01*
X164281Y-256018D02*
Y-250506D01*
X155620Y-256018D02*
X164281D01*
X155620Y-250506D02*
X164281D01*
X170420Y-256018D02*
Y-250506D01*
X179081Y-256018D02*
Y-250506D01*
X170420Y-256018D02*
X179081D01*
X170420Y-250506D02*
X179081D01*
X183420Y-277018D02*
Y-271506D01*
X192081Y-277018D02*
Y-271506D01*
X183420D02*
X192081D01*
X183420Y-277018D02*
X192081D01*
X106895Y-316450D02*
X112406D01*
X106895Y-307789D02*
X112406D01*
X106895Y-316450D02*
Y-307789D01*
X112406Y-316450D02*
Y-307789D01*
X114281Y-296118D02*
Y-290606D01*
X105620Y-296118D02*
Y-290606D01*
X114281D01*
X105620Y-296118D02*
X114281D01*
X309720Y-42118D02*
Y-36606D01*
X318381Y-42118D02*
Y-36606D01*
X309720Y-42118D02*
X318381D01*
X309720Y-36606D02*
X318381D01*
X292595Y-72931D02*
X298106D01*
X292595Y-81593D02*
X298106D01*
Y-72931D01*
X292595Y-81593D02*
Y-72931D01*
X120320Y-281818D02*
Y-276306D01*
X128981Y-281818D02*
Y-276306D01*
X120320D02*
X128981D01*
X120320Y-281818D02*
X128981D01*
X114081Y-293918D02*
Y-288406D01*
X105420Y-293918D02*
Y-288406D01*
Y-293918D02*
X114081D01*
X105420Y-288406D02*
X114081D01*
X128981Y-293918D02*
Y-288406D01*
X120320Y-293918D02*
Y-288406D01*
Y-293918D02*
X128981D01*
X120320Y-288406D02*
X128981D01*
X169581Y-132518D02*
Y-127006D01*
X160920Y-132518D02*
Y-127006D01*
X169581D01*
X160920Y-132518D02*
X169581D01*
Y-124318D02*
Y-118806D01*
X160920Y-124318D02*
Y-118806D01*
X169581D01*
X160920Y-124318D02*
X169581D01*
X158095Y-95531D02*
X163606D01*
X158095Y-104193D02*
X163606D01*
X158095D02*
Y-95531D01*
X163606Y-104193D02*
Y-95531D01*
X169581Y-116218D02*
Y-110706D01*
X160920Y-116218D02*
Y-110706D01*
X169581D01*
X160920Y-116218D02*
X169581D01*
X226395Y-262093D02*
X231906D01*
X226395Y-253431D02*
X231906D01*
Y-262093D02*
Y-253431D01*
X226395Y-262093D02*
Y-253431D01*
X229395Y-285293D02*
X234906D01*
X229395Y-276631D02*
X234906D01*
Y-285293D02*
Y-276631D01*
X229395Y-285293D02*
Y-276631D01*
X195626Y-116178D02*
Y-110666D01*
X186965Y-116178D02*
Y-110666D01*
X195626D01*
X186965Y-116178D02*
X195626D01*
X195681Y-124318D02*
Y-118806D01*
X187020Y-124318D02*
Y-118806D01*
X195681D01*
X187020Y-124318D02*
X195681D01*
X314094Y-163693D02*
X319606D01*
X314094Y-155031D02*
X319606D01*
X314094Y-163693D02*
Y-155031D01*
X319606Y-163693D02*
Y-155031D01*
X314094Y-127931D02*
X319606D01*
X314094Y-136593D02*
X319606D01*
Y-127931D01*
X314094Y-136593D02*
Y-127931D01*
X264794Y-137731D02*
X270306D01*
X264794Y-146393D02*
X270306D01*
Y-137731D01*
X264794Y-146393D02*
Y-137731D01*
X290481Y-184218D02*
Y-178706D01*
X281820Y-184218D02*
Y-178706D01*
Y-184218D02*
X290481D01*
X281820Y-178706D02*
X290481D01*
X244781Y-295818D02*
Y-290306D01*
X236120Y-295818D02*
Y-290306D01*
X244781D01*
X236120Y-295818D02*
X244781D01*
X104795Y-76131D02*
X110306D01*
X104795Y-84793D02*
X110306D01*
X104795D02*
Y-76131D01*
X110306Y-84793D02*
Y-76131D01*
X116381Y-27818D02*
Y-22306D01*
X107720Y-27818D02*
Y-22306D01*
Y-27818D02*
X116381D01*
X107720Y-22306D02*
X116381D01*
Y-19718D02*
Y-14206D01*
X107720Y-19718D02*
Y-14206D01*
Y-19718D02*
X116381D01*
X107720Y-14206D02*
X116381D01*
X365694Y-301531D02*
X371206D01*
X365694Y-310193D02*
X371206D01*
X365694D02*
Y-301531D01*
X371206Y-310193D02*
Y-301531D01*
X39020Y-289218D02*
Y-283706D01*
X47681Y-289218D02*
Y-283706D01*
X39020Y-289218D02*
X47681D01*
X39020Y-283706D02*
X47681D01*
X207494Y-93893D02*
X213006D01*
X207494Y-85231D02*
X213006D01*
Y-93893D02*
Y-85231D01*
X207494Y-93893D02*
Y-85231D01*
X209981Y-48118D02*
Y-42606D01*
X201320Y-48118D02*
Y-42606D01*
X209981D01*
X201320Y-48118D02*
X209981D01*
X115594Y-245593D02*
X121106D01*
X115594Y-236931D02*
X121106D01*
Y-245593D02*
Y-236931D01*
X115594Y-245593D02*
Y-236931D01*
X125281Y-261618D02*
Y-256106D01*
X116620Y-261618D02*
Y-256106D01*
X125281D01*
X116620Y-261618D02*
X125281D01*
X100094Y-117684D02*
X105606D01*
X100094Y-126346D02*
X105606D01*
X100094D02*
Y-117684D01*
X105606Y-126346D02*
Y-117684D01*
X32181Y-234718D02*
Y-229206D01*
X23520Y-234718D02*
Y-229206D01*
X32181D01*
X23520Y-234718D02*
X32181D01*
X23620Y-251518D02*
Y-246006D01*
X32281Y-251518D02*
Y-246006D01*
X23620Y-251518D02*
X32281D01*
X23620Y-246006D02*
X32281D01*
X23620Y-259718D02*
Y-254206D01*
X32281Y-259718D02*
Y-254206D01*
X23620Y-259718D02*
X32281D01*
X23620Y-254206D02*
X32281D01*
X77720Y-248018D02*
Y-242506D01*
X86381Y-248018D02*
Y-242506D01*
X77720Y-248018D02*
X86381D01*
X77720Y-242506D02*
X86381D01*
X109320Y-208718D02*
Y-203206D01*
X117981Y-208718D02*
Y-203206D01*
X109320Y-208718D02*
X117981D01*
X109320Y-203206D02*
X117981D01*
X67694Y-238193D02*
X73206D01*
X67694Y-229531D02*
X73206D01*
Y-238193D02*
Y-229531D01*
X67694Y-238193D02*
Y-229531D01*
X90181Y-198618D02*
Y-193106D01*
X81520Y-198618D02*
Y-193106D01*
X90181D01*
X81520Y-198618D02*
X90181D01*
X104920Y-200518D02*
Y-195006D01*
X113581Y-200518D02*
Y-195006D01*
X104920Y-200518D02*
X113581D01*
X104920Y-195006D02*
X113581D01*
X105581Y-192418D02*
Y-186906D01*
X96920Y-192418D02*
Y-186906D01*
X105581D01*
X96920Y-192418D02*
X105581D01*
X39020Y-303218D02*
Y-297706D01*
X47681Y-303218D02*
Y-297706D01*
X39020Y-303218D02*
X47681D01*
X39020Y-297706D02*
X47681D01*
Y-312118D02*
Y-306606D01*
X39020Y-312118D02*
Y-306606D01*
X47681D01*
X39020Y-312118D02*
X47681D01*
X245156Y-196568D02*
Y-184757D01*
X233345Y-196568D02*
Y-184757D01*
Y-196568D02*
X245156D01*
X233345Y-184757D02*
X245156D01*
X127446Y-155117D02*
X139454D01*
X127446Y-162007D02*
X139454D01*
X127446D02*
Y-155117D01*
X139454Y-162007D02*
Y-155117D01*
X291892Y-147254D02*
Y-108671D01*
X309609Y-147254D02*
Y-108671D01*
X291892Y-147254D02*
X309609D01*
X291892Y-108671D02*
X309609D01*
X262841Y-179966D02*
X269731D01*
X262841Y-167958D02*
X269731D01*
X262841Y-179966D02*
Y-167958D01*
X269731Y-179966D02*
Y-167958D01*
X262806Y-139931D02*
X269695D01*
X262806Y-127923D02*
X269695D01*
X262806Y-139931D02*
Y-127923D01*
X269695Y-139931D02*
Y-127923D01*
X77154Y-44707D02*
Y-37817D01*
X65146Y-44707D02*
Y-37817D01*
Y-44707D02*
X77154D01*
X65146Y-37817D02*
X77154D01*
X170213Y-217788D02*
X209583D01*
X170213Y-178418D02*
X209583D01*
Y-217788D02*
Y-178418D01*
X170213Y-217788D02*
Y-178418D01*
X156541Y-277406D02*
X163431D01*
X156541Y-265398D02*
X163431D01*
X156541Y-277406D02*
Y-265398D01*
X163431Y-277406D02*
Y-265398D01*
X209654Y-313407D02*
Y-306517D01*
X197646Y-313407D02*
Y-306517D01*
Y-313407D02*
X209654D01*
X197646Y-306517D02*
X209654D01*
X306906Y-60758D02*
X313795D01*
X306906Y-72766D02*
X313795D01*
Y-60758D01*
X306906Y-72766D02*
Y-60758D01*
X292306Y-34358D02*
X299195D01*
X292306Y-46366D02*
X299195D01*
Y-34358D01*
X292306Y-46366D02*
Y-34358D01*
X206345Y-275735D02*
X218156D01*
X206345Y-259790D02*
X218156D01*
X206345Y-275735D02*
Y-259790D01*
X218156Y-275735D02*
Y-259790D01*
X281047Y-329007D02*
Y-322117D01*
X293054Y-329007D02*
Y-322117D01*
X281047D02*
X293054D01*
X281047Y-329007D02*
X293054D01*
X291892Y-206854D02*
Y-168271D01*
X309609Y-206854D02*
Y-168271D01*
X291892Y-206854D02*
X309609D01*
X291892Y-168271D02*
X309609D01*
X262841Y-249866D02*
X269731D01*
X262841Y-237858D02*
X269731D01*
X262841Y-249866D02*
Y-237858D01*
X269731Y-249866D02*
Y-237858D01*
X262841Y-209766D02*
X269731D01*
X262841Y-197758D02*
X269731D01*
X262841Y-209766D02*
Y-197758D01*
X269731Y-209766D02*
Y-197758D01*
X271576Y-156020D02*
X287325D01*
X271576Y-175705D02*
X287325D01*
X271576D02*
Y-156020D01*
X287325Y-175705D02*
Y-156020D01*
X296947Y-116278D02*
Y-110766D01*
X308954Y-116278D02*
Y-110766D01*
X296947Y-116278D02*
X308954D01*
X296947Y-110766D02*
X308954D01*
X152765Y-85647D02*
X192136D01*
X152765Y-46277D02*
X192136D01*
X152765Y-85647D02*
Y-46277D01*
X192136Y-85647D02*
Y-46277D01*
X137548Y-26864D02*
X149753D01*
X137548Y-14660D02*
X149753D01*
Y-26864D02*
Y-14660D01*
X137548Y-26864D02*
Y-14660D01*
X133295Y-247266D02*
Y-235258D01*
X126406Y-247266D02*
Y-235258D01*
X133295D01*
X126406Y-247266D02*
X133295D01*
X76047Y-237207D02*
X88054D01*
X76047Y-230317D02*
X88054D01*
Y-237207D02*
Y-230317D01*
X76047Y-237207D02*
Y-230317D01*
X42946Y-188607D02*
X54954D01*
X42946Y-181717D02*
X54954D01*
Y-188607D02*
Y-181717D01*
X42946Y-188607D02*
Y-181717D01*
X92554Y-187907D02*
Y-181017D01*
X80546Y-187907D02*
Y-181017D01*
Y-187907D02*
X92554D01*
X80546Y-181017D02*
X92554D01*
X147581Y-16218D02*
Y-10706D01*
X138920Y-16218D02*
Y-10706D01*
X147581D01*
X138920Y-16218D02*
X147581D01*
X105581Y-183418D02*
Y-177906D01*
X96920Y-183418D02*
Y-177906D01*
X105581D01*
X96920Y-183418D02*
X105581D01*
X69106Y-166872D02*
X75995D01*
X69106Y-170652D02*
X75995D01*
Y-166872D01*
X69106Y-170652D02*
Y-166872D01*
X81554Y-160607D02*
Y-153717D01*
X69547Y-160607D02*
Y-153717D01*
Y-160607D02*
X81554D01*
X69547Y-153717D02*
X81554D01*
X91746Y-210617D02*
X103754D01*
X91746Y-217507D02*
X103754D01*
X91746D02*
Y-210617D01*
X103754Y-217507D02*
Y-210617D01*
X76047Y-217507D02*
Y-210617D01*
X88054Y-217507D02*
Y-210617D01*
X76047D02*
X88054D01*
X76047Y-217507D02*
X88054D01*
X208295Y-24893D02*
X213806D01*
X208295Y-16231D02*
X213806D01*
X208295Y-24893D02*
Y-16231D01*
X213806Y-24893D02*
Y-16231D01*
X42994Y-91793D02*
X48506D01*
X42994Y-83131D02*
X48506D01*
X42994Y-91793D02*
Y-83131D01*
X48506Y-91793D02*
Y-83131D01*
X76294Y-129728D02*
X81806D01*
X76294Y-121067D02*
X81806D01*
Y-129728D02*
Y-121067D01*
X76294Y-129728D02*
Y-121067D01*
X159320Y-66118D02*
Y-60606D01*
X167981Y-66118D02*
Y-60606D01*
X159320D02*
X167981D01*
X159320Y-66118D02*
X167981D01*
X139261Y-287707D02*
Y-280817D01*
X143040Y-287707D02*
Y-280817D01*
X139261D02*
X143040D01*
X139261Y-287707D02*
X143040D01*
X258119Y-149065D02*
Y-143553D01*
X266780Y-149065D02*
Y-143553D01*
X258119Y-149065D02*
X266780D01*
X258119Y-143553D02*
X266780D01*
X258118Y-143553D02*
X275047D01*
X258118Y-149065D02*
X275047D01*
Y-143553D01*
X258118Y-149065D02*
Y-143553D01*
X258119Y-218918D02*
Y-213407D01*
X266780Y-218918D02*
Y-213407D01*
X258119Y-218918D02*
X266780D01*
X258119Y-213407D02*
X266780D01*
X258118Y-213406D02*
X275047D01*
X258118Y-218918D02*
X275047D01*
Y-213406D01*
X258118Y-218918D02*
Y-213406D01*
D140*
X271450Y-195170D02*
D03*
X303550Y-139224D02*
D03*
X271450Y-107024D02*
D03*
X287450D02*
D03*
D141*
X172889Y-260362D02*
D03*
X180812Y-20562D02*
D03*
M02*
