G04 Layer_Physical_Order=4*
G04 Layer_Color=8421376*
%FSLAX25Y25*%
%MOIN*%
G70*
G01*
G75*
%ADD45C,0.01000*%
%ADD52C,0.00787*%
%ADD68C,0.04000*%
%ADD69C,0.07937*%
%ADD70C,0.16500*%
%ADD71C,0.10500*%
%ADD72C,0.08016*%
G04:AMPARAMS|DCode=73|XSize=100.157mil|YSize=100.157mil|CornerRadius=0mil|HoleSize=0mil|Usage=FLASHONLY|Rotation=0.000|XOffset=0mil|YOffset=0mil|HoleType=Round|Shape=Relief|Width=10mil|Gap=10mil|Entries=4|*
%AMTHD73*
7,0,0,0.10016,0.08016,0.01000,45*
%
%ADD73THD73*%
%ADD74C,0.08685*%
G04:AMPARAMS|DCode=76|XSize=97mil|YSize=97mil|CornerRadius=0mil|HoleSize=0mil|Usage=FLASHONLY|Rotation=0.000|XOffset=0mil|YOffset=0mil|HoleType=Round|Shape=Relief|Width=10mil|Gap=10mil|Entries=4|*
%AMTHD76*
7,0,0,0.09700,0.07700,0.01000,45*
%
%ADD76THD76*%
%ADD77C,0.07700*%
%ADD79C,0.07307*%
%ADD81C,0.08331*%
%ADD83C,0.07000*%
%ADD84C,0.07400*%
%ADD85C,0.05181*%
%ADD86C,0.05969*%
%ADD90C,0.17400*%
%ADD91C,0.24000*%
%ADD92C,0.06600*%
%ADD93C,0.11008*%
%ADD94C,0.09512*%
%ADD95C,0.20500*%
%ADD96C,0.06000*%
G36*
X137495Y59201D02*
X137695Y59183D01*
X137932Y59146D01*
X138388Y59055D01*
X138406D01*
X138497Y59019D01*
X138606Y58982D01*
X138734Y58928D01*
X138898Y58855D01*
X139062Y58763D01*
X139226Y58672D01*
X139390Y58545D01*
X139408Y58527D01*
X139462Y58490D01*
X139535Y58417D01*
X139626Y58326D01*
X139736Y58199D01*
X139845Y58053D01*
X139936Y57889D01*
X140027Y57707D01*
X140045Y57689D01*
X140064Y57616D01*
X140100Y57506D01*
X140155Y57361D01*
X140191Y57197D01*
X140228Y56978D01*
X140246Y56759D01*
X140264Y56504D01*
Y50838D01*
X138970D01*
X138934Y51931D01*
X138898Y51895D01*
X138825Y51822D01*
X138679Y51712D01*
X138515Y51567D01*
X138296Y51421D01*
X138078Y51257D01*
X137823Y51111D01*
X137568Y50984D01*
X137531Y50965D01*
X137440Y50947D01*
X137312Y50893D01*
X137130Y50838D01*
X136912Y50783D01*
X136657Y50747D01*
X136401Y50710D01*
X136110Y50692D01*
X136001D01*
X135873Y50710D01*
X135709D01*
X135509Y50728D01*
X135308Y50765D01*
X134907Y50856D01*
X134889D01*
X134835Y50893D01*
X134743Y50929D01*
X134616Y50984D01*
X134361Y51148D01*
X134088Y51348D01*
X134069Y51366D01*
X134033Y51403D01*
X133978Y51476D01*
X133905Y51567D01*
X133833Y51676D01*
X133741Y51803D01*
X133614Y52095D01*
Y52113D01*
X133596Y52168D01*
X133577Y52259D01*
X133541Y52368D01*
X133523Y52514D01*
X133486Y52678D01*
X133468Y53024D01*
Y53043D01*
Y53079D01*
Y53152D01*
X133486Y53225D01*
X133504Y53334D01*
X133523Y53461D01*
X133577Y53735D01*
X133687Y54045D01*
X133851Y54373D01*
X133960Y54536D01*
X134088Y54682D01*
X134215Y54828D01*
X134379Y54974D01*
X134397D01*
X134415Y55010D01*
X134470Y55047D01*
X134561Y55083D01*
X134652Y55138D01*
X134762Y55192D01*
X134907Y55265D01*
X135071Y55338D01*
X135254Y55393D01*
X135454Y55466D01*
X135673Y55520D01*
X135928Y55575D01*
X136183Y55611D01*
X136474Y55648D01*
X136784Y55684D01*
X138825D01*
Y56395D01*
Y56431D01*
Y56523D01*
X138806Y56650D01*
X138770Y56814D01*
X138715Y56996D01*
X138624Y57197D01*
X138515Y57379D01*
X138351Y57561D01*
X138333Y57579D01*
X138260Y57634D01*
X138151Y57707D01*
X138005Y57780D01*
X137804Y57853D01*
X137549Y57925D01*
X137258Y57980D01*
X136930Y57998D01*
X136675D01*
X136493Y57980D01*
X136274Y57962D01*
X136055Y57925D01*
X135545Y57834D01*
X135509D01*
X135436Y57798D01*
X135290Y57762D01*
X135126Y57725D01*
X134907Y57652D01*
X134671Y57579D01*
X134415Y57488D01*
X134160Y57397D01*
Y58691D01*
X134179D01*
X134215Y58709D01*
X134251Y58727D01*
X134324Y58745D01*
X134507Y58800D01*
X134743Y58873D01*
X134762D01*
X134798Y58891D01*
X134871Y58909D01*
X134962Y58928D01*
X135199Y58982D01*
X135454Y59037D01*
X135472D01*
X135527Y59055D01*
X135600Y59073D01*
X135691Y59092D01*
X135800Y59110D01*
X135928Y59128D01*
X136219Y59164D01*
X136238D01*
X136292Y59183D01*
X136365D01*
X136474Y59201D01*
X136602D01*
X136730Y59219D01*
X137312D01*
X137495Y59201D01*
D02*
G37*
G36*
X223657Y50838D02*
X221762D01*
X220432Y54646D01*
X220068Y55885D01*
X219667Y54555D01*
X218446Y50838D01*
X216624D01*
X215877Y61551D01*
X217262D01*
X217663Y54245D01*
X217790Y52259D01*
X218300Y53953D01*
X219612Y57944D01*
X220614D01*
X222108Y53662D01*
X222600Y52259D01*
X222637Y53717D01*
X223074Y61551D01*
X224386D01*
X223657Y50838D01*
D02*
G37*
G36*
X229342Y61533D02*
X229560D01*
X229815Y61497D01*
X230089Y61460D01*
X230362Y61405D01*
X230617Y61333D01*
X230654D01*
X230726Y61296D01*
X230854Y61242D01*
X231000Y61187D01*
X231182Y61114D01*
X231364Y61005D01*
X231546Y60895D01*
X231710Y60768D01*
X231729Y60750D01*
X231783Y60695D01*
X231856Y60622D01*
X231947Y60513D01*
X232056Y60385D01*
X232166Y60239D01*
X232257Y60057D01*
X232348Y59875D01*
X232366Y59857D01*
X232384Y59784D01*
X232421Y59675D01*
X232457Y59529D01*
X232494Y59365D01*
X232530Y59164D01*
X232567Y58964D01*
Y58727D01*
Y58709D01*
Y58636D01*
Y58545D01*
X232548Y58417D01*
X232530Y58272D01*
X232494Y58108D01*
X232403Y57762D01*
Y57743D01*
X232384Y57689D01*
X232348Y57598D01*
X232293Y57506D01*
X232166Y57233D01*
X231965Y56960D01*
X231947Y56941D01*
X231911Y56905D01*
X231856Y56832D01*
X231765Y56741D01*
X231656Y56650D01*
X231528Y56541D01*
X231237Y56322D01*
X231218Y56304D01*
X231164Y56286D01*
X231073Y56231D01*
X230963Y56176D01*
X230818Y56122D01*
X230654Y56049D01*
X230453Y55994D01*
X230253Y55939D01*
X230271D01*
X230326Y55903D01*
X230417Y55867D01*
X230526Y55812D01*
X230635Y55739D01*
X230763Y55630D01*
X230890Y55520D01*
X231018Y55375D01*
X231036Y55356D01*
X231073Y55302D01*
X231146Y55229D01*
X231218Y55101D01*
X231328Y54956D01*
X231437Y54792D01*
X231546Y54573D01*
X231674Y54354D01*
X233387Y50838D01*
X231729D01*
X230125Y54263D01*
Y54281D01*
X230089Y54336D01*
X230052Y54391D01*
X230016Y54482D01*
X229888Y54700D01*
X229743Y54901D01*
Y54919D01*
X229706Y54956D01*
X229633Y55065D01*
X229506Y55192D01*
X229342Y55320D01*
X229324D01*
X229305Y55338D01*
X229196Y55411D01*
X229050Y55466D01*
X228868Y55539D01*
X228850D01*
X228832Y55557D01*
X228777D01*
X228704Y55575D01*
X228522Y55593D01*
X228285Y55611D01*
X227611D01*
Y50838D01*
X226153D01*
Y61551D01*
X229178D01*
X229342Y61533D01*
D02*
G37*
G36*
X185523Y54464D02*
X187363D01*
Y53206D01*
X185523D01*
Y50838D01*
X184065D01*
Y53206D01*
X178909D01*
Y54464D01*
X183464Y61551D01*
X185523D01*
Y54464D01*
D02*
G37*
G36*
X211067Y61533D02*
X211304Y61515D01*
X211559Y61478D01*
X212106Y61369D01*
X212142D01*
X212233Y61333D01*
X212361Y61296D01*
X212543Y61223D01*
X212743Y61150D01*
X212944Y61041D01*
X213162Y60932D01*
X213381Y60786D01*
X213399Y60768D01*
X213472Y60713D01*
X213581Y60640D01*
X213709Y60513D01*
X213855Y60367D01*
X214001Y60203D01*
X214146Y60002D01*
X214274Y59784D01*
X214292Y59747D01*
X214328Y59675D01*
X214383Y59547D01*
X214438Y59365D01*
X214492Y59146D01*
X214547Y58891D01*
X214583Y58600D01*
X214602Y58272D01*
Y58235D01*
Y58162D01*
X214583Y58035D01*
X214565Y57871D01*
X214547Y57670D01*
X214492Y57433D01*
X214438Y57197D01*
X214347Y56960D01*
X214328Y56923D01*
X214310Y56850D01*
X214237Y56723D01*
X214164Y56577D01*
X214055Y56395D01*
X213928Y56213D01*
X213764Y56012D01*
X213581Y55812D01*
X213563Y55794D01*
X213490Y55721D01*
X213381Y55630D01*
X213235Y55520D01*
X213035Y55393D01*
X212816Y55247D01*
X212561Y55120D01*
X212270Y54992D01*
X212233Y54974D01*
X212124Y54937D01*
X211960Y54901D01*
X211723Y54846D01*
X211450Y54773D01*
X211122Y54737D01*
X210739Y54700D01*
X210338Y54682D01*
X209026D01*
Y50838D01*
X207569D01*
Y61551D01*
X210867D01*
X211067Y61533D01*
D02*
G37*
G36*
X147443Y51712D02*
Y51694D01*
X147425Y51658D01*
X147406Y51603D01*
X147370Y51530D01*
X147279Y51312D01*
X147169Y51056D01*
X147024Y50765D01*
X146878Y50437D01*
X146714Y50109D01*
X146532Y49799D01*
X146514Y49763D01*
X146459Y49672D01*
X146368Y49508D01*
X146240Y49326D01*
X146095Y49107D01*
X145912Y48888D01*
X145730Y48670D01*
X145530Y48451D01*
X145511Y48433D01*
X145439Y48360D01*
X145329Y48269D01*
X145184Y48160D01*
X145001Y48032D01*
X144801Y47904D01*
X144564Y47795D01*
X144327Y47686D01*
X144291Y47668D01*
X144218Y47649D01*
X144072Y47613D01*
X143890Y47558D01*
X143671Y47504D01*
X143434Y47467D01*
X143143Y47449D01*
X142851Y47431D01*
X142596D01*
X142450Y47449D01*
X142232D01*
X142086Y47467D01*
Y48761D01*
X142123D01*
X142195Y48742D01*
X142323D01*
X142469Y48724D01*
X142505D01*
X142614Y48706D01*
X142760Y48688D01*
X143070D01*
X143161Y48706D01*
X143416Y48742D01*
X143671Y48815D01*
X143690D01*
X143726Y48834D01*
X143799Y48870D01*
X143890Y48906D01*
X144090Y49016D01*
X144309Y49180D01*
X144327Y49198D01*
X144364Y49235D01*
X144418Y49289D01*
X144491Y49362D01*
X144582Y49453D01*
X144692Y49581D01*
X144892Y49854D01*
X144910Y49872D01*
X144947Y49927D01*
X145001Y50018D01*
X145074Y50127D01*
X145147Y50273D01*
X145238Y50455D01*
X145347Y50637D01*
X145439Y50838D01*
X142159Y59073D01*
X143781D01*
X145858Y53607D01*
X146277Y52332D01*
X146750Y53644D01*
X148682Y59073D01*
X150249D01*
X147443Y51712D01*
D02*
G37*
G36*
X204144Y62189D02*
X204107Y62152D01*
X204016Y62043D01*
X203852Y61879D01*
X203651Y61642D01*
X203396Y61351D01*
X203141Y61005D01*
X202850Y60586D01*
X202558Y60148D01*
X202249Y59656D01*
X201957Y59110D01*
X201702Y58545D01*
X201447Y57925D01*
X201247Y57288D01*
X201101Y56632D01*
X200991Y55939D01*
X200973Y55593D01*
X200955Y55229D01*
Y55211D01*
Y55138D01*
Y55047D01*
X200973Y54901D01*
Y54737D01*
X200991Y54536D01*
X201028Y54318D01*
X201064Y54063D01*
X201101Y53790D01*
X201155Y53516D01*
X201301Y52897D01*
X201502Y52241D01*
X201611Y51913D01*
X201757Y51585D01*
X201775Y51567D01*
X201793Y51512D01*
X201848Y51421D01*
X201902Y51293D01*
X201993Y51129D01*
X202103Y50947D01*
X202212Y50747D01*
X202358Y50510D01*
X202522Y50273D01*
X202686Y50018D01*
X202886Y49745D01*
X203105Y49453D01*
X203342Y49162D01*
X203579Y48870D01*
X203852Y48579D01*
X204144Y48287D01*
X203269Y47394D01*
X203251Y47412D01*
X203233Y47431D01*
X203178Y47485D01*
X203105Y47558D01*
X203014Y47649D01*
X202923Y47740D01*
X202686Y48014D01*
X202394Y48342D01*
X202085Y48724D01*
X201738Y49180D01*
X201392Y49672D01*
X201028Y50218D01*
X200700Y50820D01*
X200372Y51457D01*
X200080Y52131D01*
X199844Y52842D01*
X199661Y53571D01*
X199589Y53953D01*
X199534Y54336D01*
X199516Y54719D01*
X199497Y55120D01*
Y55138D01*
Y55174D01*
Y55211D01*
Y55283D01*
X199516Y55484D01*
Y55739D01*
X199552Y56049D01*
X199589Y56377D01*
X199625Y56741D01*
X199698Y57105D01*
Y57124D01*
X199716Y57142D01*
Y57197D01*
X199734Y57270D01*
X199789Y57470D01*
X199862Y57725D01*
X199935Y58017D01*
X200044Y58345D01*
X200190Y58709D01*
X200336Y59073D01*
Y59092D01*
X200354Y59128D01*
X200390Y59164D01*
X200427Y59237D01*
X200518Y59438D01*
X200663Y59693D01*
X200827Y60002D01*
X201028Y60330D01*
X201265Y60695D01*
X201520Y61059D01*
Y61077D01*
X201556Y61114D01*
X201593Y61150D01*
X201647Y61223D01*
X201811Y61424D01*
X202012Y61679D01*
X202285Y61989D01*
X202576Y62316D01*
X202923Y62681D01*
X203305Y63045D01*
X204144Y62189D01*
D02*
G37*
G36*
X166155Y59201D02*
X166246D01*
X166373Y59183D01*
X166665Y59110D01*
X166975Y59019D01*
X167284Y58873D01*
X167594Y58654D01*
X167740Y58527D01*
X167867Y58381D01*
X167904Y58345D01*
X167922Y58290D01*
X167977Y58235D01*
X168013Y58144D01*
X168068Y58035D01*
X168141Y57907D01*
X168195Y57762D01*
X168250Y57598D01*
X168305Y57433D01*
X168359Y57233D01*
X168414Y57014D01*
X168450Y56759D01*
X168469Y56504D01*
X168487Y56231D01*
Y55939D01*
X167048D01*
Y55958D01*
Y55994D01*
Y56049D01*
Y56122D01*
X167029Y56304D01*
X167011Y56523D01*
X166975Y56778D01*
X166920Y57033D01*
X166829Y57288D01*
X166720Y57488D01*
X166701Y57506D01*
X166665Y57561D01*
X166574Y57652D01*
X166464Y57743D01*
X166319Y57816D01*
X166155Y57907D01*
X165954Y57962D01*
X165717Y57980D01*
X165608D01*
X165553Y57962D01*
X165371Y57944D01*
X165153Y57871D01*
X165134D01*
X165098Y57853D01*
X165043Y57834D01*
X164971Y57798D01*
X164770Y57689D01*
X164551Y57543D01*
X164533Y57525D01*
X164497Y57506D01*
X164442Y57452D01*
X164351Y57397D01*
X164151Y57197D01*
X163895Y56960D01*
X163877Y56941D01*
X163841Y56905D01*
X163768Y56832D01*
X163677Y56723D01*
X163567Y56595D01*
X163440Y56468D01*
X163312Y56304D01*
X163167Y56122D01*
Y50838D01*
X161727D01*
Y59073D01*
X163021D01*
X163057Y57543D01*
Y57561D01*
X163094Y57579D01*
X163185Y57689D01*
X163331Y57834D01*
X163513Y58035D01*
X163732Y58235D01*
X163968Y58454D01*
X164223Y58654D01*
X164497Y58818D01*
X164533Y58836D01*
X164624Y58873D01*
X164752Y58946D01*
X164952Y59019D01*
X165153Y59092D01*
X165408Y59164D01*
X165663Y59201D01*
X165936Y59219D01*
X166064D01*
X166155Y59201D01*
D02*
G37*
G36*
X236994Y63027D02*
X237012Y63009D01*
X237067Y62954D01*
X237140Y62881D01*
X237231Y62790D01*
X237322Y62699D01*
X237577Y62426D01*
X237850Y62098D01*
X238178Y61715D01*
X238525Y61260D01*
X238871Y60750D01*
X239217Y60203D01*
X239563Y59602D01*
X239891Y58946D01*
X240183Y58272D01*
X240420Y57561D01*
X240602Y56814D01*
X240675Y56431D01*
X240729Y56049D01*
X240747Y55648D01*
X240766Y55247D01*
Y55229D01*
Y55211D01*
Y55156D01*
Y55101D01*
Y54919D01*
X240747Y54682D01*
X240729Y54409D01*
X240693Y54099D01*
X240638Y53753D01*
X240583Y53407D01*
Y53389D01*
Y53370D01*
X240565Y53316D01*
X240547Y53243D01*
X240511Y53061D01*
X240438Y52806D01*
X240347Y52514D01*
X240237Y52186D01*
X240110Y51840D01*
X239964Y51476D01*
Y51457D01*
X239946Y51439D01*
X239928Y51385D01*
X239891Y51312D01*
X239782Y51111D01*
X239654Y50856D01*
X239490Y50546D01*
X239272Y50218D01*
X239053Y49854D01*
X238780Y49471D01*
Y49453D01*
X238743Y49417D01*
X238707Y49362D01*
X238652Y49289D01*
X238579Y49198D01*
X238488Y49089D01*
X238269Y48815D01*
X238014Y48506D01*
X237705Y48160D01*
X237340Y47777D01*
X236940Y47394D01*
X236120Y48251D01*
X236138Y48269D01*
X236192Y48324D01*
X236265Y48415D01*
X236375Y48524D01*
X236520Y48670D01*
X236666Y48852D01*
X236830Y49034D01*
X237012Y49253D01*
X237194Y49490D01*
X237395Y49745D01*
X237796Y50309D01*
X238160Y50911D01*
X238324Y51239D01*
X238488Y51548D01*
X238506Y51567D01*
X238525Y51621D01*
X238561Y51712D01*
X238616Y51840D01*
X238670Y52004D01*
X238743Y52186D01*
X238816Y52405D01*
X238889Y52642D01*
X238962Y52897D01*
X239035Y53170D01*
X239162Y53790D01*
X239253Y54445D01*
X239290Y54792D01*
Y55138D01*
Y55156D01*
Y55174D01*
Y55229D01*
Y55320D01*
X239272Y55411D01*
Y55520D01*
X239235Y55794D01*
X239199Y56140D01*
X239126Y56541D01*
X239017Y56978D01*
X238889Y57470D01*
X238725Y57998D01*
X238525Y58563D01*
X238251Y59146D01*
X237960Y59747D01*
X237595Y60349D01*
X237158Y60950D01*
X236684Y61569D01*
X236411Y61861D01*
X236120Y62152D01*
X236976Y63045D01*
X236994Y63027D01*
D02*
G37*
G36*
X126526Y52077D02*
X131227D01*
Y50838D01*
X125050D01*
Y61551D01*
X126526D01*
Y52077D01*
D02*
G37*
G36*
X155860Y59201D02*
X156061Y59183D01*
X156298Y59146D01*
X156553Y59110D01*
X156808Y59037D01*
X157063Y58946D01*
X157099Y58928D01*
X157172Y58891D01*
X157300Y58836D01*
X157464Y58745D01*
X157628Y58636D01*
X157828Y58508D01*
X158010Y58345D01*
X158193Y58162D01*
X158211Y58144D01*
X158265Y58071D01*
X158357Y57962D01*
X158448Y57834D01*
X158557Y57652D01*
X158685Y57452D01*
X158794Y57215D01*
X158885Y56960D01*
X158903Y56923D01*
X158921Y56832D01*
X158958Y56687D01*
X159012Y56504D01*
X159049Y56267D01*
X159085Y56012D01*
X159104Y55721D01*
X159122Y55393D01*
Y55375D01*
Y55338D01*
Y55283D01*
Y55211D01*
Y55047D01*
X159104Y54865D01*
Y54828D01*
Y54737D01*
Y54628D01*
X159085Y54500D01*
X153310D01*
Y54482D01*
Y54445D01*
Y54373D01*
X153328Y54300D01*
Y54190D01*
X153346Y54063D01*
X153401Y53771D01*
X153474Y53461D01*
X153601Y53134D01*
X153765Y52824D01*
X154002Y52551D01*
X154039Y52514D01*
X154130Y52441D01*
X154294Y52332D01*
X154530Y52223D01*
X154822Y52095D01*
X155168Y51986D01*
X155569Y51913D01*
X156043Y51876D01*
X156498D01*
X156753Y51895D01*
X156808D01*
X156881Y51913D01*
X156972D01*
X157209Y51949D01*
X157446Y51968D01*
X157464D01*
X157500Y51986D01*
X157573D01*
X157664Y52004D01*
X157865Y52040D01*
X158101Y52077D01*
X158120D01*
X158156Y52095D01*
X158211Y52113D01*
X158284Y52131D01*
X158484Y52168D01*
X158685Y52223D01*
Y51056D01*
X158666D01*
X158575Y51038D01*
X158466Y51002D01*
X158302Y50965D01*
X158101Y50929D01*
X157883Y50874D01*
X157628Y50838D01*
X157354Y50801D01*
X157318D01*
X157227Y50783D01*
X157081Y50765D01*
X156899Y50747D01*
X156662Y50728D01*
X156407Y50710D01*
X156134Y50692D01*
X155660D01*
X155460Y50710D01*
X155223Y50728D01*
X154931Y50765D01*
X154622Y50801D01*
X154312Y50874D01*
X154020Y50965D01*
X153984Y50984D01*
X153893Y51020D01*
X153747Y51093D01*
X153583Y51184D01*
X153383Y51293D01*
X153164Y51439D01*
X152963Y51603D01*
X152763Y51803D01*
X152745Y51822D01*
X152690Y51895D01*
X152599Y52022D01*
X152490Y52168D01*
X152362Y52368D01*
X152253Y52587D01*
X152125Y52860D01*
X152034Y53134D01*
Y53152D01*
Y53170D01*
X151998Y53279D01*
X151961Y53443D01*
X151925Y53662D01*
X151889Y53935D01*
X151852Y54227D01*
X151834Y54573D01*
X151816Y54937D01*
Y54956D01*
Y54974D01*
Y55083D01*
X151834Y55247D01*
X151852Y55466D01*
X151870Y55703D01*
X151925Y55976D01*
X151980Y56267D01*
X152052Y56559D01*
Y56577D01*
X152071Y56595D01*
X152107Y56687D01*
X152162Y56832D01*
X152235Y57033D01*
X152344Y57233D01*
X152471Y57470D01*
X152617Y57707D01*
X152781Y57925D01*
X152799Y57944D01*
X152872Y58017D01*
X152982Y58126D01*
X153109Y58272D01*
X153291Y58417D01*
X153492Y58581D01*
X153710Y58727D01*
X153966Y58873D01*
X154002Y58891D01*
X154093Y58928D01*
X154239Y58982D01*
X154421Y59055D01*
X154658Y59110D01*
X154931Y59164D01*
X155223Y59201D01*
X155551Y59219D01*
X155696D01*
X155860Y59201D01*
D02*
G37*
%LPC*%
G36*
X138825Y54591D02*
X136821D01*
X136693Y54573D01*
X136401Y54555D01*
X136092Y54482D01*
X136074D01*
X136037Y54464D01*
X135964Y54445D01*
X135873Y54409D01*
X135654Y54300D01*
X135454Y54172D01*
X135436D01*
X135418Y54136D01*
X135327Y54045D01*
X135199Y53881D01*
X135090Y53698D01*
Y53680D01*
X135071Y53644D01*
X135053Y53589D01*
X135035Y53516D01*
X134999Y53316D01*
X134980Y53079D01*
Y53061D01*
Y53043D01*
X134999Y52933D01*
X135017Y52787D01*
X135053Y52623D01*
Y52605D01*
X135071Y52587D01*
X135108Y52496D01*
X135181Y52368D01*
X135290Y52223D01*
X135327Y52204D01*
X135399Y52131D01*
X135545Y52040D01*
X135709Y51968D01*
X135727D01*
X135764Y51949D01*
X135819Y51931D01*
X135891D01*
X136092Y51895D01*
X136347Y51876D01*
X136438D01*
X136529Y51895D01*
X136675Y51913D01*
X136839Y51949D01*
X137039Y52004D01*
X137240Y52077D01*
X137477Y52168D01*
X137513Y52186D01*
X137586Y52223D01*
X137713Y52296D01*
X137877Y52405D01*
X138078Y52532D01*
X138315Y52696D01*
X138570Y52878D01*
X138825Y53115D01*
Y54591D01*
D02*
G37*
G36*
X228977Y60312D02*
X227611D01*
Y56778D01*
X228959D01*
X229087Y56796D01*
X229232D01*
X229396Y56832D01*
X229706Y56887D01*
X229724D01*
X229779Y56905D01*
X229852Y56941D01*
X229961Y56978D01*
X230180Y57087D01*
X230417Y57233D01*
X230435Y57251D01*
X230471Y57270D01*
X230526Y57324D01*
X230581Y57397D01*
X230726Y57579D01*
X230872Y57798D01*
Y57816D01*
X230890Y57853D01*
X230927Y57925D01*
X230963Y58035D01*
X230981Y58144D01*
X231018Y58290D01*
X231036Y58600D01*
Y58618D01*
Y58636D01*
Y58745D01*
X231000Y58891D01*
X230963Y59073D01*
X230909Y59292D01*
X230799Y59492D01*
X230672Y59693D01*
X230490Y59875D01*
X230471Y59893D01*
X230399Y59948D01*
X230271Y60021D01*
X230107Y60094D01*
X229888Y60167D01*
X229633Y60239D01*
X229324Y60294D01*
X228977Y60312D01*
D02*
G37*
G36*
X184065Y60167D02*
X180330Y54464D01*
X184065D01*
Y60167D01*
D02*
G37*
G36*
X210502Y60330D02*
X209026D01*
Y55921D01*
X210502D01*
X210593Y55939D01*
X210703D01*
X210830Y55958D01*
X211104Y55994D01*
X211432Y56067D01*
X211759Y56158D01*
X212087Y56304D01*
X212379Y56486D01*
X212415Y56504D01*
X212488Y56595D01*
X212597Y56723D01*
X212743Y56905D01*
X212871Y57160D01*
X212980Y57452D01*
X213053Y57798D01*
X213089Y58199D01*
Y58217D01*
Y58235D01*
Y58290D01*
X213071Y58363D01*
X213053Y58545D01*
X212998Y58782D01*
X212926Y59037D01*
X212798Y59292D01*
X212634Y59547D01*
X212397Y59766D01*
X212361Y59784D01*
X212270Y59857D01*
X212124Y59948D01*
X211905Y60057D01*
X211632Y60148D01*
X211322Y60239D01*
X210940Y60312D01*
X210502Y60330D01*
D02*
G37*
G36*
X155678Y58071D02*
X155314D01*
X155204Y58053D01*
X155077Y58035D01*
X154931Y57998D01*
X154622Y57889D01*
X154603D01*
X154567Y57853D01*
X154494Y57816D01*
X154403Y57762D01*
X154184Y57598D01*
X153966Y57379D01*
X153947Y57361D01*
X153929Y57324D01*
X153875Y57251D01*
X153802Y57160D01*
X153729Y57051D01*
X153656Y56905D01*
X153510Y56595D01*
Y56577D01*
X153492Y56523D01*
X153455Y56431D01*
X153419Y56304D01*
X153383Y56158D01*
X153364Y55976D01*
X153310Y55593D01*
X157646D01*
Y55611D01*
Y55684D01*
Y55794D01*
Y55921D01*
X157628Y56067D01*
X157610Y56231D01*
X157518Y56577D01*
Y56595D01*
X157500Y56650D01*
X157464Y56741D01*
X157427Y56850D01*
X157300Y57105D01*
X157118Y57361D01*
X157099Y57379D01*
X157063Y57415D01*
X157008Y57470D01*
X156935Y57543D01*
X156826Y57634D01*
X156717Y57707D01*
X156425Y57871D01*
X156407Y57889D01*
X156352Y57907D01*
X156261Y57944D01*
X156152Y57980D01*
X156024Y58017D01*
X155860Y58035D01*
X155678Y58071D01*
D02*
G37*
%LPD*%
D45*
X130650Y-179162D02*
X192750Y-241262D01*
X282450D01*
X305250Y-264062D01*
X378350D01*
X130650Y-179162D02*
Y-153962D01*
X142750Y-141862D01*
X257350D01*
X308450Y-192962D01*
X366050D01*
D52*
X4950Y-265726D02*
Y-268350D01*
X6262Y-269662D01*
X7574Y-268350D01*
Y-265726D01*
X11510Y-266382D02*
X10854Y-265726D01*
X9542D01*
X8886Y-266382D01*
Y-269006D01*
X9542Y-269662D01*
X10854D01*
X11510Y-269006D01*
X15446Y-266382D02*
X14790Y-265726D01*
X13478D01*
X12822Y-266382D01*
Y-269006D01*
X13478Y-269662D01*
X14790D01*
X15446Y-269006D01*
X16758Y-270318D02*
X19381D01*
X23317Y-266382D02*
X22661Y-265726D01*
X21349D01*
X20693Y-266382D01*
Y-267038D01*
X21349Y-267694D01*
X22661D01*
X23317Y-268350D01*
Y-269006D01*
X22661Y-269662D01*
X21349D01*
X20693Y-269006D01*
X24629Y-265726D02*
Y-266382D01*
X25941Y-267694D01*
X27253Y-266382D01*
Y-265726D01*
X25941Y-267694D02*
Y-269662D01*
X31189Y-266382D02*
X30533Y-265726D01*
X29221D01*
X28565Y-266382D01*
Y-267038D01*
X29221Y-267694D01*
X30533D01*
X31189Y-268350D01*
Y-269006D01*
X30533Y-269662D01*
X29221D01*
X28565Y-269006D01*
X195250Y-236994D02*
X197874D01*
X196562Y-235682D02*
Y-238306D01*
X201810Y-235026D02*
X199186D01*
Y-236994D01*
X200498Y-236338D01*
X201154D01*
X201810Y-236994D01*
Y-238306D01*
X201154Y-238962D01*
X199842D01*
X199186Y-238306D01*
X203122Y-235026D02*
Y-237650D01*
X204434Y-238962D01*
X205746Y-237650D01*
Y-235026D01*
X207058Y-239618D02*
X209682D01*
X213617Y-235682D02*
X212961Y-235026D01*
X211649D01*
X210993Y-235682D01*
Y-236338D01*
X211649Y-236994D01*
X212961D01*
X213617Y-237650D01*
Y-238306D01*
X212961Y-238962D01*
X211649D01*
X210993Y-238306D01*
X214929Y-235026D02*
Y-238962D01*
X216241Y-237650D01*
X217553Y-238962D01*
Y-235026D01*
D68*
X7500Y-334962D02*
G03*
X20000Y-347462I12500J0D01*
G01*
X46447D02*
G03*
X51147Y-342762I0J4700D01*
G01*
X55847Y-333962D02*
G03*
X51147Y-338662I0J-4700D01*
G01*
X137100D02*
G03*
X132400Y-333962I-4700J0D01*
G01*
X137100Y-350262D02*
G03*
X141800Y-354962I4700J0D01*
G01*
X165400D02*
G03*
X170100Y-350262I0J4700D01*
G01*
X174800Y-336500D02*
G03*
X170100Y-341200I0J-4700D01*
G01*
X206300D02*
G03*
X201600Y-336500I-4700J0D01*
G01*
X206300Y-350262D02*
G03*
X211000Y-354962I4700J0D01*
G01*
X234800D02*
G03*
X239500Y-350262I0J4700D01*
G01*
X244200Y-333962D02*
G03*
X239500Y-338662I0J-4700D01*
G01*
X277500Y-333962D02*
G03*
X281897Y-337001I4397J1661D01*
G01*
X372800D02*
G03*
X377500Y-332301I0J4700D01*
G01*
Y-272950D02*
G03*
X378601Y-269928I-3600J3022D01*
G01*
Y-252150D02*
G03*
X373901Y-247450I-4700J0D01*
G01*
X366000Y-242750D02*
G03*
X370700Y-247450I4700J0D01*
G01*
Y-116450D02*
G03*
X366000Y-121150I0J-4700D01*
G01*
X373901Y-116450D02*
G03*
X378601Y-111750I0J4700D01*
G01*
Y-93972D02*
G03*
X377500Y-90950I-4700J0D01*
G01*
Y-27162D02*
G03*
X372800Y-22462I-4700J0D01*
G01*
X331597D02*
G03*
X326949Y-26467I0J-4700D01*
G01*
X322313Y-30462D02*
G03*
X326949Y-26467I0J4688D01*
G01*
X229000Y-25762D02*
G03*
X233700Y-30462I4700J0D01*
G01*
X229000Y-12162D02*
G03*
X224300Y-7462I-4700J0D01*
G01*
X123950Y-2762D02*
G03*
X128650Y-7462I4700J0D01*
G01*
X123950Y3200D02*
G03*
X119250Y7900I-4700J0D01*
G01*
X102650D02*
G03*
X97950Y3200I0J-4700D01*
G01*
X93250Y-7462D02*
G03*
X97950Y-2762I0J4700D01*
G01*
X20000Y-7462D02*
G03*
X18834Y-32408I0J-12500D01*
G01*
X41500Y-57298D02*
G03*
X18834Y-32408I-25000J0D01*
G01*
X36813Y-158881D02*
G03*
X41500Y-154193I0J4688D01*
G01*
X22689Y-158881D02*
G03*
X18001Y-163568I0J-4688D01*
G01*
X13302Y-247450D02*
G03*
X18001Y-242750I0J4700D01*
G01*
X3600Y-247450D02*
G03*
X-1100Y-252150I0J-4700D01*
G01*
Y-268250D02*
G03*
X3200Y-272933I4700J0D01*
G01*
X7500Y-277616D02*
G03*
X3200Y-272933I-4700J0D01*
G01*
X141800Y-354962D02*
X165400D01*
X170100Y-350262D02*
Y-341200D01*
X174800Y-336500D02*
X201600D01*
X206300Y-350262D02*
Y-341200D01*
X211000Y-354962D02*
X234800D01*
X55847Y-333962D02*
X132400D01*
X137100Y-350262D02*
Y-338662D01*
X239500Y-350262D02*
Y-338662D01*
X244200Y-333962D02*
X277500D01*
X3200Y-272933D02*
X3200Y-272933D01*
X7500Y-334962D02*
Y-277616D01*
X20000Y-347462D02*
X46447D01*
X51147Y-342762D02*
Y-338662D01*
X281897Y-337001D02*
X372800D01*
X377500Y-332301D02*
Y-272950D01*
X378601Y-269928D02*
Y-252150D01*
X370700Y-247450D02*
X373901D01*
X366000Y-242750D02*
Y-121150D01*
X370700Y-116450D02*
X373901D01*
X378601Y-111750D02*
Y-93972D01*
X377500Y-90950D02*
Y-27162D01*
X331597Y-22462D02*
X372800D01*
X233700Y-30462D02*
X322313D01*
X229000Y-25762D02*
Y-12162D01*
X128650Y-7462D02*
X224300D01*
X123950Y-2762D02*
Y3200D01*
X102650Y7900D02*
X119250D01*
X97950Y-2762D02*
Y3200D01*
X20000Y-7462D02*
X93250D01*
X41500Y-154193D02*
Y-57298D01*
X22689Y-158881D02*
X36813D01*
X18001Y-242750D02*
Y-163568D01*
X3600Y-247450D02*
X13302D01*
X-1100Y-268250D02*
Y-252150D01*
D69*
X46850Y-247962D02*
D03*
Y-257962D02*
D03*
D70*
X357505Y-34957D02*
D03*
X20005Y-334957D02*
D03*
Y-19957D02*
D03*
X357505Y-324957D02*
D03*
D71*
X334505Y-34957D02*
D03*
X43005Y-334957D02*
D03*
Y-19957D02*
D03*
X334505Y-324957D02*
D03*
D72*
X337500Y-185000D02*
D03*
Y-195000D02*
D03*
Y-215000D02*
D03*
Y-205000D02*
D03*
Y-225000D02*
D03*
Y-235000D02*
D03*
Y-245000D02*
D03*
Y-255000D02*
D03*
Y-265000D02*
D03*
Y-275000D02*
D03*
X327500D02*
D03*
Y-265000D02*
D03*
Y-255000D02*
D03*
Y-245000D02*
D03*
Y-235000D02*
D03*
Y-225000D02*
D03*
Y-205000D02*
D03*
Y-215000D02*
D03*
Y-195000D02*
D03*
Y-95000D02*
D03*
Y-105000D02*
D03*
Y-115000D02*
D03*
Y-125000D02*
D03*
Y-135000D02*
D03*
Y-145000D02*
D03*
Y-165000D02*
D03*
Y-155000D02*
D03*
Y-175000D02*
D03*
Y-185000D02*
D03*
X337500Y-85000D02*
D03*
Y-95000D02*
D03*
Y-105000D02*
D03*
Y-115000D02*
D03*
Y-125000D02*
D03*
Y-135000D02*
D03*
Y-145000D02*
D03*
Y-165000D02*
D03*
Y-155000D02*
D03*
Y-175000D02*
D03*
X327500Y-285000D02*
D03*
Y-295000D02*
D03*
Y-305000D02*
D03*
X337500D02*
D03*
Y-295000D02*
D03*
Y-285000D02*
D03*
Y-75000D02*
D03*
X327500D02*
D03*
Y-85000D02*
D03*
X337500Y-65000D02*
D03*
Y-55000D02*
D03*
X327500D02*
D03*
Y-65000D02*
D03*
X357500Y-195000D02*
D03*
Y-215000D02*
D03*
Y-205000D02*
D03*
Y-225000D02*
D03*
Y-235000D02*
D03*
Y-245000D02*
D03*
Y-255000D02*
D03*
Y-265000D02*
D03*
Y-275000D02*
D03*
X347500D02*
D03*
Y-265000D02*
D03*
Y-255000D02*
D03*
Y-245000D02*
D03*
Y-235000D02*
D03*
Y-225000D02*
D03*
Y-205000D02*
D03*
Y-215000D02*
D03*
Y-195000D02*
D03*
Y-95000D02*
D03*
Y-105000D02*
D03*
Y-115000D02*
D03*
Y-125000D02*
D03*
Y-135000D02*
D03*
Y-145000D02*
D03*
Y-165000D02*
D03*
Y-155000D02*
D03*
Y-175000D02*
D03*
X357500Y-85000D02*
D03*
Y-95000D02*
D03*
Y-105000D02*
D03*
Y-115000D02*
D03*
Y-125000D02*
D03*
Y-135000D02*
D03*
Y-145000D02*
D03*
Y-165000D02*
D03*
Y-155000D02*
D03*
Y-175000D02*
D03*
X347500Y-285000D02*
D03*
Y-295000D02*
D03*
Y-305000D02*
D03*
X357500D02*
D03*
Y-295000D02*
D03*
Y-285000D02*
D03*
Y-75000D02*
D03*
X347500D02*
D03*
Y-85000D02*
D03*
X357500Y-65000D02*
D03*
Y-55000D02*
D03*
X347500D02*
D03*
Y-65000D02*
D03*
D73*
X357500Y-185000D02*
D03*
X347500D02*
D03*
D74*
X77700Y-286111D02*
D03*
Y-262489D02*
D03*
X60000Y-86389D02*
D03*
Y-110011D02*
D03*
X123611Y-25000D02*
D03*
X99989D02*
D03*
X164800Y-142593D02*
D03*
Y-229207D02*
D03*
X208700Y-138693D02*
D03*
Y-225307D02*
D03*
D76*
X368650Y-256162D02*
D03*
D77*
X87237Y-13175D02*
D03*
X54363D02*
D03*
X170037Y-349925D02*
D03*
X137163D02*
D03*
X54363Y-13175D02*
D03*
X87237D02*
D03*
X239337Y-349925D02*
D03*
X206463D02*
D03*
X45850Y-225862D02*
D03*
X288250Y-92062D02*
D03*
X369250Y-85462D02*
D03*
X367550Y-65062D02*
D03*
D79*
X270000Y-310000D02*
D03*
X275000Y-315000D02*
D03*
X265000D02*
D03*
X275000Y-305000D02*
D03*
X265000D02*
D03*
X310000Y-51500D02*
D03*
X315000Y-56500D02*
D03*
X305000D02*
D03*
X315000Y-46500D02*
D03*
X305000D02*
D03*
D81*
X275000Y-51500D02*
D03*
D83*
X187757Y-310806D02*
D03*
X124797D02*
D03*
D84*
X120862Y-306868D02*
D03*
Y-314743D02*
D03*
X128732D02*
D03*
Y-306868D02*
D03*
X136602Y-314743D02*
D03*
Y-306868D02*
D03*
X144472Y-314743D02*
D03*
Y-306868D02*
D03*
X152342Y-314743D02*
D03*
Y-306868D02*
D03*
X160212Y-314743D02*
D03*
Y-306868D02*
D03*
X168082Y-314743D02*
D03*
Y-306868D02*
D03*
X175952Y-314743D02*
D03*
Y-306868D02*
D03*
X183822Y-314743D02*
D03*
Y-306868D02*
D03*
X191692Y-314743D02*
D03*
Y-306868D02*
D03*
D85*
X45650Y-238150D02*
D03*
X39000Y-242400D02*
D03*
X49000Y-137400D02*
D03*
X71700Y-132000D02*
D03*
X74400Y-144000D02*
D03*
X211700Y-342900D02*
D03*
X151200Y-205500D02*
D03*
X150900Y-197800D02*
D03*
X160000Y-229300D02*
D03*
X167457Y-221300D02*
D03*
X226100Y-210800D02*
D03*
X222600Y-209700D02*
D03*
X233550Y-203762D02*
D03*
X189100Y-185800D02*
D03*
X188100Y-158800D02*
D03*
X186800Y-171100D02*
D03*
X186700Y-166700D02*
D03*
X165700Y-179900D02*
D03*
X172750Y-189962D02*
D03*
X176550Y-197762D02*
D03*
X178000Y-182100D02*
D03*
X180900D02*
D03*
X189950Y-209462D02*
D03*
X190950Y-213562D02*
D03*
X184100Y-181900D02*
D03*
X184435Y-162278D02*
D03*
X186691Y-205622D02*
D03*
X163300Y-173900D02*
D03*
X169370Y-158362D02*
D03*
X144886Y-174798D02*
D03*
X134050Y-164800D02*
D03*
X154400Y-174200D02*
D03*
X51300Y-318500D02*
D03*
X34300Y-313800D02*
D03*
X105500Y-316600D02*
D03*
X50300Y-304900D02*
D03*
X39700Y-304904D02*
D03*
X225359Y-345471D02*
D03*
X222800Y-343012D02*
D03*
X153600D02*
D03*
X156159Y-345471D02*
D03*
X40150Y-262962D02*
D03*
X49250Y-110062D02*
D03*
X81350Y-107162D02*
D03*
X97950Y-109962D02*
D03*
X146790Y-19767D02*
D03*
X142050Y-25862D02*
D03*
X52760Y-50971D02*
D03*
X71150Y-49162D02*
D03*
X49750Y-50962D02*
D03*
X90577Y-25636D02*
D03*
X215050Y-345662D02*
D03*
X85450Y-27262D02*
D03*
X97850Y-216362D02*
D03*
X219450Y-347862D02*
D03*
X144550Y-277362D02*
D03*
X132750Y-293262D02*
D03*
X98650Y-149462D02*
D03*
X110350Y-93062D02*
D03*
X71150Y-33362D02*
D03*
X100950Y-141962D02*
D03*
X312308Y-155562D02*
D03*
X312336Y-162162D02*
D03*
X283250Y-161062D02*
D03*
X278950Y-151662D02*
D03*
X317250Y-141862D02*
D03*
X284850Y-186262D02*
D03*
X125650Y-179562D02*
D03*
X189100Y-188800D02*
D03*
X208050Y-159662D02*
D03*
X159950Y-158262D02*
D03*
X128550Y-141962D02*
D03*
X134050Y-158562D02*
D03*
X266350Y-115562D02*
D03*
X284850Y-115162D02*
D03*
X263550Y-151962D02*
D03*
X317650Y-329662D02*
D03*
X100550Y-213962D02*
D03*
X44500Y-64200D02*
D03*
X47750Y-118362D02*
D03*
X50550Y-117962D02*
D03*
X47250Y-162462D02*
D03*
X48950Y-156162D02*
D03*
X166150Y-295762D02*
D03*
X74550Y-122262D02*
D03*
X82250Y-286162D02*
D03*
X86005Y-286157D02*
D03*
X89250Y-286162D02*
D03*
X94950Y-264862D02*
D03*
X93250Y-286062D02*
D03*
X134050Y-179462D02*
D03*
X44550Y-273062D02*
D03*
X45950Y-281762D02*
D03*
X96350Y-240462D02*
D03*
X82250Y-162362D02*
D03*
X99650Y-144662D02*
D03*
X117650Y-146262D02*
D03*
X88250Y-28162D02*
D03*
X46950Y-50962D02*
D03*
X266450Y-119162D02*
D03*
X160050Y-267062D02*
D03*
X295550Y-94662D02*
D03*
X295750Y-146962D02*
D03*
X75550Y-149562D02*
D03*
X82850Y-176262D02*
D03*
X211150Y-292862D02*
D03*
X183750Y-298098D02*
D03*
X179850Y-295962D02*
D03*
X302050Y-73762D02*
D03*
X185850Y-243162D02*
D03*
X179550Y-270062D02*
D03*
X214093Y-271801D02*
D03*
X263350Y-211162D02*
D03*
X112950Y-77562D02*
D03*
X150150Y-267462D02*
D03*
X135850Y-13462D02*
D03*
X158250Y-28362D02*
D03*
X188650Y-150162D02*
D03*
X229950Y-175262D02*
D03*
X182850Y-245562D02*
D03*
X181350Y-142662D02*
D03*
X225450Y-188662D02*
D03*
X266050Y-229562D02*
D03*
X169250Y-105762D02*
D03*
X169450Y-93862D02*
D03*
X147050Y-210962D02*
D03*
X173850Y-71562D02*
D03*
X226650Y-175062D02*
D03*
X362650Y-70662D02*
D03*
X102050Y-285662D02*
D03*
X117650Y-231762D02*
D03*
X82315Y-153127D02*
D03*
X123250Y-187562D02*
D03*
X126050Y-202562D02*
D03*
X49805Y-179857D02*
D03*
X79650Y-188462D02*
D03*
X76350Y-233762D02*
D03*
X181050Y-78462D02*
D03*
X190209Y-88403D02*
D03*
X174350Y-117762D02*
D03*
X156350Y-278062D02*
D03*
X140650Y-270162D02*
D03*
X128050Y-200462D02*
D03*
X130050Y-198362D02*
D03*
X145403Y-63009D02*
D03*
X99650Y-106662D02*
D03*
X113750Y-214862D02*
D03*
X115750Y-212762D02*
D03*
X117750Y-210662D02*
D03*
X39350Y-35862D02*
D03*
X145350Y-69762D02*
D03*
X190050Y-66962D02*
D03*
X222650Y-24662D02*
D03*
X171466Y-28178D02*
D03*
X173435Y-48246D02*
D03*
X205950Y-81262D02*
D03*
X203950Y-83362D02*
D03*
X201950Y-85462D02*
D03*
X207950Y-79162D02*
D03*
X209950Y-77062D02*
D03*
X217650Y-217462D02*
D03*
X51050Y-286462D02*
D03*
X37161Y-295952D02*
D03*
X42450Y-296062D02*
D03*
X42750Y-299962D02*
D03*
X181250Y-83962D02*
D03*
X160850Y-99962D02*
D03*
X175850Y-129762D02*
D03*
X174750Y-121562D02*
D03*
X169286Y-109327D02*
D03*
X232150Y-288962D02*
D03*
X168450Y-83862D02*
D03*
X176350Y-115662D02*
D03*
X178350Y-113562D02*
D03*
X171466Y-83878D02*
D03*
X186472Y-63341D02*
D03*
X186372Y-58741D02*
D03*
X184172Y-61041D02*
D03*
X210250Y-97562D02*
D03*
X302450Y-185362D02*
D03*
X299494Y-119006D02*
D03*
X294550Y-123862D02*
D03*
X298950Y-185362D02*
D03*
X293671Y-126683D02*
D03*
X319148Y-193960D02*
D03*
X312365Y-168762D02*
D03*
X312322Y-158862D02*
D03*
X291450Y-220662D02*
D03*
X287615Y-225198D02*
D03*
X231423Y-182690D02*
D03*
X263450Y-221062D02*
D03*
X262750Y-141262D02*
D03*
X320850Y-285062D02*
D03*
X287050Y-333362D02*
D03*
X283310Y-325562D02*
D03*
X290650Y-325562D02*
D03*
X319950Y-315562D02*
D03*
X319750Y-307362D02*
D03*
X300686Y-311827D02*
D03*
X304850Y-288862D02*
D03*
X323650Y-260262D02*
D03*
X292615Y-292962D02*
D03*
X307450Y-311462D02*
D03*
X309550Y-296962D02*
D03*
X286150Y-305462D02*
D03*
X261250Y-318962D02*
D03*
X308950Y-273662D02*
D03*
X298850Y-283762D02*
D03*
X311250Y-267362D02*
D03*
X312350Y-165462D02*
D03*
X304650Y-151962D02*
D03*
X319150Y-120662D02*
D03*
X203650Y-317562D02*
D03*
Y-302362D02*
D03*
X114910Y-313802D02*
D03*
X229150Y-258062D02*
D03*
X210550Y-265501D02*
D03*
X214093D02*
D03*
X210550Y-271801D02*
D03*
X230150Y-266778D02*
D03*
X228050Y-269062D02*
D03*
X198598Y-271115D02*
D03*
X201050Y-68062D02*
D03*
X120850Y-252662D02*
D03*
X196450Y-269262D02*
D03*
Y-266362D02*
D03*
X198450Y-264409D02*
D03*
X208750Y-221162D02*
D03*
X208300Y-254500D02*
D03*
X227050Y-248562D02*
D03*
X239250Y-172562D02*
D03*
X241350Y-191262D02*
D03*
X147428Y-182985D02*
D03*
X216150Y-247162D02*
D03*
X139250Y-264962D02*
D03*
X89850Y-22862D02*
D03*
X36550Y-35662D02*
D03*
X110350Y-90262D02*
D03*
X298350Y-94762D02*
D03*
X292750Y-93962D02*
D03*
X186650Y-297162D02*
D03*
X300750Y-76262D02*
D03*
X144350Y-272762D02*
D03*
X176750Y-229062D02*
D03*
X168850Y-243262D02*
D03*
X154748Y-296860D02*
D03*
X37376Y-256037D02*
D03*
X77650Y-256862D02*
D03*
X169250Y-150362D02*
D03*
X139150Y-25862D02*
D03*
X155450Y-282762D02*
D03*
X169250Y-282662D02*
D03*
X160750Y-310862D02*
D03*
X168650Y-311162D02*
D03*
X181650Y-282662D02*
D03*
X179050Y-285262D02*
D03*
X169150Y-285862D02*
D03*
X163850Y-285262D02*
D03*
X175952Y-278164D02*
D03*
X173668Y-276445D02*
D03*
X171350Y-278162D02*
D03*
X164150D02*
D03*
X162450Y-282662D02*
D03*
X101550Y-291262D02*
D03*
X75150Y-132862D02*
D03*
X71750Y-135262D02*
D03*
X161500Y-221300D02*
D03*
X172800Y-213500D02*
D03*
X132050Y-196262D02*
D03*
X129500Y-194300D02*
D03*
X163650Y-74262D02*
D03*
X155550Y-64162D02*
D03*
X166000Y-68500D02*
D03*
X156540Y-58972D02*
D03*
X29600Y-164200D02*
D03*
X161100Y-50000D02*
D03*
X155050Y-61362D02*
D03*
X158800Y-54700D02*
D03*
X174800Y-76400D02*
D03*
X172300Y-74100D02*
D03*
X224100Y-71600D02*
D03*
X227100Y-74500D02*
D03*
X269300Y-46800D02*
D03*
X245200Y-52700D02*
D03*
X258800Y-55000D02*
D03*
X207799Y-213494D02*
D03*
X207500Y-216400D02*
D03*
X166800Y-54200D02*
D03*
X164350Y-83962D02*
D03*
X73700Y-146800D02*
D03*
X50500Y-161400D02*
D03*
X31900Y-177700D02*
D03*
X40300Y-175100D02*
D03*
X152600Y-48700D02*
D03*
X266000Y-180700D02*
D03*
X265703Y-155514D02*
D03*
X143900Y-244000D02*
D03*
X174400Y-244600D02*
D03*
X145000Y-247900D02*
D03*
X274900Y-249600D02*
D03*
X173000Y-229200D02*
D03*
X207700Y-229500D02*
D03*
X143200Y-233900D02*
D03*
X172450Y-266662D02*
D03*
X131500Y-255400D02*
D03*
X101700Y-155600D02*
D03*
X97600Y-146600D02*
D03*
X73500Y-125100D02*
D03*
X99900Y-15200D02*
D03*
X115700Y-46500D02*
D03*
X138900Y-50600D02*
D03*
X148230Y-22242D02*
D03*
D86*
X162800Y-344700D02*
D03*
X184009Y-154404D02*
D03*
X227918Y-348694D02*
D03*
X86400Y-253712D02*
D03*
X111350Y-47862D02*
D03*
X136602Y-296880D02*
D03*
X124550Y-175462D02*
D03*
X50750Y-77662D02*
D03*
X97150Y-223062D02*
D03*
X99250Y-199762D02*
D03*
X48950Y-60062D02*
D03*
X36850Y-231962D02*
D03*
X323950Y-219962D02*
D03*
X121750Y-150162D02*
D03*
X79350Y-173762D02*
D03*
X321550Y-237662D02*
D03*
X211350Y-299662D02*
D03*
X194650Y-311162D02*
D03*
X179250Y-274162D02*
D03*
X146450Y-113962D02*
D03*
X118650Y-88262D02*
D03*
X160550Y-13662D02*
D03*
X373250Y-296462D02*
D03*
X144750Y-229762D02*
D03*
X126450Y-118862D02*
D03*
X79350Y-223362D02*
D03*
X79750Y-205062D02*
D03*
X19150Y-256962D02*
D03*
X38050Y-224962D02*
D03*
X164950Y-147762D02*
D03*
X103926Y-6638D02*
D03*
X108015Y-2798D02*
D03*
X166286Y-16627D02*
D03*
X193450Y-20562D02*
D03*
X185550Y-53262D02*
D03*
X311450Y-100962D02*
D03*
X49703Y-292015D02*
D03*
X75950Y-11962D02*
D03*
X65650Y-11762D02*
D03*
X195691Y-113422D02*
D03*
X226250Y-277362D02*
D03*
X188415Y-103898D02*
D03*
X188615Y-95827D02*
D03*
X301450Y-211262D02*
D03*
X279550Y-108762D02*
D03*
X298915Y-123427D02*
D03*
X281650Y-138062D02*
D03*
X295650Y-158362D02*
D03*
X306515Y-201898D02*
D03*
X275800Y-205312D02*
D03*
X306150Y-177462D02*
D03*
X283666Y-175946D02*
D03*
X294217Y-204196D02*
D03*
X283950Y-152662D02*
D03*
X294850Y-115362D02*
D03*
X293050Y-224462D02*
D03*
X304750Y-40362D02*
D03*
X318850Y-66762D02*
D03*
X232850Y-192827D02*
D03*
X287050Y-316762D02*
D03*
X304486Y-329598D02*
D03*
X304550Y-188562D02*
D03*
X307950Y-148162D02*
D03*
X78150Y-113962D02*
D03*
X22850Y-299662D02*
D03*
X184009Y-146530D02*
D03*
X111800Y-7113D02*
D03*
X113491Y-300302D02*
D03*
X276200Y-240413D02*
D03*
X128732Y-296880D02*
D03*
X155850Y-129762D02*
D03*
X191950Y-267662D02*
D03*
X213450Y-289662D02*
D03*
X323450Y-35862D02*
D03*
X368350Y-56762D02*
D03*
X320850Y-84362D02*
D03*
X160550Y-296662D02*
D03*
X102650Y-299562D02*
D03*
X315150Y-323462D02*
D03*
X35600Y-184700D02*
D03*
X39750Y-180662D02*
D03*
X236900Y-208800D02*
D03*
X284100Y-244100D02*
D03*
X149200Y-244700D02*
D03*
X168950Y-268762D02*
D03*
D90*
X270000Y-282500D02*
D03*
Y-82500D02*
D03*
D91*
X125800Y-60000D02*
D03*
D92*
X79560Y-25478D02*
D03*
X62040D02*
D03*
X162360Y-337622D02*
D03*
X144840D02*
D03*
X62040Y-25478D02*
D03*
X79560D02*
D03*
X231660Y-337622D02*
D03*
X214140D02*
D03*
D93*
X316304Y-277000D02*
D03*
X289296D02*
D03*
D94*
X285000Y-61500D02*
D03*
Y-41500D02*
D03*
X265000D02*
D03*
Y-61500D02*
D03*
D95*
X223800Y-55000D02*
D03*
X88800D02*
D03*
X223700Y-310000D02*
D03*
X88800D02*
D03*
D96*
X204250Y-326000D02*
D03*
X195000Y-330962D02*
D03*
X175250D02*
D03*
X73936Y-315895D02*
D03*
X165375Y-330962D02*
D03*
X160550Y-351260D02*
D03*
X113306Y-241092D02*
D03*
X34200Y-173100D02*
D03*
X61750Y-61463D02*
D03*
X152250Y-94262D02*
D03*
X160438Y-325962D02*
D03*
X244350Y-33462D02*
D03*
X249250Y-38462D02*
D03*
X254250Y-33462D02*
D03*
X234450D02*
D03*
X239400Y-38462D02*
D03*
X204750Y-33462D02*
D03*
X209700Y-38462D02*
D03*
X214650Y-33462D02*
D03*
X219600Y-38462D02*
D03*
X184950Y-33462D02*
D03*
X189900Y-38462D02*
D03*
X194850Y-33462D02*
D03*
X199800Y-38462D02*
D03*
X165150Y-33462D02*
D03*
X175050D02*
D03*
X180000Y-38462D02*
D03*
X145350Y-33462D02*
D03*
X150300Y-38462D02*
D03*
X155250Y-33462D02*
D03*
X160200Y-38462D02*
D03*
X135450Y-33462D02*
D03*
X90900Y-38462D02*
D03*
X81000D02*
D03*
X249250Y-47887D02*
D03*
X254250Y-42912D02*
D03*
X249250Y-67787D02*
D03*
X254250Y-62812D02*
D03*
X249250Y-57837D02*
D03*
X254250Y-82712D02*
D03*
X249250Y-77737D02*
D03*
X254250Y-72762D02*
D03*
X249250Y-107587D02*
D03*
Y-127487D02*
D03*
X254250Y-122512D02*
D03*
X249250Y-117537D02*
D03*
X254250Y-112562D02*
D03*
X249250Y-147387D02*
D03*
X254250Y-142412D02*
D03*
X249250Y-137437D02*
D03*
X254250Y-132462D02*
D03*
X249250Y-167287D02*
D03*
X254250Y-152362D02*
D03*
X249250Y-187187D02*
D03*
X254250Y-182212D02*
D03*
X249250Y-177237D02*
D03*
X254250Y-172262D02*
D03*
X249250Y-207087D02*
D03*
X254250Y-202112D02*
D03*
X249250Y-197137D02*
D03*
X254250Y-192162D02*
D03*
X249250Y-226987D02*
D03*
X254250Y-222012D02*
D03*
X249250Y-217037D02*
D03*
X254250Y-212062D02*
D03*
X249250Y-246887D02*
D03*
X254250Y-241912D02*
D03*
X249250Y-236937D02*
D03*
X254250Y-231962D02*
D03*
Y-251862D02*
D03*
X249250Y-286687D02*
D03*
X254250Y-281712D02*
D03*
X249250Y-276737D02*
D03*
X254250Y-271762D02*
D03*
X249250Y-306587D02*
D03*
X254250Y-301612D02*
D03*
X249250Y-296637D02*
D03*
X254250Y-291662D02*
D03*
X249250Y-325962D02*
D03*
X254250Y-321512D02*
D03*
X249250Y-316537D02*
D03*
X254250Y-311562D02*
D03*
Y-330962D02*
D03*
X229563Y-325962D02*
D03*
X234500Y-330962D02*
D03*
X239438Y-325962D02*
D03*
X244375Y-330962D02*
D03*
X219688Y-325962D02*
D03*
X224625Y-330962D02*
D03*
X190063Y-325962D02*
D03*
X170313D02*
D03*
X180188D02*
D03*
X185125Y-330962D02*
D03*
X150563Y-325962D02*
D03*
X155500Y-330962D02*
D03*
X130813Y-325962D02*
D03*
X135750Y-330962D02*
D03*
X111063Y-325962D02*
D03*
X116000Y-330962D02*
D03*
X120938Y-325962D02*
D03*
X125875Y-330962D02*
D03*
X96250D02*
D03*
X101188Y-325962D02*
D03*
X106125Y-330962D02*
D03*
X71563Y-325962D02*
D03*
X76500Y-330962D02*
D03*
X86375D02*
D03*
X56750D02*
D03*
X61688Y-325995D02*
D03*
X66625Y-330962D02*
D03*
X61750Y-316062D02*
D03*
X56750Y-321029D02*
D03*
Y-301162D02*
D03*
X61750Y-306129D02*
D03*
X56750Y-261429D02*
D03*
Y-271362D02*
D03*
X61750Y-236596D02*
D03*
X56750Y-241562D02*
D03*
X61750Y-246529D02*
D03*
X56750Y-251496D02*
D03*
X61750Y-216729D02*
D03*
X56750Y-221696D02*
D03*
X61750Y-226662D02*
D03*
X56750Y-231629D02*
D03*
X61750Y-196862D02*
D03*
X56750Y-201829D02*
D03*
X61750Y-206796D02*
D03*
X56750Y-211762D02*
D03*
X61750Y-176996D02*
D03*
Y-186929D02*
D03*
X56750Y-191896D02*
D03*
X61750Y-157129D02*
D03*
X56750Y-162096D02*
D03*
X61750Y-167062D02*
D03*
Y-137262D02*
D03*
Y-147196D02*
D03*
X56750Y-122362D02*
D03*
X61750Y-127329D02*
D03*
Y-75163D02*
D03*
X56750Y-70196D02*
D03*
X61750Y-48362D02*
D03*
X56750Y-43396D02*
D03*
X61750Y-38462D02*
D03*
X56750Y-33463D02*
D03*
X249250Y-87687D02*
D03*
X24923Y-197785D02*
D03*
X36734D02*
D03*
X30828Y-203691D02*
D03*
X24923Y-209596D02*
D03*
X36734D02*
D03*
X42639Y-203691D02*
D03*
X30828Y-191879D02*
D03*
X292439Y-245029D02*
D03*
X304250D02*
D03*
X292439Y-256840D02*
D03*
X304250D02*
D03*
X316061Y-252903D02*
D03*
Y-237155D02*
D03*
X260943Y-69832D02*
D03*
X221573Y-119045D02*
D03*
Y-128887D02*
D03*
X211731Y-119045D02*
D03*
X201888D02*
D03*
Y-99360D02*
D03*
X192046D02*
D03*
X231416Y-128887D02*
D03*
Y-138730D02*
D03*
X152676Y-109202D02*
D03*
X132991Y-40305D02*
D03*
X172361Y-10777D02*
D03*
X182203D02*
D03*
X192046D02*
D03*
X201888D02*
D03*
X211731D02*
D03*
X319999Y-99360D02*
D03*
Y-109202D02*
D03*
X369211Y-50147D02*
D03*
Y-99360D02*
D03*
Y-109202D02*
D03*
X280628Y-187943D02*
D03*
X235353Y-221407D02*
D03*
Y-164320D02*
D03*
Y-154478D02*
D03*
X164487Y-134793D02*
D03*
X225510Y-225344D02*
D03*
X129054Y-241092D02*
D03*
X113306Y-280462D02*
D03*
X125117Y-284399D02*
D03*
X74250Y-295362D02*
D03*
X73936Y-306053D02*
D03*
X284565Y-292273D02*
D03*
X127085Y-124950D02*
D03*
X119211Y-75738D02*
D03*
X97557Y-69832D02*
D03*
X73936Y-118945D02*
D03*
X99526Y-227312D02*
D03*
X129450Y-251662D02*
D03*
X98750Y-296462D02*
D03*
X244250Y-82712D02*
D03*
Y-62812D02*
D03*
X239275Y-57812D02*
D03*
M02*
