G04 Layer_Color=8388736*
%FSLAX25Y25*%
%MOIN*%
G70*
G01*
G75*
%ADD10R,0.03976X0.01150*%
%ADD11R,0.06890X0.11594*%
%ADD12R,0.05315X0.04134*%
%ADD15O,0.05512X0.01100*%
%ADD16R,0.02800X0.10236*%
%ADD17R,0.04800X0.07087*%
%ADD18R,0.10236X0.02800*%
%ADD19R,0.07087X0.04800*%
%ADD20R,0.05551X0.03583*%
%ADD21R,0.03937X0.05709*%
%ADD22R,0.05709X0.03937*%
%ADD24R,0.08858X0.10039*%
%ADD26R,0.10039X0.08858*%
%ADD27R,0.02165X0.05906*%
%ADD28R,0.01575X0.05315*%
%ADD31R,0.01600X0.04150*%
%ADD32R,0.03740X0.03150*%
%ADD33R,0.03583X0.05551*%
%ADD35R,0.04134X0.05315*%
%ADD36R,0.04134X0.07874*%
%ADD37R,0.29724X0.29134*%
%ADD38O,0.01100X0.05512*%
%ADD39R,0.07874X0.04134*%
%ADD40R,0.29134X0.29724*%
%ADD41O,0.05709X0.02362*%
%ADD43R,0.08661X0.04134*%
%ADD44R,0.04134X0.04134*%
%ADD45R,0.03500X0.05500*%
%ADD54R,0.29995X0.25000*%
%ADD55R,0.30005X0.25000*%
%ADD56C,0.05906*%
%ADD57C,0.25000*%
%ADD58C,0.28000*%
%ADD59C,0.10000*%
%ADD60C,0.04921*%
%ADD61C,0.04000*%
%ADD62R,0.07000X0.07000*%
%ADD63C,0.07874*%
%ADD64C,0.05118*%
%ADD65C,0.06693*%
%ADD66C,0.03000*%
%ADD121R,0.04337X0.03543*%
%ADD122R,0.06112X0.05324*%
%ADD123R,0.03543X0.04337*%
%ADD124R,0.02841X0.02841*%
%ADD125R,0.16839X0.03059*%
%ADD126R,0.08177X0.02665*%
%ADD127R,0.04140X0.03310*%
%ADD128O,0.05515X0.01800*%
G36*
X164339Y39351D02*
X164558Y39333D01*
X164667D01*
X164758Y39315D01*
X164959Y39297D01*
X165195Y39260D01*
X165250D01*
X165323Y39242D01*
X165396D01*
X165596Y39206D01*
X165833Y39169D01*
X165888D01*
X165961Y39151D01*
X166033Y39133D01*
X166234Y39096D01*
X166434Y39060D01*
Y37748D01*
X166398D01*
X166325Y37784D01*
X166198Y37803D01*
X166033Y37839D01*
X165851Y37876D01*
X165633Y37930D01*
X165159Y38003D01*
X165141D01*
X165050Y38021D01*
X164940Y38039D01*
X164776Y38058D01*
X164594Y38076D01*
X164375Y38094D01*
X163938Y38112D01*
X163738D01*
X163519Y38094D01*
X163246Y38058D01*
X162936Y38003D01*
X162626Y37930D01*
X162353Y37821D01*
X162098Y37675D01*
X162080Y37657D01*
X162007Y37602D01*
X161916Y37511D01*
X161806Y37384D01*
X161697Y37220D01*
X161606Y37019D01*
X161533Y36801D01*
X161515Y36545D01*
Y36527D01*
Y36473D01*
X161533Y36400D01*
X161551Y36290D01*
X161624Y36053D01*
X161679Y35926D01*
X161752Y35798D01*
X161770Y35780D01*
X161788Y35744D01*
X161843Y35689D01*
X161916Y35616D01*
X162116Y35434D01*
X162371Y35234D01*
X162390Y35215D01*
X162444Y35197D01*
X162517Y35142D01*
X162645Y35088D01*
X162772Y35015D01*
X162918Y34942D01*
X163282Y34796D01*
X163301D01*
X163373Y34760D01*
X163464Y34723D01*
X163610Y34669D01*
X163756Y34614D01*
X163920Y34541D01*
X164303Y34377D01*
X164321D01*
X164394Y34341D01*
X164503Y34304D01*
X164631Y34250D01*
X164795Y34177D01*
X164959Y34104D01*
X165341Y33922D01*
X165359Y33904D01*
X165432Y33885D01*
X165523Y33831D01*
X165651Y33758D01*
X165942Y33557D01*
X166234Y33321D01*
X166252Y33302D01*
X166307Y33266D01*
X166380Y33193D01*
X166471Y33084D01*
X166562Y32974D01*
X166671Y32829D01*
X166872Y32501D01*
X166890Y32482D01*
X166908Y32410D01*
X166945Y32318D01*
X166999Y32191D01*
X167054Y32027D01*
X167090Y31826D01*
X167109Y31626D01*
X167127Y31389D01*
Y31353D01*
Y31262D01*
X167109Y31116D01*
X167090Y30934D01*
X167054Y30733D01*
X166981Y30496D01*
X166908Y30259D01*
X166799Y30041D01*
X166780Y30023D01*
X166744Y29950D01*
X166671Y29840D01*
X166580Y29713D01*
X166453Y29567D01*
X166307Y29403D01*
X166125Y29239D01*
X165924Y29094D01*
X165906Y29075D01*
X165833Y29039D01*
X165706Y28966D01*
X165560Y28875D01*
X165359Y28784D01*
X165141Y28693D01*
X164886Y28602D01*
X164594Y28529D01*
X164558D01*
X164467Y28492D01*
X164303Y28474D01*
X164084Y28438D01*
X163829Y28401D01*
X163537Y28383D01*
X163209Y28346D01*
X162608D01*
X162462Y28365D01*
X162335D01*
X162007Y28383D01*
X161934D01*
X161861Y28401D01*
X161752D01*
X161497Y28438D01*
X161205Y28474D01*
X161132D01*
X161059Y28492D01*
X160968D01*
X160731Y28529D01*
X160476Y28565D01*
X160458D01*
X160422Y28583D01*
X160349Y28602D01*
X160276Y28620D01*
X160076Y28674D01*
X159857Y28729D01*
Y30132D01*
X159893Y30114D01*
X159966Y30095D01*
X160094Y30059D01*
X160258Y30005D01*
X160458Y29932D01*
X160695Y29877D01*
X160950Y29822D01*
X161223Y29768D01*
X161260D01*
X161351Y29749D01*
X161515Y29731D01*
X161734Y29713D01*
X161989Y29676D01*
X162280Y29658D01*
X162608Y29640D01*
X163228D01*
X163392Y29658D01*
X163574D01*
X163774Y29695D01*
X163975Y29713D01*
X164175Y29749D01*
X164193D01*
X164266Y29768D01*
X164339Y29804D01*
X164467Y29822D01*
X164722Y29932D01*
X164977Y30059D01*
X164995Y30077D01*
X165031Y30095D01*
X165086Y30150D01*
X165159Y30205D01*
X165323Y30369D01*
X165451Y30588D01*
Y30606D01*
X165469Y30642D01*
X165505Y30715D01*
X165523Y30806D01*
X165560Y30915D01*
X165578Y31043D01*
X165596Y31316D01*
Y31334D01*
Y31389D01*
X165578Y31462D01*
X165560Y31571D01*
X165487Y31808D01*
X165432Y31918D01*
X165341Y32045D01*
X165323Y32063D01*
X165305Y32100D01*
X165250Y32154D01*
X165177Y32227D01*
X165086Y32318D01*
X164977Y32410D01*
X164703Y32592D01*
X164685Y32610D01*
X164631Y32628D01*
X164558Y32683D01*
X164448Y32737D01*
X164321Y32810D01*
X164175Y32883D01*
X163811Y33047D01*
X163792Y33065D01*
X163720Y33084D01*
X163628Y33120D01*
X163483Y33175D01*
X163337Y33229D01*
X163155Y33302D01*
X162772Y33448D01*
X162754Y33466D01*
X162681Y33485D01*
X162590Y33539D01*
X162462Y33594D01*
X162298Y33667D01*
X162134Y33740D01*
X161752Y33922D01*
X161734Y33940D01*
X161661Y33976D01*
X161570Y34013D01*
X161442Y34086D01*
X161314Y34177D01*
X161151Y34268D01*
X160841Y34505D01*
X160823Y34523D01*
X160786Y34559D01*
X160713Y34632D01*
X160622Y34742D01*
X160531Y34851D01*
X160422Y34997D01*
X160221Y35307D01*
X160203Y35325D01*
X160185Y35398D01*
X160148Y35489D01*
X160112Y35616D01*
X160057Y35780D01*
X160021Y35962D01*
X160003Y36181D01*
X159985Y36400D01*
Y36418D01*
Y36491D01*
X160003Y36600D01*
X160021Y36746D01*
X160039Y36910D01*
X160076Y37092D01*
X160130Y37293D01*
X160203Y37493D01*
X160221Y37511D01*
X160240Y37584D01*
X160312Y37675D01*
X160385Y37803D01*
X160476Y37948D01*
X160604Y38112D01*
X160750Y38276D01*
X160914Y38440D01*
X160932Y38458D01*
X161005Y38513D01*
X161114Y38586D01*
X161260Y38677D01*
X161424Y38787D01*
X161643Y38896D01*
X161879Y39005D01*
X162153Y39114D01*
X162189Y39133D01*
X162298Y39151D01*
X162444Y39187D01*
X162663Y39242D01*
X162936Y39297D01*
X163246Y39333D01*
X163592Y39351D01*
X163975Y39369D01*
X164157D01*
X164339Y39351D01*
D02*
G37*
G36*
X194548Y28492D02*
X193254D01*
X193200Y30041D01*
Y30023D01*
X193181Y30005D01*
X193090Y29895D01*
X192981Y29749D01*
X192817Y29549D01*
X192616Y29348D01*
X192398Y29130D01*
X192161Y28929D01*
X191906Y28747D01*
X191869Y28729D01*
X191778Y28693D01*
X191651Y28620D01*
X191450Y28547D01*
X191232Y28474D01*
X190977Y28401D01*
X190703Y28365D01*
X190394Y28346D01*
X190284D01*
X190139Y28365D01*
X189975Y28383D01*
X189792Y28419D01*
X189574Y28474D01*
X189373Y28547D01*
X189155Y28638D01*
X189137Y28656D01*
X189064Y28693D01*
X188972Y28765D01*
X188845Y28857D01*
X188699Y28966D01*
X188553Y29112D01*
X188408Y29276D01*
X188262Y29458D01*
X188244Y29476D01*
X188207Y29549D01*
X188134Y29676D01*
X188061Y29822D01*
X187970Y30023D01*
X187879Y30241D01*
X187788Y30478D01*
X187715Y30751D01*
Y30788D01*
X187697Y30879D01*
X187661Y31043D01*
X187642Y31243D01*
X187606Y31499D01*
X187569Y31790D01*
X187551Y32100D01*
Y32428D01*
Y32446D01*
Y32482D01*
Y32537D01*
Y32610D01*
X187569Y32792D01*
X187588Y33047D01*
X187624Y33339D01*
X187661Y33648D01*
X187733Y33976D01*
X187825Y34286D01*
Y34304D01*
X187843Y34323D01*
X187879Y34432D01*
X187952Y34578D01*
X188043Y34760D01*
X188153Y34979D01*
X188298Y35215D01*
X188462Y35452D01*
X188645Y35671D01*
X188663Y35689D01*
X188736Y35762D01*
X188845Y35871D01*
X189009Y35999D01*
X189191Y36126D01*
X189410Y36272D01*
X189647Y36400D01*
X189920Y36527D01*
X189956Y36545D01*
X190048Y36582D01*
X190211Y36618D01*
X190412Y36673D01*
X190649Y36728D01*
X190940Y36782D01*
X191250Y36801D01*
X191578Y36819D01*
X191815D01*
X192070Y36801D01*
X192343Y36764D01*
X192361D01*
X192416Y36746D01*
X192489D01*
X192580Y36728D01*
X192835Y36673D01*
X193108Y36600D01*
Y40080D01*
X194548D01*
Y28492D01*
D02*
G37*
G36*
X238294Y36855D02*
X238476D01*
X238895Y36819D01*
X238913D01*
X239005Y36801D01*
X239114D01*
X239278Y36782D01*
X239460Y36746D01*
X239661Y36728D01*
X239897Y36673D01*
X240134Y36636D01*
Y35361D01*
X240098D01*
X240025Y35398D01*
X239897Y35416D01*
X239715Y35452D01*
X239533Y35489D01*
X239314Y35525D01*
X238859Y35598D01*
X238841D01*
X238750Y35616D01*
X238640Y35634D01*
X238494Y35653D01*
X238331D01*
X238166Y35671D01*
X237802Y35689D01*
X237620D01*
X237492Y35671D01*
X237201Y35653D01*
X236909Y35598D01*
X236891D01*
X236855Y35580D01*
X236782Y35561D01*
X236691Y35543D01*
X236508Y35452D01*
X236308Y35361D01*
X236272Y35343D01*
X236180Y35270D01*
X236089Y35161D01*
X235998Y35033D01*
X235980Y34997D01*
X235962Y34906D01*
X235925Y34778D01*
X235907Y34614D01*
Y34596D01*
Y34578D01*
X235925Y34487D01*
X235944Y34359D01*
X235980Y34213D01*
X235998Y34177D01*
X236053Y34104D01*
X236162Y33995D01*
X236308Y33867D01*
X236326D01*
X236345Y33831D01*
X236399Y33812D01*
X236472Y33758D01*
X236581Y33703D01*
X236691Y33648D01*
X236818Y33594D01*
X236964Y33521D01*
X236982D01*
X237037Y33485D01*
X237128Y33466D01*
X237256Y33412D01*
X237420Y33357D01*
X237602Y33302D01*
X237802Y33248D01*
X238039Y33175D01*
X238075Y33156D01*
X238166Y33138D01*
X238294Y33102D01*
X238476Y33029D01*
X238677Y32974D01*
X238877Y32883D01*
X239077Y32810D01*
X239278Y32719D01*
X239296Y32701D01*
X239369Y32683D01*
X239442Y32628D01*
X239569Y32574D01*
X239825Y32391D01*
X240080Y32191D01*
X240098Y32173D01*
X240134Y32136D01*
X240189Y32081D01*
X240262Y32009D01*
X240407Y31808D01*
X240480Y31681D01*
X240535Y31553D01*
Y31535D01*
X240553Y31499D01*
X240590Y31407D01*
X240608Y31316D01*
X240644Y31189D01*
X240663Y31061D01*
X240681Y30733D01*
Y30715D01*
Y30660D01*
Y30569D01*
X240663Y30478D01*
X240608Y30223D01*
X240517Y29950D01*
Y29932D01*
X240499Y29895D01*
X240462Y29822D01*
X240407Y29749D01*
X240280Y29549D01*
X240116Y29330D01*
X240098Y29312D01*
X240080Y29294D01*
X240025Y29239D01*
X239952Y29185D01*
X239752Y29039D01*
X239515Y28875D01*
X239496D01*
X239460Y28838D01*
X239387Y28820D01*
X239296Y28765D01*
X239077Y28674D01*
X238804Y28583D01*
X238786D01*
X238750Y28565D01*
X238658Y28547D01*
X238567Y28529D01*
X238458Y28492D01*
X238312Y28474D01*
X238021Y28419D01*
X238002D01*
X237948Y28401D01*
X237875D01*
X237766Y28383D01*
X237529Y28365D01*
X237237Y28346D01*
X236928D01*
X236727Y28365D01*
X236490D01*
X236235Y28383D01*
X235689Y28419D01*
X235652D01*
X235579Y28438D01*
X235434Y28456D01*
X235269Y28474D01*
X235051Y28510D01*
X234832Y28547D01*
X234340Y28656D01*
Y29968D01*
X234377D01*
X234468Y29932D01*
X234595Y29895D01*
X234778Y29840D01*
X234996Y29786D01*
X235233Y29731D01*
X235761Y29640D01*
X235798D01*
X235889Y29622D01*
X236017Y29604D01*
X236199D01*
X236417Y29585D01*
X236654Y29567D01*
X237183Y29549D01*
X237347D01*
X237529Y29567D01*
X237747Y29585D01*
X238002Y29622D01*
X238258Y29658D01*
X238494Y29731D01*
X238695Y29822D01*
X238713Y29840D01*
X238768Y29877D01*
X238859Y29932D01*
X238950Y30023D01*
X239041Y30132D01*
X239132Y30278D01*
X239187Y30442D01*
X239205Y30624D01*
Y30642D01*
Y30660D01*
X239187Y30751D01*
X239169Y30879D01*
X239114Y31007D01*
X239096Y31043D01*
X239059Y31116D01*
X238968Y31225D01*
X238822Y31353D01*
X238786Y31389D01*
X238731Y31407D01*
X238677Y31462D01*
X238585Y31499D01*
X238476Y31553D01*
X238331Y31626D01*
X238185Y31681D01*
X238166D01*
X238112Y31717D01*
X238021Y31754D01*
X237875Y31808D01*
X237711Y31863D01*
X237511Y31936D01*
X237292Y32009D01*
X237019Y32081D01*
X237000D01*
X236928Y32118D01*
X236818Y32136D01*
X236691Y32191D01*
X236527Y32245D01*
X236363Y32300D01*
X235998Y32446D01*
X235980Y32464D01*
X235925Y32482D01*
X235834Y32537D01*
X235725Y32592D01*
X235452Y32737D01*
X235178Y32938D01*
X235160Y32956D01*
X235124Y32993D01*
X235051Y33047D01*
X234978Y33138D01*
X234796Y33339D01*
X234632Y33612D01*
Y33630D01*
X234595Y33685D01*
X234577Y33758D01*
X234541Y33867D01*
X234504Y33995D01*
X234486Y34159D01*
X234450Y34341D01*
Y34523D01*
Y34541D01*
Y34578D01*
Y34650D01*
X234468Y34742D01*
X234486Y34851D01*
X234504Y34979D01*
X234595Y35270D01*
Y35288D01*
X234632Y35343D01*
X234668Y35416D01*
X234723Y35525D01*
X234796Y35634D01*
X234887Y35762D01*
X235014Y35908D01*
X235142Y36035D01*
X235160Y36053D01*
X235215Y36090D01*
X235306Y36163D01*
X235415Y36254D01*
X235561Y36345D01*
X235743Y36436D01*
X235944Y36545D01*
X236180Y36636D01*
X236217Y36655D01*
X236308Y36673D01*
X236436Y36709D01*
X236636Y36764D01*
X236873Y36801D01*
X237146Y36837D01*
X237474Y36855D01*
X237820Y36873D01*
X238148D01*
X238294Y36855D01*
D02*
G37*
G36*
X146210D02*
X146374Y36837D01*
X146574Y36801D01*
X146775Y36746D01*
X146994Y36673D01*
X147194Y36564D01*
X147212Y36545D01*
X147285Y36509D01*
X147376Y36436D01*
X147504Y36345D01*
X147650Y36236D01*
X147795Y36090D01*
X147941Y35926D01*
X148087Y35726D01*
X148105Y35707D01*
X148142Y35634D01*
X148214Y35525D01*
X148287Y35361D01*
X148378Y35179D01*
X148469Y34960D01*
X148561Y34705D01*
X148633Y34432D01*
Y34396D01*
X148670Y34304D01*
X148688Y34140D01*
X148724Y33940D01*
X148761Y33703D01*
X148779Y33412D01*
X148816Y33102D01*
Y32756D01*
Y32737D01*
Y32701D01*
Y32646D01*
Y32574D01*
X148797Y32355D01*
X148779Y32100D01*
X148743Y31790D01*
X148688Y31480D01*
X148615Y31152D01*
X148506Y30824D01*
X148488Y30788D01*
X148451Y30697D01*
X148378Y30551D01*
X148287Y30351D01*
X148160Y30150D01*
X148014Y29913D01*
X147850Y29695D01*
X147650Y29476D01*
X147631Y29458D01*
X147558Y29385D01*
X147431Y29294D01*
X147285Y29166D01*
X147103Y29039D01*
X146866Y28893D01*
X146629Y28765D01*
X146356Y28656D01*
X146319Y28638D01*
X146228Y28620D01*
X146083Y28583D01*
X145882Y28529D01*
X145645Y28474D01*
X145372Y28438D01*
X145080Y28419D01*
X144771Y28401D01*
X144516D01*
X144279Y28419D01*
X143987Y28456D01*
X143914D01*
X143842Y28474D01*
X143750Y28492D01*
X143623D01*
X143495Y28510D01*
X143204Y28565D01*
Y25122D01*
X141783D01*
Y36728D01*
X143040D01*
X143131Y35343D01*
Y35361D01*
X143167Y35379D01*
X143240Y35489D01*
X143368Y35634D01*
X143532Y35798D01*
X143732Y35999D01*
X143951Y36199D01*
X144188Y36382D01*
X144443Y36527D01*
X144479Y36545D01*
X144570Y36582D01*
X144698Y36636D01*
X144898Y36709D01*
X145117Y36764D01*
X145372Y36819D01*
X145663Y36855D01*
X145955Y36873D01*
X146083D01*
X146210Y36855D01*
D02*
G37*
G36*
X211201D02*
X211292D01*
X211420Y36837D01*
X211711Y36764D01*
X212021Y36673D01*
X212331Y36527D01*
X212640Y36309D01*
X212786Y36181D01*
X212914Y36035D01*
X212950Y35999D01*
X212968Y35944D01*
X213023Y35890D01*
X213059Y35798D01*
X213114Y35689D01*
X213187Y35561D01*
X213242Y35416D01*
X213296Y35252D01*
X213351Y35088D01*
X213405Y34887D01*
X213460Y34669D01*
X213497Y34414D01*
X213515Y34159D01*
X213533Y33885D01*
Y33594D01*
X212094D01*
Y33612D01*
Y33648D01*
Y33703D01*
Y33776D01*
X212075Y33958D01*
X212057Y34177D01*
X212021Y34432D01*
X211966Y34687D01*
X211875Y34942D01*
X211766Y35142D01*
X211748Y35161D01*
X211711Y35215D01*
X211620Y35307D01*
X211511Y35398D01*
X211365Y35470D01*
X211201Y35561D01*
X211000Y35616D01*
X210764Y35634D01*
X210654D01*
X210600Y35616D01*
X210417Y35598D01*
X210199Y35525D01*
X210181D01*
X210144Y35507D01*
X210089Y35489D01*
X210017Y35452D01*
X209816Y35343D01*
X209597Y35197D01*
X209579Y35179D01*
X209543Y35161D01*
X209488Y35106D01*
X209397Y35051D01*
X209197Y34851D01*
X208942Y34614D01*
X208923Y34596D01*
X208887Y34559D01*
X208814Y34487D01*
X208723Y34377D01*
X208614Y34250D01*
X208486Y34122D01*
X208359Y33958D01*
X208213Y33776D01*
Y28492D01*
X206773D01*
Y36728D01*
X208067D01*
X208103Y35197D01*
Y35215D01*
X208140Y35234D01*
X208231Y35343D01*
X208377Y35489D01*
X208559Y35689D01*
X208778Y35890D01*
X209015Y36108D01*
X209270Y36309D01*
X209543Y36473D01*
X209579Y36491D01*
X209670Y36527D01*
X209798Y36600D01*
X209998Y36673D01*
X210199Y36746D01*
X210454Y36819D01*
X210709Y36855D01*
X210982Y36873D01*
X211110D01*
X211201Y36855D01*
D02*
G37*
G36*
X221550D02*
X221641Y36837D01*
X221768Y36801D01*
X221896Y36746D01*
X222042Y36673D01*
X222187Y36582D01*
X222333Y36454D01*
X222479Y36290D01*
X222607Y36090D01*
X222734Y35871D01*
X222825Y35598D01*
X222898Y35270D01*
X222953Y34906D01*
X222971Y34487D01*
Y28492D01*
X221550D01*
Y34396D01*
Y34414D01*
Y34468D01*
Y34523D01*
Y34614D01*
X221532Y34815D01*
X221513Y35015D01*
Y35033D01*
Y35051D01*
X221495Y35161D01*
X221477Y35288D01*
X221422Y35416D01*
X221404Y35434D01*
X221386Y35489D01*
X221331Y35561D01*
X221276Y35616D01*
X221258Y35634D01*
X221222Y35653D01*
X221149Y35671D01*
X221058Y35689D01*
X221040D01*
X220967Y35671D01*
X220876Y35653D01*
X220766Y35580D01*
X220748Y35561D01*
X220693Y35507D01*
X220602Y35398D01*
X220493Y35252D01*
Y35234D01*
X220475Y35215D01*
X220438Y35161D01*
X220402Y35106D01*
X220293Y34906D01*
X220165Y34669D01*
Y34650D01*
X220129Y34596D01*
X220092Y34523D01*
X220038Y34414D01*
X219983Y34286D01*
X219910Y34140D01*
X219837Y33958D01*
X219746Y33776D01*
Y28492D01*
X218325D01*
Y34250D01*
Y34268D01*
Y34323D01*
Y34396D01*
Y34505D01*
X218307Y34742D01*
X218288Y34960D01*
Y34979D01*
Y35015D01*
X218270Y35124D01*
X218252Y35270D01*
X218197Y35398D01*
X218179Y35416D01*
X218161Y35489D01*
X218106Y35561D01*
X218052Y35616D01*
X218033Y35634D01*
X217997Y35653D01*
X217924Y35671D01*
X217833Y35689D01*
X217815D01*
X217742Y35671D01*
X217651Y35653D01*
X217560Y35598D01*
X217541Y35580D01*
X217487Y35525D01*
X217396Y35434D01*
X217286Y35288D01*
X217268Y35252D01*
X217195Y35142D01*
X217086Y34960D01*
X216958Y34723D01*
Y34705D01*
X216922Y34650D01*
X216885Y34578D01*
X216831Y34468D01*
X216776Y34341D01*
X216703Y34177D01*
X216612Y33976D01*
X216521Y33776D01*
Y28492D01*
X215100D01*
Y36728D01*
X216266D01*
X216339Y35161D01*
X216357Y35179D01*
X216375Y35234D01*
X216412Y35325D01*
X216466Y35434D01*
X216612Y35689D01*
X216758Y35944D01*
X216776Y35962D01*
X216794Y35999D01*
X216831Y36053D01*
X216885Y36126D01*
X217013Y36309D01*
X217177Y36473D01*
X217195Y36491D01*
X217214Y36509D01*
X217323Y36582D01*
X217469Y36673D01*
X217633Y36764D01*
X217651D01*
X217669Y36782D01*
X217796Y36819D01*
X217961Y36855D01*
X218161Y36873D01*
X218270D01*
X218398Y36855D01*
X218544Y36819D01*
X218707Y36764D01*
X218871Y36691D01*
X219036Y36582D01*
X219181Y36436D01*
X219199Y36418D01*
X219236Y36363D01*
X219291Y36254D01*
X219363Y36108D01*
X219418Y35908D01*
X219473Y35689D01*
X219509Y35416D01*
X219527Y35088D01*
X219546Y35106D01*
X219564Y35161D01*
X219600Y35234D01*
X219655Y35343D01*
X219782Y35580D01*
X219910Y35835D01*
Y35853D01*
X219947Y35890D01*
X219983Y35962D01*
X220038Y36035D01*
X220165Y36217D01*
X220311Y36400D01*
X220329Y36418D01*
X220347Y36436D01*
X220457Y36527D01*
X220602Y36636D01*
X220785Y36746D01*
X220803D01*
X220839Y36764D01*
X220894Y36782D01*
X220967Y36819D01*
X221167Y36855D01*
X221404Y36873D01*
X221477D01*
X221550Y36855D01*
D02*
G37*
G36*
X244999Y32956D02*
X248698Y36728D01*
X250592D01*
X246730Y32920D01*
X250811Y28492D01*
X248843D01*
X244999Y32901D01*
Y28492D01*
X243578D01*
Y40080D01*
X244999D01*
Y32956D01*
D02*
G37*
G36*
X228729Y36855D02*
X228929Y36837D01*
X229166Y36801D01*
X229621Y36709D01*
X229640D01*
X229731Y36673D01*
X229840Y36636D01*
X229967Y36582D01*
X230132Y36509D01*
X230295Y36418D01*
X230459Y36327D01*
X230623Y36199D01*
X230642Y36181D01*
X230696Y36145D01*
X230769Y36072D01*
X230860Y35981D01*
X230970Y35853D01*
X231079Y35707D01*
X231170Y35543D01*
X231261Y35361D01*
X231279Y35343D01*
X231297Y35270D01*
X231334Y35161D01*
X231389Y35015D01*
X231425Y34851D01*
X231462Y34632D01*
X231480Y34414D01*
X231498Y34159D01*
Y28492D01*
X230204D01*
X230168Y29585D01*
X230132Y29549D01*
X230059Y29476D01*
X229913Y29367D01*
X229749Y29221D01*
X229530Y29075D01*
X229312Y28911D01*
X229057Y28765D01*
X228801Y28638D01*
X228765Y28620D01*
X228674Y28602D01*
X228546Y28547D01*
X228364Y28492D01*
X228146Y28438D01*
X227890Y28401D01*
X227635Y28365D01*
X227344Y28346D01*
X227235D01*
X227107Y28365D01*
X226943D01*
X226743Y28383D01*
X226542Y28419D01*
X226141Y28510D01*
X226123D01*
X226068Y28547D01*
X225977Y28583D01*
X225850Y28638D01*
X225595Y28802D01*
X225321Y29002D01*
X225303Y29021D01*
X225267Y29057D01*
X225212Y29130D01*
X225139Y29221D01*
X225066Y29330D01*
X224975Y29458D01*
X224848Y29749D01*
Y29768D01*
X224829Y29822D01*
X224811Y29913D01*
X224775Y30023D01*
X224757Y30168D01*
X224720Y30332D01*
X224702Y30679D01*
Y30697D01*
Y30733D01*
Y30806D01*
X224720Y30879D01*
X224738Y30988D01*
X224757Y31116D01*
X224811Y31389D01*
X224921Y31699D01*
X225084Y32027D01*
X225194Y32191D01*
X225321Y32337D01*
X225449Y32482D01*
X225613Y32628D01*
X225631D01*
X225649Y32665D01*
X225704Y32701D01*
X225795Y32737D01*
X225886Y32792D01*
X225995Y32847D01*
X226141Y32920D01*
X226305Y32993D01*
X226487Y33047D01*
X226688Y33120D01*
X226906Y33175D01*
X227162Y33229D01*
X227417Y33266D01*
X227708Y33302D01*
X228018Y33339D01*
X230059D01*
Y34049D01*
Y34086D01*
Y34177D01*
X230040Y34304D01*
X230004Y34468D01*
X229949Y34650D01*
X229858Y34851D01*
X229749Y35033D01*
X229585Y35215D01*
X229567Y35234D01*
X229494Y35288D01*
X229384Y35361D01*
X229239Y35434D01*
X229038Y35507D01*
X228783Y35580D01*
X228492Y35634D01*
X228164Y35653D01*
X227909D01*
X227726Y35634D01*
X227508Y35616D01*
X227289Y35580D01*
X226779Y35489D01*
X226743D01*
X226670Y35452D01*
X226524Y35416D01*
X226360Y35379D01*
X226141Y35307D01*
X225904Y35234D01*
X225649Y35142D01*
X225394Y35051D01*
Y36345D01*
X225413D01*
X225449Y36363D01*
X225485Y36382D01*
X225558Y36400D01*
X225740Y36454D01*
X225977Y36527D01*
X225995D01*
X226032Y36545D01*
X226105Y36564D01*
X226196Y36582D01*
X226433Y36636D01*
X226688Y36691D01*
X226706D01*
X226761Y36709D01*
X226834Y36728D01*
X226925Y36746D01*
X227034Y36764D01*
X227162Y36782D01*
X227453Y36819D01*
X227471D01*
X227526Y36837D01*
X227599D01*
X227708Y36855D01*
X227836D01*
X227963Y36873D01*
X228546D01*
X228729Y36855D01*
D02*
G37*
G36*
X182960Y29676D02*
X185420D01*
Y28492D01*
X178824D01*
Y29676D01*
X181520D01*
Y38914D01*
X179097D01*
Y40080D01*
X182960D01*
Y29676D01*
D02*
G37*
G36*
X130523Y37967D02*
X127352D01*
Y28492D01*
X125877D01*
Y37967D01*
X122706D01*
Y39206D01*
X130523D01*
Y37967D01*
D02*
G37*
G36*
X200907Y36855D02*
X201107Y36837D01*
X201344Y36801D01*
X201599Y36764D01*
X201854Y36691D01*
X202109Y36600D01*
X202146Y36582D01*
X202218Y36545D01*
X202346Y36491D01*
X202510Y36400D01*
X202674Y36290D01*
X202874Y36163D01*
X203057Y35999D01*
X203239Y35817D01*
X203257Y35798D01*
X203312Y35726D01*
X203403Y35616D01*
X203494Y35489D01*
X203603Y35307D01*
X203731Y35106D01*
X203840Y34869D01*
X203931Y34614D01*
X203949Y34578D01*
X203967Y34487D01*
X204004Y34341D01*
X204059Y34159D01*
X204095Y33922D01*
X204132Y33667D01*
X204150Y33375D01*
X204168Y33047D01*
Y33029D01*
Y32993D01*
Y32938D01*
Y32865D01*
Y32701D01*
X204150Y32519D01*
Y32482D01*
Y32391D01*
Y32282D01*
X204132Y32154D01*
X198356D01*
Y32136D01*
Y32100D01*
Y32027D01*
X198374Y31954D01*
Y31845D01*
X198392Y31717D01*
X198447Y31426D01*
X198520Y31116D01*
X198647Y30788D01*
X198811Y30478D01*
X199048Y30205D01*
X199085Y30168D01*
X199176Y30095D01*
X199340Y29986D01*
X199576Y29877D01*
X199868Y29749D01*
X200214Y29640D01*
X200615Y29567D01*
X201089Y29531D01*
X201544D01*
X201799Y29549D01*
X201854D01*
X201927Y29567D01*
X202018D01*
X202255Y29604D01*
X202492Y29622D01*
X202510D01*
X202546Y29640D01*
X202619D01*
X202710Y29658D01*
X202911Y29695D01*
X203148Y29731D01*
X203166D01*
X203202Y29749D01*
X203257Y29768D01*
X203330Y29786D01*
X203530Y29822D01*
X203731Y29877D01*
Y28711D01*
X203713D01*
X203621Y28693D01*
X203512Y28656D01*
X203348Y28620D01*
X203148Y28583D01*
X202929Y28529D01*
X202674Y28492D01*
X202401Y28456D01*
X202364D01*
X202273Y28438D01*
X202127Y28419D01*
X201945Y28401D01*
X201708Y28383D01*
X201453Y28365D01*
X201180Y28346D01*
X200706D01*
X200506Y28365D01*
X200269Y28383D01*
X199977Y28419D01*
X199668Y28456D01*
X199358Y28529D01*
X199066Y28620D01*
X199030Y28638D01*
X198939Y28674D01*
X198793Y28747D01*
X198629Y28838D01*
X198429Y28948D01*
X198210Y29094D01*
X198010Y29257D01*
X197809Y29458D01*
X197791Y29476D01*
X197736Y29549D01*
X197645Y29676D01*
X197536Y29822D01*
X197408Y30023D01*
X197299Y30241D01*
X197171Y30515D01*
X197080Y30788D01*
Y30806D01*
Y30824D01*
X197044Y30934D01*
X197008Y31098D01*
X196971Y31316D01*
X196935Y31590D01*
X196898Y31881D01*
X196880Y32227D01*
X196862Y32592D01*
Y32610D01*
Y32628D01*
Y32737D01*
X196880Y32901D01*
X196898Y33120D01*
X196916Y33357D01*
X196971Y33630D01*
X197026Y33922D01*
X197099Y34213D01*
Y34231D01*
X197117Y34250D01*
X197153Y34341D01*
X197208Y34487D01*
X197281Y34687D01*
X197390Y34887D01*
X197518Y35124D01*
X197663Y35361D01*
X197827Y35580D01*
X197846Y35598D01*
X197918Y35671D01*
X198028Y35780D01*
X198155Y35926D01*
X198338Y36072D01*
X198538Y36236D01*
X198757Y36382D01*
X199012Y36527D01*
X199048Y36545D01*
X199139Y36582D01*
X199285Y36636D01*
X199467Y36709D01*
X199704Y36764D01*
X199977Y36819D01*
X200269Y36855D01*
X200597Y36873D01*
X200743D01*
X200907Y36855D01*
D02*
G37*
G36*
X173194D02*
X173394Y36837D01*
X173650Y36801D01*
X173905Y36746D01*
X174178Y36673D01*
X174451Y36582D01*
X174488Y36564D01*
X174579Y36527D01*
X174706Y36473D01*
X174870Y36382D01*
X175052Y36272D01*
X175253Y36126D01*
X175453Y35962D01*
X175635Y35780D01*
X175654Y35762D01*
X175708Y35689D01*
X175799Y35580D01*
X175909Y35416D01*
X176036Y35234D01*
X176164Y34997D01*
X176273Y34742D01*
X176383Y34468D01*
X176401Y34432D01*
X176419Y34323D01*
X176474Y34159D01*
X176528Y33958D01*
X176565Y33685D01*
X176619Y33375D01*
X176637Y33029D01*
X176656Y32665D01*
Y32646D01*
Y32628D01*
Y32574D01*
Y32501D01*
X176637Y32318D01*
X176619Y32081D01*
X176583Y31808D01*
X176546Y31517D01*
X176474Y31207D01*
X176383Y30897D01*
X176364Y30861D01*
X176328Y30770D01*
X176273Y30624D01*
X176182Y30442D01*
X176073Y30223D01*
X175945Y29986D01*
X175781Y29749D01*
X175599Y29531D01*
X175581Y29513D01*
X175508Y29440D01*
X175399Y29330D01*
X175253Y29203D01*
X175071Y29075D01*
X174870Y28929D01*
X174615Y28784D01*
X174360Y28656D01*
X174324Y28638D01*
X174232Y28602D01*
X174087Y28565D01*
X173886Y28510D01*
X173631Y28438D01*
X173358Y28401D01*
X173048Y28365D01*
X172702Y28346D01*
X172556D01*
X172374Y28365D01*
X172174Y28383D01*
X171919Y28419D01*
X171645Y28456D01*
X171372Y28529D01*
X171099Y28620D01*
X171062Y28638D01*
X170989Y28674D01*
X170862Y28729D01*
X170698Y28820D01*
X170497Y28929D01*
X170315Y29075D01*
X170115Y29239D01*
X169914Y29421D01*
X169896Y29440D01*
X169842Y29513D01*
X169750Y29622D01*
X169641Y29786D01*
X169532Y29968D01*
X169404Y30205D01*
X169295Y30460D01*
X169186Y30733D01*
Y30751D01*
X169167Y30770D01*
X169149Y30879D01*
X169113Y31043D01*
X169058Y31262D01*
X169003Y31535D01*
X168967Y31845D01*
X168949Y32191D01*
X168930Y32555D01*
Y32574D01*
Y32592D01*
Y32646D01*
Y32719D01*
X168949Y32901D01*
X168967Y33120D01*
X168985Y33393D01*
X169040Y33685D01*
X169095Y33995D01*
X169186Y34286D01*
Y34304D01*
X169204Y34323D01*
X169240Y34414D01*
X169295Y34578D01*
X169386Y34760D01*
X169495Y34979D01*
X169641Y35197D01*
X169787Y35434D01*
X169969Y35653D01*
X169987Y35671D01*
X170060Y35744D01*
X170169Y35853D01*
X170315Y35981D01*
X170497Y36126D01*
X170716Y36272D01*
X170953Y36418D01*
X171208Y36545D01*
X171244Y36564D01*
X171335Y36600D01*
X171481Y36655D01*
X171682Y36709D01*
X171937Y36764D01*
X172210Y36819D01*
X172520Y36855D01*
X172866Y36873D01*
X173012D01*
X173194Y36855D01*
D02*
G37*
G36*
X136244D02*
X136444Y36837D01*
X136699Y36801D01*
X136954Y36746D01*
X137228Y36673D01*
X137501Y36582D01*
X137537Y36564D01*
X137628Y36527D01*
X137756Y36473D01*
X137920Y36382D01*
X138102Y36272D01*
X138303Y36126D01*
X138503Y35962D01*
X138685Y35780D01*
X138704Y35762D01*
X138758Y35689D01*
X138849Y35580D01*
X138959Y35416D01*
X139086Y35234D01*
X139214Y34997D01*
X139323Y34742D01*
X139432Y34468D01*
X139451Y34432D01*
X139469Y34323D01*
X139523Y34159D01*
X139578Y33958D01*
X139614Y33685D01*
X139669Y33375D01*
X139687Y33029D01*
X139706Y32665D01*
Y32646D01*
Y32628D01*
Y32574D01*
Y32501D01*
X139687Y32318D01*
X139669Y32081D01*
X139633Y31808D01*
X139596Y31517D01*
X139523Y31207D01*
X139432Y30897D01*
X139414Y30861D01*
X139378Y30770D01*
X139323Y30624D01*
X139232Y30442D01*
X139123Y30223D01*
X138995Y29986D01*
X138831Y29749D01*
X138649Y29531D01*
X138631Y29513D01*
X138558Y29440D01*
X138448Y29330D01*
X138303Y29203D01*
X138120Y29075D01*
X137920Y28929D01*
X137665Y28784D01*
X137410Y28656D01*
X137373Y28638D01*
X137282Y28602D01*
X137137Y28565D01*
X136936Y28510D01*
X136681Y28438D01*
X136408Y28401D01*
X136098Y28365D01*
X135752Y28346D01*
X135606D01*
X135424Y28365D01*
X135223Y28383D01*
X134968Y28419D01*
X134695Y28456D01*
X134422Y28529D01*
X134149Y28620D01*
X134112Y28638D01*
X134039Y28674D01*
X133912Y28729D01*
X133748Y28820D01*
X133547Y28929D01*
X133365Y29075D01*
X133165Y29239D01*
X132964Y29421D01*
X132946Y29440D01*
X132891Y29513D01*
X132800Y29622D01*
X132691Y29786D01*
X132582Y29968D01*
X132454Y30205D01*
X132345Y30460D01*
X132235Y30733D01*
Y30751D01*
X132217Y30770D01*
X132199Y30879D01*
X132162Y31043D01*
X132108Y31262D01*
X132053Y31535D01*
X132017Y31845D01*
X131999Y32191D01*
X131980Y32555D01*
Y32574D01*
Y32592D01*
Y32646D01*
Y32719D01*
X131999Y32901D01*
X132017Y33120D01*
X132035Y33393D01*
X132090Y33685D01*
X132144Y33995D01*
X132235Y34286D01*
Y34304D01*
X132254Y34323D01*
X132290Y34414D01*
X132345Y34578D01*
X132436Y34760D01*
X132545Y34979D01*
X132691Y35197D01*
X132837Y35434D01*
X133019Y35653D01*
X133037Y35671D01*
X133110Y35744D01*
X133219Y35853D01*
X133365Y35981D01*
X133547Y36126D01*
X133766Y36272D01*
X134003Y36418D01*
X134258Y36545D01*
X134294Y36564D01*
X134385Y36600D01*
X134531Y36655D01*
X134731Y36709D01*
X134987Y36764D01*
X135260Y36819D01*
X135570Y36855D01*
X135916Y36873D01*
X136062D01*
X136244Y36855D01*
D02*
G37*
G36*
X258250Y-61402D02*
X258288Y-62168D01*
X258587Y-63669D01*
X259173Y-65084D01*
X260023Y-66357D01*
X261106Y-67439D01*
X262379Y-68290D01*
X263793Y-68876D01*
X265295Y-69174D01*
X266060Y-69212D01*
X275710D01*
X277219Y-69512D01*
X278640Y-70101D01*
X279919Y-70956D01*
X281007Y-72044D01*
X281862Y-73323D01*
X282450Y-74744D01*
X282750Y-76253D01*
Y-77022D01*
Y-89201D01*
Y-89971D01*
X282450Y-91479D01*
X281862Y-92901D01*
X281007Y-94180D01*
X279919Y-95268D01*
X278640Y-96122D01*
X277219Y-96711D01*
X275710Y-97011D01*
X268560D01*
X267795Y-97049D01*
X266293Y-97348D01*
X264879Y-97934D01*
X263606Y-98784D01*
X262523Y-99867D01*
X261673Y-101140D01*
X261087Y-102554D01*
X260788Y-104056D01*
X260750Y-104821D01*
Y-260103D01*
X260788Y-260869D01*
X261087Y-262370D01*
X261673Y-263785D01*
X262523Y-265058D01*
X263606Y-266140D01*
X264879Y-266991D01*
X266293Y-267577D01*
X267795Y-267875D01*
X268560Y-267913D01*
X275710D01*
X277219Y-268213D01*
X278640Y-268802D01*
X279919Y-269656D01*
X281007Y-270744D01*
X281862Y-272024D01*
X282450Y-273445D01*
X282750Y-274954D01*
Y-275723D01*
Y-287902D01*
Y-288671D01*
X282450Y-290180D01*
X281862Y-291602D01*
X281007Y-292881D01*
X279919Y-293969D01*
X278640Y-294823D01*
X277219Y-295412D01*
X275710Y-295712D01*
X266060D01*
X265295Y-295750D01*
X263793Y-296048D01*
X262379Y-296634D01*
X261106Y-297485D01*
X260023Y-298568D01*
X259173Y-299840D01*
X258587Y-301255D01*
X258288Y-302757D01*
X258250Y-303522D01*
Y-334462D01*
X54250D01*
Y-30462D01*
X258250D01*
Y-61402D01*
D02*
G37*
G36*
X360176Y-312719D02*
X361899Y-313227D01*
X363532Y-313977D01*
X365040Y-314952D01*
X366394Y-316132D01*
X367565Y-317495D01*
X368529Y-319010D01*
X369267Y-320648D01*
X369762Y-322374D01*
X370007Y-324154D01*
X369994Y-325950D01*
X369724Y-327726D01*
X369203Y-329445D01*
X368442Y-331072D01*
X367457Y-332574D01*
X366266Y-333919D01*
X364896Y-335080D01*
X363373Y-336033D01*
X361730Y-336759D01*
X360865Y-337001D01*
Y-337001D01*
X327500D01*
Y-312462D01*
X358399D01*
X360176Y-312719D01*
D02*
G37*
%LPC*%
G36*
X191469Y35634D02*
X191359D01*
X191268Y35616D01*
X191068Y35598D01*
X190813Y35543D01*
X190503Y35452D01*
X190211Y35307D01*
X189920Y35124D01*
X189647Y34869D01*
X189628Y34833D01*
X189556Y34723D01*
X189501Y34650D01*
X189446Y34541D01*
X189392Y34432D01*
X189337Y34304D01*
X189264Y34140D01*
X189209Y33976D01*
X189155Y33776D01*
X189118Y33557D01*
X189064Y33339D01*
X189045Y33084D01*
X189009Y32810D01*
Y32519D01*
Y32501D01*
Y32446D01*
Y32373D01*
Y32282D01*
X189027Y32154D01*
Y32009D01*
X189064Y31681D01*
X189118Y31316D01*
X189191Y30952D01*
X189300Y30606D01*
X189446Y30296D01*
X189464Y30259D01*
X189519Y30187D01*
X189628Y30059D01*
X189774Y29932D01*
X189938Y29804D01*
X190157Y29676D01*
X190394Y29604D01*
X190685Y29567D01*
X190776D01*
X190886Y29585D01*
X191031Y29622D01*
X191214Y29676D01*
X191396Y29768D01*
X191614Y29877D01*
X191833Y30041D01*
X191869Y30059D01*
X191942Y30132D01*
X192052Y30241D01*
X192216Y30405D01*
X192416Y30606D01*
X192616Y30861D01*
X192853Y31152D01*
X193108Y31480D01*
Y35288D01*
X193090D01*
X193054Y35325D01*
X192963Y35343D01*
X192872Y35379D01*
X192762Y35416D01*
X192616Y35470D01*
X192307Y35543D01*
X192288D01*
X192234Y35561D01*
X192161Y35580D01*
X192052Y35598D01*
X191924D01*
X191778Y35616D01*
X191469Y35634D01*
D02*
G37*
G36*
X145827D02*
X145554D01*
X145500Y35616D01*
X145317Y35598D01*
X145117Y35543D01*
X145099D01*
X145062Y35525D01*
X145008Y35507D01*
X144935Y35470D01*
X144753Y35379D01*
X144534Y35252D01*
X144516D01*
X144479Y35215D01*
X144425Y35179D01*
X144352Y35106D01*
X144151Y34942D01*
X143896Y34705D01*
X143878Y34687D01*
X143842Y34650D01*
X143769Y34578D01*
X143696Y34487D01*
X143587Y34359D01*
X143459Y34213D01*
X143331Y34067D01*
X143204Y33885D01*
Y29895D01*
X143222D01*
X143277Y29877D01*
X143350Y29840D01*
X143459Y29804D01*
X143568Y29768D01*
X143714Y29713D01*
X144024Y29640D01*
X144042D01*
X144097Y29622D01*
X144188Y29604D01*
X144297D01*
X144425Y29585D01*
X144570Y29567D01*
X144880Y29549D01*
X144989D01*
X145062Y29567D01*
X145281Y29585D01*
X145536Y29640D01*
X145827Y29749D01*
X146119Y29877D01*
X146411Y30077D01*
X146556Y30187D01*
X146684Y30332D01*
Y30351D01*
X146720Y30369D01*
X146739Y30424D01*
X146793Y30478D01*
X146848Y30569D01*
X146903Y30660D01*
X146957Y30788D01*
X147030Y30915D01*
X147085Y31079D01*
X147139Y31243D01*
X147194Y31444D01*
X147249Y31662D01*
X147303Y31881D01*
X147322Y32136D01*
X147358Y32391D01*
Y32683D01*
Y32719D01*
Y32792D01*
Y32920D01*
X147340Y33084D01*
Y33266D01*
X147322Y33466D01*
X147249Y33867D01*
Y33885D01*
X147231Y33958D01*
X147212Y34067D01*
X147176Y34195D01*
X147085Y34487D01*
X146957Y34796D01*
Y34815D01*
X146921Y34869D01*
X146884Y34942D01*
X146811Y35033D01*
X146647Y35234D01*
X146429Y35416D01*
X146411Y35434D01*
X146374Y35452D01*
X146301Y35489D01*
X146210Y35525D01*
X146101Y35561D01*
X145973Y35598D01*
X145827Y35634D01*
D02*
G37*
G36*
X230059Y32245D02*
X228054D01*
X227927Y32227D01*
X227635Y32209D01*
X227326Y32136D01*
X227307D01*
X227271Y32118D01*
X227198Y32100D01*
X227107Y32063D01*
X226888Y31954D01*
X226688Y31826D01*
X226670D01*
X226651Y31790D01*
X226560Y31699D01*
X226433Y31535D01*
X226324Y31353D01*
Y31334D01*
X226305Y31298D01*
X226287Y31243D01*
X226269Y31170D01*
X226232Y30970D01*
X226214Y30733D01*
Y30715D01*
Y30697D01*
X226232Y30588D01*
X226251Y30442D01*
X226287Y30278D01*
Y30259D01*
X226305Y30241D01*
X226342Y30150D01*
X226415Y30023D01*
X226524Y29877D01*
X226560Y29859D01*
X226633Y29786D01*
X226779Y29695D01*
X226943Y29622D01*
X226961D01*
X226998Y29604D01*
X227052Y29585D01*
X227125D01*
X227326Y29549D01*
X227581Y29531D01*
X227672D01*
X227763Y29549D01*
X227909Y29567D01*
X228073Y29604D01*
X228273Y29658D01*
X228473Y29731D01*
X228710Y29822D01*
X228747Y29840D01*
X228820Y29877D01*
X228947Y29950D01*
X229111Y30059D01*
X229312Y30187D01*
X229548Y30351D01*
X229803Y30533D01*
X230059Y30770D01*
Y32245D01*
D02*
G37*
G36*
X200724Y35726D02*
X200360D01*
X200251Y35707D01*
X200123Y35689D01*
X199977Y35653D01*
X199668Y35543D01*
X199649D01*
X199613Y35507D01*
X199540Y35470D01*
X199449Y35416D01*
X199230Y35252D01*
X199012Y35033D01*
X198994Y35015D01*
X198975Y34979D01*
X198921Y34906D01*
X198848Y34815D01*
X198775Y34705D01*
X198702Y34559D01*
X198556Y34250D01*
Y34231D01*
X198538Y34177D01*
X198502Y34086D01*
X198465Y33958D01*
X198429Y33812D01*
X198410Y33630D01*
X198356Y33248D01*
X202692D01*
Y33266D01*
Y33339D01*
Y33448D01*
Y33576D01*
X202674Y33721D01*
X202656Y33885D01*
X202565Y34231D01*
Y34250D01*
X202546Y34304D01*
X202510Y34396D01*
X202473Y34505D01*
X202346Y34760D01*
X202164Y35015D01*
X202146Y35033D01*
X202109Y35070D01*
X202054Y35124D01*
X201982Y35197D01*
X201872Y35288D01*
X201763Y35361D01*
X201471Y35525D01*
X201453Y35543D01*
X201398Y35561D01*
X201307Y35598D01*
X201198Y35634D01*
X201071Y35671D01*
X200907Y35689D01*
X200724Y35726D01*
D02*
G37*
G36*
X172994Y35653D02*
X172684D01*
X172556Y35634D01*
X172411Y35616D01*
X172228Y35598D01*
X172046Y35543D01*
X171864Y35489D01*
X171682Y35398D01*
X171663Y35379D01*
X171609Y35343D01*
X171518Y35288D01*
X171427Y35215D01*
X171299Y35124D01*
X171171Y35015D01*
X170935Y34723D01*
X170916Y34705D01*
X170880Y34650D01*
X170844Y34559D01*
X170771Y34450D01*
X170698Y34304D01*
X170643Y34140D01*
X170570Y33958D01*
X170516Y33758D01*
Y33740D01*
X170497Y33667D01*
X170479Y33557D01*
X170461Y33412D01*
X170424Y33229D01*
X170406Y33029D01*
X170388Y32592D01*
Y32555D01*
Y32464D01*
X170406Y32318D01*
Y32136D01*
X170424Y31936D01*
X170461Y31699D01*
X170552Y31243D01*
Y31225D01*
X170589Y31152D01*
X170625Y31043D01*
X170680Y30915D01*
X170825Y30606D01*
X171026Y30296D01*
X171044Y30278D01*
X171080Y30241D01*
X171153Y30168D01*
X171244Y30095D01*
X171354Y30005D01*
X171481Y29913D01*
X171773Y29731D01*
X171791D01*
X171846Y29695D01*
X171955Y29676D01*
X172064Y29640D01*
X172228Y29604D01*
X172392Y29585D01*
X172593Y29549D01*
X172902D01*
X173012Y29567D01*
X173176Y29585D01*
X173340Y29604D01*
X173522Y29658D01*
X173704Y29713D01*
X173886Y29786D01*
X173905Y29804D01*
X173959Y29840D01*
X174050Y29895D01*
X174160Y29968D01*
X174269Y30059D01*
X174397Y30187D01*
X174633Y30460D01*
X174652Y30478D01*
X174688Y30533D01*
X174724Y30624D01*
X174797Y30733D01*
X174870Y30879D01*
X174925Y31043D01*
X174998Y31225D01*
X175052Y31426D01*
Y31444D01*
X175071Y31517D01*
X175107Y31644D01*
X175125Y31790D01*
X175162Y31954D01*
X175180Y32154D01*
X175198Y32592D01*
Y32628D01*
Y32719D01*
Y32865D01*
X175180Y33047D01*
X175162Y33248D01*
X175125Y33485D01*
X175071Y33703D01*
X175016Y33922D01*
Y33940D01*
X174979Y34013D01*
X174943Y34122D01*
X174888Y34268D01*
X174743Y34559D01*
X174652Y34723D01*
X174542Y34869D01*
X174524Y34887D01*
X174488Y34924D01*
X174415Y34997D01*
X174324Y35088D01*
X174214Y35179D01*
X174087Y35270D01*
X173777Y35452D01*
X173759Y35470D01*
X173704Y35489D01*
X173613Y35525D01*
X173486Y35561D01*
X173340Y35598D01*
X173176Y35616D01*
X172994Y35653D01*
D02*
G37*
G36*
X136043D02*
X135734D01*
X135606Y35634D01*
X135460Y35616D01*
X135278Y35598D01*
X135096Y35543D01*
X134914Y35489D01*
X134731Y35398D01*
X134713Y35379D01*
X134659Y35343D01*
X134568Y35288D01*
X134476Y35215D01*
X134349Y35124D01*
X134221Y35015D01*
X133984Y34723D01*
X133966Y34705D01*
X133930Y34650D01*
X133893Y34559D01*
X133820Y34450D01*
X133748Y34304D01*
X133693Y34140D01*
X133620Y33958D01*
X133565Y33758D01*
Y33740D01*
X133547Y33667D01*
X133529Y33557D01*
X133511Y33412D01*
X133474Y33229D01*
X133456Y33029D01*
X133438Y32592D01*
Y32555D01*
Y32464D01*
X133456Y32318D01*
Y32136D01*
X133474Y31936D01*
X133511Y31699D01*
X133602Y31243D01*
Y31225D01*
X133638Y31152D01*
X133675Y31043D01*
X133729Y30915D01*
X133875Y30606D01*
X134076Y30296D01*
X134094Y30278D01*
X134130Y30241D01*
X134203Y30168D01*
X134294Y30095D01*
X134404Y30005D01*
X134531Y29913D01*
X134823Y29731D01*
X134841D01*
X134896Y29695D01*
X135005Y29676D01*
X135114Y29640D01*
X135278Y29604D01*
X135442Y29585D01*
X135643Y29549D01*
X135952D01*
X136062Y29567D01*
X136226Y29585D01*
X136390Y29604D01*
X136572Y29658D01*
X136754Y29713D01*
X136936Y29786D01*
X136954Y29804D01*
X137009Y29840D01*
X137100Y29895D01*
X137209Y29968D01*
X137319Y30059D01*
X137446Y30187D01*
X137683Y30460D01*
X137701Y30478D01*
X137738Y30533D01*
X137774Y30624D01*
X137847Y30733D01*
X137920Y30879D01*
X137975Y31043D01*
X138048Y31225D01*
X138102Y31426D01*
Y31444D01*
X138120Y31517D01*
X138157Y31644D01*
X138175Y31790D01*
X138212Y31954D01*
X138230Y32154D01*
X138248Y32592D01*
Y32628D01*
Y32719D01*
Y32865D01*
X138230Y33047D01*
X138212Y33248D01*
X138175Y33485D01*
X138120Y33703D01*
X138066Y33922D01*
Y33940D01*
X138029Y34013D01*
X137993Y34122D01*
X137938Y34268D01*
X137793Y34559D01*
X137701Y34723D01*
X137592Y34869D01*
X137574Y34887D01*
X137537Y34924D01*
X137464Y34997D01*
X137373Y35088D01*
X137264Y35179D01*
X137137Y35270D01*
X136827Y35452D01*
X136809Y35470D01*
X136754Y35489D01*
X136663Y35525D01*
X136535Y35561D01*
X136390Y35598D01*
X136226Y35616D01*
X136043Y35653D01*
D02*
G37*
G36*
X111848Y-45360D02*
X110853D01*
X109933Y-45741D01*
X109229Y-46445D01*
X108848Y-47365D01*
Y-47862D01*
Y-48360D01*
X109229Y-49279D01*
X109933Y-49983D01*
X110853Y-50364D01*
X111848D01*
X112768Y-49983D01*
X113471Y-49279D01*
X113852Y-48360D01*
Y-47862D01*
Y-47365D01*
X113471Y-46445D01*
X112768Y-45741D01*
X111848Y-45360D01*
D02*
G37*
G36*
X71648Y-46660D02*
X70653D01*
X69733Y-47041D01*
X69029Y-47745D01*
X68648Y-48665D01*
Y-49162D01*
Y-49660D01*
X69029Y-50579D01*
X69733Y-51283D01*
X70653Y-51664D01*
X71648D01*
X72568Y-51283D01*
X73272Y-50579D01*
X73652Y-49660D01*
Y-49162D01*
Y-48665D01*
X73272Y-47745D01*
X72568Y-47041D01*
X71648Y-46660D01*
D02*
G37*
G36*
X139191Y-48249D02*
X138195D01*
X137276Y-48630D01*
X136572Y-49333D01*
X136191Y-50253D01*
Y-50751D01*
Y-51248D01*
X136572Y-52168D01*
X137276Y-52872D01*
X138195Y-53253D01*
X139191D01*
X140110Y-52872D01*
X140814Y-52168D01*
X141195Y-51248D01*
Y-50751D01*
Y-50253D01*
X140814Y-49333D01*
X140110Y-48630D01*
X139191Y-48249D01*
D02*
G37*
G36*
X182600Y-47162D02*
X169500D01*
Y-59562D01*
X182600D01*
Y-47162D01*
D02*
G37*
G36*
X204350Y-56662D02*
X191250D01*
Y-68162D01*
X204350D01*
Y-56662D01*
D02*
G37*
G36*
X170625Y-60200D02*
X144650D01*
Y-73262D01*
X170625D01*
Y-60200D01*
D02*
G37*
G36*
X241848Y-188760D02*
X240853D01*
X239933Y-189141D01*
X239229Y-189845D01*
X238848Y-190764D01*
Y-191262D01*
Y-191760D01*
X239229Y-192679D01*
X239933Y-193383D01*
X240853Y-193764D01*
X241848D01*
X242768Y-193383D01*
X243472Y-192679D01*
X243852Y-191760D01*
Y-191262D01*
Y-190764D01*
X243472Y-189845D01*
X242768Y-189141D01*
X241848Y-188760D01*
D02*
G37*
G36*
X229250Y-149462D02*
X136400Y-149462D01*
X136400Y-234100D01*
X172050Y-234100D01*
X172050Y-241162D01*
X209950D01*
Y-218062D01*
X229250D01*
Y-149462D01*
D02*
G37*
G36*
X195750Y-247450D02*
X146200D01*
Y-268900D01*
X169750D01*
X169750Y-293362D01*
X132450D01*
X132450Y-269928D01*
X101250D01*
Y-324762D01*
X132450D01*
X211165Y-324762D01*
X211165Y-281262D01*
X195750Y-281262D01*
Y-247450D01*
D02*
G37*
%LPD*%
D10*
X307794Y-212252D02*
D03*
Y-210283D02*
D03*
Y-208315D02*
D03*
Y-206346D02*
D03*
Y-198472D02*
D03*
Y-200441D02*
D03*
Y-202409D02*
D03*
Y-204378D02*
D03*
X290707D02*
D03*
Y-202409D02*
D03*
Y-200441D02*
D03*
Y-198472D02*
D03*
Y-206346D02*
D03*
Y-208315D02*
D03*
Y-210283D02*
D03*
Y-212252D02*
D03*
D11*
X299250Y-205362D02*
D03*
D12*
X45750Y-114098D02*
D03*
Y-106027D02*
D03*
X314900Y-202335D02*
D03*
Y-194265D02*
D03*
Y-216635D02*
D03*
Y-208565D02*
D03*
X368550Y-293998D02*
D03*
Y-285927D02*
D03*
X40050Y-269127D02*
D03*
Y-277198D02*
D03*
X48350Y-277198D02*
D03*
Y-269127D02*
D03*
X109650Y-316155D02*
D03*
Y-308084D02*
D03*
X295350Y-73227D02*
D03*
Y-81298D02*
D03*
X316850Y-163398D02*
D03*
Y-155327D02*
D03*
Y-128227D02*
D03*
Y-136298D02*
D03*
X267550Y-138027D02*
D03*
Y-146098D02*
D03*
X211050Y-24598D02*
D03*
Y-16527D02*
D03*
X45750Y-91498D02*
D03*
Y-83427D02*
D03*
D15*
X167457Y-197119D02*
D03*
Y-195150D02*
D03*
X212339Y-183339D02*
D03*
Y-185308D02*
D03*
Y-187276D02*
D03*
Y-189245D02*
D03*
Y-191213D02*
D03*
Y-193182D02*
D03*
Y-195150D02*
D03*
Y-197119D02*
D03*
Y-199087D02*
D03*
Y-201056D02*
D03*
Y-203024D02*
D03*
Y-204993D02*
D03*
Y-206961D02*
D03*
Y-208930D02*
D03*
Y-210898D02*
D03*
Y-212867D02*
D03*
X167457D02*
D03*
Y-210898D02*
D03*
Y-208930D02*
D03*
Y-206961D02*
D03*
Y-204993D02*
D03*
Y-203024D02*
D03*
Y-201056D02*
D03*
Y-199087D02*
D03*
Y-193182D02*
D03*
Y-191213D02*
D03*
Y-189245D02*
D03*
Y-187276D02*
D03*
Y-185308D02*
D03*
Y-183339D02*
D03*
D16*
X269950Y-325562D02*
D03*
D17*
X262450D02*
D03*
X277450D02*
D03*
D18*
X295350Y-58562D02*
D03*
X310050Y-74249D02*
D03*
X48331Y-140662D02*
D03*
X153200Y-222200D02*
D03*
D19*
X295350Y-66062D02*
D03*
Y-51062D02*
D03*
X310050Y-81749D02*
D03*
Y-66749D02*
D03*
X48331Y-148162D02*
D03*
Y-133162D02*
D03*
X153200Y-229700D02*
D03*
Y-214700D02*
D03*
D20*
X118250Y-1550D02*
D03*
Y-9975D02*
D03*
X368550Y-279487D02*
D03*
Y-271062D02*
D03*
D21*
X295215Y-192700D02*
D03*
X303286D02*
D03*
X33335Y-167700D02*
D03*
X25265D02*
D03*
X39865D02*
D03*
X47935D02*
D03*
X307586Y-169762D02*
D03*
X299515D02*
D03*
X298915Y-129722D02*
D03*
X306986D02*
D03*
X306986Y-101222D02*
D03*
X298915D02*
D03*
D22*
X283350Y-202298D02*
D03*
Y-194227D02*
D03*
X213350Y-161427D02*
D03*
Y-169498D02*
D03*
X266750Y-247927D02*
D03*
Y-255998D02*
D03*
Y-241498D02*
D03*
Y-233427D02*
D03*
X276150Y-138027D02*
D03*
Y-146098D02*
D03*
D24*
X271450Y-196258D02*
D03*
Y-214959D02*
D03*
X303550Y-140312D02*
D03*
Y-159013D02*
D03*
X271450Y-108112D02*
D03*
Y-126813D02*
D03*
X287450Y-108112D02*
D03*
Y-126813D02*
D03*
D26*
X171801Y-260362D02*
D03*
X153100D02*
D03*
X181900Y-20562D02*
D03*
X200601D02*
D03*
D27*
X288050Y-138262D02*
D03*
X291791Y-145742D02*
D03*
X284310D02*
D03*
X302950Y-117262D02*
D03*
X299210Y-109782D02*
D03*
X306691D02*
D03*
D28*
X158718Y-339000D02*
D03*
X156159D02*
D03*
X153600D02*
D03*
X151041D02*
D03*
X148482D02*
D03*
X65682Y-24100D02*
D03*
X68241D02*
D03*
X70800D02*
D03*
X73359D02*
D03*
X75918D02*
D03*
X228018Y-339000D02*
D03*
X225459D02*
D03*
X222900D02*
D03*
X220341D02*
D03*
X217782D02*
D03*
D31*
X306550Y-264480D02*
D03*
X304050D02*
D03*
X301550D02*
D03*
X299050D02*
D03*
X297800Y-269480D02*
D03*
X300300D02*
D03*
X302800D02*
D03*
X305300D02*
D03*
X307800D02*
D03*
D32*
X203650Y-309462D02*
D03*
Y-314777D02*
D03*
D33*
X39087Y-318500D02*
D03*
X47513D02*
D03*
D35*
X183715Y-274262D02*
D03*
X191786D02*
D03*
X120615Y-279062D02*
D03*
X128686D02*
D03*
X113786Y-291162D02*
D03*
X105715D02*
D03*
X128686D02*
D03*
X120615D02*
D03*
X290186Y-181462D02*
D03*
X282115D02*
D03*
X116086Y-25062D02*
D03*
X108015D02*
D03*
X116086Y-16962D02*
D03*
X108015D02*
D03*
X159615Y-63362D02*
D03*
X167686D02*
D03*
D36*
X45600Y-176800D02*
D03*
X27569Y-176800D02*
D03*
D37*
X36584Y-204453D02*
D03*
D38*
X175134Y-175662D02*
D03*
X177102D02*
D03*
X179071D02*
D03*
X181039D02*
D03*
X183008D02*
D03*
X184976D02*
D03*
X186945D02*
D03*
X188913D02*
D03*
X190882D02*
D03*
X192850D02*
D03*
X194819D02*
D03*
X196787D02*
D03*
X198756D02*
D03*
X200725D02*
D03*
X202693D02*
D03*
X204661D02*
D03*
Y-220544D02*
D03*
X202693D02*
D03*
X200725D02*
D03*
X198756D02*
D03*
X196787D02*
D03*
X194819D02*
D03*
X192850D02*
D03*
X190882D02*
D03*
X188913D02*
D03*
X186945D02*
D03*
X184976D02*
D03*
X183008D02*
D03*
X181039D02*
D03*
X179071D02*
D03*
X177102D02*
D03*
X175134D02*
D03*
D39*
X276200Y-235800D02*
D03*
X276200Y-253832D02*
D03*
D40*
X303854Y-244816D02*
D03*
D41*
X268722Y-158362D02*
D03*
Y-163362D02*
D03*
Y-168362D02*
D03*
Y-173362D02*
D03*
X290179Y-158362D02*
D03*
Y-163362D02*
D03*
Y-168362D02*
D03*
Y-173362D02*
D03*
D43*
X47150Y-46969D02*
D03*
Y-35355D02*
D03*
D44*
X41146Y-41162D02*
D03*
D45*
X168082Y-319306D02*
D03*
X175952D02*
D03*
X160212D02*
D03*
X152342D02*
D03*
X183822D02*
D03*
X128732Y-302306D02*
D03*
X120862D02*
D03*
X191692Y-319306D02*
D03*
X144472D02*
D03*
X120862D02*
D03*
X128732D02*
D03*
X136602D02*
D03*
Y-302306D02*
D03*
X144472D02*
D03*
X152342D02*
D03*
X160212D02*
D03*
X168082D02*
D03*
X175952D02*
D03*
X183822D02*
D03*
X191692D02*
D03*
D54*
X35003Y-334962D02*
D03*
Y-19962D02*
D03*
D55*
X342503Y-34962D02*
D03*
D56*
X46850Y-247962D02*
D03*
Y-257962D02*
D03*
X45850Y-225862D02*
D03*
X288250Y-92062D02*
D03*
X368650Y-256162D02*
D03*
X369250Y-85462D02*
D03*
X367550Y-65062D02*
D03*
D57*
X270000Y-282500D02*
D03*
Y-82500D02*
D03*
X357505Y-34957D02*
D03*
X20005Y-334957D02*
D03*
Y-19957D02*
D03*
X357505Y-324957D02*
D03*
X223800Y-55000D02*
D03*
X88800D02*
D03*
X223700Y-310000D02*
D03*
X88800D02*
D03*
D58*
X125800Y-60000D02*
D03*
D59*
X334505Y-34957D02*
D03*
X43005Y-334957D02*
D03*
Y-19957D02*
D03*
X334505Y-324957D02*
D03*
D60*
X337500Y-185000D02*
D03*
Y-195000D02*
D03*
Y-215000D02*
D03*
Y-205000D02*
D03*
Y-225000D02*
D03*
Y-235000D02*
D03*
Y-245000D02*
D03*
Y-255000D02*
D03*
Y-265000D02*
D03*
Y-275000D02*
D03*
X327500D02*
D03*
Y-265000D02*
D03*
Y-255000D02*
D03*
Y-245000D02*
D03*
Y-235000D02*
D03*
Y-225000D02*
D03*
Y-205000D02*
D03*
Y-215000D02*
D03*
Y-195000D02*
D03*
Y-95000D02*
D03*
Y-105000D02*
D03*
Y-115000D02*
D03*
Y-125000D02*
D03*
Y-135000D02*
D03*
Y-145000D02*
D03*
Y-165000D02*
D03*
Y-155000D02*
D03*
Y-175000D02*
D03*
Y-185000D02*
D03*
X337500Y-85000D02*
D03*
Y-95000D02*
D03*
Y-105000D02*
D03*
Y-115000D02*
D03*
Y-125000D02*
D03*
Y-135000D02*
D03*
Y-145000D02*
D03*
Y-165000D02*
D03*
Y-155000D02*
D03*
Y-175000D02*
D03*
X327500Y-285000D02*
D03*
Y-295000D02*
D03*
Y-305000D02*
D03*
X337500D02*
D03*
Y-295000D02*
D03*
Y-285000D02*
D03*
Y-75000D02*
D03*
X327500D02*
D03*
Y-85000D02*
D03*
X337500Y-65000D02*
D03*
Y-55000D02*
D03*
X327500D02*
D03*
Y-65000D02*
D03*
X357500Y-185000D02*
D03*
Y-195000D02*
D03*
Y-215000D02*
D03*
Y-205000D02*
D03*
Y-225000D02*
D03*
Y-235000D02*
D03*
Y-245000D02*
D03*
Y-255000D02*
D03*
Y-265000D02*
D03*
Y-275000D02*
D03*
X347500D02*
D03*
Y-265000D02*
D03*
Y-255000D02*
D03*
Y-245000D02*
D03*
Y-235000D02*
D03*
Y-225000D02*
D03*
Y-205000D02*
D03*
Y-215000D02*
D03*
Y-195000D02*
D03*
Y-95000D02*
D03*
Y-105000D02*
D03*
Y-115000D02*
D03*
Y-125000D02*
D03*
Y-135000D02*
D03*
Y-145000D02*
D03*
Y-165000D02*
D03*
Y-155000D02*
D03*
Y-175000D02*
D03*
Y-185000D02*
D03*
X357500Y-85000D02*
D03*
Y-95000D02*
D03*
Y-105000D02*
D03*
Y-115000D02*
D03*
Y-125000D02*
D03*
Y-135000D02*
D03*
Y-145000D02*
D03*
Y-165000D02*
D03*
Y-155000D02*
D03*
Y-175000D02*
D03*
X347500Y-285000D02*
D03*
Y-295000D02*
D03*
Y-305000D02*
D03*
X357500D02*
D03*
Y-295000D02*
D03*
Y-285000D02*
D03*
Y-75000D02*
D03*
X347500D02*
D03*
Y-85000D02*
D03*
X357500Y-65000D02*
D03*
Y-55000D02*
D03*
X347500D02*
D03*
Y-65000D02*
D03*
D61*
X79560Y-25478D02*
D03*
X62040D02*
D03*
X162360Y-337622D02*
D03*
X144840D02*
D03*
X62040Y-25478D02*
D03*
X79560D02*
D03*
X231660Y-337622D02*
D03*
X214140D02*
D03*
D62*
X87237Y-13175D02*
D03*
X54363D02*
D03*
X170037Y-349925D02*
D03*
X137163D02*
D03*
X54363Y-13175D02*
D03*
X87237D02*
D03*
X239337Y-349925D02*
D03*
X206463D02*
D03*
D63*
X316304Y-277000D02*
D03*
X289296D02*
D03*
X285000Y-61500D02*
D03*
Y-41500D02*
D03*
X265000D02*
D03*
Y-61500D02*
D03*
D64*
X270000Y-310000D02*
D03*
X275000Y-315000D02*
D03*
X265000D02*
D03*
X275000Y-305000D02*
D03*
X265000D02*
D03*
X310000Y-51500D02*
D03*
X315000Y-56500D02*
D03*
X305000D02*
D03*
X315000Y-46500D02*
D03*
X305000D02*
D03*
D65*
X275000Y-51500D02*
D03*
D66*
X187757Y-310806D02*
D03*
X124797D02*
D03*
X120862Y-306868D02*
D03*
Y-314743D02*
D03*
X128732D02*
D03*
Y-306868D02*
D03*
X136602Y-314743D02*
D03*
Y-306868D02*
D03*
X144472Y-314743D02*
D03*
Y-306868D02*
D03*
X152342Y-314743D02*
D03*
Y-306868D02*
D03*
X160212Y-314743D02*
D03*
Y-306868D02*
D03*
X168082Y-314743D02*
D03*
Y-306868D02*
D03*
X175952Y-314743D02*
D03*
Y-306868D02*
D03*
X183822Y-314743D02*
D03*
Y-306868D02*
D03*
X191692Y-314743D02*
D03*
Y-306868D02*
D03*
X214900Y-30200D02*
D03*
X204250Y-326000D02*
D03*
X195000Y-330962D02*
D03*
X175250D02*
D03*
X165375D02*
D03*
X34200Y-173100D02*
D03*
X61750Y-61463D02*
D03*
X160438Y-325962D02*
D03*
X244350Y-33462D02*
D03*
X249250Y-38462D02*
D03*
X254250Y-33462D02*
D03*
X234450D02*
D03*
X239400Y-38462D02*
D03*
X204750Y-33462D02*
D03*
X209700Y-38462D02*
D03*
X219600D02*
D03*
X184950Y-33462D02*
D03*
X189900Y-38462D02*
D03*
X194850Y-33462D02*
D03*
X199800Y-38462D02*
D03*
X165150Y-33462D02*
D03*
X175050D02*
D03*
X180000Y-38462D02*
D03*
X145350Y-33462D02*
D03*
X150300Y-38462D02*
D03*
X155250Y-33462D02*
D03*
X160200Y-38462D02*
D03*
X135450Y-33462D02*
D03*
X90900Y-38462D02*
D03*
X81000D02*
D03*
X249250Y-47887D02*
D03*
X254250Y-42912D02*
D03*
X249250Y-67787D02*
D03*
X254250Y-62812D02*
D03*
X249250Y-57837D02*
D03*
X254250Y-82712D02*
D03*
X249250Y-77737D02*
D03*
X254250Y-72762D02*
D03*
X249250Y-107587D02*
D03*
Y-127487D02*
D03*
X254250Y-122512D02*
D03*
X249250Y-117537D02*
D03*
X254250Y-112562D02*
D03*
X249250Y-147387D02*
D03*
X254250Y-142412D02*
D03*
X249250Y-137437D02*
D03*
X254250Y-132462D02*
D03*
X249250Y-167287D02*
D03*
X254250Y-152362D02*
D03*
X249250Y-187187D02*
D03*
X254250Y-182212D02*
D03*
X249250Y-177237D02*
D03*
X254250Y-172262D02*
D03*
X249250Y-207087D02*
D03*
X254250Y-202112D02*
D03*
X249250Y-197137D02*
D03*
X254250Y-192162D02*
D03*
X249250Y-226987D02*
D03*
X254250Y-222012D02*
D03*
X249250Y-217037D02*
D03*
X254250Y-212062D02*
D03*
X249250Y-246887D02*
D03*
X254250Y-241912D02*
D03*
X249250Y-236937D02*
D03*
X254250Y-231962D02*
D03*
Y-251862D02*
D03*
X249250Y-286687D02*
D03*
X254250Y-281712D02*
D03*
X249250Y-276737D02*
D03*
X254250Y-271762D02*
D03*
X249250Y-306587D02*
D03*
X254250Y-301612D02*
D03*
X249250Y-296637D02*
D03*
X254250Y-291662D02*
D03*
X249250Y-325962D02*
D03*
X254250Y-321512D02*
D03*
X249250Y-316537D02*
D03*
X254250Y-311562D02*
D03*
Y-330962D02*
D03*
X229563Y-325962D02*
D03*
X234500Y-330962D02*
D03*
X239438Y-325962D02*
D03*
X244375Y-330962D02*
D03*
X219688Y-325962D02*
D03*
X224625Y-330962D02*
D03*
X190063Y-325962D02*
D03*
X170313D02*
D03*
X180188D02*
D03*
X185125Y-330962D02*
D03*
X150563Y-325962D02*
D03*
X155500Y-330962D02*
D03*
X130813Y-325962D02*
D03*
X135750Y-330962D02*
D03*
X111063Y-325962D02*
D03*
X116000Y-330962D02*
D03*
X120938Y-325962D02*
D03*
X125875Y-330962D02*
D03*
X96250D02*
D03*
X101188Y-325962D02*
D03*
X106125Y-330962D02*
D03*
X71563Y-325962D02*
D03*
X76500Y-330962D02*
D03*
X86375D02*
D03*
X56750D02*
D03*
X61688Y-325995D02*
D03*
X66625Y-330962D02*
D03*
X61750Y-316062D02*
D03*
X56750Y-321029D02*
D03*
Y-301162D02*
D03*
X61750Y-306129D02*
D03*
X56750Y-261429D02*
D03*
Y-271362D02*
D03*
X61750Y-236596D02*
D03*
X56750Y-241562D02*
D03*
X61750Y-246529D02*
D03*
X56750Y-251496D02*
D03*
X61750Y-216729D02*
D03*
X56750Y-221696D02*
D03*
X61750Y-226662D02*
D03*
X56750Y-231629D02*
D03*
X61750Y-196862D02*
D03*
X56750Y-201829D02*
D03*
X61750Y-206796D02*
D03*
X56750Y-211762D02*
D03*
X61750Y-176996D02*
D03*
Y-186929D02*
D03*
X56750Y-191896D02*
D03*
X61750Y-157129D02*
D03*
X56750Y-162096D02*
D03*
X61750Y-167062D02*
D03*
Y-137262D02*
D03*
Y-147196D02*
D03*
X56750Y-122362D02*
D03*
X61750Y-127329D02*
D03*
Y-75163D02*
D03*
X56750Y-70196D02*
D03*
X61750Y-48362D02*
D03*
X56750Y-43396D02*
D03*
X61750Y-38462D02*
D03*
X56750Y-33463D02*
D03*
X249250Y-87687D02*
D03*
X244250Y-82712D02*
D03*
Y-62812D02*
D03*
X239275Y-57812D02*
D03*
D121*
X190850Y-168320D02*
D03*
Y-162605D02*
D03*
X45750Y-73620D02*
D03*
Y-67905D02*
D03*
X159250Y-188620D02*
D03*
Y-182905D02*
D03*
X202850Y-227905D02*
D03*
Y-233620D02*
D03*
X197850Y-168320D02*
D03*
Y-162605D02*
D03*
X204850Y-168320D02*
D03*
Y-162605D02*
D03*
X181050Y-227905D02*
D03*
Y-233620D02*
D03*
X203650Y-295920D02*
D03*
Y-290205D02*
D03*
X160650Y-17905D02*
D03*
Y-23620D02*
D03*
X171350Y-23520D02*
D03*
Y-17805D02*
D03*
D122*
X156120Y-168612D02*
D03*
Y-162312D02*
D03*
X164781D02*
D03*
Y-168612D02*
D03*
D123*
X160108Y-198462D02*
D03*
X154393D02*
D03*
X160108Y-206062D02*
D03*
X154393D02*
D03*
X219693Y-204962D02*
D03*
X225408D02*
D03*
X177143Y-168200D02*
D03*
X182858D02*
D03*
X219693Y-195662D02*
D03*
X225408D02*
D03*
X191808Y-284062D02*
D03*
X186093D02*
D03*
X191808Y-293262D02*
D03*
X186093D02*
D03*
X201008Y-64562D02*
D03*
X195293D02*
D03*
X173493Y-51562D02*
D03*
X179208D02*
D03*
X148493Y-69662D02*
D03*
X154208D02*
D03*
D124*
X170700Y-167300D02*
D03*
Y-163678D02*
D03*
X150250Y-163740D02*
D03*
Y-167362D02*
D03*
D125*
X22800Y-271785D02*
D03*
Y-252100D02*
D03*
Y-311700D02*
D03*
Y-292015D02*
D03*
D126*
X31068Y-267848D02*
D03*
Y-256037D02*
D03*
Y-259974D02*
D03*
Y-263911D02*
D03*
Y-307763D02*
D03*
Y-295952D02*
D03*
Y-299889D02*
D03*
Y-303826D02*
D03*
D127*
X151550Y-188540D02*
D03*
Y-182985D02*
D03*
D128*
X152410Y-24601D02*
D03*
Y-22042D02*
D03*
Y-19483D02*
D03*
Y-16924D02*
D03*
X134891Y-24601D02*
D03*
Y-22042D02*
D03*
Y-19483D02*
D03*
Y-16924D02*
D03*
M02*
