G04 Layer_Color=8421504*
%FSLAX25Y25*%
%MOIN*%
G70*
G01*
G75*
%ADD10R,0.04134X0.05315*%
%ADD32R,0.05512X0.04331*%
%ADD33R,0.05512X0.04331*%
%ADD34R,0.05512X0.04331*%
%ADD35R,0.05512X0.04331*%
%ADD36R,0.04331X0.05512*%
%ADD37R,0.04331X0.05512*%
G36*
X790272Y-226725D02*
X793989D01*
Y-227928D01*
X790272D01*
Y-232118D01*
Y-232137D01*
Y-232155D01*
Y-232264D01*
X790290Y-232410D01*
X790327Y-232610D01*
X790381Y-232829D01*
X790472Y-233048D01*
X790582Y-233248D01*
X790746Y-233430D01*
X790764Y-233448D01*
X790837Y-233503D01*
X790946Y-233576D01*
X791092Y-233649D01*
X791292Y-233722D01*
X791529Y-233794D01*
X791803Y-233849D01*
X792130Y-233867D01*
X792385D01*
X792513Y-233849D01*
X792677D01*
X793005Y-233813D01*
X793023D01*
X793096Y-233794D01*
X793187D01*
X793315Y-233758D01*
X793461Y-233740D01*
X793624Y-233703D01*
X793989Y-233612D01*
Y-234851D01*
X793971D01*
X793898Y-234870D01*
X793807Y-234888D01*
X793679Y-234906D01*
X793515Y-234942D01*
X793351Y-234961D01*
X792969Y-235015D01*
X792877D01*
X792786Y-235033D01*
X792641D01*
X792495Y-235052D01*
X792313D01*
X791930Y-235070D01*
X791784D01*
X791675Y-235052D01*
X791547D01*
X791402Y-235033D01*
X791055Y-234979D01*
X790691Y-234906D01*
X790308Y-234778D01*
X789944Y-234614D01*
X789762Y-234505D01*
X789616Y-234378D01*
X789580Y-234341D01*
X789489Y-234250D01*
X789379Y-234086D01*
X789233Y-233849D01*
X789088Y-233540D01*
X788978Y-233175D01*
X788887Y-232738D01*
X788851Y-232228D01*
Y-227928D01*
X786555D01*
Y-226725D01*
X788851D01*
Y-224466D01*
X790272Y-224083D01*
Y-226725D01*
D02*
G37*
G36*
X800293Y-226598D02*
X800493Y-226616D01*
X800730Y-226652D01*
X800985Y-226689D01*
X801240Y-226762D01*
X801495Y-226853D01*
X801532Y-226871D01*
X801605Y-226907D01*
X801732Y-226962D01*
X801896Y-227053D01*
X802060Y-227163D01*
X802261Y-227290D01*
X802443Y-227454D01*
X802625Y-227636D01*
X802643Y-227654D01*
X802698Y-227727D01*
X802789Y-227837D01*
X802880Y-227964D01*
X802989Y-228146D01*
X803117Y-228347D01*
X803226Y-228584D01*
X803318Y-228839D01*
X803336Y-228875D01*
X803354Y-228966D01*
X803390Y-229112D01*
X803445Y-229294D01*
X803481Y-229531D01*
X803518Y-229786D01*
X803536Y-230078D01*
X803554Y-230406D01*
Y-230424D01*
Y-230460D01*
Y-230515D01*
Y-230588D01*
Y-230752D01*
X803536Y-230934D01*
Y-230970D01*
Y-231062D01*
Y-231171D01*
X803518Y-231298D01*
X797742D01*
Y-231317D01*
Y-231353D01*
Y-231426D01*
X797760Y-231499D01*
Y-231608D01*
X797779Y-231736D01*
X797833Y-232027D01*
X797906Y-232337D01*
X798034Y-232665D01*
X798198Y-232975D01*
X798435Y-233248D01*
X798471Y-233284D01*
X798562Y-233357D01*
X798726Y-233467D01*
X798963Y-233576D01*
X799254Y-233703D01*
X799601Y-233813D01*
X800002Y-233886D01*
X800475Y-233922D01*
X800931D01*
X801186Y-233904D01*
X801240D01*
X801313Y-233886D01*
X801404D01*
X801641Y-233849D01*
X801878Y-233831D01*
X801896D01*
X801933Y-233813D01*
X802006D01*
X802097Y-233794D01*
X802297Y-233758D01*
X802534Y-233722D01*
X802552D01*
X802589Y-233703D01*
X802643Y-233685D01*
X802716Y-233667D01*
X802917Y-233631D01*
X803117Y-233576D01*
Y-234742D01*
X803099D01*
X803008Y-234760D01*
X802898Y-234797D01*
X802734Y-234833D01*
X802534Y-234870D01*
X802315Y-234924D01*
X802060Y-234961D01*
X801787Y-234997D01*
X801751D01*
X801659Y-235015D01*
X801514Y-235033D01*
X801332Y-235052D01*
X801095Y-235070D01*
X800840Y-235088D01*
X800566Y-235106D01*
X800093D01*
X799892Y-235088D01*
X799655Y-235070D01*
X799364Y-235033D01*
X799054Y-234997D01*
X798744Y-234924D01*
X798453Y-234833D01*
X798416Y-234815D01*
X798325Y-234778D01*
X798179Y-234705D01*
X798015Y-234614D01*
X797815Y-234505D01*
X797596Y-234359D01*
X797396Y-234195D01*
X797196Y-233995D01*
X797177Y-233977D01*
X797123Y-233904D01*
X797032Y-233776D01*
X796922Y-233631D01*
X796795Y-233430D01*
X796685Y-233211D01*
X796558Y-232938D01*
X796467Y-232665D01*
Y-232647D01*
Y-232628D01*
X796430Y-232519D01*
X796394Y-232355D01*
X796357Y-232137D01*
X796321Y-231863D01*
X796285Y-231572D01*
X796266Y-231225D01*
X796248Y-230861D01*
Y-230843D01*
Y-230825D01*
Y-230715D01*
X796266Y-230551D01*
X796285Y-230333D01*
X796303Y-230096D01*
X796357Y-229823D01*
X796412Y-229531D01*
X796485Y-229240D01*
Y-229221D01*
X796503Y-229203D01*
X796540Y-229112D01*
X796594Y-228966D01*
X796667Y-228766D01*
X796776Y-228565D01*
X796904Y-228328D01*
X797050Y-228092D01*
X797214Y-227873D01*
X797232Y-227855D01*
X797305Y-227782D01*
X797414Y-227673D01*
X797542Y-227527D01*
X797724Y-227381D01*
X797924Y-227217D01*
X798143Y-227071D01*
X798398Y-226926D01*
X798435Y-226907D01*
X798526Y-226871D01*
X798671Y-226816D01*
X798854Y-226743D01*
X799090Y-226689D01*
X799364Y-226634D01*
X799655Y-226598D01*
X799983Y-226579D01*
X800129D01*
X800293Y-226598D01*
D02*
G37*
G36*
X735630D02*
X735831Y-226616D01*
X736067Y-226652D01*
X736323Y-226689D01*
X736578Y-226762D01*
X736833Y-226853D01*
X736869Y-226871D01*
X736942Y-226907D01*
X737070Y-226962D01*
X737234Y-227053D01*
X737397Y-227163D01*
X737598Y-227290D01*
X737780Y-227454D01*
X737962Y-227636D01*
X737981Y-227654D01*
X738035Y-227727D01*
X738126Y-227837D01*
X738217Y-227964D01*
X738327Y-228146D01*
X738454Y-228347D01*
X738564Y-228584D01*
X738655Y-228839D01*
X738673Y-228875D01*
X738691Y-228966D01*
X738728Y-229112D01*
X738782Y-229294D01*
X738819Y-229531D01*
X738855Y-229786D01*
X738873Y-230078D01*
X738892Y-230406D01*
Y-230424D01*
Y-230460D01*
Y-230515D01*
Y-230588D01*
Y-230752D01*
X738873Y-230934D01*
Y-230970D01*
Y-231062D01*
Y-231171D01*
X738855Y-231298D01*
X733079D01*
Y-231317D01*
Y-231353D01*
Y-231426D01*
X733098Y-231499D01*
Y-231608D01*
X733116Y-231736D01*
X733171Y-232027D01*
X733243Y-232337D01*
X733371Y-232665D01*
X733535Y-232975D01*
X733772Y-233248D01*
X733808Y-233284D01*
X733899Y-233357D01*
X734063Y-233467D01*
X734300Y-233576D01*
X734592Y-233703D01*
X734938Y-233813D01*
X735339Y-233886D01*
X735812Y-233922D01*
X736268D01*
X736523Y-233904D01*
X736578D01*
X736651Y-233886D01*
X736742D01*
X736978Y-233849D01*
X737215Y-233831D01*
X737234D01*
X737270Y-233813D01*
X737343D01*
X737434Y-233794D01*
X737634Y-233758D01*
X737871Y-233722D01*
X737889D01*
X737926Y-233703D01*
X737981Y-233685D01*
X738054Y-233667D01*
X738254Y-233631D01*
X738454Y-233576D01*
Y-234742D01*
X738436D01*
X738345Y-234760D01*
X738236Y-234797D01*
X738072Y-234833D01*
X737871Y-234870D01*
X737653Y-234924D01*
X737397Y-234961D01*
X737124Y-234997D01*
X737088D01*
X736997Y-235015D01*
X736851Y-235033D01*
X736669Y-235052D01*
X736432Y-235070D01*
X736177Y-235088D01*
X735904Y-235106D01*
X735430D01*
X735229Y-235088D01*
X734993Y-235070D01*
X734701Y-235033D01*
X734391Y-234997D01*
X734082Y-234924D01*
X733790Y-234833D01*
X733753Y-234815D01*
X733662Y-234778D01*
X733517Y-234705D01*
X733353Y-234614D01*
X733152Y-234505D01*
X732934Y-234359D01*
X732733Y-234195D01*
X732533Y-233995D01*
X732515Y-233977D01*
X732460Y-233904D01*
X732369Y-233776D01*
X732260Y-233631D01*
X732132Y-233430D01*
X732023Y-233211D01*
X731895Y-232938D01*
X731804Y-232665D01*
Y-232647D01*
Y-232628D01*
X731768Y-232519D01*
X731731Y-232355D01*
X731695Y-232137D01*
X731658Y-231863D01*
X731622Y-231572D01*
X731604Y-231225D01*
X731585Y-230861D01*
Y-230843D01*
Y-230825D01*
Y-230715D01*
X731604Y-230551D01*
X731622Y-230333D01*
X731640Y-230096D01*
X731695Y-229823D01*
X731749Y-229531D01*
X731822Y-229240D01*
Y-229221D01*
X731840Y-229203D01*
X731877Y-229112D01*
X731931Y-228966D01*
X732004Y-228766D01*
X732114Y-228565D01*
X732241Y-228328D01*
X732387Y-228092D01*
X732551Y-227873D01*
X732569Y-227855D01*
X732642Y-227782D01*
X732752Y-227673D01*
X732879Y-227527D01*
X733061Y-227381D01*
X733262Y-227217D01*
X733480Y-227071D01*
X733735Y-226926D01*
X733772Y-226907D01*
X733863Y-226871D01*
X734009Y-226816D01*
X734191Y-226743D01*
X734428Y-226689D01*
X734701Y-226634D01*
X734993Y-226598D01*
X735321Y-226579D01*
X735466D01*
X735630Y-226598D01*
D02*
G37*
G36*
X665246Y-225486D02*
X662076D01*
Y-234961D01*
X660600D01*
Y-225486D01*
X657430D01*
Y-224247D01*
X665246D01*
Y-225486D01*
D02*
G37*
G36*
X772690Y-226598D02*
X772890Y-226616D01*
X773127Y-226652D01*
X773583Y-226743D01*
X773601D01*
X773692Y-226780D01*
X773801Y-226816D01*
X773929Y-226871D01*
X774093Y-226944D01*
X774257Y-227035D01*
X774421Y-227126D01*
X774585Y-227254D01*
X774603Y-227272D01*
X774657Y-227308D01*
X774730Y-227381D01*
X774821Y-227472D01*
X774931Y-227600D01*
X775040Y-227746D01*
X775131Y-227909D01*
X775222Y-228092D01*
X775241Y-228110D01*
X775259Y-228183D01*
X775295Y-228292D01*
X775350Y-228438D01*
X775386Y-228602D01*
X775423Y-228820D01*
X775441Y-229039D01*
X775459Y-229294D01*
Y-234961D01*
X774165D01*
X774129Y-233867D01*
X774093Y-233904D01*
X774020Y-233977D01*
X773874Y-234086D01*
X773710Y-234232D01*
X773491Y-234378D01*
X773273Y-234542D01*
X773018Y-234687D01*
X772763Y-234815D01*
X772726Y-234833D01*
X772635Y-234851D01*
X772507Y-234906D01*
X772325Y-234961D01*
X772107Y-235015D01*
X771852Y-235052D01*
X771596Y-235088D01*
X771305Y-235106D01*
X771196D01*
X771068Y-235088D01*
X770904D01*
X770704Y-235070D01*
X770503Y-235033D01*
X770103Y-234942D01*
X770084D01*
X770030Y-234906D01*
X769939Y-234870D01*
X769811Y-234815D01*
X769556Y-234651D01*
X769282Y-234451D01*
X769264Y-234432D01*
X769228Y-234396D01*
X769173Y-234323D01*
X769100Y-234232D01*
X769028Y-234122D01*
X768936Y-233995D01*
X768809Y-233703D01*
Y-233685D01*
X768791Y-233631D01*
X768772Y-233540D01*
X768736Y-233430D01*
X768718Y-233284D01*
X768681Y-233120D01*
X768663Y-232774D01*
Y-232756D01*
Y-232720D01*
Y-232647D01*
X768681Y-232574D01*
X768700Y-232465D01*
X768718Y-232337D01*
X768772Y-232064D01*
X768882Y-231754D01*
X769046Y-231426D01*
X769155Y-231262D01*
X769282Y-231116D01*
X769410Y-230970D01*
X769574Y-230825D01*
X769592D01*
X769611Y-230788D01*
X769665Y-230752D01*
X769756Y-230715D01*
X769847Y-230661D01*
X769957Y-230606D01*
X770103Y-230533D01*
X770266Y-230460D01*
X770449Y-230406D01*
X770649Y-230333D01*
X770868Y-230278D01*
X771123Y-230223D01*
X771378Y-230187D01*
X771669Y-230151D01*
X771979Y-230114D01*
X774020D01*
Y-229403D01*
Y-229367D01*
Y-229276D01*
X774002Y-229149D01*
X773965Y-228984D01*
X773910Y-228802D01*
X773819Y-228602D01*
X773710Y-228420D01*
X773546Y-228237D01*
X773528Y-228219D01*
X773455Y-228165D01*
X773346Y-228092D01*
X773200Y-228019D01*
X772999Y-227946D01*
X772744Y-227873D01*
X772453Y-227818D01*
X772125Y-227800D01*
X771870D01*
X771688Y-227818D01*
X771469Y-227837D01*
X771250Y-227873D01*
X770740Y-227964D01*
X770704D01*
X770631Y-228001D01*
X770485Y-228037D01*
X770321Y-228074D01*
X770103Y-228146D01*
X769866Y-228219D01*
X769611Y-228310D01*
X769355Y-228401D01*
Y-227108D01*
X769374D01*
X769410Y-227090D01*
X769447Y-227071D01*
X769519Y-227053D01*
X769702Y-226998D01*
X769939Y-226926D01*
X769957D01*
X769993Y-226907D01*
X770066Y-226889D01*
X770157Y-226871D01*
X770394Y-226816D01*
X770649Y-226762D01*
X770667D01*
X770722Y-226743D01*
X770795Y-226725D01*
X770886Y-226707D01*
X770995Y-226689D01*
X771123Y-226671D01*
X771414Y-226634D01*
X771432D01*
X771487Y-226616D01*
X771560D01*
X771669Y-226598D01*
X771797D01*
X771924Y-226579D01*
X772507D01*
X772690Y-226598D01*
D02*
G37*
G36*
X763124Y-224266D02*
X763361Y-224284D01*
X763616Y-224320D01*
X764163Y-224429D01*
X764199D01*
X764290Y-224466D01*
X764418Y-224502D01*
X764600Y-224575D01*
X764800Y-224648D01*
X765001Y-224757D01*
X765219Y-224867D01*
X765438Y-225012D01*
X765456Y-225031D01*
X765529Y-225085D01*
X765639Y-225158D01*
X765766Y-225286D01*
X765912Y-225432D01*
X766058Y-225596D01*
X766203Y-225796D01*
X766331Y-226015D01*
X766349Y-226051D01*
X766386Y-226124D01*
X766440Y-226252D01*
X766495Y-226434D01*
X766549Y-226652D01*
X766604Y-226907D01*
X766641Y-227199D01*
X766659Y-227527D01*
Y-227563D01*
Y-227636D01*
X766641Y-227764D01*
X766622Y-227928D01*
X766604Y-228128D01*
X766549Y-228365D01*
X766495Y-228602D01*
X766404Y-228839D01*
X766386Y-228875D01*
X766367Y-228948D01*
X766294Y-229076D01*
X766222Y-229221D01*
X766112Y-229403D01*
X765985Y-229586D01*
X765821Y-229786D01*
X765639Y-229987D01*
X765620Y-230005D01*
X765548Y-230078D01*
X765438Y-230169D01*
X765292Y-230278D01*
X765092Y-230406D01*
X764873Y-230551D01*
X764618Y-230679D01*
X764327Y-230806D01*
X764290Y-230825D01*
X764181Y-230861D01*
X764017Y-230898D01*
X763780Y-230952D01*
X763507Y-231025D01*
X763179Y-231062D01*
X762796Y-231098D01*
X762395Y-231116D01*
X761084D01*
Y-234961D01*
X759626D01*
Y-224247D01*
X762924D01*
X763124Y-224266D01*
D02*
G37*
G36*
X717684Y-233776D02*
X720143D01*
Y-234961D01*
X713548D01*
Y-233776D01*
X716244D01*
Y-224539D01*
X713821D01*
Y-223373D01*
X717684D01*
Y-233776D01*
D02*
G37*
G36*
X782255Y-226598D02*
X782437D01*
X782857Y-226634D01*
X782875D01*
X782966Y-226652D01*
X783075D01*
X783239Y-226671D01*
X783421Y-226707D01*
X783622Y-226725D01*
X783859Y-226780D01*
X784095Y-226816D01*
Y-228092D01*
X784059D01*
X783986Y-228055D01*
X783859Y-228037D01*
X783676Y-228001D01*
X783494Y-227964D01*
X783276Y-227928D01*
X782820Y-227855D01*
X782802D01*
X782711Y-227837D01*
X782601Y-227818D01*
X782456Y-227800D01*
X782292D01*
X782128Y-227782D01*
X781763Y-227764D01*
X781581D01*
X781454Y-227782D01*
X781162Y-227800D01*
X780870Y-227855D01*
X780852D01*
X780816Y-227873D01*
X780743Y-227891D01*
X780652Y-227909D01*
X780470Y-228001D01*
X780269Y-228092D01*
X780233Y-228110D01*
X780142Y-228183D01*
X780051Y-228292D01*
X779959Y-228420D01*
X779941Y-228456D01*
X779923Y-228547D01*
X779887Y-228675D01*
X779868Y-228839D01*
Y-228857D01*
Y-228875D01*
X779887Y-228966D01*
X779905Y-229094D01*
X779941Y-229240D01*
X779959Y-229276D01*
X780014Y-229349D01*
X780123Y-229458D01*
X780269Y-229586D01*
X780287D01*
X780306Y-229622D01*
X780360Y-229640D01*
X780433Y-229695D01*
X780543Y-229750D01*
X780652Y-229804D01*
X780779Y-229859D01*
X780925Y-229932D01*
X780943D01*
X780998Y-229968D01*
X781089Y-229987D01*
X781217Y-230041D01*
X781381Y-230096D01*
X781563Y-230151D01*
X781763Y-230205D01*
X782000Y-230278D01*
X782036Y-230296D01*
X782128Y-230314D01*
X782255Y-230351D01*
X782437Y-230424D01*
X782638Y-230479D01*
X782838Y-230570D01*
X783039Y-230643D01*
X783239Y-230734D01*
X783257Y-230752D01*
X783330Y-230770D01*
X783403Y-230825D01*
X783531Y-230879D01*
X783786Y-231062D01*
X784041Y-231262D01*
X784059Y-231280D01*
X784095Y-231317D01*
X784150Y-231371D01*
X784223Y-231444D01*
X784369Y-231645D01*
X784442Y-231772D01*
X784496Y-231900D01*
Y-231918D01*
X784515Y-231954D01*
X784551Y-232045D01*
X784569Y-232137D01*
X784606Y-232264D01*
X784624Y-232392D01*
X784642Y-232720D01*
Y-232738D01*
Y-232792D01*
Y-232884D01*
X784624Y-232975D01*
X784569Y-233230D01*
X784478Y-233503D01*
Y-233521D01*
X784460Y-233558D01*
X784423Y-233631D01*
X784369Y-233703D01*
X784241Y-233904D01*
X784077Y-234122D01*
X784059Y-234141D01*
X784041Y-234159D01*
X783986Y-234214D01*
X783913Y-234268D01*
X783713Y-234414D01*
X783476Y-234578D01*
X783458D01*
X783421Y-234614D01*
X783348Y-234633D01*
X783257Y-234687D01*
X783039Y-234778D01*
X782765Y-234870D01*
X782747D01*
X782711Y-234888D01*
X782620Y-234906D01*
X782528Y-234924D01*
X782419Y-234961D01*
X782273Y-234979D01*
X781982Y-235033D01*
X781964D01*
X781909Y-235052D01*
X781836D01*
X781727Y-235070D01*
X781490Y-235088D01*
X781198Y-235106D01*
X780889D01*
X780688Y-235088D01*
X780451D01*
X780196Y-235070D01*
X779650Y-235033D01*
X779613D01*
X779540Y-235015D01*
X779395Y-234997D01*
X779231Y-234979D01*
X779012Y-234942D01*
X778793Y-234906D01*
X778301Y-234797D01*
Y-233485D01*
X778338D01*
X778429Y-233521D01*
X778556Y-233558D01*
X778739Y-233612D01*
X778957Y-233667D01*
X779194Y-233722D01*
X779723Y-233813D01*
X779759D01*
X779850Y-233831D01*
X779978Y-233849D01*
X780160D01*
X780378Y-233867D01*
X780615Y-233886D01*
X781144Y-233904D01*
X781308D01*
X781490Y-233886D01*
X781709Y-233867D01*
X781964Y-233831D01*
X782219Y-233794D01*
X782456Y-233722D01*
X782656Y-233631D01*
X782674Y-233612D01*
X782729Y-233576D01*
X782820Y-233521D01*
X782911Y-233430D01*
X783002Y-233321D01*
X783093Y-233175D01*
X783148Y-233011D01*
X783166Y-232829D01*
Y-232811D01*
Y-232792D01*
X783148Y-232701D01*
X783130Y-232574D01*
X783075Y-232446D01*
X783057Y-232410D01*
X783020Y-232337D01*
X782929Y-232228D01*
X782784Y-232100D01*
X782747Y-232064D01*
X782692Y-232045D01*
X782638Y-231991D01*
X782547Y-231954D01*
X782437Y-231900D01*
X782292Y-231827D01*
X782146Y-231772D01*
X782128D01*
X782073Y-231736D01*
X781982Y-231699D01*
X781836Y-231645D01*
X781672Y-231590D01*
X781472Y-231517D01*
X781253Y-231444D01*
X780980Y-231371D01*
X780962D01*
X780889Y-231335D01*
X780779Y-231317D01*
X780652Y-231262D01*
X780488Y-231207D01*
X780324Y-231153D01*
X779959Y-231007D01*
X779941Y-230989D01*
X779887Y-230970D01*
X779796Y-230916D01*
X779686Y-230861D01*
X779413Y-230715D01*
X779140Y-230515D01*
X779121Y-230497D01*
X779085Y-230460D01*
X779012Y-230406D01*
X778939Y-230314D01*
X778757Y-230114D01*
X778593Y-229841D01*
Y-229823D01*
X778556Y-229768D01*
X778538Y-229695D01*
X778502Y-229586D01*
X778465Y-229458D01*
X778447Y-229294D01*
X778411Y-229112D01*
Y-228930D01*
Y-228912D01*
Y-228875D01*
Y-228802D01*
X778429Y-228711D01*
X778447Y-228602D01*
X778465Y-228474D01*
X778556Y-228183D01*
Y-228165D01*
X778593Y-228110D01*
X778629Y-228037D01*
X778684Y-227928D01*
X778757Y-227818D01*
X778848Y-227691D01*
X778976Y-227545D01*
X779103Y-227417D01*
X779121Y-227399D01*
X779176Y-227363D01*
X779267Y-227290D01*
X779376Y-227199D01*
X779522Y-227108D01*
X779704Y-227017D01*
X779905Y-226907D01*
X780142Y-226816D01*
X780178Y-226798D01*
X780269Y-226780D01*
X780397Y-226743D01*
X780597Y-226689D01*
X780834Y-226652D01*
X781107Y-226616D01*
X781435Y-226598D01*
X781781Y-226579D01*
X782109D01*
X782255Y-226598D01*
D02*
G37*
G36*
X729271Y-234961D02*
X727978D01*
X727923Y-233412D01*
Y-233430D01*
X727905Y-233448D01*
X727814Y-233558D01*
X727704Y-233703D01*
X727540Y-233904D01*
X727340Y-234104D01*
X727121Y-234323D01*
X726885Y-234523D01*
X726629Y-234705D01*
X726593Y-234724D01*
X726502Y-234760D01*
X726374Y-234833D01*
X726174Y-234906D01*
X725955Y-234979D01*
X725700Y-235052D01*
X725427Y-235088D01*
X725117Y-235106D01*
X725008D01*
X724862Y-235088D01*
X724698Y-235070D01*
X724516Y-235033D01*
X724297Y-234979D01*
X724097Y-234906D01*
X723878Y-234815D01*
X723860Y-234797D01*
X723787Y-234760D01*
X723696Y-234687D01*
X723569Y-234596D01*
X723423Y-234487D01*
X723277Y-234341D01*
X723131Y-234177D01*
X722986Y-233995D01*
X722967Y-233977D01*
X722931Y-233904D01*
X722858Y-233776D01*
X722785Y-233631D01*
X722694Y-233430D01*
X722603Y-233211D01*
X722512Y-232975D01*
X722439Y-232701D01*
Y-232665D01*
X722421Y-232574D01*
X722384Y-232410D01*
X722366Y-232209D01*
X722330Y-231954D01*
X722293Y-231663D01*
X722275Y-231353D01*
Y-231025D01*
Y-231007D01*
Y-230970D01*
Y-230916D01*
Y-230843D01*
X722293Y-230661D01*
X722311Y-230406D01*
X722348Y-230114D01*
X722384Y-229804D01*
X722457Y-229476D01*
X722548Y-229167D01*
Y-229149D01*
X722567Y-229130D01*
X722603Y-229021D01*
X722676Y-228875D01*
X722767Y-228693D01*
X722876Y-228474D01*
X723022Y-228237D01*
X723186Y-228001D01*
X723368Y-227782D01*
X723386Y-227764D01*
X723459Y-227691D01*
X723569Y-227582D01*
X723733Y-227454D01*
X723915Y-227326D01*
X724133Y-227181D01*
X724370Y-227053D01*
X724644Y-226926D01*
X724680Y-226907D01*
X724771Y-226871D01*
X724935Y-226835D01*
X725136Y-226780D01*
X725372Y-226725D01*
X725664Y-226671D01*
X725974Y-226652D01*
X726302Y-226634D01*
X726538D01*
X726793Y-226652D01*
X727067Y-226689D01*
X727085D01*
X727140Y-226707D01*
X727213D01*
X727304Y-226725D01*
X727559Y-226780D01*
X727832Y-226853D01*
Y-223373D01*
X729271D01*
Y-234961D01*
D02*
G37*
G36*
X699063Y-224101D02*
X699281Y-224120D01*
X699391D01*
X699482Y-224138D01*
X699682Y-224156D01*
X699919Y-224193D01*
X699974D01*
X700047Y-224211D01*
X700119D01*
X700320Y-224247D01*
X700557Y-224284D01*
X700611D01*
X700684Y-224302D01*
X700757Y-224320D01*
X700957Y-224357D01*
X701158Y-224393D01*
Y-225705D01*
X701122D01*
X701049Y-225668D01*
X700921Y-225650D01*
X700757Y-225614D01*
X700575Y-225577D01*
X700356Y-225523D01*
X699883Y-225450D01*
X699864D01*
X699773Y-225432D01*
X699664Y-225413D01*
X699500Y-225395D01*
X699318Y-225377D01*
X699099Y-225359D01*
X698662Y-225341D01*
X698461D01*
X698243Y-225359D01*
X697969Y-225395D01*
X697660Y-225450D01*
X697350Y-225523D01*
X697077Y-225632D01*
X696822Y-225778D01*
X696803Y-225796D01*
X696731Y-225851D01*
X696639Y-225942D01*
X696530Y-226069D01*
X696421Y-226233D01*
X696330Y-226434D01*
X696257Y-226652D01*
X696239Y-226907D01*
Y-226926D01*
Y-226980D01*
X696257Y-227053D01*
X696275Y-227163D01*
X696348Y-227399D01*
X696403Y-227527D01*
X696475Y-227654D01*
X696494Y-227673D01*
X696512Y-227709D01*
X696566Y-227764D01*
X696639Y-227837D01*
X696840Y-228019D01*
X697095Y-228219D01*
X697113Y-228237D01*
X697168Y-228256D01*
X697241Y-228310D01*
X697368Y-228365D01*
X697496Y-228438D01*
X697642Y-228511D01*
X698006Y-228657D01*
X698024D01*
X698097Y-228693D01*
X698188Y-228729D01*
X698334Y-228784D01*
X698480Y-228839D01*
X698644Y-228912D01*
X699026Y-229076D01*
X699044D01*
X699117Y-229112D01*
X699227Y-229149D01*
X699354Y-229203D01*
X699518Y-229276D01*
X699682Y-229349D01*
X700065Y-229531D01*
X700083Y-229549D01*
X700156Y-229568D01*
X700247Y-229622D01*
X700375Y-229695D01*
X700666Y-229895D01*
X700957Y-230132D01*
X700976Y-230151D01*
X701030Y-230187D01*
X701103Y-230260D01*
X701194Y-230369D01*
X701286Y-230479D01*
X701395Y-230624D01*
X701595Y-230952D01*
X701614Y-230970D01*
X701632Y-231043D01*
X701668Y-231134D01*
X701723Y-231262D01*
X701778Y-231426D01*
X701814Y-231626D01*
X701832Y-231827D01*
X701850Y-232064D01*
Y-232100D01*
Y-232191D01*
X701832Y-232337D01*
X701814Y-232519D01*
X701778Y-232720D01*
X701705Y-232956D01*
X701632Y-233193D01*
X701522Y-233412D01*
X701504Y-233430D01*
X701468Y-233503D01*
X701395Y-233612D01*
X701304Y-233740D01*
X701176Y-233886D01*
X701030Y-234050D01*
X700848Y-234214D01*
X700648Y-234359D01*
X700630Y-234378D01*
X700557Y-234414D01*
X700429Y-234487D01*
X700283Y-234578D01*
X700083Y-234669D01*
X699864Y-234760D01*
X699609Y-234851D01*
X699318Y-234924D01*
X699281D01*
X699190Y-234961D01*
X699026Y-234979D01*
X698808Y-235015D01*
X698553Y-235052D01*
X698261Y-235070D01*
X697933Y-235106D01*
X697332D01*
X697186Y-235088D01*
X697058D01*
X696731Y-235070D01*
X696658D01*
X696585Y-235052D01*
X696475D01*
X696220Y-235015D01*
X695929Y-234979D01*
X695856D01*
X695783Y-234961D01*
X695692D01*
X695455Y-234924D01*
X695200Y-234888D01*
X695182D01*
X695145Y-234870D01*
X695073Y-234851D01*
X695000Y-234833D01*
X694799Y-234778D01*
X694581Y-234724D01*
Y-233321D01*
X694617Y-233339D01*
X694690Y-233357D01*
X694817Y-233394D01*
X694981Y-233448D01*
X695182Y-233521D01*
X695419Y-233576D01*
X695674Y-233631D01*
X695947Y-233685D01*
X695984D01*
X696075Y-233703D01*
X696239Y-233722D01*
X696457Y-233740D01*
X696712Y-233776D01*
X697004Y-233794D01*
X697332Y-233813D01*
X697951D01*
X698115Y-233794D01*
X698297D01*
X698498Y-233758D01*
X698698Y-233740D01*
X698899Y-233703D01*
X698917D01*
X698990Y-233685D01*
X699063Y-233649D01*
X699190Y-233631D01*
X699445Y-233521D01*
X699700Y-233394D01*
X699719Y-233376D01*
X699755Y-233357D01*
X699810Y-233303D01*
X699883Y-233248D01*
X700047Y-233084D01*
X700174Y-232865D01*
Y-232847D01*
X700192Y-232811D01*
X700229Y-232738D01*
X700247Y-232647D01*
X700283Y-232537D01*
X700302Y-232410D01*
X700320Y-232137D01*
Y-232118D01*
Y-232064D01*
X700302Y-231991D01*
X700283Y-231881D01*
X700211Y-231645D01*
X700156Y-231535D01*
X700065Y-231408D01*
X700047Y-231389D01*
X700028Y-231353D01*
X699974Y-231298D01*
X699901Y-231225D01*
X699810Y-231134D01*
X699700Y-231043D01*
X699427Y-230861D01*
X699409Y-230843D01*
X699354Y-230825D01*
X699281Y-230770D01*
X699172Y-230715D01*
X699044Y-230643D01*
X698899Y-230570D01*
X698534Y-230406D01*
X698516Y-230387D01*
X698443Y-230369D01*
X698352Y-230333D01*
X698206Y-230278D01*
X698061Y-230223D01*
X697878Y-230151D01*
X697496Y-230005D01*
X697477Y-229987D01*
X697405Y-229968D01*
X697314Y-229914D01*
X697186Y-229859D01*
X697022Y-229786D01*
X696858Y-229713D01*
X696475Y-229531D01*
X696457Y-229513D01*
X696384Y-229476D01*
X696293Y-229440D01*
X696166Y-229367D01*
X696038Y-229276D01*
X695874Y-229185D01*
X695564Y-228948D01*
X695546Y-228930D01*
X695510Y-228893D01*
X695437Y-228820D01*
X695346Y-228711D01*
X695255Y-228602D01*
X695145Y-228456D01*
X694945Y-228146D01*
X694927Y-228128D01*
X694909Y-228055D01*
X694872Y-227964D01*
X694836Y-227837D01*
X694781Y-227673D01*
X694744Y-227490D01*
X694726Y-227272D01*
X694708Y-227053D01*
Y-227035D01*
Y-226962D01*
X694726Y-226853D01*
X694744Y-226707D01*
X694763Y-226543D01*
X694799Y-226361D01*
X694854Y-226160D01*
X694927Y-225960D01*
X694945Y-225942D01*
X694963Y-225869D01*
X695036Y-225778D01*
X695109Y-225650D01*
X695200Y-225504D01*
X695328Y-225341D01*
X695473Y-225177D01*
X695637Y-225012D01*
X695655Y-224994D01*
X695728Y-224940D01*
X695838Y-224867D01*
X695984Y-224776D01*
X696147Y-224666D01*
X696366Y-224557D01*
X696603Y-224448D01*
X696876Y-224338D01*
X696913Y-224320D01*
X697022Y-224302D01*
X697168Y-224266D01*
X697386Y-224211D01*
X697660Y-224156D01*
X697969Y-224120D01*
X698316Y-224101D01*
X698698Y-224083D01*
X698880D01*
X699063Y-224101D01*
D02*
G37*
G36*
X680934Y-226598D02*
X681098Y-226616D01*
X681298Y-226652D01*
X681499Y-226707D01*
X681717Y-226780D01*
X681918Y-226889D01*
X681936Y-226907D01*
X682009Y-226944D01*
X682100Y-227017D01*
X682227Y-227108D01*
X682373Y-227217D01*
X682519Y-227363D01*
X682665Y-227527D01*
X682810Y-227727D01*
X682829Y-227746D01*
X682865Y-227818D01*
X682938Y-227928D01*
X683011Y-228092D01*
X683102Y-228274D01*
X683193Y-228492D01*
X683284Y-228748D01*
X683357Y-229021D01*
Y-229057D01*
X683393Y-229149D01*
X683412Y-229312D01*
X683448Y-229513D01*
X683485Y-229750D01*
X683503Y-230041D01*
X683539Y-230351D01*
Y-230697D01*
Y-230715D01*
Y-230752D01*
Y-230806D01*
Y-230879D01*
X683521Y-231098D01*
X683503Y-231353D01*
X683466Y-231663D01*
X683412Y-231973D01*
X683339Y-232300D01*
X683229Y-232628D01*
X683211Y-232665D01*
X683175Y-232756D01*
X683102Y-232902D01*
X683011Y-233102D01*
X682883Y-233303D01*
X682738Y-233540D01*
X682574Y-233758D01*
X682373Y-233977D01*
X682355Y-233995D01*
X682282Y-234068D01*
X682155Y-234159D01*
X682009Y-234286D01*
X681827Y-234414D01*
X681590Y-234560D01*
X681353Y-234687D01*
X681079Y-234797D01*
X681043Y-234815D01*
X680952Y-234833D01*
X680806Y-234870D01*
X680606Y-234924D01*
X680369Y-234979D01*
X680096Y-235015D01*
X679804Y-235033D01*
X679494Y-235052D01*
X679239D01*
X679003Y-235033D01*
X678711Y-234997D01*
X678638D01*
X678565Y-234979D01*
X678474Y-234961D01*
X678346D01*
X678219Y-234942D01*
X677927Y-234888D01*
Y-238331D01*
X676506D01*
Y-226725D01*
X677764D01*
X677855Y-228110D01*
Y-228092D01*
X677891Y-228074D01*
X677964Y-227964D01*
X678091Y-227818D01*
X678255Y-227654D01*
X678456Y-227454D01*
X678675Y-227254D01*
X678911Y-227071D01*
X679166Y-226926D01*
X679203Y-226907D01*
X679294Y-226871D01*
X679422Y-226816D01*
X679622Y-226743D01*
X679841Y-226689D01*
X680096Y-226634D01*
X680387Y-226598D01*
X680679Y-226579D01*
X680806D01*
X680934Y-226598D01*
D02*
G37*
G36*
X707918D02*
X708118Y-226616D01*
X708373Y-226652D01*
X708628Y-226707D01*
X708902Y-226780D01*
X709175Y-226871D01*
X709211Y-226889D01*
X709302Y-226926D01*
X709430Y-226980D01*
X709594Y-227071D01*
X709776Y-227181D01*
X709976Y-227326D01*
X710177Y-227490D01*
X710359Y-227673D01*
X710377Y-227691D01*
X710432Y-227764D01*
X710523Y-227873D01*
X710632Y-228037D01*
X710760Y-228219D01*
X710887Y-228456D01*
X710997Y-228711D01*
X711106Y-228984D01*
X711124Y-229021D01*
X711142Y-229130D01*
X711197Y-229294D01*
X711252Y-229495D01*
X711288Y-229768D01*
X711343Y-230078D01*
X711361Y-230424D01*
X711379Y-230788D01*
Y-230806D01*
Y-230825D01*
Y-230879D01*
Y-230952D01*
X711361Y-231134D01*
X711343Y-231371D01*
X711306Y-231645D01*
X711270Y-231936D01*
X711197Y-232246D01*
X711106Y-232556D01*
X711088Y-232592D01*
X711051Y-232683D01*
X710997Y-232829D01*
X710906Y-233011D01*
X710796Y-233230D01*
X710669Y-233467D01*
X710505Y-233703D01*
X710323Y-233922D01*
X710304Y-233940D01*
X710231Y-234013D01*
X710122Y-234122D01*
X709976Y-234250D01*
X709794Y-234378D01*
X709594Y-234523D01*
X709339Y-234669D01*
X709084Y-234797D01*
X709047Y-234815D01*
X708956Y-234851D01*
X708810Y-234888D01*
X708610Y-234942D01*
X708355Y-235015D01*
X708082Y-235052D01*
X707772Y-235088D01*
X707426Y-235106D01*
X707280D01*
X707098Y-235088D01*
X706897Y-235070D01*
X706642Y-235033D01*
X706369Y-234997D01*
X706096Y-234924D01*
X705822Y-234833D01*
X705786Y-234815D01*
X705713Y-234778D01*
X705585Y-234724D01*
X705421Y-234633D01*
X705221Y-234523D01*
X705039Y-234378D01*
X704838Y-234214D01*
X704638Y-234031D01*
X704620Y-234013D01*
X704565Y-233940D01*
X704474Y-233831D01*
X704365Y-233667D01*
X704255Y-233485D01*
X704128Y-233248D01*
X704018Y-232993D01*
X703909Y-232720D01*
Y-232701D01*
X703891Y-232683D01*
X703873Y-232574D01*
X703836Y-232410D01*
X703782Y-232191D01*
X703727Y-231918D01*
X703690Y-231608D01*
X703672Y-231262D01*
X703654Y-230898D01*
Y-230879D01*
Y-230861D01*
Y-230806D01*
Y-230734D01*
X703672Y-230551D01*
X703690Y-230333D01*
X703709Y-230060D01*
X703763Y-229768D01*
X703818Y-229458D01*
X703909Y-229167D01*
Y-229149D01*
X703927Y-229130D01*
X703964Y-229039D01*
X704018Y-228875D01*
X704110Y-228693D01*
X704219Y-228474D01*
X704365Y-228256D01*
X704510Y-228019D01*
X704693Y-227800D01*
X704711Y-227782D01*
X704784Y-227709D01*
X704893Y-227600D01*
X705039Y-227472D01*
X705221Y-227326D01*
X705440Y-227181D01*
X705677Y-227035D01*
X705932Y-226907D01*
X705968Y-226889D01*
X706059Y-226853D01*
X706205Y-226798D01*
X706405Y-226743D01*
X706660Y-226689D01*
X706934Y-226634D01*
X707243Y-226598D01*
X707590Y-226579D01*
X707735D01*
X707918Y-226598D01*
D02*
G37*
G36*
X670967D02*
X671168Y-226616D01*
X671423Y-226652D01*
X671678Y-226707D01*
X671951Y-226780D01*
X672225Y-226871D01*
X672261Y-226889D01*
X672352Y-226926D01*
X672480Y-226980D01*
X672644Y-227071D01*
X672826Y-227181D01*
X673026Y-227326D01*
X673227Y-227490D01*
X673409Y-227673D01*
X673427Y-227691D01*
X673482Y-227764D01*
X673573Y-227873D01*
X673682Y-228037D01*
X673810Y-228219D01*
X673937Y-228456D01*
X674047Y-228711D01*
X674156Y-228984D01*
X674174Y-229021D01*
X674192Y-229130D01*
X674247Y-229294D01*
X674302Y-229495D01*
X674338Y-229768D01*
X674393Y-230078D01*
X674411Y-230424D01*
X674429Y-230788D01*
Y-230806D01*
Y-230825D01*
Y-230879D01*
Y-230952D01*
X674411Y-231134D01*
X674393Y-231371D01*
X674356Y-231645D01*
X674320Y-231936D01*
X674247Y-232246D01*
X674156Y-232556D01*
X674138Y-232592D01*
X674101Y-232683D01*
X674047Y-232829D01*
X673955Y-233011D01*
X673846Y-233230D01*
X673719Y-233467D01*
X673555Y-233703D01*
X673373Y-233922D01*
X673354Y-233940D01*
X673281Y-234013D01*
X673172Y-234122D01*
X673026Y-234250D01*
X672844Y-234378D01*
X672644Y-234523D01*
X672389Y-234669D01*
X672133Y-234797D01*
X672097Y-234815D01*
X672006Y-234851D01*
X671860Y-234888D01*
X671660Y-234942D01*
X671405Y-235015D01*
X671131Y-235052D01*
X670822Y-235088D01*
X670475Y-235106D01*
X670330D01*
X670148Y-235088D01*
X669947Y-235070D01*
X669692Y-235033D01*
X669419Y-234997D01*
X669145Y-234924D01*
X668872Y-234833D01*
X668836Y-234815D01*
X668763Y-234778D01*
X668635Y-234724D01*
X668471Y-234633D01*
X668271Y-234523D01*
X668089Y-234378D01*
X667888Y-234214D01*
X667688Y-234031D01*
X667670Y-234013D01*
X667615Y-233940D01*
X667524Y-233831D01*
X667415Y-233667D01*
X667305Y-233485D01*
X667178Y-233248D01*
X667068Y-232993D01*
X666959Y-232720D01*
Y-232701D01*
X666941Y-232683D01*
X666923Y-232574D01*
X666886Y-232410D01*
X666831Y-232191D01*
X666777Y-231918D01*
X666740Y-231608D01*
X666722Y-231262D01*
X666704Y-230898D01*
Y-230879D01*
Y-230861D01*
Y-230806D01*
Y-230734D01*
X666722Y-230551D01*
X666740Y-230333D01*
X666759Y-230060D01*
X666813Y-229768D01*
X666868Y-229458D01*
X666959Y-229167D01*
Y-229149D01*
X666977Y-229130D01*
X667014Y-229039D01*
X667068Y-228875D01*
X667160Y-228693D01*
X667269Y-228474D01*
X667415Y-228256D01*
X667560Y-228019D01*
X667742Y-227800D01*
X667761Y-227782D01*
X667834Y-227709D01*
X667943Y-227600D01*
X668089Y-227472D01*
X668271Y-227326D01*
X668490Y-227181D01*
X668726Y-227035D01*
X668982Y-226907D01*
X669018Y-226889D01*
X669109Y-226853D01*
X669255Y-226798D01*
X669455Y-226743D01*
X669710Y-226689D01*
X669984Y-226634D01*
X670293Y-226598D01*
X670640Y-226579D01*
X670785D01*
X670967Y-226598D01*
D02*
G37*
G36*
X745925D02*
X746016D01*
X746143Y-226616D01*
X746435Y-226689D01*
X746744Y-226780D01*
X747054Y-226926D01*
X747364Y-227144D01*
X747510Y-227272D01*
X747637Y-227417D01*
X747674Y-227454D01*
X747692Y-227509D01*
X747747Y-227563D01*
X747783Y-227654D01*
X747838Y-227764D01*
X747910Y-227891D01*
X747965Y-228037D01*
X748020Y-228201D01*
X748074Y-228365D01*
X748129Y-228565D01*
X748184Y-228784D01*
X748220Y-229039D01*
X748239Y-229294D01*
X748257Y-229568D01*
Y-229859D01*
X746817D01*
Y-229841D01*
Y-229804D01*
Y-229750D01*
Y-229677D01*
X746799Y-229495D01*
X746781Y-229276D01*
X746744Y-229021D01*
X746690Y-228766D01*
X746599Y-228511D01*
X746489Y-228310D01*
X746471Y-228292D01*
X746435Y-228237D01*
X746344Y-228146D01*
X746234Y-228055D01*
X746089Y-227982D01*
X745925Y-227891D01*
X745724Y-227837D01*
X745487Y-227818D01*
X745378D01*
X745323Y-227837D01*
X745141Y-227855D01*
X744922Y-227928D01*
X744904D01*
X744868Y-227946D01*
X744813Y-227964D01*
X744740Y-228001D01*
X744540Y-228110D01*
X744321Y-228256D01*
X744303Y-228274D01*
X744267Y-228292D01*
X744212Y-228347D01*
X744121Y-228401D01*
X743920Y-228602D01*
X743665Y-228839D01*
X743647Y-228857D01*
X743611Y-228893D01*
X743538Y-228966D01*
X743447Y-229076D01*
X743337Y-229203D01*
X743210Y-229331D01*
X743082Y-229495D01*
X742936Y-229677D01*
Y-234961D01*
X741497D01*
Y-226725D01*
X742791D01*
X742827Y-228256D01*
Y-228237D01*
X742864Y-228219D01*
X742955Y-228110D01*
X743100Y-227964D01*
X743283Y-227764D01*
X743501Y-227563D01*
X743738Y-227345D01*
X743993Y-227144D01*
X744267Y-226980D01*
X744303Y-226962D01*
X744394Y-226926D01*
X744522Y-226853D01*
X744722Y-226780D01*
X744922Y-226707D01*
X745178Y-226634D01*
X745433Y-226598D01*
X745706Y-226579D01*
X745833D01*
X745925Y-226598D01*
D02*
G37*
%LPC*%
G36*
X800111Y-227727D02*
X799746D01*
X799637Y-227746D01*
X799509Y-227764D01*
X799364Y-227800D01*
X799054Y-227909D01*
X799036D01*
X798999Y-227946D01*
X798926Y-227982D01*
X798835Y-228037D01*
X798617Y-228201D01*
X798398Y-228420D01*
X798380Y-228438D01*
X798362Y-228474D01*
X798307Y-228547D01*
X798234Y-228638D01*
X798161Y-228748D01*
X798088Y-228893D01*
X797943Y-229203D01*
Y-229221D01*
X797924Y-229276D01*
X797888Y-229367D01*
X797852Y-229495D01*
X797815Y-229640D01*
X797797Y-229823D01*
X797742Y-230205D01*
X802079D01*
Y-230187D01*
Y-230114D01*
Y-230005D01*
Y-229877D01*
X802060Y-229731D01*
X802042Y-229568D01*
X801951Y-229221D01*
Y-229203D01*
X801933Y-229149D01*
X801896Y-229057D01*
X801860Y-228948D01*
X801732Y-228693D01*
X801550Y-228438D01*
X801532Y-228420D01*
X801495Y-228383D01*
X801441Y-228328D01*
X801368Y-228256D01*
X801259Y-228165D01*
X801149Y-228092D01*
X800858Y-227928D01*
X800840Y-227909D01*
X800785Y-227891D01*
X800694Y-227855D01*
X800585Y-227818D01*
X800457Y-227782D01*
X800293Y-227764D01*
X800111Y-227727D01*
D02*
G37*
G36*
X735448D02*
X735084D01*
X734974Y-227746D01*
X734847Y-227764D01*
X734701Y-227800D01*
X734391Y-227909D01*
X734373D01*
X734337Y-227946D01*
X734264Y-227982D01*
X734173Y-228037D01*
X733954Y-228201D01*
X733735Y-228420D01*
X733717Y-228438D01*
X733699Y-228474D01*
X733644Y-228547D01*
X733571Y-228638D01*
X733498Y-228748D01*
X733426Y-228893D01*
X733280Y-229203D01*
Y-229221D01*
X733262Y-229276D01*
X733225Y-229367D01*
X733189Y-229495D01*
X733152Y-229640D01*
X733134Y-229823D01*
X733079Y-230205D01*
X737416D01*
Y-230187D01*
Y-230114D01*
Y-230005D01*
Y-229877D01*
X737397Y-229731D01*
X737379Y-229568D01*
X737288Y-229221D01*
Y-229203D01*
X737270Y-229149D01*
X737234Y-229057D01*
X737197Y-228948D01*
X737070Y-228693D01*
X736887Y-228438D01*
X736869Y-228420D01*
X736833Y-228383D01*
X736778Y-228328D01*
X736705Y-228256D01*
X736596Y-228165D01*
X736486Y-228092D01*
X736195Y-227928D01*
X736177Y-227909D01*
X736122Y-227891D01*
X736031Y-227855D01*
X735922Y-227818D01*
X735794Y-227782D01*
X735630Y-227764D01*
X735448Y-227727D01*
D02*
G37*
G36*
X774020Y-231207D02*
X772015D01*
X771888Y-231225D01*
X771596Y-231244D01*
X771287Y-231317D01*
X771269D01*
X771232Y-231335D01*
X771159Y-231353D01*
X771068Y-231389D01*
X770850Y-231499D01*
X770649Y-231626D01*
X770631D01*
X770613Y-231663D01*
X770521Y-231754D01*
X770394Y-231918D01*
X770285Y-232100D01*
Y-232118D01*
X770266Y-232155D01*
X770248Y-232209D01*
X770230Y-232282D01*
X770193Y-232483D01*
X770175Y-232720D01*
Y-232738D01*
Y-232756D01*
X770193Y-232865D01*
X770212Y-233011D01*
X770248Y-233175D01*
Y-233193D01*
X770266Y-233211D01*
X770303Y-233303D01*
X770376Y-233430D01*
X770485Y-233576D01*
X770521Y-233594D01*
X770594Y-233667D01*
X770740Y-233758D01*
X770904Y-233831D01*
X770922D01*
X770959Y-233849D01*
X771013Y-233867D01*
X771086D01*
X771287Y-233904D01*
X771542Y-233922D01*
X771633D01*
X771724Y-233904D01*
X771870Y-233886D01*
X772034Y-233849D01*
X772234Y-233794D01*
X772435Y-233722D01*
X772672Y-233631D01*
X772708Y-233612D01*
X772781Y-233576D01*
X772908Y-233503D01*
X773072Y-233394D01*
X773273Y-233266D01*
X773510Y-233102D01*
X773765Y-232920D01*
X774020Y-232683D01*
Y-231207D01*
D02*
G37*
G36*
X762559Y-225468D02*
X761084D01*
Y-229877D01*
X762559D01*
X762650Y-229859D01*
X762760D01*
X762887Y-229841D01*
X763161Y-229804D01*
X763489Y-229731D01*
X763817Y-229640D01*
X764145Y-229495D01*
X764436Y-229312D01*
X764472Y-229294D01*
X764545Y-229203D01*
X764655Y-229076D01*
X764800Y-228893D01*
X764928Y-228638D01*
X765037Y-228347D01*
X765110Y-228001D01*
X765147Y-227600D01*
Y-227582D01*
Y-227563D01*
Y-227509D01*
X765128Y-227436D01*
X765110Y-227254D01*
X765056Y-227017D01*
X764983Y-226762D01*
X764855Y-226507D01*
X764691Y-226252D01*
X764454Y-226033D01*
X764418Y-226015D01*
X764327Y-225942D01*
X764181Y-225851D01*
X763962Y-225741D01*
X763689Y-225650D01*
X763379Y-225559D01*
X762997Y-225486D01*
X762559Y-225468D01*
D02*
G37*
G36*
X726192Y-227818D02*
X726083D01*
X725992Y-227837D01*
X725791Y-227855D01*
X725536Y-227909D01*
X725227Y-228001D01*
X724935Y-228146D01*
X724644Y-228328D01*
X724370Y-228584D01*
X724352Y-228620D01*
X724279Y-228729D01*
X724225Y-228802D01*
X724170Y-228912D01*
X724115Y-229021D01*
X724060Y-229149D01*
X723988Y-229312D01*
X723933Y-229476D01*
X723878Y-229677D01*
X723842Y-229895D01*
X723787Y-230114D01*
X723769Y-230369D01*
X723733Y-230643D01*
Y-230934D01*
Y-230952D01*
Y-231007D01*
Y-231080D01*
Y-231171D01*
X723751Y-231298D01*
Y-231444D01*
X723787Y-231772D01*
X723842Y-232137D01*
X723915Y-232501D01*
X724024Y-232847D01*
X724170Y-233157D01*
X724188Y-233193D01*
X724243Y-233266D01*
X724352Y-233394D01*
X724498Y-233521D01*
X724662Y-233649D01*
X724880Y-233776D01*
X725117Y-233849D01*
X725409Y-233886D01*
X725500D01*
X725609Y-233867D01*
X725755Y-233831D01*
X725937Y-233776D01*
X726119Y-233685D01*
X726338Y-233576D01*
X726557Y-233412D01*
X726593Y-233394D01*
X726666Y-233321D01*
X726775Y-233211D01*
X726939Y-233048D01*
X727140Y-232847D01*
X727340Y-232592D01*
X727577Y-232300D01*
X727832Y-231973D01*
Y-228165D01*
X727814D01*
X727777Y-228128D01*
X727686Y-228110D01*
X727595Y-228074D01*
X727486Y-228037D01*
X727340Y-227982D01*
X727030Y-227909D01*
X727012D01*
X726958Y-227891D01*
X726885Y-227873D01*
X726775Y-227855D01*
X726648D01*
X726502Y-227837D01*
X726192Y-227818D01*
D02*
G37*
G36*
X680551D02*
X680278D01*
X680223Y-227837D01*
X680041Y-227855D01*
X679841Y-227909D01*
X679822D01*
X679786Y-227928D01*
X679731Y-227946D01*
X679658Y-227982D01*
X679476Y-228074D01*
X679257Y-228201D01*
X679239D01*
X679203Y-228237D01*
X679148Y-228274D01*
X679075Y-228347D01*
X678875Y-228511D01*
X678620Y-228748D01*
X678602Y-228766D01*
X678565Y-228802D01*
X678492Y-228875D01*
X678419Y-228966D01*
X678310Y-229094D01*
X678183Y-229240D01*
X678055Y-229385D01*
X677927Y-229568D01*
Y-233558D01*
X677946D01*
X678000Y-233576D01*
X678073Y-233612D01*
X678183Y-233649D01*
X678292Y-233685D01*
X678438Y-233740D01*
X678747Y-233813D01*
X678766D01*
X678820Y-233831D01*
X678911Y-233849D01*
X679021D01*
X679148Y-233867D01*
X679294Y-233886D01*
X679604Y-233904D01*
X679713D01*
X679786Y-233886D01*
X680005Y-233867D01*
X680260Y-233813D01*
X680551Y-233703D01*
X680843Y-233576D01*
X681134Y-233376D01*
X681280Y-233266D01*
X681407Y-233120D01*
Y-233102D01*
X681444Y-233084D01*
X681462Y-233029D01*
X681517Y-232975D01*
X681571Y-232884D01*
X681626Y-232792D01*
X681681Y-232665D01*
X681754Y-232537D01*
X681808Y-232373D01*
X681863Y-232209D01*
X681918Y-232009D01*
X681972Y-231790D01*
X682027Y-231572D01*
X682045Y-231317D01*
X682082Y-231062D01*
Y-230770D01*
Y-230734D01*
Y-230661D01*
Y-230533D01*
X682063Y-230369D01*
Y-230187D01*
X682045Y-229987D01*
X681972Y-229586D01*
Y-229568D01*
X681954Y-229495D01*
X681936Y-229385D01*
X681899Y-229258D01*
X681808Y-228966D01*
X681681Y-228657D01*
Y-228638D01*
X681644Y-228584D01*
X681608Y-228511D01*
X681535Y-228420D01*
X681371Y-228219D01*
X681152Y-228037D01*
X681134Y-228019D01*
X681098Y-228001D01*
X681025Y-227964D01*
X680934Y-227928D01*
X680824Y-227891D01*
X680697Y-227855D01*
X680551Y-227818D01*
D02*
G37*
G36*
X707717Y-227800D02*
X707407D01*
X707280Y-227818D01*
X707134Y-227837D01*
X706952Y-227855D01*
X706770Y-227909D01*
X706588Y-227964D01*
X706405Y-228055D01*
X706387Y-228074D01*
X706332Y-228110D01*
X706241Y-228165D01*
X706150Y-228237D01*
X706023Y-228328D01*
X705895Y-228438D01*
X705658Y-228729D01*
X705640Y-228748D01*
X705604Y-228802D01*
X705567Y-228893D01*
X705494Y-229003D01*
X705421Y-229149D01*
X705367Y-229312D01*
X705294Y-229495D01*
X705239Y-229695D01*
Y-229713D01*
X705221Y-229786D01*
X705203Y-229895D01*
X705185Y-230041D01*
X705148Y-230223D01*
X705130Y-230424D01*
X705112Y-230861D01*
Y-230898D01*
Y-230989D01*
X705130Y-231134D01*
Y-231317D01*
X705148Y-231517D01*
X705185Y-231754D01*
X705276Y-232209D01*
Y-232228D01*
X705312Y-232300D01*
X705349Y-232410D01*
X705403Y-232537D01*
X705549Y-232847D01*
X705749Y-233157D01*
X705768Y-233175D01*
X705804Y-233211D01*
X705877Y-233284D01*
X705968Y-233357D01*
X706077Y-233448D01*
X706205Y-233540D01*
X706496Y-233722D01*
X706515D01*
X706569Y-233758D01*
X706679Y-233776D01*
X706788Y-233813D01*
X706952Y-233849D01*
X707116Y-233867D01*
X707316Y-233904D01*
X707626D01*
X707735Y-233886D01*
X707899Y-233867D01*
X708063Y-233849D01*
X708246Y-233794D01*
X708428Y-233740D01*
X708610Y-233667D01*
X708628Y-233649D01*
X708683Y-233612D01*
X708774Y-233558D01*
X708883Y-233485D01*
X708993Y-233394D01*
X709120Y-233266D01*
X709357Y-232993D01*
X709375Y-232975D01*
X709412Y-232920D01*
X709448Y-232829D01*
X709521Y-232720D01*
X709594Y-232574D01*
X709649Y-232410D01*
X709721Y-232228D01*
X709776Y-232027D01*
Y-232009D01*
X709794Y-231936D01*
X709831Y-231809D01*
X709849Y-231663D01*
X709885Y-231499D01*
X709904Y-231298D01*
X709922Y-230861D01*
Y-230825D01*
Y-230734D01*
Y-230588D01*
X709904Y-230406D01*
X709885Y-230205D01*
X709849Y-229968D01*
X709794Y-229750D01*
X709740Y-229531D01*
Y-229513D01*
X709703Y-229440D01*
X709667Y-229331D01*
X709612Y-229185D01*
X709466Y-228893D01*
X709375Y-228729D01*
X709266Y-228584D01*
X709248Y-228565D01*
X709211Y-228529D01*
X709138Y-228456D01*
X709047Y-228365D01*
X708938Y-228274D01*
X708810Y-228183D01*
X708501Y-228001D01*
X708482Y-227982D01*
X708428Y-227964D01*
X708337Y-227928D01*
X708209Y-227891D01*
X708063Y-227855D01*
X707899Y-227837D01*
X707717Y-227800D01*
D02*
G37*
G36*
X670767D02*
X670457D01*
X670330Y-227818D01*
X670184Y-227837D01*
X670002Y-227855D01*
X669820Y-227909D01*
X669637Y-227964D01*
X669455Y-228055D01*
X669437Y-228074D01*
X669382Y-228110D01*
X669291Y-228165D01*
X669200Y-228237D01*
X669072Y-228328D01*
X668945Y-228438D01*
X668708Y-228729D01*
X668690Y-228748D01*
X668653Y-228802D01*
X668617Y-228893D01*
X668544Y-229003D01*
X668471Y-229149D01*
X668417Y-229312D01*
X668344Y-229495D01*
X668289Y-229695D01*
Y-229713D01*
X668271Y-229786D01*
X668253Y-229895D01*
X668234Y-230041D01*
X668198Y-230223D01*
X668180Y-230424D01*
X668161Y-230861D01*
Y-230898D01*
Y-230989D01*
X668180Y-231134D01*
Y-231317D01*
X668198Y-231517D01*
X668234Y-231754D01*
X668326Y-232209D01*
Y-232228D01*
X668362Y-232300D01*
X668398Y-232410D01*
X668453Y-232537D01*
X668599Y-232847D01*
X668799Y-233157D01*
X668818Y-233175D01*
X668854Y-233211D01*
X668927Y-233284D01*
X669018Y-233357D01*
X669127Y-233448D01*
X669255Y-233540D01*
X669546Y-233722D01*
X669564D01*
X669619Y-233758D01*
X669729Y-233776D01*
X669838Y-233813D01*
X670002Y-233849D01*
X670166Y-233867D01*
X670366Y-233904D01*
X670676D01*
X670785Y-233886D01*
X670949Y-233867D01*
X671113Y-233849D01*
X671295Y-233794D01*
X671478Y-233740D01*
X671660Y-233667D01*
X671678Y-233649D01*
X671733Y-233612D01*
X671824Y-233558D01*
X671933Y-233485D01*
X672042Y-233394D01*
X672170Y-233266D01*
X672407Y-232993D01*
X672425Y-232975D01*
X672462Y-232920D01*
X672498Y-232829D01*
X672571Y-232720D01*
X672644Y-232574D01*
X672698Y-232410D01*
X672771Y-232228D01*
X672826Y-232027D01*
Y-232009D01*
X672844Y-231936D01*
X672881Y-231809D01*
X672899Y-231663D01*
X672935Y-231499D01*
X672953Y-231298D01*
X672972Y-230861D01*
Y-230825D01*
Y-230734D01*
Y-230588D01*
X672953Y-230406D01*
X672935Y-230205D01*
X672899Y-229968D01*
X672844Y-229750D01*
X672789Y-229531D01*
Y-229513D01*
X672753Y-229440D01*
X672717Y-229331D01*
X672662Y-229185D01*
X672516Y-228893D01*
X672425Y-228729D01*
X672316Y-228584D01*
X672297Y-228565D01*
X672261Y-228529D01*
X672188Y-228456D01*
X672097Y-228365D01*
X671988Y-228274D01*
X671860Y-228183D01*
X671551Y-228001D01*
X671532Y-227982D01*
X671478Y-227964D01*
X671386Y-227928D01*
X671259Y-227891D01*
X671113Y-227855D01*
X670949Y-227837D01*
X670767Y-227800D01*
D02*
G37*
%LPD*%
D10*
X141732Y129921D02*
D03*
X149803D02*
D03*
X133661D02*
D03*
D32*
X12598Y97835D02*
D03*
Y75394D02*
D03*
X12598Y-97835D02*
D03*
X12598Y-75394D02*
D03*
X12598Y-11220D02*
D03*
X12598Y11220D02*
D03*
X263302Y-11220D02*
D03*
Y11220D02*
D03*
D33*
X18898Y92716D02*
D03*
Y80512D02*
D03*
X18898Y-92716D02*
D03*
X18898Y-80512D02*
D03*
X18898Y-6102D02*
D03*
X18898Y6102D02*
D03*
X269601Y-6102D02*
D03*
Y6102D02*
D03*
D34*
X18898Y97835D02*
D03*
Y75394D02*
D03*
X18898Y-97835D02*
D03*
X18898Y-75394D02*
D03*
X18898Y-11220D02*
D03*
X18898Y11220D02*
D03*
X269601Y-11220D02*
D03*
Y11220D02*
D03*
D35*
X12598Y92716D02*
D03*
Y80512D02*
D03*
X12598Y-92716D02*
D03*
X12598Y-80512D02*
D03*
X12598Y-6102D02*
D03*
X12598Y6102D02*
D03*
X263302Y-6102D02*
D03*
Y6102D02*
D03*
D36*
X152953Y46457D02*
D03*
X152953Y40157D02*
D03*
X130512Y46457D02*
D03*
X130512Y40157D02*
D03*
D37*
X147835D02*
D03*
X147835Y46457D02*
D03*
X135630Y40157D02*
D03*
X135630Y46457D02*
D03*
M02*
