G04 Layer_Physical_Order=2*
G04 Layer_Color=16711680*
%FSLAX25Y25*%
%MOIN*%
G70*
G01*
G75*
%ADD13C,0.10000*%
%ADD14C,0.02500*%
%ADD15C,0.30000*%
%ADD16C,0.03937*%
%ADD17C,0.07000*%
%ADD18C,0.04724*%
%ADD19R,0.04724X0.04724*%
%ADD20R,0.05905X0.05905*%
%ADD21C,0.05905*%
%ADD22C,0.05000*%
%ADD23R,0.16142X0.09055*%
G36*
X669874Y-226598D02*
X670075Y-226616D01*
X670311Y-226652D01*
X670767Y-226743D01*
X670785D01*
X670876Y-226780D01*
X670986Y-226816D01*
X671113Y-226871D01*
X671277Y-226944D01*
X671441Y-227035D01*
X671605Y-227126D01*
X671769Y-227254D01*
X671787Y-227272D01*
X671842Y-227308D01*
X671915Y-227381D01*
X672006Y-227472D01*
X672115Y-227600D01*
X672225Y-227746D01*
X672316Y-227909D01*
X672407Y-228092D01*
X672425Y-228110D01*
X672443Y-228183D01*
X672480Y-228292D01*
X672534Y-228438D01*
X672571Y-228602D01*
X672607Y-228820D01*
X672625Y-229039D01*
X672644Y-229294D01*
Y-234961D01*
X671350D01*
X671314Y-233867D01*
X671277Y-233904D01*
X671204Y-233977D01*
X671059Y-234086D01*
X670894Y-234232D01*
X670676Y-234378D01*
X670457Y-234542D01*
X670202Y-234687D01*
X669947Y-234815D01*
X669911Y-234833D01*
X669820Y-234851D01*
X669692Y-234906D01*
X669510Y-234961D01*
X669291Y-235015D01*
X669036Y-235052D01*
X668781Y-235088D01*
X668490Y-235106D01*
X668380D01*
X668253Y-235088D01*
X668089D01*
X667888Y-235070D01*
X667688Y-235033D01*
X667287Y-234942D01*
X667269D01*
X667214Y-234906D01*
X667123Y-234870D01*
X666995Y-234815D01*
X666740Y-234651D01*
X666467Y-234451D01*
X666449Y-234432D01*
X666412Y-234396D01*
X666358Y-234323D01*
X666285Y-234232D01*
X666212Y-234122D01*
X666121Y-233995D01*
X665993Y-233703D01*
Y-233685D01*
X665975Y-233631D01*
X665957Y-233540D01*
X665920Y-233430D01*
X665902Y-233284D01*
X665866Y-233120D01*
X665848Y-232774D01*
Y-232756D01*
Y-232720D01*
Y-232647D01*
X665866Y-232574D01*
X665884Y-232465D01*
X665902Y-232337D01*
X665957Y-232064D01*
X666066Y-231754D01*
X666230Y-231426D01*
X666339Y-231262D01*
X666467Y-231116D01*
X666595Y-230970D01*
X666759Y-230825D01*
X666777D01*
X666795Y-230788D01*
X666850Y-230752D01*
X666941Y-230715D01*
X667032Y-230661D01*
X667141Y-230606D01*
X667287Y-230533D01*
X667451Y-230460D01*
X667633Y-230406D01*
X667834Y-230333D01*
X668052Y-230278D01*
X668307Y-230223D01*
X668562Y-230187D01*
X668854Y-230151D01*
X669164Y-230114D01*
X671204D01*
Y-229403D01*
Y-229367D01*
Y-229276D01*
X671186Y-229149D01*
X671150Y-228984D01*
X671095Y-228802D01*
X671004Y-228602D01*
X670894Y-228420D01*
X670731Y-228237D01*
X670712Y-228219D01*
X670640Y-228165D01*
X670530Y-228092D01*
X670384Y-228019D01*
X670184Y-227946D01*
X669929Y-227873D01*
X669637Y-227818D01*
X669309Y-227800D01*
X669054D01*
X668872Y-227818D01*
X668653Y-227837D01*
X668435Y-227873D01*
X667925Y-227964D01*
X667888D01*
X667815Y-228001D01*
X667670Y-228037D01*
X667506Y-228074D01*
X667287Y-228146D01*
X667050Y-228219D01*
X666795Y-228310D01*
X666540Y-228401D01*
Y-227108D01*
X666558D01*
X666595Y-227090D01*
X666631Y-227071D01*
X666704Y-227053D01*
X666886Y-226998D01*
X667123Y-226926D01*
X667141D01*
X667178Y-226907D01*
X667251Y-226889D01*
X667342Y-226871D01*
X667579Y-226816D01*
X667834Y-226762D01*
X667852D01*
X667907Y-226743D01*
X667979Y-226725D01*
X668070Y-226707D01*
X668180Y-226689D01*
X668307Y-226671D01*
X668599Y-226634D01*
X668617D01*
X668672Y-226616D01*
X668745D01*
X668854Y-226598D01*
X668982D01*
X669109Y-226579D01*
X669692D01*
X669874Y-226598D01*
D02*
G37*
G36*
X658906Y-233722D02*
X663607D01*
Y-234961D01*
X657430D01*
Y-224247D01*
X658906D01*
Y-233722D01*
D02*
G37*
G36*
X715661Y-224101D02*
X715843D01*
X716044Y-224138D01*
X716262Y-224174D01*
X716499Y-224229D01*
X716718Y-224302D01*
X716736Y-224320D01*
X716809Y-224338D01*
X716918Y-224393D01*
X717064Y-224466D01*
X717228Y-224557D01*
X717392Y-224648D01*
X717720Y-224921D01*
X717738Y-224940D01*
X717793Y-224994D01*
X717866Y-225085D01*
X717975Y-225195D01*
X718084Y-225341D01*
X718194Y-225504D01*
X718303Y-225687D01*
X718394Y-225905D01*
X718412Y-225923D01*
X718431Y-226015D01*
X718467Y-226124D01*
X718522Y-226288D01*
X718558Y-226488D01*
X718595Y-226707D01*
X718613Y-226944D01*
X718631Y-227217D01*
Y-227235D01*
Y-227326D01*
Y-227436D01*
X718613Y-227600D01*
X718595Y-227764D01*
X718558Y-227964D01*
X718467Y-228365D01*
Y-228383D01*
X718431Y-228456D01*
X718394Y-228565D01*
X718339Y-228693D01*
X718267Y-228857D01*
X718176Y-229039D01*
X717957Y-229422D01*
X717939Y-229440D01*
X717902Y-229513D01*
X717829Y-229604D01*
X717738Y-229750D01*
X717611Y-229914D01*
X717465Y-230096D01*
X717301Y-230296D01*
X717119Y-230497D01*
X717100Y-230515D01*
X717028Y-230588D01*
X716918Y-230697D01*
X716791Y-230843D01*
X716608Y-231025D01*
X716408Y-231225D01*
X716189Y-231462D01*
X715934Y-231699D01*
X714003Y-233594D01*
X719214D01*
Y-234961D01*
X712145D01*
Y-233685D01*
X714896Y-230934D01*
X714932Y-230898D01*
X715005Y-230825D01*
X715133Y-230697D01*
X715297Y-230533D01*
X715479Y-230351D01*
X715661Y-230151D01*
X715843Y-229950D01*
X716007Y-229768D01*
X716025Y-229750D01*
X716080Y-229677D01*
X716153Y-229586D01*
X716244Y-229476D01*
X716353Y-229331D01*
X716463Y-229185D01*
X716663Y-228875D01*
X716681Y-228857D01*
X716700Y-228802D01*
X716754Y-228729D01*
X716809Y-228620D01*
X716918Y-228383D01*
X716991Y-228110D01*
Y-228092D01*
X717009Y-228037D01*
X717028Y-227964D01*
X717046Y-227873D01*
Y-227764D01*
X717064Y-227618D01*
X717082Y-227326D01*
Y-227308D01*
Y-227254D01*
Y-227181D01*
X717064Y-227090D01*
X717046Y-226835D01*
X716973Y-226579D01*
Y-226561D01*
X716955Y-226525D01*
X716936Y-226452D01*
X716900Y-226361D01*
X716791Y-226160D01*
X716645Y-225942D01*
X716627Y-225923D01*
X716608Y-225887D01*
X716554Y-225851D01*
X716499Y-225778D01*
X716299Y-225650D01*
X716062Y-225504D01*
X716044D01*
X716007Y-225486D01*
X715934Y-225450D01*
X715825Y-225413D01*
X715697Y-225395D01*
X715570Y-225359D01*
X715406Y-225341D01*
X715114D01*
X714987Y-225359D01*
X714823Y-225377D01*
X714622Y-225413D01*
X714422Y-225468D01*
X714204Y-225541D01*
X713985Y-225650D01*
X713967Y-225668D01*
X713894Y-225705D01*
X713784Y-225778D01*
X713639Y-225869D01*
X713493Y-225978D01*
X713311Y-226106D01*
X713147Y-226270D01*
X712964Y-226434D01*
X712181Y-225504D01*
X712218Y-225468D01*
X712290Y-225395D01*
X712418Y-225286D01*
X712582Y-225140D01*
X712782Y-224976D01*
X713019Y-224812D01*
X713274Y-224630D01*
X713566Y-224484D01*
X713584D01*
X713602Y-224466D01*
X713712Y-224429D01*
X713875Y-224357D01*
X714094Y-224284D01*
X714367Y-224211D01*
X714677Y-224138D01*
X715023Y-224101D01*
X715406Y-224083D01*
X715534D01*
X715661Y-224101D01*
D02*
G37*
G36*
X765657Y-225486D02*
X762487D01*
Y-234961D01*
X761011D01*
Y-225486D01*
X757840D01*
Y-224247D01*
X765657D01*
Y-225486D01*
D02*
G37*
G36*
X743301Y-224266D02*
X743519Y-224284D01*
X743793Y-224320D01*
X744084Y-224393D01*
X744412Y-224466D01*
X744740Y-224575D01*
X745068Y-224703D01*
X745396Y-224885D01*
X745688Y-225085D01*
X745961Y-225341D01*
X746180Y-225650D01*
X746362Y-225996D01*
X746471Y-226397D01*
X746489Y-226616D01*
X746508Y-226853D01*
Y-226871D01*
Y-226889D01*
Y-226998D01*
X746489Y-227163D01*
X746453Y-227363D01*
X746398Y-227600D01*
X746325Y-227855D01*
X746234Y-228110D01*
X746089Y-228347D01*
X746070Y-228365D01*
X746016Y-228456D01*
X745906Y-228565D01*
X745779Y-228693D01*
X745597Y-228839D01*
X745360Y-229003D01*
X745086Y-229149D01*
X744758Y-229276D01*
X744777D01*
X744831Y-229294D01*
X744922Y-229312D01*
X745032Y-229331D01*
X745287Y-229422D01*
X745578Y-229549D01*
X745597D01*
X745651Y-229586D01*
X745724Y-229622D01*
X745815Y-229695D01*
X746034Y-229841D01*
X746252Y-230060D01*
X746271Y-230078D01*
X746307Y-230114D01*
X746362Y-230187D01*
X746416Y-230260D01*
X746489Y-230369D01*
X746562Y-230497D01*
X746708Y-230806D01*
Y-230825D01*
X746744Y-230879D01*
X746763Y-230970D01*
X746799Y-231080D01*
X746836Y-231225D01*
X746854Y-231389D01*
X746890Y-231754D01*
Y-231790D01*
Y-231881D01*
X746872Y-232027D01*
X746854Y-232228D01*
X746817Y-232428D01*
X746763Y-232665D01*
X746690Y-232902D01*
X746580Y-233139D01*
X746562Y-233157D01*
X746526Y-233230D01*
X746453Y-233339D01*
X746362Y-233485D01*
X746252Y-233631D01*
X746107Y-233813D01*
X745943Y-233977D01*
X745742Y-234141D01*
X745724Y-234159D01*
X745651Y-234214D01*
X745524Y-234286D01*
X745378Y-234359D01*
X745178Y-234469D01*
X744959Y-234578D01*
X744704Y-234669D01*
X744412Y-234760D01*
X744376D01*
X744285Y-234797D01*
X744121Y-234815D01*
X743920Y-234851D01*
X743665Y-234888D01*
X743374Y-234924D01*
X743046Y-234942D01*
X742700Y-234961D01*
X739948D01*
Y-224247D01*
X743119D01*
X743301Y-224266D01*
D02*
G37*
G36*
X797086Y-222772D02*
X797105Y-222790D01*
X797159Y-222844D01*
X797232Y-222917D01*
X797323Y-223008D01*
X797414Y-223099D01*
X797669Y-223373D01*
X797943Y-223701D01*
X798271Y-224083D01*
X798617Y-224539D01*
X798963Y-225049D01*
X799309Y-225596D01*
X799655Y-226197D01*
X799983Y-226853D01*
X800275Y-227527D01*
X800512Y-228237D01*
X800694Y-228984D01*
X800767Y-229367D01*
X800821Y-229750D01*
X800840Y-230151D01*
X800858Y-230551D01*
Y-230570D01*
Y-230588D01*
Y-230643D01*
Y-230697D01*
Y-230879D01*
X800840Y-231116D01*
X800821Y-231389D01*
X800785Y-231699D01*
X800730Y-232045D01*
X800676Y-232392D01*
Y-232410D01*
Y-232428D01*
X800657Y-232483D01*
X800639Y-232556D01*
X800603Y-232738D01*
X800530Y-232993D01*
X800439Y-233284D01*
X800329Y-233612D01*
X800202Y-233959D01*
X800056Y-234323D01*
Y-234341D01*
X800038Y-234359D01*
X800020Y-234414D01*
X799983Y-234487D01*
X799874Y-234687D01*
X799746Y-234942D01*
X799582Y-235252D01*
X799364Y-235580D01*
X799145Y-235945D01*
X798872Y-236327D01*
Y-236345D01*
X798835Y-236382D01*
X798799Y-236437D01*
X798744Y-236509D01*
X798671Y-236600D01*
X798580Y-236710D01*
X798362Y-236983D01*
X798107Y-237293D01*
X797797Y-237639D01*
X797432Y-238022D01*
X797032Y-238404D01*
X796212Y-237548D01*
X796230Y-237530D01*
X796285Y-237475D01*
X796357Y-237384D01*
X796467Y-237275D01*
X796613Y-237129D01*
X796758Y-236947D01*
X796922Y-236764D01*
X797105Y-236546D01*
X797287Y-236309D01*
X797487Y-236054D01*
X797888Y-235489D01*
X798252Y-234888D01*
X798416Y-234560D01*
X798580Y-234250D01*
X798598Y-234232D01*
X798617Y-234177D01*
X798653Y-234086D01*
X798708Y-233959D01*
X798763Y-233794D01*
X798835Y-233612D01*
X798908Y-233394D01*
X798981Y-233157D01*
X799054Y-232902D01*
X799127Y-232628D01*
X799254Y-232009D01*
X799346Y-231353D01*
X799382Y-231007D01*
Y-230661D01*
Y-230643D01*
Y-230624D01*
Y-230570D01*
Y-230479D01*
X799364Y-230387D01*
Y-230278D01*
X799327Y-230005D01*
X799291Y-229659D01*
X799218Y-229258D01*
X799109Y-228820D01*
X798981Y-228328D01*
X798817Y-227800D01*
X798617Y-227235D01*
X798344Y-226652D01*
X798052Y-226051D01*
X797687Y-225450D01*
X797250Y-224849D01*
X796776Y-224229D01*
X796503Y-223938D01*
X796212Y-223646D01*
X797068Y-222753D01*
X797086Y-222772D01*
D02*
G37*
G36*
X736523Y-223610D02*
X736486Y-223646D01*
X736395Y-223755D01*
X736232Y-223919D01*
X736031Y-224156D01*
X735776Y-224448D01*
X735521Y-224794D01*
X735229Y-225213D01*
X734938Y-225650D01*
X734628Y-226142D01*
X734337Y-226689D01*
X734082Y-227254D01*
X733826Y-227873D01*
X733626Y-228511D01*
X733480Y-229167D01*
X733371Y-229859D01*
X733353Y-230205D01*
X733334Y-230570D01*
Y-230588D01*
Y-230661D01*
Y-230752D01*
X733353Y-230898D01*
Y-231062D01*
X733371Y-231262D01*
X733407Y-231481D01*
X733444Y-231736D01*
X733480Y-232009D01*
X733535Y-232282D01*
X733681Y-232902D01*
X733881Y-233558D01*
X733990Y-233886D01*
X734136Y-234214D01*
X734154Y-234232D01*
X734173Y-234286D01*
X734227Y-234378D01*
X734282Y-234505D01*
X734373Y-234669D01*
X734482Y-234851D01*
X734592Y-235052D01*
X734737Y-235289D01*
X734901Y-235525D01*
X735065Y-235781D01*
X735266Y-236054D01*
X735485Y-236345D01*
X735721Y-236637D01*
X735958Y-236928D01*
X736232Y-237220D01*
X736523Y-237511D01*
X735648Y-238404D01*
X735630Y-238386D01*
X735612Y-238368D01*
X735557Y-238313D01*
X735485Y-238240D01*
X735393Y-238149D01*
X735302Y-238058D01*
X735065Y-237785D01*
X734774Y-237457D01*
X734464Y-237074D01*
X734118Y-236619D01*
X733772Y-236127D01*
X733407Y-235580D01*
X733079Y-234979D01*
X732752Y-234341D01*
X732460Y-233667D01*
X732223Y-232956D01*
X732041Y-232228D01*
X731968Y-231845D01*
X731913Y-231462D01*
X731895Y-231080D01*
X731877Y-230679D01*
Y-230661D01*
Y-230624D01*
Y-230588D01*
Y-230515D01*
X731895Y-230314D01*
Y-230060D01*
X731931Y-229750D01*
X731968Y-229422D01*
X732004Y-229057D01*
X732077Y-228693D01*
Y-228675D01*
X732095Y-228657D01*
Y-228602D01*
X732114Y-228529D01*
X732168Y-228328D01*
X732241Y-228074D01*
X732314Y-227782D01*
X732423Y-227454D01*
X732569Y-227090D01*
X732715Y-226725D01*
Y-226707D01*
X732733Y-226671D01*
X732770Y-226634D01*
X732806Y-226561D01*
X732897Y-226361D01*
X733043Y-226106D01*
X733207Y-225796D01*
X733407Y-225468D01*
X733644Y-225104D01*
X733899Y-224739D01*
Y-224721D01*
X733936Y-224685D01*
X733972Y-224648D01*
X734027Y-224575D01*
X734191Y-224375D01*
X734391Y-224120D01*
X734664Y-223810D01*
X734956Y-223482D01*
X735302Y-223118D01*
X735685Y-222753D01*
X736523Y-223610D01*
D02*
G37*
G36*
X688240Y-226598D02*
X688440Y-226616D01*
X688677Y-226652D01*
X688932Y-226689D01*
X689187Y-226762D01*
X689442Y-226853D01*
X689479Y-226871D01*
X689552Y-226907D01*
X689679Y-226962D01*
X689843Y-227053D01*
X690007Y-227163D01*
X690208Y-227290D01*
X690390Y-227454D01*
X690572Y-227636D01*
X690590Y-227654D01*
X690645Y-227727D01*
X690736Y-227837D01*
X690827Y-227964D01*
X690937Y-228146D01*
X691064Y-228347D01*
X691173Y-228584D01*
X691264Y-228839D01*
X691283Y-228875D01*
X691301Y-228966D01*
X691337Y-229112D01*
X691392Y-229294D01*
X691429Y-229531D01*
X691465Y-229786D01*
X691483Y-230078D01*
X691501Y-230406D01*
Y-230424D01*
Y-230460D01*
Y-230515D01*
Y-230588D01*
Y-230752D01*
X691483Y-230934D01*
Y-230970D01*
Y-231062D01*
Y-231171D01*
X691465Y-231298D01*
X685689D01*
Y-231317D01*
Y-231353D01*
Y-231426D01*
X685707Y-231499D01*
Y-231608D01*
X685726Y-231736D01*
X685780Y-232027D01*
X685853Y-232337D01*
X685981Y-232665D01*
X686145Y-232975D01*
X686381Y-233248D01*
X686418Y-233284D01*
X686509Y-233357D01*
X686673Y-233467D01*
X686910Y-233576D01*
X687201Y-233703D01*
X687548Y-233813D01*
X687949Y-233886D01*
X688422Y-233922D01*
X688878D01*
X689133Y-233904D01*
X689187D01*
X689260Y-233886D01*
X689351D01*
X689588Y-233849D01*
X689825Y-233831D01*
X689843D01*
X689880Y-233813D01*
X689953D01*
X690044Y-233794D01*
X690244Y-233758D01*
X690481Y-233722D01*
X690499D01*
X690536Y-233703D01*
X690590Y-233685D01*
X690663Y-233667D01*
X690864Y-233631D01*
X691064Y-233576D01*
Y-234742D01*
X691046D01*
X690955Y-234760D01*
X690845Y-234797D01*
X690682Y-234833D01*
X690481Y-234870D01*
X690262Y-234924D01*
X690007Y-234961D01*
X689734Y-234997D01*
X689698D01*
X689607Y-235015D01*
X689461Y-235033D01*
X689279Y-235052D01*
X689042Y-235070D01*
X688787Y-235088D01*
X688513Y-235106D01*
X688040D01*
X687839Y-235088D01*
X687602Y-235070D01*
X687311Y-235033D01*
X687001Y-234997D01*
X686691Y-234924D01*
X686400Y-234833D01*
X686363Y-234815D01*
X686272Y-234778D01*
X686127Y-234705D01*
X685962Y-234614D01*
X685762Y-234505D01*
X685543Y-234359D01*
X685343Y-234195D01*
X685143Y-233995D01*
X685124Y-233977D01*
X685070Y-233904D01*
X684979Y-233776D01*
X684869Y-233631D01*
X684742Y-233430D01*
X684632Y-233211D01*
X684505Y-232938D01*
X684414Y-232665D01*
Y-232647D01*
Y-232628D01*
X684377Y-232519D01*
X684341Y-232355D01*
X684305Y-232137D01*
X684268Y-231863D01*
X684232Y-231572D01*
X684213Y-231225D01*
X684195Y-230861D01*
Y-230843D01*
Y-230825D01*
Y-230715D01*
X684213Y-230551D01*
X684232Y-230333D01*
X684250Y-230096D01*
X684305Y-229823D01*
X684359Y-229531D01*
X684432Y-229240D01*
Y-229221D01*
X684450Y-229203D01*
X684487Y-229112D01*
X684541Y-228966D01*
X684614Y-228766D01*
X684724Y-228565D01*
X684851Y-228328D01*
X684997Y-228092D01*
X685161Y-227873D01*
X685179Y-227855D01*
X685252Y-227782D01*
X685361Y-227673D01*
X685489Y-227527D01*
X685671Y-227381D01*
X685871Y-227217D01*
X686090Y-227071D01*
X686345Y-226926D01*
X686381Y-226907D01*
X686473Y-226871D01*
X686618Y-226816D01*
X686801Y-226743D01*
X687038Y-226689D01*
X687311Y-226634D01*
X687602Y-226598D01*
X687930Y-226579D01*
X688076D01*
X688240Y-226598D01*
D02*
G37*
G36*
X780670Y-224101D02*
X780907Y-224138D01*
X781198Y-224174D01*
X781490Y-224247D01*
X781800Y-224338D01*
X782091Y-224466D01*
X782128Y-224484D01*
X782219Y-224539D01*
X782365Y-224630D01*
X782547Y-224739D01*
X782747Y-224903D01*
X782947Y-225085D01*
X783166Y-225304D01*
X783367Y-225559D01*
X783385Y-225596D01*
X783458Y-225687D01*
X783549Y-225832D01*
X783658Y-226033D01*
X783786Y-226288D01*
X783913Y-226579D01*
X784023Y-226907D01*
X784132Y-227272D01*
Y-227290D01*
X784150Y-227308D01*
Y-227363D01*
X784168Y-227454D01*
X784187Y-227545D01*
X784205Y-227654D01*
X784259Y-227928D01*
X784314Y-228256D01*
X784350Y-228638D01*
X784369Y-229076D01*
X784387Y-229531D01*
Y-229549D01*
Y-229586D01*
Y-229677D01*
Y-229768D01*
X784369Y-229895D01*
Y-230041D01*
X784350Y-230387D01*
X784296Y-230770D01*
X784241Y-231189D01*
X784150Y-231608D01*
X784041Y-232027D01*
Y-232045D01*
X784023Y-232082D01*
X784004Y-232137D01*
X783986Y-232209D01*
X783895Y-232392D01*
X783804Y-232647D01*
X783658Y-232920D01*
X783512Y-233211D01*
X783312Y-233503D01*
X783111Y-233776D01*
X783093Y-233813D01*
X783020Y-233886D01*
X782893Y-234013D01*
X782729Y-234159D01*
X782528Y-234323D01*
X782310Y-234487D01*
X782055Y-234633D01*
X781763Y-234778D01*
X781727Y-234797D01*
X781636Y-234833D01*
X781472Y-234888D01*
X781271Y-234942D01*
X781035Y-234997D01*
X780761Y-235052D01*
X780451Y-235088D01*
X780142Y-235106D01*
X779959D01*
X779777Y-235088D01*
X779522Y-235052D01*
X779249Y-235015D01*
X778939Y-234961D01*
X778629Y-234870D01*
X778338Y-234742D01*
X778301Y-234724D01*
X778210Y-234669D01*
X778065Y-234578D01*
X777901Y-234469D01*
X777682Y-234305D01*
X777482Y-234122D01*
X777263Y-233904D01*
X777063Y-233667D01*
X777044Y-233631D01*
X776971Y-233540D01*
X776880Y-233394D01*
X776771Y-233193D01*
X776662Y-232938D01*
X776534Y-232647D01*
X776425Y-232319D01*
X776315Y-231954D01*
Y-231936D01*
X776297Y-231900D01*
Y-231845D01*
X776279Y-231772D01*
X776261Y-231681D01*
X776243Y-231572D01*
X776206Y-231280D01*
X776152Y-230952D01*
X776115Y-230551D01*
X776097Y-230114D01*
X776079Y-229659D01*
Y-229640D01*
Y-229604D01*
Y-229513D01*
Y-229422D01*
X776097Y-229294D01*
Y-229149D01*
X776115Y-228820D01*
X776152Y-228420D01*
X776224Y-228019D01*
X776297Y-227582D01*
X776407Y-227181D01*
Y-227163D01*
X776425Y-227126D01*
X776443Y-227071D01*
X776461Y-226998D01*
X776534Y-226816D01*
X776643Y-226561D01*
X776771Y-226288D01*
X776935Y-225996D01*
X777117Y-225723D01*
X777318Y-225450D01*
X777336Y-225413D01*
X777427Y-225341D01*
X777536Y-225213D01*
X777700Y-225067D01*
X777901Y-224903D01*
X778137Y-224721D01*
X778393Y-224575D01*
X778666Y-224429D01*
X778702Y-224411D01*
X778793Y-224375D01*
X778957Y-224320D01*
X779158Y-224247D01*
X779395Y-224193D01*
X779686Y-224138D01*
X779978Y-224101D01*
X780306Y-224083D01*
X780470D01*
X780670Y-224101D01*
D02*
G37*
G36*
X752957D02*
X753194Y-224138D01*
X753486Y-224174D01*
X753777Y-224247D01*
X754087Y-224338D01*
X754379Y-224466D01*
X754415Y-224484D01*
X754506Y-224539D01*
X754652Y-224630D01*
X754834Y-224739D01*
X755034Y-224903D01*
X755235Y-225085D01*
X755454Y-225304D01*
X755654Y-225559D01*
X755672Y-225596D01*
X755745Y-225687D01*
X755836Y-225832D01*
X755945Y-226033D01*
X756073Y-226288D01*
X756201Y-226579D01*
X756310Y-226907D01*
X756419Y-227272D01*
Y-227290D01*
X756437Y-227308D01*
Y-227363D01*
X756456Y-227454D01*
X756474Y-227545D01*
X756492Y-227654D01*
X756547Y-227928D01*
X756601Y-228256D01*
X756638Y-228638D01*
X756656Y-229076D01*
X756674Y-229531D01*
Y-229549D01*
Y-229586D01*
Y-229677D01*
Y-229768D01*
X756656Y-229895D01*
Y-230041D01*
X756638Y-230387D01*
X756583Y-230770D01*
X756529Y-231189D01*
X756437Y-231608D01*
X756328Y-232027D01*
Y-232045D01*
X756310Y-232082D01*
X756292Y-232137D01*
X756274Y-232209D01*
X756182Y-232392D01*
X756091Y-232647D01*
X755945Y-232920D01*
X755800Y-233211D01*
X755599Y-233503D01*
X755399Y-233776D01*
X755381Y-233813D01*
X755308Y-233886D01*
X755180Y-234013D01*
X755016Y-234159D01*
X754816Y-234323D01*
X754597Y-234487D01*
X754342Y-234633D01*
X754051Y-234778D01*
X754014Y-234797D01*
X753923Y-234833D01*
X753759Y-234888D01*
X753559Y-234942D01*
X753322Y-234997D01*
X753049Y-235052D01*
X752739Y-235088D01*
X752429Y-235106D01*
X752247D01*
X752065Y-235088D01*
X751810Y-235052D01*
X751536Y-235015D01*
X751227Y-234961D01*
X750917Y-234870D01*
X750625Y-234742D01*
X750589Y-234724D01*
X750498Y-234669D01*
X750352Y-234578D01*
X750188Y-234469D01*
X749969Y-234305D01*
X749769Y-234122D01*
X749550Y-233904D01*
X749350Y-233667D01*
X749332Y-233631D01*
X749259Y-233540D01*
X749168Y-233394D01*
X749058Y-233193D01*
X748949Y-232938D01*
X748821Y-232647D01*
X748712Y-232319D01*
X748603Y-231954D01*
Y-231936D01*
X748585Y-231900D01*
Y-231845D01*
X748566Y-231772D01*
X748548Y-231681D01*
X748530Y-231572D01*
X748493Y-231280D01*
X748439Y-230952D01*
X748402Y-230551D01*
X748384Y-230114D01*
X748366Y-229659D01*
Y-229640D01*
Y-229604D01*
Y-229513D01*
Y-229422D01*
X748384Y-229294D01*
Y-229149D01*
X748402Y-228820D01*
X748439Y-228420D01*
X748512Y-228019D01*
X748585Y-227582D01*
X748694Y-227181D01*
Y-227163D01*
X748712Y-227126D01*
X748730Y-227071D01*
X748749Y-226998D01*
X748821Y-226816D01*
X748931Y-226561D01*
X749058Y-226288D01*
X749222Y-225996D01*
X749404Y-225723D01*
X749605Y-225450D01*
X749623Y-225413D01*
X749714Y-225341D01*
X749824Y-225213D01*
X749988Y-225067D01*
X750188Y-224903D01*
X750425Y-224721D01*
X750680Y-224575D01*
X750953Y-224429D01*
X750990Y-224411D01*
X751081Y-224375D01*
X751245Y-224320D01*
X751445Y-224247D01*
X751682Y-224193D01*
X751973Y-224138D01*
X752265Y-224101D01*
X752593Y-224083D01*
X752757D01*
X752957Y-224101D01*
D02*
G37*
G36*
X679822Y-234086D02*
Y-234104D01*
X679804Y-234141D01*
X679786Y-234195D01*
X679749Y-234268D01*
X679658Y-234487D01*
X679549Y-234742D01*
X679403Y-235033D01*
X679257Y-235362D01*
X679094Y-235689D01*
X678911Y-235999D01*
X678893Y-236036D01*
X678838Y-236127D01*
X678747Y-236291D01*
X678620Y-236473D01*
X678474Y-236691D01*
X678292Y-236910D01*
X678110Y-237129D01*
X677909Y-237347D01*
X677891Y-237366D01*
X677818Y-237439D01*
X677709Y-237530D01*
X677563Y-237639D01*
X677381Y-237767D01*
X677180Y-237894D01*
X676944Y-238003D01*
X676707Y-238113D01*
X676670Y-238131D01*
X676597Y-238149D01*
X676452Y-238186D01*
X676269Y-238240D01*
X676051Y-238295D01*
X675814Y-238331D01*
X675522Y-238350D01*
X675231Y-238368D01*
X674976D01*
X674830Y-238350D01*
X674611D01*
X674466Y-238331D01*
Y-237038D01*
X674502D01*
X674575Y-237056D01*
X674703D01*
X674848Y-237074D01*
X674885D01*
X674994Y-237092D01*
X675140Y-237111D01*
X675450D01*
X675541Y-237092D01*
X675796Y-237056D01*
X676051Y-236983D01*
X676069D01*
X676105Y-236965D01*
X676178Y-236928D01*
X676269Y-236892D01*
X676470Y-236783D01*
X676688Y-236619D01*
X676707Y-236600D01*
X676743Y-236564D01*
X676798Y-236509D01*
X676871Y-236437D01*
X676962Y-236345D01*
X677071Y-236218D01*
X677272Y-235945D01*
X677290Y-235926D01*
X677326Y-235872D01*
X677381Y-235781D01*
X677454Y-235671D01*
X677527Y-235525D01*
X677618Y-235343D01*
X677727Y-235161D01*
X677818Y-234961D01*
X674539Y-226725D01*
X676160D01*
X678237Y-232191D01*
X678656Y-233467D01*
X679130Y-232155D01*
X681061Y-226725D01*
X682628D01*
X679822Y-234086D01*
D02*
G37*
G36*
X793679Y-234961D02*
X792258D01*
X792039Y-228274D01*
X791948Y-225723D01*
X791438Y-227199D01*
X789853Y-231462D01*
X788851D01*
X787339Y-227363D01*
X786847Y-225723D01*
X786810Y-228383D01*
X786628Y-234961D01*
X785243D01*
X785772Y-224247D01*
X787502D01*
X788942Y-228292D01*
X789416Y-229659D01*
X789853Y-228292D01*
X791383Y-224247D01*
X793169D01*
X793679Y-234961D01*
D02*
G37*
G36*
X774894Y-225486D02*
X771724D01*
Y-234961D01*
X770248D01*
Y-225486D01*
X767078D01*
Y-224247D01*
X774894D01*
Y-225486D01*
D02*
G37*
G36*
X698534Y-226598D02*
X698625D01*
X698753Y-226616D01*
X699044Y-226689D01*
X699354Y-226780D01*
X699664Y-226926D01*
X699974Y-227144D01*
X700119Y-227272D01*
X700247Y-227417D01*
X700283Y-227454D01*
X700302Y-227509D01*
X700356Y-227563D01*
X700393Y-227654D01*
X700447Y-227764D01*
X700520Y-227891D01*
X700575Y-228037D01*
X700630Y-228201D01*
X700684Y-228365D01*
X700739Y-228565D01*
X700794Y-228784D01*
X700830Y-229039D01*
X700848Y-229294D01*
X700866Y-229568D01*
Y-229859D01*
X699427D01*
Y-229841D01*
Y-229804D01*
Y-229750D01*
Y-229677D01*
X699409Y-229495D01*
X699391Y-229276D01*
X699354Y-229021D01*
X699299Y-228766D01*
X699208Y-228511D01*
X699099Y-228310D01*
X699081Y-228292D01*
X699044Y-228237D01*
X698953Y-228146D01*
X698844Y-228055D01*
X698698Y-227982D01*
X698534Y-227891D01*
X698334Y-227837D01*
X698097Y-227818D01*
X697988D01*
X697933Y-227837D01*
X697751Y-227855D01*
X697532Y-227928D01*
X697514D01*
X697477Y-227946D01*
X697423Y-227964D01*
X697350Y-228001D01*
X697150Y-228110D01*
X696931Y-228256D01*
X696913Y-228274D01*
X696876Y-228292D01*
X696822Y-228347D01*
X696731Y-228401D01*
X696530Y-228602D01*
X696275Y-228839D01*
X696257Y-228857D01*
X696220Y-228893D01*
X696147Y-228966D01*
X696056Y-229076D01*
X695947Y-229203D01*
X695820Y-229331D01*
X695692Y-229495D01*
X695546Y-229677D01*
Y-234961D01*
X694107D01*
Y-226725D01*
X695400D01*
X695437Y-228256D01*
Y-228237D01*
X695473Y-228219D01*
X695564Y-228110D01*
X695710Y-227964D01*
X695892Y-227764D01*
X696111Y-227563D01*
X696348Y-227345D01*
X696603Y-227144D01*
X696876Y-226980D01*
X696913Y-226962D01*
X697004Y-226926D01*
X697131Y-226853D01*
X697332Y-226780D01*
X697532Y-226707D01*
X697787Y-226634D01*
X698042Y-226598D01*
X698316Y-226579D01*
X698443D01*
X698534Y-226598D01*
D02*
G37*
%LPC*%
G36*
X671204Y-231207D02*
X669200D01*
X669072Y-231225D01*
X668781Y-231244D01*
X668471Y-231317D01*
X668453D01*
X668417Y-231335D01*
X668344Y-231353D01*
X668253Y-231389D01*
X668034Y-231499D01*
X667834Y-231626D01*
X667815D01*
X667797Y-231663D01*
X667706Y-231754D01*
X667579Y-231918D01*
X667469Y-232100D01*
Y-232118D01*
X667451Y-232155D01*
X667433Y-232209D01*
X667415Y-232282D01*
X667378Y-232483D01*
X667360Y-232720D01*
Y-232738D01*
Y-232756D01*
X667378Y-232865D01*
X667396Y-233011D01*
X667433Y-233175D01*
Y-233193D01*
X667451Y-233211D01*
X667487Y-233303D01*
X667560Y-233430D01*
X667670Y-233576D01*
X667706Y-233594D01*
X667779Y-233667D01*
X667925Y-233758D01*
X668089Y-233831D01*
X668107D01*
X668143Y-233849D01*
X668198Y-233867D01*
X668271D01*
X668471Y-233904D01*
X668726Y-233922D01*
X668818D01*
X668909Y-233904D01*
X669054Y-233886D01*
X669218Y-233849D01*
X669419Y-233794D01*
X669619Y-233722D01*
X669856Y-233631D01*
X669893Y-233612D01*
X669965Y-233576D01*
X670093Y-233503D01*
X670257Y-233394D01*
X670457Y-233266D01*
X670694Y-233102D01*
X670949Y-232920D01*
X671204Y-232683D01*
Y-231207D01*
D02*
G37*
G36*
X743119Y-225486D02*
X741406D01*
Y-228820D01*
X743027D01*
X743137Y-228802D01*
X743283D01*
X743428Y-228784D01*
X743738Y-228729D01*
X743756D01*
X743811Y-228711D01*
X743884Y-228675D01*
X743975Y-228638D01*
X744194Y-228547D01*
X744430Y-228401D01*
X744449Y-228383D01*
X744485Y-228365D01*
X744594Y-228256D01*
X744740Y-228074D01*
X744886Y-227855D01*
Y-227837D01*
X744904Y-227800D01*
X744941Y-227727D01*
X744977Y-227618D01*
X744995Y-227509D01*
X745032Y-227363D01*
X745050Y-227053D01*
Y-227035D01*
Y-226998D01*
Y-226944D01*
X745032Y-226853D01*
X745014Y-226671D01*
X744941Y-226452D01*
Y-226434D01*
X744922Y-226397D01*
X744904Y-226343D01*
X744868Y-226288D01*
X744758Y-226124D01*
X744594Y-225960D01*
X744576Y-225942D01*
X744558Y-225923D01*
X744503Y-225887D01*
X744430Y-225832D01*
X744339Y-225778D01*
X744212Y-225723D01*
X744084Y-225668D01*
X743938Y-225614D01*
X743920D01*
X743866Y-225596D01*
X743775Y-225577D01*
X743647Y-225541D01*
X743501Y-225523D01*
X743319Y-225504D01*
X743119Y-225486D01*
D02*
G37*
G36*
X743100Y-230041D02*
X741406D01*
Y-233722D01*
X743137D01*
X743246Y-233703D01*
X743374D01*
X743647Y-233667D01*
X743957Y-233612D01*
X744267Y-233521D01*
X744558Y-233412D01*
X744813Y-233266D01*
X744831Y-233248D01*
X744904Y-233175D01*
X745014Y-233066D01*
X745123Y-232902D01*
X745232Y-232701D01*
X745341Y-232446D01*
X745414Y-232155D01*
X745433Y-231809D01*
Y-231790D01*
Y-231736D01*
Y-231663D01*
X745414Y-231572D01*
X745360Y-231335D01*
X745250Y-231080D01*
Y-231062D01*
X745214Y-231025D01*
X745178Y-230970D01*
X745123Y-230879D01*
X744977Y-230715D01*
X744758Y-230533D01*
X744740Y-230515D01*
X744704Y-230497D01*
X744631Y-230442D01*
X744540Y-230406D01*
X744412Y-230333D01*
X744285Y-230278D01*
X743957Y-230169D01*
X743938D01*
X743866Y-230151D01*
X743775Y-230132D01*
X743647Y-230096D01*
X743483Y-230078D01*
X743301Y-230060D01*
X743100Y-230041D01*
D02*
G37*
G36*
X688058Y-227727D02*
X687693D01*
X687584Y-227746D01*
X687457Y-227764D01*
X687311Y-227800D01*
X687001Y-227909D01*
X686983D01*
X686946Y-227946D01*
X686873Y-227982D01*
X686782Y-228037D01*
X686564Y-228201D01*
X686345Y-228420D01*
X686327Y-228438D01*
X686309Y-228474D01*
X686254Y-228547D01*
X686181Y-228638D01*
X686108Y-228748D01*
X686035Y-228893D01*
X685890Y-229203D01*
Y-229221D01*
X685871Y-229276D01*
X685835Y-229367D01*
X685799Y-229495D01*
X685762Y-229640D01*
X685744Y-229823D01*
X685689Y-230205D01*
X690026D01*
Y-230187D01*
Y-230114D01*
Y-230005D01*
Y-229877D01*
X690007Y-229731D01*
X689989Y-229568D01*
X689898Y-229221D01*
Y-229203D01*
X689880Y-229149D01*
X689843Y-229057D01*
X689807Y-228948D01*
X689679Y-228693D01*
X689497Y-228438D01*
X689479Y-228420D01*
X689442Y-228383D01*
X689388Y-228328D01*
X689315Y-228256D01*
X689206Y-228165D01*
X689096Y-228092D01*
X688805Y-227928D01*
X688787Y-227909D01*
X688732Y-227891D01*
X688641Y-227855D01*
X688531Y-227818D01*
X688404Y-227782D01*
X688240Y-227764D01*
X688058Y-227727D01*
D02*
G37*
G36*
X780215Y-225359D02*
X780105D01*
X779959Y-225377D01*
X779796Y-225395D01*
X779613Y-225450D01*
X779395Y-225504D01*
X779194Y-225596D01*
X778994Y-225705D01*
X778976Y-225723D01*
X778921Y-225760D01*
X778830Y-225832D01*
X778702Y-225942D01*
X778575Y-226069D01*
X778447Y-226233D01*
X778301Y-226415D01*
X778174Y-226616D01*
X778156Y-226634D01*
X778119Y-226707D01*
X778065Y-226835D01*
X777992Y-226998D01*
X777919Y-227181D01*
X777828Y-227417D01*
X777755Y-227673D01*
X777682Y-227946D01*
Y-227982D01*
X777664Y-228074D01*
X777645Y-228237D01*
X777609Y-228438D01*
X777591Y-228675D01*
X777554Y-228948D01*
X777536Y-229258D01*
Y-229568D01*
Y-229586D01*
Y-229604D01*
Y-229659D01*
Y-229731D01*
Y-229914D01*
X777554Y-230132D01*
X777573Y-230406D01*
X777591Y-230697D01*
X777682Y-231317D01*
Y-231353D01*
X777718Y-231444D01*
X777737Y-231590D01*
X777791Y-231772D01*
X777864Y-231991D01*
X777937Y-232209D01*
X778028Y-232446D01*
X778137Y-232665D01*
X778156Y-232683D01*
X778192Y-232756D01*
X778265Y-232847D01*
X778374Y-232975D01*
X778484Y-233120D01*
X778629Y-233248D01*
X778793Y-233394D01*
X778976Y-233521D01*
X778994Y-233540D01*
X779067Y-233576D01*
X779176Y-233612D01*
X779322Y-233667D01*
X779504Y-233740D01*
X779723Y-233776D01*
X779959Y-233813D01*
X780215Y-233831D01*
X780342D01*
X780470Y-233813D01*
X780634Y-233794D01*
X780834Y-233758D01*
X781035Y-233685D01*
X781235Y-233612D01*
X781435Y-233503D01*
X781454Y-233485D01*
X781526Y-233448D01*
X781617Y-233376D01*
X781727Y-233266D01*
X781873Y-233139D01*
X782000Y-232993D01*
X782146Y-232811D01*
X782273Y-232610D01*
X782292Y-232592D01*
X782328Y-232501D01*
X782383Y-232392D01*
X782456Y-232228D01*
X782547Y-232027D01*
X782620Y-231809D01*
X782692Y-231554D01*
X782765Y-231280D01*
Y-231244D01*
X782784Y-231153D01*
X782820Y-230989D01*
X782857Y-230788D01*
X782875Y-230551D01*
X782911Y-230260D01*
X782929Y-229968D01*
Y-229640D01*
Y-229622D01*
Y-229604D01*
Y-229549D01*
Y-229476D01*
Y-229294D01*
X782911Y-229076D01*
X782893Y-228802D01*
X782857Y-228511D01*
X782765Y-227909D01*
Y-227891D01*
Y-227873D01*
X782747Y-227782D01*
X782711Y-227636D01*
X782656Y-227454D01*
X782583Y-227235D01*
X782510Y-227017D01*
X782401Y-226780D01*
X782292Y-226561D01*
X782273Y-226543D01*
X782237Y-226470D01*
X782164Y-226361D01*
X782073Y-226233D01*
X781945Y-226106D01*
X781800Y-225960D01*
X781636Y-225814D01*
X781454Y-225687D01*
X781435Y-225668D01*
X781362Y-225632D01*
X781253Y-225577D01*
X781107Y-225523D01*
X780925Y-225468D01*
X780725Y-225413D01*
X780470Y-225377D01*
X780215Y-225359D01*
D02*
G37*
G36*
X752502D02*
X752393D01*
X752247Y-225377D01*
X752083Y-225395D01*
X751901Y-225450D01*
X751682Y-225504D01*
X751482Y-225596D01*
X751281Y-225705D01*
X751263Y-225723D01*
X751208Y-225760D01*
X751117Y-225832D01*
X750990Y-225942D01*
X750862Y-226069D01*
X750735Y-226233D01*
X750589Y-226415D01*
X750461Y-226616D01*
X750443Y-226634D01*
X750407Y-226707D01*
X750352Y-226835D01*
X750279Y-226998D01*
X750206Y-227181D01*
X750115Y-227417D01*
X750042Y-227673D01*
X749969Y-227946D01*
Y-227982D01*
X749951Y-228074D01*
X749933Y-228237D01*
X749896Y-228438D01*
X749878Y-228675D01*
X749842Y-228948D01*
X749824Y-229258D01*
Y-229568D01*
Y-229586D01*
Y-229604D01*
Y-229659D01*
Y-229731D01*
Y-229914D01*
X749842Y-230132D01*
X749860Y-230406D01*
X749878Y-230697D01*
X749969Y-231317D01*
Y-231353D01*
X750006Y-231444D01*
X750024Y-231590D01*
X750079Y-231772D01*
X750152Y-231991D01*
X750224Y-232209D01*
X750316Y-232446D01*
X750425Y-232665D01*
X750443Y-232683D01*
X750480Y-232756D01*
X750552Y-232847D01*
X750662Y-232975D01*
X750771Y-233120D01*
X750917Y-233248D01*
X751081Y-233394D01*
X751263Y-233521D01*
X751281Y-233540D01*
X751354Y-233576D01*
X751463Y-233612D01*
X751609Y-233667D01*
X751791Y-233740D01*
X752010Y-233776D01*
X752247Y-233813D01*
X752502Y-233831D01*
X752630D01*
X752757Y-233813D01*
X752921Y-233794D01*
X753121Y-233758D01*
X753322Y-233685D01*
X753522Y-233612D01*
X753723Y-233503D01*
X753741Y-233485D01*
X753814Y-233448D01*
X753905Y-233376D01*
X754014Y-233266D01*
X754160Y-233139D01*
X754287Y-232993D01*
X754433Y-232811D01*
X754561Y-232610D01*
X754579Y-232592D01*
X754615Y-232501D01*
X754670Y-232392D01*
X754743Y-232228D01*
X754834Y-232027D01*
X754907Y-231809D01*
X754980Y-231554D01*
X755053Y-231280D01*
Y-231244D01*
X755071Y-231153D01*
X755107Y-230989D01*
X755144Y-230788D01*
X755162Y-230551D01*
X755198Y-230260D01*
X755217Y-229968D01*
Y-229640D01*
Y-229622D01*
Y-229604D01*
Y-229549D01*
Y-229476D01*
Y-229294D01*
X755198Y-229076D01*
X755180Y-228802D01*
X755144Y-228511D01*
X755053Y-227909D01*
Y-227891D01*
Y-227873D01*
X755034Y-227782D01*
X754998Y-227636D01*
X754943Y-227454D01*
X754871Y-227235D01*
X754798Y-227017D01*
X754688Y-226780D01*
X754579Y-226561D01*
X754561Y-226543D01*
X754524Y-226470D01*
X754452Y-226361D01*
X754360Y-226233D01*
X754233Y-226106D01*
X754087Y-225960D01*
X753923Y-225814D01*
X753741Y-225687D01*
X753723Y-225668D01*
X753650Y-225632D01*
X753541Y-225577D01*
X753395Y-225523D01*
X753212Y-225468D01*
X753012Y-225413D01*
X752757Y-225377D01*
X752502Y-225359D01*
D02*
G37*
%LPD*%
D13*
X174213Y78740D02*
X261811Y78740D01*
X141732Y111221D02*
X174213Y78740D01*
X282200Y-43307D02*
X386054D01*
X248031Y129921D02*
X291339Y86614D01*
X386054D01*
X0Y129921D02*
X248031D01*
X279226Y0D02*
X383937D01*
X0Y43307D02*
X2718Y40589D01*
X238637D01*
X261811Y78740D02*
X272200Y68351D01*
X238637Y40589D02*
X279226Y0D01*
X272200Y58465D02*
Y68351D01*
X295352Y43307D02*
X383937D01*
X286052Y52607D02*
X295352Y43307D01*
X278058Y52607D02*
X286052D01*
X272200Y58465D02*
X278058Y52607D01*
X224410Y-129921D02*
X267717Y-86614D01*
X383937D01*
X-2Y-129921D02*
X224410D01*
D14*
X-8701Y81535D02*
X0Y72835D01*
Y43307D02*
Y72835D01*
X-19685Y11811D02*
X-19685D01*
X-23622Y91535D02*
X-11811D01*
X-23622Y-86614D02*
X-11811D01*
X-40354Y104488D02*
X-23622Y121221D01*
Y81535D02*
X-8701D01*
X-23622Y111221D02*
X141732D01*
X-23622Y-51181D02*
X-15428D01*
X-35433Y50354D02*
X-29528Y56260D01*
X-23622Y62165D01*
X-29528Y44215D02*
Y56260D01*
X-19685Y-27559D02*
X-11811D01*
X-31247Y-31247D02*
X-27559Y-27559D01*
X-31247Y-61273D02*
Y-31247D01*
X-35433Y-92520D02*
X-35433Y50354D01*
X-13601Y-18221D02*
Y28288D01*
X-19685Y-19685D02*
X-15065D01*
X-13601Y-18221D01*
X-29528Y44215D02*
X-13601Y28288D01*
X-6898Y-42651D02*
Y30520D01*
X-19685Y43307D02*
X-6898Y30520D01*
X-15428Y-51181D02*
X-6898Y-42651D01*
X-31247Y-61273D02*
X-23622Y-68898D01*
X-35433Y-92520D02*
X-23622Y-104331D01*
X-18898Y-109843D02*
X-7087Y-98032D01*
Y-77239D01*
X-15428Y-68898D02*
X-7087Y-77239D01*
X-23622Y-68898D02*
X-15428D01*
X-40354Y-97970D02*
X-28482Y-109843D01*
X-40354Y-97970D02*
Y104488D01*
X-28482Y-109843D02*
X-18898D01*
X-23622Y52165D02*
X-18828D01*
X-202Y33539D01*
X105300D01*
X182146Y-43307D01*
X282200D01*
D15*
X-27870Y-157480D02*
D03*
Y157480D02*
D03*
X310070D02*
D03*
Y-157480D02*
D03*
D16*
X282198Y-98421D02*
D03*
X249598Y-161421D02*
D03*
X32098Y-98421D02*
D03*
X282198Y-11807D02*
D03*
X250098Y-74807D02*
D03*
X32598Y-11807D02*
D03*
X-2Y-74807D02*
D03*
Y11807D02*
D03*
X32098Y74807D02*
D03*
X249598Y11807D02*
D03*
X282198Y74807D02*
D03*
X0Y98421D02*
D03*
X32600Y161421D02*
D03*
X250100Y98421D02*
D03*
D17*
X282198Y-129921D02*
D03*
X-2D02*
D03*
X282198Y-43307D02*
D03*
X-2D02*
D03*
Y43307D02*
D03*
X282198D02*
D03*
X0Y129921D02*
D03*
X282200D02*
D03*
D18*
X-19685Y11811D02*
D03*
X-27559D02*
D03*
X-19685Y19685D02*
D03*
X-27559D02*
D03*
X-19685Y27559D02*
D03*
Y-11811D02*
D03*
X-27559D02*
D03*
X-19685Y-3937D02*
D03*
X-27559D02*
D03*
X-19685Y3937D02*
D03*
Y-27559D02*
D03*
X-27559D02*
D03*
X-19685Y-19685D02*
D03*
D19*
X-27559Y27559D02*
D03*
Y3937D02*
D03*
Y-19685D02*
D03*
D20*
X-23622Y111221D02*
D03*
Y81535D02*
D03*
Y52165D02*
D03*
D21*
Y121221D02*
D03*
Y91535D02*
D03*
Y62165D02*
D03*
Y-68898D02*
D03*
Y-86614D02*
D03*
Y-104331D02*
D03*
Y-51181D02*
D03*
Y-122047D02*
D03*
D22*
X-11811Y-86614D02*
D03*
Y91535D02*
D03*
X141732Y111221D02*
D03*
X-19685Y43307D02*
D03*
X-11811Y-27559D02*
D03*
D23*
X387008Y-86614D02*
D03*
Y-43307D02*
D03*
Y0D02*
D03*
Y43307D02*
D03*
Y86614D02*
D03*
M02*
