G04*
G04 #@! TF.GenerationSoftware,Altium Limited,Altium Designer,21.2.2 (38)*
G04*
G04 Layer_Color=65535*
%FSLAX25Y25*%
%MOIN*%
G70*
G04*
G04 #@! TF.SameCoordinates,DAC03B0E-16BA-4501-B517-EA695224B78F*
G04*
G04*
G04 #@! TF.FilePolarity,Positive*
G04*
G01*
G75*
%ADD10C,0.00800*%
%ADD11C,0.00787*%
%ADD12C,0.01000*%
%ADD13C,0.00394*%
%ADD14C,0.00600*%
%ADD15R,0.27559X0.23622*%
%ADD16R,0.27559X0.27559*%
%ADD17R,1.20000X0.25000*%
G36*
X374016Y19685D02*
X346457D01*
Y43307D01*
X374016D01*
Y19685D01*
D02*
G37*
G36*
X374016Y-19685D02*
X346457D01*
Y3937D01*
X374016D01*
Y-19685D01*
D02*
G37*
G36*
X707644Y-223300D02*
X707790Y-223318D01*
X707936Y-223373D01*
X707954D01*
X707972Y-223391D01*
X708063Y-223446D01*
X708173Y-223518D01*
X708282Y-223628D01*
X708318Y-223646D01*
X708373Y-223719D01*
X708464Y-223828D01*
X708537Y-223974D01*
X708555Y-224010D01*
X708592Y-224101D01*
X708610Y-224247D01*
X708628Y-224411D01*
Y-224429D01*
Y-224448D01*
X708610Y-224557D01*
X708592Y-224703D01*
X708537Y-224849D01*
X708519Y-224885D01*
X708464Y-224976D01*
X708391Y-225085D01*
X708282Y-225213D01*
X708264Y-225231D01*
X708191Y-225304D01*
X708082Y-225377D01*
X707936Y-225450D01*
X707899Y-225468D01*
X707808Y-225486D01*
X707662Y-225504D01*
X707499Y-225523D01*
X707462D01*
X707353Y-225504D01*
X707207Y-225486D01*
X707061Y-225450D01*
X707025Y-225432D01*
X706934Y-225377D01*
X706824Y-225304D01*
X706697Y-225213D01*
X706679Y-225177D01*
X706606Y-225104D01*
X706533Y-224994D01*
X706460Y-224849D01*
Y-224830D01*
X706442Y-224812D01*
X706424Y-224721D01*
X706405Y-224575D01*
X706387Y-224411D01*
Y-224393D01*
Y-224375D01*
X706405Y-224266D01*
X706424Y-224120D01*
X706460Y-223974D01*
Y-223956D01*
X706478Y-223938D01*
X706533Y-223846D01*
X706606Y-223737D01*
X706697Y-223628D01*
X706733Y-223591D01*
X706806Y-223537D01*
X706916Y-223446D01*
X707061Y-223373D01*
X707080D01*
X707098Y-223355D01*
X707189Y-223318D01*
X707335Y-223300D01*
X707499Y-223282D01*
X707535D01*
X707644Y-223300D01*
D02*
G37*
G36*
X699063Y-224101D02*
X699281Y-224120D01*
X699391D01*
X699482Y-224138D01*
X699682Y-224156D01*
X699919Y-224193D01*
X699974D01*
X700047Y-224211D01*
X700119D01*
X700320Y-224247D01*
X700557Y-224284D01*
X700611D01*
X700684Y-224302D01*
X700757Y-224320D01*
X700957Y-224357D01*
X701158Y-224393D01*
Y-225705D01*
X701122D01*
X701049Y-225668D01*
X700921Y-225650D01*
X700757Y-225614D01*
X700575Y-225577D01*
X700356Y-225523D01*
X699883Y-225450D01*
X699864D01*
X699773Y-225432D01*
X699664Y-225413D01*
X699500Y-225395D01*
X699318Y-225377D01*
X699099Y-225359D01*
X698662Y-225341D01*
X698461D01*
X698243Y-225359D01*
X697969Y-225395D01*
X697660Y-225450D01*
X697350Y-225523D01*
X697077Y-225632D01*
X696822Y-225778D01*
X696803Y-225796D01*
X696731Y-225851D01*
X696639Y-225942D01*
X696530Y-226069D01*
X696421Y-226233D01*
X696330Y-226434D01*
X696257Y-226652D01*
X696239Y-226907D01*
Y-226926D01*
Y-226980D01*
X696257Y-227053D01*
X696275Y-227163D01*
X696348Y-227399D01*
X696403Y-227527D01*
X696475Y-227654D01*
X696494Y-227673D01*
X696512Y-227709D01*
X696566Y-227764D01*
X696639Y-227837D01*
X696840Y-228019D01*
X697095Y-228219D01*
X697113Y-228237D01*
X697168Y-228256D01*
X697241Y-228310D01*
X697368Y-228365D01*
X697496Y-228438D01*
X697642Y-228511D01*
X698006Y-228657D01*
X698024D01*
X698097Y-228693D01*
X698188Y-228729D01*
X698334Y-228784D01*
X698480Y-228839D01*
X698644Y-228912D01*
X699026Y-229076D01*
X699044D01*
X699117Y-229112D01*
X699227Y-229148D01*
X699354Y-229203D01*
X699518Y-229276D01*
X699682Y-229349D01*
X700065Y-229531D01*
X700083Y-229549D01*
X700156Y-229568D01*
X700247Y-229622D01*
X700375Y-229695D01*
X700666Y-229895D01*
X700957Y-230132D01*
X700976Y-230151D01*
X701030Y-230187D01*
X701103Y-230260D01*
X701194Y-230369D01*
X701286Y-230479D01*
X701395Y-230624D01*
X701595Y-230952D01*
X701614Y-230970D01*
X701632Y-231043D01*
X701668Y-231134D01*
X701723Y-231262D01*
X701778Y-231426D01*
X701814Y-231626D01*
X701832Y-231827D01*
X701850Y-232064D01*
Y-232100D01*
Y-232191D01*
X701832Y-232337D01*
X701814Y-232519D01*
X701778Y-232720D01*
X701705Y-232956D01*
X701632Y-233193D01*
X701522Y-233412D01*
X701504Y-233430D01*
X701468Y-233503D01*
X701395Y-233612D01*
X701304Y-233740D01*
X701176Y-233886D01*
X701030Y-234050D01*
X700848Y-234214D01*
X700648Y-234359D01*
X700630Y-234378D01*
X700557Y-234414D01*
X700429Y-234487D01*
X700283Y-234578D01*
X700083Y-234669D01*
X699864Y-234760D01*
X699609Y-234851D01*
X699318Y-234924D01*
X699281D01*
X699190Y-234961D01*
X699026Y-234979D01*
X698808Y-235015D01*
X698553Y-235052D01*
X698261Y-235070D01*
X697933Y-235106D01*
X697332D01*
X697186Y-235088D01*
X697058D01*
X696731Y-235070D01*
X696658D01*
X696585Y-235052D01*
X696475D01*
X696220Y-235015D01*
X695929Y-234979D01*
X695856D01*
X695783Y-234961D01*
X695692D01*
X695455Y-234924D01*
X695200Y-234888D01*
X695182D01*
X695145Y-234870D01*
X695073Y-234851D01*
X695000Y-234833D01*
X694799Y-234778D01*
X694581Y-234724D01*
Y-233321D01*
X694617Y-233339D01*
X694690Y-233357D01*
X694817Y-233394D01*
X694981Y-233448D01*
X695182Y-233521D01*
X695419Y-233576D01*
X695674Y-233631D01*
X695947Y-233685D01*
X695984D01*
X696075Y-233703D01*
X696239Y-233722D01*
X696457Y-233740D01*
X696712Y-233776D01*
X697004Y-233794D01*
X697332Y-233813D01*
X697951D01*
X698115Y-233794D01*
X698297D01*
X698498Y-233758D01*
X698698Y-233740D01*
X698899Y-233703D01*
X698917D01*
X698990Y-233685D01*
X699063Y-233649D01*
X699190Y-233631D01*
X699445Y-233521D01*
X699700Y-233394D01*
X699719Y-233376D01*
X699755Y-233357D01*
X699810Y-233303D01*
X699883Y-233248D01*
X700047Y-233084D01*
X700174Y-232865D01*
Y-232847D01*
X700192Y-232811D01*
X700229Y-232738D01*
X700247Y-232647D01*
X700283Y-232537D01*
X700302Y-232410D01*
X700320Y-232137D01*
Y-232118D01*
Y-232064D01*
X700302Y-231991D01*
X700283Y-231881D01*
X700211Y-231645D01*
X700156Y-231535D01*
X700065Y-231408D01*
X700047Y-231389D01*
X700028Y-231353D01*
X699974Y-231298D01*
X699901Y-231225D01*
X699810Y-231134D01*
X699700Y-231043D01*
X699427Y-230861D01*
X699409Y-230843D01*
X699354Y-230825D01*
X699281Y-230770D01*
X699172Y-230715D01*
X699044Y-230643D01*
X698899Y-230570D01*
X698534Y-230406D01*
X698516Y-230387D01*
X698443Y-230369D01*
X698352Y-230333D01*
X698206Y-230278D01*
X698061Y-230223D01*
X697878Y-230151D01*
X697496Y-230005D01*
X697477Y-229987D01*
X697405Y-229968D01*
X697314Y-229914D01*
X697186Y-229859D01*
X697022Y-229786D01*
X696858Y-229713D01*
X696475Y-229531D01*
X696457Y-229513D01*
X696384Y-229476D01*
X696293Y-229440D01*
X696166Y-229367D01*
X696038Y-229276D01*
X695874Y-229185D01*
X695564Y-228948D01*
X695546Y-228930D01*
X695510Y-228893D01*
X695437Y-228820D01*
X695346Y-228711D01*
X695255Y-228602D01*
X695145Y-228456D01*
X694945Y-228146D01*
X694927Y-228128D01*
X694909Y-228055D01*
X694872Y-227964D01*
X694836Y-227837D01*
X694781Y-227673D01*
X694744Y-227490D01*
X694726Y-227272D01*
X694708Y-227053D01*
Y-227035D01*
Y-226962D01*
X694726Y-226853D01*
X694744Y-226707D01*
X694763Y-226543D01*
X694799Y-226361D01*
X694854Y-226160D01*
X694927Y-225960D01*
X694945Y-225942D01*
X694963Y-225869D01*
X695036Y-225778D01*
X695109Y-225650D01*
X695200Y-225504D01*
X695328Y-225341D01*
X695473Y-225177D01*
X695637Y-225012D01*
X695655Y-224994D01*
X695728Y-224940D01*
X695838Y-224867D01*
X695984Y-224776D01*
X696147Y-224666D01*
X696366Y-224557D01*
X696603Y-224448D01*
X696876Y-224338D01*
X696913Y-224320D01*
X697022Y-224302D01*
X697168Y-224266D01*
X697386Y-224211D01*
X697660Y-224156D01*
X697969Y-224120D01*
X698316Y-224101D01*
X698698Y-224083D01*
X698880D01*
X699063Y-224101D01*
D02*
G37*
G36*
X782365Y-226598D02*
X782456D01*
X782583Y-226616D01*
X782875Y-226671D01*
X783184Y-226762D01*
X783494Y-226907D01*
X783804Y-227090D01*
X784077Y-227345D01*
X784114Y-227381D01*
X784187Y-227490D01*
X784278Y-227654D01*
X784405Y-227909D01*
X784533Y-228219D01*
X784624Y-228620D01*
X784697Y-229076D01*
X784733Y-229604D01*
Y-234961D01*
X783312D01*
Y-229713D01*
Y-229695D01*
Y-229677D01*
Y-229622D01*
Y-229549D01*
X783294Y-229385D01*
X783276Y-229167D01*
X783221Y-228948D01*
X783166Y-228711D01*
X783075Y-228474D01*
X782947Y-228292D01*
X782929Y-228274D01*
X782875Y-228219D01*
X782802Y-228146D01*
X782674Y-228055D01*
X782528Y-227964D01*
X782346Y-227891D01*
X782128Y-227837D01*
X781873Y-227818D01*
X781781D01*
X781709Y-227837D01*
X781526Y-227855D01*
X781344Y-227909D01*
X781326D01*
X781308Y-227928D01*
X781198Y-227964D01*
X781035Y-228055D01*
X780834Y-228183D01*
X780816D01*
X780779Y-228219D01*
X780725Y-228256D01*
X780652Y-228310D01*
X780470Y-228474D01*
X780233Y-228693D01*
X780215Y-228711D01*
X780178Y-228748D01*
X780123Y-228820D01*
X780032Y-228912D01*
X779923Y-229039D01*
X779814Y-229185D01*
X779686Y-229331D01*
X779540Y-229513D01*
Y-234961D01*
X778119D01*
Y-226725D01*
X779376D01*
X779431Y-228055D01*
X779449Y-228037D01*
X779486Y-227982D01*
X779559Y-227909D01*
X779650Y-227818D01*
X779887Y-227582D01*
X780123Y-227363D01*
X780142Y-227345D01*
X780178Y-227308D01*
X780251Y-227254D01*
X780342Y-227199D01*
X780543Y-227053D01*
X780779Y-226907D01*
X780798D01*
X780834Y-226871D01*
X780907Y-226853D01*
X780980Y-226798D01*
X781198Y-226725D01*
X781435Y-226652D01*
X781454D01*
X781490Y-226634D01*
X781563D01*
X781654Y-226616D01*
X781891Y-226598D01*
X782146Y-226579D01*
X782273D01*
X782365Y-226598D01*
D02*
G37*
G36*
X736067Y-226598D02*
X736250D01*
X736669Y-226634D01*
X736687D01*
X736778Y-226652D01*
X736887D01*
X737051Y-226671D01*
X737234Y-226707D01*
X737434Y-226725D01*
X737671Y-226780D01*
X737908Y-226816D01*
Y-228092D01*
X737871D01*
X737798Y-228055D01*
X737671Y-228037D01*
X737489Y-228001D01*
X737306Y-227964D01*
X737088Y-227928D01*
X736632Y-227855D01*
X736614D01*
X736523Y-227837D01*
X736414Y-227818D01*
X736268Y-227800D01*
X736104D01*
X735940Y-227782D01*
X735576Y-227764D01*
X735393D01*
X735266Y-227782D01*
X734974Y-227800D01*
X734683Y-227855D01*
X734664D01*
X734628Y-227873D01*
X734555Y-227891D01*
X734464Y-227909D01*
X734282Y-228001D01*
X734082Y-228092D01*
X734045Y-228110D01*
X733954Y-228183D01*
X733863Y-228292D01*
X733772Y-228420D01*
X733753Y-228456D01*
X733735Y-228547D01*
X733699Y-228675D01*
X733681Y-228839D01*
Y-228857D01*
Y-228875D01*
X733699Y-228966D01*
X733717Y-229094D01*
X733753Y-229240D01*
X733772Y-229276D01*
X733826Y-229349D01*
X733936Y-229458D01*
X734082Y-229586D01*
X734100D01*
X734118Y-229622D01*
X734173Y-229640D01*
X734245Y-229695D01*
X734355Y-229750D01*
X734464Y-229804D01*
X734592Y-229859D01*
X734737Y-229932D01*
X734756D01*
X734810Y-229968D01*
X734901Y-229987D01*
X735029Y-230041D01*
X735193Y-230096D01*
X735375Y-230151D01*
X735576Y-230205D01*
X735812Y-230278D01*
X735849Y-230296D01*
X735940Y-230314D01*
X736067Y-230351D01*
X736250Y-230424D01*
X736450Y-230479D01*
X736651Y-230570D01*
X736851Y-230643D01*
X737051Y-230734D01*
X737070Y-230752D01*
X737143Y-230770D01*
X737215Y-230825D01*
X737343Y-230879D01*
X737598Y-231062D01*
X737853Y-231262D01*
X737871Y-231280D01*
X737908Y-231317D01*
X737962Y-231371D01*
X738035Y-231444D01*
X738181Y-231645D01*
X738254Y-231772D01*
X738309Y-231900D01*
Y-231918D01*
X738327Y-231954D01*
X738363Y-232045D01*
X738381Y-232137D01*
X738418Y-232264D01*
X738436Y-232392D01*
X738454Y-232720D01*
Y-232738D01*
Y-232792D01*
Y-232884D01*
X738436Y-232975D01*
X738381Y-233230D01*
X738290Y-233503D01*
Y-233521D01*
X738272Y-233558D01*
X738236Y-233631D01*
X738181Y-233703D01*
X738054Y-233904D01*
X737889Y-234122D01*
X737871Y-234141D01*
X737853Y-234159D01*
X737798Y-234214D01*
X737725Y-234268D01*
X737525Y-234414D01*
X737288Y-234578D01*
X737270D01*
X737234Y-234614D01*
X737161Y-234633D01*
X737070Y-234687D01*
X736851Y-234778D01*
X736578Y-234870D01*
X736559D01*
X736523Y-234888D01*
X736432Y-234906D01*
X736341Y-234924D01*
X736232Y-234961D01*
X736086Y-234979D01*
X735794Y-235033D01*
X735776D01*
X735721Y-235052D01*
X735648D01*
X735539Y-235070D01*
X735302Y-235088D01*
X735011Y-235106D01*
X734701D01*
X734501Y-235088D01*
X734264D01*
X734009Y-235070D01*
X733462Y-235033D01*
X733426D01*
X733353Y-235015D01*
X733207Y-234997D01*
X733043Y-234979D01*
X732824Y-234942D01*
X732606Y-234906D01*
X732114Y-234797D01*
Y-233485D01*
X732150D01*
X732241Y-233521D01*
X732369Y-233558D01*
X732551Y-233612D01*
X732770Y-233667D01*
X733006Y-233722D01*
X733535Y-233813D01*
X733571D01*
X733662Y-233831D01*
X733790Y-233849D01*
X733972D01*
X734191Y-233867D01*
X734428Y-233886D01*
X734956Y-233904D01*
X735120D01*
X735302Y-233886D01*
X735521Y-233867D01*
X735776Y-233831D01*
X736031Y-233794D01*
X736268Y-233722D01*
X736468Y-233631D01*
X736486Y-233612D01*
X736541Y-233576D01*
X736632Y-233521D01*
X736723Y-233430D01*
X736814Y-233321D01*
X736906Y-233175D01*
X736960Y-233011D01*
X736978Y-232829D01*
Y-232811D01*
Y-232792D01*
X736960Y-232701D01*
X736942Y-232574D01*
X736887Y-232446D01*
X736869Y-232410D01*
X736833Y-232337D01*
X736742Y-232228D01*
X736596Y-232100D01*
X736559Y-232064D01*
X736505Y-232045D01*
X736450Y-231991D01*
X736359Y-231954D01*
X736250Y-231900D01*
X736104Y-231827D01*
X735958Y-231772D01*
X735940D01*
X735885Y-231736D01*
X735794Y-231699D01*
X735648Y-231645D01*
X735485Y-231590D01*
X735284Y-231517D01*
X735065Y-231444D01*
X734792Y-231371D01*
X734774D01*
X734701Y-231335D01*
X734592Y-231317D01*
X734464Y-231262D01*
X734300Y-231207D01*
X734136Y-231153D01*
X733772Y-231007D01*
X733753Y-230989D01*
X733699Y-230970D01*
X733608Y-230916D01*
X733498Y-230861D01*
X733225Y-230715D01*
X732952Y-230515D01*
X732934Y-230497D01*
X732897Y-230460D01*
X732824Y-230406D01*
X732752Y-230314D01*
X732569Y-230114D01*
X732405Y-229841D01*
Y-229823D01*
X732369Y-229768D01*
X732351Y-229695D01*
X732314Y-229586D01*
X732278Y-229458D01*
X732260Y-229294D01*
X732223Y-229112D01*
Y-228930D01*
Y-228912D01*
Y-228875D01*
Y-228802D01*
X732241Y-228711D01*
X732260Y-228602D01*
X732278Y-228474D01*
X732369Y-228183D01*
Y-228165D01*
X732405Y-228110D01*
X732442Y-228037D01*
X732496Y-227928D01*
X732569Y-227818D01*
X732660Y-227691D01*
X732788Y-227545D01*
X732915Y-227417D01*
X732934Y-227399D01*
X732988Y-227363D01*
X733079Y-227290D01*
X733189Y-227199D01*
X733334Y-227108D01*
X733517Y-227017D01*
X733717Y-226907D01*
X733954Y-226816D01*
X733990Y-226798D01*
X734082Y-226780D01*
X734209Y-226743D01*
X734410Y-226689D01*
X734646Y-226652D01*
X734920Y-226616D01*
X735248Y-226598D01*
X735594Y-226579D01*
X735922D01*
X736067Y-226598D01*
D02*
G37*
G36*
X680934Y-226598D02*
X681098Y-226616D01*
X681298Y-226652D01*
X681499Y-226707D01*
X681717Y-226780D01*
X681918Y-226889D01*
X681936Y-226907D01*
X682009Y-226944D01*
X682100Y-227017D01*
X682227Y-227108D01*
X682373Y-227217D01*
X682519Y-227363D01*
X682665Y-227527D01*
X682810Y-227727D01*
X682829Y-227746D01*
X682865Y-227818D01*
X682938Y-227928D01*
X683011Y-228092D01*
X683102Y-228274D01*
X683193Y-228492D01*
X683284Y-228748D01*
X683357Y-229021D01*
Y-229057D01*
X683393Y-229149D01*
X683412Y-229312D01*
X683448Y-229513D01*
X683485Y-229750D01*
X683503Y-230041D01*
X683539Y-230351D01*
Y-230697D01*
Y-230715D01*
Y-230752D01*
Y-230806D01*
Y-230879D01*
X683521Y-231098D01*
X683503Y-231353D01*
X683466Y-231663D01*
X683412Y-231973D01*
X683339Y-232300D01*
X683229Y-232628D01*
X683211Y-232665D01*
X683175Y-232756D01*
X683102Y-232902D01*
X683011Y-233102D01*
X682883Y-233303D01*
X682738Y-233540D01*
X682574Y-233758D01*
X682373Y-233977D01*
X682355Y-233995D01*
X682282Y-234068D01*
X682155Y-234159D01*
X682009Y-234286D01*
X681827Y-234414D01*
X681590Y-234560D01*
X681353Y-234687D01*
X681079Y-234797D01*
X681043Y-234815D01*
X680952Y-234833D01*
X680806Y-234870D01*
X680606Y-234924D01*
X680369Y-234979D01*
X680096Y-235015D01*
X679804Y-235033D01*
X679494Y-235052D01*
X679239D01*
X679003Y-235033D01*
X678711Y-234997D01*
X678638D01*
X678565Y-234979D01*
X678474Y-234961D01*
X678346D01*
X678219Y-234942D01*
X677927Y-234888D01*
Y-238331D01*
X676506D01*
Y-226725D01*
X677764D01*
X677855Y-228110D01*
Y-228092D01*
X677891Y-228074D01*
X677964Y-227964D01*
X678091Y-227818D01*
X678255Y-227654D01*
X678456Y-227454D01*
X678675Y-227254D01*
X678911Y-227071D01*
X679166Y-226926D01*
X679203Y-226907D01*
X679294Y-226871D01*
X679422Y-226816D01*
X679622Y-226743D01*
X679841Y-226689D01*
X680096Y-226634D01*
X680387Y-226598D01*
X680679Y-226579D01*
X680806D01*
X680934Y-226598D01*
D02*
G37*
G36*
X755162Y-226598D02*
X755253D01*
X755381Y-226616D01*
X755672Y-226689D01*
X755982Y-226780D01*
X756292Y-226926D01*
X756601Y-227144D01*
X756747Y-227272D01*
X756875Y-227417D01*
X756911Y-227454D01*
X756929Y-227509D01*
X756984Y-227563D01*
X757021Y-227654D01*
X757075Y-227764D01*
X757148Y-227891D01*
X757203Y-228037D01*
X757257Y-228201D01*
X757312Y-228365D01*
X757367Y-228565D01*
X757421Y-228784D01*
X757458Y-229039D01*
X757476Y-229294D01*
X757494Y-229568D01*
Y-229859D01*
X756055D01*
Y-229841D01*
Y-229804D01*
Y-229750D01*
Y-229677D01*
X756037Y-229495D01*
X756018Y-229276D01*
X755982Y-229021D01*
X755927Y-228766D01*
X755836Y-228511D01*
X755727Y-228310D01*
X755709Y-228292D01*
X755672Y-228237D01*
X755581Y-228146D01*
X755472Y-228055D01*
X755326Y-227982D01*
X755162Y-227891D01*
X754962Y-227837D01*
X754725Y-227818D01*
X754615D01*
X754561Y-227837D01*
X754379Y-227855D01*
X754160Y-227928D01*
X754142D01*
X754105Y-227946D01*
X754051Y-227964D01*
X753978Y-228001D01*
X753777Y-228110D01*
X753559Y-228256D01*
X753541Y-228274D01*
X753504Y-228292D01*
X753449Y-228347D01*
X753358Y-228401D01*
X753158Y-228602D01*
X752903Y-228839D01*
X752885Y-228857D01*
X752848Y-228893D01*
X752775Y-228966D01*
X752684Y-229076D01*
X752575Y-229203D01*
X752447Y-229331D01*
X752320Y-229495D01*
X752174Y-229677D01*
Y-234961D01*
X750735D01*
Y-226725D01*
X752028D01*
X752065Y-228256D01*
Y-228237D01*
X752101Y-228219D01*
X752192Y-228110D01*
X752338Y-227964D01*
X752520Y-227764D01*
X752739Y-227563D01*
X752976Y-227345D01*
X753231Y-227144D01*
X753504Y-226980D01*
X753541Y-226962D01*
X753632Y-226926D01*
X753759Y-226853D01*
X753960Y-226780D01*
X754160Y-226707D01*
X754415Y-226634D01*
X754670Y-226598D01*
X754943Y-226579D01*
X755071D01*
X755162Y-226598D01*
D02*
G37*
G36*
X745669Y-226634D02*
X745870D01*
X746070Y-226652D01*
X746489Y-226707D01*
X746508D01*
X746580Y-226725D01*
X746690Y-226743D01*
X746836Y-226780D01*
X747000Y-226816D01*
X747182Y-226871D01*
X747564Y-226998D01*
Y-228365D01*
X747546Y-228347D01*
X747473Y-228328D01*
X747364Y-228274D01*
X747218Y-228219D01*
X747054Y-228146D01*
X746872Y-228074D01*
X746471Y-227964D01*
X746453D01*
X746380Y-227946D01*
X746271Y-227928D01*
X746125Y-227891D01*
X745943Y-227873D01*
X745760Y-227855D01*
X745323Y-227837D01*
X745232D01*
X745123Y-227855D01*
X744995D01*
X744831Y-227891D01*
X744649Y-227928D01*
X744467Y-227982D01*
X744285Y-228055D01*
X744267D01*
X744212Y-228092D01*
X744102Y-228146D01*
X743993Y-228201D01*
X743866Y-228292D01*
X743720Y-228401D01*
X743574Y-228511D01*
X743428Y-228657D01*
X743410Y-228675D01*
X743374Y-228729D01*
X743301Y-228802D01*
X743228Y-228912D01*
X743119Y-229057D01*
X743027Y-229221D01*
X742936Y-229403D01*
X742845Y-229604D01*
Y-229622D01*
X742809Y-229695D01*
X742791Y-229823D01*
X742754Y-229968D01*
X742718Y-230169D01*
X742681Y-230387D01*
X742663Y-230624D01*
X742645Y-230898D01*
Y-230916D01*
Y-230970D01*
Y-231043D01*
X742663Y-231134D01*
Y-231262D01*
X742681Y-231408D01*
X742736Y-231736D01*
X742827Y-232082D01*
X742936Y-232465D01*
X743119Y-232811D01*
X743356Y-233120D01*
X743392Y-233157D01*
X743483Y-233230D01*
X743647Y-233357D01*
X743884Y-233485D01*
X744175Y-233612D01*
X744522Y-233740D01*
X744922Y-233813D01*
X745378Y-233849D01*
X745597D01*
X745742Y-233831D01*
X745906Y-233813D01*
X746107Y-233794D01*
X746508Y-233722D01*
X746526D01*
X746599Y-233703D01*
X746708Y-233667D01*
X746854Y-233630D01*
X747000Y-233576D01*
X747182Y-233503D01*
X747564Y-233321D01*
Y-234651D01*
X747546D01*
X747473Y-234687D01*
X747364Y-234724D01*
X747218Y-234778D01*
X747036Y-234815D01*
X746836Y-234870D01*
X746416Y-234961D01*
X746398D01*
X746307Y-234979D01*
X746198Y-234997D01*
X746052Y-235015D01*
X745870Y-235033D01*
X745651Y-235052D01*
X745196Y-235070D01*
X745014D01*
X744868Y-235052D01*
X744704Y-235033D01*
X744522Y-235015D01*
X744321Y-234979D01*
X744084Y-234942D01*
X743611Y-234815D01*
X743356Y-234724D01*
X743100Y-234614D01*
X742864Y-234505D01*
X742627Y-234359D01*
X742390Y-234195D01*
X742189Y-234013D01*
X742171Y-233995D01*
X742153Y-233959D01*
X742098Y-233904D01*
X742025Y-233813D01*
X741953Y-233703D01*
X741861Y-233576D01*
X741770Y-233412D01*
X741679Y-233230D01*
X741570Y-233029D01*
X741479Y-232792D01*
X741388Y-232537D01*
X741315Y-232264D01*
X741242Y-231973D01*
X741187Y-231645D01*
X741169Y-231298D01*
X741151Y-230934D01*
Y-230916D01*
Y-230898D01*
Y-230843D01*
Y-230770D01*
X741169Y-230588D01*
X741187Y-230351D01*
X741224Y-230078D01*
X741278Y-229768D01*
X741351Y-229458D01*
X741442Y-229167D01*
Y-229148D01*
X741461Y-229130D01*
X741497Y-229039D01*
X741570Y-228875D01*
X741661Y-228693D01*
X741789Y-228474D01*
X741934Y-228256D01*
X742098Y-228019D01*
X742299Y-227800D01*
X742317Y-227782D01*
X742390Y-227709D01*
X742517Y-227600D01*
X742663Y-227472D01*
X742864Y-227345D01*
X743082Y-227199D01*
X743337Y-227053D01*
X743611Y-226926D01*
X743647Y-226907D01*
X743738Y-226871D01*
X743902Y-226835D01*
X744102Y-226762D01*
X744358Y-226707D01*
X744649Y-226671D01*
X744959Y-226634D01*
X745287Y-226616D01*
X745524D01*
X745669Y-226634D01*
D02*
G37*
G36*
X724297Y-230497D02*
X727996Y-226725D01*
X729891D01*
X726028Y-230533D01*
X730110Y-234961D01*
X728142D01*
X724297Y-230551D01*
Y-234961D01*
X722876D01*
Y-223373D01*
X724297D01*
Y-230497D01*
D02*
G37*
G36*
X717684Y-233776D02*
X720143D01*
Y-234961D01*
X713548D01*
Y-233776D01*
X716244D01*
Y-224539D01*
X713821D01*
Y-223373D01*
X717684D01*
Y-233776D01*
D02*
G37*
G36*
X708446D02*
X710906D01*
Y-234961D01*
X704310D01*
Y-233776D01*
X707007D01*
Y-227909D01*
X704583D01*
Y-226725D01*
X708446D01*
Y-233776D01*
D02*
G37*
G36*
X665246Y-225486D02*
X662076D01*
Y-234961D01*
X660600D01*
Y-225486D01*
X657430D01*
Y-224247D01*
X665246D01*
Y-225486D01*
D02*
G37*
G36*
X772580Y-226598D02*
X772781Y-226616D01*
X773018Y-226652D01*
X773273Y-226689D01*
X773528Y-226762D01*
X773783Y-226853D01*
X773819Y-226871D01*
X773892Y-226907D01*
X774020Y-226962D01*
X774184Y-227053D01*
X774348Y-227162D01*
X774548Y-227290D01*
X774730Y-227454D01*
X774913Y-227636D01*
X774931Y-227654D01*
X774985Y-227727D01*
X775076Y-227837D01*
X775168Y-227964D01*
X775277Y-228146D01*
X775405Y-228347D01*
X775514Y-228584D01*
X775605Y-228839D01*
X775623Y-228875D01*
X775641Y-228966D01*
X775678Y-229112D01*
X775732Y-229294D01*
X775769Y-229531D01*
X775805Y-229786D01*
X775823Y-230078D01*
X775842Y-230406D01*
Y-230424D01*
Y-230460D01*
Y-230515D01*
Y-230588D01*
Y-230752D01*
X775823Y-230934D01*
Y-230970D01*
Y-231062D01*
Y-231171D01*
X775805Y-231298D01*
X770030D01*
Y-231317D01*
Y-231353D01*
Y-231426D01*
X770048Y-231499D01*
Y-231608D01*
X770066Y-231736D01*
X770121Y-232027D01*
X770193Y-232337D01*
X770321Y-232665D01*
X770485Y-232975D01*
X770722Y-233248D01*
X770758Y-233284D01*
X770850Y-233357D01*
X771013Y-233467D01*
X771250Y-233576D01*
X771542Y-233703D01*
X771888Y-233813D01*
X772289Y-233886D01*
X772763Y-233922D01*
X773218D01*
X773473Y-233904D01*
X773528D01*
X773601Y-233886D01*
X773692D01*
X773929Y-233849D01*
X774165Y-233831D01*
X774184D01*
X774220Y-233813D01*
X774293D01*
X774384Y-233794D01*
X774585Y-233758D01*
X774821Y-233722D01*
X774840D01*
X774876Y-233703D01*
X774931Y-233685D01*
X775004Y-233667D01*
X775204Y-233630D01*
X775405Y-233576D01*
Y-234742D01*
X775386D01*
X775295Y-234760D01*
X775186Y-234797D01*
X775022Y-234833D01*
X774821Y-234870D01*
X774603Y-234924D01*
X774348Y-234961D01*
X774074Y-234997D01*
X774038D01*
X773947Y-235015D01*
X773801Y-235033D01*
X773619Y-235052D01*
X773382Y-235070D01*
X773127Y-235088D01*
X772854Y-235106D01*
X772380D01*
X772180Y-235088D01*
X771943Y-235070D01*
X771651Y-235033D01*
X771341Y-234997D01*
X771032Y-234924D01*
X770740Y-234833D01*
X770704Y-234815D01*
X770613Y-234778D01*
X770467Y-234705D01*
X770303Y-234614D01*
X770103Y-234505D01*
X769884Y-234359D01*
X769683Y-234195D01*
X769483Y-233995D01*
X769465Y-233977D01*
X769410Y-233904D01*
X769319Y-233776D01*
X769210Y-233630D01*
X769082Y-233430D01*
X768973Y-233211D01*
X768845Y-232938D01*
X768754Y-232665D01*
Y-232647D01*
Y-232628D01*
X768718Y-232519D01*
X768681Y-232355D01*
X768645Y-232137D01*
X768608Y-231863D01*
X768572Y-231572D01*
X768554Y-231225D01*
X768536Y-230861D01*
Y-230843D01*
Y-230825D01*
Y-230715D01*
X768554Y-230551D01*
X768572Y-230333D01*
X768590Y-230096D01*
X768645Y-229823D01*
X768700Y-229531D01*
X768772Y-229240D01*
Y-229221D01*
X768791Y-229203D01*
X768827Y-229112D01*
X768882Y-228966D01*
X768955Y-228766D01*
X769064Y-228565D01*
X769191Y-228328D01*
X769337Y-228092D01*
X769501Y-227873D01*
X769519Y-227855D01*
X769592Y-227782D01*
X769702Y-227673D01*
X769829Y-227527D01*
X770011Y-227381D01*
X770212Y-227217D01*
X770430Y-227071D01*
X770685Y-226926D01*
X770722Y-226907D01*
X770813Y-226871D01*
X770959Y-226816D01*
X771141Y-226743D01*
X771378Y-226689D01*
X771651Y-226634D01*
X771943Y-226598D01*
X772271Y-226579D01*
X772416D01*
X772580Y-226598D01*
D02*
G37*
G36*
X763343D02*
X763543Y-226616D01*
X763780Y-226652D01*
X764035Y-226689D01*
X764290Y-226762D01*
X764545Y-226853D01*
X764582Y-226871D01*
X764655Y-226907D01*
X764782Y-226962D01*
X764946Y-227053D01*
X765110Y-227162D01*
X765311Y-227290D01*
X765493Y-227454D01*
X765675Y-227636D01*
X765693Y-227654D01*
X765748Y-227727D01*
X765839Y-227837D01*
X765930Y-227964D01*
X766039Y-228146D01*
X766167Y-228347D01*
X766276Y-228584D01*
X766367Y-228839D01*
X766386Y-228875D01*
X766404Y-228966D01*
X766440Y-229112D01*
X766495Y-229294D01*
X766531Y-229531D01*
X766568Y-229786D01*
X766586Y-230078D01*
X766604Y-230406D01*
Y-230424D01*
Y-230460D01*
Y-230515D01*
Y-230588D01*
Y-230752D01*
X766586Y-230934D01*
Y-230970D01*
Y-231062D01*
Y-231171D01*
X766568Y-231298D01*
X760792D01*
Y-231317D01*
Y-231353D01*
Y-231426D01*
X760810Y-231499D01*
Y-231608D01*
X760828Y-231736D01*
X760883Y-232027D01*
X760956Y-232337D01*
X761084Y-232665D01*
X761247Y-232975D01*
X761484Y-233248D01*
X761521Y-233284D01*
X761612Y-233357D01*
X761776Y-233467D01*
X762013Y-233576D01*
X762304Y-233703D01*
X762650Y-233813D01*
X763051Y-233886D01*
X763525Y-233922D01*
X763980D01*
X764236Y-233904D01*
X764290D01*
X764363Y-233886D01*
X764454D01*
X764691Y-233849D01*
X764928Y-233831D01*
X764946D01*
X764983Y-233813D01*
X765056D01*
X765147Y-233794D01*
X765347Y-233758D01*
X765584Y-233722D01*
X765602D01*
X765639Y-233703D01*
X765693Y-233685D01*
X765766Y-233667D01*
X765967Y-233630D01*
X766167Y-233576D01*
Y-234742D01*
X766149D01*
X766058Y-234760D01*
X765948Y-234797D01*
X765784Y-234833D01*
X765584Y-234870D01*
X765365Y-234924D01*
X765110Y-234961D01*
X764837Y-234997D01*
X764800D01*
X764709Y-235015D01*
X764564Y-235033D01*
X764381Y-235052D01*
X764145Y-235070D01*
X763889Y-235088D01*
X763616Y-235106D01*
X763142D01*
X762942Y-235088D01*
X762705Y-235070D01*
X762414Y-235033D01*
X762104Y-234997D01*
X761794Y-234924D01*
X761503Y-234833D01*
X761466Y-234815D01*
X761375Y-234778D01*
X761229Y-234705D01*
X761065Y-234614D01*
X760865Y-234505D01*
X760646Y-234359D01*
X760446Y-234195D01*
X760245Y-233995D01*
X760227Y-233977D01*
X760173Y-233904D01*
X760081Y-233776D01*
X759972Y-233630D01*
X759845Y-233430D01*
X759735Y-233211D01*
X759608Y-232938D01*
X759517Y-232665D01*
Y-232647D01*
Y-232628D01*
X759480Y-232519D01*
X759444Y-232355D01*
X759407Y-232137D01*
X759371Y-231863D01*
X759334Y-231572D01*
X759316Y-231225D01*
X759298Y-230861D01*
Y-230843D01*
Y-230825D01*
Y-230715D01*
X759316Y-230551D01*
X759334Y-230333D01*
X759353Y-230096D01*
X759407Y-229823D01*
X759462Y-229531D01*
X759535Y-229240D01*
Y-229221D01*
X759553Y-229203D01*
X759589Y-229112D01*
X759644Y-228966D01*
X759717Y-228766D01*
X759826Y-228565D01*
X759954Y-228328D01*
X760100Y-228092D01*
X760264Y-227873D01*
X760282Y-227855D01*
X760355Y-227782D01*
X760464Y-227673D01*
X760592Y-227527D01*
X760774Y-227381D01*
X760974Y-227217D01*
X761193Y-227071D01*
X761448Y-226926D01*
X761484Y-226907D01*
X761576Y-226871D01*
X761721Y-226816D01*
X761903Y-226743D01*
X762140Y-226689D01*
X762414Y-226634D01*
X762705Y-226598D01*
X763033Y-226579D01*
X763179D01*
X763343Y-226598D01*
D02*
G37*
G36*
X670967Y-226598D02*
X671168Y-226616D01*
X671423Y-226652D01*
X671678Y-226707D01*
X671951Y-226780D01*
X672225Y-226871D01*
X672261Y-226889D01*
X672352Y-226926D01*
X672480Y-226980D01*
X672644Y-227071D01*
X672826Y-227181D01*
X673026Y-227326D01*
X673227Y-227490D01*
X673409Y-227673D01*
X673427Y-227691D01*
X673482Y-227764D01*
X673573Y-227873D01*
X673682Y-228037D01*
X673810Y-228219D01*
X673937Y-228456D01*
X674047Y-228711D01*
X674156Y-228984D01*
X674174Y-229021D01*
X674192Y-229130D01*
X674247Y-229294D01*
X674302Y-229495D01*
X674338Y-229768D01*
X674393Y-230078D01*
X674411Y-230424D01*
X674429Y-230788D01*
Y-230806D01*
Y-230825D01*
Y-230879D01*
Y-230952D01*
X674411Y-231134D01*
X674393Y-231371D01*
X674356Y-231645D01*
X674320Y-231936D01*
X674247Y-232246D01*
X674156Y-232556D01*
X674138Y-232592D01*
X674101Y-232683D01*
X674047Y-232829D01*
X673955Y-233011D01*
X673846Y-233230D01*
X673719Y-233467D01*
X673555Y-233703D01*
X673373Y-233922D01*
X673354Y-233940D01*
X673281Y-234013D01*
X673172Y-234122D01*
X673026Y-234250D01*
X672844Y-234378D01*
X672644Y-234523D01*
X672389Y-234669D01*
X672133Y-234797D01*
X672097Y-234815D01*
X672006Y-234851D01*
X671860Y-234888D01*
X671660Y-234942D01*
X671405Y-235015D01*
X671131Y-235052D01*
X670822Y-235088D01*
X670475Y-235106D01*
X670330D01*
X670148Y-235088D01*
X669947Y-235070D01*
X669692Y-235033D01*
X669419Y-234997D01*
X669145Y-234924D01*
X668872Y-234833D01*
X668836Y-234815D01*
X668763Y-234778D01*
X668635Y-234724D01*
X668471Y-234633D01*
X668271Y-234523D01*
X668089Y-234378D01*
X667888Y-234214D01*
X667688Y-234031D01*
X667670Y-234013D01*
X667615Y-233940D01*
X667524Y-233831D01*
X667415Y-233667D01*
X667305Y-233485D01*
X667178Y-233248D01*
X667068Y-232993D01*
X666959Y-232720D01*
Y-232701D01*
X666941Y-232683D01*
X666923Y-232574D01*
X666886Y-232410D01*
X666831Y-232191D01*
X666777Y-231918D01*
X666740Y-231608D01*
X666722Y-231262D01*
X666704Y-230898D01*
Y-230879D01*
Y-230861D01*
Y-230806D01*
Y-230734D01*
X666722Y-230551D01*
X666740Y-230333D01*
X666759Y-230060D01*
X666813Y-229768D01*
X666868Y-229458D01*
X666959Y-229167D01*
Y-229149D01*
X666977Y-229130D01*
X667014Y-229039D01*
X667068Y-228875D01*
X667160Y-228693D01*
X667269Y-228474D01*
X667415Y-228256D01*
X667560Y-228019D01*
X667742Y-227800D01*
X667761Y-227782D01*
X667834Y-227709D01*
X667943Y-227600D01*
X668089Y-227472D01*
X668271Y-227326D01*
X668490Y-227181D01*
X668726Y-227035D01*
X668982Y-226907D01*
X669018Y-226889D01*
X669109Y-226853D01*
X669255Y-226798D01*
X669455Y-226743D01*
X669710Y-226689D01*
X669984Y-226634D01*
X670293Y-226598D01*
X670640Y-226579D01*
X670785D01*
X670967Y-226598D01*
D02*
G37*
G36*
X166565Y-3623D02*
X166617Y-3641D01*
X166635D01*
X166653Y-3658D01*
X166670Y-3694D01*
X166688Y-3746D01*
Y-3764D01*
X166670Y-3782D01*
X166635Y-3817D01*
X166617D01*
X166565Y-3834D01*
X166477D01*
X166371Y-3852D01*
X166353D01*
X166318Y-3870D01*
X166265D01*
X166178Y-3887D01*
X166160D01*
X166125Y-3905D01*
X166072Y-3922D01*
X166002Y-3940D01*
X165861Y-4028D01*
X165791Y-4081D01*
X165738Y-4151D01*
Y-4169D01*
X165720Y-4186D01*
X165703Y-4239D01*
X165685Y-4309D01*
X165650Y-4397D01*
X165632Y-4503D01*
X165615Y-4626D01*
X165597Y-4767D01*
Y-4784D01*
Y-4802D01*
Y-4820D01*
Y-4837D01*
Y-4890D01*
X165579Y-4960D01*
Y-5066D01*
Y-5206D01*
X165562Y-5382D01*
Y-5576D01*
Y-5787D01*
Y-5822D01*
Y-5910D01*
Y-5980D01*
Y-6068D01*
Y-6174D01*
Y-6297D01*
Y-6455D01*
Y-6631D01*
Y-6825D01*
Y-7036D01*
Y-7265D01*
Y-7528D01*
Y-7827D01*
Y-8144D01*
Y-10888D01*
Y-10906D01*
Y-10941D01*
Y-10994D01*
Y-11082D01*
Y-11169D01*
Y-11293D01*
Y-11556D01*
Y-11873D01*
Y-12207D01*
Y-12559D01*
Y-12911D01*
Y-12928D01*
Y-12946D01*
Y-13052D01*
X165579Y-13210D01*
Y-13403D01*
Y-13632D01*
X165597Y-13861D01*
X165615Y-14089D01*
X165632Y-14283D01*
Y-14300D01*
Y-14336D01*
X165650Y-14406D01*
X165667Y-14494D01*
X165720Y-14670D01*
X165791Y-14863D01*
Y-14881D01*
X165808Y-14898D01*
X165896Y-14987D01*
X165949Y-15039D01*
X166037Y-15074D01*
X166125Y-15110D01*
X166248Y-15145D01*
X166265D01*
X166301Y-15162D01*
X166389Y-15180D01*
X166547D01*
X166600Y-15198D01*
X166670D01*
X166758Y-15215D01*
X166987D01*
X167022Y-15233D01*
X167040Y-15250D01*
X167057Y-15268D01*
X167075Y-15303D01*
Y-15338D01*
X167040Y-15356D01*
X167004Y-15373D01*
X166969D01*
X166916Y-15391D01*
X166195D01*
X166019Y-15373D01*
X165527D01*
X165421Y-15356D01*
X164454D01*
X164278Y-15373D01*
X163574D01*
X163469Y-15391D01*
X163240D01*
X163187Y-15373D01*
X163170Y-15356D01*
X163152Y-15338D01*
X163135Y-15303D01*
Y-15285D01*
X163152Y-15250D01*
X163187Y-15233D01*
X163258Y-15215D01*
X163363D01*
X163398Y-15198D01*
X163504D01*
X163522Y-15180D01*
X163627D01*
X163645Y-15162D01*
X163715Y-15145D01*
X163733D01*
X163750Y-15127D01*
X163856Y-15092D01*
X163961Y-15004D01*
X164032Y-14863D01*
Y-14846D01*
X164049Y-14828D01*
X164067Y-14775D01*
X164084Y-14705D01*
X164137Y-14529D01*
X164172Y-14283D01*
Y-14265D01*
X164190Y-14195D01*
Y-14072D01*
X164207Y-13931D01*
X164225Y-13738D01*
Y-13491D01*
X164243Y-13228D01*
Y-12911D01*
Y-12893D01*
Y-12876D01*
Y-12823D01*
Y-12753D01*
Y-12559D01*
X164260Y-12313D01*
Y-12014D01*
Y-11680D01*
Y-11293D01*
Y-10888D01*
Y-8126D01*
Y-8109D01*
Y-8056D01*
Y-7968D01*
Y-7845D01*
Y-7704D01*
Y-7546D01*
Y-7176D01*
Y-6790D01*
Y-6403D01*
Y-6227D01*
Y-6051D01*
Y-5910D01*
Y-5787D01*
Y-5752D01*
Y-5681D01*
Y-5576D01*
Y-5435D01*
X164243Y-5119D01*
Y-4960D01*
X164225Y-4820D01*
Y-4802D01*
Y-4784D01*
Y-4767D01*
Y-4749D01*
Y-4696D01*
X164207Y-4626D01*
Y-4538D01*
X164155Y-4344D01*
X164120Y-4257D01*
X164084Y-4169D01*
Y-4151D01*
X164067Y-4134D01*
X163996Y-4045D01*
X163873Y-3958D01*
X163697Y-3887D01*
X163627D01*
X163609Y-3870D01*
X163539D01*
X163486Y-3852D01*
X163346D01*
X163310Y-3834D01*
X163170D01*
X163117Y-3817D01*
X163099Y-3799D01*
X163082Y-3746D01*
Y-3729D01*
Y-3694D01*
X163099Y-3658D01*
X163135Y-3641D01*
X163152D01*
X163187Y-3623D01*
X163240Y-3606D01*
X163856D01*
X163979Y-3623D01*
X164313D01*
X164419Y-3641D01*
X164559D01*
X164700Y-3658D01*
X165157D01*
X165245Y-3641D01*
X165368D01*
X165527Y-3623D01*
X166178D01*
X166248Y-3606D01*
X166512D01*
X166565Y-3623D01*
D02*
G37*
G36*
X160953D02*
X161006Y-3641D01*
X161024D01*
X161041Y-3658D01*
X161059Y-3676D01*
X161076Y-3729D01*
Y-3764D01*
X161041Y-3817D01*
X161006D01*
X160971Y-3834D01*
X160813D01*
X160707Y-3852D01*
X160566Y-3870D01*
X160531D01*
X160461Y-3905D01*
X160338Y-3940D01*
X160179Y-3993D01*
X160144Y-4010D01*
X160091Y-4028D01*
X160074D01*
X160039Y-4045D01*
X160021D01*
X160003Y-4063D01*
X159915Y-4116D01*
X159775Y-4186D01*
X159634Y-4274D01*
X159599Y-4292D01*
X159529Y-4344D01*
X159405Y-4415D01*
X159282Y-4520D01*
X159247Y-4556D01*
X159159Y-4626D01*
X159019Y-4749D01*
X158860Y-4907D01*
X158843Y-4925D01*
X158825Y-4943D01*
X158719Y-5048D01*
X158544Y-5206D01*
X158350Y-5400D01*
X158315Y-5435D01*
X158280Y-5470D01*
X158209Y-5523D01*
X158121Y-5611D01*
X158016Y-5734D01*
X157875Y-5857D01*
X157699Y-6033D01*
X157682Y-6051D01*
X157611Y-6121D01*
X157506Y-6209D01*
X157383Y-6332D01*
X157224Y-6491D01*
X157048Y-6666D01*
X156644Y-7071D01*
X156626Y-7089D01*
X156538Y-7176D01*
X156433Y-7282D01*
X156292Y-7423D01*
X156116Y-7599D01*
X155940Y-7775D01*
X155553Y-8162D01*
X155536Y-8179D01*
X155465Y-8249D01*
X155377Y-8337D01*
X155289Y-8425D01*
X155078Y-8654D01*
X154990Y-8742D01*
X154920Y-8812D01*
X154955Y-8848D01*
X155008Y-8900D01*
X155078Y-8988D01*
X155184Y-9094D01*
X155324Y-9235D01*
X155500Y-9428D01*
X155711Y-9657D01*
X155747Y-9692D01*
X155817Y-9780D01*
X155958Y-9903D01*
X156134Y-10079D01*
X156345Y-10308D01*
X156573Y-10554D01*
X156837Y-10818D01*
X157101Y-11099D01*
X157136Y-11134D01*
X157224Y-11222D01*
X157347Y-11345D01*
X157506Y-11521D01*
X157699Y-11715D01*
X157910Y-11943D01*
X158368Y-12401D01*
X158403Y-12418D01*
X158473Y-12489D01*
X158579Y-12594D01*
X158702Y-12735D01*
X158983Y-12999D01*
X159106Y-13122D01*
X159212Y-13228D01*
X159247Y-13263D01*
X159318Y-13333D01*
X159441Y-13439D01*
X159599Y-13579D01*
X159933Y-13896D01*
X160091Y-14037D01*
X160250Y-14177D01*
X160267Y-14195D01*
X160320Y-14230D01*
X160390Y-14300D01*
X160478Y-14371D01*
X160689Y-14529D01*
X160936Y-14687D01*
X160953Y-14705D01*
X161006Y-14740D01*
X161076Y-14793D01*
X161147Y-14846D01*
X161164D01*
X161235Y-14881D01*
X161305Y-14916D01*
X161411Y-14951D01*
X161428D01*
X161463Y-14969D01*
X161481Y-14987D01*
X161534Y-15004D01*
X161551Y-15022D01*
X161604Y-15039D01*
X161622Y-15057D01*
X161674Y-15074D01*
X161692D01*
X161727Y-15092D01*
X161780D01*
X161850Y-15110D01*
X162009Y-15145D01*
X162185Y-15180D01*
X162220D01*
X162325Y-15198D01*
X162431Y-15215D01*
X162554D01*
X162642Y-15233D01*
X162660D01*
X162677Y-15250D01*
X162695Y-15268D01*
X162712Y-15303D01*
Y-15338D01*
X162677Y-15356D01*
X162642Y-15373D01*
X162589D01*
X162501Y-15391D01*
X160883D01*
X160742Y-15373D01*
X160707D01*
X160601Y-15356D01*
X160355D01*
X160267Y-15338D01*
X160056Y-15303D01*
X159828Y-15250D01*
X159810D01*
X159775Y-15233D01*
X159722Y-15215D01*
X159669Y-15180D01*
X159493Y-15092D01*
X159300Y-14969D01*
X159265Y-14951D01*
X159194Y-14898D01*
X159089Y-14828D01*
X158966Y-14740D01*
X158931Y-14723D01*
X158860Y-14652D01*
X158737Y-14547D01*
X158596Y-14441D01*
X158579Y-14424D01*
X158544Y-14388D01*
X158473Y-14336D01*
X158385Y-14248D01*
X158245Y-14125D01*
X158086Y-13966D01*
X157893Y-13773D01*
X157646Y-13526D01*
X157611Y-13491D01*
X157523Y-13403D01*
X157400Y-13263D01*
X157224Y-13069D01*
X157013Y-12841D01*
X156767Y-12594D01*
X156503Y-12313D01*
X156222Y-12014D01*
Y-11996D01*
X156186Y-11979D01*
X156134Y-11926D01*
Y-11908D01*
X156116Y-11891D01*
X156063Y-11838D01*
Y-11820D01*
X156028Y-11803D01*
X155940Y-11697D01*
X155799Y-11556D01*
X155624Y-11363D01*
X155412Y-11134D01*
X155201Y-10888D01*
X154727Y-10378D01*
X154691Y-10343D01*
X154621Y-10272D01*
X154515Y-10149D01*
X154392Y-9991D01*
X154093Y-9657D01*
X153953Y-9498D01*
X153847Y-9358D01*
X153759D01*
Y-10888D01*
Y-10906D01*
Y-10941D01*
Y-10994D01*
Y-11082D01*
Y-11187D01*
Y-11293D01*
Y-11574D01*
Y-11891D01*
Y-12225D01*
Y-12577D01*
Y-12911D01*
Y-12928D01*
Y-12946D01*
Y-13052D01*
X153777Y-13210D01*
Y-13403D01*
X153794Y-13632D01*
X153812Y-13861D01*
X153829Y-14089D01*
X153847Y-14283D01*
Y-14300D01*
Y-14336D01*
X153865Y-14406D01*
X153882Y-14494D01*
X153917Y-14670D01*
X153988Y-14863D01*
Y-14881D01*
X154005Y-14898D01*
X154093Y-14987D01*
X154146Y-15039D01*
X154234Y-15074D01*
X154322Y-15110D01*
X154445Y-15145D01*
X154463D01*
X154515Y-15162D01*
X154621D01*
X154674Y-15180D01*
X154762D01*
X154850Y-15198D01*
X154938D01*
X154990Y-15215D01*
X155113D01*
X155149Y-15233D01*
X155166Y-15250D01*
X155184Y-15268D01*
Y-15303D01*
Y-15338D01*
X155149Y-15356D01*
X155113Y-15373D01*
X155078D01*
X155025Y-15391D01*
X154322D01*
X154164Y-15373D01*
X153935D01*
X153794Y-15356D01*
X152686D01*
X152528Y-15373D01*
X151842D01*
X151736Y-15391D01*
X151507D01*
X151455Y-15373D01*
X151437Y-15356D01*
X151420Y-15338D01*
X151402Y-15303D01*
Y-15285D01*
X151420Y-15250D01*
X151455Y-15233D01*
X151525Y-15215D01*
X151631D01*
X151666Y-15198D01*
X151771D01*
X151789Y-15180D01*
X151894D01*
X151912Y-15162D01*
X151982Y-15145D01*
X152000D01*
X152018Y-15127D01*
X152123Y-15092D01*
X152229Y-15004D01*
X152299Y-14863D01*
Y-14846D01*
X152317Y-14828D01*
X152334Y-14775D01*
X152352Y-14705D01*
X152405Y-14529D01*
X152440Y-14283D01*
Y-14265D01*
X152457Y-14195D01*
Y-14072D01*
X152475Y-13931D01*
X152493Y-13738D01*
Y-13491D01*
X152510Y-13228D01*
Y-12911D01*
Y-12893D01*
Y-12876D01*
Y-12823D01*
Y-12753D01*
Y-12559D01*
X152528Y-12313D01*
Y-12014D01*
Y-11680D01*
Y-11293D01*
Y-10888D01*
Y-8126D01*
Y-8109D01*
Y-8056D01*
Y-7968D01*
Y-7845D01*
Y-7704D01*
Y-7546D01*
Y-7176D01*
Y-6790D01*
Y-6403D01*
Y-6227D01*
Y-6051D01*
Y-5910D01*
Y-5787D01*
Y-5752D01*
Y-5681D01*
Y-5576D01*
Y-5435D01*
X152510Y-5119D01*
Y-4960D01*
X152493Y-4820D01*
Y-4802D01*
Y-4784D01*
Y-4767D01*
Y-4749D01*
Y-4696D01*
X152475Y-4626D01*
Y-4538D01*
X152422Y-4344D01*
X152387Y-4257D01*
X152334Y-4169D01*
Y-4151D01*
X152317Y-4134D01*
X152281Y-4098D01*
X152229Y-4045D01*
X152158Y-4010D01*
X152070Y-3958D01*
X151965Y-3922D01*
X151824Y-3887D01*
X151806D01*
X151789Y-3870D01*
X151666D01*
X151648Y-3852D01*
X151525D01*
X151507Y-3834D01*
X151261D01*
X151191Y-3817D01*
X151173Y-3799D01*
X151156Y-3746D01*
Y-3729D01*
Y-3694D01*
X151173Y-3658D01*
X151208Y-3641D01*
X151226D01*
X151261Y-3623D01*
X151332Y-3606D01*
X151965D01*
X152070Y-3623D01*
X152545D01*
X152651Y-3641D01*
X152774D01*
X152915Y-3658D01*
X153390D01*
X153478Y-3641D01*
X153601D01*
X153759Y-3623D01*
X154375D01*
X154445Y-3606D01*
X154709D01*
X154762Y-3623D01*
X154814Y-3641D01*
X154832D01*
X154850Y-3658D01*
X154867Y-3694D01*
X154885Y-3746D01*
Y-3764D01*
X154850Y-3817D01*
X154832D01*
X154762Y-3834D01*
X154674D01*
X154568Y-3852D01*
X154551D01*
X154515Y-3870D01*
X154463D01*
X154375Y-3887D01*
X154357D01*
X154322Y-3905D01*
X154269Y-3922D01*
X154199Y-3940D01*
X154058Y-4028D01*
X153988Y-4081D01*
X153935Y-4151D01*
Y-4169D01*
X153917Y-4186D01*
X153900Y-4239D01*
X153882Y-4309D01*
X153847Y-4397D01*
X153829Y-4503D01*
X153812Y-4626D01*
X153794Y-4767D01*
Y-4784D01*
Y-4802D01*
Y-4820D01*
Y-4837D01*
Y-4890D01*
X153777Y-4960D01*
Y-5066D01*
Y-5206D01*
X153759Y-5382D01*
Y-5576D01*
Y-5787D01*
Y-5822D01*
Y-5910D01*
Y-5980D01*
Y-6068D01*
Y-6174D01*
Y-6297D01*
Y-6455D01*
Y-6631D01*
Y-6825D01*
Y-7036D01*
Y-7265D01*
Y-7528D01*
Y-7827D01*
Y-8144D01*
Y-9076D01*
X153829D01*
X153847Y-9041D01*
X153900Y-9006D01*
X153953Y-8935D01*
X154041Y-8848D01*
X154146Y-8742D01*
X154304Y-8584D01*
X154480Y-8390D01*
X154498Y-8373D01*
X154586Y-8285D01*
X154691Y-8179D01*
X154850Y-8021D01*
X155025Y-7845D01*
X155237Y-7634D01*
X155448Y-7405D01*
X155694Y-7159D01*
X155711Y-7124D01*
X155782Y-7053D01*
X155905Y-6948D01*
X156046Y-6790D01*
X156204Y-6631D01*
X156380Y-6438D01*
X156767Y-6051D01*
X156784Y-6033D01*
X156855Y-5963D01*
X156943Y-5875D01*
X157048Y-5752D01*
X157295Y-5505D01*
X157400Y-5400D01*
X157488Y-5294D01*
X157506Y-5277D01*
X157541Y-5242D01*
X157594Y-5171D01*
X157682Y-5083D01*
X157858Y-4890D01*
X158051Y-4679D01*
X158069Y-4661D01*
X158086Y-4626D01*
X158139Y-4573D01*
X158192Y-4503D01*
X158280Y-4344D01*
X158297Y-4257D01*
X158315Y-4169D01*
Y-4151D01*
Y-4081D01*
X158297Y-4028D01*
X158262Y-3958D01*
X158245Y-3940D01*
X158227Y-3922D01*
X158121Y-3852D01*
X158104D01*
X158086Y-3834D01*
X158016Y-3799D01*
X157998Y-3782D01*
X157981Y-3729D01*
Y-3711D01*
Y-3694D01*
X157998Y-3658D01*
X158033Y-3641D01*
X158051D01*
X158069Y-3623D01*
X158174Y-3606D01*
X158332D01*
X158438Y-3623D01*
X158755D01*
X158790Y-3641D01*
X159019D01*
X159106Y-3658D01*
X159581D01*
X159669Y-3641D01*
X159792D01*
X159968Y-3623D01*
X160566D01*
X160637Y-3606D01*
X160901D01*
X160953Y-3623D01*
D02*
G37*
G36*
X145633D02*
X145861Y-3641D01*
X146107Y-3676D01*
X146336Y-3711D01*
X146565Y-3764D01*
X146582D01*
X146653Y-3782D01*
X146758Y-3817D01*
X146899Y-3852D01*
X147180Y-3958D01*
X147339Y-4028D01*
X147462Y-4098D01*
X147479D01*
X147497Y-4116D01*
X147585Y-4169D01*
X147690Y-4257D01*
X147796Y-4344D01*
X147814Y-4362D01*
X147884Y-4397D01*
X147937Y-4450D01*
X148007Y-4503D01*
X148025D01*
X148042Y-4538D01*
X148095Y-4608D01*
X148113D01*
X148130Y-4626D01*
X148201Y-4714D01*
X148218Y-4732D01*
X148236Y-4767D01*
X148271Y-4820D01*
X148324Y-4907D01*
X148394Y-5013D01*
X148465Y-5136D01*
X148535Y-5277D01*
X148605Y-5435D01*
X148623Y-5453D01*
X148640Y-5505D01*
X148676Y-5593D01*
X148711Y-5717D01*
X148746Y-5840D01*
X148764Y-5998D01*
X148799Y-6174D01*
Y-6367D01*
Y-6385D01*
Y-6438D01*
Y-6526D01*
X148781Y-6649D01*
X148764Y-6790D01*
X148746Y-6948D01*
X148711Y-7124D01*
X148658Y-7317D01*
X148535Y-7757D01*
X148447Y-7968D01*
X148341Y-8197D01*
X148218Y-8425D01*
X148060Y-8636D01*
X147902Y-8865D01*
X147708Y-9059D01*
X147690Y-9076D01*
X147655Y-9094D01*
X147602Y-9147D01*
X147515Y-9217D01*
X147409Y-9287D01*
X147268Y-9375D01*
X147128Y-9481D01*
X146952Y-9569D01*
X146758Y-9657D01*
X146547Y-9762D01*
X146336Y-9850D01*
X146090Y-9921D01*
X145826Y-9991D01*
X145545Y-10026D01*
X145246Y-10061D01*
X144947Y-10079D01*
X144595D01*
X144560Y-10061D01*
X144489Y-10044D01*
X144472Y-10026D01*
X144454Y-9956D01*
Y-9938D01*
X144472Y-9903D01*
X144489Y-9868D01*
X144542Y-9850D01*
X144560D01*
X144612Y-9833D01*
X144718Y-9815D01*
X144982D01*
X145070Y-9797D01*
X145158D01*
X145281Y-9780D01*
X145545Y-9727D01*
X145844Y-9639D01*
X146160Y-9516D01*
X146494Y-9340D01*
X146793Y-9094D01*
X146811Y-9076D01*
X146829Y-9059D01*
X146916Y-8953D01*
X147040Y-8795D01*
X147198Y-8584D01*
X147339Y-8320D01*
X147462Y-8003D01*
X147550Y-7651D01*
X147585Y-7458D01*
Y-7265D01*
Y-7247D01*
Y-7212D01*
Y-7159D01*
Y-7071D01*
X147567Y-6965D01*
X147550Y-6842D01*
X147532Y-6702D01*
X147515Y-6543D01*
Y-6526D01*
X147497Y-6455D01*
X147479Y-6367D01*
X147462Y-6244D01*
X147427Y-6103D01*
X147374Y-5945D01*
X147303Y-5769D01*
X147216Y-5593D01*
X147198Y-5558D01*
X147163Y-5488D01*
X147092Y-5365D01*
X147004Y-5224D01*
Y-5206D01*
X146987Y-5189D01*
X146916Y-5101D01*
X146829Y-4995D01*
X146705Y-4872D01*
X146688Y-4855D01*
X146635Y-4802D01*
X146565Y-4732D01*
X146477Y-4661D01*
X146459Y-4644D01*
X146406Y-4608D01*
X146336Y-4556D01*
X146266Y-4503D01*
X146248Y-4485D01*
X146178Y-4450D01*
X146090Y-4397D01*
X145967Y-4327D01*
X145826Y-4257D01*
X145668Y-4204D01*
X145509Y-4151D01*
X145333Y-4134D01*
X145316D01*
X145263Y-4116D01*
X145175D01*
X145087Y-4098D01*
X144859Y-4081D01*
X144436D01*
X144331Y-4098D01*
X144190Y-4116D01*
X144155D01*
X144085Y-4134D01*
X143997Y-4151D01*
X143891Y-4169D01*
X143856Y-4186D01*
X143838Y-4221D01*
X143803Y-4274D01*
Y-4292D01*
X143786Y-4327D01*
X143768Y-4380D01*
Y-4468D01*
Y-10888D01*
Y-10906D01*
Y-10941D01*
Y-10994D01*
Y-11082D01*
Y-11169D01*
Y-11293D01*
Y-11556D01*
Y-11873D01*
Y-12207D01*
Y-12559D01*
Y-12911D01*
Y-12928D01*
Y-12946D01*
Y-13052D01*
X143786Y-13210D01*
Y-13403D01*
X143803Y-13632D01*
X143821Y-13861D01*
X143838Y-14089D01*
X143856Y-14283D01*
Y-14300D01*
Y-14336D01*
X143874Y-14406D01*
Y-14494D01*
X143926Y-14670D01*
X143997Y-14863D01*
Y-14881D01*
X144014Y-14898D01*
X144102Y-14987D01*
X144155Y-15039D01*
X144243Y-15074D01*
X144331Y-15110D01*
X144454Y-15145D01*
X144472D01*
X144507Y-15162D01*
X144595Y-15180D01*
X144753D01*
X144806Y-15198D01*
X144894D01*
X144982Y-15215D01*
X145210D01*
X145246Y-15233D01*
X145263Y-15250D01*
X145281Y-15268D01*
Y-15303D01*
Y-15338D01*
X145246Y-15356D01*
X145210Y-15373D01*
X145175D01*
X145122Y-15391D01*
X144401D01*
X144225Y-15373D01*
X143733D01*
X143627Y-15356D01*
X142695D01*
X142519Y-15373D01*
X142132D01*
X142026Y-15391D01*
X141481D01*
X141428Y-15373D01*
X141411Y-15356D01*
X141393Y-15338D01*
X141376Y-15303D01*
Y-15285D01*
X141393Y-15250D01*
X141428Y-15233D01*
X141499Y-15215D01*
X141604D01*
X141639Y-15198D01*
X141745D01*
X141763Y-15180D01*
X141868D01*
X141886Y-15162D01*
X141956Y-15145D01*
X141974D01*
X141991Y-15127D01*
X142097Y-15092D01*
X142202Y-15004D01*
X142273Y-14863D01*
Y-14846D01*
X142290Y-14828D01*
X142308Y-14775D01*
X142325Y-14705D01*
X142378Y-14529D01*
X142413Y-14283D01*
Y-14265D01*
X142431Y-14195D01*
Y-14072D01*
X142449Y-13931D01*
X142466Y-13738D01*
Y-13491D01*
X142484Y-13228D01*
Y-12911D01*
Y-12893D01*
Y-12876D01*
Y-12823D01*
Y-12753D01*
Y-12559D01*
X142501Y-12313D01*
Y-12014D01*
Y-11680D01*
Y-11293D01*
Y-10888D01*
Y-8126D01*
Y-8109D01*
Y-8056D01*
Y-7968D01*
Y-7845D01*
Y-7704D01*
Y-7546D01*
Y-7176D01*
Y-6790D01*
Y-6403D01*
Y-6227D01*
Y-6051D01*
Y-5910D01*
Y-5787D01*
Y-5752D01*
Y-5681D01*
Y-5576D01*
Y-5435D01*
X142484Y-5119D01*
Y-4960D01*
X142466Y-4820D01*
Y-4802D01*
Y-4784D01*
Y-4767D01*
Y-4749D01*
Y-4696D01*
X142449Y-4626D01*
Y-4538D01*
X142396Y-4344D01*
X142361Y-4257D01*
X142308Y-4169D01*
Y-4151D01*
X142290Y-4134D01*
X142255Y-4098D01*
X142202Y-4045D01*
X142132Y-4010D01*
X142044Y-3958D01*
X141939Y-3922D01*
X141798Y-3887D01*
X141780D01*
X141763Y-3870D01*
X141639D01*
X141622Y-3852D01*
X141499D01*
X141481Y-3834D01*
X141235D01*
X141165Y-3817D01*
X141147Y-3799D01*
X141129Y-3746D01*
Y-3729D01*
Y-3694D01*
X141147Y-3658D01*
X141182Y-3641D01*
X141200D01*
X141235Y-3623D01*
X141305Y-3606D01*
X141991D01*
X142079Y-3623D01*
X142537D01*
X142642Y-3641D01*
X142783D01*
X142924Y-3658D01*
X143539D01*
X143645Y-3641D01*
X143803D01*
X143997Y-3623D01*
X144454D01*
X144560Y-3606D01*
X145421D01*
X145633Y-3623D01*
D02*
G37*
G36*
X122449Y-3623D02*
X122502Y-3641D01*
X122519D01*
X122537Y-3658D01*
X122554Y-3694D01*
X122572Y-3746D01*
Y-3764D01*
X122537Y-3817D01*
X122519D01*
X122449Y-3834D01*
X122361D01*
X122255Y-3852D01*
X122203D01*
X122150Y-3870D01*
X122062Y-3887D01*
X122044D01*
X122009Y-3905D01*
X121956Y-3922D01*
X121886Y-3940D01*
X121745Y-4028D01*
X121675Y-4081D01*
X121622Y-4151D01*
Y-4169D01*
X121605Y-4186D01*
X121587Y-4239D01*
X121569Y-4309D01*
X121534Y-4397D01*
X121517Y-4503D01*
X121499Y-4626D01*
X121481Y-4767D01*
Y-4784D01*
Y-4802D01*
Y-4820D01*
Y-4837D01*
Y-4890D01*
X121464Y-4960D01*
Y-5066D01*
Y-5206D01*
X121446Y-5382D01*
Y-5576D01*
Y-5787D01*
Y-5822D01*
Y-5910D01*
Y-5980D01*
Y-6068D01*
Y-6174D01*
Y-6297D01*
Y-6455D01*
Y-6631D01*
Y-6825D01*
Y-7036D01*
Y-7265D01*
Y-7528D01*
Y-7827D01*
Y-8144D01*
Y-9798D01*
Y-9815D01*
Y-9850D01*
Y-9903D01*
Y-9956D01*
Y-10132D01*
X121429Y-10325D01*
Y-10343D01*
Y-10360D01*
Y-10413D01*
Y-10484D01*
Y-10642D01*
Y-10835D01*
Y-10853D01*
Y-10888D01*
Y-10941D01*
X121411Y-11011D01*
Y-11099D01*
X121393Y-11205D01*
X121358Y-11468D01*
X121306Y-11767D01*
X121235Y-12119D01*
X121165Y-12471D01*
X121059Y-12841D01*
Y-12858D01*
X121042Y-12876D01*
X121024Y-12928D01*
X121007Y-12999D01*
X120919Y-13175D01*
X120813Y-13403D01*
X120672Y-13667D01*
X120496Y-13949D01*
X120285Y-14230D01*
X120021Y-14494D01*
X120004Y-14512D01*
X119933Y-14564D01*
X119845Y-14635D01*
X119740Y-14723D01*
X119722Y-14740D01*
X119670Y-14775D01*
X119582Y-14828D01*
X119476Y-14899D01*
X119441Y-14916D01*
X119353Y-14969D01*
X119212Y-15057D01*
X119036Y-15145D01*
X118825Y-15233D01*
X118579Y-15338D01*
X118333Y-15426D01*
X118069Y-15479D01*
X118034D01*
X117946Y-15497D01*
X117823Y-15514D01*
X117647Y-15549D01*
X117453Y-15567D01*
X117242Y-15602D01*
X116802Y-15620D01*
X116679D01*
X116591Y-15602D01*
X116468D01*
X116310Y-15585D01*
X116134Y-15567D01*
X115923Y-15549D01*
X115905D01*
X115817Y-15532D01*
X115712Y-15514D01*
X115554Y-15479D01*
X115378Y-15444D01*
X115167Y-15391D01*
X114709Y-15250D01*
X114692D01*
X114656Y-15233D01*
X114604Y-15198D01*
X114516Y-15162D01*
X114340Y-15074D01*
X114111Y-14969D01*
X114094D01*
X114058Y-14934D01*
X114006Y-14899D01*
X113935Y-14846D01*
X113777Y-14705D01*
X113584Y-14529D01*
X113566Y-14512D01*
X113496Y-14424D01*
X113372Y-14300D01*
X113249Y-14142D01*
X113091Y-13931D01*
X112933Y-13685D01*
X112774Y-13386D01*
X112616Y-13069D01*
Y-13052D01*
X112598Y-13034D01*
X112581Y-12964D01*
X112563Y-12893D01*
X112528Y-12805D01*
X112493Y-12682D01*
X112458Y-12541D01*
X112423Y-12383D01*
X112387Y-12207D01*
X112352Y-12014D01*
X112317Y-11803D01*
X112282Y-11556D01*
X112264Y-11310D01*
X112247Y-11029D01*
X112229Y-10747D01*
Y-10431D01*
Y-10413D01*
Y-8126D01*
Y-8109D01*
Y-8056D01*
Y-7968D01*
Y-7845D01*
Y-7704D01*
Y-7546D01*
Y-7176D01*
Y-6790D01*
Y-6403D01*
Y-6227D01*
Y-6051D01*
Y-5910D01*
Y-5787D01*
Y-5752D01*
Y-5681D01*
Y-5576D01*
Y-5435D01*
X112212Y-5119D01*
Y-4960D01*
X112194Y-4820D01*
Y-4802D01*
Y-4784D01*
Y-4767D01*
Y-4749D01*
Y-4696D01*
X112176Y-4626D01*
Y-4538D01*
X112124Y-4345D01*
X112088Y-4257D01*
X112036Y-4169D01*
Y-4151D01*
X112018Y-4134D01*
X111983Y-4098D01*
X111930Y-4045D01*
X111860Y-4010D01*
X111772Y-3958D01*
X111666Y-3922D01*
X111525Y-3887D01*
X111508D01*
X111490Y-3870D01*
X111367D01*
X111349Y-3852D01*
X111226D01*
X111209Y-3834D01*
X110963D01*
X110892Y-3817D01*
X110875Y-3799D01*
X110857Y-3746D01*
Y-3729D01*
Y-3694D01*
X110875Y-3658D01*
X110910Y-3641D01*
X110927D01*
X110963Y-3623D01*
X111033Y-3606D01*
X111737D01*
X111825Y-3623D01*
X112282D01*
X112387Y-3641D01*
X112528D01*
X112669Y-3658D01*
X113161D01*
X113249Y-3641D01*
X113390D01*
X113566Y-3623D01*
X114181D01*
X114252Y-3606D01*
X114516D01*
X114586Y-3623D01*
X114639Y-3641D01*
X114656D01*
X114674Y-3658D01*
X114692Y-3694D01*
X114709Y-3746D01*
Y-3764D01*
X114692Y-3782D01*
X114656Y-3817D01*
X114639D01*
X114568Y-3834D01*
X114481D01*
X114375Y-3852D01*
X114357D01*
X114322Y-3870D01*
X114269D01*
X114181Y-3887D01*
X114129D01*
X114023Y-3940D01*
X113883Y-4010D01*
X113812Y-4081D01*
X113759Y-4151D01*
Y-4169D01*
X113742Y-4186D01*
X113724Y-4239D01*
X113689Y-4309D01*
X113671Y-4397D01*
X113636Y-4503D01*
X113619Y-4626D01*
X113601Y-4767D01*
Y-4784D01*
Y-4802D01*
Y-4820D01*
Y-4837D01*
Y-4890D01*
Y-4960D01*
Y-5066D01*
X113584Y-5206D01*
Y-5382D01*
Y-5576D01*
Y-5787D01*
Y-5822D01*
Y-5910D01*
Y-5980D01*
Y-6068D01*
Y-6174D01*
Y-6297D01*
Y-6455D01*
Y-6631D01*
Y-6825D01*
Y-7036D01*
Y-7265D01*
Y-7528D01*
Y-7827D01*
Y-8144D01*
Y-10325D01*
Y-10343D01*
Y-10396D01*
Y-10484D01*
Y-10607D01*
X113601Y-10747D01*
Y-10906D01*
X113619Y-11275D01*
X113671Y-11680D01*
X113724Y-12102D01*
X113812Y-12506D01*
X113865Y-12682D01*
X113918Y-12858D01*
Y-12876D01*
X113935Y-12893D01*
X113970Y-12999D01*
X114058Y-13157D01*
X114146Y-13333D01*
X114269Y-13562D01*
X114410Y-13773D01*
X114568Y-14002D01*
X114744Y-14195D01*
X114762Y-14212D01*
X114832Y-14283D01*
X114920Y-14353D01*
X115026Y-14441D01*
X115043Y-14459D01*
X115114Y-14512D01*
X115202Y-14564D01*
X115307Y-14635D01*
X115325Y-14652D01*
X115378Y-14670D01*
X115466Y-14723D01*
X115571Y-14775D01*
X115712Y-14828D01*
X115853Y-14881D01*
X116169Y-14969D01*
X116187D01*
X116240Y-14987D01*
X116328Y-15004D01*
X116451D01*
X116591Y-15022D01*
X116750Y-15039D01*
X117102Y-15057D01*
X117225D01*
X117365Y-15039D01*
X117541Y-15022D01*
X117752Y-14987D01*
X117981Y-14916D01*
X118227Y-14846D01*
X118473Y-14740D01*
X118509Y-14723D01*
X118579Y-14687D01*
X118702Y-14617D01*
X118860Y-14512D01*
X119036Y-14406D01*
X119212Y-14265D01*
X119388Y-14107D01*
X119564Y-13931D01*
X119582Y-13896D01*
X119652Y-13808D01*
X119740Y-13667D01*
X119863Y-13474D01*
X119986Y-13228D01*
X120092Y-12946D01*
X120197Y-12629D01*
X120285Y-12278D01*
Y-12260D01*
X120303Y-12225D01*
Y-12172D01*
X120320Y-12102D01*
X120338Y-12014D01*
X120356Y-11908D01*
X120391Y-11627D01*
X120426Y-11310D01*
X120444Y-10941D01*
X120479Y-10536D01*
Y-10097D01*
Y-8126D01*
Y-8109D01*
Y-8056D01*
Y-7968D01*
Y-7845D01*
Y-7704D01*
Y-7546D01*
Y-7176D01*
Y-6790D01*
Y-6403D01*
Y-6227D01*
Y-6051D01*
Y-5910D01*
Y-5787D01*
Y-5752D01*
Y-5681D01*
Y-5576D01*
Y-5435D01*
X120461Y-5119D01*
Y-4960D01*
X120444Y-4820D01*
Y-4802D01*
Y-4784D01*
Y-4767D01*
Y-4749D01*
Y-4696D01*
X120426Y-4626D01*
Y-4538D01*
X120373Y-4345D01*
X120338Y-4257D01*
X120285Y-4169D01*
Y-4151D01*
X120268Y-4134D01*
X120232Y-4098D01*
X120180Y-4045D01*
X120109Y-4010D01*
X120021Y-3958D01*
X119916Y-3922D01*
X119775Y-3887D01*
X119758D01*
X119740Y-3870D01*
X119617D01*
X119599Y-3852D01*
X119476D01*
X119458Y-3834D01*
X119212D01*
X119142Y-3817D01*
X119124Y-3799D01*
X119107Y-3746D01*
Y-3729D01*
Y-3694D01*
X119124Y-3658D01*
X119159Y-3641D01*
X119177D01*
X119212Y-3623D01*
X119283Y-3606D01*
X119969D01*
X120092Y-3623D01*
X120461D01*
X120567Y-3641D01*
X120690D01*
X120813Y-3658D01*
X121218D01*
X121288Y-3641D01*
X121393D01*
X121534Y-3623D01*
X121868D01*
X121939Y-3606D01*
X122396D01*
X122449Y-3623D01*
D02*
G37*
G36*
X106248D02*
X106477Y-3641D01*
X106723Y-3676D01*
X106952Y-3711D01*
X107181Y-3764D01*
X107198D01*
X107269Y-3782D01*
X107374Y-3817D01*
X107515Y-3852D01*
X107796Y-3958D01*
X107955Y-4028D01*
X108078Y-4098D01*
X108095D01*
X108113Y-4116D01*
X108201Y-4169D01*
X108307Y-4257D01*
X108412Y-4345D01*
X108430Y-4362D01*
X108500Y-4397D01*
X108553Y-4450D01*
X108623Y-4503D01*
X108641D01*
X108658Y-4538D01*
X108711Y-4608D01*
X108729D01*
X108746Y-4626D01*
X108817Y-4714D01*
X108834Y-4732D01*
X108852Y-4767D01*
X108887Y-4820D01*
X108940Y-4907D01*
X109010Y-5013D01*
X109080Y-5136D01*
X109151Y-5277D01*
X109221Y-5435D01*
X109239Y-5453D01*
X109256Y-5505D01*
X109292Y-5593D01*
X109327Y-5717D01*
X109362Y-5840D01*
X109379Y-5998D01*
X109415Y-6174D01*
Y-6367D01*
Y-6385D01*
Y-6438D01*
Y-6526D01*
X109397Y-6649D01*
X109379Y-6790D01*
X109362Y-6948D01*
X109327Y-7124D01*
X109274Y-7317D01*
X109151Y-7757D01*
X109063Y-7968D01*
X108957Y-8197D01*
X108834Y-8425D01*
X108676Y-8636D01*
X108518Y-8865D01*
X108324Y-9059D01*
X108307Y-9076D01*
X108271Y-9094D01*
X108219Y-9147D01*
X108131Y-9217D01*
X108025Y-9287D01*
X107884Y-9375D01*
X107744Y-9481D01*
X107568Y-9569D01*
X107374Y-9657D01*
X107163Y-9762D01*
X106952Y-9850D01*
X106706Y-9921D01*
X106442Y-9991D01*
X106160Y-10026D01*
X105861Y-10061D01*
X105562Y-10079D01*
X105211D01*
X105175Y-10061D01*
X105105Y-10044D01*
X105087Y-10026D01*
X105070Y-9956D01*
Y-9938D01*
X105087Y-9903D01*
X105105Y-9868D01*
X105158Y-9850D01*
X105175D01*
X105228Y-9833D01*
X105334Y-9815D01*
X105598D01*
X105686Y-9798D01*
X105773D01*
X105897Y-9780D01*
X106160Y-9727D01*
X106459Y-9639D01*
X106776Y-9516D01*
X107110Y-9340D01*
X107409Y-9094D01*
X107427Y-9076D01*
X107445Y-9059D01*
X107533Y-8953D01*
X107656Y-8795D01*
X107814Y-8584D01*
X107955Y-8320D01*
X108078Y-8003D01*
X108166Y-7651D01*
X108201Y-7458D01*
Y-7265D01*
Y-7247D01*
Y-7212D01*
Y-7159D01*
Y-7071D01*
X108183Y-6966D01*
X108166Y-6842D01*
X108148Y-6702D01*
X108131Y-6543D01*
Y-6526D01*
X108113Y-6455D01*
X108095Y-6367D01*
X108078Y-6244D01*
X108043Y-6103D01*
X107990Y-5945D01*
X107920Y-5769D01*
X107832Y-5593D01*
X107814Y-5558D01*
X107779Y-5488D01*
X107708Y-5365D01*
X107621Y-5224D01*
Y-5206D01*
X107603Y-5189D01*
X107533Y-5101D01*
X107445Y-4995D01*
X107321Y-4872D01*
X107304Y-4855D01*
X107251Y-4802D01*
X107181Y-4732D01*
X107093Y-4661D01*
X107075Y-4644D01*
X107022Y-4608D01*
X106952Y-4556D01*
X106882Y-4503D01*
X106864Y-4485D01*
X106794Y-4450D01*
X106706Y-4397D01*
X106583Y-4327D01*
X106442Y-4257D01*
X106284Y-4204D01*
X106125Y-4151D01*
X105949Y-4134D01*
X105932D01*
X105879Y-4116D01*
X105791D01*
X105703Y-4098D01*
X105474Y-4081D01*
X105052D01*
X104947Y-4098D01*
X104806Y-4116D01*
X104771D01*
X104701Y-4134D01*
X104613Y-4151D01*
X104507Y-4169D01*
X104472Y-4186D01*
X104454Y-4221D01*
X104419Y-4274D01*
Y-4292D01*
X104402Y-4327D01*
X104384Y-4380D01*
Y-4468D01*
Y-10888D01*
Y-10906D01*
Y-10941D01*
Y-10994D01*
Y-11082D01*
Y-11169D01*
Y-11293D01*
Y-11556D01*
Y-11873D01*
Y-12207D01*
Y-12559D01*
Y-12911D01*
Y-12928D01*
Y-12946D01*
Y-13052D01*
X104402Y-13210D01*
Y-13403D01*
X104419Y-13632D01*
X104437Y-13861D01*
X104454Y-14089D01*
X104472Y-14283D01*
Y-14300D01*
Y-14336D01*
X104490Y-14406D01*
Y-14494D01*
X104542Y-14670D01*
X104613Y-14863D01*
Y-14881D01*
X104630Y-14899D01*
X104718Y-14987D01*
X104771Y-15039D01*
X104859Y-15074D01*
X104947Y-15110D01*
X105070Y-15145D01*
X105087D01*
X105123Y-15162D01*
X105211Y-15180D01*
X105369D01*
X105422Y-15198D01*
X105510D01*
X105598Y-15215D01*
X105826D01*
X105861Y-15233D01*
X105879Y-15250D01*
X105897Y-15268D01*
Y-15303D01*
Y-15338D01*
X105861Y-15356D01*
X105826Y-15373D01*
X105791D01*
X105738Y-15391D01*
X105017D01*
X104841Y-15373D01*
X104349D01*
X104243Y-15356D01*
X103311D01*
X103135Y-15373D01*
X102748D01*
X102643Y-15391D01*
X102097D01*
X102044Y-15373D01*
X102027Y-15356D01*
X102009Y-15338D01*
X101992Y-15303D01*
Y-15285D01*
X102009Y-15250D01*
X102044Y-15233D01*
X102115Y-15215D01*
X102220D01*
X102255Y-15198D01*
X102361D01*
X102379Y-15180D01*
X102484D01*
X102502Y-15162D01*
X102572Y-15145D01*
X102590D01*
X102607Y-15127D01*
X102713Y-15092D01*
X102818Y-15004D01*
X102889Y-14863D01*
Y-14846D01*
X102906Y-14828D01*
X102924Y-14775D01*
X102942Y-14705D01*
X102994Y-14529D01*
X103030Y-14283D01*
Y-14265D01*
X103047Y-14195D01*
Y-14072D01*
X103065Y-13931D01*
X103082Y-13738D01*
Y-13491D01*
X103100Y-13228D01*
Y-12911D01*
Y-12893D01*
Y-12876D01*
Y-12823D01*
Y-12753D01*
Y-12559D01*
X103117Y-12313D01*
Y-12014D01*
Y-11680D01*
Y-11293D01*
Y-10888D01*
Y-8126D01*
Y-8109D01*
Y-8056D01*
Y-7968D01*
Y-7845D01*
Y-7704D01*
Y-7546D01*
Y-7176D01*
Y-6790D01*
Y-6403D01*
Y-6227D01*
Y-6051D01*
Y-5910D01*
Y-5787D01*
Y-5752D01*
Y-5681D01*
Y-5576D01*
Y-5435D01*
X103100Y-5119D01*
Y-4960D01*
X103082Y-4820D01*
Y-4802D01*
Y-4784D01*
Y-4767D01*
Y-4749D01*
Y-4696D01*
X103065Y-4626D01*
Y-4538D01*
X103012Y-4345D01*
X102977Y-4257D01*
X102924Y-4169D01*
Y-4151D01*
X102906Y-4134D01*
X102871Y-4098D01*
X102818Y-4045D01*
X102748Y-4010D01*
X102660Y-3958D01*
X102555Y-3922D01*
X102414Y-3887D01*
X102396D01*
X102379Y-3870D01*
X102255D01*
X102238Y-3852D01*
X102115D01*
X102097Y-3834D01*
X101851D01*
X101781Y-3817D01*
X101763Y-3799D01*
X101745Y-3746D01*
Y-3729D01*
Y-3694D01*
X101763Y-3658D01*
X101798Y-3641D01*
X101816D01*
X101851Y-3623D01*
X101921Y-3606D01*
X102607D01*
X102695Y-3623D01*
X103153D01*
X103258Y-3641D01*
X103399D01*
X103540Y-3658D01*
X104155D01*
X104261Y-3641D01*
X104419D01*
X104613Y-3623D01*
X105070D01*
X105175Y-3606D01*
X106037D01*
X106248Y-3623D01*
D02*
G37*
G36*
X136521Y-3430D02*
X136556Y-3447D01*
X136591Y-3518D01*
X136609Y-3535D01*
X136626Y-3588D01*
X136644Y-3694D01*
X136662Y-3834D01*
Y-3817D01*
X137717Y-13403D01*
Y-13439D01*
X137734Y-13509D01*
Y-13597D01*
X137752Y-13720D01*
Y-13738D01*
X137770Y-13808D01*
X137787Y-13914D01*
X137805Y-14019D01*
Y-14037D01*
X137822Y-14072D01*
X137840Y-14142D01*
X137858Y-14230D01*
X137928Y-14441D01*
X138034Y-14670D01*
X138051Y-14687D01*
X138069Y-14723D01*
X138174Y-14828D01*
X138333Y-14951D01*
X138561Y-15074D01*
X138579D01*
X138614Y-15092D01*
X138684Y-15110D01*
X138772Y-15127D01*
X138966Y-15162D01*
X139177Y-15198D01*
X139335D01*
X139458Y-15215D01*
X139634D01*
X139652Y-15233D01*
X139670D01*
X139687Y-15250D01*
Y-15285D01*
Y-15303D01*
X139670Y-15321D01*
X139652Y-15356D01*
X139599Y-15373D01*
X139546D01*
X139458Y-15391D01*
X139089D01*
X138966Y-15373D01*
X138315D01*
X137998Y-15356D01*
X136925D01*
X136767Y-15338D01*
X136732D01*
X136626Y-15321D01*
X136503Y-15285D01*
X136415Y-15268D01*
X136398D01*
X136380Y-15250D01*
X136345Y-15215D01*
X136327Y-15180D01*
Y-15162D01*
Y-15145D01*
X136345Y-15110D01*
X136363Y-15092D01*
X136398D01*
X136433Y-15074D01*
X136451Y-15057D01*
X136468Y-15022D01*
X136486Y-14969D01*
Y-14951D01*
X136503Y-14916D01*
Y-14846D01*
Y-14758D01*
Y-14740D01*
Y-14723D01*
Y-14635D01*
Y-14617D01*
Y-14600D01*
Y-14512D01*
X135747Y-6438D01*
X135694D01*
X131877Y-14547D01*
Y-14564D01*
X131842Y-14617D01*
X131807Y-14687D01*
X131772Y-14775D01*
X131684Y-14969D01*
X131631Y-15057D01*
X131596Y-15127D01*
X131578Y-15162D01*
X131543Y-15215D01*
X131508Y-15303D01*
X131455Y-15356D01*
X131297D01*
X131261Y-15338D01*
X131209Y-15303D01*
X131138Y-15215D01*
X131121Y-15180D01*
X131103Y-15145D01*
X131068Y-15092D01*
X131033Y-15004D01*
X130998Y-14916D01*
X130945Y-14811D01*
X130875Y-14670D01*
Y-14652D01*
X130857Y-14617D01*
X130822Y-14564D01*
X130787Y-14494D01*
X130734Y-14388D01*
X130663Y-14265D01*
X130593Y-14125D01*
X130505Y-13966D01*
X130488Y-13949D01*
X130470Y-13878D01*
X130417Y-13790D01*
X130364Y-13667D01*
X130276Y-13526D01*
X130206Y-13368D01*
X130013Y-12999D01*
X129995Y-12964D01*
X129960Y-12876D01*
X129889Y-12753D01*
X129801Y-12577D01*
X129696Y-12383D01*
X129590Y-12172D01*
X129362Y-11715D01*
X129344Y-11697D01*
X129326Y-11627D01*
X129274Y-11521D01*
X129221Y-11416D01*
X129168Y-11293D01*
X129115Y-11187D01*
X129063Y-11099D01*
X129045Y-11064D01*
X129027Y-11029D01*
X129010Y-10994D01*
X128975Y-10923D01*
X128940Y-10818D01*
X128869Y-10677D01*
X128781Y-10501D01*
X128676Y-10290D01*
X128658Y-10255D01*
X128623Y-10167D01*
X128570Y-10044D01*
X128482Y-9868D01*
X128377Y-9657D01*
X128271Y-9410D01*
X128148Y-9147D01*
X128007Y-8865D01*
Y-8848D01*
X127990Y-8830D01*
X127954Y-8742D01*
X127884Y-8584D01*
X127796Y-8390D01*
X127691Y-8179D01*
X127585Y-7933D01*
X127339Y-7440D01*
X127321Y-7405D01*
X127286Y-7335D01*
X127233Y-7212D01*
X127181Y-7089D01*
X127128Y-6948D01*
X127057Y-6807D01*
X127022Y-6702D01*
X126987Y-6614D01*
X126917Y-6596D01*
X126301Y-13843D01*
Y-13861D01*
Y-13931D01*
Y-14019D01*
X126284Y-14125D01*
Y-14142D01*
Y-14195D01*
Y-14283D01*
Y-14388D01*
Y-14424D01*
Y-14512D01*
Y-14529D01*
Y-14547D01*
Y-14652D01*
Y-14670D01*
X126301Y-14740D01*
X126336Y-14846D01*
X126389Y-14951D01*
X126407Y-14969D01*
X126477Y-15022D01*
X126565Y-15092D01*
X126688Y-15127D01*
X126723D01*
X126811Y-15162D01*
X126917Y-15180D01*
X127040Y-15198D01*
X127128D01*
X127216Y-15215D01*
X127304D01*
X127356Y-15233D01*
X127374D01*
X127392Y-15250D01*
X127409Y-15268D01*
Y-15285D01*
Y-15303D01*
Y-15321D01*
X127374Y-15356D01*
X127339Y-15373D01*
X127286D01*
X127216Y-15391D01*
X126706D01*
X126653Y-15373D01*
X126196D01*
X126108Y-15356D01*
X125263D01*
X125122Y-15373D01*
X124788D01*
X124700Y-15391D01*
X124225D01*
X124173Y-15373D01*
X124155D01*
X124137Y-15356D01*
X124120Y-15321D01*
X124102Y-15285D01*
Y-15268D01*
X124137Y-15233D01*
X124155D01*
X124173Y-15215D01*
X124489D01*
X124542Y-15198D01*
X124612Y-15180D01*
X124718Y-15162D01*
X124735D01*
X124771Y-15145D01*
X124841Y-15127D01*
X124911Y-15074D01*
X124999Y-15022D01*
X125070Y-14951D01*
X125140Y-14846D01*
X125193Y-14723D01*
Y-14705D01*
X125210Y-14652D01*
X125228Y-14582D01*
X125246Y-14476D01*
X125281Y-14371D01*
X125298Y-14230D01*
X125351Y-13931D01*
Y-13914D01*
Y-13896D01*
Y-13878D01*
Y-13861D01*
X126459Y-3676D01*
Y-3658D01*
X126477Y-3606D01*
X126530Y-3500D01*
X126547Y-3483D01*
X126565Y-3447D01*
X126600Y-3430D01*
X126635Y-3412D01*
X126670D01*
X126723Y-3447D01*
X126741Y-3465D01*
X126794Y-3518D01*
X126811Y-3535D01*
X126829Y-3571D01*
X126846Y-3588D01*
X126882Y-3641D01*
X131648Y-13456D01*
X136239Y-3641D01*
X136257Y-3623D01*
X136275Y-3588D01*
X136345Y-3483D01*
X136363Y-3465D01*
X136380Y-3447D01*
X136433Y-3430D01*
X136486Y-3412D01*
X136503D01*
X136521Y-3430D01*
D02*
G37*
G36*
X170856D02*
X170909Y-3465D01*
X170927Y-3483D01*
X170962Y-3518D01*
X171085Y-3623D01*
X171103Y-3641D01*
Y-3658D01*
X171120D01*
Y-3676D01*
X171138Y-3694D01*
X171156Y-3711D01*
X171226Y-3799D01*
X171244D01*
X171261Y-3834D01*
X171331Y-3887D01*
X171349Y-3905D01*
X171384Y-3940D01*
X171472Y-4045D01*
X171525Y-4116D01*
X171613Y-4186D01*
X171701Y-4292D01*
X171824Y-4433D01*
X171947Y-4573D01*
X172105Y-4749D01*
X172299Y-4943D01*
X172510Y-5171D01*
X172739Y-5435D01*
X173003Y-5717D01*
X173020Y-5734D01*
X173073Y-5787D01*
X173161Y-5875D01*
X173266Y-5998D01*
X173407Y-6139D01*
X173565Y-6332D01*
X173759Y-6526D01*
X173970Y-6754D01*
X174216Y-7018D01*
X174462Y-7282D01*
X174726Y-7581D01*
X175025Y-7880D01*
X175641Y-8549D01*
X176292Y-9252D01*
X176309Y-9270D01*
X176380Y-9340D01*
X176468Y-9446D01*
X176556Y-9551D01*
X176573Y-9569D01*
X176644Y-9639D01*
X176732Y-9727D01*
X176820Y-9833D01*
X176837D01*
X176855Y-9850D01*
X176908Y-9921D01*
X176925D01*
X176943Y-9956D01*
X177013Y-10008D01*
X177031Y-10026D01*
X177066Y-10061D01*
X177119Y-10114D01*
X177189Y-10184D01*
X177277Y-10290D01*
X177365Y-10396D01*
X177611Y-10659D01*
X177892Y-10976D01*
X178209Y-11328D01*
X178526Y-11680D01*
X178860Y-12049D01*
X178878Y-12066D01*
X178895Y-12084D01*
X178948Y-12137D01*
X179001Y-12207D01*
X179141Y-12366D01*
X179335Y-12559D01*
X179528Y-12770D01*
X179722Y-12981D01*
X179898Y-13175D01*
X180038Y-13315D01*
X179863Y-5382D01*
Y-5365D01*
Y-5347D01*
Y-5259D01*
X179845Y-5119D01*
Y-4960D01*
X179792Y-4626D01*
X179757Y-4450D01*
X179722Y-4327D01*
Y-4309D01*
X179704Y-4274D01*
X179616Y-4151D01*
X179564Y-4081D01*
X179476Y-4010D01*
X179370Y-3958D01*
X179247Y-3905D01*
X179229Y-3887D01*
X179001D01*
X178930Y-3870D01*
X178825Y-3852D01*
X178684D01*
X178631Y-3834D01*
X178455D01*
X178385Y-3799D01*
Y-3782D01*
X178367Y-3729D01*
Y-3711D01*
X178385Y-3676D01*
X178403Y-3641D01*
X178455Y-3623D01*
X178473D01*
X178526Y-3606D01*
X179124D01*
X179282Y-3623D01*
X179722D01*
X179827Y-3641D01*
X179950D01*
X180074Y-3658D01*
X180496D01*
X180566Y-3641D01*
X180672D01*
X180777Y-3623D01*
X181199D01*
X181305Y-3606D01*
X181762D01*
X181815Y-3623D01*
X181833D01*
X181868Y-3641D01*
X181885Y-3676D01*
X181903Y-3729D01*
Y-3746D01*
X181885Y-3764D01*
X181850Y-3799D01*
X181815Y-3817D01*
X181780Y-3834D01*
X181692D01*
X181586Y-3852D01*
X181534D01*
X181446Y-3870D01*
X181358Y-3887D01*
X181340D01*
X181305Y-3905D01*
X181235Y-3922D01*
X181147Y-3958D01*
X181076Y-4010D01*
X180988Y-4081D01*
X180918Y-4169D01*
X180865Y-4274D01*
Y-4292D01*
X180848Y-4327D01*
X180830Y-4397D01*
Y-4503D01*
X180813Y-4644D01*
X180795Y-4820D01*
X180777Y-5031D01*
Y-5277D01*
X180760Y-14406D01*
Y-14441D01*
Y-14529D01*
Y-14670D01*
Y-14828D01*
Y-14987D01*
X180742Y-15145D01*
Y-15268D01*
X180725Y-15356D01*
Y-15373D01*
X180707Y-15426D01*
X180672Y-15479D01*
X180619Y-15497D01*
X180601D01*
X180549Y-15479D01*
X180443Y-15426D01*
X180302Y-15338D01*
X180285Y-15321D01*
X180267Y-15303D01*
X180197Y-15250D01*
X180126Y-15162D01*
X180003Y-15057D01*
X179863Y-14916D01*
X179687Y-14740D01*
X179476Y-14529D01*
X179440Y-14494D01*
X179405Y-14459D01*
X179317Y-14371D01*
X179194Y-14248D01*
X179018Y-14072D01*
X178790Y-13843D01*
X178649Y-13702D01*
X178491Y-13544D01*
X178473Y-13526D01*
X178455Y-13509D01*
X178403Y-13456D01*
X178332Y-13386D01*
X178156Y-13192D01*
X177910Y-12946D01*
X177629Y-12647D01*
X177295Y-12313D01*
X176943Y-11943D01*
X176556Y-11539D01*
X176538Y-11521D01*
X176485Y-11468D01*
Y-11451D01*
X176468Y-11433D01*
X176415Y-11381D01*
X176397Y-11363D01*
X176362Y-11328D01*
X176309Y-11275D01*
X176257Y-11205D01*
X176081Y-11029D01*
X175887Y-10835D01*
X175870Y-10818D01*
X175852Y-10783D01*
X175799Y-10730D01*
X175729Y-10677D01*
X175571Y-10501D01*
X175395Y-10308D01*
X175377Y-10290D01*
X175360Y-10272D01*
Y-10255D01*
X175342D01*
X175324Y-10237D01*
X175289Y-10184D01*
X175201Y-10114D01*
X175113Y-10008D01*
X174990Y-9885D01*
X174849Y-9727D01*
X174691Y-9551D01*
X174515Y-9358D01*
X174146Y-8953D01*
X173724Y-8496D01*
X173284Y-8003D01*
X172844Y-7528D01*
X172827Y-7511D01*
X172791Y-7476D01*
X172739Y-7405D01*
X172668Y-7317D01*
X172457Y-7106D01*
X172229Y-6842D01*
X171965Y-6543D01*
X171718Y-6279D01*
X171507Y-6033D01*
X171402Y-5928D01*
X171332Y-5840D01*
X171331Y-5822D01*
Y-5840D01*
X171332Y-5840D01*
X171525Y-13298D01*
Y-13315D01*
Y-13333D01*
Y-13386D01*
Y-13456D01*
X171543Y-13632D01*
X171560Y-13826D01*
X171578Y-14054D01*
X171613Y-14283D01*
X171648Y-14476D01*
X171683Y-14652D01*
Y-14670D01*
X171718Y-14705D01*
X171754Y-14775D01*
X171789Y-14846D01*
X171930Y-15004D01*
X172035Y-15057D01*
X172141Y-15110D01*
X172158D01*
X172176Y-15127D01*
X172229Y-15145D01*
X172352D01*
X172422Y-15180D01*
X172545Y-15198D01*
X172668Y-15215D01*
X172985D01*
X173003Y-15233D01*
X173020Y-15250D01*
X173038Y-15303D01*
Y-15338D01*
X173003Y-15356D01*
X172967Y-15373D01*
X172915D01*
X172844Y-15391D01*
X172369D01*
X172158Y-15373D01*
X171613D01*
X171525Y-15356D01*
X170716D01*
X170575Y-15373D01*
X169959D01*
X169801Y-15391D01*
X169555D01*
X169432Y-15373D01*
X169414D01*
X169397Y-15356D01*
X169379Y-15338D01*
X169361Y-15303D01*
Y-15285D01*
Y-15268D01*
X169397Y-15233D01*
X169414Y-15215D01*
X169713D01*
X169783Y-15198D01*
X169854Y-15180D01*
X169959Y-15162D01*
X169977Y-15145D01*
X170047D01*
X170065Y-15127D01*
X170135Y-15110D01*
X170153D01*
X170188Y-15092D01*
X170223Y-15057D01*
X170294Y-15022D01*
X170346Y-14951D01*
X170417Y-14863D01*
X170469Y-14758D01*
X170505Y-14617D01*
Y-14600D01*
X170522Y-14529D01*
X170540Y-14424D01*
X170557Y-14265D01*
Y-14072D01*
X170575Y-13808D01*
X170593Y-13491D01*
Y-13122D01*
X170610Y-4169D01*
Y-4151D01*
Y-4098D01*
Y-4028D01*
Y-3922D01*
X170628Y-3729D01*
Y-3641D01*
X170645Y-3571D01*
Y-3535D01*
X170681Y-3483D01*
X170716Y-3430D01*
X170786Y-3395D01*
X170821D01*
X170856Y-3430D01*
D02*
G37*
G36*
X159929Y-22085D02*
X159999Y-22090D01*
X160073Y-22099D01*
X160146Y-22108D01*
X160220Y-22122D01*
X160230D01*
X160253Y-22131D01*
X160285Y-22136D01*
X160327Y-22150D01*
X160419Y-22173D01*
X160461Y-22192D01*
X160498Y-22205D01*
X160359Y-22737D01*
X160354D01*
X160341Y-22727D01*
X160318Y-22723D01*
X160290Y-22714D01*
X160257Y-22700D01*
X160216Y-22686D01*
X160170Y-22677D01*
X160119Y-22663D01*
X160114D01*
X160096Y-22658D01*
X160068Y-22649D01*
X160031Y-22644D01*
X159980Y-22635D01*
X159929Y-22630D01*
X159865Y-22626D01*
X159768D01*
X159731Y-22630D01*
X159680Y-22635D01*
X159625Y-22640D01*
X159564Y-22654D01*
X159500Y-22667D01*
X159435Y-22691D01*
X159426Y-22695D01*
X159407Y-22700D01*
X159375Y-22714D01*
X159333Y-22737D01*
X159287Y-22760D01*
X159236Y-22792D01*
X159190Y-22829D01*
X159139Y-22871D01*
X159135Y-22875D01*
X159121Y-22889D01*
X159098Y-22917D01*
X159070Y-22949D01*
X159038Y-22995D01*
X159005Y-23046D01*
X158968Y-23106D01*
X158941Y-23171D01*
X158936Y-23180D01*
X158932Y-23203D01*
X158918Y-23240D01*
X158908Y-23291D01*
X158895Y-23356D01*
X158881Y-23425D01*
X158876Y-23508D01*
X158871Y-23596D01*
Y-23601D01*
Y-23614D01*
Y-23638D01*
X158876Y-23670D01*
X158881Y-23707D01*
X158885Y-23748D01*
X158890Y-23795D01*
X158904Y-23845D01*
X158932Y-23956D01*
X158973Y-24072D01*
X159001Y-24132D01*
X159038Y-24187D01*
X159075Y-24238D01*
X159116Y-24289D01*
X159121Y-24294D01*
X159125Y-24298D01*
X159144Y-24312D01*
X159162Y-24330D01*
X159186Y-24349D01*
X159218Y-24367D01*
X159255Y-24391D01*
X159296Y-24414D01*
X159343Y-24441D01*
X159394Y-24464D01*
X159449Y-24483D01*
X159509Y-24501D01*
X159578Y-24520D01*
X159648Y-24534D01*
X159726Y-24539D01*
X159805Y-24543D01*
X159860D01*
X159902Y-24539D01*
X159948D01*
X159999Y-24534D01*
X160110Y-24520D01*
X160114D01*
X160137Y-24515D01*
X160165Y-24511D01*
X160197Y-24501D01*
X160239Y-24492D01*
X160281Y-24478D01*
X160322Y-24464D01*
X160364Y-24451D01*
X160456Y-24973D01*
X160451D01*
X160442Y-24982D01*
X160419Y-24991D01*
X160391Y-25001D01*
X160350Y-25014D01*
X160304Y-25028D01*
X160243Y-25042D01*
X160174Y-25056D01*
X160165D01*
X160137Y-25060D01*
X160096Y-25070D01*
X160040Y-25074D01*
X159971Y-25084D01*
X159892Y-25093D01*
X159805Y-25098D01*
X159643D01*
X159611Y-25093D01*
X159574D01*
X159527Y-25088D01*
X159481Y-25084D01*
X159380Y-25070D01*
X159264Y-25051D01*
X159149Y-25024D01*
X159038Y-24987D01*
X159033D01*
X159024Y-24982D01*
X159010Y-24973D01*
X158992Y-24968D01*
X158936Y-24940D01*
X158871Y-24908D01*
X158793Y-24862D01*
X158714Y-24811D01*
X158636Y-24751D01*
X158557Y-24682D01*
Y-24677D01*
X158548Y-24672D01*
X158525Y-24645D01*
X158493Y-24603D01*
X158451Y-24548D01*
X158405Y-24478D01*
X158359Y-24400D01*
X158312Y-24312D01*
X158271Y-24215D01*
Y-24210D01*
X158266Y-24201D01*
X158262Y-24187D01*
X158257Y-24169D01*
X158248Y-24141D01*
X158238Y-24113D01*
X158225Y-24039D01*
X158206Y-23952D01*
X158188Y-23850D01*
X158178Y-23744D01*
X158174Y-23628D01*
Y-23624D01*
Y-23610D01*
Y-23591D01*
Y-23564D01*
X158178Y-23531D01*
Y-23494D01*
X158183Y-23453D01*
X158188Y-23406D01*
X158206Y-23305D01*
X158225Y-23194D01*
X158257Y-23078D01*
X158299Y-22968D01*
Y-22963D01*
X158303Y-22954D01*
X158312Y-22940D01*
X158322Y-22917D01*
X158349Y-22866D01*
X158386Y-22797D01*
X158437Y-22723D01*
X158497Y-22640D01*
X158562Y-22561D01*
X158640Y-22483D01*
X158645Y-22478D01*
X158650Y-22473D01*
X158663Y-22464D01*
X158677Y-22450D01*
X158724Y-22418D01*
X158784Y-22372D01*
X158862Y-22325D01*
X158945Y-22275D01*
X159042Y-22229D01*
X159149Y-22187D01*
X159153D01*
X159162Y-22182D01*
X159176Y-22178D01*
X159199Y-22168D01*
X159227Y-22164D01*
X159259Y-22154D01*
X159296Y-22145D01*
X159338Y-22131D01*
X159430Y-22113D01*
X159537Y-22099D01*
X159652Y-22085D01*
X159772Y-22081D01*
X159865D01*
X159929Y-22085D01*
D02*
G37*
G36*
X180992Y-22085D02*
X181057Y-22090D01*
X181131Y-22099D01*
X181204Y-22113D01*
X181274Y-22127D01*
X181283D01*
X181306Y-22136D01*
X181339Y-22145D01*
X181385Y-22154D01*
X181431Y-22168D01*
X181486Y-22187D01*
X181542Y-22205D01*
X181593Y-22228D01*
X181445Y-22764D01*
X181440D01*
X181431Y-22755D01*
X181408Y-22746D01*
X181380Y-22737D01*
X181348Y-22723D01*
X181306Y-22704D01*
X181255Y-22690D01*
X181200Y-22672D01*
X181195Y-22667D01*
X181172Y-22663D01*
X181140Y-22654D01*
X181098Y-22644D01*
X181043Y-22635D01*
X180983Y-22630D01*
X180913Y-22621D01*
X180798D01*
X180761Y-22626D01*
X180715Y-22630D01*
X180659Y-22644D01*
X180608Y-22658D01*
X180558Y-22681D01*
X180511Y-22709D01*
X180507Y-22714D01*
X180498Y-22723D01*
X180479Y-22741D01*
X180461Y-22764D01*
X180442Y-22792D01*
X180424Y-22829D01*
X180414Y-22866D01*
X180410Y-22908D01*
Y-22912D01*
Y-22917D01*
X180414Y-22949D01*
X180424Y-22991D01*
X180438Y-23032D01*
X180442Y-23042D01*
X180461Y-23065D01*
X180493Y-23092D01*
X180535Y-23129D01*
X180539D01*
X180548Y-23139D01*
X180562Y-23148D01*
X180581Y-23157D01*
X180608Y-23171D01*
X180636Y-23189D01*
X180705Y-23222D01*
X180710D01*
X180724Y-23231D01*
X180747Y-23240D01*
X180775Y-23249D01*
X180812Y-23263D01*
X180853Y-23282D01*
X180900Y-23300D01*
X180950Y-23319D01*
X180955D01*
X180969Y-23323D01*
X180987Y-23333D01*
X181015Y-23347D01*
X181047Y-23360D01*
X181084Y-23374D01*
X181172Y-23416D01*
X181264Y-23467D01*
X181362Y-23527D01*
X181449Y-23596D01*
X181491Y-23633D01*
X181528Y-23670D01*
X181537Y-23679D01*
X181556Y-23707D01*
X181588Y-23753D01*
X181620Y-23813D01*
X181653Y-23887D01*
X181685Y-23979D01*
X181703Y-24081D01*
X181713Y-24192D01*
Y-24201D01*
Y-24224D01*
X181708Y-24257D01*
X181703Y-24303D01*
X181694Y-24354D01*
X181680Y-24414D01*
X181662Y-24474D01*
X181639Y-24538D01*
X181634Y-24548D01*
X181625Y-24566D01*
X181606Y-24599D01*
X181583Y-24635D01*
X181551Y-24682D01*
X181514Y-24733D01*
X181468Y-24783D01*
X181417Y-24829D01*
X181412Y-24834D01*
X181389Y-24848D01*
X181362Y-24871D01*
X181320Y-24899D01*
X181264Y-24931D01*
X181204Y-24963D01*
X181131Y-25000D01*
X181052Y-25028D01*
X181047D01*
X181043Y-25033D01*
X181029D01*
X181015Y-25037D01*
X180964Y-25051D01*
X180904Y-25060D01*
X180826Y-25074D01*
X180738Y-25088D01*
X180641Y-25093D01*
X180530Y-25098D01*
X180488D01*
X180438Y-25093D01*
X180377Y-25088D01*
X180304Y-25084D01*
X180225Y-25074D01*
X180142Y-25060D01*
X180054Y-25042D01*
X180050D01*
X180045Y-25037D01*
X180017Y-25033D01*
X179976Y-25019D01*
X179925Y-25005D01*
X179869Y-24987D01*
X179809Y-24968D01*
X179749Y-24940D01*
X179698Y-24917D01*
X179837Y-24372D01*
X179842Y-24377D01*
X179860Y-24381D01*
X179888Y-24395D01*
X179925Y-24414D01*
X179971Y-24432D01*
X180026Y-24455D01*
X180091Y-24474D01*
X180160Y-24497D01*
X180170D01*
X180193Y-24506D01*
X180234Y-24515D01*
X180285Y-24525D01*
X180350Y-24534D01*
X180419Y-24543D01*
X180493Y-24548D01*
X180571Y-24552D01*
X180608D01*
X180650Y-24548D01*
X180701Y-24543D01*
X180756Y-24534D01*
X180816Y-24515D01*
X180872Y-24497D01*
X180918Y-24469D01*
X180923Y-24464D01*
X180937Y-24455D01*
X180955Y-24432D01*
X180978Y-24409D01*
X181001Y-24372D01*
X181020Y-24335D01*
X181034Y-24289D01*
X181038Y-24238D01*
Y-24234D01*
Y-24215D01*
X181034Y-24187D01*
X181024Y-24160D01*
X181010Y-24123D01*
X180987Y-24086D01*
X180960Y-24049D01*
X180923Y-24012D01*
X180918Y-24007D01*
X180900Y-23998D01*
X180872Y-23979D01*
X180830Y-23952D01*
X180779Y-23924D01*
X180715Y-23896D01*
X180636Y-23859D01*
X180544Y-23827D01*
X180539D01*
X180530Y-23822D01*
X180507Y-23813D01*
X180484Y-23804D01*
X180451Y-23790D01*
X180419Y-23776D01*
X180336Y-23735D01*
X180239Y-23688D01*
X180142Y-23628D01*
X180045Y-23564D01*
X179957Y-23490D01*
X179953Y-23485D01*
X179948Y-23481D01*
X179925Y-23453D01*
X179888Y-23406D01*
X179846Y-23347D01*
X179805Y-23268D01*
X179772Y-23176D01*
X179745Y-23074D01*
X179740Y-23019D01*
X179735Y-22958D01*
Y-22949D01*
Y-22926D01*
X179740Y-22889D01*
X179745Y-22848D01*
X179754Y-22792D01*
X179768Y-22732D01*
X179786Y-22672D01*
X179809Y-22612D01*
X179814Y-22603D01*
X179823Y-22584D01*
X179842Y-22557D01*
X179865Y-22515D01*
X179897Y-22473D01*
X179934Y-22427D01*
X179976Y-22381D01*
X180026Y-22335D01*
X180031Y-22330D01*
X180054Y-22316D01*
X180082Y-22293D01*
X180128Y-22270D01*
X180179Y-22238D01*
X180239Y-22210D01*
X180304Y-22178D01*
X180377Y-22150D01*
X180382D01*
X180387Y-22145D01*
X180414Y-22141D01*
X180456Y-22127D01*
X180516Y-22113D01*
X180581Y-22104D01*
X180664Y-22090D01*
X180752Y-22085D01*
X180844Y-22081D01*
X180932D01*
X180992Y-22085D01*
D02*
G37*
G36*
X170250Y-22085D02*
X170315Y-22090D01*
X170389Y-22099D01*
X170463Y-22113D01*
X170532Y-22127D01*
X170542D01*
X170565Y-22136D01*
X170597Y-22145D01*
X170643Y-22154D01*
X170689Y-22168D01*
X170745Y-22187D01*
X170800Y-22205D01*
X170851Y-22229D01*
X170703Y-22764D01*
X170699D01*
X170689Y-22755D01*
X170666Y-22746D01*
X170639Y-22737D01*
X170606Y-22723D01*
X170565Y-22704D01*
X170514Y-22691D01*
X170458Y-22672D01*
X170454Y-22667D01*
X170431Y-22663D01*
X170398Y-22654D01*
X170357Y-22644D01*
X170301Y-22635D01*
X170241Y-22630D01*
X170172Y-22621D01*
X170056D01*
X170019Y-22626D01*
X169973Y-22630D01*
X169918Y-22644D01*
X169867Y-22658D01*
X169816Y-22681D01*
X169770Y-22709D01*
X169765Y-22714D01*
X169756Y-22723D01*
X169738Y-22741D01*
X169719Y-22764D01*
X169701Y-22792D01*
X169682Y-22829D01*
X169673Y-22866D01*
X169668Y-22908D01*
Y-22912D01*
Y-22917D01*
X169673Y-22949D01*
X169682Y-22991D01*
X169696Y-23032D01*
X169701Y-23042D01*
X169719Y-23065D01*
X169752Y-23092D01*
X169793Y-23129D01*
X169798D01*
X169807Y-23139D01*
X169821Y-23148D01*
X169839Y-23157D01*
X169867Y-23171D01*
X169895Y-23189D01*
X169964Y-23222D01*
X169969D01*
X169983Y-23231D01*
X170006Y-23240D01*
X170033Y-23249D01*
X170070Y-23263D01*
X170112Y-23282D01*
X170158Y-23300D01*
X170209Y-23319D01*
X170213D01*
X170227Y-23323D01*
X170246Y-23333D01*
X170274Y-23347D01*
X170306Y-23360D01*
X170343Y-23374D01*
X170431Y-23416D01*
X170523Y-23467D01*
X170620Y-23527D01*
X170708Y-23596D01*
X170749Y-23633D01*
X170786Y-23670D01*
X170796Y-23679D01*
X170814Y-23707D01*
X170846Y-23753D01*
X170879Y-23813D01*
X170911Y-23887D01*
X170943Y-23979D01*
X170962Y-24081D01*
X170971Y-24192D01*
Y-24201D01*
Y-24224D01*
X170967Y-24257D01*
X170962Y-24303D01*
X170953Y-24354D01*
X170939Y-24414D01*
X170920Y-24474D01*
X170897Y-24539D01*
X170893Y-24548D01*
X170883Y-24566D01*
X170865Y-24599D01*
X170842Y-24635D01*
X170809Y-24682D01*
X170773Y-24733D01*
X170726Y-24783D01*
X170676Y-24829D01*
X170671Y-24834D01*
X170648Y-24848D01*
X170620Y-24871D01*
X170579Y-24899D01*
X170523Y-24931D01*
X170463Y-24963D01*
X170389Y-25001D01*
X170310Y-25028D01*
X170306D01*
X170301Y-25033D01*
X170287D01*
X170274Y-25037D01*
X170223Y-25051D01*
X170163Y-25060D01*
X170084Y-25074D01*
X169996Y-25088D01*
X169899Y-25093D01*
X169789Y-25098D01*
X169747D01*
X169696Y-25093D01*
X169636Y-25088D01*
X169562Y-25084D01*
X169483Y-25074D01*
X169400Y-25060D01*
X169313Y-25042D01*
X169308D01*
X169303Y-25037D01*
X169276Y-25033D01*
X169234Y-25019D01*
X169183Y-25005D01*
X169128Y-24987D01*
X169068Y-24968D01*
X169008Y-24940D01*
X168957Y-24917D01*
X169096Y-24372D01*
X169100Y-24377D01*
X169119Y-24381D01*
X169146Y-24395D01*
X169183Y-24414D01*
X169229Y-24432D01*
X169285Y-24455D01*
X169350Y-24474D01*
X169419Y-24497D01*
X169428D01*
X169451Y-24506D01*
X169493Y-24515D01*
X169544Y-24525D01*
X169608Y-24534D01*
X169678Y-24543D01*
X169752Y-24548D01*
X169830Y-24552D01*
X169867D01*
X169909Y-24548D01*
X169959Y-24543D01*
X170015Y-24534D01*
X170075Y-24515D01*
X170130Y-24497D01*
X170176Y-24469D01*
X170181Y-24464D01*
X170195Y-24455D01*
X170213Y-24432D01*
X170237Y-24409D01*
X170260Y-24372D01*
X170278Y-24335D01*
X170292Y-24289D01*
X170297Y-24238D01*
Y-24234D01*
Y-24215D01*
X170292Y-24187D01*
X170283Y-24160D01*
X170269Y-24123D01*
X170246Y-24086D01*
X170218Y-24049D01*
X170181Y-24012D01*
X170176Y-24007D01*
X170158Y-23998D01*
X170130Y-23979D01*
X170089Y-23952D01*
X170038Y-23924D01*
X169973Y-23896D01*
X169895Y-23859D01*
X169802Y-23827D01*
X169798D01*
X169789Y-23822D01*
X169765Y-23813D01*
X169742Y-23804D01*
X169710Y-23790D01*
X169678Y-23776D01*
X169594Y-23735D01*
X169497Y-23688D01*
X169400Y-23628D01*
X169303Y-23564D01*
X169216Y-23490D01*
X169211Y-23485D01*
X169206Y-23481D01*
X169183Y-23453D01*
X169146Y-23406D01*
X169105Y-23347D01*
X169063Y-23268D01*
X169031Y-23176D01*
X169003Y-23074D01*
X168998Y-23019D01*
X168994Y-22958D01*
Y-22949D01*
Y-22926D01*
X168998Y-22889D01*
X169003Y-22848D01*
X169012Y-22792D01*
X169026Y-22732D01*
X169045Y-22672D01*
X169068Y-22612D01*
X169072Y-22603D01*
X169082Y-22584D01*
X169100Y-22557D01*
X169123Y-22515D01*
X169156Y-22473D01*
X169193Y-22427D01*
X169234Y-22381D01*
X169285Y-22335D01*
X169290Y-22330D01*
X169313Y-22316D01*
X169340Y-22293D01*
X169386Y-22270D01*
X169437Y-22238D01*
X169497Y-22210D01*
X169562Y-22178D01*
X169636Y-22150D01*
X169641D01*
X169645Y-22145D01*
X169673Y-22141D01*
X169714Y-22127D01*
X169775Y-22113D01*
X169839Y-22104D01*
X169922Y-22090D01*
X170010Y-22085D01*
X170103Y-22081D01*
X170190D01*
X170250Y-22085D01*
D02*
G37*
G36*
X165275D02*
X165339Y-22090D01*
X165413Y-22099D01*
X165487Y-22113D01*
X165557Y-22127D01*
X165566D01*
X165589Y-22136D01*
X165621Y-22145D01*
X165667Y-22154D01*
X165714Y-22168D01*
X165769Y-22187D01*
X165824Y-22205D01*
X165875Y-22229D01*
X165727Y-22764D01*
X165723D01*
X165714Y-22755D01*
X165691Y-22746D01*
X165663Y-22737D01*
X165630Y-22723D01*
X165589Y-22704D01*
X165538Y-22691D01*
X165483Y-22672D01*
X165478Y-22667D01*
X165455Y-22663D01*
X165423Y-22654D01*
X165381Y-22644D01*
X165325Y-22635D01*
X165266Y-22630D01*
X165196Y-22621D01*
X165081D01*
X165044Y-22626D01*
X164997Y-22630D01*
X164942Y-22644D01*
X164891Y-22658D01*
X164840Y-22681D01*
X164794Y-22709D01*
X164790Y-22714D01*
X164780Y-22723D01*
X164762Y-22741D01*
X164743Y-22764D01*
X164725Y-22792D01*
X164707Y-22829D01*
X164697Y-22866D01*
X164693Y-22908D01*
Y-22912D01*
Y-22917D01*
X164697Y-22949D01*
X164707Y-22991D01*
X164720Y-23032D01*
X164725Y-23042D01*
X164743Y-23065D01*
X164776Y-23092D01*
X164817Y-23129D01*
X164822D01*
X164831Y-23139D01*
X164845Y-23148D01*
X164864Y-23157D01*
X164891Y-23171D01*
X164919Y-23189D01*
X164988Y-23222D01*
X164993D01*
X165007Y-23231D01*
X165030Y-23240D01*
X165058Y-23249D01*
X165094Y-23263D01*
X165136Y-23282D01*
X165182Y-23300D01*
X165233Y-23319D01*
X165238D01*
X165252Y-23323D01*
X165270Y-23333D01*
X165298Y-23347D01*
X165330Y-23360D01*
X165367Y-23374D01*
X165455Y-23416D01*
X165547Y-23467D01*
X165644Y-23527D01*
X165732Y-23596D01*
X165774Y-23633D01*
X165811Y-23670D01*
X165820Y-23679D01*
X165838Y-23707D01*
X165871Y-23753D01*
X165903Y-23813D01*
X165935Y-23887D01*
X165968Y-23979D01*
X165986Y-24081D01*
X165995Y-24192D01*
Y-24201D01*
Y-24224D01*
X165991Y-24257D01*
X165986Y-24303D01*
X165977Y-24354D01*
X165963Y-24414D01*
X165945Y-24474D01*
X165921Y-24539D01*
X165917Y-24548D01*
X165908Y-24566D01*
X165889Y-24599D01*
X165866Y-24635D01*
X165834Y-24682D01*
X165797Y-24733D01*
X165751Y-24783D01*
X165700Y-24829D01*
X165695Y-24834D01*
X165672Y-24848D01*
X165644Y-24871D01*
X165603Y-24899D01*
X165547Y-24931D01*
X165487Y-24963D01*
X165413Y-25001D01*
X165335Y-25028D01*
X165330D01*
X165325Y-25033D01*
X165312D01*
X165298Y-25037D01*
X165247Y-25051D01*
X165187Y-25060D01*
X165108Y-25074D01*
X165021Y-25088D01*
X164924Y-25093D01*
X164813Y-25098D01*
X164771D01*
X164720Y-25093D01*
X164660Y-25088D01*
X164586Y-25084D01*
X164508Y-25074D01*
X164425Y-25060D01*
X164337Y-25042D01*
X164332D01*
X164328Y-25037D01*
X164300Y-25033D01*
X164258Y-25019D01*
X164207Y-25005D01*
X164152Y-24987D01*
X164092Y-24968D01*
X164032Y-24940D01*
X163981Y-24917D01*
X164120Y-24372D01*
X164124Y-24377D01*
X164143Y-24381D01*
X164171Y-24395D01*
X164207Y-24414D01*
X164254Y-24432D01*
X164309Y-24455D01*
X164374Y-24474D01*
X164443Y-24497D01*
X164452D01*
X164476Y-24506D01*
X164517Y-24515D01*
X164568Y-24525D01*
X164632Y-24534D01*
X164702Y-24543D01*
X164776Y-24548D01*
X164854Y-24552D01*
X164891D01*
X164933Y-24548D01*
X164984Y-24543D01*
X165039Y-24534D01*
X165099Y-24515D01*
X165155Y-24497D01*
X165201Y-24469D01*
X165205Y-24464D01*
X165219Y-24455D01*
X165238Y-24432D01*
X165261Y-24409D01*
X165284Y-24372D01*
X165302Y-24335D01*
X165316Y-24289D01*
X165321Y-24238D01*
Y-24234D01*
Y-24215D01*
X165316Y-24187D01*
X165307Y-24160D01*
X165293Y-24123D01*
X165270Y-24086D01*
X165242Y-24049D01*
X165205Y-24012D01*
X165201Y-24007D01*
X165182Y-23998D01*
X165155Y-23979D01*
X165113Y-23952D01*
X165062Y-23924D01*
X164997Y-23896D01*
X164919Y-23859D01*
X164827Y-23827D01*
X164822D01*
X164813Y-23822D01*
X164790Y-23813D01*
X164767Y-23804D01*
X164734Y-23790D01*
X164702Y-23776D01*
X164619Y-23735D01*
X164522Y-23688D01*
X164425Y-23628D01*
X164328Y-23564D01*
X164240Y-23490D01*
X164235Y-23485D01*
X164231Y-23481D01*
X164207Y-23453D01*
X164171Y-23406D01*
X164129Y-23347D01*
X164087Y-23268D01*
X164055Y-23176D01*
X164027Y-23074D01*
X164023Y-23019D01*
X164018Y-22958D01*
Y-22949D01*
Y-22926D01*
X164023Y-22889D01*
X164027Y-22848D01*
X164037Y-22792D01*
X164050Y-22732D01*
X164069Y-22672D01*
X164092Y-22612D01*
X164097Y-22603D01*
X164106Y-22584D01*
X164124Y-22557D01*
X164147Y-22515D01*
X164180Y-22473D01*
X164217Y-22427D01*
X164258Y-22381D01*
X164309Y-22335D01*
X164314Y-22330D01*
X164337Y-22316D01*
X164365Y-22293D01*
X164411Y-22270D01*
X164462Y-22238D01*
X164522Y-22210D01*
X164586Y-22178D01*
X164660Y-22150D01*
X164665D01*
X164670Y-22145D01*
X164697Y-22141D01*
X164739Y-22127D01*
X164799Y-22113D01*
X164864Y-22104D01*
X164947Y-22090D01*
X165034Y-22085D01*
X165127Y-22081D01*
X165215D01*
X165275Y-22085D01*
D02*
G37*
G36*
X151752D02*
X151817Y-22090D01*
X151891Y-22099D01*
X151964Y-22113D01*
X152034Y-22127D01*
X152043D01*
X152066Y-22136D01*
X152099Y-22145D01*
X152145Y-22154D01*
X152191Y-22168D01*
X152246Y-22187D01*
X152302Y-22205D01*
X152353Y-22229D01*
X152205Y-22764D01*
X152200D01*
X152191Y-22755D01*
X152168Y-22746D01*
X152140Y-22737D01*
X152108Y-22723D01*
X152066Y-22704D01*
X152015Y-22691D01*
X151960Y-22672D01*
X151955Y-22667D01*
X151932Y-22663D01*
X151900Y-22654D01*
X151858Y-22644D01*
X151803Y-22635D01*
X151743Y-22630D01*
X151673Y-22621D01*
X151558D01*
X151521Y-22626D01*
X151475Y-22630D01*
X151419Y-22644D01*
X151368Y-22658D01*
X151318Y-22681D01*
X151271Y-22709D01*
X151267Y-22714D01*
X151258Y-22723D01*
X151239Y-22741D01*
X151221Y-22764D01*
X151202Y-22792D01*
X151184Y-22829D01*
X151174Y-22866D01*
X151170Y-22908D01*
Y-22912D01*
Y-22917D01*
X151174Y-22949D01*
X151184Y-22991D01*
X151198Y-23032D01*
X151202Y-23042D01*
X151221Y-23065D01*
X151253Y-23092D01*
X151295Y-23129D01*
X151299D01*
X151309Y-23139D01*
X151322Y-23148D01*
X151341Y-23157D01*
X151368Y-23171D01*
X151396Y-23189D01*
X151465Y-23222D01*
X151470D01*
X151484Y-23231D01*
X151507Y-23240D01*
X151535Y-23249D01*
X151572Y-23263D01*
X151613Y-23282D01*
X151660Y-23300D01*
X151710Y-23319D01*
X151715D01*
X151729Y-23323D01*
X151747Y-23333D01*
X151775Y-23347D01*
X151807Y-23360D01*
X151844Y-23374D01*
X151932Y-23416D01*
X152025Y-23467D01*
X152122Y-23527D01*
X152209Y-23596D01*
X152251Y-23633D01*
X152288Y-23670D01*
X152297Y-23679D01*
X152316Y-23707D01*
X152348Y-23753D01*
X152380Y-23813D01*
X152413Y-23887D01*
X152445Y-23979D01*
X152463Y-24081D01*
X152473Y-24192D01*
Y-24201D01*
Y-24224D01*
X152468Y-24257D01*
X152463Y-24303D01*
X152454Y-24354D01*
X152440Y-24414D01*
X152422Y-24474D01*
X152399Y-24539D01*
X152394Y-24548D01*
X152385Y-24566D01*
X152366Y-24599D01*
X152343Y-24635D01*
X152311Y-24682D01*
X152274Y-24733D01*
X152228Y-24783D01*
X152177Y-24829D01*
X152172Y-24834D01*
X152149Y-24848D01*
X152122Y-24871D01*
X152080Y-24899D01*
X152025Y-24931D01*
X151964Y-24963D01*
X151891Y-25001D01*
X151812Y-25028D01*
X151807D01*
X151803Y-25033D01*
X151789D01*
X151775Y-25037D01*
X151724Y-25051D01*
X151664Y-25060D01*
X151586Y-25074D01*
X151498Y-25088D01*
X151401Y-25093D01*
X151290Y-25098D01*
X151248D01*
X151198Y-25093D01*
X151137Y-25088D01*
X151064Y-25084D01*
X150985Y-25074D01*
X150902Y-25060D01*
X150814Y-25042D01*
X150810D01*
X150805Y-25037D01*
X150777Y-25033D01*
X150736Y-25019D01*
X150685Y-25005D01*
X150629Y-24987D01*
X150569Y-24968D01*
X150509Y-24940D01*
X150458Y-24917D01*
X150597Y-24372D01*
X150602Y-24377D01*
X150620Y-24381D01*
X150648Y-24395D01*
X150685Y-24414D01*
X150731Y-24432D01*
X150786Y-24455D01*
X150851Y-24474D01*
X150920Y-24497D01*
X150930D01*
X150953Y-24506D01*
X150994Y-24515D01*
X151045Y-24525D01*
X151110Y-24534D01*
X151179Y-24543D01*
X151253Y-24548D01*
X151332Y-24552D01*
X151368D01*
X151410Y-24548D01*
X151461Y-24543D01*
X151516Y-24534D01*
X151576Y-24515D01*
X151632Y-24497D01*
X151678Y-24469D01*
X151683Y-24464D01*
X151697Y-24455D01*
X151715Y-24432D01*
X151738Y-24409D01*
X151761Y-24372D01*
X151780Y-24335D01*
X151794Y-24289D01*
X151798Y-24238D01*
Y-24234D01*
Y-24215D01*
X151794Y-24187D01*
X151784Y-24160D01*
X151770Y-24123D01*
X151747Y-24086D01*
X151720Y-24049D01*
X151683Y-24012D01*
X151678Y-24007D01*
X151660Y-23998D01*
X151632Y-23979D01*
X151590Y-23952D01*
X151540Y-23924D01*
X151475Y-23896D01*
X151396Y-23859D01*
X151304Y-23827D01*
X151299D01*
X151290Y-23822D01*
X151267Y-23813D01*
X151244Y-23804D01*
X151211Y-23790D01*
X151179Y-23776D01*
X151096Y-23735D01*
X150999Y-23688D01*
X150902Y-23628D01*
X150805Y-23564D01*
X150717Y-23490D01*
X150713Y-23485D01*
X150708Y-23481D01*
X150685Y-23453D01*
X150648Y-23406D01*
X150606Y-23347D01*
X150565Y-23268D01*
X150532Y-23176D01*
X150505Y-23074D01*
X150500Y-23019D01*
X150495Y-22958D01*
Y-22949D01*
Y-22926D01*
X150500Y-22889D01*
X150505Y-22848D01*
X150514Y-22792D01*
X150528Y-22732D01*
X150546Y-22672D01*
X150569Y-22612D01*
X150574Y-22603D01*
X150583Y-22584D01*
X150602Y-22557D01*
X150625Y-22515D01*
X150657Y-22473D01*
X150694Y-22427D01*
X150736Y-22381D01*
X150786Y-22335D01*
X150791Y-22330D01*
X150814Y-22316D01*
X150842Y-22293D01*
X150888Y-22270D01*
X150939Y-22238D01*
X150999Y-22210D01*
X151064Y-22178D01*
X151137Y-22150D01*
X151142D01*
X151147Y-22145D01*
X151174Y-22141D01*
X151216Y-22127D01*
X151276Y-22113D01*
X151341Y-22104D01*
X151424Y-22090D01*
X151512Y-22085D01*
X151604Y-22081D01*
X151692D01*
X151752Y-22085D01*
D02*
G37*
G36*
X167788Y-23836D02*
Y-25056D01*
X167127D01*
Y-23855D01*
X166199Y-22122D01*
X166961D01*
X167257Y-22829D01*
X167261Y-22838D01*
X167271Y-22857D01*
X167280Y-22889D01*
X167298Y-22926D01*
X167317Y-22972D01*
X167335Y-23019D01*
X167377Y-23120D01*
X167381Y-23125D01*
X167386Y-23143D01*
X167395Y-23166D01*
X167409Y-23203D01*
X167423Y-23245D01*
X167441Y-23291D01*
X167483Y-23393D01*
X167492D01*
Y-23388D01*
X167502Y-23370D01*
X167511Y-23342D01*
X167520Y-23305D01*
X167538Y-23263D01*
X167552Y-23217D01*
X167589Y-23120D01*
X167594Y-23115D01*
X167599Y-23097D01*
X167612Y-23069D01*
X167626Y-23032D01*
X167645Y-22991D01*
X167663Y-22940D01*
X167691Y-22885D01*
X167714Y-22829D01*
X168010Y-22122D01*
X168754D01*
X167788Y-23836D01*
D02*
G37*
G36*
X153919Y-22104D02*
X153970Y-22108D01*
X154030Y-22113D01*
X154094Y-22118D01*
X154159Y-22127D01*
X154307Y-22159D01*
X154455Y-22201D01*
X154529Y-22229D01*
X154598Y-22261D01*
X154658Y-22298D01*
X154718Y-22339D01*
X154723Y-22344D01*
X154741Y-22358D01*
X154769Y-22386D01*
X154801Y-22418D01*
X154838Y-22459D01*
X154875Y-22506D01*
X154912Y-22561D01*
X154944Y-22626D01*
X154949Y-22635D01*
X154958Y-22654D01*
X154972Y-22691D01*
X154991Y-22737D01*
X155005Y-22797D01*
X155018Y-22861D01*
X155028Y-22940D01*
X155032Y-23019D01*
Y-23023D01*
Y-23028D01*
Y-23055D01*
X155028Y-23097D01*
X155023Y-23152D01*
X155014Y-23212D01*
X155005Y-23277D01*
X154986Y-23347D01*
X154963Y-23416D01*
X154958Y-23425D01*
X154949Y-23444D01*
X154935Y-23476D01*
X154912Y-23517D01*
X154884Y-23568D01*
X154847Y-23614D01*
X154806Y-23665D01*
X154760Y-23716D01*
X154750Y-23721D01*
X154732Y-23739D01*
X154695Y-23767D01*
X154644Y-23804D01*
X154584Y-23841D01*
X154515Y-23878D01*
X154436Y-23915D01*
X154348Y-23947D01*
X154344D01*
X154339Y-23952D01*
X154325D01*
X154307Y-23956D01*
X154256Y-23970D01*
X154191Y-23984D01*
X154108Y-23998D01*
X154016Y-24007D01*
X153914Y-24016D01*
X153808Y-24021D01*
X153679D01*
X153655Y-24016D01*
X153623Y-24012D01*
X153586Y-24007D01*
Y-25056D01*
X152926D01*
Y-22164D01*
X152935D01*
X152953Y-22159D01*
X152986Y-22154D01*
X153027Y-22145D01*
X153083Y-22141D01*
X153143Y-22131D01*
X153217Y-22127D01*
X153295Y-22118D01*
X153318D01*
X153337Y-22113D01*
X153383D01*
X153443Y-22108D01*
X153521Y-22104D01*
X153609D01*
X153711Y-22099D01*
X153882D01*
X153919Y-22104D01*
D02*
G37*
G36*
X179301Y-25056D02*
X178659Y-25056D01*
X178613Y-23933D01*
Y-23929D01*
Y-23919D01*
Y-23905D01*
Y-23887D01*
Y-23864D01*
X178608Y-23832D01*
Y-23762D01*
X178603Y-23679D01*
Y-23582D01*
X178599Y-23476D01*
X178594Y-23365D01*
Y-23360D01*
Y-23351D01*
Y-23333D01*
Y-23310D01*
Y-23282D01*
X178590Y-23249D01*
Y-23212D01*
Y-23171D01*
Y-23074D01*
X178585Y-22963D01*
Y-22848D01*
Y-22727D01*
X178576D01*
Y-22732D01*
X178571Y-22741D01*
X178567Y-22755D01*
X178562Y-22778D01*
X178557Y-22801D01*
X178548Y-22834D01*
X178530Y-22908D01*
X178502Y-22995D01*
X178479Y-23092D01*
X178446Y-23199D01*
X178414Y-23310D01*
Y-23314D01*
X178409Y-23323D01*
X178405Y-23337D01*
X178400Y-23360D01*
X178391Y-23388D01*
X178382Y-23416D01*
X178363Y-23490D01*
X178335Y-23573D01*
X178308Y-23670D01*
X178243Y-23864D01*
X177887Y-25010D01*
X177370D01*
X177056Y-23873D01*
Y-23868D01*
X177051Y-23859D01*
X177047Y-23845D01*
X177042Y-23827D01*
X177037Y-23804D01*
X177028Y-23776D01*
X177009Y-23707D01*
X176986Y-23624D01*
X176963Y-23531D01*
X176940Y-23425D01*
X176912Y-23319D01*
Y-23314D01*
X176908Y-23305D01*
Y-23291D01*
X176903Y-23268D01*
X176894Y-23240D01*
X176889Y-23208D01*
X176875Y-23134D01*
X176857Y-23046D01*
X176834Y-22945D01*
X176815Y-22838D01*
X176792Y-22727D01*
X176783D01*
Y-22732D01*
Y-22741D01*
Y-22755D01*
Y-22778D01*
X176778Y-22806D01*
Y-22838D01*
Y-22917D01*
X176774Y-23009D01*
X176769Y-23115D01*
X176765Y-23231D01*
X176760Y-23351D01*
Y-23356D01*
Y-23365D01*
Y-23383D01*
Y-23406D01*
X176755Y-23434D01*
Y-23467D01*
X176751Y-23545D01*
X176746Y-23638D01*
Y-23735D01*
X176737Y-23943D01*
X176677Y-25056D01*
X176067D01*
X176252Y-22122D01*
X177134D01*
X177421Y-23102D01*
Y-23106D01*
X177425Y-23111D01*
X177430Y-23129D01*
X177435Y-23148D01*
X177448Y-23199D01*
X177467Y-23263D01*
X177485Y-23342D01*
X177508Y-23434D01*
X177536Y-23527D01*
X177559Y-23628D01*
Y-23633D01*
X177564Y-23642D01*
Y-23656D01*
X177568Y-23674D01*
X177578Y-23698D01*
X177582Y-23725D01*
X177596Y-23795D01*
X177615Y-23873D01*
X177633Y-23961D01*
X177652Y-24058D01*
X177670Y-24155D01*
X177689D01*
Y-24150D01*
X177693Y-24141D01*
Y-24127D01*
X177698Y-24109D01*
X177707Y-24086D01*
X177712Y-24058D01*
X177726Y-23993D01*
X177749Y-23910D01*
X177767Y-23822D01*
X177795Y-23725D01*
X177818Y-23624D01*
Y-23619D01*
X177823Y-23610D01*
X177827Y-23596D01*
X177832Y-23577D01*
X177837Y-23550D01*
X177846Y-23522D01*
X177864Y-23453D01*
X177887Y-23374D01*
X177910Y-23286D01*
X177966Y-23102D01*
X178275Y-22122D01*
X179144Y-22122D01*
X179301Y-25056D01*
D02*
G37*
G36*
X175614Y-22667D02*
X174473D01*
Y-23277D01*
X175550D01*
Y-23818D01*
X174473D01*
Y-24511D01*
X175674D01*
Y-25056D01*
X173812D01*
Y-22122D01*
X175614D01*
Y-22667D01*
D02*
G37*
G36*
X173457Y-22681D02*
X172658D01*
Y-25056D01*
X171997D01*
Y-22681D01*
X171202D01*
Y-22122D01*
X173457D01*
Y-22681D01*
D02*
G37*
G36*
X162701Y-22667D02*
X161560D01*
Y-23277D01*
X162637D01*
Y-23818D01*
X161560D01*
Y-24511D01*
X162761D01*
Y-25056D01*
X160900D01*
Y-22122D01*
X162701D01*
Y-22667D01*
D02*
G37*
G36*
X157915Y-25056D02*
X157199D01*
X156973Y-24303D01*
X156132D01*
X155924Y-25056D01*
X155240D01*
X156136Y-22122D01*
X157000D01*
X157915Y-25056D01*
D02*
G37*
G36*
X191209Y-1045D02*
X190914D01*
Y556D01*
X190279Y-238D01*
X190224D01*
X189586Y556D01*
Y-1045D01*
X189291D01*
Y1013D01*
X189573D01*
X190253Y167D01*
X190930Y1013D01*
X191209D01*
Y-1045D01*
D02*
G37*
G36*
X189019Y750D02*
X188303D01*
Y-1045D01*
X188008D01*
Y750D01*
X187302D01*
Y1013D01*
X189019D01*
Y750D01*
D02*
G37*
%LPC*%
G36*
X367803Y37292D02*
Y28762D01*
X362095D01*
Y31474D01*
X362073Y31802D01*
Y32108D01*
X362051Y32393D01*
X362030Y32655D01*
X362008Y32896D01*
X361986Y33093D01*
Y33289D01*
X361964Y33443D01*
X361942Y33596D01*
X361920Y33705D01*
Y33792D01*
X361898Y33858D01*
Y33902D01*
X361811Y34208D01*
X361701Y34492D01*
X361592Y34755D01*
X361461Y34995D01*
X361352Y35192D01*
X361264Y35345D01*
X361198Y35433D01*
X361177Y35476D01*
X360958Y35761D01*
X360717Y36001D01*
X360455Y36242D01*
X360236Y36417D01*
X360017Y36570D01*
X359842Y36679D01*
X359733Y36745D01*
X359689Y36767D01*
X359318Y36942D01*
X358924Y37073D01*
X358508Y37160D01*
X358137Y37226D01*
X357831Y37270D01*
X357677D01*
X357568Y37292D01*
X367803D01*
X357328D01*
X356693Y37248D01*
X356103Y37160D01*
X355622Y37007D01*
X355184Y36854D01*
X355009Y36767D01*
X354856Y36679D01*
X354725Y36614D01*
X354594Y36526D01*
X354506Y36482D01*
X354441Y36439D01*
X354419Y36395D01*
X354397D01*
X354003Y36045D01*
X353675Y35695D01*
X353413Y35323D01*
X353216Y34995D01*
X353085Y34689D01*
X352975Y34449D01*
X352954Y34361D01*
X352932Y34295D01*
X352910Y34252D01*
Y34230D01*
X352866Y34055D01*
X352822Y33836D01*
X352800Y33574D01*
X352779Y33311D01*
X352735Y32699D01*
X352691Y32087D01*
Y31518D01*
X352669Y31277D01*
Y31474D01*
Y25701D01*
X367803D01*
Y37292D01*
D02*
G37*
%LPD*%
G36*
X357634Y34121D02*
X357852Y34099D01*
X358049Y34033D01*
X358224Y33967D01*
X358377Y33902D01*
X358487Y33858D01*
X358552Y33814D01*
X358574Y33792D01*
X358749Y33661D01*
X358902Y33486D01*
X359033Y33333D01*
X359143Y33180D01*
X359208Y33049D01*
X359274Y32939D01*
X359296Y32852D01*
X359318Y32830D01*
X359361Y32699D01*
X359383Y32546D01*
X359449Y32196D01*
X359493Y31802D01*
X359514Y31409D01*
Y31015D01*
X359536Y30862D01*
Y28762D01*
X355228D01*
Y31037D01*
X355250Y31255D01*
Y31452D01*
X355272Y31649D01*
Y31934D01*
X355294Y32152D01*
X355315Y32305D01*
X355337Y32393D01*
Y32415D01*
X355403Y32677D01*
X355490Y32918D01*
X355600Y33136D01*
X355731Y33311D01*
X355840Y33443D01*
X355928Y33552D01*
X355993Y33617D01*
X356015Y33639D01*
X356234Y33814D01*
X356453Y33924D01*
X356693Y34011D01*
X356912Y34077D01*
X357109Y34121D01*
X357262Y34142D01*
X357349D01*
X357393D01*
X357634Y34121D01*
D02*
G37*
%LPC*%
G36*
X363626Y-1718D02*
X363407D01*
X362882Y-1740D01*
X362423Y-1805D01*
X362008Y-1914D01*
X361658Y-2024D01*
X361373Y-2133D01*
X361177Y-2242D01*
X361045Y-2308D01*
X361002Y-2330D01*
X360652Y-2571D01*
X360346Y-2855D01*
X360083Y-3139D01*
X359864Y-3402D01*
X359689Y-3642D01*
X359558Y-3839D01*
X359471Y-3970D01*
X359449Y-3992D01*
Y-4014D01*
X359339Y-4233D01*
X359230Y-4451D01*
X359033Y-4976D01*
X358858Y-5523D01*
X358683Y-6048D01*
X358618Y-6288D01*
X358552Y-6529D01*
X358487Y-6748D01*
X358443Y-6923D01*
X358399Y-7076D01*
X358377Y-7185D01*
X358355Y-7273D01*
Y-7294D01*
X358246Y-7688D01*
X358159Y-8038D01*
X358071Y-8366D01*
X357984Y-8672D01*
X357896Y-8913D01*
X357809Y-9153D01*
X357721Y-9350D01*
X357656Y-9525D01*
X357590Y-9678D01*
X357524Y-9788D01*
X357481Y-9897D01*
X357437Y-9963D01*
X357371Y-10072D01*
X357349Y-10094D01*
X357196Y-10247D01*
X357043Y-10356D01*
X356890Y-10422D01*
X356737Y-10466D01*
X356628Y-10509D01*
X356518Y-10531D01*
X356453D01*
X356431D01*
X356212Y-10509D01*
X356037Y-10466D01*
X355862Y-10378D01*
X355731Y-10291D01*
X355622Y-10203D01*
X355556Y-10116D01*
X355512Y-10072D01*
X355490Y-10050D01*
X355294Y-9744D01*
X355162Y-9416D01*
X355053Y-9066D01*
X354987Y-8738D01*
X354944Y-8454D01*
X354922Y-8213D01*
Y-7994D01*
X354944Y-7535D01*
X355009Y-7141D01*
X355097Y-6813D01*
X355184Y-6551D01*
X355272Y-6332D01*
X355359Y-6179D01*
X355425Y-6092D01*
X355447Y-6070D01*
X355665Y-5851D01*
X355928Y-5654D01*
X356190Y-5501D01*
X356475Y-5392D01*
X356715Y-5304D01*
X356912Y-5260D01*
X357065Y-5217D01*
X357087D01*
X357109D01*
X356999Y-2155D01*
X356606Y-2177D01*
X356256Y-2242D01*
X355906Y-2330D01*
X355600Y-2439D01*
X355294Y-2549D01*
X355009Y-2680D01*
X354769Y-2811D01*
X354528Y-2942D01*
X354331Y-3095D01*
X354156Y-3227D01*
X354003Y-3358D01*
X353872Y-3467D01*
X353785Y-3555D01*
X353719Y-3620D01*
X353675Y-3664D01*
X353653Y-3686D01*
X353435Y-3970D01*
X353238Y-4276D01*
X353063Y-4604D01*
X352910Y-4954D01*
X352800Y-5304D01*
X352691Y-5654D01*
X352538Y-6354D01*
X352494Y-6682D01*
X352450Y-6966D01*
X352429Y-7251D01*
X352407Y-7491D01*
X352385Y-7688D01*
Y-1718D01*
D01*
D01*
Y-14030D01*
Y-7950D01*
X352407Y-8585D01*
X352472Y-9153D01*
X352560Y-9656D01*
X352647Y-10094D01*
X352713Y-10291D01*
X352757Y-10466D01*
X352800Y-10597D01*
X352844Y-10728D01*
X352888Y-10815D01*
X352910Y-10881D01*
X352932Y-10925D01*
Y-10947D01*
X353150Y-11384D01*
X353391Y-11756D01*
X353653Y-12084D01*
X353894Y-12346D01*
X354113Y-12565D01*
X354288Y-12696D01*
X354419Y-12806D01*
X354441Y-12828D01*
X354463D01*
X354834Y-13046D01*
X355228Y-13199D01*
X355600Y-13309D01*
X355928Y-13374D01*
X356212Y-13418D01*
X356431Y-13462D01*
X356518D01*
X356584D01*
X356606D01*
X356628D01*
X356956Y-13440D01*
X357284Y-13396D01*
X357568Y-13331D01*
X357852Y-13243D01*
X358377Y-13024D01*
X358837Y-12762D01*
X359033Y-12653D01*
X359187Y-12521D01*
X359339Y-12412D01*
X359471Y-12303D01*
X359558Y-12215D01*
X359624Y-12150D01*
X359668Y-12106D01*
X359689Y-12084D01*
X359842Y-11887D01*
X359996Y-11647D01*
X360149Y-11406D01*
X360280Y-11122D01*
X360542Y-10575D01*
X360761Y-10006D01*
X360849Y-9722D01*
X360936Y-9481D01*
X361002Y-9241D01*
X361067Y-9044D01*
X361111Y-8891D01*
X361155Y-8760D01*
X361177Y-8672D01*
Y-8650D01*
X361264Y-8301D01*
X361352Y-7994D01*
X361417Y-7710D01*
X361483Y-7447D01*
X361548Y-7229D01*
X361592Y-7032D01*
X361658Y-6857D01*
X361701Y-6704D01*
X361723Y-6573D01*
X361767Y-6463D01*
X361811Y-6310D01*
X361855Y-6223D01*
Y-6201D01*
X361964Y-5917D01*
X362073Y-5698D01*
X362183Y-5501D01*
X362292Y-5348D01*
X362380Y-5239D01*
X362445Y-5173D01*
X362489Y-5129D01*
X362511Y-5107D01*
X362664Y-4998D01*
X362817Y-4911D01*
X362970Y-4867D01*
X363101Y-4823D01*
X363232Y-4801D01*
X363342Y-4779D01*
X363407D01*
X363429D01*
X363735Y-4801D01*
X363998Y-4889D01*
X364260Y-5020D01*
X364479Y-5151D01*
X364654Y-5304D01*
X364785Y-5414D01*
X364873Y-5501D01*
X364895Y-5545D01*
X365091Y-5851D01*
X365244Y-6201D01*
X365354Y-6573D01*
X365419Y-6923D01*
X365463Y-7251D01*
X365507Y-7513D01*
Y-7754D01*
X365485Y-8257D01*
X365398Y-8694D01*
X365288Y-9066D01*
X365157Y-9394D01*
X365026Y-9656D01*
X364916Y-9831D01*
X364829Y-9941D01*
X364807Y-9984D01*
X364501Y-10269D01*
X364173Y-10487D01*
X363801Y-10684D01*
X363429Y-10815D01*
X363101Y-10925D01*
X362839Y-11012D01*
X362751Y-11034D01*
X362664D01*
X362620Y-11056D01*
X362598D01*
X362882Y-14030D01*
X363342Y-13965D01*
X363779Y-13877D01*
X364195Y-13746D01*
X364566Y-13637D01*
X364916Y-13484D01*
X365244Y-13331D01*
X365529Y-13178D01*
X365791Y-13024D01*
X366010Y-12871D01*
X366207Y-12718D01*
X366382Y-12587D01*
X366535Y-12456D01*
X366644Y-12368D01*
X366710Y-12281D01*
X366754Y-12237D01*
X366775Y-12215D01*
X367016Y-11909D01*
X367213Y-11581D01*
X367388Y-11231D01*
X367541Y-10859D01*
X367650Y-10509D01*
X367759Y-10137D01*
X367913Y-9416D01*
X367978Y-9088D01*
X368022Y-8782D01*
X368044Y-8519D01*
X368066Y-8279D01*
X368088Y-8082D01*
Y-7797D01*
X368066Y-7098D01*
X368000Y-6463D01*
X367913Y-5895D01*
X367869Y-5654D01*
X367803Y-5414D01*
X367759Y-5217D01*
X367716Y-5042D01*
X367672Y-4889D01*
X367628Y-4758D01*
X367584Y-4648D01*
X367563Y-4583D01*
X367541Y-4539D01*
Y-4517D01*
X367300Y-4036D01*
X367038Y-3642D01*
X366775Y-3270D01*
X366491Y-2986D01*
X366250Y-2767D01*
X366032Y-2592D01*
X365900Y-2505D01*
X365879Y-2461D01*
X365857D01*
X365419Y-2221D01*
X365004Y-2024D01*
X364588Y-1892D01*
X364195Y-1805D01*
X363889Y-1761D01*
X363735Y-1740D01*
X363626Y-1718D01*
D02*
G37*
G36*
X680551Y-227818D02*
X680278D01*
X680223Y-227837D01*
X680041Y-227855D01*
X679841Y-227909D01*
X679822D01*
X679786Y-227928D01*
X679731Y-227946D01*
X679658Y-227982D01*
X679476Y-228074D01*
X679257Y-228201D01*
X679239D01*
X679203Y-228237D01*
X679148Y-228274D01*
X679075Y-228347D01*
X678875Y-228511D01*
X678620Y-228748D01*
X678602Y-228766D01*
X678565Y-228802D01*
X678492Y-228875D01*
X678419Y-228966D01*
X678310Y-229094D01*
X678183Y-229240D01*
X678055Y-229385D01*
X677927Y-229568D01*
Y-233558D01*
X677946D01*
X678000Y-233576D01*
X678073Y-233612D01*
X678183Y-233649D01*
X678292Y-233685D01*
X678438Y-233740D01*
X678747Y-233813D01*
X678766D01*
X678820Y-233831D01*
X678911Y-233849D01*
X679021D01*
X679148Y-233867D01*
X679294Y-233886D01*
X679604Y-233904D01*
X679713D01*
X679786Y-233886D01*
X680005Y-233867D01*
X680260Y-233813D01*
X680551Y-233703D01*
X680843Y-233576D01*
X681134Y-233376D01*
X681280Y-233266D01*
X681407Y-233120D01*
Y-233102D01*
X681444Y-233084D01*
X681462Y-233029D01*
X681517Y-232975D01*
X681571Y-232884D01*
X681626Y-232792D01*
X681681Y-232665D01*
X681754Y-232537D01*
X681808Y-232373D01*
X681863Y-232209D01*
X681918Y-232009D01*
X681972Y-231790D01*
X682027Y-231572D01*
X682045Y-231317D01*
X682082Y-231062D01*
Y-230770D01*
Y-230734D01*
Y-230661D01*
Y-230533D01*
X682063Y-230369D01*
Y-230187D01*
X682045Y-229987D01*
X681972Y-229586D01*
Y-229568D01*
X681954Y-229495D01*
X681936Y-229385D01*
X681899Y-229258D01*
X681808Y-228966D01*
X681681Y-228657D01*
Y-228638D01*
X681644Y-228584D01*
X681608Y-228511D01*
X681535Y-228420D01*
X681371Y-228219D01*
X681152Y-228037D01*
X681134Y-228019D01*
X681098Y-228001D01*
X681025Y-227964D01*
X680934Y-227928D01*
X680824Y-227891D01*
X680697Y-227855D01*
X680551Y-227818D01*
D02*
G37*
G36*
X772398Y-227727D02*
X772034D01*
X771924Y-227746D01*
X771797Y-227764D01*
X771651Y-227800D01*
X771341Y-227909D01*
X771323D01*
X771287Y-227946D01*
X771214Y-227982D01*
X771123Y-228037D01*
X770904Y-228201D01*
X770685Y-228420D01*
X770667Y-228438D01*
X770649Y-228474D01*
X770594Y-228547D01*
X770521Y-228638D01*
X770449Y-228748D01*
X770376Y-228893D01*
X770230Y-229203D01*
Y-229221D01*
X770212Y-229276D01*
X770175Y-229367D01*
X770139Y-229495D01*
X770103Y-229640D01*
X770084Y-229823D01*
X770030Y-230205D01*
X774366D01*
Y-230187D01*
Y-230114D01*
Y-230005D01*
Y-229877D01*
X774348Y-229731D01*
X774330Y-229568D01*
X774238Y-229221D01*
Y-229203D01*
X774220Y-229148D01*
X774184Y-229057D01*
X774147Y-228948D01*
X774020Y-228693D01*
X773838Y-228438D01*
X773819Y-228420D01*
X773783Y-228383D01*
X773728Y-228328D01*
X773655Y-228256D01*
X773546Y-228165D01*
X773437Y-228092D01*
X773145Y-227928D01*
X773127Y-227909D01*
X773072Y-227891D01*
X772981Y-227855D01*
X772872Y-227818D01*
X772744Y-227782D01*
X772580Y-227764D01*
X772398Y-227727D01*
D02*
G37*
G36*
X763161D02*
X762796D01*
X762687Y-227746D01*
X762559Y-227764D01*
X762414Y-227800D01*
X762104Y-227909D01*
X762086D01*
X762049Y-227946D01*
X761976Y-227982D01*
X761885Y-228037D01*
X761667Y-228201D01*
X761448Y-228420D01*
X761430Y-228438D01*
X761412Y-228474D01*
X761357Y-228547D01*
X761284Y-228638D01*
X761211Y-228748D01*
X761138Y-228893D01*
X760992Y-229203D01*
Y-229221D01*
X760974Y-229276D01*
X760938Y-229367D01*
X760901Y-229495D01*
X760865Y-229640D01*
X760847Y-229823D01*
X760792Y-230205D01*
X765128D01*
Y-230187D01*
Y-230114D01*
Y-230005D01*
Y-229877D01*
X765110Y-229731D01*
X765092Y-229568D01*
X765001Y-229221D01*
Y-229203D01*
X764983Y-229148D01*
X764946Y-229057D01*
X764910Y-228948D01*
X764782Y-228693D01*
X764600Y-228438D01*
X764582Y-228420D01*
X764545Y-228383D01*
X764491Y-228328D01*
X764418Y-228256D01*
X764309Y-228165D01*
X764199Y-228092D01*
X763908Y-227928D01*
X763889Y-227909D01*
X763835Y-227891D01*
X763744Y-227855D01*
X763634Y-227818D01*
X763507Y-227782D01*
X763343Y-227764D01*
X763161Y-227727D01*
D02*
G37*
G36*
X670767Y-227800D02*
X670457D01*
X670330Y-227818D01*
X670184Y-227837D01*
X670002Y-227855D01*
X669820Y-227909D01*
X669637Y-227964D01*
X669455Y-228055D01*
X669437Y-228074D01*
X669382Y-228110D01*
X669291Y-228165D01*
X669200Y-228237D01*
X669072Y-228328D01*
X668945Y-228438D01*
X668708Y-228729D01*
X668690Y-228748D01*
X668653Y-228802D01*
X668617Y-228893D01*
X668544Y-229003D01*
X668471Y-229149D01*
X668417Y-229312D01*
X668344Y-229495D01*
X668289Y-229695D01*
Y-229713D01*
X668271Y-229786D01*
X668253Y-229895D01*
X668234Y-230041D01*
X668198Y-230223D01*
X668180Y-230424D01*
X668161Y-230861D01*
Y-230898D01*
Y-230989D01*
X668180Y-231134D01*
Y-231317D01*
X668198Y-231517D01*
X668234Y-231754D01*
X668326Y-232209D01*
Y-232228D01*
X668362Y-232300D01*
X668398Y-232410D01*
X668453Y-232537D01*
X668599Y-232847D01*
X668799Y-233157D01*
X668818Y-233175D01*
X668854Y-233211D01*
X668927Y-233284D01*
X669018Y-233357D01*
X669127Y-233448D01*
X669255Y-233540D01*
X669546Y-233722D01*
X669564D01*
X669619Y-233758D01*
X669729Y-233776D01*
X669838Y-233813D01*
X670002Y-233849D01*
X670166Y-233867D01*
X670366Y-233904D01*
X670676D01*
X670785Y-233886D01*
X670949Y-233867D01*
X671113Y-233849D01*
X671295Y-233794D01*
X671478Y-233740D01*
X671660Y-233667D01*
X671678Y-233649D01*
X671733Y-233612D01*
X671824Y-233558D01*
X671933Y-233485D01*
X672042Y-233394D01*
X672170Y-233266D01*
X672407Y-232993D01*
X672425Y-232975D01*
X672462Y-232920D01*
X672498Y-232829D01*
X672571Y-232720D01*
X672644Y-232574D01*
X672698Y-232410D01*
X672771Y-232228D01*
X672826Y-232027D01*
Y-232009D01*
X672844Y-231936D01*
X672881Y-231809D01*
X672899Y-231663D01*
X672935Y-231499D01*
X672953Y-231298D01*
X672972Y-230861D01*
Y-230825D01*
Y-230734D01*
Y-230588D01*
X672953Y-230406D01*
X672935Y-230205D01*
X672899Y-229968D01*
X672844Y-229750D01*
X672789Y-229531D01*
Y-229513D01*
X672753Y-229440D01*
X672717Y-229331D01*
X672662Y-229185D01*
X672516Y-228893D01*
X672425Y-228729D01*
X672316Y-228584D01*
X672297Y-228565D01*
X672261Y-228529D01*
X672188Y-228456D01*
X672097Y-228365D01*
X671988Y-228274D01*
X671860Y-228183D01*
X671551Y-228001D01*
X671532Y-227982D01*
X671478Y-227964D01*
X671386Y-227928D01*
X671259Y-227891D01*
X671113Y-227855D01*
X670949Y-227837D01*
X670767Y-227800D01*
D02*
G37*
G36*
X153849Y-22603D02*
X153785D01*
X153748Y-22607D01*
X153660Y-22612D01*
X153619Y-22616D01*
X153586Y-22626D01*
Y-23499D01*
X153600D01*
X153614Y-23504D01*
X153642D01*
X153669Y-23508D01*
X153706D01*
X153752Y-23513D01*
X153845D01*
X153896Y-23508D01*
X153956Y-23499D01*
X154020Y-23481D01*
X154090Y-23462D01*
X154159Y-23430D01*
X154219Y-23388D01*
X154224Y-23383D01*
X154242Y-23365D01*
X154265Y-23337D01*
X154298Y-23296D01*
X154325Y-23249D01*
X154348Y-23189D01*
X154367Y-23115D01*
X154372Y-23037D01*
Y-23032D01*
Y-23028D01*
Y-23005D01*
X154367Y-22968D01*
X154353Y-22921D01*
X154339Y-22871D01*
X154316Y-22815D01*
X154284Y-22764D01*
X154237Y-22718D01*
X154233Y-22714D01*
X154214Y-22700D01*
X154182Y-22681D01*
X154140Y-22658D01*
X154085Y-22640D01*
X154016Y-22621D01*
X153937Y-22607D01*
X153849Y-22603D01*
D02*
G37*
G36*
X156547Y-22621D02*
X156534D01*
Y-22626D01*
X156529Y-22644D01*
X156524Y-22672D01*
X156515Y-22704D01*
X156506Y-22746D01*
X156497Y-22797D01*
X156488Y-22852D01*
X156474Y-22908D01*
Y-22912D01*
X156469Y-22935D01*
X156460Y-22963D01*
X156455Y-23000D01*
X156441Y-23042D01*
X156432Y-23092D01*
X156404Y-23189D01*
X156224Y-23809D01*
X156876D01*
X156691Y-23189D01*
Y-23185D01*
X156686Y-23166D01*
X156677Y-23139D01*
X156672Y-23102D01*
X156658Y-23060D01*
X156649Y-23014D01*
X156622Y-22903D01*
Y-22894D01*
X156617Y-22875D01*
X156608Y-22848D01*
X156598Y-22811D01*
X156589Y-22764D01*
X156575Y-22718D01*
X156547Y-22621D01*
D02*
G37*
%LPD*%
D10*
X-32191Y-19685D02*
G03*
X-32191Y-19685I-400J0D01*
G01*
Y3937D02*
G03*
X-32191Y3937I-400J0D01*
G01*
Y27559D02*
G03*
X-32191Y27559I-400J0D01*
G01*
X97463Y844D02*
X186463D01*
X97463Y-20256D02*
X186463D01*
X97463Y-19456D02*
X186463D01*
X97463Y-26656D02*
X186463D01*
Y844D01*
X97463Y-26656D02*
Y844D01*
D11*
X260153Y-1772D02*
Y1772D01*
X272751Y-1772D02*
Y1772D01*
X139961Y37008D02*
X143504D01*
X139961Y49606D02*
X143504D01*
X9449Y-1772D02*
Y1772D01*
X22047Y-1772D02*
Y1772D01*
X9449Y-88386D02*
Y-84842D01*
X22047Y-88386D02*
Y-84842D01*
X22047Y84842D02*
Y88386D01*
X9449Y84842D02*
Y88386D01*
X137402Y127657D02*
X138189D01*
X137402Y132185D02*
X138189D01*
X145276Y127657D02*
X146063D01*
X145276Y132185D02*
X146063D01*
X134502Y158593D02*
Y154657D01*
X132534D01*
X131878Y155313D01*
Y156625D01*
X132534Y157281D01*
X134502D01*
X127942Y155313D02*
X128598Y154657D01*
X129910D01*
X130566Y155313D01*
Y157937D01*
X129910Y158593D01*
X128598D01*
X127942Y157937D01*
X126630Y154657D02*
Y158593D01*
X124662D01*
X124006Y157937D01*
Y157281D01*
X124662Y156625D01*
X126630D01*
X124662D01*
X124006Y155969D01*
Y155313D01*
X124662Y154657D01*
X126630D01*
X122694Y155969D02*
X122038D01*
Y156625D01*
X122694D01*
Y155969D01*
Y157937D02*
X122038D01*
Y158593D01*
X122694D01*
Y157937D01*
X115479Y154657D02*
X112855D01*
Y155313D01*
X115479Y157937D01*
Y158593D01*
X111543Y155313D02*
X110887Y154657D01*
X109575D01*
X108919Y155313D01*
Y157937D01*
X109575Y158593D01*
X110887D01*
X111543Y157937D01*
Y155313D01*
X104983Y154657D02*
X107607D01*
Y156625D01*
X106295Y155969D01*
X105640D01*
X104983Y156625D01*
Y157937D01*
X105640Y158593D01*
X106951D01*
X107607Y157937D01*
X103672Y156625D02*
X101048D01*
X99736Y155313D02*
X99080Y154657D01*
X97768D01*
X97112Y155313D01*
Y157937D01*
X97768Y158593D01*
X99080D01*
X99736Y157937D01*
Y155313D01*
X93176Y158593D02*
X95800D01*
X93176Y155969D01*
Y155313D01*
X93832Y154657D01*
X95144D01*
X95800Y155313D01*
X91864Y158593D02*
X90552D01*
X91208D01*
Y154657D01*
X91864Y155313D01*
X88585Y157937D02*
X87929Y158593D01*
X86617D01*
X85961Y157937D01*
Y155313D01*
X86617Y154657D01*
X87929D01*
X88585Y155313D01*
Y155969D01*
X87929Y156625D01*
X85961D01*
X84649Y155313D02*
X83993Y154657D01*
X82681D01*
X82025Y155313D01*
Y157937D01*
X82681Y158593D01*
X83993D01*
X84649Y157937D01*
Y155313D01*
X76777Y158593D02*
Y154657D01*
X74809D01*
X74154Y155313D01*
Y156625D01*
X74809Y157281D01*
X76777D01*
X75465D02*
X74154Y158593D01*
X70218Y154657D02*
X72842D01*
Y158593D01*
X70218D01*
X72842Y156625D02*
X71530D01*
X68906Y154657D02*
Y157281D01*
X67594Y158593D01*
X66282Y157281D01*
Y154657D01*
X61034Y158593D02*
Y155969D01*
X59723Y154657D01*
X58411Y155969D01*
Y158593D01*
Y156625D01*
X61034D01*
X57099Y155313D02*
X56443Y154657D01*
X55131D01*
X54475Y155313D01*
Y157937D01*
X55131Y158593D01*
X56443D01*
X57099Y157937D01*
Y155313D01*
X135813Y165206D02*
Y162582D01*
X134502Y161270D01*
X133190Y162582D01*
Y165206D01*
Y163238D01*
X135813D01*
X129254Y161926D02*
X129910Y161270D01*
X131222D01*
X131878Y161926D01*
Y162582D01*
X131222Y163238D01*
X129910D01*
X129254Y163894D01*
Y164550D01*
X129910Y165206D01*
X131222D01*
X131878Y164550D01*
X125318Y161926D02*
X125974Y161270D01*
X127286D01*
X127942Y161926D01*
Y162582D01*
X127286Y163238D01*
X125974D01*
X125318Y163894D01*
Y164550D01*
X125974Y165206D01*
X127286D01*
X127942Y164550D01*
X124006Y161270D02*
Y161926D01*
X122694Y163238D01*
X121382Y161926D01*
Y161270D01*
X122694Y163238D02*
Y165206D01*
X120071Y162582D02*
X119414D01*
Y163238D01*
X120071D01*
Y162582D01*
Y164550D02*
X119414D01*
Y165206D01*
X120071D01*
Y164550D01*
X112855Y161270D02*
X110231D01*
Y161926D01*
X112855Y164550D01*
Y165206D01*
X108919D02*
X107607D01*
X108263D01*
Y161270D01*
X108919Y161926D01*
X105640D02*
X104983Y161270D01*
X103672D01*
X103016Y161926D01*
Y164550D01*
X103672Y165206D01*
X104983D01*
X105640Y164550D01*
Y161926D01*
X101704Y163238D02*
X99080D01*
X97768Y161926D02*
X97112Y161270D01*
X95800D01*
X95144Y161926D01*
Y164550D01*
X95800Y165206D01*
X97112D01*
X97768Y164550D01*
Y161926D01*
X91208Y165206D02*
X93832D01*
X91208Y162582D01*
Y161926D01*
X91864Y161270D01*
X93176D01*
X93832Y161926D01*
X89897Y165206D02*
X88585D01*
X89240D01*
Y161270D01*
X89897Y161926D01*
X86617Y164550D02*
X85961Y165206D01*
X84649D01*
X83993Y164550D01*
Y161926D01*
X84649Y161270D01*
X85961D01*
X86617Y161926D01*
Y162582D01*
X85961Y163238D01*
X83993D01*
X82681Y165206D02*
X81369D01*
X82025D01*
Y161270D01*
X82681Y161926D01*
X75465Y165206D02*
Y161270D01*
X73498D01*
X72842Y161926D01*
Y163238D01*
X73498Y163894D01*
X75465D01*
X74154D02*
X72842Y165206D01*
X68906Y161270D02*
X71530D01*
Y165206D01*
X68906D01*
X71530Y163238D02*
X70218D01*
X67594Y161270D02*
Y163894D01*
X66282Y165206D01*
X64970Y163894D01*
Y161270D01*
X59723Y165206D02*
Y162582D01*
X58411Y161270D01*
X57099Y162582D01*
Y165206D01*
Y163238D01*
X59723D01*
X55787Y161926D02*
X55131Y161270D01*
X53819D01*
X53163Y161926D01*
Y164550D01*
X53819Y165206D01*
X55131D01*
X55787Y164550D01*
Y161926D01*
X339240Y-20998D02*
X338584Y-21654D01*
Y-22966D01*
X339240Y-23622D01*
X341864D01*
X342520Y-22966D01*
Y-21654D01*
X341864Y-20998D01*
X342520Y-19030D02*
Y-17718D01*
X341864Y-17063D01*
X340552D01*
X339896Y-17718D01*
Y-19030D01*
X340552Y-19686D01*
X341864D01*
X342520Y-19030D01*
Y-15751D02*
X339896D01*
Y-13783D01*
X340552Y-13127D01*
X342520D01*
Y-11159D02*
X339240D01*
X340552D01*
Y-11815D01*
Y-10503D01*
Y-11159D01*
X339240D01*
X338584Y-10503D01*
X342520Y-8535D02*
Y-7223D01*
Y-7879D01*
X339896D01*
Y-8535D01*
X343832Y-3943D02*
Y-3287D01*
X343176Y-2631D01*
X339896D01*
Y-4599D01*
X340552Y-5255D01*
X341864D01*
X342520Y-4599D01*
Y-2631D01*
X339896Y-1319D02*
X341864D01*
X342520Y-664D01*
Y1304D01*
X339896D01*
Y2616D02*
X342520D01*
X341208D01*
X340552Y3272D01*
X339896Y3928D01*
Y4584D01*
Y7208D02*
Y8520D01*
X340552Y9176D01*
X342520D01*
Y7208D01*
X341864Y6552D01*
X341208Y7208D01*
Y9176D01*
X339240Y11144D02*
X339896D01*
Y10488D01*
Y11800D01*
Y11144D01*
X341864D01*
X342520Y11800D01*
Y13768D02*
Y15079D01*
Y14423D01*
X339896D01*
Y13768D01*
X342520Y17703D02*
Y19015D01*
X341864Y19671D01*
X340552D01*
X339896Y19015D01*
Y17703D01*
X340552Y17047D01*
X341864D01*
X342520Y17703D01*
Y20983D02*
X339896D01*
Y22951D01*
X340552Y23607D01*
X342520D01*
X339896Y24919D02*
Y25575D01*
X340552D01*
Y24919D01*
X339896D01*
X341864D02*
Y25575D01*
X342520D01*
Y24919D01*
X341864D01*
X224511Y141630D02*
X225167Y140974D01*
X226479D01*
X227135Y141630D01*
Y142286D01*
X226479Y142942D01*
X225167D01*
X224511Y143598D01*
Y144254D01*
X225167Y144910D01*
X226479D01*
X227135Y144254D01*
X223199Y144910D02*
X220575Y142286D01*
X219264Y144910D02*
Y140974D01*
X216640Y144910D01*
Y140974D01*
X397048Y-91862D02*
X399672D01*
X400984Y-90550D01*
X399672Y-89238D01*
X397048D01*
X397705Y-85302D02*
X397048Y-85958D01*
Y-87270D01*
X397705Y-87926D01*
X400328D01*
X400984Y-87270D01*
Y-85958D01*
X400328Y-85302D01*
X397705Y-83990D02*
X397048Y-83334D01*
Y-82023D01*
X397705Y-81366D01*
X400328D01*
X400984Y-82023D01*
Y-83334D01*
X400328Y-83990D01*
X397705D01*
X397048Y-47899D02*
X399672D01*
X400984Y-46587D01*
X399672Y-45275D01*
X397048D01*
X397705Y-41339D02*
X397048Y-41995D01*
Y-43307D01*
X397705Y-43963D01*
X400328D01*
X400984Y-43307D01*
Y-41995D01*
X400328Y-41339D01*
X400984Y-40027D02*
Y-38715D01*
Y-39371D01*
X397048D01*
X397705Y-40027D01*
X397048Y-5248D02*
X399672D01*
X400984Y-3936D01*
X399672Y-2624D01*
X397048D01*
X397705Y1312D02*
X397048Y656D01*
Y-656D01*
X397705Y-1312D01*
X400328D01*
X400984Y-656D01*
Y656D01*
X400328Y1312D01*
X400984Y5248D02*
Y2624D01*
X398360Y5248D01*
X397705D01*
X397048Y4592D01*
Y3280D01*
X397705Y2624D01*
X397048Y38059D02*
X399672D01*
X400984Y39371D01*
X399672Y40683D01*
X397048D01*
X397705Y44619D02*
X397048Y43963D01*
Y42651D01*
X397705Y41995D01*
X400328D01*
X400984Y42651D01*
Y43963D01*
X400328Y44619D01*
X397705Y45931D02*
X397048Y46587D01*
Y47899D01*
X397705Y48555D01*
X398360D01*
X399016Y47899D01*
Y47243D01*
Y47899D01*
X399672Y48555D01*
X400328D01*
X400984Y47899D01*
Y46587D01*
X400328Y45931D01*
X397048Y81366D02*
X399672D01*
X400984Y82678D01*
X399672Y83990D01*
X397048D01*
X397705Y87926D02*
X397048Y87270D01*
Y85958D01*
X397705Y85302D01*
X400328D01*
X400984Y85958D01*
Y87270D01*
X400328Y87926D01*
X400984Y91206D02*
X397048D01*
X399016Y89238D01*
Y91862D01*
X-37600Y63646D02*
Y61022D01*
Y62334D01*
X-41535D01*
Y59710D02*
X-38912D01*
X-37600Y58398D01*
X-38912Y57087D01*
X-41535D01*
X-39568D01*
Y59710D01*
X-41535Y55775D02*
X-37600D01*
Y53807D01*
X-38256Y53151D01*
X-39568D01*
X-40224Y53807D01*
Y55775D01*
X-41535Y51839D02*
Y50527D01*
Y51183D01*
X-37600D01*
X-38256Y51839D01*
X-37600Y93830D02*
Y91206D01*
Y92518D01*
X-41535D01*
Y89894D02*
X-38912D01*
X-37600Y88582D01*
X-38912Y87270D01*
X-41535D01*
X-39568D01*
Y89894D01*
X-41535Y85958D02*
X-37600D01*
Y83990D01*
X-38256Y83334D01*
X-39568D01*
X-40224Y83990D01*
Y85958D01*
X-41535Y79399D02*
Y82023D01*
X-38912Y79399D01*
X-38256D01*
X-37600Y80055D01*
Y81366D01*
X-38256Y82023D01*
X-37600Y123357D02*
Y120733D01*
Y122045D01*
X-41535D01*
Y119422D02*
X-38912D01*
X-37600Y118110D01*
X-38912Y116798D01*
X-41535D01*
X-39568D01*
Y119422D01*
X-41535Y115486D02*
X-37600D01*
Y113518D01*
X-38256Y112862D01*
X-39568D01*
X-40224Y113518D01*
Y115486D01*
X-38256Y111550D02*
X-37600Y110894D01*
Y109582D01*
X-38256Y108926D01*
X-38912D01*
X-39568Y109582D01*
Y110238D01*
Y109582D01*
X-40224Y108926D01*
X-40879D01*
X-41535Y109582D01*
Y110894D01*
X-40879Y111550D01*
X-37600Y-116800D02*
X-40224D01*
X-41535Y-118112D01*
X-40224Y-119423D01*
X-37600D01*
X-38256Y-123359D02*
X-37600Y-122703D01*
Y-121391D01*
X-38256Y-120735D01*
X-40879D01*
X-41535Y-121391D01*
Y-122703D01*
X-40879Y-123359D01*
X-38256Y-124671D02*
X-37600Y-125327D01*
Y-126639D01*
X-38256Y-127295D01*
X-40879D01*
X-41535Y-126639D01*
Y-125327D01*
X-40879Y-124671D01*
X-38256D01*
X-37600Y-99739D02*
X-40224D01*
X-41535Y-101051D01*
X-40224Y-102363D01*
X-37600D01*
X-38256Y-106299D02*
X-37600Y-105643D01*
Y-104331D01*
X-38256Y-103675D01*
X-40879D01*
X-41535Y-104331D01*
Y-105643D01*
X-40879Y-106299D01*
X-41535Y-107610D02*
Y-108922D01*
Y-108266D01*
X-37600D01*
X-38256Y-107610D01*
X-37600Y-81366D02*
X-40224D01*
X-41535Y-82678D01*
X-40224Y-83990D01*
X-37600D01*
X-38256Y-87926D02*
X-37600Y-87270D01*
Y-85958D01*
X-38256Y-85302D01*
X-40879D01*
X-41535Y-85958D01*
Y-87270D01*
X-40879Y-87926D01*
X-41535Y-91862D02*
Y-89238D01*
X-38912Y-91862D01*
X-38256D01*
X-37600Y-91206D01*
Y-89894D01*
X-38256Y-89238D01*
X-37600Y-63650D02*
X-40224D01*
X-41535Y-64962D01*
X-40224Y-66274D01*
X-37600D01*
X-38256Y-70210D02*
X-37600Y-69554D01*
Y-68242D01*
X-38256Y-67586D01*
X-40879D01*
X-41535Y-68242D01*
Y-69554D01*
X-40879Y-70210D01*
X-38256Y-71522D02*
X-37600Y-72177D01*
Y-73489D01*
X-38256Y-74145D01*
X-38912D01*
X-39568Y-73489D01*
Y-72833D01*
Y-73489D01*
X-40224Y-74145D01*
X-40879D01*
X-41535Y-73489D01*
Y-72177D01*
X-40879Y-71522D01*
X-37600Y-45933D02*
X-40224D01*
X-41535Y-47245D01*
X-40224Y-48557D01*
X-37600D01*
X-38256Y-52493D02*
X-37600Y-51837D01*
Y-50525D01*
X-38256Y-49869D01*
X-40879D01*
X-41535Y-50525D01*
Y-51837D01*
X-40879Y-52493D01*
X-41535Y-55773D02*
X-37600D01*
X-39568Y-53805D01*
Y-56429D01*
X-29528Y-114832D02*
Y-117455D01*
Y-116144D01*
X-33464D01*
Y-118767D02*
X-29528D01*
Y-120735D01*
X-30184Y-121391D01*
X-31496D01*
X-32152Y-120735D01*
Y-118767D01*
X-29528Y-125327D02*
Y-122703D01*
X-31496D01*
X-30840Y-124015D01*
Y-124671D01*
X-31496Y-125327D01*
X-32808D01*
X-33464Y-124671D01*
Y-123359D01*
X-32808Y-122703D01*
Y-126639D02*
X-33464Y-127295D01*
Y-128607D01*
X-32808Y-129263D01*
X-30184D01*
X-29528Y-128607D01*
Y-127295D01*
X-30184Y-126639D01*
X-30840D01*
X-31496Y-127295D01*
Y-129263D01*
X-29528Y-43966D02*
Y-46589D01*
Y-45278D01*
X-33464D01*
Y-47901D02*
X-29528D01*
Y-49869D01*
X-30184Y-50525D01*
X-31496D01*
X-32152Y-49869D01*
Y-47901D01*
X-29528Y-54461D02*
Y-51837D01*
X-31496D01*
X-30840Y-53149D01*
Y-53805D01*
X-31496Y-54461D01*
X-32808D01*
X-33464Y-53805D01*
Y-52493D01*
X-32808Y-51837D01*
X-30184Y-55773D02*
X-29528Y-56429D01*
Y-57741D01*
X-30184Y-58397D01*
X-30840D01*
X-31496Y-57741D01*
X-32152Y-58397D01*
X-32808D01*
X-33464Y-57741D01*
Y-56429D01*
X-32808Y-55773D01*
X-32152D01*
X-31496Y-56429D01*
X-30840Y-55773D01*
X-30184D01*
X-31496Y-56429D02*
Y-57741D01*
X-29528Y-97115D02*
Y-99739D01*
Y-98427D01*
X-33464D01*
Y-101051D02*
X-29528D01*
Y-103019D01*
X-30184Y-103675D01*
X-31496D01*
X-32152Y-103019D01*
Y-101051D01*
X-33464Y-106955D02*
X-29528D01*
X-31496Y-104987D01*
Y-107610D01*
X-29528Y-111546D02*
Y-108922D01*
X-31496D01*
X-30840Y-110234D01*
Y-110890D01*
X-31496Y-111546D01*
X-32808D01*
X-33464Y-110890D01*
Y-109578D01*
X-32808Y-108922D01*
X-29528Y-79399D02*
Y-82023D01*
Y-80711D01*
X-33464D01*
Y-83334D02*
X-29528D01*
Y-85302D01*
X-30184Y-85958D01*
X-31496D01*
X-32152Y-85302D01*
Y-83334D01*
X-33464Y-89238D02*
X-29528D01*
X-31496Y-87270D01*
Y-89894D01*
X-33464Y-93174D02*
X-29528D01*
X-31496Y-91206D01*
Y-93830D01*
X-29528Y-61682D02*
Y-64306D01*
Y-62994D01*
X-33464D01*
Y-65618D02*
X-29528D01*
Y-67586D01*
X-30184Y-68242D01*
X-31496D01*
X-32152Y-67586D01*
Y-65618D01*
X-33464Y-71522D02*
X-29528D01*
X-31496Y-69554D01*
Y-72177D01*
X-30184Y-73489D02*
X-29528Y-74145D01*
Y-75457D01*
X-30184Y-76113D01*
X-30840D01*
X-31496Y-75457D01*
Y-74801D01*
Y-75457D01*
X-32152Y-76113D01*
X-32808D01*
X-33464Y-75457D01*
Y-74145D01*
X-32808Y-73489D01*
X261485Y15749D02*
Y19684D01*
X263453D01*
X264108Y19028D01*
Y17717D01*
X263453Y17061D01*
X261485D01*
X262796D02*
X264108Y15749D01*
X265420Y19684D02*
X268044D01*
Y19028D01*
X265420Y16405D01*
Y15749D01*
X271980Y19684D02*
X270668Y19028D01*
X269356Y17717D01*
Y16405D01*
X270012Y15749D01*
X271324D01*
X271980Y16405D01*
Y17061D01*
X271324Y17717D01*
X269356D01*
X136485Y51182D02*
Y55117D01*
X138452D01*
X139108Y54461D01*
Y53150D01*
X138452Y52494D01*
X136485D01*
X137796D02*
X139108Y51182D01*
X140420Y55117D02*
X143044D01*
Y54461D01*
X140420Y51838D01*
Y51182D01*
X144356Y54461D02*
X145012Y55117D01*
X146324D01*
X146980Y54461D01*
Y53806D01*
X146324Y53150D01*
X145668D01*
X146324D01*
X146980Y52494D01*
Y51838D01*
X146324Y51182D01*
X145012D01*
X144356Y51838D01*
X10500Y15749D02*
Y19684D01*
X12468D01*
X13124Y19028D01*
Y17717D01*
X12468Y17061D01*
X10500D01*
X11812D02*
X13124Y15749D01*
X17060Y19684D02*
X15748Y19028D01*
X14436Y17717D01*
Y16405D01*
X15092Y15749D01*
X16404D01*
X17060Y16405D01*
Y17061D01*
X16404Y17717D01*
X14436D01*
X20996Y19684D02*
X18372D01*
Y17717D01*
X19684Y18372D01*
X20340D01*
X20996Y17717D01*
Y16405D01*
X20340Y15749D01*
X19028D01*
X18372Y16405D01*
X10500Y-70865D02*
Y-66930D01*
X12468D01*
X13124Y-67586D01*
Y-68898D01*
X12468Y-69554D01*
X10500D01*
X11812D02*
X13124Y-70865D01*
X17060Y-66930D02*
X14436D01*
Y-68898D01*
X15748Y-68242D01*
X16404D01*
X17060Y-68898D01*
Y-70210D01*
X16404Y-70865D01*
X15092D01*
X14436Y-70210D01*
X18372Y-67586D02*
X19028Y-66930D01*
X20340D01*
X20996Y-67586D01*
Y-68242D01*
X20340Y-68898D01*
X19684D01*
X20340D01*
X20996Y-69554D01*
Y-70210D01*
X20340Y-70865D01*
X19028D01*
X18372Y-70210D01*
X10500Y102363D02*
Y106299D01*
X12468D01*
X13124Y105643D01*
Y104331D01*
X12468Y103675D01*
X10500D01*
X11812D02*
X13124Y102363D01*
X17060Y106299D02*
X14436D01*
Y104331D01*
X15748Y104987D01*
X16404D01*
X17060Y104331D01*
Y103019D01*
X16404Y102363D01*
X15092D01*
X14436Y103019D01*
X20996Y102363D02*
X18372D01*
X20996Y104987D01*
Y105643D01*
X20340Y106299D01*
X19028D01*
X18372Y105643D01*
X137469Y137795D02*
X136157D01*
X136813D01*
Y134515D01*
X136157Y133859D01*
X135501D01*
X134845Y134515D01*
X138780Y133859D02*
Y137795D01*
X140748D01*
X141404Y137139D01*
Y135827D01*
X140748Y135171D01*
X138780D01*
X142716Y133859D02*
X144028D01*
X143372D01*
Y137795D01*
X142716Y137139D01*
X145996D02*
X146652Y137795D01*
X147964D01*
X148620Y137139D01*
Y134515D01*
X147964Y133859D01*
X146652D01*
X145996Y134515D01*
Y137139D01*
X-34449Y-20342D02*
X-38385D01*
X-36417D01*
Y-22966D01*
X-34449D01*
X-38385D01*
X-35105Y-24278D02*
X-34449Y-24934D01*
Y-26246D01*
X-35105Y-26902D01*
X-35761D01*
X-36417Y-26246D01*
Y-25590D01*
Y-26246D01*
X-37073Y-26902D01*
X-37729D01*
X-38385Y-26246D01*
Y-24934D01*
X-37729Y-24278D01*
X-34449Y22309D02*
X-38385D01*
X-36417D01*
Y19685D01*
X-34449D01*
X-38385D01*
Y18373D02*
Y17061D01*
Y17717D01*
X-34449D01*
X-35105Y18373D01*
X-34449Y-657D02*
X-38385D01*
X-36417D01*
Y-3281D01*
X-34449D01*
X-38385D01*
Y-7217D02*
Y-4593D01*
X-35761Y-7217D01*
X-35105D01*
X-34449Y-6561D01*
Y-5249D01*
X-35105Y-4593D01*
D12*
X306133Y137795D02*
X310070Y141732D01*
X314007Y137795D01*
X310070Y118110D02*
Y141732D01*
X78740Y-137795D02*
X208661D01*
Y-106299D02*
Y-106295D01*
X78740D02*
X208661D01*
X78740Y-169291D02*
Y-74803D01*
Y-169291D02*
X208661D01*
Y-74803D01*
X78740D02*
X208661D01*
X-40354Y31496D02*
X-15748D01*
X-40354Y7874D02*
X-15748D01*
X-40354Y-31496D02*
X-15748D01*
X-40354Y-15748D02*
X-15748D01*
X126237Y-146945D02*
Y-140947D01*
X123238Y-143946D01*
X127237D01*
X139233Y-141946D02*
X138233Y-140947D01*
X136234D01*
X135234Y-141946D01*
Y-145945D01*
X136234Y-146945D01*
X138233D01*
X139233Y-145945D01*
X145231Y-140947D02*
X141232D01*
Y-146945D01*
X145231D01*
X141232Y-143946D02*
X143232D01*
X147231Y-140947D02*
Y-146945D01*
X151229D01*
X153229Y-140947D02*
Y-146945D01*
X157227D01*
X159227Y-142946D02*
X160226D01*
Y-143946D01*
X159227D01*
Y-142946D01*
Y-145945D02*
X160226D01*
Y-146945D01*
X159227D01*
Y-145945D01*
X83251Y-150544D02*
Y-156542D01*
X86250D01*
X87250Y-155543D01*
Y-151544D01*
X86250Y-150544D01*
X83251D01*
X89249Y-156542D02*
Y-150544D01*
X93248Y-156542D01*
Y-150544D01*
X95247Y-156542D02*
Y-150544D01*
X98246D01*
X99246Y-151544D01*
Y-153543D01*
X98246Y-154543D01*
X95247D01*
X101245Y-152544D02*
X102245D01*
Y-153543D01*
X101245D01*
Y-152544D01*
Y-155543D02*
X102245D01*
Y-156542D01*
X101245D01*
Y-155543D01*
X112242Y-156542D02*
Y-150544D01*
X115241D01*
X116241Y-151544D01*
Y-153543D01*
X115241Y-154543D01*
X112242D01*
X114241D02*
X116241Y-156542D01*
X122239Y-150544D02*
X118240D01*
Y-153543D01*
X120239Y-152544D01*
X121239D01*
X122239Y-153543D01*
Y-155543D01*
X121239Y-156542D01*
X119240D01*
X118240Y-155543D01*
X128237Y-156542D02*
X124238D01*
X128237Y-152544D01*
Y-151544D01*
X127237Y-150544D01*
X125238D01*
X124238Y-151544D01*
X131236Y-157542D02*
X132235Y-156542D01*
Y-155543D01*
X131236D01*
Y-156542D01*
X132235D01*
X131236Y-157542D01*
X130236Y-158542D01*
X136234Y-156542D02*
Y-150544D01*
X139233D01*
X140233Y-151544D01*
Y-153543D01*
X139233Y-154543D01*
X136234D01*
X138233D02*
X140233Y-156542D01*
X146231Y-150544D02*
X142232D01*
Y-153543D01*
X144231Y-152544D01*
X145231D01*
X146231Y-153543D01*
Y-155543D01*
X145231Y-156542D01*
X143232D01*
X142232Y-155543D01*
X148230Y-151544D02*
X149230Y-150544D01*
X151229D01*
X152229Y-151544D01*
Y-152544D01*
X151229Y-153543D01*
X150230D01*
X151229D01*
X152229Y-154543D01*
Y-155543D01*
X151229Y-156542D01*
X149230D01*
X148230Y-155543D01*
X155228Y-157542D02*
X156228Y-156542D01*
Y-155543D01*
X155228D01*
Y-156542D01*
X156228D01*
X155228Y-157542D01*
X154228Y-158542D01*
X160226Y-156542D02*
Y-150544D01*
X163225D01*
X164225Y-151544D01*
Y-153543D01*
X163225Y-154543D01*
X160226D01*
X162226D02*
X164225Y-156542D01*
X166224Y-150544D02*
X170223D01*
Y-151544D01*
X166224Y-155543D01*
Y-156542D01*
X172222Y-151544D02*
X173222Y-150544D01*
X175222D01*
X176221Y-151544D01*
Y-152544D01*
X175222Y-153543D01*
X174222D01*
X175222D01*
X176221Y-154543D01*
Y-155543D01*
X175222Y-156542D01*
X173222D01*
X172222Y-155543D01*
X179220Y-157542D02*
X180220Y-156542D01*
Y-155543D01*
X179220D01*
Y-156542D01*
X180220D01*
X179220Y-157542D01*
X178220Y-158542D01*
X184219Y-156542D02*
Y-150544D01*
X187218D01*
X188217Y-151544D01*
Y-153543D01*
X187218Y-154543D01*
X184219D01*
X186218D02*
X188217Y-156542D01*
X190217Y-150544D02*
X194215D01*
Y-151544D01*
X190217Y-155543D01*
Y-156542D01*
X200213Y-150544D02*
X198214Y-151544D01*
X196215Y-153543D01*
Y-155543D01*
X197214Y-156542D01*
X199214D01*
X200213Y-155543D01*
Y-154543D01*
X199214Y-153543D01*
X196215D01*
X120739Y-160142D02*
X118740D01*
X119739D01*
Y-165140D01*
X118740Y-166140D01*
X117740D01*
X116740Y-165140D01*
X122738Y-166140D02*
Y-160142D01*
X125738D01*
X126737Y-161142D01*
Y-163141D01*
X125738Y-164141D01*
X122738D01*
X128736Y-166140D02*
X130736D01*
X129736D01*
Y-160142D01*
X128736Y-161142D01*
X133735D02*
X134734Y-160142D01*
X136734D01*
X137734Y-161142D01*
Y-165140D01*
X136734Y-166140D01*
X134734D01*
X133735Y-165140D01*
Y-161142D01*
X145731Y-163141D02*
X149730D01*
X151729Y-166140D02*
X154728Y-163141D01*
X151729Y-160142D01*
X162725Y-166140D02*
Y-162141D01*
X164725Y-160142D01*
X166724Y-162141D01*
Y-166140D01*
Y-163141D01*
X162725D01*
X2816Y4998D02*
X-3182D01*
Y1999D01*
X-2182Y1000D01*
X-1182D01*
X-183Y1999D01*
Y4998D01*
Y1999D01*
X817Y1000D01*
X1816D01*
X2816Y1999D01*
Y4998D01*
X-3182Y-1000D02*
X2816D01*
X817Y-2999D01*
X2816Y-4998D01*
X-3182D01*
X-7781Y23992D02*
X-6781Y24992D01*
Y26991D01*
X-7781Y27991D01*
X-11780D01*
X-12779Y26991D01*
Y24992D01*
X-11780Y23992D01*
X-12779Y20993D02*
Y18994D01*
X-11780Y17994D01*
X-9781D01*
X-8781Y18994D01*
Y20993D01*
X-9781Y21993D01*
X-11780D01*
X-12779Y20993D01*
Y15995D02*
X-8781D01*
Y12996D01*
X-9781Y11996D01*
X-12779D01*
Y9997D02*
X-8781D01*
Y6998D01*
X-9781Y5998D01*
X-12779D01*
Y1000D02*
Y2999D01*
X-11780Y3999D01*
X-9781D01*
X-8781Y2999D01*
Y1000D01*
X-9781Y-0D01*
X-10780D01*
Y3999D01*
X-8781Y-5998D02*
Y-2999D01*
X-9781Y-1999D01*
X-11780D01*
X-12779Y-2999D01*
Y-5998D01*
X-7781Y-8997D02*
X-8781D01*
Y-7997D01*
Y-9997D01*
Y-8997D01*
X-11780D01*
X-12779Y-9997D01*
Y-12996D02*
Y-14995D01*
Y-13995D01*
X-8781D01*
Y-12996D01*
X-12779Y-18994D02*
Y-20993D01*
X-11780Y-21993D01*
X-9781D01*
X-8781Y-20993D01*
Y-18994D01*
X-9781Y-17994D01*
X-11780D01*
X-12779Y-18994D01*
Y-23992D02*
X-8781D01*
Y-26991D01*
X-9781Y-27991D01*
X-12779D01*
X92123Y129828D02*
X93122Y130828D01*
Y132827D01*
X92123Y133827D01*
X88124D01*
X87124Y132827D01*
Y130828D01*
X88124Y129828D01*
X87124Y124830D02*
Y126829D01*
X88124Y127829D01*
X90123D01*
X91123Y126829D01*
Y124830D01*
X90123Y123830D01*
X89123D01*
Y127829D01*
X87124Y121830D02*
X91123D01*
Y118832D01*
X90123Y117832D01*
X87124D01*
X92123Y114833D02*
X91123D01*
Y115832D01*
Y113833D01*
Y114833D01*
X88124D01*
X87124Y113833D01*
Y107835D02*
Y109834D01*
X88124Y110834D01*
X90123D01*
X91123Y109834D01*
Y107835D01*
X90123Y106835D01*
X89123D01*
Y110834D01*
X91123Y104836D02*
X87124D01*
X89123D01*
X90123Y103836D01*
X91123Y102837D01*
Y101837D01*
X92123Y97838D02*
X91123D01*
Y98838D01*
Y96839D01*
Y97838D01*
X88124D01*
X87124Y96839D01*
X91123Y92840D02*
Y90841D01*
X90123Y89841D01*
X87124D01*
Y92840D01*
X88124Y93840D01*
X89123Y92840D01*
Y89841D01*
X85125Y87841D02*
X91123D01*
Y84842D01*
X90123Y83843D01*
X88124D01*
X87124Y84842D01*
Y87841D01*
X85125Y75845D02*
Y74846D01*
X86124Y73846D01*
X91123D01*
Y69847D02*
X88124D01*
X87124Y68848D01*
Y65849D01*
X91123D01*
X87124Y63849D02*
X91123D01*
Y62850D01*
X90123Y61850D01*
X87124D01*
X90123D01*
X91123Y60850D01*
X90123Y59851D01*
X87124D01*
X85125Y57851D02*
X91123D01*
Y54852D01*
X90123Y53852D01*
X88124D01*
X87124Y54852D01*
Y57851D01*
Y48854D02*
Y50854D01*
X88124Y51853D01*
X90123D01*
X91123Y50854D01*
Y48854D01*
X90123Y47855D01*
X89123D01*
Y51853D01*
X91123Y45855D02*
X87124D01*
X89123D01*
X90123Y44855D01*
X91123Y43856D01*
Y42856D01*
X87124Y39857D02*
Y36858D01*
X88124Y35858D01*
X89123Y36858D01*
Y38857D01*
X90123Y39857D01*
X91123Y38857D01*
Y35858D01*
X75527Y133327D02*
X79526D01*
Y132327D01*
X78526Y131327D01*
X75527D01*
X78526D01*
X79526Y130328D01*
X78526Y129328D01*
X75527D01*
X79526Y127329D02*
X76527D01*
X75527Y126329D01*
Y123330D01*
X79526D01*
X75527Y121331D02*
Y118332D01*
X76527Y117332D01*
X77526Y118332D01*
Y120331D01*
X78526Y121331D01*
X79526Y120331D01*
Y117332D01*
X80525Y114333D02*
X79526D01*
Y115333D01*
Y113333D01*
Y114333D01*
X76527D01*
X75527Y113333D01*
X81525Y104336D02*
X75527D01*
Y101337D01*
X76527Y100338D01*
X77526D01*
X78526D01*
X79526Y101337D01*
Y104336D01*
X75527Y95339D02*
Y97338D01*
X76527Y98338D01*
X78526D01*
X79526Y97338D01*
Y95339D01*
X78526Y94339D01*
X77526D01*
Y98338D01*
X73528Y86342D02*
X79526D01*
Y83343D01*
X78526Y82343D01*
X76527D01*
X75527Y83343D01*
Y86342D01*
Y79344D02*
Y77345D01*
X76527Y76345D01*
X78526D01*
X79526Y77345D01*
Y79344D01*
X78526Y80344D01*
X76527D01*
X75527Y79344D01*
X73528Y74346D02*
X79526D01*
Y71347D01*
X78526Y70347D01*
X76527D01*
X75527Y71347D01*
Y74346D01*
X79526Y68348D02*
X76527D01*
X75527Y67348D01*
Y64349D01*
X79526D01*
X75527Y62350D02*
Y60350D01*
Y61350D01*
X81525D01*
Y62350D01*
X79526Y56352D02*
Y54352D01*
X78526Y53353D01*
X75527D01*
Y56352D01*
X76527Y57351D01*
X77526Y56352D01*
Y53353D01*
X80525Y50354D02*
X79526D01*
Y51353D01*
Y49354D01*
Y50354D01*
X76527D01*
X75527Y49354D01*
Y43356D02*
Y45355D01*
X76527Y46355D01*
X78526D01*
X79526Y45355D01*
Y43356D01*
X78526Y42356D01*
X77526D01*
Y46355D01*
X81525Y36358D02*
X75527D01*
Y39357D01*
X76527Y40357D01*
X78526D01*
X79526Y39357D01*
Y36358D01*
X67929Y130328D02*
X64930D01*
X63930Y129328D01*
X64930Y128328D01*
X63930Y127329D01*
X64930Y126329D01*
X67929D01*
X63930Y124330D02*
Y122330D01*
Y123330D01*
X67929D01*
Y124330D01*
X68928Y118332D02*
X67929D01*
Y119331D01*
Y117332D01*
Y118332D01*
X64930D01*
X63930Y117332D01*
X69928Y114333D02*
X63930D01*
X66929D01*
X67929Y113333D01*
Y111334D01*
X66929Y110334D01*
X63930D01*
X67929Y101337D02*
Y99338D01*
X66929Y98338D01*
X63930D01*
Y101337D01*
X64930Y102337D01*
X65929Y101337D01*
Y98338D01*
X61931Y90341D02*
Y89341D01*
X62930Y88341D01*
X67929D01*
Y84343D02*
X64930D01*
X63930Y83343D01*
Y80344D01*
X67929D01*
X63930Y78345D02*
X67929D01*
Y77345D01*
X66929Y76345D01*
X63930D01*
X66929D01*
X67929Y75346D01*
X66929Y74346D01*
X63930D01*
X61931Y72347D02*
X67929D01*
Y69348D01*
X66929Y68348D01*
X64930D01*
X63930Y69348D01*
Y72347D01*
Y63349D02*
Y65349D01*
X64930Y66348D01*
X66929D01*
X67929Y65349D01*
Y63349D01*
X66929Y62350D01*
X65929D01*
Y66348D01*
X67929Y60350D02*
X63930D01*
X65929D01*
X66929Y59351D01*
X67929Y58351D01*
Y57351D01*
X63930Y47355D02*
Y45355D01*
X64930Y44356D01*
X66929D01*
X67929Y45355D01*
Y47355D01*
X66929Y48354D01*
X64930D01*
X63930Y47355D01*
X67929Y42356D02*
X63930D01*
X65929D01*
X66929Y41357D01*
X67929Y40357D01*
Y39357D01*
X56332Y123830D02*
Y121830D01*
X55332Y120831D01*
X52333D01*
Y123830D01*
X53333Y124830D01*
X54332Y123830D01*
Y120831D01*
X52333Y118832D02*
X56332D01*
Y117832D01*
X55332Y116832D01*
X52333D01*
X55332D01*
X56332Y115832D01*
X55332Y114833D01*
X52333D01*
Y112833D02*
X56332D01*
Y111834D01*
X55332Y110834D01*
X52333D01*
X55332D01*
X56332Y109834D01*
X55332Y108835D01*
X52333D01*
Y103836D02*
Y105836D01*
X53333Y106835D01*
X55332D01*
X56332Y105836D01*
Y103836D01*
X55332Y102837D01*
X54332D01*
Y106835D01*
X57331Y99838D02*
X56332D01*
Y100837D01*
Y98838D01*
Y99838D01*
X53333D01*
X52333Y98838D01*
Y92840D02*
Y94839D01*
X53333Y95839D01*
X55332D01*
X56332Y94839D01*
Y92840D01*
X55332Y91840D01*
X54332D01*
Y95839D01*
X56332Y89841D02*
X52333D01*
X54332D01*
X55332Y88841D01*
X56332Y87841D01*
Y86842D01*
X58331Y77845D02*
X52333D01*
Y74846D01*
X53333Y73846D01*
X54332D01*
X55332D01*
X56332Y74846D01*
Y77845D01*
X52333Y68848D02*
Y70847D01*
X53333Y71847D01*
X55332D01*
X56332Y70847D01*
Y68848D01*
X55332Y67848D01*
X54332D01*
Y71847D01*
X52333Y64849D02*
X57331D01*
X55332D01*
Y65849D01*
Y63849D01*
Y64849D01*
X57331D01*
X58331Y63849D01*
X52333Y59851D02*
Y57851D01*
X53333Y56852D01*
X55332D01*
X56332Y57851D01*
Y59851D01*
X55332Y60850D01*
X53333D01*
X52333Y59851D01*
X56332Y54852D02*
X52333D01*
X54332D01*
X55332Y53852D01*
X56332Y52853D01*
Y51853D01*
X52333Y45855D02*
Y47855D01*
X53333Y48854D01*
X55332D01*
X56332Y47855D01*
Y45855D01*
X55332Y44855D01*
X54332D01*
Y48854D01*
X46734Y138825D02*
Y141824D01*
X45734Y142824D01*
X43735D01*
X42735Y141824D01*
Y138825D01*
Y135826D02*
Y133827D01*
X43735Y132827D01*
X45734D01*
X46734Y133827D01*
Y135826D01*
X45734Y136826D01*
X43735D01*
X42735Y135826D01*
Y130828D02*
X46734D01*
Y127829D01*
X45734Y126829D01*
X42735D01*
Y124830D02*
X46734D01*
Y121830D01*
X45734Y120831D01*
X42735D01*
Y115832D02*
Y117832D01*
X43735Y118832D01*
X45734D01*
X46734Y117832D01*
Y115832D01*
X45734Y114833D01*
X44735D01*
Y118832D01*
X46734Y108835D02*
Y111834D01*
X45734Y112833D01*
X43735D01*
X42735Y111834D01*
Y108835D01*
X47734Y105836D02*
X46734D01*
Y106835D01*
Y104836D01*
Y105836D01*
X43735D01*
X42735Y104836D01*
Y101837D02*
Y99838D01*
Y100837D01*
X46734D01*
Y101837D01*
X42735Y96839D02*
X46734D01*
Y93840D01*
X45734Y92840D01*
X42735D01*
X40736Y88841D02*
Y87841D01*
X41736Y86842D01*
X46734D01*
Y89841D01*
X45734Y90841D01*
X43735D01*
X42735Y89841D01*
Y86842D01*
X48733Y78844D02*
X42735D01*
Y75845D01*
X43735Y74846D01*
X47734D01*
X48733Y75845D01*
Y78844D01*
X42735Y69847D02*
Y71847D01*
X43735Y72846D01*
X45734D01*
X46734Y71847D01*
Y69847D01*
X45734Y68848D01*
X44735D01*
Y72846D01*
X46734Y66848D02*
X42735Y64849D01*
X46734Y62850D01*
X48733Y54852D02*
X42735D01*
Y51853D01*
X43735Y50854D01*
X44735D01*
X45734Y51853D01*
Y54852D01*
Y51853D01*
X46734Y50854D01*
X47734D01*
X48733Y51853D01*
Y54852D01*
X42735Y47855D02*
Y45855D01*
X43735Y44855D01*
X45734D01*
X46734Y45855D01*
Y47855D01*
X45734Y48854D01*
X43735D01*
X42735Y47855D01*
X46734Y41856D02*
Y39857D01*
X45734Y38857D01*
X42735D01*
Y41856D01*
X43735Y42856D01*
X44735Y41856D01*
Y38857D01*
X46734Y36858D02*
X42735D01*
X44735D01*
X45734Y35858D01*
X46734Y34859D01*
Y33859D01*
X48733Y26861D02*
X42735D01*
Y29860D01*
X43735Y30860D01*
X45734D01*
X46734Y29860D01*
Y26861D01*
X127237Y-83952D02*
X123238D01*
X127237Y-79954D01*
Y-78954D01*
X126237Y-77955D01*
X124238D01*
X123238Y-78954D01*
X139233D02*
X138233Y-77955D01*
X136234D01*
X135234Y-78954D01*
Y-82953D01*
X136234Y-83952D01*
X138233D01*
X139233Y-82953D01*
X145231Y-77955D02*
X141232D01*
Y-83952D01*
X145231D01*
X141232Y-80954D02*
X143232D01*
X147231Y-77955D02*
Y-83952D01*
X151229D01*
X153229Y-77955D02*
Y-83952D01*
X157227D01*
X159227Y-79954D02*
X160226D01*
Y-80954D01*
X159227D01*
Y-79954D01*
Y-82953D02*
X160226D01*
Y-83952D01*
X159227D01*
Y-82953D01*
X107243Y-87552D02*
Y-93550D01*
X110242D01*
X111242Y-92550D01*
Y-88552D01*
X110242Y-87552D01*
X107243D01*
X113242Y-93550D02*
Y-87552D01*
X117240Y-93550D01*
Y-87552D01*
X119240Y-93550D02*
Y-87552D01*
X122239D01*
X123238Y-88552D01*
Y-90551D01*
X122239Y-91551D01*
X119240D01*
X125238Y-89552D02*
X126237D01*
Y-90551D01*
X125238D01*
Y-89552D01*
Y-92550D02*
X126237D01*
Y-93550D01*
X125238D01*
Y-92550D01*
X136234Y-93550D02*
Y-87552D01*
X139233D01*
X140233Y-88552D01*
Y-90551D01*
X139233Y-91551D01*
X136234D01*
X138233D02*
X140233Y-93550D01*
X146231Y-87552D02*
X144231Y-88552D01*
X142232Y-90551D01*
Y-92550D01*
X143232Y-93550D01*
X145231D01*
X146231Y-92550D01*
Y-91551D01*
X145231Y-90551D01*
X142232D01*
X152229Y-87552D02*
X148230D01*
Y-90551D01*
X150230Y-89552D01*
X151229D01*
X152229Y-90551D01*
Y-92550D01*
X151229Y-93550D01*
X149230D01*
X148230Y-92550D01*
X155228Y-94550D02*
X156228Y-93550D01*
Y-92550D01*
X155228D01*
Y-93550D01*
X156228D01*
X155228Y-94550D01*
X154228Y-95550D01*
X160226Y-93550D02*
Y-87552D01*
X163225D01*
X164225Y-88552D01*
Y-90551D01*
X163225Y-91551D01*
X160226D01*
X162226D02*
X164225Y-93550D01*
X166224Y-87552D02*
X170223D01*
Y-88552D01*
X166224Y-92550D01*
Y-93550D01*
X172222Y-88552D02*
X173222Y-87552D01*
X175222D01*
X176221Y-88552D01*
Y-89552D01*
X175222Y-90551D01*
X174222D01*
X175222D01*
X176221Y-91551D01*
Y-92550D01*
X175222Y-93550D01*
X173222D01*
X172222Y-92550D01*
X120739Y-97150D02*
X118740D01*
X119739D01*
Y-102148D01*
X118740Y-103148D01*
X117740D01*
X116740Y-102148D01*
X122738Y-103148D02*
Y-97150D01*
X125738D01*
X126737Y-98150D01*
Y-100149D01*
X125738Y-101148D01*
X122738D01*
X128736Y-103148D02*
X130736D01*
X129736D01*
Y-97150D01*
X128736Y-98150D01*
X133735D02*
X134734Y-97150D01*
X136734D01*
X137734Y-98150D01*
Y-102148D01*
X136734Y-103148D01*
X134734D01*
X133735Y-102148D01*
Y-98150D01*
X145731Y-100149D02*
X149730D01*
X151729Y-103148D02*
X154728Y-100149D01*
X151729Y-97150D01*
X162725D02*
Y-103148D01*
X165725D01*
X166724Y-102148D01*
Y-101148D01*
X165725Y-100149D01*
X162725D01*
X165725D01*
X166724Y-99149D01*
Y-98150D01*
X165725Y-97150D01*
X162725D01*
X123238Y-110450D02*
X124238Y-109450D01*
X126237D01*
X127237Y-110450D01*
Y-111450D01*
X126237Y-112450D01*
X125238D01*
X126237D01*
X127237Y-113449D01*
Y-114449D01*
X126237Y-115449D01*
X124238D01*
X123238Y-114449D01*
X139233Y-110450D02*
X138233Y-109450D01*
X136234D01*
X135234Y-110450D01*
Y-114449D01*
X136234Y-115449D01*
X138233D01*
X139233Y-114449D01*
X145231Y-109450D02*
X141232D01*
Y-115449D01*
X145231D01*
X141232Y-112450D02*
X143232D01*
X147231Y-109450D02*
Y-115449D01*
X151229D01*
X153229Y-109450D02*
Y-115449D01*
X157227D01*
X159227Y-111450D02*
X160226D01*
Y-112450D01*
X159227D01*
Y-111450D01*
Y-114449D02*
X160226D01*
Y-115449D01*
X159227D01*
Y-114449D01*
X86250Y-119048D02*
Y-125046D01*
X89249D01*
X90249Y-124047D01*
Y-120048D01*
X89249Y-119048D01*
X86250D01*
X92248Y-125046D02*
Y-119048D01*
X96247Y-125046D01*
Y-119048D01*
X98246Y-125046D02*
Y-119048D01*
X101245D01*
X102245Y-120048D01*
Y-122047D01*
X101245Y-123047D01*
X98246D01*
X104244Y-121048D02*
X105244D01*
Y-122047D01*
X104244D01*
Y-121048D01*
Y-124047D02*
X105244D01*
Y-125046D01*
X104244D01*
Y-124047D01*
X115241Y-119048D02*
Y-125046D01*
X118240D01*
X119240Y-124047D01*
Y-123047D01*
X118240Y-122047D01*
X115241D01*
X118240D01*
X119240Y-121048D01*
Y-120048D01*
X118240Y-119048D01*
X115241D01*
X121239Y-120048D02*
X122239Y-119048D01*
X124238D01*
X125238Y-120048D01*
Y-121048D01*
X124238Y-122047D01*
X123238D01*
X124238D01*
X125238Y-123047D01*
Y-124047D01*
X124238Y-125046D01*
X122239D01*
X121239Y-124047D01*
X128237Y-126046D02*
X129236Y-125046D01*
Y-124047D01*
X128237D01*
Y-125046D01*
X129236D01*
X128237Y-126046D01*
X127237Y-127046D01*
X133235Y-125046D02*
Y-119048D01*
X136234D01*
X137234Y-120048D01*
Y-122047D01*
X136234Y-123047D01*
X133235D01*
X135234D02*
X137234Y-125046D01*
X143232Y-119048D02*
X139233D01*
Y-122047D01*
X141232Y-121048D01*
X142232D01*
X143232Y-122047D01*
Y-124047D01*
X142232Y-125046D01*
X140233D01*
X139233Y-124047D01*
X149230Y-125046D02*
X145231D01*
X149230Y-121048D01*
Y-120048D01*
X148230Y-119048D01*
X146231D01*
X145231Y-120048D01*
X152229Y-126046D02*
X153229Y-125046D01*
Y-124047D01*
X152229D01*
Y-125046D01*
X153229D01*
X152229Y-126046D01*
X151229Y-127046D01*
X157227Y-125046D02*
Y-119048D01*
X160226D01*
X161226Y-120048D01*
Y-122047D01*
X160226Y-123047D01*
X157227D01*
X159227D02*
X161226Y-125046D01*
X167224Y-119048D02*
X163225D01*
Y-122047D01*
X165225Y-121048D01*
X166224D01*
X167224Y-122047D01*
Y-124047D01*
X166224Y-125046D01*
X164225D01*
X163225Y-124047D01*
X169223Y-120048D02*
X170223Y-119048D01*
X172222D01*
X173222Y-120048D01*
Y-121048D01*
X172222Y-122047D01*
X171223D01*
X172222D01*
X173222Y-123047D01*
Y-124047D01*
X172222Y-125046D01*
X170223D01*
X169223Y-124047D01*
X176221Y-126046D02*
X177221Y-125046D01*
Y-124047D01*
X176221D01*
Y-125046D01*
X177221D01*
X176221Y-126046D01*
X175222Y-127046D01*
X181219Y-125046D02*
Y-119048D01*
X184219D01*
X185218Y-120048D01*
Y-122047D01*
X184219Y-123047D01*
X181219D01*
X183219D02*
X185218Y-125046D01*
X187218Y-119048D02*
X191216D01*
Y-120048D01*
X187218Y-124047D01*
Y-125046D01*
X197214Y-119048D02*
X195215Y-120048D01*
X193216Y-122047D01*
Y-124047D01*
X194215Y-125046D01*
X196215D01*
X197214Y-124047D01*
Y-123047D01*
X196215Y-122047D01*
X193216D01*
X120739Y-128646D02*
X118740D01*
X119739D01*
Y-133644D01*
X118740Y-134644D01*
X117740D01*
X116740Y-133644D01*
X122738Y-134644D02*
Y-128646D01*
X125738D01*
X126737Y-129646D01*
Y-131645D01*
X125738Y-132645D01*
X122738D01*
X128736Y-134644D02*
X130736D01*
X129736D01*
Y-128646D01*
X128736Y-129646D01*
X133735D02*
X134734Y-128646D01*
X136734D01*
X137734Y-129646D01*
Y-133644D01*
X136734Y-134644D01*
X134734D01*
X133735Y-133644D01*
Y-129646D01*
X145731Y-131645D02*
X149730D01*
X151729Y-134644D02*
X154728Y-131645D01*
X151729Y-128646D01*
X162725D02*
Y-134644D01*
X165725D01*
X166724Y-133644D01*
Y-132645D01*
X165725Y-131645D01*
X162725D01*
X165725D01*
X166724Y-130645D01*
Y-129646D01*
X165725Y-128646D01*
X162725D01*
X89749Y-37355D02*
Y-43353D01*
X92748D01*
X93748Y-42354D01*
Y-41354D01*
X92748Y-40354D01*
X89749D01*
X92748D01*
X93748Y-39355D01*
Y-38355D01*
X92748Y-37355D01*
X89749D01*
X95747Y-43353D02*
Y-37355D01*
X97746Y-39355D01*
X99746Y-37355D01*
Y-43353D01*
X107743Y-37355D02*
Y-43353D01*
X110742D01*
X111742Y-42354D01*
Y-38355D01*
X110742Y-37355D01*
X107743D01*
X116740Y-43353D02*
X114741D01*
X113741Y-42354D01*
Y-40354D01*
X114741Y-39355D01*
X116740D01*
X117740Y-40354D01*
Y-41354D01*
X113741D01*
X119739Y-39355D02*
X121739Y-43353D01*
X123738Y-39355D01*
X131736Y-37355D02*
Y-43353D01*
X134734D01*
X135734Y-42354D01*
Y-41354D01*
X134734Y-40354D01*
X131736D01*
X134734D01*
X135734Y-39355D01*
Y-38355D01*
X134734Y-37355D01*
X131736D01*
X138733Y-43353D02*
X140733D01*
X141732Y-42354D01*
Y-40354D01*
X140733Y-39355D01*
X138733D01*
X137734Y-40354D01*
Y-42354D01*
X138733Y-43353D01*
X144731Y-39355D02*
X146731D01*
X147730Y-40354D01*
Y-43353D01*
X144731D01*
X143732Y-42354D01*
X144731Y-41354D01*
X147730D01*
X149730Y-39355D02*
Y-43353D01*
Y-41354D01*
X150729Y-40354D01*
X151729Y-39355D01*
X152729D01*
X159727Y-37355D02*
Y-43353D01*
X156727D01*
X155728Y-42354D01*
Y-40354D01*
X156727Y-39355D01*
X159727D01*
X171723Y-38355D02*
X170723Y-37355D01*
X168724D01*
X167724Y-38355D01*
Y-42354D01*
X168724Y-43353D01*
X170723D01*
X171723Y-42354D01*
X176721Y-43353D02*
X174722D01*
X173722Y-42354D01*
Y-40354D01*
X174722Y-39355D01*
X176721D01*
X177721Y-40354D01*
Y-41354D01*
X173722D01*
X179720Y-43353D02*
X181719D01*
X180720D01*
Y-37355D01*
X179720D01*
X184718Y-43353D02*
X186718D01*
X185718D01*
Y-37355D01*
X184718D01*
X189717Y-43353D02*
X192716D01*
X193716Y-42354D01*
X192716Y-41354D01*
X190716D01*
X189717Y-40354D01*
X190716Y-39355D01*
X193716D01*
X106213Y-64930D02*
X105213Y-63930D01*
X103214D01*
X102214Y-64930D01*
Y-68928D01*
X103214Y-69928D01*
X105213D01*
X106213Y-68928D01*
X111211Y-63930D02*
X109212D01*
X108212Y-64930D01*
Y-68928D01*
X109212Y-69928D01*
X111211D01*
X112211Y-68928D01*
Y-64930D01*
X111211Y-63930D01*
X114210Y-69928D02*
Y-63930D01*
X118209Y-69928D01*
Y-63930D01*
X124207D02*
X120208D01*
Y-66929D01*
X122208D01*
X120208D01*
Y-69928D01*
X126206Y-63930D02*
X128206D01*
X127206D01*
Y-69928D01*
X126206D01*
X128206D01*
X135204Y-64930D02*
X134204Y-63930D01*
X132204D01*
X131205Y-64930D01*
Y-68928D01*
X132204Y-69928D01*
X134204D01*
X135204Y-68928D01*
Y-66929D01*
X133204D01*
X137203Y-63930D02*
Y-68928D01*
X138203Y-69928D01*
X140202D01*
X141202Y-68928D01*
Y-63930D01*
X143201Y-69928D02*
Y-63930D01*
X146200D01*
X147200Y-64930D01*
Y-66929D01*
X146200Y-67929D01*
X143201D01*
X145200D02*
X147200Y-69928D01*
X149199D02*
Y-65929D01*
X151198Y-63930D01*
X153198Y-65929D01*
Y-69928D01*
Y-66929D01*
X149199D01*
X155197Y-63930D02*
X159196D01*
X157196D01*
Y-69928D01*
X161195Y-63930D02*
X163195D01*
X162195D01*
Y-69928D01*
X161195D01*
X163195D01*
X169193Y-63930D02*
X167193D01*
X166193Y-64930D01*
Y-68928D01*
X167193Y-69928D01*
X169193D01*
X170192Y-68928D01*
Y-64930D01*
X169193Y-63930D01*
X172192Y-69928D02*
Y-63930D01*
X176190Y-69928D01*
Y-63930D01*
X182188Y-64930D02*
X181189Y-63930D01*
X179189D01*
X178190Y-64930D01*
Y-65929D01*
X179189Y-66929D01*
X181189D01*
X182188Y-67929D01*
Y-68928D01*
X181189Y-69928D01*
X179189D01*
X178190Y-68928D01*
X184188Y-65929D02*
X185187D01*
Y-66929D01*
X184188D01*
Y-65929D01*
Y-68928D02*
X185187D01*
Y-69928D01*
X184188D01*
Y-68928D01*
X266147Y115810D02*
Y110811D01*
X267146Y109812D01*
X269146D01*
X270145Y110811D01*
Y115810D01*
X272145Y109812D02*
X275144D01*
X276143Y110811D01*
X275144Y111811D01*
X273144D01*
X272145Y112811D01*
X273144Y113810D01*
X276143D01*
X281142Y109812D02*
X279142D01*
X278143Y110811D01*
Y112811D01*
X279142Y113810D01*
X281142D01*
X282141Y112811D01*
Y111811D01*
X278143D01*
X290139Y114810D02*
X291139Y115810D01*
X293138D01*
X294138Y114810D01*
Y113810D01*
X293138Y112811D01*
X292138D01*
X293138D01*
X294138Y111811D01*
Y110811D01*
X293138Y109812D01*
X291139D01*
X290139Y110811D01*
X296137Y109812D02*
Y113810D01*
X297136D01*
X298136Y112811D01*
Y109812D01*
Y112811D01*
X299136Y113810D01*
X300136Y112811D01*
Y109812D01*
X302135D02*
Y113810D01*
X303135D01*
X304134Y112811D01*
Y109812D01*
Y112811D01*
X305134Y113810D01*
X306134Y112811D01*
Y109812D01*
X318130Y114810D02*
X317130Y115810D01*
X315131D01*
X314131Y114810D01*
Y113810D01*
X315131Y112811D01*
X317130D01*
X318130Y111811D01*
Y110811D01*
X317130Y109812D01*
X315131D01*
X314131Y110811D01*
X320129Y107812D02*
Y113810D01*
X323128D01*
X324128Y112811D01*
Y110811D01*
X323128Y109812D01*
X320129D01*
X327127Y113810D02*
X329126D01*
X330126Y112811D01*
Y109812D01*
X327127D01*
X326127Y110811D01*
X327127Y111811D01*
X330126D01*
X336124Y113810D02*
X333125D01*
X332125Y112811D01*
Y110811D01*
X333125Y109812D01*
X336124D01*
X341122D02*
X339123D01*
X338123Y110811D01*
Y112811D01*
X339123Y113810D01*
X341122D01*
X342122Y112811D01*
Y111811D01*
X338123D01*
X344121Y113810D02*
Y109812D01*
Y111811D01*
X345121Y112811D01*
X346121Y113810D01*
X347120D01*
X350119Y109812D02*
X353118D01*
X354118Y110811D01*
X353118Y111811D01*
X351119D01*
X350119Y112811D01*
X351119Y113810D01*
X354118D01*
X391883Y-28146D02*
X385884D01*
Y-25148D01*
X386884Y-24148D01*
X388884D01*
X389883Y-25148D01*
Y-28146D01*
X391883Y-21149D02*
Y-19149D01*
X390883Y-18150D01*
X388884D01*
X387884Y-19149D01*
Y-21149D01*
X388884Y-22148D01*
X390883D01*
X391883Y-21149D01*
X387884Y-16150D02*
X390883D01*
X391883Y-15151D01*
X390883Y-14151D01*
X391883Y-13151D01*
X390883Y-12152D01*
X387884D01*
X391883Y-7153D02*
Y-9153D01*
X390883Y-10152D01*
X388884D01*
X387884Y-9153D01*
Y-7153D01*
X388884Y-6154D01*
X389883D01*
Y-10152D01*
X387884Y-4154D02*
X391883D01*
X389883D01*
X388884Y-3155D01*
X387884Y-2155D01*
Y-1155D01*
X385884Y7842D02*
Y11841D01*
Y9841D01*
X391883D01*
X387884Y14840D02*
Y16839D01*
X388884Y17839D01*
X391883D01*
Y14840D01*
X390883Y13840D01*
X389883Y14840D01*
Y17839D01*
X393882Y19838D02*
X387884D01*
Y22837D01*
X388884Y23837D01*
X390883D01*
X391883Y22837D01*
Y19838D01*
Y25836D02*
Y28835D01*
X390883Y29835D01*
X389883Y28835D01*
Y26836D01*
X388884Y25836D01*
X387884Y26836D01*
Y29835D01*
X-10688Y-47627D02*
Y-45627D01*
X-11687Y-44628D01*
X-15686D01*
X-16686Y-45627D01*
Y-47627D01*
X-15686Y-48627D01*
X-11687D01*
X-10688Y-47627D01*
X-12687Y-50626D02*
X-15686D01*
X-16686Y-51626D01*
Y-54624D01*
X-12687D01*
X-11687Y-57624D02*
X-12687D01*
Y-56624D01*
Y-58623D01*
Y-57624D01*
X-15686D01*
X-16686Y-58623D01*
X-18685Y-61622D02*
X-12687D01*
Y-64621D01*
X-13687Y-65621D01*
X-15686D01*
X-16686Y-64621D01*
Y-61622D01*
X-12687Y-67620D02*
X-15686D01*
X-16686Y-68620D01*
Y-71619D01*
X-12687D01*
X-11687Y-74618D02*
X-12687D01*
Y-73618D01*
Y-75618D01*
Y-74618D01*
X-15686D01*
X-16686Y-75618D01*
X-10688Y-84615D02*
X-14686D01*
X-16686Y-86614D01*
X-14686Y-88613D01*
X-10688D01*
X-16686Y-91613D02*
Y-93612D01*
X-15686Y-94612D01*
X-13687D01*
X-12687Y-93612D01*
Y-91613D01*
X-13687Y-90613D01*
X-15686D01*
X-16686Y-91613D01*
Y-96611D02*
Y-98610D01*
Y-97611D01*
X-10688D01*
Y-96611D01*
X-11687Y-102609D02*
X-12687D01*
Y-101609D01*
Y-103609D01*
Y-102609D01*
X-15686D01*
X-16686Y-103609D01*
X-12687Y-107607D02*
Y-109607D01*
X-13687Y-110606D01*
X-16686D01*
Y-107607D01*
X-15686Y-106608D01*
X-14686Y-107607D01*
Y-110606D01*
X-18685Y-114605D02*
Y-115605D01*
X-17685Y-116604D01*
X-12687D01*
Y-113605D01*
X-13687Y-112606D01*
X-15686D01*
X-16686Y-113605D01*
Y-116604D01*
Y-121603D02*
Y-119604D01*
X-15686Y-118604D01*
X-13687D01*
X-12687Y-119604D01*
Y-121603D01*
X-13687Y-122602D01*
X-14686D01*
Y-118604D01*
X-16686Y-124602D02*
Y-127601D01*
X-15686Y-128601D01*
X-14686Y-127601D01*
Y-125602D01*
X-13687Y-124602D01*
X-12687Y-125602D01*
Y-128601D01*
X-11687Y131600D02*
X-10688Y132599D01*
Y134599D01*
X-11687Y135598D01*
X-15686D01*
X-16686Y134599D01*
Y132599D01*
X-15686Y131600D01*
X-16686Y126601D02*
Y128601D01*
X-15686Y129600D01*
X-13687D01*
X-12687Y128601D01*
Y126601D01*
X-13687Y125601D01*
X-14686D01*
Y129600D01*
X-16686Y123602D02*
X-12687D01*
Y120603D01*
X-13687Y119604D01*
X-16686D01*
X-11687Y116604D02*
X-12687D01*
Y117604D01*
Y115605D01*
Y116604D01*
X-15686D01*
X-16686Y115605D01*
Y109607D02*
Y111606D01*
X-15686Y112606D01*
X-13687D01*
X-12687Y111606D01*
Y109607D01*
X-13687Y108607D01*
X-14686D01*
Y112606D01*
X-12687Y106608D02*
X-16686D01*
X-14686D01*
X-13687Y105608D01*
X-12687Y104608D01*
Y103609D01*
X-11687Y99610D02*
X-12687D01*
Y100610D01*
Y98610D01*
Y99610D01*
X-15686D01*
X-16686Y98610D01*
X-12687Y94612D02*
Y92612D01*
X-13687Y91612D01*
X-16686D01*
Y94612D01*
X-15686Y95611D01*
X-14686Y94612D01*
Y91612D01*
X-18685Y89613D02*
X-12687D01*
Y86614D01*
X-13687Y85615D01*
X-15686D01*
X-16686Y86614D01*
Y89613D01*
X-10688Y73618D02*
Y75618D01*
Y74618D01*
X-15686D01*
X-16686Y75618D01*
Y76617D01*
X-15686Y77617D01*
X-12687Y71619D02*
X-15686D01*
X-16686Y70619D01*
Y67620D01*
X-12687D01*
X-16686Y65621D02*
X-12687D01*
Y64621D01*
X-13687Y63622D01*
X-16686D01*
X-13687D01*
X-12687Y62622D01*
X-13687Y61622D01*
X-16686D01*
X-18685Y59623D02*
X-12687D01*
Y56624D01*
X-13687Y55624D01*
X-15686D01*
X-16686Y56624D01*
Y59623D01*
Y50626D02*
Y52625D01*
X-15686Y53625D01*
X-13687D01*
X-12687Y52625D01*
Y50626D01*
X-13687Y49626D01*
X-14686D01*
Y53625D01*
X-12687Y47627D02*
X-16686D01*
X-14686D01*
X-13687Y46627D01*
X-12687Y45627D01*
Y44628D01*
X-16686Y41629D02*
Y38630D01*
X-15686Y37630D01*
X-14686Y38630D01*
Y40629D01*
X-13687Y41629D01*
X-12687Y40629D01*
Y37630D01*
D13*
X144832Y130621D02*
X146144D01*
X146800Y129965D01*
X146144Y129309D01*
X144832D01*
X145816D01*
Y130621D01*
X138700D02*
X136732D01*
Y129637D01*
X137060Y129309D01*
X137388D01*
X137716Y129637D01*
Y130621D01*
Y129637D01*
X138044Y129309D01*
X138372D01*
X138700Y129637D01*
Y130621D01*
D14*
X146963Y-30356D02*
X147534Y-32356D01*
X148106Y-30356D02*
X147534Y-32356D01*
X148106Y-30356D02*
X148677Y-32356D01*
X149248Y-30356D02*
X148677Y-32356D01*
X149948Y-30356D02*
X150519Y-32356D01*
X151091Y-30356D02*
X150519Y-32356D01*
X151091Y-30356D02*
X151662Y-32356D01*
X152233Y-30356D02*
X151662Y-32356D01*
X152933Y-30356D02*
X153504Y-32356D01*
X154076Y-30356D02*
X153504Y-32356D01*
X154076Y-30356D02*
X154647Y-32356D01*
X155218Y-30356D02*
X154647Y-32356D01*
X156061Y-32070D02*
X155918Y-32213D01*
X156061Y-32356D01*
X156204Y-32213D01*
X156061Y-32070D01*
X158575Y-30785D02*
X158289Y-30499D01*
X158003Y-30356D01*
X157575D01*
X157289Y-30499D01*
X157004Y-30785D01*
X156861Y-31213D01*
Y-31499D01*
X157004Y-31927D01*
X157289Y-32213D01*
X157575Y-32356D01*
X158003D01*
X158289Y-32213D01*
X158575Y-31927D01*
X159218Y-30356D02*
Y-31785D01*
X159360Y-32213D01*
X159646Y-32356D01*
X160074D01*
X160360Y-32213D01*
X160789Y-31785D01*
Y-30356D02*
Y-32356D01*
X161574Y-29357D02*
Y-32356D01*
Y-30785D02*
X161860Y-30499D01*
X162145Y-30356D01*
X162574D01*
X162860Y-30499D01*
X163145Y-30785D01*
X163288Y-31213D01*
Y-31499D01*
X163145Y-31927D01*
X162860Y-32213D01*
X162574Y-32356D01*
X162145D01*
X161860Y-32213D01*
X161574Y-31927D01*
X163931Y-31213D02*
X165645D01*
Y-30928D01*
X165502Y-30642D01*
X165359Y-30499D01*
X165073Y-30356D01*
X164645D01*
X164359Y-30499D01*
X164074Y-30785D01*
X163931Y-31213D01*
Y-31499D01*
X164074Y-31927D01*
X164359Y-32213D01*
X164645Y-32356D01*
X165073D01*
X165359Y-32213D01*
X165645Y-31927D01*
X167859Y-30785D02*
X167716Y-30499D01*
X167287Y-30356D01*
X166859D01*
X166430Y-30499D01*
X166287Y-30785D01*
X166430Y-31070D01*
X166716Y-31213D01*
X167430Y-31356D01*
X167716Y-31499D01*
X167859Y-31785D01*
Y-31927D01*
X167716Y-32213D01*
X167287Y-32356D01*
X166859D01*
X166430Y-32213D01*
X166287Y-31927D01*
X170201Y-30356D02*
Y-32356D01*
Y-30785D02*
X169915Y-30499D01*
X169630Y-30356D01*
X169201D01*
X168915Y-30499D01*
X168630Y-30785D01*
X168487Y-31213D01*
Y-31499D01*
X168630Y-31927D01*
X168915Y-32213D01*
X169201Y-32356D01*
X169630D01*
X169915Y-32213D01*
X170201Y-31927D01*
X171429Y-29357D02*
Y-31785D01*
X171572Y-32213D01*
X171858Y-32356D01*
X172143D01*
X171001Y-30356D02*
X172001D01*
X172572Y-29357D02*
Y-32356D01*
X174000Y-30356D02*
X172572Y-31785D01*
X173143Y-31213D02*
X174143Y-32356D01*
X174900Y-29357D02*
X175043Y-29499D01*
X175186Y-29357D01*
X175043Y-29214D01*
X174900Y-29357D01*
X175043Y-30356D02*
Y-32356D01*
X176143Y-29357D02*
Y-31785D01*
X176285Y-32213D01*
X176571Y-32356D01*
X176857D01*
X175714Y-30356D02*
X176714D01*
X177428Y-32070D02*
X177285Y-32213D01*
X177428Y-32356D01*
X177571Y-32213D01*
X177428Y-32070D01*
X179942Y-30785D02*
X179656Y-30499D01*
X179370Y-30356D01*
X178942D01*
X178656Y-30499D01*
X178371Y-30785D01*
X178228Y-31213D01*
Y-31499D01*
X178371Y-31927D01*
X178656Y-32213D01*
X178942Y-32356D01*
X179370D01*
X179656Y-32213D01*
X179942Y-31927D01*
X181298Y-30356D02*
X181013Y-30499D01*
X180727Y-30785D01*
X180584Y-31213D01*
Y-31499D01*
X180727Y-31927D01*
X181013Y-32213D01*
X181298Y-32356D01*
X181727D01*
X182013Y-32213D01*
X182298Y-31927D01*
X182441Y-31499D01*
Y-31213D01*
X182298Y-30785D01*
X182013Y-30499D01*
X181727Y-30356D01*
X181298D01*
X183098D02*
Y-32356D01*
Y-30928D02*
X183527Y-30499D01*
X183812Y-30356D01*
X184241D01*
X184526Y-30499D01*
X184669Y-30928D01*
Y-32356D01*
Y-30928D02*
X185098Y-30499D01*
X185383Y-30356D01*
X185812D01*
X186098Y-30499D01*
X186240Y-30928D01*
Y-32356D01*
X97563Y-30356D02*
X98134Y-32356D01*
X98706Y-30356D02*
X98134Y-32356D01*
X98706Y-30356D02*
X99277Y-32356D01*
X99848Y-30356D02*
X99277Y-32356D01*
X100548Y-30356D02*
X101119Y-32356D01*
X101691Y-30356D02*
X101119Y-32356D01*
X101691Y-30356D02*
X102262Y-32356D01*
X102833Y-30356D02*
X102262Y-32356D01*
X103533Y-30356D02*
X104104Y-32356D01*
X104676Y-30356D02*
X104104Y-32356D01*
X104676Y-30356D02*
X105247Y-32356D01*
X105818Y-30356D02*
X105247Y-32356D01*
X106661Y-32070D02*
X106518Y-32213D01*
X106661Y-32356D01*
X106804Y-32213D01*
X106661Y-32070D01*
X107461Y-30356D02*
Y-33356D01*
Y-30785D02*
X107747Y-30499D01*
X108032Y-30356D01*
X108461D01*
X108746Y-30499D01*
X109032Y-30785D01*
X109175Y-31213D01*
Y-31499D01*
X109032Y-31927D01*
X108746Y-32213D01*
X108461Y-32356D01*
X108032D01*
X107747Y-32213D01*
X107461Y-31927D01*
X109818Y-30356D02*
Y-31785D01*
X109960Y-32213D01*
X110246Y-32356D01*
X110675D01*
X110960Y-32213D01*
X111389Y-31785D01*
Y-30356D02*
Y-32356D01*
X112174Y-30356D02*
Y-32356D01*
Y-30928D02*
X112603Y-30499D01*
X112888Y-30356D01*
X113317D01*
X113602Y-30499D01*
X113745Y-30928D01*
Y-32356D01*
Y-30928D02*
X114174Y-30499D01*
X114459Y-30356D01*
X114888D01*
X115173Y-30499D01*
X115316Y-30928D01*
Y-32356D01*
X116259Y-30356D02*
Y-33356D01*
Y-30785D02*
X116545Y-30499D01*
X116830Y-30356D01*
X117259D01*
X117544Y-30499D01*
X117830Y-30785D01*
X117973Y-31213D01*
Y-31499D01*
X117830Y-31927D01*
X117544Y-32213D01*
X117259Y-32356D01*
X116830D01*
X116545Y-32213D01*
X116259Y-31927D01*
X118616Y-29357D02*
Y-32356D01*
X120044Y-30356D02*
X118616Y-31785D01*
X119187Y-31213D02*
X120187Y-32356D01*
X120944Y-29357D02*
X121087Y-29499D01*
X121229Y-29357D01*
X121087Y-29214D01*
X120944Y-29357D01*
X121087Y-30356D02*
Y-32356D01*
X121758Y-30356D02*
Y-32356D01*
Y-30928D02*
X122186Y-30499D01*
X122472Y-30356D01*
X122900D01*
X123186Y-30499D01*
X123329Y-30928D01*
Y-32356D01*
X125686Y-30785D02*
X125543Y-30499D01*
X125114Y-30356D01*
X124686D01*
X124257Y-30499D01*
X124115Y-30785D01*
X124257Y-31070D01*
X124543Y-31213D01*
X125257Y-31356D01*
X125543Y-31499D01*
X125686Y-31785D01*
Y-31927D01*
X125543Y-32213D01*
X125114Y-32356D01*
X124686D01*
X124257Y-32213D01*
X124115Y-31927D01*
X126314Y-30356D02*
Y-33356D01*
Y-30785D02*
X126600Y-30499D01*
X126885Y-30356D01*
X127314D01*
X127599Y-30499D01*
X127885Y-30785D01*
X128028Y-31213D01*
Y-31499D01*
X127885Y-31927D01*
X127599Y-32213D01*
X127314Y-32356D01*
X126885D01*
X126600Y-32213D01*
X126314Y-31927D01*
X130385Y-30356D02*
Y-32356D01*
Y-30785D02*
X130099Y-30499D01*
X129813Y-30356D01*
X129385D01*
X129099Y-30499D01*
X128813Y-30785D01*
X128671Y-31213D01*
Y-31499D01*
X128813Y-31927D01*
X129099Y-32213D01*
X129385Y-32356D01*
X129813D01*
X130099Y-32213D01*
X130385Y-31927D01*
X132898Y-30785D02*
X132613Y-30499D01*
X132327Y-30356D01*
X131898D01*
X131613Y-30499D01*
X131327Y-30785D01*
X131184Y-31213D01*
Y-31499D01*
X131327Y-31927D01*
X131613Y-32213D01*
X131898Y-32356D01*
X132327D01*
X132613Y-32213D01*
X132898Y-31927D01*
X133541Y-31213D02*
X135255D01*
Y-30928D01*
X135112Y-30642D01*
X134969Y-30499D01*
X134684Y-30356D01*
X134255D01*
X133969Y-30499D01*
X133684Y-30785D01*
X133541Y-31213D01*
Y-31499D01*
X133684Y-31927D01*
X133969Y-32213D01*
X134255Y-32356D01*
X134684D01*
X134969Y-32213D01*
X135255Y-31927D01*
X136040Y-32070D02*
X135898Y-32213D01*
X136040Y-32356D01*
X136183Y-32213D01*
X136040Y-32070D01*
X138554Y-30785D02*
X138269Y-30499D01*
X137983Y-30356D01*
X137554D01*
X137269Y-30499D01*
X136983Y-30785D01*
X136840Y-31213D01*
Y-31499D01*
X136983Y-31927D01*
X137269Y-32213D01*
X137554Y-32356D01*
X137983D01*
X138269Y-32213D01*
X138554Y-31927D01*
X139911Y-30356D02*
X139625Y-30499D01*
X139340Y-30785D01*
X139197Y-31213D01*
Y-31499D01*
X139340Y-31927D01*
X139625Y-32213D01*
X139911Y-32356D01*
X140340D01*
X140625Y-32213D01*
X140911Y-31927D01*
X141054Y-31499D01*
Y-31213D01*
X140911Y-30785D01*
X140625Y-30499D01*
X140340Y-30356D01*
X139911D01*
X141711D02*
Y-32356D01*
Y-30928D02*
X142139Y-30499D01*
X142425Y-30356D01*
X142853D01*
X143139Y-30499D01*
X143282Y-30928D01*
Y-32356D01*
Y-30928D02*
X143710Y-30499D01*
X143996Y-30356D01*
X144424D01*
X144710Y-30499D01*
X144853Y-30928D01*
Y-32356D01*
D15*
X360236Y11811D02*
D03*
D16*
Y-29528D02*
D03*
D17*
X221789Y158524D02*
D03*
M02*
