G04*
G04 #@! TF.GenerationSoftware,Altium Limited,Altium Designer,20.0.13 (296)*
G04*
G04 Layer_Color=8388736*
%FSLAX25Y25*%
%MOIN*%
G70*
G01*
G75*
%ADD28R,0.04134X0.05315*%
%ADD29R,0.13386X0.10827*%
%ADD30R,0.10827X0.13386*%
%ADD31C,0.05906*%
%ADD32R,0.05906X0.05906*%
%ADD33R,0.04724X0.04724*%
%ADD34C,0.04724*%
%ADD35C,0.07000*%
%ADD36C,0.03937*%
%ADD37C,0.30000*%
G36*
X699063Y-244102D02*
X699281Y-244120D01*
X699391D01*
X699482Y-244138D01*
X699682Y-244156D01*
X699919Y-244193D01*
X699974D01*
X700047Y-244211D01*
X700119D01*
X700320Y-244247D01*
X700557Y-244284D01*
X700611D01*
X700684Y-244302D01*
X700757Y-244320D01*
X700957Y-244357D01*
X701158Y-244393D01*
Y-245705D01*
X701122D01*
X701049Y-245668D01*
X700921Y-245650D01*
X700757Y-245614D01*
X700575Y-245577D01*
X700356Y-245523D01*
X699883Y-245450D01*
X699864D01*
X699773Y-245432D01*
X699664Y-245413D01*
X699500Y-245395D01*
X699318Y-245377D01*
X699099Y-245359D01*
X698662Y-245340D01*
X698461D01*
X698243Y-245359D01*
X697969Y-245395D01*
X697660Y-245450D01*
X697350Y-245523D01*
X697077Y-245632D01*
X696822Y-245778D01*
X696803Y-245796D01*
X696731Y-245851D01*
X696639Y-245942D01*
X696530Y-246069D01*
X696421Y-246233D01*
X696330Y-246434D01*
X696257Y-246652D01*
X696239Y-246907D01*
Y-246926D01*
Y-246980D01*
X696257Y-247053D01*
X696275Y-247163D01*
X696348Y-247399D01*
X696403Y-247527D01*
X696475Y-247654D01*
X696494Y-247673D01*
X696512Y-247709D01*
X696566Y-247764D01*
X696639Y-247837D01*
X696840Y-248019D01*
X697095Y-248219D01*
X697113Y-248237D01*
X697168Y-248256D01*
X697241Y-248310D01*
X697368Y-248365D01*
X697496Y-248438D01*
X697642Y-248511D01*
X698006Y-248657D01*
X698024D01*
X698097Y-248693D01*
X698188Y-248729D01*
X698334Y-248784D01*
X698480Y-248839D01*
X698644Y-248912D01*
X699026Y-249076D01*
X699044D01*
X699117Y-249112D01*
X699227Y-249148D01*
X699354Y-249203D01*
X699518Y-249276D01*
X699682Y-249349D01*
X700065Y-249531D01*
X700083Y-249549D01*
X700156Y-249568D01*
X700247Y-249622D01*
X700375Y-249695D01*
X700666Y-249896D01*
X700957Y-250132D01*
X700976Y-250150D01*
X701030Y-250187D01*
X701103Y-250260D01*
X701194Y-250369D01*
X701286Y-250479D01*
X701395Y-250624D01*
X701595Y-250952D01*
X701614Y-250970D01*
X701632Y-251043D01*
X701668Y-251134D01*
X701723Y-251262D01*
X701778Y-251426D01*
X701814Y-251626D01*
X701832Y-251827D01*
X701850Y-252064D01*
Y-252100D01*
Y-252191D01*
X701832Y-252337D01*
X701814Y-252519D01*
X701778Y-252720D01*
X701705Y-252956D01*
X701632Y-253193D01*
X701522Y-253412D01*
X701504Y-253430D01*
X701468Y-253503D01*
X701395Y-253612D01*
X701304Y-253740D01*
X701176Y-253886D01*
X701030Y-254050D01*
X700848Y-254214D01*
X700648Y-254359D01*
X700630Y-254378D01*
X700557Y-254414D01*
X700429Y-254487D01*
X700283Y-254578D01*
X700083Y-254669D01*
X699864Y-254760D01*
X699609Y-254851D01*
X699318Y-254924D01*
X699281D01*
X699190Y-254961D01*
X699026Y-254979D01*
X698808Y-255015D01*
X698553Y-255052D01*
X698261Y-255070D01*
X697933Y-255106D01*
X697332D01*
X697186Y-255088D01*
X697058D01*
X696731Y-255070D01*
X696658D01*
X696585Y-255052D01*
X696475D01*
X696220Y-255015D01*
X695929Y-254979D01*
X695856D01*
X695783Y-254961D01*
X695692D01*
X695455Y-254924D01*
X695200Y-254888D01*
X695182D01*
X695145Y-254870D01*
X695073Y-254851D01*
X695000Y-254833D01*
X694799Y-254778D01*
X694581Y-254724D01*
Y-253321D01*
X694617Y-253339D01*
X694690Y-253357D01*
X694817Y-253394D01*
X694981Y-253448D01*
X695182Y-253521D01*
X695419Y-253576D01*
X695674Y-253631D01*
X695947Y-253685D01*
X695984D01*
X696075Y-253703D01*
X696239Y-253722D01*
X696457Y-253740D01*
X696712Y-253776D01*
X697004Y-253795D01*
X697332Y-253813D01*
X697951D01*
X698115Y-253795D01*
X698297D01*
X698498Y-253758D01*
X698698Y-253740D01*
X698899Y-253703D01*
X698917D01*
X698990Y-253685D01*
X699063Y-253649D01*
X699190Y-253631D01*
X699445Y-253521D01*
X699700Y-253394D01*
X699719Y-253376D01*
X699755Y-253357D01*
X699810Y-253303D01*
X699883Y-253248D01*
X700047Y-253084D01*
X700174Y-252865D01*
Y-252847D01*
X700192Y-252811D01*
X700229Y-252738D01*
X700247Y-252647D01*
X700283Y-252537D01*
X700302Y-252410D01*
X700320Y-252136D01*
Y-252118D01*
Y-252064D01*
X700302Y-251991D01*
X700283Y-251881D01*
X700211Y-251645D01*
X700156Y-251535D01*
X700065Y-251408D01*
X700047Y-251390D01*
X700028Y-251353D01*
X699974Y-251298D01*
X699901Y-251225D01*
X699810Y-251134D01*
X699700Y-251043D01*
X699427Y-250861D01*
X699409Y-250843D01*
X699354Y-250825D01*
X699281Y-250770D01*
X699172Y-250715D01*
X699044Y-250642D01*
X698899Y-250570D01*
X698534Y-250406D01*
X698516Y-250387D01*
X698443Y-250369D01*
X698352Y-250333D01*
X698206Y-250278D01*
X698061Y-250223D01*
X697878Y-250150D01*
X697496Y-250005D01*
X697477Y-249987D01*
X697405Y-249968D01*
X697314Y-249914D01*
X697186Y-249859D01*
X697022Y-249786D01*
X696858Y-249713D01*
X696475Y-249531D01*
X696457Y-249513D01*
X696384Y-249476D01*
X696293Y-249440D01*
X696166Y-249367D01*
X696038Y-249276D01*
X695874Y-249185D01*
X695564Y-248948D01*
X695546Y-248930D01*
X695510Y-248893D01*
X695437Y-248820D01*
X695346Y-248711D01*
X695255Y-248602D01*
X695145Y-248456D01*
X694945Y-248146D01*
X694927Y-248128D01*
X694909Y-248055D01*
X694872Y-247964D01*
X694836Y-247837D01*
X694781Y-247673D01*
X694744Y-247490D01*
X694726Y-247272D01*
X694708Y-247053D01*
Y-247035D01*
Y-246962D01*
X694726Y-246853D01*
X694744Y-246707D01*
X694763Y-246543D01*
X694799Y-246361D01*
X694854Y-246160D01*
X694927Y-245960D01*
X694945Y-245942D01*
X694963Y-245869D01*
X695036Y-245778D01*
X695109Y-245650D01*
X695200Y-245504D01*
X695328Y-245340D01*
X695473Y-245177D01*
X695637Y-245012D01*
X695655Y-244994D01*
X695728Y-244940D01*
X695838Y-244867D01*
X695984Y-244776D01*
X696147Y-244666D01*
X696366Y-244557D01*
X696603Y-244448D01*
X696876Y-244338D01*
X696913Y-244320D01*
X697022Y-244302D01*
X697168Y-244266D01*
X697386Y-244211D01*
X697660Y-244156D01*
X697969Y-244120D01*
X698316Y-244102D01*
X698698Y-244083D01*
X698880D01*
X699063Y-244102D01*
D02*
G37*
G36*
X729271Y-254961D02*
X727978D01*
X727923Y-253412D01*
Y-253430D01*
X727905Y-253448D01*
X727814Y-253558D01*
X727704Y-253703D01*
X727540Y-253904D01*
X727340Y-254104D01*
X727121Y-254323D01*
X726885Y-254523D01*
X726629Y-254706D01*
X726593Y-254724D01*
X726502Y-254760D01*
X726374Y-254833D01*
X726174Y-254906D01*
X725955Y-254979D01*
X725700Y-255052D01*
X725427Y-255088D01*
X725117Y-255106D01*
X725008D01*
X724862Y-255088D01*
X724698Y-255070D01*
X724516Y-255033D01*
X724297Y-254979D01*
X724097Y-254906D01*
X723878Y-254815D01*
X723860Y-254797D01*
X723787Y-254760D01*
X723696Y-254687D01*
X723569Y-254596D01*
X723423Y-254487D01*
X723277Y-254341D01*
X723131Y-254177D01*
X722986Y-253995D01*
X722967Y-253977D01*
X722931Y-253904D01*
X722858Y-253776D01*
X722785Y-253631D01*
X722694Y-253430D01*
X722603Y-253211D01*
X722512Y-252975D01*
X722439Y-252701D01*
Y-252665D01*
X722421Y-252574D01*
X722384Y-252410D01*
X722366Y-252209D01*
X722330Y-251954D01*
X722293Y-251663D01*
X722275Y-251353D01*
Y-251025D01*
Y-251007D01*
Y-250970D01*
Y-250916D01*
Y-250843D01*
X722293Y-250661D01*
X722311Y-250406D01*
X722348Y-250114D01*
X722384Y-249804D01*
X722457Y-249476D01*
X722548Y-249167D01*
Y-249148D01*
X722567Y-249130D01*
X722603Y-249021D01*
X722676Y-248875D01*
X722767Y-248693D01*
X722876Y-248474D01*
X723022Y-248237D01*
X723186Y-248001D01*
X723368Y-247782D01*
X723386Y-247764D01*
X723459Y-247691D01*
X723569Y-247582D01*
X723733Y-247454D01*
X723915Y-247326D01*
X724133Y-247181D01*
X724370Y-247053D01*
X724644Y-246926D01*
X724680Y-246907D01*
X724771Y-246871D01*
X724935Y-246834D01*
X725136Y-246780D01*
X725372Y-246725D01*
X725664Y-246671D01*
X725974Y-246652D01*
X726302Y-246634D01*
X726538D01*
X726793Y-246652D01*
X727067Y-246689D01*
X727085D01*
X727140Y-246707D01*
X727213D01*
X727304Y-246725D01*
X727559Y-246780D01*
X727832Y-246853D01*
Y-243373D01*
X729271D01*
Y-254961D01*
D02*
G37*
G36*
X773018Y-246598D02*
X773200D01*
X773619Y-246634D01*
X773637D01*
X773728Y-246652D01*
X773838D01*
X774002Y-246671D01*
X774184Y-246707D01*
X774384Y-246725D01*
X774621Y-246780D01*
X774858Y-246816D01*
Y-248092D01*
X774821D01*
X774749Y-248055D01*
X774621Y-248037D01*
X774439Y-248001D01*
X774257Y-247964D01*
X774038Y-247928D01*
X773583Y-247855D01*
X773564D01*
X773473Y-247837D01*
X773364Y-247818D01*
X773218Y-247800D01*
X773054D01*
X772890Y-247782D01*
X772526Y-247764D01*
X772343D01*
X772216Y-247782D01*
X771924Y-247800D01*
X771633Y-247855D01*
X771615D01*
X771578Y-247873D01*
X771505Y-247891D01*
X771414Y-247909D01*
X771232Y-248001D01*
X771032Y-248092D01*
X770995Y-248110D01*
X770904Y-248183D01*
X770813Y-248292D01*
X770722Y-248420D01*
X770704Y-248456D01*
X770685Y-248547D01*
X770649Y-248675D01*
X770631Y-248839D01*
Y-248857D01*
Y-248875D01*
X770649Y-248966D01*
X770667Y-249094D01*
X770704Y-249239D01*
X770722Y-249276D01*
X770777Y-249349D01*
X770886Y-249458D01*
X771032Y-249586D01*
X771050D01*
X771068Y-249622D01*
X771123Y-249640D01*
X771196Y-249695D01*
X771305Y-249750D01*
X771414Y-249804D01*
X771542Y-249859D01*
X771688Y-249932D01*
X771706D01*
X771761Y-249968D01*
X771852Y-249987D01*
X771979Y-250041D01*
X772143Y-250096D01*
X772325Y-250150D01*
X772526Y-250205D01*
X772763Y-250278D01*
X772799Y-250296D01*
X772890Y-250314D01*
X773018Y-250351D01*
X773200Y-250424D01*
X773400Y-250479D01*
X773601Y-250570D01*
X773801Y-250642D01*
X774002Y-250734D01*
X774020Y-250752D01*
X774093Y-250770D01*
X774165Y-250825D01*
X774293Y-250879D01*
X774548Y-251062D01*
X774803Y-251262D01*
X774821Y-251280D01*
X774858Y-251317D01*
X774913Y-251371D01*
X774985Y-251444D01*
X775131Y-251645D01*
X775204Y-251772D01*
X775259Y-251900D01*
Y-251918D01*
X775277Y-251954D01*
X775313Y-252045D01*
X775332Y-252136D01*
X775368Y-252264D01*
X775386Y-252392D01*
X775405Y-252719D01*
Y-252738D01*
Y-252792D01*
Y-252884D01*
X775386Y-252975D01*
X775332Y-253230D01*
X775241Y-253503D01*
Y-253521D01*
X775222Y-253558D01*
X775186Y-253630D01*
X775131Y-253703D01*
X775004Y-253904D01*
X774840Y-254122D01*
X774821Y-254141D01*
X774803Y-254159D01*
X774749Y-254214D01*
X774676Y-254268D01*
X774475Y-254414D01*
X774238Y-254578D01*
X774220D01*
X774184Y-254614D01*
X774111Y-254633D01*
X774020Y-254687D01*
X773801Y-254778D01*
X773528Y-254870D01*
X773510D01*
X773473Y-254888D01*
X773382Y-254906D01*
X773291Y-254924D01*
X773182Y-254961D01*
X773036Y-254979D01*
X772744Y-255033D01*
X772726D01*
X772672Y-255052D01*
X772599D01*
X772489Y-255070D01*
X772252Y-255088D01*
X771961Y-255106D01*
X771651D01*
X771451Y-255088D01*
X771214D01*
X770959Y-255070D01*
X770412Y-255033D01*
X770376D01*
X770303Y-255015D01*
X770157Y-254997D01*
X769993Y-254979D01*
X769774Y-254942D01*
X769556Y-254906D01*
X769064Y-254797D01*
Y-253485D01*
X769100D01*
X769191Y-253521D01*
X769319Y-253558D01*
X769501Y-253612D01*
X769720Y-253667D01*
X769957Y-253722D01*
X770485Y-253813D01*
X770521D01*
X770613Y-253831D01*
X770740Y-253849D01*
X770922D01*
X771141Y-253867D01*
X771378Y-253886D01*
X771906Y-253904D01*
X772070D01*
X772252Y-253886D01*
X772471Y-253867D01*
X772726Y-253831D01*
X772981Y-253795D01*
X773218Y-253722D01*
X773419Y-253630D01*
X773437Y-253612D01*
X773491Y-253576D01*
X773583Y-253521D01*
X773674Y-253430D01*
X773765Y-253321D01*
X773856Y-253175D01*
X773910Y-253011D01*
X773929Y-252829D01*
Y-252811D01*
Y-252792D01*
X773910Y-252701D01*
X773892Y-252574D01*
X773838Y-252446D01*
X773819Y-252410D01*
X773783Y-252337D01*
X773692Y-252228D01*
X773546Y-252100D01*
X773510Y-252064D01*
X773455Y-252045D01*
X773400Y-251991D01*
X773309Y-251954D01*
X773200Y-251900D01*
X773054Y-251827D01*
X772908Y-251772D01*
X772890D01*
X772835Y-251736D01*
X772744Y-251699D01*
X772599Y-251645D01*
X772435Y-251590D01*
X772234Y-251517D01*
X772015Y-251444D01*
X771742Y-251371D01*
X771724D01*
X771651Y-251335D01*
X771542Y-251317D01*
X771414Y-251262D01*
X771250Y-251207D01*
X771086Y-251153D01*
X770722Y-251007D01*
X770704Y-250989D01*
X770649Y-250970D01*
X770558Y-250916D01*
X770449Y-250861D01*
X770175Y-250715D01*
X769902Y-250515D01*
X769884Y-250497D01*
X769847Y-250460D01*
X769774Y-250406D01*
X769702Y-250314D01*
X769519Y-250114D01*
X769355Y-249841D01*
Y-249823D01*
X769319Y-249768D01*
X769301Y-249695D01*
X769264Y-249586D01*
X769228Y-249458D01*
X769210Y-249294D01*
X769173Y-249112D01*
Y-248930D01*
Y-248912D01*
Y-248875D01*
Y-248802D01*
X769191Y-248711D01*
X769210Y-248602D01*
X769228Y-248474D01*
X769319Y-248183D01*
Y-248165D01*
X769355Y-248110D01*
X769392Y-248037D01*
X769447Y-247928D01*
X769519Y-247818D01*
X769611Y-247691D01*
X769738Y-247545D01*
X769866Y-247417D01*
X769884Y-247399D01*
X769939Y-247363D01*
X770030Y-247290D01*
X770139Y-247199D01*
X770285Y-247108D01*
X770467Y-247017D01*
X770667Y-246907D01*
X770904Y-246816D01*
X770941Y-246798D01*
X771032Y-246780D01*
X771159Y-246743D01*
X771360Y-246689D01*
X771596Y-246652D01*
X771870Y-246616D01*
X772198Y-246598D01*
X772544Y-246579D01*
X772872D01*
X773018Y-246598D01*
D02*
G37*
G36*
X680934Y-246598D02*
X681098Y-246616D01*
X681298Y-246652D01*
X681499Y-246707D01*
X681717Y-246780D01*
X681918Y-246889D01*
X681936Y-246907D01*
X682009Y-246944D01*
X682100Y-247017D01*
X682227Y-247108D01*
X682373Y-247217D01*
X682519Y-247363D01*
X682665Y-247527D01*
X682810Y-247727D01*
X682829Y-247745D01*
X682865Y-247818D01*
X682938Y-247928D01*
X683011Y-248092D01*
X683102Y-248274D01*
X683193Y-248493D01*
X683284Y-248748D01*
X683357Y-249021D01*
Y-249057D01*
X683393Y-249149D01*
X683412Y-249312D01*
X683448Y-249513D01*
X683485Y-249750D01*
X683503Y-250041D01*
X683539Y-250351D01*
Y-250697D01*
Y-250715D01*
Y-250752D01*
Y-250806D01*
Y-250879D01*
X683521Y-251098D01*
X683503Y-251353D01*
X683466Y-251663D01*
X683412Y-251973D01*
X683339Y-252301D01*
X683229Y-252628D01*
X683211Y-252665D01*
X683175Y-252756D01*
X683102Y-252902D01*
X683011Y-253102D01*
X682883Y-253303D01*
X682738Y-253539D01*
X682574Y-253758D01*
X682373Y-253977D01*
X682355Y-253995D01*
X682282Y-254068D01*
X682155Y-254159D01*
X682009Y-254287D01*
X681827Y-254414D01*
X681590Y-254560D01*
X681353Y-254687D01*
X681079Y-254797D01*
X681043Y-254815D01*
X680952Y-254833D01*
X680806Y-254870D01*
X680606Y-254924D01*
X680369Y-254979D01*
X680096Y-255015D01*
X679804Y-255033D01*
X679494Y-255052D01*
X679239D01*
X679003Y-255033D01*
X678711Y-254997D01*
X678638D01*
X678565Y-254979D01*
X678474Y-254961D01*
X678346D01*
X678219Y-254942D01*
X677927Y-254888D01*
Y-258331D01*
X676506D01*
Y-246725D01*
X677764D01*
X677855Y-248110D01*
Y-248092D01*
X677891Y-248074D01*
X677964Y-247964D01*
X678091Y-247818D01*
X678255Y-247654D01*
X678456Y-247454D01*
X678675Y-247254D01*
X678911Y-247071D01*
X679166Y-246926D01*
X679203Y-246907D01*
X679294Y-246871D01*
X679422Y-246816D01*
X679622Y-246743D01*
X679841Y-246689D01*
X680096Y-246634D01*
X680387Y-246598D01*
X680679Y-246579D01*
X680806D01*
X680934Y-246598D01*
D02*
G37*
G36*
X745925Y-246598D02*
X746016D01*
X746143Y-246616D01*
X746435Y-246689D01*
X746744Y-246780D01*
X747054Y-246926D01*
X747364Y-247144D01*
X747510Y-247272D01*
X747637Y-247417D01*
X747674Y-247454D01*
X747692Y-247509D01*
X747747Y-247563D01*
X747783Y-247654D01*
X747838Y-247764D01*
X747910Y-247891D01*
X747965Y-248037D01*
X748020Y-248201D01*
X748074Y-248365D01*
X748129Y-248565D01*
X748184Y-248784D01*
X748220Y-249039D01*
X748239Y-249294D01*
X748257Y-249568D01*
Y-249859D01*
X746817D01*
Y-249841D01*
Y-249804D01*
Y-249750D01*
Y-249677D01*
X746799Y-249495D01*
X746781Y-249276D01*
X746744Y-249021D01*
X746690Y-248766D01*
X746599Y-248511D01*
X746489Y-248310D01*
X746471Y-248292D01*
X746435Y-248237D01*
X746344Y-248146D01*
X746234Y-248055D01*
X746089Y-247982D01*
X745925Y-247891D01*
X745724Y-247837D01*
X745487Y-247818D01*
X745378D01*
X745323Y-247837D01*
X745141Y-247855D01*
X744922Y-247928D01*
X744904D01*
X744868Y-247946D01*
X744813Y-247964D01*
X744740Y-248001D01*
X744540Y-248110D01*
X744321Y-248256D01*
X744303Y-248274D01*
X744267Y-248292D01*
X744212Y-248347D01*
X744121Y-248401D01*
X743920Y-248602D01*
X743665Y-248839D01*
X743647Y-248857D01*
X743611Y-248893D01*
X743538Y-248966D01*
X743447Y-249076D01*
X743337Y-249203D01*
X743210Y-249331D01*
X743082Y-249495D01*
X742936Y-249677D01*
Y-254961D01*
X741497D01*
Y-246725D01*
X742791D01*
X742827Y-248256D01*
Y-248237D01*
X742864Y-248219D01*
X742955Y-248110D01*
X743100Y-247964D01*
X743283Y-247764D01*
X743501Y-247563D01*
X743738Y-247345D01*
X743993Y-247144D01*
X744267Y-246980D01*
X744303Y-246962D01*
X744394Y-246926D01*
X744522Y-246853D01*
X744722Y-246780D01*
X744922Y-246707D01*
X745178Y-246634D01*
X745433Y-246598D01*
X745706Y-246579D01*
X745833D01*
X745925Y-246598D01*
D02*
G37*
G36*
X756274D02*
X756365Y-246616D01*
X756492Y-246652D01*
X756620Y-246707D01*
X756765Y-246780D01*
X756911Y-246871D01*
X757057Y-246999D01*
X757203Y-247162D01*
X757330Y-247363D01*
X757458Y-247582D01*
X757549Y-247855D01*
X757622Y-248183D01*
X757676Y-248547D01*
X757695Y-248966D01*
Y-254961D01*
X756274D01*
Y-249057D01*
Y-249039D01*
Y-248985D01*
Y-248930D01*
Y-248839D01*
X756255Y-248638D01*
X756237Y-248438D01*
Y-248420D01*
Y-248401D01*
X756219Y-248292D01*
X756201Y-248165D01*
X756146Y-248037D01*
X756128Y-248019D01*
X756110Y-247964D01*
X756055Y-247891D01*
X756000Y-247837D01*
X755982Y-247818D01*
X755945Y-247800D01*
X755873Y-247782D01*
X755782Y-247764D01*
X755763D01*
X755690Y-247782D01*
X755599Y-247800D01*
X755490Y-247873D01*
X755472Y-247891D01*
X755417Y-247946D01*
X755326Y-248055D01*
X755217Y-248201D01*
Y-248219D01*
X755198Y-248237D01*
X755162Y-248292D01*
X755126Y-248347D01*
X755016Y-248547D01*
X754889Y-248784D01*
Y-248802D01*
X754852Y-248857D01*
X754816Y-248930D01*
X754761Y-249039D01*
X754706Y-249167D01*
X754634Y-249312D01*
X754561Y-249495D01*
X754470Y-249677D01*
Y-254961D01*
X753049D01*
Y-249203D01*
Y-249185D01*
Y-249130D01*
Y-249057D01*
Y-248948D01*
X753030Y-248711D01*
X753012Y-248493D01*
Y-248474D01*
Y-248438D01*
X752994Y-248328D01*
X752976Y-248183D01*
X752921Y-248055D01*
X752903Y-248037D01*
X752885Y-247964D01*
X752830Y-247891D01*
X752775Y-247837D01*
X752757Y-247818D01*
X752721Y-247800D01*
X752648Y-247782D01*
X752557Y-247764D01*
X752538D01*
X752465Y-247782D01*
X752374Y-247800D01*
X752283Y-247855D01*
X752265Y-247873D01*
X752210Y-247928D01*
X752119Y-248019D01*
X752010Y-248165D01*
X751992Y-248201D01*
X751919Y-248310D01*
X751810Y-248493D01*
X751682Y-248729D01*
Y-248748D01*
X751646Y-248802D01*
X751609Y-248875D01*
X751554Y-248985D01*
X751500Y-249112D01*
X751427Y-249276D01*
X751336Y-249476D01*
X751245Y-249677D01*
Y-254961D01*
X749824D01*
Y-246725D01*
X750990D01*
X751063Y-248292D01*
X751081Y-248274D01*
X751099Y-248219D01*
X751135Y-248128D01*
X751190Y-248019D01*
X751336Y-247764D01*
X751482Y-247509D01*
X751500Y-247490D01*
X751518Y-247454D01*
X751554Y-247399D01*
X751609Y-247326D01*
X751737Y-247144D01*
X751901Y-246980D01*
X751919Y-246962D01*
X751937Y-246944D01*
X752046Y-246871D01*
X752192Y-246780D01*
X752356Y-246689D01*
X752374D01*
X752393Y-246671D01*
X752520Y-246634D01*
X752684Y-246598D01*
X752885Y-246579D01*
X752994D01*
X753121Y-246598D01*
X753267Y-246634D01*
X753431Y-246689D01*
X753595Y-246762D01*
X753759Y-246871D01*
X753905Y-247017D01*
X753923Y-247035D01*
X753960Y-247090D01*
X754014Y-247199D01*
X754087Y-247345D01*
X754142Y-247545D01*
X754196Y-247764D01*
X754233Y-248037D01*
X754251Y-248365D01*
X754269Y-248347D01*
X754287Y-248292D01*
X754324Y-248219D01*
X754379Y-248110D01*
X754506Y-247873D01*
X754634Y-247618D01*
Y-247600D01*
X754670Y-247563D01*
X754706Y-247490D01*
X754761Y-247417D01*
X754889Y-247235D01*
X755034Y-247053D01*
X755053Y-247035D01*
X755071Y-247017D01*
X755180Y-246926D01*
X755326Y-246816D01*
X755508Y-246707D01*
X755526D01*
X755563Y-246689D01*
X755618Y-246671D01*
X755690Y-246634D01*
X755891Y-246598D01*
X756128Y-246579D01*
X756201D01*
X756274Y-246598D01*
D02*
G37*
G36*
X779723Y-250497D02*
X783421Y-246725D01*
X785316D01*
X781454Y-250533D01*
X785535Y-254961D01*
X783567D01*
X779723Y-250551D01*
Y-254961D01*
X778301D01*
Y-243373D01*
X779723D01*
Y-250497D01*
D02*
G37*
G36*
X763452Y-246598D02*
X763653Y-246616D01*
X763889Y-246652D01*
X764345Y-246743D01*
X764363D01*
X764454Y-246780D01*
X764564Y-246816D01*
X764691Y-246871D01*
X764855Y-246944D01*
X765019Y-247035D01*
X765183Y-247126D01*
X765347Y-247253D01*
X765365Y-247272D01*
X765420Y-247308D01*
X765493Y-247381D01*
X765584Y-247472D01*
X765693Y-247600D01*
X765802Y-247745D01*
X765894Y-247909D01*
X765985Y-248092D01*
X766003Y-248110D01*
X766021Y-248183D01*
X766058Y-248292D01*
X766112Y-248438D01*
X766149Y-248602D01*
X766185Y-248820D01*
X766203Y-249039D01*
X766222Y-249294D01*
Y-254961D01*
X764928D01*
X764891Y-253867D01*
X764855Y-253904D01*
X764782Y-253977D01*
X764636Y-254086D01*
X764472Y-254232D01*
X764254Y-254378D01*
X764035Y-254542D01*
X763780Y-254687D01*
X763525Y-254815D01*
X763489Y-254833D01*
X763398Y-254851D01*
X763270Y-254906D01*
X763088Y-254961D01*
X762869Y-255015D01*
X762614Y-255052D01*
X762359Y-255088D01*
X762067Y-255106D01*
X761958D01*
X761831Y-255088D01*
X761667D01*
X761466Y-255070D01*
X761266Y-255033D01*
X760865Y-254942D01*
X760847D01*
X760792Y-254906D01*
X760701Y-254870D01*
X760573Y-254815D01*
X760318Y-254651D01*
X760045Y-254450D01*
X760027Y-254432D01*
X759990Y-254396D01*
X759936Y-254323D01*
X759863Y-254232D01*
X759790Y-254122D01*
X759699Y-253995D01*
X759571Y-253703D01*
Y-253685D01*
X759553Y-253630D01*
X759535Y-253539D01*
X759498Y-253430D01*
X759480Y-253284D01*
X759444Y-253120D01*
X759425Y-252774D01*
Y-252756D01*
Y-252719D01*
Y-252647D01*
X759444Y-252574D01*
X759462Y-252465D01*
X759480Y-252337D01*
X759535Y-252064D01*
X759644Y-251754D01*
X759808Y-251426D01*
X759917Y-251262D01*
X760045Y-251116D01*
X760173Y-250970D01*
X760336Y-250825D01*
X760355D01*
X760373Y-250788D01*
X760428Y-250752D01*
X760519Y-250715D01*
X760610Y-250661D01*
X760719Y-250606D01*
X760865Y-250533D01*
X761029Y-250460D01*
X761211Y-250406D01*
X761412Y-250333D01*
X761630Y-250278D01*
X761885Y-250223D01*
X762140Y-250187D01*
X762432Y-250150D01*
X762742Y-250114D01*
X764782D01*
Y-249404D01*
Y-249367D01*
Y-249276D01*
X764764Y-249148D01*
X764727Y-248985D01*
X764673Y-248802D01*
X764582Y-248602D01*
X764472Y-248420D01*
X764309Y-248237D01*
X764290Y-248219D01*
X764217Y-248165D01*
X764108Y-248092D01*
X763962Y-248019D01*
X763762Y-247946D01*
X763507Y-247873D01*
X763215Y-247818D01*
X762887Y-247800D01*
X762632D01*
X762450Y-247818D01*
X762231Y-247837D01*
X762013Y-247873D01*
X761503Y-247964D01*
X761466D01*
X761393Y-248001D01*
X761247Y-248037D01*
X761084Y-248074D01*
X760865Y-248146D01*
X760628Y-248219D01*
X760373Y-248310D01*
X760118Y-248401D01*
Y-247108D01*
X760136D01*
X760173Y-247090D01*
X760209Y-247071D01*
X760282Y-247053D01*
X760464Y-246999D01*
X760701Y-246926D01*
X760719D01*
X760756Y-246907D01*
X760828Y-246889D01*
X760920Y-246871D01*
X761156Y-246816D01*
X761412Y-246762D01*
X761430D01*
X761484Y-246743D01*
X761557Y-246725D01*
X761648Y-246707D01*
X761758Y-246689D01*
X761885Y-246671D01*
X762177Y-246634D01*
X762195D01*
X762250Y-246616D01*
X762323D01*
X762432Y-246598D01*
X762559D01*
X762687Y-246579D01*
X763270D01*
X763452Y-246598D01*
D02*
G37*
G36*
X717684Y-253776D02*
X720143D01*
Y-254961D01*
X713548D01*
Y-253776D01*
X716244D01*
Y-244539D01*
X713821D01*
Y-243373D01*
X717684D01*
Y-253776D01*
D02*
G37*
G36*
X665246Y-245486D02*
X662076D01*
Y-254961D01*
X660600D01*
Y-245486D01*
X657430D01*
Y-244247D01*
X665246D01*
Y-245486D01*
D02*
G37*
G36*
X735630Y-246598D02*
X735831Y-246616D01*
X736067Y-246652D01*
X736323Y-246689D01*
X736578Y-246762D01*
X736833Y-246853D01*
X736869Y-246871D01*
X736942Y-246907D01*
X737070Y-246962D01*
X737234Y-247053D01*
X737397Y-247163D01*
X737598Y-247290D01*
X737780Y-247454D01*
X737962Y-247636D01*
X737981Y-247654D01*
X738035Y-247727D01*
X738126Y-247837D01*
X738217Y-247964D01*
X738327Y-248146D01*
X738454Y-248347D01*
X738564Y-248584D01*
X738655Y-248839D01*
X738673Y-248875D01*
X738691Y-248966D01*
X738728Y-249112D01*
X738782Y-249294D01*
X738819Y-249531D01*
X738855Y-249786D01*
X738873Y-250078D01*
X738892Y-250406D01*
Y-250424D01*
Y-250460D01*
Y-250515D01*
Y-250588D01*
Y-250752D01*
X738873Y-250934D01*
Y-250970D01*
Y-251062D01*
Y-251171D01*
X738855Y-251298D01*
X733079D01*
Y-251317D01*
Y-251353D01*
Y-251426D01*
X733098Y-251499D01*
Y-251608D01*
X733116Y-251736D01*
X733171Y-252027D01*
X733243Y-252337D01*
X733371Y-252665D01*
X733535Y-252975D01*
X733772Y-253248D01*
X733808Y-253284D01*
X733899Y-253357D01*
X734063Y-253467D01*
X734300Y-253576D01*
X734592Y-253703D01*
X734938Y-253813D01*
X735339Y-253886D01*
X735812Y-253922D01*
X736268D01*
X736523Y-253904D01*
X736578D01*
X736651Y-253886D01*
X736742D01*
X736978Y-253849D01*
X737215Y-253831D01*
X737234D01*
X737270Y-253813D01*
X737343D01*
X737434Y-253795D01*
X737634Y-253758D01*
X737871Y-253722D01*
X737889D01*
X737926Y-253703D01*
X737981Y-253685D01*
X738054Y-253667D01*
X738254Y-253631D01*
X738454Y-253576D01*
Y-254742D01*
X738436D01*
X738345Y-254760D01*
X738236Y-254797D01*
X738072Y-254833D01*
X737871Y-254870D01*
X737653Y-254924D01*
X737397Y-254961D01*
X737124Y-254997D01*
X737088D01*
X736997Y-255015D01*
X736851Y-255033D01*
X736669Y-255052D01*
X736432Y-255070D01*
X736177Y-255088D01*
X735904Y-255106D01*
X735430D01*
X735229Y-255088D01*
X734993Y-255070D01*
X734701Y-255033D01*
X734391Y-254997D01*
X734082Y-254924D01*
X733790Y-254833D01*
X733753Y-254815D01*
X733662Y-254778D01*
X733517Y-254706D01*
X733353Y-254614D01*
X733152Y-254505D01*
X732934Y-254359D01*
X732733Y-254195D01*
X732533Y-253995D01*
X732515Y-253977D01*
X732460Y-253904D01*
X732369Y-253776D01*
X732260Y-253631D01*
X732132Y-253430D01*
X732023Y-253211D01*
X731895Y-252938D01*
X731804Y-252665D01*
Y-252647D01*
Y-252628D01*
X731768Y-252519D01*
X731731Y-252355D01*
X731695Y-252136D01*
X731658Y-251863D01*
X731622Y-251572D01*
X731604Y-251225D01*
X731585Y-250861D01*
Y-250843D01*
Y-250825D01*
Y-250715D01*
X731604Y-250551D01*
X731622Y-250333D01*
X731640Y-250096D01*
X731695Y-249823D01*
X731749Y-249531D01*
X731822Y-249239D01*
Y-249221D01*
X731840Y-249203D01*
X731877Y-249112D01*
X731931Y-248966D01*
X732004Y-248766D01*
X732114Y-248565D01*
X732241Y-248328D01*
X732387Y-248092D01*
X732551Y-247873D01*
X732569Y-247855D01*
X732642Y-247782D01*
X732752Y-247673D01*
X732879Y-247527D01*
X733061Y-247381D01*
X733262Y-247217D01*
X733480Y-247071D01*
X733735Y-246926D01*
X733772Y-246907D01*
X733863Y-246871D01*
X734009Y-246816D01*
X734191Y-246743D01*
X734428Y-246689D01*
X734701Y-246634D01*
X734993Y-246598D01*
X735321Y-246579D01*
X735466D01*
X735630Y-246598D01*
D02*
G37*
G36*
X707918D02*
X708118Y-246616D01*
X708373Y-246652D01*
X708628Y-246707D01*
X708902Y-246780D01*
X709175Y-246871D01*
X709211Y-246889D01*
X709302Y-246926D01*
X709430Y-246980D01*
X709594Y-247071D01*
X709776Y-247181D01*
X709976Y-247326D01*
X710177Y-247490D01*
X710359Y-247673D01*
X710377Y-247691D01*
X710432Y-247764D01*
X710523Y-247873D01*
X710632Y-248037D01*
X710760Y-248219D01*
X710887Y-248456D01*
X710997Y-248711D01*
X711106Y-248985D01*
X711124Y-249021D01*
X711142Y-249130D01*
X711197Y-249294D01*
X711252Y-249495D01*
X711288Y-249768D01*
X711343Y-250078D01*
X711361Y-250424D01*
X711379Y-250788D01*
Y-250806D01*
Y-250825D01*
Y-250879D01*
Y-250952D01*
X711361Y-251134D01*
X711343Y-251371D01*
X711306Y-251645D01*
X711270Y-251936D01*
X711197Y-252246D01*
X711106Y-252556D01*
X711088Y-252592D01*
X711051Y-252683D01*
X710997Y-252829D01*
X710906Y-253011D01*
X710796Y-253230D01*
X710669Y-253467D01*
X710505Y-253703D01*
X710323Y-253922D01*
X710304Y-253940D01*
X710231Y-254013D01*
X710122Y-254122D01*
X709976Y-254250D01*
X709794Y-254378D01*
X709594Y-254523D01*
X709339Y-254669D01*
X709084Y-254797D01*
X709047Y-254815D01*
X708956Y-254851D01*
X708810Y-254888D01*
X708610Y-254942D01*
X708355Y-255015D01*
X708082Y-255052D01*
X707772Y-255088D01*
X707426Y-255106D01*
X707280D01*
X707098Y-255088D01*
X706897Y-255070D01*
X706642Y-255033D01*
X706369Y-254997D01*
X706096Y-254924D01*
X705822Y-254833D01*
X705786Y-254815D01*
X705713Y-254778D01*
X705585Y-254724D01*
X705421Y-254633D01*
X705221Y-254523D01*
X705039Y-254378D01*
X704838Y-254214D01*
X704638Y-254031D01*
X704620Y-254013D01*
X704565Y-253940D01*
X704474Y-253831D01*
X704365Y-253667D01*
X704255Y-253485D01*
X704128Y-253248D01*
X704018Y-252993D01*
X703909Y-252720D01*
Y-252701D01*
X703891Y-252683D01*
X703873Y-252574D01*
X703836Y-252410D01*
X703782Y-252191D01*
X703727Y-251918D01*
X703690Y-251608D01*
X703672Y-251262D01*
X703654Y-250898D01*
Y-250879D01*
Y-250861D01*
Y-250806D01*
Y-250734D01*
X703672Y-250551D01*
X703690Y-250333D01*
X703709Y-250059D01*
X703763Y-249768D01*
X703818Y-249458D01*
X703909Y-249167D01*
Y-249148D01*
X703927Y-249130D01*
X703964Y-249039D01*
X704018Y-248875D01*
X704110Y-248693D01*
X704219Y-248474D01*
X704365Y-248256D01*
X704510Y-248019D01*
X704693Y-247800D01*
X704711Y-247782D01*
X704784Y-247709D01*
X704893Y-247600D01*
X705039Y-247472D01*
X705221Y-247326D01*
X705440Y-247181D01*
X705677Y-247035D01*
X705932Y-246907D01*
X705968Y-246889D01*
X706059Y-246853D01*
X706205Y-246798D01*
X706405Y-246743D01*
X706660Y-246689D01*
X706934Y-246634D01*
X707243Y-246598D01*
X707590Y-246579D01*
X707735D01*
X707918Y-246598D01*
D02*
G37*
G36*
X670967Y-246598D02*
X671168Y-246616D01*
X671423Y-246652D01*
X671678Y-246707D01*
X671951Y-246780D01*
X672225Y-246871D01*
X672261Y-246889D01*
X672352Y-246926D01*
X672480Y-246980D01*
X672644Y-247071D01*
X672826Y-247181D01*
X673026Y-247326D01*
X673227Y-247490D01*
X673409Y-247673D01*
X673427Y-247691D01*
X673482Y-247764D01*
X673573Y-247873D01*
X673682Y-248037D01*
X673810Y-248219D01*
X673937Y-248456D01*
X674047Y-248711D01*
X674156Y-248985D01*
X674174Y-249021D01*
X674192Y-249130D01*
X674247Y-249294D01*
X674302Y-249495D01*
X674338Y-249768D01*
X674393Y-250078D01*
X674411Y-250424D01*
X674429Y-250788D01*
Y-250806D01*
Y-250825D01*
Y-250879D01*
Y-250952D01*
X674411Y-251134D01*
X674393Y-251371D01*
X674356Y-251645D01*
X674320Y-251936D01*
X674247Y-252246D01*
X674156Y-252556D01*
X674138Y-252592D01*
X674101Y-252683D01*
X674047Y-252829D01*
X673955Y-253011D01*
X673846Y-253230D01*
X673719Y-253467D01*
X673555Y-253703D01*
X673373Y-253922D01*
X673354Y-253940D01*
X673281Y-254013D01*
X673172Y-254122D01*
X673026Y-254250D01*
X672844Y-254378D01*
X672644Y-254523D01*
X672389Y-254669D01*
X672133Y-254797D01*
X672097Y-254815D01*
X672006Y-254851D01*
X671860Y-254888D01*
X671660Y-254942D01*
X671405Y-255015D01*
X671131Y-255052D01*
X670822Y-255088D01*
X670475Y-255106D01*
X670330D01*
X670148Y-255088D01*
X669947Y-255070D01*
X669692Y-255033D01*
X669419Y-254997D01*
X669145Y-254924D01*
X668872Y-254833D01*
X668836Y-254815D01*
X668763Y-254778D01*
X668635Y-254724D01*
X668471Y-254633D01*
X668271Y-254523D01*
X668089Y-254378D01*
X667888Y-254214D01*
X667688Y-254031D01*
X667670Y-254013D01*
X667615Y-253940D01*
X667524Y-253831D01*
X667415Y-253667D01*
X667305Y-253485D01*
X667178Y-253248D01*
X667068Y-252993D01*
X666959Y-252720D01*
Y-252701D01*
X666941Y-252683D01*
X666923Y-252574D01*
X666886Y-252410D01*
X666831Y-252191D01*
X666777Y-251918D01*
X666740Y-251608D01*
X666722Y-251262D01*
X666704Y-250898D01*
Y-250879D01*
Y-250861D01*
Y-250806D01*
Y-250734D01*
X666722Y-250551D01*
X666740Y-250333D01*
X666759Y-250060D01*
X666813Y-249768D01*
X666868Y-249458D01*
X666959Y-249167D01*
Y-249149D01*
X666977Y-249130D01*
X667014Y-249039D01*
X667068Y-248875D01*
X667160Y-248693D01*
X667269Y-248474D01*
X667415Y-248256D01*
X667560Y-248019D01*
X667742Y-247800D01*
X667761Y-247782D01*
X667834Y-247709D01*
X667943Y-247600D01*
X668089Y-247472D01*
X668271Y-247326D01*
X668490Y-247181D01*
X668726Y-247035D01*
X668982Y-246907D01*
X669018Y-246889D01*
X669109Y-246853D01*
X669255Y-246798D01*
X669455Y-246743D01*
X669710Y-246689D01*
X669984Y-246634D01*
X670293Y-246598D01*
X670640Y-246579D01*
X670785D01*
X670967Y-246598D01*
D02*
G37*
%LPC*%
G36*
X726192Y-247818D02*
X726083D01*
X725992Y-247837D01*
X725791Y-247855D01*
X725536Y-247909D01*
X725227Y-248001D01*
X724935Y-248146D01*
X724644Y-248328D01*
X724370Y-248584D01*
X724352Y-248620D01*
X724279Y-248729D01*
X724225Y-248802D01*
X724170Y-248912D01*
X724115Y-249021D01*
X724060Y-249148D01*
X723988Y-249312D01*
X723933Y-249476D01*
X723878Y-249677D01*
X723842Y-249896D01*
X723787Y-250114D01*
X723769Y-250369D01*
X723733Y-250642D01*
Y-250934D01*
Y-250952D01*
Y-251007D01*
Y-251080D01*
Y-251171D01*
X723751Y-251298D01*
Y-251444D01*
X723787Y-251772D01*
X723842Y-252136D01*
X723915Y-252501D01*
X724024Y-252847D01*
X724170Y-253157D01*
X724188Y-253193D01*
X724243Y-253266D01*
X724352Y-253394D01*
X724498Y-253521D01*
X724662Y-253649D01*
X724880Y-253776D01*
X725117Y-253849D01*
X725409Y-253886D01*
X725500D01*
X725609Y-253867D01*
X725755Y-253831D01*
X725937Y-253776D01*
X726119Y-253685D01*
X726338Y-253576D01*
X726557Y-253412D01*
X726593Y-253394D01*
X726666Y-253321D01*
X726775Y-253211D01*
X726939Y-253047D01*
X727140Y-252847D01*
X727340Y-252592D01*
X727577Y-252301D01*
X727832Y-251973D01*
Y-248165D01*
X727814D01*
X727777Y-248128D01*
X727686Y-248110D01*
X727595Y-248074D01*
X727486Y-248037D01*
X727340Y-247982D01*
X727030Y-247909D01*
X727012D01*
X726958Y-247891D01*
X726885Y-247873D01*
X726775Y-247855D01*
X726648D01*
X726502Y-247837D01*
X726192Y-247818D01*
D02*
G37*
G36*
X680551Y-247818D02*
X680278D01*
X680223Y-247837D01*
X680041Y-247855D01*
X679841Y-247909D01*
X679822D01*
X679786Y-247928D01*
X679731Y-247946D01*
X679658Y-247982D01*
X679476Y-248074D01*
X679257Y-248201D01*
X679239D01*
X679203Y-248237D01*
X679148Y-248274D01*
X679075Y-248347D01*
X678875Y-248511D01*
X678620Y-248748D01*
X678602Y-248766D01*
X678565Y-248802D01*
X678492Y-248875D01*
X678419Y-248966D01*
X678310Y-249094D01*
X678183Y-249240D01*
X678055Y-249385D01*
X677927Y-249568D01*
Y-253558D01*
X677946D01*
X678000Y-253576D01*
X678073Y-253612D01*
X678183Y-253649D01*
X678292Y-253685D01*
X678438Y-253740D01*
X678747Y-253813D01*
X678766D01*
X678820Y-253831D01*
X678911Y-253849D01*
X679021D01*
X679148Y-253867D01*
X679294Y-253886D01*
X679604Y-253904D01*
X679713D01*
X679786Y-253886D01*
X680005Y-253867D01*
X680260Y-253813D01*
X680551Y-253703D01*
X680843Y-253576D01*
X681134Y-253376D01*
X681280Y-253266D01*
X681407Y-253120D01*
Y-253102D01*
X681444Y-253084D01*
X681462Y-253029D01*
X681517Y-252975D01*
X681571Y-252884D01*
X681626Y-252793D01*
X681681Y-252665D01*
X681754Y-252537D01*
X681808Y-252373D01*
X681863Y-252209D01*
X681918Y-252009D01*
X681972Y-251790D01*
X682027Y-251572D01*
X682045Y-251317D01*
X682082Y-251062D01*
Y-250770D01*
Y-250734D01*
Y-250661D01*
Y-250533D01*
X682063Y-250369D01*
Y-250187D01*
X682045Y-249987D01*
X681972Y-249586D01*
Y-249568D01*
X681954Y-249495D01*
X681936Y-249385D01*
X681899Y-249258D01*
X681808Y-248966D01*
X681681Y-248657D01*
Y-248638D01*
X681644Y-248584D01*
X681608Y-248511D01*
X681535Y-248420D01*
X681371Y-248219D01*
X681152Y-248037D01*
X681134Y-248019D01*
X681098Y-248001D01*
X681025Y-247964D01*
X680934Y-247928D01*
X680824Y-247891D01*
X680697Y-247855D01*
X680551Y-247818D01*
D02*
G37*
G36*
X764782Y-251207D02*
X762778D01*
X762650Y-251225D01*
X762359Y-251244D01*
X762049Y-251317D01*
X762031D01*
X761995Y-251335D01*
X761922Y-251353D01*
X761831Y-251390D01*
X761612Y-251499D01*
X761412Y-251626D01*
X761393D01*
X761375Y-251663D01*
X761284Y-251754D01*
X761156Y-251918D01*
X761047Y-252100D01*
Y-252118D01*
X761029Y-252155D01*
X761011Y-252209D01*
X760992Y-252282D01*
X760956Y-252483D01*
X760938Y-252719D01*
Y-252738D01*
Y-252756D01*
X760956Y-252865D01*
X760974Y-253011D01*
X761011Y-253175D01*
Y-253193D01*
X761029Y-253211D01*
X761065Y-253303D01*
X761138Y-253430D01*
X761247Y-253576D01*
X761284Y-253594D01*
X761357Y-253667D01*
X761503Y-253758D01*
X761667Y-253831D01*
X761685D01*
X761721Y-253849D01*
X761776Y-253867D01*
X761849D01*
X762049Y-253904D01*
X762304Y-253922D01*
X762395D01*
X762487Y-253904D01*
X762632Y-253886D01*
X762796Y-253849D01*
X762997Y-253795D01*
X763197Y-253722D01*
X763434Y-253630D01*
X763470Y-253612D01*
X763543Y-253576D01*
X763671Y-253503D01*
X763835Y-253394D01*
X764035Y-253266D01*
X764272Y-253102D01*
X764527Y-252920D01*
X764782Y-252683D01*
Y-251207D01*
D02*
G37*
G36*
X735448Y-247727D02*
X735084D01*
X734974Y-247745D01*
X734847Y-247764D01*
X734701Y-247800D01*
X734391Y-247909D01*
X734373D01*
X734337Y-247946D01*
X734264Y-247982D01*
X734173Y-248037D01*
X733954Y-248201D01*
X733735Y-248420D01*
X733717Y-248438D01*
X733699Y-248474D01*
X733644Y-248547D01*
X733571Y-248638D01*
X733498Y-248748D01*
X733426Y-248893D01*
X733280Y-249203D01*
Y-249221D01*
X733262Y-249276D01*
X733225Y-249367D01*
X733189Y-249495D01*
X733152Y-249640D01*
X733134Y-249823D01*
X733079Y-250205D01*
X737416D01*
Y-250187D01*
Y-250114D01*
Y-250005D01*
Y-249877D01*
X737397Y-249731D01*
X737379Y-249568D01*
X737288Y-249221D01*
Y-249203D01*
X737270Y-249148D01*
X737234Y-249057D01*
X737197Y-248948D01*
X737070Y-248693D01*
X736887Y-248438D01*
X736869Y-248420D01*
X736833Y-248383D01*
X736778Y-248328D01*
X736705Y-248256D01*
X736596Y-248165D01*
X736486Y-248092D01*
X736195Y-247928D01*
X736177Y-247909D01*
X736122Y-247891D01*
X736031Y-247855D01*
X735922Y-247818D01*
X735794Y-247782D01*
X735630Y-247764D01*
X735448Y-247727D01*
D02*
G37*
G36*
X707717Y-247800D02*
X707407D01*
X707280Y-247818D01*
X707134Y-247837D01*
X706952Y-247855D01*
X706770Y-247909D01*
X706588Y-247964D01*
X706405Y-248055D01*
X706387Y-248074D01*
X706332Y-248110D01*
X706241Y-248165D01*
X706150Y-248237D01*
X706023Y-248328D01*
X705895Y-248438D01*
X705658Y-248729D01*
X705640Y-248748D01*
X705604Y-248802D01*
X705567Y-248893D01*
X705494Y-249003D01*
X705421Y-249148D01*
X705367Y-249312D01*
X705294Y-249495D01*
X705239Y-249695D01*
Y-249713D01*
X705221Y-249786D01*
X705203Y-249896D01*
X705185Y-250041D01*
X705148Y-250223D01*
X705130Y-250424D01*
X705112Y-250861D01*
Y-250898D01*
Y-250989D01*
X705130Y-251134D01*
Y-251317D01*
X705148Y-251517D01*
X705185Y-251754D01*
X705276Y-252209D01*
Y-252228D01*
X705312Y-252301D01*
X705349Y-252410D01*
X705403Y-252537D01*
X705549Y-252847D01*
X705749Y-253157D01*
X705768Y-253175D01*
X705804Y-253211D01*
X705877Y-253284D01*
X705968Y-253357D01*
X706077Y-253448D01*
X706205Y-253539D01*
X706496Y-253722D01*
X706515D01*
X706569Y-253758D01*
X706679Y-253776D01*
X706788Y-253813D01*
X706952Y-253849D01*
X707116Y-253867D01*
X707316Y-253904D01*
X707626D01*
X707735Y-253886D01*
X707899Y-253867D01*
X708063Y-253849D01*
X708246Y-253795D01*
X708428Y-253740D01*
X708610Y-253667D01*
X708628Y-253649D01*
X708683Y-253612D01*
X708774Y-253558D01*
X708883Y-253485D01*
X708993Y-253394D01*
X709120Y-253266D01*
X709357Y-252993D01*
X709375Y-252975D01*
X709412Y-252920D01*
X709448Y-252829D01*
X709521Y-252720D01*
X709594Y-252574D01*
X709649Y-252410D01*
X709721Y-252228D01*
X709776Y-252027D01*
Y-252009D01*
X709794Y-251936D01*
X709831Y-251809D01*
X709849Y-251663D01*
X709885Y-251499D01*
X709904Y-251298D01*
X709922Y-250861D01*
Y-250825D01*
Y-250734D01*
Y-250588D01*
X709904Y-250406D01*
X709885Y-250205D01*
X709849Y-249968D01*
X709794Y-249750D01*
X709740Y-249531D01*
Y-249513D01*
X709703Y-249440D01*
X709667Y-249331D01*
X709612Y-249185D01*
X709466Y-248893D01*
X709375Y-248729D01*
X709266Y-248584D01*
X709248Y-248565D01*
X709211Y-248529D01*
X709138Y-248456D01*
X709047Y-248365D01*
X708938Y-248274D01*
X708810Y-248183D01*
X708501Y-248001D01*
X708482Y-247982D01*
X708428Y-247964D01*
X708337Y-247928D01*
X708209Y-247891D01*
X708063Y-247855D01*
X707899Y-247837D01*
X707717Y-247800D01*
D02*
G37*
G36*
X670767Y-247800D02*
X670457D01*
X670330Y-247818D01*
X670184Y-247837D01*
X670002Y-247855D01*
X669820Y-247909D01*
X669637Y-247964D01*
X669455Y-248055D01*
X669437Y-248074D01*
X669382Y-248110D01*
X669291Y-248165D01*
X669200Y-248237D01*
X669072Y-248328D01*
X668945Y-248438D01*
X668708Y-248729D01*
X668690Y-248748D01*
X668653Y-248802D01*
X668617Y-248893D01*
X668544Y-249003D01*
X668471Y-249149D01*
X668417Y-249312D01*
X668344Y-249495D01*
X668289Y-249695D01*
Y-249713D01*
X668271Y-249786D01*
X668253Y-249896D01*
X668234Y-250041D01*
X668198Y-250223D01*
X668180Y-250424D01*
X668161Y-250861D01*
Y-250898D01*
Y-250989D01*
X668180Y-251134D01*
Y-251317D01*
X668198Y-251517D01*
X668234Y-251754D01*
X668326Y-252209D01*
Y-252228D01*
X668362Y-252301D01*
X668398Y-252410D01*
X668453Y-252537D01*
X668599Y-252847D01*
X668799Y-253157D01*
X668818Y-253175D01*
X668854Y-253211D01*
X668927Y-253284D01*
X669018Y-253357D01*
X669127Y-253448D01*
X669255Y-253539D01*
X669546Y-253722D01*
X669564D01*
X669619Y-253758D01*
X669729Y-253776D01*
X669838Y-253813D01*
X670002Y-253849D01*
X670166Y-253867D01*
X670366Y-253904D01*
X670676D01*
X670785Y-253886D01*
X670949Y-253867D01*
X671113Y-253849D01*
X671295Y-253795D01*
X671478Y-253740D01*
X671660Y-253667D01*
X671678Y-253649D01*
X671733Y-253612D01*
X671824Y-253558D01*
X671933Y-253485D01*
X672042Y-253394D01*
X672170Y-253266D01*
X672407Y-252993D01*
X672425Y-252975D01*
X672462Y-252920D01*
X672498Y-252829D01*
X672571Y-252720D01*
X672644Y-252574D01*
X672698Y-252410D01*
X672771Y-252228D01*
X672826Y-252027D01*
Y-252009D01*
X672844Y-251936D01*
X672881Y-251809D01*
X672899Y-251663D01*
X672935Y-251499D01*
X672953Y-251298D01*
X672972Y-250861D01*
Y-250825D01*
Y-250734D01*
Y-250588D01*
X672953Y-250406D01*
X672935Y-250205D01*
X672899Y-249968D01*
X672844Y-249750D01*
X672789Y-249531D01*
Y-249513D01*
X672753Y-249440D01*
X672717Y-249331D01*
X672662Y-249185D01*
X672516Y-248893D01*
X672425Y-248729D01*
X672316Y-248584D01*
X672297Y-248565D01*
X672261Y-248529D01*
X672188Y-248456D01*
X672097Y-248365D01*
X671988Y-248274D01*
X671860Y-248183D01*
X671551Y-248001D01*
X671532Y-247982D01*
X671478Y-247964D01*
X671386Y-247928D01*
X671259Y-247891D01*
X671113Y-247855D01*
X670949Y-247837D01*
X670767Y-247800D01*
D02*
G37*
%LPD*%
D28*
X133661Y129921D02*
D03*
X149803D02*
D03*
X141732D02*
D03*
D29*
X266452Y-8760D02*
D03*
Y8760D02*
D03*
X15748Y-8760D02*
D03*
Y8760D02*
D03*
Y-95374D02*
D03*
Y-77854D02*
D03*
Y95374D02*
D03*
Y77854D02*
D03*
D30*
X150492Y43307D02*
D03*
X132972D02*
D03*
D31*
X-23622Y-122047D02*
D03*
Y-51181D02*
D03*
Y-104331D02*
D03*
Y-86614D02*
D03*
Y-68898D02*
D03*
Y62165D02*
D03*
Y91535D02*
D03*
Y121221D02*
D03*
D32*
Y52165D02*
D03*
Y81535D02*
D03*
Y111221D02*
D03*
D33*
X-27559Y-19685D02*
D03*
Y3937D02*
D03*
Y27559D02*
D03*
D34*
X-19685Y-19685D02*
D03*
X-27559Y-27559D02*
D03*
X-19685D02*
D03*
Y3937D02*
D03*
X-27559Y-3937D02*
D03*
X-19685D02*
D03*
X-27559Y-11811D02*
D03*
X-19685D02*
D03*
Y27559D02*
D03*
X-27559Y19685D02*
D03*
X-19685D02*
D03*
X-27559Y11811D02*
D03*
X-19685D02*
D03*
D35*
X282200Y129921D02*
D03*
X0D02*
D03*
X282198Y43307D02*
D03*
X-2D02*
D03*
Y-43307D02*
D03*
X282198D02*
D03*
X-2Y-129921D02*
D03*
X282198D02*
D03*
D36*
X250100Y98421D02*
D03*
X32600Y161421D02*
D03*
X0Y98421D02*
D03*
X282198Y74807D02*
D03*
X249598Y11807D02*
D03*
X32098Y74807D02*
D03*
X-2Y11807D02*
D03*
Y-74807D02*
D03*
X32598Y-11807D02*
D03*
X250098Y-74807D02*
D03*
X282198Y-11807D02*
D03*
X32098Y-98421D02*
D03*
X249598Y-161421D02*
D03*
X282198Y-98421D02*
D03*
D37*
X310070Y-157480D02*
D03*
Y157480D02*
D03*
X-27870D02*
D03*
Y-157480D02*
D03*
M02*
