G04*
G04 #@! TF.GenerationSoftware,Altium Limited,Altium Designer,20.0.10 (225)*
G04*
G04 Layer_Physical_Order=1*
G04 Layer_Color=255*
%FSLAX25Y25*%
%MOIN*%
G70*
G01*
G75*
%ADD26R,0.04134X0.05315*%
%ADD27R,0.13386X0.10827*%
%ADD28R,0.10827X0.13386*%
%ADD29C,0.05906*%
%ADD30R,0.05906X0.05906*%
%ADD31C,0.07000*%
%ADD32C,0.03937*%
%ADD33R,0.04724X0.04724*%
%ADD34C,0.04724*%
%ADD35C,0.30000*%
%ADD36C,0.02500*%
%ADD37C,0.10000*%
%ADD38C,0.05000*%
G36*
X25591Y164430D02*
X25545Y164344D01*
X25110Y162911D01*
X24963Y161421D01*
X25110Y159931D01*
X25545Y158499D01*
X25591Y158413D01*
Y88583D01*
X-9418D01*
X-9587Y89083D01*
X-9457Y89182D01*
X-8929Y89871D01*
X-8596Y90674D01*
X-8483Y91535D01*
X-8596Y92397D01*
X-8929Y93200D01*
X-9457Y93889D01*
X-10147Y94418D01*
X-10950Y94750D01*
X-11811Y94864D01*
X-12673Y94750D01*
X-13475Y94418D01*
X-14165Y93889D01*
X-14694Y93200D01*
X-15026Y92397D01*
X-15139Y91535D01*
X-15026Y90674D01*
X-14694Y89871D01*
X-14165Y89182D01*
X-13901Y88980D01*
Y8296D01*
X-19027D01*
X-19060Y8796D01*
X-18883Y8819D01*
X-18136Y9129D01*
X-17495Y9621D01*
X-17003Y10262D01*
X-16693Y11009D01*
X-16654Y11311D01*
X-22717D01*
X-22677Y11009D01*
X-22367Y10262D01*
X-21875Y9621D01*
X-21234Y9129D01*
X-20487Y8819D01*
X-20310Y8796D01*
X-20343Y8296D01*
X-24422D01*
X-24526Y8275D01*
X-24632Y8269D01*
X-24680Y8245D01*
X-24718Y8237D01*
X-27349D01*
X-27382Y8737D01*
X-27254Y8754D01*
X-26757Y8819D01*
X-26010Y9129D01*
X-25369Y9621D01*
X-24877Y10262D01*
X-24567Y11009D01*
X-24528Y11311D01*
X-30591D01*
X-30551Y11009D01*
X-30241Y10262D01*
X-29749Y9621D01*
X-29108Y9129D01*
X-28361Y8819D01*
X-27864Y8754D01*
X-27736Y8737D01*
X-27769Y8237D01*
X-30400D01*
X-30441Y8245D01*
X-30492Y8270D01*
X-30595Y8276D01*
X-30696Y8296D01*
X-38979D01*
X-39057Y8280D01*
X-39138D01*
X-39212Y8250D01*
X-39275Y8237D01*
X-41339D01*
Y148299D01*
X-40857Y148434D01*
X-40692Y148165D01*
X-39077Y146274D01*
X-37186Y144658D01*
X-35065Y143359D01*
X-32768Y142407D01*
X-30349Y141827D01*
X-27870Y141631D01*
X-25391Y141827D01*
X-22973Y142407D01*
X-20675Y143359D01*
X-18554Y144658D01*
X-16663Y146274D01*
X-15048Y148165D01*
X-13749Y150285D01*
X-12797Y152583D01*
X-12216Y155001D01*
X-12021Y157480D01*
X-12216Y159960D01*
X-12797Y162378D01*
X-13749Y164675D01*
X-15048Y166796D01*
X-16663Y168687D01*
X-18554Y170302D01*
X-19332Y170779D01*
X-19196Y171260D01*
X25591D01*
Y164430D01*
D02*
G37*
G36*
X139764Y1969D02*
X-9721D01*
Y84646D01*
X139764D01*
Y1969D01*
D02*
G37*
G36*
X292042Y1969D02*
X143701D01*
Y108571D01*
X144086Y108867D01*
X144615Y109556D01*
X144947Y110359D01*
X145061Y111221D01*
X144947Y112082D01*
X144615Y112885D01*
X144086Y113574D01*
X143822Y113776D01*
Y126464D01*
X144599D01*
Y133379D01*
X143701D01*
Y171260D01*
X292042D01*
Y1969D01*
D02*
G37*
G36*
X-30777Y7480D02*
X-30755Y7476D01*
X-30707D01*
X-30634Y7033D01*
X-30630Y7008D01*
X-30630Y6976D01*
X-30630Y6951D01*
Y4437D01*
X-24488D01*
X-24488Y6975D01*
X-24488Y7005D01*
X-24409Y7475D01*
X-24367D01*
X-24341Y7480D01*
X-20129D01*
X-20096Y6980D01*
X-20487Y6929D01*
X-21234Y6619D01*
X-21875Y6127D01*
X-22367Y5486D01*
X-22677Y4739D01*
X-22717Y4437D01*
X-16654D01*
X-16693Y4739D01*
X-17003Y5486D01*
X-17495Y6127D01*
X-18136Y6619D01*
X-18883Y6929D01*
X-19274Y6980D01*
X-19242Y7480D01*
X-13901D01*
Y-25003D01*
X-14165Y-25205D01*
X-14694Y-25895D01*
X-15026Y-26698D01*
X-15139Y-27559D01*
X-15026Y-28420D01*
X-14694Y-29223D01*
X-14165Y-29913D01*
X-13901Y-30115D01*
Y-84058D01*
X-14165Y-84261D01*
X-14694Y-84950D01*
X-15026Y-85753D01*
X-15139Y-86614D01*
X-15026Y-87476D01*
X-14694Y-88278D01*
X-14165Y-88968D01*
X-13475Y-89497D01*
X-12673Y-89829D01*
X-11811Y-89943D01*
X-10950Y-89829D01*
X-10147Y-89497D01*
X-9457Y-88968D01*
X-9162Y-88583D01*
X25591D01*
Y-94477D01*
X25045Y-95499D01*
X24610Y-96931D01*
X24463Y-98421D01*
X24610Y-99911D01*
X25045Y-101344D01*
X25591Y-102365D01*
Y-171260D01*
X-19196D01*
X-19332Y-170779D01*
X-18554Y-170302D01*
X-16663Y-168687D01*
X-15048Y-166796D01*
X-13749Y-164675D01*
X-12797Y-162378D01*
X-12216Y-159960D01*
X-12021Y-157480D01*
X-12216Y-155001D01*
X-12797Y-152583D01*
X-13749Y-150285D01*
X-15048Y-148165D01*
X-16663Y-146274D01*
X-18554Y-144658D01*
X-20675Y-143359D01*
X-22973Y-142407D01*
X-25391Y-141827D01*
X-27870Y-141631D01*
X-30349Y-141827D01*
X-32768Y-142407D01*
X-35065Y-143359D01*
X-37186Y-144658D01*
X-39077Y-146274D01*
X-40692Y-148165D01*
X-40857Y-148434D01*
X-41339Y-148299D01*
X-41339Y259D01*
X-40839Y672D01*
X-40354Y609D01*
X-39493Y722D01*
X-38690Y1055D01*
X-38001Y1583D01*
X-37472Y2273D01*
X-37139Y3076D01*
X-37026Y3937D01*
X-37139Y4798D01*
X-37472Y5601D01*
X-38001Y6291D01*
X-38577Y6733D01*
X-38705Y7130D01*
X-38716Y7372D01*
X-38633Y7480D01*
X-30777D01*
D02*
G37*
G36*
X25591Y-8799D02*
X25545Y-8885D01*
X25110Y-10317D01*
X24963Y-11807D01*
X25110Y-13297D01*
X25545Y-14730D01*
X25591Y-14816D01*
Y-84646D01*
X-9162D01*
X-9457Y-84261D01*
X-9721Y-84058D01*
Y-30115D01*
X-9457Y-29913D01*
X-8929Y-29223D01*
X-8596Y-28420D01*
X-8483Y-27559D01*
X-8596Y-26698D01*
X-8929Y-25895D01*
X-9457Y-25205D01*
X-9721Y-25003D01*
Y-1969D01*
X25591D01*
Y-8799D01*
D02*
G37*
G36*
X292042Y-171260D02*
X256610D01*
Y-164430D01*
X256656Y-164344D01*
X257090Y-162911D01*
X257237Y-161421D01*
X257090Y-159931D01*
X256656Y-158499D01*
X256610Y-158413D01*
Y-78751D01*
X257155Y-77730D01*
X257590Y-76297D01*
X257737Y-74807D01*
X257590Y-73317D01*
X257155Y-71885D01*
X256610Y-70863D01*
Y-1969D01*
X292042D01*
Y-171260D01*
D02*
G37*
G36*
X126900Y234483D02*
X126991D01*
X127118Y234465D01*
X127410Y234392D01*
X127719Y234300D01*
X128029Y234155D01*
X128339Y233936D01*
X128485Y233808D01*
X128612Y233663D01*
X128649Y233626D01*
X128667Y233572D01*
X128722Y233517D01*
X128758Y233426D01*
X128813Y233317D01*
X128886Y233189D01*
X128940Y233043D01*
X128995Y232879D01*
X129050Y232715D01*
X129104Y232515D01*
X129159Y232296D01*
X129195Y232041D01*
X129214Y231786D01*
X129232Y231513D01*
Y231221D01*
X127792D01*
Y231240D01*
Y231276D01*
Y231331D01*
Y231403D01*
X127774Y231586D01*
X127756Y231804D01*
X127719Y232059D01*
X127665Y232314D01*
X127574Y232570D01*
X127464Y232770D01*
X127446Y232788D01*
X127410Y232843D01*
X127319Y232934D01*
X127209Y233025D01*
X127064Y233098D01*
X126900Y233189D01*
X126699Y233244D01*
X126462Y233262D01*
X126353D01*
X126298Y233244D01*
X126116Y233225D01*
X125898Y233153D01*
X125879D01*
X125843Y233134D01*
X125788Y233116D01*
X125715Y233080D01*
X125515Y232970D01*
X125296Y232825D01*
X125278Y232806D01*
X125242Y232788D01*
X125187Y232734D01*
X125096Y232679D01*
X124895Y232478D01*
X124640Y232242D01*
X124622Y232223D01*
X124586Y232187D01*
X124513Y232114D01*
X124422Y232005D01*
X124312Y231877D01*
X124185Y231750D01*
X124057Y231586D01*
X123911Y231403D01*
Y226120D01*
X122472D01*
Y234355D01*
X123766D01*
X123802Y232825D01*
Y232843D01*
X123839Y232861D01*
X123930Y232970D01*
X124075Y233116D01*
X124258Y233317D01*
X124476Y233517D01*
X124713Y233736D01*
X124968Y233936D01*
X125242Y234100D01*
X125278Y234118D01*
X125369Y234155D01*
X125497Y234228D01*
X125697Y234300D01*
X125898Y234373D01*
X126153Y234446D01*
X126408Y234483D01*
X126681Y234501D01*
X126809D01*
X126900Y234483D01*
D02*
G37*
G36*
X108188Y226994D02*
Y226976D01*
X108169Y226940D01*
X108151Y226885D01*
X108115Y226812D01*
X108024Y226593D01*
X107914Y226338D01*
X107769Y226047D01*
X107623Y225719D01*
X107459Y225391D01*
X107277Y225081D01*
X107258Y225045D01*
X107204Y224954D01*
X107113Y224790D01*
X106985Y224607D01*
X106839Y224389D01*
X106657Y224170D01*
X106475Y223952D01*
X106274Y223733D01*
X106256Y223715D01*
X106183Y223642D01*
X106074Y223551D01*
X105928Y223441D01*
X105746Y223314D01*
X105546Y223186D01*
X105309Y223077D01*
X105072Y222968D01*
X105036Y222949D01*
X104963Y222931D01*
X104817Y222895D01*
X104635Y222840D01*
X104416Y222785D01*
X104179Y222749D01*
X103888Y222731D01*
X103596Y222713D01*
X103341D01*
X103195Y222731D01*
X102977D01*
X102831Y222749D01*
Y224043D01*
X102867D01*
X102940Y224024D01*
X103068D01*
X103214Y224006D01*
X103250D01*
X103359Y223988D01*
X103505Y223970D01*
X103815D01*
X103906Y223988D01*
X104161Y224024D01*
X104416Y224097D01*
X104434D01*
X104471Y224115D01*
X104544Y224152D01*
X104635Y224188D01*
X104835Y224298D01*
X105054Y224462D01*
X105072Y224480D01*
X105108Y224516D01*
X105163Y224571D01*
X105236Y224644D01*
X105327Y224735D01*
X105436Y224863D01*
X105637Y225136D01*
X105655Y225154D01*
X105692Y225209D01*
X105746Y225300D01*
X105819Y225409D01*
X105892Y225555D01*
X105983Y225737D01*
X106092Y225919D01*
X106183Y226120D01*
X102904Y234355D01*
X104525D01*
X106603Y228889D01*
X107022Y227614D01*
X107495Y228926D01*
X109427Y234355D01*
X110994D01*
X108188Y226994D01*
D02*
G37*
G36*
X190287Y236815D02*
X190524Y236797D01*
X190779Y236760D01*
X191325Y236651D01*
X191362D01*
X191453Y236614D01*
X191581Y236578D01*
X191763Y236505D01*
X191963Y236432D01*
X192164Y236323D01*
X192382Y236214D01*
X192601Y236068D01*
X192619Y236050D01*
X192692Y235995D01*
X192801Y235922D01*
X192929Y235794D01*
X193075Y235649D01*
X193220Y235485D01*
X193366Y235284D01*
X193494Y235066D01*
X193512Y235029D01*
X193548Y234956D01*
X193603Y234829D01*
X193658Y234647D01*
X193712Y234428D01*
X193767Y234173D01*
X193803Y233881D01*
X193822Y233554D01*
Y233517D01*
Y233444D01*
X193803Y233317D01*
X193785Y233153D01*
X193767Y232952D01*
X193712Y232715D01*
X193658Y232478D01*
X193567Y232242D01*
X193548Y232205D01*
X193530Y232132D01*
X193457Y232005D01*
X193384Y231859D01*
X193275Y231677D01*
X193148Y231495D01*
X192983Y231294D01*
X192801Y231094D01*
X192783Y231076D01*
X192710Y231003D01*
X192601Y230912D01*
X192455Y230802D01*
X192255Y230675D01*
X192036Y230529D01*
X191781Y230401D01*
X191490Y230274D01*
X191453Y230256D01*
X191344Y230219D01*
X191180Y230183D01*
X190943Y230128D01*
X190670Y230055D01*
X190342Y230019D01*
X189959Y229982D01*
X189558Y229964D01*
X188246D01*
Y226120D01*
X186789D01*
Y236833D01*
X190087D01*
X190287Y236815D01*
D02*
G37*
G36*
X175547Y235594D02*
X172377D01*
Y226120D01*
X170901Y226120D01*
Y235594D01*
X167731D01*
Y236833D01*
X175547Y236833D01*
Y235594D01*
D02*
G37*
G36*
X145101Y227450D02*
X147488D01*
Y226120D01*
X140765D01*
Y227450D01*
X143516D01*
Y235266D01*
X140947Y233881D01*
X140437Y235102D01*
X143826Y236888D01*
X145101D01*
Y227450D01*
D02*
G37*
G36*
X98239Y234483D02*
X98440Y234464D01*
X98677Y234428D01*
X99132Y234337D01*
X99151D01*
X99242Y234300D01*
X99351Y234264D01*
X99479Y234209D01*
X99642Y234137D01*
X99806Y234045D01*
X99970Y233954D01*
X100134Y233827D01*
X100153Y233808D01*
X100207Y233772D01*
X100280Y233699D01*
X100371Y233608D01*
X100481Y233481D01*
X100590Y233335D01*
X100681Y233171D01*
X100772Y232989D01*
X100790Y232970D01*
X100809Y232897D01*
X100845Y232788D01*
X100900Y232643D01*
X100936Y232478D01*
X100972Y232260D01*
X100991Y232041D01*
X101009Y231786D01*
Y226120D01*
X99715D01*
X99679Y227213D01*
X99642Y227176D01*
X99570Y227104D01*
X99424Y226994D01*
X99260Y226849D01*
X99041Y226703D01*
X98823Y226539D01*
X98567Y226393D01*
X98312Y226266D01*
X98276Y226247D01*
X98185Y226229D01*
X98057Y226174D01*
X97875Y226120D01*
X97657Y226065D01*
X97401Y226029D01*
X97146Y225992D01*
X96855Y225974D01*
X96746D01*
X96618Y225992D01*
X96454D01*
X96254Y226010D01*
X96053Y226047D01*
X95652Y226138D01*
X95634D01*
X95579Y226174D01*
X95488Y226211D01*
X95361Y226266D01*
X95106Y226429D01*
X94832Y226630D01*
X94814Y226648D01*
X94778Y226684D01*
X94723Y226757D01*
X94650Y226849D01*
X94577Y226958D01*
X94486Y227085D01*
X94359Y227377D01*
Y227395D01*
X94340Y227450D01*
X94322Y227541D01*
X94286Y227650D01*
X94268Y227796D01*
X94231Y227960D01*
X94213Y228306D01*
Y228324D01*
Y228361D01*
Y228434D01*
X94231Y228506D01*
X94249Y228616D01*
X94268Y228743D01*
X94322Y229017D01*
X94432Y229326D01*
X94595Y229654D01*
X94705Y229818D01*
X94832Y229964D01*
X94960Y230110D01*
X95124Y230256D01*
X95142D01*
X95160Y230292D01*
X95215Y230328D01*
X95306Y230365D01*
X95397Y230420D01*
X95507Y230474D01*
X95652Y230547D01*
X95816Y230620D01*
X95999Y230675D01*
X96199Y230748D01*
X96417Y230802D01*
X96673Y230857D01*
X96928Y230893D01*
X97219Y230930D01*
X97529Y230966D01*
X99570D01*
Y231677D01*
Y231713D01*
Y231804D01*
X99551Y231932D01*
X99515Y232096D01*
X99460Y232278D01*
X99369Y232478D01*
X99260Y232661D01*
X99096Y232843D01*
X99078Y232861D01*
X99005Y232916D01*
X98896Y232989D01*
X98750Y233062D01*
X98549Y233134D01*
X98294Y233207D01*
X98003Y233262D01*
X97675Y233280D01*
X97420D01*
X97237Y233262D01*
X97019Y233244D01*
X96800Y233207D01*
X96290Y233116D01*
X96254D01*
X96181Y233080D01*
X96035Y233043D01*
X95871Y233007D01*
X95652Y232934D01*
X95415Y232861D01*
X95160Y232770D01*
X94905Y232679D01*
Y233973D01*
X94924D01*
X94960Y233991D01*
X94996Y234009D01*
X95069Y234027D01*
X95251Y234082D01*
X95488Y234155D01*
X95507D01*
X95543Y234173D01*
X95616Y234191D01*
X95707Y234209D01*
X95944Y234264D01*
X96199Y234319D01*
X96217D01*
X96272Y234337D01*
X96345Y234355D01*
X96436Y234373D01*
X96545Y234392D01*
X96673Y234410D01*
X96964Y234446D01*
X96982D01*
X97037Y234464D01*
X97110D01*
X97219Y234483D01*
X97347D01*
X97474Y234501D01*
X98057D01*
X98239Y234483D01*
D02*
G37*
G36*
X87271Y227359D02*
X91972D01*
Y226120D01*
X85795D01*
Y236833D01*
X87271D01*
Y227359D01*
D02*
G37*
G36*
X181323Y236979D02*
X181560Y236942D01*
X181851Y236906D01*
X182143Y236833D01*
X182452Y236742D01*
X182744Y236614D01*
X182780Y236596D01*
X182871Y236542D01*
X183017Y236451D01*
X183199Y236341D01*
X183400Y236177D01*
X183600Y235995D01*
X183819Y235776D01*
X184019Y235521D01*
X184037Y235485D01*
X184110Y235394D01*
X184202Y235248D01*
X184311Y235048D01*
X184438Y234792D01*
X184566Y234501D01*
X184675Y234173D01*
X184784Y233809D01*
Y233790D01*
X184803Y233772D01*
Y233717D01*
X184821Y233626D01*
X184839Y233535D01*
X184857Y233426D01*
X184912Y233153D01*
X184967Y232825D01*
X185003Y232442D01*
X185021Y232005D01*
X185040Y231549D01*
Y231531D01*
Y231495D01*
Y231403D01*
Y231312D01*
X185021Y231185D01*
Y231039D01*
X185003Y230693D01*
X184949Y230310D01*
X184894Y229891D01*
X184803Y229472D01*
X184693Y229053D01*
Y229035D01*
X184675Y228998D01*
X184657Y228944D01*
X184639Y228871D01*
X184548Y228689D01*
X184457Y228434D01*
X184311Y228160D01*
X184165Y227869D01*
X183965Y227577D01*
X183764Y227304D01*
X183746Y227268D01*
X183673Y227195D01*
X183546Y227067D01*
X183382Y226921D01*
X183181Y226757D01*
X182963Y226593D01*
X182707Y226448D01*
X182416Y226302D01*
X182379Y226284D01*
X182288Y226247D01*
X182124Y226193D01*
X181924Y226138D01*
X181687Y226083D01*
X181414Y226029D01*
X181104Y225992D01*
X180794Y225974D01*
X180612D01*
X180430Y225992D01*
X180175Y226029D01*
X179902Y226065D01*
X179592Y226120D01*
X179282Y226211D01*
X178991Y226338D01*
X178954Y226357D01*
X178863Y226411D01*
X178717Y226502D01*
X178553Y226612D01*
X178335Y226776D01*
X178134Y226958D01*
X177916Y227176D01*
X177715Y227413D01*
X177697Y227450D01*
X177624Y227541D01*
X177533Y227687D01*
X177424Y227887D01*
X177314Y228142D01*
X177187Y228434D01*
X177077Y228762D01*
X176968Y229126D01*
Y229144D01*
X176950Y229181D01*
Y229235D01*
X176932Y229308D01*
X176913Y229399D01*
X176895Y229509D01*
X176859Y229800D01*
X176804Y230128D01*
X176768Y230529D01*
X176750Y230966D01*
X176731Y231422D01*
Y231440D01*
Y231476D01*
Y231568D01*
Y231659D01*
X176750Y231786D01*
Y231932D01*
X176768Y232260D01*
X176804Y232661D01*
X176877Y233062D01*
X176950Y233499D01*
X177059Y233900D01*
Y233918D01*
X177077Y233954D01*
X177096Y234009D01*
X177114Y234082D01*
X177187Y234264D01*
X177296Y234519D01*
X177424Y234792D01*
X177588Y235084D01*
X177770Y235357D01*
X177970Y235630D01*
X177989Y235667D01*
X178080Y235740D01*
X178189Y235867D01*
X178353Y236013D01*
X178553Y236177D01*
X178790Y236359D01*
X179045Y236505D01*
X179318Y236651D01*
X179355Y236669D01*
X179446Y236705D01*
X179610Y236760D01*
X179811Y236833D01*
X180047Y236888D01*
X180339Y236942D01*
X180630Y236979D01*
X180958Y236997D01*
X181122D01*
X181323Y236979D01*
D02*
G37*
G36*
X116605Y234483D02*
X116806Y234465D01*
X117043Y234428D01*
X117298Y234392D01*
X117553Y234319D01*
X117808Y234228D01*
X117844Y234209D01*
X117917Y234173D01*
X118045Y234118D01*
X118209Y234027D01*
X118373Y233918D01*
X118573Y233790D01*
X118755Y233626D01*
X118937Y233444D01*
X118956Y233426D01*
X119010Y233353D01*
X119101Y233244D01*
X119193Y233116D01*
X119302Y232934D01*
X119429Y232734D01*
X119539Y232497D01*
X119630Y232242D01*
X119648Y232205D01*
X119666Y232114D01*
X119703Y231968D01*
X119757Y231786D01*
X119794Y231549D01*
X119830Y231294D01*
X119849Y231003D01*
X119867Y230675D01*
Y230657D01*
Y230620D01*
Y230565D01*
Y230492D01*
Y230328D01*
X119849Y230146D01*
Y230110D01*
Y230019D01*
Y229909D01*
X119830Y229782D01*
X114055Y229782D01*
Y229764D01*
Y229727D01*
Y229654D01*
X114073Y229581D01*
Y229472D01*
X114091Y229345D01*
X114146Y229053D01*
X114218Y228743D01*
X114346Y228415D01*
X114510Y228106D01*
X114747Y227832D01*
X114783Y227796D01*
X114874Y227723D01*
X115038Y227614D01*
X115275Y227504D01*
X115567Y227377D01*
X115913Y227268D01*
X116314Y227195D01*
X116788Y227158D01*
X117243D01*
X117498Y227176D01*
X117553D01*
X117626Y227195D01*
X117717D01*
X117954Y227231D01*
X118190Y227249D01*
X118209D01*
X118245Y227268D01*
X118318D01*
X118409Y227286D01*
X118609Y227322D01*
X118846Y227359D01*
X118865D01*
X118901Y227377D01*
X118956Y227395D01*
X119028Y227413D01*
X119229Y227450D01*
X119429Y227504D01*
Y226338D01*
X119411D01*
X119320Y226320D01*
X119211Y226284D01*
X119047Y226247D01*
X118846Y226211D01*
X118628Y226156D01*
X118373Y226120D01*
X118099Y226083D01*
X118063D01*
X117972Y226065D01*
X117826Y226047D01*
X117644Y226029D01*
X117407Y226010D01*
X117152Y225992D01*
X116879Y225974D01*
X116405D01*
X116204Y225992D01*
X115968Y226010D01*
X115676Y226047D01*
X115366Y226083D01*
X115057Y226156D01*
X114765Y226247D01*
X114729Y226266D01*
X114637Y226302D01*
X114492Y226375D01*
X114328Y226466D01*
X114127Y226575D01*
X113909Y226721D01*
X113708Y226885D01*
X113508Y227085D01*
X113490Y227104D01*
X113435Y227176D01*
X113344Y227304D01*
X113235Y227450D01*
X113107Y227650D01*
X112998Y227869D01*
X112870Y228142D01*
X112779Y228415D01*
Y228434D01*
Y228452D01*
X112743Y228561D01*
X112706Y228725D01*
X112670Y228944D01*
X112633Y229217D01*
X112597Y229509D01*
X112579Y229855D01*
X112560Y230219D01*
Y230237D01*
Y230256D01*
Y230365D01*
X112579Y230529D01*
X112597Y230748D01*
X112615Y230984D01*
X112670Y231258D01*
X112724Y231549D01*
X112797Y231841D01*
Y231859D01*
X112815Y231877D01*
X112852Y231968D01*
X112907Y232114D01*
X112979Y232314D01*
X113089Y232515D01*
X113216Y232752D01*
X113362Y232989D01*
X113526Y233207D01*
X113544Y233225D01*
X113617Y233298D01*
X113726Y233408D01*
X113854Y233554D01*
X114036Y233699D01*
X114237Y233863D01*
X114455Y234009D01*
X114710Y234155D01*
X114747Y234173D01*
X114838Y234209D01*
X114984Y234264D01*
X115166Y234337D01*
X115403Y234392D01*
X115676Y234446D01*
X115968Y234483D01*
X116296Y234501D01*
X116441D01*
X116605Y234483D01*
D02*
G37*
G36*
X197739Y238309D02*
X197757Y238291D01*
X197812Y238236D01*
X197885Y238163D01*
X197976Y238072D01*
X198067Y237981D01*
X198322Y237708D01*
X198595Y237380D01*
X198923Y236997D01*
X199269Y236542D01*
X199616Y236031D01*
X199962Y235485D01*
X200308Y234883D01*
X200636Y234228D01*
X200927Y233554D01*
X201164Y232843D01*
X201346Y232096D01*
X201419Y231713D01*
X201474Y231331D01*
X201492Y230930D01*
X201511Y230529D01*
Y230511D01*
Y230492D01*
Y230438D01*
Y230383D01*
Y230201D01*
X201492Y229964D01*
X201474Y229691D01*
X201438Y229381D01*
X201383Y229035D01*
X201328Y228689D01*
Y228671D01*
Y228652D01*
X201310Y228598D01*
X201292Y228525D01*
X201255Y228343D01*
X201183Y228087D01*
X201091Y227796D01*
X200982Y227468D01*
X200855Y227122D01*
X200709Y226757D01*
Y226739D01*
X200691Y226721D01*
X200672Y226666D01*
X200636Y226593D01*
X200527Y226393D01*
X200399Y226138D01*
X200235Y225828D01*
X200016Y225500D01*
X199798Y225136D01*
X199524Y224753D01*
Y224735D01*
X199488Y224698D01*
X199452Y224644D01*
X199397Y224571D01*
X199324Y224480D01*
X199233Y224371D01*
X199014Y224097D01*
X198759Y223788D01*
X198450Y223441D01*
X198085Y223059D01*
X197684Y222676D01*
X196864Y223533D01*
X196883Y223551D01*
X196937Y223605D01*
X197010Y223696D01*
X197119Y223806D01*
X197265Y223952D01*
X197411Y224134D01*
X197575Y224316D01*
X197757Y224535D01*
X197939Y224771D01*
X198140Y225026D01*
X198541Y225591D01*
X198905Y226193D01*
X199069Y226521D01*
X199233Y226830D01*
X199251Y226849D01*
X199269Y226903D01*
X199306Y226994D01*
X199361Y227122D01*
X199415Y227286D01*
X199488Y227468D01*
X199561Y227687D01*
X199634Y227923D01*
X199707Y228179D01*
X199780Y228452D01*
X199907Y229071D01*
X199998Y229727D01*
X200035Y230073D01*
Y230420D01*
Y230438D01*
Y230456D01*
Y230511D01*
Y230602D01*
X200016Y230693D01*
Y230802D01*
X199980Y231076D01*
X199944Y231422D01*
X199871Y231823D01*
X199761Y232260D01*
X199634Y232752D01*
X199470Y233280D01*
X199269Y233845D01*
X198996Y234428D01*
X198705Y235029D01*
X198340Y235630D01*
X197903Y236232D01*
X197429Y236851D01*
X197156Y237143D01*
X196864Y237434D01*
X197721Y238327D01*
X197739Y238309D01*
D02*
G37*
G36*
X164888Y237471D02*
X164852Y237434D01*
X164761Y237325D01*
X164597Y237161D01*
X164396Y236924D01*
X164141Y236633D01*
X163886Y236286D01*
X163595Y235867D01*
X163303Y235430D01*
X162993Y234938D01*
X162702Y234392D01*
X162447Y233827D01*
X162192Y233207D01*
X161991Y232570D01*
X161846Y231914D01*
X161736Y231221D01*
X161718Y230875D01*
X161700Y230511D01*
Y230492D01*
Y230420D01*
Y230328D01*
X161718Y230183D01*
Y230019D01*
X161736Y229818D01*
X161773Y229600D01*
X161809Y229345D01*
X161846Y229071D01*
X161900Y228798D01*
X162046Y228179D01*
X162246Y227523D01*
X162356Y227195D01*
X162502Y226867D01*
X162520Y226849D01*
X162538Y226794D01*
X162593Y226703D01*
X162647Y226575D01*
X162738Y226411D01*
X162848Y226229D01*
X162957Y226029D01*
X163103Y225792D01*
X163267Y225555D01*
X163431Y225300D01*
X163631Y225026D01*
X163850Y224735D01*
X164087Y224444D01*
X164323Y224152D01*
X164597Y223860D01*
X164888Y223569D01*
X164014Y222676D01*
X163996Y222694D01*
X163977Y222713D01*
X163923Y222767D01*
X163850Y222840D01*
X163759Y222931D01*
X163668Y223022D01*
X163431Y223296D01*
X163139Y223624D01*
X162829Y224006D01*
X162483Y224462D01*
X162137Y224954D01*
X161773Y225500D01*
X161445Y226101D01*
X161117Y226739D01*
X160825Y227413D01*
X160588Y228124D01*
X160406Y228853D01*
X160333Y229235D01*
X160279Y229618D01*
X160260Y230001D01*
X160242Y230401D01*
Y230420D01*
Y230456D01*
Y230492D01*
Y230565D01*
X160260Y230766D01*
Y231021D01*
X160297Y231331D01*
X160333Y231659D01*
X160370Y232023D01*
X160443Y232387D01*
Y232406D01*
X160461Y232424D01*
Y232478D01*
X160479Y232551D01*
X160534Y232752D01*
X160607Y233007D01*
X160679Y233298D01*
X160789Y233626D01*
X160934Y233991D01*
X161080Y234355D01*
Y234373D01*
X161099Y234410D01*
X161135Y234446D01*
X161171Y234519D01*
X161263Y234719D01*
X161408Y234975D01*
X161572Y235284D01*
X161773Y235612D01*
X162010Y235977D01*
X162265Y236341D01*
Y236359D01*
X162301Y236396D01*
X162338Y236432D01*
X162392Y236505D01*
X162556Y236705D01*
X162757Y236961D01*
X163030Y237270D01*
X163321Y237598D01*
X163668Y237963D01*
X164050Y238327D01*
X164888Y237471D01*
D02*
G37*
%LPC*%
G36*
X-23622Y125006D02*
X-24602Y124877D01*
X-25515Y124498D01*
X-26298Y123897D01*
X-26900Y123113D01*
X-27278Y122200D01*
X-27407Y121221D01*
X-27278Y120241D01*
X-26900Y119328D01*
X-26298Y118544D01*
X-25515Y117943D01*
X-24602Y117564D01*
X-23622Y117435D01*
X-22642Y117564D01*
X-21730Y117943D01*
X-20946Y118544D01*
X-20344Y119328D01*
X-19966Y120241D01*
X-19837Y121221D01*
X-19966Y122200D01*
X-20344Y123113D01*
X-20946Y123897D01*
X-21730Y124498D01*
X-22642Y124877D01*
X-23622Y125006D01*
D02*
G37*
G36*
X-19869Y114973D02*
X-27375D01*
Y107468D01*
X-19869D01*
Y114973D01*
D02*
G37*
G36*
X0Y103969D02*
X-1436Y103780D01*
X-2774Y103226D01*
X-3923Y102344D01*
X-4804Y101195D01*
X-5358Y99857D01*
X-5548Y98421D01*
X-5358Y96986D01*
X-4804Y95648D01*
X-3923Y94499D01*
X-2774Y93617D01*
X-1436Y93063D01*
X0Y92874D01*
X1436Y93063D01*
X2774Y93617D01*
X3923Y94499D01*
X4804Y95648D01*
X5358Y96986D01*
X5548Y98421D01*
X5358Y99857D01*
X4804Y101195D01*
X3923Y102344D01*
X2774Y103226D01*
X1436Y103780D01*
X0Y103969D01*
D02*
G37*
G36*
X-23622Y95321D02*
X-24602Y95192D01*
X-25515Y94814D01*
X-26298Y94212D01*
X-26900Y93428D01*
X-27278Y92515D01*
X-27407Y91535D01*
X-27278Y90556D01*
X-26900Y89643D01*
X-26298Y88859D01*
X-25515Y88257D01*
X-24602Y87879D01*
X-23622Y87750D01*
X-22642Y87879D01*
X-21730Y88257D01*
X-20946Y88859D01*
X-20344Y89643D01*
X-19966Y90556D01*
X-19837Y91535D01*
X-19966Y92515D01*
X-20344Y93428D01*
X-20946Y94212D01*
X-21730Y94814D01*
X-22642Y95192D01*
X-23622Y95321D01*
D02*
G37*
G36*
X-19869Y85288D02*
X-27375D01*
Y77783D01*
X-19869D01*
Y85288D01*
D02*
G37*
G36*
X-23622Y65951D02*
X-24602Y65821D01*
X-25515Y65443D01*
X-26298Y64842D01*
X-26900Y64058D01*
X-27278Y63145D01*
X-27407Y62165D01*
X-27278Y61186D01*
X-26900Y60273D01*
X-26298Y59489D01*
X-25515Y58887D01*
X-24602Y58509D01*
X-23622Y58380D01*
X-22642Y58509D01*
X-21730Y58887D01*
X-20946Y59489D01*
X-20344Y60273D01*
X-19966Y61186D01*
X-19837Y62165D01*
X-19966Y63145D01*
X-20344Y64058D01*
X-20946Y64842D01*
X-21730Y65443D01*
X-22642Y65821D01*
X-23622Y65951D01*
D02*
G37*
G36*
X-19869Y55918D02*
X-27375D01*
Y48413D01*
X-19869D01*
Y55918D01*
D02*
G37*
G36*
X-19185Y30591D02*
Y28059D01*
X-16654D01*
X-16693Y28361D01*
X-17003Y29108D01*
X-17495Y29749D01*
X-18136Y30241D01*
X-18883Y30551D01*
X-19185Y30591D01*
D02*
G37*
G36*
X-20185D02*
X-20487Y30551D01*
X-21234Y30241D01*
X-21875Y29749D01*
X-22367Y29108D01*
X-22677Y28361D01*
X-22717Y28059D01*
X-20185D01*
Y30591D01*
D02*
G37*
G36*
X-24488Y30630D02*
X-27059D01*
Y28059D01*
X-24488D01*
Y30630D01*
D02*
G37*
G36*
X-28059D02*
X-30630D01*
Y28059D01*
X-28059D01*
Y30630D01*
D02*
G37*
G36*
X-16654Y27059D02*
X-19185D01*
Y24528D01*
X-18883Y24567D01*
X-18136Y24877D01*
X-17495Y25369D01*
X-17003Y26010D01*
X-16693Y26757D01*
X-16654Y27059D01*
D02*
G37*
G36*
X-20185D02*
X-22717D01*
X-22677Y26757D01*
X-22367Y26010D01*
X-21875Y25369D01*
X-21234Y24877D01*
X-20487Y24567D01*
X-20185Y24528D01*
Y27059D01*
D02*
G37*
G36*
X-24488D02*
X-27059D01*
Y24488D01*
X-24488D01*
Y27059D01*
D02*
G37*
G36*
X-28059D02*
X-30630D01*
Y24488D01*
X-28059D01*
Y27059D01*
D02*
G37*
G36*
X-19185Y22717D02*
Y20185D01*
X-16654D01*
X-16693Y20487D01*
X-17003Y21234D01*
X-17495Y21875D01*
X-18136Y22367D01*
X-18883Y22677D01*
X-19185Y22717D01*
D02*
G37*
G36*
X-20185D02*
X-20487Y22677D01*
X-21234Y22367D01*
X-21875Y21875D01*
X-22367Y21234D01*
X-22677Y20487D01*
X-22717Y20185D01*
X-20185D01*
Y22717D01*
D02*
G37*
G36*
X-27059D02*
Y20185D01*
X-24528D01*
X-24567Y20487D01*
X-24877Y21234D01*
X-25369Y21875D01*
X-26010Y22367D01*
X-26757Y22677D01*
X-27059Y22717D01*
D02*
G37*
G36*
X-28059D02*
X-28361Y22677D01*
X-29108Y22367D01*
X-29749Y21875D01*
X-30241Y21234D01*
X-30551Y20487D01*
X-30591Y20185D01*
X-28059D01*
Y22717D01*
D02*
G37*
G36*
X-16654Y19185D02*
X-19185D01*
Y16654D01*
X-18883Y16693D01*
X-18136Y17003D01*
X-17495Y17495D01*
X-17003Y18136D01*
X-16693Y18883D01*
X-16654Y19185D01*
D02*
G37*
G36*
X-20185D02*
X-22717D01*
X-22677Y18883D01*
X-22367Y18136D01*
X-21875Y17495D01*
X-21234Y17003D01*
X-20487Y16693D01*
X-20185Y16654D01*
Y19185D01*
D02*
G37*
G36*
X-24528D02*
X-27059D01*
Y16654D01*
X-26757Y16693D01*
X-26010Y17003D01*
X-25369Y17495D01*
X-24877Y18136D01*
X-24567Y18883D01*
X-24528Y19185D01*
D02*
G37*
G36*
X-28059D02*
X-30591D01*
X-30551Y18883D01*
X-30241Y18136D01*
X-29749Y17495D01*
X-29108Y17003D01*
X-28361Y16693D01*
X-28059Y16654D01*
Y19185D01*
D02*
G37*
G36*
X-19185Y14842D02*
Y12311D01*
X-16654D01*
X-16693Y12613D01*
X-17003Y13360D01*
X-17495Y14001D01*
X-18136Y14493D01*
X-18883Y14803D01*
X-19185Y14842D01*
D02*
G37*
G36*
X-20185D02*
X-20487Y14803D01*
X-21234Y14493D01*
X-21875Y14001D01*
X-22367Y13360D01*
X-22677Y12613D01*
X-22717Y12311D01*
X-20185D01*
Y14842D01*
D02*
G37*
G36*
X-27059D02*
Y12311D01*
X-24528D01*
X-24567Y12613D01*
X-24877Y13360D01*
X-25369Y14001D01*
X-26010Y14493D01*
X-26757Y14803D01*
X-27059Y14842D01*
D02*
G37*
G36*
X-28059D02*
X-28361Y14803D01*
X-29108Y14493D01*
X-29749Y14001D01*
X-30241Y13360D01*
X-30551Y12613D01*
X-30591Y12311D01*
X-28059D01*
Y14842D01*
D02*
G37*
G36*
X32100Y82444D02*
X30610Y82297D01*
X29177Y81862D01*
X27857Y81157D01*
X26700Y80207D01*
X25750Y79050D01*
X25045Y77729D01*
X24610Y76297D01*
X24463Y74807D01*
X24610Y73317D01*
X25045Y71885D01*
X25750Y70564D01*
X26700Y69407D01*
X27857Y68457D01*
X29177Y67752D01*
X30610Y67317D01*
X32100Y67170D01*
X33590Y67317D01*
X35023Y67752D01*
X36343Y68457D01*
X37500Y69407D01*
X38450Y70564D01*
X39156Y71885D01*
X39590Y73317D01*
X39737Y74807D01*
X39590Y76297D01*
X39156Y77729D01*
X38450Y79050D01*
X37500Y80207D01*
X36343Y81157D01*
X35023Y81862D01*
X33590Y82297D01*
X32100Y82444D01*
D02*
G37*
G36*
X152579Y133287D02*
X150303D01*
Y130421D01*
X152579D01*
Y133287D01*
D02*
G37*
G36*
X149303D02*
X147028D01*
Y130421D01*
X149303D01*
Y133287D01*
D02*
G37*
G36*
X152579Y129421D02*
X150303D01*
Y126555D01*
X152579D01*
Y129421D01*
D02*
G37*
G36*
X149303D02*
X147028D01*
Y126555D01*
X149303D01*
Y129421D01*
D02*
G37*
G36*
X250100Y106058D02*
X248610Y105911D01*
X247178Y105477D01*
X245857Y104771D01*
X244700Y103821D01*
X243750Y102664D01*
X243044Y101344D01*
X242610Y99911D01*
X242463Y98421D01*
X242610Y96931D01*
X243044Y95499D01*
X243750Y94178D01*
X244700Y93021D01*
X245857Y92071D01*
X247178Y91366D01*
X248610Y90931D01*
X250100Y90785D01*
X251590Y90931D01*
X253023Y91366D01*
X254343Y92071D01*
X255500Y93021D01*
X256450Y94178D01*
X257155Y95499D01*
X257590Y96931D01*
X257737Y98421D01*
X257590Y99911D01*
X257155Y101344D01*
X256450Y102664D01*
X255500Y103821D01*
X254343Y104771D01*
X253023Y105477D01*
X251590Y105911D01*
X250100Y106058D01*
D02*
G37*
G36*
X282200Y80354D02*
X280764Y80165D01*
X279426Y79611D01*
X278277Y78730D01*
X277396Y77581D01*
X276842Y76243D01*
X276653Y74807D01*
X276842Y73371D01*
X277396Y72033D01*
X278277Y70884D01*
X279426Y70003D01*
X280764Y69449D01*
X282200Y69260D01*
X283636Y69449D01*
X284974Y70003D01*
X286123Y70884D01*
X287004Y72033D01*
X287558Y73371D01*
X287748Y74807D01*
X287558Y76243D01*
X287004Y77581D01*
X286123Y78730D01*
X284974Y79611D01*
X283636Y80165D01*
X282200Y80354D01*
D02*
G37*
G36*
X249600Y19444D02*
X248110Y19297D01*
X246677Y18862D01*
X245357Y18157D01*
X244200Y17207D01*
X243250Y16050D01*
X242545Y14730D01*
X242110Y13297D01*
X241963Y11807D01*
X242110Y10317D01*
X242545Y8885D01*
X243250Y7564D01*
X244200Y6407D01*
X245357Y5457D01*
X246677Y4752D01*
X248110Y4317D01*
X249600Y4170D01*
X251090Y4317D01*
X252522Y4752D01*
X253843Y5457D01*
X255000Y6407D01*
X255950Y7564D01*
X256656Y8885D01*
X257090Y10317D01*
X257237Y11807D01*
X257090Y13297D01*
X256656Y14730D01*
X255950Y16050D01*
X255000Y17207D01*
X253843Y18157D01*
X252522Y18862D01*
X251090Y19297D01*
X249600Y19444D01*
D02*
G37*
G36*
X-16654Y3437D02*
X-19185D01*
Y905D01*
X-18883Y945D01*
X-18136Y1255D01*
X-17495Y1747D01*
X-17003Y2388D01*
X-16693Y3135D01*
X-16654Y3437D01*
D02*
G37*
G36*
X-20185D02*
X-22717D01*
X-22677Y3135D01*
X-22367Y2388D01*
X-21875Y1747D01*
X-21234Y1255D01*
X-20487Y945D01*
X-20185Y905D01*
Y3437D01*
D02*
G37*
G36*
X-24488D02*
X-27059D01*
Y866D01*
X-24488D01*
Y3437D01*
D02*
G37*
G36*
X-28059D02*
X-30630D01*
Y866D01*
X-28059D01*
Y3437D01*
D02*
G37*
G36*
X-19185Y-905D02*
Y-3437D01*
X-16654D01*
X-16693Y-3135D01*
X-17003Y-2388D01*
X-17495Y-1747D01*
X-18136Y-1255D01*
X-18883Y-945D01*
X-19185Y-905D01*
D02*
G37*
G36*
X-20185D02*
X-20487Y-945D01*
X-21234Y-1255D01*
X-21875Y-1747D01*
X-22367Y-2388D01*
X-22677Y-3135D01*
X-22717Y-3437D01*
X-20185D01*
Y-905D01*
D02*
G37*
G36*
X-27059D02*
Y-3437D01*
X-24528D01*
X-24567Y-3135D01*
X-24877Y-2388D01*
X-25369Y-1747D01*
X-26010Y-1255D01*
X-26757Y-945D01*
X-27059Y-905D01*
D02*
G37*
G36*
X-28059D02*
X-28361Y-945D01*
X-29108Y-1255D01*
X-29749Y-1747D01*
X-30241Y-2388D01*
X-30551Y-3135D01*
X-30591Y-3437D01*
X-28059D01*
Y-905D01*
D02*
G37*
G36*
X-16654Y-4437D02*
X-19185D01*
Y-6968D01*
X-18883Y-6929D01*
X-18136Y-6619D01*
X-17495Y-6127D01*
X-17003Y-5486D01*
X-16693Y-4739D01*
X-16654Y-4437D01*
D02*
G37*
G36*
X-20185D02*
X-22717D01*
X-22677Y-4739D01*
X-22367Y-5486D01*
X-21875Y-6127D01*
X-21234Y-6619D01*
X-20487Y-6929D01*
X-20185Y-6968D01*
Y-4437D01*
D02*
G37*
G36*
X-24528D02*
X-27059D01*
Y-6968D01*
X-26757Y-6929D01*
X-26010Y-6619D01*
X-25369Y-6127D01*
X-24877Y-5486D01*
X-24567Y-4739D01*
X-24528Y-4437D01*
D02*
G37*
G36*
X-28059D02*
X-30591D01*
X-30551Y-4739D01*
X-30241Y-5486D01*
X-29749Y-6127D01*
X-29108Y-6619D01*
X-28361Y-6929D01*
X-28059Y-6968D01*
Y-4437D01*
D02*
G37*
G36*
X-19185Y-8779D02*
Y-11311D01*
X-16654D01*
X-16693Y-11009D01*
X-17003Y-10262D01*
X-17495Y-9621D01*
X-18136Y-9129D01*
X-18883Y-8819D01*
X-19185Y-8779D01*
D02*
G37*
G36*
X-20185D02*
X-20487Y-8819D01*
X-21234Y-9129D01*
X-21875Y-9621D01*
X-22367Y-10262D01*
X-22677Y-11009D01*
X-22717Y-11311D01*
X-20185D01*
Y-8779D01*
D02*
G37*
G36*
X-27059D02*
Y-11311D01*
X-24528D01*
X-24567Y-11009D01*
X-24877Y-10262D01*
X-25369Y-9621D01*
X-26010Y-9129D01*
X-26757Y-8819D01*
X-27059Y-8779D01*
D02*
G37*
G36*
X-28059D02*
X-28361Y-8819D01*
X-29108Y-9129D01*
X-29749Y-9621D01*
X-30241Y-10262D01*
X-30551Y-11009D01*
X-30591Y-11311D01*
X-28059D01*
Y-8779D01*
D02*
G37*
G36*
X-16654Y-12311D02*
X-19185D01*
Y-14843D01*
X-18883Y-14803D01*
X-18136Y-14493D01*
X-17495Y-14001D01*
X-17003Y-13360D01*
X-16693Y-12613D01*
X-16654Y-12311D01*
D02*
G37*
G36*
X-20185D02*
X-22717D01*
X-22677Y-12613D01*
X-22367Y-13360D01*
X-21875Y-14001D01*
X-21234Y-14493D01*
X-20487Y-14803D01*
X-20185Y-14843D01*
Y-12311D01*
D02*
G37*
G36*
X-24528D02*
X-27059D01*
Y-14843D01*
X-26757Y-14803D01*
X-26010Y-14493D01*
X-25369Y-14001D01*
X-24877Y-13360D01*
X-24567Y-12613D01*
X-24528Y-12311D01*
D02*
G37*
G36*
X-28059D02*
X-30591D01*
X-30551Y-12613D01*
X-30241Y-13360D01*
X-29749Y-14001D01*
X-29108Y-14493D01*
X-28361Y-14803D01*
X-28059Y-14843D01*
Y-12311D01*
D02*
G37*
G36*
X-24488Y-16614D02*
X-27059D01*
Y-19185D01*
X-24488D01*
Y-16614D01*
D02*
G37*
G36*
X-28059D02*
X-30630D01*
Y-19185D01*
X-28059D01*
Y-16614D01*
D02*
G37*
G36*
X-24488Y-20185D02*
X-27059D01*
Y-22756D01*
X-24488D01*
Y-20185D01*
D02*
G37*
G36*
X-28059D02*
X-30630D01*
Y-22756D01*
X-28059D01*
Y-20185D01*
D02*
G37*
G36*
X-19685Y-16496D02*
X-20511Y-16604D01*
X-21280Y-16923D01*
X-21940Y-17430D01*
X-22447Y-18090D01*
X-22766Y-18859D01*
X-22874Y-19685D01*
X-22766Y-20511D01*
X-22447Y-21280D01*
X-21940Y-21940D01*
X-21280Y-22447D01*
X-20511Y-22766D01*
X-19685Y-22874D01*
X-18859Y-22766D01*
X-18090Y-22447D01*
X-17430Y-21940D01*
X-16923Y-21280D01*
X-16604Y-20511D01*
X-16496Y-19685D01*
X-16604Y-18859D01*
X-16923Y-18090D01*
X-17430Y-17430D01*
X-18090Y-16923D01*
X-18859Y-16604D01*
X-19685Y-16496D01*
D02*
G37*
G36*
Y-24370D02*
X-20511Y-24478D01*
X-21280Y-24797D01*
X-21940Y-25304D01*
X-22447Y-25964D01*
X-22766Y-26734D01*
X-22874Y-27559D01*
X-22766Y-28385D01*
X-22447Y-29154D01*
X-21940Y-29814D01*
X-21280Y-30321D01*
X-20511Y-30640D01*
X-19685Y-30749D01*
X-18859Y-30640D01*
X-18090Y-30321D01*
X-17430Y-29814D01*
X-16923Y-29154D01*
X-16604Y-28385D01*
X-16496Y-27559D01*
X-16604Y-26734D01*
X-16923Y-25964D01*
X-17430Y-25304D01*
X-18090Y-24797D01*
X-18859Y-24478D01*
X-19685Y-24370D01*
D02*
G37*
G36*
X-27559D02*
X-28385Y-24478D01*
X-29154Y-24797D01*
X-29814Y-25304D01*
X-30321Y-25964D01*
X-30640Y-26734D01*
X-30749Y-27559D01*
X-30640Y-28385D01*
X-30321Y-29154D01*
X-29814Y-29814D01*
X-29154Y-30321D01*
X-28385Y-30640D01*
X-27559Y-30749D01*
X-26734Y-30640D01*
X-25964Y-30321D01*
X-25304Y-29814D01*
X-24797Y-29154D01*
X-24478Y-28385D01*
X-24370Y-27559D01*
X-24478Y-26734D01*
X-24797Y-25964D01*
X-25304Y-25304D01*
X-25964Y-24797D01*
X-26734Y-24478D01*
X-27559Y-24370D01*
D02*
G37*
G36*
X-23622Y-47396D02*
X-24602Y-47525D01*
X-25515Y-47903D01*
X-26298Y-48505D01*
X-26900Y-49288D01*
X-27278Y-50201D01*
X-27407Y-51181D01*
X-27278Y-52161D01*
X-26900Y-53074D01*
X-26298Y-53858D01*
X-25515Y-54459D01*
X-24602Y-54837D01*
X-23622Y-54966D01*
X-22642Y-54837D01*
X-21730Y-54459D01*
X-20946Y-53858D01*
X-20344Y-53074D01*
X-19966Y-52161D01*
X-19837Y-51181D01*
X-19966Y-50201D01*
X-20344Y-49288D01*
X-20946Y-48505D01*
X-21730Y-47903D01*
X-22642Y-47525D01*
X-23622Y-47396D01*
D02*
G37*
G36*
Y-65113D02*
X-24602Y-65241D01*
X-25515Y-65620D01*
X-26298Y-66221D01*
X-26900Y-67005D01*
X-27278Y-67918D01*
X-27407Y-68898D01*
X-27278Y-69877D01*
X-26900Y-70790D01*
X-26298Y-71574D01*
X-25515Y-72176D01*
X-24602Y-72554D01*
X-23622Y-72683D01*
X-22642Y-72554D01*
X-21730Y-72176D01*
X-20946Y-71574D01*
X-20344Y-70790D01*
X-19966Y-69877D01*
X-19837Y-68898D01*
X-19966Y-67918D01*
X-20344Y-67005D01*
X-20946Y-66221D01*
X-21730Y-65620D01*
X-22642Y-65241D01*
X-23622Y-65113D01*
D02*
G37*
G36*
Y-82829D02*
X-24602Y-82958D01*
X-25515Y-83336D01*
X-26298Y-83938D01*
X-26900Y-84722D01*
X-27278Y-85634D01*
X-27407Y-86614D01*
X-27278Y-87594D01*
X-26900Y-88507D01*
X-26298Y-89291D01*
X-25515Y-89892D01*
X-24602Y-90270D01*
X-23622Y-90399D01*
X-22642Y-90270D01*
X-21730Y-89892D01*
X-20946Y-89291D01*
X-20344Y-88507D01*
X-19966Y-87594D01*
X-19837Y-86614D01*
X-19966Y-85634D01*
X-20344Y-84722D01*
X-20946Y-83938D01*
X-21730Y-83336D01*
X-22642Y-82958D01*
X-23622Y-82829D01*
D02*
G37*
G36*
Y-100546D02*
X-24602Y-100674D01*
X-25515Y-101053D01*
X-26298Y-101654D01*
X-26900Y-102438D01*
X-27278Y-103351D01*
X-27407Y-104331D01*
X-27278Y-105310D01*
X-26900Y-106223D01*
X-26298Y-107007D01*
X-25515Y-107609D01*
X-24602Y-107987D01*
X-23622Y-108116D01*
X-22642Y-107987D01*
X-21730Y-107609D01*
X-20946Y-107007D01*
X-20344Y-106223D01*
X-19966Y-105310D01*
X-19837Y-104331D01*
X-19966Y-103351D01*
X-20344Y-102438D01*
X-20946Y-101654D01*
X-21730Y-101053D01*
X-22642Y-100674D01*
X-23622Y-100546D01*
D02*
G37*
G36*
X-23122Y-118420D02*
Y-121547D01*
X-19995D01*
X-20055Y-121091D01*
X-20424Y-120201D01*
X-21011Y-119436D01*
X-21776Y-118849D01*
X-22666Y-118480D01*
X-23122Y-118420D01*
D02*
G37*
G36*
X-24122D02*
X-24578Y-118480D01*
X-25469Y-118849D01*
X-26233Y-119436D01*
X-26820Y-120201D01*
X-27189Y-121091D01*
X-27249Y-121547D01*
X-24122D01*
Y-118420D01*
D02*
G37*
G36*
X-19995Y-122547D02*
X-23122D01*
Y-125674D01*
X-22666Y-125614D01*
X-21776Y-125245D01*
X-21011Y-124659D01*
X-20424Y-123894D01*
X-20055Y-123003D01*
X-19995Y-122547D01*
D02*
G37*
G36*
X-24122D02*
X-27249D01*
X-27189Y-123003D01*
X-26820Y-123894D01*
X-26233Y-124659D01*
X-25469Y-125245D01*
X-24578Y-125614D01*
X-24122Y-125674D01*
Y-122547D01*
D02*
G37*
G36*
X0Y-69260D02*
X-1436Y-69449D01*
X-2774Y-70003D01*
X-3923Y-70884D01*
X-4804Y-72033D01*
X-5358Y-73371D01*
X-5548Y-74807D01*
X-5358Y-76243D01*
X-4804Y-77581D01*
X-3923Y-78730D01*
X-2774Y-79611D01*
X-1436Y-80165D01*
X0Y-80354D01*
X1436Y-80165D01*
X2774Y-79611D01*
X3923Y-78730D01*
X4804Y-77581D01*
X5358Y-76243D01*
X5548Y-74807D01*
X5358Y-73371D01*
X4804Y-72033D01*
X3923Y-70884D01*
X2774Y-70003D01*
X1436Y-69449D01*
X0Y-69260D01*
D02*
G37*
G36*
X282200Y-92874D02*
X280764Y-93063D01*
X279426Y-93617D01*
X278277Y-94499D01*
X277396Y-95648D01*
X276842Y-96986D01*
X276653Y-98421D01*
X276842Y-99857D01*
X277396Y-101195D01*
X278277Y-102344D01*
X279426Y-103226D01*
X280764Y-103780D01*
X282200Y-103969D01*
X283636Y-103780D01*
X284974Y-103226D01*
X286123Y-102344D01*
X287004Y-101195D01*
X287558Y-99857D01*
X287748Y-98421D01*
X287558Y-96986D01*
X287004Y-95648D01*
X286123Y-94499D01*
X284974Y-93617D01*
X283636Y-93063D01*
X282200Y-92874D01*
D02*
G37*
G36*
X189722Y235612D02*
X188246D01*
Y231203D01*
X189722D01*
X189813Y231221D01*
X189923D01*
X190050Y231240D01*
X190323Y231276D01*
X190651Y231349D01*
X190979Y231440D01*
X191307Y231586D01*
X191599Y231768D01*
X191635Y231786D01*
X191708Y231877D01*
X191817Y232005D01*
X191963Y232187D01*
X192091Y232442D01*
X192200Y232734D01*
X192273Y233080D01*
X192309Y233481D01*
Y233499D01*
Y233517D01*
Y233572D01*
X192291Y233645D01*
X192273Y233827D01*
X192218Y234064D01*
X192145Y234319D01*
X192018Y234574D01*
X191854Y234829D01*
X191617Y235048D01*
X191581Y235066D01*
X191490Y235139D01*
X191344Y235230D01*
X191125Y235339D01*
X190852Y235430D01*
X190542Y235521D01*
X190159Y235594D01*
X189722Y235612D01*
D02*
G37*
G36*
X99570Y229873D02*
X97565D01*
X97438Y229855D01*
X97146Y229837D01*
X96837Y229764D01*
X96818D01*
X96782Y229746D01*
X96709Y229727D01*
X96618Y229691D01*
X96399Y229581D01*
X96199Y229454D01*
X96181D01*
X96162Y229417D01*
X96071Y229326D01*
X95944Y229162D01*
X95834Y228980D01*
Y228962D01*
X95816Y228926D01*
X95798Y228871D01*
X95780Y228798D01*
X95743Y228598D01*
X95725Y228361D01*
Y228343D01*
Y228324D01*
X95743Y228215D01*
X95762Y228069D01*
X95798Y227905D01*
Y227887D01*
X95816Y227869D01*
X95853Y227778D01*
X95926Y227650D01*
X96035Y227504D01*
X96071Y227486D01*
X96144Y227413D01*
X96290Y227322D01*
X96454Y227249D01*
X96472D01*
X96509Y227231D01*
X96563Y227213D01*
X96636D01*
X96837Y227176D01*
X97092Y227158D01*
X97183D01*
X97274Y227176D01*
X97420Y227195D01*
X97584Y227231D01*
X97784Y227286D01*
X97984Y227359D01*
X98221Y227450D01*
X98258Y227468D01*
X98331Y227504D01*
X98458Y227577D01*
X98622Y227687D01*
X98823Y227814D01*
X99059Y227978D01*
X99314Y228160D01*
X99570Y228397D01*
Y229873D01*
D02*
G37*
G36*
X180867Y235722D02*
X180758D01*
X180612Y235703D01*
X180448Y235685D01*
X180266Y235630D01*
X180047Y235576D01*
X179847Y235485D01*
X179647Y235375D01*
X179628Y235357D01*
X179574Y235321D01*
X179482Y235248D01*
X179355Y235139D01*
X179227Y235011D01*
X179100Y234847D01*
X178954Y234665D01*
X178827Y234465D01*
X178808Y234446D01*
X178772Y234373D01*
X178717Y234246D01*
X178644Y234082D01*
X178571Y233900D01*
X178480Y233663D01*
X178408Y233408D01*
X178335Y233134D01*
Y233098D01*
X178316Y233007D01*
X178298Y232843D01*
X178262Y232643D01*
X178244Y232406D01*
X178207Y232132D01*
X178189Y231823D01*
Y231513D01*
Y231495D01*
Y231476D01*
Y231422D01*
Y231349D01*
Y231167D01*
X178207Y230948D01*
X178225Y230675D01*
X178244Y230383D01*
X178335Y229764D01*
Y229727D01*
X178371Y229636D01*
X178389Y229490D01*
X178444Y229308D01*
X178517Y229090D01*
X178590Y228871D01*
X178681Y228634D01*
X178790Y228415D01*
X178808Y228397D01*
X178845Y228324D01*
X178918Y228233D01*
X179027Y228106D01*
X179136Y227960D01*
X179282Y227832D01*
X179446Y227687D01*
X179628Y227559D01*
X179647Y227541D01*
X179719Y227504D01*
X179829Y227468D01*
X179974Y227413D01*
X180157Y227341D01*
X180375Y227304D01*
X180612Y227268D01*
X180867Y227249D01*
X180995D01*
X181122Y227268D01*
X181286Y227286D01*
X181487Y227322D01*
X181687Y227395D01*
X181888Y227468D01*
X182088Y227577D01*
X182106Y227595D01*
X182179Y227632D01*
X182270Y227705D01*
X182379Y227814D01*
X182525Y227942D01*
X182653Y228087D01*
X182799Y228270D01*
X182926Y228470D01*
X182944Y228488D01*
X182981Y228579D01*
X183035Y228689D01*
X183108Y228853D01*
X183199Y229053D01*
X183272Y229272D01*
X183345Y229527D01*
X183418Y229800D01*
Y229837D01*
X183436Y229928D01*
X183473Y230092D01*
X183509Y230292D01*
X183527Y230529D01*
X183564Y230820D01*
X183582Y231112D01*
Y231440D01*
Y231458D01*
Y231476D01*
Y231531D01*
Y231604D01*
Y231786D01*
X183564Y232005D01*
X183546Y232278D01*
X183509Y232570D01*
X183418Y233171D01*
Y233189D01*
Y233207D01*
X183400Y233298D01*
X183363Y233444D01*
X183309Y233626D01*
X183236Y233845D01*
X183163Y234064D01*
X183054Y234300D01*
X182944Y234519D01*
X182926Y234537D01*
X182890Y234610D01*
X182817Y234719D01*
X182726Y234847D01*
X182598Y234975D01*
X182452Y235120D01*
X182288Y235266D01*
X182106Y235394D01*
X182088Y235412D01*
X182015Y235448D01*
X181906Y235503D01*
X181760Y235558D01*
X181578Y235612D01*
X181377Y235667D01*
X181122Y235703D01*
X180867Y235722D01*
D02*
G37*
G36*
X116423Y233353D02*
X116059D01*
X115949Y233335D01*
X115822Y233317D01*
X115676Y233280D01*
X115366Y233171D01*
X115348D01*
X115312Y233134D01*
X115239Y233098D01*
X115148Y233043D01*
X114929Y232879D01*
X114710Y232661D01*
X114692Y232643D01*
X114674Y232606D01*
X114619Y232533D01*
X114546Y232442D01*
X114474Y232333D01*
X114401Y232187D01*
X114255Y231877D01*
Y231859D01*
X114237Y231804D01*
X114200Y231713D01*
X114164Y231586D01*
X114127Y231440D01*
X114109Y231258D01*
X114055Y230875D01*
X118391Y230875D01*
Y230893D01*
Y230966D01*
Y231076D01*
Y231203D01*
X118373Y231349D01*
X118354Y231513D01*
X118263Y231859D01*
Y231877D01*
X118245Y231932D01*
X118209Y232023D01*
X118172Y232132D01*
X118045Y232387D01*
X117862Y232643D01*
X117844Y232661D01*
X117808Y232697D01*
X117753Y232752D01*
X117680Y232825D01*
X117571Y232916D01*
X117462Y232989D01*
X117170Y233153D01*
X117152Y233171D01*
X117097Y233189D01*
X117006Y233225D01*
X116897Y233262D01*
X116769Y233298D01*
X116605Y233317D01*
X116423Y233353D01*
D02*
G37*
%LPD*%
D26*
X133661Y129921D02*
D03*
X149803D02*
D03*
X141732D02*
D03*
D27*
X282200Y8760D02*
D03*
Y-8760D02*
D03*
X15748Y8760D02*
D03*
Y-8760D02*
D03*
Y-77854D02*
D03*
Y-95374D02*
D03*
Y77854D02*
D03*
Y95374D02*
D03*
D28*
X132972Y43307D02*
D03*
X150492D02*
D03*
D29*
X-23622Y121221D02*
D03*
Y91535D02*
D03*
Y62165D02*
D03*
Y-122047D02*
D03*
Y-51181D02*
D03*
Y-104331D02*
D03*
Y-86614D02*
D03*
Y-68898D02*
D03*
D30*
Y111221D02*
D03*
Y81535D02*
D03*
Y52165D02*
D03*
D31*
X0Y-129921D02*
D03*
X282200D02*
D03*
Y-43307D02*
D03*
X0D02*
D03*
Y43307D02*
D03*
X282200D02*
D03*
Y129921D02*
D03*
X0D02*
D03*
D32*
X32100Y-98421D02*
D03*
X249600Y-161421D02*
D03*
X282200Y-98421D02*
D03*
X250100Y-74807D02*
D03*
X32600Y-11807D02*
D03*
X0Y-74807D02*
D03*
X32100Y74807D02*
D03*
X249600Y11807D02*
D03*
X282200Y74807D02*
D03*
X250100Y98421D02*
D03*
X32600Y161421D02*
D03*
X0Y98421D02*
D03*
D33*
X-27559Y-19685D02*
D03*
Y3937D02*
D03*
Y27559D02*
D03*
D34*
X-19685Y-19685D02*
D03*
X-27559Y-27559D02*
D03*
X-19685D02*
D03*
Y3937D02*
D03*
X-27559Y-3937D02*
D03*
X-19685D02*
D03*
X-27559Y-11811D02*
D03*
X-19685D02*
D03*
Y27559D02*
D03*
X-27559Y19685D02*
D03*
X-19685D02*
D03*
X-27559Y11811D02*
D03*
X-19685D02*
D03*
D35*
X310070Y-157480D02*
D03*
Y157480D02*
D03*
X-27870D02*
D03*
Y-157480D02*
D03*
D36*
X-11811Y-27559D02*
Y91535D01*
Y-86614D02*
Y-27559D01*
X-40354Y3937D02*
X-40354Y3937D01*
X141732Y111221D02*
Y129921D01*
D37*
X15748Y130421D02*
X16248Y129921D01*
X133661D01*
D38*
X-11811Y-27559D02*
D03*
X-19685Y43307D02*
D03*
X-40354Y3937D02*
D03*
X141732Y111221D02*
D03*
X-11811Y91535D02*
D03*
Y-86614D02*
D03*
M02*
