G04*
G04 #@! TF.GenerationSoftware,Altium Limited,Altium Designer,20.0.10 (225)*
G04*
G04 Layer_Physical_Order=2*
G04 Layer_Color=16711680*
%FSLAX25Y25*%
%MOIN*%
G70*
G01*
G75*
%ADD29C,0.05906*%
%ADD30R,0.05906X0.05906*%
%ADD31C,0.07000*%
%ADD32C,0.03937*%
%ADD33R,0.04724X0.04724*%
%ADD34C,0.04724*%
%ADD35C,0.30000*%
%ADD36C,0.02500*%
%ADD37C,0.10000*%
%ADD38C,0.05000*%
%ADD39R,0.16142X0.09055*%
G36*
X126900Y236083D02*
X126991D01*
X127118Y236065D01*
X127410Y235992D01*
X127719Y235900D01*
X128029Y235755D01*
X128339Y235536D01*
X128485Y235408D01*
X128612Y235263D01*
X128649Y235226D01*
X128667Y235172D01*
X128722Y235117D01*
X128758Y235026D01*
X128813Y234917D01*
X128886Y234789D01*
X128940Y234643D01*
X128995Y234479D01*
X129050Y234315D01*
X129104Y234115D01*
X129159Y233896D01*
X129195Y233641D01*
X129214Y233386D01*
X129232Y233113D01*
Y232821D01*
X127792D01*
Y232839D01*
Y232876D01*
Y232931D01*
Y233003D01*
X127774Y233186D01*
X127756Y233404D01*
X127719Y233659D01*
X127665Y233914D01*
X127574Y234170D01*
X127464Y234370D01*
X127446Y234388D01*
X127410Y234443D01*
X127319Y234534D01*
X127209Y234625D01*
X127064Y234698D01*
X126900Y234789D01*
X126699Y234844D01*
X126462Y234862D01*
X126353D01*
X126298Y234844D01*
X126116Y234825D01*
X125898Y234753D01*
X125879D01*
X125843Y234734D01*
X125788Y234716D01*
X125715Y234680D01*
X125515Y234570D01*
X125296Y234425D01*
X125278Y234406D01*
X125242Y234388D01*
X125187Y234334D01*
X125096Y234279D01*
X124895Y234079D01*
X124640Y233842D01*
X124622Y233823D01*
X124586Y233787D01*
X124513Y233714D01*
X124422Y233605D01*
X124312Y233477D01*
X124185Y233350D01*
X124057Y233186D01*
X123911Y233003D01*
Y227720D01*
X122472D01*
Y235955D01*
X123766D01*
X123802Y234425D01*
Y234443D01*
X123839Y234461D01*
X123930Y234570D01*
X124075Y234716D01*
X124258Y234917D01*
X124476Y235117D01*
X124713Y235336D01*
X124968Y235536D01*
X125242Y235700D01*
X125278Y235718D01*
X125369Y235755D01*
X125497Y235828D01*
X125697Y235900D01*
X125898Y235973D01*
X126153Y236046D01*
X126408Y236083D01*
X126681Y236101D01*
X126809D01*
X126900Y236083D01*
D02*
G37*
G36*
X222044Y227720D02*
X220623D01*
X220405Y234406D01*
X220314Y236957D01*
X219803Y235481D01*
X218218Y231218D01*
X217216D01*
X215704Y235317D01*
X215212Y236957D01*
X215176Y234297D01*
X214993Y227720D01*
X213609D01*
X214137Y238433D01*
X215868D01*
X217307Y234388D01*
X217781Y233022D01*
X218218Y234388D01*
X219749Y238433D01*
X221534D01*
X222044Y227720D01*
D02*
G37*
G36*
X108188Y228594D02*
Y228576D01*
X108169Y228540D01*
X108151Y228485D01*
X108115Y228412D01*
X108024Y228193D01*
X107914Y227938D01*
X107769Y227647D01*
X107623Y227319D01*
X107459Y226991D01*
X107277Y226681D01*
X107258Y226645D01*
X107204Y226554D01*
X107113Y226390D01*
X106985Y226207D01*
X106839Y225989D01*
X106657Y225770D01*
X106475Y225552D01*
X106274Y225333D01*
X106256Y225315D01*
X106183Y225242D01*
X106074Y225151D01*
X105928Y225041D01*
X105746Y224914D01*
X105546Y224786D01*
X105309Y224677D01*
X105072Y224568D01*
X105036Y224549D01*
X104963Y224531D01*
X104817Y224495D01*
X104635Y224440D01*
X104416Y224385D01*
X104179Y224349D01*
X103888Y224331D01*
X103596Y224313D01*
X103341D01*
X103195Y224331D01*
X102977D01*
X102831Y224349D01*
Y225643D01*
X102867D01*
X102940Y225624D01*
X103068D01*
X103214Y225606D01*
X103250D01*
X103359Y225588D01*
X103505Y225570D01*
X103815D01*
X103906Y225588D01*
X104161Y225624D01*
X104416Y225697D01*
X104434D01*
X104471Y225715D01*
X104544Y225752D01*
X104635Y225788D01*
X104835Y225898D01*
X105054Y226062D01*
X105072Y226080D01*
X105108Y226116D01*
X105163Y226171D01*
X105236Y226244D01*
X105327Y226335D01*
X105436Y226463D01*
X105637Y226736D01*
X105655Y226754D01*
X105692Y226809D01*
X105746Y226900D01*
X105819Y227009D01*
X105892Y227155D01*
X105983Y227337D01*
X106092Y227519D01*
X106183Y227720D01*
X102904Y235955D01*
X104525D01*
X106603Y230489D01*
X107022Y229214D01*
X107495Y230526D01*
X109427Y235955D01*
X110994D01*
X108188Y228594D01*
D02*
G37*
G36*
X203260Y237194D02*
X200089D01*
Y227720D01*
X198614D01*
Y237194D01*
X195443D01*
Y238433D01*
X203260D01*
Y237194D01*
D02*
G37*
G36*
X194022D02*
X190852D01*
Y227720D01*
X189376D01*
Y237194D01*
X186206D01*
Y238433D01*
X194022D01*
Y237194D01*
D02*
G37*
G36*
X171666Y238415D02*
X171885Y238397D01*
X172158Y238360D01*
X172450Y238287D01*
X172777Y238214D01*
X173106Y238105D01*
X173433Y237978D01*
X173761Y237795D01*
X174053Y237595D01*
X174326Y237340D01*
X174545Y237030D01*
X174727Y236684D01*
X174836Y236283D01*
X174855Y236065D01*
X174873Y235828D01*
Y235809D01*
Y235791D01*
Y235682D01*
X174855Y235518D01*
X174818Y235317D01*
X174764Y235081D01*
X174691Y234825D01*
X174600Y234570D01*
X174454Y234334D01*
X174436Y234315D01*
X174381Y234224D01*
X174272Y234115D01*
X174144Y233987D01*
X173962Y233842D01*
X173725Y233678D01*
X173452Y233532D01*
X173124Y233404D01*
X173142D01*
X173197Y233386D01*
X173288Y233368D01*
X173397Y233350D01*
X173652Y233259D01*
X173944Y233131D01*
X173962D01*
X174016Y233095D01*
X174089Y233058D01*
X174180Y232985D01*
X174399Y232839D01*
X174618Y232621D01*
X174636Y232603D01*
X174672Y232566D01*
X174727Y232493D01*
X174782Y232420D01*
X174855Y232311D01*
X174927Y232184D01*
X175073Y231874D01*
Y231856D01*
X175110Y231801D01*
X175128Y231710D01*
X175164Y231601D01*
X175201Y231455D01*
X175219Y231291D01*
X175256Y230926D01*
Y230890D01*
Y230799D01*
X175237Y230653D01*
X175219Y230453D01*
X175183Y230252D01*
X175128Y230015D01*
X175055Y229779D01*
X174946Y229542D01*
X174927Y229523D01*
X174891Y229451D01*
X174818Y229341D01*
X174727Y229195D01*
X174618Y229050D01*
X174472Y228868D01*
X174308Y228704D01*
X174108Y228540D01*
X174089Y228521D01*
X174016Y228467D01*
X173889Y228394D01*
X173743Y228321D01*
X173543Y228212D01*
X173324Y228102D01*
X173069Y228011D01*
X172777Y227920D01*
X172741D01*
X172650Y227884D01*
X172486Y227866D01*
X172286Y227829D01*
X172030Y227793D01*
X171739Y227756D01*
X171411Y227738D01*
X171065Y227720D01*
X168314D01*
Y238433D01*
X171484D01*
X171666Y238415D01*
D02*
G37*
G36*
X146267Y231346D02*
X148108D01*
Y230088D01*
X146267D01*
Y227720D01*
X144810D01*
Y230088D01*
X139654D01*
Y231346D01*
X144209Y238433D01*
X146267D01*
Y231346D01*
D02*
G37*
G36*
X98239Y236083D02*
X98440Y236064D01*
X98677Y236028D01*
X99132Y235937D01*
X99151D01*
X99242Y235900D01*
X99351Y235864D01*
X99479Y235809D01*
X99642Y235736D01*
X99806Y235645D01*
X99970Y235554D01*
X100134Y235427D01*
X100153Y235408D01*
X100207Y235372D01*
X100280Y235299D01*
X100371Y235208D01*
X100481Y235081D01*
X100590Y234935D01*
X100681Y234771D01*
X100772Y234589D01*
X100790Y234570D01*
X100809Y234497D01*
X100845Y234388D01*
X100900Y234243D01*
X100936Y234079D01*
X100972Y233860D01*
X100991Y233641D01*
X101009Y233386D01*
Y227720D01*
X99715D01*
X99679Y228813D01*
X99642Y228777D01*
X99570Y228704D01*
X99424Y228594D01*
X99260Y228449D01*
X99041Y228303D01*
X98823Y228139D01*
X98567Y227993D01*
X98312Y227866D01*
X98276Y227847D01*
X98185Y227829D01*
X98057Y227774D01*
X97875Y227720D01*
X97657Y227665D01*
X97401Y227629D01*
X97146Y227592D01*
X96855Y227574D01*
X96746D01*
X96618Y227592D01*
X96454D01*
X96254Y227610D01*
X96053Y227647D01*
X95652Y227738D01*
X95634D01*
X95579Y227774D01*
X95488Y227811D01*
X95361Y227866D01*
X95106Y228029D01*
X94832Y228230D01*
X94814Y228248D01*
X94778Y228285D01*
X94723Y228357D01*
X94650Y228449D01*
X94577Y228558D01*
X94486Y228685D01*
X94359Y228977D01*
Y228995D01*
X94340Y229050D01*
X94322Y229141D01*
X94286Y229250D01*
X94268Y229396D01*
X94231Y229560D01*
X94213Y229906D01*
Y229924D01*
Y229961D01*
Y230034D01*
X94231Y230106D01*
X94249Y230216D01*
X94268Y230343D01*
X94322Y230617D01*
X94432Y230926D01*
X94595Y231254D01*
X94705Y231418D01*
X94832Y231564D01*
X94960Y231710D01*
X95124Y231856D01*
X95142D01*
X95160Y231892D01*
X95215Y231928D01*
X95306Y231965D01*
X95397Y232020D01*
X95507Y232074D01*
X95652Y232147D01*
X95816Y232220D01*
X95999Y232275D01*
X96199Y232348D01*
X96417Y232402D01*
X96673Y232457D01*
X96928Y232493D01*
X97219Y232530D01*
X97529Y232566D01*
X99570D01*
Y233277D01*
Y233313D01*
Y233404D01*
X99551Y233532D01*
X99515Y233696D01*
X99460Y233878D01*
X99369Y234079D01*
X99260Y234261D01*
X99096Y234443D01*
X99078Y234461D01*
X99005Y234516D01*
X98896Y234589D01*
X98750Y234662D01*
X98549Y234734D01*
X98294Y234807D01*
X98003Y234862D01*
X97675Y234880D01*
X97420D01*
X97237Y234862D01*
X97019Y234844D01*
X96800Y234807D01*
X96290Y234716D01*
X96254D01*
X96181Y234680D01*
X96035Y234643D01*
X95871Y234607D01*
X95652Y234534D01*
X95415Y234461D01*
X95160Y234370D01*
X94905Y234279D01*
Y235573D01*
X94924D01*
X94960Y235591D01*
X94996Y235609D01*
X95069Y235627D01*
X95251Y235682D01*
X95488Y235755D01*
X95507D01*
X95543Y235773D01*
X95616Y235791D01*
X95707Y235809D01*
X95944Y235864D01*
X96199Y235919D01*
X96217D01*
X96272Y235937D01*
X96345Y235955D01*
X96436Y235973D01*
X96545Y235992D01*
X96673Y236010D01*
X96964Y236046D01*
X96982D01*
X97037Y236064D01*
X97110D01*
X97219Y236083D01*
X97347D01*
X97474Y236101D01*
X98057D01*
X98239Y236083D01*
D02*
G37*
G36*
X87271Y228959D02*
X91972D01*
Y227720D01*
X85795D01*
Y238433D01*
X87271D01*
Y228959D01*
D02*
G37*
G36*
X209035Y238579D02*
X209272Y238542D01*
X209564Y238506D01*
X209855Y238433D01*
X210165Y238342D01*
X210456Y238214D01*
X210493Y238196D01*
X210584Y238142D01*
X210730Y238051D01*
X210912Y237941D01*
X211112Y237777D01*
X211313Y237595D01*
X211531Y237376D01*
X211732Y237121D01*
X211750Y237085D01*
X211823Y236994D01*
X211914Y236848D01*
X212023Y236648D01*
X212151Y236392D01*
X212279Y236101D01*
X212388Y235773D01*
X212497Y235409D01*
Y235390D01*
X212515Y235372D01*
Y235317D01*
X212534Y235226D01*
X212552Y235135D01*
X212570Y235026D01*
X212625Y234753D01*
X212679Y234425D01*
X212716Y234042D01*
X212734Y233605D01*
X212752Y233149D01*
Y233131D01*
Y233095D01*
Y233003D01*
Y232912D01*
X212734Y232785D01*
Y232639D01*
X212716Y232293D01*
X212661Y231910D01*
X212607Y231491D01*
X212515Y231072D01*
X212406Y230653D01*
Y230635D01*
X212388Y230598D01*
X212370Y230544D01*
X212351Y230471D01*
X212260Y230289D01*
X212169Y230034D01*
X212023Y229760D01*
X211878Y229469D01*
X211677Y229177D01*
X211477Y228904D01*
X211459Y228868D01*
X211386Y228795D01*
X211258Y228667D01*
X211094Y228521D01*
X210894Y228357D01*
X210675Y228193D01*
X210420Y228048D01*
X210128Y227902D01*
X210092Y227884D01*
X210001Y227847D01*
X209837Y227793D01*
X209637Y227738D01*
X209400Y227683D01*
X209126Y227629D01*
X208817Y227592D01*
X208507Y227574D01*
X208325D01*
X208143Y227592D01*
X207888Y227629D01*
X207614Y227665D01*
X207304Y227720D01*
X206995Y227811D01*
X206703Y227938D01*
X206667Y227957D01*
X206576Y228011D01*
X206430Y228102D01*
X206266Y228212D01*
X206047Y228376D01*
X205847Y228558D01*
X205628Y228777D01*
X205428Y229013D01*
X205410Y229050D01*
X205337Y229141D01*
X205246Y229287D01*
X205136Y229487D01*
X205027Y229742D01*
X204899Y230034D01*
X204790Y230362D01*
X204681Y230726D01*
Y230744D01*
X204663Y230781D01*
Y230835D01*
X204644Y230908D01*
X204626Y230999D01*
X204608Y231109D01*
X204572Y231400D01*
X204517Y231728D01*
X204480Y232129D01*
X204462Y232566D01*
X204444Y233022D01*
Y233040D01*
Y233076D01*
Y233168D01*
Y233259D01*
X204462Y233386D01*
Y233532D01*
X204480Y233860D01*
X204517Y234261D01*
X204590Y234662D01*
X204663Y235099D01*
X204772Y235500D01*
Y235518D01*
X204790Y235554D01*
X204808Y235609D01*
X204826Y235682D01*
X204899Y235864D01*
X205009Y236119D01*
X205136Y236392D01*
X205300Y236684D01*
X205483Y236957D01*
X205683Y237230D01*
X205701Y237267D01*
X205792Y237340D01*
X205902Y237467D01*
X206066Y237613D01*
X206266Y237777D01*
X206503Y237959D01*
X206758Y238105D01*
X207031Y238251D01*
X207068Y238269D01*
X207159Y238305D01*
X207323Y238360D01*
X207523Y238433D01*
X207760Y238488D01*
X208051Y238542D01*
X208343Y238579D01*
X208671Y238597D01*
X208835D01*
X209035Y238579D01*
D02*
G37*
G36*
X181323D02*
X181560Y238542D01*
X181851Y238506D01*
X182143Y238433D01*
X182452Y238342D01*
X182744Y238214D01*
X182780Y238196D01*
X182871Y238142D01*
X183017Y238051D01*
X183199Y237941D01*
X183400Y237777D01*
X183600Y237595D01*
X183819Y237376D01*
X184019Y237121D01*
X184037Y237085D01*
X184110Y236994D01*
X184202Y236848D01*
X184311Y236648D01*
X184438Y236392D01*
X184566Y236101D01*
X184675Y235773D01*
X184784Y235409D01*
Y235390D01*
X184803Y235372D01*
Y235317D01*
X184821Y235226D01*
X184839Y235135D01*
X184857Y235026D01*
X184912Y234753D01*
X184967Y234425D01*
X185003Y234042D01*
X185021Y233605D01*
X185040Y233149D01*
Y233131D01*
Y233095D01*
Y233003D01*
Y232912D01*
X185021Y232785D01*
Y232639D01*
X185003Y232293D01*
X184949Y231910D01*
X184894Y231491D01*
X184803Y231072D01*
X184693Y230653D01*
Y230635D01*
X184675Y230598D01*
X184657Y230544D01*
X184639Y230471D01*
X184548Y230289D01*
X184457Y230034D01*
X184311Y229760D01*
X184165Y229469D01*
X183965Y229177D01*
X183764Y228904D01*
X183746Y228868D01*
X183673Y228795D01*
X183546Y228667D01*
X183382Y228521D01*
X183181Y228357D01*
X182963Y228193D01*
X182707Y228048D01*
X182416Y227902D01*
X182379Y227884D01*
X182288Y227847D01*
X182124Y227793D01*
X181924Y227738D01*
X181687Y227683D01*
X181414Y227629D01*
X181104Y227592D01*
X180794Y227574D01*
X180612D01*
X180430Y227592D01*
X180175Y227629D01*
X179902Y227665D01*
X179592Y227720D01*
X179282Y227811D01*
X178991Y227938D01*
X178954Y227957D01*
X178863Y228011D01*
X178717Y228102D01*
X178553Y228212D01*
X178335Y228376D01*
X178134Y228558D01*
X177916Y228777D01*
X177715Y229013D01*
X177697Y229050D01*
X177624Y229141D01*
X177533Y229287D01*
X177424Y229487D01*
X177314Y229742D01*
X177187Y230034D01*
X177077Y230362D01*
X176968Y230726D01*
Y230744D01*
X176950Y230781D01*
Y230835D01*
X176932Y230908D01*
X176913Y230999D01*
X176895Y231109D01*
X176859Y231400D01*
X176804Y231728D01*
X176768Y232129D01*
X176750Y232566D01*
X176731Y233022D01*
Y233040D01*
Y233076D01*
Y233168D01*
Y233259D01*
X176750Y233386D01*
Y233532D01*
X176768Y233860D01*
X176804Y234261D01*
X176877Y234662D01*
X176950Y235099D01*
X177059Y235500D01*
Y235518D01*
X177077Y235554D01*
X177096Y235609D01*
X177114Y235682D01*
X177187Y235864D01*
X177296Y236119D01*
X177424Y236392D01*
X177588Y236684D01*
X177770Y236957D01*
X177970Y237230D01*
X177989Y237267D01*
X178080Y237340D01*
X178189Y237467D01*
X178353Y237613D01*
X178553Y237777D01*
X178790Y237959D01*
X179045Y238105D01*
X179318Y238251D01*
X179355Y238269D01*
X179446Y238305D01*
X179610Y238360D01*
X179811Y238433D01*
X180047Y238488D01*
X180339Y238542D01*
X180630Y238579D01*
X180958Y238597D01*
X181122D01*
X181323Y238579D01*
D02*
G37*
G36*
X116605Y236083D02*
X116806Y236065D01*
X117043Y236028D01*
X117298Y235992D01*
X117553Y235919D01*
X117808Y235828D01*
X117844Y235809D01*
X117917Y235773D01*
X118045Y235718D01*
X118209Y235627D01*
X118373Y235518D01*
X118573Y235390D01*
X118755Y235226D01*
X118937Y235044D01*
X118956Y235026D01*
X119010Y234953D01*
X119101Y234844D01*
X119193Y234716D01*
X119302Y234534D01*
X119429Y234334D01*
X119539Y234097D01*
X119630Y233842D01*
X119648Y233805D01*
X119666Y233714D01*
X119703Y233568D01*
X119757Y233386D01*
X119794Y233149D01*
X119830Y232894D01*
X119849Y232603D01*
X119867Y232275D01*
Y232257D01*
Y232220D01*
Y232165D01*
Y232092D01*
Y231928D01*
X119849Y231746D01*
Y231710D01*
Y231619D01*
Y231509D01*
X119830Y231382D01*
X114055Y231382D01*
Y231364D01*
Y231327D01*
Y231254D01*
X114073Y231182D01*
Y231072D01*
X114091Y230945D01*
X114146Y230653D01*
X114218Y230343D01*
X114346Y230015D01*
X114510Y229706D01*
X114747Y229432D01*
X114783Y229396D01*
X114874Y229323D01*
X115038Y229214D01*
X115275Y229104D01*
X115567Y228977D01*
X115913Y228868D01*
X116314Y228795D01*
X116788Y228758D01*
X117243D01*
X117498Y228777D01*
X117553D01*
X117626Y228795D01*
X117717D01*
X117954Y228831D01*
X118190Y228849D01*
X118209D01*
X118245Y228868D01*
X118318D01*
X118409Y228886D01*
X118609Y228922D01*
X118846Y228959D01*
X118865D01*
X118901Y228977D01*
X118956Y228995D01*
X119028Y229013D01*
X119229Y229050D01*
X119429Y229104D01*
Y227938D01*
X119411D01*
X119320Y227920D01*
X119211Y227884D01*
X119047Y227847D01*
X118846Y227811D01*
X118628Y227756D01*
X118373Y227720D01*
X118099Y227683D01*
X118063D01*
X117972Y227665D01*
X117826Y227647D01*
X117644Y227629D01*
X117407Y227610D01*
X117152Y227592D01*
X116879Y227574D01*
X116405D01*
X116204Y227592D01*
X115968Y227610D01*
X115676Y227647D01*
X115366Y227683D01*
X115057Y227756D01*
X114765Y227847D01*
X114729Y227866D01*
X114637Y227902D01*
X114492Y227975D01*
X114328Y228066D01*
X114127Y228175D01*
X113909Y228321D01*
X113708Y228485D01*
X113508Y228685D01*
X113490Y228704D01*
X113435Y228777D01*
X113344Y228904D01*
X113235Y229050D01*
X113107Y229250D01*
X112998Y229469D01*
X112870Y229742D01*
X112779Y230015D01*
Y230034D01*
Y230052D01*
X112743Y230161D01*
X112706Y230325D01*
X112670Y230544D01*
X112633Y230817D01*
X112597Y231109D01*
X112579Y231455D01*
X112560Y231819D01*
Y231837D01*
Y231856D01*
Y231965D01*
X112579Y232129D01*
X112597Y232348D01*
X112615Y232584D01*
X112670Y232858D01*
X112724Y233149D01*
X112797Y233441D01*
Y233459D01*
X112815Y233477D01*
X112852Y233568D01*
X112907Y233714D01*
X112979Y233914D01*
X113089Y234115D01*
X113216Y234352D01*
X113362Y234589D01*
X113526Y234807D01*
X113544Y234825D01*
X113617Y234898D01*
X113726Y235008D01*
X113854Y235154D01*
X114036Y235299D01*
X114237Y235463D01*
X114455Y235609D01*
X114710Y235755D01*
X114747Y235773D01*
X114838Y235809D01*
X114984Y235864D01*
X115166Y235937D01*
X115403Y235992D01*
X115676Y236046D01*
X115968Y236083D01*
X116296Y236101D01*
X116441D01*
X116605Y236083D01*
D02*
G37*
G36*
X225452Y239909D02*
X225470Y239891D01*
X225524Y239836D01*
X225597Y239763D01*
X225688Y239672D01*
X225780Y239581D01*
X226035Y239308D01*
X226308Y238980D01*
X226636Y238597D01*
X226982Y238142D01*
X227328Y237631D01*
X227674Y237085D01*
X228021Y236484D01*
X228348Y235828D01*
X228640Y235154D01*
X228877Y234443D01*
X229059Y233696D01*
X229132Y233313D01*
X229187Y232931D01*
X229205Y232530D01*
X229223Y232129D01*
Y232111D01*
Y232092D01*
Y232038D01*
Y231983D01*
Y231801D01*
X229205Y231564D01*
X229187Y231291D01*
X229150Y230981D01*
X229096Y230635D01*
X229041Y230289D01*
Y230271D01*
Y230252D01*
X229023Y230198D01*
X229005Y230125D01*
X228968Y229943D01*
X228895Y229688D01*
X228804Y229396D01*
X228695Y229068D01*
X228567Y228722D01*
X228421Y228357D01*
Y228339D01*
X228403Y228321D01*
X228385Y228266D01*
X228348Y228193D01*
X228239Y227993D01*
X228112Y227738D01*
X227948Y227428D01*
X227729Y227100D01*
X227510Y226736D01*
X227237Y226353D01*
Y226335D01*
X227201Y226298D01*
X227164Y226244D01*
X227110Y226171D01*
X227037Y226080D01*
X226946Y225971D01*
X226727Y225697D01*
X226472Y225388D01*
X226162Y225041D01*
X225798Y224659D01*
X225397Y224276D01*
X224577Y225132D01*
X224595Y225151D01*
X224650Y225205D01*
X224723Y225296D01*
X224832Y225406D01*
X224978Y225552D01*
X225124Y225734D01*
X225288Y225916D01*
X225470Y226135D01*
X225652Y226371D01*
X225852Y226626D01*
X226253Y227191D01*
X226618Y227793D01*
X226782Y228121D01*
X226946Y228430D01*
X226964Y228449D01*
X226982Y228503D01*
X227018Y228594D01*
X227073Y228722D01*
X227128Y228886D01*
X227201Y229068D01*
X227274Y229287D01*
X227346Y229523D01*
X227419Y229779D01*
X227492Y230052D01*
X227620Y230671D01*
X227711Y231327D01*
X227747Y231674D01*
Y232020D01*
Y232038D01*
Y232056D01*
Y232111D01*
Y232202D01*
X227729Y232293D01*
Y232402D01*
X227693Y232676D01*
X227656Y233022D01*
X227583Y233423D01*
X227474Y233860D01*
X227346Y234352D01*
X227183Y234880D01*
X226982Y235445D01*
X226709Y236028D01*
X226417Y236629D01*
X226053Y237230D01*
X225616Y237832D01*
X225142Y238451D01*
X224868Y238743D01*
X224577Y239034D01*
X225433Y239927D01*
X225452Y239909D01*
D02*
G37*
G36*
X164888Y239071D02*
X164852Y239034D01*
X164761Y238925D01*
X164597Y238761D01*
X164396Y238524D01*
X164141Y238233D01*
X163886Y237887D01*
X163595Y237467D01*
X163303Y237030D01*
X162993Y236538D01*
X162702Y235992D01*
X162447Y235427D01*
X162192Y234807D01*
X161991Y234170D01*
X161846Y233514D01*
X161736Y232821D01*
X161718Y232475D01*
X161700Y232111D01*
Y232092D01*
Y232020D01*
Y231928D01*
X161718Y231783D01*
Y231619D01*
X161736Y231418D01*
X161773Y231200D01*
X161809Y230945D01*
X161846Y230671D01*
X161900Y230398D01*
X162046Y229779D01*
X162246Y229123D01*
X162356Y228795D01*
X162502Y228467D01*
X162520Y228449D01*
X162538Y228394D01*
X162593Y228303D01*
X162647Y228175D01*
X162738Y228011D01*
X162848Y227829D01*
X162957Y227629D01*
X163103Y227392D01*
X163267Y227155D01*
X163431Y226900D01*
X163631Y226626D01*
X163850Y226335D01*
X164087Y226044D01*
X164323Y225752D01*
X164597Y225460D01*
X164888Y225169D01*
X164014Y224276D01*
X163996Y224294D01*
X163977Y224313D01*
X163923Y224367D01*
X163850Y224440D01*
X163759Y224531D01*
X163668Y224622D01*
X163431Y224896D01*
X163139Y225224D01*
X162829Y225606D01*
X162483Y226062D01*
X162137Y226554D01*
X161773Y227100D01*
X161445Y227701D01*
X161117Y228339D01*
X160825Y229013D01*
X160588Y229724D01*
X160406Y230453D01*
X160333Y230835D01*
X160279Y231218D01*
X160260Y231601D01*
X160242Y232001D01*
Y232020D01*
Y232056D01*
Y232092D01*
Y232165D01*
X160260Y232366D01*
Y232621D01*
X160297Y232931D01*
X160333Y233259D01*
X160370Y233623D01*
X160443Y233987D01*
Y234006D01*
X160461Y234024D01*
Y234079D01*
X160479Y234151D01*
X160534Y234352D01*
X160607Y234607D01*
X160679Y234898D01*
X160789Y235226D01*
X160934Y235591D01*
X161080Y235955D01*
Y235973D01*
X161099Y236010D01*
X161135Y236046D01*
X161171Y236119D01*
X161263Y236319D01*
X161408Y236575D01*
X161572Y236884D01*
X161773Y237212D01*
X162010Y237577D01*
X162265Y237941D01*
Y237959D01*
X162301Y237996D01*
X162338Y238032D01*
X162392Y238105D01*
X162556Y238305D01*
X162757Y238561D01*
X163030Y238870D01*
X163321Y239198D01*
X163668Y239563D01*
X164050Y239927D01*
X164888Y239071D01*
D02*
G37*
%LPC*%
G36*
X171484Y237194D02*
X169771D01*
Y233860D01*
X171393D01*
X171502Y233878D01*
X171648Y233878D01*
X171794Y233896D01*
X172103Y233951D01*
X172122D01*
X172176Y233969D01*
X172249Y234006D01*
X172340Y234042D01*
X172559Y234133D01*
X172796Y234279D01*
X172814Y234297D01*
X172850Y234315D01*
X172960Y234425D01*
X173106Y234607D01*
X173251Y234825D01*
Y234844D01*
X173269Y234880D01*
X173306Y234953D01*
X173342Y235062D01*
X173361Y235172D01*
X173397Y235317D01*
X173415Y235627D01*
Y235645D01*
Y235682D01*
Y235736D01*
X173397Y235828D01*
X173379Y236010D01*
X173306Y236228D01*
Y236247D01*
X173288Y236283D01*
X173269Y236338D01*
X173233Y236392D01*
X173124Y236556D01*
X172960Y236720D01*
X172942Y236739D01*
X172923Y236757D01*
X172869Y236793D01*
X172796Y236848D01*
X172705Y236903D01*
X172577Y236957D01*
X172450Y237012D01*
X172304Y237067D01*
X172286D01*
X172231Y237085D01*
X172140Y237103D01*
X172012Y237139D01*
X171867Y237158D01*
X171684Y237176D01*
X171484Y237194D01*
D02*
G37*
G36*
X171466Y232639D02*
X169771D01*
Y228959D01*
X171502D01*
X171611Y228977D01*
X171739D01*
X172012Y229013D01*
X172322Y229068D01*
X172632Y229159D01*
X172923Y229268D01*
X173178Y229414D01*
X173197Y229432D01*
X173269Y229505D01*
X173379Y229615D01*
X173488Y229779D01*
X173598Y229979D01*
X173707Y230234D01*
X173780Y230526D01*
X173798Y230872D01*
Y230890D01*
Y230945D01*
Y231017D01*
X173780Y231109D01*
X173725Y231346D01*
X173616Y231601D01*
Y231619D01*
X173579Y231655D01*
X173543Y231710D01*
X173488Y231801D01*
X173342Y231965D01*
X173124Y232147D01*
X173106Y232165D01*
X173069Y232184D01*
X172996Y232238D01*
X172905Y232275D01*
X172777Y232348D01*
X172650Y232402D01*
X172322Y232512D01*
X172304D01*
X172231Y232530D01*
X172140Y232548D01*
X172012Y232585D01*
X171848Y232603D01*
X171666Y232621D01*
X171466Y232639D01*
D02*
G37*
G36*
X144810Y237048D02*
X141075Y231346D01*
X144810D01*
Y237048D01*
D02*
G37*
G36*
X99570Y231473D02*
X97565D01*
X97438Y231455D01*
X97146Y231437D01*
X96837Y231364D01*
X96818D01*
X96782Y231346D01*
X96709Y231327D01*
X96618Y231291D01*
X96399Y231182D01*
X96199Y231054D01*
X96181D01*
X96162Y231017D01*
X96071Y230926D01*
X95944Y230762D01*
X95834Y230580D01*
Y230562D01*
X95816Y230526D01*
X95798Y230471D01*
X95780Y230398D01*
X95743Y230198D01*
X95725Y229961D01*
Y229942D01*
Y229924D01*
X95743Y229815D01*
X95762Y229669D01*
X95798Y229505D01*
Y229487D01*
X95816Y229469D01*
X95853Y229378D01*
X95926Y229250D01*
X96035Y229104D01*
X96071Y229086D01*
X96144Y229013D01*
X96290Y228922D01*
X96454Y228849D01*
X96472D01*
X96509Y228831D01*
X96563Y228813D01*
X96636D01*
X96837Y228777D01*
X97092Y228758D01*
X97183D01*
X97274Y228777D01*
X97420Y228795D01*
X97584Y228831D01*
X97784Y228886D01*
X97984Y228959D01*
X98221Y229050D01*
X98258Y229068D01*
X98331Y229104D01*
X98458Y229177D01*
X98622Y229287D01*
X98823Y229414D01*
X99059Y229578D01*
X99314Y229760D01*
X99570Y229997D01*
Y231473D01*
D02*
G37*
G36*
X208580Y237322D02*
X208471D01*
X208325Y237303D01*
X208161Y237285D01*
X207979Y237230D01*
X207760Y237176D01*
X207559Y237085D01*
X207359Y236976D01*
X207341Y236957D01*
X207286Y236921D01*
X207195Y236848D01*
X207068Y236739D01*
X206940Y236611D01*
X206813Y236447D01*
X206667Y236265D01*
X206539Y236065D01*
X206521Y236046D01*
X206485Y235973D01*
X206430Y235846D01*
X206357Y235682D01*
X206284Y235500D01*
X206193Y235263D01*
X206120Y235008D01*
X206047Y234734D01*
Y234698D01*
X206029Y234607D01*
X206011Y234443D01*
X205974Y234243D01*
X205956Y234006D01*
X205920Y233732D01*
X205902Y233423D01*
Y233113D01*
Y233095D01*
Y233076D01*
Y233022D01*
Y232949D01*
Y232767D01*
X205920Y232548D01*
X205938Y232275D01*
X205956Y231983D01*
X206047Y231364D01*
Y231327D01*
X206084Y231236D01*
X206102Y231090D01*
X206157Y230908D01*
X206229Y230690D01*
X206302Y230471D01*
X206393Y230234D01*
X206503Y230015D01*
X206521Y229997D01*
X206557Y229924D01*
X206630Y229833D01*
X206740Y229706D01*
X206849Y229560D01*
X206995Y229432D01*
X207159Y229287D01*
X207341Y229159D01*
X207359Y229141D01*
X207432Y229104D01*
X207541Y229068D01*
X207687Y229013D01*
X207869Y228941D01*
X208088Y228904D01*
X208325Y228868D01*
X208580Y228849D01*
X208707D01*
X208835Y228868D01*
X208999Y228886D01*
X209199Y228922D01*
X209400Y228995D01*
X209600Y229068D01*
X209801Y229177D01*
X209819Y229195D01*
X209892Y229232D01*
X209983Y229305D01*
X210092Y229414D01*
X210238Y229542D01*
X210365Y229688D01*
X210511Y229870D01*
X210639Y230070D01*
X210657Y230088D01*
X210693Y230179D01*
X210748Y230289D01*
X210821Y230453D01*
X210912Y230653D01*
X210985Y230872D01*
X211058Y231127D01*
X211131Y231400D01*
Y231437D01*
X211149Y231528D01*
X211185Y231692D01*
X211222Y231892D01*
X211240Y232129D01*
X211276Y232420D01*
X211295Y232712D01*
Y233040D01*
Y233058D01*
Y233076D01*
Y233131D01*
Y233204D01*
Y233386D01*
X211276Y233605D01*
X211258Y233878D01*
X211222Y234170D01*
X211131Y234771D01*
Y234789D01*
Y234807D01*
X211112Y234898D01*
X211076Y235044D01*
X211021Y235226D01*
X210948Y235445D01*
X210876Y235664D01*
X210766Y235900D01*
X210657Y236119D01*
X210639Y236137D01*
X210602Y236210D01*
X210529Y236319D01*
X210438Y236447D01*
X210311Y236575D01*
X210165Y236720D01*
X210001Y236866D01*
X209819Y236994D01*
X209801Y237012D01*
X209728Y237048D01*
X209618Y237103D01*
X209473Y237158D01*
X209290Y237212D01*
X209090Y237267D01*
X208835Y237303D01*
X208580Y237322D01*
D02*
G37*
G36*
X180867D02*
X180758D01*
X180612Y237303D01*
X180448Y237285D01*
X180266Y237230D01*
X180047Y237176D01*
X179847Y237085D01*
X179647Y236976D01*
X179628Y236957D01*
X179574Y236921D01*
X179482Y236848D01*
X179355Y236739D01*
X179227Y236611D01*
X179100Y236447D01*
X178954Y236265D01*
X178827Y236065D01*
X178808Y236046D01*
X178772Y235973D01*
X178717Y235846D01*
X178644Y235682D01*
X178571Y235500D01*
X178480Y235263D01*
X178408Y235008D01*
X178335Y234734D01*
Y234698D01*
X178316Y234607D01*
X178298Y234443D01*
X178262Y234243D01*
X178244Y234006D01*
X178207Y233732D01*
X178189Y233423D01*
Y233113D01*
Y233095D01*
Y233076D01*
Y233022D01*
Y232949D01*
Y232767D01*
X178207Y232548D01*
X178225Y232275D01*
X178244Y231983D01*
X178335Y231364D01*
Y231327D01*
X178371Y231236D01*
X178389Y231090D01*
X178444Y230908D01*
X178517Y230690D01*
X178590Y230471D01*
X178681Y230234D01*
X178790Y230015D01*
X178808Y229997D01*
X178845Y229924D01*
X178918Y229833D01*
X179027Y229706D01*
X179136Y229560D01*
X179282Y229432D01*
X179446Y229287D01*
X179628Y229159D01*
X179647Y229141D01*
X179719Y229104D01*
X179829Y229068D01*
X179974Y229013D01*
X180157Y228941D01*
X180375Y228904D01*
X180612Y228868D01*
X180867Y228849D01*
X180995D01*
X181122Y228868D01*
X181286Y228886D01*
X181487Y228922D01*
X181687Y228995D01*
X181888Y229068D01*
X182088Y229177D01*
X182106Y229195D01*
X182179Y229232D01*
X182270Y229305D01*
X182379Y229414D01*
X182525Y229542D01*
X182653Y229688D01*
X182799Y229870D01*
X182926Y230070D01*
X182944Y230088D01*
X182981Y230179D01*
X183035Y230289D01*
X183108Y230453D01*
X183199Y230653D01*
X183272Y230872D01*
X183345Y231127D01*
X183418Y231400D01*
Y231437D01*
X183436Y231528D01*
X183473Y231692D01*
X183509Y231892D01*
X183527Y232129D01*
X183564Y232420D01*
X183582Y232712D01*
Y233040D01*
Y233058D01*
Y233076D01*
Y233131D01*
Y233204D01*
Y233386D01*
X183564Y233605D01*
X183546Y233878D01*
X183509Y234170D01*
X183418Y234771D01*
Y234789D01*
Y234807D01*
X183400Y234898D01*
X183363Y235044D01*
X183309Y235226D01*
X183236Y235445D01*
X183163Y235664D01*
X183054Y235900D01*
X182944Y236119D01*
X182926Y236137D01*
X182890Y236210D01*
X182817Y236319D01*
X182726Y236447D01*
X182598Y236575D01*
X182452Y236720D01*
X182288Y236866D01*
X182106Y236994D01*
X182088Y237012D01*
X182015Y237048D01*
X181906Y237103D01*
X181760Y237158D01*
X181578Y237212D01*
X181377Y237267D01*
X181122Y237303D01*
X180867Y237322D01*
D02*
G37*
G36*
X116423Y234953D02*
X116059D01*
X115949Y234935D01*
X115822Y234917D01*
X115676Y234880D01*
X115366Y234771D01*
X115348D01*
X115312Y234734D01*
X115239Y234698D01*
X115148Y234643D01*
X114929Y234479D01*
X114710Y234261D01*
X114692Y234243D01*
X114674Y234206D01*
X114619Y234133D01*
X114546Y234042D01*
X114474Y233933D01*
X114401Y233787D01*
X114255Y233477D01*
Y233459D01*
X114237Y233404D01*
X114200Y233313D01*
X114164Y233186D01*
X114127Y233040D01*
X114109Y232858D01*
X114055Y232475D01*
X118391Y232475D01*
Y232493D01*
Y232566D01*
Y232676D01*
Y232803D01*
X118373Y232949D01*
X118354Y233113D01*
X118263Y233459D01*
Y233477D01*
X118245Y233532D01*
X118209Y233623D01*
X118172Y233732D01*
X118045Y233987D01*
X117862Y234243D01*
X117844Y234261D01*
X117808Y234297D01*
X117753Y234352D01*
X117680Y234425D01*
X117571Y234516D01*
X117462Y234589D01*
X117170Y234753D01*
X117152Y234771D01*
X117097Y234789D01*
X117006Y234825D01*
X116897Y234862D01*
X116769Y234898D01*
X116605Y234917D01*
X116423Y234953D01*
D02*
G37*
%LPD*%
D29*
X-23622Y121221D02*
D03*
Y91535D02*
D03*
Y62165D02*
D03*
Y-122047D02*
D03*
Y-51181D02*
D03*
Y-104331D02*
D03*
Y-86614D02*
D03*
Y-68898D02*
D03*
D30*
Y111221D02*
D03*
Y81535D02*
D03*
Y52165D02*
D03*
D31*
X0Y-129921D02*
D03*
X282200D02*
D03*
Y-43307D02*
D03*
X0D02*
D03*
Y43307D02*
D03*
X282200D02*
D03*
Y129921D02*
D03*
X0D02*
D03*
D32*
X32100Y-98421D02*
D03*
X249600Y-161421D02*
D03*
X282200Y-98421D02*
D03*
X250100Y-74807D02*
D03*
X32600Y-11807D02*
D03*
X0Y-74807D02*
D03*
X32100Y74807D02*
D03*
X249600Y11807D02*
D03*
X282200Y74807D02*
D03*
X250100Y98421D02*
D03*
X32600Y161421D02*
D03*
X0Y98421D02*
D03*
D33*
X-27559Y-19685D02*
D03*
Y3937D02*
D03*
Y27559D02*
D03*
D34*
X-19685Y-19685D02*
D03*
X-27559Y-27559D02*
D03*
X-19685D02*
D03*
Y3937D02*
D03*
X-27559Y-3937D02*
D03*
X-19685D02*
D03*
X-27559Y-11811D02*
D03*
X-19685D02*
D03*
Y27559D02*
D03*
X-27559Y19685D02*
D03*
X-19685D02*
D03*
X-27559Y11811D02*
D03*
X-19685D02*
D03*
D35*
X310070Y-157480D02*
D03*
Y157480D02*
D03*
X-27870D02*
D03*
Y-157480D02*
D03*
D36*
X-17153Y-71822D02*
Y-65630D01*
X-30604Y-62273D02*
X-20510D01*
X-17153Y-65630D01*
X-35433Y-57443D02*
Y50354D01*
Y-57443D02*
X-30604Y-62273D01*
X-31247Y-54697D02*
X-28012Y-57933D01*
X-15689D02*
X-6933Y-66689D01*
X-28012Y-57933D02*
X-15689D01*
X-31247Y-54697D02*
Y-31247D01*
X-27559Y-27559D01*
X-15354Y-111811D02*
X-6933Y-103390D01*
Y-66689D01*
X-31953Y-111811D02*
X-15354D01*
X-40354Y-103410D02*
X-31953Y-111811D01*
X-40354Y-103410D02*
Y-60923D01*
X-32380Y-68898D02*
X-23622D01*
X-40354Y-60923D02*
X-32380Y-68898D01*
X-40354Y-60923D02*
Y3937D01*
X-19685Y-27559D02*
X-11811D01*
X-19685Y43307D02*
X-5906Y29528D01*
X2559Y30512D02*
X208381D01*
X-23622Y52165D02*
X-19094D01*
X2559Y30512D01*
X-29528Y44215D02*
X-11811Y26498D01*
Y-16535D02*
Y26498D01*
X-29528Y44215D02*
Y56260D01*
X-23622Y62165D01*
X-35433Y50354D02*
X-29528Y56260D01*
X-14961Y-19685D02*
X-11811Y-16535D01*
X-19685Y-19685D02*
X-14961D01*
X-23622Y-51181D02*
X-15428D01*
X-5906Y-41659D02*
Y29528D01*
X-15428Y-51181D02*
X-5906Y-41659D01*
X-40354Y3937D02*
Y104488D01*
X208381Y30512D02*
X282200Y-43307D01*
X-23622Y111221D02*
X141732D01*
X-29528Y-98425D02*
Y-84196D01*
X-23622Y-104331D02*
Y-104331D01*
X-29528Y-98425D02*
X-23622Y-104331D01*
X-29528Y-84196D02*
X-17153Y-71822D01*
X-23622Y81535D02*
X-8701D01*
X-40354Y104488D02*
X-23622Y121221D01*
Y-86614D02*
X-11811D01*
X-23622Y91535D02*
X-11811D01*
X-19685Y11811D02*
X-19685D01*
X0Y43307D02*
Y72835D01*
X-8701Y81535D02*
X0Y72835D01*
D37*
Y129921D02*
X248031D01*
X291339Y86614D02*
X311024D01*
X248031Y129921D02*
X291339Y86614D01*
X0Y43307D02*
X248031D01*
X291339Y0D02*
X311024D01*
X248031Y43307D02*
X291339Y0D01*
X282200Y-43307D02*
X311024D01*
X0Y-129921D02*
X224410D01*
X267717Y-86614D02*
X311024D01*
X224410Y-129921D02*
X267717Y-86614D01*
X141732Y111221D02*
X174213Y78740D01*
X261811Y78740D01*
X297244Y43307D01*
X311024D01*
D38*
X-11811Y-27559D02*
D03*
X-19685Y43307D02*
D03*
X-40354Y3937D02*
D03*
X141732Y111221D02*
D03*
X-11811Y91535D02*
D03*
Y-86614D02*
D03*
D39*
X311024Y86614D02*
D03*
Y43307D02*
D03*
Y0D02*
D03*
Y-43307D02*
D03*
Y-86614D02*
D03*
M02*
