G04*
G04 #@! TF.GenerationSoftware,Altium Limited,Altium Designer,20.0.10 (225)*
G04*
G04 Layer_Color=32896*
%FSLAX25Y25*%
%MOIN*%
G70*
G01*
G75*
%ADD10C,0.01000*%
%ADD11C,0.00787*%
%ADD41R,1.01100X0.20000*%
%ADD42R,0.04000X0.08000*%
%ADD43R,0.19685X0.19685*%
G36*
X343016Y242029D02*
X343162Y242011D01*
X343253Y241975D01*
X343271Y241956D01*
X343289D01*
X343435Y241884D01*
X343545Y241792D01*
X343618Y241738D01*
X343654Y241701D01*
X343745Y241592D01*
X343818Y241483D01*
X343873Y241392D01*
X343891Y241373D01*
Y241355D01*
X343927Y241210D01*
X343946Y241064D01*
X343964Y240954D01*
Y240936D01*
Y240918D01*
X343946Y240754D01*
X343927Y240608D01*
X343909Y240517D01*
X343891Y240499D01*
Y240481D01*
X343818Y240335D01*
X343745Y240226D01*
X343672Y240153D01*
X343654Y240116D01*
X343526Y240025D01*
X343417Y239952D01*
X343326Y239898D01*
X343289Y239879D01*
X343144Y239843D01*
X342998Y239825D01*
X342889Y239807D01*
X342852D01*
X342688Y239825D01*
X342543Y239843D01*
X342451Y239861D01*
X342415Y239879D01*
X342269Y239952D01*
X342160Y240025D01*
X342087Y240098D01*
X342069Y240116D01*
X341960Y240244D01*
X341887Y240353D01*
X341832Y240444D01*
X341814Y240481D01*
X341759Y240626D01*
X341741Y240772D01*
X341723Y240881D01*
Y240900D01*
Y240918D01*
X341741Y241082D01*
X341759Y241228D01*
X341795Y241319D01*
X341814Y241355D01*
X341887Y241501D01*
X341978Y241610D01*
X342032Y241683D01*
X342069Y241701D01*
X342178Y241811D01*
X342287Y241884D01*
X342378Y241938D01*
X342397Y241956D01*
X342415D01*
X342561Y242011D01*
X342706Y242029D01*
X342816Y242048D01*
X342852D01*
X343016Y242029D01*
D02*
G37*
G36*
X371567Y238732D02*
X371731Y238695D01*
X371859Y238659D01*
X371877Y238640D01*
X371895D01*
X372059Y238549D01*
X372205Y238458D01*
X372314Y238385D01*
X372332Y238367D01*
X372350Y238349D01*
X372514Y238185D01*
X372642Y238003D01*
X372697Y237930D01*
X372733Y237875D01*
X372751Y237839D01*
X372769Y237821D01*
X372915Y237565D01*
X373061Y237310D01*
X373116Y237201D01*
X373152Y237110D01*
X373170Y237055D01*
X373189Y237037D01*
X373261Y238604D01*
X374428D01*
Y230369D01*
X373006D01*
Y235652D01*
X372915Y235853D01*
X372824Y236053D01*
X372751Y236217D01*
X372697Y236345D01*
X372642Y236454D01*
X372605Y236527D01*
X372569Y236582D01*
Y236600D01*
X372442Y236837D01*
X372332Y237019D01*
X372259Y237128D01*
X372241Y237165D01*
X372132Y237310D01*
X372041Y237402D01*
X371986Y237456D01*
X371968Y237474D01*
X371877Y237529D01*
X371786Y237547D01*
X371713Y237565D01*
X371694D01*
X371603Y237547D01*
X371531Y237529D01*
X371494Y237511D01*
X371476Y237493D01*
X371421Y237438D01*
X371367Y237365D01*
X371348Y237292D01*
X371330Y237274D01*
X371275Y237146D01*
X371257Y237001D01*
X371239Y236891D01*
Y236855D01*
Y236837D01*
X371221Y236618D01*
X371203Y236381D01*
Y236272D01*
Y236199D01*
Y236144D01*
Y236126D01*
Y230369D01*
X369781D01*
Y235652D01*
X369690Y235835D01*
X369617Y236017D01*
X369545Y236162D01*
X369490Y236290D01*
X369435Y236399D01*
X369399Y236472D01*
X369362Y236527D01*
Y236545D01*
X369235Y236782D01*
X369126Y236982D01*
X369089Y237037D01*
X369053Y237092D01*
X369034Y237110D01*
Y237128D01*
X368925Y237274D01*
X368834Y237383D01*
X368779Y237438D01*
X368761Y237456D01*
X368652Y237529D01*
X368561Y237547D01*
X368488Y237565D01*
X368470D01*
X368378Y237547D01*
X368306Y237529D01*
X368269Y237511D01*
X368251Y237493D01*
X368196Y237438D01*
X368142Y237365D01*
X368123Y237310D01*
X368105Y237292D01*
X368051Y237165D01*
X368032Y237037D01*
X368014Y236928D01*
Y236910D01*
Y236891D01*
X367996Y236691D01*
X367978Y236491D01*
Y236399D01*
Y236345D01*
Y236290D01*
Y236272D01*
Y230369D01*
X366557D01*
Y236363D01*
X366575Y236782D01*
X366629Y237146D01*
X366702Y237474D01*
X366793Y237748D01*
X366921Y237966D01*
X367048Y238167D01*
X367194Y238331D01*
X367340Y238458D01*
X367486Y238549D01*
X367632Y238622D01*
X367759Y238677D01*
X367886Y238713D01*
X367978Y238732D01*
X368051Y238750D01*
X368123D01*
X368360Y238732D01*
X368561Y238695D01*
X368634Y238659D01*
X368688Y238640D01*
X368725Y238622D01*
X368743D01*
X368925Y238513D01*
X369071Y238404D01*
X369180Y238313D01*
X369198Y238294D01*
X369217Y238276D01*
X369362Y238094D01*
X369490Y237912D01*
X369545Y237839D01*
X369581Y237766D01*
X369617Y237730D01*
Y237711D01*
X369745Y237456D01*
X369872Y237219D01*
X369927Y237110D01*
X369964Y237037D01*
X369982Y236982D01*
X370000Y236964D01*
X370018Y237292D01*
X370055Y237565D01*
X370109Y237784D01*
X370164Y237984D01*
X370237Y238130D01*
X370292Y238240D01*
X370328Y238294D01*
X370346Y238313D01*
X370492Y238458D01*
X370656Y238568D01*
X370820Y238640D01*
X370984Y238695D01*
X371130Y238732D01*
X371257Y238750D01*
X371367D01*
X371567Y238732D01*
D02*
G37*
G36*
X327475Y230369D02*
X326053D01*
Y234778D01*
X322209Y230369D01*
X320241D01*
X324323Y234796D01*
X320460Y238604D01*
X322355D01*
X326053Y234833D01*
Y241956D01*
X327475D01*
Y230369D01*
D02*
G37*
G36*
X305392Y238695D02*
X305702Y238659D01*
X305993Y238622D01*
X306248Y238568D01*
X306449Y238495D01*
X306613Y238458D01*
X306704Y238422D01*
X306740Y238404D01*
X307014Y238276D01*
X307269Y238130D01*
X307487Y237984D01*
X307688Y237857D01*
X307833Y237729D01*
X307961Y237620D01*
X308034Y237547D01*
X308052Y237529D01*
X308253Y237310D01*
X308417Y237073D01*
X308562Y236855D01*
X308690Y236636D01*
X308781Y236454D01*
X308854Y236290D01*
X308890Y236199D01*
X308908Y236181D01*
Y236162D01*
X308999Y235871D01*
X309072Y235561D01*
X309127Y235251D01*
X309163Y234978D01*
X309182Y234741D01*
X309200Y234559D01*
Y234486D01*
Y234432D01*
Y234413D01*
Y234395D01*
X309182Y234031D01*
X309163Y233685D01*
X309109Y233357D01*
X309036Y233065D01*
X308963Y232792D01*
X308872Y232537D01*
X308781Y232300D01*
X308671Y232100D01*
X308580Y231917D01*
X308489Y231753D01*
X308398Y231626D01*
X308325Y231516D01*
X308253Y231425D01*
X308198Y231371D01*
X308180Y231334D01*
X308161Y231316D01*
X307961Y231134D01*
X307724Y230970D01*
X307487Y230824D01*
X307250Y230715D01*
X306995Y230605D01*
X306740Y230514D01*
X306266Y230387D01*
X306030Y230350D01*
X305829Y230314D01*
X305647Y230296D01*
X305483Y230277D01*
X305337Y230259D01*
X305155D01*
X304700Y230277D01*
X304481Y230296D01*
X304299Y230314D01*
X304153Y230332D01*
X304044Y230350D01*
X303953Y230369D01*
X303934D01*
X303515Y230460D01*
X303315Y230514D01*
X303133Y230551D01*
X302987Y230605D01*
X302878Y230642D01*
X302805Y230678D01*
X302786D01*
Y232008D01*
X303169Y231826D01*
X303351Y231753D01*
X303497Y231699D01*
X303643Y231662D01*
X303752Y231626D01*
X303825Y231608D01*
X303843D01*
X304244Y231535D01*
X304445Y231516D01*
X304608Y231498D01*
X304754Y231480D01*
X304973D01*
X305428Y231516D01*
X305829Y231589D01*
X306175Y231717D01*
X306467Y231844D01*
X306704Y231972D01*
X306868Y232100D01*
X306959Y232172D01*
X306995Y232209D01*
X307232Y232519D01*
X307414Y232865D01*
X307524Y233247D01*
X307615Y233594D01*
X307669Y233922D01*
X307688Y234067D01*
Y234195D01*
X307706Y234286D01*
Y234359D01*
Y234413D01*
Y234432D01*
X307688Y234705D01*
X307669Y234942D01*
X307633Y235160D01*
X307597Y235361D01*
X307560Y235507D01*
X307542Y235634D01*
X307505Y235707D01*
Y235725D01*
X307414Y235926D01*
X307323Y236108D01*
X307232Y236272D01*
X307123Y236418D01*
X307050Y236527D01*
X306977Y236600D01*
X306941Y236654D01*
X306922Y236673D01*
X306777Y236818D01*
X306631Y236928D01*
X306485Y237037D01*
X306358Y237128D01*
X306248Y237183D01*
X306139Y237238D01*
X306084Y237274D01*
X306066D01*
X305884Y237347D01*
X305702Y237402D01*
X305520Y237438D01*
X305356Y237474D01*
X305228D01*
X305119Y237493D01*
X305028D01*
X304590Y237474D01*
X304408Y237456D01*
X304226Y237438D01*
X304080Y237402D01*
X303971Y237383D01*
X303898Y237365D01*
X303880D01*
X303479Y237256D01*
X303297Y237183D01*
X303133Y237110D01*
X302987Y237055D01*
X302878Y237001D01*
X302805Y236982D01*
X302786Y236964D01*
Y238331D01*
X303169Y238458D01*
X303351Y238513D01*
X303515Y238549D01*
X303661Y238586D01*
X303770Y238604D01*
X303843Y238622D01*
X303861D01*
X304280Y238677D01*
X304481Y238695D01*
X304681D01*
X304827Y238713D01*
X305064D01*
X305392Y238695D01*
D02*
G37*
G36*
X400063Y240863D02*
Y238604D01*
X402359D01*
Y237402D01*
X400063D01*
Y233102D01*
X400027Y232591D01*
X399936Y232154D01*
X399826Y231790D01*
X399680Y231480D01*
X399535Y231243D01*
X399425Y231079D01*
X399334Y230988D01*
X399298Y230952D01*
X399152Y230824D01*
X398970Y230715D01*
X398605Y230551D01*
X398223Y230423D01*
X397858Y230350D01*
X397512Y230296D01*
X397366Y230277D01*
X397239D01*
X397130Y230259D01*
X396984D01*
X396601Y230277D01*
X396419D01*
X396273Y230296D01*
X396128D01*
X396036Y230314D01*
X395945D01*
X395563Y230369D01*
X395399Y230387D01*
X395235Y230423D01*
X395107Y230441D01*
X395016Y230460D01*
X394943Y230478D01*
X394925D01*
Y231717D01*
X395289Y231626D01*
X395453Y231589D01*
X395599Y231571D01*
X395727Y231535D01*
X395818D01*
X395891Y231516D01*
X395909D01*
X396237Y231480D01*
X396401D01*
X396528Y231462D01*
X396783D01*
X397111Y231480D01*
X397385Y231535D01*
X397622Y231608D01*
X397822Y231680D01*
X397968Y231753D01*
X398077Y231826D01*
X398150Y231881D01*
X398168Y231899D01*
X398332Y232081D01*
X398442Y232282D01*
X398533Y232500D01*
X398587Y232719D01*
X398624Y232919D01*
X398642Y233065D01*
Y233174D01*
Y233193D01*
Y233211D01*
Y237402D01*
X394925D01*
Y238604D01*
X398642D01*
Y241246D01*
X400063Y240863D01*
D02*
G37*
G36*
X390826Y240863D02*
Y238604D01*
X393121Y238604D01*
Y237402D01*
X390826Y237402D01*
Y233102D01*
X390789Y232591D01*
X390698Y232154D01*
X390589Y231790D01*
X390443Y231480D01*
X390297Y231243D01*
X390188Y231079D01*
X390097Y230988D01*
X390060Y230952D01*
X389914Y230824D01*
X389732Y230715D01*
X389368Y230551D01*
X388985Y230423D01*
X388621Y230350D01*
X388275Y230296D01*
X388129Y230277D01*
X388001D01*
X387892Y230259D01*
X387746D01*
X387364Y230277D01*
X387181D01*
X387036Y230296D01*
X386890D01*
X386799Y230314D01*
X386708D01*
X386325Y230369D01*
X386161Y230387D01*
X385997Y230423D01*
X385870Y230441D01*
X385779Y230460D01*
X385706Y230478D01*
X385687D01*
Y231717D01*
X386052Y231626D01*
X386216Y231589D01*
X386362Y231571D01*
X386489Y231535D01*
X386580D01*
X386653Y231516D01*
X386671D01*
X386999Y231480D01*
X387163D01*
X387291Y231462D01*
X387546D01*
X387874Y231480D01*
X388147Y231535D01*
X388384Y231608D01*
X388584Y231680D01*
X388730Y231753D01*
X388840Y231826D01*
X388912Y231881D01*
X388931Y231899D01*
X389095Y232081D01*
X389204Y232282D01*
X389295Y232500D01*
X389350Y232719D01*
X389386Y232919D01*
X389404Y233065D01*
Y233174D01*
Y233193D01*
Y233211D01*
Y237402D01*
X385687D01*
Y238604D01*
X389404D01*
Y241246D01*
X390826Y240863D01*
D02*
G37*
G36*
X287646Y238732D02*
X287937Y238695D01*
X288211Y238640D01*
X288447Y238586D01*
X288630Y238513D01*
X288775Y238458D01*
X288866Y238422D01*
X288903Y238404D01*
X289158Y238258D01*
X289377Y238112D01*
X289577Y237948D01*
X289759Y237802D01*
X289887Y237657D01*
X289996Y237547D01*
X290069Y237474D01*
X290087Y237456D01*
X290251Y237238D01*
X290397Y237001D01*
X290524Y236764D01*
X290634Y236563D01*
X290707Y236363D01*
X290761Y236217D01*
X290798Y236126D01*
X290816Y236108D01*
Y236090D01*
X290889Y235798D01*
X290944Y235507D01*
X290998Y235233D01*
X291016Y234997D01*
X291035Y234778D01*
X291053Y234614D01*
Y234505D01*
Y234486D01*
Y234468D01*
X291035Y234104D01*
X291016Y233757D01*
X290980Y233466D01*
X290944Y233193D01*
X290907Y232974D01*
X290871Y232810D01*
X290834Y232701D01*
Y232682D01*
Y232664D01*
X290743Y232391D01*
X290616Y232118D01*
X290506Y231899D01*
X290379Y231699D01*
X290269Y231553D01*
X290178Y231425D01*
X290124Y231352D01*
X290105Y231334D01*
X289905Y231134D01*
X289704Y230970D01*
X289486Y230824D01*
X289285Y230715D01*
X289122Y230624D01*
X288976Y230551D01*
X288885Y230514D01*
X288848Y230496D01*
X288557Y230405D01*
X288247Y230332D01*
X287937Y230296D01*
X287646Y230259D01*
X287409Y230241D01*
X287208Y230223D01*
X286735D01*
X286461Y230241D01*
X286206Y230259D01*
X285969Y230277D01*
X285787Y230296D01*
X285642Y230314D01*
X285550Y230332D01*
X285514D01*
X285241Y230369D01*
X284985Y230405D01*
X284767Y230460D01*
X284566Y230496D01*
X284402Y230533D01*
X284293Y230569D01*
X284202Y230587D01*
X284184D01*
Y231753D01*
X284384Y231699D01*
X284585Y231662D01*
X284658Y231644D01*
X284712Y231626D01*
X284749Y231608D01*
X284767D01*
X285004Y231571D01*
X285204Y231535D01*
X285295Y231516D01*
X285368D01*
X285405Y231498D01*
X285423D01*
X285660Y231480D01*
X285896Y231444D01*
X285988D01*
X286061Y231425D01*
X286115D01*
X286370Y231407D01*
X286826D01*
X287299Y231444D01*
X287700Y231516D01*
X288047Y231626D01*
X288338Y231753D01*
X288575Y231863D01*
X288739Y231972D01*
X288830Y232045D01*
X288866Y232081D01*
X289103Y232355D01*
X289267Y232664D01*
X289395Y232992D01*
X289468Y233302D01*
X289522Y233594D01*
X289541Y233721D01*
Y233830D01*
X289559Y233903D01*
Y233976D01*
Y234013D01*
Y234031D01*
X283783D01*
X283765Y234158D01*
Y234268D01*
Y234359D01*
Y234395D01*
X283747Y234577D01*
Y234741D01*
Y234814D01*
Y234869D01*
Y234905D01*
Y234924D01*
X283765Y235251D01*
X283783Y235543D01*
X283820Y235798D01*
X283856Y236035D01*
X283911Y236217D01*
X283947Y236363D01*
X283965Y236454D01*
X283983Y236491D01*
X284074Y236746D01*
X284184Y236982D01*
X284311Y237183D01*
X284421Y237365D01*
X284512Y237493D01*
X284603Y237602D01*
X284658Y237675D01*
X284676Y237693D01*
X284858Y237875D01*
X285040Y238039D01*
X285241Y238167D01*
X285405Y238276D01*
X285569Y238367D01*
X285696Y238422D01*
X285769Y238458D01*
X285805Y238476D01*
X286061Y238568D01*
X286316Y238640D01*
X286571Y238677D01*
X286807Y238713D01*
X287008Y238732D01*
X287172Y238750D01*
X287318D01*
X287646Y238732D01*
D02*
G37*
G36*
X278408D02*
X278700Y238695D01*
X278973Y238640D01*
X279210Y238586D01*
X279392Y238513D01*
X279538Y238458D01*
X279629Y238422D01*
X279665Y238404D01*
X279920Y238258D01*
X280139Y238112D01*
X280339Y237948D01*
X280522Y237802D01*
X280649Y237657D01*
X280759Y237547D01*
X280831Y237474D01*
X280850Y237456D01*
X281014Y237238D01*
X281159Y237001D01*
X281287Y236764D01*
X281396Y236563D01*
X281469Y236363D01*
X281524Y236217D01*
X281560Y236126D01*
X281578Y236108D01*
Y236090D01*
X281651Y235798D01*
X281706Y235507D01*
X281761Y235233D01*
X281779Y234997D01*
X281797Y234778D01*
X281815Y234614D01*
Y234505D01*
Y234486D01*
Y234468D01*
X281797Y234104D01*
X281779Y233757D01*
X281742Y233466D01*
X281706Y233193D01*
X281669Y232974D01*
X281633Y232810D01*
X281597Y232701D01*
Y232682D01*
Y232664D01*
X281505Y232391D01*
X281378Y232118D01*
X281269Y231899D01*
X281141Y231699D01*
X281032Y231553D01*
X280941Y231425D01*
X280886Y231352D01*
X280868Y231334D01*
X280667Y231134D01*
X280467Y230970D01*
X280248Y230824D01*
X280048Y230715D01*
X279884Y230624D01*
X279738Y230551D01*
X279647Y230514D01*
X279611Y230496D01*
X279319Y230405D01*
X279009Y230332D01*
X278700Y230296D01*
X278408Y230259D01*
X278171Y230241D01*
X277971Y230223D01*
X277497D01*
X277224Y230241D01*
X276969Y230259D01*
X276732Y230277D01*
X276550Y230296D01*
X276404Y230314D01*
X276313Y230332D01*
X276276D01*
X276003Y230369D01*
X275748Y230405D01*
X275529Y230460D01*
X275329Y230496D01*
X275165Y230533D01*
X275056Y230569D01*
X274964Y230587D01*
X274946D01*
Y231753D01*
X275147Y231699D01*
X275347Y231662D01*
X275420Y231644D01*
X275475Y231626D01*
X275511Y231608D01*
X275529D01*
X275766Y231571D01*
X275967Y231535D01*
X276058Y231516D01*
X276131D01*
X276167Y231498D01*
X276185D01*
X276422Y231480D01*
X276659Y231444D01*
X276750D01*
X276823Y231425D01*
X276878D01*
X277133Y231407D01*
X277588D01*
X278062Y231444D01*
X278463Y231516D01*
X278809Y231626D01*
X279100Y231753D01*
X279337Y231863D01*
X279501Y231972D01*
X279592Y232045D01*
X279629Y232081D01*
X279866Y232355D01*
X280030Y232664D01*
X280157Y232992D01*
X280230Y233302D01*
X280285Y233594D01*
X280303Y233721D01*
Y233830D01*
X280321Y233903D01*
Y233976D01*
Y234013D01*
Y234031D01*
X274546Y234031D01*
X274527Y234158D01*
Y234268D01*
Y234359D01*
Y234395D01*
X274509Y234577D01*
Y234741D01*
Y234814D01*
Y234869D01*
Y234905D01*
Y234924D01*
X274527Y235251D01*
X274546Y235543D01*
X274582Y235798D01*
X274618Y236035D01*
X274673Y236217D01*
X274710Y236363D01*
X274728Y236454D01*
X274746Y236491D01*
X274837Y236746D01*
X274946Y236982D01*
X275074Y237183D01*
X275183Y237365D01*
X275274Y237493D01*
X275365Y237602D01*
X275420Y237675D01*
X275438Y237693D01*
X275621Y237875D01*
X275803Y238039D01*
X276003Y238167D01*
X276167Y238276D01*
X276331Y238367D01*
X276459Y238422D01*
X276532Y238458D01*
X276568Y238476D01*
X276823Y238568D01*
X277078Y238640D01*
X277333Y238677D01*
X277570Y238713D01*
X277770Y238732D01*
X277934Y238750D01*
X278080D01*
X278408Y238732D01*
D02*
G37*
G36*
X420050Y230369D02*
X417299D01*
X416953Y230387D01*
X416625Y230405D01*
X416333Y230441D01*
X416078Y230478D01*
X415878Y230514D01*
X415714Y230533D01*
X415623Y230569D01*
X415587D01*
X415295Y230660D01*
X415040Y230751D01*
X414821Y230860D01*
X414621Y230970D01*
X414475Y231043D01*
X414348Y231116D01*
X414275Y231170D01*
X414256Y231189D01*
X414056Y231352D01*
X413892Y231516D01*
X413746Y231699D01*
X413637Y231844D01*
X413546Y231990D01*
X413473Y232100D01*
X413437Y232172D01*
X413418Y232191D01*
X413309Y232427D01*
X413236Y232664D01*
X413181Y232901D01*
X413145Y233102D01*
X413127Y233302D01*
X413109Y233448D01*
Y233539D01*
Y233575D01*
X413145Y233940D01*
X413163Y234104D01*
X413200Y234249D01*
X413236Y234359D01*
X413254Y234450D01*
X413291Y234505D01*
Y234523D01*
X413437Y234833D01*
X413509Y234960D01*
X413582Y235069D01*
X413637Y235142D01*
X413692Y235215D01*
X413728Y235251D01*
X413746Y235270D01*
X413965Y235488D01*
X414184Y235634D01*
X414275Y235707D01*
X414348Y235743D01*
X414402Y235780D01*
X414420D01*
X414712Y235908D01*
X414967Y235999D01*
X415076Y236017D01*
X415167Y236035D01*
X415222Y236053D01*
X415240D01*
X414912Y236181D01*
X414639Y236327D01*
X414402Y236491D01*
X414220Y236636D01*
X414092Y236764D01*
X413983Y236873D01*
X413929Y236964D01*
X413910Y236982D01*
X413764Y237219D01*
X413673Y237474D01*
X413600Y237730D01*
X413546Y237966D01*
X413509Y238167D01*
X413491Y238331D01*
Y238440D01*
Y238458D01*
Y238476D01*
X413509Y238713D01*
X413528Y238932D01*
X413637Y239333D01*
X413819Y239679D01*
X414038Y239989D01*
X414311Y240244D01*
X414603Y240444D01*
X414931Y240627D01*
X415259Y240754D01*
X415587Y240863D01*
X415914Y240936D01*
X416206Y241009D01*
X416479Y241045D01*
X416698Y241064D01*
X416880Y241082D01*
X420050D01*
Y230369D01*
D02*
G37*
G36*
X345767Y237420D02*
X343344D01*
Y231553D01*
X346041D01*
Y230369D01*
X339445D01*
Y231553D01*
X341905D01*
Y238604D01*
X345767D01*
Y237420D01*
D02*
G37*
G36*
X336530Y240790D02*
X334107Y240790D01*
Y231553D01*
X336803Y231553D01*
Y230369D01*
X330208Y230369D01*
Y231553D01*
X332667D01*
Y241956D01*
X336530Y241956D01*
Y240790D01*
D02*
G37*
G36*
X295681Y238732D02*
X295936Y238695D01*
X296191Y238622D01*
X296391Y238549D01*
X296592Y238476D01*
X296719Y238404D01*
X296810Y238367D01*
X296847Y238349D01*
X297120Y238185D01*
X297375Y237984D01*
X297612Y237766D01*
X297831Y237565D01*
X298013Y237365D01*
X298159Y237219D01*
X298250Y237110D01*
X298286Y237092D01*
Y237073D01*
X298323Y238604D01*
X299616D01*
Y230369D01*
X298177D01*
Y235652D01*
X298031Y235835D01*
X297903Y235999D01*
X297776Y236126D01*
X297667Y236254D01*
X297576Y236363D01*
X297503Y236436D01*
X297466Y236472D01*
X297448Y236491D01*
X297193Y236727D01*
X296992Y236928D01*
X296901Y236982D01*
X296847Y237037D01*
X296810Y237055D01*
X296792Y237073D01*
X296573Y237219D01*
X296373Y237329D01*
X296300Y237365D01*
X296246Y237383D01*
X296209Y237402D01*
X296191D01*
X295972Y237474D01*
X295790Y237493D01*
X295735Y237511D01*
X295626D01*
X295389Y237493D01*
X295189Y237438D01*
X295025Y237347D01*
X294879Y237274D01*
X294770Y237183D01*
X294679Y237092D01*
X294642Y237037D01*
X294624Y237019D01*
X294515Y236818D01*
X294424Y236563D01*
X294369Y236308D01*
X294332Y236053D01*
X294314Y235835D01*
X294296Y235652D01*
Y235579D01*
Y235525D01*
Y235488D01*
Y235470D01*
X292857D01*
Y235762D01*
X292875Y236035D01*
X292893Y236290D01*
X292930Y236545D01*
X292984Y236764D01*
X293039Y236964D01*
X293093Y237128D01*
X293148Y237292D01*
X293203Y237438D01*
X293276Y237565D01*
X293330Y237675D01*
X293367Y237766D01*
X293421Y237821D01*
X293440Y237875D01*
X293476Y237912D01*
X293604Y238057D01*
X293749Y238185D01*
X294059Y238404D01*
X294369Y238549D01*
X294679Y238640D01*
X294970Y238713D01*
X295098Y238732D01*
X295189D01*
X295280Y238750D01*
X295407D01*
X295681Y238732D01*
D02*
G37*
G36*
X268460Y238732D02*
X268697Y238713D01*
X268788Y238695D01*
X268861D01*
X268897Y238677D01*
X268916D01*
X269152Y238604D01*
X269371Y238531D01*
X269444Y238476D01*
X269517Y238458D01*
X269553Y238422D01*
X269571D01*
X269808Y238276D01*
X270009Y238130D01*
X270100Y238076D01*
X270173Y238021D01*
X270209Y237984D01*
X270227Y237966D01*
X270464Y237748D01*
X270701Y237511D01*
X270792Y237420D01*
X270865Y237347D01*
X270901Y237292D01*
X270920Y237274D01*
X270974Y238604D01*
X272232D01*
Y230369D01*
X270810D01*
Y235816D01*
X270665Y235999D01*
X270537Y236144D01*
X270428Y236290D01*
X270318Y236418D01*
X270227Y236509D01*
X270173Y236582D01*
X270136Y236618D01*
X270118Y236636D01*
X269881Y236855D01*
X269699Y237019D01*
X269626Y237073D01*
X269571Y237110D01*
X269535Y237146D01*
X269517D01*
X269316Y237274D01*
X269152Y237365D01*
X269043Y237402D01*
X269025Y237420D01*
X269007D01*
X268824Y237474D01*
X268642Y237493D01*
X268569Y237511D01*
X268478D01*
X268223Y237493D01*
X268004Y237438D01*
X267822Y237365D01*
X267676Y237274D01*
X267549Y237183D01*
X267476Y237110D01*
X267422Y237055D01*
X267403Y237037D01*
X267276Y236855D01*
X267185Y236618D01*
X267130Y236381D01*
X267075Y236162D01*
X267057Y235944D01*
X267039Y235780D01*
Y235707D01*
Y235652D01*
Y235634D01*
Y235616D01*
Y230369D01*
X265618D01*
Y235725D01*
X265654Y236254D01*
X265727Y236709D01*
X265818Y237110D01*
X265946Y237420D01*
X266073Y237675D01*
X266164Y237839D01*
X266237Y237948D01*
X266274Y237984D01*
X266547Y238240D01*
X266857Y238422D01*
X267166Y238568D01*
X267476Y238659D01*
X267768Y238713D01*
X267895Y238732D01*
X267986D01*
X268077Y238750D01*
X268205D01*
X268460Y238732D01*
D02*
G37*
G36*
X407770Y238732D02*
X408080Y238695D01*
X408353Y238640D01*
X408608Y238586D01*
X408809Y238531D01*
X408954Y238476D01*
X409046Y238440D01*
X409082Y238422D01*
X409337Y238294D01*
X409574Y238148D01*
X409793Y238003D01*
X409975Y237857D01*
X410120Y237730D01*
X410230Y237620D01*
X410303Y237547D01*
X410321Y237529D01*
X410503Y237310D01*
X410649Y237073D01*
X410795Y236855D01*
X410904Y236636D01*
X410995Y236454D01*
X411050Y236290D01*
X411086Y236199D01*
X411104Y236181D01*
Y236163D01*
X411196Y235871D01*
X411250Y235561D01*
X411305Y235270D01*
X411323Y234997D01*
X411341Y234778D01*
X411360Y234596D01*
Y234523D01*
Y234468D01*
Y234450D01*
Y234432D01*
X411341Y234067D01*
X411323Y233721D01*
X411287Y233411D01*
X411232Y233138D01*
X411177Y232919D01*
X411141Y232755D01*
X411123Y232646D01*
X411104Y232628D01*
Y232610D01*
X410995Y232336D01*
X410886Y232081D01*
X410758Y231844D01*
X410649Y231662D01*
X410540Y231498D01*
X410449Y231389D01*
X410394Y231316D01*
X410376Y231298D01*
X410175Y231116D01*
X409975Y230952D01*
X409793Y230806D01*
X409592Y230697D01*
X409428Y230606D01*
X409301Y230551D01*
X409228Y230514D01*
X409191Y230496D01*
X408918Y230405D01*
X408645Y230332D01*
X408371Y230296D01*
X408116Y230259D01*
X407916Y230241D01*
X407734Y230223D01*
X407588D01*
X407242Y230241D01*
X406932Y230277D01*
X406659Y230314D01*
X406404Y230387D01*
X406203Y230441D01*
X406057Y230478D01*
X405966Y230514D01*
X405930Y230533D01*
X405675Y230660D01*
X405420Y230806D01*
X405219Y230952D01*
X405037Y231079D01*
X404891Y231207D01*
X404782Y231316D01*
X404709Y231389D01*
X404691Y231407D01*
X404509Y231626D01*
X404345Y231863D01*
X404217Y232100D01*
X404108Y232318D01*
X404017Y232500D01*
X403962Y232646D01*
X403926Y232737D01*
X403907Y232774D01*
X403816Y233083D01*
X403744Y233393D01*
X403707Y233685D01*
X403671Y233958D01*
X403652Y234195D01*
X403634Y234377D01*
Y234450D01*
Y234505D01*
Y234523D01*
Y234541D01*
X403652Y234905D01*
X403671Y235251D01*
X403725Y235561D01*
X403762Y235835D01*
X403816Y236035D01*
X403871Y236199D01*
X403889Y236308D01*
X403907Y236345D01*
X404017Y236618D01*
X404126Y236873D01*
X404254Y237110D01*
X404381Y237292D01*
X404491Y237456D01*
X404582Y237565D01*
X404636Y237638D01*
X404655Y237657D01*
X404837Y237839D01*
X405037Y238003D01*
X405237Y238148D01*
X405420Y238258D01*
X405584Y238349D01*
X405711Y238404D01*
X405802Y238440D01*
X405839Y238458D01*
X406112Y238549D01*
X406385Y238622D01*
X406640Y238677D01*
X406896Y238713D01*
X407096Y238732D01*
X407278Y238750D01*
X407424D01*
X407770Y238732D01*
D02*
G37*
G36*
X380058Y238732D02*
X380367Y238695D01*
X380641Y238640D01*
X380896Y238586D01*
X381096Y238531D01*
X381242Y238476D01*
X381333Y238440D01*
X381369Y238422D01*
X381624Y238294D01*
X381861Y238148D01*
X382080Y238003D01*
X382262Y237857D01*
X382408Y237730D01*
X382517Y237620D01*
X382590Y237547D01*
X382608Y237529D01*
X382790Y237310D01*
X382936Y237073D01*
X383082Y236855D01*
X383191Y236636D01*
X383282Y236454D01*
X383337Y236290D01*
X383373Y236199D01*
X383392Y236181D01*
Y236162D01*
X383483Y235871D01*
X383538Y235561D01*
X383592Y235270D01*
X383610Y234997D01*
X383629Y234778D01*
X383647Y234596D01*
Y234523D01*
Y234468D01*
Y234450D01*
Y234432D01*
X383629Y234067D01*
X383610Y233721D01*
X383574Y233411D01*
X383519Y233138D01*
X383465Y232919D01*
X383428Y232755D01*
X383410Y232646D01*
X383392Y232628D01*
Y232610D01*
X383282Y232336D01*
X383173Y232081D01*
X383046Y231844D01*
X382936Y231662D01*
X382827Y231498D01*
X382736Y231389D01*
X382681Y231316D01*
X382663Y231298D01*
X382463Y231116D01*
X382262Y230952D01*
X382080Y230806D01*
X381879Y230697D01*
X381715Y230605D01*
X381588Y230551D01*
X381515Y230514D01*
X381479Y230496D01*
X381205Y230405D01*
X380932Y230332D01*
X380659Y230296D01*
X380404Y230259D01*
X380203Y230241D01*
X380021Y230223D01*
X379875D01*
X379529Y230241D01*
X379219Y230277D01*
X378946Y230314D01*
X378691Y230387D01*
X378491Y230441D01*
X378345Y230478D01*
X378254Y230514D01*
X378217Y230533D01*
X377962Y230660D01*
X377707Y230806D01*
X377507Y230952D01*
X377325Y231079D01*
X377179Y231207D01*
X377069Y231316D01*
X376996Y231389D01*
X376978Y231407D01*
X376796Y231626D01*
X376632Y231863D01*
X376505Y232100D01*
X376395Y232318D01*
X376304Y232500D01*
X376250Y232646D01*
X376213Y232737D01*
X376195Y232774D01*
X376104Y233083D01*
X376031Y233393D01*
X375994Y233685D01*
X375958Y233958D01*
X375940Y234195D01*
X375922Y234377D01*
Y234450D01*
Y234505D01*
Y234523D01*
Y234541D01*
X375940Y234905D01*
X375958Y235251D01*
X376013Y235561D01*
X376049Y235835D01*
X376104Y236035D01*
X376158Y236199D01*
X376177Y236308D01*
X376195Y236345D01*
X376304Y236618D01*
X376413Y236873D01*
X376541Y237110D01*
X376669Y237292D01*
X376778Y237456D01*
X376869Y237565D01*
X376924Y237638D01*
X376942Y237657D01*
X377124Y237839D01*
X377325Y238003D01*
X377525Y238148D01*
X377707Y238258D01*
X377871Y238349D01*
X377999Y238404D01*
X378090Y238440D01*
X378126Y238458D01*
X378399Y238549D01*
X378673Y238622D01*
X378928Y238677D01*
X379183Y238713D01*
X379383Y238732D01*
X379566Y238750D01*
X379711D01*
X380058Y238732D01*
D02*
G37*
G36*
X352035Y241228D02*
X352381Y241210D01*
X352691Y241173D01*
X352964Y241118D01*
X353183Y241064D01*
X353329Y241027D01*
X353438Y241009D01*
X353474Y240991D01*
X353748Y240881D01*
X353985Y240772D01*
X354203Y240663D01*
X354367Y240554D01*
X354513Y240462D01*
X354622Y240390D01*
X354695Y240335D01*
X354714Y240317D01*
X354877Y240153D01*
X355023Y239989D01*
X355151Y239825D01*
X355242Y239679D01*
X355315Y239551D01*
X355388Y239460D01*
X355406Y239387D01*
X355424Y239369D01*
X355497Y239169D01*
X355552Y238968D01*
X355588Y238786D01*
X355606Y238622D01*
X355625Y238476D01*
X355643Y238367D01*
Y238294D01*
Y238276D01*
X355625Y238057D01*
X355606Y237839D01*
X355570Y237657D01*
X355515Y237493D01*
X355479Y237365D01*
X355442Y237274D01*
X355424Y237201D01*
X355406Y237183D01*
X355205Y236873D01*
X355096Y236727D01*
X355005Y236618D01*
X354914Y236509D01*
X354841Y236436D01*
X354805Y236399D01*
X354786Y236381D01*
X354477Y236144D01*
X354313Y236053D01*
X354185Y235962D01*
X354058Y235889D01*
X353966Y235853D01*
X353894Y235816D01*
X353875Y235798D01*
X353493Y235616D01*
X353329Y235543D01*
X353165Y235470D01*
X353037Y235416D01*
X352946Y235361D01*
X352873Y235343D01*
X352855Y235324D01*
X352472Y235179D01*
X352290Y235106D01*
X352145Y235051D01*
X351999Y234997D01*
X351908Y234960D01*
X351835Y234942D01*
X351817Y234924D01*
X351452Y234760D01*
X351306Y234687D01*
X351179Y234614D01*
X351069Y234559D01*
X350997Y234505D01*
X350942Y234486D01*
X350924Y234468D01*
X350650Y234286D01*
X350541Y234195D01*
X350450Y234104D01*
X350377Y234031D01*
X350323Y233976D01*
X350304Y233940D01*
X350286Y233922D01*
X350195Y233794D01*
X350140Y233685D01*
X350067Y233448D01*
X350049Y233338D01*
X350031Y233266D01*
Y233211D01*
Y233193D01*
X350049Y232919D01*
X350067Y232792D01*
X350104Y232682D01*
X350122Y232591D01*
X350159Y232519D01*
X350177Y232482D01*
Y232464D01*
X350304Y232245D01*
X350468Y232081D01*
X350541Y232027D01*
X350596Y231972D01*
X350632Y231954D01*
X350650Y231936D01*
X350905Y231808D01*
X351161Y231699D01*
X351288Y231680D01*
X351361Y231644D01*
X351434Y231626D01*
X351452D01*
X351653Y231589D01*
X351853Y231571D01*
X352053Y231535D01*
X352236D01*
X352399Y231516D01*
X353019D01*
X353347Y231535D01*
X353639Y231553D01*
X353894Y231589D01*
X354112Y231608D01*
X354276Y231626D01*
X354367Y231644D01*
X354404D01*
X354677Y231699D01*
X354932Y231753D01*
X355169Y231808D01*
X355369Y231881D01*
X355533Y231936D01*
X355661Y231972D01*
X355734Y231990D01*
X355770Y232008D01*
Y230605D01*
X355552Y230551D01*
X355351Y230496D01*
X355278Y230478D01*
X355205Y230460D01*
X355169Y230441D01*
X355151D01*
X354896Y230405D01*
X354659Y230369D01*
X354568D01*
X354495Y230350D01*
X354422D01*
X354130Y230314D01*
X353875Y230277D01*
X353766D01*
X353693Y230259D01*
X353620D01*
X353292Y230241D01*
X353165D01*
X353019Y230223D01*
X352418D01*
X352090Y230259D01*
X351798Y230277D01*
X351543Y230314D01*
X351325Y230350D01*
X351161Y230369D01*
X351069Y230405D01*
X351033D01*
X350742Y230478D01*
X350486Y230569D01*
X350268Y230660D01*
X350067Y230751D01*
X349922Y230842D01*
X349794Y230915D01*
X349721Y230952D01*
X349703Y230970D01*
X349503Y231116D01*
X349320Y231280D01*
X349175Y231444D01*
X349047Y231589D01*
X348956Y231717D01*
X348883Y231826D01*
X348847Y231899D01*
X348828Y231917D01*
X348719Y232136D01*
X348646Y232373D01*
X348573Y232610D01*
X348537Y232810D01*
X348519Y232992D01*
X348500Y233138D01*
Y233229D01*
Y233266D01*
X348519Y233502D01*
X348537Y233703D01*
X348573Y233903D01*
X348628Y234067D01*
X348683Y234195D01*
X348719Y234286D01*
X348737Y234359D01*
X348756Y234377D01*
X348956Y234705D01*
X349065Y234851D01*
X349156Y234960D01*
X349248Y235069D01*
X349320Y235142D01*
X349375Y235179D01*
X349393Y235197D01*
X349685Y235434D01*
X349976Y235634D01*
X350104Y235707D01*
X350195Y235762D01*
X350268Y235780D01*
X350286Y235798D01*
X350669Y235980D01*
X350833Y236053D01*
X350997Y236126D01*
X351124Y236181D01*
X351234Y236217D01*
X351306Y236254D01*
X351325D01*
X351707Y236418D01*
X351871Y236491D01*
X352017Y236545D01*
X352163Y236600D01*
X352254Y236636D01*
X352327Y236673D01*
X352345D01*
X352709Y236819D01*
X352855Y236891D01*
X352983Y236964D01*
X353110Y237019D01*
X353183Y237073D01*
X353238Y237092D01*
X353256Y237110D01*
X353511Y237310D01*
X353711Y237493D01*
X353784Y237565D01*
X353839Y237620D01*
X353857Y237657D01*
X353875Y237675D01*
X353948Y237802D01*
X354003Y237930D01*
X354076Y238167D01*
X354094Y238276D01*
X354112Y238349D01*
Y238404D01*
Y238422D01*
X354094Y238677D01*
X354021Y238896D01*
X353930Y239096D01*
X353821Y239260D01*
X353711Y239387D01*
X353620Y239479D01*
X353547Y239533D01*
X353529Y239551D01*
X353274Y239697D01*
X353001Y239807D01*
X352691Y239879D01*
X352381Y239934D01*
X352108Y239970D01*
X351889Y239989D01*
X351689D01*
X351252Y239970D01*
X351033Y239952D01*
X350851Y239934D01*
X350687Y239916D01*
X350577Y239898D01*
X350486Y239879D01*
X350468D01*
X349994Y239807D01*
X349776Y239752D01*
X349594Y239715D01*
X349430Y239679D01*
X349302Y239661D01*
X349229Y239624D01*
X349193D01*
Y240936D01*
X349393Y240973D01*
X349594Y241009D01*
X349667Y241027D01*
X349739Y241045D01*
X349794D01*
X350031Y241082D01*
X350231Y241118D01*
X350304D01*
X350377Y241137D01*
X350432D01*
X350669Y241173D01*
X350869Y241191D01*
X350960Y241210D01*
X351069D01*
X351288Y241228D01*
X351470Y241246D01*
X351653D01*
X352035Y241228D01*
D02*
G37*
G36*
X315103Y238732D02*
X315431Y238713D01*
X315704Y238677D01*
X315941Y238640D01*
X316142Y238586D01*
X316269Y238549D01*
X316360Y238531D01*
X316397Y238513D01*
X316634Y238422D01*
X316834Y238313D01*
X317016Y238221D01*
X317162Y238130D01*
X317271Y238039D01*
X317362Y237966D01*
X317417Y237930D01*
X317435Y237912D01*
X317563Y237784D01*
X317690Y237638D01*
X317781Y237511D01*
X317854Y237402D01*
X317909Y237292D01*
X317946Y237219D01*
X317982Y237165D01*
Y237146D01*
X318073Y236855D01*
X318091Y236727D01*
X318109Y236618D01*
X318128Y236527D01*
Y236454D01*
Y236418D01*
Y236399D01*
Y236217D01*
X318091Y236035D01*
X318073Y235871D01*
X318037Y235743D01*
X318000Y235634D01*
X317982Y235561D01*
X317946Y235507D01*
Y235488D01*
X317781Y235215D01*
X317599Y235015D01*
X317527Y234924D01*
X317454Y234869D01*
X317417Y234833D01*
X317399Y234814D01*
X317126Y234614D01*
X316852Y234468D01*
X316743Y234413D01*
X316652Y234359D01*
X316597Y234341D01*
X316579Y234322D01*
X316215Y234176D01*
X316051Y234122D01*
X315887Y234067D01*
X315759Y234013D01*
X315650Y233994D01*
X315577Y233958D01*
X315559D01*
X315285Y233885D01*
X315067Y233812D01*
X314866Y233739D01*
X314702Y233685D01*
X314557Y233630D01*
X314465Y233594D01*
X314411Y233557D01*
X314393D01*
X314247Y233502D01*
X314101Y233430D01*
X313992Y233375D01*
X313901Y233338D01*
X313846Y233284D01*
X313791Y233265D01*
X313755Y233229D01*
X313609Y233102D01*
X313518Y232992D01*
X313482Y232919D01*
X313463Y232883D01*
X313409Y232755D01*
X313390Y232628D01*
X313372Y232537D01*
Y232519D01*
Y232500D01*
X313390Y232318D01*
X313445Y232154D01*
X313536Y232008D01*
X313627Y231899D01*
X313719Y231808D01*
X313810Y231753D01*
X313864Y231717D01*
X313882Y231699D01*
X314083Y231608D01*
X314320Y231535D01*
X314575Y231498D01*
X314830Y231462D01*
X315049Y231444D01*
X315231Y231425D01*
X315395D01*
X315923Y231444D01*
X316160Y231462D01*
X316379Y231480D01*
X316561D01*
X316688Y231498D01*
X316779Y231516D01*
X316816D01*
X317344Y231608D01*
X317581Y231662D01*
X317800Y231717D01*
X317982Y231771D01*
X318109Y231808D01*
X318201Y231844D01*
X318237D01*
Y230533D01*
X317745Y230423D01*
X317527Y230387D01*
X317308Y230350D01*
X317144Y230332D01*
X316998Y230314D01*
X316925Y230296D01*
X316889D01*
X316342Y230259D01*
X316087Y230241D01*
X315850D01*
X315650Y230223D01*
X315340D01*
X315049Y230241D01*
X314812Y230259D01*
X314702Y230277D01*
X314630D01*
X314575Y230296D01*
X314557D01*
X314265Y230350D01*
X314119Y230369D01*
X314010Y230405D01*
X313919Y230423D01*
X313828Y230441D01*
X313791Y230460D01*
X313773D01*
X313500Y230551D01*
X313281Y230642D01*
X313190Y230697D01*
X313117Y230715D01*
X313081Y230751D01*
X313063D01*
X312826Y230915D01*
X312625Y231061D01*
X312552Y231116D01*
X312498Y231170D01*
X312479Y231189D01*
X312461Y231207D01*
X312297Y231425D01*
X312170Y231626D01*
X312115Y231699D01*
X312079Y231771D01*
X312060Y231808D01*
Y231826D01*
X311969Y232100D01*
X311915Y232355D01*
X311896Y232446D01*
Y232537D01*
Y232591D01*
Y232610D01*
X311915Y232938D01*
X311933Y233065D01*
X311969Y233193D01*
X311988Y233284D01*
X312024Y233375D01*
X312042Y233411D01*
Y233430D01*
X312097Y233557D01*
X312170Y233685D01*
X312316Y233885D01*
X312388Y233958D01*
X312443Y234013D01*
X312479Y234049D01*
X312498Y234067D01*
X312753Y234268D01*
X313008Y234450D01*
X313135Y234505D01*
X313208Y234559D01*
X313281Y234577D01*
X313299Y234596D01*
X313500Y234687D01*
X313700Y234760D01*
X313901Y234851D01*
X314101Y234905D01*
X314283Y234978D01*
X314411Y235015D01*
X314502Y235033D01*
X314538Y235051D01*
X314775Y235124D01*
X314976Y235179D01*
X315158Y235233D01*
X315322Y235288D01*
X315449Y235343D01*
X315541Y235361D01*
X315595Y235397D01*
X315613D01*
X315759Y235470D01*
X315887Y235525D01*
X315996Y235579D01*
X316105Y235634D01*
X316178Y235689D01*
X316233Y235707D01*
X316251Y235743D01*
X316269D01*
X316415Y235871D01*
X316524Y235980D01*
X316579Y236053D01*
X316597Y236090D01*
X316634Y236235D01*
X316652Y236363D01*
X316670Y236454D01*
Y236472D01*
Y236491D01*
X316652Y236654D01*
X316616Y236782D01*
X316597Y236873D01*
X316579Y236910D01*
X316488Y237037D01*
X316397Y237146D01*
X316306Y237219D01*
X316269Y237238D01*
X316069Y237329D01*
X315887Y237420D01*
X315796Y237438D01*
X315723Y237456D01*
X315686Y237474D01*
X315668D01*
X315376Y237529D01*
X315085Y237547D01*
X314957Y237565D01*
X314775D01*
X314411Y237547D01*
X314247Y237529D01*
X314083D01*
X313937Y237511D01*
X313828Y237493D01*
X313737Y237474D01*
X313719D01*
X313263Y237402D01*
X313044Y237365D01*
X312862Y237329D01*
X312680Y237292D01*
X312552Y237274D01*
X312479Y237238D01*
X312443D01*
Y238513D01*
X312680Y238549D01*
X312917Y238604D01*
X313117Y238622D01*
X313299Y238659D01*
X313463Y238677D01*
X313573D01*
X313664Y238695D01*
X313682D01*
X314101Y238732D01*
X314283D01*
X314429Y238750D01*
X314757D01*
X315103Y238732D01*
D02*
G37*
%LPC*%
G36*
X287555Y237602D02*
X287190D01*
X287008Y237565D01*
X286844Y237547D01*
X286716Y237511D01*
X286607Y237474D01*
X286516Y237438D01*
X286461Y237420D01*
X286443Y237402D01*
X286152Y237238D01*
X286042Y237165D01*
X285933Y237073D01*
X285860Y237001D01*
X285805Y236946D01*
X285769Y236910D01*
X285751Y236891D01*
X285569Y236636D01*
X285441Y236381D01*
X285405Y236272D01*
X285368Y236181D01*
X285350Y236126D01*
Y236108D01*
X285259Y235762D01*
X285241Y235598D01*
X285222Y235452D01*
Y235324D01*
Y235215D01*
Y235142D01*
Y235124D01*
X289559D01*
X289504Y235507D01*
X289486Y235689D01*
X289449Y235835D01*
X289413Y235962D01*
X289377Y236053D01*
X289358Y236108D01*
Y236126D01*
X289213Y236436D01*
X289140Y236582D01*
X289067Y236691D01*
X288994Y236782D01*
X288939Y236855D01*
X288921Y236891D01*
X288903Y236910D01*
X288684Y237128D01*
X288466Y237292D01*
X288374Y237347D01*
X288302Y237383D01*
X288265Y237420D01*
X288247D01*
X287937Y237529D01*
X287791Y237565D01*
X287664Y237584D01*
X287555Y237602D01*
D02*
G37*
G36*
X278317D02*
X277953D01*
X277770Y237565D01*
X277606Y237547D01*
X277479Y237511D01*
X277370Y237474D01*
X277278Y237438D01*
X277224Y237420D01*
X277206Y237402D01*
X276914Y237238D01*
X276805Y237165D01*
X276695Y237073D01*
X276623Y237001D01*
X276568Y236946D01*
X276532Y236910D01*
X276513Y236891D01*
X276331Y236636D01*
X276203Y236381D01*
X276167Y236272D01*
X276131Y236181D01*
X276112Y236126D01*
Y236108D01*
X276021Y235762D01*
X276003Y235598D01*
X275985Y235452D01*
Y235324D01*
Y235215D01*
Y235142D01*
Y235124D01*
X280321Y235124D01*
X280267Y235507D01*
X280248Y235689D01*
X280212Y235835D01*
X280175Y235962D01*
X280139Y236053D01*
X280121Y236108D01*
Y236126D01*
X279975Y236436D01*
X279902Y236582D01*
X279829Y236691D01*
X279756Y236782D01*
X279702Y236855D01*
X279683Y236891D01*
X279665Y236910D01*
X279447Y237128D01*
X279228Y237292D01*
X279137Y237347D01*
X279064Y237383D01*
X279028Y237420D01*
X279009D01*
X278700Y237529D01*
X278554Y237565D01*
X278426Y237584D01*
X278317Y237602D01*
D02*
G37*
G36*
X418593Y239843D02*
X416880D01*
X416680Y239825D01*
X416498Y239807D01*
X416352Y239788D01*
X416224Y239752D01*
X416133Y239734D01*
X416078Y239716D01*
X416060D01*
X415914Y239661D01*
X415787Y239606D01*
X415659Y239551D01*
X415568Y239497D01*
X415495Y239442D01*
X415441Y239406D01*
X415422Y239387D01*
X415404Y239369D01*
X415240Y239205D01*
X415131Y239041D01*
X415095Y238987D01*
X415076Y238932D01*
X415058Y238896D01*
Y238877D01*
X414985Y238659D01*
X414967Y238476D01*
X414949Y238385D01*
Y238331D01*
Y238294D01*
Y238276D01*
X414967Y237966D01*
X415003Y237821D01*
X415022Y237711D01*
X415058Y237602D01*
X415095Y237529D01*
X415113Y237493D01*
Y237474D01*
X415259Y237256D01*
X415404Y237073D01*
X415514Y236964D01*
X415550Y236946D01*
X415568Y236928D01*
X415805Y236782D01*
X416024Y236691D01*
X416115Y236654D01*
X416188Y236618D01*
X416242Y236600D01*
X416261D01*
X416570Y236545D01*
X416716Y236527D01*
X416862D01*
X416971Y236509D01*
X418593D01*
Y239843D01*
D02*
G37*
G36*
Y235288D02*
X416898D01*
X416698Y235270D01*
X416516Y235251D01*
X416352Y235233D01*
X416224Y235197D01*
X416133Y235179D01*
X416060Y235160D01*
X416042D01*
X415714Y235051D01*
X415587Y234997D01*
X415459Y234924D01*
X415368Y234887D01*
X415295Y234833D01*
X415259Y234814D01*
X415240Y234796D01*
X415022Y234614D01*
X414876Y234450D01*
X414821Y234359D01*
X414785Y234304D01*
X414748Y234268D01*
Y234249D01*
X414639Y233994D01*
X414584Y233757D01*
X414566Y233666D01*
Y233594D01*
Y233539D01*
Y233521D01*
X414584Y233174D01*
X414657Y232883D01*
X414767Y232628D01*
X414876Y232427D01*
X414985Y232263D01*
X415095Y232154D01*
X415167Y232081D01*
X415186Y232063D01*
X415441Y231917D01*
X415732Y231808D01*
X416042Y231717D01*
X416352Y231662D01*
X416625Y231626D01*
X416753D01*
X416862Y231608D01*
X418593D01*
Y235288D01*
D02*
G37*
G36*
X407606Y237529D02*
X407296D01*
X407114Y237493D01*
X406950Y237474D01*
X406805Y237438D01*
X406677Y237402D01*
X406586Y237365D01*
X406531Y237347D01*
X406513Y237329D01*
X406203Y237146D01*
X406076Y237055D01*
X405966Y236964D01*
X405875Y236873D01*
X405802Y236800D01*
X405766Y236764D01*
X405748Y236746D01*
X405638Y236600D01*
X405547Y236436D01*
X405402Y236144D01*
X405347Y235999D01*
X405310Y235889D01*
X405274Y235816D01*
Y235798D01*
X405219Y235579D01*
X405165Y235361D01*
X405128Y235124D01*
X405110Y234924D01*
X405092Y234741D01*
Y234596D01*
Y234505D01*
Y234468D01*
X405110Y234031D01*
X405128Y233830D01*
X405165Y233666D01*
X405183Y233521D01*
X405219Y233393D01*
X405237Y233320D01*
Y233302D01*
X405292Y233102D01*
X405365Y232919D01*
X405420Y232755D01*
X405493Y232610D01*
X405566Y232500D01*
X405602Y232409D01*
X405638Y232355D01*
X405657Y232336D01*
X405894Y232063D01*
X406021Y231936D01*
X406130Y231844D01*
X406240Y231771D01*
X406331Y231717D01*
X406385Y231680D01*
X406404Y231662D01*
X406586Y231589D01*
X406768Y231535D01*
X406950Y231480D01*
X407114Y231462D01*
X407278Y231444D01*
X407387Y231425D01*
X407697D01*
X407898Y231462D01*
X408062Y231480D01*
X408226Y231516D01*
X408335Y231553D01*
X408444Y231571D01*
X408499Y231608D01*
X408517D01*
X408809Y231790D01*
X408936Y231881D01*
X409046Y231972D01*
X409137Y232045D01*
X409209Y232118D01*
X409246Y232154D01*
X409264Y232172D01*
X409465Y232482D01*
X409610Y232792D01*
X409665Y232919D01*
X409701Y233029D01*
X409738Y233102D01*
Y233120D01*
X409829Y233575D01*
X409865Y233812D01*
X409884Y234013D01*
Y234195D01*
X409902Y234341D01*
Y234432D01*
Y234468D01*
X409884Y234905D01*
X409865Y235106D01*
X409829Y235288D01*
X409811Y235434D01*
X409793Y235543D01*
X409774Y235616D01*
Y235634D01*
X409720Y235835D01*
X409647Y236017D01*
X409592Y236181D01*
X409519Y236327D01*
X409446Y236436D01*
X409410Y236527D01*
X409374Y236582D01*
X409355Y236600D01*
X409118Y236891D01*
X408991Y237001D01*
X408863Y237092D01*
X408772Y237165D01*
X408681Y237219D01*
X408627Y237256D01*
X408608Y237274D01*
X408426Y237365D01*
X408244Y237420D01*
X408062Y237474D01*
X407879Y237493D01*
X407734Y237511D01*
X407606Y237529D01*
D02*
G37*
G36*
X379893Y237529D02*
X379584D01*
X379402Y237493D01*
X379238Y237474D01*
X379092Y237438D01*
X378964Y237402D01*
X378873Y237365D01*
X378818Y237347D01*
X378800Y237329D01*
X378491Y237146D01*
X378363Y237055D01*
X378254Y236964D01*
X378163Y236873D01*
X378090Y236800D01*
X378053Y236764D01*
X378035Y236746D01*
X377926Y236600D01*
X377835Y236436D01*
X377689Y236144D01*
X377634Y235999D01*
X377598Y235889D01*
X377561Y235816D01*
Y235798D01*
X377507Y235579D01*
X377452Y235361D01*
X377416Y235124D01*
X377397Y234924D01*
X377379Y234741D01*
Y234596D01*
Y234505D01*
Y234468D01*
X377397Y234031D01*
X377416Y233830D01*
X377452Y233666D01*
X377470Y233521D01*
X377507Y233393D01*
X377525Y233320D01*
Y233302D01*
X377580Y233102D01*
X377653Y232919D01*
X377707Y232755D01*
X377780Y232610D01*
X377853Y232500D01*
X377889Y232409D01*
X377926Y232355D01*
X377944Y232336D01*
X378181Y232063D01*
X378308Y231936D01*
X378418Y231844D01*
X378527Y231771D01*
X378618Y231717D01*
X378673Y231680D01*
X378691Y231662D01*
X378873Y231589D01*
X379055Y231535D01*
X379238Y231480D01*
X379402Y231462D01*
X379566Y231444D01*
X379675Y231425D01*
X379985D01*
X380185Y231462D01*
X380349Y231480D01*
X380513Y231516D01*
X380622Y231553D01*
X380732Y231571D01*
X380786Y231608D01*
X380804D01*
X381096Y231790D01*
X381224Y231881D01*
X381333Y231972D01*
X381424Y232045D01*
X381497Y232118D01*
X381533Y232154D01*
X381552Y232172D01*
X381752Y232482D01*
X381898Y232792D01*
X381952Y232919D01*
X381989Y233029D01*
X382025Y233102D01*
Y233120D01*
X382116Y233575D01*
X382153Y233812D01*
X382171Y234013D01*
Y234195D01*
X382189Y234341D01*
Y234432D01*
Y234468D01*
X382171Y234905D01*
X382153Y235106D01*
X382116Y235288D01*
X382098Y235434D01*
X382080Y235543D01*
X382062Y235616D01*
Y235634D01*
X382007Y235835D01*
X381934Y236017D01*
X381879Y236181D01*
X381807Y236327D01*
X381734Y236436D01*
X381697Y236527D01*
X381661Y236582D01*
X381643Y236600D01*
X381406Y236891D01*
X381278Y237001D01*
X381151Y237092D01*
X381060Y237165D01*
X380968Y237219D01*
X380914Y237256D01*
X380896Y237274D01*
X380713Y237365D01*
X380531Y237420D01*
X380349Y237474D01*
X380167Y237493D01*
X380021Y237511D01*
X379893Y237529D01*
D02*
G37*
%LPD*%
D10*
X-62598Y126181D02*
X-22441D01*
X-62598Y106102D02*
Y126181D01*
Y106102D02*
X-22441D01*
X-62598Y96496D02*
X-22441D01*
X-62598Y76417D02*
Y96496D01*
Y76417D02*
X-22441D01*
X-62598Y67126D02*
X-22441D01*
X-62598Y47047D02*
Y67126D01*
Y47047D02*
X-22441D01*
X-10700Y-170521D02*
Y-89121D01*
Y-170521D02*
X292800D01*
Y-89121D01*
X-10700D02*
X292800D01*
X84200Y-133921D02*
Y-125921D01*
X200200Y-133921D02*
Y-125921D01*
X196200Y-129921D02*
X204200D01*
X292900Y-84107D02*
Y-2707D01*
X-10600D02*
X292900D01*
X-10600Y-84107D02*
Y-2707D01*
Y-84107D02*
X292900D01*
X-10700Y2707D02*
Y84107D01*
Y2707D02*
X292800D01*
Y84107D01*
X-10700D02*
X292800D01*
X292900Y89121D02*
Y170521D01*
X-10600D02*
X292900D01*
X-10600Y89121D02*
Y170521D01*
Y89121D02*
X292900D01*
X198000Y125921D02*
Y133921D01*
X82000Y125921D02*
Y133921D01*
X78000Y129921D02*
X86000D01*
X-31496Y-31496D02*
Y-15748D01*
X-15748Y-31496D02*
Y-15748D01*
X-31496Y-31496D02*
X-15748D01*
X-31496Y-15748D02*
X-15748D01*
X-31496D02*
Y7874D01*
X-15748Y-15748D02*
Y7874D01*
X-31496Y-15748D02*
X-15748D01*
X-31496Y7874D02*
X-15748D01*
X-31496Y7874D02*
Y31496D01*
X-15748Y7874D02*
Y31496D01*
X-31496Y7874D02*
X-15748D01*
X-31496Y31496D02*
X-15748D01*
X161726Y-40508D02*
X163725Y-38508D01*
Y-36509D01*
X161726Y-34510D01*
X154728Y-35509D02*
X155728Y-34510D01*
X157727D01*
X158727Y-35509D01*
Y-39508D01*
X157727Y-40508D01*
X155728D01*
X154728Y-39508D01*
X152729Y-40508D02*
X150729Y-38508D01*
Y-36509D01*
X152729Y-34510D01*
X137734Y-40508D02*
X141732D01*
X137734Y-36509D01*
Y-35509D01*
X138733Y-34510D01*
X140733D01*
X141732Y-35509D01*
X135734D02*
X134734Y-34510D01*
X132735D01*
X131736Y-35509D01*
Y-39508D01*
X132735Y-40508D01*
X134734D01*
X135734Y-39508D01*
Y-35509D01*
X125737Y-40508D02*
X129736D01*
X125737Y-36509D01*
Y-35509D01*
X126737Y-34510D01*
X128736D01*
X129736Y-35509D01*
X123738D02*
X122738Y-34510D01*
X120739D01*
X119739Y-35509D01*
Y-39508D01*
X120739Y-40508D01*
X122738D01*
X123738Y-39508D01*
Y-35509D01*
X174222Y-50105D02*
Y-44107D01*
X171223D01*
X170223Y-45107D01*
Y-47106D01*
X171223Y-48106D01*
X174222D01*
X168224Y-44107D02*
Y-49106D01*
X167224Y-50105D01*
X165225D01*
X164225Y-49106D01*
Y-44107D01*
X162226Y-50105D02*
Y-44107D01*
X160226Y-46107D01*
X158227Y-44107D01*
Y-50105D01*
X156228D02*
Y-44107D01*
X153229D01*
X152229Y-45107D01*
Y-47106D01*
X153229Y-48106D01*
X156228D01*
X150230Y-44107D02*
Y-50105D01*
Y-48106D01*
X146231Y-44107D01*
X149230Y-47106D01*
X146231Y-50105D01*
X144231Y-44107D02*
X142232D01*
X143232D01*
Y-50105D01*
X144231D01*
X142232D01*
X139233D02*
Y-44107D01*
X135234Y-50105D01*
Y-44107D01*
X132235Y-51105D02*
X131236Y-50105D01*
Y-49106D01*
X132235D01*
Y-50105D01*
X131236D01*
X132235Y-51105D01*
X133235Y-52105D01*
X121239Y-44107D02*
X119240D01*
X120239D01*
Y-50105D01*
X121239D01*
X119240D01*
X116241D02*
Y-46107D01*
X113242D01*
X112242Y-47106D01*
Y-50105D01*
X106244Y-46107D02*
X109243D01*
X110242Y-47106D01*
Y-49106D01*
X109243Y-50105D01*
X106244D01*
X104244D02*
Y-49106D01*
X103245D01*
Y-50105D01*
X104244D01*
D11*
X69025Y46968D02*
X71649D01*
X69025Y49591D01*
Y50247D01*
X69681Y50903D01*
X70993D01*
X71649Y50247D01*
X65089D02*
X65746Y50903D01*
X67057D01*
X67713Y50247D01*
Y49591D01*
X67057Y48935D01*
X65746D01*
X65089Y48280D01*
Y47624D01*
X65746Y46968D01*
X67057D01*
X67713Y47624D01*
X63778Y49591D02*
X63122D01*
Y48935D01*
X63778D01*
Y49591D01*
Y47624D02*
X63122D01*
Y46968D01*
X63778D01*
Y47624D01*
X60498Y48935D02*
X57874D01*
X59186Y50247D02*
Y47624D01*
X71649Y43635D02*
X70993Y44291D01*
X69681D01*
X69025Y43635D01*
Y42979D01*
X69681Y42323D01*
X70337D01*
X69681D01*
X69025Y41667D01*
Y41011D01*
X69681Y40355D01*
X70993D01*
X71649Y41011D01*
X65089Y43635D02*
X65746Y44291D01*
X67057D01*
X67713Y43635D01*
Y42979D01*
X67057Y42323D01*
X65746D01*
X65089Y41667D01*
Y41011D01*
X65746Y40355D01*
X67057D01*
X67713Y41011D01*
X63778Y42979D02*
X63122D01*
Y42323D01*
X63778D01*
Y42979D01*
Y41011D02*
X63122D01*
Y40355D01*
X63778D01*
Y41011D01*
X60498Y44291D02*
X57874Y40355D01*
Y44291D02*
X60498Y40355D01*
X69681Y33742D02*
Y37678D01*
X71649Y35710D01*
X69025D01*
X65089Y37022D02*
X65746Y37678D01*
X67057D01*
X67713Y37022D01*
Y36366D01*
X67057Y35710D01*
X65746D01*
X65089Y35054D01*
Y34398D01*
X65746Y33742D01*
X67057D01*
X67713Y34398D01*
X63778Y36366D02*
X63122D01*
Y35710D01*
X63778D01*
Y36366D01*
Y34398D02*
X63122D01*
Y33742D01*
X63778D01*
Y34398D01*
X60498Y35710D02*
X57874D01*
X221983Y47952D02*
X224606D01*
X221983Y50576D01*
Y51232D01*
X222638Y51888D01*
X223950D01*
X224606Y51232D01*
X218047D02*
X218703Y51888D01*
X220015D01*
X220671Y51232D01*
Y50576D01*
X220015Y49920D01*
X218703D01*
X218047Y49264D01*
Y48608D01*
X218703Y47952D01*
X220015D01*
X220671Y48608D01*
X216735Y50576D02*
X216079D01*
Y49920D01*
X216735D01*
Y50576D01*
Y48608D02*
X216079D01*
Y47952D01*
X216735D01*
Y48608D01*
X213455Y49920D02*
X210831D01*
X224606Y44619D02*
X223950Y45275D01*
X222638D01*
X221983Y44619D01*
Y43963D01*
X222638Y43307D01*
X223294D01*
X222638D01*
X221983Y42651D01*
Y41995D01*
X222638Y41339D01*
X223950D01*
X224606Y41995D01*
X218047Y44619D02*
X218703Y45275D01*
X220015D01*
X220671Y44619D01*
Y43963D01*
X220015Y43307D01*
X218703D01*
X218047Y42651D01*
Y41995D01*
X218703Y41339D01*
X220015D01*
X220671Y41995D01*
X216735Y43963D02*
X216079D01*
Y43307D01*
X216735D01*
Y43963D01*
Y41995D02*
X216079D01*
Y41339D01*
X216735D01*
Y41995D01*
X213455Y45275D02*
X210831Y41339D01*
Y45275D02*
X213455Y41339D01*
X222638Y34727D02*
Y38662D01*
X224606Y36694D01*
X221983D01*
X218047Y38006D02*
X218703Y38662D01*
X220015D01*
X220671Y38006D01*
Y37350D01*
X220015Y36694D01*
X218703D01*
X218047Y36039D01*
Y35383D01*
X218703Y34727D01*
X220015D01*
X220671Y35383D01*
X216735Y37350D02*
X216079D01*
Y36694D01*
X216735D01*
Y37350D01*
Y35383D02*
X216079D01*
Y34727D01*
X216735D01*
Y35383D01*
X213455Y36694D02*
X210831D01*
X212143Y38006D02*
Y35383D01*
X222569Y-38662D02*
X225192D01*
X222569Y-36039D01*
Y-35383D01*
X223224Y-34727D01*
X224536D01*
X225192Y-35383D01*
X218633D02*
X219289Y-34727D01*
X220601D01*
X221257Y-35383D01*
Y-36039D01*
X220601Y-36694D01*
X219289D01*
X218633Y-37350D01*
Y-38006D01*
X219289Y-38662D01*
X220601D01*
X221257Y-38006D01*
X217321Y-36039D02*
X216665D01*
Y-36694D01*
X217321D01*
Y-36039D01*
Y-38006D02*
X216665D01*
Y-38662D01*
X217321D01*
Y-38006D01*
X214041Y-36694D02*
X211417D01*
X212729Y-35383D02*
Y-38006D01*
X225192Y-41995D02*
X224536Y-41339D01*
X223224D01*
X222569Y-41995D01*
Y-42651D01*
X223224Y-43307D01*
X223881D01*
X223224D01*
X222569Y-43963D01*
Y-44619D01*
X223224Y-45275D01*
X224536D01*
X225192Y-44619D01*
X218633Y-41995D02*
X219289Y-41339D01*
X220601D01*
X221257Y-41995D01*
Y-42651D01*
X220601Y-43307D01*
X219289D01*
X218633Y-43963D01*
Y-44619D01*
X219289Y-45275D01*
X220601D01*
X221257Y-44619D01*
X217321Y-42651D02*
X216665D01*
Y-43307D01*
X217321D01*
Y-42651D01*
Y-44619D02*
X216665D01*
Y-45275D01*
X217321D01*
Y-44619D01*
X214041Y-43307D02*
X211417D01*
X223224Y-51888D02*
Y-47952D01*
X225192Y-49920D01*
X222569D01*
X218633Y-48608D02*
X219289Y-47952D01*
X220601D01*
X221257Y-48608D01*
Y-49264D01*
X220601Y-49920D01*
X219289D01*
X218633Y-50576D01*
Y-51232D01*
X219289Y-51888D01*
X220601D01*
X221257Y-51232D01*
X217321Y-49264D02*
X216665D01*
Y-49920D01*
X217321D01*
Y-49264D01*
Y-51232D02*
X216665D01*
Y-51888D01*
X217321D01*
Y-51232D01*
X214041Y-49920D02*
X211417D01*
X69025Y-39647D02*
X71649D01*
X69025Y-37023D01*
Y-36367D01*
X69681Y-35711D01*
X70993D01*
X71649Y-36367D01*
X65089D02*
X65746Y-35711D01*
X67057D01*
X67713Y-36367D01*
Y-37023D01*
X67057Y-37679D01*
X65746D01*
X65089Y-38335D01*
Y-38991D01*
X65746Y-39647D01*
X67057D01*
X67713Y-38991D01*
X63778Y-37023D02*
X63122D01*
Y-37679D01*
X63778D01*
Y-37023D01*
Y-38991D02*
X63122D01*
Y-39647D01*
X63778D01*
Y-38991D01*
X60498Y-37679D02*
X57874D01*
X71649Y-42979D02*
X70993Y-42323D01*
X69681D01*
X69025Y-42979D01*
Y-43635D01*
X69681Y-44291D01*
X70337D01*
X69681D01*
X69025Y-44947D01*
Y-45603D01*
X69681Y-46259D01*
X70993D01*
X71649Y-45603D01*
X65089Y-42979D02*
X65746Y-42323D01*
X67057D01*
X67713Y-42979D01*
Y-43635D01*
X67057Y-44291D01*
X65746D01*
X65089Y-44947D01*
Y-45603D01*
X65746Y-46259D01*
X67057D01*
X67713Y-45603D01*
X63778Y-43635D02*
X63122D01*
Y-44291D01*
X63778D01*
Y-43635D01*
Y-45603D02*
X63122D01*
Y-46259D01*
X63778D01*
Y-45603D01*
X60498Y-44291D02*
X57874D01*
X59186Y-42979D02*
Y-45603D01*
X69681Y-52872D02*
Y-48936D01*
X71649Y-50904D01*
X69025D01*
X65089Y-49592D02*
X65746Y-48936D01*
X67057D01*
X67713Y-49592D01*
Y-50248D01*
X67057Y-50904D01*
X65746D01*
X65089Y-51560D01*
Y-52216D01*
X65746Y-52872D01*
X67057D01*
X67713Y-52216D01*
X63778Y-50248D02*
X63122D01*
Y-50904D01*
X63778D01*
Y-50248D01*
Y-52216D02*
X63122D01*
Y-52872D01*
X63778D01*
Y-52216D01*
X60498Y-50904D02*
X57874D01*
X59186Y-49592D02*
Y-52216D01*
X-28872Y132873D02*
X-27560D01*
X-28216D01*
Y129594D01*
X-27560Y128938D01*
X-26904D01*
X-26248Y129594D01*
X-30184Y128938D02*
Y132873D01*
X-32152D01*
X-32808Y132217D01*
Y130905D01*
X-32152Y130250D01*
X-30184D01*
X-36744Y128938D02*
X-34120D01*
X-36744Y131562D01*
Y132217D01*
X-36088Y132873D01*
X-34776D01*
X-34120Y132217D01*
X-28872Y103188D02*
X-27560D01*
X-28216D01*
Y99909D01*
X-27560Y99253D01*
X-26904D01*
X-26248Y99909D01*
X-30184Y99253D02*
Y103188D01*
X-32152D01*
X-32808Y102532D01*
Y101221D01*
X-32152Y100565D01*
X-30184D01*
X-34120Y102532D02*
X-34776Y103188D01*
X-36088D01*
X-36744Y102532D01*
Y101876D01*
X-36088Y101221D01*
X-35432D01*
X-36088D01*
X-36744Y100565D01*
Y99909D01*
X-36088Y99253D01*
X-34776D01*
X-34120Y99909D01*
X-28872Y73818D02*
X-27560D01*
X-28216D01*
Y70539D01*
X-27560Y69883D01*
X-26904D01*
X-26248Y70539D01*
X-30184Y69883D02*
Y73818D01*
X-32152D01*
X-32808Y73162D01*
Y71850D01*
X-32152Y71194D01*
X-30184D01*
X-36088Y69883D02*
Y73818D01*
X-34120Y71850D01*
X-36744D01*
X320867Y91206D02*
X323491D01*
X324802Y89894D01*
X323491Y88582D01*
X320867D01*
X321523Y84646D02*
X320867Y85302D01*
Y86614D01*
X321523Y87270D01*
X324147D01*
X324802Y86614D01*
Y85302D01*
X324147Y84646D01*
X324802Y83334D02*
Y82023D01*
Y82678D01*
X320867D01*
X321523Y83334D01*
X320867Y48555D02*
X323491D01*
X324802Y47243D01*
X323491Y45931D01*
X320867D01*
X321523Y41995D02*
X320867Y42651D01*
Y43963D01*
X321523Y44619D01*
X324147D01*
X324802Y43963D01*
Y42651D01*
X324147Y41995D01*
X324802Y38059D02*
Y40683D01*
X322179Y38059D01*
X321523D01*
X320867Y38715D01*
Y40027D01*
X321523Y40683D01*
X320867Y5248D02*
X323491D01*
X324802Y3936D01*
X323491Y2624D01*
X320867D01*
X321523Y-1312D02*
X320867Y-656D01*
Y656D01*
X321523Y1312D01*
X324147D01*
X324802Y656D01*
Y-656D01*
X324147Y-1312D01*
X321523Y-2624D02*
X320867Y-3280D01*
Y-4592D01*
X321523Y-5248D01*
X322179D01*
X322835Y-4592D01*
Y-3936D01*
Y-4592D01*
X323491Y-5248D01*
X324147D01*
X324802Y-4592D01*
Y-3280D01*
X324147Y-2624D01*
X320867Y-38059D02*
X323491D01*
X324802Y-39371D01*
X323491Y-40683D01*
X320867D01*
X321523Y-44619D02*
X320867Y-43963D01*
Y-42651D01*
X321523Y-41995D01*
X324147D01*
X324802Y-42651D01*
Y-43963D01*
X324147Y-44619D01*
X324802Y-47899D02*
X320867D01*
X322835Y-45931D01*
Y-48555D01*
X320867Y-81366D02*
X323491D01*
X324802Y-82678D01*
X323491Y-83990D01*
X320867D01*
X321523Y-87926D02*
X320867Y-87270D01*
Y-85958D01*
X321523Y-85302D01*
X324147D01*
X324802Y-85958D01*
Y-87270D01*
X324147Y-87926D01*
X320867Y-91862D02*
Y-89238D01*
X322835D01*
X322179Y-90550D01*
Y-91206D01*
X322835Y-91862D01*
X324147D01*
X324802Y-91206D01*
Y-89894D01*
X324147Y-89238D01*
X-13124Y-96453D02*
Y-100389D01*
X-15092D01*
X-15748Y-99733D01*
Y-99077D01*
X-15092Y-98421D01*
X-13124D01*
X-15092D01*
X-15748Y-97765D01*
Y-97109D01*
X-15092Y-96453D01*
X-13124D01*
X-17060Y-100389D02*
X-18372D01*
X-17716D01*
Y-96453D01*
X-17060Y-97109D01*
X-12468Y-72835D02*
Y-76771D01*
X-14436D01*
X-15092Y-76115D01*
Y-75459D01*
X-14436Y-74803D01*
X-12468D01*
X-14436D01*
X-15092Y-74147D01*
Y-73491D01*
X-14436Y-72835D01*
X-12468D01*
X-19028Y-76771D02*
X-16404D01*
X-19028Y-74147D01*
Y-73491D01*
X-18372Y-72835D01*
X-17060D01*
X-16404Y-73491D01*
X-12468Y76775D02*
Y72839D01*
X-14436D01*
X-15092Y73495D01*
Y74151D01*
X-14436Y74807D01*
X-12468D01*
X-14436D01*
X-15092Y75463D01*
Y76119D01*
X-14436Y76775D01*
X-12468D01*
X-16404Y76119D02*
X-17060Y76775D01*
X-18372D01*
X-19028Y76119D01*
Y75463D01*
X-18372Y74807D01*
X-17716D01*
X-18372D01*
X-19028Y74151D01*
Y73495D01*
X-18372Y72839D01*
X-17060D01*
X-16404Y73495D01*
X-12468Y100393D02*
Y96457D01*
X-14436D01*
X-15092Y97113D01*
Y97769D01*
X-14436Y98425D01*
X-12468D01*
X-14436D01*
X-15092Y99081D01*
Y99737D01*
X-14436Y100393D01*
X-12468D01*
X-18372Y96457D02*
Y100393D01*
X-16404Y98425D01*
X-19028D01*
X320867Y141732D02*
X324802D01*
Y139764D01*
X324147Y139109D01*
X321523D01*
X320867Y139764D01*
Y141732D01*
Y135173D02*
Y136485D01*
Y135829D01*
X324147D01*
X324802Y136485D01*
Y137141D01*
X324147Y137796D01*
X320867Y133861D02*
X324802D01*
X323491Y132549D01*
X324802Y131237D01*
X320867D01*
X166659Y37402D02*
Y40026D01*
X166003D01*
X165347Y39370D01*
Y37402D01*
Y39370D01*
X164691Y40026D01*
X164035Y39370D01*
Y37402D01*
X162067Y40026D02*
X160755D01*
X160099Y39370D01*
Y37402D01*
X162067D01*
X162723Y38058D01*
X162067Y38714D01*
X160099D01*
X156163Y41338D02*
Y37402D01*
X158131D01*
X158787Y38058D01*
Y39370D01*
X158131Y40026D01*
X156163D01*
X152884Y37402D02*
X154195D01*
X154851Y38058D01*
Y39370D01*
X154195Y40026D01*
X152884D01*
X152228Y39370D01*
Y38714D01*
X154851D01*
X146980Y37402D02*
X145668D01*
X146324D01*
Y40026D01*
X146980D01*
X143700Y37402D02*
Y40026D01*
X141732D01*
X141076Y39370D01*
Y37402D01*
X135829Y41338D02*
Y38058D01*
X135173Y37402D01*
X133861D01*
X133205Y38058D01*
Y41338D01*
X131893Y37402D02*
Y38058D01*
X131237D01*
Y37402D01*
X131893D01*
X125989Y40682D02*
X126645Y41338D01*
X127957D01*
X128613Y40682D01*
Y40026D01*
X127957Y39370D01*
X126645D01*
X125989Y38714D01*
Y38058D01*
X126645Y37402D01*
X127957D01*
X128613Y38058D01*
X124677Y37402D02*
Y38058D01*
X124021D01*
Y37402D01*
X124677D01*
X121398D02*
Y40026D01*
X120086Y41338D01*
X118774Y40026D01*
Y37402D01*
Y39370D01*
X121398D01*
X117462Y37402D02*
Y38058D01*
X116806D01*
Y37402D01*
X117462D01*
X158131Y48556D02*
X158787Y49212D01*
X160099D01*
X160755Y48556D01*
Y45932D01*
X160099Y45276D01*
X158787D01*
X158131Y45932D01*
X156819Y45276D02*
Y47900D01*
X155507Y49212D01*
X154195Y47900D01*
Y45276D01*
Y47244D01*
X156819D01*
X150260Y48556D02*
X150916Y49212D01*
X152228D01*
X152884Y48556D01*
Y45932D01*
X152228Y45276D01*
X150916D01*
X150260Y45932D01*
Y47244D01*
X151572D01*
X146324Y49212D02*
X148948D01*
Y45276D01*
X146324D01*
X148948Y47244D02*
X147636D01*
X139108Y45276D02*
Y49212D01*
X141076Y47244D01*
X138452D01*
X137141Y49212D02*
Y45276D01*
X134517D01*
X130581Y49212D02*
X133205D01*
Y45276D01*
X130581D01*
X133205Y47244D02*
X131893D01*
X126645Y49212D02*
X127957D01*
X127301D01*
Y45932D01*
X127957Y45276D01*
X128613D01*
X129269Y45932D01*
X125333Y48556D02*
X124677Y49212D01*
X123365D01*
X122710Y48556D01*
Y47900D01*
X123365Y47244D01*
X122710Y46588D01*
Y45932D01*
X123365Y45276D01*
X124677D01*
X125333Y45932D01*
Y46588D01*
X124677Y47244D01*
X125333Y47900D01*
Y48556D01*
X124677Y47244D02*
X123365D01*
D41*
X139650Y-129921D02*
D03*
X142550Y129921D02*
D03*
D42*
X192200Y-129921D02*
D03*
X90000Y129921D02*
D03*
D43*
X238090Y-43307D02*
D03*
X44109D02*
D03*
X44110Y43307D02*
D03*
X238091D02*
D03*
M02*
