G04*
G04 #@! TF.GenerationSoftware,Altium Limited,Altium Designer,20.0.10 (225)*
G04*
G04 Layer_Color=8421504*
%FSLAX25Y25*%
%MOIN*%
G70*
G01*
G75*
%ADD16R,0.05512X0.04331*%
%ADD17R,0.05512X0.04331*%
%ADD18R,0.05512X0.04331*%
%ADD19R,0.05512X0.04331*%
%ADD20R,0.04331X0.05512*%
%ADD21R,0.04331X0.05512*%
%ADD22R,0.05512X0.04331*%
%ADD23R,0.05512X0.04331*%
%ADD24R,0.05512X0.04331*%
%ADD25R,0.05512X0.04331*%
%ADD26R,0.04134X0.05315*%
G36*
X128328Y237279D02*
X128547Y237261D01*
X128656D01*
X128747Y237242D01*
X128947Y237224D01*
X129184Y237188D01*
X129239D01*
X129312Y237170D01*
X129385D01*
X129585Y237133D01*
X129822Y237097D01*
X129877D01*
X129949Y237078D01*
X130022Y237060D01*
X130223Y237024D01*
X130423Y236987D01*
Y235676D01*
X130387D01*
X130314Y235712D01*
X130186Y235730D01*
X130022Y235767D01*
X129840Y235803D01*
X129622Y235858D01*
X129148Y235930D01*
X129130D01*
X129039Y235949D01*
X128929Y235967D01*
X128765Y235985D01*
X128583Y236003D01*
X128364Y236022D01*
X127927Y236040D01*
X127727D01*
X127508Y236022D01*
X127235Y235985D01*
X126925Y235930D01*
X126615Y235858D01*
X126342Y235748D01*
X126087Y235603D01*
X126069Y235584D01*
X125996Y235530D01*
X125905Y235439D01*
X125795Y235311D01*
X125686Y235147D01*
X125595Y234947D01*
X125522Y234728D01*
X125504Y234473D01*
Y234455D01*
Y234400D01*
X125522Y234327D01*
X125540Y234218D01*
X125613Y233981D01*
X125668Y233854D01*
X125741Y233726D01*
X125759Y233708D01*
X125777Y233671D01*
X125832Y233617D01*
X125905Y233544D01*
X126105Y233362D01*
X126360Y233161D01*
X126378Y233143D01*
X126433Y233125D01*
X126506Y233070D01*
X126634Y233015D01*
X126761Y232943D01*
X126907Y232870D01*
X127271Y232724D01*
X127289D01*
X127362Y232687D01*
X127453Y232651D01*
X127599Y232596D01*
X127745Y232542D01*
X127909Y232469D01*
X128291Y232305D01*
X128310D01*
X128383Y232268D01*
X128492Y232232D01*
X128620Y232177D01*
X128784Y232104D01*
X128947Y232031D01*
X129330Y231849D01*
X129348Y231831D01*
X129421Y231813D01*
X129512Y231758D01*
X129640Y231685D01*
X129931Y231485D01*
X130223Y231248D01*
X130241Y231230D01*
X130296Y231193D01*
X130369Y231120D01*
X130460Y231011D01*
X130551Y230902D01*
X130660Y230756D01*
X130860Y230428D01*
X130879Y230410D01*
X130897Y230337D01*
X130933Y230246D01*
X130988Y230118D01*
X131043Y229954D01*
X131079Y229754D01*
X131097Y229554D01*
X131116Y229317D01*
Y229280D01*
Y229189D01*
X131097Y229043D01*
X131079Y228861D01*
X131043Y228661D01*
X130970Y228424D01*
X130897Y228187D01*
X130788Y227968D01*
X130770Y227950D01*
X130733Y227877D01*
X130660Y227768D01*
X130569Y227640D01*
X130441Y227495D01*
X130296Y227331D01*
X130113Y227167D01*
X129913Y227021D01*
X129895Y227003D01*
X129822Y226966D01*
X129694Y226893D01*
X129549Y226802D01*
X129348Y226711D01*
X129130Y226620D01*
X128875Y226529D01*
X128583Y226456D01*
X128547D01*
X128455Y226420D01*
X128291Y226401D01*
X128073Y226365D01*
X127818Y226329D01*
X127526Y226310D01*
X127198Y226274D01*
X126597D01*
X126451Y226292D01*
X126324D01*
X125996Y226310D01*
X125923D01*
X125850Y226329D01*
X125741D01*
X125486Y226365D01*
X125194Y226401D01*
X125121D01*
X125048Y226420D01*
X124957D01*
X124720Y226456D01*
X124465Y226493D01*
X124447D01*
X124411Y226511D01*
X124338Y226529D01*
X124265Y226547D01*
X124065Y226602D01*
X123846Y226657D01*
Y228060D01*
X123882Y228041D01*
X123955Y228023D01*
X124083Y227987D01*
X124247Y227932D01*
X124447Y227859D01*
X124684Y227804D01*
X124939Y227750D01*
X125212Y227695D01*
X125249D01*
X125340Y227677D01*
X125504Y227659D01*
X125723Y227640D01*
X125978Y227604D01*
X126269Y227586D01*
X126597Y227568D01*
X127217D01*
X127381Y227586D01*
X127563D01*
X127763Y227622D01*
X127964Y227640D01*
X128164Y227677D01*
X128182D01*
X128255Y227695D01*
X128328Y227731D01*
X128455Y227750D01*
X128711Y227859D01*
X128966Y227987D01*
X128984Y228005D01*
X129020Y228023D01*
X129075Y228078D01*
X129148Y228132D01*
X129312Y228296D01*
X129439Y228515D01*
Y228533D01*
X129458Y228570D01*
X129494Y228643D01*
X129512Y228734D01*
X129549Y228843D01*
X129567Y228971D01*
X129585Y229244D01*
Y229262D01*
Y229317D01*
X129567Y229390D01*
X129549Y229499D01*
X129476Y229736D01*
X129421Y229845D01*
X129330Y229973D01*
X129312Y229991D01*
X129294Y230027D01*
X129239Y230082D01*
X129166Y230155D01*
X129075Y230246D01*
X128966Y230337D01*
X128692Y230519D01*
X128674Y230537D01*
X128620Y230556D01*
X128547Y230610D01*
X128437Y230665D01*
X128310Y230738D01*
X128164Y230811D01*
X127800Y230975D01*
X127781Y230993D01*
X127708Y231011D01*
X127617Y231048D01*
X127472Y231102D01*
X127326Y231157D01*
X127144Y231230D01*
X126761Y231376D01*
X126743Y231394D01*
X126670Y231412D01*
X126579Y231467D01*
X126451Y231521D01*
X126287Y231594D01*
X126123Y231667D01*
X125741Y231849D01*
X125723Y231868D01*
X125650Y231904D01*
X125558Y231940D01*
X125431Y232013D01*
X125303Y232104D01*
X125139Y232195D01*
X124830Y232432D01*
X124811Y232451D01*
X124775Y232487D01*
X124702Y232560D01*
X124611Y232669D01*
X124520Y232779D01*
X124411Y232924D01*
X124210Y233234D01*
X124192Y233252D01*
X124174Y233325D01*
X124137Y233416D01*
X124101Y233544D01*
X124046Y233708D01*
X124010Y233890D01*
X123992Y234108D01*
X123973Y234327D01*
Y234345D01*
Y234418D01*
X123992Y234528D01*
X124010Y234673D01*
X124028Y234837D01*
X124065Y235019D01*
X124119Y235220D01*
X124192Y235420D01*
X124210Y235439D01*
X124229Y235511D01*
X124301Y235603D01*
X124374Y235730D01*
X124465Y235876D01*
X124593Y236040D01*
X124739Y236204D01*
X124903Y236368D01*
X124921Y236386D01*
X124994Y236441D01*
X125103Y236514D01*
X125249Y236605D01*
X125413Y236714D01*
X125631Y236823D01*
X125868Y236933D01*
X126142Y237042D01*
X126178Y237060D01*
X126287Y237078D01*
X126433Y237115D01*
X126652Y237170D01*
X126925Y237224D01*
X127235Y237261D01*
X127581Y237279D01*
X127964Y237297D01*
X128146D01*
X128328Y237279D01*
D02*
G37*
G36*
X158537Y226420D02*
X157243D01*
X157188Y227968D01*
Y227950D01*
X157170Y227932D01*
X157079Y227823D01*
X156970Y227677D01*
X156806Y227477D01*
X156605Y227276D01*
X156387Y227057D01*
X156150Y226857D01*
X155895Y226675D01*
X155858Y226657D01*
X155767Y226620D01*
X155640Y226547D01*
X155439Y226474D01*
X155221Y226401D01*
X154966Y226329D01*
X154692Y226292D01*
X154383Y226274D01*
X154273D01*
X154128Y226292D01*
X153963Y226310D01*
X153781Y226347D01*
X153563Y226401D01*
X153362Y226474D01*
X153144Y226566D01*
X153125Y226584D01*
X153052Y226620D01*
X152961Y226693D01*
X152834Y226784D01*
X152688Y226893D01*
X152542Y227039D01*
X152397Y227203D01*
X152251Y227385D01*
X152233Y227404D01*
X152196Y227477D01*
X152123Y227604D01*
X152050Y227750D01*
X151959Y227950D01*
X151868Y228169D01*
X151777Y228406D01*
X151704Y228679D01*
Y228715D01*
X151686Y228806D01*
X151650Y228971D01*
X151631Y229171D01*
X151595Y229426D01*
X151558Y229717D01*
X151540Y230027D01*
Y230355D01*
Y230373D01*
Y230410D01*
Y230465D01*
Y230537D01*
X151558Y230720D01*
X151577Y230975D01*
X151613Y231266D01*
X151650Y231576D01*
X151723Y231904D01*
X151814Y232214D01*
Y232232D01*
X151832Y232250D01*
X151868Y232359D01*
X151941Y232505D01*
X152032Y232687D01*
X152141Y232906D01*
X152287Y233143D01*
X152451Y233380D01*
X152633Y233598D01*
X152652Y233617D01*
X152725Y233689D01*
X152834Y233799D01*
X152998Y233926D01*
X153180Y234054D01*
X153399Y234200D01*
X153636Y234327D01*
X153909Y234455D01*
X153945Y234473D01*
X154036Y234509D01*
X154200Y234546D01*
X154401Y234600D01*
X154638Y234655D01*
X154929Y234710D01*
X155239Y234728D01*
X155567Y234746D01*
X155804D01*
X156059Y234728D01*
X156332Y234692D01*
X156350D01*
X156405Y234673D01*
X156478D01*
X156569Y234655D01*
X156824Y234600D01*
X157097Y234528D01*
Y238008D01*
X158537D01*
Y226420D01*
D02*
G37*
G36*
X211521Y234783D02*
X211703D01*
X212122Y234746D01*
X212140D01*
X212231Y234728D01*
X212340D01*
X212504Y234710D01*
X212687Y234673D01*
X212887Y234655D01*
X213124Y234600D01*
X213361Y234564D01*
Y233289D01*
X213324D01*
X213251Y233325D01*
X213124Y233343D01*
X212942Y233380D01*
X212759Y233416D01*
X212541Y233453D01*
X212085Y233525D01*
X212067D01*
X211976Y233544D01*
X211867Y233562D01*
X211721Y233580D01*
X211557D01*
X211393Y233598D01*
X211029Y233617D01*
X210846D01*
X210719Y233598D01*
X210427Y233580D01*
X210136Y233525D01*
X210118D01*
X210081Y233507D01*
X210008Y233489D01*
X209917Y233471D01*
X209735Y233380D01*
X209535Y233289D01*
X209498Y233270D01*
X209407Y233198D01*
X209316Y233088D01*
X209225Y232961D01*
X209207Y232924D01*
X209188Y232833D01*
X209152Y232706D01*
X209134Y232542D01*
Y232523D01*
Y232505D01*
X209152Y232414D01*
X209170Y232287D01*
X209207Y232141D01*
X209225Y232104D01*
X209279Y232031D01*
X209389Y231922D01*
X209535Y231795D01*
X209553D01*
X209571Y231758D01*
X209626Y231740D01*
X209699Y231685D01*
X209808Y231631D01*
X209917Y231576D01*
X210045Y231521D01*
X210190Y231448D01*
X210209D01*
X210263Y231412D01*
X210354Y231394D01*
X210482Y231339D01*
X210646Y231284D01*
X210828Y231230D01*
X211029Y231175D01*
X211265Y231102D01*
X211302Y231084D01*
X211393Y231066D01*
X211521Y231029D01*
X211703Y230957D01*
X211903Y230902D01*
X212104Y230811D01*
X212304Y230738D01*
X212504Y230647D01*
X212523Y230628D01*
X212596Y230610D01*
X212668Y230556D01*
X212796Y230501D01*
X213051Y230319D01*
X213306Y230118D01*
X213324Y230100D01*
X213361Y230064D01*
X213415Y230009D01*
X213488Y229936D01*
X213634Y229736D01*
X213707Y229608D01*
X213761Y229481D01*
Y229462D01*
X213780Y229426D01*
X213816Y229335D01*
X213834Y229244D01*
X213871Y229116D01*
X213889Y228989D01*
X213907Y228661D01*
Y228643D01*
Y228588D01*
Y228497D01*
X213889Y228406D01*
X213834Y228151D01*
X213743Y227877D01*
Y227859D01*
X213725Y227823D01*
X213689Y227750D01*
X213634Y227677D01*
X213507Y227477D01*
X213342Y227258D01*
X213324Y227240D01*
X213306Y227221D01*
X213251Y227167D01*
X213178Y227112D01*
X212978Y226966D01*
X212741Y226802D01*
X212723D01*
X212687Y226766D01*
X212614Y226748D01*
X212523Y226693D01*
X212304Y226602D01*
X212031Y226511D01*
X212012D01*
X211976Y226493D01*
X211885Y226474D01*
X211794Y226456D01*
X211684Y226420D01*
X211539Y226401D01*
X211247Y226347D01*
X211229D01*
X211174Y226329D01*
X211101D01*
X210992Y226310D01*
X210755Y226292D01*
X210464Y226274D01*
X210154D01*
X209954Y226292D01*
X209717D01*
X209462Y226310D01*
X208915Y226347D01*
X208879D01*
X208806Y226365D01*
X208660Y226383D01*
X208496Y226401D01*
X208277Y226438D01*
X208059Y226474D01*
X207567Y226584D01*
Y227895D01*
X207603D01*
X207694Y227859D01*
X207822Y227823D01*
X208004Y227768D01*
X208223Y227713D01*
X208459Y227659D01*
X208988Y227568D01*
X209024D01*
X209116Y227549D01*
X209243Y227531D01*
X209425D01*
X209644Y227513D01*
X209881Y227495D01*
X210409Y227477D01*
X210573D01*
X210755Y227495D01*
X210974Y227513D01*
X211229Y227549D01*
X211484Y227586D01*
X211721Y227659D01*
X211921Y227750D01*
X211940Y227768D01*
X211994Y227804D01*
X212085Y227859D01*
X212176Y227950D01*
X212267Y228060D01*
X212359Y228205D01*
X212413Y228369D01*
X212432Y228552D01*
Y228570D01*
Y228588D01*
X212413Y228679D01*
X212395Y228806D01*
X212340Y228934D01*
X212322Y228971D01*
X212286Y229043D01*
X212195Y229153D01*
X212049Y229280D01*
X212012Y229317D01*
X211958Y229335D01*
X211903Y229390D01*
X211812Y229426D01*
X211703Y229481D01*
X211557Y229554D01*
X211411Y229608D01*
X211393D01*
X211338Y229645D01*
X211247Y229681D01*
X211101Y229736D01*
X210937Y229790D01*
X210737Y229863D01*
X210518Y229936D01*
X210245Y230009D01*
X210227D01*
X210154Y230046D01*
X210045Y230064D01*
X209917Y230118D01*
X209753Y230173D01*
X209589Y230228D01*
X209225Y230374D01*
X209207Y230392D01*
X209152Y230410D01*
X209061Y230465D01*
X208951Y230519D01*
X208678Y230665D01*
X208405Y230865D01*
X208387Y230884D01*
X208350Y230920D01*
X208277Y230975D01*
X208204Y231066D01*
X208022Y231266D01*
X207858Y231540D01*
Y231558D01*
X207822Y231612D01*
X207804Y231685D01*
X207767Y231795D01*
X207731Y231922D01*
X207713Y232086D01*
X207676Y232268D01*
Y232451D01*
Y232469D01*
Y232505D01*
Y232578D01*
X207694Y232669D01*
X207713Y232779D01*
X207731Y232906D01*
X207822Y233198D01*
Y233216D01*
X207858Y233270D01*
X207895Y233343D01*
X207949Y233453D01*
X208022Y233562D01*
X208113Y233689D01*
X208241Y233835D01*
X208368Y233963D01*
X208387Y233981D01*
X208441Y234017D01*
X208532Y234090D01*
X208642Y234181D01*
X208787Y234273D01*
X208970Y234364D01*
X209170Y234473D01*
X209407Y234564D01*
X209443Y234582D01*
X209535Y234600D01*
X209662Y234637D01*
X209862Y234692D01*
X210099Y234728D01*
X210373Y234765D01*
X210701Y234783D01*
X211047Y234801D01*
X211375D01*
X211521Y234783D01*
D02*
G37*
G36*
X110199Y234783D02*
X110363Y234764D01*
X110564Y234728D01*
X110764Y234673D01*
X110983Y234600D01*
X111183Y234491D01*
X111201Y234473D01*
X111274Y234436D01*
X111365Y234364D01*
X111493Y234273D01*
X111638Y234163D01*
X111784Y234017D01*
X111930Y233854D01*
X112076Y233653D01*
X112094Y233635D01*
X112130Y233562D01*
X112203Y233453D01*
X112276Y233289D01*
X112367Y233106D01*
X112458Y232888D01*
X112549Y232633D01*
X112622Y232359D01*
Y232323D01*
X112659Y232232D01*
X112677Y232068D01*
X112713Y231868D01*
X112750Y231631D01*
X112768Y231339D01*
X112804Y231029D01*
Y230683D01*
Y230665D01*
Y230628D01*
Y230574D01*
Y230501D01*
X112786Y230282D01*
X112768Y230027D01*
X112732Y229717D01*
X112677Y229408D01*
X112604Y229080D01*
X112495Y228752D01*
X112477Y228715D01*
X112440Y228624D01*
X112367Y228479D01*
X112276Y228278D01*
X112149Y228078D01*
X112003Y227841D01*
X111839Y227622D01*
X111638Y227404D01*
X111620Y227385D01*
X111547Y227312D01*
X111420Y227221D01*
X111274Y227094D01*
X111092Y226966D01*
X110855Y226820D01*
X110618Y226693D01*
X110345Y226584D01*
X110308Y226566D01*
X110217Y226547D01*
X110072Y226511D01*
X109871Y226456D01*
X109634Y226401D01*
X109361Y226365D01*
X109069Y226347D01*
X108760Y226329D01*
X108505D01*
X108268Y226347D01*
X107976Y226383D01*
X107903D01*
X107831Y226401D01*
X107739Y226420D01*
X107612D01*
X107484Y226438D01*
X107193Y226493D01*
Y223049D01*
X105772D01*
Y234655D01*
X107029D01*
X107120Y233270D01*
Y233289D01*
X107156Y233307D01*
X107229Y233416D01*
X107357Y233562D01*
X107521Y233726D01*
X107721Y233926D01*
X107940Y234127D01*
X108177Y234309D01*
X108432Y234455D01*
X108468Y234473D01*
X108559Y234509D01*
X108687Y234564D01*
X108887Y234637D01*
X109106Y234692D01*
X109361Y234746D01*
X109652Y234783D01*
X109944Y234801D01*
X110072D01*
X110199Y234783D01*
D02*
G37*
G36*
X175190Y234783D02*
X175281D01*
X175408Y234765D01*
X175700Y234692D01*
X176010Y234600D01*
X176320Y234455D01*
X176629Y234236D01*
X176775Y234109D01*
X176902Y233963D01*
X176939Y233926D01*
X176957Y233872D01*
X177012Y233817D01*
X177048Y233726D01*
X177103Y233617D01*
X177176Y233489D01*
X177230Y233343D01*
X177285Y233179D01*
X177340Y233015D01*
X177394Y232815D01*
X177449Y232596D01*
X177486Y232341D01*
X177504Y232086D01*
X177522Y231813D01*
Y231521D01*
X176083D01*
Y231540D01*
Y231576D01*
Y231631D01*
Y231703D01*
X176064Y231886D01*
X176046Y232104D01*
X176010Y232359D01*
X175955Y232614D01*
X175864Y232870D01*
X175755Y233070D01*
X175736Y233088D01*
X175700Y233143D01*
X175609Y233234D01*
X175499Y233325D01*
X175354Y233398D01*
X175190Y233489D01*
X174989Y233544D01*
X174752Y233562D01*
X174643D01*
X174589Y233544D01*
X174406Y233525D01*
X174188Y233453D01*
X174170D01*
X174133Y233434D01*
X174078Y233416D01*
X174005Y233380D01*
X173805Y233270D01*
X173586Y233125D01*
X173568Y233106D01*
X173532Y233088D01*
X173477Y233034D01*
X173386Y232979D01*
X173186Y232779D01*
X172931Y232542D01*
X172912Y232523D01*
X172876Y232487D01*
X172803Y232414D01*
X172712Y232305D01*
X172603Y232177D01*
X172475Y232050D01*
X172347Y231886D01*
X172202Y231703D01*
Y226420D01*
X170762D01*
Y234655D01*
X172056D01*
X172092Y233125D01*
Y233143D01*
X172129Y233161D01*
X172220Y233270D01*
X172366Y233416D01*
X172548Y233617D01*
X172767Y233817D01*
X173003Y234036D01*
X173258Y234236D01*
X173532Y234400D01*
X173568Y234418D01*
X173659Y234455D01*
X173787Y234528D01*
X173987Y234600D01*
X174188Y234673D01*
X174443Y234746D01*
X174698Y234783D01*
X174971Y234801D01*
X175099D01*
X175190Y234783D01*
D02*
G37*
G36*
X201955D02*
X202155Y234765D01*
X202392Y234728D01*
X202848Y234637D01*
X202866D01*
X202957Y234600D01*
X203066Y234564D01*
X203194Y234509D01*
X203358Y234436D01*
X203522Y234345D01*
X203686Y234254D01*
X203850Y234127D01*
X203868Y234109D01*
X203923Y234072D01*
X203996Y233999D01*
X204087Y233908D01*
X204196Y233781D01*
X204305Y233635D01*
X204397Y233471D01*
X204488Y233289D01*
X204506Y233270D01*
X204524Y233198D01*
X204560Y233088D01*
X204615Y232943D01*
X204651Y232779D01*
X204688Y232560D01*
X204706Y232341D01*
X204724Y232086D01*
Y226420D01*
X203431D01*
X203394Y227513D01*
X203358Y227477D01*
X203285Y227404D01*
X203139Y227294D01*
X202975Y227149D01*
X202757Y227003D01*
X202538Y226839D01*
X202283Y226693D01*
X202028Y226566D01*
X201991Y226547D01*
X201900Y226529D01*
X201773Y226474D01*
X201591Y226420D01*
X201372Y226365D01*
X201117Y226329D01*
X200862Y226292D01*
X200570Y226274D01*
X200461D01*
X200333Y226292D01*
X200169D01*
X199969Y226310D01*
X199769Y226347D01*
X199368Y226438D01*
X199349D01*
X199295Y226474D01*
X199204Y226511D01*
X199076Y226566D01*
X198821Y226729D01*
X198548Y226930D01*
X198530Y226948D01*
X198493Y226985D01*
X198439Y227057D01*
X198366Y227149D01*
X198293Y227258D01*
X198202Y227385D01*
X198074Y227677D01*
Y227695D01*
X198056Y227750D01*
X198038Y227841D01*
X198001Y227950D01*
X197983Y228096D01*
X197947Y228260D01*
X197928Y228606D01*
Y228624D01*
Y228661D01*
Y228734D01*
X197947Y228806D01*
X197965Y228916D01*
X197983Y229043D01*
X198038Y229317D01*
X198147Y229626D01*
X198311Y229954D01*
X198420Y230118D01*
X198548Y230264D01*
X198675Y230410D01*
X198839Y230556D01*
X198858D01*
X198876Y230592D01*
X198931Y230628D01*
X199022Y230665D01*
X199113Y230720D01*
X199222Y230774D01*
X199368Y230847D01*
X199532Y230920D01*
X199714Y230975D01*
X199914Y231048D01*
X200133Y231102D01*
X200388Y231157D01*
X200643Y231193D01*
X200935Y231230D01*
X201244Y231266D01*
X203285D01*
Y231977D01*
Y232013D01*
Y232104D01*
X203267Y232232D01*
X203230Y232396D01*
X203176Y232578D01*
X203085Y232779D01*
X202975Y232961D01*
X202811Y233143D01*
X202793Y233161D01*
X202720Y233216D01*
X202611Y233289D01*
X202465Y233362D01*
X202265Y233434D01*
X202010Y233507D01*
X201718Y233562D01*
X201390Y233580D01*
X201135D01*
X200953Y233562D01*
X200734Y233544D01*
X200516Y233507D01*
X200005Y233416D01*
X199969D01*
X199896Y233380D01*
X199750Y233343D01*
X199586Y233307D01*
X199368Y233234D01*
X199131Y233161D01*
X198876Y233070D01*
X198621Y232979D01*
Y234273D01*
X198639D01*
X198675Y234291D01*
X198712Y234309D01*
X198785Y234327D01*
X198967Y234382D01*
X199204Y234455D01*
X199222D01*
X199258Y234473D01*
X199331Y234491D01*
X199422Y234509D01*
X199659Y234564D01*
X199914Y234619D01*
X199933D01*
X199987Y234637D01*
X200060Y234655D01*
X200151Y234673D01*
X200260Y234692D01*
X200388Y234710D01*
X200680Y234746D01*
X200698D01*
X200752Y234765D01*
X200825D01*
X200935Y234783D01*
X201062D01*
X201190Y234801D01*
X201773D01*
X201955Y234783D01*
D02*
G37*
G36*
X192390Y237115D02*
X192626Y237097D01*
X192881Y237060D01*
X193428Y236951D01*
X193465D01*
X193556Y236914D01*
X193683Y236878D01*
X193865Y236805D01*
X194066Y236732D01*
X194266Y236623D01*
X194485Y236514D01*
X194703Y236368D01*
X194722Y236350D01*
X194794Y236295D01*
X194904Y236222D01*
X195031Y236094D01*
X195177Y235949D01*
X195323Y235785D01*
X195469Y235584D01*
X195596Y235366D01*
X195614Y235329D01*
X195651Y235256D01*
X195705Y235129D01*
X195760Y234947D01*
X195815Y234728D01*
X195870Y234473D01*
X195906Y234181D01*
X195924Y233854D01*
Y233817D01*
Y233744D01*
X195906Y233617D01*
X195888Y233453D01*
X195870Y233252D01*
X195815Y233015D01*
X195760Y232779D01*
X195669Y232542D01*
X195651Y232505D01*
X195633Y232432D01*
X195560Y232305D01*
X195487Y232159D01*
X195378Y231977D01*
X195250Y231795D01*
X195086Y231594D01*
X194904Y231394D01*
X194886Y231376D01*
X194813Y231303D01*
X194703Y231212D01*
X194558Y231102D01*
X194357Y230975D01*
X194139Y230829D01*
X193884Y230701D01*
X193592Y230574D01*
X193556Y230556D01*
X193446Y230519D01*
X193282Y230483D01*
X193045Y230428D01*
X192772Y230355D01*
X192444Y230319D01*
X192061Y230282D01*
X191661Y230264D01*
X190349D01*
Y226420D01*
X188891D01*
Y237133D01*
X192189D01*
X192390Y237115D01*
D02*
G37*
G36*
X146949Y227604D02*
X149408D01*
Y226420D01*
X142813D01*
Y227604D01*
X145509D01*
Y236842D01*
X143086D01*
Y238008D01*
X146949D01*
Y227604D01*
D02*
G37*
G36*
X94512Y235894D02*
X91341D01*
Y226420D01*
X89865D01*
Y235894D01*
X86695D01*
Y237133D01*
X94512D01*
Y235894D01*
D02*
G37*
G36*
X219537Y234655D02*
X223254D01*
Y233453D01*
X219537D01*
Y229262D01*
Y229244D01*
Y229226D01*
Y229116D01*
X219555Y228971D01*
X219592Y228770D01*
X219647Y228552D01*
X219738Y228333D01*
X219847Y228132D01*
X220011Y227950D01*
X220029Y227932D01*
X220102Y227877D01*
X220211Y227804D01*
X220357Y227732D01*
X220558Y227659D01*
X220795Y227586D01*
X221068Y227531D01*
X221396Y227513D01*
X221651D01*
X221778Y227531D01*
X221942D01*
X222270Y227568D01*
X222288D01*
X222361Y227586D01*
X222452D01*
X222580Y227622D01*
X222726Y227641D01*
X222890Y227677D01*
X223254Y227768D01*
Y226529D01*
X223236D01*
X223163Y226511D01*
X223072Y226493D01*
X222944Y226474D01*
X222780Y226438D01*
X222617Y226420D01*
X222234Y226365D01*
X222143D01*
X222052Y226347D01*
X221906D01*
X221760Y226329D01*
X221578D01*
X221195Y226310D01*
X221049D01*
X220940Y226329D01*
X220813D01*
X220667Y226347D01*
X220321Y226401D01*
X219956Y226474D01*
X219574Y226602D01*
X219209Y226766D01*
X219027Y226875D01*
X218881Y227003D01*
X218845Y227039D01*
X218754Y227130D01*
X218644Y227294D01*
X218499Y227531D01*
X218353Y227841D01*
X218244Y228205D01*
X218153Y228643D01*
X218116Y229153D01*
Y233453D01*
X215820D01*
Y234655D01*
X218116D01*
Y236914D01*
X219537Y237297D01*
Y234655D01*
D02*
G37*
G36*
X229558Y234783D02*
X229759Y234765D01*
X229996Y234728D01*
X230251Y234692D01*
X230506Y234619D01*
X230761Y234528D01*
X230797Y234509D01*
X230870Y234473D01*
X230998Y234418D01*
X231162Y234327D01*
X231326Y234218D01*
X231526Y234090D01*
X231708Y233926D01*
X231891Y233744D01*
X231909Y233726D01*
X231963Y233653D01*
X232054Y233544D01*
X232146Y233416D01*
X232255Y233234D01*
X232382Y233034D01*
X232492Y232797D01*
X232583Y232542D01*
X232601Y232505D01*
X232619Y232414D01*
X232656Y232268D01*
X232710Y232086D01*
X232747Y231849D01*
X232783Y231594D01*
X232802Y231303D01*
X232820Y230975D01*
Y230957D01*
Y230920D01*
Y230865D01*
Y230792D01*
Y230628D01*
X232802Y230446D01*
Y230410D01*
Y230319D01*
Y230209D01*
X232783Y230082D01*
X227008Y230082D01*
Y230064D01*
Y230027D01*
Y229954D01*
X227026Y229882D01*
Y229772D01*
X227044Y229645D01*
X227099Y229353D01*
X227171Y229043D01*
X227299Y228715D01*
X227463Y228406D01*
X227700Y228132D01*
X227736Y228096D01*
X227827Y228023D01*
X227991Y227914D01*
X228228Y227804D01*
X228520Y227677D01*
X228866Y227568D01*
X229267Y227495D01*
X229741Y227458D01*
X230196D01*
X230451Y227477D01*
X230506D01*
X230579Y227495D01*
X230670D01*
X230907Y227531D01*
X231143Y227549D01*
X231162D01*
X231198Y227568D01*
X231271D01*
X231362Y227586D01*
X231562Y227622D01*
X231799Y227659D01*
X231818D01*
X231854Y227677D01*
X231909Y227695D01*
X231982Y227713D01*
X232182Y227750D01*
X232382Y227804D01*
Y226638D01*
X232364D01*
X232273Y226620D01*
X232164Y226584D01*
X232000Y226547D01*
X231799Y226511D01*
X231581Y226456D01*
X231326Y226420D01*
X231052Y226383D01*
X231016D01*
X230925Y226365D01*
X230779Y226347D01*
X230597Y226329D01*
X230360Y226310D01*
X230105Y226292D01*
X229832Y226274D01*
X229358Y226274D01*
X229157Y226292D01*
X228921Y226310D01*
X228629Y226347D01*
X228319Y226383D01*
X228010Y226456D01*
X227718Y226547D01*
X227682Y226566D01*
X227590Y226602D01*
X227445Y226675D01*
X227281Y226766D01*
X227080Y226875D01*
X226862Y227021D01*
X226661Y227185D01*
X226461Y227385D01*
X226443Y227404D01*
X226388Y227477D01*
X226297Y227604D01*
X226188Y227750D01*
X226060Y227950D01*
X225951Y228169D01*
X225823Y228442D01*
X225732Y228715D01*
Y228734D01*
Y228752D01*
X225696Y228861D01*
X225659Y229025D01*
X225623Y229244D01*
X225586Y229517D01*
X225550Y229809D01*
X225532Y230155D01*
X225514Y230519D01*
Y230537D01*
Y230556D01*
Y230665D01*
X225532Y230829D01*
X225550Y231048D01*
X225568Y231284D01*
X225623Y231558D01*
X225677Y231849D01*
X225750Y232141D01*
Y232159D01*
X225768Y232177D01*
X225805Y232268D01*
X225860Y232414D01*
X225933Y232614D01*
X226042Y232815D01*
X226169Y233052D01*
X226315Y233289D01*
X226479Y233507D01*
X226497Y233525D01*
X226570Y233598D01*
X226679Y233708D01*
X226807Y233854D01*
X226989Y233999D01*
X227190Y234163D01*
X227408Y234309D01*
X227663Y234455D01*
X227700Y234473D01*
X227791Y234509D01*
X227937Y234564D01*
X228119Y234637D01*
X228356Y234692D01*
X228629Y234746D01*
X228921Y234783D01*
X229248Y234801D01*
X229394D01*
X229558Y234783D01*
D02*
G37*
G36*
X164895Y234783D02*
X165096Y234765D01*
X165333Y234728D01*
X165588Y234692D01*
X165843Y234619D01*
X166098Y234528D01*
X166135Y234509D01*
X166207Y234473D01*
X166335Y234418D01*
X166499Y234327D01*
X166663Y234218D01*
X166863Y234090D01*
X167045Y233926D01*
X167228Y233744D01*
X167246Y233726D01*
X167300Y233653D01*
X167392Y233544D01*
X167483Y233416D01*
X167592Y233234D01*
X167720Y233034D01*
X167829Y232797D01*
X167920Y232542D01*
X167938Y232505D01*
X167956Y232414D01*
X167993Y232268D01*
X168048Y232086D01*
X168084Y231849D01*
X168121Y231594D01*
X168139Y231303D01*
X168157Y230975D01*
Y230957D01*
Y230920D01*
Y230865D01*
Y230792D01*
Y230628D01*
X168139Y230446D01*
Y230410D01*
Y230319D01*
Y230209D01*
X168121Y230082D01*
X162345D01*
Y230064D01*
Y230027D01*
Y229954D01*
X162363Y229882D01*
Y229772D01*
X162381Y229645D01*
X162436Y229353D01*
X162509Y229043D01*
X162636Y228715D01*
X162800Y228406D01*
X163037Y228132D01*
X163074Y228096D01*
X163165Y228023D01*
X163329Y227914D01*
X163566Y227804D01*
X163857Y227677D01*
X164203Y227568D01*
X164604Y227495D01*
X165078Y227458D01*
X165533D01*
X165788Y227477D01*
X165843D01*
X165916Y227495D01*
X166007D01*
X166244Y227531D01*
X166481Y227549D01*
X166499D01*
X166535Y227568D01*
X166608D01*
X166699Y227586D01*
X166900Y227622D01*
X167137Y227659D01*
X167155D01*
X167191Y227677D01*
X167246Y227695D01*
X167319Y227713D01*
X167519Y227750D01*
X167720Y227804D01*
Y226638D01*
X167701D01*
X167610Y226620D01*
X167501Y226584D01*
X167337Y226547D01*
X167137Y226511D01*
X166918Y226456D01*
X166663Y226420D01*
X166390Y226383D01*
X166353D01*
X166262Y226365D01*
X166116Y226347D01*
X165934Y226329D01*
X165697Y226310D01*
X165442Y226292D01*
X165169Y226274D01*
X164695D01*
X164495Y226292D01*
X164258Y226310D01*
X163966Y226347D01*
X163656Y226383D01*
X163347Y226456D01*
X163055Y226547D01*
X163019Y226566D01*
X162928Y226602D01*
X162782Y226675D01*
X162618Y226766D01*
X162418Y226875D01*
X162199Y227021D01*
X161998Y227185D01*
X161798Y227385D01*
X161780Y227404D01*
X161725Y227477D01*
X161634Y227604D01*
X161525Y227750D01*
X161397Y227950D01*
X161288Y228169D01*
X161160Y228442D01*
X161069Y228715D01*
Y228734D01*
Y228752D01*
X161033Y228861D01*
X160996Y229025D01*
X160960Y229244D01*
X160924Y229517D01*
X160887Y229809D01*
X160869Y230155D01*
X160851Y230519D01*
Y230537D01*
Y230556D01*
Y230665D01*
X160869Y230829D01*
X160887Y231048D01*
X160905Y231284D01*
X160960Y231558D01*
X161015Y231849D01*
X161088Y232141D01*
Y232159D01*
X161106Y232177D01*
X161142Y232268D01*
X161197Y232414D01*
X161270Y232614D01*
X161379Y232815D01*
X161507Y233052D01*
X161652Y233289D01*
X161816Y233507D01*
X161835Y233525D01*
X161907Y233598D01*
X162017Y233708D01*
X162144Y233854D01*
X162327Y233999D01*
X162527Y234163D01*
X162746Y234309D01*
X163001Y234455D01*
X163037Y234473D01*
X163128Y234509D01*
X163274Y234564D01*
X163456Y234637D01*
X163693Y234692D01*
X163966Y234746D01*
X164258Y234783D01*
X164586Y234801D01*
X164732D01*
X164895Y234783D01*
D02*
G37*
G36*
X137183D02*
X137383Y234765D01*
X137638Y234728D01*
X137893Y234673D01*
X138167Y234600D01*
X138440Y234509D01*
X138477Y234491D01*
X138568Y234455D01*
X138695Y234400D01*
X138859Y234309D01*
X139041Y234200D01*
X139242Y234054D01*
X139442Y233890D01*
X139624Y233708D01*
X139643Y233689D01*
X139697Y233617D01*
X139788Y233507D01*
X139898Y233343D01*
X140025Y233161D01*
X140153Y232924D01*
X140262Y232669D01*
X140371Y232396D01*
X140390Y232359D01*
X140408Y232250D01*
X140463Y232086D01*
X140517Y231886D01*
X140554Y231612D01*
X140608Y231303D01*
X140627Y230957D01*
X140645Y230592D01*
Y230574D01*
Y230556D01*
Y230501D01*
Y230428D01*
X140627Y230246D01*
X140608Y230009D01*
X140572Y229736D01*
X140535Y229444D01*
X140463Y229134D01*
X140371Y228825D01*
X140353Y228788D01*
X140317Y228697D01*
X140262Y228551D01*
X140171Y228369D01*
X140062Y228151D01*
X139934Y227914D01*
X139770Y227677D01*
X139588Y227458D01*
X139570Y227440D01*
X139497Y227367D01*
X139388Y227258D01*
X139242Y227130D01*
X139059Y227003D01*
X138859Y226857D01*
X138604Y226711D01*
X138349Y226584D01*
X138312Y226566D01*
X138221Y226529D01*
X138076Y226493D01*
X137875Y226438D01*
X137620Y226365D01*
X137347Y226329D01*
X137037Y226292D01*
X136691Y226274D01*
X136545D01*
X136363Y226292D01*
X136163Y226310D01*
X135907Y226347D01*
X135634Y226383D01*
X135361Y226456D01*
X135088Y226547D01*
X135051Y226566D01*
X134978Y226602D01*
X134851Y226657D01*
X134687Y226748D01*
X134486Y226857D01*
X134304Y227003D01*
X134104Y227167D01*
X133903Y227349D01*
X133885Y227367D01*
X133830Y227440D01*
X133739Y227549D01*
X133630Y227713D01*
X133521Y227895D01*
X133393Y228132D01*
X133284Y228387D01*
X133175Y228661D01*
Y228679D01*
X133156Y228697D01*
X133138Y228806D01*
X133102Y228971D01*
X133047Y229189D01*
X132992Y229462D01*
X132956Y229772D01*
X132938Y230118D01*
X132919Y230483D01*
Y230501D01*
Y230519D01*
Y230574D01*
Y230647D01*
X132938Y230829D01*
X132956Y231048D01*
X132974Y231321D01*
X133029Y231612D01*
X133083Y231922D01*
X133175Y232214D01*
Y232232D01*
X133193Y232250D01*
X133229Y232341D01*
X133284Y232505D01*
X133375Y232687D01*
X133484Y232906D01*
X133630Y233125D01*
X133776Y233362D01*
X133958Y233580D01*
X133976Y233598D01*
X134049Y233671D01*
X134158Y233781D01*
X134304Y233908D01*
X134486Y234054D01*
X134705Y234200D01*
X134942Y234345D01*
X135197Y234473D01*
X135233Y234491D01*
X135325Y234528D01*
X135470Y234582D01*
X135671Y234637D01*
X135926Y234692D01*
X136199Y234746D01*
X136509Y234783D01*
X136855Y234801D01*
X137001D01*
X137183Y234783D01*
D02*
G37*
G36*
X100233Y234783D02*
X100433Y234764D01*
X100688Y234728D01*
X100943Y234673D01*
X101217Y234600D01*
X101490Y234509D01*
X101526Y234491D01*
X101617Y234455D01*
X101745Y234400D01*
X101909Y234309D01*
X102091Y234200D01*
X102292Y234054D01*
X102492Y233890D01*
X102674Y233708D01*
X102692Y233689D01*
X102747Y233617D01*
X102838Y233507D01*
X102947Y233343D01*
X103075Y233161D01*
X103203Y232924D01*
X103312Y232669D01*
X103421Y232396D01*
X103439Y232359D01*
X103458Y232250D01*
X103512Y232086D01*
X103567Y231886D01*
X103603Y231612D01*
X103658Y231303D01*
X103676Y230957D01*
X103694Y230592D01*
Y230574D01*
Y230556D01*
Y230501D01*
Y230428D01*
X103676Y230246D01*
X103658Y230009D01*
X103622Y229736D01*
X103585Y229444D01*
X103512Y229134D01*
X103421Y228825D01*
X103403Y228788D01*
X103367Y228697D01*
X103312Y228551D01*
X103221Y228369D01*
X103112Y228151D01*
X102984Y227914D01*
X102820Y227677D01*
X102638Y227458D01*
X102620Y227440D01*
X102547Y227367D01*
X102437Y227258D01*
X102292Y227130D01*
X102109Y227003D01*
X101909Y226857D01*
X101654Y226711D01*
X101399Y226584D01*
X101362Y226566D01*
X101271Y226529D01*
X101126Y226493D01*
X100925Y226438D01*
X100670Y226365D01*
X100397Y226329D01*
X100087Y226292D01*
X99741Y226274D01*
X99595D01*
X99413Y226292D01*
X99212Y226310D01*
X98957Y226347D01*
X98684Y226383D01*
X98411Y226456D01*
X98137Y226547D01*
X98101Y226566D01*
X98028Y226602D01*
X97901Y226657D01*
X97737Y226748D01*
X97536Y226857D01*
X97354Y227003D01*
X97154Y227167D01*
X96953Y227349D01*
X96935Y227367D01*
X96880Y227440D01*
X96789Y227549D01*
X96680Y227713D01*
X96570Y227895D01*
X96443Y228132D01*
X96334Y228387D01*
X96224Y228661D01*
Y228679D01*
X96206Y228697D01*
X96188Y228806D01*
X96151Y228971D01*
X96097Y229189D01*
X96042Y229462D01*
X96006Y229772D01*
X95987Y230118D01*
X95969Y230483D01*
Y230501D01*
Y230519D01*
Y230574D01*
Y230647D01*
X95987Y230829D01*
X96006Y231048D01*
X96024Y231321D01*
X96079Y231612D01*
X96133Y231922D01*
X96224Y232214D01*
Y232232D01*
X96243Y232250D01*
X96279Y232341D01*
X96334Y232505D01*
X96425Y232687D01*
X96534Y232906D01*
X96680Y233125D01*
X96826Y233362D01*
X97008Y233580D01*
X97026Y233598D01*
X97099Y233671D01*
X97208Y233781D01*
X97354Y233908D01*
X97536Y234054D01*
X97755Y234200D01*
X97992Y234345D01*
X98247Y234473D01*
X98283Y234491D01*
X98374Y234528D01*
X98520Y234582D01*
X98721Y234637D01*
X98975Y234692D01*
X99249Y234746D01*
X99559Y234783D01*
X99905Y234801D01*
X100050D01*
X100233Y234783D01*
D02*
G37*
%LPC*%
G36*
X155457Y233562D02*
X155348D01*
X155257Y233544D01*
X155057Y233525D01*
X154802Y233471D01*
X154492Y233380D01*
X154200Y233234D01*
X153909Y233052D01*
X153636Y232797D01*
X153617Y232760D01*
X153544Y232651D01*
X153490Y232578D01*
X153435Y232469D01*
X153381Y232359D01*
X153326Y232232D01*
X153253Y232068D01*
X153198Y231904D01*
X153144Y231703D01*
X153107Y231485D01*
X153052Y231266D01*
X153034Y231011D01*
X152998Y230738D01*
Y230446D01*
Y230428D01*
Y230373D01*
Y230301D01*
Y230209D01*
X153016Y230082D01*
Y229936D01*
X153052Y229608D01*
X153107Y229244D01*
X153180Y228879D01*
X153289Y228533D01*
X153435Y228223D01*
X153453Y228187D01*
X153508Y228114D01*
X153617Y227987D01*
X153763Y227859D01*
X153927Y227731D01*
X154146Y227604D01*
X154383Y227531D01*
X154674Y227495D01*
X154765D01*
X154875Y227513D01*
X155020Y227549D01*
X155202Y227604D01*
X155385Y227695D01*
X155603Y227804D01*
X155822Y227968D01*
X155858Y227987D01*
X155931Y228060D01*
X156041Y228169D01*
X156205Y228333D01*
X156405Y228533D01*
X156605Y228788D01*
X156842Y229080D01*
X157097Y229408D01*
Y233216D01*
X157079D01*
X157043Y233252D01*
X156952Y233270D01*
X156860Y233307D01*
X156751Y233343D01*
X156605Y233398D01*
X156296Y233471D01*
X156277D01*
X156223Y233489D01*
X156150Y233507D01*
X156041Y233525D01*
X155913D01*
X155767Y233544D01*
X155457Y233562D01*
D02*
G37*
G36*
X109817Y233562D02*
X109543D01*
X109488Y233544D01*
X109306Y233525D01*
X109106Y233471D01*
X109088D01*
X109051Y233453D01*
X108997Y233434D01*
X108924Y233398D01*
X108741Y233307D01*
X108523Y233179D01*
X108505D01*
X108468Y233143D01*
X108414Y233106D01*
X108341Y233034D01*
X108140Y232870D01*
X107885Y232633D01*
X107867Y232614D01*
X107831Y232578D01*
X107758Y232505D01*
X107685Y232414D01*
X107575Y232287D01*
X107448Y232141D01*
X107320Y231995D01*
X107193Y231813D01*
Y227823D01*
X107211D01*
X107266Y227804D01*
X107339Y227768D01*
X107448Y227731D01*
X107557Y227695D01*
X107703Y227640D01*
X108013Y227568D01*
X108031D01*
X108086Y227549D01*
X108177Y227531D01*
X108286D01*
X108414Y227513D01*
X108559Y227495D01*
X108869Y227477D01*
X108978D01*
X109051Y227495D01*
X109270Y227513D01*
X109525Y227568D01*
X109817Y227677D01*
X110108Y227804D01*
X110399Y228005D01*
X110545Y228114D01*
X110673Y228260D01*
Y228278D01*
X110709Y228296D01*
X110727Y228351D01*
X110782Y228406D01*
X110837Y228497D01*
X110891Y228588D01*
X110946Y228715D01*
X111019Y228843D01*
X111074Y229007D01*
X111128Y229171D01*
X111183Y229371D01*
X111238Y229590D01*
X111292Y229809D01*
X111311Y230064D01*
X111347Y230319D01*
Y230610D01*
Y230647D01*
Y230720D01*
Y230847D01*
X111329Y231011D01*
Y231193D01*
X111311Y231394D01*
X111238Y231795D01*
Y231813D01*
X111219Y231886D01*
X111201Y231995D01*
X111165Y232123D01*
X111074Y232414D01*
X110946Y232724D01*
Y232742D01*
X110910Y232797D01*
X110873Y232870D01*
X110800Y232961D01*
X110636Y233161D01*
X110418Y233343D01*
X110399Y233362D01*
X110363Y233380D01*
X110290Y233416D01*
X110199Y233453D01*
X110090Y233489D01*
X109962Y233525D01*
X109817Y233562D01*
D02*
G37*
G36*
X203285Y230173D02*
X201281D01*
X201153Y230155D01*
X200862Y230137D01*
X200552Y230064D01*
X200534D01*
X200497Y230046D01*
X200425Y230027D01*
X200333Y229991D01*
X200115Y229882D01*
X199914Y229754D01*
X199896D01*
X199878Y229717D01*
X199787Y229626D01*
X199659Y229462D01*
X199550Y229280D01*
Y229262D01*
X199532Y229226D01*
X199513Y229171D01*
X199495Y229098D01*
X199459Y228898D01*
X199441Y228661D01*
Y228643D01*
Y228624D01*
X199459Y228515D01*
X199477Y228369D01*
X199513Y228205D01*
Y228187D01*
X199532Y228169D01*
X199568Y228078D01*
X199641Y227950D01*
X199750Y227804D01*
X199787Y227786D01*
X199860Y227713D01*
X200005Y227622D01*
X200169Y227549D01*
X200188D01*
X200224Y227531D01*
X200279Y227513D01*
X200352D01*
X200552Y227477D01*
X200807Y227458D01*
X200898D01*
X200989Y227477D01*
X201135Y227495D01*
X201299Y227531D01*
X201500Y227586D01*
X201700Y227659D01*
X201937Y227750D01*
X201973Y227768D01*
X202046Y227804D01*
X202174Y227877D01*
X202338Y227987D01*
X202538Y228114D01*
X202775Y228278D01*
X203030Y228460D01*
X203285Y228697D01*
Y230173D01*
D02*
G37*
G36*
X191825Y235912D02*
X190349D01*
Y231503D01*
X191825D01*
X191916Y231521D01*
X192025D01*
X192153Y231540D01*
X192426Y231576D01*
X192754Y231649D01*
X193082Y231740D01*
X193410Y231886D01*
X193701Y232068D01*
X193738Y232086D01*
X193811Y232177D01*
X193920Y232305D01*
X194066Y232487D01*
X194193Y232742D01*
X194303Y233034D01*
X194376Y233380D01*
X194412Y233781D01*
Y233799D01*
Y233817D01*
Y233872D01*
X194394Y233945D01*
X194376Y234127D01*
X194321Y234364D01*
X194248Y234619D01*
X194120Y234874D01*
X193956Y235129D01*
X193720Y235348D01*
X193683Y235366D01*
X193592Y235439D01*
X193446Y235530D01*
X193228Y235639D01*
X192954Y235730D01*
X192645Y235821D01*
X192262Y235894D01*
X191825Y235912D01*
D02*
G37*
G36*
X229376Y233653D02*
X229012D01*
X228902Y233635D01*
X228775Y233617D01*
X228629Y233580D01*
X228319Y233471D01*
X228301D01*
X228265Y233434D01*
X228192Y233398D01*
X228101Y233343D01*
X227882Y233179D01*
X227663Y232961D01*
X227645Y232943D01*
X227627Y232906D01*
X227572Y232833D01*
X227499Y232742D01*
X227427Y232633D01*
X227354Y232487D01*
X227208Y232177D01*
Y232159D01*
X227190Y232104D01*
X227153Y232013D01*
X227117Y231886D01*
X227080Y231740D01*
X227062Y231558D01*
X227008Y231175D01*
X231344Y231175D01*
Y231193D01*
Y231266D01*
Y231376D01*
Y231503D01*
X231326Y231649D01*
X231307Y231813D01*
X231216Y232159D01*
Y232177D01*
X231198Y232232D01*
X231162Y232323D01*
X231125Y232432D01*
X230998Y232687D01*
X230816Y232943D01*
X230797Y232961D01*
X230761Y232997D01*
X230706Y233052D01*
X230633Y233125D01*
X230524Y233216D01*
X230415Y233289D01*
X230123Y233453D01*
X230105Y233471D01*
X230050Y233489D01*
X229959Y233525D01*
X229850Y233562D01*
X229722Y233598D01*
X229558Y233617D01*
X229376Y233653D01*
D02*
G37*
G36*
X164713Y233653D02*
X164349D01*
X164240Y233635D01*
X164112Y233617D01*
X163966Y233580D01*
X163656Y233471D01*
X163638D01*
X163602Y233434D01*
X163529Y233398D01*
X163438Y233343D01*
X163219Y233179D01*
X163001Y232961D01*
X162982Y232943D01*
X162964Y232906D01*
X162909Y232833D01*
X162837Y232742D01*
X162764Y232633D01*
X162691Y232487D01*
X162545Y232177D01*
Y232159D01*
X162527Y232104D01*
X162490Y232013D01*
X162454Y231886D01*
X162418Y231740D01*
X162399Y231558D01*
X162345Y231175D01*
X166681D01*
Y231193D01*
Y231266D01*
Y231376D01*
Y231503D01*
X166663Y231649D01*
X166645Y231813D01*
X166553Y232159D01*
Y232177D01*
X166535Y232232D01*
X166499Y232323D01*
X166462Y232432D01*
X166335Y232687D01*
X166153Y232943D01*
X166135Y232961D01*
X166098Y232997D01*
X166043Y233052D01*
X165971Y233125D01*
X165861Y233216D01*
X165752Y233289D01*
X165460Y233453D01*
X165442Y233471D01*
X165387Y233489D01*
X165296Y233525D01*
X165187Y233562D01*
X165059Y233598D01*
X164895Y233617D01*
X164713Y233653D01*
D02*
G37*
G36*
X136983Y233580D02*
X136673D01*
X136545Y233562D01*
X136399Y233544D01*
X136217Y233525D01*
X136035Y233471D01*
X135853Y233416D01*
X135671Y233325D01*
X135652Y233307D01*
X135598Y233270D01*
X135507Y233216D01*
X135416Y233143D01*
X135288Y233052D01*
X135161Y232943D01*
X134924Y232651D01*
X134905Y232633D01*
X134869Y232578D01*
X134833Y232487D01*
X134760Y232378D01*
X134687Y232232D01*
X134632Y232068D01*
X134559Y231886D01*
X134504Y231685D01*
Y231667D01*
X134486Y231594D01*
X134468Y231485D01*
X134450Y231339D01*
X134413Y231157D01*
X134395Y230957D01*
X134377Y230519D01*
Y230483D01*
Y230392D01*
X134395Y230246D01*
Y230064D01*
X134413Y229863D01*
X134450Y229626D01*
X134541Y229171D01*
Y229153D01*
X134577Y229080D01*
X134614Y228971D01*
X134669Y228843D01*
X134814Y228533D01*
X135015Y228223D01*
X135033Y228205D01*
X135069Y228169D01*
X135142Y228096D01*
X135233Y228023D01*
X135343Y227932D01*
X135470Y227841D01*
X135762Y227659D01*
X135780D01*
X135835Y227622D01*
X135944Y227604D01*
X136053Y227568D01*
X136217Y227531D01*
X136381Y227513D01*
X136582Y227477D01*
X136891D01*
X137001Y227495D01*
X137165Y227513D01*
X137329Y227531D01*
X137511Y227586D01*
X137693Y227640D01*
X137875Y227713D01*
X137893Y227731D01*
X137948Y227768D01*
X138039Y227823D01*
X138149Y227895D01*
X138258Y227987D01*
X138385Y228114D01*
X138622Y228387D01*
X138640Y228406D01*
X138677Y228460D01*
X138713Y228551D01*
X138786Y228661D01*
X138859Y228806D01*
X138914Y228971D01*
X138987Y229153D01*
X139041Y229353D01*
Y229371D01*
X139059Y229444D01*
X139096Y229572D01*
X139114Y229717D01*
X139151Y229882D01*
X139169Y230082D01*
X139187Y230519D01*
Y230556D01*
Y230647D01*
Y230792D01*
X139169Y230975D01*
X139151Y231175D01*
X139114Y231412D01*
X139059Y231631D01*
X139005Y231849D01*
Y231868D01*
X138969Y231940D01*
X138932Y232050D01*
X138877Y232195D01*
X138732Y232487D01*
X138640Y232651D01*
X138531Y232797D01*
X138513Y232815D01*
X138477Y232851D01*
X138404Y232924D01*
X138312Y233015D01*
X138203Y233106D01*
X138076Y233197D01*
X137766Y233380D01*
X137748Y233398D01*
X137693Y233416D01*
X137602Y233453D01*
X137474Y233489D01*
X137329Y233525D01*
X137165Y233544D01*
X136983Y233580D01*
D02*
G37*
G36*
X100032Y233580D02*
X99723D01*
X99595Y233562D01*
X99449Y233544D01*
X99267Y233525D01*
X99085Y233471D01*
X98903Y233416D01*
X98721Y233325D01*
X98702Y233307D01*
X98648Y233270D01*
X98557Y233216D01*
X98465Y233143D01*
X98338Y233052D01*
X98210Y232943D01*
X97974Y232651D01*
X97955Y232633D01*
X97919Y232578D01*
X97882Y232487D01*
X97809Y232378D01*
X97737Y232232D01*
X97682Y232068D01*
X97609Y231886D01*
X97554Y231685D01*
Y231667D01*
X97536Y231594D01*
X97518Y231485D01*
X97500Y231339D01*
X97463Y231157D01*
X97445Y230957D01*
X97427Y230519D01*
Y230483D01*
Y230392D01*
X97445Y230246D01*
Y230064D01*
X97463Y229863D01*
X97500Y229626D01*
X97591Y229171D01*
Y229153D01*
X97627Y229080D01*
X97664Y228971D01*
X97718Y228843D01*
X97864Y228533D01*
X98065Y228223D01*
X98083Y228205D01*
X98119Y228169D01*
X98192Y228096D01*
X98283Y228023D01*
X98392Y227932D01*
X98520Y227841D01*
X98812Y227659D01*
X98830D01*
X98884Y227622D01*
X98994Y227604D01*
X99103Y227568D01*
X99267Y227531D01*
X99431Y227513D01*
X99632Y227477D01*
X99941D01*
X100050Y227495D01*
X100215Y227513D01*
X100379Y227531D01*
X100561Y227586D01*
X100743Y227640D01*
X100925Y227713D01*
X100943Y227731D01*
X100998Y227768D01*
X101089Y227823D01*
X101198Y227895D01*
X101308Y227987D01*
X101435Y228114D01*
X101672Y228387D01*
X101690Y228406D01*
X101727Y228460D01*
X101763Y228551D01*
X101836Y228661D01*
X101909Y228806D01*
X101964Y228971D01*
X102036Y229153D01*
X102091Y229353D01*
Y229371D01*
X102109Y229444D01*
X102146Y229572D01*
X102164Y229717D01*
X102200Y229882D01*
X102219Y230082D01*
X102237Y230519D01*
Y230556D01*
Y230647D01*
Y230792D01*
X102219Y230975D01*
X102200Y231175D01*
X102164Y231412D01*
X102109Y231631D01*
X102055Y231849D01*
Y231868D01*
X102018Y231940D01*
X101982Y232050D01*
X101927Y232195D01*
X101781Y232487D01*
X101690Y232651D01*
X101581Y232797D01*
X101563Y232815D01*
X101526Y232851D01*
X101453Y232924D01*
X101362Y233015D01*
X101253Y233106D01*
X101126Y233197D01*
X100816Y233380D01*
X100798Y233398D01*
X100743Y233416D01*
X100652Y233453D01*
X100524Y233489D01*
X100379Y233525D01*
X100215Y233544D01*
X100032Y233580D01*
D02*
G37*
%LPD*%
D16*
X285349Y-11220D02*
D03*
X279050Y11220D02*
D03*
X12598Y-11220D02*
D03*
X18898Y11220D02*
D03*
X12598Y-97835D02*
D03*
X18898Y-75394D02*
D03*
D17*
X279050Y-6102D02*
D03*
X285350Y6102D02*
D03*
X18898Y-6102D02*
D03*
X12598Y6102D02*
D03*
X18898Y-92716D02*
D03*
X12598Y-80512D02*
D03*
D18*
X279050Y-11220D02*
D03*
X285350Y11220D02*
D03*
X18898Y-11220D02*
D03*
X12598Y11220D02*
D03*
X18898Y-97835D02*
D03*
X12598Y-75394D02*
D03*
D19*
X285349Y-6102D02*
D03*
X279050Y6102D02*
D03*
X12598Y-6102D02*
D03*
X18898Y6102D02*
D03*
X12598Y-92716D02*
D03*
X18898Y-80512D02*
D03*
D20*
X152953Y46457D02*
D03*
X152953Y40157D02*
D03*
X130512Y46457D02*
D03*
X130512Y40157D02*
D03*
D21*
X147835D02*
D03*
X147835Y46457D02*
D03*
X135630Y40157D02*
D03*
X135630Y46457D02*
D03*
D22*
X12598Y97835D02*
D03*
X18898Y75394D02*
D03*
D23*
X18898Y92716D02*
D03*
X12598Y80512D02*
D03*
D24*
X18898Y97835D02*
D03*
X12598Y75394D02*
D03*
D25*
X12598Y92716D02*
D03*
X18898Y80512D02*
D03*
D26*
X133661Y129921D02*
D03*
X149803D02*
D03*
X141732D02*
D03*
M02*
