G04*
G04 #@! TF.GenerationSoftware,Altium Limited,Altium Designer,20.0.10 (225)*
G04*
G04 Layer_Color=65535*
%FSLAX25Y25*%
%MOIN*%
G70*
G01*
G75*
%ADD10C,0.01000*%
%ADD11C,0.00787*%
%ADD12C,0.00800*%
%ADD13C,0.00394*%
%ADD14C,0.00600*%
%ADD15R,1.18110X0.15748*%
G36*
X166565Y-3623D02*
X166617Y-3641D01*
X166635D01*
X166653Y-3658D01*
X166670Y-3694D01*
X166688Y-3746D01*
Y-3764D01*
X166670Y-3782D01*
X166635Y-3817D01*
X166617D01*
X166565Y-3834D01*
X166477D01*
X166371Y-3852D01*
X166353D01*
X166318Y-3870D01*
X166265D01*
X166178Y-3887D01*
X166160D01*
X166125Y-3905D01*
X166072Y-3922D01*
X166002Y-3940D01*
X165861Y-4028D01*
X165791Y-4081D01*
X165738Y-4151D01*
Y-4169D01*
X165720Y-4186D01*
X165703Y-4239D01*
X165685Y-4309D01*
X165650Y-4397D01*
X165632Y-4503D01*
X165615Y-4626D01*
X165597Y-4767D01*
Y-4784D01*
Y-4802D01*
Y-4820D01*
Y-4837D01*
Y-4890D01*
X165579Y-4960D01*
Y-5066D01*
Y-5206D01*
X165562Y-5382D01*
Y-5576D01*
Y-5787D01*
Y-5822D01*
Y-5910D01*
Y-5980D01*
Y-6068D01*
Y-6174D01*
Y-6297D01*
Y-6455D01*
Y-6631D01*
Y-6825D01*
Y-7036D01*
Y-7265D01*
Y-7528D01*
Y-7827D01*
Y-8144D01*
Y-10888D01*
Y-10906D01*
Y-10941D01*
Y-10994D01*
Y-11082D01*
Y-11169D01*
Y-11293D01*
Y-11556D01*
Y-11873D01*
Y-12207D01*
Y-12559D01*
Y-12911D01*
Y-12928D01*
Y-12946D01*
Y-13052D01*
X165579Y-13210D01*
Y-13403D01*
Y-13632D01*
X165597Y-13861D01*
X165615Y-14089D01*
X165632Y-14283D01*
Y-14300D01*
Y-14336D01*
X165650Y-14406D01*
X165667Y-14494D01*
X165720Y-14670D01*
X165791Y-14863D01*
Y-14881D01*
X165808Y-14898D01*
X165896Y-14987D01*
X165949Y-15039D01*
X166037Y-15074D01*
X166125Y-15110D01*
X166248Y-15145D01*
X166265D01*
X166301Y-15162D01*
X166389Y-15180D01*
X166547D01*
X166600Y-15198D01*
X166670D01*
X166758Y-15215D01*
X166987D01*
X167022Y-15233D01*
X167040Y-15250D01*
X167057Y-15268D01*
X167075Y-15303D01*
Y-15338D01*
X167040Y-15356D01*
X167004Y-15373D01*
X166969D01*
X166916Y-15391D01*
X166195D01*
X166019Y-15373D01*
X165527D01*
X165421Y-15356D01*
X164454D01*
X164278Y-15373D01*
X163574D01*
X163469Y-15391D01*
X163240D01*
X163187Y-15373D01*
X163170Y-15356D01*
X163152Y-15338D01*
X163135Y-15303D01*
Y-15285D01*
X163152Y-15250D01*
X163187Y-15233D01*
X163258Y-15215D01*
X163363D01*
X163398Y-15198D01*
X163504D01*
X163522Y-15180D01*
X163627D01*
X163645Y-15162D01*
X163715Y-15145D01*
X163733D01*
X163750Y-15127D01*
X163856Y-15092D01*
X163961Y-15004D01*
X164032Y-14863D01*
Y-14846D01*
X164049Y-14828D01*
X164067Y-14775D01*
X164084Y-14705D01*
X164137Y-14529D01*
X164172Y-14283D01*
Y-14265D01*
X164190Y-14195D01*
Y-14072D01*
X164207Y-13931D01*
X164225Y-13738D01*
Y-13491D01*
X164243Y-13228D01*
Y-12911D01*
Y-12893D01*
Y-12876D01*
Y-12823D01*
Y-12753D01*
Y-12559D01*
X164260Y-12313D01*
Y-12014D01*
Y-11680D01*
Y-11293D01*
Y-10888D01*
Y-8126D01*
Y-8109D01*
Y-8056D01*
Y-7968D01*
Y-7845D01*
Y-7704D01*
Y-7546D01*
Y-7176D01*
Y-6790D01*
Y-6403D01*
Y-6227D01*
Y-6051D01*
Y-5910D01*
Y-5787D01*
Y-5752D01*
Y-5681D01*
Y-5576D01*
Y-5435D01*
X164243Y-5119D01*
Y-4960D01*
X164225Y-4820D01*
Y-4802D01*
Y-4784D01*
Y-4767D01*
Y-4749D01*
Y-4696D01*
X164207Y-4626D01*
Y-4538D01*
X164155Y-4344D01*
X164120Y-4257D01*
X164084Y-4169D01*
Y-4151D01*
X164067Y-4134D01*
X163996Y-4045D01*
X163873Y-3958D01*
X163697Y-3887D01*
X163627D01*
X163609Y-3870D01*
X163539D01*
X163486Y-3852D01*
X163346D01*
X163310Y-3834D01*
X163170D01*
X163117Y-3817D01*
X163099Y-3799D01*
X163082Y-3746D01*
Y-3729D01*
Y-3694D01*
X163099Y-3658D01*
X163135Y-3641D01*
X163152D01*
X163187Y-3623D01*
X163240Y-3606D01*
X163856D01*
X163979Y-3623D01*
X164313D01*
X164419Y-3641D01*
X164559D01*
X164700Y-3658D01*
X165157D01*
X165245Y-3641D01*
X165368D01*
X165527Y-3623D01*
X166178D01*
X166248Y-3606D01*
X166512D01*
X166565Y-3623D01*
D02*
G37*
G36*
X160953D02*
X161006Y-3641D01*
X161024D01*
X161041Y-3658D01*
X161059Y-3676D01*
X161076Y-3729D01*
Y-3764D01*
X161041Y-3817D01*
X161006D01*
X160971Y-3834D01*
X160813D01*
X160707Y-3852D01*
X160566Y-3870D01*
X160531D01*
X160461Y-3905D01*
X160338Y-3940D01*
X160179Y-3993D01*
X160144Y-4010D01*
X160091Y-4028D01*
X160074D01*
X160039Y-4045D01*
X160021D01*
X160003Y-4063D01*
X159915Y-4116D01*
X159775Y-4186D01*
X159634Y-4274D01*
X159599Y-4292D01*
X159529Y-4344D01*
X159405Y-4415D01*
X159282Y-4520D01*
X159247Y-4556D01*
X159159Y-4626D01*
X159019Y-4749D01*
X158860Y-4907D01*
X158843Y-4925D01*
X158825Y-4943D01*
X158719Y-5048D01*
X158544Y-5206D01*
X158350Y-5400D01*
X158315Y-5435D01*
X158280Y-5470D01*
X158209Y-5523D01*
X158121Y-5611D01*
X158016Y-5734D01*
X157875Y-5857D01*
X157699Y-6033D01*
X157682Y-6051D01*
X157611Y-6121D01*
X157506Y-6209D01*
X157383Y-6332D01*
X157224Y-6491D01*
X157048Y-6666D01*
X156644Y-7071D01*
X156626Y-7089D01*
X156538Y-7176D01*
X156433Y-7282D01*
X156292Y-7423D01*
X156116Y-7599D01*
X155940Y-7775D01*
X155553Y-8162D01*
X155536Y-8179D01*
X155465Y-8249D01*
X155377Y-8337D01*
X155289Y-8425D01*
X155078Y-8654D01*
X154990Y-8742D01*
X154920Y-8812D01*
X154955Y-8848D01*
X155008Y-8900D01*
X155078Y-8988D01*
X155184Y-9094D01*
X155324Y-9235D01*
X155500Y-9428D01*
X155711Y-9657D01*
X155747Y-9692D01*
X155817Y-9780D01*
X155958Y-9903D01*
X156134Y-10079D01*
X156345Y-10308D01*
X156573Y-10554D01*
X156837Y-10818D01*
X157101Y-11099D01*
X157136Y-11134D01*
X157224Y-11222D01*
X157347Y-11345D01*
X157506Y-11521D01*
X157699Y-11715D01*
X157910Y-11943D01*
X158368Y-12401D01*
X158403Y-12418D01*
X158473Y-12489D01*
X158579Y-12594D01*
X158702Y-12735D01*
X158983Y-12999D01*
X159106Y-13122D01*
X159212Y-13228D01*
X159247Y-13263D01*
X159318Y-13333D01*
X159441Y-13439D01*
X159599Y-13579D01*
X159933Y-13896D01*
X160091Y-14037D01*
X160250Y-14177D01*
X160267Y-14195D01*
X160320Y-14230D01*
X160390Y-14300D01*
X160478Y-14371D01*
X160689Y-14529D01*
X160936Y-14687D01*
X160953Y-14705D01*
X161006Y-14740D01*
X161076Y-14793D01*
X161147Y-14846D01*
X161164D01*
X161235Y-14881D01*
X161305Y-14916D01*
X161411Y-14951D01*
X161428D01*
X161463Y-14969D01*
X161481Y-14987D01*
X161534Y-15004D01*
X161551Y-15022D01*
X161604Y-15039D01*
X161622Y-15057D01*
X161674Y-15074D01*
X161692D01*
X161727Y-15092D01*
X161780D01*
X161850Y-15110D01*
X162009Y-15145D01*
X162185Y-15180D01*
X162220D01*
X162325Y-15198D01*
X162431Y-15215D01*
X162554D01*
X162642Y-15233D01*
X162660D01*
X162677Y-15250D01*
X162695Y-15268D01*
X162712Y-15303D01*
Y-15338D01*
X162677Y-15356D01*
X162642Y-15373D01*
X162589D01*
X162501Y-15391D01*
X160883D01*
X160742Y-15373D01*
X160707D01*
X160601Y-15356D01*
X160355D01*
X160267Y-15338D01*
X160056Y-15303D01*
X159828Y-15250D01*
X159810D01*
X159775Y-15233D01*
X159722Y-15215D01*
X159669Y-15180D01*
X159493Y-15092D01*
X159300Y-14969D01*
X159265Y-14951D01*
X159194Y-14898D01*
X159089Y-14828D01*
X158966Y-14740D01*
X158931Y-14723D01*
X158860Y-14652D01*
X158737Y-14547D01*
X158596Y-14441D01*
X158579Y-14424D01*
X158544Y-14388D01*
X158473Y-14336D01*
X158385Y-14248D01*
X158245Y-14125D01*
X158086Y-13966D01*
X157893Y-13773D01*
X157646Y-13526D01*
X157611Y-13491D01*
X157523Y-13403D01*
X157400Y-13263D01*
X157224Y-13069D01*
X157013Y-12841D01*
X156767Y-12594D01*
X156503Y-12313D01*
X156222Y-12014D01*
Y-11996D01*
X156186Y-11979D01*
X156134Y-11926D01*
Y-11908D01*
X156116Y-11891D01*
X156063Y-11838D01*
Y-11820D01*
X156028Y-11803D01*
X155940Y-11697D01*
X155799Y-11556D01*
X155624Y-11363D01*
X155412Y-11134D01*
X155201Y-10888D01*
X154727Y-10378D01*
X154691Y-10343D01*
X154621Y-10272D01*
X154515Y-10149D01*
X154392Y-9991D01*
X154093Y-9657D01*
X153953Y-9498D01*
X153847Y-9358D01*
X153759D01*
Y-10888D01*
Y-10906D01*
Y-10941D01*
Y-10994D01*
Y-11082D01*
Y-11187D01*
Y-11293D01*
Y-11574D01*
Y-11891D01*
Y-12225D01*
Y-12577D01*
Y-12911D01*
Y-12928D01*
Y-12946D01*
Y-13052D01*
X153777Y-13210D01*
Y-13403D01*
X153794Y-13632D01*
X153812Y-13861D01*
X153829Y-14089D01*
X153847Y-14283D01*
Y-14300D01*
Y-14336D01*
X153865Y-14406D01*
X153882Y-14494D01*
X153917Y-14670D01*
X153988Y-14863D01*
Y-14881D01*
X154005Y-14898D01*
X154093Y-14987D01*
X154146Y-15039D01*
X154234Y-15074D01*
X154322Y-15110D01*
X154445Y-15145D01*
X154463D01*
X154515Y-15162D01*
X154621D01*
X154674Y-15180D01*
X154762D01*
X154850Y-15198D01*
X154938D01*
X154990Y-15215D01*
X155113D01*
X155149Y-15233D01*
X155166Y-15250D01*
X155184Y-15268D01*
Y-15303D01*
Y-15338D01*
X155149Y-15356D01*
X155113Y-15373D01*
X155078D01*
X155025Y-15391D01*
X154322D01*
X154164Y-15373D01*
X153935D01*
X153794Y-15356D01*
X152686D01*
X152528Y-15373D01*
X151842D01*
X151736Y-15391D01*
X151507D01*
X151455Y-15373D01*
X151437Y-15356D01*
X151420Y-15338D01*
X151402Y-15303D01*
Y-15285D01*
X151420Y-15250D01*
X151455Y-15233D01*
X151525Y-15215D01*
X151631D01*
X151666Y-15198D01*
X151771D01*
X151789Y-15180D01*
X151894D01*
X151912Y-15162D01*
X151982Y-15145D01*
X152000D01*
X152018Y-15127D01*
X152123Y-15092D01*
X152229Y-15004D01*
X152299Y-14863D01*
Y-14846D01*
X152317Y-14828D01*
X152334Y-14775D01*
X152352Y-14705D01*
X152405Y-14529D01*
X152440Y-14283D01*
Y-14265D01*
X152457Y-14195D01*
Y-14072D01*
X152475Y-13931D01*
X152493Y-13738D01*
Y-13491D01*
X152510Y-13228D01*
Y-12911D01*
Y-12893D01*
Y-12876D01*
Y-12823D01*
Y-12753D01*
Y-12559D01*
X152528Y-12313D01*
Y-12014D01*
Y-11680D01*
Y-11293D01*
Y-10888D01*
Y-8126D01*
Y-8109D01*
Y-8056D01*
Y-7968D01*
Y-7845D01*
Y-7704D01*
Y-7546D01*
Y-7176D01*
Y-6790D01*
Y-6403D01*
Y-6227D01*
Y-6051D01*
Y-5910D01*
Y-5787D01*
Y-5752D01*
Y-5681D01*
Y-5576D01*
Y-5435D01*
X152510Y-5119D01*
Y-4960D01*
X152493Y-4820D01*
Y-4802D01*
Y-4784D01*
Y-4767D01*
Y-4749D01*
Y-4696D01*
X152475Y-4626D01*
Y-4538D01*
X152422Y-4344D01*
X152387Y-4257D01*
X152334Y-4169D01*
Y-4151D01*
X152317Y-4134D01*
X152281Y-4098D01*
X152229Y-4045D01*
X152158Y-4010D01*
X152070Y-3958D01*
X151965Y-3922D01*
X151824Y-3887D01*
X151806D01*
X151789Y-3870D01*
X151666D01*
X151648Y-3852D01*
X151525D01*
X151507Y-3834D01*
X151261D01*
X151191Y-3817D01*
X151173Y-3799D01*
X151156Y-3746D01*
Y-3729D01*
Y-3694D01*
X151173Y-3658D01*
X151208Y-3641D01*
X151226D01*
X151261Y-3623D01*
X151332Y-3606D01*
X151965D01*
X152070Y-3623D01*
X152545D01*
X152651Y-3641D01*
X152774D01*
X152915Y-3658D01*
X153390D01*
X153478Y-3641D01*
X153601D01*
X153759Y-3623D01*
X154375D01*
X154445Y-3606D01*
X154709D01*
X154762Y-3623D01*
X154814Y-3641D01*
X154832D01*
X154850Y-3658D01*
X154867Y-3694D01*
X154885Y-3746D01*
Y-3764D01*
X154850Y-3817D01*
X154832D01*
X154762Y-3834D01*
X154674D01*
X154568Y-3852D01*
X154551D01*
X154515Y-3870D01*
X154463D01*
X154375Y-3887D01*
X154357D01*
X154322Y-3905D01*
X154269Y-3922D01*
X154199Y-3940D01*
X154058Y-4028D01*
X153988Y-4081D01*
X153935Y-4151D01*
Y-4169D01*
X153917Y-4186D01*
X153900Y-4239D01*
X153882Y-4309D01*
X153847Y-4397D01*
X153829Y-4503D01*
X153812Y-4626D01*
X153794Y-4767D01*
Y-4784D01*
Y-4802D01*
Y-4820D01*
Y-4837D01*
Y-4890D01*
X153777Y-4960D01*
Y-5066D01*
Y-5206D01*
X153759Y-5382D01*
Y-5576D01*
Y-5787D01*
Y-5822D01*
Y-5910D01*
Y-5980D01*
Y-6068D01*
Y-6174D01*
Y-6297D01*
Y-6455D01*
Y-6631D01*
Y-6825D01*
Y-7036D01*
Y-7265D01*
Y-7528D01*
Y-7827D01*
Y-8144D01*
Y-9076D01*
X153829D01*
X153847Y-9041D01*
X153900Y-9006D01*
X153953Y-8935D01*
X154041Y-8848D01*
X154146Y-8742D01*
X154304Y-8584D01*
X154480Y-8390D01*
X154498Y-8373D01*
X154586Y-8285D01*
X154691Y-8179D01*
X154850Y-8021D01*
X155025Y-7845D01*
X155237Y-7634D01*
X155448Y-7405D01*
X155694Y-7159D01*
X155711Y-7124D01*
X155782Y-7053D01*
X155905Y-6948D01*
X156046Y-6790D01*
X156204Y-6631D01*
X156380Y-6438D01*
X156767Y-6051D01*
X156784Y-6033D01*
X156855Y-5963D01*
X156943Y-5875D01*
X157048Y-5752D01*
X157295Y-5505D01*
X157400Y-5400D01*
X157488Y-5294D01*
X157506Y-5277D01*
X157541Y-5242D01*
X157594Y-5171D01*
X157682Y-5083D01*
X157858Y-4890D01*
X158051Y-4679D01*
X158069Y-4661D01*
X158086Y-4626D01*
X158139Y-4573D01*
X158192Y-4503D01*
X158280Y-4344D01*
X158297Y-4257D01*
X158315Y-4169D01*
Y-4151D01*
Y-4081D01*
X158297Y-4028D01*
X158262Y-3958D01*
X158245Y-3940D01*
X158227Y-3922D01*
X158121Y-3852D01*
X158104D01*
X158086Y-3834D01*
X158016Y-3799D01*
X157998Y-3782D01*
X157981Y-3729D01*
Y-3711D01*
Y-3694D01*
X157998Y-3658D01*
X158033Y-3641D01*
X158051D01*
X158069Y-3623D01*
X158174Y-3606D01*
X158332D01*
X158438Y-3623D01*
X158755D01*
X158790Y-3641D01*
X159019D01*
X159106Y-3658D01*
X159581D01*
X159669Y-3641D01*
X159792D01*
X159968Y-3623D01*
X160566D01*
X160637Y-3606D01*
X160901D01*
X160953Y-3623D01*
D02*
G37*
G36*
X145633D02*
X145861Y-3641D01*
X146107Y-3676D01*
X146336Y-3711D01*
X146565Y-3764D01*
X146582D01*
X146653Y-3782D01*
X146758Y-3817D01*
X146899Y-3852D01*
X147180Y-3958D01*
X147339Y-4028D01*
X147462Y-4098D01*
X147479D01*
X147497Y-4116D01*
X147585Y-4169D01*
X147690Y-4257D01*
X147796Y-4344D01*
X147814Y-4362D01*
X147884Y-4397D01*
X147937Y-4450D01*
X148007Y-4503D01*
X148025D01*
X148042Y-4538D01*
X148095Y-4608D01*
X148113D01*
X148130Y-4626D01*
X148201Y-4714D01*
X148218Y-4732D01*
X148236Y-4767D01*
X148271Y-4820D01*
X148324Y-4907D01*
X148394Y-5013D01*
X148465Y-5136D01*
X148535Y-5277D01*
X148605Y-5435D01*
X148623Y-5453D01*
X148640Y-5505D01*
X148676Y-5593D01*
X148711Y-5717D01*
X148746Y-5840D01*
X148764Y-5998D01*
X148799Y-6174D01*
Y-6367D01*
Y-6385D01*
Y-6438D01*
Y-6526D01*
X148781Y-6649D01*
X148764Y-6790D01*
X148746Y-6948D01*
X148711Y-7124D01*
X148658Y-7317D01*
X148535Y-7757D01*
X148447Y-7968D01*
X148341Y-8197D01*
X148218Y-8425D01*
X148060Y-8636D01*
X147902Y-8865D01*
X147708Y-9059D01*
X147690Y-9076D01*
X147655Y-9094D01*
X147602Y-9147D01*
X147515Y-9217D01*
X147409Y-9287D01*
X147268Y-9375D01*
X147128Y-9481D01*
X146952Y-9569D01*
X146758Y-9657D01*
X146547Y-9762D01*
X146336Y-9850D01*
X146090Y-9921D01*
X145826Y-9991D01*
X145545Y-10026D01*
X145246Y-10061D01*
X144947Y-10079D01*
X144595D01*
X144560Y-10061D01*
X144489Y-10044D01*
X144472Y-10026D01*
X144454Y-9956D01*
Y-9938D01*
X144472Y-9903D01*
X144489Y-9868D01*
X144542Y-9850D01*
X144560D01*
X144612Y-9833D01*
X144718Y-9815D01*
X144982D01*
X145070Y-9797D01*
X145158D01*
X145281Y-9780D01*
X145545Y-9727D01*
X145844Y-9639D01*
X146160Y-9516D01*
X146494Y-9340D01*
X146793Y-9094D01*
X146811Y-9076D01*
X146829Y-9059D01*
X146916Y-8953D01*
X147040Y-8795D01*
X147198Y-8584D01*
X147339Y-8320D01*
X147462Y-8003D01*
X147550Y-7651D01*
X147585Y-7458D01*
Y-7265D01*
Y-7247D01*
Y-7212D01*
Y-7159D01*
Y-7071D01*
X147567Y-6965D01*
X147550Y-6842D01*
X147532Y-6702D01*
X147515Y-6543D01*
Y-6526D01*
X147497Y-6455D01*
X147479Y-6367D01*
X147462Y-6244D01*
X147427Y-6103D01*
X147374Y-5945D01*
X147303Y-5769D01*
X147216Y-5593D01*
X147198Y-5558D01*
X147163Y-5488D01*
X147092Y-5365D01*
X147004Y-5224D01*
Y-5206D01*
X146987Y-5189D01*
X146916Y-5101D01*
X146829Y-4995D01*
X146705Y-4872D01*
X146688Y-4855D01*
X146635Y-4802D01*
X146565Y-4732D01*
X146477Y-4661D01*
X146459Y-4644D01*
X146406Y-4608D01*
X146336Y-4556D01*
X146266Y-4503D01*
X146248Y-4485D01*
X146178Y-4450D01*
X146090Y-4397D01*
X145967Y-4327D01*
X145826Y-4257D01*
X145668Y-4204D01*
X145509Y-4151D01*
X145333Y-4134D01*
X145316D01*
X145263Y-4116D01*
X145175D01*
X145087Y-4098D01*
X144859Y-4081D01*
X144436D01*
X144331Y-4098D01*
X144190Y-4116D01*
X144155D01*
X144085Y-4134D01*
X143997Y-4151D01*
X143891Y-4169D01*
X143856Y-4186D01*
X143838Y-4221D01*
X143803Y-4274D01*
Y-4292D01*
X143786Y-4327D01*
X143768Y-4380D01*
Y-4468D01*
Y-10888D01*
Y-10906D01*
Y-10941D01*
Y-10994D01*
Y-11082D01*
Y-11169D01*
Y-11293D01*
Y-11556D01*
Y-11873D01*
Y-12207D01*
Y-12559D01*
Y-12911D01*
Y-12928D01*
Y-12946D01*
Y-13052D01*
X143786Y-13210D01*
Y-13403D01*
X143803Y-13632D01*
X143821Y-13861D01*
X143838Y-14089D01*
X143856Y-14283D01*
Y-14300D01*
Y-14336D01*
X143874Y-14406D01*
Y-14494D01*
X143926Y-14670D01*
X143997Y-14863D01*
Y-14881D01*
X144014Y-14898D01*
X144102Y-14987D01*
X144155Y-15039D01*
X144243Y-15074D01*
X144331Y-15110D01*
X144454Y-15145D01*
X144472D01*
X144507Y-15162D01*
X144595Y-15180D01*
X144753D01*
X144806Y-15198D01*
X144894D01*
X144982Y-15215D01*
X145210D01*
X145246Y-15233D01*
X145263Y-15250D01*
X145281Y-15268D01*
Y-15303D01*
Y-15338D01*
X145246Y-15356D01*
X145210Y-15373D01*
X145175D01*
X145122Y-15391D01*
X144401D01*
X144225Y-15373D01*
X143733D01*
X143627Y-15356D01*
X142695D01*
X142519Y-15373D01*
X142132D01*
X142026Y-15391D01*
X141481D01*
X141428Y-15373D01*
X141411Y-15356D01*
X141393Y-15338D01*
X141376Y-15303D01*
Y-15285D01*
X141393Y-15250D01*
X141428Y-15233D01*
X141499Y-15215D01*
X141604D01*
X141639Y-15198D01*
X141745D01*
X141763Y-15180D01*
X141868D01*
X141886Y-15162D01*
X141956Y-15145D01*
X141974D01*
X141991Y-15127D01*
X142097Y-15092D01*
X142202Y-15004D01*
X142273Y-14863D01*
Y-14846D01*
X142290Y-14828D01*
X142308Y-14775D01*
X142325Y-14705D01*
X142378Y-14529D01*
X142413Y-14283D01*
Y-14265D01*
X142431Y-14195D01*
Y-14072D01*
X142449Y-13931D01*
X142466Y-13738D01*
Y-13491D01*
X142484Y-13228D01*
Y-12911D01*
Y-12893D01*
Y-12876D01*
Y-12823D01*
Y-12753D01*
Y-12559D01*
X142501Y-12313D01*
Y-12014D01*
Y-11680D01*
Y-11293D01*
Y-10888D01*
Y-8126D01*
Y-8109D01*
Y-8056D01*
Y-7968D01*
Y-7845D01*
Y-7704D01*
Y-7546D01*
Y-7176D01*
Y-6790D01*
Y-6403D01*
Y-6227D01*
Y-6051D01*
Y-5910D01*
Y-5787D01*
Y-5752D01*
Y-5681D01*
Y-5576D01*
Y-5435D01*
X142484Y-5119D01*
Y-4960D01*
X142466Y-4820D01*
Y-4802D01*
Y-4784D01*
Y-4767D01*
Y-4749D01*
Y-4696D01*
X142449Y-4626D01*
Y-4538D01*
X142396Y-4344D01*
X142361Y-4257D01*
X142308Y-4169D01*
Y-4151D01*
X142290Y-4134D01*
X142255Y-4098D01*
X142202Y-4045D01*
X142132Y-4010D01*
X142044Y-3958D01*
X141939Y-3922D01*
X141798Y-3887D01*
X141780D01*
X141763Y-3870D01*
X141639D01*
X141622Y-3852D01*
X141499D01*
X141481Y-3834D01*
X141235D01*
X141165Y-3817D01*
X141147Y-3799D01*
X141129Y-3746D01*
Y-3729D01*
Y-3694D01*
X141147Y-3658D01*
X141182Y-3641D01*
X141200D01*
X141235Y-3623D01*
X141305Y-3606D01*
X141991D01*
X142079Y-3623D01*
X142537D01*
X142642Y-3641D01*
X142783D01*
X142924Y-3658D01*
X143539D01*
X143645Y-3641D01*
X143803D01*
X143997Y-3623D01*
X144454D01*
X144560Y-3606D01*
X145421D01*
X145633Y-3623D01*
D02*
G37*
G36*
X122449Y-3623D02*
X122502Y-3641D01*
X122519D01*
X122537Y-3658D01*
X122554Y-3694D01*
X122572Y-3746D01*
Y-3764D01*
X122537Y-3817D01*
X122519D01*
X122449Y-3834D01*
X122361D01*
X122255Y-3852D01*
X122203D01*
X122150Y-3870D01*
X122062Y-3887D01*
X122044D01*
X122009Y-3905D01*
X121956Y-3922D01*
X121886Y-3940D01*
X121745Y-4028D01*
X121675Y-4081D01*
X121622Y-4151D01*
Y-4169D01*
X121605Y-4186D01*
X121587Y-4239D01*
X121569Y-4309D01*
X121534Y-4397D01*
X121517Y-4503D01*
X121499Y-4626D01*
X121481Y-4767D01*
Y-4784D01*
Y-4802D01*
Y-4820D01*
Y-4837D01*
Y-4890D01*
X121464Y-4960D01*
Y-5066D01*
Y-5206D01*
X121446Y-5382D01*
Y-5576D01*
Y-5787D01*
Y-5822D01*
Y-5910D01*
Y-5980D01*
Y-6068D01*
Y-6174D01*
Y-6297D01*
Y-6455D01*
Y-6631D01*
Y-6825D01*
Y-7036D01*
Y-7265D01*
Y-7528D01*
Y-7827D01*
Y-8144D01*
Y-9798D01*
Y-9815D01*
Y-9850D01*
Y-9903D01*
Y-9956D01*
Y-10132D01*
X121429Y-10325D01*
Y-10343D01*
Y-10360D01*
Y-10413D01*
Y-10484D01*
Y-10642D01*
Y-10835D01*
Y-10853D01*
Y-10888D01*
Y-10941D01*
X121411Y-11011D01*
Y-11099D01*
X121393Y-11205D01*
X121358Y-11468D01*
X121306Y-11767D01*
X121235Y-12119D01*
X121165Y-12471D01*
X121059Y-12841D01*
Y-12858D01*
X121042Y-12876D01*
X121024Y-12928D01*
X121007Y-12999D01*
X120919Y-13175D01*
X120813Y-13403D01*
X120672Y-13667D01*
X120496Y-13949D01*
X120285Y-14230D01*
X120021Y-14494D01*
X120004Y-14512D01*
X119933Y-14564D01*
X119845Y-14635D01*
X119740Y-14723D01*
X119722Y-14740D01*
X119670Y-14775D01*
X119582Y-14828D01*
X119476Y-14899D01*
X119441Y-14916D01*
X119353Y-14969D01*
X119212Y-15057D01*
X119036Y-15145D01*
X118825Y-15233D01*
X118579Y-15338D01*
X118333Y-15426D01*
X118069Y-15479D01*
X118034D01*
X117946Y-15497D01*
X117823Y-15514D01*
X117647Y-15549D01*
X117453Y-15567D01*
X117242Y-15602D01*
X116802Y-15620D01*
X116679D01*
X116591Y-15602D01*
X116468D01*
X116310Y-15585D01*
X116134Y-15567D01*
X115923Y-15549D01*
X115905D01*
X115817Y-15532D01*
X115712Y-15514D01*
X115554Y-15479D01*
X115378Y-15444D01*
X115167Y-15391D01*
X114709Y-15250D01*
X114692D01*
X114656Y-15233D01*
X114604Y-15198D01*
X114516Y-15162D01*
X114340Y-15074D01*
X114111Y-14969D01*
X114094D01*
X114058Y-14934D01*
X114006Y-14899D01*
X113935Y-14846D01*
X113777Y-14705D01*
X113584Y-14529D01*
X113566Y-14512D01*
X113496Y-14424D01*
X113372Y-14300D01*
X113249Y-14142D01*
X113091Y-13931D01*
X112933Y-13685D01*
X112774Y-13386D01*
X112616Y-13069D01*
Y-13052D01*
X112598Y-13034D01*
X112581Y-12964D01*
X112563Y-12893D01*
X112528Y-12805D01*
X112493Y-12682D01*
X112458Y-12541D01*
X112423Y-12383D01*
X112387Y-12207D01*
X112352Y-12014D01*
X112317Y-11803D01*
X112282Y-11556D01*
X112264Y-11310D01*
X112247Y-11029D01*
X112229Y-10747D01*
Y-10431D01*
Y-10413D01*
Y-8126D01*
Y-8109D01*
Y-8056D01*
Y-7968D01*
Y-7845D01*
Y-7704D01*
Y-7546D01*
Y-7176D01*
Y-6790D01*
Y-6403D01*
Y-6227D01*
Y-6051D01*
Y-5910D01*
Y-5787D01*
Y-5752D01*
Y-5681D01*
Y-5576D01*
Y-5435D01*
X112212Y-5119D01*
Y-4960D01*
X112194Y-4820D01*
Y-4802D01*
Y-4784D01*
Y-4767D01*
Y-4749D01*
Y-4696D01*
X112176Y-4626D01*
Y-4538D01*
X112124Y-4345D01*
X112088Y-4257D01*
X112036Y-4169D01*
Y-4151D01*
X112018Y-4134D01*
X111983Y-4098D01*
X111930Y-4045D01*
X111860Y-4010D01*
X111772Y-3958D01*
X111666Y-3922D01*
X111525Y-3887D01*
X111508D01*
X111490Y-3870D01*
X111367D01*
X111349Y-3852D01*
X111226D01*
X111209Y-3834D01*
X110963D01*
X110892Y-3817D01*
X110875Y-3799D01*
X110857Y-3746D01*
Y-3729D01*
Y-3694D01*
X110875Y-3658D01*
X110910Y-3641D01*
X110927D01*
X110963Y-3623D01*
X111033Y-3606D01*
X111737D01*
X111825Y-3623D01*
X112282D01*
X112387Y-3641D01*
X112528D01*
X112669Y-3658D01*
X113161D01*
X113249Y-3641D01*
X113390D01*
X113566Y-3623D01*
X114181D01*
X114252Y-3606D01*
X114516D01*
X114586Y-3623D01*
X114639Y-3641D01*
X114656D01*
X114674Y-3658D01*
X114692Y-3694D01*
X114709Y-3746D01*
Y-3764D01*
X114692Y-3782D01*
X114656Y-3817D01*
X114639D01*
X114568Y-3834D01*
X114481D01*
X114375Y-3852D01*
X114357D01*
X114322Y-3870D01*
X114269D01*
X114181Y-3887D01*
X114129D01*
X114023Y-3940D01*
X113883Y-4010D01*
X113812Y-4081D01*
X113759Y-4151D01*
Y-4169D01*
X113742Y-4186D01*
X113724Y-4239D01*
X113689Y-4309D01*
X113671Y-4397D01*
X113636Y-4503D01*
X113619Y-4626D01*
X113601Y-4767D01*
Y-4784D01*
Y-4802D01*
Y-4820D01*
Y-4837D01*
Y-4890D01*
Y-4960D01*
Y-5066D01*
X113584Y-5206D01*
Y-5382D01*
Y-5576D01*
Y-5787D01*
Y-5822D01*
Y-5910D01*
Y-5980D01*
Y-6068D01*
Y-6174D01*
Y-6297D01*
Y-6455D01*
Y-6631D01*
Y-6825D01*
Y-7036D01*
Y-7265D01*
Y-7528D01*
Y-7827D01*
Y-8144D01*
Y-10325D01*
Y-10343D01*
Y-10396D01*
Y-10484D01*
Y-10607D01*
X113601Y-10747D01*
Y-10906D01*
X113619Y-11275D01*
X113671Y-11680D01*
X113724Y-12102D01*
X113812Y-12506D01*
X113865Y-12682D01*
X113918Y-12858D01*
Y-12876D01*
X113935Y-12893D01*
X113970Y-12999D01*
X114058Y-13157D01*
X114146Y-13333D01*
X114269Y-13562D01*
X114410Y-13773D01*
X114568Y-14002D01*
X114744Y-14195D01*
X114762Y-14212D01*
X114832Y-14283D01*
X114920Y-14353D01*
X115026Y-14441D01*
X115043Y-14459D01*
X115114Y-14512D01*
X115202Y-14564D01*
X115307Y-14635D01*
X115325Y-14652D01*
X115378Y-14670D01*
X115466Y-14723D01*
X115571Y-14775D01*
X115712Y-14828D01*
X115853Y-14881D01*
X116169Y-14969D01*
X116187D01*
X116240Y-14987D01*
X116328Y-15004D01*
X116451D01*
X116591Y-15022D01*
X116750Y-15039D01*
X117102Y-15057D01*
X117225D01*
X117365Y-15039D01*
X117541Y-15022D01*
X117752Y-14987D01*
X117981Y-14916D01*
X118227Y-14846D01*
X118473Y-14740D01*
X118509Y-14723D01*
X118579Y-14687D01*
X118702Y-14617D01*
X118860Y-14512D01*
X119036Y-14406D01*
X119212Y-14265D01*
X119388Y-14107D01*
X119564Y-13931D01*
X119582Y-13896D01*
X119652Y-13808D01*
X119740Y-13667D01*
X119863Y-13474D01*
X119986Y-13228D01*
X120092Y-12946D01*
X120197Y-12629D01*
X120285Y-12278D01*
Y-12260D01*
X120303Y-12225D01*
Y-12172D01*
X120320Y-12102D01*
X120338Y-12014D01*
X120356Y-11908D01*
X120391Y-11627D01*
X120426Y-11310D01*
X120444Y-10941D01*
X120479Y-10536D01*
Y-10097D01*
Y-8126D01*
Y-8109D01*
Y-8056D01*
Y-7968D01*
Y-7845D01*
Y-7704D01*
Y-7546D01*
Y-7176D01*
Y-6790D01*
Y-6403D01*
Y-6227D01*
Y-6051D01*
Y-5910D01*
Y-5787D01*
Y-5752D01*
Y-5681D01*
Y-5576D01*
Y-5435D01*
X120461Y-5119D01*
Y-4960D01*
X120444Y-4820D01*
Y-4802D01*
Y-4784D01*
Y-4767D01*
Y-4749D01*
Y-4696D01*
X120426Y-4626D01*
Y-4538D01*
X120373Y-4345D01*
X120338Y-4257D01*
X120285Y-4169D01*
Y-4151D01*
X120268Y-4134D01*
X120232Y-4098D01*
X120180Y-4045D01*
X120109Y-4010D01*
X120021Y-3958D01*
X119916Y-3922D01*
X119775Y-3887D01*
X119758D01*
X119740Y-3870D01*
X119617D01*
X119599Y-3852D01*
X119476D01*
X119458Y-3834D01*
X119212D01*
X119142Y-3817D01*
X119124Y-3799D01*
X119107Y-3746D01*
Y-3729D01*
Y-3694D01*
X119124Y-3658D01*
X119159Y-3641D01*
X119177D01*
X119212Y-3623D01*
X119283Y-3606D01*
X119969D01*
X120092Y-3623D01*
X120461D01*
X120567Y-3641D01*
X120690D01*
X120813Y-3658D01*
X121218D01*
X121288Y-3641D01*
X121393D01*
X121534Y-3623D01*
X121868D01*
X121939Y-3606D01*
X122396D01*
X122449Y-3623D01*
D02*
G37*
G36*
X106248D02*
X106477Y-3641D01*
X106723Y-3676D01*
X106952Y-3711D01*
X107181Y-3764D01*
X107198D01*
X107269Y-3782D01*
X107374Y-3817D01*
X107515Y-3852D01*
X107796Y-3958D01*
X107955Y-4028D01*
X108078Y-4098D01*
X108095D01*
X108113Y-4116D01*
X108201Y-4169D01*
X108307Y-4257D01*
X108412Y-4345D01*
X108430Y-4362D01*
X108500Y-4397D01*
X108553Y-4450D01*
X108623Y-4503D01*
X108641D01*
X108658Y-4538D01*
X108711Y-4608D01*
X108729D01*
X108746Y-4626D01*
X108817Y-4714D01*
X108834Y-4732D01*
X108852Y-4767D01*
X108887Y-4820D01*
X108940Y-4907D01*
X109010Y-5013D01*
X109080Y-5136D01*
X109151Y-5277D01*
X109221Y-5435D01*
X109239Y-5453D01*
X109256Y-5505D01*
X109292Y-5593D01*
X109327Y-5717D01*
X109362Y-5840D01*
X109379Y-5998D01*
X109415Y-6174D01*
Y-6367D01*
Y-6385D01*
Y-6438D01*
Y-6526D01*
X109397Y-6649D01*
X109379Y-6790D01*
X109362Y-6948D01*
X109327Y-7124D01*
X109274Y-7317D01*
X109151Y-7757D01*
X109063Y-7968D01*
X108957Y-8197D01*
X108834Y-8425D01*
X108676Y-8636D01*
X108518Y-8865D01*
X108324Y-9059D01*
X108307Y-9076D01*
X108271Y-9094D01*
X108219Y-9147D01*
X108131Y-9217D01*
X108025Y-9287D01*
X107884Y-9375D01*
X107744Y-9481D01*
X107568Y-9569D01*
X107374Y-9657D01*
X107163Y-9762D01*
X106952Y-9850D01*
X106706Y-9921D01*
X106442Y-9991D01*
X106160Y-10026D01*
X105861Y-10061D01*
X105562Y-10079D01*
X105211D01*
X105175Y-10061D01*
X105105Y-10044D01*
X105087Y-10026D01*
X105070Y-9956D01*
Y-9938D01*
X105087Y-9903D01*
X105105Y-9868D01*
X105158Y-9850D01*
X105175D01*
X105228Y-9833D01*
X105334Y-9815D01*
X105598D01*
X105686Y-9798D01*
X105773D01*
X105897Y-9780D01*
X106160Y-9727D01*
X106459Y-9639D01*
X106776Y-9516D01*
X107110Y-9340D01*
X107409Y-9094D01*
X107427Y-9076D01*
X107445Y-9059D01*
X107533Y-8953D01*
X107656Y-8795D01*
X107814Y-8584D01*
X107955Y-8320D01*
X108078Y-8003D01*
X108166Y-7651D01*
X108201Y-7458D01*
Y-7265D01*
Y-7247D01*
Y-7212D01*
Y-7159D01*
Y-7071D01*
X108183Y-6966D01*
X108166Y-6842D01*
X108148Y-6702D01*
X108131Y-6543D01*
Y-6526D01*
X108113Y-6455D01*
X108095Y-6367D01*
X108078Y-6244D01*
X108043Y-6103D01*
X107990Y-5945D01*
X107920Y-5769D01*
X107832Y-5593D01*
X107814Y-5558D01*
X107779Y-5488D01*
X107708Y-5365D01*
X107621Y-5224D01*
Y-5206D01*
X107603Y-5189D01*
X107533Y-5101D01*
X107445Y-4995D01*
X107321Y-4872D01*
X107304Y-4855D01*
X107251Y-4802D01*
X107181Y-4732D01*
X107093Y-4661D01*
X107075Y-4644D01*
X107022Y-4608D01*
X106952Y-4556D01*
X106882Y-4503D01*
X106864Y-4485D01*
X106794Y-4450D01*
X106706Y-4397D01*
X106583Y-4327D01*
X106442Y-4257D01*
X106284Y-4204D01*
X106125Y-4151D01*
X105949Y-4134D01*
X105932D01*
X105879Y-4116D01*
X105791D01*
X105703Y-4098D01*
X105474Y-4081D01*
X105052D01*
X104947Y-4098D01*
X104806Y-4116D01*
X104771D01*
X104701Y-4134D01*
X104613Y-4151D01*
X104507Y-4169D01*
X104472Y-4186D01*
X104454Y-4221D01*
X104419Y-4274D01*
Y-4292D01*
X104402Y-4327D01*
X104384Y-4380D01*
Y-4468D01*
Y-10888D01*
Y-10906D01*
Y-10941D01*
Y-10994D01*
Y-11082D01*
Y-11169D01*
Y-11293D01*
Y-11556D01*
Y-11873D01*
Y-12207D01*
Y-12559D01*
Y-12911D01*
Y-12928D01*
Y-12946D01*
Y-13052D01*
X104402Y-13210D01*
Y-13403D01*
X104419Y-13632D01*
X104437Y-13861D01*
X104454Y-14089D01*
X104472Y-14283D01*
Y-14300D01*
Y-14336D01*
X104490Y-14406D01*
Y-14494D01*
X104542Y-14670D01*
X104613Y-14863D01*
Y-14881D01*
X104630Y-14899D01*
X104718Y-14987D01*
X104771Y-15039D01*
X104859Y-15074D01*
X104947Y-15110D01*
X105070Y-15145D01*
X105087D01*
X105123Y-15162D01*
X105211Y-15180D01*
X105369D01*
X105422Y-15198D01*
X105510D01*
X105598Y-15215D01*
X105826D01*
X105861Y-15233D01*
X105879Y-15250D01*
X105897Y-15268D01*
Y-15303D01*
Y-15338D01*
X105861Y-15356D01*
X105826Y-15373D01*
X105791D01*
X105738Y-15391D01*
X105017D01*
X104841Y-15373D01*
X104349D01*
X104243Y-15356D01*
X103311D01*
X103135Y-15373D01*
X102748D01*
X102643Y-15391D01*
X102097D01*
X102044Y-15373D01*
X102027Y-15356D01*
X102009Y-15338D01*
X101992Y-15303D01*
Y-15285D01*
X102009Y-15250D01*
X102044Y-15233D01*
X102115Y-15215D01*
X102220D01*
X102255Y-15198D01*
X102361D01*
X102379Y-15180D01*
X102484D01*
X102502Y-15162D01*
X102572Y-15145D01*
X102590D01*
X102607Y-15127D01*
X102713Y-15092D01*
X102818Y-15004D01*
X102889Y-14863D01*
Y-14846D01*
X102906Y-14828D01*
X102924Y-14775D01*
X102942Y-14705D01*
X102994Y-14529D01*
X103030Y-14283D01*
Y-14265D01*
X103047Y-14195D01*
Y-14072D01*
X103065Y-13931D01*
X103082Y-13738D01*
Y-13491D01*
X103100Y-13228D01*
Y-12911D01*
Y-12893D01*
Y-12876D01*
Y-12823D01*
Y-12753D01*
Y-12559D01*
X103117Y-12313D01*
Y-12014D01*
Y-11680D01*
Y-11293D01*
Y-10888D01*
Y-8126D01*
Y-8109D01*
Y-8056D01*
Y-7968D01*
Y-7845D01*
Y-7704D01*
Y-7546D01*
Y-7176D01*
Y-6790D01*
Y-6403D01*
Y-6227D01*
Y-6051D01*
Y-5910D01*
Y-5787D01*
Y-5752D01*
Y-5681D01*
Y-5576D01*
Y-5435D01*
X103100Y-5119D01*
Y-4960D01*
X103082Y-4820D01*
Y-4802D01*
Y-4784D01*
Y-4767D01*
Y-4749D01*
Y-4696D01*
X103065Y-4626D01*
Y-4538D01*
X103012Y-4345D01*
X102977Y-4257D01*
X102924Y-4169D01*
Y-4151D01*
X102906Y-4134D01*
X102871Y-4098D01*
X102818Y-4045D01*
X102748Y-4010D01*
X102660Y-3958D01*
X102555Y-3922D01*
X102414Y-3887D01*
X102396D01*
X102379Y-3870D01*
X102255D01*
X102238Y-3852D01*
X102115D01*
X102097Y-3834D01*
X101851D01*
X101781Y-3817D01*
X101763Y-3799D01*
X101745Y-3746D01*
Y-3729D01*
Y-3694D01*
X101763Y-3658D01*
X101798Y-3641D01*
X101816D01*
X101851Y-3623D01*
X101921Y-3606D01*
X102607D01*
X102695Y-3623D01*
X103153D01*
X103258Y-3641D01*
X103399D01*
X103540Y-3658D01*
X104155D01*
X104261Y-3641D01*
X104419D01*
X104613Y-3623D01*
X105070D01*
X105175Y-3606D01*
X106037D01*
X106248Y-3623D01*
D02*
G37*
G36*
X136521Y-3430D02*
X136556Y-3447D01*
X136591Y-3518D01*
X136609Y-3535D01*
X136626Y-3588D01*
X136644Y-3694D01*
X136662Y-3834D01*
Y-3817D01*
X137717Y-13403D01*
Y-13439D01*
X137734Y-13509D01*
Y-13597D01*
X137752Y-13720D01*
Y-13738D01*
X137770Y-13808D01*
X137787Y-13914D01*
X137805Y-14019D01*
Y-14037D01*
X137822Y-14072D01*
X137840Y-14142D01*
X137858Y-14230D01*
X137928Y-14441D01*
X138034Y-14670D01*
X138051Y-14687D01*
X138069Y-14723D01*
X138174Y-14828D01*
X138333Y-14951D01*
X138561Y-15074D01*
X138579D01*
X138614Y-15092D01*
X138684Y-15110D01*
X138772Y-15127D01*
X138966Y-15162D01*
X139177Y-15198D01*
X139335D01*
X139458Y-15215D01*
X139634D01*
X139652Y-15233D01*
X139670D01*
X139687Y-15250D01*
Y-15285D01*
Y-15303D01*
X139670Y-15321D01*
X139652Y-15356D01*
X139599Y-15373D01*
X139546D01*
X139458Y-15391D01*
X139089D01*
X138966Y-15373D01*
X138315D01*
X137998Y-15356D01*
X136925D01*
X136767Y-15338D01*
X136732D01*
X136626Y-15321D01*
X136503Y-15285D01*
X136415Y-15268D01*
X136398D01*
X136380Y-15250D01*
X136345Y-15215D01*
X136327Y-15180D01*
Y-15162D01*
Y-15145D01*
X136345Y-15110D01*
X136363Y-15092D01*
X136398D01*
X136433Y-15074D01*
X136451Y-15057D01*
X136468Y-15022D01*
X136486Y-14969D01*
Y-14951D01*
X136503Y-14916D01*
Y-14846D01*
Y-14758D01*
Y-14740D01*
Y-14723D01*
Y-14635D01*
Y-14617D01*
Y-14600D01*
Y-14512D01*
X135747Y-6438D01*
X135694D01*
X131877Y-14547D01*
Y-14564D01*
X131842Y-14617D01*
X131807Y-14687D01*
X131772Y-14775D01*
X131684Y-14969D01*
X131631Y-15057D01*
X131596Y-15127D01*
X131578Y-15162D01*
X131543Y-15215D01*
X131508Y-15303D01*
X131455Y-15356D01*
X131297D01*
X131261Y-15338D01*
X131209Y-15303D01*
X131138Y-15215D01*
X131121Y-15180D01*
X131103Y-15145D01*
X131068Y-15092D01*
X131033Y-15004D01*
X130998Y-14916D01*
X130945Y-14811D01*
X130875Y-14670D01*
Y-14652D01*
X130857Y-14617D01*
X130822Y-14564D01*
X130787Y-14494D01*
X130734Y-14388D01*
X130663Y-14265D01*
X130593Y-14125D01*
X130505Y-13966D01*
X130488Y-13949D01*
X130470Y-13878D01*
X130417Y-13790D01*
X130364Y-13667D01*
X130276Y-13526D01*
X130206Y-13368D01*
X130013Y-12999D01*
X129995Y-12964D01*
X129960Y-12876D01*
X129889Y-12753D01*
X129801Y-12577D01*
X129696Y-12383D01*
X129590Y-12172D01*
X129362Y-11715D01*
X129344Y-11697D01*
X129326Y-11627D01*
X129274Y-11521D01*
X129221Y-11416D01*
X129168Y-11293D01*
X129115Y-11187D01*
X129063Y-11099D01*
X129045Y-11064D01*
X129027Y-11029D01*
X129010Y-10994D01*
X128975Y-10923D01*
X128940Y-10818D01*
X128869Y-10677D01*
X128781Y-10501D01*
X128676Y-10290D01*
X128658Y-10255D01*
X128623Y-10167D01*
X128570Y-10044D01*
X128482Y-9868D01*
X128377Y-9657D01*
X128271Y-9410D01*
X128148Y-9147D01*
X128007Y-8865D01*
Y-8848D01*
X127990Y-8830D01*
X127954Y-8742D01*
X127884Y-8584D01*
X127796Y-8390D01*
X127691Y-8179D01*
X127585Y-7933D01*
X127339Y-7440D01*
X127321Y-7405D01*
X127286Y-7335D01*
X127233Y-7212D01*
X127181Y-7089D01*
X127128Y-6948D01*
X127057Y-6807D01*
X127022Y-6702D01*
X126987Y-6614D01*
X126917Y-6596D01*
X126301Y-13843D01*
Y-13861D01*
Y-13931D01*
Y-14019D01*
X126284Y-14125D01*
Y-14142D01*
Y-14195D01*
Y-14283D01*
Y-14388D01*
Y-14424D01*
Y-14512D01*
Y-14529D01*
Y-14547D01*
Y-14652D01*
Y-14670D01*
X126301Y-14740D01*
X126336Y-14846D01*
X126389Y-14951D01*
X126407Y-14969D01*
X126477Y-15022D01*
X126565Y-15092D01*
X126688Y-15127D01*
X126723D01*
X126811Y-15162D01*
X126917Y-15180D01*
X127040Y-15198D01*
X127128D01*
X127216Y-15215D01*
X127304D01*
X127356Y-15233D01*
X127374D01*
X127392Y-15250D01*
X127409Y-15268D01*
Y-15285D01*
Y-15303D01*
Y-15321D01*
X127374Y-15356D01*
X127339Y-15373D01*
X127286D01*
X127216Y-15391D01*
X126706D01*
X126653Y-15373D01*
X126196D01*
X126108Y-15356D01*
X125263D01*
X125122Y-15373D01*
X124788D01*
X124700Y-15391D01*
X124225D01*
X124173Y-15373D01*
X124155D01*
X124137Y-15356D01*
X124120Y-15321D01*
X124102Y-15285D01*
Y-15268D01*
X124137Y-15233D01*
X124155D01*
X124173Y-15215D01*
X124489D01*
X124542Y-15198D01*
X124612Y-15180D01*
X124718Y-15162D01*
X124735D01*
X124771Y-15145D01*
X124841Y-15127D01*
X124911Y-15074D01*
X124999Y-15022D01*
X125070Y-14951D01*
X125140Y-14846D01*
X125193Y-14723D01*
Y-14705D01*
X125210Y-14652D01*
X125228Y-14582D01*
X125246Y-14476D01*
X125281Y-14371D01*
X125298Y-14230D01*
X125351Y-13931D01*
Y-13914D01*
Y-13896D01*
Y-13878D01*
Y-13861D01*
X126459Y-3676D01*
Y-3658D01*
X126477Y-3606D01*
X126530Y-3500D01*
X126547Y-3483D01*
X126565Y-3447D01*
X126600Y-3430D01*
X126635Y-3412D01*
X126670D01*
X126723Y-3447D01*
X126741Y-3465D01*
X126794Y-3518D01*
X126811Y-3535D01*
X126829Y-3571D01*
X126846Y-3588D01*
X126882Y-3641D01*
X131648Y-13456D01*
X136239Y-3641D01*
X136257Y-3623D01*
X136275Y-3588D01*
X136345Y-3483D01*
X136363Y-3465D01*
X136380Y-3447D01*
X136433Y-3430D01*
X136486Y-3412D01*
X136503D01*
X136521Y-3430D01*
D02*
G37*
G36*
X170856D02*
X170909Y-3465D01*
X170927Y-3483D01*
X170962Y-3518D01*
X171085Y-3623D01*
X171103Y-3641D01*
Y-3658D01*
X171120D01*
Y-3676D01*
X171138Y-3694D01*
X171156Y-3711D01*
X171226Y-3799D01*
X171244D01*
X171261Y-3834D01*
X171331Y-3887D01*
X171349Y-3905D01*
X171384Y-3940D01*
X171472Y-4045D01*
X171525Y-4116D01*
X171613Y-4186D01*
X171701Y-4292D01*
X171824Y-4433D01*
X171947Y-4573D01*
X172105Y-4749D01*
X172299Y-4943D01*
X172510Y-5171D01*
X172739Y-5435D01*
X173003Y-5717D01*
X173020Y-5734D01*
X173073Y-5787D01*
X173161Y-5875D01*
X173266Y-5998D01*
X173407Y-6139D01*
X173565Y-6332D01*
X173759Y-6526D01*
X173970Y-6754D01*
X174216Y-7018D01*
X174462Y-7282D01*
X174726Y-7581D01*
X175025Y-7880D01*
X175641Y-8549D01*
X176292Y-9252D01*
X176309Y-9270D01*
X176380Y-9340D01*
X176468Y-9446D01*
X176556Y-9551D01*
X176573Y-9569D01*
X176644Y-9639D01*
X176732Y-9727D01*
X176820Y-9833D01*
X176837D01*
X176855Y-9850D01*
X176908Y-9921D01*
X176925D01*
X176943Y-9956D01*
X177013Y-10008D01*
X177031Y-10026D01*
X177066Y-10061D01*
X177119Y-10114D01*
X177189Y-10184D01*
X177277Y-10290D01*
X177365Y-10396D01*
X177611Y-10659D01*
X177892Y-10976D01*
X178209Y-11328D01*
X178526Y-11680D01*
X178860Y-12049D01*
X178878Y-12066D01*
X178895Y-12084D01*
X178948Y-12137D01*
X179001Y-12207D01*
X179141Y-12366D01*
X179335Y-12559D01*
X179528Y-12770D01*
X179722Y-12981D01*
X179898Y-13175D01*
X180038Y-13315D01*
X179863Y-5382D01*
Y-5365D01*
Y-5347D01*
Y-5259D01*
X179845Y-5119D01*
Y-4960D01*
X179792Y-4626D01*
X179757Y-4450D01*
X179722Y-4327D01*
Y-4309D01*
X179704Y-4274D01*
X179616Y-4151D01*
X179564Y-4081D01*
X179476Y-4010D01*
X179370Y-3958D01*
X179247Y-3905D01*
X179229Y-3887D01*
X179001D01*
X178930Y-3870D01*
X178825Y-3852D01*
X178684D01*
X178631Y-3834D01*
X178455D01*
X178385Y-3799D01*
Y-3782D01*
X178367Y-3729D01*
Y-3711D01*
X178385Y-3676D01*
X178403Y-3641D01*
X178455Y-3623D01*
X178473D01*
X178526Y-3606D01*
X179124D01*
X179282Y-3623D01*
X179722D01*
X179827Y-3641D01*
X179950D01*
X180074Y-3658D01*
X180496D01*
X180566Y-3641D01*
X180672D01*
X180777Y-3623D01*
X181199D01*
X181305Y-3606D01*
X181762D01*
X181815Y-3623D01*
X181833D01*
X181868Y-3641D01*
X181885Y-3676D01*
X181903Y-3729D01*
Y-3746D01*
X181885Y-3764D01*
X181850Y-3799D01*
X181815Y-3817D01*
X181780Y-3834D01*
X181692D01*
X181586Y-3852D01*
X181534D01*
X181446Y-3870D01*
X181358Y-3887D01*
X181340D01*
X181305Y-3905D01*
X181235Y-3922D01*
X181147Y-3958D01*
X181076Y-4010D01*
X180988Y-4081D01*
X180918Y-4169D01*
X180865Y-4274D01*
Y-4292D01*
X180848Y-4327D01*
X180830Y-4397D01*
Y-4503D01*
X180813Y-4644D01*
X180795Y-4820D01*
X180777Y-5031D01*
Y-5277D01*
X180760Y-14406D01*
Y-14441D01*
Y-14529D01*
Y-14670D01*
Y-14828D01*
Y-14987D01*
X180742Y-15145D01*
Y-15268D01*
X180725Y-15356D01*
Y-15373D01*
X180707Y-15426D01*
X180672Y-15479D01*
X180619Y-15497D01*
X180601D01*
X180549Y-15479D01*
X180443Y-15426D01*
X180302Y-15338D01*
X180285Y-15321D01*
X180267Y-15303D01*
X180197Y-15250D01*
X180126Y-15162D01*
X180003Y-15057D01*
X179863Y-14916D01*
X179687Y-14740D01*
X179476Y-14529D01*
X179440Y-14494D01*
X179405Y-14459D01*
X179317Y-14371D01*
X179194Y-14248D01*
X179018Y-14072D01*
X178790Y-13843D01*
X178649Y-13702D01*
X178491Y-13544D01*
X178473Y-13526D01*
X178455Y-13509D01*
X178403Y-13456D01*
X178332Y-13386D01*
X178156Y-13192D01*
X177910Y-12946D01*
X177629Y-12647D01*
X177295Y-12313D01*
X176943Y-11943D01*
X176556Y-11539D01*
X176538Y-11521D01*
X176485Y-11468D01*
Y-11451D01*
X176468Y-11433D01*
X176415Y-11381D01*
X176397Y-11363D01*
X176362Y-11328D01*
X176309Y-11275D01*
X176257Y-11205D01*
X176081Y-11029D01*
X175887Y-10835D01*
X175870Y-10818D01*
X175852Y-10783D01*
X175799Y-10730D01*
X175729Y-10677D01*
X175571Y-10501D01*
X175395Y-10308D01*
X175377Y-10290D01*
X175360Y-10272D01*
Y-10255D01*
X175342D01*
X175324Y-10237D01*
X175289Y-10184D01*
X175201Y-10114D01*
X175113Y-10008D01*
X174990Y-9885D01*
X174849Y-9727D01*
X174691Y-9551D01*
X174515Y-9358D01*
X174146Y-8953D01*
X173724Y-8496D01*
X173284Y-8003D01*
X172844Y-7528D01*
X172827Y-7511D01*
X172791Y-7476D01*
X172739Y-7405D01*
X172668Y-7317D01*
X172457Y-7106D01*
X172229Y-6842D01*
X171965Y-6543D01*
X171718Y-6279D01*
X171507Y-6033D01*
X171402Y-5928D01*
X171332Y-5840D01*
X171331Y-5822D01*
Y-5840D01*
X171332Y-5840D01*
X171525Y-13298D01*
Y-13315D01*
Y-13333D01*
Y-13386D01*
Y-13456D01*
X171543Y-13632D01*
X171560Y-13826D01*
X171578Y-14054D01*
X171613Y-14283D01*
X171648Y-14476D01*
X171683Y-14652D01*
Y-14670D01*
X171718Y-14705D01*
X171754Y-14775D01*
X171789Y-14846D01*
X171930Y-15004D01*
X172035Y-15057D01*
X172141Y-15110D01*
X172158D01*
X172176Y-15127D01*
X172229Y-15145D01*
X172352D01*
X172422Y-15180D01*
X172545Y-15198D01*
X172668Y-15215D01*
X172985D01*
X173003Y-15233D01*
X173020Y-15250D01*
X173038Y-15303D01*
Y-15338D01*
X173003Y-15356D01*
X172967Y-15373D01*
X172915D01*
X172844Y-15391D01*
X172369D01*
X172158Y-15373D01*
X171613D01*
X171525Y-15356D01*
X170716D01*
X170575Y-15373D01*
X169959D01*
X169801Y-15391D01*
X169555D01*
X169432Y-15373D01*
X169414D01*
X169397Y-15356D01*
X169379Y-15338D01*
X169361Y-15303D01*
Y-15285D01*
Y-15268D01*
X169397Y-15233D01*
X169414Y-15215D01*
X169713D01*
X169783Y-15198D01*
X169854Y-15180D01*
X169959Y-15162D01*
X169977Y-15145D01*
X170047D01*
X170065Y-15127D01*
X170135Y-15110D01*
X170153D01*
X170188Y-15092D01*
X170223Y-15057D01*
X170294Y-15022D01*
X170346Y-14951D01*
X170417Y-14863D01*
X170469Y-14758D01*
X170505Y-14617D01*
Y-14600D01*
X170522Y-14529D01*
X170540Y-14424D01*
X170557Y-14265D01*
Y-14072D01*
X170575Y-13808D01*
X170593Y-13491D01*
Y-13122D01*
X170610Y-4169D01*
Y-4151D01*
Y-4098D01*
Y-4028D01*
Y-3922D01*
X170628Y-3729D01*
Y-3641D01*
X170645Y-3571D01*
Y-3535D01*
X170681Y-3483D01*
X170716Y-3430D01*
X170786Y-3395D01*
X170821D01*
X170856Y-3430D01*
D02*
G37*
G36*
X159929Y-22085D02*
X159999Y-22090D01*
X160073Y-22099D01*
X160146Y-22108D01*
X160220Y-22122D01*
X160230D01*
X160253Y-22131D01*
X160285Y-22136D01*
X160327Y-22150D01*
X160419Y-22173D01*
X160461Y-22192D01*
X160498Y-22205D01*
X160359Y-22737D01*
X160354D01*
X160341Y-22727D01*
X160318Y-22723D01*
X160290Y-22714D01*
X160257Y-22700D01*
X160216Y-22686D01*
X160170Y-22677D01*
X160119Y-22663D01*
X160114D01*
X160096Y-22658D01*
X160068Y-22649D01*
X160031Y-22644D01*
X159980Y-22635D01*
X159929Y-22630D01*
X159865Y-22626D01*
X159768D01*
X159731Y-22630D01*
X159680Y-22635D01*
X159625Y-22640D01*
X159564Y-22654D01*
X159500Y-22667D01*
X159435Y-22691D01*
X159426Y-22695D01*
X159407Y-22700D01*
X159375Y-22714D01*
X159333Y-22737D01*
X159287Y-22760D01*
X159236Y-22792D01*
X159190Y-22829D01*
X159139Y-22871D01*
X159135Y-22875D01*
X159121Y-22889D01*
X159098Y-22917D01*
X159070Y-22949D01*
X159038Y-22995D01*
X159005Y-23046D01*
X158968Y-23106D01*
X158941Y-23171D01*
X158936Y-23180D01*
X158932Y-23203D01*
X158918Y-23240D01*
X158908Y-23291D01*
X158895Y-23356D01*
X158881Y-23425D01*
X158876Y-23508D01*
X158871Y-23596D01*
Y-23601D01*
Y-23614D01*
Y-23638D01*
X158876Y-23670D01*
X158881Y-23707D01*
X158885Y-23748D01*
X158890Y-23795D01*
X158904Y-23845D01*
X158932Y-23956D01*
X158973Y-24072D01*
X159001Y-24132D01*
X159038Y-24187D01*
X159075Y-24238D01*
X159116Y-24289D01*
X159121Y-24294D01*
X159125Y-24298D01*
X159144Y-24312D01*
X159162Y-24330D01*
X159186Y-24349D01*
X159218Y-24367D01*
X159255Y-24391D01*
X159296Y-24414D01*
X159343Y-24441D01*
X159394Y-24464D01*
X159449Y-24483D01*
X159509Y-24501D01*
X159578Y-24520D01*
X159648Y-24534D01*
X159726Y-24539D01*
X159805Y-24543D01*
X159860D01*
X159902Y-24539D01*
X159948D01*
X159999Y-24534D01*
X160110Y-24520D01*
X160114D01*
X160137Y-24515D01*
X160165Y-24511D01*
X160197Y-24501D01*
X160239Y-24492D01*
X160281Y-24478D01*
X160322Y-24464D01*
X160364Y-24451D01*
X160456Y-24973D01*
X160451D01*
X160442Y-24982D01*
X160419Y-24991D01*
X160391Y-25001D01*
X160350Y-25014D01*
X160304Y-25028D01*
X160243Y-25042D01*
X160174Y-25056D01*
X160165D01*
X160137Y-25060D01*
X160096Y-25070D01*
X160040Y-25074D01*
X159971Y-25084D01*
X159892Y-25093D01*
X159805Y-25098D01*
X159643D01*
X159611Y-25093D01*
X159574D01*
X159527Y-25088D01*
X159481Y-25084D01*
X159380Y-25070D01*
X159264Y-25051D01*
X159149Y-25024D01*
X159038Y-24987D01*
X159033D01*
X159024Y-24982D01*
X159010Y-24973D01*
X158992Y-24968D01*
X158936Y-24940D01*
X158871Y-24908D01*
X158793Y-24862D01*
X158714Y-24811D01*
X158636Y-24751D01*
X158557Y-24682D01*
Y-24677D01*
X158548Y-24672D01*
X158525Y-24645D01*
X158493Y-24603D01*
X158451Y-24548D01*
X158405Y-24478D01*
X158359Y-24400D01*
X158312Y-24312D01*
X158271Y-24215D01*
Y-24210D01*
X158266Y-24201D01*
X158262Y-24187D01*
X158257Y-24169D01*
X158248Y-24141D01*
X158238Y-24113D01*
X158225Y-24039D01*
X158206Y-23952D01*
X158188Y-23850D01*
X158178Y-23744D01*
X158174Y-23628D01*
Y-23624D01*
Y-23610D01*
Y-23591D01*
Y-23564D01*
X158178Y-23531D01*
Y-23494D01*
X158183Y-23453D01*
X158188Y-23406D01*
X158206Y-23305D01*
X158225Y-23194D01*
X158257Y-23078D01*
X158299Y-22968D01*
Y-22963D01*
X158303Y-22954D01*
X158312Y-22940D01*
X158322Y-22917D01*
X158349Y-22866D01*
X158386Y-22797D01*
X158437Y-22723D01*
X158497Y-22640D01*
X158562Y-22561D01*
X158640Y-22483D01*
X158645Y-22478D01*
X158650Y-22473D01*
X158663Y-22464D01*
X158677Y-22450D01*
X158724Y-22418D01*
X158784Y-22372D01*
X158862Y-22325D01*
X158945Y-22275D01*
X159042Y-22229D01*
X159149Y-22187D01*
X159153D01*
X159162Y-22182D01*
X159176Y-22178D01*
X159199Y-22168D01*
X159227Y-22164D01*
X159259Y-22154D01*
X159296Y-22145D01*
X159338Y-22131D01*
X159430Y-22113D01*
X159537Y-22099D01*
X159652Y-22085D01*
X159772Y-22081D01*
X159865D01*
X159929Y-22085D01*
D02*
G37*
G36*
X180992Y-22085D02*
X181057Y-22090D01*
X181131Y-22099D01*
X181204Y-22113D01*
X181274Y-22127D01*
X181283D01*
X181306Y-22136D01*
X181339Y-22145D01*
X181385Y-22154D01*
X181431Y-22168D01*
X181486Y-22187D01*
X181542Y-22205D01*
X181593Y-22228D01*
X181445Y-22764D01*
X181440D01*
X181431Y-22755D01*
X181408Y-22746D01*
X181380Y-22737D01*
X181348Y-22723D01*
X181306Y-22704D01*
X181255Y-22690D01*
X181200Y-22672D01*
X181195Y-22667D01*
X181172Y-22663D01*
X181140Y-22654D01*
X181098Y-22644D01*
X181043Y-22635D01*
X180983Y-22630D01*
X180913Y-22621D01*
X180798D01*
X180761Y-22626D01*
X180715Y-22630D01*
X180659Y-22644D01*
X180608Y-22658D01*
X180558Y-22681D01*
X180511Y-22709D01*
X180507Y-22714D01*
X180498Y-22723D01*
X180479Y-22741D01*
X180461Y-22764D01*
X180442Y-22792D01*
X180424Y-22829D01*
X180414Y-22866D01*
X180410Y-22908D01*
Y-22912D01*
Y-22917D01*
X180414Y-22949D01*
X180424Y-22991D01*
X180438Y-23032D01*
X180442Y-23042D01*
X180461Y-23065D01*
X180493Y-23092D01*
X180535Y-23129D01*
X180539D01*
X180548Y-23139D01*
X180562Y-23148D01*
X180581Y-23157D01*
X180608Y-23171D01*
X180636Y-23189D01*
X180705Y-23222D01*
X180710D01*
X180724Y-23231D01*
X180747Y-23240D01*
X180775Y-23249D01*
X180812Y-23263D01*
X180853Y-23282D01*
X180900Y-23300D01*
X180950Y-23319D01*
X180955D01*
X180969Y-23323D01*
X180987Y-23333D01*
X181015Y-23347D01*
X181047Y-23360D01*
X181084Y-23374D01*
X181172Y-23416D01*
X181264Y-23467D01*
X181362Y-23527D01*
X181449Y-23596D01*
X181491Y-23633D01*
X181528Y-23670D01*
X181537Y-23679D01*
X181556Y-23707D01*
X181588Y-23753D01*
X181620Y-23813D01*
X181653Y-23887D01*
X181685Y-23979D01*
X181703Y-24081D01*
X181713Y-24192D01*
Y-24201D01*
Y-24224D01*
X181708Y-24257D01*
X181703Y-24303D01*
X181694Y-24354D01*
X181680Y-24414D01*
X181662Y-24474D01*
X181639Y-24538D01*
X181634Y-24548D01*
X181625Y-24566D01*
X181606Y-24599D01*
X181583Y-24635D01*
X181551Y-24682D01*
X181514Y-24733D01*
X181468Y-24783D01*
X181417Y-24829D01*
X181412Y-24834D01*
X181389Y-24848D01*
X181362Y-24871D01*
X181320Y-24899D01*
X181264Y-24931D01*
X181204Y-24963D01*
X181131Y-25000D01*
X181052Y-25028D01*
X181047D01*
X181043Y-25033D01*
X181029D01*
X181015Y-25037D01*
X180964Y-25051D01*
X180904Y-25060D01*
X180826Y-25074D01*
X180738Y-25088D01*
X180641Y-25093D01*
X180530Y-25098D01*
X180488D01*
X180438Y-25093D01*
X180377Y-25088D01*
X180304Y-25084D01*
X180225Y-25074D01*
X180142Y-25060D01*
X180054Y-25042D01*
X180050D01*
X180045Y-25037D01*
X180017Y-25033D01*
X179976Y-25019D01*
X179925Y-25005D01*
X179869Y-24987D01*
X179809Y-24968D01*
X179749Y-24940D01*
X179698Y-24917D01*
X179837Y-24372D01*
X179842Y-24377D01*
X179860Y-24381D01*
X179888Y-24395D01*
X179925Y-24414D01*
X179971Y-24432D01*
X180026Y-24455D01*
X180091Y-24474D01*
X180160Y-24497D01*
X180170D01*
X180193Y-24506D01*
X180234Y-24515D01*
X180285Y-24525D01*
X180350Y-24534D01*
X180419Y-24543D01*
X180493Y-24548D01*
X180571Y-24552D01*
X180608D01*
X180650Y-24548D01*
X180701Y-24543D01*
X180756Y-24534D01*
X180816Y-24515D01*
X180872Y-24497D01*
X180918Y-24469D01*
X180923Y-24464D01*
X180937Y-24455D01*
X180955Y-24432D01*
X180978Y-24409D01*
X181001Y-24372D01*
X181020Y-24335D01*
X181034Y-24289D01*
X181038Y-24238D01*
Y-24234D01*
Y-24215D01*
X181034Y-24187D01*
X181024Y-24160D01*
X181010Y-24123D01*
X180987Y-24086D01*
X180960Y-24049D01*
X180923Y-24012D01*
X180918Y-24007D01*
X180900Y-23998D01*
X180872Y-23979D01*
X180830Y-23952D01*
X180779Y-23924D01*
X180715Y-23896D01*
X180636Y-23859D01*
X180544Y-23827D01*
X180539D01*
X180530Y-23822D01*
X180507Y-23813D01*
X180484Y-23804D01*
X180451Y-23790D01*
X180419Y-23776D01*
X180336Y-23735D01*
X180239Y-23688D01*
X180142Y-23628D01*
X180045Y-23564D01*
X179957Y-23490D01*
X179953Y-23485D01*
X179948Y-23481D01*
X179925Y-23453D01*
X179888Y-23406D01*
X179846Y-23347D01*
X179805Y-23268D01*
X179772Y-23176D01*
X179745Y-23074D01*
X179740Y-23019D01*
X179735Y-22958D01*
Y-22949D01*
Y-22926D01*
X179740Y-22889D01*
X179745Y-22848D01*
X179754Y-22792D01*
X179768Y-22732D01*
X179786Y-22672D01*
X179809Y-22612D01*
X179814Y-22603D01*
X179823Y-22584D01*
X179842Y-22557D01*
X179865Y-22515D01*
X179897Y-22473D01*
X179934Y-22427D01*
X179976Y-22381D01*
X180026Y-22335D01*
X180031Y-22330D01*
X180054Y-22316D01*
X180082Y-22293D01*
X180128Y-22270D01*
X180179Y-22238D01*
X180239Y-22210D01*
X180304Y-22178D01*
X180377Y-22150D01*
X180382D01*
X180387Y-22145D01*
X180414Y-22141D01*
X180456Y-22127D01*
X180516Y-22113D01*
X180581Y-22104D01*
X180664Y-22090D01*
X180752Y-22085D01*
X180844Y-22081D01*
X180932D01*
X180992Y-22085D01*
D02*
G37*
G36*
X170250Y-22085D02*
X170315Y-22090D01*
X170389Y-22099D01*
X170463Y-22113D01*
X170532Y-22127D01*
X170542D01*
X170565Y-22136D01*
X170597Y-22145D01*
X170643Y-22154D01*
X170689Y-22168D01*
X170745Y-22187D01*
X170800Y-22205D01*
X170851Y-22229D01*
X170703Y-22764D01*
X170699D01*
X170689Y-22755D01*
X170666Y-22746D01*
X170639Y-22737D01*
X170606Y-22723D01*
X170565Y-22704D01*
X170514Y-22691D01*
X170458Y-22672D01*
X170454Y-22667D01*
X170431Y-22663D01*
X170398Y-22654D01*
X170357Y-22644D01*
X170301Y-22635D01*
X170241Y-22630D01*
X170172Y-22621D01*
X170056D01*
X170019Y-22626D01*
X169973Y-22630D01*
X169918Y-22644D01*
X169867Y-22658D01*
X169816Y-22681D01*
X169770Y-22709D01*
X169765Y-22714D01*
X169756Y-22723D01*
X169738Y-22741D01*
X169719Y-22764D01*
X169701Y-22792D01*
X169682Y-22829D01*
X169673Y-22866D01*
X169668Y-22908D01*
Y-22912D01*
Y-22917D01*
X169673Y-22949D01*
X169682Y-22991D01*
X169696Y-23032D01*
X169701Y-23042D01*
X169719Y-23065D01*
X169752Y-23092D01*
X169793Y-23129D01*
X169798D01*
X169807Y-23139D01*
X169821Y-23148D01*
X169839Y-23157D01*
X169867Y-23171D01*
X169895Y-23189D01*
X169964Y-23222D01*
X169969D01*
X169983Y-23231D01*
X170006Y-23240D01*
X170033Y-23249D01*
X170070Y-23263D01*
X170112Y-23282D01*
X170158Y-23300D01*
X170209Y-23319D01*
X170213D01*
X170227Y-23323D01*
X170246Y-23333D01*
X170274Y-23347D01*
X170306Y-23360D01*
X170343Y-23374D01*
X170431Y-23416D01*
X170523Y-23467D01*
X170620Y-23527D01*
X170708Y-23596D01*
X170749Y-23633D01*
X170786Y-23670D01*
X170796Y-23679D01*
X170814Y-23707D01*
X170846Y-23753D01*
X170879Y-23813D01*
X170911Y-23887D01*
X170943Y-23979D01*
X170962Y-24081D01*
X170971Y-24192D01*
Y-24201D01*
Y-24224D01*
X170967Y-24257D01*
X170962Y-24303D01*
X170953Y-24354D01*
X170939Y-24414D01*
X170920Y-24474D01*
X170897Y-24539D01*
X170893Y-24548D01*
X170883Y-24566D01*
X170865Y-24599D01*
X170842Y-24635D01*
X170809Y-24682D01*
X170773Y-24733D01*
X170726Y-24783D01*
X170676Y-24829D01*
X170671Y-24834D01*
X170648Y-24848D01*
X170620Y-24871D01*
X170579Y-24899D01*
X170523Y-24931D01*
X170463Y-24963D01*
X170389Y-25001D01*
X170310Y-25028D01*
X170306D01*
X170301Y-25033D01*
X170287D01*
X170274Y-25037D01*
X170223Y-25051D01*
X170163Y-25060D01*
X170084Y-25074D01*
X169996Y-25088D01*
X169899Y-25093D01*
X169789Y-25098D01*
X169747D01*
X169696Y-25093D01*
X169636Y-25088D01*
X169562Y-25084D01*
X169483Y-25074D01*
X169400Y-25060D01*
X169313Y-25042D01*
X169308D01*
X169303Y-25037D01*
X169276Y-25033D01*
X169234Y-25019D01*
X169183Y-25005D01*
X169128Y-24987D01*
X169068Y-24968D01*
X169008Y-24940D01*
X168957Y-24917D01*
X169096Y-24372D01*
X169100Y-24377D01*
X169119Y-24381D01*
X169146Y-24395D01*
X169183Y-24414D01*
X169229Y-24432D01*
X169285Y-24455D01*
X169350Y-24474D01*
X169419Y-24497D01*
X169428D01*
X169451Y-24506D01*
X169493Y-24515D01*
X169544Y-24525D01*
X169608Y-24534D01*
X169678Y-24543D01*
X169752Y-24548D01*
X169830Y-24552D01*
X169867D01*
X169909Y-24548D01*
X169959Y-24543D01*
X170015Y-24534D01*
X170075Y-24515D01*
X170130Y-24497D01*
X170176Y-24469D01*
X170181Y-24464D01*
X170195Y-24455D01*
X170213Y-24432D01*
X170237Y-24409D01*
X170260Y-24372D01*
X170278Y-24335D01*
X170292Y-24289D01*
X170297Y-24238D01*
Y-24234D01*
Y-24215D01*
X170292Y-24187D01*
X170283Y-24160D01*
X170269Y-24123D01*
X170246Y-24086D01*
X170218Y-24049D01*
X170181Y-24012D01*
X170176Y-24007D01*
X170158Y-23998D01*
X170130Y-23979D01*
X170089Y-23952D01*
X170038Y-23924D01*
X169973Y-23896D01*
X169895Y-23859D01*
X169802Y-23827D01*
X169798D01*
X169789Y-23822D01*
X169765Y-23813D01*
X169742Y-23804D01*
X169710Y-23790D01*
X169678Y-23776D01*
X169594Y-23735D01*
X169497Y-23688D01*
X169400Y-23628D01*
X169303Y-23564D01*
X169216Y-23490D01*
X169211Y-23485D01*
X169206Y-23481D01*
X169183Y-23453D01*
X169146Y-23406D01*
X169105Y-23347D01*
X169063Y-23268D01*
X169031Y-23176D01*
X169003Y-23074D01*
X168998Y-23019D01*
X168994Y-22958D01*
Y-22949D01*
Y-22926D01*
X168998Y-22889D01*
X169003Y-22848D01*
X169012Y-22792D01*
X169026Y-22732D01*
X169045Y-22672D01*
X169068Y-22612D01*
X169072Y-22603D01*
X169082Y-22584D01*
X169100Y-22557D01*
X169123Y-22515D01*
X169156Y-22473D01*
X169193Y-22427D01*
X169234Y-22381D01*
X169285Y-22335D01*
X169290Y-22330D01*
X169313Y-22316D01*
X169340Y-22293D01*
X169386Y-22270D01*
X169437Y-22238D01*
X169497Y-22210D01*
X169562Y-22178D01*
X169636Y-22150D01*
X169641D01*
X169645Y-22145D01*
X169673Y-22141D01*
X169714Y-22127D01*
X169775Y-22113D01*
X169839Y-22104D01*
X169922Y-22090D01*
X170010Y-22085D01*
X170103Y-22081D01*
X170190D01*
X170250Y-22085D01*
D02*
G37*
G36*
X165275D02*
X165339Y-22090D01*
X165413Y-22099D01*
X165487Y-22113D01*
X165557Y-22127D01*
X165566D01*
X165589Y-22136D01*
X165621Y-22145D01*
X165667Y-22154D01*
X165714Y-22168D01*
X165769Y-22187D01*
X165824Y-22205D01*
X165875Y-22229D01*
X165727Y-22764D01*
X165723D01*
X165714Y-22755D01*
X165691Y-22746D01*
X165663Y-22737D01*
X165630Y-22723D01*
X165589Y-22704D01*
X165538Y-22691D01*
X165483Y-22672D01*
X165478Y-22667D01*
X165455Y-22663D01*
X165423Y-22654D01*
X165381Y-22644D01*
X165325Y-22635D01*
X165266Y-22630D01*
X165196Y-22621D01*
X165081D01*
X165044Y-22626D01*
X164997Y-22630D01*
X164942Y-22644D01*
X164891Y-22658D01*
X164840Y-22681D01*
X164794Y-22709D01*
X164790Y-22714D01*
X164780Y-22723D01*
X164762Y-22741D01*
X164743Y-22764D01*
X164725Y-22792D01*
X164707Y-22829D01*
X164697Y-22866D01*
X164693Y-22908D01*
Y-22912D01*
Y-22917D01*
X164697Y-22949D01*
X164707Y-22991D01*
X164720Y-23032D01*
X164725Y-23042D01*
X164743Y-23065D01*
X164776Y-23092D01*
X164817Y-23129D01*
X164822D01*
X164831Y-23139D01*
X164845Y-23148D01*
X164864Y-23157D01*
X164891Y-23171D01*
X164919Y-23189D01*
X164988Y-23222D01*
X164993D01*
X165007Y-23231D01*
X165030Y-23240D01*
X165058Y-23249D01*
X165094Y-23263D01*
X165136Y-23282D01*
X165182Y-23300D01*
X165233Y-23319D01*
X165238D01*
X165252Y-23323D01*
X165270Y-23333D01*
X165298Y-23347D01*
X165330Y-23360D01*
X165367Y-23374D01*
X165455Y-23416D01*
X165547Y-23467D01*
X165644Y-23527D01*
X165732Y-23596D01*
X165774Y-23633D01*
X165811Y-23670D01*
X165820Y-23679D01*
X165838Y-23707D01*
X165871Y-23753D01*
X165903Y-23813D01*
X165935Y-23887D01*
X165968Y-23979D01*
X165986Y-24081D01*
X165995Y-24192D01*
Y-24201D01*
Y-24224D01*
X165991Y-24257D01*
X165986Y-24303D01*
X165977Y-24354D01*
X165963Y-24414D01*
X165945Y-24474D01*
X165921Y-24539D01*
X165917Y-24548D01*
X165908Y-24566D01*
X165889Y-24599D01*
X165866Y-24635D01*
X165834Y-24682D01*
X165797Y-24733D01*
X165751Y-24783D01*
X165700Y-24829D01*
X165695Y-24834D01*
X165672Y-24848D01*
X165644Y-24871D01*
X165603Y-24899D01*
X165547Y-24931D01*
X165487Y-24963D01*
X165413Y-25001D01*
X165335Y-25028D01*
X165330D01*
X165325Y-25033D01*
X165312D01*
X165298Y-25037D01*
X165247Y-25051D01*
X165187Y-25060D01*
X165108Y-25074D01*
X165021Y-25088D01*
X164924Y-25093D01*
X164813Y-25098D01*
X164771D01*
X164720Y-25093D01*
X164660Y-25088D01*
X164586Y-25084D01*
X164508Y-25074D01*
X164425Y-25060D01*
X164337Y-25042D01*
X164332D01*
X164328Y-25037D01*
X164300Y-25033D01*
X164258Y-25019D01*
X164207Y-25005D01*
X164152Y-24987D01*
X164092Y-24968D01*
X164032Y-24940D01*
X163981Y-24917D01*
X164120Y-24372D01*
X164124Y-24377D01*
X164143Y-24381D01*
X164171Y-24395D01*
X164207Y-24414D01*
X164254Y-24432D01*
X164309Y-24455D01*
X164374Y-24474D01*
X164443Y-24497D01*
X164452D01*
X164476Y-24506D01*
X164517Y-24515D01*
X164568Y-24525D01*
X164632Y-24534D01*
X164702Y-24543D01*
X164776Y-24548D01*
X164854Y-24552D01*
X164891D01*
X164933Y-24548D01*
X164984Y-24543D01*
X165039Y-24534D01*
X165099Y-24515D01*
X165155Y-24497D01*
X165201Y-24469D01*
X165205Y-24464D01*
X165219Y-24455D01*
X165238Y-24432D01*
X165261Y-24409D01*
X165284Y-24372D01*
X165302Y-24335D01*
X165316Y-24289D01*
X165321Y-24238D01*
Y-24234D01*
Y-24215D01*
X165316Y-24187D01*
X165307Y-24160D01*
X165293Y-24123D01*
X165270Y-24086D01*
X165242Y-24049D01*
X165205Y-24012D01*
X165201Y-24007D01*
X165182Y-23998D01*
X165155Y-23979D01*
X165113Y-23952D01*
X165062Y-23924D01*
X164997Y-23896D01*
X164919Y-23859D01*
X164827Y-23827D01*
X164822D01*
X164813Y-23822D01*
X164790Y-23813D01*
X164767Y-23804D01*
X164734Y-23790D01*
X164702Y-23776D01*
X164619Y-23735D01*
X164522Y-23688D01*
X164425Y-23628D01*
X164328Y-23564D01*
X164240Y-23490D01*
X164235Y-23485D01*
X164231Y-23481D01*
X164207Y-23453D01*
X164171Y-23406D01*
X164129Y-23347D01*
X164087Y-23268D01*
X164055Y-23176D01*
X164027Y-23074D01*
X164023Y-23019D01*
X164018Y-22958D01*
Y-22949D01*
Y-22926D01*
X164023Y-22889D01*
X164027Y-22848D01*
X164037Y-22792D01*
X164050Y-22732D01*
X164069Y-22672D01*
X164092Y-22612D01*
X164097Y-22603D01*
X164106Y-22584D01*
X164124Y-22557D01*
X164147Y-22515D01*
X164180Y-22473D01*
X164217Y-22427D01*
X164258Y-22381D01*
X164309Y-22335D01*
X164314Y-22330D01*
X164337Y-22316D01*
X164365Y-22293D01*
X164411Y-22270D01*
X164462Y-22238D01*
X164522Y-22210D01*
X164586Y-22178D01*
X164660Y-22150D01*
X164665D01*
X164670Y-22145D01*
X164697Y-22141D01*
X164739Y-22127D01*
X164799Y-22113D01*
X164864Y-22104D01*
X164947Y-22090D01*
X165034Y-22085D01*
X165127Y-22081D01*
X165215D01*
X165275Y-22085D01*
D02*
G37*
G36*
X151752D02*
X151817Y-22090D01*
X151891Y-22099D01*
X151964Y-22113D01*
X152034Y-22127D01*
X152043D01*
X152066Y-22136D01*
X152099Y-22145D01*
X152145Y-22154D01*
X152191Y-22168D01*
X152246Y-22187D01*
X152302Y-22205D01*
X152353Y-22229D01*
X152205Y-22764D01*
X152200D01*
X152191Y-22755D01*
X152168Y-22746D01*
X152140Y-22737D01*
X152108Y-22723D01*
X152066Y-22704D01*
X152015Y-22691D01*
X151960Y-22672D01*
X151955Y-22667D01*
X151932Y-22663D01*
X151900Y-22654D01*
X151858Y-22644D01*
X151803Y-22635D01*
X151743Y-22630D01*
X151673Y-22621D01*
X151558D01*
X151521Y-22626D01*
X151475Y-22630D01*
X151419Y-22644D01*
X151368Y-22658D01*
X151318Y-22681D01*
X151271Y-22709D01*
X151267Y-22714D01*
X151258Y-22723D01*
X151239Y-22741D01*
X151221Y-22764D01*
X151202Y-22792D01*
X151184Y-22829D01*
X151174Y-22866D01*
X151170Y-22908D01*
Y-22912D01*
Y-22917D01*
X151174Y-22949D01*
X151184Y-22991D01*
X151198Y-23032D01*
X151202Y-23042D01*
X151221Y-23065D01*
X151253Y-23092D01*
X151295Y-23129D01*
X151299D01*
X151309Y-23139D01*
X151322Y-23148D01*
X151341Y-23157D01*
X151368Y-23171D01*
X151396Y-23189D01*
X151465Y-23222D01*
X151470D01*
X151484Y-23231D01*
X151507Y-23240D01*
X151535Y-23249D01*
X151572Y-23263D01*
X151613Y-23282D01*
X151660Y-23300D01*
X151710Y-23319D01*
X151715D01*
X151729Y-23323D01*
X151747Y-23333D01*
X151775Y-23347D01*
X151807Y-23360D01*
X151844Y-23374D01*
X151932Y-23416D01*
X152025Y-23467D01*
X152122Y-23527D01*
X152209Y-23596D01*
X152251Y-23633D01*
X152288Y-23670D01*
X152297Y-23679D01*
X152316Y-23707D01*
X152348Y-23753D01*
X152380Y-23813D01*
X152413Y-23887D01*
X152445Y-23979D01*
X152463Y-24081D01*
X152473Y-24192D01*
Y-24201D01*
Y-24224D01*
X152468Y-24257D01*
X152463Y-24303D01*
X152454Y-24354D01*
X152440Y-24414D01*
X152422Y-24474D01*
X152399Y-24539D01*
X152394Y-24548D01*
X152385Y-24566D01*
X152366Y-24599D01*
X152343Y-24635D01*
X152311Y-24682D01*
X152274Y-24733D01*
X152228Y-24783D01*
X152177Y-24829D01*
X152172Y-24834D01*
X152149Y-24848D01*
X152122Y-24871D01*
X152080Y-24899D01*
X152025Y-24931D01*
X151964Y-24963D01*
X151891Y-25001D01*
X151812Y-25028D01*
X151807D01*
X151803Y-25033D01*
X151789D01*
X151775Y-25037D01*
X151724Y-25051D01*
X151664Y-25060D01*
X151586Y-25074D01*
X151498Y-25088D01*
X151401Y-25093D01*
X151290Y-25098D01*
X151248D01*
X151198Y-25093D01*
X151137Y-25088D01*
X151064Y-25084D01*
X150985Y-25074D01*
X150902Y-25060D01*
X150814Y-25042D01*
X150810D01*
X150805Y-25037D01*
X150777Y-25033D01*
X150736Y-25019D01*
X150685Y-25005D01*
X150629Y-24987D01*
X150569Y-24968D01*
X150509Y-24940D01*
X150458Y-24917D01*
X150597Y-24372D01*
X150602Y-24377D01*
X150620Y-24381D01*
X150648Y-24395D01*
X150685Y-24414D01*
X150731Y-24432D01*
X150786Y-24455D01*
X150851Y-24474D01*
X150920Y-24497D01*
X150930D01*
X150953Y-24506D01*
X150994Y-24515D01*
X151045Y-24525D01*
X151110Y-24534D01*
X151179Y-24543D01*
X151253Y-24548D01*
X151332Y-24552D01*
X151368D01*
X151410Y-24548D01*
X151461Y-24543D01*
X151516Y-24534D01*
X151576Y-24515D01*
X151632Y-24497D01*
X151678Y-24469D01*
X151683Y-24464D01*
X151697Y-24455D01*
X151715Y-24432D01*
X151738Y-24409D01*
X151761Y-24372D01*
X151780Y-24335D01*
X151794Y-24289D01*
X151798Y-24238D01*
Y-24234D01*
Y-24215D01*
X151794Y-24187D01*
X151784Y-24160D01*
X151770Y-24123D01*
X151747Y-24086D01*
X151720Y-24049D01*
X151683Y-24012D01*
X151678Y-24007D01*
X151660Y-23998D01*
X151632Y-23979D01*
X151590Y-23952D01*
X151540Y-23924D01*
X151475Y-23896D01*
X151396Y-23859D01*
X151304Y-23827D01*
X151299D01*
X151290Y-23822D01*
X151267Y-23813D01*
X151244Y-23804D01*
X151211Y-23790D01*
X151179Y-23776D01*
X151096Y-23735D01*
X150999Y-23688D01*
X150902Y-23628D01*
X150805Y-23564D01*
X150717Y-23490D01*
X150713Y-23485D01*
X150708Y-23481D01*
X150685Y-23453D01*
X150648Y-23406D01*
X150606Y-23347D01*
X150565Y-23268D01*
X150532Y-23176D01*
X150505Y-23074D01*
X150500Y-23019D01*
X150495Y-22958D01*
Y-22949D01*
Y-22926D01*
X150500Y-22889D01*
X150505Y-22848D01*
X150514Y-22792D01*
X150528Y-22732D01*
X150546Y-22672D01*
X150569Y-22612D01*
X150574Y-22603D01*
X150583Y-22584D01*
X150602Y-22557D01*
X150625Y-22515D01*
X150657Y-22473D01*
X150694Y-22427D01*
X150736Y-22381D01*
X150786Y-22335D01*
X150791Y-22330D01*
X150814Y-22316D01*
X150842Y-22293D01*
X150888Y-22270D01*
X150939Y-22238D01*
X150999Y-22210D01*
X151064Y-22178D01*
X151137Y-22150D01*
X151142D01*
X151147Y-22145D01*
X151174Y-22141D01*
X151216Y-22127D01*
X151276Y-22113D01*
X151341Y-22104D01*
X151424Y-22090D01*
X151512Y-22085D01*
X151604Y-22081D01*
X151692D01*
X151752Y-22085D01*
D02*
G37*
G36*
X167788Y-23836D02*
Y-25056D01*
X167127D01*
Y-23855D01*
X166199Y-22122D01*
X166961D01*
X167257Y-22829D01*
X167261Y-22838D01*
X167271Y-22857D01*
X167280Y-22889D01*
X167298Y-22926D01*
X167317Y-22972D01*
X167335Y-23019D01*
X167377Y-23120D01*
X167381Y-23125D01*
X167386Y-23143D01*
X167395Y-23166D01*
X167409Y-23203D01*
X167423Y-23245D01*
X167441Y-23291D01*
X167483Y-23393D01*
X167492D01*
Y-23388D01*
X167502Y-23370D01*
X167511Y-23342D01*
X167520Y-23305D01*
X167538Y-23263D01*
X167552Y-23217D01*
X167589Y-23120D01*
X167594Y-23115D01*
X167599Y-23097D01*
X167612Y-23069D01*
X167626Y-23032D01*
X167645Y-22991D01*
X167663Y-22940D01*
X167691Y-22885D01*
X167714Y-22829D01*
X168010Y-22122D01*
X168754D01*
X167788Y-23836D01*
D02*
G37*
G36*
X153919Y-22104D02*
X153970Y-22108D01*
X154030Y-22113D01*
X154094Y-22118D01*
X154159Y-22127D01*
X154307Y-22159D01*
X154455Y-22201D01*
X154529Y-22229D01*
X154598Y-22261D01*
X154658Y-22298D01*
X154718Y-22339D01*
X154723Y-22344D01*
X154741Y-22358D01*
X154769Y-22386D01*
X154801Y-22418D01*
X154838Y-22459D01*
X154875Y-22506D01*
X154912Y-22561D01*
X154944Y-22626D01*
X154949Y-22635D01*
X154958Y-22654D01*
X154972Y-22691D01*
X154991Y-22737D01*
X155005Y-22797D01*
X155018Y-22861D01*
X155028Y-22940D01*
X155032Y-23019D01*
Y-23023D01*
Y-23028D01*
Y-23055D01*
X155028Y-23097D01*
X155023Y-23152D01*
X155014Y-23212D01*
X155005Y-23277D01*
X154986Y-23347D01*
X154963Y-23416D01*
X154958Y-23425D01*
X154949Y-23444D01*
X154935Y-23476D01*
X154912Y-23517D01*
X154884Y-23568D01*
X154847Y-23614D01*
X154806Y-23665D01*
X154760Y-23716D01*
X154750Y-23721D01*
X154732Y-23739D01*
X154695Y-23767D01*
X154644Y-23804D01*
X154584Y-23841D01*
X154515Y-23878D01*
X154436Y-23915D01*
X154348Y-23947D01*
X154344D01*
X154339Y-23952D01*
X154325D01*
X154307Y-23956D01*
X154256Y-23970D01*
X154191Y-23984D01*
X154108Y-23998D01*
X154016Y-24007D01*
X153914Y-24016D01*
X153808Y-24021D01*
X153679D01*
X153655Y-24016D01*
X153623Y-24012D01*
X153586Y-24007D01*
Y-25056D01*
X152926D01*
Y-22164D01*
X152935D01*
X152953Y-22159D01*
X152986Y-22154D01*
X153027Y-22145D01*
X153083Y-22141D01*
X153143Y-22131D01*
X153217Y-22127D01*
X153295Y-22118D01*
X153318D01*
X153337Y-22113D01*
X153383D01*
X153443Y-22108D01*
X153521Y-22104D01*
X153609D01*
X153711Y-22099D01*
X153882D01*
X153919Y-22104D01*
D02*
G37*
G36*
X179301Y-25056D02*
X178659Y-25056D01*
X178613Y-23933D01*
Y-23929D01*
Y-23919D01*
Y-23905D01*
Y-23887D01*
Y-23864D01*
X178608Y-23832D01*
Y-23762D01*
X178603Y-23679D01*
Y-23582D01*
X178599Y-23476D01*
X178594Y-23365D01*
Y-23360D01*
Y-23351D01*
Y-23333D01*
Y-23310D01*
Y-23282D01*
X178590Y-23249D01*
Y-23212D01*
Y-23171D01*
Y-23074D01*
X178585Y-22963D01*
Y-22848D01*
Y-22727D01*
X178576D01*
Y-22732D01*
X178571Y-22741D01*
X178567Y-22755D01*
X178562Y-22778D01*
X178557Y-22801D01*
X178548Y-22834D01*
X178530Y-22908D01*
X178502Y-22995D01*
X178479Y-23092D01*
X178446Y-23199D01*
X178414Y-23310D01*
Y-23314D01*
X178409Y-23323D01*
X178405Y-23337D01*
X178400Y-23360D01*
X178391Y-23388D01*
X178382Y-23416D01*
X178363Y-23490D01*
X178335Y-23573D01*
X178308Y-23670D01*
X178243Y-23864D01*
X177887Y-25010D01*
X177370D01*
X177056Y-23873D01*
Y-23868D01*
X177051Y-23859D01*
X177047Y-23845D01*
X177042Y-23827D01*
X177037Y-23804D01*
X177028Y-23776D01*
X177009Y-23707D01*
X176986Y-23624D01*
X176963Y-23531D01*
X176940Y-23425D01*
X176912Y-23319D01*
Y-23314D01*
X176908Y-23305D01*
Y-23291D01*
X176903Y-23268D01*
X176894Y-23240D01*
X176889Y-23208D01*
X176875Y-23134D01*
X176857Y-23046D01*
X176834Y-22945D01*
X176815Y-22838D01*
X176792Y-22727D01*
X176783D01*
Y-22732D01*
Y-22741D01*
Y-22755D01*
Y-22778D01*
X176778Y-22806D01*
Y-22838D01*
Y-22917D01*
X176774Y-23009D01*
X176769Y-23115D01*
X176765Y-23231D01*
X176760Y-23351D01*
Y-23356D01*
Y-23365D01*
Y-23383D01*
Y-23406D01*
X176755Y-23434D01*
Y-23467D01*
X176751Y-23545D01*
X176746Y-23638D01*
Y-23735D01*
X176737Y-23943D01*
X176677Y-25056D01*
X176067D01*
X176252Y-22122D01*
X177134D01*
X177421Y-23102D01*
Y-23106D01*
X177425Y-23111D01*
X177430Y-23129D01*
X177435Y-23148D01*
X177448Y-23199D01*
X177467Y-23263D01*
X177485Y-23342D01*
X177508Y-23434D01*
X177536Y-23527D01*
X177559Y-23628D01*
Y-23633D01*
X177564Y-23642D01*
Y-23656D01*
X177568Y-23674D01*
X177578Y-23698D01*
X177582Y-23725D01*
X177596Y-23795D01*
X177615Y-23873D01*
X177633Y-23961D01*
X177652Y-24058D01*
X177670Y-24155D01*
X177689D01*
Y-24150D01*
X177693Y-24141D01*
Y-24127D01*
X177698Y-24109D01*
X177707Y-24086D01*
X177712Y-24058D01*
X177726Y-23993D01*
X177749Y-23910D01*
X177767Y-23822D01*
X177795Y-23725D01*
X177818Y-23624D01*
Y-23619D01*
X177823Y-23610D01*
X177827Y-23596D01*
X177832Y-23577D01*
X177837Y-23550D01*
X177846Y-23522D01*
X177864Y-23453D01*
X177887Y-23374D01*
X177910Y-23286D01*
X177966Y-23102D01*
X178275Y-22122D01*
X179144Y-22122D01*
X179301Y-25056D01*
D02*
G37*
G36*
X175614Y-22667D02*
X174473D01*
Y-23277D01*
X175550D01*
Y-23818D01*
X174473D01*
Y-24511D01*
X175674D01*
Y-25056D01*
X173812D01*
Y-22122D01*
X175614D01*
Y-22667D01*
D02*
G37*
G36*
X173457Y-22681D02*
X172658D01*
Y-25056D01*
X171997D01*
Y-22681D01*
X171202D01*
Y-22122D01*
X173457D01*
Y-22681D01*
D02*
G37*
G36*
X162701Y-22667D02*
X161560D01*
Y-23277D01*
X162637D01*
Y-23818D01*
X161560D01*
Y-24511D01*
X162761D01*
Y-25056D01*
X160900D01*
Y-22122D01*
X162701D01*
Y-22667D01*
D02*
G37*
G36*
X157915Y-25056D02*
X157199D01*
X156973Y-24303D01*
X156132D01*
X155924Y-25056D01*
X155240D01*
X156136Y-22122D01*
X157000D01*
X157915Y-25056D01*
D02*
G37*
G36*
X191209Y-1045D02*
X190914D01*
Y556D01*
X190279Y-238D01*
X190224D01*
X189586Y556D01*
Y-1045D01*
X189291D01*
Y1013D01*
X189573D01*
X190253Y167D01*
X190930Y1013D01*
X191209D01*
Y-1045D01*
D02*
G37*
G36*
X189019Y750D02*
X188303D01*
Y-1045D01*
X188008D01*
Y750D01*
X187302D01*
Y1013D01*
X189019D01*
Y750D01*
D02*
G37*
G36*
X133063Y237990D02*
X133209Y237972D01*
X133355Y237917D01*
X133373D01*
X133391Y237899D01*
X133482Y237844D01*
X133591Y237771D01*
X133701Y237662D01*
X133737Y237644D01*
X133792Y237571D01*
X133883Y237462D01*
X133956Y237316D01*
X133974Y237279D01*
X134011Y237188D01*
X134029Y237042D01*
X134047Y236878D01*
Y236860D01*
Y236842D01*
X134029Y236733D01*
X134011Y236587D01*
X133956Y236441D01*
X133938Y236405D01*
X133883Y236314D01*
X133810Y236204D01*
X133701Y236077D01*
X133683Y236059D01*
X133610Y235986D01*
X133500Y235913D01*
X133355Y235840D01*
X133318Y235822D01*
X133227Y235804D01*
X133081Y235785D01*
X132917Y235767D01*
X132881D01*
X132772Y235785D01*
X132626Y235804D01*
X132480Y235840D01*
X132444Y235858D01*
X132352Y235913D01*
X132243Y235986D01*
X132116Y236077D01*
X132097Y236113D01*
X132025Y236186D01*
X131952Y236296D01*
X131879Y236441D01*
Y236459D01*
X131861Y236478D01*
X131842Y236569D01*
X131824Y236715D01*
X131806Y236878D01*
Y236897D01*
Y236915D01*
X131824Y237024D01*
X131842Y237170D01*
X131879Y237316D01*
Y237334D01*
X131897Y237352D01*
X131952Y237443D01*
X132025Y237553D01*
X132116Y237662D01*
X132152Y237698D01*
X132225Y237753D01*
X132334Y237844D01*
X132480Y237917D01*
X132498D01*
X132517Y237935D01*
X132608Y237972D01*
X132753Y237990D01*
X132917Y238008D01*
X132954D01*
X133063Y237990D01*
D02*
G37*
G36*
X124481Y237188D02*
X124700Y237170D01*
X124810D01*
X124901Y237152D01*
X125101Y237134D01*
X125338Y237097D01*
X125392D01*
X125465Y237079D01*
X125538D01*
X125739Y237042D01*
X125976Y237006D01*
X126030D01*
X126103Y236988D01*
X126176Y236970D01*
X126376Y236933D01*
X126577Y236897D01*
Y235585D01*
X126540D01*
X126468Y235621D01*
X126340Y235640D01*
X126176Y235676D01*
X125994Y235712D01*
X125775Y235767D01*
X125301Y235840D01*
X125283D01*
X125192Y235858D01*
X125083Y235876D01*
X124919Y235895D01*
X124737Y235913D01*
X124518Y235931D01*
X124081Y235949D01*
X123880D01*
X123662Y235931D01*
X123388Y235895D01*
X123079Y235840D01*
X122769Y235767D01*
X122495Y235658D01*
X122240Y235512D01*
X122222Y235494D01*
X122149Y235439D01*
X122058Y235348D01*
X121949Y235221D01*
X121840Y235056D01*
X121748Y234856D01*
X121676Y234637D01*
X121657Y234382D01*
Y234364D01*
Y234310D01*
X121676Y234237D01*
X121694Y234127D01*
X121767Y233891D01*
X121821Y233763D01*
X121894Y233635D01*
X121913Y233617D01*
X121931Y233581D01*
X121985Y233526D01*
X122058Y233453D01*
X122259Y233271D01*
X122514Y233071D01*
X122532Y233052D01*
X122587Y233034D01*
X122660Y232979D01*
X122787Y232925D01*
X122915Y232852D01*
X123060Y232779D01*
X123425Y232633D01*
X123443D01*
X123516Y232597D01*
X123607Y232560D01*
X123753Y232506D01*
X123898Y232451D01*
X124062Y232378D01*
X124445Y232214D01*
X124463D01*
X124536Y232178D01*
X124645Y232141D01*
X124773Y232087D01*
X124937Y232014D01*
X125101Y231941D01*
X125484Y231759D01*
X125502Y231740D01*
X125575Y231722D01*
X125666Y231668D01*
X125793Y231595D01*
X126085Y231394D01*
X126376Y231157D01*
X126395Y231139D01*
X126449Y231103D01*
X126522Y231030D01*
X126613Y230921D01*
X126704Y230811D01*
X126814Y230665D01*
X127014Y230338D01*
X127032Y230319D01*
X127050Y230246D01*
X127087Y230155D01*
X127142Y230028D01*
X127196Y229864D01*
X127233Y229663D01*
X127251Y229463D01*
X127269Y229226D01*
Y229190D01*
Y229099D01*
X127251Y228953D01*
X127233Y228771D01*
X127196Y228570D01*
X127123Y228333D01*
X127050Y228097D01*
X126941Y227878D01*
X126923Y227860D01*
X126887Y227787D01*
X126814Y227677D01*
X126723Y227550D01*
X126595Y227404D01*
X126449Y227240D01*
X126267Y227076D01*
X126067Y226930D01*
X126048Y226912D01*
X125976Y226876D01*
X125848Y226803D01*
X125702Y226712D01*
X125502Y226621D01*
X125283Y226530D01*
X125028Y226438D01*
X124737Y226366D01*
X124700D01*
X124609Y226329D01*
X124445Y226311D01*
X124226Y226274D01*
X123971Y226238D01*
X123680Y226220D01*
X123352Y226183D01*
X122751D01*
X122605Y226202D01*
X122477D01*
X122149Y226220D01*
X122076D01*
X122004Y226238D01*
X121894D01*
X121639Y226274D01*
X121348Y226311D01*
X121275D01*
X121202Y226329D01*
X121111D01*
X120874Y226366D01*
X120619Y226402D01*
X120601D01*
X120564Y226420D01*
X120491Y226438D01*
X120419Y226457D01*
X120218Y226511D01*
X119999Y226566D01*
Y227969D01*
X120036Y227951D01*
X120109Y227933D01*
X120236Y227896D01*
X120400Y227841D01*
X120601Y227768D01*
X120837Y227714D01*
X121093Y227659D01*
X121366Y227605D01*
X121402D01*
X121493Y227586D01*
X121657Y227568D01*
X121876Y227550D01*
X122131Y227514D01*
X122423Y227495D01*
X122751Y227477D01*
X123370D01*
X123534Y227495D01*
X123716D01*
X123917Y227532D01*
X124117Y227550D01*
X124318Y227586D01*
X124336D01*
X124409Y227605D01*
X124481Y227641D01*
X124609Y227659D01*
X124864Y227768D01*
X125119Y227896D01*
X125137Y227914D01*
X125174Y227933D01*
X125229Y227987D01*
X125301Y228042D01*
X125465Y228206D01*
X125593Y228424D01*
Y228443D01*
X125611Y228479D01*
X125648Y228552D01*
X125666Y228643D01*
X125702Y228752D01*
X125721Y228880D01*
X125739Y229153D01*
Y229171D01*
Y229226D01*
X125721Y229299D01*
X125702Y229408D01*
X125629Y229645D01*
X125575Y229754D01*
X125484Y229882D01*
X125465Y229900D01*
X125447Y229937D01*
X125392Y229991D01*
X125320Y230064D01*
X125229Y230155D01*
X125119Y230246D01*
X124846Y230429D01*
X124828Y230447D01*
X124773Y230465D01*
X124700Y230520D01*
X124591Y230574D01*
X124463Y230647D01*
X124318Y230720D01*
X123953Y230884D01*
X123935Y230902D01*
X123862Y230921D01*
X123771Y230957D01*
X123625Y231012D01*
X123479Y231066D01*
X123297Y231139D01*
X122915Y231285D01*
X122896Y231303D01*
X122824Y231321D01*
X122732Y231376D01*
X122605Y231431D01*
X122441Y231504D01*
X122277Y231576D01*
X121894Y231759D01*
X121876Y231777D01*
X121803Y231813D01*
X121712Y231850D01*
X121584Y231923D01*
X121457Y232014D01*
X121293Y232105D01*
X120983Y232342D01*
X120965Y232360D01*
X120929Y232396D01*
X120856Y232469D01*
X120765Y232579D01*
X120674Y232688D01*
X120564Y232834D01*
X120364Y233143D01*
X120346Y233162D01*
X120327Y233235D01*
X120291Y233326D01*
X120255Y233453D01*
X120200Y233617D01*
X120163Y233799D01*
X120145Y234018D01*
X120127Y234237D01*
Y234255D01*
Y234328D01*
X120145Y234437D01*
X120163Y234583D01*
X120182Y234747D01*
X120218Y234929D01*
X120273Y235129D01*
X120346Y235330D01*
X120364Y235348D01*
X120382Y235421D01*
X120455Y235512D01*
X120528Y235640D01*
X120619Y235785D01*
X120746Y235949D01*
X120892Y236113D01*
X121056Y236277D01*
X121074Y236296D01*
X121147Y236350D01*
X121257Y236423D01*
X121402Y236514D01*
X121566Y236624D01*
X121785Y236733D01*
X122022Y236842D01*
X122295Y236951D01*
X122332Y236970D01*
X122441Y236988D01*
X122587Y237024D01*
X122805Y237079D01*
X123079Y237134D01*
X123388Y237170D01*
X123734Y237188D01*
X124117Y237207D01*
X124299D01*
X124481Y237188D01*
D02*
G37*
G36*
X207783Y234692D02*
X207874D01*
X208002Y234674D01*
X208294Y234619D01*
X208603Y234528D01*
X208913Y234382D01*
X209223Y234200D01*
X209496Y233945D01*
X209532Y233909D01*
X209605Y233799D01*
X209697Y233635D01*
X209824Y233380D01*
X209951Y233071D01*
X210043Y232670D01*
X210116Y232214D01*
X210152Y231686D01*
Y226329D01*
X208731D01*
Y231576D01*
Y231595D01*
Y231613D01*
Y231668D01*
Y231740D01*
X208713Y231905D01*
X208694Y232123D01*
X208640Y232342D01*
X208585Y232579D01*
X208494Y232816D01*
X208366Y232998D01*
X208348Y233016D01*
X208294Y233071D01*
X208221Y233143D01*
X208093Y233235D01*
X207947Y233326D01*
X207765Y233399D01*
X207546Y233453D01*
X207291Y233471D01*
X207200D01*
X207127Y233453D01*
X206945Y233435D01*
X206763Y233380D01*
X206745D01*
X206727Y233362D01*
X206617Y233326D01*
X206453Y233235D01*
X206253Y233107D01*
X206235D01*
X206198Y233071D01*
X206144Y233034D01*
X206071Y232979D01*
X205889Y232816D01*
X205652Y232597D01*
X205633Y232579D01*
X205597Y232542D01*
X205542Y232469D01*
X205451Y232378D01*
X205342Y232251D01*
X205233Y232105D01*
X205105Y231959D01*
X204959Y231777D01*
Y226329D01*
X203538D01*
Y234565D01*
X204795D01*
X204850Y233235D01*
X204868Y233253D01*
X204905Y233307D01*
X204977Y233380D01*
X205069Y233471D01*
X205305Y233708D01*
X205542Y233927D01*
X205560Y233945D01*
X205597Y233982D01*
X205670Y234036D01*
X205761Y234091D01*
X205961Y234237D01*
X206198Y234382D01*
X206216D01*
X206253Y234419D01*
X206326Y234437D01*
X206399Y234492D01*
X206617Y234565D01*
X206854Y234637D01*
X206872D01*
X206909Y234656D01*
X206982D01*
X207073Y234674D01*
X207310Y234692D01*
X207565Y234710D01*
X207692D01*
X207783Y234692D01*
D02*
G37*
G36*
X161486Y234692D02*
X161669D01*
X162088Y234656D01*
X162106D01*
X162197Y234637D01*
X162306D01*
X162470Y234619D01*
X162652Y234583D01*
X162853Y234565D01*
X163090Y234510D01*
X163327Y234473D01*
Y233198D01*
X163290D01*
X163217Y233235D01*
X163090Y233253D01*
X162908Y233289D01*
X162725Y233326D01*
X162507Y233362D01*
X162051Y233435D01*
X162033D01*
X161942Y233453D01*
X161832Y233471D01*
X161687Y233490D01*
X161523D01*
X161359Y233508D01*
X160994Y233526D01*
X160812D01*
X160685Y233508D01*
X160393Y233490D01*
X160102Y233435D01*
X160083D01*
X160047Y233417D01*
X159974Y233399D01*
X159883Y233380D01*
X159701Y233289D01*
X159500Y233198D01*
X159464Y233180D01*
X159373Y233107D01*
X159282Y232998D01*
X159191Y232870D01*
X159172Y232834D01*
X159154Y232743D01*
X159118Y232615D01*
X159099Y232451D01*
Y232433D01*
Y232415D01*
X159118Y232324D01*
X159136Y232196D01*
X159172Y232050D01*
X159191Y232014D01*
X159245Y231941D01*
X159355Y231832D01*
X159500Y231704D01*
X159519D01*
X159537Y231668D01*
X159591Y231649D01*
X159664Y231595D01*
X159774Y231540D01*
X159883Y231485D01*
X160011Y231431D01*
X160156Y231358D01*
X160175D01*
X160229Y231321D01*
X160320Y231303D01*
X160448Y231248D01*
X160612Y231194D01*
X160794Y231139D01*
X160994Y231085D01*
X161231Y231012D01*
X161268Y230994D01*
X161359Y230975D01*
X161486Y230939D01*
X161669Y230866D01*
X161869Y230811D01*
X162069Y230720D01*
X162270Y230647D01*
X162470Y230556D01*
X162488Y230538D01*
X162561Y230520D01*
X162634Y230465D01*
X162762Y230410D01*
X163017Y230228D01*
X163272Y230028D01*
X163290Y230010D01*
X163327Y229973D01*
X163381Y229919D01*
X163454Y229846D01*
X163600Y229645D01*
X163673Y229518D01*
X163727Y229390D01*
Y229372D01*
X163746Y229335D01*
X163782Y229244D01*
X163800Y229153D01*
X163837Y229026D01*
X163855Y228898D01*
X163873Y228570D01*
Y228552D01*
Y228497D01*
Y228406D01*
X163855Y228315D01*
X163800Y228060D01*
X163709Y227787D01*
Y227768D01*
X163691Y227732D01*
X163654Y227659D01*
X163600Y227586D01*
X163472Y227386D01*
X163308Y227167D01*
X163290Y227149D01*
X163272Y227131D01*
X163217Y227076D01*
X163144Y227022D01*
X162944Y226876D01*
X162707Y226712D01*
X162689D01*
X162652Y226675D01*
X162580Y226657D01*
X162488Y226602D01*
X162270Y226511D01*
X161996Y226420D01*
X161978D01*
X161942Y226402D01*
X161851Y226384D01*
X161760Y226366D01*
X161650Y226329D01*
X161504Y226311D01*
X161213Y226256D01*
X161195D01*
X161140Y226238D01*
X161067D01*
X160958Y226220D01*
X160721Y226202D01*
X160430Y226183D01*
X160120D01*
X159919Y226202D01*
X159683D01*
X159427Y226220D01*
X158881Y226256D01*
X158844D01*
X158772Y226274D01*
X158626Y226293D01*
X158462Y226311D01*
X158243Y226347D01*
X158025Y226384D01*
X157533Y226493D01*
Y227805D01*
X157569D01*
X157660Y227768D01*
X157788Y227732D01*
X157970Y227677D01*
X158188Y227623D01*
X158425Y227568D01*
X158954Y227477D01*
X158990D01*
X159081Y227459D01*
X159209Y227441D01*
X159391D01*
X159610Y227422D01*
X159846Y227404D01*
X160375Y227386D01*
X160539D01*
X160721Y227404D01*
X160940Y227422D01*
X161195Y227459D01*
X161450Y227495D01*
X161687Y227568D01*
X161887Y227659D01*
X161905Y227677D01*
X161960Y227714D01*
X162051Y227768D01*
X162142Y227860D01*
X162233Y227969D01*
X162325Y228115D01*
X162379Y228279D01*
X162397Y228461D01*
Y228479D01*
Y228497D01*
X162379Y228588D01*
X162361Y228716D01*
X162306Y228843D01*
X162288Y228880D01*
X162252Y228953D01*
X162161Y229062D01*
X162015Y229190D01*
X161978Y229226D01*
X161924Y229244D01*
X161869Y229299D01*
X161778Y229335D01*
X161669Y229390D01*
X161523Y229463D01*
X161377Y229518D01*
X161359D01*
X161304Y229554D01*
X161213Y229591D01*
X161067Y229645D01*
X160903Y229700D01*
X160703Y229773D01*
X160484Y229846D01*
X160211Y229919D01*
X160193D01*
X160120Y229955D01*
X160011Y229973D01*
X159883Y230028D01*
X159719Y230083D01*
X159555Y230137D01*
X159191Y230283D01*
X159172Y230301D01*
X159118Y230319D01*
X159027Y230374D01*
X158917Y230429D01*
X158644Y230574D01*
X158371Y230775D01*
X158352Y230793D01*
X158316Y230830D01*
X158243Y230884D01*
X158170Y230975D01*
X157988Y231176D01*
X157824Y231449D01*
Y231467D01*
X157788Y231522D01*
X157770Y231595D01*
X157733Y231704D01*
X157697Y231832D01*
X157678Y231996D01*
X157642Y232178D01*
Y232360D01*
Y232378D01*
Y232415D01*
Y232488D01*
X157660Y232579D01*
X157678Y232688D01*
X157697Y232816D01*
X157788Y233107D01*
Y233125D01*
X157824Y233180D01*
X157861Y233253D01*
X157915Y233362D01*
X157988Y233471D01*
X158079Y233599D01*
X158207Y233745D01*
X158334Y233872D01*
X158352Y233891D01*
X158407Y233927D01*
X158498Y234000D01*
X158608Y234091D01*
X158753Y234182D01*
X158935Y234273D01*
X159136Y234382D01*
X159373Y234473D01*
X159409Y234492D01*
X159500Y234510D01*
X159628Y234546D01*
X159828Y234601D01*
X160065Y234637D01*
X160338Y234674D01*
X160666Y234692D01*
X161013Y234710D01*
X161341D01*
X161486Y234692D01*
D02*
G37*
G36*
X106353Y234692D02*
X106517Y234674D01*
X106717Y234637D01*
X106917Y234583D01*
X107136Y234510D01*
X107336Y234401D01*
X107355Y234382D01*
X107428Y234346D01*
X107519Y234273D01*
X107646Y234182D01*
X107792Y234073D01*
X107938Y233927D01*
X108083Y233763D01*
X108229Y233562D01*
X108247Y233544D01*
X108284Y233471D01*
X108357Y233362D01*
X108430Y233198D01*
X108521Y233016D01*
X108612Y232797D01*
X108703Y232542D01*
X108776Y232269D01*
Y232232D01*
X108812Y232141D01*
X108830Y231977D01*
X108867Y231777D01*
X108903Y231540D01*
X108922Y231248D01*
X108958Y230939D01*
Y230593D01*
Y230574D01*
Y230538D01*
Y230483D01*
Y230410D01*
X108940Y230192D01*
X108922Y229937D01*
X108885Y229627D01*
X108830Y229317D01*
X108758Y228989D01*
X108648Y228661D01*
X108630Y228625D01*
X108594Y228534D01*
X108521Y228388D01*
X108430Y228188D01*
X108302Y227987D01*
X108156Y227750D01*
X107992Y227532D01*
X107792Y227313D01*
X107774Y227295D01*
X107701Y227222D01*
X107573Y227131D01*
X107428Y227003D01*
X107245Y226876D01*
X107009Y226730D01*
X106772Y226602D01*
X106498Y226493D01*
X106462Y226475D01*
X106371Y226457D01*
X106225Y226420D01*
X106025Y226366D01*
X105788Y226311D01*
X105515Y226274D01*
X105223Y226256D01*
X104913Y226238D01*
X104658D01*
X104421Y226256D01*
X104130Y226293D01*
X104057D01*
X103984Y226311D01*
X103893Y226329D01*
X103765D01*
X103638Y226347D01*
X103346Y226402D01*
Y222958D01*
X101925D01*
Y234565D01*
X103182D01*
X103273Y233180D01*
Y233198D01*
X103310Y233216D01*
X103383Y233326D01*
X103510Y233471D01*
X103674Y233635D01*
X103875Y233836D01*
X104093Y234036D01*
X104330Y234218D01*
X104585Y234364D01*
X104622Y234382D01*
X104713Y234419D01*
X104840Y234473D01*
X105041Y234546D01*
X105259Y234601D01*
X105515Y234656D01*
X105806Y234692D01*
X106097Y234710D01*
X106225D01*
X106353Y234692D01*
D02*
G37*
G36*
X180581Y234692D02*
X180672D01*
X180799Y234674D01*
X181091Y234601D01*
X181401Y234510D01*
X181711Y234364D01*
X182020Y234145D01*
X182166Y234018D01*
X182294Y233872D01*
X182330Y233836D01*
X182348Y233781D01*
X182403Y233727D01*
X182439Y233635D01*
X182494Y233526D01*
X182567Y233399D01*
X182622Y233253D01*
X182676Y233089D01*
X182731Y232925D01*
X182785Y232724D01*
X182840Y232506D01*
X182877Y232251D01*
X182895Y231996D01*
X182913Y231722D01*
Y231431D01*
X181474D01*
Y231449D01*
Y231485D01*
Y231540D01*
Y231613D01*
X181455Y231795D01*
X181437Y232014D01*
X181401Y232269D01*
X181346Y232524D01*
X181255Y232779D01*
X181146Y232979D01*
X181128Y232998D01*
X181091Y233052D01*
X181000Y233143D01*
X180891Y233235D01*
X180745Y233307D01*
X180581Y233399D01*
X180380Y233453D01*
X180144Y233471D01*
X180034D01*
X179980Y233453D01*
X179797Y233435D01*
X179579Y233362D01*
X179561D01*
X179524Y233344D01*
X179470Y233326D01*
X179397Y233289D01*
X179196Y233180D01*
X178978Y233034D01*
X178959Y233016D01*
X178923Y232998D01*
X178868Y232943D01*
X178777Y232888D01*
X178577Y232688D01*
X178322Y232451D01*
X178303Y232433D01*
X178267Y232396D01*
X178194Y232324D01*
X178103Y232214D01*
X177994Y232087D01*
X177866Y231959D01*
X177739Y231795D01*
X177593Y231613D01*
Y226329D01*
X176153D01*
Y234565D01*
X177447D01*
X177483Y233034D01*
Y233052D01*
X177520Y233071D01*
X177611Y233180D01*
X177757Y233326D01*
X177939Y233526D01*
X178158Y233727D01*
X178394Y233945D01*
X178650Y234145D01*
X178923Y234310D01*
X178959Y234328D01*
X179050Y234364D01*
X179178Y234437D01*
X179378Y234510D01*
X179579Y234583D01*
X179834Y234656D01*
X180089Y234692D01*
X180362Y234710D01*
X180490D01*
X180581Y234692D01*
D02*
G37*
G36*
X171088Y234656D02*
X171289D01*
X171489Y234637D01*
X171908Y234583D01*
X171926D01*
X171999Y234565D01*
X172109Y234546D01*
X172254Y234510D01*
X172418Y234473D01*
X172600Y234419D01*
X172983Y234291D01*
Y232925D01*
X172965Y232943D01*
X172892Y232961D01*
X172783Y233016D01*
X172637Y233071D01*
X172473Y233143D01*
X172291Y233216D01*
X171890Y233326D01*
X171872D01*
X171799Y233344D01*
X171689Y233362D01*
X171544Y233399D01*
X171362Y233417D01*
X171179Y233435D01*
X170742Y233453D01*
X170651D01*
X170542Y233435D01*
X170414D01*
X170250Y233399D01*
X170068Y233362D01*
X169886Y233307D01*
X169703Y233235D01*
X169685D01*
X169631Y233198D01*
X169521Y233143D01*
X169412Y233089D01*
X169284Y232998D01*
X169139Y232888D01*
X168993Y232779D01*
X168847Y232633D01*
X168829Y232615D01*
X168793Y232560D01*
X168720Y232488D01*
X168647Y232378D01*
X168537Y232232D01*
X168446Y232068D01*
X168355Y231886D01*
X168264Y231686D01*
Y231668D01*
X168228Y231595D01*
X168210Y231467D01*
X168173Y231321D01*
X168137Y231121D01*
X168100Y230902D01*
X168082Y230665D01*
X168064Y230392D01*
Y230374D01*
Y230319D01*
Y230246D01*
X168082Y230155D01*
Y230028D01*
X168100Y229882D01*
X168155Y229554D01*
X168246Y229208D01*
X168355Y228825D01*
X168537Y228479D01*
X168774Y228169D01*
X168811Y228133D01*
X168902Y228060D01*
X169066Y227933D01*
X169303Y227805D01*
X169594Y227677D01*
X169940Y227550D01*
X170341Y227477D01*
X170797Y227441D01*
X171015D01*
X171161Y227459D01*
X171325Y227477D01*
X171526Y227495D01*
X171926Y227568D01*
X171945D01*
X172018Y227586D01*
X172127Y227623D01*
X172273Y227659D01*
X172418Y227714D01*
X172600Y227787D01*
X172983Y227969D01*
Y226639D01*
X172965D01*
X172892Y226603D01*
X172783Y226566D01*
X172637Y226511D01*
X172455Y226475D01*
X172254Y226420D01*
X171835Y226329D01*
X171817D01*
X171726Y226311D01*
X171617Y226293D01*
X171471Y226274D01*
X171289Y226256D01*
X171070Y226238D01*
X170615Y226220D01*
X170432D01*
X170287Y226238D01*
X170123Y226256D01*
X169940Y226274D01*
X169740Y226311D01*
X169503Y226347D01*
X169029Y226475D01*
X168774Y226566D01*
X168519Y226675D01*
X168282Y226785D01*
X168045Y226930D01*
X167809Y227094D01*
X167608Y227277D01*
X167590Y227295D01*
X167572Y227331D01*
X167517Y227386D01*
X167444Y227477D01*
X167371Y227586D01*
X167280Y227714D01*
X167189Y227878D01*
X167098Y228060D01*
X166989Y228260D01*
X166898Y228497D01*
X166807Y228752D01*
X166734Y229026D01*
X166661Y229317D01*
X166606Y229645D01*
X166588Y229991D01*
X166570Y230356D01*
Y230374D01*
Y230392D01*
Y230447D01*
Y230520D01*
X166588Y230702D01*
X166606Y230939D01*
X166643Y231212D01*
X166697Y231522D01*
X166770Y231832D01*
X166861Y232123D01*
Y232141D01*
X166879Y232159D01*
X166916Y232251D01*
X166989Y232415D01*
X167080Y232597D01*
X167207Y232816D01*
X167353Y233034D01*
X167517Y233271D01*
X167718Y233490D01*
X167736Y233508D01*
X167809Y233581D01*
X167936Y233690D01*
X168082Y233818D01*
X168282Y233945D01*
X168501Y234091D01*
X168756Y234237D01*
X169029Y234364D01*
X169066Y234382D01*
X169157Y234419D01*
X169321Y234455D01*
X169521Y234528D01*
X169776Y234583D01*
X170068Y234619D01*
X170378Y234656D01*
X170706Y234674D01*
X170942D01*
X171088Y234656D01*
D02*
G37*
G36*
X149716Y230793D02*
X153415Y234565D01*
X155310D01*
X151447Y230757D01*
X155528Y226329D01*
X153561D01*
X149716Y230738D01*
Y226329D01*
X148295D01*
Y237917D01*
X149716D01*
Y230793D01*
D02*
G37*
G36*
X143102Y227514D02*
X145562D01*
Y226329D01*
X138966D01*
Y227514D01*
X141663D01*
Y236751D01*
X139240D01*
Y237917D01*
X143102D01*
Y227514D01*
D02*
G37*
G36*
X133865D02*
X136325D01*
Y226329D01*
X129729D01*
Y227514D01*
X132425D01*
Y233380D01*
X130002D01*
Y234565D01*
X133865D01*
Y227514D01*
D02*
G37*
G36*
X90665Y235804D02*
X87495D01*
Y226329D01*
X86019D01*
Y235804D01*
X82849D01*
Y237042D01*
X90665D01*
Y235804D01*
D02*
G37*
G36*
X197999Y234692D02*
X198200Y234674D01*
X198436Y234637D01*
X198692Y234601D01*
X198947Y234528D01*
X199202Y234437D01*
X199238Y234419D01*
X199311Y234382D01*
X199439Y234328D01*
X199603Y234237D01*
X199767Y234127D01*
X199967Y234000D01*
X200149Y233836D01*
X200331Y233654D01*
X200350Y233635D01*
X200404Y233562D01*
X200495Y233453D01*
X200586Y233326D01*
X200696Y233143D01*
X200823Y232943D01*
X200933Y232706D01*
X201024Y232451D01*
X201042Y232415D01*
X201060Y232324D01*
X201097Y232178D01*
X201151Y231996D01*
X201188Y231759D01*
X201224Y231504D01*
X201242Y231212D01*
X201261Y230884D01*
Y230866D01*
Y230830D01*
Y230775D01*
Y230702D01*
Y230538D01*
X201242Y230356D01*
Y230319D01*
Y230228D01*
Y230119D01*
X201224Y229991D01*
X195448D01*
Y229973D01*
Y229937D01*
Y229864D01*
X195467Y229791D01*
Y229682D01*
X195485Y229554D01*
X195539Y229263D01*
X195612Y228953D01*
X195740Y228625D01*
X195904Y228315D01*
X196141Y228042D01*
X196177Y228005D01*
X196268Y227933D01*
X196432Y227823D01*
X196669Y227714D01*
X196961Y227586D01*
X197307Y227477D01*
X197708Y227404D01*
X198181Y227368D01*
X198637D01*
X198892Y227386D01*
X198947D01*
X199020Y227404D01*
X199111D01*
X199347Y227441D01*
X199584Y227459D01*
X199603D01*
X199639Y227477D01*
X199712D01*
X199803Y227495D01*
X200003Y227532D01*
X200240Y227568D01*
X200258D01*
X200295Y227586D01*
X200350Y227605D01*
X200423Y227623D01*
X200623Y227659D01*
X200823Y227714D01*
Y226548D01*
X200805D01*
X200714Y226530D01*
X200605Y226493D01*
X200441Y226457D01*
X200240Y226420D01*
X200022Y226366D01*
X199767Y226329D01*
X199493Y226293D01*
X199457D01*
X199366Y226274D01*
X199220Y226256D01*
X199038Y226238D01*
X198801Y226220D01*
X198546Y226202D01*
X198273Y226183D01*
X197799D01*
X197598Y226202D01*
X197362Y226220D01*
X197070Y226256D01*
X196760Y226293D01*
X196450Y226366D01*
X196159Y226457D01*
X196123Y226475D01*
X196031Y226511D01*
X195886Y226584D01*
X195722Y226675D01*
X195521Y226785D01*
X195303Y226930D01*
X195102Y227094D01*
X194902Y227295D01*
X194884Y227313D01*
X194829Y227386D01*
X194738Y227514D01*
X194629Y227659D01*
X194501Y227860D01*
X194392Y228078D01*
X194264Y228352D01*
X194173Y228625D01*
Y228643D01*
Y228661D01*
X194137Y228771D01*
X194100Y228935D01*
X194064Y229153D01*
X194027Y229427D01*
X193991Y229718D01*
X193973Y230064D01*
X193954Y230429D01*
Y230447D01*
Y230465D01*
Y230574D01*
X193973Y230738D01*
X193991Y230957D01*
X194009Y231194D01*
X194064Y231467D01*
X194118Y231759D01*
X194191Y232050D01*
Y232068D01*
X194209Y232087D01*
X194246Y232178D01*
X194300Y232324D01*
X194373Y232524D01*
X194483Y232724D01*
X194610Y232961D01*
X194756Y233198D01*
X194920Y233417D01*
X194938Y233435D01*
X195011Y233508D01*
X195121Y233617D01*
X195248Y233763D01*
X195430Y233909D01*
X195631Y234073D01*
X195849Y234218D01*
X196104Y234364D01*
X196141Y234382D01*
X196232Y234419D01*
X196378Y234473D01*
X196560Y234546D01*
X196797Y234601D01*
X197070Y234656D01*
X197362Y234692D01*
X197689Y234710D01*
X197835D01*
X197999Y234692D01*
D02*
G37*
G36*
X188762D02*
X188962Y234674D01*
X189199Y234637D01*
X189454Y234601D01*
X189709Y234528D01*
X189964Y234437D01*
X190001Y234419D01*
X190074Y234382D01*
X190201Y234328D01*
X190365Y234237D01*
X190529Y234127D01*
X190729Y234000D01*
X190912Y233836D01*
X191094Y233654D01*
X191112Y233635D01*
X191167Y233562D01*
X191258Y233453D01*
X191349Y233326D01*
X191458Y233143D01*
X191586Y232943D01*
X191695Y232706D01*
X191786Y232451D01*
X191804Y232415D01*
X191823Y232324D01*
X191859Y232178D01*
X191914Y231996D01*
X191950Y231759D01*
X191987Y231504D01*
X192005Y231212D01*
X192023Y230884D01*
Y230866D01*
Y230830D01*
Y230775D01*
Y230702D01*
Y230538D01*
X192005Y230356D01*
Y230319D01*
Y230228D01*
Y230119D01*
X191987Y229991D01*
X186211D01*
Y229973D01*
Y229937D01*
Y229864D01*
X186229Y229791D01*
Y229682D01*
X186247Y229554D01*
X186302Y229263D01*
X186375Y228953D01*
X186502Y228625D01*
X186666Y228315D01*
X186903Y228042D01*
X186940Y228005D01*
X187031Y227933D01*
X187195Y227823D01*
X187432Y227714D01*
X187723Y227586D01*
X188069Y227477D01*
X188470Y227404D01*
X188944Y227368D01*
X189399D01*
X189654Y227386D01*
X189709D01*
X189782Y227404D01*
X189873D01*
X190110Y227441D01*
X190347Y227459D01*
X190365D01*
X190401Y227477D01*
X190474D01*
X190566Y227495D01*
X190766Y227532D01*
X191003Y227568D01*
X191021D01*
X191057Y227586D01*
X191112Y227605D01*
X191185Y227623D01*
X191385Y227659D01*
X191586Y227714D01*
Y226548D01*
X191568D01*
X191476Y226530D01*
X191367Y226493D01*
X191203Y226457D01*
X191003Y226420D01*
X190784Y226366D01*
X190529Y226329D01*
X190256Y226293D01*
X190219D01*
X190128Y226274D01*
X189982Y226256D01*
X189800Y226238D01*
X189563Y226220D01*
X189308Y226202D01*
X189035Y226183D01*
X188561D01*
X188361Y226202D01*
X188124Y226220D01*
X187832Y226256D01*
X187523Y226293D01*
X187213Y226366D01*
X186922Y226457D01*
X186885Y226475D01*
X186794Y226511D01*
X186648Y226584D01*
X186484Y226675D01*
X186284Y226785D01*
X186065Y226930D01*
X185865Y227094D01*
X185664Y227295D01*
X185646Y227313D01*
X185591Y227386D01*
X185500Y227514D01*
X185391Y227659D01*
X185263Y227860D01*
X185154Y228078D01*
X185027Y228352D01*
X184935Y228625D01*
Y228643D01*
Y228661D01*
X184899Y228771D01*
X184863Y228935D01*
X184826Y229153D01*
X184790Y229427D01*
X184753Y229718D01*
X184735Y230064D01*
X184717Y230429D01*
Y230447D01*
Y230465D01*
Y230574D01*
X184735Y230738D01*
X184753Y230957D01*
X184772Y231194D01*
X184826Y231467D01*
X184881Y231759D01*
X184954Y232050D01*
Y232068D01*
X184972Y232087D01*
X185008Y232178D01*
X185063Y232324D01*
X185136Y232524D01*
X185245Y232724D01*
X185373Y232961D01*
X185519Y233198D01*
X185682Y233417D01*
X185701Y233435D01*
X185774Y233508D01*
X185883Y233617D01*
X186010Y233763D01*
X186193Y233909D01*
X186393Y234073D01*
X186612Y234218D01*
X186867Y234364D01*
X186903Y234382D01*
X186994Y234419D01*
X187140Y234473D01*
X187322Y234546D01*
X187559Y234601D01*
X187832Y234656D01*
X188124Y234692D01*
X188452Y234710D01*
X188598D01*
X188762Y234692D01*
D02*
G37*
G36*
X96386Y234692D02*
X96587Y234674D01*
X96842Y234637D01*
X97097Y234583D01*
X97370Y234510D01*
X97643Y234419D01*
X97680Y234401D01*
X97771Y234364D01*
X97899Y234310D01*
X98062Y234218D01*
X98245Y234109D01*
X98445Y233963D01*
X98646Y233799D01*
X98828Y233617D01*
X98846Y233599D01*
X98901Y233526D01*
X98992Y233417D01*
X99101Y233253D01*
X99229Y233070D01*
X99356Y232834D01*
X99465Y232579D01*
X99575Y232305D01*
X99593Y232269D01*
X99611Y232159D01*
X99666Y231996D01*
X99721Y231795D01*
X99757Y231522D01*
X99812Y231212D01*
X99830Y230866D01*
X99848Y230502D01*
Y230483D01*
Y230465D01*
Y230410D01*
Y230338D01*
X99830Y230155D01*
X99812Y229919D01*
X99775Y229645D01*
X99739Y229354D01*
X99666Y229044D01*
X99575Y228734D01*
X99557Y228698D01*
X99520Y228607D01*
X99465Y228461D01*
X99374Y228279D01*
X99265Y228060D01*
X99138Y227823D01*
X98974Y227586D01*
X98791Y227368D01*
X98773Y227349D01*
X98700Y227277D01*
X98591Y227167D01*
X98445Y227040D01*
X98263Y226912D01*
X98062Y226766D01*
X97807Y226621D01*
X97552Y226493D01*
X97516Y226475D01*
X97425Y226438D01*
X97279Y226402D01*
X97079Y226347D01*
X96824Y226274D01*
X96550Y226238D01*
X96241Y226202D01*
X95894Y226183D01*
X95749D01*
X95566Y226202D01*
X95366Y226220D01*
X95111Y226256D01*
X94838Y226293D01*
X94564Y226366D01*
X94291Y226457D01*
X94254Y226475D01*
X94182Y226511D01*
X94054Y226566D01*
X93890Y226657D01*
X93690Y226766D01*
X93507Y226912D01*
X93307Y227076D01*
X93107Y227258D01*
X93089Y227277D01*
X93034Y227349D01*
X92943Y227459D01*
X92833Y227623D01*
X92724Y227805D01*
X92597Y228042D01*
X92487Y228297D01*
X92378Y228570D01*
Y228588D01*
X92360Y228607D01*
X92341Y228716D01*
X92305Y228880D01*
X92250Y229099D01*
X92196Y229372D01*
X92159Y229682D01*
X92141Y230028D01*
X92123Y230392D01*
Y230410D01*
Y230429D01*
Y230483D01*
Y230556D01*
X92141Y230738D01*
X92159Y230957D01*
X92177Y231230D01*
X92232Y231522D01*
X92287Y231832D01*
X92378Y232123D01*
Y232141D01*
X92396Y232159D01*
X92432Y232251D01*
X92487Y232415D01*
X92578Y232597D01*
X92688Y232816D01*
X92833Y233034D01*
X92979Y233271D01*
X93161Y233490D01*
X93180Y233508D01*
X93252Y233581D01*
X93362Y233690D01*
X93507Y233818D01*
X93690Y233963D01*
X93908Y234109D01*
X94145Y234255D01*
X94400Y234382D01*
X94437Y234401D01*
X94528Y234437D01*
X94674Y234492D01*
X94874Y234546D01*
X95129Y234601D01*
X95402Y234656D01*
X95712Y234692D01*
X96058Y234710D01*
X96204D01*
X96386Y234692D01*
D02*
G37*
%LPC*%
G36*
X153849Y-22603D02*
X153785D01*
X153748Y-22607D01*
X153660Y-22612D01*
X153619Y-22616D01*
X153586Y-22626D01*
Y-23499D01*
X153600D01*
X153614Y-23504D01*
X153642D01*
X153669Y-23508D01*
X153706D01*
X153752Y-23513D01*
X153845D01*
X153896Y-23508D01*
X153956Y-23499D01*
X154020Y-23481D01*
X154090Y-23462D01*
X154159Y-23430D01*
X154219Y-23388D01*
X154224Y-23383D01*
X154242Y-23365D01*
X154265Y-23337D01*
X154298Y-23296D01*
X154325Y-23249D01*
X154348Y-23189D01*
X154367Y-23115D01*
X154372Y-23037D01*
Y-23032D01*
Y-23028D01*
Y-23005D01*
X154367Y-22968D01*
X154353Y-22921D01*
X154339Y-22871D01*
X154316Y-22815D01*
X154284Y-22764D01*
X154237Y-22718D01*
X154233Y-22714D01*
X154214Y-22700D01*
X154182Y-22681D01*
X154140Y-22658D01*
X154085Y-22640D01*
X154016Y-22621D01*
X153937Y-22607D01*
X153849Y-22603D01*
D02*
G37*
G36*
X156547Y-22621D02*
X156534D01*
Y-22626D01*
X156529Y-22644D01*
X156524Y-22672D01*
X156515Y-22704D01*
X156506Y-22746D01*
X156497Y-22797D01*
X156488Y-22852D01*
X156474Y-22908D01*
Y-22912D01*
X156469Y-22935D01*
X156460Y-22963D01*
X156455Y-23000D01*
X156441Y-23042D01*
X156432Y-23092D01*
X156404Y-23189D01*
X156224Y-23809D01*
X156876D01*
X156691Y-23189D01*
Y-23185D01*
X156686Y-23166D01*
X156677Y-23139D01*
X156672Y-23102D01*
X156658Y-23060D01*
X156649Y-23014D01*
X156622Y-22903D01*
Y-22894D01*
X156617Y-22875D01*
X156608Y-22848D01*
X156598Y-22811D01*
X156589Y-22764D01*
X156575Y-22718D01*
X156547Y-22621D01*
D02*
G37*
G36*
X105970Y233471D02*
X105697D01*
X105642Y233453D01*
X105460Y233435D01*
X105259Y233380D01*
X105241D01*
X105205Y233362D01*
X105150Y233344D01*
X105077Y233307D01*
X104895Y233216D01*
X104676Y233089D01*
X104658D01*
X104622Y233052D01*
X104567Y233016D01*
X104494Y232943D01*
X104294Y232779D01*
X104039Y232542D01*
X104021Y232524D01*
X103984Y232488D01*
X103911Y232415D01*
X103838Y232324D01*
X103729Y232196D01*
X103601Y232050D01*
X103474Y231905D01*
X103346Y231722D01*
Y227732D01*
X103365D01*
X103419Y227714D01*
X103492Y227677D01*
X103601Y227641D01*
X103711Y227605D01*
X103857Y227550D01*
X104166Y227477D01*
X104184D01*
X104239Y227459D01*
X104330Y227441D01*
X104439D01*
X104567Y227422D01*
X104713Y227404D01*
X105023Y227386D01*
X105132D01*
X105205Y227404D01*
X105423Y227422D01*
X105678Y227477D01*
X105970Y227586D01*
X106262Y227714D01*
X106553Y227914D01*
X106699Y228024D01*
X106826Y228169D01*
Y228188D01*
X106863Y228206D01*
X106881Y228260D01*
X106936Y228315D01*
X106990Y228406D01*
X107045Y228497D01*
X107100Y228625D01*
X107173Y228752D01*
X107227Y228916D01*
X107282Y229080D01*
X107336Y229281D01*
X107391Y229499D01*
X107446Y229718D01*
X107464Y229973D01*
X107501Y230228D01*
Y230520D01*
Y230556D01*
Y230629D01*
Y230757D01*
X107482Y230921D01*
Y231103D01*
X107464Y231303D01*
X107391Y231704D01*
Y231722D01*
X107373Y231795D01*
X107355Y231905D01*
X107318Y232032D01*
X107227Y232324D01*
X107100Y232633D01*
Y232651D01*
X107063Y232706D01*
X107027Y232779D01*
X106954Y232870D01*
X106790Y233070D01*
X106571Y233253D01*
X106553Y233271D01*
X106517Y233289D01*
X106444Y233326D01*
X106353Y233362D01*
X106243Y233399D01*
X106116Y233435D01*
X105970Y233471D01*
D02*
G37*
G36*
X197817Y233562D02*
X197453D01*
X197343Y233544D01*
X197216Y233526D01*
X197070Y233490D01*
X196760Y233380D01*
X196742D01*
X196706Y233344D01*
X196633Y233307D01*
X196542Y233253D01*
X196323Y233089D01*
X196104Y232870D01*
X196086Y232852D01*
X196068Y232816D01*
X196013Y232743D01*
X195940Y232651D01*
X195868Y232542D01*
X195795Y232396D01*
X195649Y232087D01*
Y232068D01*
X195631Y232014D01*
X195594Y231923D01*
X195558Y231795D01*
X195521Y231649D01*
X195503Y231467D01*
X195448Y231085D01*
X199785D01*
Y231103D01*
Y231176D01*
Y231285D01*
Y231413D01*
X199767Y231558D01*
X199748Y231722D01*
X199657Y232068D01*
Y232087D01*
X199639Y232141D01*
X199603Y232232D01*
X199566Y232342D01*
X199439Y232597D01*
X199256Y232852D01*
X199238Y232870D01*
X199202Y232907D01*
X199147Y232961D01*
X199074Y233034D01*
X198965Y233125D01*
X198855Y233198D01*
X198564Y233362D01*
X198546Y233380D01*
X198491Y233399D01*
X198400Y233435D01*
X198291Y233471D01*
X198163Y233508D01*
X197999Y233526D01*
X197817Y233562D01*
D02*
G37*
G36*
X188579D02*
X188215D01*
X188106Y233544D01*
X187978Y233526D01*
X187832Y233490D01*
X187523Y233380D01*
X187504D01*
X187468Y233344D01*
X187395Y233307D01*
X187304Y233253D01*
X187085Y233089D01*
X186867Y232870D01*
X186849Y232852D01*
X186830Y232816D01*
X186776Y232743D01*
X186703Y232651D01*
X186630Y232542D01*
X186557Y232396D01*
X186411Y232087D01*
Y232068D01*
X186393Y232014D01*
X186357Y231923D01*
X186320Y231795D01*
X186284Y231649D01*
X186266Y231467D01*
X186211Y231085D01*
X190547D01*
Y231103D01*
Y231176D01*
Y231285D01*
Y231413D01*
X190529Y231558D01*
X190511Y231722D01*
X190420Y232068D01*
Y232087D01*
X190401Y232141D01*
X190365Y232232D01*
X190329Y232342D01*
X190201Y232597D01*
X190019Y232852D01*
X190001Y232870D01*
X189964Y232907D01*
X189910Y232961D01*
X189837Y233034D01*
X189727Y233125D01*
X189618Y233198D01*
X189327Y233362D01*
X189308Y233380D01*
X189254Y233399D01*
X189163Y233435D01*
X189053Y233471D01*
X188926Y233508D01*
X188762Y233526D01*
X188579Y233562D01*
D02*
G37*
G36*
X96186Y233490D02*
X95876D01*
X95749Y233471D01*
X95603Y233453D01*
X95421Y233435D01*
X95238Y233380D01*
X95056Y233326D01*
X94874Y233235D01*
X94856Y233216D01*
X94801Y233180D01*
X94710Y233125D01*
X94619Y233052D01*
X94491Y232961D01*
X94364Y232852D01*
X94127Y232560D01*
X94109Y232542D01*
X94072Y232488D01*
X94036Y232396D01*
X93963Y232287D01*
X93890Y232141D01*
X93836Y231977D01*
X93763Y231795D01*
X93708Y231595D01*
Y231576D01*
X93690Y231504D01*
X93672Y231394D01*
X93653Y231248D01*
X93617Y231066D01*
X93599Y230866D01*
X93580Y230429D01*
Y230392D01*
Y230301D01*
X93599Y230155D01*
Y229973D01*
X93617Y229773D01*
X93653Y229536D01*
X93744Y229080D01*
Y229062D01*
X93781Y228989D01*
X93817Y228880D01*
X93872Y228752D01*
X94018Y228443D01*
X94218Y228133D01*
X94236Y228115D01*
X94273Y228078D01*
X94346Y228005D01*
X94437Y227933D01*
X94546Y227841D01*
X94674Y227750D01*
X94965Y227568D01*
X94983D01*
X95038Y227532D01*
X95147Y227513D01*
X95257Y227477D01*
X95421Y227441D01*
X95585Y227422D01*
X95785Y227386D01*
X96095D01*
X96204Y227404D01*
X96368Y227422D01*
X96532Y227441D01*
X96714Y227495D01*
X96896Y227550D01*
X97079Y227623D01*
X97097Y227641D01*
X97151Y227677D01*
X97243Y227732D01*
X97352Y227805D01*
X97461Y227896D01*
X97589Y228024D01*
X97826Y228297D01*
X97844Y228315D01*
X97880Y228370D01*
X97917Y228461D01*
X97990Y228570D01*
X98062Y228716D01*
X98117Y228880D01*
X98190Y229062D01*
X98245Y229263D01*
Y229281D01*
X98263Y229354D01*
X98299Y229481D01*
X98318Y229627D01*
X98354Y229791D01*
X98372Y229991D01*
X98391Y230429D01*
Y230465D01*
Y230556D01*
Y230702D01*
X98372Y230884D01*
X98354Y231085D01*
X98318Y231321D01*
X98263Y231540D01*
X98208Y231759D01*
Y231777D01*
X98172Y231850D01*
X98135Y231959D01*
X98081Y232105D01*
X97935Y232396D01*
X97844Y232560D01*
X97735Y232706D01*
X97716Y232724D01*
X97680Y232761D01*
X97607Y232834D01*
X97516Y232925D01*
X97407Y233016D01*
X97279Y233107D01*
X96969Y233289D01*
X96951Y233307D01*
X96896Y233326D01*
X96805Y233362D01*
X96678Y233399D01*
X96532Y233435D01*
X96368Y233453D01*
X96186Y233490D01*
D02*
G37*
%LPD*%
D10*
X-32283Y-19685D02*
G03*
X-32283Y-19685I-394J0D01*
G01*
Y3937D02*
G03*
X-32283Y3937I-394J0D01*
G01*
Y27559D02*
G03*
X-32283Y27559I-394J0D01*
G01*
X306133Y137795D02*
X310070Y141732D01*
X314007Y137795D01*
X275590Y118110D02*
X310070D01*
Y141732D01*
X78740Y-137795D02*
X208661D01*
Y-106299D02*
Y-106295D01*
X78740D02*
X208661D01*
X78740Y-169291D02*
Y-74803D01*
Y-169291D02*
X208661D01*
Y-74803D01*
X78740D02*
X208661D01*
X-40354Y31496D02*
X-15748D01*
X-40354Y7874D02*
X-15748D01*
X-40354Y-31496D02*
X-15748D01*
X-40354Y-15748D02*
X-15748D01*
X106213Y-64930D02*
X105213Y-63930D01*
X103214D01*
X102214Y-64930D01*
Y-68928D01*
X103214Y-69928D01*
X105213D01*
X106213Y-68928D01*
X111211Y-63930D02*
X109212D01*
X108212Y-64930D01*
Y-68928D01*
X109212Y-69928D01*
X111211D01*
X112211Y-68928D01*
Y-64930D01*
X111211Y-63930D01*
X114210Y-69928D02*
Y-63930D01*
X118209Y-69928D01*
Y-63930D01*
X124207D02*
X120208D01*
Y-66929D01*
X122208D01*
X120208D01*
Y-69928D01*
X126206Y-63930D02*
X128206D01*
X127206D01*
Y-69928D01*
X126206D01*
X128206D01*
X135204Y-64930D02*
X134204Y-63930D01*
X132204D01*
X131205Y-64930D01*
Y-68928D01*
X132204Y-69928D01*
X134204D01*
X135204Y-68928D01*
Y-66929D01*
X133204D01*
X137203Y-63930D02*
Y-68928D01*
X138203Y-69928D01*
X140202D01*
X141202Y-68928D01*
Y-63930D01*
X143201Y-69928D02*
Y-63930D01*
X146200D01*
X147200Y-64930D01*
Y-66929D01*
X146200Y-67929D01*
X143201D01*
X145200D02*
X147200Y-69928D01*
X149199D02*
Y-65929D01*
X151198Y-63930D01*
X153198Y-65929D01*
Y-69928D01*
Y-66929D01*
X149199D01*
X155197Y-63930D02*
X159196D01*
X157196D01*
Y-69928D01*
X161195Y-63930D02*
X163195D01*
X162195D01*
Y-69928D01*
X161195D01*
X163195D01*
X169193Y-63930D02*
X167193D01*
X166193Y-64930D01*
Y-68928D01*
X167193Y-69928D01*
X169193D01*
X170192Y-68928D01*
Y-64930D01*
X169193Y-63930D01*
X172192Y-69928D02*
Y-63930D01*
X176190Y-69928D01*
Y-63930D01*
X182188Y-64930D02*
X181189Y-63930D01*
X179189D01*
X178190Y-64930D01*
Y-65929D01*
X179189Y-66929D01*
X181189D01*
X182188Y-67929D01*
Y-68928D01*
X181189Y-69928D01*
X179189D01*
X178190Y-68928D01*
X184188Y-65929D02*
X185187D01*
Y-66929D01*
X184188D01*
Y-65929D01*
Y-68928D02*
X185187D01*
Y-69928D01*
X184188D01*
Y-68928D01*
X89749Y-37355D02*
Y-43353D01*
X92748D01*
X93748Y-42354D01*
Y-41354D01*
X92748Y-40354D01*
X89749D01*
X92748D01*
X93748Y-39355D01*
Y-38355D01*
X92748Y-37355D01*
X89749D01*
X95747Y-43353D02*
Y-37355D01*
X97746Y-39355D01*
X99746Y-37355D01*
Y-43353D01*
X107743Y-37355D02*
Y-43353D01*
X110742D01*
X111742Y-42354D01*
Y-38355D01*
X110742Y-37355D01*
X107743D01*
X116740Y-43353D02*
X114741D01*
X113741Y-42354D01*
Y-40354D01*
X114741Y-39355D01*
X116740D01*
X117740Y-40354D01*
Y-41354D01*
X113741D01*
X119739Y-39355D02*
X121739Y-43353D01*
X123738Y-39355D01*
X131736Y-37355D02*
Y-43353D01*
X134734D01*
X135734Y-42354D01*
Y-41354D01*
X134734Y-40354D01*
X131736D01*
X134734D01*
X135734Y-39355D01*
Y-38355D01*
X134734Y-37355D01*
X131736D01*
X138733Y-43353D02*
X140733D01*
X141732Y-42354D01*
Y-40354D01*
X140733Y-39355D01*
X138733D01*
X137734Y-40354D01*
Y-42354D01*
X138733Y-43353D01*
X144731Y-39355D02*
X146731D01*
X147730Y-40354D01*
Y-43353D01*
X144731D01*
X143732Y-42354D01*
X144731Y-41354D01*
X147730D01*
X149730Y-39355D02*
Y-43353D01*
Y-41354D01*
X150729Y-40354D01*
X151729Y-39355D01*
X152729D01*
X159727Y-37355D02*
Y-43353D01*
X156727D01*
X155728Y-42354D01*
Y-40354D01*
X156727Y-39355D01*
X159727D01*
X171723Y-38355D02*
X170723Y-37355D01*
X168724D01*
X167724Y-38355D01*
Y-42354D01*
X168724Y-43353D01*
X170723D01*
X171723Y-42354D01*
X176721Y-43353D02*
X174722D01*
X173722Y-42354D01*
Y-40354D01*
X174722Y-39355D01*
X176721D01*
X177721Y-40354D01*
Y-41354D01*
X173722D01*
X179720Y-43353D02*
X181719D01*
X180720D01*
Y-37355D01*
X179720D01*
X184718Y-43353D02*
X186718D01*
X185718D01*
Y-37355D01*
X184718D01*
X189717Y-43353D02*
X192716D01*
X193716Y-42354D01*
X192716Y-41354D01*
X190716D01*
X189717Y-40354D01*
X190716Y-39355D01*
X193716D01*
X123238Y-110450D02*
X124238Y-109450D01*
X126237D01*
X127237Y-110450D01*
Y-111450D01*
X126237Y-112450D01*
X125238D01*
X126237D01*
X127237Y-113449D01*
Y-114449D01*
X126237Y-115449D01*
X124238D01*
X123238Y-114449D01*
X139233Y-110450D02*
X138233Y-109450D01*
X136234D01*
X135234Y-110450D01*
Y-114449D01*
X136234Y-115449D01*
X138233D01*
X139233Y-114449D01*
X145231Y-109450D02*
X141232D01*
Y-115449D01*
X145231D01*
X141232Y-112450D02*
X143232D01*
X147231Y-109450D02*
Y-115449D01*
X151229D01*
X153229Y-109450D02*
Y-115449D01*
X157227D01*
X159227Y-111450D02*
X160226D01*
Y-112450D01*
X159227D01*
Y-111450D01*
Y-114449D02*
X160226D01*
Y-115449D01*
X159227D01*
Y-114449D01*
X86250Y-119048D02*
Y-125046D01*
X89249D01*
X90249Y-124047D01*
Y-120048D01*
X89249Y-119048D01*
X86250D01*
X92248Y-125046D02*
Y-119048D01*
X96247Y-125046D01*
Y-119048D01*
X98246Y-125046D02*
Y-119048D01*
X101245D01*
X102245Y-120048D01*
Y-122047D01*
X101245Y-123047D01*
X98246D01*
X104244Y-121048D02*
X105244D01*
Y-122047D01*
X104244D01*
Y-121048D01*
Y-124047D02*
X105244D01*
Y-125046D01*
X104244D01*
Y-124047D01*
X115241Y-119048D02*
Y-125046D01*
X118240D01*
X119240Y-124047D01*
Y-123047D01*
X118240Y-122047D01*
X115241D01*
X118240D01*
X119240Y-121048D01*
Y-120048D01*
X118240Y-119048D01*
X115241D01*
X121239Y-120048D02*
X122239Y-119048D01*
X124238D01*
X125238Y-120048D01*
Y-121048D01*
X124238Y-122047D01*
X123238D01*
X124238D01*
X125238Y-123047D01*
Y-124047D01*
X124238Y-125046D01*
X122239D01*
X121239Y-124047D01*
X128237Y-126046D02*
X129236Y-125046D01*
Y-124047D01*
X128237D01*
Y-125046D01*
X129236D01*
X128237Y-126046D01*
X127237Y-127046D01*
X133235Y-125046D02*
Y-119048D01*
X136234D01*
X137234Y-120048D01*
Y-122047D01*
X136234Y-123047D01*
X133235D01*
X135234D02*
X137234Y-125046D01*
X143232Y-119048D02*
X139233D01*
Y-122047D01*
X141232Y-121048D01*
X142232D01*
X143232Y-122047D01*
Y-124047D01*
X142232Y-125046D01*
X140233D01*
X139233Y-124047D01*
X149230Y-125046D02*
X145231D01*
X149230Y-121048D01*
Y-120048D01*
X148230Y-119048D01*
X146231D01*
X145231Y-120048D01*
X152229Y-126046D02*
X153229Y-125046D01*
Y-124047D01*
X152229D01*
Y-125046D01*
X153229D01*
X152229Y-126046D01*
X151229Y-127046D01*
X157227Y-125046D02*
Y-119048D01*
X160226D01*
X161226Y-120048D01*
Y-122047D01*
X160226Y-123047D01*
X157227D01*
X159227D02*
X161226Y-125046D01*
X167224Y-119048D02*
X163225D01*
Y-122047D01*
X165225Y-121048D01*
X166224D01*
X167224Y-122047D01*
Y-124047D01*
X166224Y-125046D01*
X164225D01*
X163225Y-124047D01*
X169223Y-120048D02*
X170223Y-119048D01*
X172222D01*
X173222Y-120048D01*
Y-121048D01*
X172222Y-122047D01*
X171223D01*
X172222D01*
X173222Y-123047D01*
Y-124047D01*
X172222Y-125046D01*
X170223D01*
X169223Y-124047D01*
X176221Y-126046D02*
X177221Y-125046D01*
Y-124047D01*
X176221D01*
Y-125046D01*
X177221D01*
X176221Y-126046D01*
X175222Y-127046D01*
X181219Y-125046D02*
Y-119048D01*
X184219D01*
X185218Y-120048D01*
Y-122047D01*
X184219Y-123047D01*
X181219D01*
X183219D02*
X185218Y-125046D01*
X187218Y-119048D02*
X191216D01*
Y-120048D01*
X187218Y-124047D01*
Y-125046D01*
X197214Y-119048D02*
X195215Y-120048D01*
X193216Y-122047D01*
Y-124047D01*
X194215Y-125046D01*
X196215D01*
X197214Y-124047D01*
Y-123047D01*
X196215Y-122047D01*
X193216D01*
X120739Y-128646D02*
X118740D01*
X119739D01*
Y-133644D01*
X118740Y-134644D01*
X117740D01*
X116740Y-133644D01*
X122738Y-134644D02*
Y-128646D01*
X125738D01*
X126737Y-129646D01*
Y-131645D01*
X125738Y-132645D01*
X122738D01*
X128736Y-134644D02*
X130736D01*
X129736D01*
Y-128646D01*
X128736Y-129646D01*
X133735D02*
X134734Y-128646D01*
X136734D01*
X137734Y-129646D01*
Y-133644D01*
X136734Y-134644D01*
X134734D01*
X133735Y-133644D01*
Y-129646D01*
X145731Y-131645D02*
X149730D01*
X151729Y-134644D02*
X154728Y-131645D01*
X151729Y-128646D01*
X162725D02*
Y-134644D01*
X165725D01*
X166724Y-133644D01*
Y-132645D01*
X165725Y-131645D01*
X162725D01*
X165725D01*
X166724Y-130645D01*
Y-129646D01*
X165725Y-128646D01*
X162725D01*
X92123Y129828D02*
X93122Y130828D01*
Y132827D01*
X92123Y133827D01*
X88124D01*
X87124Y132827D01*
Y130828D01*
X88124Y129828D01*
X87124Y124830D02*
Y126829D01*
X88124Y127829D01*
X90123D01*
X91123Y126829D01*
Y124830D01*
X90123Y123830D01*
X89123D01*
Y127829D01*
X87124Y121830D02*
X91123D01*
Y118832D01*
X90123Y117832D01*
X87124D01*
X92123Y114833D02*
X91123D01*
Y115832D01*
Y113833D01*
Y114833D01*
X88124D01*
X87124Y113833D01*
Y107835D02*
Y109834D01*
X88124Y110834D01*
X90123D01*
X91123Y109834D01*
Y107835D01*
X90123Y106835D01*
X89123D01*
Y110834D01*
X91123Y104836D02*
X87124D01*
X89123D01*
X90123Y103836D01*
X91123Y102837D01*
Y101837D01*
X92123Y97838D02*
X91123D01*
Y98838D01*
Y96839D01*
Y97838D01*
X88124D01*
X87124Y96839D01*
X91123Y92840D02*
Y90841D01*
X90123Y89841D01*
X87124D01*
Y92840D01*
X88124Y93840D01*
X89123Y92840D01*
Y89841D01*
X85125Y87841D02*
X91123D01*
Y84842D01*
X90123Y83843D01*
X88124D01*
X87124Y84842D01*
Y87841D01*
X85125Y75845D02*
Y74846D01*
X86124Y73846D01*
X91123D01*
Y69847D02*
X88124D01*
X87124Y68848D01*
Y65849D01*
X91123D01*
X87124Y63849D02*
X91123D01*
Y62850D01*
X90123Y61850D01*
X87124D01*
X90123D01*
X91123Y60850D01*
X90123Y59851D01*
X87124D01*
X85125Y57851D02*
X91123D01*
Y54852D01*
X90123Y53852D01*
X88124D01*
X87124Y54852D01*
Y57851D01*
Y48854D02*
Y50854D01*
X88124Y51853D01*
X90123D01*
X91123Y50854D01*
Y48854D01*
X90123Y47855D01*
X89123D01*
Y51853D01*
X91123Y45855D02*
X87124D01*
X89123D01*
X90123Y44855D01*
X91123Y43856D01*
Y42856D01*
X87124Y39857D02*
Y36858D01*
X88124Y35858D01*
X89123Y36858D01*
Y38857D01*
X90123Y39857D01*
X91123Y38857D01*
Y35858D01*
X75527Y133327D02*
X79526D01*
Y132327D01*
X78526Y131327D01*
X75527D01*
X78526D01*
X79526Y130328D01*
X78526Y129328D01*
X75527D01*
X79526Y127329D02*
X76527D01*
X75527Y126329D01*
Y123330D01*
X79526D01*
X75527Y121331D02*
Y118332D01*
X76527Y117332D01*
X77526Y118332D01*
Y120331D01*
X78526Y121331D01*
X79526Y120331D01*
Y117332D01*
X80525Y114333D02*
X79526D01*
Y115333D01*
Y113333D01*
Y114333D01*
X76527D01*
X75527Y113333D01*
X81525Y104336D02*
X75527D01*
Y101337D01*
X76527Y100338D01*
X77526D01*
X78526D01*
X79526Y101337D01*
Y104336D01*
X75527Y95339D02*
Y97338D01*
X76527Y98338D01*
X78526D01*
X79526Y97338D01*
Y95339D01*
X78526Y94339D01*
X77526D01*
Y98338D01*
X73528Y86342D02*
X79526D01*
Y83343D01*
X78526Y82343D01*
X76527D01*
X75527Y83343D01*
Y86342D01*
Y79344D02*
Y77345D01*
X76527Y76345D01*
X78526D01*
X79526Y77345D01*
Y79344D01*
X78526Y80344D01*
X76527D01*
X75527Y79344D01*
X73528Y74346D02*
X79526D01*
Y71347D01*
X78526Y70347D01*
X76527D01*
X75527Y71347D01*
Y74346D01*
X79526Y68348D02*
X76527D01*
X75527Y67348D01*
Y64349D01*
X79526D01*
X75527Y62350D02*
Y60350D01*
Y61350D01*
X81525D01*
Y62350D01*
X79526Y56352D02*
Y54352D01*
X78526Y53353D01*
X75527D01*
Y56352D01*
X76527Y57351D01*
X77526Y56352D01*
Y53353D01*
X80525Y50354D02*
X79526D01*
Y51353D01*
Y49354D01*
Y50354D01*
X76527D01*
X75527Y49354D01*
Y43356D02*
Y45355D01*
X76527Y46355D01*
X78526D01*
X79526Y45355D01*
Y43356D01*
X78526Y42356D01*
X77526D01*
Y46355D01*
X81525Y36358D02*
X75527D01*
Y39357D01*
X76527Y40357D01*
X78526D01*
X79526Y39357D01*
Y36358D01*
X67929Y130328D02*
X64930D01*
X63930Y129328D01*
X64930Y128328D01*
X63930Y127329D01*
X64930Y126329D01*
X67929D01*
X63930Y124330D02*
Y122330D01*
Y123330D01*
X67929D01*
Y124330D01*
X68928Y118332D02*
X67929D01*
Y119331D01*
Y117332D01*
Y118332D01*
X64930D01*
X63930Y117332D01*
X69928Y114333D02*
X63930D01*
X66929D01*
X67929Y113333D01*
Y111334D01*
X66929Y110334D01*
X63930D01*
X67929Y101337D02*
Y99338D01*
X66929Y98338D01*
X63930D01*
Y101337D01*
X64930Y102337D01*
X65929Y101337D01*
Y98338D01*
X61931Y90341D02*
Y89341D01*
X62930Y88341D01*
X67929D01*
Y84343D02*
X64930D01*
X63930Y83343D01*
Y80344D01*
X67929D01*
X63930Y78345D02*
X67929D01*
Y77345D01*
X66929Y76345D01*
X63930D01*
X66929D01*
X67929Y75346D01*
X66929Y74346D01*
X63930D01*
X61931Y72347D02*
X67929D01*
Y69348D01*
X66929Y68348D01*
X64930D01*
X63930Y69348D01*
Y72347D01*
Y63349D02*
Y65349D01*
X64930Y66348D01*
X66929D01*
X67929Y65349D01*
Y63349D01*
X66929Y62350D01*
X65929D01*
Y66348D01*
X67929Y60350D02*
X63930D01*
X65929D01*
X66929Y59351D01*
X67929Y58351D01*
Y57351D01*
X63930Y47355D02*
Y45355D01*
X64930Y44356D01*
X66929D01*
X67929Y45355D01*
Y47355D01*
X66929Y48354D01*
X64930D01*
X63930Y47355D01*
X67929Y42356D02*
X63930D01*
X65929D01*
X66929Y41357D01*
X67929Y40357D01*
Y39357D01*
X56332Y123830D02*
Y121830D01*
X55332Y120831D01*
X52333D01*
Y123830D01*
X53333Y124830D01*
X54332Y123830D01*
Y120831D01*
X52333Y118832D02*
X56332D01*
Y117832D01*
X55332Y116832D01*
X52333D01*
X55332D01*
X56332Y115832D01*
X55332Y114833D01*
X52333D01*
Y112833D02*
X56332D01*
Y111834D01*
X55332Y110834D01*
X52333D01*
X55332D01*
X56332Y109834D01*
X55332Y108835D01*
X52333D01*
Y103836D02*
Y105836D01*
X53333Y106835D01*
X55332D01*
X56332Y105836D01*
Y103836D01*
X55332Y102837D01*
X54332D01*
Y106835D01*
X57331Y99838D02*
X56332D01*
Y100837D01*
Y98838D01*
Y99838D01*
X53333D01*
X52333Y98838D01*
Y92840D02*
Y94839D01*
X53333Y95839D01*
X55332D01*
X56332Y94839D01*
Y92840D01*
X55332Y91840D01*
X54332D01*
Y95839D01*
X56332Y89841D02*
X52333D01*
X54332D01*
X55332Y88841D01*
X56332Y87841D01*
Y86842D01*
X58331Y77845D02*
X52333D01*
Y74846D01*
X53333Y73846D01*
X54332D01*
X55332D01*
X56332Y74846D01*
Y77845D01*
X52333Y68848D02*
Y70847D01*
X53333Y71847D01*
X55332D01*
X56332Y70847D01*
Y68848D01*
X55332Y67848D01*
X54332D01*
Y71847D01*
X52333Y64849D02*
X57331D01*
X55332D01*
Y65849D01*
Y63849D01*
Y64849D01*
X57331D01*
X58331Y63849D01*
X52333Y59851D02*
Y57851D01*
X53333Y56852D01*
X55332D01*
X56332Y57851D01*
Y59851D01*
X55332Y60850D01*
X53333D01*
X52333Y59851D01*
X56332Y54852D02*
X52333D01*
X54332D01*
X55332Y53852D01*
X56332Y52853D01*
Y51853D01*
X52333Y45855D02*
Y47855D01*
X53333Y48854D01*
X55332D01*
X56332Y47855D01*
Y45855D01*
X55332Y44855D01*
X54332D01*
Y48854D01*
X46734Y138825D02*
Y141824D01*
X45734Y142824D01*
X43735D01*
X42735Y141824D01*
Y138825D01*
Y135826D02*
Y133827D01*
X43735Y132827D01*
X45734D01*
X46734Y133827D01*
Y135826D01*
X45734Y136826D01*
X43735D01*
X42735Y135826D01*
Y130828D02*
X46734D01*
Y127829D01*
X45734Y126829D01*
X42735D01*
Y124830D02*
X46734D01*
Y121830D01*
X45734Y120831D01*
X42735D01*
Y115832D02*
Y117832D01*
X43735Y118832D01*
X45734D01*
X46734Y117832D01*
Y115832D01*
X45734Y114833D01*
X44735D01*
Y118832D01*
X46734Y108835D02*
Y111834D01*
X45734Y112833D01*
X43735D01*
X42735Y111834D01*
Y108835D01*
X47734Y105836D02*
X46734D01*
Y106835D01*
Y104836D01*
Y105836D01*
X43735D01*
X42735Y104836D01*
Y101837D02*
Y99838D01*
Y100837D01*
X46734D01*
Y101837D01*
X42735Y96839D02*
X46734D01*
Y93840D01*
X45734Y92840D01*
X42735D01*
X40736Y88841D02*
Y87841D01*
X41736Y86842D01*
X46734D01*
Y89841D01*
X45734Y90841D01*
X43735D01*
X42735Y89841D01*
Y86842D01*
X48733Y78844D02*
X42735D01*
Y75845D01*
X43735Y74846D01*
X47734D01*
X48733Y75845D01*
Y78844D01*
X42735Y69847D02*
Y71847D01*
X43735Y72846D01*
X45734D01*
X46734Y71847D01*
Y69847D01*
X45734Y68848D01*
X44735D01*
Y72846D01*
X46734Y66848D02*
X42735Y64849D01*
X46734Y62850D01*
X48733Y54852D02*
X42735D01*
Y51853D01*
X43735Y50854D01*
X44735D01*
X45734Y51853D01*
Y54852D01*
Y51853D01*
X46734Y50854D01*
X47734D01*
X48733Y51853D01*
Y54852D01*
X42735Y47855D02*
Y45855D01*
X43735Y44855D01*
X45734D01*
X46734Y45855D01*
Y47855D01*
X45734Y48854D01*
X43735D01*
X42735Y47855D01*
X46734Y41856D02*
Y39857D01*
X45734Y38857D01*
X42735D01*
Y41856D01*
X43735Y42856D01*
X44735Y41856D01*
Y38857D01*
X46734Y36858D02*
X42735D01*
X44735D01*
X45734Y35858D01*
X46734Y34859D01*
Y33859D01*
X48733Y26861D02*
X42735D01*
Y29860D01*
X43735Y30860D01*
X45734D01*
X46734Y29860D01*
Y26861D01*
X2816Y4998D02*
X-3182D01*
Y1999D01*
X-2182Y1000D01*
X-1182D01*
X-183Y1999D01*
Y4998D01*
Y1999D01*
X817Y1000D01*
X1816D01*
X2816Y1999D01*
Y4998D01*
X-3182Y-1000D02*
X2816D01*
X817Y-2999D01*
X2816Y-4998D01*
X-3182D01*
X-7781Y23992D02*
X-6781Y24992D01*
Y26991D01*
X-7781Y27991D01*
X-11780D01*
X-12779Y26991D01*
Y24992D01*
X-11780Y23992D01*
X-12779Y20993D02*
Y18994D01*
X-11780Y17994D01*
X-9781D01*
X-8781Y18994D01*
Y20993D01*
X-9781Y21993D01*
X-11780D01*
X-12779Y20993D01*
Y15995D02*
X-8781D01*
Y12996D01*
X-9781Y11996D01*
X-12779D01*
Y9997D02*
X-8781D01*
Y6998D01*
X-9781Y5998D01*
X-12779D01*
Y1000D02*
Y2999D01*
X-11780Y3999D01*
X-9781D01*
X-8781Y2999D01*
Y1000D01*
X-9781Y-0D01*
X-10780D01*
Y3999D01*
X-8781Y-5998D02*
Y-2999D01*
X-9781Y-1999D01*
X-11780D01*
X-12779Y-2999D01*
Y-5998D01*
X-7781Y-8997D02*
X-8781D01*
Y-7997D01*
Y-9997D01*
Y-8997D01*
X-11780D01*
X-12779Y-9997D01*
Y-12996D02*
Y-14995D01*
Y-13995D01*
X-8781D01*
Y-12996D01*
X-12779Y-18994D02*
Y-20993D01*
X-11780Y-21993D01*
X-9781D01*
X-8781Y-20993D01*
Y-18994D01*
X-9781Y-17994D01*
X-11780D01*
X-12779Y-18994D01*
Y-23992D02*
X-8781D01*
Y-26991D01*
X-9781Y-27991D01*
X-12779D01*
X127237Y-83952D02*
X123238D01*
X127237Y-79954D01*
Y-78954D01*
X126237Y-77955D01*
X124238D01*
X123238Y-78954D01*
X139233D02*
X138233Y-77955D01*
X136234D01*
X135234Y-78954D01*
Y-82953D01*
X136234Y-83952D01*
X138233D01*
X139233Y-82953D01*
X145231Y-77955D02*
X141232D01*
Y-83952D01*
X145231D01*
X141232Y-80954D02*
X143232D01*
X147231Y-77955D02*
Y-83952D01*
X151229D01*
X153229Y-77955D02*
Y-83952D01*
X157227D01*
X159227Y-79954D02*
X160226D01*
Y-80954D01*
X159227D01*
Y-79954D01*
Y-82953D02*
X160226D01*
Y-83952D01*
X159227D01*
Y-82953D01*
X107243Y-87552D02*
Y-93550D01*
X110242D01*
X111242Y-92550D01*
Y-88552D01*
X110242Y-87552D01*
X107243D01*
X113242Y-93550D02*
Y-87552D01*
X117240Y-93550D01*
Y-87552D01*
X119240Y-93550D02*
Y-87552D01*
X122239D01*
X123238Y-88552D01*
Y-90551D01*
X122239Y-91551D01*
X119240D01*
X125238Y-89552D02*
X126237D01*
Y-90551D01*
X125238D01*
Y-89552D01*
Y-92550D02*
X126237D01*
Y-93550D01*
X125238D01*
Y-92550D01*
X136234Y-93550D02*
Y-87552D01*
X139233D01*
X140233Y-88552D01*
Y-90551D01*
X139233Y-91551D01*
X136234D01*
X138233D02*
X140233Y-93550D01*
X146231Y-87552D02*
X144231Y-88552D01*
X142232Y-90551D01*
Y-92550D01*
X143232Y-93550D01*
X145231D01*
X146231Y-92550D01*
Y-91551D01*
X145231Y-90551D01*
X142232D01*
X152229Y-87552D02*
X148230D01*
Y-90551D01*
X150230Y-89552D01*
X151229D01*
X152229Y-90551D01*
Y-92550D01*
X151229Y-93550D01*
X149230D01*
X148230Y-92550D01*
X155228Y-94550D02*
X156228Y-93550D01*
Y-92550D01*
X155228D01*
Y-93550D01*
X156228D01*
X155228Y-94550D01*
X154228Y-95550D01*
X160226Y-93550D02*
Y-87552D01*
X163225D01*
X164225Y-88552D01*
Y-90551D01*
X163225Y-91551D01*
X160226D01*
X162226D02*
X164225Y-93550D01*
X166224Y-87552D02*
X170223D01*
Y-88552D01*
X166224Y-92550D01*
Y-93550D01*
X172222Y-88552D02*
X173222Y-87552D01*
X175222D01*
X176221Y-88552D01*
Y-89552D01*
X175222Y-90551D01*
X174222D01*
X175222D01*
X176221Y-91551D01*
Y-92550D01*
X175222Y-93550D01*
X173222D01*
X172222Y-92550D01*
X120739Y-97150D02*
X118740D01*
X119739D01*
Y-102148D01*
X118740Y-103148D01*
X117740D01*
X116740Y-102148D01*
X122738Y-103148D02*
Y-97150D01*
X125738D01*
X126737Y-98150D01*
Y-100149D01*
X125738Y-101148D01*
X122738D01*
X128736Y-103148D02*
X130736D01*
X129736D01*
Y-97150D01*
X128736Y-98150D01*
X133735D02*
X134734Y-97150D01*
X136734D01*
X137734Y-98150D01*
Y-102148D01*
X136734Y-103148D01*
X134734D01*
X133735Y-102148D01*
Y-98150D01*
X145731Y-100149D02*
X149730D01*
X151729Y-103148D02*
X154728Y-100149D01*
X151729Y-97150D01*
X162725D02*
Y-103148D01*
X165725D01*
X166724Y-102148D01*
Y-101148D01*
X165725Y-100149D01*
X162725D01*
X165725D01*
X166724Y-99149D01*
Y-98150D01*
X165725Y-97150D01*
X162725D01*
X126237Y-146945D02*
Y-140947D01*
X123238Y-143946D01*
X127237D01*
X139233Y-141946D02*
X138233Y-140947D01*
X136234D01*
X135234Y-141946D01*
Y-145945D01*
X136234Y-146945D01*
X138233D01*
X139233Y-145945D01*
X145231Y-140947D02*
X141232D01*
Y-146945D01*
X145231D01*
X141232Y-143946D02*
X143232D01*
X147231Y-140947D02*
Y-146945D01*
X151229D01*
X153229Y-140947D02*
Y-146945D01*
X157227D01*
X159227Y-142946D02*
X160226D01*
Y-143946D01*
X159227D01*
Y-142946D01*
Y-145945D02*
X160226D01*
Y-146945D01*
X159227D01*
Y-145945D01*
X83251Y-150544D02*
Y-156542D01*
X86250D01*
X87250Y-155543D01*
Y-151544D01*
X86250Y-150544D01*
X83251D01*
X89249Y-156542D02*
Y-150544D01*
X93248Y-156542D01*
Y-150544D01*
X95247Y-156542D02*
Y-150544D01*
X98246D01*
X99246Y-151544D01*
Y-153543D01*
X98246Y-154543D01*
X95247D01*
X101245Y-152544D02*
X102245D01*
Y-153543D01*
X101245D01*
Y-152544D01*
Y-155543D02*
X102245D01*
Y-156542D01*
X101245D01*
Y-155543D01*
X112242Y-156542D02*
Y-150544D01*
X115241D01*
X116241Y-151544D01*
Y-153543D01*
X115241Y-154543D01*
X112242D01*
X114241D02*
X116241Y-156542D01*
X122239Y-150544D02*
X118240D01*
Y-153543D01*
X120239Y-152544D01*
X121239D01*
X122239Y-153543D01*
Y-155543D01*
X121239Y-156542D01*
X119240D01*
X118240Y-155543D01*
X128237Y-156542D02*
X124238D01*
X128237Y-152544D01*
Y-151544D01*
X127237Y-150544D01*
X125238D01*
X124238Y-151544D01*
X131236Y-157542D02*
X132235Y-156542D01*
Y-155543D01*
X131236D01*
Y-156542D01*
X132235D01*
X131236Y-157542D01*
X130236Y-158542D01*
X136234Y-156542D02*
Y-150544D01*
X139233D01*
X140233Y-151544D01*
Y-153543D01*
X139233Y-154543D01*
X136234D01*
X138233D02*
X140233Y-156542D01*
X146231Y-150544D02*
X142232D01*
Y-153543D01*
X144231Y-152544D01*
X145231D01*
X146231Y-153543D01*
Y-155543D01*
X145231Y-156542D01*
X143232D01*
X142232Y-155543D01*
X148230Y-151544D02*
X149230Y-150544D01*
X151229D01*
X152229Y-151544D01*
Y-152544D01*
X151229Y-153543D01*
X150230D01*
X151229D01*
X152229Y-154543D01*
Y-155543D01*
X151229Y-156542D01*
X149230D01*
X148230Y-155543D01*
X155228Y-157542D02*
X156228Y-156542D01*
Y-155543D01*
X155228D01*
Y-156542D01*
X156228D01*
X155228Y-157542D01*
X154228Y-158542D01*
X160226Y-156542D02*
Y-150544D01*
X163225D01*
X164225Y-151544D01*
Y-153543D01*
X163225Y-154543D01*
X160226D01*
X162226D02*
X164225Y-156542D01*
X166224Y-150544D02*
X170223D01*
Y-151544D01*
X166224Y-155543D01*
Y-156542D01*
X172222Y-151544D02*
X173222Y-150544D01*
X175222D01*
X176221Y-151544D01*
Y-152544D01*
X175222Y-153543D01*
X174222D01*
X175222D01*
X176221Y-154543D01*
Y-155543D01*
X175222Y-156542D01*
X173222D01*
X172222Y-155543D01*
X179220Y-157542D02*
X180220Y-156542D01*
Y-155543D01*
X179220D01*
Y-156542D01*
X180220D01*
X179220Y-157542D01*
X178220Y-158542D01*
X184219Y-156542D02*
Y-150544D01*
X187218D01*
X188217Y-151544D01*
Y-153543D01*
X187218Y-154543D01*
X184219D01*
X186218D02*
X188217Y-156542D01*
X190217Y-150544D02*
X194215D01*
Y-151544D01*
X190217Y-155543D01*
Y-156542D01*
X200213Y-150544D02*
X198214Y-151544D01*
X196215Y-153543D01*
Y-155543D01*
X197214Y-156542D01*
X199214D01*
X200213Y-155543D01*
Y-154543D01*
X199214Y-153543D01*
X196215D01*
X120739Y-160142D02*
X118740D01*
X119739D01*
Y-165140D01*
X118740Y-166140D01*
X117740D01*
X116740Y-165140D01*
X122738Y-166140D02*
Y-160142D01*
X125738D01*
X126737Y-161142D01*
Y-163141D01*
X125738Y-164141D01*
X122738D01*
X128736Y-166140D02*
X130736D01*
X129736D01*
Y-160142D01*
X128736Y-161142D01*
X133735D02*
X134734Y-160142D01*
X136734D01*
X137734Y-161142D01*
Y-165140D01*
X136734Y-166140D01*
X134734D01*
X133735Y-165140D01*
Y-161142D01*
X145731Y-163141D02*
X149730D01*
X151729Y-166140D02*
X154728Y-163141D01*
X151729Y-160142D01*
X162725Y-166140D02*
Y-162141D01*
X164725Y-160142D01*
X166724Y-162141D01*
Y-166140D01*
Y-163141D01*
X162725D01*
X172365Y122109D02*
Y117111D01*
X173364Y116111D01*
X175364D01*
X176363Y117111D01*
Y122109D01*
X178363Y116111D02*
X181362D01*
X182361Y117111D01*
X181362Y118110D01*
X179362D01*
X178363Y119110D01*
X179362Y120110D01*
X182361D01*
X187360Y116111D02*
X185360D01*
X184361Y117111D01*
Y119110D01*
X185360Y120110D01*
X187360D01*
X188359Y119110D01*
Y118110D01*
X184361D01*
X199356Y116111D02*
Y122109D01*
X196357Y119110D01*
X200356D01*
X202355Y120110D02*
X206354Y116111D01*
X204354Y118110D01*
X206354Y120110D01*
X202355Y116111D01*
X208353Y121109D02*
X209353Y122109D01*
X211352D01*
X212352Y121109D01*
Y120110D01*
X211352Y119110D01*
X210352D01*
X211352D01*
X212352Y118110D01*
Y117111D01*
X211352Y116111D01*
X209353D01*
X208353Y117111D01*
X214351Y116111D02*
Y120110D01*
X215351D01*
X216350Y119110D01*
Y116111D01*
Y119110D01*
X217350Y120110D01*
X218350Y119110D01*
Y116111D01*
X220349D02*
Y120110D01*
X221349D01*
X222348Y119110D01*
Y116111D01*
Y119110D01*
X223348Y120110D01*
X224348Y119110D01*
Y116111D01*
X236344Y121109D02*
X235344Y122109D01*
X233345D01*
X232345Y121109D01*
Y120110D01*
X233345Y119110D01*
X235344D01*
X236344Y118110D01*
Y117111D01*
X235344Y116111D01*
X233345D01*
X232345Y117111D01*
X238343Y114111D02*
Y120110D01*
X241342D01*
X242342Y119110D01*
Y117111D01*
X241342Y116111D01*
X238343D01*
X245341Y120110D02*
X247340D01*
X248340Y119110D01*
Y116111D01*
X245341D01*
X244341Y117111D01*
X245341Y118110D01*
X248340D01*
X254338Y120110D02*
X251339D01*
X250339Y119110D01*
Y117111D01*
X251339Y116111D01*
X254338D01*
X259336D02*
X257337D01*
X256337Y117111D01*
Y119110D01*
X257337Y120110D01*
X259336D01*
X260336Y119110D01*
Y118110D01*
X256337D01*
X262335Y120110D02*
Y116111D01*
Y118110D01*
X263335Y119110D01*
X264335Y120110D01*
X265335D01*
X268334Y116111D02*
X271333D01*
X272332Y117111D01*
X271333Y118110D01*
X269333D01*
X268334Y119110D01*
X269333Y120110D01*
X272332D01*
X315898Y-28146D02*
X309900D01*
Y-25148D01*
X310900Y-24148D01*
X312899D01*
X313899Y-25148D01*
Y-28146D01*
X315898Y-21149D02*
Y-19149D01*
X314899Y-18150D01*
X312899D01*
X311900Y-19149D01*
Y-21149D01*
X312899Y-22148D01*
X314899D01*
X315898Y-21149D01*
X311900Y-16150D02*
X314899D01*
X315898Y-15151D01*
X314899Y-14151D01*
X315898Y-13151D01*
X314899Y-12152D01*
X311900D01*
X315898Y-7153D02*
Y-9153D01*
X314899Y-10152D01*
X312899D01*
X311900Y-9153D01*
Y-7153D01*
X312899Y-6154D01*
X313899D01*
Y-10152D01*
X311900Y-4154D02*
X315898D01*
X313899D01*
X312899Y-3155D01*
X311900Y-2155D01*
Y-1155D01*
X309900Y7842D02*
Y11841D01*
Y9841D01*
X315898D01*
X311900Y14840D02*
Y16839D01*
X312899Y17839D01*
X315898D01*
Y14840D01*
X314899Y13840D01*
X313899Y14840D01*
Y17839D01*
X317898Y19838D02*
X311900D01*
Y22837D01*
X312899Y23837D01*
X314899D01*
X315898Y22837D01*
Y19838D01*
Y25836D02*
Y28835D01*
X314899Y29835D01*
X313899Y28835D01*
Y26836D01*
X312899Y25836D01*
X311900Y26836D01*
Y29835D01*
X-10688Y-47627D02*
Y-45627D01*
X-11687Y-44628D01*
X-15686D01*
X-16686Y-45627D01*
Y-47627D01*
X-15686Y-48627D01*
X-11687D01*
X-10688Y-47627D01*
X-12687Y-50626D02*
X-15686D01*
X-16686Y-51626D01*
Y-54624D01*
X-12687D01*
X-11687Y-57624D02*
X-12687D01*
Y-56624D01*
Y-58623D01*
Y-57624D01*
X-15686D01*
X-16686Y-58623D01*
X-18685Y-61622D02*
X-12687D01*
Y-64621D01*
X-13687Y-65621D01*
X-15686D01*
X-16686Y-64621D01*
Y-61622D01*
X-12687Y-67620D02*
X-15686D01*
X-16686Y-68620D01*
Y-71619D01*
X-12687D01*
X-11687Y-74618D02*
X-12687D01*
Y-73618D01*
Y-75618D01*
Y-74618D01*
X-15686D01*
X-16686Y-75618D01*
X-10688Y-84615D02*
X-14686D01*
X-16686Y-86614D01*
X-14686Y-88613D01*
X-10688D01*
X-16686Y-91613D02*
Y-93612D01*
X-15686Y-94612D01*
X-13687D01*
X-12687Y-93612D01*
Y-91613D01*
X-13687Y-90613D01*
X-15686D01*
X-16686Y-91613D01*
Y-96611D02*
Y-98610D01*
Y-97611D01*
X-10688D01*
Y-96611D01*
X-11687Y-102609D02*
X-12687D01*
Y-101609D01*
Y-103609D01*
Y-102609D01*
X-15686D01*
X-16686Y-103609D01*
X-12687Y-107607D02*
Y-109607D01*
X-13687Y-110606D01*
X-16686D01*
Y-107607D01*
X-15686Y-106608D01*
X-14686Y-107607D01*
Y-110606D01*
X-18685Y-114605D02*
Y-115605D01*
X-17685Y-116604D01*
X-12687D01*
Y-113605D01*
X-13687Y-112606D01*
X-15686D01*
X-16686Y-113605D01*
Y-116604D01*
Y-121603D02*
Y-119604D01*
X-15686Y-118604D01*
X-13687D01*
X-12687Y-119604D01*
Y-121603D01*
X-13687Y-122602D01*
X-14686D01*
Y-118604D01*
X-16686Y-124602D02*
Y-127601D01*
X-15686Y-128601D01*
X-14686Y-127601D01*
Y-125602D01*
X-13687Y-124602D01*
X-12687Y-125602D01*
Y-128601D01*
X-11687Y131600D02*
X-10688Y132599D01*
Y134599D01*
X-11687Y135598D01*
X-15686D01*
X-16686Y134599D01*
Y132599D01*
X-15686Y131600D01*
X-16686Y126601D02*
Y128601D01*
X-15686Y129600D01*
X-13687D01*
X-12687Y128601D01*
Y126601D01*
X-13687Y125601D01*
X-14686D01*
Y129600D01*
X-16686Y123602D02*
X-12687D01*
Y120603D01*
X-13687Y119604D01*
X-16686D01*
X-11687Y116604D02*
X-12687D01*
Y117604D01*
Y115605D01*
Y116604D01*
X-15686D01*
X-16686Y115605D01*
Y109607D02*
Y111606D01*
X-15686Y112606D01*
X-13687D01*
X-12687Y111606D01*
Y109607D01*
X-13687Y108607D01*
X-14686D01*
Y112606D01*
X-12687Y106608D02*
X-16686D01*
X-14686D01*
X-13687Y105608D01*
X-12687Y104608D01*
Y103609D01*
X-11687Y99610D02*
X-12687D01*
Y100610D01*
Y98610D01*
Y99610D01*
X-15686D01*
X-16686Y98610D01*
X-12687Y94612D02*
Y92612D01*
X-13687Y91612D01*
X-16686D01*
Y94612D01*
X-15686Y95611D01*
X-14686Y94612D01*
Y91612D01*
X-18685Y89613D02*
X-12687D01*
Y86614D01*
X-13687Y85615D01*
X-15686D01*
X-16686Y86614D01*
Y89613D01*
X-10688Y73618D02*
Y75618D01*
Y74618D01*
X-15686D01*
X-16686Y75618D01*
Y76617D01*
X-15686Y77617D01*
X-12687Y71619D02*
X-15686D01*
X-16686Y70619D01*
Y67620D01*
X-12687D01*
X-16686Y65621D02*
X-12687D01*
Y64621D01*
X-13687Y63622D01*
X-16686D01*
X-13687D01*
X-12687Y62622D01*
X-13687Y61622D01*
X-16686D01*
X-18685Y59623D02*
X-12687D01*
Y56624D01*
X-13687Y55624D01*
X-15686D01*
X-16686Y56624D01*
Y59623D01*
Y50626D02*
Y52625D01*
X-15686Y53625D01*
X-13687D01*
X-12687Y52625D01*
Y50626D01*
X-13687Y49626D01*
X-14686D01*
Y53625D01*
X-12687Y47627D02*
X-16686D01*
X-14686D01*
X-13687Y46627D01*
X-12687Y45627D01*
Y44628D01*
X-16686Y41629D02*
Y38630D01*
X-15686Y37630D01*
X-14686Y38630D01*
Y40629D01*
X-13687Y41629D01*
X-12687Y40629D01*
Y37630D01*
D11*
X288499Y-1772D02*
Y1772D01*
X275901Y-1772D02*
Y1772D01*
X139961Y49606D02*
X143504D01*
X139961Y37008D02*
X143504D01*
X22047Y-1772D02*
Y1772D01*
X9449Y-1772D02*
Y1772D01*
X22047Y-88386D02*
Y-84842D01*
X9449Y-88386D02*
Y-84842D01*
X9449Y84842D02*
Y88386D01*
X22047Y84842D02*
Y88386D01*
X137402Y127657D02*
X138189D01*
X137402Y132185D02*
X138189D01*
X145276Y127657D02*
X146063D01*
X145276Y132185D02*
X146063D01*
X134502Y158593D02*
Y154657D01*
X132534D01*
X131878Y155313D01*
Y156625D01*
X132534Y157281D01*
X134502D01*
X127942Y155313D02*
X128598Y154657D01*
X129910D01*
X130566Y155313D01*
Y157937D01*
X129910Y158593D01*
X128598D01*
X127942Y157937D01*
X126630Y154657D02*
Y158593D01*
X124662D01*
X124006Y157937D01*
Y157281D01*
X124662Y156625D01*
X126630D01*
X124662D01*
X124006Y155969D01*
Y155313D01*
X124662Y154657D01*
X126630D01*
X122694Y155969D02*
X122038D01*
Y156625D01*
X122694D01*
Y155969D01*
Y157937D02*
X122038D01*
Y158593D01*
X122694D01*
Y157937D01*
X115479Y154657D02*
X112855D01*
Y155313D01*
X115479Y157937D01*
Y158593D01*
X111543Y155313D02*
X110887Y154657D01*
X109575D01*
X108919Y155313D01*
Y157937D01*
X109575Y158593D01*
X110887D01*
X111543Y157937D01*
Y155313D01*
X104983Y154657D02*
X107607D01*
Y156625D01*
X106295Y155969D01*
X105640D01*
X104983Y156625D01*
Y157937D01*
X105640Y158593D01*
X106951D01*
X107607Y157937D01*
X103672Y156625D02*
X101048D01*
X99736Y155313D02*
X99080Y154657D01*
X97768D01*
X97112Y155313D01*
Y157937D01*
X97768Y158593D01*
X99080D01*
X99736Y157937D01*
Y155313D01*
X93176Y158593D02*
X95800D01*
X93176Y155969D01*
Y155313D01*
X93832Y154657D01*
X95144D01*
X95800Y155313D01*
X91864Y158593D02*
X90552D01*
X91208D01*
Y154657D01*
X91864Y155313D01*
X88585Y157937D02*
X87929Y158593D01*
X86617D01*
X85961Y157937D01*
Y155313D01*
X86617Y154657D01*
X87929D01*
X88585Y155313D01*
Y155969D01*
X87929Y156625D01*
X85961D01*
X84649Y155313D02*
X83993Y154657D01*
X82681D01*
X82025Y155313D01*
Y157937D01*
X82681Y158593D01*
X83993D01*
X84649Y157937D01*
Y155313D01*
X76777Y158593D02*
Y154657D01*
X74809D01*
X74154Y155313D01*
Y156625D01*
X74809Y157281D01*
X76777D01*
X75465D02*
X74154Y158593D01*
X70218Y154657D02*
X72842D01*
Y158593D01*
X70218D01*
X72842Y156625D02*
X71530D01*
X68906Y154657D02*
Y157281D01*
X67594Y158593D01*
X66282Y157281D01*
Y154657D01*
X61034Y158593D02*
Y155969D01*
X59723Y154657D01*
X58411Y155969D01*
Y158593D01*
Y156625D01*
X61034D01*
X57099Y155313D02*
X56443Y154657D01*
X55131D01*
X54475Y155313D01*
Y157937D01*
X55131Y158593D01*
X56443D01*
X57099Y157937D01*
Y155313D01*
X135813Y165206D02*
Y162582D01*
X134502Y161270D01*
X133190Y162582D01*
Y165206D01*
Y163238D01*
X135813D01*
X129254Y161926D02*
X129910Y161270D01*
X131222D01*
X131878Y161926D01*
Y162582D01*
X131222Y163238D01*
X129910D01*
X129254Y163894D01*
Y164550D01*
X129910Y165206D01*
X131222D01*
X131878Y164550D01*
X125318Y161926D02*
X125974Y161270D01*
X127286D01*
X127942Y161926D01*
Y162582D01*
X127286Y163238D01*
X125974D01*
X125318Y163894D01*
Y164550D01*
X125974Y165206D01*
X127286D01*
X127942Y164550D01*
X124006Y161270D02*
Y161926D01*
X122694Y163238D01*
X121382Y161926D01*
Y161270D01*
X122694Y163238D02*
Y165206D01*
X120071Y162582D02*
X119414D01*
Y163238D01*
X120071D01*
Y162582D01*
Y164550D02*
X119414D01*
Y165206D01*
X120071D01*
Y164550D01*
X112855Y161270D02*
X110231D01*
Y161926D01*
X112855Y164550D01*
Y165206D01*
X108919D02*
X107607D01*
X108263D01*
Y161270D01*
X108919Y161926D01*
X105640D02*
X104983Y161270D01*
X103672D01*
X103016Y161926D01*
Y164550D01*
X103672Y165206D01*
X104983D01*
X105640Y164550D01*
Y161926D01*
X101704Y163238D02*
X99080D01*
X97768Y161926D02*
X97112Y161270D01*
X95800D01*
X95144Y161926D01*
Y164550D01*
X95800Y165206D01*
X97112D01*
X97768Y164550D01*
Y161926D01*
X91208Y165206D02*
X93832D01*
X91208Y162582D01*
Y161926D01*
X91864Y161270D01*
X93176D01*
X93832Y161926D01*
X89897Y165206D02*
X88585D01*
X89240D01*
Y161270D01*
X89897Y161926D01*
X86617Y164550D02*
X85961Y165206D01*
X84649D01*
X83993Y164550D01*
Y161926D01*
X84649Y161270D01*
X85961D01*
X86617Y161926D01*
Y162582D01*
X85961Y163238D01*
X83993D01*
X82681Y165206D02*
X81369D01*
X82025D01*
Y161270D01*
X82681Y161926D01*
X75465Y165206D02*
Y161270D01*
X73498D01*
X72842Y161926D01*
Y163238D01*
X73498Y163894D01*
X75465D01*
X74154D02*
X72842Y165206D01*
X68906Y161270D02*
X71530D01*
Y165206D01*
X68906D01*
X71530Y163238D02*
X70218D01*
X67594Y161270D02*
Y163894D01*
X66282Y165206D01*
X64970Y163894D01*
Y161270D01*
X59723Y165206D02*
Y162582D01*
X58411Y161270D01*
X57099Y162582D01*
Y165206D01*
Y163238D01*
X59723D01*
X55787Y161926D02*
X55131Y161270D01*
X53819D01*
X53163Y161926D01*
Y164550D01*
X53819Y165206D01*
X55131D01*
X55787Y164550D01*
Y161926D01*
X219787Y147930D02*
X220443Y147274D01*
X221755D01*
X222411Y147930D01*
Y148586D01*
X221755Y149242D01*
X220443D01*
X219787Y149898D01*
Y150554D01*
X220443Y151209D01*
X221755D01*
X222411Y150554D01*
X218475Y151209D02*
X215851Y148586D01*
X214539Y151209D02*
Y147274D01*
X211915Y151209D01*
Y147274D01*
X321064Y-91862D02*
X323688D01*
X325000Y-90550D01*
X323688Y-89238D01*
X321064D01*
X321720Y-85302D02*
X321064Y-85958D01*
Y-87270D01*
X321720Y-87926D01*
X324344D01*
X325000Y-87270D01*
Y-85958D01*
X324344Y-85302D01*
X321064Y-81366D02*
Y-83990D01*
X323032D01*
X322376Y-82678D01*
Y-82023D01*
X323032Y-81366D01*
X324344D01*
X325000Y-82023D01*
Y-83334D01*
X324344Y-83990D01*
X321064Y-48555D02*
X323688D01*
X325000Y-47243D01*
X323688Y-45931D01*
X321064D01*
X321720Y-41995D02*
X321064Y-42651D01*
Y-43963D01*
X321720Y-44619D01*
X324344D01*
X325000Y-43963D01*
Y-42651D01*
X324344Y-41995D01*
X325000Y-38715D02*
X321064D01*
X323032Y-40683D01*
Y-38059D01*
X321064Y-5248D02*
X323688D01*
X325000Y-3936D01*
X323688Y-2624D01*
X321064D01*
X321720Y1312D02*
X321064Y656D01*
Y-656D01*
X321720Y-1312D01*
X324344D01*
X325000Y-656D01*
Y656D01*
X324344Y1312D01*
X321720Y2624D02*
X321064Y3280D01*
Y4592D01*
X321720Y5248D01*
X322376D01*
X323032Y4592D01*
Y3936D01*
Y4592D01*
X323688Y5248D01*
X324344D01*
X325000Y4592D01*
Y3280D01*
X324344Y2624D01*
X321064Y38059D02*
X323688D01*
X325000Y39371D01*
X323688Y40683D01*
X321064D01*
X321720Y44619D02*
X321064Y43963D01*
Y42651D01*
X321720Y41995D01*
X324344D01*
X325000Y42651D01*
Y43963D01*
X324344Y44619D01*
X325000Y48555D02*
Y45931D01*
X322376Y48555D01*
X321720D01*
X321064Y47899D01*
Y46587D01*
X321720Y45931D01*
X321064Y82023D02*
X323688D01*
X325000Y83334D01*
X323688Y84646D01*
X321064D01*
X321720Y88582D02*
X321064Y87926D01*
Y86614D01*
X321720Y85958D01*
X324344D01*
X325000Y86614D01*
Y87926D01*
X324344Y88582D01*
X325000Y89894D02*
Y91206D01*
Y90550D01*
X321064D01*
X321720Y89894D01*
X-37600Y64302D02*
Y61678D01*
Y62990D01*
X-41535D01*
Y60366D02*
X-38912D01*
X-37600Y59054D01*
X-38912Y57743D01*
X-41535D01*
X-39568D01*
Y60366D01*
X-41535Y56431D02*
X-37600D01*
Y54463D01*
X-38256Y53807D01*
X-39568D01*
X-40224Y54463D01*
Y56431D01*
X-41535Y50527D02*
X-37600D01*
X-39568Y52495D01*
Y49871D01*
X-37600Y93830D02*
Y91206D01*
Y92518D01*
X-41535D01*
Y89894D02*
X-38912D01*
X-37600Y88582D01*
X-38912Y87270D01*
X-41535D01*
X-39568D01*
Y89894D01*
X-41535Y85958D02*
X-37600D01*
Y83990D01*
X-38256Y83334D01*
X-39568D01*
X-40224Y83990D01*
Y85958D01*
X-38256Y82023D02*
X-37600Y81366D01*
Y80055D01*
X-38256Y79399D01*
X-38912D01*
X-39568Y80055D01*
Y80711D01*
Y80055D01*
X-40224Y79399D01*
X-40879D01*
X-41535Y80055D01*
Y81366D01*
X-40879Y82023D01*
X-37600Y123357D02*
Y120733D01*
Y122045D01*
X-41535D01*
Y119422D02*
X-38912D01*
X-37600Y118110D01*
X-38912Y116798D01*
X-41535D01*
X-39568D01*
Y119422D01*
X-41535Y115486D02*
X-37600D01*
Y113518D01*
X-38256Y112862D01*
X-39568D01*
X-40224Y113518D01*
Y115486D01*
X-41535Y108926D02*
Y111550D01*
X-38912Y108926D01*
X-38256D01*
X-37600Y109582D01*
Y110894D01*
X-38256Y111550D01*
X-37600Y-116800D02*
X-40224D01*
X-41535Y-118112D01*
X-40224Y-119423D01*
X-37600D01*
X-38256Y-123359D02*
X-37600Y-122703D01*
Y-121391D01*
X-38256Y-120735D01*
X-40879D01*
X-41535Y-121391D01*
Y-122703D01*
X-40879Y-123359D01*
X-37600Y-127295D02*
Y-124671D01*
X-39568D01*
X-38912Y-125983D01*
Y-126639D01*
X-39568Y-127295D01*
X-40879D01*
X-41535Y-126639D01*
Y-125327D01*
X-40879Y-124671D01*
X-37600Y-99083D02*
X-40224D01*
X-41535Y-100395D01*
X-40224Y-101707D01*
X-37600D01*
X-38256Y-105643D02*
X-37600Y-104987D01*
Y-103675D01*
X-38256Y-103019D01*
X-40879D01*
X-41535Y-103675D01*
Y-104987D01*
X-40879Y-105643D01*
X-41535Y-108922D02*
X-37600D01*
X-39568Y-106955D01*
Y-109578D01*
X-37600Y-81366D02*
X-40224D01*
X-41535Y-82678D01*
X-40224Y-83990D01*
X-37600D01*
X-38256Y-87926D02*
X-37600Y-87270D01*
Y-85958D01*
X-38256Y-85302D01*
X-40879D01*
X-41535Y-85958D01*
Y-87270D01*
X-40879Y-87926D01*
X-38256Y-89238D02*
X-37600Y-89894D01*
Y-91206D01*
X-38256Y-91862D01*
X-38912D01*
X-39568Y-91206D01*
Y-90550D01*
Y-91206D01*
X-40224Y-91862D01*
X-40879D01*
X-41535Y-91206D01*
Y-89894D01*
X-40879Y-89238D01*
X-37600Y-63650D02*
X-40224D01*
X-41535Y-64962D01*
X-40224Y-66274D01*
X-37600D01*
X-38256Y-70210D02*
X-37600Y-69554D01*
Y-68242D01*
X-38256Y-67586D01*
X-40879D01*
X-41535Y-68242D01*
Y-69554D01*
X-40879Y-70210D01*
X-41535Y-74145D02*
Y-71522D01*
X-38912Y-74145D01*
X-38256D01*
X-37600Y-73489D01*
Y-72177D01*
X-38256Y-71522D01*
X-37600Y-46589D02*
X-40224D01*
X-41535Y-47901D01*
X-40224Y-49213D01*
X-37600D01*
X-38256Y-53149D02*
X-37600Y-52493D01*
Y-51181D01*
X-38256Y-50525D01*
X-40879D01*
X-41535Y-51181D01*
Y-52493D01*
X-40879Y-53149D01*
X-41535Y-54461D02*
Y-55773D01*
Y-55117D01*
X-37600D01*
X-38256Y-54461D01*
X-29528Y-114832D02*
Y-117455D01*
Y-116144D01*
X-33464D01*
Y-118767D02*
X-29528D01*
Y-120735D01*
X-30184Y-121391D01*
X-31496D01*
X-32152Y-120735D01*
Y-118767D01*
X-29528Y-125327D02*
Y-122703D01*
X-31496D01*
X-30840Y-124015D01*
Y-124671D01*
X-31496Y-125327D01*
X-32808D01*
X-33464Y-124671D01*
Y-123359D01*
X-32808Y-122703D01*
Y-126639D02*
X-33464Y-127295D01*
Y-128607D01*
X-32808Y-129263D01*
X-30184D01*
X-29528Y-128607D01*
Y-127295D01*
X-30184Y-126639D01*
X-30840D01*
X-31496Y-127295D01*
Y-129263D01*
X-29528Y-43966D02*
Y-46589D01*
Y-45278D01*
X-33464D01*
Y-47901D02*
X-29528D01*
Y-49869D01*
X-30184Y-50525D01*
X-31496D01*
X-32152Y-49869D01*
Y-47901D01*
X-29528Y-54461D02*
Y-51837D01*
X-31496D01*
X-30840Y-53149D01*
Y-53805D01*
X-31496Y-54461D01*
X-32808D01*
X-33464Y-53805D01*
Y-52493D01*
X-32808Y-51837D01*
X-30184Y-55773D02*
X-29528Y-56429D01*
Y-57741D01*
X-30184Y-58397D01*
X-30840D01*
X-31496Y-57741D01*
X-32152Y-58397D01*
X-32808D01*
X-33464Y-57741D01*
Y-56429D01*
X-32808Y-55773D01*
X-32152D01*
X-31496Y-56429D01*
X-30840Y-55773D01*
X-30184D01*
X-31496Y-56429D02*
Y-57741D01*
X-29528Y-97115D02*
Y-99739D01*
Y-98427D01*
X-33464D01*
Y-101051D02*
X-29528D01*
Y-103019D01*
X-30184Y-103675D01*
X-31496D01*
X-32152Y-103019D01*
Y-101051D01*
X-33464Y-106955D02*
X-29528D01*
X-31496Y-104987D01*
Y-107610D01*
X-29528Y-111546D02*
Y-108922D01*
X-31496D01*
X-30840Y-110234D01*
Y-110890D01*
X-31496Y-111546D01*
X-32808D01*
X-33464Y-110890D01*
Y-109578D01*
X-32808Y-108922D01*
X-29528Y-79399D02*
Y-82023D01*
Y-80711D01*
X-33464D01*
Y-83334D02*
X-29528D01*
Y-85302D01*
X-30184Y-85958D01*
X-31496D01*
X-32152Y-85302D01*
Y-83334D01*
X-33464Y-89238D02*
X-29528D01*
X-31496Y-87270D01*
Y-89894D01*
X-33464Y-93174D02*
X-29528D01*
X-31496Y-91206D01*
Y-93830D01*
X-29528Y-61682D02*
Y-64306D01*
Y-62994D01*
X-33464D01*
Y-65618D02*
X-29528D01*
Y-67586D01*
X-30184Y-68242D01*
X-31496D01*
X-32152Y-67586D01*
Y-65618D01*
X-33464Y-71522D02*
X-29528D01*
X-31496Y-69554D01*
Y-72177D01*
X-30184Y-73489D02*
X-29528Y-74145D01*
Y-75457D01*
X-30184Y-76113D01*
X-30840D01*
X-31496Y-75457D01*
Y-74801D01*
Y-75457D01*
X-32152Y-76113D01*
X-32808D01*
X-33464Y-75457D01*
Y-74145D01*
X-32808Y-73489D01*
X277233Y15749D02*
Y19684D01*
X279201D01*
X279856Y19028D01*
Y17717D01*
X279201Y17061D01*
X277233D01*
X278545D02*
X279856Y15749D01*
X281168Y19684D02*
X283792D01*
Y19028D01*
X281168Y16405D01*
Y15749D01*
X287728Y19684D02*
X286416Y19028D01*
X285104Y17717D01*
Y16405D01*
X285760Y15749D01*
X287072D01*
X287728Y16405D01*
Y17061D01*
X287072Y17717D01*
X285104D01*
X136485Y51182D02*
Y55117D01*
X138452D01*
X139108Y54461D01*
Y53150D01*
X138452Y52494D01*
X136485D01*
X137796D02*
X139108Y51182D01*
X140420Y55117D02*
X143044D01*
Y54461D01*
X140420Y51838D01*
Y51182D01*
X144356Y54461D02*
X145012Y55117D01*
X146324D01*
X146980Y54461D01*
Y53806D01*
X146324Y53150D01*
X145668D01*
X146324D01*
X146980Y52494D01*
Y51838D01*
X146324Y51182D01*
X145012D01*
X144356Y51838D01*
X10500Y15749D02*
Y19684D01*
X12468D01*
X13124Y19028D01*
Y17717D01*
X12468Y17061D01*
X10500D01*
X11812D02*
X13124Y15749D01*
X17060Y19684D02*
X15748Y19028D01*
X14436Y17717D01*
Y16405D01*
X15092Y15749D01*
X16404D01*
X17060Y16405D01*
Y17061D01*
X16404Y17717D01*
X14436D01*
X20996Y19684D02*
X18372D01*
Y17717D01*
X19684Y18372D01*
X20340D01*
X20996Y17717D01*
Y16405D01*
X20340Y15749D01*
X19028D01*
X18372Y16405D01*
X10500Y-70865D02*
Y-66930D01*
X12468D01*
X13124Y-67586D01*
Y-68898D01*
X12468Y-69554D01*
X10500D01*
X11812D02*
X13124Y-70865D01*
X17060Y-66930D02*
X14436D01*
Y-68898D01*
X15748Y-68242D01*
X16404D01*
X17060Y-68898D01*
Y-70210D01*
X16404Y-70865D01*
X15092D01*
X14436Y-70210D01*
X18372Y-67586D02*
X19028Y-66930D01*
X20340D01*
X20996Y-67586D01*
Y-68242D01*
X20340Y-68898D01*
X19684D01*
X20340D01*
X20996Y-69554D01*
Y-70210D01*
X20340Y-70865D01*
X19028D01*
X18372Y-70210D01*
X10500Y102363D02*
Y106299D01*
X12468D01*
X13124Y105643D01*
Y104331D01*
X12468Y103675D01*
X10500D01*
X11812D02*
X13124Y102363D01*
X17060Y106299D02*
X14436D01*
Y104331D01*
X15748Y104987D01*
X16404D01*
X17060Y104331D01*
Y103019D01*
X16404Y102363D01*
X15092D01*
X14436Y103019D01*
X20996Y102363D02*
X18372D01*
X20996Y104987D01*
Y105643D01*
X20340Y106299D01*
X19028D01*
X18372Y105643D01*
X137469Y137795D02*
X136157D01*
X136813D01*
Y134515D01*
X136157Y133859D01*
X135501D01*
X134845Y134515D01*
X138780Y133859D02*
Y137795D01*
X140748D01*
X141404Y137139D01*
Y135827D01*
X140748Y135171D01*
X138780D01*
X142716Y133859D02*
X144028D01*
X143372D01*
Y137795D01*
X142716Y137139D01*
X145996D02*
X146652Y137795D01*
X147964D01*
X148620Y137139D01*
Y134515D01*
X147964Y133859D01*
X146652D01*
X145996Y134515D01*
Y137139D01*
X-34449Y-20342D02*
X-38385D01*
X-36417D01*
Y-22966D01*
X-34449D01*
X-38385D01*
X-35105Y-24278D02*
X-34449Y-24934D01*
Y-26246D01*
X-35105Y-26902D01*
X-35761D01*
X-36417Y-26246D01*
Y-25590D01*
Y-26246D01*
X-37073Y-26902D01*
X-37729D01*
X-38385Y-26246D01*
Y-24934D01*
X-37729Y-24278D01*
X-34449Y22309D02*
X-38385D01*
X-36417D01*
Y19685D01*
X-34449D01*
X-38385D01*
Y18373D02*
Y17061D01*
Y17717D01*
X-34449D01*
X-35105Y18373D01*
X-34449Y-657D02*
X-38385D01*
X-36417D01*
Y-3281D01*
X-34449D01*
X-38385D01*
Y-7217D02*
Y-4593D01*
X-35761Y-7217D01*
X-35105D01*
X-34449Y-6561D01*
Y-5249D01*
X-35105Y-4593D01*
D12*
X97463Y844D02*
X186463D01*
X97463Y-20256D02*
X186463D01*
X97463Y-19456D02*
X186463D01*
X97463Y-26656D02*
X186463D01*
Y844D01*
X97463Y-26656D02*
Y844D01*
D13*
X144832Y130621D02*
X146144D01*
X146800Y129965D01*
X146144Y129309D01*
X144832D01*
X145816D01*
Y130621D01*
X138700D02*
X136732D01*
Y129637D01*
X137060Y129309D01*
X137388D01*
X137716Y129637D01*
Y130621D01*
Y129637D01*
X138044Y129309D01*
X138372D01*
X138700Y129637D01*
Y130621D01*
D14*
X146963Y-30356D02*
X147534Y-32356D01*
X148106Y-30356D02*
X147534Y-32356D01*
X148106Y-30356D02*
X148677Y-32356D01*
X149248Y-30356D02*
X148677Y-32356D01*
X149948Y-30356D02*
X150519Y-32356D01*
X151091Y-30356D02*
X150519Y-32356D01*
X151091Y-30356D02*
X151662Y-32356D01*
X152233Y-30356D02*
X151662Y-32356D01*
X152933Y-30356D02*
X153504Y-32356D01*
X154076Y-30356D02*
X153504Y-32356D01*
X154076Y-30356D02*
X154647Y-32356D01*
X155218Y-30356D02*
X154647Y-32356D01*
X156061Y-32070D02*
X155918Y-32213D01*
X156061Y-32356D01*
X156204Y-32213D01*
X156061Y-32070D01*
X158575Y-30785D02*
X158289Y-30499D01*
X158003Y-30356D01*
X157575D01*
X157289Y-30499D01*
X157004Y-30785D01*
X156861Y-31213D01*
Y-31499D01*
X157004Y-31927D01*
X157289Y-32213D01*
X157575Y-32356D01*
X158003D01*
X158289Y-32213D01*
X158575Y-31927D01*
X159218Y-30356D02*
Y-31785D01*
X159360Y-32213D01*
X159646Y-32356D01*
X160074D01*
X160360Y-32213D01*
X160789Y-31785D01*
Y-30356D02*
Y-32356D01*
X161574Y-29357D02*
Y-32356D01*
Y-30785D02*
X161860Y-30499D01*
X162145Y-30356D01*
X162574D01*
X162860Y-30499D01*
X163145Y-30785D01*
X163288Y-31213D01*
Y-31499D01*
X163145Y-31927D01*
X162860Y-32213D01*
X162574Y-32356D01*
X162145D01*
X161860Y-32213D01*
X161574Y-31927D01*
X163931Y-31213D02*
X165645D01*
Y-30928D01*
X165502Y-30642D01*
X165359Y-30499D01*
X165073Y-30356D01*
X164645D01*
X164359Y-30499D01*
X164074Y-30785D01*
X163931Y-31213D01*
Y-31499D01*
X164074Y-31927D01*
X164359Y-32213D01*
X164645Y-32356D01*
X165073D01*
X165359Y-32213D01*
X165645Y-31927D01*
X167859Y-30785D02*
X167716Y-30499D01*
X167287Y-30356D01*
X166859D01*
X166430Y-30499D01*
X166287Y-30785D01*
X166430Y-31070D01*
X166716Y-31213D01*
X167430Y-31356D01*
X167716Y-31499D01*
X167859Y-31785D01*
Y-31927D01*
X167716Y-32213D01*
X167287Y-32356D01*
X166859D01*
X166430Y-32213D01*
X166287Y-31927D01*
X170201Y-30356D02*
Y-32356D01*
Y-30785D02*
X169915Y-30499D01*
X169630Y-30356D01*
X169201D01*
X168915Y-30499D01*
X168630Y-30785D01*
X168487Y-31213D01*
Y-31499D01*
X168630Y-31927D01*
X168915Y-32213D01*
X169201Y-32356D01*
X169630D01*
X169915Y-32213D01*
X170201Y-31927D01*
X171429Y-29357D02*
Y-31785D01*
X171572Y-32213D01*
X171858Y-32356D01*
X172143D01*
X171001Y-30356D02*
X172001D01*
X172572Y-29357D02*
Y-32356D01*
X174000Y-30356D02*
X172572Y-31785D01*
X173143Y-31213D02*
X174143Y-32356D01*
X174900Y-29357D02*
X175043Y-29499D01*
X175186Y-29357D01*
X175043Y-29214D01*
X174900Y-29357D01*
X175043Y-30356D02*
Y-32356D01*
X176143Y-29357D02*
Y-31785D01*
X176285Y-32213D01*
X176571Y-32356D01*
X176857D01*
X175714Y-30356D02*
X176714D01*
X177428Y-32070D02*
X177285Y-32213D01*
X177428Y-32356D01*
X177571Y-32213D01*
X177428Y-32070D01*
X179942Y-30785D02*
X179656Y-30499D01*
X179370Y-30356D01*
X178942D01*
X178656Y-30499D01*
X178371Y-30785D01*
X178228Y-31213D01*
Y-31499D01*
X178371Y-31927D01*
X178656Y-32213D01*
X178942Y-32356D01*
X179370D01*
X179656Y-32213D01*
X179942Y-31927D01*
X181298Y-30356D02*
X181013Y-30499D01*
X180727Y-30785D01*
X180584Y-31213D01*
Y-31499D01*
X180727Y-31927D01*
X181013Y-32213D01*
X181298Y-32356D01*
X181727D01*
X182013Y-32213D01*
X182298Y-31927D01*
X182441Y-31499D01*
Y-31213D01*
X182298Y-30785D01*
X182013Y-30499D01*
X181727Y-30356D01*
X181298D01*
X183098D02*
Y-32356D01*
Y-30928D02*
X183527Y-30499D01*
X183812Y-30356D01*
X184241D01*
X184526Y-30499D01*
X184669Y-30928D01*
Y-32356D01*
Y-30928D02*
X185098Y-30499D01*
X185383Y-30356D01*
X185812D01*
X186098Y-30499D01*
X186240Y-30928D01*
Y-32356D01*
X97563Y-30356D02*
X98134Y-32356D01*
X98706Y-30356D02*
X98134Y-32356D01*
X98706Y-30356D02*
X99277Y-32356D01*
X99848Y-30356D02*
X99277Y-32356D01*
X100548Y-30356D02*
X101119Y-32356D01*
X101691Y-30356D02*
X101119Y-32356D01*
X101691Y-30356D02*
X102262Y-32356D01*
X102833Y-30356D02*
X102262Y-32356D01*
X103533Y-30356D02*
X104104Y-32356D01*
X104676Y-30356D02*
X104104Y-32356D01*
X104676Y-30356D02*
X105247Y-32356D01*
X105818Y-30356D02*
X105247Y-32356D01*
X106661Y-32070D02*
X106518Y-32213D01*
X106661Y-32356D01*
X106804Y-32213D01*
X106661Y-32070D01*
X107461Y-30356D02*
Y-33356D01*
Y-30785D02*
X107747Y-30499D01*
X108032Y-30356D01*
X108461D01*
X108746Y-30499D01*
X109032Y-30785D01*
X109175Y-31213D01*
Y-31499D01*
X109032Y-31927D01*
X108746Y-32213D01*
X108461Y-32356D01*
X108032D01*
X107747Y-32213D01*
X107461Y-31927D01*
X109818Y-30356D02*
Y-31785D01*
X109960Y-32213D01*
X110246Y-32356D01*
X110675D01*
X110960Y-32213D01*
X111389Y-31785D01*
Y-30356D02*
Y-32356D01*
X112174Y-30356D02*
Y-32356D01*
Y-30928D02*
X112603Y-30499D01*
X112888Y-30356D01*
X113317D01*
X113602Y-30499D01*
X113745Y-30928D01*
Y-32356D01*
Y-30928D02*
X114174Y-30499D01*
X114459Y-30356D01*
X114888D01*
X115173Y-30499D01*
X115316Y-30928D01*
Y-32356D01*
X116259Y-30356D02*
Y-33356D01*
Y-30785D02*
X116545Y-30499D01*
X116830Y-30356D01*
X117259D01*
X117544Y-30499D01*
X117830Y-30785D01*
X117973Y-31213D01*
Y-31499D01*
X117830Y-31927D01*
X117544Y-32213D01*
X117259Y-32356D01*
X116830D01*
X116545Y-32213D01*
X116259Y-31927D01*
X118616Y-29357D02*
Y-32356D01*
X120044Y-30356D02*
X118616Y-31785D01*
X119187Y-31213D02*
X120187Y-32356D01*
X120944Y-29357D02*
X121087Y-29499D01*
X121229Y-29357D01*
X121087Y-29214D01*
X120944Y-29357D01*
X121087Y-30356D02*
Y-32356D01*
X121758Y-30356D02*
Y-32356D01*
Y-30928D02*
X122186Y-30499D01*
X122472Y-30356D01*
X122900D01*
X123186Y-30499D01*
X123329Y-30928D01*
Y-32356D01*
X125686Y-30785D02*
X125543Y-30499D01*
X125114Y-30356D01*
X124686D01*
X124257Y-30499D01*
X124115Y-30785D01*
X124257Y-31070D01*
X124543Y-31213D01*
X125257Y-31356D01*
X125543Y-31499D01*
X125686Y-31785D01*
Y-31927D01*
X125543Y-32213D01*
X125114Y-32356D01*
X124686D01*
X124257Y-32213D01*
X124115Y-31927D01*
X126314Y-30356D02*
Y-33356D01*
Y-30785D02*
X126600Y-30499D01*
X126885Y-30356D01*
X127314D01*
X127599Y-30499D01*
X127885Y-30785D01*
X128028Y-31213D01*
Y-31499D01*
X127885Y-31927D01*
X127599Y-32213D01*
X127314Y-32356D01*
X126885D01*
X126600Y-32213D01*
X126314Y-31927D01*
X130385Y-30356D02*
Y-32356D01*
Y-30785D02*
X130099Y-30499D01*
X129813Y-30356D01*
X129385D01*
X129099Y-30499D01*
X128813Y-30785D01*
X128671Y-31213D01*
Y-31499D01*
X128813Y-31927D01*
X129099Y-32213D01*
X129385Y-32356D01*
X129813D01*
X130099Y-32213D01*
X130385Y-31927D01*
X132898Y-30785D02*
X132613Y-30499D01*
X132327Y-30356D01*
X131898D01*
X131613Y-30499D01*
X131327Y-30785D01*
X131184Y-31213D01*
Y-31499D01*
X131327Y-31927D01*
X131613Y-32213D01*
X131898Y-32356D01*
X132327D01*
X132613Y-32213D01*
X132898Y-31927D01*
X133541Y-31213D02*
X135255D01*
Y-30928D01*
X135112Y-30642D01*
X134969Y-30499D01*
X134684Y-30356D01*
X134255D01*
X133969Y-30499D01*
X133684Y-30785D01*
X133541Y-31213D01*
Y-31499D01*
X133684Y-31927D01*
X133969Y-32213D01*
X134255Y-32356D01*
X134684D01*
X134969Y-32213D01*
X135255Y-31927D01*
X136040Y-32070D02*
X135898Y-32213D01*
X136040Y-32356D01*
X136183Y-32213D01*
X136040Y-32070D01*
X138554Y-30785D02*
X138269Y-30499D01*
X137983Y-30356D01*
X137554D01*
X137269Y-30499D01*
X136983Y-30785D01*
X136840Y-31213D01*
Y-31499D01*
X136983Y-31927D01*
X137269Y-32213D01*
X137554Y-32356D01*
X137983D01*
X138269Y-32213D01*
X138554Y-31927D01*
X139911Y-30356D02*
X139625Y-30499D01*
X139340Y-30785D01*
X139197Y-31213D01*
Y-31499D01*
X139340Y-31927D01*
X139625Y-32213D01*
X139911Y-32356D01*
X140340D01*
X140625Y-32213D01*
X140911Y-31927D01*
X141054Y-31499D01*
Y-31213D01*
X140911Y-30785D01*
X140625Y-30499D01*
X140340Y-30356D01*
X139911D01*
X141711D02*
Y-32356D01*
Y-30928D02*
X142139Y-30499D01*
X142425Y-30356D01*
X142853D01*
X143139Y-30499D01*
X143282Y-30928D01*
Y-32356D01*
Y-30928D02*
X143710Y-30499D01*
X143996Y-30356D01*
X144424D01*
X144710Y-30499D01*
X144853Y-30928D01*
Y-32356D01*
D15*
X217163Y160335D02*
D03*
M02*
