G04*
G04 #@! TF.GenerationSoftware,Altium Limited,Altium Designer,20.0.10 (225)*
G04*
G04 Layer_Color=32768*
%FSLAX25Y25*%
%MOIN*%
G70*
G01*
G75*
%ADD10C,0.01000*%
%ADD13C,0.00394*%
%ADD44C,0.00197*%
D10*
X-18622Y-122047D02*
G03*
X-18622Y-122047I-5000J0D01*
G01*
Y-51181D02*
G03*
X-18622Y-51181I-5000J0D01*
G01*
Y-104331D02*
G03*
X-18622Y-104331I-5000J0D01*
G01*
Y-86614D02*
G03*
X-18622Y-86614I-5000J0D01*
G01*
Y-68898D02*
G03*
X-18622Y-68898I-5000J0D01*
G01*
X-31496Y-15748D02*
X-15748D01*
Y-31496D02*
Y-15748D01*
X-31496Y-31496D02*
X-15748D01*
X-31496D02*
Y-15748D01*
Y7874D02*
X-15748D01*
Y-15748D02*
Y7874D01*
X-31496Y-15748D02*
X-15748D01*
X-31496D02*
Y7874D01*
Y31496D02*
X-15748D01*
Y7874D02*
Y31496D01*
X-31496Y7874D02*
X-15748D01*
X-31496D02*
Y31496D01*
D13*
X280231Y0D02*
X284169D01*
X282200Y-1969D02*
Y1969D01*
X141732Y41339D02*
Y45276D01*
X139764Y43307D02*
X143701D01*
X13780Y0D02*
X17717D01*
X15748Y-1969D02*
Y1969D01*
X13780Y-86614D02*
X17717D01*
X15748Y-88583D02*
Y-84646D01*
X13780Y86614D02*
X17717D01*
X15748Y84646D02*
Y88583D01*
X139764Y129921D02*
X143701D01*
X141732Y127953D02*
Y131890D01*
D44*
X289877Y-15157D02*
Y15157D01*
X274523Y-15157D02*
Y15157D01*
X289877D01*
X274523Y-15157D02*
X289877D01*
X126575Y50984D02*
X156890D01*
X126575Y35630D02*
X156890D01*
X126575D02*
Y50984D01*
X156890Y35630D02*
Y50984D01*
X23425Y-15157D02*
Y15157D01*
X8071Y-15157D02*
Y15157D01*
X23425D01*
X8071Y-15157D02*
X23425D01*
Y-101772D02*
Y-71457D01*
X8071Y-101772D02*
Y-71457D01*
X23425D01*
X8071Y-101772D02*
X23425D01*
X8071Y71457D02*
Y101772D01*
X23425Y71457D02*
Y101772D01*
X8071Y71457D02*
X23425D01*
X8071Y101772D02*
X23425D01*
X152756Y126181D02*
Y133661D01*
X130709Y126181D02*
Y133661D01*
Y126181D02*
X152756D01*
X130709Y133661D02*
X152756D01*
M02*
