M48
;Layer_Color=9474304
;FILE_FORMAT=2:5
INCH,LZ
;TYPE=PLATED
T1F00S00C0.02800
T2F00S00C0.03000
T3F00S00C0.03937
T4F00S00C0.04016
T5F00S00C0.05200
T6F00S00C0.09400
T7F00S00C0.12500
T8F00S00C0.13600
;TYPE=NON_PLATED
T9F00S00C0.09400
T10F00S00C0.13600
%
T01
X-0011811Y-0086614
Y-0027559
X-0040354Y0003937
X-0019685Y0043307
X-0011811Y0091535
X0141732Y0111221
T02
X-0027559Y-0027559
Y-0019685
Y-0011811
Y-0003937
Y0003937
Y0011811
Y0019685
Y0027559
X-0019685
Y0019685
Y0011811
Y0003937
Y-0003937
Y-0011811
Y-0019685
Y-0027559
T03
X-0023622Y0052165
Y0062165
Y0081535
Y0091535
Y0111221
Y0121221
T04
X-0023622Y-0122047
Y-0104331
Y-0086614
Y-0068898
Y-0051181
T05
X0Y-0129921
X02822
Y-0043307
Y0043307
X0
Y-0043307
Y0129921
X02822
T06
X0Y-0074807
X02822Y0074807
T07
X-002787Y-015748
X031007
X-002787Y015748
X031007
T08
X02501Y-0074807
X02496Y0011807
X00326Y-0011807
X00321Y0074807
T09
X02822Y-0098421
X0Y0098421
T10
X02496Y-0161421
X00321Y-0098421
X00326Y0161421
X02501Y0098421
M30
