G04*
G04 #@! TF.GenerationSoftware,Altium Limited,Altium Designer,20.0.10 (225)*
G04*
G04 Layer_Color=16711935*
%FSLAX25Y25*%
%MOIN*%
G70*
G01*
G75*
%ADD29C,0.05906*%
%ADD30R,0.05906X0.05906*%
%ADD31C,0.07000*%
%ADD32C,0.03937*%
%ADD33R,0.04724X0.04724*%
%ADD34C,0.04724*%
%ADD35C,0.30000*%
%ADD39R,0.16142X0.09055*%
G36*
X371567Y215158D02*
X371731Y215121D01*
X371859Y215085D01*
X371877Y215066D01*
X371895D01*
X372059Y214975D01*
X372205Y214884D01*
X372314Y214811D01*
X372332Y214793D01*
X372350Y214775D01*
X372514Y214611D01*
X372642Y214429D01*
X372697Y214356D01*
X372733Y214301D01*
X372751Y214265D01*
X372769Y214247D01*
X372915Y213991D01*
X373061Y213736D01*
X373116Y213627D01*
X373152Y213536D01*
X373170Y213481D01*
X373189Y213463D01*
X373261Y215030D01*
X374428D01*
Y206795D01*
X373006D01*
Y212078D01*
X372915Y212279D01*
X372824Y212479D01*
X372751Y212643D01*
X372697Y212771D01*
X372642Y212880D01*
X372605Y212953D01*
X372569Y213008D01*
Y213026D01*
X372442Y213263D01*
X372332Y213445D01*
X372259Y213554D01*
X372241Y213591D01*
X372132Y213736D01*
X372041Y213827D01*
X371986Y213882D01*
X371968Y213900D01*
X371877Y213955D01*
X371786Y213973D01*
X371713Y213991D01*
X371694D01*
X371603Y213973D01*
X371531Y213955D01*
X371494Y213937D01*
X371476Y213919D01*
X371421Y213864D01*
X371367Y213791D01*
X371348Y213718D01*
X371330Y213700D01*
X371275Y213572D01*
X371257Y213427D01*
X371239Y213317D01*
Y213281D01*
Y213263D01*
X371221Y213044D01*
X371203Y212807D01*
Y212698D01*
Y212625D01*
Y212570D01*
Y212552D01*
Y206795D01*
X369781D01*
Y212078D01*
X369690Y212261D01*
X369617Y212443D01*
X369545Y212589D01*
X369490Y212716D01*
X369435Y212825D01*
X369399Y212898D01*
X369362Y212953D01*
Y212971D01*
X369235Y213208D01*
X369126Y213408D01*
X369089Y213463D01*
X369053Y213518D01*
X369034Y213536D01*
Y213554D01*
X368925Y213700D01*
X368834Y213809D01*
X368779Y213864D01*
X368761Y213882D01*
X368652Y213955D01*
X368561Y213973D01*
X368488Y213991D01*
X368470D01*
X368378Y213973D01*
X368306Y213955D01*
X368269Y213937D01*
X368251Y213919D01*
X368196Y213864D01*
X368142Y213791D01*
X368123Y213736D01*
X368105Y213718D01*
X368051Y213591D01*
X368032Y213463D01*
X368014Y213354D01*
Y213335D01*
Y213317D01*
X367996Y213117D01*
X367978Y212916D01*
Y212825D01*
Y212771D01*
Y212716D01*
Y212698D01*
Y206795D01*
X366557D01*
Y212789D01*
X366575Y213208D01*
X366629Y213572D01*
X366702Y213900D01*
X366793Y214174D01*
X366921Y214392D01*
X367048Y214593D01*
X367194Y214757D01*
X367340Y214884D01*
X367486Y214975D01*
X367632Y215048D01*
X367759Y215103D01*
X367886Y215139D01*
X367978Y215158D01*
X368051Y215176D01*
X368123D01*
X368360Y215158D01*
X368561Y215121D01*
X368634Y215085D01*
X368688Y215066D01*
X368725Y215048D01*
X368743D01*
X368925Y214939D01*
X369071Y214830D01*
X369180Y214738D01*
X369198Y214720D01*
X369217Y214702D01*
X369362Y214520D01*
X369490Y214338D01*
X369545Y214265D01*
X369581Y214192D01*
X369617Y214155D01*
Y214137D01*
X369745Y213882D01*
X369872Y213645D01*
X369927Y213536D01*
X369964Y213463D01*
X369982Y213408D01*
X370000Y213390D01*
X370018Y213718D01*
X370055Y213991D01*
X370109Y214210D01*
X370164Y214410D01*
X370237Y214556D01*
X370292Y214666D01*
X370328Y214720D01*
X370346Y214738D01*
X370492Y214884D01*
X370656Y214994D01*
X370820Y215066D01*
X370984Y215121D01*
X371130Y215158D01*
X371257Y215176D01*
X371367D01*
X371567Y215158D01*
D02*
G37*
G36*
X297667Y215158D02*
X297831Y215121D01*
X297958Y215085D01*
X297976Y215066D01*
X297995D01*
X298159Y214975D01*
X298304Y214884D01*
X298414Y214811D01*
X298432Y214793D01*
X298450Y214775D01*
X298614Y214611D01*
X298742Y214429D01*
X298796Y214356D01*
X298833Y214301D01*
X298851Y214265D01*
X298869Y214247D01*
X299015Y213991D01*
X299161Y213736D01*
X299215Y213627D01*
X299252Y213536D01*
X299270Y213481D01*
X299288Y213463D01*
X299361Y215030D01*
X300527D01*
Y206795D01*
X299106D01*
Y212078D01*
X299015Y212279D01*
X298924Y212479D01*
X298851Y212643D01*
X298796Y212771D01*
X298742Y212880D01*
X298705Y212953D01*
X298669Y213007D01*
Y213026D01*
X298541Y213263D01*
X298432Y213445D01*
X298359Y213554D01*
X298341Y213591D01*
X298232Y213736D01*
X298140Y213827D01*
X298086Y213882D01*
X298067Y213900D01*
X297976Y213955D01*
X297885Y213973D01*
X297812Y213991D01*
X297794D01*
X297703Y213973D01*
X297630Y213955D01*
X297594Y213937D01*
X297576Y213919D01*
X297521Y213864D01*
X297466Y213791D01*
X297448Y213718D01*
X297430Y213700D01*
X297375Y213572D01*
X297357Y213427D01*
X297339Y213317D01*
Y213281D01*
Y213263D01*
X297321Y213044D01*
X297302Y212807D01*
Y212698D01*
Y212625D01*
Y212570D01*
Y212552D01*
Y206795D01*
X295881D01*
Y212078D01*
X295790Y212261D01*
X295717Y212443D01*
X295644Y212589D01*
X295590Y212716D01*
X295535Y212825D01*
X295498Y212898D01*
X295462Y212953D01*
Y212971D01*
X295335Y213208D01*
X295225Y213408D01*
X295189Y213463D01*
X295152Y213518D01*
X295134Y213536D01*
Y213554D01*
X295025Y213700D01*
X294934Y213809D01*
X294879Y213864D01*
X294861Y213882D01*
X294752Y213955D01*
X294660Y213973D01*
X294587Y213991D01*
X294569D01*
X294478Y213973D01*
X294405Y213955D01*
X294369Y213937D01*
X294351Y213919D01*
X294296Y213864D01*
X294241Y213791D01*
X294223Y213736D01*
X294205Y213718D01*
X294150Y213591D01*
X294132Y213463D01*
X294114Y213354D01*
Y213335D01*
Y213317D01*
X294095Y213117D01*
X294077Y212916D01*
Y212825D01*
Y212771D01*
Y212716D01*
Y212698D01*
Y206795D01*
X292656D01*
Y212789D01*
X292674Y213208D01*
X292729Y213572D01*
X292802Y213900D01*
X292893Y214174D01*
X293021Y214392D01*
X293148Y214593D01*
X293294Y214757D01*
X293440Y214884D01*
X293585Y214975D01*
X293731Y215048D01*
X293859Y215103D01*
X293986Y215139D01*
X294077Y215158D01*
X294150Y215176D01*
X294223D01*
X294460Y215158D01*
X294660Y215121D01*
X294733Y215085D01*
X294788Y215066D01*
X294824Y215048D01*
X294843D01*
X295025Y214939D01*
X295170Y214830D01*
X295280Y214738D01*
X295298Y214720D01*
X295316Y214702D01*
X295462Y214520D01*
X295590Y214338D01*
X295644Y214265D01*
X295681Y214192D01*
X295717Y214155D01*
Y214137D01*
X295845Y213882D01*
X295972Y213645D01*
X296027Y213536D01*
X296063Y213463D01*
X296081Y213408D01*
X296100Y213390D01*
X296118Y213718D01*
X296154Y213991D01*
X296209Y214210D01*
X296264Y214410D01*
X296337Y214556D01*
X296391Y214666D01*
X296428Y214720D01*
X296446Y214738D01*
X296592Y214884D01*
X296756Y214994D01*
X296920Y215066D01*
X297084Y215121D01*
X297229Y215158D01*
X297357Y215176D01*
X297466D01*
X297667Y215158D01*
D02*
G37*
G36*
X287791D02*
X287919D01*
X288028Y215139D01*
X288101D01*
X288156Y215121D01*
X288174D01*
X288466Y215085D01*
X288593Y215066D01*
X288702Y215048D01*
X288793Y215030D01*
X288866Y215012D01*
X288921Y214994D01*
X288939D01*
X289194Y214939D01*
X289431Y214884D01*
X289522Y214866D01*
X289595Y214848D01*
X289632Y214830D01*
X289650D01*
X289887Y214757D01*
X290069Y214702D01*
X290142Y214684D01*
X290178Y214666D01*
X290215Y214647D01*
X290233D01*
Y213354D01*
X289978Y213445D01*
X289723Y213536D01*
X289486Y213609D01*
X289267Y213682D01*
X289103Y213718D01*
X288958Y213755D01*
X288885Y213791D01*
X288848D01*
X288338Y213882D01*
X288119Y213919D01*
X287901Y213937D01*
X287719Y213955D01*
X287463D01*
X287136Y213937D01*
X286844Y213882D01*
X286589Y213809D01*
X286388Y213736D01*
X286243Y213664D01*
X286133Y213591D01*
X286061Y213536D01*
X286042Y213518D01*
X285878Y213335D01*
X285769Y213153D01*
X285678Y212953D01*
X285623Y212771D01*
X285587Y212607D01*
X285569Y212479D01*
Y212388D01*
Y212352D01*
Y211641D01*
X287609D01*
X287919Y211605D01*
X288211Y211568D01*
X288466Y211532D01*
X288721Y211477D01*
X288939Y211422D01*
X289140Y211350D01*
X289322Y211295D01*
X289486Y211222D01*
X289632Y211149D01*
X289741Y211094D01*
X289832Y211040D01*
X289923Y211003D01*
X289978Y210967D01*
X289996Y210930D01*
X290014D01*
X290178Y210785D01*
X290306Y210639D01*
X290433Y210493D01*
X290543Y210329D01*
X290707Y210001D01*
X290816Y209692D01*
X290871Y209418D01*
X290889Y209291D01*
X290907Y209181D01*
X290925Y209108D01*
Y209036D01*
Y208999D01*
Y208981D01*
X290907Y208635D01*
X290871Y208471D01*
X290852Y208325D01*
X290816Y208216D01*
X290798Y208125D01*
X290779Y208070D01*
Y208052D01*
X290652Y207760D01*
X290561Y207633D01*
X290488Y207523D01*
X290415Y207432D01*
X290360Y207359D01*
X290324Y207323D01*
X290306Y207305D01*
X290033Y207104D01*
X289777Y206940D01*
X289650Y206886D01*
X289559Y206849D01*
X289504Y206813D01*
X289486D01*
X289085Y206722D01*
X288885Y206685D01*
X288684Y206667D01*
X288520D01*
X288393Y206649D01*
X288283D01*
X287992Y206667D01*
X287737Y206703D01*
X287482Y206740D01*
X287263Y206795D01*
X287081Y206849D01*
X286953Y206904D01*
X286862Y206922D01*
X286826Y206940D01*
X286571Y207068D01*
X286316Y207214D01*
X286097Y207378D01*
X285878Y207523D01*
X285714Y207669D01*
X285569Y207778D01*
X285496Y207851D01*
X285459Y207888D01*
X285423Y206795D01*
X284129D01*
Y212461D01*
X284147Y212716D01*
X284166Y212935D01*
X284202Y213153D01*
X284239Y213317D01*
X284293Y213463D01*
X284330Y213572D01*
X284348Y213645D01*
X284366Y213664D01*
X284457Y213846D01*
X284548Y214010D01*
X284658Y214155D01*
X284767Y214283D01*
X284858Y214374D01*
X284931Y214447D01*
X284985Y214483D01*
X285004Y214502D01*
X285168Y214629D01*
X285332Y214720D01*
X285496Y214811D01*
X285660Y214884D01*
X285787Y214939D01*
X285896Y214975D01*
X285988Y215012D01*
X286006D01*
X286461Y215103D01*
X286698Y215139D01*
X286899Y215158D01*
X287081Y215176D01*
X287664D01*
X287791Y215158D01*
D02*
G37*
G36*
X272049Y206795D02*
X270628D01*
Y211204D01*
X266784Y206795D01*
X264816D01*
X268897Y211222D01*
X265035Y215030D01*
X266930D01*
X270628Y211258D01*
Y218382D01*
X272049D01*
Y206795D01*
D02*
G37*
G36*
X400063Y217289D02*
Y215030D01*
X402359D01*
Y213827D01*
X400063D01*
Y209528D01*
X400027Y209017D01*
X399936Y208580D01*
X399826Y208216D01*
X399680Y207906D01*
X399535Y207669D01*
X399425Y207505D01*
X399334Y207414D01*
X399298Y207378D01*
X399152Y207250D01*
X398970Y207141D01*
X398605Y206977D01*
X398223Y206849D01*
X397858Y206776D01*
X397512Y206722D01*
X397366Y206703D01*
X397239D01*
X397130Y206685D01*
X396984D01*
X396601Y206703D01*
X396419D01*
X396273Y206722D01*
X396128D01*
X396036Y206740D01*
X395945D01*
X395563Y206795D01*
X395399Y206813D01*
X395235Y206849D01*
X395107Y206867D01*
X395016Y206886D01*
X394943Y206904D01*
X394925D01*
Y208143D01*
X395289Y208052D01*
X395453Y208015D01*
X395599Y207997D01*
X395727Y207961D01*
X395818D01*
X395891Y207942D01*
X395909D01*
X396237Y207906D01*
X396401D01*
X396528Y207888D01*
X396783D01*
X397111Y207906D01*
X397385Y207961D01*
X397622Y208033D01*
X397822Y208106D01*
X397968Y208179D01*
X398077Y208252D01*
X398150Y208307D01*
X398168Y208325D01*
X398332Y208507D01*
X398442Y208708D01*
X398533Y208926D01*
X398587Y209145D01*
X398624Y209345D01*
X398642Y209491D01*
Y209600D01*
Y209619D01*
Y209637D01*
Y213827D01*
X394925D01*
Y215030D01*
X398642D01*
Y217672D01*
X400063Y217289D01*
D02*
G37*
G36*
X390826Y217289D02*
Y215030D01*
X393121Y215030D01*
Y213827D01*
X390826Y213827D01*
Y209527D01*
X390789Y209017D01*
X390698Y208580D01*
X390589Y208216D01*
X390443Y207906D01*
X390297Y207669D01*
X390188Y207505D01*
X390097Y207414D01*
X390060Y207378D01*
X389914Y207250D01*
X389732Y207141D01*
X389368Y206977D01*
X388985Y206849D01*
X388621Y206776D01*
X388275Y206722D01*
X388129Y206703D01*
X388001D01*
X387892Y206685D01*
X387746D01*
X387364Y206703D01*
X387181D01*
X387036Y206722D01*
X386890D01*
X386799Y206740D01*
X386708D01*
X386325Y206795D01*
X386161Y206813D01*
X385997Y206849D01*
X385870Y206867D01*
X385779Y206886D01*
X385706Y206904D01*
X385687D01*
Y208143D01*
X386052Y208052D01*
X386216Y208015D01*
X386362Y207997D01*
X386489Y207961D01*
X386580D01*
X386653Y207942D01*
X386671D01*
X386999Y207906D01*
X387163D01*
X387291Y207888D01*
X387546D01*
X387874Y207906D01*
X388147Y207961D01*
X388384Y208033D01*
X388584Y208106D01*
X388730Y208179D01*
X388840Y208252D01*
X388912Y208307D01*
X388931Y208325D01*
X389095Y208507D01*
X389204Y208708D01*
X389295Y208926D01*
X389350Y209145D01*
X389386Y209345D01*
X389404Y209491D01*
Y209600D01*
Y209619D01*
Y209637D01*
Y213827D01*
X385687D01*
Y215030D01*
X389404D01*
Y217672D01*
X390826Y217289D01*
D02*
G37*
G36*
X315358Y215158D02*
X315650Y215121D01*
X315923Y215066D01*
X316160Y215012D01*
X316342Y214939D01*
X316488Y214884D01*
X316579Y214848D01*
X316616Y214830D01*
X316870Y214684D01*
X317089Y214538D01*
X317290Y214374D01*
X317472Y214228D01*
X317599Y214083D01*
X317709Y213973D01*
X317781Y213900D01*
X317800Y213882D01*
X317964Y213664D01*
X318109Y213427D01*
X318237Y213190D01*
X318346Y212989D01*
X318419Y212789D01*
X318474Y212643D01*
X318510Y212552D01*
X318529Y212534D01*
Y212516D01*
X318601Y212224D01*
X318656Y211933D01*
X318711Y211659D01*
X318729Y211422D01*
X318747Y211204D01*
X318765Y211040D01*
Y210930D01*
Y210912D01*
Y210894D01*
X318747Y210530D01*
X318729Y210183D01*
X318692Y209892D01*
X318656Y209619D01*
X318620Y209400D01*
X318583Y209236D01*
X318547Y209127D01*
Y209108D01*
Y209090D01*
X318456Y208817D01*
X318328Y208544D01*
X318219Y208325D01*
X318091Y208125D01*
X317982Y207979D01*
X317891Y207851D01*
X317836Y207778D01*
X317818Y207760D01*
X317618Y207560D01*
X317417Y207396D01*
X317198Y207250D01*
X316998Y207141D01*
X316834Y207050D01*
X316688Y206977D01*
X316597Y206940D01*
X316561Y206922D01*
X316269Y206831D01*
X315960Y206758D01*
X315650Y206722D01*
X315358Y206685D01*
X315121Y206667D01*
X314921Y206649D01*
X314447D01*
X314174Y206667D01*
X313919Y206685D01*
X313682Y206703D01*
X313500Y206722D01*
X313354Y206740D01*
X313263Y206758D01*
X313227D01*
X312953Y206795D01*
X312698Y206831D01*
X312479Y206886D01*
X312279Y206922D01*
X312115Y206959D01*
X312006Y206995D01*
X311915Y207013D01*
X311896D01*
Y208179D01*
X312097Y208125D01*
X312297Y208088D01*
X312370Y208070D01*
X312425Y208052D01*
X312461Y208033D01*
X312479D01*
X312716Y207997D01*
X312917Y207961D01*
X313008Y207942D01*
X313081D01*
X313117Y207924D01*
X313135D01*
X313372Y207906D01*
X313609Y207870D01*
X313700D01*
X313773Y207851D01*
X313828D01*
X314083Y207833D01*
X314538D01*
X315012Y207870D01*
X315413Y207942D01*
X315759Y208052D01*
X316051Y208179D01*
X316287Y208289D01*
X316452Y208398D01*
X316543Y208471D01*
X316579Y208507D01*
X316816Y208781D01*
X316980Y209090D01*
X317107Y209418D01*
X317180Y209728D01*
X317235Y210019D01*
X317253Y210147D01*
Y210256D01*
X317271Y210329D01*
Y210402D01*
Y210438D01*
Y210457D01*
X311496D01*
X311477Y210584D01*
Y210694D01*
Y210785D01*
Y210821D01*
X311459Y211003D01*
Y211167D01*
Y211240D01*
Y211295D01*
Y211331D01*
Y211350D01*
X311477Y211678D01*
X311496Y211969D01*
X311532Y212224D01*
X311568Y212461D01*
X311623Y212643D01*
X311660Y212789D01*
X311678Y212880D01*
X311696Y212916D01*
X311787Y213172D01*
X311896Y213408D01*
X312024Y213609D01*
X312133Y213791D01*
X312224Y213919D01*
X312316Y214028D01*
X312370Y214101D01*
X312388Y214119D01*
X312571Y214301D01*
X312753Y214465D01*
X312953Y214593D01*
X313117Y214702D01*
X313281Y214793D01*
X313409Y214848D01*
X313482Y214884D01*
X313518Y214902D01*
X313773Y214994D01*
X314028Y215066D01*
X314283Y215103D01*
X314520Y215139D01*
X314721Y215158D01*
X314885Y215176D01*
X315030D01*
X315358Y215158D01*
D02*
G37*
G36*
X420050Y206795D02*
X417299D01*
X416953Y206813D01*
X416625Y206831D01*
X416333Y206867D01*
X416078Y206904D01*
X415878Y206940D01*
X415714Y206959D01*
X415623Y206995D01*
X415587D01*
X415295Y207086D01*
X415040Y207177D01*
X414821Y207287D01*
X414621Y207396D01*
X414475Y207469D01*
X414348Y207542D01*
X414275Y207596D01*
X414256Y207614D01*
X414056Y207778D01*
X413892Y207942D01*
X413746Y208125D01*
X413637Y208270D01*
X413546Y208416D01*
X413473Y208525D01*
X413437Y208598D01*
X413418Y208617D01*
X413309Y208853D01*
X413236Y209090D01*
X413181Y209327D01*
X413145Y209528D01*
X413127Y209728D01*
X413109Y209874D01*
Y209965D01*
Y210001D01*
X413145Y210366D01*
X413163Y210530D01*
X413200Y210675D01*
X413236Y210785D01*
X413254Y210876D01*
X413291Y210930D01*
Y210949D01*
X413437Y211258D01*
X413509Y211386D01*
X413582Y211495D01*
X413637Y211568D01*
X413692Y211641D01*
X413728Y211678D01*
X413746Y211696D01*
X413965Y211914D01*
X414184Y212060D01*
X414275Y212133D01*
X414348Y212170D01*
X414402Y212206D01*
X414420D01*
X414712Y212333D01*
X414967Y212424D01*
X415076Y212443D01*
X415167Y212461D01*
X415222Y212479D01*
X415240D01*
X414912Y212607D01*
X414639Y212753D01*
X414402Y212916D01*
X414220Y213062D01*
X414092Y213190D01*
X413983Y213299D01*
X413929Y213390D01*
X413910Y213408D01*
X413764Y213645D01*
X413673Y213900D01*
X413600Y214155D01*
X413546Y214392D01*
X413509Y214593D01*
X413491Y214757D01*
Y214866D01*
Y214884D01*
Y214902D01*
X413509Y215139D01*
X413528Y215358D01*
X413637Y215759D01*
X413819Y216105D01*
X414038Y216415D01*
X414311Y216670D01*
X414603Y216870D01*
X414931Y217052D01*
X415259Y217180D01*
X415587Y217289D01*
X415914Y217362D01*
X416206Y217435D01*
X416479Y217472D01*
X416698Y217490D01*
X416880Y217508D01*
X420050D01*
Y206795D01*
D02*
G37*
G36*
X336530Y217216D02*
X334107Y217216D01*
Y207979D01*
X336803Y207979D01*
Y206795D01*
X330208Y206795D01*
Y207979D01*
X332667D01*
Y218383D01*
X336530Y218383D01*
Y217216D01*
D02*
G37*
G36*
X304918Y215158D02*
X305173Y215121D01*
X305428Y215048D01*
X305629Y214975D01*
X305829Y214902D01*
X305957Y214830D01*
X306048Y214793D01*
X306084Y214775D01*
X306358Y214611D01*
X306613Y214410D01*
X306850Y214192D01*
X307068Y213991D01*
X307250Y213791D01*
X307396Y213645D01*
X307487Y213536D01*
X307524Y213518D01*
Y213499D01*
X307560Y215030D01*
X308854D01*
Y206795D01*
X307414D01*
Y212078D01*
X307269Y212261D01*
X307141Y212424D01*
X307014Y212552D01*
X306904Y212680D01*
X306813Y212789D01*
X306740Y212862D01*
X306704Y212898D01*
X306686Y212916D01*
X306431Y213153D01*
X306230Y213354D01*
X306139Y213408D01*
X306084Y213463D01*
X306048Y213481D01*
X306030Y213499D01*
X305811Y213645D01*
X305611Y213755D01*
X305538Y213791D01*
X305483Y213809D01*
X305447Y213827D01*
X305428D01*
X305210Y213900D01*
X305028Y213919D01*
X304973Y213937D01*
X304864D01*
X304627Y213919D01*
X304426Y213864D01*
X304262Y213773D01*
X304117Y213700D01*
X304007Y213609D01*
X303916Y213518D01*
X303880Y213463D01*
X303861Y213445D01*
X303752Y213244D01*
X303661Y212989D01*
X303606Y212734D01*
X303570Y212479D01*
X303552Y212261D01*
X303534Y212078D01*
Y212005D01*
Y211951D01*
Y211914D01*
Y211896D01*
X302094D01*
Y212188D01*
X302112Y212461D01*
X302131Y212716D01*
X302167Y212971D01*
X302222Y213190D01*
X302276Y213390D01*
X302331Y213554D01*
X302386Y213718D01*
X302440Y213864D01*
X302513Y213991D01*
X302568Y214101D01*
X302604Y214192D01*
X302659Y214247D01*
X302677Y214301D01*
X302714Y214338D01*
X302841Y214483D01*
X302987Y214611D01*
X303297Y214830D01*
X303606Y214975D01*
X303916Y215066D01*
X304208Y215139D01*
X304335Y215158D01*
X304426D01*
X304517Y215176D01*
X304645D01*
X304918Y215158D01*
D02*
G37*
G36*
X407770Y215158D02*
X408080Y215121D01*
X408353Y215066D01*
X408608Y215012D01*
X408809Y214957D01*
X408954Y214902D01*
X409046Y214866D01*
X409082Y214848D01*
X409337Y214720D01*
X409574Y214575D01*
X409793Y214429D01*
X409975Y214283D01*
X410120Y214155D01*
X410230Y214046D01*
X410303Y213973D01*
X410321Y213955D01*
X410503Y213736D01*
X410649Y213499D01*
X410795Y213281D01*
X410904Y213062D01*
X410995Y212880D01*
X411050Y212716D01*
X411086Y212625D01*
X411104Y212607D01*
Y212589D01*
X411196Y212297D01*
X411250Y211987D01*
X411305Y211696D01*
X411323Y211422D01*
X411341Y211204D01*
X411360Y211022D01*
Y210949D01*
Y210894D01*
Y210876D01*
Y210858D01*
X411341Y210493D01*
X411323Y210147D01*
X411287Y209837D01*
X411232Y209564D01*
X411177Y209345D01*
X411141Y209181D01*
X411123Y209072D01*
X411104Y209054D01*
Y209036D01*
X410995Y208762D01*
X410886Y208507D01*
X410758Y208270D01*
X410649Y208088D01*
X410540Y207924D01*
X410449Y207815D01*
X410394Y207742D01*
X410376Y207724D01*
X410175Y207542D01*
X409975Y207378D01*
X409793Y207232D01*
X409592Y207122D01*
X409428Y207031D01*
X409301Y206977D01*
X409228Y206940D01*
X409191Y206922D01*
X408918Y206831D01*
X408645Y206758D01*
X408371Y206722D01*
X408116Y206685D01*
X407916Y206667D01*
X407734Y206649D01*
X407588D01*
X407242Y206667D01*
X406932Y206703D01*
X406659Y206740D01*
X406404Y206813D01*
X406203Y206867D01*
X406057Y206904D01*
X405966Y206940D01*
X405930Y206959D01*
X405675Y207086D01*
X405420Y207232D01*
X405219Y207378D01*
X405037Y207505D01*
X404891Y207633D01*
X404782Y207742D01*
X404709Y207815D01*
X404691Y207833D01*
X404509Y208052D01*
X404345Y208289D01*
X404217Y208525D01*
X404108Y208744D01*
X404017Y208926D01*
X403962Y209072D01*
X403926Y209163D01*
X403907Y209200D01*
X403816Y209509D01*
X403744Y209819D01*
X403707Y210111D01*
X403671Y210384D01*
X403652Y210621D01*
X403634Y210803D01*
Y210876D01*
Y210930D01*
Y210949D01*
Y210967D01*
X403652Y211331D01*
X403671Y211678D01*
X403725Y211987D01*
X403762Y212261D01*
X403816Y212461D01*
X403871Y212625D01*
X403889Y212734D01*
X403907Y212771D01*
X404017Y213044D01*
X404126Y213299D01*
X404254Y213536D01*
X404381Y213718D01*
X404491Y213882D01*
X404582Y213991D01*
X404636Y214064D01*
X404655Y214083D01*
X404837Y214265D01*
X405037Y214429D01*
X405237Y214575D01*
X405420Y214684D01*
X405584Y214775D01*
X405711Y214830D01*
X405802Y214866D01*
X405839Y214884D01*
X406112Y214975D01*
X406385Y215048D01*
X406640Y215103D01*
X406896Y215139D01*
X407096Y215158D01*
X407278Y215176D01*
X407424D01*
X407770Y215158D01*
D02*
G37*
G36*
X380058Y215158D02*
X380367Y215121D01*
X380641Y215066D01*
X380896Y215012D01*
X381096Y214957D01*
X381242Y214902D01*
X381333Y214866D01*
X381369Y214848D01*
X381624Y214720D01*
X381861Y214575D01*
X382080Y214429D01*
X382262Y214283D01*
X382408Y214155D01*
X382517Y214046D01*
X382590Y213973D01*
X382608Y213955D01*
X382790Y213736D01*
X382936Y213499D01*
X383082Y213281D01*
X383191Y213062D01*
X383282Y212880D01*
X383337Y212716D01*
X383373Y212625D01*
X383392Y212607D01*
Y212589D01*
X383483Y212297D01*
X383538Y211987D01*
X383592Y211696D01*
X383610Y211422D01*
X383629Y211204D01*
X383647Y211022D01*
Y210949D01*
Y210894D01*
Y210876D01*
Y210858D01*
X383629Y210493D01*
X383610Y210147D01*
X383574Y209837D01*
X383519Y209564D01*
X383465Y209345D01*
X383428Y209181D01*
X383410Y209072D01*
X383392Y209054D01*
Y209036D01*
X383282Y208762D01*
X383173Y208507D01*
X383046Y208270D01*
X382936Y208088D01*
X382827Y207924D01*
X382736Y207815D01*
X382681Y207742D01*
X382663Y207724D01*
X382463Y207542D01*
X382262Y207378D01*
X382080Y207232D01*
X381879Y207122D01*
X381715Y207031D01*
X381588Y206977D01*
X381515Y206940D01*
X381479Y206922D01*
X381205Y206831D01*
X380932Y206758D01*
X380659Y206722D01*
X380404Y206685D01*
X380203Y206667D01*
X380021Y206649D01*
X379875D01*
X379529Y206667D01*
X379219Y206703D01*
X378946Y206740D01*
X378691Y206813D01*
X378491Y206867D01*
X378345Y206904D01*
X378254Y206940D01*
X378217Y206959D01*
X377962Y207086D01*
X377707Y207232D01*
X377507Y207378D01*
X377325Y207505D01*
X377179Y207633D01*
X377069Y207742D01*
X376996Y207815D01*
X376978Y207833D01*
X376796Y208052D01*
X376632Y208289D01*
X376505Y208525D01*
X376395Y208744D01*
X376304Y208926D01*
X376250Y209072D01*
X376213Y209163D01*
X376195Y209200D01*
X376104Y209509D01*
X376031Y209819D01*
X375994Y210111D01*
X375958Y210384D01*
X375940Y210621D01*
X375922Y210803D01*
Y210876D01*
Y210930D01*
Y210949D01*
Y210967D01*
X375940Y211331D01*
X375958Y211678D01*
X376013Y211987D01*
X376049Y212261D01*
X376104Y212461D01*
X376158Y212625D01*
X376177Y212734D01*
X376195Y212771D01*
X376304Y213044D01*
X376413Y213299D01*
X376541Y213536D01*
X376669Y213718D01*
X376778Y213882D01*
X376869Y213991D01*
X376924Y214064D01*
X376942Y214083D01*
X377124Y214265D01*
X377325Y214429D01*
X377525Y214575D01*
X377707Y214684D01*
X377871Y214775D01*
X377999Y214830D01*
X378090Y214866D01*
X378126Y214884D01*
X378399Y214975D01*
X378673Y215048D01*
X378928Y215103D01*
X379183Y215139D01*
X379383Y215158D01*
X379566Y215176D01*
X379711D01*
X380058Y215158D01*
D02*
G37*
G36*
X352035Y217654D02*
X352381Y217635D01*
X352691Y217599D01*
X352964Y217544D01*
X353183Y217490D01*
X353329Y217453D01*
X353438Y217435D01*
X353474Y217417D01*
X353748Y217307D01*
X353985Y217198D01*
X354203Y217089D01*
X354367Y216980D01*
X354513Y216888D01*
X354622Y216815D01*
X354695Y216761D01*
X354714Y216743D01*
X354877Y216579D01*
X355023Y216415D01*
X355151Y216251D01*
X355242Y216105D01*
X355315Y215977D01*
X355388Y215886D01*
X355406Y215813D01*
X355424Y215795D01*
X355497Y215595D01*
X355552Y215394D01*
X355588Y215212D01*
X355606Y215048D01*
X355625Y214902D01*
X355643Y214793D01*
Y214720D01*
Y214702D01*
X355625Y214483D01*
X355606Y214265D01*
X355570Y214083D01*
X355515Y213919D01*
X355479Y213791D01*
X355442Y213700D01*
X355424Y213627D01*
X355406Y213609D01*
X355205Y213299D01*
X355096Y213153D01*
X355005Y213044D01*
X354914Y212935D01*
X354841Y212862D01*
X354805Y212825D01*
X354786Y212807D01*
X354477Y212570D01*
X354313Y212479D01*
X354185Y212388D01*
X354058Y212315D01*
X353966Y212279D01*
X353894Y212242D01*
X353875Y212224D01*
X353493Y212042D01*
X353329Y211969D01*
X353165Y211896D01*
X353037Y211842D01*
X352946Y211787D01*
X352873Y211769D01*
X352855Y211750D01*
X352472Y211605D01*
X352290Y211532D01*
X352145Y211477D01*
X351999Y211422D01*
X351908Y211386D01*
X351835Y211368D01*
X351817Y211350D01*
X351452Y211186D01*
X351306Y211113D01*
X351179Y211040D01*
X351069Y210985D01*
X350997Y210930D01*
X350942Y210912D01*
X350924Y210894D01*
X350650Y210712D01*
X350541Y210621D01*
X350450Y210530D01*
X350377Y210457D01*
X350323Y210402D01*
X350304Y210366D01*
X350286Y210347D01*
X350195Y210220D01*
X350140Y210111D01*
X350067Y209874D01*
X350049Y209764D01*
X350031Y209692D01*
Y209637D01*
Y209619D01*
X350049Y209345D01*
X350067Y209218D01*
X350104Y209108D01*
X350122Y209017D01*
X350159Y208945D01*
X350177Y208908D01*
Y208890D01*
X350304Y208671D01*
X350468Y208507D01*
X350541Y208453D01*
X350596Y208398D01*
X350632Y208380D01*
X350650Y208362D01*
X350905Y208234D01*
X351161Y208125D01*
X351288Y208106D01*
X351361Y208070D01*
X351434Y208052D01*
X351452D01*
X351653Y208015D01*
X351853Y207997D01*
X352053Y207961D01*
X352236D01*
X352399Y207942D01*
X353019D01*
X353347Y207961D01*
X353639Y207979D01*
X353894Y208015D01*
X354112Y208033D01*
X354276Y208052D01*
X354367Y208070D01*
X354404D01*
X354677Y208125D01*
X354932Y208179D01*
X355169Y208234D01*
X355369Y208307D01*
X355533Y208362D01*
X355661Y208398D01*
X355734Y208416D01*
X355770Y208434D01*
Y207031D01*
X355552Y206977D01*
X355351Y206922D01*
X355278Y206904D01*
X355205Y206886D01*
X355169Y206867D01*
X355151D01*
X354896Y206831D01*
X354659Y206795D01*
X354568D01*
X354495Y206776D01*
X354422D01*
X354130Y206740D01*
X353875Y206703D01*
X353766D01*
X353693Y206685D01*
X353620D01*
X353292Y206667D01*
X353165D01*
X353019Y206649D01*
X352418D01*
X352090Y206685D01*
X351798Y206703D01*
X351543Y206740D01*
X351325Y206776D01*
X351161Y206795D01*
X351069Y206831D01*
X351033D01*
X350742Y206904D01*
X350486Y206995D01*
X350268Y207086D01*
X350067Y207177D01*
X349922Y207268D01*
X349794Y207341D01*
X349721Y207378D01*
X349703Y207396D01*
X349503Y207542D01*
X349320Y207705D01*
X349175Y207870D01*
X349047Y208015D01*
X348956Y208143D01*
X348883Y208252D01*
X348847Y208325D01*
X348828Y208343D01*
X348719Y208562D01*
X348646Y208799D01*
X348573Y209036D01*
X348537Y209236D01*
X348519Y209418D01*
X348500Y209564D01*
Y209655D01*
Y209692D01*
X348519Y209928D01*
X348537Y210129D01*
X348573Y210329D01*
X348628Y210493D01*
X348683Y210621D01*
X348719Y210712D01*
X348737Y210785D01*
X348756Y210803D01*
X348956Y211131D01*
X349065Y211277D01*
X349156Y211386D01*
X349248Y211495D01*
X349320Y211568D01*
X349375Y211605D01*
X349393Y211623D01*
X349685Y211860D01*
X349976Y212060D01*
X350104Y212133D01*
X350195Y212188D01*
X350268Y212206D01*
X350286Y212224D01*
X350669Y212406D01*
X350833Y212479D01*
X350997Y212552D01*
X351124Y212607D01*
X351234Y212643D01*
X351306Y212680D01*
X351325D01*
X351707Y212844D01*
X351871Y212916D01*
X352017Y212971D01*
X352163Y213026D01*
X352254Y213062D01*
X352327Y213099D01*
X352345D01*
X352709Y213244D01*
X352855Y213317D01*
X352983Y213390D01*
X353110Y213445D01*
X353183Y213499D01*
X353238Y213518D01*
X353256Y213536D01*
X353511Y213736D01*
X353711Y213919D01*
X353784Y213991D01*
X353839Y214046D01*
X353857Y214083D01*
X353875Y214101D01*
X353948Y214228D01*
X354003Y214356D01*
X354076Y214593D01*
X354094Y214702D01*
X354112Y214775D01*
Y214830D01*
Y214848D01*
X354094Y215103D01*
X354021Y215321D01*
X353930Y215522D01*
X353821Y215686D01*
X353711Y215813D01*
X353620Y215904D01*
X353547Y215959D01*
X353529Y215977D01*
X353274Y216123D01*
X353001Y216232D01*
X352691Y216305D01*
X352381Y216360D01*
X352108Y216396D01*
X351889Y216415D01*
X351689D01*
X351252Y216396D01*
X351033Y216378D01*
X350851Y216360D01*
X350687Y216342D01*
X350577Y216324D01*
X350486Y216305D01*
X350468D01*
X349994Y216232D01*
X349776Y216178D01*
X349594Y216141D01*
X349430Y216105D01*
X349302Y216087D01*
X349229Y216050D01*
X349193D01*
Y217362D01*
X349393Y217399D01*
X349594Y217435D01*
X349667Y217453D01*
X349739Y217472D01*
X349794D01*
X350031Y217508D01*
X350231Y217544D01*
X350304D01*
X350377Y217563D01*
X350432D01*
X350669Y217599D01*
X350869Y217617D01*
X350960Y217635D01*
X351069D01*
X351288Y217654D01*
X351470Y217672D01*
X351653D01*
X352035Y217654D01*
D02*
G37*
G36*
X343107Y215158D02*
X343417Y215121D01*
X343690Y215066D01*
X343946Y215012D01*
X344146Y214957D01*
X344292Y214902D01*
X344383Y214866D01*
X344419Y214848D01*
X344674Y214720D01*
X344911Y214575D01*
X345130Y214429D01*
X345312Y214283D01*
X345458Y214155D01*
X345567Y214046D01*
X345640Y213973D01*
X345658Y213955D01*
X345840Y213736D01*
X345986Y213499D01*
X346132Y213281D01*
X346241Y213062D01*
X346332Y212880D01*
X346387Y212716D01*
X346423Y212625D01*
X346442Y212607D01*
Y212589D01*
X346533Y212297D01*
X346587Y211987D01*
X346642Y211696D01*
X346660Y211422D01*
X346678Y211204D01*
X346697Y211022D01*
Y210949D01*
Y210894D01*
Y210876D01*
Y210858D01*
X346678Y210493D01*
X346660Y210147D01*
X346624Y209837D01*
X346569Y209564D01*
X346515Y209345D01*
X346478Y209181D01*
X346460Y209072D01*
X346442Y209054D01*
Y209036D01*
X346332Y208762D01*
X346223Y208507D01*
X346095Y208270D01*
X345986Y208088D01*
X345877Y207924D01*
X345786Y207815D01*
X345731Y207742D01*
X345713Y207724D01*
X345512Y207542D01*
X345312Y207378D01*
X345130Y207232D01*
X344929Y207122D01*
X344765Y207031D01*
X344638Y206977D01*
X344565Y206940D01*
X344529Y206922D01*
X344255Y206831D01*
X343982Y206758D01*
X343709Y206722D01*
X343454Y206685D01*
X343253Y206667D01*
X343071Y206649D01*
X342925D01*
X342579Y206667D01*
X342269Y206703D01*
X341996Y206740D01*
X341741Y206813D01*
X341540Y206867D01*
X341395Y206904D01*
X341304Y206940D01*
X341267Y206959D01*
X341012Y207086D01*
X340757Y207232D01*
X340557Y207378D01*
X340374Y207505D01*
X340229Y207633D01*
X340119Y207742D01*
X340046Y207815D01*
X340028Y207833D01*
X339846Y208052D01*
X339682Y208289D01*
X339554Y208525D01*
X339445Y208744D01*
X339354Y208926D01*
X339299Y209072D01*
X339263Y209163D01*
X339245Y209200D01*
X339154Y209509D01*
X339081Y209819D01*
X339044Y210111D01*
X339008Y210384D01*
X338990Y210621D01*
X338971Y210803D01*
Y210876D01*
Y210930D01*
Y210949D01*
Y210967D01*
X338990Y211331D01*
X339008Y211678D01*
X339062Y211987D01*
X339099Y212261D01*
X339154Y212461D01*
X339208Y212625D01*
X339227Y212734D01*
X339245Y212771D01*
X339354Y213044D01*
X339463Y213299D01*
X339591Y213536D01*
X339718Y213718D01*
X339828Y213882D01*
X339919Y213991D01*
X339973Y214064D01*
X339992Y214083D01*
X340174Y214265D01*
X340374Y214429D01*
X340575Y214575D01*
X340757Y214684D01*
X340921Y214775D01*
X341049Y214830D01*
X341140Y214866D01*
X341176Y214884D01*
X341449Y214975D01*
X341723Y215048D01*
X341978Y215103D01*
X342233Y215139D01*
X342433Y215158D01*
X342615Y215176D01*
X342761D01*
X343107Y215158D01*
D02*
G37*
G36*
X322519Y214902D02*
X322792Y214975D01*
X323047Y215030D01*
X323138Y215048D01*
X323211D01*
X323266Y215066D01*
X323284D01*
X323557Y215103D01*
X323812Y215121D01*
X324049D01*
X324377Y215103D01*
X324687Y215085D01*
X324978Y215030D01*
X325215Y214975D01*
X325416Y214921D01*
X325580Y214884D01*
X325671Y214848D01*
X325707Y214830D01*
X325980Y214702D01*
X326217Y214575D01*
X326436Y214429D01*
X326618Y214301D01*
X326782Y214174D01*
X326891Y214064D01*
X326964Y213991D01*
X326983Y213973D01*
X327165Y213755D01*
X327329Y213518D01*
X327475Y213281D01*
X327584Y213062D01*
X327675Y212880D01*
X327748Y212734D01*
X327784Y212625D01*
X327802Y212607D01*
Y212589D01*
X327894Y212279D01*
X327966Y211951D01*
X328003Y211641D01*
X328039Y211350D01*
X328058Y211094D01*
X328076Y210912D01*
Y210839D01*
Y210785D01*
Y210748D01*
Y210730D01*
Y210402D01*
X328058Y210092D01*
X328021Y209801D01*
X327985Y209546D01*
X327966Y209345D01*
X327930Y209181D01*
X327912Y209090D01*
Y209054D01*
X327839Y208781D01*
X327748Y208544D01*
X327657Y208325D01*
X327566Y208125D01*
X327493Y207979D01*
X327420Y207851D01*
X327383Y207778D01*
X327365Y207760D01*
X327220Y207578D01*
X327074Y207414D01*
X326928Y207268D01*
X326782Y207159D01*
X326655Y207068D01*
X326564Y206995D01*
X326491Y206959D01*
X326472Y206940D01*
X326254Y206849D01*
X326053Y206776D01*
X325835Y206722D01*
X325653Y206685D01*
X325489Y206667D01*
X325343Y206649D01*
X325234D01*
X324924Y206667D01*
X324651Y206703D01*
X324395Y206776D01*
X324177Y206849D01*
X323976Y206922D01*
X323849Y206995D01*
X323758Y207031D01*
X323721Y207050D01*
X323466Y207232D01*
X323229Y207432D01*
X323011Y207651D01*
X322810Y207851D01*
X322646Y208052D01*
X322537Y208197D01*
X322446Y208307D01*
X322428Y208325D01*
Y208343D01*
X322373Y206795D01*
X321079D01*
Y218383D01*
X322519D01*
Y214902D01*
D02*
G37*
G36*
X278153Y215158D02*
X278481Y215139D01*
X278754Y215103D01*
X278991Y215066D01*
X279192Y215012D01*
X279319Y214975D01*
X279410Y214957D01*
X279447Y214939D01*
X279683Y214848D01*
X279884Y214738D01*
X280066Y214647D01*
X280212Y214556D01*
X280321Y214465D01*
X280412Y214392D01*
X280467Y214356D01*
X280485Y214338D01*
X280613Y214210D01*
X280740Y214064D01*
X280831Y213937D01*
X280904Y213827D01*
X280959Y213718D01*
X280995Y213645D01*
X281032Y213591D01*
Y213572D01*
X281123Y213281D01*
X281141Y213153D01*
X281159Y213044D01*
X281178Y212953D01*
Y212880D01*
Y212844D01*
Y212825D01*
Y212643D01*
X281141Y212461D01*
X281123Y212297D01*
X281086Y212169D01*
X281050Y212060D01*
X281032Y211987D01*
X280995Y211933D01*
Y211914D01*
X280831Y211641D01*
X280649Y211441D01*
X280576Y211350D01*
X280503Y211295D01*
X280467Y211258D01*
X280449Y211240D01*
X280175Y211040D01*
X279902Y210894D01*
X279793Y210839D01*
X279702Y210785D01*
X279647Y210767D01*
X279629Y210748D01*
X279264Y210602D01*
X279100Y210548D01*
X278937Y210493D01*
X278809Y210438D01*
X278700Y210420D01*
X278627Y210384D01*
X278608D01*
X278335Y210311D01*
X278117Y210238D01*
X277916Y210165D01*
X277752Y210111D01*
X277606Y210056D01*
X277515Y210019D01*
X277461Y209983D01*
X277443D01*
X277297Y209928D01*
X277151Y209856D01*
X277042Y209801D01*
X276951Y209764D01*
X276896Y209710D01*
X276841Y209692D01*
X276805Y209655D01*
X276659Y209527D01*
X276568Y209418D01*
X276532Y209345D01*
X276513Y209309D01*
X276459Y209181D01*
X276440Y209054D01*
X276422Y208963D01*
Y208945D01*
Y208926D01*
X276440Y208744D01*
X276495Y208580D01*
X276586Y208434D01*
X276677Y208325D01*
X276768Y208234D01*
X276859Y208179D01*
X276914Y208143D01*
X276932Y208125D01*
X277133Y208033D01*
X277370Y207961D01*
X277625Y207924D01*
X277880Y207888D01*
X278098Y207870D01*
X278281Y207851D01*
X278445D01*
X278973Y207870D01*
X279210Y207888D01*
X279428Y207906D01*
X279611D01*
X279738Y207924D01*
X279829Y207942D01*
X279866D01*
X280394Y208033D01*
X280631Y208088D01*
X280850Y208143D01*
X281032Y208197D01*
X281159Y208234D01*
X281250Y208270D01*
X281287D01*
Y206959D01*
X280795Y206849D01*
X280576Y206813D01*
X280358Y206776D01*
X280194Y206758D01*
X280048Y206740D01*
X279975Y206722D01*
X279939D01*
X279392Y206685D01*
X279137Y206667D01*
X278900D01*
X278700Y206649D01*
X278390D01*
X278098Y206667D01*
X277861Y206685D01*
X277752Y206703D01*
X277679D01*
X277625Y206722D01*
X277606D01*
X277315Y206776D01*
X277169Y206795D01*
X277060Y206831D01*
X276969Y206849D01*
X276878Y206867D01*
X276841Y206886D01*
X276823D01*
X276550Y206977D01*
X276331Y207068D01*
X276240Y207122D01*
X276167Y207141D01*
X276131Y207177D01*
X276112D01*
X275875Y207341D01*
X275675Y207487D01*
X275602Y207541D01*
X275548Y207596D01*
X275529Y207614D01*
X275511Y207633D01*
X275347Y207851D01*
X275220Y208052D01*
X275165Y208125D01*
X275129Y208197D01*
X275110Y208234D01*
Y208252D01*
X275019Y208525D01*
X274964Y208781D01*
X274946Y208872D01*
Y208963D01*
Y209017D01*
Y209036D01*
X274964Y209364D01*
X274983Y209491D01*
X275019Y209619D01*
X275037Y209710D01*
X275074Y209801D01*
X275092Y209837D01*
Y209856D01*
X275147Y209983D01*
X275220Y210111D01*
X275365Y210311D01*
X275438Y210384D01*
X275493Y210438D01*
X275529Y210475D01*
X275548Y210493D01*
X275803Y210694D01*
X276058Y210876D01*
X276185Y210930D01*
X276258Y210985D01*
X276331Y211003D01*
X276349Y211022D01*
X276550Y211113D01*
X276750Y211186D01*
X276951Y211277D01*
X277151Y211331D01*
X277333Y211404D01*
X277461Y211441D01*
X277552Y211459D01*
X277588Y211477D01*
X277825Y211550D01*
X278026Y211605D01*
X278208Y211659D01*
X278372Y211714D01*
X278499Y211769D01*
X278590Y211787D01*
X278645Y211823D01*
X278663D01*
X278809Y211896D01*
X278937Y211951D01*
X279046Y212005D01*
X279155Y212060D01*
X279228Y212115D01*
X279283Y212133D01*
X279301Y212169D01*
X279319D01*
X279465Y212297D01*
X279574Y212406D01*
X279629Y212479D01*
X279647Y212516D01*
X279683Y212661D01*
X279702Y212789D01*
X279720Y212880D01*
Y212898D01*
Y212916D01*
X279702Y213080D01*
X279665Y213208D01*
X279647Y213299D01*
X279629Y213335D01*
X279538Y213463D01*
X279447Y213572D01*
X279356Y213645D01*
X279319Y213664D01*
X279119Y213755D01*
X278937Y213846D01*
X278845Y213864D01*
X278772Y213882D01*
X278736Y213900D01*
X278718D01*
X278426Y213955D01*
X278135Y213973D01*
X278007Y213991D01*
X277825D01*
X277461Y213973D01*
X277297Y213955D01*
X277133D01*
X276987Y213937D01*
X276878Y213918D01*
X276786Y213900D01*
X276768D01*
X276313Y213827D01*
X276094Y213791D01*
X275912Y213755D01*
X275730Y213718D01*
X275602Y213700D01*
X275529Y213664D01*
X275493D01*
Y214939D01*
X275730Y214975D01*
X275967Y215030D01*
X276167Y215048D01*
X276349Y215085D01*
X276513Y215103D01*
X276623D01*
X276714Y215121D01*
X276732D01*
X277151Y215158D01*
X277333D01*
X277479Y215176D01*
X277807D01*
X278153Y215158D01*
D02*
G37*
G36*
X152657Y216179D02*
X152876Y216161D01*
X152986D01*
X153077Y216142D01*
X153277Y216124D01*
X153514Y216088D01*
X153569D01*
X153641Y216070D01*
X153714D01*
X153915Y216033D01*
X154152Y215997D01*
X154206D01*
X154279Y215978D01*
X154352Y215960D01*
X154552Y215924D01*
X154753Y215887D01*
Y214576D01*
X154716D01*
X154643Y214612D01*
X154516Y214630D01*
X154352Y214667D01*
X154170Y214703D01*
X153951Y214758D01*
X153477Y214830D01*
X153459D01*
X153368Y214849D01*
X153259Y214867D01*
X153095Y214885D01*
X152913Y214903D01*
X152694Y214922D01*
X152257Y214940D01*
X152056D01*
X151838Y214922D01*
X151564Y214885D01*
X151255Y214830D01*
X150945Y214758D01*
X150672Y214648D01*
X150417Y214503D01*
X150398Y214484D01*
X150325Y214430D01*
X150234Y214339D01*
X150125Y214211D01*
X150016Y214047D01*
X149925Y213847D01*
X149852Y213628D01*
X149833Y213373D01*
Y213355D01*
Y213300D01*
X149852Y213227D01*
X149870Y213118D01*
X149943Y212881D01*
X149997Y212754D01*
X150070Y212626D01*
X150089Y212608D01*
X150107Y212571D01*
X150161Y212517D01*
X150234Y212444D01*
X150435Y212262D01*
X150690Y212061D01*
X150708Y212043D01*
X150763Y212025D01*
X150836Y211970D01*
X150963Y211915D01*
X151091Y211842D01*
X151236Y211770D01*
X151601Y211624D01*
X151619D01*
X151692Y211587D01*
X151783Y211551D01*
X151929Y211496D01*
X152075Y211442D01*
X152239Y211369D01*
X152621Y211205D01*
X152639D01*
X152712Y211168D01*
X152822Y211132D01*
X152949Y211077D01*
X153113Y211004D01*
X153277Y210931D01*
X153660Y210749D01*
X153678Y210731D01*
X153751Y210713D01*
X153842Y210658D01*
X153969Y210585D01*
X154261Y210385D01*
X154552Y210148D01*
X154571Y210130D01*
X154625Y210093D01*
X154698Y210020D01*
X154789Y209911D01*
X154880Y209802D01*
X154990Y209656D01*
X155190Y209328D01*
X155208Y209310D01*
X155227Y209237D01*
X155263Y209146D01*
X155318Y209018D01*
X155372Y208854D01*
X155409Y208654D01*
X155427Y208453D01*
X155445Y208217D01*
Y208180D01*
Y208089D01*
X155427Y207943D01*
X155409Y207761D01*
X155372Y207561D01*
X155299Y207324D01*
X155227Y207087D01*
X155117Y206868D01*
X155099Y206850D01*
X155063Y206777D01*
X154990Y206668D01*
X154899Y206540D01*
X154771Y206395D01*
X154625Y206231D01*
X154443Y206067D01*
X154243Y205921D01*
X154225Y205903D01*
X154152Y205866D01*
X154024Y205793D01*
X153878Y205702D01*
X153678Y205611D01*
X153459Y205520D01*
X153204Y205429D01*
X152913Y205356D01*
X152876D01*
X152785Y205320D01*
X152621Y205301D01*
X152402Y205265D01*
X152147Y205229D01*
X151856Y205210D01*
X151528Y205174D01*
X150927D01*
X150781Y205192D01*
X150653D01*
X150325Y205210D01*
X150252D01*
X150180Y205229D01*
X150070D01*
X149815Y205265D01*
X149524Y205301D01*
X149451D01*
X149378Y205320D01*
X149287D01*
X149050Y205356D01*
X148795Y205393D01*
X148777D01*
X148740Y205411D01*
X148667Y205429D01*
X148594Y205447D01*
X148394Y205502D01*
X148175Y205557D01*
Y206960D01*
X148212Y206941D01*
X148285Y206923D01*
X148412Y206887D01*
X148576Y206832D01*
X148777Y206759D01*
X149014Y206704D01*
X149269Y206650D01*
X149542Y206595D01*
X149578D01*
X149670Y206577D01*
X149833Y206559D01*
X150052Y206540D01*
X150307Y206504D01*
X150599Y206486D01*
X150927Y206468D01*
X151546D01*
X151710Y206486D01*
X151892D01*
X152093Y206522D01*
X152293Y206540D01*
X152494Y206577D01*
X152512D01*
X152585Y206595D01*
X152657Y206631D01*
X152785Y206650D01*
X153040Y206759D01*
X153295Y206887D01*
X153314Y206905D01*
X153350Y206923D01*
X153405Y206978D01*
X153477Y207032D01*
X153641Y207196D01*
X153769Y207415D01*
Y207433D01*
X153787Y207470D01*
X153824Y207542D01*
X153842Y207634D01*
X153878Y207743D01*
X153896Y207871D01*
X153915Y208144D01*
Y208162D01*
Y208217D01*
X153896Y208290D01*
X153878Y208399D01*
X153805Y208636D01*
X153751Y208745D01*
X153660Y208873D01*
X153641Y208891D01*
X153623Y208927D01*
X153569Y208982D01*
X153496Y209055D01*
X153405Y209146D01*
X153295Y209237D01*
X153022Y209419D01*
X153004Y209437D01*
X152949Y209456D01*
X152876Y209510D01*
X152767Y209565D01*
X152639Y209638D01*
X152494Y209711D01*
X152129Y209875D01*
X152111Y209893D01*
X152038Y209911D01*
X151947Y209948D01*
X151801Y210002D01*
X151655Y210057D01*
X151473Y210130D01*
X151091Y210276D01*
X151072Y210294D01*
X150999Y210312D01*
X150908Y210367D01*
X150781Y210421D01*
X150617Y210494D01*
X150453Y210567D01*
X150070Y210749D01*
X150052Y210768D01*
X149979Y210804D01*
X149888Y210840D01*
X149761Y210913D01*
X149633Y211004D01*
X149469Y211095D01*
X149159Y211332D01*
X149141Y211350D01*
X149105Y211387D01*
X149032Y211460D01*
X148941Y211569D01*
X148850Y211679D01*
X148740Y211824D01*
X148540Y212134D01*
X148522Y212152D01*
X148503Y212225D01*
X148467Y212316D01*
X148431Y212444D01*
X148376Y212608D01*
X148339Y212790D01*
X148321Y213008D01*
X148303Y213227D01*
Y213245D01*
Y213318D01*
X148321Y213428D01*
X148339Y213573D01*
X148358Y213737D01*
X148394Y213919D01*
X148449Y214120D01*
X148522Y214320D01*
X148540Y214339D01*
X148558Y214411D01*
X148631Y214503D01*
X148704Y214630D01*
X148795Y214776D01*
X148923Y214940D01*
X149068Y215104D01*
X149232Y215268D01*
X149250Y215286D01*
X149323Y215341D01*
X149433Y215414D01*
X149578Y215505D01*
X149742Y215614D01*
X149961Y215723D01*
X150198Y215833D01*
X150471Y215942D01*
X150508Y215960D01*
X150617Y215978D01*
X150763Y216015D01*
X150981Y216070D01*
X151255Y216124D01*
X151564Y216161D01*
X151910Y216179D01*
X152293Y216197D01*
X152475D01*
X152657Y216179D01*
D02*
G37*
G36*
X182866Y205320D02*
X181573D01*
X181518Y206868D01*
Y206850D01*
X181500Y206832D01*
X181409Y206723D01*
X181299Y206577D01*
X181135Y206377D01*
X180935Y206176D01*
X180716Y205957D01*
X180480Y205757D01*
X180224Y205575D01*
X180188Y205557D01*
X180097Y205520D01*
X179969Y205447D01*
X179769Y205374D01*
X179550Y205301D01*
X179295Y205229D01*
X179022Y205192D01*
X178712Y205174D01*
X178603D01*
X178457Y205192D01*
X178293Y205210D01*
X178111Y205247D01*
X177892Y205301D01*
X177692Y205374D01*
X177473Y205466D01*
X177455Y205484D01*
X177382Y205520D01*
X177291Y205593D01*
X177163Y205684D01*
X177018Y205793D01*
X176872Y205939D01*
X176726Y206103D01*
X176580Y206285D01*
X176562Y206304D01*
X176526Y206377D01*
X176453Y206504D01*
X176380Y206650D01*
X176289Y206850D01*
X176198Y207069D01*
X176107Y207306D01*
X176034Y207579D01*
Y207615D01*
X176016Y207706D01*
X175979Y207871D01*
X175961Y208071D01*
X175925Y208326D01*
X175888Y208617D01*
X175870Y208927D01*
Y209255D01*
Y209274D01*
Y209310D01*
Y209365D01*
Y209437D01*
X175888Y209620D01*
X175906Y209875D01*
X175943Y210166D01*
X175979Y210476D01*
X176052Y210804D01*
X176143Y211114D01*
Y211132D01*
X176161Y211150D01*
X176198Y211259D01*
X176271Y211405D01*
X176362Y211587D01*
X176471Y211806D01*
X176617Y212043D01*
X176781Y212280D01*
X176963Y212498D01*
X176981Y212517D01*
X177054Y212590D01*
X177163Y212699D01*
X177327Y212826D01*
X177510Y212954D01*
X177728Y213100D01*
X177965Y213227D01*
X178238Y213355D01*
X178275Y213373D01*
X178366Y213409D01*
X178530Y213446D01*
X178730Y213500D01*
X178967Y213555D01*
X179259Y213610D01*
X179569Y213628D01*
X179896Y213646D01*
X180133D01*
X180388Y213628D01*
X180662Y213592D01*
X180680D01*
X180735Y213573D01*
X180807D01*
X180899Y213555D01*
X181154Y213500D01*
X181427Y213428D01*
Y216908D01*
X182866D01*
Y205320D01*
D02*
G37*
G36*
X226612Y213683D02*
X226795D01*
X227214Y213646D01*
X227232D01*
X227323Y213628D01*
X227432D01*
X227596Y213610D01*
X227779Y213573D01*
X227979Y213555D01*
X228216Y213500D01*
X228453Y213464D01*
Y212189D01*
X228416D01*
X228343Y212225D01*
X228216Y212243D01*
X228034Y212280D01*
X227852Y212316D01*
X227633Y212353D01*
X227177Y212425D01*
X227159D01*
X227068Y212444D01*
X226959Y212462D01*
X226813Y212480D01*
X226649D01*
X226485Y212498D01*
X226121Y212517D01*
X225938D01*
X225811Y212498D01*
X225519Y212480D01*
X225228Y212425D01*
X225210D01*
X225173Y212407D01*
X225100Y212389D01*
X225009Y212371D01*
X224827Y212280D01*
X224626Y212189D01*
X224590Y212170D01*
X224499Y212098D01*
X224408Y211988D01*
X224317Y211861D01*
X224299Y211824D01*
X224280Y211733D01*
X224244Y211606D01*
X224226Y211442D01*
Y211423D01*
Y211405D01*
X224244Y211314D01*
X224262Y211187D01*
X224299Y211041D01*
X224317Y211004D01*
X224372Y210931D01*
X224481Y210822D01*
X224626Y210695D01*
X224645D01*
X224663Y210658D01*
X224718Y210640D01*
X224791Y210585D01*
X224900Y210531D01*
X225009Y210476D01*
X225137Y210421D01*
X225283Y210348D01*
X225301D01*
X225355Y210312D01*
X225447Y210294D01*
X225574Y210239D01*
X225738Y210185D01*
X225920Y210130D01*
X226121Y210075D01*
X226358Y210002D01*
X226394Y209984D01*
X226485Y209966D01*
X226612Y209929D01*
X226795Y209857D01*
X226995Y209802D01*
X227196Y209711D01*
X227396Y209638D01*
X227596Y209547D01*
X227615Y209528D01*
X227688Y209510D01*
X227760Y209456D01*
X227888Y209401D01*
X228143Y209219D01*
X228398Y209018D01*
X228416Y209000D01*
X228453Y208964D01*
X228507Y208909D01*
X228580Y208836D01*
X228726Y208636D01*
X228799Y208508D01*
X228854Y208381D01*
Y208363D01*
X228872Y208326D01*
X228908Y208235D01*
X228926Y208144D01*
X228963Y208016D01*
X228981Y207889D01*
X228999Y207561D01*
Y207543D01*
Y207488D01*
Y207397D01*
X228981Y207306D01*
X228926Y207051D01*
X228835Y206777D01*
Y206759D01*
X228817Y206723D01*
X228781Y206650D01*
X228726Y206577D01*
X228598Y206377D01*
X228434Y206158D01*
X228416Y206140D01*
X228398Y206121D01*
X228343Y206067D01*
X228271Y206012D01*
X228070Y205866D01*
X227833Y205702D01*
X227815D01*
X227779Y205666D01*
X227706Y205648D01*
X227615Y205593D01*
X227396Y205502D01*
X227123Y205411D01*
X227104D01*
X227068Y205393D01*
X226977Y205374D01*
X226886Y205356D01*
X226777Y205320D01*
X226631Y205301D01*
X226339Y205247D01*
X226321D01*
X226266Y205229D01*
X226193D01*
X226084Y205210D01*
X225847Y205192D01*
X225556Y205174D01*
X225246D01*
X225046Y205192D01*
X224809D01*
X224554Y205210D01*
X224007Y205247D01*
X223971D01*
X223898Y205265D01*
X223752Y205283D01*
X223588Y205301D01*
X223369Y205338D01*
X223151Y205374D01*
X222659Y205484D01*
Y206796D01*
X222695D01*
X222786Y206759D01*
X222914Y206723D01*
X223096Y206668D01*
X223315Y206613D01*
X223552Y206559D01*
X224080Y206468D01*
X224116D01*
X224207Y206449D01*
X224335Y206431D01*
X224517D01*
X224736Y206413D01*
X224973Y206395D01*
X225501Y206377D01*
X225665D01*
X225847Y206395D01*
X226066Y206413D01*
X226321Y206449D01*
X226576Y206486D01*
X226813Y206559D01*
X227013Y206650D01*
X227032Y206668D01*
X227086Y206704D01*
X227177Y206759D01*
X227268Y206850D01*
X227360Y206960D01*
X227451Y207105D01*
X227505Y207269D01*
X227523Y207452D01*
Y207470D01*
Y207488D01*
X227505Y207579D01*
X227487Y207706D01*
X227432Y207834D01*
X227414Y207871D01*
X227378Y207943D01*
X227287Y208053D01*
X227141Y208180D01*
X227104Y208217D01*
X227050Y208235D01*
X226995Y208290D01*
X226904Y208326D01*
X226795Y208381D01*
X226649Y208453D01*
X226503Y208508D01*
X226485D01*
X226430Y208545D01*
X226339Y208581D01*
X226193Y208636D01*
X226029Y208690D01*
X225829Y208763D01*
X225610Y208836D01*
X225337Y208909D01*
X225319D01*
X225246Y208945D01*
X225137Y208964D01*
X225009Y209018D01*
X224845Y209073D01*
X224681Y209128D01*
X224317Y209274D01*
X224299Y209292D01*
X224244Y209310D01*
X224153Y209365D01*
X224043Y209419D01*
X223770Y209565D01*
X223497Y209765D01*
X223479Y209784D01*
X223442Y209820D01*
X223369Y209875D01*
X223296Y209966D01*
X223114Y210166D01*
X222950Y210439D01*
Y210458D01*
X222914Y210512D01*
X222896Y210585D01*
X222859Y210695D01*
X222823Y210822D01*
X222805Y210986D01*
X222768Y211168D01*
Y211350D01*
Y211369D01*
Y211405D01*
Y211478D01*
X222786Y211569D01*
X222805Y211679D01*
X222823Y211806D01*
X222914Y212098D01*
Y212116D01*
X222950Y212170D01*
X222987Y212243D01*
X223041Y212353D01*
X223114Y212462D01*
X223205Y212590D01*
X223333Y212735D01*
X223461Y212863D01*
X223479Y212881D01*
X223533Y212917D01*
X223624Y212990D01*
X223734Y213081D01*
X223880Y213173D01*
X224062Y213264D01*
X224262Y213373D01*
X224499Y213464D01*
X224535Y213482D01*
X224626Y213500D01*
X224754Y213537D01*
X224955Y213592D01*
X225191Y213628D01*
X225465Y213665D01*
X225793Y213683D01*
X226139Y213701D01*
X226467D01*
X226612Y213683D01*
D02*
G37*
G36*
X199519D02*
X199610D01*
X199738Y213665D01*
X200029Y213592D01*
X200339Y213500D01*
X200649Y213355D01*
X200959Y213136D01*
X201104Y213009D01*
X201232Y212863D01*
X201269Y212826D01*
X201287Y212772D01*
X201341Y212717D01*
X201378Y212626D01*
X201432Y212517D01*
X201505Y212389D01*
X201560Y212243D01*
X201615Y212079D01*
X201669Y211915D01*
X201724Y211715D01*
X201779Y211496D01*
X201815Y211241D01*
X201833Y210986D01*
X201852Y210713D01*
Y210421D01*
X200412D01*
Y210439D01*
Y210476D01*
Y210531D01*
Y210603D01*
X200394Y210786D01*
X200376Y211004D01*
X200339Y211259D01*
X200285Y211514D01*
X200194Y211770D01*
X200084Y211970D01*
X200066Y211988D01*
X200029Y212043D01*
X199938Y212134D01*
X199829Y212225D01*
X199683Y212298D01*
X199519Y212389D01*
X199319Y212444D01*
X199082Y212462D01*
X198973D01*
X198918Y212444D01*
X198736Y212425D01*
X198517Y212353D01*
X198499D01*
X198463Y212334D01*
X198408Y212316D01*
X198335Y212280D01*
X198135Y212170D01*
X197916Y212025D01*
X197898Y212006D01*
X197861Y211988D01*
X197807Y211934D01*
X197716Y211879D01*
X197515Y211679D01*
X197260Y211442D01*
X197242Y211423D01*
X197205Y211387D01*
X197133Y211314D01*
X197041Y211205D01*
X196932Y211077D01*
X196805Y210950D01*
X196677Y210786D01*
X196531Y210603D01*
Y205320D01*
X195092D01*
Y213555D01*
X196386D01*
X196422Y212025D01*
Y212043D01*
X196458Y212061D01*
X196549Y212170D01*
X196695Y212316D01*
X196878Y212517D01*
X197096Y212717D01*
X197333Y212936D01*
X197588Y213136D01*
X197861Y213300D01*
X197898Y213318D01*
X197989Y213355D01*
X198117Y213428D01*
X198317Y213500D01*
X198517Y213573D01*
X198772Y213646D01*
X199027Y213683D01*
X199301Y213701D01*
X199428D01*
X199519Y213683D01*
D02*
G37*
G36*
X209868D02*
X209960Y213665D01*
X210087Y213628D01*
X210214Y213573D01*
X210360Y213500D01*
X210506Y213409D01*
X210652Y213282D01*
X210798Y213118D01*
X210925Y212917D01*
X211053Y212699D01*
X211144Y212425D01*
X211217Y212098D01*
X211271Y211733D01*
X211290Y211314D01*
Y205320D01*
X209868D01*
Y211223D01*
Y211241D01*
Y211296D01*
Y211350D01*
Y211442D01*
X209850Y211642D01*
X209832Y211842D01*
Y211861D01*
Y211879D01*
X209814Y211988D01*
X209795Y212116D01*
X209741Y212243D01*
X209723Y212262D01*
X209704Y212316D01*
X209650Y212389D01*
X209595Y212444D01*
X209577Y212462D01*
X209540Y212480D01*
X209468Y212498D01*
X209376Y212517D01*
X209358D01*
X209285Y212498D01*
X209194Y212480D01*
X209085Y212407D01*
X209067Y212389D01*
X209012Y212334D01*
X208921Y212225D01*
X208812Y212079D01*
Y212061D01*
X208793Y212043D01*
X208757Y211988D01*
X208720Y211934D01*
X208611Y211733D01*
X208484Y211496D01*
Y211478D01*
X208447Y211423D01*
X208411Y211350D01*
X208356Y211241D01*
X208301Y211114D01*
X208228Y210968D01*
X208156Y210786D01*
X208065Y210603D01*
Y205320D01*
X206643D01*
Y211077D01*
Y211095D01*
Y211150D01*
Y211223D01*
Y211332D01*
X206625Y211569D01*
X206607Y211788D01*
Y211806D01*
Y211842D01*
X206589Y211952D01*
X206571Y212098D01*
X206516Y212225D01*
X206498Y212243D01*
X206479Y212316D01*
X206425Y212389D01*
X206370Y212444D01*
X206352Y212462D01*
X206315Y212480D01*
X206243Y212498D01*
X206152Y212517D01*
X206133D01*
X206060Y212498D01*
X205969Y212480D01*
X205878Y212425D01*
X205860Y212407D01*
X205805Y212353D01*
X205714Y212262D01*
X205605Y212116D01*
X205587Y212079D01*
X205514Y211970D01*
X205404Y211788D01*
X205277Y211551D01*
Y211533D01*
X205241Y211478D01*
X205204Y211405D01*
X205149Y211296D01*
X205095Y211168D01*
X205022Y211004D01*
X204931Y210804D01*
X204840Y210603D01*
Y205320D01*
X203418D01*
Y213555D01*
X204585D01*
X204657Y211988D01*
X204676Y212006D01*
X204694Y212061D01*
X204730Y212152D01*
X204785Y212262D01*
X204931Y212517D01*
X205077Y212772D01*
X205095Y212790D01*
X205113Y212826D01*
X205149Y212881D01*
X205204Y212954D01*
X205332Y213136D01*
X205496Y213300D01*
X205514Y213318D01*
X205532Y213336D01*
X205641Y213409D01*
X205787Y213500D01*
X205951Y213592D01*
X205969D01*
X205988Y213610D01*
X206115Y213646D01*
X206279Y213683D01*
X206479Y213701D01*
X206589D01*
X206716Y213683D01*
X206862Y213646D01*
X207026Y213592D01*
X207190Y213519D01*
X207354Y213409D01*
X207500Y213264D01*
X207518Y213245D01*
X207554Y213191D01*
X207609Y213081D01*
X207682Y212936D01*
X207737Y212735D01*
X207791Y212517D01*
X207828Y212243D01*
X207846Y211915D01*
X207864Y211934D01*
X207882Y211988D01*
X207919Y212061D01*
X207974Y212170D01*
X208101Y212407D01*
X208228Y212662D01*
Y212681D01*
X208265Y212717D01*
X208301Y212790D01*
X208356Y212863D01*
X208484Y213045D01*
X208629Y213227D01*
X208648Y213245D01*
X208666Y213264D01*
X208775Y213355D01*
X208921Y213464D01*
X209103Y213573D01*
X209121D01*
X209158Y213592D01*
X209212Y213610D01*
X209285Y213646D01*
X209486Y213683D01*
X209723Y213701D01*
X209795D01*
X209868Y213683D01*
D02*
G37*
G36*
X135968Y213683D02*
X136059Y213665D01*
X136187Y213628D01*
X136314Y213573D01*
X136460Y213500D01*
X136606Y213409D01*
X136751Y213282D01*
X136897Y213118D01*
X137025Y212917D01*
X137152Y212699D01*
X137243Y212425D01*
X137316Y212098D01*
X137371Y211733D01*
X137389Y211314D01*
Y205320D01*
X135968D01*
Y211223D01*
Y211241D01*
Y211296D01*
Y211350D01*
Y211442D01*
X135950Y211642D01*
X135932Y211842D01*
Y211861D01*
Y211879D01*
X135913Y211988D01*
X135895Y212116D01*
X135840Y212243D01*
X135822Y212262D01*
X135804Y212316D01*
X135749Y212389D01*
X135695Y212444D01*
X135677Y212462D01*
X135640Y212480D01*
X135567Y212498D01*
X135476Y212517D01*
X135458D01*
X135385Y212498D01*
X135294Y212480D01*
X135185Y212407D01*
X135166Y212389D01*
X135112Y212334D01*
X135021Y212225D01*
X134911Y212079D01*
Y212061D01*
X134893Y212043D01*
X134857Y211988D01*
X134820Y211934D01*
X134711Y211733D01*
X134583Y211496D01*
Y211478D01*
X134547Y211423D01*
X134510Y211350D01*
X134456Y211241D01*
X134401Y211114D01*
X134328Y210968D01*
X134255Y210786D01*
X134164Y210603D01*
Y205320D01*
X132743D01*
Y211077D01*
Y211095D01*
Y211150D01*
Y211223D01*
Y211332D01*
X132725Y211569D01*
X132707Y211788D01*
Y211806D01*
Y211842D01*
X132688Y211952D01*
X132670Y212098D01*
X132616Y212225D01*
X132597Y212243D01*
X132579Y212316D01*
X132525Y212389D01*
X132470Y212444D01*
X132452Y212462D01*
X132415Y212480D01*
X132342Y212498D01*
X132251Y212517D01*
X132233D01*
X132160Y212498D01*
X132069Y212480D01*
X131978Y212425D01*
X131960Y212407D01*
X131905Y212353D01*
X131814Y212262D01*
X131704Y212116D01*
X131686Y212079D01*
X131613Y211970D01*
X131504Y211788D01*
X131377Y211551D01*
Y211533D01*
X131340Y211478D01*
X131304Y211405D01*
X131249Y211296D01*
X131194Y211168D01*
X131122Y211004D01*
X131030Y210804D01*
X130939Y210603D01*
Y205320D01*
X129518D01*
Y213555D01*
X130684D01*
X130757Y211988D01*
X130775Y212006D01*
X130794Y212061D01*
X130830Y212152D01*
X130885Y212262D01*
X131030Y212517D01*
X131176Y212772D01*
X131194Y212790D01*
X131213Y212826D01*
X131249Y212881D01*
X131304Y212954D01*
X131431Y213136D01*
X131595Y213300D01*
X131613Y213318D01*
X131632Y213336D01*
X131741Y213409D01*
X131887Y213500D01*
X132051Y213592D01*
X132069D01*
X132087Y213610D01*
X132215Y213646D01*
X132379Y213683D01*
X132579Y213701D01*
X132688D01*
X132816Y213683D01*
X132962Y213646D01*
X133126Y213592D01*
X133290Y213519D01*
X133454Y213409D01*
X133599Y213264D01*
X133618Y213245D01*
X133654Y213191D01*
X133709Y213081D01*
X133782Y212936D01*
X133836Y212735D01*
X133891Y212517D01*
X133927Y212243D01*
X133946Y211915D01*
X133964Y211934D01*
X133982Y211988D01*
X134019Y212061D01*
X134073Y212170D01*
X134201Y212407D01*
X134328Y212662D01*
Y212681D01*
X134365Y212717D01*
X134401Y212790D01*
X134456Y212863D01*
X134583Y213045D01*
X134729Y213227D01*
X134747Y213245D01*
X134766Y213264D01*
X134875Y213355D01*
X135021Y213464D01*
X135203Y213573D01*
X135221D01*
X135257Y213592D01*
X135312Y213610D01*
X135385Y213646D01*
X135585Y213683D01*
X135822Y213701D01*
X135895D01*
X135968Y213683D01*
D02*
G37*
G36*
X233317Y209784D02*
X237016Y213555D01*
X238911D01*
X235048Y209747D01*
X239130Y205320D01*
X237162D01*
X233317Y209729D01*
Y205320D01*
X231896D01*
Y216908D01*
X233317D01*
Y209784D01*
D02*
G37*
G36*
X217047Y213683D02*
X217247Y213665D01*
X217484Y213628D01*
X217940Y213537D01*
X217958D01*
X218049Y213500D01*
X218158Y213464D01*
X218286Y213409D01*
X218450Y213336D01*
X218614Y213245D01*
X218778Y213154D01*
X218942Y213027D01*
X218960Y213009D01*
X219015Y212972D01*
X219088Y212899D01*
X219179Y212808D01*
X219288Y212681D01*
X219397Y212535D01*
X219489Y212371D01*
X219580Y212189D01*
X219598Y212170D01*
X219616Y212098D01*
X219653Y211988D01*
X219707Y211842D01*
X219744Y211679D01*
X219780Y211460D01*
X219798Y211241D01*
X219816Y210986D01*
Y205320D01*
X218523D01*
X218486Y206413D01*
X218450Y206377D01*
X218377Y206304D01*
X218231Y206194D01*
X218067Y206048D01*
X217849Y205903D01*
X217630Y205739D01*
X217375Y205593D01*
X217120Y205466D01*
X217084Y205447D01*
X216992Y205429D01*
X216865Y205374D01*
X216683Y205320D01*
X216464Y205265D01*
X216209Y205229D01*
X215954Y205192D01*
X215662Y205174D01*
X215553D01*
X215425Y205192D01*
X215262D01*
X215061Y205210D01*
X214861Y205247D01*
X214460Y205338D01*
X214442D01*
X214387Y205374D01*
X214296Y205411D01*
X214168Y205466D01*
X213913Y205629D01*
X213640Y205830D01*
X213622Y205848D01*
X213585Y205885D01*
X213531Y205957D01*
X213458Y206048D01*
X213385Y206158D01*
X213294Y206285D01*
X213166Y206577D01*
Y206595D01*
X213148Y206650D01*
X213130Y206741D01*
X213093Y206850D01*
X213075Y206996D01*
X213039Y207160D01*
X213020Y207506D01*
Y207524D01*
Y207561D01*
Y207634D01*
X213039Y207706D01*
X213057Y207816D01*
X213075Y207943D01*
X213130Y208217D01*
X213239Y208526D01*
X213403Y208854D01*
X213512Y209018D01*
X213640Y209164D01*
X213767Y209310D01*
X213931Y209456D01*
X213950D01*
X213968Y209492D01*
X214022Y209528D01*
X214114Y209565D01*
X214205Y209620D01*
X214314Y209674D01*
X214460Y209747D01*
X214624Y209820D01*
X214806Y209875D01*
X215006Y209948D01*
X215225Y210002D01*
X215480Y210057D01*
X215735Y210093D01*
X216027Y210130D01*
X216336Y210166D01*
X218377D01*
Y210877D01*
Y210913D01*
Y211004D01*
X218359Y211132D01*
X218322Y211296D01*
X218268Y211478D01*
X218177Y211679D01*
X218067Y211861D01*
X217903Y212043D01*
X217885Y212061D01*
X217812Y212116D01*
X217703Y212189D01*
X217557Y212262D01*
X217357Y212334D01*
X217102Y212407D01*
X216810Y212462D01*
X216482Y212480D01*
X216227D01*
X216045Y212462D01*
X215826Y212444D01*
X215608Y212407D01*
X215097Y212316D01*
X215061D01*
X214988Y212280D01*
X214842Y212243D01*
X214678Y212207D01*
X214460Y212134D01*
X214223Y212061D01*
X213968Y211970D01*
X213713Y211879D01*
Y213173D01*
X213731D01*
X213767Y213191D01*
X213804Y213209D01*
X213877Y213227D01*
X214059Y213282D01*
X214296Y213355D01*
X214314D01*
X214351Y213373D01*
X214423Y213391D01*
X214514Y213409D01*
X214751Y213464D01*
X215006Y213519D01*
X215025D01*
X215079Y213537D01*
X215152Y213555D01*
X215243Y213573D01*
X215353Y213592D01*
X215480Y213610D01*
X215772Y213646D01*
X215790D01*
X215844Y213665D01*
X215917D01*
X216027Y213683D01*
X216154D01*
X216282Y213701D01*
X216865D01*
X217047Y213683D01*
D02*
G37*
G36*
X171278Y206504D02*
X173738D01*
Y205320D01*
X167142Y205320D01*
Y206504D01*
X169839Y206504D01*
Y215742D01*
X167416Y215741D01*
Y216908D01*
X171278Y216908D01*
Y206504D01*
D02*
G37*
G36*
X87248Y216015D02*
X87466Y215997D01*
X87740Y215960D01*
X88031Y215887D01*
X88359Y215814D01*
X88687Y215705D01*
X89015Y215578D01*
X89343Y215395D01*
X89635Y215195D01*
X89908Y214940D01*
X90127Y214630D01*
X90309Y214284D01*
X90418Y213883D01*
X90436Y213664D01*
X90455Y213428D01*
Y213409D01*
Y213391D01*
Y213282D01*
X90436Y213118D01*
X90400Y212917D01*
X90345Y212681D01*
X90272Y212425D01*
X90181Y212170D01*
X90035Y211934D01*
X90017Y211915D01*
X89963Y211824D01*
X89853Y211715D01*
X89726Y211587D01*
X89543Y211442D01*
X89307Y211278D01*
X89033Y211132D01*
X88705Y211004D01*
X88724D01*
X88778Y210986D01*
X88869Y210968D01*
X88979Y210950D01*
X89234Y210859D01*
X89525Y210731D01*
X89543D01*
X89598Y210695D01*
X89671Y210658D01*
X89762Y210585D01*
X89981Y210439D01*
X90199Y210221D01*
X90218Y210203D01*
X90254Y210166D01*
X90309Y210093D01*
X90363Y210020D01*
X90436Y209911D01*
X90509Y209784D01*
X90655Y209474D01*
Y209456D01*
X90691Y209401D01*
X90710Y209310D01*
X90746Y209201D01*
X90782Y209055D01*
X90801Y208891D01*
X90837Y208526D01*
Y208490D01*
Y208399D01*
X90819Y208253D01*
X90801Y208053D01*
X90764Y207852D01*
X90710Y207615D01*
X90637Y207379D01*
X90527Y207142D01*
X90509Y207123D01*
X90473Y207051D01*
X90400Y206941D01*
X90309Y206796D01*
X90199Y206650D01*
X90054Y206468D01*
X89890Y206304D01*
X89689Y206140D01*
X89671Y206121D01*
X89598Y206067D01*
X89471Y205994D01*
X89325Y205921D01*
X89124Y205812D01*
X88906Y205702D01*
X88651Y205611D01*
X88359Y205520D01*
X88323D01*
X88232Y205484D01*
X88068Y205466D01*
X87867Y205429D01*
X87612Y205393D01*
X87321Y205356D01*
X86993Y205338D01*
X86646Y205320D01*
X83895D01*
Y216033D01*
X87066D01*
X87248Y216015D01*
D02*
G37*
G36*
X114541Y213555D02*
X118258D01*
Y212353D01*
X114541D01*
Y208162D01*
Y208144D01*
Y208126D01*
Y208016D01*
X114559Y207871D01*
X114596Y207670D01*
X114651Y207451D01*
X114742Y207233D01*
X114851Y207032D01*
X115015Y206850D01*
X115033Y206832D01*
X115106Y206777D01*
X115216Y206704D01*
X115361Y206631D01*
X115562Y206559D01*
X115798Y206486D01*
X116072Y206431D01*
X116400Y206413D01*
X116655D01*
X116782Y206431D01*
X116946D01*
X117274Y206468D01*
X117292D01*
X117365Y206486D01*
X117456D01*
X117584Y206522D01*
X117730Y206540D01*
X117894Y206577D01*
X118258Y206668D01*
Y205429D01*
X118240D01*
X118167Y205411D01*
X118076Y205393D01*
X117948Y205374D01*
X117785Y205338D01*
X117621Y205320D01*
X117238Y205265D01*
X117147D01*
X117056Y205247D01*
X116910D01*
X116764Y205229D01*
X116582D01*
X116199Y205210D01*
X116054D01*
X115944Y205229D01*
X115817D01*
X115671Y205247D01*
X115325Y205301D01*
X114960Y205374D01*
X114578Y205502D01*
X114213Y205666D01*
X114031Y205775D01*
X113885Y205903D01*
X113849Y205939D01*
X113758Y206030D01*
X113648Y206194D01*
X113503Y206431D01*
X113357Y206741D01*
X113248Y207105D01*
X113157Y207542D01*
X113120Y208053D01*
Y212353D01*
X110824Y212353D01*
Y213555D01*
X113120Y213555D01*
Y215814D01*
X114541Y216197D01*
Y213555D01*
D02*
G37*
G36*
X105304Y213555D02*
X109021D01*
Y212353D01*
X105304D01*
Y208162D01*
Y208144D01*
Y208126D01*
Y208016D01*
X105322Y207871D01*
X105358Y207670D01*
X105413Y207451D01*
X105504Y207233D01*
X105614Y207032D01*
X105778Y206850D01*
X105796Y206832D01*
X105869Y206777D01*
X105978Y206704D01*
X106124Y206631D01*
X106324Y206559D01*
X106561Y206486D01*
X106834Y206431D01*
X107162Y206413D01*
X107417D01*
X107545Y206431D01*
X107709D01*
X108037Y206468D01*
X108055D01*
X108128Y206486D01*
X108219D01*
X108346Y206522D01*
X108492Y206540D01*
X108656Y206577D01*
X109021Y206668D01*
Y205429D01*
X109002D01*
X108930Y205411D01*
X108838Y205393D01*
X108711Y205374D01*
X108547Y205338D01*
X108383Y205320D01*
X108000Y205265D01*
X107909D01*
X107818Y205247D01*
X107672D01*
X107527Y205229D01*
X107344D01*
X106962Y205210D01*
X106816D01*
X106707Y205229D01*
X106579D01*
X106433Y205247D01*
X106087Y205301D01*
X105723Y205374D01*
X105340Y205502D01*
X104976Y205666D01*
X104794Y205775D01*
X104648Y205903D01*
X104611Y205939D01*
X104520Y206030D01*
X104411Y206194D01*
X104265Y206431D01*
X104120Y206741D01*
X104010Y207105D01*
X103919Y207542D01*
X103883Y208053D01*
Y212353D01*
X101587D01*
Y213555D01*
X103883D01*
Y215814D01*
X105304Y216197D01*
Y213555D01*
D02*
G37*
G36*
X189225Y213683D02*
X189426Y213665D01*
X189662Y213628D01*
X189918Y213592D01*
X190173Y213519D01*
X190428Y213428D01*
X190464Y213409D01*
X190537Y213373D01*
X190665Y213318D01*
X190828Y213227D01*
X190992Y213118D01*
X191193Y212990D01*
X191375Y212826D01*
X191557Y212644D01*
X191576Y212626D01*
X191630Y212553D01*
X191721Y212444D01*
X191812Y212316D01*
X191922Y212134D01*
X192049Y211934D01*
X192158Y211697D01*
X192250Y211442D01*
X192268Y211405D01*
X192286Y211314D01*
X192323Y211168D01*
X192377Y210986D01*
X192414Y210749D01*
X192450Y210494D01*
X192468Y210203D01*
X192487Y209875D01*
Y209857D01*
Y209820D01*
Y209765D01*
Y209693D01*
Y209528D01*
X192468Y209346D01*
Y209310D01*
Y209219D01*
Y209109D01*
X192450Y208982D01*
X186674D01*
Y208964D01*
Y208927D01*
Y208854D01*
X186693Y208782D01*
Y208672D01*
X186711Y208545D01*
X186765Y208253D01*
X186838Y207943D01*
X186966Y207615D01*
X187130Y207306D01*
X187367Y207032D01*
X187403Y206996D01*
X187494Y206923D01*
X187658Y206814D01*
X187895Y206704D01*
X188187Y206577D01*
X188533Y206468D01*
X188934Y206395D01*
X189407Y206358D01*
X189863D01*
X190118Y206377D01*
X190173D01*
X190245Y206395D01*
X190337D01*
X190573Y206431D01*
X190810Y206449D01*
X190828D01*
X190865Y206468D01*
X190938D01*
X191029Y206486D01*
X191229Y206522D01*
X191466Y206559D01*
X191484D01*
X191521Y206577D01*
X191576Y206595D01*
X191648Y206613D01*
X191849Y206650D01*
X192049Y206704D01*
Y205538D01*
X192031D01*
X191940Y205520D01*
X191831Y205484D01*
X191667Y205447D01*
X191466Y205411D01*
X191247Y205356D01*
X190992Y205320D01*
X190719Y205283D01*
X190683D01*
X190592Y205265D01*
X190446Y205247D01*
X190264Y205229D01*
X190027Y205210D01*
X189772Y205192D01*
X189498Y205174D01*
X189025D01*
X188824Y205192D01*
X188587Y205210D01*
X188296Y205247D01*
X187986Y205283D01*
X187676Y205356D01*
X187385Y205447D01*
X187348Y205466D01*
X187257Y205502D01*
X187112Y205575D01*
X186948Y205666D01*
X186747Y205775D01*
X186529Y205921D01*
X186328Y206085D01*
X186128Y206285D01*
X186109Y206304D01*
X186055Y206377D01*
X185964Y206504D01*
X185854Y206650D01*
X185727Y206850D01*
X185617Y207069D01*
X185490Y207342D01*
X185399Y207615D01*
Y207634D01*
Y207652D01*
X185362Y207761D01*
X185326Y207925D01*
X185290Y208144D01*
X185253Y208417D01*
X185217Y208709D01*
X185198Y209055D01*
X185180Y209419D01*
Y209437D01*
Y209456D01*
Y209565D01*
X185198Y209729D01*
X185217Y209948D01*
X185235Y210185D01*
X185290Y210458D01*
X185344Y210749D01*
X185417Y211041D01*
Y211059D01*
X185435Y211077D01*
X185472Y211168D01*
X185526Y211314D01*
X185599Y211514D01*
X185709Y211715D01*
X185836Y211952D01*
X185982Y212189D01*
X186146Y212407D01*
X186164Y212425D01*
X186237Y212498D01*
X186346Y212608D01*
X186474Y212754D01*
X186656Y212899D01*
X186856Y213063D01*
X187075Y213209D01*
X187330Y213355D01*
X187367Y213373D01*
X187458Y213409D01*
X187603Y213464D01*
X187786Y213537D01*
X188023Y213592D01*
X188296Y213646D01*
X188587Y213683D01*
X188915Y213701D01*
X189061D01*
X189225Y213683D01*
D02*
G37*
G36*
X161512Y213683D02*
X161713Y213665D01*
X161968Y213628D01*
X162223Y213573D01*
X162496Y213500D01*
X162770Y213409D01*
X162806Y213391D01*
X162897Y213355D01*
X163025Y213300D01*
X163189Y213209D01*
X163371Y213100D01*
X163571Y212954D01*
X163772Y212790D01*
X163954Y212608D01*
X163972Y212590D01*
X164027Y212517D01*
X164118Y212407D01*
X164227Y212243D01*
X164355Y212061D01*
X164482Y211824D01*
X164592Y211569D01*
X164701Y211296D01*
X164719Y211259D01*
X164737Y211150D01*
X164792Y210986D01*
X164847Y210786D01*
X164883Y210512D01*
X164938Y210203D01*
X164956Y209857D01*
X164974Y209492D01*
Y209474D01*
Y209456D01*
Y209401D01*
Y209328D01*
X164956Y209146D01*
X164938Y208909D01*
X164901Y208636D01*
X164865Y208344D01*
X164792Y208034D01*
X164701Y207725D01*
X164683Y207688D01*
X164646Y207597D01*
X164592Y207451D01*
X164500Y207269D01*
X164391Y207051D01*
X164264Y206814D01*
X164100Y206577D01*
X163918Y206358D01*
X163899Y206340D01*
X163826Y206267D01*
X163717Y206158D01*
X163571Y206030D01*
X163389Y205903D01*
X163189Y205757D01*
X162934Y205611D01*
X162679Y205484D01*
X162642Y205466D01*
X162551Y205429D01*
X162405Y205393D01*
X162205Y205338D01*
X161950Y205265D01*
X161676Y205229D01*
X161367Y205192D01*
X161021Y205174D01*
X160875D01*
X160693Y205192D01*
X160492Y205210D01*
X160237Y205247D01*
X159964Y205283D01*
X159690Y205356D01*
X159417Y205447D01*
X159381Y205466D01*
X159308Y205502D01*
X159180Y205557D01*
X159016Y205648D01*
X158816Y205757D01*
X158634Y205903D01*
X158433Y206067D01*
X158233Y206249D01*
X158215Y206267D01*
X158160Y206340D01*
X158069Y206449D01*
X157960Y206613D01*
X157850Y206796D01*
X157723Y207032D01*
X157613Y207288D01*
X157504Y207561D01*
Y207579D01*
X157486Y207597D01*
X157468Y207706D01*
X157431Y207871D01*
X157377Y208089D01*
X157322Y208362D01*
X157285Y208672D01*
X157267Y209018D01*
X157249Y209383D01*
Y209401D01*
Y209419D01*
Y209474D01*
Y209547D01*
X157267Y209729D01*
X157285Y209948D01*
X157304Y210221D01*
X157358Y210512D01*
X157413Y210822D01*
X157504Y211114D01*
Y211132D01*
X157522Y211150D01*
X157559Y211241D01*
X157613Y211405D01*
X157704Y211587D01*
X157814Y211806D01*
X157960Y212025D01*
X158105Y212262D01*
X158288Y212480D01*
X158306Y212498D01*
X158379Y212571D01*
X158488Y212681D01*
X158634Y212808D01*
X158816Y212954D01*
X159035Y213100D01*
X159271Y213245D01*
X159527Y213373D01*
X159563Y213391D01*
X159654Y213428D01*
X159800Y213482D01*
X160000Y213537D01*
X160255Y213592D01*
X160529Y213646D01*
X160838Y213683D01*
X161185Y213701D01*
X161330D01*
X161512Y213683D01*
D02*
G37*
G36*
X124562D02*
X124763Y213665D01*
X125018Y213628D01*
X125273Y213573D01*
X125546Y213500D01*
X125820Y213409D01*
X125856Y213391D01*
X125947Y213355D01*
X126075Y213300D01*
X126239Y213209D01*
X126421Y213100D01*
X126621Y212954D01*
X126822Y212790D01*
X127004Y212608D01*
X127022Y212590D01*
X127077Y212517D01*
X127168Y212407D01*
X127277Y212243D01*
X127405Y212061D01*
X127532Y211824D01*
X127641Y211569D01*
X127751Y211296D01*
X127769Y211259D01*
X127787Y211150D01*
X127842Y210986D01*
X127897Y210786D01*
X127933Y210512D01*
X127988Y210203D01*
X128006Y209857D01*
X128024Y209492D01*
Y209474D01*
Y209456D01*
Y209401D01*
Y209328D01*
X128006Y209146D01*
X127988Y208909D01*
X127951Y208636D01*
X127915Y208344D01*
X127842Y208034D01*
X127751Y207725D01*
X127733Y207688D01*
X127696Y207597D01*
X127641Y207451D01*
X127550Y207269D01*
X127441Y207051D01*
X127313Y206814D01*
X127149Y206577D01*
X126967Y206358D01*
X126949Y206340D01*
X126876Y206267D01*
X126767Y206158D01*
X126621Y206030D01*
X126439Y205903D01*
X126239Y205757D01*
X125984Y205611D01*
X125728Y205484D01*
X125692Y205466D01*
X125601Y205429D01*
X125455Y205393D01*
X125255Y205338D01*
X125000Y205265D01*
X124726Y205229D01*
X124417Y205192D01*
X124070Y205174D01*
X123925D01*
X123742Y205192D01*
X123542Y205210D01*
X123287Y205247D01*
X123014Y205283D01*
X122740Y205356D01*
X122467Y205447D01*
X122431Y205466D01*
X122358Y205502D01*
X122230Y205557D01*
X122066Y205648D01*
X121866Y205757D01*
X121684Y205903D01*
X121483Y206067D01*
X121283Y206249D01*
X121265Y206267D01*
X121210Y206340D01*
X121119Y206449D01*
X121009Y206613D01*
X120900Y206796D01*
X120773Y207032D01*
X120663Y207288D01*
X120554Y207561D01*
Y207579D01*
X120536Y207597D01*
X120518Y207706D01*
X120481Y207871D01*
X120426Y208089D01*
X120372Y208362D01*
X120335Y208672D01*
X120317Y209018D01*
X120299Y209383D01*
Y209401D01*
Y209419D01*
Y209474D01*
Y209547D01*
X120317Y209729D01*
X120335Y209948D01*
X120353Y210221D01*
X120408Y210512D01*
X120463Y210822D01*
X120554Y211114D01*
Y211132D01*
X120572Y211150D01*
X120609Y211241D01*
X120663Y211405D01*
X120754Y211587D01*
X120864Y211806D01*
X121009Y212025D01*
X121155Y212262D01*
X121337Y212480D01*
X121356Y212498D01*
X121429Y212571D01*
X121538Y212681D01*
X121684Y212808D01*
X121866Y212954D01*
X122084Y213100D01*
X122321Y213245D01*
X122576Y213373D01*
X122613Y213391D01*
X122704Y213428D01*
X122850Y213482D01*
X123050Y213537D01*
X123305Y213592D01*
X123578Y213646D01*
X123888Y213683D01*
X124234Y213701D01*
X124380D01*
X124562Y213683D01*
D02*
G37*
G36*
X96850Y213683D02*
X97050Y213664D01*
X97305Y213628D01*
X97560Y213573D01*
X97834Y213500D01*
X98107Y213409D01*
X98143Y213391D01*
X98234Y213355D01*
X98362Y213300D01*
X98526Y213209D01*
X98708Y213100D01*
X98909Y212954D01*
X99109Y212790D01*
X99291Y212608D01*
X99309Y212590D01*
X99364Y212517D01*
X99455Y212407D01*
X99564Y212243D01*
X99692Y212061D01*
X99820Y211824D01*
X99929Y211569D01*
X100038Y211296D01*
X100056Y211259D01*
X100075Y211150D01*
X100129Y210986D01*
X100184Y210786D01*
X100220Y210512D01*
X100275Y210203D01*
X100293Y209857D01*
X100312Y209492D01*
Y209474D01*
Y209456D01*
Y209401D01*
Y209328D01*
X100293Y209146D01*
X100275Y208909D01*
X100239Y208636D01*
X100202Y208344D01*
X100129Y208034D01*
X100038Y207725D01*
X100020Y207688D01*
X99984Y207597D01*
X99929Y207451D01*
X99838Y207269D01*
X99728Y207051D01*
X99601Y206814D01*
X99437Y206577D01*
X99255Y206358D01*
X99237Y206340D01*
X99164Y206267D01*
X99054Y206158D01*
X98909Y206030D01*
X98726Y205903D01*
X98526Y205757D01*
X98271Y205611D01*
X98016Y205484D01*
X97979Y205466D01*
X97888Y205429D01*
X97742Y205393D01*
X97542Y205338D01*
X97287Y205265D01*
X97014Y205229D01*
X96704Y205192D01*
X96358Y205174D01*
X96212D01*
X96030Y205192D01*
X95829Y205210D01*
X95574Y205247D01*
X95301Y205283D01*
X95028Y205356D01*
X94754Y205447D01*
X94718Y205466D01*
X94645Y205502D01*
X94517Y205557D01*
X94353Y205648D01*
X94153Y205757D01*
X93971Y205903D01*
X93770Y206067D01*
X93570Y206249D01*
X93552Y206267D01*
X93497Y206340D01*
X93406Y206449D01*
X93297Y206613D01*
X93187Y206796D01*
X93060Y207032D01*
X92951Y207287D01*
X92841Y207561D01*
Y207579D01*
X92823Y207597D01*
X92805Y207706D01*
X92768Y207871D01*
X92714Y208089D01*
X92659Y208362D01*
X92623Y208672D01*
X92604Y209018D01*
X92586Y209383D01*
Y209401D01*
Y209419D01*
Y209474D01*
Y209547D01*
X92604Y209729D01*
X92623Y209948D01*
X92641Y210221D01*
X92695Y210512D01*
X92750Y210822D01*
X92841Y211114D01*
Y211132D01*
X92860Y211150D01*
X92896Y211241D01*
X92951Y211405D01*
X93042Y211587D01*
X93151Y211806D01*
X93297Y212025D01*
X93443Y212262D01*
X93625Y212480D01*
X93643Y212498D01*
X93716Y212571D01*
X93825Y212681D01*
X93971Y212808D01*
X94153Y212954D01*
X94372Y213100D01*
X94609Y213245D01*
X94864Y213373D01*
X94900Y213391D01*
X94991Y213428D01*
X95137Y213482D01*
X95337Y213537D01*
X95592Y213592D01*
X95866Y213646D01*
X96175Y213683D01*
X96522Y213701D01*
X96667D01*
X96850Y213683D01*
D02*
G37*
%LPC*%
G36*
X287573Y210548D02*
X285569D01*
Y209072D01*
X285824Y208835D01*
X286079Y208653D01*
X286316Y208489D01*
X286516Y208362D01*
X286680Y208252D01*
X286807Y208179D01*
X286880Y208143D01*
X286917Y208125D01*
X287154Y208033D01*
X287354Y207961D01*
X287555Y207906D01*
X287719Y207870D01*
X287864Y207851D01*
X287955Y207833D01*
X288047D01*
X288302Y207851D01*
X288502Y207888D01*
X288575D01*
X288630Y207906D01*
X288666Y207924D01*
X288684D01*
X288848Y207997D01*
X288994Y208088D01*
X289067Y208161D01*
X289103Y208179D01*
X289213Y208325D01*
X289285Y208453D01*
X289322Y208544D01*
X289340Y208562D01*
Y208580D01*
X289377Y208744D01*
X289395Y208890D01*
X289413Y208999D01*
Y209017D01*
Y209036D01*
X289395Y209272D01*
X289358Y209473D01*
X289340Y209546D01*
X289322Y209600D01*
X289304Y209637D01*
Y209655D01*
X289194Y209837D01*
X289067Y210001D01*
X288976Y210092D01*
X288958Y210129D01*
X288939D01*
X288739Y210256D01*
X288520Y210366D01*
X288429Y210402D01*
X288356Y210420D01*
X288320Y210438D01*
X288302D01*
X287992Y210511D01*
X287700Y210530D01*
X287573Y210548D01*
D02*
G37*
G36*
X315267Y214028D02*
X314903D01*
X314721Y213991D01*
X314557Y213973D01*
X314429Y213937D01*
X314320Y213900D01*
X314229Y213864D01*
X314174Y213846D01*
X314156Y213827D01*
X313864Y213664D01*
X313755Y213591D01*
X313646Y213499D01*
X313573Y213427D01*
X313518Y213372D01*
X313482Y213335D01*
X313463Y213317D01*
X313281Y213062D01*
X313154Y212807D01*
X313117Y212698D01*
X313081Y212607D01*
X313063Y212552D01*
Y212534D01*
X312971Y212188D01*
X312953Y212024D01*
X312935Y211878D01*
Y211750D01*
Y211641D01*
Y211568D01*
Y211550D01*
X317271D01*
X317217Y211933D01*
X317198Y212115D01*
X317162Y212261D01*
X317126Y212388D01*
X317089Y212479D01*
X317071Y212534D01*
Y212552D01*
X316925Y212862D01*
X316852Y213007D01*
X316779Y213117D01*
X316707Y213208D01*
X316652Y213281D01*
X316634Y213317D01*
X316616Y213335D01*
X316397Y213554D01*
X316178Y213718D01*
X316087Y213773D01*
X316014Y213809D01*
X315978Y213846D01*
X315960D01*
X315650Y213955D01*
X315504Y213991D01*
X315376Y214010D01*
X315267Y214028D01*
D02*
G37*
G36*
X418593Y216269D02*
X416880D01*
X416680Y216251D01*
X416498Y216232D01*
X416352Y216214D01*
X416224Y216178D01*
X416133Y216160D01*
X416078Y216141D01*
X416060D01*
X415914Y216087D01*
X415787Y216032D01*
X415659Y215977D01*
X415568Y215923D01*
X415495Y215868D01*
X415441Y215832D01*
X415422Y215813D01*
X415404Y215795D01*
X415240Y215631D01*
X415131Y215467D01*
X415095Y215413D01*
X415076Y215358D01*
X415058Y215321D01*
Y215303D01*
X414985Y215085D01*
X414967Y214902D01*
X414949Y214811D01*
Y214757D01*
Y214720D01*
Y214702D01*
X414967Y214392D01*
X415003Y214247D01*
X415022Y214137D01*
X415058Y214028D01*
X415095Y213955D01*
X415113Y213919D01*
Y213900D01*
X415259Y213682D01*
X415404Y213499D01*
X415514Y213390D01*
X415550Y213372D01*
X415568Y213354D01*
X415805Y213208D01*
X416024Y213117D01*
X416115Y213081D01*
X416188Y213044D01*
X416242Y213026D01*
X416261D01*
X416570Y212971D01*
X416716Y212953D01*
X416862D01*
X416971Y212935D01*
X418593D01*
Y216269D01*
D02*
G37*
G36*
Y211714D02*
X416898D01*
X416698Y211696D01*
X416516Y211678D01*
X416352Y211659D01*
X416224Y211623D01*
X416133Y211605D01*
X416060Y211586D01*
X416042D01*
X415714Y211477D01*
X415587Y211422D01*
X415459Y211350D01*
X415368Y211313D01*
X415295Y211258D01*
X415259Y211240D01*
X415240Y211222D01*
X415022Y211040D01*
X414876Y210876D01*
X414821Y210785D01*
X414785Y210730D01*
X414748Y210694D01*
Y210675D01*
X414639Y210420D01*
X414584Y210184D01*
X414566Y210092D01*
Y210019D01*
Y209965D01*
Y209947D01*
X414584Y209600D01*
X414657Y209309D01*
X414767Y209054D01*
X414876Y208853D01*
X414985Y208689D01*
X415095Y208580D01*
X415167Y208507D01*
X415186Y208489D01*
X415441Y208343D01*
X415732Y208234D01*
X416042Y208143D01*
X416352Y208088D01*
X416625Y208052D01*
X416753D01*
X416862Y208033D01*
X418593D01*
Y211714D01*
D02*
G37*
G36*
X407606Y213955D02*
X407296D01*
X407114Y213919D01*
X406950Y213900D01*
X406805Y213864D01*
X406677Y213827D01*
X406586Y213791D01*
X406531Y213773D01*
X406513Y213755D01*
X406203Y213572D01*
X406076Y213481D01*
X405966Y213390D01*
X405875Y213299D01*
X405802Y213226D01*
X405766Y213190D01*
X405748Y213172D01*
X405638Y213026D01*
X405547Y212862D01*
X405402Y212570D01*
X405347Y212424D01*
X405310Y212315D01*
X405274Y212242D01*
Y212224D01*
X405219Y212005D01*
X405165Y211787D01*
X405128Y211550D01*
X405110Y211350D01*
X405092Y211167D01*
Y211022D01*
Y210930D01*
Y210894D01*
X405110Y210457D01*
X405128Y210256D01*
X405165Y210092D01*
X405183Y209947D01*
X405219Y209819D01*
X405237Y209746D01*
Y209728D01*
X405292Y209528D01*
X405365Y209345D01*
X405420Y209181D01*
X405493Y209036D01*
X405566Y208926D01*
X405602Y208835D01*
X405638Y208781D01*
X405657Y208762D01*
X405894Y208489D01*
X406021Y208362D01*
X406130Y208270D01*
X406240Y208197D01*
X406331Y208143D01*
X406385Y208106D01*
X406404Y208088D01*
X406586Y208015D01*
X406768Y207961D01*
X406950Y207906D01*
X407114Y207888D01*
X407278Y207870D01*
X407387Y207851D01*
X407697D01*
X407898Y207888D01*
X408062Y207906D01*
X408226Y207942D01*
X408335Y207979D01*
X408444Y207997D01*
X408499Y208033D01*
X408517D01*
X408809Y208216D01*
X408936Y208307D01*
X409046Y208398D01*
X409137Y208471D01*
X409209Y208544D01*
X409246Y208580D01*
X409264Y208598D01*
X409465Y208908D01*
X409610Y209218D01*
X409665Y209345D01*
X409701Y209455D01*
X409738Y209528D01*
Y209546D01*
X409829Y210001D01*
X409865Y210238D01*
X409884Y210438D01*
Y210621D01*
X409902Y210767D01*
Y210858D01*
Y210894D01*
X409884Y211331D01*
X409865Y211532D01*
X409829Y211714D01*
X409811Y211860D01*
X409793Y211969D01*
X409774Y212042D01*
Y212060D01*
X409720Y212261D01*
X409647Y212443D01*
X409592Y212607D01*
X409519Y212753D01*
X409446Y212862D01*
X409410Y212953D01*
X409374Y213008D01*
X409355Y213026D01*
X409118Y213317D01*
X408991Y213427D01*
X408863Y213518D01*
X408772Y213591D01*
X408681Y213645D01*
X408627Y213682D01*
X408608Y213700D01*
X408426Y213791D01*
X408244Y213846D01*
X408062Y213900D01*
X407879Y213919D01*
X407734Y213937D01*
X407606Y213955D01*
D02*
G37*
G36*
X379893Y213955D02*
X379584D01*
X379402Y213919D01*
X379238Y213900D01*
X379092Y213864D01*
X378964Y213827D01*
X378873Y213791D01*
X378818Y213773D01*
X378800Y213755D01*
X378491Y213572D01*
X378363Y213481D01*
X378254Y213390D01*
X378163Y213299D01*
X378090Y213226D01*
X378053Y213190D01*
X378035Y213172D01*
X377926Y213026D01*
X377835Y212862D01*
X377689Y212570D01*
X377634Y212424D01*
X377598Y212315D01*
X377561Y212242D01*
Y212224D01*
X377507Y212005D01*
X377452Y211787D01*
X377416Y211550D01*
X377397Y211350D01*
X377379Y211167D01*
Y211022D01*
Y210930D01*
Y210894D01*
X377397Y210457D01*
X377416Y210256D01*
X377452Y210092D01*
X377470Y209947D01*
X377507Y209819D01*
X377525Y209746D01*
Y209728D01*
X377580Y209527D01*
X377653Y209345D01*
X377707Y209181D01*
X377780Y209036D01*
X377853Y208926D01*
X377889Y208835D01*
X377926Y208781D01*
X377944Y208762D01*
X378181Y208489D01*
X378308Y208362D01*
X378418Y208270D01*
X378527Y208197D01*
X378618Y208143D01*
X378673Y208106D01*
X378691Y208088D01*
X378873Y208015D01*
X379055Y207961D01*
X379238Y207906D01*
X379402Y207888D01*
X379566Y207870D01*
X379675Y207851D01*
X379985D01*
X380185Y207888D01*
X380349Y207906D01*
X380513Y207942D01*
X380622Y207979D01*
X380732Y207997D01*
X380786Y208033D01*
X380804D01*
X381096Y208216D01*
X381224Y208307D01*
X381333Y208398D01*
X381424Y208471D01*
X381497Y208544D01*
X381533Y208580D01*
X381552Y208598D01*
X381752Y208908D01*
X381898Y209218D01*
X381952Y209345D01*
X381989Y209455D01*
X382025Y209527D01*
Y209546D01*
X382116Y210001D01*
X382153Y210238D01*
X382171Y210438D01*
Y210621D01*
X382189Y210767D01*
Y210858D01*
Y210894D01*
X382171Y211331D01*
X382153Y211532D01*
X382116Y211714D01*
X382098Y211860D01*
X382080Y211969D01*
X382062Y212042D01*
Y212060D01*
X382007Y212261D01*
X381934Y212443D01*
X381879Y212607D01*
X381807Y212753D01*
X381734Y212862D01*
X381697Y212953D01*
X381661Y213008D01*
X381643Y213026D01*
X381406Y213317D01*
X381278Y213427D01*
X381151Y213518D01*
X381060Y213591D01*
X380968Y213645D01*
X380914Y213682D01*
X380896Y213700D01*
X380713Y213791D01*
X380531Y213846D01*
X380349Y213900D01*
X380167Y213919D01*
X380021Y213937D01*
X379893Y213955D01*
D02*
G37*
G36*
X342943D02*
X342634D01*
X342451Y213919D01*
X342287Y213900D01*
X342142Y213864D01*
X342014Y213827D01*
X341923Y213791D01*
X341868Y213773D01*
X341850Y213755D01*
X341540Y213572D01*
X341413Y213481D01*
X341304Y213390D01*
X341213Y213299D01*
X341140Y213226D01*
X341103Y213190D01*
X341085Y213172D01*
X340976Y213026D01*
X340884Y212862D01*
X340739Y212570D01*
X340684Y212424D01*
X340648Y212315D01*
X340611Y212242D01*
Y212224D01*
X340557Y212005D01*
X340502Y211787D01*
X340465Y211550D01*
X340447Y211350D01*
X340429Y211167D01*
Y211022D01*
Y210930D01*
Y210894D01*
X340447Y210457D01*
X340465Y210256D01*
X340502Y210092D01*
X340520Y209947D01*
X340557Y209819D01*
X340575Y209746D01*
Y209728D01*
X340629Y209527D01*
X340702Y209345D01*
X340757Y209181D01*
X340830Y209036D01*
X340903Y208926D01*
X340939Y208835D01*
X340976Y208781D01*
X340994Y208762D01*
X341231Y208489D01*
X341358Y208362D01*
X341467Y208270D01*
X341577Y208197D01*
X341668Y208143D01*
X341723Y208106D01*
X341741Y208088D01*
X341923Y208015D01*
X342105Y207961D01*
X342287Y207906D01*
X342451Y207888D01*
X342615Y207870D01*
X342725Y207851D01*
X343035D01*
X343235Y207888D01*
X343399Y207906D01*
X343563Y207942D01*
X343672Y207979D01*
X343781Y207997D01*
X343836Y208033D01*
X343854D01*
X344146Y208216D01*
X344273Y208307D01*
X344383Y208398D01*
X344474Y208471D01*
X344547Y208544D01*
X344583Y208580D01*
X344601Y208598D01*
X344802Y208908D01*
X344948Y209218D01*
X345002Y209345D01*
X345039Y209455D01*
X345075Y209527D01*
Y209546D01*
X345166Y210001D01*
X345203Y210238D01*
X345221Y210438D01*
Y210621D01*
X345239Y210767D01*
Y210858D01*
Y210894D01*
X345221Y211331D01*
X345203Y211532D01*
X345166Y211714D01*
X345148Y211860D01*
X345130Y211969D01*
X345111Y212042D01*
Y212060D01*
X345057Y212261D01*
X344984Y212443D01*
X344929Y212607D01*
X344857Y212753D01*
X344784Y212862D01*
X344747Y212953D01*
X344711Y213008D01*
X344692Y213026D01*
X344456Y213317D01*
X344328Y213427D01*
X344200Y213518D01*
X344109Y213591D01*
X344018Y213645D01*
X343964Y213682D01*
X343946Y213700D01*
X343763Y213791D01*
X343581Y213846D01*
X343399Y213900D01*
X343217Y213919D01*
X343071Y213937D01*
X342943Y213955D01*
D02*
G37*
G36*
X324268Y213937D02*
X324159D01*
X323849Y213919D01*
X323703Y213900D01*
X323575D01*
X323466Y213882D01*
X323393Y213864D01*
X323339Y213846D01*
X323320D01*
X323011Y213773D01*
X322865Y213718D01*
X322756Y213682D01*
X322664Y213645D01*
X322573Y213627D01*
X322537Y213591D01*
X322519D01*
Y209783D01*
X322774Y209455D01*
X323011Y209163D01*
X323211Y208908D01*
X323411Y208708D01*
X323575Y208544D01*
X323685Y208434D01*
X323758Y208362D01*
X323794Y208343D01*
X324013Y208179D01*
X324231Y208070D01*
X324414Y207979D01*
X324596Y207924D01*
X324742Y207888D01*
X324851Y207870D01*
X324942D01*
X325234Y207906D01*
X325470Y207979D01*
X325689Y208106D01*
X325853Y208234D01*
X325999Y208362D01*
X326108Y208489D01*
X326163Y208562D01*
X326181Y208598D01*
X326327Y208908D01*
X326436Y209254D01*
X326509Y209619D01*
X326564Y209983D01*
X326600Y210311D01*
Y210457D01*
X326618Y210584D01*
Y210675D01*
Y210748D01*
Y210803D01*
Y210821D01*
Y211113D01*
X326582Y211386D01*
X326564Y211641D01*
X326509Y211860D01*
X326472Y212078D01*
X326418Y212279D01*
X326363Y212443D01*
X326290Y212607D01*
X326236Y212734D01*
X326181Y212844D01*
X326126Y212953D01*
X326072Y213026D01*
X325999Y213135D01*
X325980Y213172D01*
X325707Y213427D01*
X325416Y213609D01*
X325124Y213755D01*
X324815Y213846D01*
X324559Y213900D01*
X324359Y213919D01*
X324268Y213937D01*
D02*
G37*
G36*
X179787Y212462D02*
X179678D01*
X179587Y212444D01*
X179386Y212425D01*
X179131Y212371D01*
X178822Y212280D01*
X178530Y212134D01*
X178238Y211952D01*
X177965Y211697D01*
X177947Y211660D01*
X177874Y211551D01*
X177819Y211478D01*
X177765Y211369D01*
X177710Y211259D01*
X177655Y211132D01*
X177583Y210968D01*
X177528Y210804D01*
X177473Y210603D01*
X177437Y210385D01*
X177382Y210166D01*
X177364Y209911D01*
X177327Y209638D01*
Y209346D01*
Y209328D01*
Y209274D01*
Y209201D01*
Y209109D01*
X177346Y208982D01*
Y208836D01*
X177382Y208508D01*
X177437Y208144D01*
X177510Y207779D01*
X177619Y207433D01*
X177765Y207123D01*
X177783Y207087D01*
X177838Y207014D01*
X177947Y206887D01*
X178093Y206759D01*
X178257Y206632D01*
X178475Y206504D01*
X178712Y206431D01*
X179004Y206395D01*
X179095D01*
X179204Y206413D01*
X179350Y206449D01*
X179532Y206504D01*
X179714Y206595D01*
X179933Y206704D01*
X180151Y206868D01*
X180188Y206887D01*
X180261Y206960D01*
X180370Y207069D01*
X180534Y207233D01*
X180735Y207433D01*
X180935Y207688D01*
X181172Y207980D01*
X181427Y208308D01*
Y212116D01*
X181409D01*
X181372Y212152D01*
X181281Y212170D01*
X181190Y212207D01*
X181081Y212243D01*
X180935Y212298D01*
X180625Y212371D01*
X180607D01*
X180552Y212389D01*
X180480Y212407D01*
X180370Y212425D01*
X180243D01*
X180097Y212444D01*
X179787Y212462D01*
D02*
G37*
G36*
X218377Y209073D02*
X216373D01*
X216245Y209055D01*
X215954Y209037D01*
X215644Y208964D01*
X215626D01*
X215589Y208945D01*
X215517Y208927D01*
X215425Y208891D01*
X215207Y208782D01*
X215006Y208654D01*
X214988D01*
X214970Y208617D01*
X214879Y208526D01*
X214751Y208362D01*
X214642Y208180D01*
Y208162D01*
X214624Y208126D01*
X214605Y208071D01*
X214587Y207998D01*
X214551Y207798D01*
X214533Y207561D01*
Y207542D01*
Y207524D01*
X214551Y207415D01*
X214569Y207269D01*
X214605Y207105D01*
Y207087D01*
X214624Y207069D01*
X214660Y206978D01*
X214733Y206850D01*
X214842Y206704D01*
X214879Y206686D01*
X214952Y206613D01*
X215097Y206522D01*
X215262Y206449D01*
X215280D01*
X215316Y206431D01*
X215371Y206413D01*
X215444D01*
X215644Y206377D01*
X215899Y206358D01*
X215990D01*
X216081Y206377D01*
X216227Y206395D01*
X216391Y206431D01*
X216592Y206486D01*
X216792Y206559D01*
X217029Y206650D01*
X217065Y206668D01*
X217138Y206704D01*
X217266Y206777D01*
X217430Y206887D01*
X217630Y207014D01*
X217867Y207178D01*
X218122Y207360D01*
X218377Y207597D01*
Y209073D01*
D02*
G37*
G36*
X87066Y214794D02*
X85353D01*
Y211460D01*
X86975D01*
X87084Y211478D01*
X87230D01*
X87375Y211496D01*
X87685Y211551D01*
X87703D01*
X87758Y211569D01*
X87831Y211606D01*
X87922Y211642D01*
X88140Y211733D01*
X88377Y211879D01*
X88396Y211897D01*
X88432Y211915D01*
X88541Y212025D01*
X88687Y212207D01*
X88833Y212425D01*
Y212444D01*
X88851Y212480D01*
X88888Y212553D01*
X88924Y212662D01*
X88942Y212772D01*
X88979Y212917D01*
X88997Y213227D01*
Y213245D01*
Y213282D01*
Y213336D01*
X88979Y213428D01*
X88960Y213610D01*
X88888Y213828D01*
Y213847D01*
X88869Y213883D01*
X88851Y213938D01*
X88815Y213992D01*
X88705Y214156D01*
X88541Y214320D01*
X88523Y214339D01*
X88505Y214357D01*
X88450Y214393D01*
X88377Y214448D01*
X88286Y214503D01*
X88159Y214557D01*
X88031Y214612D01*
X87885Y214667D01*
X87867D01*
X87813Y214685D01*
X87722Y214703D01*
X87594Y214739D01*
X87448Y214758D01*
X87266Y214776D01*
X87066Y214794D01*
D02*
G37*
G36*
X87047Y210239D02*
X85353D01*
Y206559D01*
X87084D01*
X87193Y206577D01*
X87321D01*
X87594Y206613D01*
X87904Y206668D01*
X88213Y206759D01*
X88505Y206868D01*
X88760Y207014D01*
X88778Y207032D01*
X88851Y207105D01*
X88960Y207215D01*
X89070Y207379D01*
X89179Y207579D01*
X89288Y207834D01*
X89361Y208126D01*
X89380Y208472D01*
Y208490D01*
Y208545D01*
Y208617D01*
X89361Y208709D01*
X89307Y208945D01*
X89197Y209201D01*
Y209219D01*
X89161Y209255D01*
X89124Y209310D01*
X89070Y209401D01*
X88924Y209565D01*
X88705Y209747D01*
X88687Y209765D01*
X88651Y209784D01*
X88578Y209838D01*
X88487Y209875D01*
X88359Y209948D01*
X88232Y210002D01*
X87904Y210111D01*
X87885D01*
X87813Y210130D01*
X87722Y210148D01*
X87594Y210184D01*
X87430Y210203D01*
X87248Y210221D01*
X87047Y210239D01*
D02*
G37*
G36*
X189043Y212553D02*
X188679D01*
X188569Y212535D01*
X188442Y212517D01*
X188296Y212480D01*
X187986Y212371D01*
X187968D01*
X187932Y212334D01*
X187859Y212298D01*
X187768Y212243D01*
X187549Y212079D01*
X187330Y211861D01*
X187312Y211842D01*
X187294Y211806D01*
X187239Y211733D01*
X187166Y211642D01*
X187093Y211533D01*
X187021Y211387D01*
X186875Y211077D01*
Y211059D01*
X186856Y211004D01*
X186820Y210913D01*
X186784Y210786D01*
X186747Y210640D01*
X186729Y210458D01*
X186674Y210075D01*
X191011D01*
Y210093D01*
Y210166D01*
Y210276D01*
Y210403D01*
X190992Y210549D01*
X190974Y210713D01*
X190883Y211059D01*
Y211077D01*
X190865Y211132D01*
X190828Y211223D01*
X190792Y211332D01*
X190665Y211587D01*
X190482Y211842D01*
X190464Y211861D01*
X190428Y211897D01*
X190373Y211952D01*
X190300Y212025D01*
X190191Y212116D01*
X190081Y212189D01*
X189790Y212353D01*
X189772Y212371D01*
X189717Y212389D01*
X189626Y212425D01*
X189517Y212462D01*
X189389Y212498D01*
X189225Y212517D01*
X189043Y212553D01*
D02*
G37*
G36*
X161312Y212480D02*
X161002D01*
X160875Y212462D01*
X160729Y212444D01*
X160547Y212425D01*
X160365Y212371D01*
X160182Y212316D01*
X160000Y212225D01*
X159982Y212207D01*
X159927Y212170D01*
X159836Y212116D01*
X159745Y212043D01*
X159618Y211952D01*
X159490Y211842D01*
X159253Y211551D01*
X159235Y211533D01*
X159198Y211478D01*
X159162Y211387D01*
X159089Y211278D01*
X159016Y211132D01*
X158962Y210968D01*
X158889Y210786D01*
X158834Y210585D01*
Y210567D01*
X158816Y210494D01*
X158798Y210385D01*
X158780Y210239D01*
X158743Y210057D01*
X158725Y209857D01*
X158707Y209419D01*
Y209383D01*
Y209292D01*
X158725Y209146D01*
Y208964D01*
X158743Y208763D01*
X158780Y208526D01*
X158871Y208071D01*
Y208053D01*
X158907Y207980D01*
X158943Y207871D01*
X158998Y207743D01*
X159144Y207433D01*
X159344Y207123D01*
X159362Y207105D01*
X159399Y207069D01*
X159472Y206996D01*
X159563Y206923D01*
X159672Y206832D01*
X159800Y206741D01*
X160091Y206559D01*
X160109D01*
X160164Y206522D01*
X160274Y206504D01*
X160383Y206468D01*
X160547Y206431D01*
X160711Y206413D01*
X160911Y206377D01*
X161221D01*
X161330Y206395D01*
X161494Y206413D01*
X161658Y206431D01*
X161840Y206486D01*
X162023Y206540D01*
X162205Y206613D01*
X162223Y206631D01*
X162278Y206668D01*
X162369Y206723D01*
X162478Y206796D01*
X162587Y206887D01*
X162715Y207014D01*
X162952Y207288D01*
X162970Y207306D01*
X163006Y207360D01*
X163043Y207451D01*
X163116Y207561D01*
X163189Y207706D01*
X163243Y207871D01*
X163316Y208053D01*
X163371Y208253D01*
Y208271D01*
X163389Y208344D01*
X163426Y208472D01*
X163444Y208617D01*
X163480Y208782D01*
X163498Y208982D01*
X163517Y209419D01*
Y209456D01*
Y209547D01*
Y209693D01*
X163498Y209875D01*
X163480Y210075D01*
X163444Y210312D01*
X163389Y210531D01*
X163335Y210749D01*
Y210768D01*
X163298Y210840D01*
X163262Y210950D01*
X163207Y211095D01*
X163061Y211387D01*
X162970Y211551D01*
X162861Y211697D01*
X162843Y211715D01*
X162806Y211751D01*
X162733Y211824D01*
X162642Y211915D01*
X162533Y212006D01*
X162405Y212098D01*
X162095Y212280D01*
X162077Y212298D01*
X162023Y212316D01*
X161932Y212353D01*
X161804Y212389D01*
X161658Y212425D01*
X161494Y212444D01*
X161312Y212480D01*
D02*
G37*
G36*
X124362D02*
X124052D01*
X123925Y212462D01*
X123779Y212444D01*
X123597Y212425D01*
X123415Y212371D01*
X123232Y212316D01*
X123050Y212225D01*
X123032Y212207D01*
X122977Y212170D01*
X122886Y212116D01*
X122795Y212043D01*
X122667Y211952D01*
X122540Y211842D01*
X122303Y211551D01*
X122285Y211533D01*
X122248Y211478D01*
X122212Y211387D01*
X122139Y211278D01*
X122066Y211132D01*
X122011Y210968D01*
X121939Y210786D01*
X121884Y210585D01*
Y210567D01*
X121866Y210494D01*
X121847Y210385D01*
X121829Y210239D01*
X121793Y210057D01*
X121775Y209857D01*
X121756Y209419D01*
Y209383D01*
Y209292D01*
X121775Y209146D01*
Y208964D01*
X121793Y208763D01*
X121829Y208526D01*
X121920Y208071D01*
Y208053D01*
X121957Y207980D01*
X121993Y207871D01*
X122048Y207743D01*
X122194Y207433D01*
X122394Y207123D01*
X122412Y207105D01*
X122449Y207069D01*
X122522Y206996D01*
X122613Y206923D01*
X122722Y206832D01*
X122850Y206741D01*
X123141Y206559D01*
X123159D01*
X123214Y206522D01*
X123323Y206504D01*
X123433Y206468D01*
X123597Y206431D01*
X123761Y206413D01*
X123961Y206377D01*
X124271D01*
X124380Y206395D01*
X124544Y206413D01*
X124708Y206431D01*
X124890Y206486D01*
X125073Y206540D01*
X125255Y206613D01*
X125273Y206631D01*
X125328Y206668D01*
X125419Y206723D01*
X125528Y206796D01*
X125637Y206887D01*
X125765Y207014D01*
X126002Y207288D01*
X126020Y207306D01*
X126056Y207360D01*
X126093Y207451D01*
X126166Y207561D01*
X126239Y207706D01*
X126293Y207871D01*
X126366Y208053D01*
X126421Y208253D01*
Y208271D01*
X126439Y208344D01*
X126475Y208472D01*
X126494Y208617D01*
X126530Y208782D01*
X126548Y208982D01*
X126567Y209419D01*
Y209456D01*
Y209547D01*
Y209693D01*
X126548Y209875D01*
X126530Y210075D01*
X126494Y210312D01*
X126439Y210531D01*
X126384Y210749D01*
Y210768D01*
X126348Y210840D01*
X126311Y210950D01*
X126257Y211095D01*
X126111Y211387D01*
X126020Y211551D01*
X125911Y211697D01*
X125892Y211715D01*
X125856Y211751D01*
X125783Y211824D01*
X125692Y211915D01*
X125583Y212006D01*
X125455Y212098D01*
X125145Y212280D01*
X125127Y212298D01*
X125073Y212316D01*
X124981Y212353D01*
X124854Y212389D01*
X124708Y212425D01*
X124544Y212444D01*
X124362Y212480D01*
D02*
G37*
G36*
X96649Y212480D02*
X96339D01*
X96212Y212462D01*
X96066Y212444D01*
X95884Y212425D01*
X95702Y212371D01*
X95520Y212316D01*
X95337Y212225D01*
X95319Y212207D01*
X95265Y212170D01*
X95174Y212116D01*
X95082Y212043D01*
X94955Y211952D01*
X94827Y211842D01*
X94590Y211551D01*
X94572Y211533D01*
X94536Y211478D01*
X94499Y211387D01*
X94426Y211278D01*
X94353Y211132D01*
X94299Y210968D01*
X94226Y210786D01*
X94171Y210585D01*
Y210567D01*
X94153Y210494D01*
X94135Y210385D01*
X94117Y210239D01*
X94080Y210057D01*
X94062Y209857D01*
X94044Y209419D01*
Y209383D01*
Y209292D01*
X94062Y209146D01*
Y208964D01*
X94080Y208763D01*
X94117Y208526D01*
X94208Y208071D01*
Y208053D01*
X94244Y207980D01*
X94281Y207871D01*
X94335Y207743D01*
X94481Y207433D01*
X94682Y207123D01*
X94700Y207105D01*
X94736Y207069D01*
X94809Y206996D01*
X94900Y206923D01*
X95009Y206832D01*
X95137Y206741D01*
X95429Y206559D01*
X95447D01*
X95501Y206522D01*
X95611Y206504D01*
X95720Y206468D01*
X95884Y206431D01*
X96048Y206413D01*
X96248Y206377D01*
X96558D01*
X96667Y206395D01*
X96832Y206413D01*
X96996Y206431D01*
X97178Y206486D01*
X97360Y206540D01*
X97542Y206613D01*
X97560Y206631D01*
X97615Y206668D01*
X97706Y206723D01*
X97815Y206796D01*
X97925Y206887D01*
X98052Y207014D01*
X98289Y207287D01*
X98307Y207306D01*
X98344Y207360D01*
X98380Y207451D01*
X98453Y207561D01*
X98526Y207706D01*
X98581Y207871D01*
X98654Y208053D01*
X98708Y208253D01*
Y208271D01*
X98726Y208344D01*
X98763Y208472D01*
X98781Y208617D01*
X98817Y208782D01*
X98836Y208982D01*
X98854Y209419D01*
Y209456D01*
Y209547D01*
Y209693D01*
X98836Y209875D01*
X98817Y210075D01*
X98781Y210312D01*
X98726Y210531D01*
X98672Y210749D01*
Y210768D01*
X98635Y210840D01*
X98599Y210950D01*
X98544Y211095D01*
X98398Y211387D01*
X98307Y211551D01*
X98198Y211697D01*
X98180Y211715D01*
X98143Y211751D01*
X98070Y211824D01*
X97979Y211915D01*
X97870Y212006D01*
X97742Y212098D01*
X97433Y212280D01*
X97414Y212298D01*
X97360Y212316D01*
X97269Y212353D01*
X97141Y212389D01*
X96996Y212425D01*
X96832Y212444D01*
X96649Y212480D01*
D02*
G37*
%LPD*%
D29*
X-23622Y121221D02*
D03*
Y91535D02*
D03*
Y62165D02*
D03*
Y-122047D02*
D03*
Y-51181D02*
D03*
Y-104331D02*
D03*
Y-86614D02*
D03*
Y-68898D02*
D03*
D30*
Y111221D02*
D03*
Y81535D02*
D03*
Y52165D02*
D03*
D31*
X0Y-129921D02*
D03*
X282200D02*
D03*
Y-43307D02*
D03*
X0D02*
D03*
Y43307D02*
D03*
X282200D02*
D03*
Y129921D02*
D03*
X0D02*
D03*
D32*
X32100Y-98421D02*
D03*
X249600Y-161421D02*
D03*
X282200Y-98421D02*
D03*
X250100Y-74807D02*
D03*
X32600Y-11807D02*
D03*
X0Y-74807D02*
D03*
X32100Y74807D02*
D03*
X249600Y11807D02*
D03*
X282200Y74807D02*
D03*
X250100Y98421D02*
D03*
X32600Y161421D02*
D03*
X0Y98421D02*
D03*
D33*
X-27559Y-19685D02*
D03*
Y3937D02*
D03*
Y27559D02*
D03*
D34*
X-19685Y-19685D02*
D03*
X-27559Y-27559D02*
D03*
X-19685D02*
D03*
Y3937D02*
D03*
X-27559Y-3937D02*
D03*
X-19685D02*
D03*
X-27559Y-11811D02*
D03*
X-19685D02*
D03*
Y27559D02*
D03*
X-27559Y19685D02*
D03*
X-19685D02*
D03*
X-27559Y11811D02*
D03*
X-19685D02*
D03*
D35*
X310070Y-157480D02*
D03*
Y157480D02*
D03*
X-27870D02*
D03*
Y-157480D02*
D03*
D39*
X311024Y86614D02*
D03*
Y43307D02*
D03*
Y0D02*
D03*
Y-43307D02*
D03*
Y-86614D02*
D03*
M02*
