G04*
G04 #@! TF.GenerationSoftware,Altium Limited,Altium Designer,20.0.10 (225)*
G04*
G04 Layer_Color=8388736*
%FSLAX25Y25*%
%MOIN*%
G70*
G01*
G75*
%ADD26R,0.04134X0.05315*%
%ADD27R,0.13386X0.10827*%
%ADD28R,0.10827X0.13386*%
%ADD29C,0.05906*%
%ADD30R,0.05906X0.05906*%
%ADD31C,0.07000*%
%ADD32C,0.03937*%
%ADD33R,0.04724X0.04724*%
%ADD34C,0.04724*%
%ADD35C,0.30000*%
G36*
X126128Y215979D02*
X126347Y215961D01*
X126456D01*
X126547Y215942D01*
X126748Y215924D01*
X126984Y215888D01*
X127039D01*
X127112Y215869D01*
X127185D01*
X127385Y215833D01*
X127622Y215797D01*
X127677D01*
X127750Y215778D01*
X127822Y215760D01*
X128023Y215724D01*
X128223Y215687D01*
Y214375D01*
X128187D01*
X128114Y214412D01*
X127986Y214430D01*
X127822Y214467D01*
X127640Y214503D01*
X127422Y214558D01*
X126948Y214631D01*
X126930D01*
X126839Y214649D01*
X126729Y214667D01*
X126565Y214685D01*
X126383Y214703D01*
X126164Y214722D01*
X125727Y214740D01*
X125527D01*
X125308Y214722D01*
X125035Y214685D01*
X124725Y214631D01*
X124415Y214558D01*
X124142Y214448D01*
X123887Y214303D01*
X123869Y214284D01*
X123796Y214230D01*
X123705Y214139D01*
X123595Y214011D01*
X123486Y213847D01*
X123395Y213647D01*
X123322Y213428D01*
X123304Y213173D01*
Y213155D01*
Y213100D01*
X123322Y213027D01*
X123340Y212918D01*
X123413Y212681D01*
X123468Y212554D01*
X123541Y212426D01*
X123559Y212408D01*
X123577Y212371D01*
X123632Y212317D01*
X123705Y212244D01*
X123905Y212062D01*
X124160Y211861D01*
X124178Y211843D01*
X124233Y211825D01*
X124306Y211770D01*
X124434Y211715D01*
X124561Y211643D01*
X124707Y211570D01*
X125071Y211424D01*
X125089D01*
X125162Y211387D01*
X125253Y211351D01*
X125399Y211296D01*
X125545Y211242D01*
X125709Y211169D01*
X126092Y211005D01*
X126110D01*
X126183Y210968D01*
X126292Y210932D01*
X126419Y210877D01*
X126584Y210804D01*
X126748Y210732D01*
X127130Y210549D01*
X127148Y210531D01*
X127221Y210513D01*
X127312Y210458D01*
X127440Y210385D01*
X127731Y210185D01*
X128023Y209948D01*
X128041Y209930D01*
X128096Y209893D01*
X128169Y209821D01*
X128260Y209711D01*
X128351Y209602D01*
X128460Y209456D01*
X128661Y209128D01*
X128679Y209110D01*
X128697Y209037D01*
X128733Y208946D01*
X128788Y208818D01*
X128843Y208654D01*
X128879Y208454D01*
X128897Y208254D01*
X128916Y208017D01*
Y207980D01*
Y207889D01*
X128897Y207743D01*
X128879Y207561D01*
X128843Y207361D01*
X128770Y207124D01*
X128697Y206887D01*
X128588Y206668D01*
X128569Y206650D01*
X128533Y206577D01*
X128460Y206468D01*
X128369Y206340D01*
X128242Y206195D01*
X128096Y206031D01*
X127913Y205867D01*
X127713Y205721D01*
X127695Y205703D01*
X127622Y205666D01*
X127495Y205593D01*
X127349Y205502D01*
X127148Y205411D01*
X126930Y205320D01*
X126675Y205229D01*
X126383Y205156D01*
X126347D01*
X126256Y205120D01*
X126092Y205101D01*
X125873Y205065D01*
X125618Y205029D01*
X125326Y205010D01*
X124998Y204974D01*
X124397D01*
X124251Y204992D01*
X124124D01*
X123796Y205010D01*
X123723D01*
X123650Y205029D01*
X123541D01*
X123286Y205065D01*
X122994Y205101D01*
X122921D01*
X122848Y205120D01*
X122757D01*
X122520Y205156D01*
X122265Y205193D01*
X122247D01*
X122211Y205211D01*
X122138Y205229D01*
X122065Y205247D01*
X121864Y205302D01*
X121646Y205357D01*
Y206760D01*
X121682Y206741D01*
X121755Y206723D01*
X121883Y206687D01*
X122047Y206632D01*
X122247Y206559D01*
X122484Y206504D01*
X122739Y206450D01*
X123012Y206395D01*
X123049D01*
X123140Y206377D01*
X123304Y206359D01*
X123522Y206340D01*
X123778Y206304D01*
X124069Y206286D01*
X124397Y206268D01*
X125017D01*
X125180Y206286D01*
X125363D01*
X125563Y206322D01*
X125764Y206340D01*
X125964Y206377D01*
X125982D01*
X126055Y206395D01*
X126128Y206432D01*
X126256Y206450D01*
X126511Y206559D01*
X126766Y206687D01*
X126784Y206705D01*
X126820Y206723D01*
X126875Y206778D01*
X126948Y206832D01*
X127112Y206996D01*
X127239Y207215D01*
Y207233D01*
X127258Y207270D01*
X127294Y207343D01*
X127312Y207434D01*
X127349Y207543D01*
X127367Y207670D01*
X127385Y207944D01*
Y207962D01*
Y208017D01*
X127367Y208090D01*
X127349Y208199D01*
X127276Y208436D01*
X127221Y208545D01*
X127130Y208673D01*
X127112Y208691D01*
X127094Y208727D01*
X127039Y208782D01*
X126966Y208855D01*
X126875Y208946D01*
X126766Y209037D01*
X126492Y209219D01*
X126474Y209237D01*
X126419Y209256D01*
X126347Y209310D01*
X126237Y209365D01*
X126110Y209438D01*
X125964Y209511D01*
X125600Y209675D01*
X125581Y209693D01*
X125508Y209711D01*
X125417Y209748D01*
X125272Y209802D01*
X125126Y209857D01*
X124944Y209930D01*
X124561Y210075D01*
X124543Y210094D01*
X124470Y210112D01*
X124379Y210167D01*
X124251Y210221D01*
X124087Y210294D01*
X123923Y210367D01*
X123541Y210549D01*
X123522Y210567D01*
X123450Y210604D01*
X123359Y210640D01*
X123231Y210713D01*
X123103Y210804D01*
X122940Y210895D01*
X122630Y211132D01*
X122611Y211151D01*
X122575Y211187D01*
X122502Y211260D01*
X122411Y211369D01*
X122320Y211478D01*
X122211Y211624D01*
X122010Y211934D01*
X121992Y211952D01*
X121974Y212025D01*
X121937Y212116D01*
X121901Y212244D01*
X121846Y212408D01*
X121810Y212590D01*
X121792Y212808D01*
X121773Y213027D01*
Y213045D01*
Y213118D01*
X121792Y213228D01*
X121810Y213373D01*
X121828Y213537D01*
X121864Y213720D01*
X121919Y213920D01*
X121992Y214120D01*
X122010Y214139D01*
X122029Y214212D01*
X122101Y214303D01*
X122174Y214430D01*
X122265Y214576D01*
X122393Y214740D01*
X122539Y214904D01*
X122703Y215068D01*
X122721Y215086D01*
X122794Y215141D01*
X122903Y215214D01*
X123049Y215305D01*
X123213Y215414D01*
X123431Y215523D01*
X123668Y215633D01*
X123942Y215742D01*
X123978Y215760D01*
X124087Y215778D01*
X124233Y215815D01*
X124452Y215869D01*
X124725Y215924D01*
X125035Y215961D01*
X125381Y215979D01*
X125764Y215997D01*
X125946D01*
X126128Y215979D01*
D02*
G37*
G36*
X156337Y205120D02*
X155043D01*
X154988Y206668D01*
Y206650D01*
X154970Y206632D01*
X154879Y206523D01*
X154770Y206377D01*
X154606Y206176D01*
X154405Y205976D01*
X154187Y205757D01*
X153950Y205557D01*
X153695Y205375D01*
X153658Y205357D01*
X153567Y205320D01*
X153440Y205247D01*
X153239Y205174D01*
X153021Y205101D01*
X152766Y205029D01*
X152492Y204992D01*
X152183Y204974D01*
X152073D01*
X151927Y204992D01*
X151763Y205010D01*
X151581Y205047D01*
X151363Y205101D01*
X151162Y205174D01*
X150944Y205265D01*
X150925Y205284D01*
X150853Y205320D01*
X150761Y205393D01*
X150634Y205484D01*
X150488Y205593D01*
X150342Y205739D01*
X150197Y205903D01*
X150051Y206085D01*
X150033Y206104D01*
X149996Y206176D01*
X149923Y206304D01*
X149850Y206450D01*
X149759Y206650D01*
X149668Y206869D01*
X149577Y207106D01*
X149504Y207379D01*
Y207415D01*
X149486Y207506D01*
X149450Y207670D01*
X149431Y207871D01*
X149395Y208126D01*
X149358Y208418D01*
X149340Y208727D01*
Y209055D01*
Y209073D01*
Y209110D01*
Y209165D01*
Y209237D01*
X149358Y209420D01*
X149377Y209675D01*
X149413Y209966D01*
X149450Y210276D01*
X149522Y210604D01*
X149614Y210914D01*
Y210932D01*
X149632Y210950D01*
X149668Y211059D01*
X149741Y211205D01*
X149832Y211387D01*
X149942Y211606D01*
X150087Y211843D01*
X150251Y212080D01*
X150433Y212298D01*
X150452Y212317D01*
X150524Y212389D01*
X150634Y212499D01*
X150798Y212626D01*
X150980Y212754D01*
X151199Y212900D01*
X151435Y213027D01*
X151709Y213155D01*
X151745Y213173D01*
X151836Y213209D01*
X152000Y213246D01*
X152201Y213300D01*
X152438Y213355D01*
X152729Y213410D01*
X153039Y213428D01*
X153367Y213446D01*
X153604D01*
X153859Y213428D01*
X154132Y213392D01*
X154150D01*
X154205Y213373D01*
X154278D01*
X154369Y213355D01*
X154624Y213300D01*
X154897Y213228D01*
Y216708D01*
X156337D01*
Y205120D01*
D02*
G37*
G36*
X200083Y213483D02*
X200265D01*
X200684Y213446D01*
X200702D01*
X200794Y213428D01*
X200903D01*
X201067Y213410D01*
X201249Y213373D01*
X201449Y213355D01*
X201686Y213300D01*
X201923Y213264D01*
Y211989D01*
X201887D01*
X201814Y212025D01*
X201686Y212043D01*
X201504Y212080D01*
X201322Y212116D01*
X201103Y212153D01*
X200648Y212226D01*
X200629D01*
X200538Y212244D01*
X200429Y212262D01*
X200283Y212280D01*
X200119D01*
X199955Y212298D01*
X199591Y212317D01*
X199409D01*
X199281Y212298D01*
X198990Y212280D01*
X198698Y212226D01*
X198680D01*
X198644Y212207D01*
X198571Y212189D01*
X198480Y212171D01*
X198297Y212080D01*
X198097Y211989D01*
X198061Y211970D01*
X197969Y211898D01*
X197878Y211788D01*
X197787Y211661D01*
X197769Y211624D01*
X197751Y211533D01*
X197714Y211406D01*
X197696Y211242D01*
Y211223D01*
Y211205D01*
X197714Y211114D01*
X197733Y210986D01*
X197769Y210841D01*
X197787Y210804D01*
X197842Y210732D01*
X197951Y210622D01*
X198097Y210495D01*
X198115D01*
X198133Y210458D01*
X198188Y210440D01*
X198261Y210385D01*
X198370Y210331D01*
X198480Y210276D01*
X198607Y210221D01*
X198753Y210148D01*
X198771D01*
X198826Y210112D01*
X198917Y210094D01*
X199044Y210039D01*
X199208Y209984D01*
X199391Y209930D01*
X199591Y209875D01*
X199828Y209802D01*
X199864Y209784D01*
X199955Y209766D01*
X200083Y209729D01*
X200265Y209657D01*
X200466Y209602D01*
X200666Y209511D01*
X200866Y209438D01*
X201067Y209347D01*
X201085Y209329D01*
X201158Y209310D01*
X201231Y209256D01*
X201358Y209201D01*
X201613Y209019D01*
X201869Y208818D01*
X201887Y208800D01*
X201923Y208764D01*
X201978Y208709D01*
X202051Y208636D01*
X202197Y208436D01*
X202269Y208308D01*
X202324Y208181D01*
Y208162D01*
X202342Y208126D01*
X202379Y208035D01*
X202397Y207944D01*
X202433Y207816D01*
X202451Y207689D01*
X202470Y207361D01*
Y207343D01*
Y207288D01*
Y207197D01*
X202451Y207106D01*
X202397Y206851D01*
X202306Y206577D01*
Y206559D01*
X202288Y206523D01*
X202251Y206450D01*
X202197Y206377D01*
X202069Y206176D01*
X201905Y205958D01*
X201887Y205940D01*
X201869Y205921D01*
X201814Y205867D01*
X201741Y205812D01*
X201541Y205666D01*
X201304Y205502D01*
X201286D01*
X201249Y205466D01*
X201176Y205448D01*
X201085Y205393D01*
X200866Y205302D01*
X200593Y205211D01*
X200575D01*
X200538Y205193D01*
X200447Y205174D01*
X200356Y205156D01*
X200247Y205120D01*
X200101Y205101D01*
X199810Y205047D01*
X199791D01*
X199737Y205029D01*
X199664D01*
X199555Y205010D01*
X199318Y204992D01*
X199026Y204974D01*
X198716D01*
X198516Y204992D01*
X198279D01*
X198024Y205010D01*
X197477Y205047D01*
X197441D01*
X197368Y205065D01*
X197222Y205083D01*
X197058Y205101D01*
X196840Y205138D01*
X196621Y205174D01*
X196129Y205284D01*
Y206595D01*
X196166D01*
X196257Y206559D01*
X196384Y206523D01*
X196566Y206468D01*
X196785Y206413D01*
X197022Y206359D01*
X197550Y206268D01*
X197587D01*
X197678Y206249D01*
X197805Y206231D01*
X197988D01*
X198206Y206213D01*
X198443Y206195D01*
X198971Y206176D01*
X199135D01*
X199318Y206195D01*
X199536Y206213D01*
X199791Y206249D01*
X200046Y206286D01*
X200283Y206359D01*
X200484Y206450D01*
X200502Y206468D01*
X200557Y206504D01*
X200648Y206559D01*
X200739Y206650D01*
X200830Y206760D01*
X200921Y206905D01*
X200976Y207069D01*
X200994Y207252D01*
Y207270D01*
Y207288D01*
X200976Y207379D01*
X200957Y207506D01*
X200903Y207634D01*
X200885Y207670D01*
X200848Y207743D01*
X200757Y207853D01*
X200611Y207980D01*
X200575Y208017D01*
X200520Y208035D01*
X200466Y208090D01*
X200375Y208126D01*
X200265Y208181D01*
X200119Y208254D01*
X199974Y208308D01*
X199955D01*
X199901Y208345D01*
X199810Y208381D01*
X199664Y208436D01*
X199500Y208490D01*
X199300Y208563D01*
X199081Y208636D01*
X198808Y208709D01*
X198789D01*
X198716Y208746D01*
X198607Y208764D01*
X198480Y208818D01*
X198316Y208873D01*
X198152Y208928D01*
X197787Y209073D01*
X197769Y209092D01*
X197714Y209110D01*
X197623Y209165D01*
X197514Y209219D01*
X197241Y209365D01*
X196967Y209565D01*
X196949Y209584D01*
X196913Y209620D01*
X196840Y209675D01*
X196767Y209766D01*
X196585Y209966D01*
X196421Y210240D01*
Y210258D01*
X196384Y210312D01*
X196366Y210385D01*
X196330Y210495D01*
X196293Y210622D01*
X196275Y210786D01*
X196239Y210968D01*
Y211151D01*
Y211169D01*
Y211205D01*
Y211278D01*
X196257Y211369D01*
X196275Y211478D01*
X196293Y211606D01*
X196384Y211898D01*
Y211916D01*
X196421Y211970D01*
X196457Y212043D01*
X196512Y212153D01*
X196585Y212262D01*
X196676Y212389D01*
X196803Y212535D01*
X196931Y212663D01*
X196949Y212681D01*
X197004Y212718D01*
X197095Y212790D01*
X197204Y212881D01*
X197350Y212972D01*
X197532Y213064D01*
X197733Y213173D01*
X197969Y213264D01*
X198006Y213282D01*
X198097Y213300D01*
X198224Y213337D01*
X198425Y213392D01*
X198662Y213428D01*
X198935Y213464D01*
X199263Y213483D01*
X199609Y213501D01*
X199937D01*
X200083Y213483D01*
D02*
G37*
G36*
X107999Y213483D02*
X108163Y213464D01*
X108363Y213428D01*
X108564Y213373D01*
X108782Y213300D01*
X108983Y213191D01*
X109001Y213173D01*
X109074Y213137D01*
X109165Y213064D01*
X109293Y212972D01*
X109438Y212863D01*
X109584Y212717D01*
X109730Y212554D01*
X109876Y212353D01*
X109894Y212335D01*
X109930Y212262D01*
X110003Y212153D01*
X110076Y211989D01*
X110167Y211806D01*
X110258Y211588D01*
X110350Y211333D01*
X110422Y211059D01*
Y211023D01*
X110459Y210932D01*
X110477Y210768D01*
X110513Y210567D01*
X110550Y210331D01*
X110568Y210039D01*
X110605Y209729D01*
Y209383D01*
Y209365D01*
Y209329D01*
Y209274D01*
Y209201D01*
X110586Y208982D01*
X110568Y208727D01*
X110532Y208418D01*
X110477Y208108D01*
X110404Y207780D01*
X110295Y207452D01*
X110277Y207415D01*
X110240Y207324D01*
X110167Y207178D01*
X110076Y206978D01*
X109949Y206778D01*
X109803Y206541D01*
X109639Y206322D01*
X109438Y206104D01*
X109420Y206085D01*
X109347Y206013D01*
X109220Y205921D01*
X109074Y205794D01*
X108892Y205666D01*
X108655Y205521D01*
X108418Y205393D01*
X108145Y205284D01*
X108108Y205265D01*
X108017Y205247D01*
X107871Y205211D01*
X107671Y205156D01*
X107434Y205101D01*
X107161Y205065D01*
X106869Y205047D01*
X106560Y205029D01*
X106305D01*
X106068Y205047D01*
X105776Y205083D01*
X105703D01*
X105631Y205101D01*
X105539Y205120D01*
X105412D01*
X105284Y205138D01*
X104993Y205193D01*
Y201749D01*
X103572D01*
Y213355D01*
X104829D01*
X104920Y211970D01*
Y211989D01*
X104956Y212007D01*
X105029Y212116D01*
X105157Y212262D01*
X105321Y212426D01*
X105521Y212626D01*
X105740Y212827D01*
X105977Y213009D01*
X106232Y213155D01*
X106268Y213173D01*
X106359Y213209D01*
X106487Y213264D01*
X106687Y213337D01*
X106906Y213392D01*
X107161Y213446D01*
X107452Y213483D01*
X107744Y213501D01*
X107871D01*
X107999Y213483D01*
D02*
G37*
G36*
X172990Y213483D02*
X173081D01*
X173208Y213464D01*
X173500Y213392D01*
X173810Y213300D01*
X174119Y213155D01*
X174429Y212936D01*
X174575Y212809D01*
X174703Y212663D01*
X174739Y212626D01*
X174757Y212572D01*
X174812Y212517D01*
X174848Y212426D01*
X174903Y212317D01*
X174976Y212189D01*
X175030Y212043D01*
X175085Y211879D01*
X175140Y211715D01*
X175194Y211515D01*
X175249Y211296D01*
X175285Y211041D01*
X175304Y210786D01*
X175322Y210513D01*
Y210221D01*
X173883D01*
Y210240D01*
Y210276D01*
Y210331D01*
Y210403D01*
X173864Y210586D01*
X173846Y210804D01*
X173810Y211059D01*
X173755Y211315D01*
X173664Y211570D01*
X173555Y211770D01*
X173536Y211788D01*
X173500Y211843D01*
X173409Y211934D01*
X173300Y212025D01*
X173154Y212098D01*
X172990Y212189D01*
X172789Y212244D01*
X172553Y212262D01*
X172443D01*
X172389Y212244D01*
X172206Y212226D01*
X171988Y212153D01*
X171969D01*
X171933Y212134D01*
X171878Y212116D01*
X171806Y212080D01*
X171605Y211970D01*
X171386Y211825D01*
X171368Y211806D01*
X171332Y211788D01*
X171277Y211734D01*
X171186Y211679D01*
X170986Y211478D01*
X170730Y211242D01*
X170712Y211223D01*
X170676Y211187D01*
X170603Y211114D01*
X170512Y211005D01*
X170403Y210877D01*
X170275Y210750D01*
X170148Y210586D01*
X170002Y210403D01*
Y205120D01*
X168562D01*
Y213355D01*
X169856D01*
X169892Y211825D01*
Y211843D01*
X169929Y211861D01*
X170020Y211970D01*
X170166Y212116D01*
X170348Y212317D01*
X170567Y212517D01*
X170803Y212736D01*
X171058Y212936D01*
X171332Y213100D01*
X171368Y213118D01*
X171459Y213155D01*
X171587Y213228D01*
X171787Y213300D01*
X171988Y213373D01*
X172243Y213446D01*
X172498Y213483D01*
X172771Y213501D01*
X172899D01*
X172990Y213483D01*
D02*
G37*
G36*
X183339D02*
X183430Y213464D01*
X183557Y213428D01*
X183685Y213373D01*
X183831Y213300D01*
X183976Y213209D01*
X184122Y213082D01*
X184268Y212918D01*
X184396Y212718D01*
X184523Y212499D01*
X184614Y212226D01*
X184687Y211898D01*
X184742Y211533D01*
X184760Y211114D01*
Y205120D01*
X183339D01*
Y211023D01*
Y211041D01*
Y211096D01*
Y211151D01*
Y211242D01*
X183321Y211442D01*
X183302Y211643D01*
Y211661D01*
Y211679D01*
X183284Y211788D01*
X183266Y211916D01*
X183211Y212043D01*
X183193Y212062D01*
X183175Y212116D01*
X183120Y212189D01*
X183065Y212244D01*
X183047Y212262D01*
X183011Y212280D01*
X182938Y212298D01*
X182847Y212317D01*
X182829D01*
X182756Y212298D01*
X182665Y212280D01*
X182555Y212207D01*
X182537Y212189D01*
X182482Y212134D01*
X182391Y212025D01*
X182282Y211879D01*
Y211861D01*
X182264Y211843D01*
X182227Y211788D01*
X182191Y211734D01*
X182082Y211533D01*
X181954Y211296D01*
Y211278D01*
X181918Y211223D01*
X181881Y211151D01*
X181826Y211041D01*
X181772Y210914D01*
X181699Y210768D01*
X181626Y210586D01*
X181535Y210403D01*
Y205120D01*
X180114D01*
Y210877D01*
Y210895D01*
Y210950D01*
Y211023D01*
Y211132D01*
X180096Y211369D01*
X180077Y211588D01*
Y211606D01*
Y211643D01*
X180059Y211752D01*
X180041Y211898D01*
X179986Y212025D01*
X179968Y212043D01*
X179950Y212116D01*
X179895Y212189D01*
X179841Y212244D01*
X179822Y212262D01*
X179786Y212280D01*
X179713Y212298D01*
X179622Y212317D01*
X179604D01*
X179531Y212298D01*
X179440Y212280D01*
X179349Y212226D01*
X179330Y212207D01*
X179276Y212153D01*
X179185Y212062D01*
X179075Y211916D01*
X179057Y211879D01*
X178984Y211770D01*
X178875Y211588D01*
X178747Y211351D01*
Y211333D01*
X178711Y211278D01*
X178674Y211205D01*
X178620Y211096D01*
X178565Y210968D01*
X178492Y210804D01*
X178401Y210604D01*
X178310Y210403D01*
Y205120D01*
X176889D01*
Y213355D01*
X178055D01*
X178128Y211788D01*
X178146Y211806D01*
X178164Y211861D01*
X178201Y211952D01*
X178255Y212062D01*
X178401Y212317D01*
X178547Y212572D01*
X178565Y212590D01*
X178583Y212626D01*
X178620Y212681D01*
X178674Y212754D01*
X178802Y212936D01*
X178966Y213100D01*
X178984Y213118D01*
X179002Y213137D01*
X179112Y213209D01*
X179258Y213300D01*
X179421Y213392D01*
X179440D01*
X179458Y213410D01*
X179585Y213446D01*
X179749Y213483D01*
X179950Y213501D01*
X180059D01*
X180187Y213483D01*
X180333Y213446D01*
X180497Y213392D01*
X180660Y213319D01*
X180824Y213209D01*
X180970Y213064D01*
X180988Y213045D01*
X181025Y212991D01*
X181079Y212881D01*
X181152Y212736D01*
X181207Y212535D01*
X181262Y212317D01*
X181298Y212043D01*
X181316Y211715D01*
X181335Y211734D01*
X181353Y211788D01*
X181389Y211861D01*
X181444Y211970D01*
X181571Y212207D01*
X181699Y212462D01*
Y212481D01*
X181735Y212517D01*
X181772Y212590D01*
X181826Y212663D01*
X181954Y212845D01*
X182100Y213027D01*
X182118Y213045D01*
X182136Y213064D01*
X182246Y213155D01*
X182391Y213264D01*
X182573Y213373D01*
X182592D01*
X182628Y213392D01*
X182683Y213410D01*
X182756Y213446D01*
X182956Y213483D01*
X183193Y213501D01*
X183266D01*
X183339Y213483D01*
D02*
G37*
G36*
X206788Y209584D02*
X210487Y213355D01*
X212381D01*
X208519Y209547D01*
X212600Y205120D01*
X210632D01*
X206788Y209529D01*
Y205120D01*
X205367D01*
Y216708D01*
X206788D01*
Y209584D01*
D02*
G37*
G36*
X190517Y213483D02*
X190718Y213464D01*
X190955Y213428D01*
X191410Y213337D01*
X191428D01*
X191520Y213300D01*
X191629Y213264D01*
X191756Y213209D01*
X191920Y213137D01*
X192084Y213045D01*
X192248Y212954D01*
X192412Y212827D01*
X192430Y212809D01*
X192485Y212772D01*
X192558Y212699D01*
X192649Y212608D01*
X192759Y212481D01*
X192868Y212335D01*
X192959Y212171D01*
X193050Y211989D01*
X193068Y211970D01*
X193087Y211898D01*
X193123Y211788D01*
X193178Y211643D01*
X193214Y211478D01*
X193251Y211260D01*
X193269Y211041D01*
X193287Y210786D01*
Y205120D01*
X191993D01*
X191957Y206213D01*
X191920Y206176D01*
X191848Y206104D01*
X191702Y205994D01*
X191538Y205849D01*
X191319Y205703D01*
X191101Y205539D01*
X190845Y205393D01*
X190590Y205265D01*
X190554Y205247D01*
X190463Y205229D01*
X190335Y205174D01*
X190153Y205120D01*
X189934Y205065D01*
X189679Y205029D01*
X189424Y204992D01*
X189133Y204974D01*
X189023D01*
X188896Y204992D01*
X188732D01*
X188531Y205010D01*
X188331Y205047D01*
X187930Y205138D01*
X187912D01*
X187857Y205174D01*
X187766Y205211D01*
X187639Y205265D01*
X187384Y205429D01*
X187110Y205630D01*
X187092Y205648D01*
X187056Y205684D01*
X187001Y205757D01*
X186928Y205849D01*
X186855Y205958D01*
X186764Y206085D01*
X186637Y206377D01*
Y206395D01*
X186618Y206450D01*
X186600Y206541D01*
X186564Y206650D01*
X186546Y206796D01*
X186509Y206960D01*
X186491Y207306D01*
Y207324D01*
Y207361D01*
Y207434D01*
X186509Y207506D01*
X186527Y207616D01*
X186546Y207743D01*
X186600Y208017D01*
X186709Y208326D01*
X186873Y208654D01*
X186983Y208818D01*
X187110Y208964D01*
X187238Y209110D01*
X187402Y209256D01*
X187420D01*
X187438Y209292D01*
X187493Y209329D01*
X187584Y209365D01*
X187675Y209420D01*
X187784Y209474D01*
X187930Y209547D01*
X188094Y209620D01*
X188276Y209675D01*
X188477Y209748D01*
X188696Y209802D01*
X188951Y209857D01*
X189206Y209893D01*
X189497Y209930D01*
X189807Y209966D01*
X191848D01*
Y210677D01*
Y210713D01*
Y210804D01*
X191829Y210932D01*
X191793Y211096D01*
X191738Y211278D01*
X191647Y211478D01*
X191538Y211661D01*
X191374Y211843D01*
X191356Y211861D01*
X191283Y211916D01*
X191173Y211989D01*
X191028Y212062D01*
X190827Y212134D01*
X190572Y212207D01*
X190281Y212262D01*
X189953Y212280D01*
X189698D01*
X189515Y212262D01*
X189297Y212244D01*
X189078Y212207D01*
X188568Y212116D01*
X188531D01*
X188459Y212080D01*
X188313Y212043D01*
X188149Y212007D01*
X187930Y211934D01*
X187693Y211861D01*
X187438Y211770D01*
X187183Y211679D01*
Y212972D01*
X187201D01*
X187238Y212991D01*
X187274Y213009D01*
X187347Y213027D01*
X187529Y213082D01*
X187766Y213155D01*
X187784D01*
X187821Y213173D01*
X187894Y213191D01*
X187985Y213209D01*
X188222Y213264D01*
X188477Y213319D01*
X188495D01*
X188550Y213337D01*
X188623Y213355D01*
X188714Y213373D01*
X188823Y213392D01*
X188951Y213410D01*
X189242Y213446D01*
X189260D01*
X189315Y213464D01*
X189388D01*
X189497Y213483D01*
X189625D01*
X189752Y213501D01*
X190335D01*
X190517Y213483D01*
D02*
G37*
G36*
X144749Y206304D02*
X147208D01*
Y205120D01*
X140613D01*
Y206304D01*
X143309D01*
Y215542D01*
X140886D01*
Y216708D01*
X144749D01*
Y206304D01*
D02*
G37*
G36*
X92312Y214594D02*
X89141D01*
Y205120D01*
X87665D01*
Y214594D01*
X84495D01*
Y215833D01*
X92312D01*
Y214594D01*
D02*
G37*
G36*
X162696Y213483D02*
X162896Y213464D01*
X163133Y213428D01*
X163388Y213392D01*
X163643Y213319D01*
X163898Y213228D01*
X163935Y213209D01*
X164007Y213173D01*
X164135Y213118D01*
X164299Y213027D01*
X164463Y212918D01*
X164663Y212790D01*
X164846Y212626D01*
X165028Y212444D01*
X165046Y212426D01*
X165101Y212353D01*
X165192Y212244D01*
X165283Y212116D01*
X165392Y211934D01*
X165520Y211734D01*
X165629Y211497D01*
X165720Y211242D01*
X165738Y211205D01*
X165756Y211114D01*
X165793Y210968D01*
X165848Y210786D01*
X165884Y210549D01*
X165920Y210294D01*
X165939Y210003D01*
X165957Y209675D01*
Y209657D01*
Y209620D01*
Y209565D01*
Y209492D01*
Y209329D01*
X165939Y209146D01*
Y209110D01*
Y209019D01*
Y208910D01*
X165920Y208782D01*
X160145D01*
Y208764D01*
Y208727D01*
Y208654D01*
X160163Y208581D01*
Y208472D01*
X160181Y208345D01*
X160236Y208053D01*
X160309Y207743D01*
X160436Y207415D01*
X160600Y207106D01*
X160837Y206832D01*
X160873Y206796D01*
X160965Y206723D01*
X161129Y206614D01*
X161365Y206504D01*
X161657Y206377D01*
X162003Y206268D01*
X162404Y206195D01*
X162878Y206158D01*
X163333D01*
X163588Y206176D01*
X163643D01*
X163716Y206195D01*
X163807D01*
X164044Y206231D01*
X164281Y206249D01*
X164299D01*
X164335Y206268D01*
X164408D01*
X164499Y206286D01*
X164700Y206322D01*
X164937Y206359D01*
X164955D01*
X164991Y206377D01*
X165046Y206395D01*
X165119Y206413D01*
X165319Y206450D01*
X165520Y206504D01*
Y205338D01*
X165501D01*
X165410Y205320D01*
X165301Y205284D01*
X165137Y205247D01*
X164937Y205211D01*
X164718Y205156D01*
X164463Y205120D01*
X164190Y205083D01*
X164153D01*
X164062Y205065D01*
X163916Y205047D01*
X163734Y205029D01*
X163497Y205010D01*
X163242Y204992D01*
X162969Y204974D01*
X162495D01*
X162295Y204992D01*
X162058Y205010D01*
X161766Y205047D01*
X161457Y205083D01*
X161147Y205156D01*
X160855Y205247D01*
X160819Y205265D01*
X160728Y205302D01*
X160582Y205375D01*
X160418Y205466D01*
X160218Y205575D01*
X159999Y205721D01*
X159799Y205885D01*
X159598Y206085D01*
X159580Y206104D01*
X159525Y206176D01*
X159434Y206304D01*
X159325Y206450D01*
X159197Y206650D01*
X159088Y206869D01*
X158960Y207142D01*
X158869Y207415D01*
Y207434D01*
Y207452D01*
X158833Y207561D01*
X158796Y207725D01*
X158760Y207944D01*
X158724Y208217D01*
X158687Y208509D01*
X158669Y208855D01*
X158651Y209219D01*
Y209237D01*
Y209256D01*
Y209365D01*
X158669Y209529D01*
X158687Y209748D01*
X158705Y209984D01*
X158760Y210258D01*
X158815Y210549D01*
X158888Y210841D01*
Y210859D01*
X158906Y210877D01*
X158942Y210968D01*
X158997Y211114D01*
X159070Y211315D01*
X159179Y211515D01*
X159307Y211752D01*
X159452Y211989D01*
X159616Y212207D01*
X159634Y212226D01*
X159707Y212298D01*
X159817Y212408D01*
X159944Y212554D01*
X160126Y212699D01*
X160327Y212863D01*
X160546Y213009D01*
X160801Y213155D01*
X160837Y213173D01*
X160928Y213209D01*
X161074Y213264D01*
X161256Y213337D01*
X161493Y213392D01*
X161766Y213446D01*
X162058Y213483D01*
X162386Y213501D01*
X162531D01*
X162696Y213483D01*
D02*
G37*
G36*
X134983D02*
X135183Y213464D01*
X135438Y213428D01*
X135694Y213373D01*
X135967Y213300D01*
X136240Y213209D01*
X136276Y213191D01*
X136368Y213155D01*
X136495Y213100D01*
X136659Y213009D01*
X136841Y212900D01*
X137042Y212754D01*
X137242Y212590D01*
X137424Y212408D01*
X137443Y212389D01*
X137497Y212317D01*
X137588Y212207D01*
X137698Y212043D01*
X137825Y211861D01*
X137953Y211624D01*
X138062Y211369D01*
X138171Y211096D01*
X138190Y211059D01*
X138208Y210950D01*
X138262Y210786D01*
X138317Y210586D01*
X138354Y210312D01*
X138408Y210003D01*
X138426Y209657D01*
X138445Y209292D01*
Y209274D01*
Y209256D01*
Y209201D01*
Y209128D01*
X138426Y208946D01*
X138408Y208709D01*
X138372Y208436D01*
X138335Y208144D01*
X138262Y207835D01*
X138171Y207525D01*
X138153Y207488D01*
X138117Y207397D01*
X138062Y207251D01*
X137971Y207069D01*
X137862Y206851D01*
X137734Y206614D01*
X137570Y206377D01*
X137388Y206158D01*
X137370Y206140D01*
X137297Y206067D01*
X137188Y205958D01*
X137042Y205830D01*
X136860Y205703D01*
X136659Y205557D01*
X136404Y205411D01*
X136149Y205284D01*
X136112Y205265D01*
X136021Y205229D01*
X135876Y205193D01*
X135675Y205138D01*
X135420Y205065D01*
X135147Y205029D01*
X134837Y204992D01*
X134491Y204974D01*
X134345D01*
X134163Y204992D01*
X133963Y205010D01*
X133707Y205047D01*
X133434Y205083D01*
X133161Y205156D01*
X132888Y205247D01*
X132851Y205265D01*
X132778Y205302D01*
X132651Y205357D01*
X132487Y205448D01*
X132286Y205557D01*
X132104Y205703D01*
X131904Y205867D01*
X131703Y206049D01*
X131685Y206067D01*
X131630Y206140D01*
X131539Y206249D01*
X131430Y206413D01*
X131321Y206595D01*
X131193Y206832D01*
X131084Y207087D01*
X130974Y207361D01*
Y207379D01*
X130956Y207397D01*
X130938Y207506D01*
X130902Y207670D01*
X130847Y207889D01*
X130792Y208162D01*
X130756Y208472D01*
X130738Y208818D01*
X130719Y209183D01*
Y209201D01*
Y209219D01*
Y209274D01*
Y209347D01*
X130738Y209529D01*
X130756Y209748D01*
X130774Y210021D01*
X130829Y210312D01*
X130883Y210622D01*
X130974Y210914D01*
Y210932D01*
X130993Y210950D01*
X131029Y211041D01*
X131084Y211205D01*
X131175Y211387D01*
X131284Y211606D01*
X131430Y211825D01*
X131576Y212062D01*
X131758Y212280D01*
X131776Y212298D01*
X131849Y212371D01*
X131958Y212481D01*
X132104Y212608D01*
X132286Y212754D01*
X132505Y212900D01*
X132742Y213045D01*
X132997Y213173D01*
X133033Y213191D01*
X133124Y213228D01*
X133270Y213282D01*
X133471Y213337D01*
X133726Y213392D01*
X133999Y213446D01*
X134309Y213483D01*
X134655Y213501D01*
X134801D01*
X134983Y213483D01*
D02*
G37*
G36*
X98033Y213483D02*
X98233Y213464D01*
X98488Y213428D01*
X98743Y213373D01*
X99017Y213300D01*
X99290Y213209D01*
X99326Y213191D01*
X99417Y213155D01*
X99545Y213100D01*
X99709Y213009D01*
X99891Y212900D01*
X100092Y212754D01*
X100292Y212590D01*
X100474Y212408D01*
X100492Y212389D01*
X100547Y212317D01*
X100638Y212207D01*
X100748Y212043D01*
X100875Y211861D01*
X101003Y211624D01*
X101112Y211369D01*
X101221Y211096D01*
X101239Y211059D01*
X101258Y210950D01*
X101312Y210786D01*
X101367Y210586D01*
X101403Y210312D01*
X101458Y210003D01*
X101476Y209657D01*
X101495Y209292D01*
Y209274D01*
Y209256D01*
Y209201D01*
Y209128D01*
X101476Y208946D01*
X101458Y208709D01*
X101422Y208436D01*
X101385Y208144D01*
X101312Y207835D01*
X101221Y207525D01*
X101203Y207488D01*
X101167Y207397D01*
X101112Y207251D01*
X101021Y207069D01*
X100911Y206851D01*
X100784Y206614D01*
X100620Y206377D01*
X100438Y206158D01*
X100420Y206140D01*
X100347Y206067D01*
X100237Y205958D01*
X100092Y205830D01*
X99909Y205703D01*
X99709Y205557D01*
X99454Y205411D01*
X99199Y205284D01*
X99162Y205265D01*
X99071Y205229D01*
X98926Y205193D01*
X98725Y205138D01*
X98470Y205065D01*
X98197Y205029D01*
X97887Y204992D01*
X97541Y204974D01*
X97395D01*
X97213Y204992D01*
X97012Y205010D01*
X96757Y205047D01*
X96484Y205083D01*
X96211Y205156D01*
X95937Y205247D01*
X95901Y205265D01*
X95828Y205302D01*
X95701Y205357D01*
X95537Y205448D01*
X95336Y205557D01*
X95154Y205703D01*
X94954Y205867D01*
X94753Y206049D01*
X94735Y206067D01*
X94680Y206140D01*
X94589Y206249D01*
X94480Y206413D01*
X94371Y206595D01*
X94243Y206832D01*
X94134Y207087D01*
X94024Y207361D01*
Y207379D01*
X94006Y207397D01*
X93988Y207506D01*
X93951Y207670D01*
X93897Y207889D01*
X93842Y208162D01*
X93806Y208472D01*
X93787Y208818D01*
X93769Y209183D01*
Y209201D01*
Y209219D01*
Y209274D01*
Y209347D01*
X93787Y209529D01*
X93806Y209748D01*
X93824Y210021D01*
X93879Y210312D01*
X93933Y210622D01*
X94024Y210914D01*
Y210932D01*
X94043Y210950D01*
X94079Y211041D01*
X94134Y211205D01*
X94225Y211387D01*
X94334Y211606D01*
X94480Y211825D01*
X94626Y212062D01*
X94808Y212280D01*
X94826Y212298D01*
X94899Y212371D01*
X95008Y212481D01*
X95154Y212608D01*
X95336Y212754D01*
X95555Y212900D01*
X95792Y213045D01*
X96047Y213173D01*
X96083Y213191D01*
X96174Y213228D01*
X96320Y213282D01*
X96521Y213337D01*
X96776Y213392D01*
X97049Y213446D01*
X97359Y213483D01*
X97705Y213501D01*
X97851D01*
X98033Y213483D01*
D02*
G37*
%LPC*%
G36*
X153258Y212262D02*
X153148D01*
X153057Y212244D01*
X152857Y212226D01*
X152602Y212171D01*
X152292Y212080D01*
X152000Y211934D01*
X151709Y211752D01*
X151435Y211497D01*
X151417Y211460D01*
X151345Y211351D01*
X151290Y211278D01*
X151235Y211169D01*
X151181Y211059D01*
X151126Y210932D01*
X151053Y210768D01*
X150998Y210604D01*
X150944Y210403D01*
X150907Y210185D01*
X150853Y209966D01*
X150834Y209711D01*
X150798Y209438D01*
Y209146D01*
Y209128D01*
Y209073D01*
Y209001D01*
Y208910D01*
X150816Y208782D01*
Y208636D01*
X150853Y208308D01*
X150907Y207944D01*
X150980Y207579D01*
X151089Y207233D01*
X151235Y206924D01*
X151253Y206887D01*
X151308Y206814D01*
X151417Y206687D01*
X151563Y206559D01*
X151727Y206432D01*
X151946Y206304D01*
X152183Y206231D01*
X152474Y206195D01*
X152565D01*
X152674Y206213D01*
X152820Y206249D01*
X153003Y206304D01*
X153185Y206395D01*
X153403Y206504D01*
X153622Y206668D01*
X153658Y206687D01*
X153731Y206760D01*
X153841Y206869D01*
X154005Y207033D01*
X154205Y207233D01*
X154405Y207488D01*
X154642Y207780D01*
X154897Y208108D01*
Y211916D01*
X154879D01*
X154843Y211952D01*
X154752Y211970D01*
X154660Y212007D01*
X154551Y212043D01*
X154405Y212098D01*
X154096Y212171D01*
X154077D01*
X154023Y212189D01*
X153950Y212207D01*
X153841Y212226D01*
X153713D01*
X153567Y212244D01*
X153258Y212262D01*
D02*
G37*
G36*
X107616Y212262D02*
X107343D01*
X107289Y212244D01*
X107106Y212226D01*
X106906Y212171D01*
X106888D01*
X106851Y212153D01*
X106797Y212134D01*
X106724Y212098D01*
X106542Y212007D01*
X106323Y211879D01*
X106305D01*
X106268Y211843D01*
X106213Y211806D01*
X106141Y211734D01*
X105940Y211570D01*
X105685Y211333D01*
X105667Y211315D01*
X105631Y211278D01*
X105558Y211205D01*
X105485Y211114D01*
X105375Y210986D01*
X105248Y210841D01*
X105120Y210695D01*
X104993Y210513D01*
Y206523D01*
X105011D01*
X105066Y206504D01*
X105139Y206468D01*
X105248Y206432D01*
X105357Y206395D01*
X105503Y206340D01*
X105813Y206267D01*
X105831D01*
X105886Y206249D01*
X105977Y206231D01*
X106086D01*
X106213Y206213D01*
X106359Y206195D01*
X106669Y206176D01*
X106778D01*
X106851Y206195D01*
X107070Y206213D01*
X107325Y206267D01*
X107616Y206377D01*
X107908Y206504D01*
X108200Y206705D01*
X108345Y206814D01*
X108473Y206960D01*
Y206978D01*
X108509Y206996D01*
X108527Y207051D01*
X108582Y207106D01*
X108637Y207197D01*
X108691Y207288D01*
X108746Y207415D01*
X108819Y207543D01*
X108874Y207707D01*
X108928Y207871D01*
X108983Y208071D01*
X109038Y208290D01*
X109092Y208509D01*
X109110Y208764D01*
X109147Y209019D01*
Y209310D01*
Y209347D01*
Y209420D01*
Y209547D01*
X109129Y209711D01*
Y209893D01*
X109110Y210094D01*
X109038Y210495D01*
Y210513D01*
X109019Y210586D01*
X109001Y210695D01*
X108965Y210823D01*
X108874Y211114D01*
X108746Y211424D01*
Y211442D01*
X108710Y211497D01*
X108673Y211570D01*
X108600Y211661D01*
X108436Y211861D01*
X108218Y212043D01*
X108200Y212062D01*
X108163Y212080D01*
X108090Y212116D01*
X107999Y212153D01*
X107890Y212189D01*
X107762Y212226D01*
X107616Y212262D01*
D02*
G37*
G36*
X191848Y208873D02*
X189843D01*
X189716Y208855D01*
X189424Y208837D01*
X189114Y208764D01*
X189096D01*
X189060Y208746D01*
X188987Y208727D01*
X188896Y208691D01*
X188677Y208581D01*
X188477Y208454D01*
X188459D01*
X188440Y208418D01*
X188349Y208326D01*
X188222Y208162D01*
X188112Y207980D01*
Y207962D01*
X188094Y207926D01*
X188076Y207871D01*
X188058Y207798D01*
X188021Y207598D01*
X188003Y207361D01*
Y207343D01*
Y207324D01*
X188021Y207215D01*
X188040Y207069D01*
X188076Y206905D01*
Y206887D01*
X188094Y206869D01*
X188131Y206778D01*
X188204Y206650D01*
X188313Y206504D01*
X188349Y206486D01*
X188422Y206413D01*
X188568Y206322D01*
X188732Y206249D01*
X188750D01*
X188787Y206231D01*
X188841Y206213D01*
X188914D01*
X189114Y206176D01*
X189370Y206158D01*
X189461D01*
X189552Y206176D01*
X189698Y206195D01*
X189862Y206231D01*
X190062Y206286D01*
X190262Y206359D01*
X190499Y206450D01*
X190536Y206468D01*
X190609Y206504D01*
X190736Y206577D01*
X190900Y206687D01*
X191101Y206814D01*
X191337Y206978D01*
X191592Y207160D01*
X191848Y207397D01*
Y208873D01*
D02*
G37*
G36*
X162513Y212353D02*
X162149D01*
X162040Y212335D01*
X161912Y212317D01*
X161766Y212280D01*
X161457Y212171D01*
X161438D01*
X161402Y212134D01*
X161329Y212098D01*
X161238Y212043D01*
X161019Y211879D01*
X160801Y211661D01*
X160782Y211643D01*
X160764Y211606D01*
X160710Y211533D01*
X160637Y211442D01*
X160564Y211333D01*
X160491Y211187D01*
X160345Y210877D01*
Y210859D01*
X160327Y210804D01*
X160291Y210713D01*
X160254Y210586D01*
X160218Y210440D01*
X160199Y210258D01*
X160145Y209875D01*
X164481D01*
Y209893D01*
Y209966D01*
Y210075D01*
Y210203D01*
X164463Y210349D01*
X164445Y210513D01*
X164354Y210859D01*
Y210877D01*
X164335Y210932D01*
X164299Y211023D01*
X164262Y211132D01*
X164135Y211387D01*
X163953Y211643D01*
X163935Y211661D01*
X163898Y211697D01*
X163843Y211752D01*
X163770Y211825D01*
X163661Y211916D01*
X163552Y211989D01*
X163260Y212153D01*
X163242Y212171D01*
X163187Y212189D01*
X163096Y212226D01*
X162987Y212262D01*
X162859Y212298D01*
X162696Y212317D01*
X162513Y212353D01*
D02*
G37*
G36*
X134783Y212280D02*
X134473D01*
X134345Y212262D01*
X134199Y212244D01*
X134017Y212226D01*
X133835Y212171D01*
X133653Y212116D01*
X133471Y212025D01*
X133452Y212007D01*
X133398Y211970D01*
X133307Y211916D01*
X133216Y211843D01*
X133088Y211752D01*
X132960Y211643D01*
X132724Y211351D01*
X132705Y211333D01*
X132669Y211278D01*
X132633Y211187D01*
X132560Y211078D01*
X132487Y210932D01*
X132432Y210768D01*
X132359Y210586D01*
X132305Y210385D01*
Y210367D01*
X132286Y210294D01*
X132268Y210185D01*
X132250Y210039D01*
X132213Y209857D01*
X132195Y209657D01*
X132177Y209219D01*
Y209183D01*
Y209092D01*
X132195Y208946D01*
Y208764D01*
X132213Y208563D01*
X132250Y208326D01*
X132341Y207871D01*
Y207853D01*
X132377Y207780D01*
X132414Y207670D01*
X132468Y207543D01*
X132614Y207233D01*
X132815Y206924D01*
X132833Y206905D01*
X132869Y206869D01*
X132942Y206796D01*
X133033Y206723D01*
X133143Y206632D01*
X133270Y206541D01*
X133562Y206359D01*
X133580D01*
X133635Y206322D01*
X133744Y206304D01*
X133853Y206268D01*
X134017Y206231D01*
X134181Y206213D01*
X134382Y206176D01*
X134691D01*
X134801Y206195D01*
X134965Y206213D01*
X135129Y206231D01*
X135311Y206286D01*
X135493Y206340D01*
X135675Y206413D01*
X135694Y206432D01*
X135748Y206468D01*
X135839Y206523D01*
X135949Y206595D01*
X136058Y206687D01*
X136185Y206814D01*
X136422Y207087D01*
X136441Y207106D01*
X136477Y207160D01*
X136513Y207251D01*
X136586Y207361D01*
X136659Y207506D01*
X136714Y207670D01*
X136787Y207853D01*
X136841Y208053D01*
Y208071D01*
X136860Y208144D01*
X136896Y208272D01*
X136914Y208418D01*
X136951Y208581D01*
X136969Y208782D01*
X136987Y209219D01*
Y209256D01*
Y209347D01*
Y209492D01*
X136969Y209675D01*
X136951Y209875D01*
X136914Y210112D01*
X136860Y210331D01*
X136805Y210549D01*
Y210567D01*
X136768Y210640D01*
X136732Y210750D01*
X136677Y210895D01*
X136532Y211187D01*
X136441Y211351D01*
X136331Y211497D01*
X136313Y211515D01*
X136276Y211551D01*
X136204Y211624D01*
X136112Y211715D01*
X136003Y211806D01*
X135876Y211897D01*
X135566Y212080D01*
X135548Y212098D01*
X135493Y212116D01*
X135402Y212153D01*
X135274Y212189D01*
X135129Y212226D01*
X134965Y212244D01*
X134783Y212280D01*
D02*
G37*
G36*
X97832Y212280D02*
X97523D01*
X97395Y212262D01*
X97249Y212244D01*
X97067Y212226D01*
X96885Y212171D01*
X96703Y212116D01*
X96521Y212025D01*
X96502Y212007D01*
X96448Y211970D01*
X96356Y211916D01*
X96265Y211843D01*
X96138Y211752D01*
X96010Y211643D01*
X95774Y211351D01*
X95755Y211333D01*
X95719Y211278D01*
X95682Y211187D01*
X95609Y211078D01*
X95537Y210932D01*
X95482Y210768D01*
X95409Y210586D01*
X95354Y210385D01*
Y210367D01*
X95336Y210294D01*
X95318Y210185D01*
X95300Y210039D01*
X95263Y209857D01*
X95245Y209657D01*
X95227Y209219D01*
Y209183D01*
Y209092D01*
X95245Y208946D01*
Y208764D01*
X95263Y208563D01*
X95300Y208326D01*
X95391Y207871D01*
Y207853D01*
X95427Y207780D01*
X95464Y207670D01*
X95518Y207543D01*
X95664Y207233D01*
X95864Y206924D01*
X95883Y206905D01*
X95919Y206869D01*
X95992Y206796D01*
X96083Y206723D01*
X96193Y206632D01*
X96320Y206541D01*
X96612Y206359D01*
X96630D01*
X96684Y206322D01*
X96794Y206304D01*
X96903Y206267D01*
X97067Y206231D01*
X97231Y206213D01*
X97431Y206176D01*
X97741D01*
X97851Y206195D01*
X98014Y206213D01*
X98178Y206231D01*
X98361Y206286D01*
X98543Y206340D01*
X98725Y206413D01*
X98743Y206432D01*
X98798Y206468D01*
X98889Y206523D01*
X98998Y206595D01*
X99108Y206687D01*
X99235Y206814D01*
X99472Y207087D01*
X99490Y207106D01*
X99527Y207160D01*
X99563Y207251D01*
X99636Y207361D01*
X99709Y207506D01*
X99764Y207670D01*
X99836Y207853D01*
X99891Y208053D01*
Y208071D01*
X99909Y208144D01*
X99946Y208272D01*
X99964Y208418D01*
X100001Y208581D01*
X100019Y208782D01*
X100037Y209219D01*
Y209256D01*
Y209347D01*
Y209492D01*
X100019Y209675D01*
X100001Y209875D01*
X99964Y210112D01*
X99909Y210331D01*
X99855Y210549D01*
Y210567D01*
X99818Y210640D01*
X99782Y210750D01*
X99727Y210895D01*
X99581Y211187D01*
X99490Y211351D01*
X99381Y211497D01*
X99363Y211515D01*
X99326Y211551D01*
X99253Y211624D01*
X99162Y211715D01*
X99053Y211806D01*
X98926Y211897D01*
X98616Y212080D01*
X98598Y212098D01*
X98543Y212116D01*
X98452Y212153D01*
X98324Y212189D01*
X98178Y212226D01*
X98014Y212244D01*
X97832Y212280D01*
D02*
G37*
%LPD*%
D26*
X133661Y129921D02*
D03*
X149803D02*
D03*
X141732D02*
D03*
D27*
X282200Y8760D02*
D03*
Y-8760D02*
D03*
X15748Y8760D02*
D03*
Y-8760D02*
D03*
Y-77854D02*
D03*
Y-95374D02*
D03*
Y77854D02*
D03*
Y95374D02*
D03*
D28*
X132972Y43307D02*
D03*
X150492D02*
D03*
D29*
X-23622Y121221D02*
D03*
Y91535D02*
D03*
Y62165D02*
D03*
Y-122047D02*
D03*
Y-51181D02*
D03*
Y-104331D02*
D03*
Y-86614D02*
D03*
Y-68898D02*
D03*
D30*
Y111221D02*
D03*
Y81535D02*
D03*
Y52165D02*
D03*
D31*
X0Y-129921D02*
D03*
X282200D02*
D03*
Y-43307D02*
D03*
X0D02*
D03*
Y43307D02*
D03*
X282200D02*
D03*
Y129921D02*
D03*
X0D02*
D03*
D32*
X32100Y-98421D02*
D03*
X249600Y-161421D02*
D03*
X282200Y-98421D02*
D03*
X250100Y-74807D02*
D03*
X32600Y-11807D02*
D03*
X0Y-74807D02*
D03*
X32100Y74807D02*
D03*
X249600Y11807D02*
D03*
X282200Y74807D02*
D03*
X250100Y98421D02*
D03*
X32600Y161421D02*
D03*
X0Y98421D02*
D03*
D33*
X-27559Y-19685D02*
D03*
Y3937D02*
D03*
Y27559D02*
D03*
D34*
X-19685Y-19685D02*
D03*
X-27559Y-27559D02*
D03*
X-19685D02*
D03*
Y3937D02*
D03*
X-27559Y-3937D02*
D03*
X-19685D02*
D03*
X-27559Y-11811D02*
D03*
X-19685D02*
D03*
Y27559D02*
D03*
X-27559Y19685D02*
D03*
X-19685D02*
D03*
X-27559Y11811D02*
D03*
X-19685D02*
D03*
D35*
X310070Y-157480D02*
D03*
Y157480D02*
D03*
X-27870D02*
D03*
Y-157480D02*
D03*
M02*
